<svg width="70" height="110" viewBox="0 0 70 110" fill="none" xmlns="http://www.w3.org/2000/svg">
<path opacity="0.2" fill-rule="evenodd" clip-rule="evenodd" d="M59.7251 74.9858C73.3816 82.7896 73.3816 95.7367 59.7251 103.54C46.0685 111.344 23.8989 111.344 10.2424 103.54C-3.41414 95.5593 -3.41414 82.7896 10.2424 74.9858C23.8989 67.0047 46.0685 67.0047 59.7251 74.9858Z" fill="#E9E9EB"/>
<path opacity="0.2" fill-rule="evenodd" clip-rule="evenodd" d="M54.5761 78.0345C65.3949 84.2421 65.3949 94.3515 54.5761 100.559C43.7573 106.767 26.3763 106.767 15.5575 100.559C4.73866 94.3515 4.73866 84.2421 15.5575 78.0345C26.3763 71.827 43.7573 71.827 54.5761 78.0345Z" fill="#DDDEE1"/>
<path opacity="0.2" fill-rule="evenodd" clip-rule="evenodd" d="M49.267 80.9975C57.2481 85.6088 57.2481 92.8804 49.267 97.4917C41.2859 102.103 28.5161 102.103 20.7124 97.4917C12.7313 92.8804 12.7313 85.6088 20.7124 80.9975C28.6935 76.3862 41.4632 76.3862 49.267 80.9975Z" fill="#D1D2D6"/>
<path fill-rule="evenodd" clip-rule="evenodd" d="M41.7193 27.0668V27.4214L41.8966 27.7762V28.1309V28.4857V28.8403L42.0741 29.195V29.5498V30.0818V30.7913L41.8966 31.678V32.3874L41.7193 33.2743L41.5421 33.9837L41.3645 34.8704L41.1873 35.7572L41.01 36.4667L40.6552 37.3535L40.478 38.2402L40.1232 38.9497L39.7684 39.8365L39.4136 40.5458L39.0591 41.4327L38.7043 42.1421L38.1722 43.029L37.2854 44.4477L36.2213 46.044L35.1572 47.4629L34.0931 48.7044L33.7383 48.8817L26.8214 44.8025L20.4365 53.6704L10.6817 67.1495L8.02148 71.0514L19.5496 77.6137L22.2099 73.8892L31.9646 60.41V60.2326L33.7383 57.7496L38.527 60.41H38.7043H38.8815H39.0591L40.478 59.5232L41.7193 58.6364L42.961 57.5723L44.3796 56.5081L45.444 55.2666L46.6853 54.0251L47.7494 52.6062L48.8135 51.1874L49.7004 49.5911L50.0552 48.8817L50.5872 47.995L50.942 47.2855L51.2968 46.3987L51.6513 45.6892L52.0061 44.8025L52.1834 43.9157L52.5382 43.2062L52.7154 42.3195L52.893 41.4327L53.0702 40.7232L53.2475 39.8365L53.425 39.1271V38.2402V37.5308L53.6023 36.6441V36.2893L53.425 35.9346V35.4026V35.0478V34.6931V34.3384L53.2475 33.9837V33.6289V33.2743L53.0702 33.0969V32.7422L52.893 32.5648V32.3874L52.7154 32.0328V31.8554L52.5382 31.5007L61.5833 19.263L50.0552 12.5234L41.01 24.9384L41.1873 25.1158L41.3645 25.4705V25.6479L41.5421 26.0025V26.1799V26.5347L41.7193 26.712V27.0668Z" fill="#943B3B"/>
<path fill-rule="evenodd" clip-rule="evenodd" d="M41.7193 27.0668V27.4214L41.8966 27.7762V28.1309V28.4857V28.8403L42.0741 29.195V29.5498V30.0818V30.7913L41.8966 31.678V32.3874L41.7193 33.2743L41.5421 33.9837L41.3645 34.8704L41.1873 35.7572L41.01 36.4667L40.6552 37.3535L40.478 38.2402L40.1232 38.9497L39.7684 39.8365L39.4136 40.5458L39.0591 41.4327L38.7043 42.1421L38.1722 43.029L37.2854 44.4477L36.2213 46.044L35.1572 47.4629L34.0931 48.7044L33.7383 48.8817L26.8214 44.8025L20.4365 53.6704L10.6817 67.1495L8.02148 71.0514L19.5496 77.6137L22.2099 73.8892L31.9646 60.41V60.2326L33.7383 57.7496L38.527 60.41H38.7043H38.8815H39.0591L40.478 59.5232L41.7193 58.6364L42.961 57.5723L44.3796 56.5081L45.444 55.2666L46.6853 54.0251L47.7494 52.6062L48.8135 51.1874L49.7004 49.5911L50.0552 48.8817L50.5872 47.995L50.942 47.2855L51.2968 46.3987L51.6513 45.6892L52.0061 44.8025L52.1834 43.9157L52.5382 43.2062L52.7154 42.3195L52.893 41.4327L53.0702 40.7232L53.2475 39.8365L53.425 39.1271V38.2402V37.5308L53.6023 36.6441V36.2893L53.425 35.9346V35.4026V35.0478V34.6931V34.3384L53.2475 33.9837V33.6289V33.2743L53.0702 33.0969V32.7422L52.893 32.5648V32.3874L52.7154 32.0328V31.8554L52.5382 31.5007L61.5833 19.263L50.0552 12.5234L41.01 24.9384L41.1873 25.1158L41.3645 25.4705V25.6479L41.5421 26.0025V26.1799V26.5347L41.7193 26.712V27.0668Z" fill="url(#paint0_linear_1_10362)"/>
<path fill-rule="evenodd" clip-rule="evenodd" d="M61.5793 19.3086L52.7114 31.7236C52.7114 31.7236 53.2436 32.9651 53.421 33.8519C53.5983 34.7387 53.7758 35.8028 53.7758 36.867C53.7758 41.1236 52.3569 45.7349 49.8739 49.8141C47.5682 53.8934 44.1984 57.6178 40.6512 59.7461L39.2323 60.633C39.2323 60.633 38.523 60.6329 38.523 60.2782V51.7651L32.1381 60.633L22.5606 74.1122L19.9004 77.8367L38.7003 82.2706V74.1122C38.7003 74.1122 39.0549 73.048 39.4096 72.8707L40.8285 71.9838C47.3907 68.082 53.4208 61.5197 57.6774 54.0707C61.934 46.6217 64.5946 38.1085 64.5946 30.4821C64.5946 27.9991 64.4171 25.8709 63.885 23.9199C63.3529 22.1464 62.8209 20.5501 61.9341 19.3086H61.5793Z" fill="#E74C3C"/>
<path fill-rule="evenodd" clip-rule="evenodd" d="M61.5793 19.3086L52.7114 31.7236C52.7114 31.7236 53.2436 32.9651 53.421 33.8519C53.5983 34.7387 53.7758 35.8028 53.7758 36.867C53.7758 41.1236 52.3569 45.7349 49.8739 49.8141C47.5682 53.8934 44.1984 57.6178 40.6512 59.7461L39.2323 60.633C39.2323 60.633 38.523 60.6329 38.523 60.2782V51.7651L32.1381 60.633L22.5606 74.1122L19.9004 77.8367L38.7003 82.2706V74.1122C38.7003 74.1122 39.0549 73.048 39.4096 72.8707L40.8285 71.9838C47.3907 68.082 53.4208 61.5197 57.6774 54.0707C61.934 46.6217 64.5946 38.1085 64.5946 30.4821C64.5946 27.9991 64.4171 25.8709 63.885 23.9199C63.3529 22.1464 62.8209 20.5501 61.9341 19.3086H61.5793Z" fill="url(#paint1_linear_1_10362)"/>
<path fill-rule="evenodd" clip-rule="evenodd" d="M19.5496 77.6119L38.3495 51.5403L26.8214 44.8008L8.02148 71.0496L19.5496 77.6119Z" fill="#BF4A3D"/>
<path fill-rule="evenodd" clip-rule="evenodd" d="M19.5496 77.6119L38.3495 51.5403L26.8214 44.8008L8.02148 71.0496L19.5496 77.6119Z" fill="url(#paint2_linear_1_10362)"/>
<path fill-rule="evenodd" clip-rule="evenodd" d="M41.5356 15.9621V15.7848V15.43V15.0754V14.7206V6.56215L60.3355 10.9961L48.8071 4.43394L30.0072 0V8.15844V8.51309V8.86788V9.22254V9.39993L28.5883 10.2866L27.347 10.9961L26.1053 11.8829L24.864 12.7696L23.6223 13.6565L22.5582 14.7206L21.4941 15.7848L20.43 16.8489L19.3659 17.913L18.3018 19.1545L17.2375 20.396L16.1733 21.6375L15.2865 22.879L14.3999 24.1207L13.5131 25.5394L12.6263 26.9583L11.7394 28.3772L11.0301 29.7961L10.3205 31.2148L9.6112 32.6337L8.90162 34.0526L8.36957 35.4715L7.83752 36.8903L7.30547 38.3092L6.77341 39.7281L6.41862 41.147L6.0641 42.5657L5.70931 43.9846V45.4035L5.17726 46.8224V48.2412L5 49.6601V51.079V51.9658V52.8525V53.7393V54.6261L5.17726 55.5129V56.3997L5.53205 57.1091V57.8185L5.88657 58.5279V59.2374L6.24136 59.7694V60.3015L6.77341 60.8337L7.12821 61.3657L7.483 61.8978L7.83752 62.4298L19.3659 68.9921C19.3659 68.9921 19.1885 68.6374 19.0111 68.4601C19.0111 68.4601 18.8339 68.1052 18.8339 67.9279C18.8339 67.9279 18.8337 67.5732 18.6563 67.3958C18.6563 67.0411 18.3017 66.6864 18.1243 66.3317C18.1243 66.3317 18.1244 65.977 17.947 65.7997C17.947 65.6223 17.9469 65.445 17.7695 65.2676C17.7695 65.0903 17.7695 64.9128 17.7695 64.7354C17.7695 64.2034 17.5923 63.8488 17.415 63.3167C17.415 63.1393 17.415 62.7846 17.415 62.6072C17.415 62.6072 17.415 62.0751 17.415 61.7204C17.415 61.543 17.415 61.1883 17.415 61.0109C17.415 60.8336 17.415 60.4789 17.415 60.3015C17.415 60.3015 17.415 59.7695 17.415 59.4148C17.415 59.4148 17.415 58.8827 17.415 58.5279C17.415 58.5279 17.415 57.6411 17.415 57.1091C17.415 57.1091 17.415 56.045 17.415 55.6903C17.415 54.6261 17.5921 53.7393 17.7695 52.6751C17.7695 51.611 18.1245 50.7242 18.3018 49.6601C18.3018 49.6601 18.479 48.5959 18.6563 48.2412C18.6563 47.7091 19.0111 47.3545 19.0111 46.8224C19.0111 46.2903 19.3658 45.9356 19.5432 45.4035C19.5432 44.8714 19.8979 44.5167 20.0752 43.9846C20.0752 43.4525 20.4299 43.0978 20.6073 42.5657C20.7846 42.0337 20.962 41.679 21.1393 41.147C21.4941 40.0828 22.0262 39.196 22.5582 38.3092C22.7356 37.7771 23.0905 37.4224 23.2678 36.8903C23.4452 36.3582 23.7998 36.0036 23.9771 35.4715C24.1545 34.9395 24.5093 34.5847 24.864 34.0526C25.0413 33.6979 25.3961 33.1659 25.7508 32.8111C26.2829 31.9244 26.9922 31.0375 27.5242 30.1507C27.8789 29.796 28.2337 29.264 28.4111 28.9092C28.7658 28.5545 29.1205 28.0225 29.4752 27.6678C32.845 23.5885 36.7468 20.0414 40.8261 17.7358L42.0677 17.0263L41.5356 15.9621Z" fill="#27AE60"/>
<path fill-rule="evenodd" clip-rule="evenodd" d="M41.5356 15.9621V15.7848V15.43V15.0754V14.7206V6.56215L60.3355 10.9961L48.8071 4.43394L30.0072 0V8.15844V8.51309V8.86788V9.22254V9.39993L28.5883 10.2866L27.347 10.9961L26.1053 11.8829L24.864 12.7696L23.6223 13.6565L22.5582 14.7206L21.4941 15.7848L20.43 16.8489L19.3659 17.913L18.3018 19.1545L17.2375 20.396L16.1733 21.6375L15.2865 22.879L14.3999 24.1207L13.5131 25.5394L12.6263 26.9583L11.7394 28.3772L11.0301 29.7961L10.3205 31.2148L9.6112 32.6337L8.90162 34.0526L8.36957 35.4715L7.83752 36.8903L7.30547 38.3092L6.77341 39.7281L6.41862 41.147L6.0641 42.5657L5.70931 43.9846V45.4035L5.17726 46.8224V48.2412L5 49.6601V51.079V51.9658V52.8525V53.7393V54.6261L5.17726 55.5129V56.3997L5.53205 57.1091V57.8185L5.88657 58.5279V59.2374L6.24136 59.7694V60.3015L6.77341 60.8337L7.12821 61.3657L7.483 61.8978L7.83752 62.4298L19.3659 68.9921C19.3659 68.9921 19.1885 68.6374 19.0111 68.4601C19.0111 68.4601 18.8339 68.1052 18.8339 67.9279C18.8339 67.9279 18.8337 67.5732 18.6563 67.3958C18.6563 67.0411 18.3017 66.6864 18.1243 66.3317C18.1243 66.3317 18.1244 65.977 17.947 65.7997C17.947 65.6223 17.9469 65.445 17.7695 65.2676C17.7695 65.0903 17.7695 64.9128 17.7695 64.7354C17.7695 64.2034 17.5923 63.8488 17.415 63.3167C17.415 63.1393 17.415 62.7846 17.415 62.6072C17.415 62.6072 17.415 62.0751 17.415 61.7204C17.415 61.543 17.415 61.1883 17.415 61.0109C17.415 60.8336 17.415 60.4789 17.415 60.3015C17.415 60.3015 17.415 59.7695 17.415 59.4148C17.415 59.4148 17.415 58.8827 17.415 58.5279C17.415 58.5279 17.415 57.6411 17.415 57.1091C17.415 57.1091 17.415 56.045 17.415 55.6903C17.415 54.6261 17.5921 53.7393 17.7695 52.6751C17.7695 51.611 18.1245 50.7242 18.3018 49.6601C18.3018 49.6601 18.479 48.5959 18.6563 48.2412C18.6563 47.7091 19.0111 47.3545 19.0111 46.8224C19.0111 46.2903 19.3658 45.9356 19.5432 45.4035C19.5432 44.8714 19.8979 44.5167 20.0752 43.9846C20.0752 43.4525 20.4299 43.0978 20.6073 42.5657C20.7846 42.0337 20.962 41.679 21.1393 41.147C21.4941 40.0828 22.0262 39.196 22.5582 38.3092C22.7356 37.7771 23.0905 37.4224 23.2678 36.8903C23.4452 36.3582 23.7998 36.0036 23.9771 35.4715C24.1545 34.9395 24.5093 34.5847 24.864 34.0526C25.0413 33.6979 25.3961 33.1659 25.7508 32.8111C26.2829 31.9244 26.9922 31.0375 27.5242 30.1507C27.8789 29.796 28.2337 29.264 28.4111 28.9092C28.7658 28.5545 29.1205 28.0225 29.4752 27.6678C32.845 23.5885 36.7468 20.0414 40.8261 17.7358L42.0677 17.0263L41.5356 15.9621Z" fill="url(#paint3_linear_1_10362)"/>
<path fill-rule="evenodd" clip-rule="evenodd" d="M19.0311 69.4737L27.899 57.0586C27.899 57.0586 27.3671 55.8172 27.1897 54.9304C27.0124 54.0436 26.8349 52.9795 26.8349 51.9154C26.8349 47.6588 28.2538 43.0474 30.7368 38.9682C33.0425 34.889 36.4121 31.1645 39.9592 29.0362L41.3781 28.1494C41.3781 28.1494 42.0877 28.1495 42.0877 28.5042V37.0173L48.4726 28.1494L58.0498 14.6702L60.7103 10.9457L41.9102 6.51172V14.6702C41.9102 14.6702 41.5556 15.7343 41.2009 15.9117L39.9592 16.7985C33.397 20.7004 27.3669 27.2626 23.1103 34.7117C18.8537 42.1607 16.1934 50.6737 16.1934 58.3001C16.1934 60.7831 16.5482 62.9115 16.9029 64.8624C17.435 66.636 17.9671 68.2322 18.8539 69.4737H19.0311Z" fill="#34CF75"/>
<path fill-rule="evenodd" clip-rule="evenodd" d="M19.0311 69.4737L27.899 57.0586C27.899 57.0586 27.3671 55.8172 27.1897 54.9304C27.0124 54.0436 26.8349 52.9795 26.8349 51.9154C26.8349 47.6588 28.2538 43.0474 30.7368 38.9682C33.0425 34.889 36.4121 31.1645 39.9592 29.0362L41.3781 28.1494C41.3781 28.1494 42.0877 28.1495 42.0877 28.5042V37.0173L48.4726 28.1494L58.0498 14.6702L60.7103 10.9457L41.9102 6.51172V14.6702C41.9102 14.6702 41.5556 15.7343 41.2009 15.9117L39.9592 16.7985C33.397 20.7004 27.3669 27.2626 23.1103 34.7117C18.8537 42.1607 16.1934 50.6737 16.1934 58.3001C16.1934 60.7831 16.5482 62.9115 16.9029 64.8624C17.435 66.636 17.9671 68.2322 18.8539 69.4737H19.0311Z" fill="url(#paint4_linear_1_10362)"/>
<defs>
<linearGradient id="paint0_linear_1_10362" x1="8.00597" y1="45.0685" x2="61.5476" y2="45.0685" gradientUnits="userSpaceOnUse">
<stop stop-color="#4AFFC7"/>
<stop offset="1" stop-color="#3BADEA"/>
</linearGradient>
<linearGradient id="paint1_linear_1_10362" x1="30.3565" y1="50.2545" x2="64.9949" y2="50.4975" gradientUnits="userSpaceOnUse">
<stop stop-color="#E6F0FF"/>
<stop offset="0.24" stop-color="#E2ECFD"/>
<stop offset="0.47" stop-color="#D6E3F8"/>
<stop offset="0.69" stop-color="#C3D3F0"/>
<stop offset="0.91" stop-color="#A9BDE4"/>
<stop offset="1" stop-color="#9CB2DF"/>
</linearGradient>
<linearGradient id="paint2_linear_1_10362" x1="8.0127" y1="61.2063" x2="38.3293" y2="61.2063" gradientUnits="userSpaceOnUse">
<stop stop-color="#4AFFC7"/>
<stop offset="1" stop-color="#3BADEA"/>
</linearGradient>
<linearGradient id="paint3_linear_1_10362" x1="4.98397" y1="34.4961" x2="60.2986" y2="34.4961" gradientUnits="userSpaceOnUse">
<stop stop-color="#4AFFC7"/>
<stop offset="1" stop-color="#3BADEA"/>
</linearGradient>
<linearGradient id="paint4_linear_1_10362" x1="26.608" y1="37.4576" x2="61.1091" y2="37.6987" gradientUnits="userSpaceOnUse">
<stop stop-color="#E6F0FF"/>
<stop offset="0.24" stop-color="#E2ECFD"/>
<stop offset="0.47" stop-color="#D6E3F8"/>
<stop offset="0.69" stop-color="#C3D3F0"/>
<stop offset="0.91" stop-color="#A9BDE4"/>
<stop offset="1" stop-color="#9CB2DF"/>
</linearGradient>
</defs>
</svg>
