<svg width="70" height="101" viewBox="0 0 70 101" fill="none" xmlns="http://www.w3.org/2000/svg">
<path opacity="0.2" fill-rule="evenodd" clip-rule="evenodd" d="M59.7251 65.9858C73.3816 73.7896 73.3816 86.7367 59.7251 94.5404C46.0685 102.344 23.8989 102.344 10.2424 94.5404C-3.41414 86.5593 -3.41414 73.7896 10.2424 65.9858C23.8989 58.0047 46.0685 58.0047 59.7251 65.9858Z" fill="#E9E9EB"/>
<path opacity="0.2" fill-rule="evenodd" clip-rule="evenodd" d="M54.5761 69.0345C65.3949 75.2421 65.3949 85.3515 54.5761 91.559C43.7573 97.7666 26.3763 97.7666 15.5575 91.559C4.73866 85.3515 4.73866 75.2421 15.5575 69.0345C26.3763 62.827 43.7573 62.827 54.5761 69.0345Z" fill="#DDDEE1"/>
<path opacity="0.2" fill-rule="evenodd" clip-rule="evenodd" d="M49.267 71.9975C57.2481 76.6088 57.2481 83.8804 49.267 88.4917C41.2859 93.103 28.5161 93.103 20.7124 88.4917C12.7313 83.8804 12.7313 76.6088 20.7124 71.9975C28.6935 67.3862 41.4632 67.3862 49.267 71.9975Z" fill="#D1D2D6"/>
<path fill-rule="evenodd" clip-rule="evenodd" d="M45.2974 63.7322L36.6684 78.3634C36.6684 78.3634 35.9181 79.1136 35.543 79.1136C35.1678 79.1136 34.6051 78.9261 34.4175 78.3634L25.7891 63.7322L37.9816 59.793L45.6724 63.7322H45.2974Z" fill="#E8D6AC"/>
<path fill-rule="evenodd" clip-rule="evenodd" d="M45.2974 63.7322L36.6684 78.3634C36.6684 78.3634 35.9181 79.1136 35.543 79.1136C35.1678 79.1136 34.6051 78.9261 34.4175 78.3634L25.7891 63.7322L37.9816 59.793L45.6724 63.7322H45.2974Z" fill="url(#paint0_linear_1_10373)"/>
<path fill-rule="evenodd" clip-rule="evenodd" d="M45.2974 63.7322L36.6684 78.3634C36.6684 78.3634 35.9181 79.1136 35.543 79.1136C35.1678 79.1136 34.6051 78.9261 34.4175 78.3634L25.7891 63.7322L37.9816 59.793L45.6724 63.7322H45.2974Z" fill="url(#paint1_linear_1_10373)"/>
<path fill-rule="evenodd" clip-rule="evenodd" d="M45.6316 14.0781V62.4734C45.6316 62.4734 45.6314 64.3491 44.8811 64.7243L39.8167 67.3507L36.2526 66.6002C36.2526 66.6002 31.9383 68.101 31.5632 67.9134L26.1232 64.7243C26.1232 64.7243 25.3731 63.2238 25.1855 62.4734V14.0781V14.4533V14.6408V15.016V15.2035V15.7665V16.3292H25.3733L25.5605 16.8919H25.7483L25.936 17.4546H26.311L26.6859 17.8296H27.0614L27.4364 18.2048H27.8114L28.1869 18.5801H28.5618L28.9368 18.9553H29.3123L29.6873 19.3303H30.25L30.8127 19.518H31.3754H31.9381H32.5008H33.0635H33.6262H34.189H34.7522H35.315H35.8777H36.4404H37.0031H37.5658H38.1285H38.6912H39.0662L39.4417 19.3303H39.8167L40.1916 19.1428H40.5671L40.9421 18.7675H41.317L41.6926 18.3926H42.0675L42.4425 18.0174H42.818L43.193 17.6421H43.5679L43.9434 17.0794H44.1312L44.3184 16.5167H44.5061L44.6939 15.954V15.5787L45.0689 15.3913V14.8286V14.4533V14.0781V13.7031L45.6316 14.0781Z" fill="#E6B543"/>
<path fill-rule="evenodd" clip-rule="evenodd" d="M45.6316 14.0781V62.4734C45.6316 62.4734 45.6314 64.3491 44.8811 64.7243L39.8167 67.3507L36.2526 66.6002C36.2526 66.6002 31.9383 68.101 31.5632 67.9134L26.1232 64.7243C26.1232 64.7243 25.3731 63.2238 25.1855 62.4734V14.0781V14.4533V14.6408V15.016V15.2035V15.7665V16.3292H25.3733L25.5605 16.8919H25.7483L25.936 17.4546H26.311L26.6859 17.8296H27.0614L27.4364 18.2048H27.8114L28.1869 18.5801H28.5618L28.9368 18.9553H29.3123L29.6873 19.3303H30.25L30.8127 19.518H31.3754H31.9381H32.5008H33.0635H33.6262H34.189H34.7522H35.315H35.8777H36.4404H37.0031H37.5658H38.1285H38.6912H39.0662L39.4417 19.3303H39.8167L40.1916 19.1428H40.5671L40.9421 18.7675H41.317L41.6926 18.3926H42.0675L42.4425 18.0174H42.818L43.193 17.6421H43.5679L43.9434 17.0794H44.1312L44.3184 16.5167H44.5061L44.6939 15.954V15.5787L45.0689 15.3913V14.8286V14.4533V14.0781V13.7031L45.6316 14.0781Z" fill="url(#paint2_linear_1_10373)"/>
<path fill-rule="evenodd" clip-rule="evenodd" d="M39.2472 73.8718L36.6208 78.3738C36.6208 78.3738 35.8705 79.1239 35.4954 79.1239C35.1202 79.1239 34.5575 78.9365 34.3699 78.3738L31.7441 73.8718L33.8072 74.6222L36.2458 72.3711L39.4349 73.6843L39.2472 73.8718Z" fill="#2C3E50"/>
<path fill-rule="evenodd" clip-rule="evenodd" d="M39.2472 73.8718L36.6208 78.3738C36.6208 78.3738 35.8705 79.1239 35.4954 79.1239C35.1202 79.1239 34.5575 78.9365 34.3699 78.3738L31.7441 73.8718L33.8072 74.6222L36.2458 72.3711L39.4349 73.6843L39.2472 73.8718Z" fill="url(#paint3_linear_1_10373)"/>
<path fill-rule="evenodd" clip-rule="evenodd" d="M45.6338 12.0234V13.8993V14.2746V14.4621V14.8373L45.446 15.2122L45.2588 15.4V15.7752L45.0711 15.9627L44.8833 16.338L44.5084 16.5254L44.3206 16.7129L44.1334 17.0881L43.7579 17.2756L43.3829 17.4634L43.0074 17.8383L42.8202 18.0261L42.4447 18.2136L42.0697 18.4013L41.6948 18.5888L41.1321 18.7763L40.7566 18.964H40.3816L39.8189 19.1515L39.4439 19.339H39.0684L38.5057 19.5268H38.1307L37.568 19.7142H37.0053H36.6298H36.0671H35.5044H35.1294H34.5667H34.004H33.6285H33.0658L32.503 19.5268H32.1281L31.5654 19.339H31.1904L30.6277 19.1515L30.2522 18.964L29.6895 18.7763L29.3145 18.5888L28.939 18.4013L28.564 18.2136L28.1891 18.0261L27.8136 17.8383L27.4386 17.6509L27.0637 17.4634L26.8759 17.0881L26.501 16.9007L26.3132 16.7129L26.1254 16.338L25.9382 16.1502L25.7505 15.9627L25.5627 15.5875L25.3755 15.4L25.1878 15.0248V14.8373L25 14.4621V14.2746V13.8993V12.0234V12.2112V12.5862L25.1878 12.7739V13.1489L25.3755 13.3366L25.5627 13.7119L25.7505 13.8993L25.9382 14.2746L26.1254 14.4621L26.3132 14.6495L26.501 15.0248L26.8759 15.2122L27.0637 15.4L27.4386 15.5875L27.8136 15.9627L28.1891 16.1502L28.564 16.338L28.939 16.5254L29.3145 16.7129L29.6895 16.9007L30.2522 17.0881H30.6277L31.1904 17.2756L31.5654 17.4634H32.1281L32.503 17.6509H33.0658H33.6285L34.004 17.8383H34.5667H35.1294H35.5044H36.0671H36.6298L37.0053 17.6509H37.568H38.1307L38.5057 17.4634H39.0684L39.4439 17.2756H39.8189L40.3816 17.0881L40.7566 16.9007L41.1321 16.7129L41.6948 16.5254L42.0697 16.338L42.4447 16.1502L42.8202 15.9627L43.0074 15.7752L43.3829 15.5875L43.7579 15.4L44.1334 15.0248L44.3206 14.8373L44.5084 14.6495L44.8833 14.2746L45.0711 14.0868L45.2588 13.7119V13.5241L45.446 13.1489L45.6338 12.9614V12.5862V12.2112V12.0234Z" fill="#E6EAEB"/>
<path fill-rule="evenodd" clip-rule="evenodd" d="M45.6338 12.0234V13.8993V14.2746V14.4621V14.8373L45.446 15.2122L45.2588 15.4V15.7752L45.0711 15.9627L44.8833 16.338L44.5084 16.5254L44.3206 16.7129L44.1334 17.0881L43.7579 17.2756L43.3829 17.4634L43.0074 17.8383L42.8202 18.0261L42.4447 18.2136L42.0697 18.4013L41.6948 18.5888L41.1321 18.7763L40.7566 18.964H40.3816L39.8189 19.1515L39.4439 19.339H39.0684L38.5057 19.5268H38.1307L37.568 19.7142H37.0053H36.6298H36.0671H35.5044H35.1294H34.5667H34.004H33.6285H33.0658L32.503 19.5268H32.1281L31.5654 19.339H31.1904L30.6277 19.1515L30.2522 18.964L29.6895 18.7763L29.3145 18.5888L28.939 18.4013L28.564 18.2136L28.1891 18.0261L27.8136 17.8383L27.4386 17.6509L27.0637 17.4634L26.8759 17.0881L26.501 16.9007L26.3132 16.7129L26.1254 16.338L25.9382 16.1502L25.7505 15.9627L25.5627 15.5875L25.3755 15.4L25.1878 15.0248V14.8373L25 14.4621V14.2746V13.8993V12.0234V12.2112V12.5862L25.1878 12.7739V13.1489L25.3755 13.3366L25.5627 13.7119L25.7505 13.8993L25.9382 14.2746L26.1254 14.4621L26.3132 14.6495L26.501 15.0248L26.8759 15.2122L27.0637 15.4L27.4386 15.5875L27.8136 15.9627L28.1891 16.1502L28.564 16.338L28.939 16.5254L29.3145 16.7129L29.6895 16.9007L30.2522 17.0881H30.6277L31.1904 17.2756L31.5654 17.4634H32.1281L32.503 17.6509H33.0658H33.6285L34.004 17.8383H34.5667H35.1294H35.5044H36.0671H36.6298L37.0053 17.6509H37.568H38.1307L38.5057 17.4634H39.0684L39.4439 17.2756H39.8189L40.3816 17.0881L40.7566 16.9007L41.1321 16.7129L41.6948 16.5254L42.0697 16.338L42.4447 16.1502L42.8202 15.9627L43.0074 15.7752L43.3829 15.5875L43.7579 15.4L44.1334 15.0248L44.3206 14.8373L44.5084 14.6495L44.8833 14.2746L45.0711 14.0868L45.2588 13.7119V13.5241L45.446 13.1489L45.6338 12.9614V12.5862V12.2112V12.0234Z" fill="url(#paint4_linear_1_10373)"/>
<path fill-rule="evenodd" clip-rule="evenodd" d="M45.6338 7.09766V11.9746V12.1624V12.5373V12.7251L45.446 13.1L45.2588 13.4753V13.663L45.0711 14.038L44.8833 14.2257L44.5084 14.4132L44.3206 14.7885L44.1334 14.9759L43.7579 15.3512L43.3829 15.5386L43.0074 15.7264L42.8202 15.9139L42.4447 16.1014L42.0697 16.2891L41.6948 16.4766L41.1321 16.6641L40.7566 16.8518L40.3816 17.0393L39.8189 17.2268H39.4439L39.0684 17.4145H38.5057L38.1307 17.602H37.568H37.0053L36.6298 17.7895H36.0671H35.5044H35.1294H34.5667H34.004L33.6285 17.602H33.0658H32.503L32.1281 17.4145H31.5654L31.1904 17.2268L30.6277 17.0393H30.2522L29.6895 16.8518L29.3145 16.6641L28.939 16.4766L28.564 16.2891L28.1891 16.1014L27.8136 15.9139L27.4386 15.5386L27.0637 15.3512L26.8759 15.1634L26.501 14.9759L26.3132 14.6007L26.1254 14.4132L25.9382 14.2257L25.7505 13.8505L25.5627 13.663L25.3755 13.2878L25.1878 13.1V12.7251L25 12.5373V12.1624V11.9746V7.09766V7.47289V7.66037L25.1878 8.03561V8.22308L25.3755 8.59832L25.5627 8.7858L25.7505 9.16103L25.9382 9.34851L26.1254 9.53627L26.3132 9.91122L26.501 10.099L26.8759 10.2865L27.0637 10.6617L27.4386 10.8492L27.8136 11.0369L28.1891 11.2244L28.564 11.4119L28.939 11.5997L29.3145 11.7871L29.6895 11.9746L30.2522 12.1624L30.6277 12.3498L31.1904 12.5373H31.5654L32.1281 12.7251H32.503L33.0658 12.9126H33.6285H34.004H34.5667H35.1294H35.5044H36.0671H36.6298H37.0053H37.568L38.1307 12.7251H38.5057L39.0684 12.5373H39.4439L39.8189 12.3498L40.3816 12.1624H40.7566L41.1321 11.9746L41.6948 11.7871L42.0697 11.5997L42.4447 11.4119L42.8202 11.2244L43.0074 11.0369L43.3829 10.6617L43.7579 10.4739L44.1334 10.2865L44.3206 9.91122L44.5084 9.72375L44.8833 9.34851L45.0711 9.16103L45.2588 8.97356V8.59832L45.446 8.22308L45.6338 8.03561V7.66037V7.47289V7.09766Z" fill="#2C3E50"/>
<path fill-rule="evenodd" clip-rule="evenodd" d="M45.6338 7.09766V11.9746V12.1624V12.5373V12.7251L45.446 13.1L45.2588 13.4753V13.663L45.0711 14.038L44.8833 14.2257L44.5084 14.4132L44.3206 14.7885L44.1334 14.9759L43.7579 15.3512L43.3829 15.5386L43.0074 15.7264L42.8202 15.9139L42.4447 16.1014L42.0697 16.2891L41.6948 16.4766L41.1321 16.6641L40.7566 16.8518L40.3816 17.0393L39.8189 17.2268H39.4439L39.0684 17.4145H38.5057L38.1307 17.602H37.568H37.0053L36.6298 17.7895H36.0671H35.5044H35.1294H34.5667H34.004L33.6285 17.602H33.0658H32.503L32.1281 17.4145H31.5654L31.1904 17.2268L30.6277 17.0393H30.2522L29.6895 16.8518L29.3145 16.6641L28.939 16.4766L28.564 16.2891L28.1891 16.1014L27.8136 15.9139L27.4386 15.5386L27.0637 15.3512L26.8759 15.1634L26.501 14.9759L26.3132 14.6007L26.1254 14.4132L25.9382 14.2257L25.7505 13.8505L25.5627 13.663L25.3755 13.2878L25.1878 13.1V12.7251L25 12.5373V12.1624V11.9746V7.09766V7.47289V7.66037L25.1878 8.03561V8.22308L25.3755 8.59832L25.5627 8.7858L25.7505 9.16103L25.9382 9.34851L26.1254 9.53627L26.3132 9.91122L26.501 10.099L26.8759 10.2865L27.0637 10.6617L27.4386 10.8492L27.8136 11.0369L28.1891 11.2244L28.564 11.4119L28.939 11.5997L29.3145 11.7871L29.6895 11.9746L30.2522 12.1624L30.6277 12.3498L31.1904 12.5373H31.5654L32.1281 12.7251H32.503L33.0658 12.9126H33.6285H34.004H34.5667H35.1294H35.5044H36.0671H36.6298H37.0053H37.568L38.1307 12.7251H38.5057L39.0684 12.5373H39.4439L39.8189 12.3498L40.3816 12.1624H40.7566L41.1321 11.9746L41.6948 11.7871L42.0697 11.5997L42.4447 11.4119L42.8202 11.2244L43.0074 11.0369L43.3829 10.6617L43.7579 10.4739L44.1334 10.2865L44.3206 9.91122L44.5084 9.72375L44.8833 9.34851L45.0711 9.16103L45.2588 8.97356V8.59832L45.446 8.22308L45.6338 8.03561V7.66037V7.47289V7.09766Z" fill="url(#paint5_linear_1_10373)"/>
<path fill-rule="evenodd" clip-rule="evenodd" d="M30.2676 12.1557C25.3906 10.4675 23.7027 6.90348 26.5164 3.90221C29.3301 1.08853 35.7077 0.15073 40.5848 1.65136C45.4618 3.33957 47.1497 6.90333 44.336 9.90459C43.2106 11.0301 41.5225 11.7805 39.8343 12.3432V17.2201H39.4594H39.0838H38.5211H37.9584H37.3957H36.833H36.2703H35.7076H35.1449H34.5821H34.0194H33.4567H32.894H32.3313H31.7686H31.2059H30.6431V12.3432C30.6431 12.3432 29.8927 12.1555 29.33 11.968L30.2676 12.1557Z" fill="#415A73"/>
<path fill-rule="evenodd" clip-rule="evenodd" d="M30.2676 12.1557C25.3906 10.4675 23.7027 6.90348 26.5164 3.90221C29.3301 1.08853 35.7077 0.15073 40.5848 1.65136C45.4618 3.33957 47.1497 6.90333 44.336 9.90459C43.2106 11.0301 41.5225 11.7805 39.8343 12.3432V17.2201H39.4594H39.0838H38.5211H37.9584H37.3957H36.833H36.2703H35.7076H35.1449H34.5821H34.0194H33.4567H32.894H32.3313H31.7686H31.2059H30.6431V12.3432C30.6431 12.3432 29.8927 12.1555 29.33 11.968L30.2676 12.1557Z" fill="url(#paint6_linear_1_10373)"/>
<path fill-rule="evenodd" clip-rule="evenodd" d="M30.6384 10.2826C25.949 8.78195 24.4483 5.40565 27.0744 2.77955C29.7005 0.153445 35.7027 -0.78446 40.2046 0.71617C44.894 2.2168 46.3947 5.593 43.7686 8.40668C41.1425 11.2204 35.1403 11.9707 30.6384 10.4701V10.2826Z" fill="#2C3E50"/>
<path fill-rule="evenodd" clip-rule="evenodd" d="M30.6384 10.2826C25.949 8.78195 24.4483 5.40565 27.0744 2.77955C29.7005 0.153445 35.7027 -0.78446 40.2046 0.71617C44.894 2.2168 46.3947 5.593 43.7686 8.40668C41.1425 11.2204 35.1403 11.9707 30.6384 10.4701V10.2826Z" fill="url(#paint7_linear_1_10373)"/>
<path fill-rule="evenodd" clip-rule="evenodd" d="M39.8141 67.1451L36.25 66.3949C36.25 66.3949 31.9357 67.8954 31.5605 67.7078V19.3125H31.7483H32.311H32.8737H33.4364H33.9992H34.5619H35.1246H35.6873H36.625H37.1877H37.7504H38.3131H38.8758H39.4391H39.8141L40.189 19.125H40.5645V66.9577L39.8141 67.1451Z" fill="#FAC13C"/>
<path fill-rule="evenodd" clip-rule="evenodd" d="M39.8141 67.1451L36.25 66.3949C36.25 66.3949 31.9357 67.8954 31.5605 67.7078V19.3125H31.7483H32.311H32.8737H33.4364H33.9992H34.5619H35.1246H35.6873H36.625H37.1877H37.7504H38.3131H38.8758H39.4391H39.8141L40.189 19.125H40.5645V66.9577L39.8141 67.1451Z" fill="url(#paint8_linear_1_10373)"/>
<path fill-rule="evenodd" clip-rule="evenodd" d="M39.8163 17.2227V19.0986L39.4413 19.286H39.0658L38.5031 19.4738H38.1281L37.5654 19.6613H37.0027H36.6272H36.0645H35.5018H35.1268H34.5641H34.0014H33.6259H33.0631L32.5004 19.4738H32.1255L31.5628 19.286H31.375V17.4104H31.5628H32.1255L32.5004 17.5979H33.0631H33.6259L34.0014 17.7854H34.5641H35.1268H35.5018H36.0645H36.6272L37.0027 17.5979H37.5654H38.1281L38.5031 17.4104H39.0658L39.4413 17.2227H39.8163Z" fill="white"/>
<path fill-rule="evenodd" clip-rule="evenodd" d="M39.8163 17.2227V19.0986L39.4413 19.286H39.0658L38.5031 19.4738H38.1281L37.5654 19.6613H37.0027H36.6272H36.0645H35.5018H35.1268H34.5641H34.0014H33.6259H33.0631L32.5004 19.4738H32.1255L31.5628 19.286H31.375V17.4104H31.5628H32.1255L32.5004 17.5979H33.0631H33.6259L34.0014 17.7854H34.5641H35.1268H35.5018H36.0645H36.6272L37.0027 17.5979H37.5654H38.1281L38.5031 17.4104H39.0658L39.4413 17.2227H39.8163Z" fill="url(#paint9_linear_1_10373)"/>
<defs>
<linearGradient id="paint0_linear_1_10373" x1="30.4407" y1="69.289" x2="45.8496" y2="69.4458" gradientUnits="userSpaceOnUse">
<stop stop-color="#9CB2DF"/>
<stop offset="0.09" stop-color="#A9BDE4"/>
<stop offset="0.31" stop-color="#C3D3F0"/>
<stop offset="0.53" stop-color="#D6E3F8"/>
<stop offset="0.76" stop-color="#E2ECFD"/>
<stop offset="1" stop-color="#E6F0FF"/>
</linearGradient>
<linearGradient id="paint1_linear_1_10373" x1="30.4407" y1="69.289" x2="45.8496" y2="69.4458" gradientUnits="userSpaceOnUse">
<stop stop-color="#E6F0FF"/>
<stop offset="0.24" stop-color="#E2ECFD"/>
<stop offset="0.47" stop-color="#D6E3F8"/>
<stop offset="0.69" stop-color="#C3D3F0"/>
<stop offset="0.91" stop-color="#A9BDE4"/>
<stop offset="1" stop-color="#9CB2DF"/>
</linearGradient>
<linearGradient id="paint2_linear_1_10373" x1="29.9689" y1="40.3555" x2="45.8153" y2="40.4145" gradientUnits="userSpaceOnUse">
<stop stop-color="#E6F0FF"/>
<stop offset="0.24" stop-color="#E2ECFD"/>
<stop offset="0.47" stop-color="#D6E3F8"/>
<stop offset="0.69" stop-color="#C3D3F0"/>
<stop offset="0.91" stop-color="#A9BDE4"/>
<stop offset="1" stop-color="#9CB2DF"/>
</linearGradient>
<linearGradient id="paint3_linear_1_10373" x1="31.7419" y1="75.7475" x2="39.4298" y2="75.7475" gradientUnits="userSpaceOnUse">
<stop stop-color="#4AFFC7"/>
<stop offset="1" stop-color="#3BADEA"/>
</linearGradient>
<linearGradient id="paint4_linear_1_10373" x1="29.8272" y1="15.8035" x2="45.8081" y2="16.2274" gradientUnits="userSpaceOnUse">
<stop stop-color="#E6F0FF"/>
<stop offset="0.24" stop-color="#E2ECFD"/>
<stop offset="0.47" stop-color="#D6E3F8"/>
<stop offset="0.69" stop-color="#C3D3F0"/>
<stop offset="0.91" stop-color="#A9BDE4"/>
<stop offset="1" stop-color="#9CB2DF"/>
</linearGradient>
<linearGradient id="paint5_linear_1_10373" x1="24.994" y1="12.4436" x2="45.62" y2="12.4436" gradientUnits="userSpaceOnUse">
<stop stop-color="#4AFFC7"/>
<stop offset="1" stop-color="#3BADEA"/>
</linearGradient>
<linearGradient id="paint6_linear_1_10373" x1="25.1483" y1="9.08078" x2="45.6844" y2="9.08078" gradientUnits="userSpaceOnUse">
<stop stop-color="#3BADEA"/>
<stop offset="1" stop-color="#4AFFC7"/>
</linearGradient>
<linearGradient id="paint7_linear_1_10373" x1="25.7835" y1="5.61373" x2="45.0411" y2="5.61373" gradientUnits="userSpaceOnUse">
<stop stop-color="#4AFFC7"/>
<stop offset="1" stop-color="#3BADEA"/>
</linearGradient>
<linearGradient id="paint8_linear_1_10373" x1="33.667" y1="43.0115" x2="40.6455" y2="43.0242" gradientUnits="userSpaceOnUse">
<stop stop-color="#9CB2DF"/>
<stop offset="0.09" stop-color="#A9BDE4"/>
<stop offset="0.31" stop-color="#C3D3F0"/>
<stop offset="0.53" stop-color="#D6E3F8"/>
<stop offset="0.76" stop-color="#E2ECFD"/>
<stop offset="1" stop-color="#E6F0FF"/>
</linearGradient>
<linearGradient id="paint9_linear_1_10373" x1="33.3498" y1="18.4212" x2="39.8846" y2="18.6449" gradientUnits="userSpaceOnUse">
<stop stop-color="#E6F0FF"/>
<stop offset="0.24" stop-color="#E2ECFD"/>
<stop offset="0.47" stop-color="#D6E3F8"/>
<stop offset="0.69" stop-color="#C3D3F0"/>
<stop offset="0.91" stop-color="#A9BDE4"/>
<stop offset="1" stop-color="#9CB2DF"/>
</linearGradient>
</defs>
</svg>
