<svg width="70" height="107" viewBox="0 0 70 107" fill="none" xmlns="http://www.w3.org/2000/svg">
<path opacity="0.2" fill-rule="evenodd" clip-rule="evenodd" d="M59.7251 71.9858C73.3816 79.7896 73.3816 92.7367 59.7251 100.54C46.0685 108.344 23.8989 108.344 10.2424 100.54C-3.41414 92.5593 -3.41414 79.7896 10.2424 71.9858C23.8989 64.0047 46.0685 64.0047 59.7251 71.9858Z" fill="#E9E9EB"/>
<path opacity="0.2" fill-rule="evenodd" clip-rule="evenodd" d="M54.5761 75.0345C65.3949 81.2421 65.3949 91.3515 54.5761 97.559C43.7573 103.767 26.3763 103.767 15.5575 97.559C4.73866 91.3515 4.73866 81.2421 15.5575 75.0345C26.3763 68.827 43.7573 68.827 54.5761 75.0345Z" fill="#DDDEE1"/>
<path opacity="0.2" fill-rule="evenodd" clip-rule="evenodd" d="M49.267 77.9975C57.2481 82.6088 57.2481 89.8804 49.267 94.4917C41.2859 99.103 28.5161 99.103 20.7124 94.4917C12.7313 89.8804 12.7313 82.6088 20.7124 77.9975C28.6935 73.3862 41.4632 73.3862 49.267 77.9975Z" fill="#D1D2D6"/>
<path fill-rule="evenodd" clip-rule="evenodd" d="M42.4449 58.9113L42.7995 59.266L43.8638 60.8621L44.2184 61.2169H44.5731L42.0901 59.9754C41.9127 59.9754 41.7354 59.798 41.558 59.6207L42.7995 58.9113H42.4449ZM18.5016 26.8095V26.1001V25.7454L18.6789 25.3906V25.036L19.0337 24.8586H19.2109L19.3883 24.5039H21.3393H21.1619H20.9846L20.8072 24.8586V25.2134L20.4524 25.568L18.3242 26.8095H18.5016Z" fill="#2C3E50"/>
<path fill-rule="evenodd" clip-rule="evenodd" d="M42.4449 58.9113L42.7995 59.266L43.8638 60.8621L44.2184 61.2169H44.5731L42.0901 59.9754C41.9127 59.9754 41.7354 59.798 41.558 59.6207L42.7995 58.9113H42.4449ZM18.5016 26.8095V26.1001V25.7454L18.6789 25.3906V25.036L19.0337 24.8586H19.2109L19.3883 24.5039H21.3393H21.1619H20.9846L20.8072 24.8586V25.2134L20.4524 25.568L18.3242 26.8095H18.5016Z" fill="url(#paint0_linear_1_10466)"/>
<path fill-rule="evenodd" clip-rule="evenodd" d="M20.6367 25.5443C20.9914 24.6575 21.7008 23.9481 22.4103 24.4802L20.6367 25.5443ZM45.4668 57.1139C48.1272 60.4837 45.4669 62.7894 43.8707 60.6611L42.4518 58.7102L45.4668 56.9366V57.1139Z" fill="#415A73"/>
<path fill-rule="evenodd" clip-rule="evenodd" d="M20.6367 25.5443C20.9914 24.6575 21.7008 23.9481 22.4103 24.4802L20.6367 25.5443ZM45.4668 57.1139C48.1272 60.4837 45.4669 62.7894 43.8707 60.6611L42.4518 58.7102L45.4668 56.9366V57.1139Z" fill="url(#paint1_linear_1_10466)"/>
<path fill-rule="evenodd" clip-rule="evenodd" d="M19.922 74.8174L18.5032 73.9307L18.3258 73.7533L18.1484 73.3987V73.0439V72.8665L20.0994 71.625L19.7447 73.5759L19.5673 73.9307V74.2854L19.7447 74.6402L19.922 74.8174Z" fill="#2C3E50"/>
<path fill-rule="evenodd" clip-rule="evenodd" d="M19.922 74.8174L18.5032 73.9307L18.3258 73.7533L18.1484 73.3987V73.0439V72.8665L20.0994 71.625L19.7447 73.5759L19.5673 73.9307V74.2854L19.7447 74.6402L19.922 74.8174Z" fill="url(#paint2_linear_1_10466)"/>
<path fill-rule="evenodd" clip-rule="evenodd" d="M24.1931 69.332L23.4837 72.3471C22.5969 75.1848 19.0497 75.8943 19.7592 73.4113L20.2912 71.6376L24.3704 69.332H24.1931Z" fill="#415A73"/>
<path fill-rule="evenodd" clip-rule="evenodd" d="M24.1931 69.332L23.4837 72.3471C22.5969 75.1848 19.0497 75.8943 19.7592 73.4113L20.2912 71.6376L24.3704 69.332H24.1931Z" fill="url(#paint3_linear_1_10466)"/>
<path fill-rule="evenodd" clip-rule="evenodd" d="M34.4778 74.6817L32.8817 73.6174H32.5269V73.2628L32.3496 72.908V72.5533V70.6024V68.8288V66.8779V65.1044V63.1534V61.3799V59.4289V57.478V55.7044V53.7535V51.9798V50.029V48.2553V46.3044V44.3535V42.5799V40.6289V38.8554V36.9044V35.1309V33.1799V31.229V29.4554V27.5045V25.7309V23.78V22.0064V20.0555V18.1045V16.331V14.3801V12.6065V12.0743L32.5269 11.7197V11.1876L32.8817 10.8328L33.0591 10.4782L33.4137 10.1235L33.7684 9.94611L33.9458 9.59132L34.3006 9.41406H34.6552H34.8326H35.1873L36.7836 10.4782L36.6062 10.3008H36.2515L36.0741 10.4782L35.7193 10.6556L35.3647 10.8328L35.01 11.1876L34.8326 11.365L34.4778 11.7197L34.3006 12.2517L34.1232 12.6065L33.9458 12.9612V13.4932V15.4442V17.2177V19.1687V20.9422V22.8931V24.8441V26.6178V28.5686V30.3423V32.2932V34.0668V36.0177V37.9687V39.7422V41.6931V43.4667V45.4176V47.1912V49.1421V51.0931V52.8666V54.8176V56.5911V58.5421V60.3156V62.2666V64.2175V65.9911V67.942V69.7156V71.6665V73.4402V73.9722L34.1232 74.3269L34.3006 74.5043L34.4778 74.6817Z" fill="#2C3E50"/>
<path fill-rule="evenodd" clip-rule="evenodd" d="M34.4778 74.6817L32.8817 73.6174H32.5269V73.2628L32.3496 72.908V72.5533V70.6024V68.8288V66.8779V65.1044V63.1534V61.3799V59.4289V57.478V55.7044V53.7535V51.9798V50.029V48.2553V46.3044V44.3535V42.5799V40.6289V38.8554V36.9044V35.1309V33.1799V31.229V29.4554V27.5045V25.7309V23.78V22.0064V20.0555V18.1045V16.331V14.3801V12.6065V12.0743L32.5269 11.7197V11.1876L32.8817 10.8328L33.0591 10.4782L33.4137 10.1235L33.7684 9.94611L33.9458 9.59132L34.3006 9.41406H34.6552H34.8326H35.1873L36.7836 10.4782L36.6062 10.3008H36.2515L36.0741 10.4782L35.7193 10.6556L35.3647 10.8328L35.01 11.1876L34.8326 11.365L34.4778 11.7197L34.3006 12.2517L34.1232 12.6065L33.9458 12.9612V13.4932V15.4442V17.2177V19.1687V20.9422V22.8931V24.8441V26.6178V28.5686V30.3423V32.2932V34.0668V36.0177V37.9687V39.7422V41.6931V43.4667V45.4176V47.1912V49.1421V51.0931V52.8666V54.8176V56.5911V58.5421V60.3156V62.2666V64.2175V65.9911V67.942V69.7156V71.6665V73.4402V73.9722L34.1232 74.3269L34.3006 74.5043L34.4778 74.6817Z" fill="url(#paint4_linear_1_10466)"/>
<path fill-rule="evenodd" clip-rule="evenodd" d="M34.4778 74.6817L32.8817 73.6174H32.5269V73.2628L32.3496 72.908V72.5533V70.6024V68.8288V66.8779V65.1044V63.1534V61.3799V59.4289V57.478V55.7044V53.7535V51.9798V50.029V48.2553V46.3044V44.3535V42.5799V40.6289V38.8554V36.9044V35.1309V33.1799V31.229V29.4554V27.5045V25.7309V23.78V22.0064V20.0555V18.1045V16.331V14.3801V12.6065V12.0743L32.5269 11.7197V11.1876L32.8817 10.8328L33.0591 10.4782L33.4137 10.1235L33.7684 9.94611L33.9458 9.59132L34.3006 9.41406H34.6552H34.8326H35.1873L36.7836 10.4782L36.6062 10.3008H36.2515L36.0741 10.4782L35.7193 10.6556L35.3647 10.8328L35.01 11.1876L34.8326 11.365L34.4778 11.7197L34.3006 12.2517L34.1232 12.6065L33.9458 12.9612V13.4932V15.4442V17.2177V19.1687V20.9422V22.8931V24.8441V26.6178V28.5686V30.3423V32.2932V34.0668V36.0177V37.9687V39.7422V41.6931V43.4667V45.4176V47.1912V49.1421V51.0931V52.8666V54.8176V56.5911V58.5421V60.3156V62.2666V64.2175V65.9911V67.942V69.7156V71.6665V73.4402V73.9722L34.1232 74.3269L34.3006 74.5043L34.4778 74.6817Z" fill="url(#paint5_linear_1_10466)"/>
<path fill-rule="evenodd" clip-rule="evenodd" d="M33.9395 13.4804C33.9395 10.9974 37.3093 8.86913 37.3093 11.5295V71.4765C37.3093 73.9595 33.9395 75.9104 33.9395 73.4274C33.9395 53.386 33.9395 33.5219 33.9395 13.4804Z" fill="#415A73"/>
<path fill-rule="evenodd" clip-rule="evenodd" d="M33.9395 13.4804C33.9395 10.9974 37.3093 8.86913 37.3093 11.5295V71.4765C37.3093 73.9595 33.9395 75.9104 33.9395 73.4274C33.9395 53.386 33.9395 33.5219 33.9395 13.4804Z" fill="url(#paint6_linear_1_10466)"/>
<path fill-rule="evenodd" clip-rule="evenodd" d="M11.0556 75.5734L9.8141 74.864L9.63684 74.6867L9.28205 74.5093L9.10466 74.3319L8.9274 73.9773V73.6225L8.75 73.2678V72.9131V72.381V35.668L9.9915 36.3774V73.0905V73.6225V73.9773L10.1689 74.3319L10.3462 74.6867L10.5235 75.0414L10.7009 75.2188L10.8783 75.3962L11.0556 75.5734Z" fill="#BAB8B8"/>
<path fill-rule="evenodd" clip-rule="evenodd" d="M11.0556 75.5734L9.8141 74.864L9.63684 74.6867L9.28205 74.5093L9.10466 74.3319L8.9274 73.9773V73.6225L8.75 73.2678V72.9131V72.381V35.668L9.9915 36.3774V73.0905V73.6225V73.9773L10.1689 74.3319L10.3462 74.6867L10.5235 75.0414L10.7009 75.2188L10.8783 75.3962L11.0556 75.5734Z" fill="url(#paint7_linear_1_10466)"/>
<path fill-rule="evenodd" clip-rule="evenodd" d="M9.9915 36.3555L8.75 35.646L60.0064 6.02734L61.2478 6.73679L9.9915 36.3555Z" fill="#E6E6E6"/>
<path fill-rule="evenodd" clip-rule="evenodd" d="M61.2209 6.71484V43.4279C61.2209 45.9109 59.4473 48.926 57.319 49.9902C42.7756 58.326 28.2323 66.8391 13.689 75.1749C11.5607 76.4164 9.78711 75.3522 9.78711 73.0466V36.3335L61.0435 6.71484H61.2209Z" fill="#E6E6E6"/>
<path fill-rule="evenodd" clip-rule="evenodd" d="M61.2209 6.71484V43.4279C61.2209 45.9109 59.4473 48.926 57.319 49.9902C42.7756 58.326 28.2323 66.8391 13.689 75.1749C11.5607 76.4164 9.78711 75.3522 9.78711 73.0466V36.3335L61.0435 6.71484H61.2209Z" fill="url(#paint8_linear_1_10466)"/>
<path fill-rule="evenodd" clip-rule="evenodd" d="M39.4376 38.4626L38.5508 37.9305L49.1922 19.4853L49.547 19.1305L49.7243 18.7759L50.0791 18.4211L50.4337 18.2438L50.7885 18.0664H50.9658H51.3206L51.4978 18.2438L52.5621 18.7759L52.2073 18.5985H52.03H51.6752L51.3206 18.7759L50.9658 18.9532L50.7885 19.3079L50.4337 19.6626L50.0791 20.1947L39.4376 38.4626Z" fill="#C43E3F"/>
<path fill-rule="evenodd" clip-rule="evenodd" d="M39.4376 38.4626L38.5508 37.9305L49.1922 19.4853L49.547 19.1305L49.7243 18.7759L50.0791 18.4211L50.4337 18.2438L50.7885 18.0664H50.9658H51.3206L51.4978 18.2438L52.5621 18.7759L52.2073 18.5985H52.03H51.6752L51.3206 18.7759L50.9658 18.9532L50.7885 19.3079L50.4337 19.6626L50.0791 20.1947L39.4376 38.4626Z" fill="url(#paint9_linear_1_10466)"/>
<path fill-rule="evenodd" clip-rule="evenodd" d="M18.8681 61.3643L17.9813 60.8321L17.804 60.6549L17.6266 60.4775L17.4492 60.1228V59.768V59.4134V59.0586L17.6266 58.5265L17.9813 58.1719L18.8681 58.7039L18.5135 59.236V59.5906L18.3361 59.9454V60.4775V60.6549L18.5135 61.0095L18.6907 61.1869L18.8681 61.3643Z" fill="#C43E3F"/>
<path fill-rule="evenodd" clip-rule="evenodd" d="M18.8681 61.3643L17.9813 60.8321L17.804 60.6549L17.6266 60.4775L17.4492 60.1228V59.768V59.4134V59.0586L17.6266 58.5265L17.9813 58.1719L18.8681 58.7039L18.5135 59.236V59.5906L18.3361 59.9454V60.4775V60.6549L18.5135 61.0095L18.6907 61.1869L18.8681 61.3643Z" fill="url(#paint10_linear_1_10466)"/>
<path fill-rule="evenodd" clip-rule="evenodd" d="M18.8595 58.6566L17.9727 58.1246L18.3274 57.2377L18.8595 56.3509L19.3915 55.6416L19.7463 54.7547L20.2784 54.0453L20.633 53.1586L21.1651 52.4491L21.5199 51.7397L22.0519 51.0302L22.4066 50.3208L22.7614 49.6113L23.2934 48.9019L23.6481 48.1924L24.0029 47.483L24.5349 46.7737L24.8896 46.0642L25.2444 45.3548L25.599 44.6453L26.1312 43.9359L26.4859 43.2264L26.8405 42.517L27.3727 41.8076L27.7274 41.0982L28.082 40.3888L28.6142 39.502L28.9689 38.7925L29.5009 38.0831L29.8557 37.3736L30.3878 36.4869L30.7424 35.6001L31.2745 34.8906L31.8067 34.0039L32.6934 34.536L32.1613 35.4228L31.8067 36.3095L31.2745 37.019L30.7424 37.9058L30.3878 38.6151L29.8557 39.3246L29.5009 40.2114L29.1463 40.9208L28.6142 41.6303L28.2594 42.3397L27.7274 43.049L27.3727 43.7585L27.0179 44.4679L26.6633 45.1774L26.1312 45.8868L25.7764 46.5963L25.4218 47.3057L24.8896 48.0152L24.5349 48.7246L24.1803 49.4339L23.8255 50.1434L23.2934 50.8528L22.9388 51.5623L22.4066 52.2717L22.0519 52.9812L21.6973 53.8679L21.1651 54.5773L20.8104 55.2868L20.2784 56.1736L19.7463 56.8831L19.3915 57.7698L18.8595 58.6566Z" fill="#C43E3F"/>
<path fill-rule="evenodd" clip-rule="evenodd" d="M18.8595 58.6566L17.9727 58.1246L18.3274 57.2377L18.8595 56.3509L19.3915 55.6416L19.7463 54.7547L20.2784 54.0453L20.633 53.1586L21.1651 52.4491L21.5199 51.7397L22.0519 51.0302L22.4066 50.3208L22.7614 49.6113L23.2934 48.9019L23.6481 48.1924L24.0029 47.483L24.5349 46.7737L24.8896 46.0642L25.2444 45.3548L25.599 44.6453L26.1312 43.9359L26.4859 43.2264L26.8405 42.517L27.3727 41.8076L27.7274 41.0982L28.082 40.3888L28.6142 39.502L28.9689 38.7925L29.5009 38.0831L29.8557 37.3736L30.3878 36.4869L30.7424 35.6001L31.2745 34.8906L31.8067 34.0039L32.6934 34.536L32.1613 35.4228L31.8067 36.3095L31.2745 37.019L30.7424 37.9058L30.3878 38.6151L29.8557 39.3246L29.5009 40.2114L29.1463 40.9208L28.6142 41.6303L28.2594 42.3397L27.7274 43.049L27.3727 43.7585L27.0179 44.4679L26.6633 45.1774L26.1312 45.8868L25.7764 46.5963L25.4218 47.3057L24.8896 48.0152L24.5349 48.7246L24.1803 49.4339L23.8255 50.1434L23.2934 50.8528L22.9388 51.5623L22.4066 52.2717L22.0519 52.9812L21.6973 53.8679L21.1651 54.5773L20.8104 55.2868L20.2784 56.1736L19.7463 56.8831L19.3915 57.7698L18.8595 58.6566Z" fill="url(#paint11_linear_1_10466)"/>
<path fill-rule="evenodd" clip-rule="evenodd" d="M39.4422 38.5036L50.0836 20.0583C51.6799 17.398 53.9855 18.8169 52.5666 21.4772C47.2459 30.6998 44.7628 34.9564 39.6195 44.0016L32.8799 40.0997C28.446 47.9035 25.9629 52.1601 21.3516 59.9638C19.7554 62.6242 17.4498 61.2053 18.8687 58.5449C24.1894 49.3223 27.5592 43.6469 32.7025 34.4243C32.7025 34.4243 38.9101 37.9714 39.4422 38.3262V38.5036Z" fill="#E74C3C"/>
<path fill-rule="evenodd" clip-rule="evenodd" d="M39.4422 38.5036L50.0836 20.0583C51.6799 17.398 53.9855 18.8169 52.5666 21.4772C47.2459 30.6998 44.7628 34.9564 39.6195 44.0016L32.8799 40.0997C28.446 47.9035 25.9629 52.1601 21.3516 59.9638C19.7554 62.6242 17.4498 61.2053 18.8687 58.5449C24.1894 49.3223 27.5592 43.6469 32.7025 34.4243C32.7025 34.4243 38.9101 37.9714 39.4422 38.3262V38.5036Z" fill="url(#paint12_linear_1_10466)"/>
<path fill-rule="evenodd" clip-rule="evenodd" d="M10.3697 37.1865L7 35.2355V31.1562L10.3697 33.1072V37.1865Z" fill="#2C3E50"/>
<path fill-rule="evenodd" clip-rule="evenodd" d="M10.3697 37.1865L7 35.2355V31.1562L10.3697 33.1072V37.1865Z" fill="url(#paint13_linear_1_10466)"/>
<path fill-rule="evenodd" clip-rule="evenodd" d="M10.3697 33.1361L7 31.1852V31.0079V30.8305H7.17726V30.6531L7.35466 30.4757V30.2985H7.53205V30.1211L10.9019 32.072V32.2494H10.7245L10.5471 32.4267V32.6041H10.3697V32.7815V32.9587V33.1361Z" fill="#2C3E50"/>
<path fill-rule="evenodd" clip-rule="evenodd" d="M10.3697 33.1361L7 31.1852V31.0079V30.8305H7.17726V30.6531L7.35466 30.4757V30.2985H7.53205V30.1211L10.9019 32.072V32.2494H10.7245L10.5471 32.4267V32.6041H10.3697V32.7815V32.9587V33.1361Z" fill="url(#paint14_linear_1_10466)"/>
<path fill-rule="evenodd" clip-rule="evenodd" d="M10.8796 32.1017L7.50977 30.1508L9.10592 29.2639C25.4228 19.864 41.7398 10.464 58.0567 0.886707L59.653 0L63.0227 1.95081L61.4265 2.83765L59.8302 3.72449L58.2341 4.6112L56.6378 5.49804C42.4492 13.6565 28.2607 21.8149 14.072 29.9734L12.4758 30.8602L10.8796 31.7469V32.1017Z" fill="#2C3E50"/>
<path fill-rule="evenodd" clip-rule="evenodd" d="M10.8796 32.1017L7.50977 30.1508L9.10592 29.2639C25.4228 19.864 41.7398 10.464 58.0567 0.886707L59.653 0L63.0227 1.95081L61.4265 2.83765L59.8302 3.72449L58.2341 4.6112L56.6378 5.49804C42.4492 13.6565 28.2607 21.8149 14.072 29.9734L12.4758 30.8602L10.8796 31.7469V32.1017Z" fill="url(#paint15_linear_1_10466)"/>
<path fill-rule="evenodd" clip-rule="evenodd" d="M11.2267 37.231C11.2267 37.231 10.3398 37.7631 10.3398 37.231V33.1517C10.3398 33.1517 10.5173 32.265 10.872 32.0876C28.2531 21.9783 45.8114 12.0461 63.1925 1.93675C63.5472 1.75939 63.7245 1.93683 63.7245 2.29154V6.37069C63.7245 6.37069 63.1926 7.25748 62.8378 7.61219L11.2267 37.4083V37.231Z" fill="#415A73"/>
<path fill-rule="evenodd" clip-rule="evenodd" d="M11.2267 37.231C11.2267 37.231 10.3398 37.7631 10.3398 37.231V33.1517C10.3398 33.1517 10.5173 32.265 10.872 32.0876C28.2531 21.9783 45.8114 12.0461 63.1925 1.93675C63.5472 1.75939 63.7245 1.93683 63.7245 2.29154V6.37069C63.7245 6.37069 63.1926 7.25748 62.8378 7.61219L11.2267 37.4083V37.231Z" fill="url(#paint16_linear_1_10466)"/>
<defs>
<linearGradient id="paint0_linear_1_10466" x1="18.3166" y1="42.8604" x2="44.5556" y2="42.8604" gradientUnits="userSpaceOnUse">
<stop stop-color="#4AFFC7"/>
<stop offset="1" stop-color="#3BADEA"/>
</linearGradient>
<linearGradient id="paint1_linear_1_10466" x1="20.6292" y1="42.8893" x2="46.58" y2="42.8893" gradientUnits="userSpaceOnUse">
<stop stop-color="#4AFFC7"/>
<stop offset="1" stop-color="#3BADEA"/>
</linearGradient>
<linearGradient id="paint2_linear_1_10466" x1="18.1479" y1="73.2212" x2="20.0981" y2="73.2212" gradientUnits="userSpaceOnUse">
<stop stop-color="#4AFFC7"/>
<stop offset="1" stop-color="#3BADEA"/>
</linearGradient>
<linearGradient id="paint3_linear_1_10466" x1="19.6647" y1="72.1307" x2="24.3672" y2="72.1307" gradientUnits="userSpaceOnUse">
<stop stop-color="#4AFFC7"/>
<stop offset="1" stop-color="#3BADEA"/>
</linearGradient>
<linearGradient id="paint4_linear_1_10466" x1="32.3483" y1="42.0479" x2="36.7806" y2="42.0479" gradientUnits="userSpaceOnUse">
<stop stop-color="#3BADEA"/>
<stop offset="1" stop-color="#4AFFC7"/>
</linearGradient>
<linearGradient id="paint5_linear_1_10466" x1="32.3483" y1="42.0479" x2="36.7806" y2="42.0479" gradientUnits="userSpaceOnUse">
<stop stop-color="#4AFFC7"/>
<stop offset="1" stop-color="#3BADEA"/>
</linearGradient>
<linearGradient id="paint6_linear_1_10466" x1="33.9385" y1="42.439" x2="37.307" y2="42.439" gradientUnits="userSpaceOnUse">
<stop stop-color="#4AFFC7"/>
<stop offset="1" stop-color="#3BADEA"/>
</linearGradient>
<linearGradient id="paint7_linear_1_10466" x1="8.74933" y1="55.6207" x2="11.0541" y2="55.6207" gradientUnits="userSpaceOnUse">
<stop stop-color="#4AFFC7"/>
<stop offset="1" stop-color="#3BADEA"/>
</linearGradient>
<linearGradient id="paint8_linear_1_10466" x1="21.8199" y1="40.6207" x2="61.6813" y2="40.9145" gradientUnits="userSpaceOnUse">
<stop stop-color="#E6F0FF"/>
<stop offset="0.24" stop-color="#E2ECFD"/>
<stop offset="0.47" stop-color="#D6E3F8"/>
<stop offset="0.69" stop-color="#C3D3F0"/>
<stop offset="0.91" stop-color="#A9BDE4"/>
<stop offset="1" stop-color="#9CB2DF"/>
</linearGradient>
<linearGradient id="paint9_linear_1_10466" x1="38.5467" y1="28.2645" x2="52.5527" y2="28.2645" gradientUnits="userSpaceOnUse">
<stop stop-color="#4AFFC7"/>
<stop offset="1" stop-color="#3BADEA"/>
</linearGradient>
<linearGradient id="paint10_linear_1_10466" x1="17.4488" y1="59.7681" x2="18.8672" y2="59.7681" gradientUnits="userSpaceOnUse">
<stop stop-color="#4AFFC7"/>
<stop offset="1" stop-color="#3BADEA"/>
</linearGradient>
<linearGradient id="paint11_linear_1_10466" x1="17.9684" y1="46.3303" x2="32.6836" y2="46.3303" gradientUnits="userSpaceOnUse">
<stop stop-color="#4AFFC7"/>
<stop offset="1" stop-color="#3BADEA"/>
</linearGradient>
<linearGradient id="paint12_linear_1_10466" x1="18.4158" y1="40.0111" x2="52.9864" y2="40.0111" gradientUnits="userSpaceOnUse">
<stop stop-color="#4AFFC7"/>
<stop offset="1" stop-color="#3BADEA"/>
</linearGradient>
<linearGradient id="paint13_linear_1_10466" x1="6.99902" y1="34.1714" x2="10.3675" y2="34.1714" gradientUnits="userSpaceOnUse">
<stop stop-color="#4AFFC7"/>
<stop offset="1" stop-color="#3BADEA"/>
</linearGradient>
<linearGradient id="paint14_linear_1_10466" x1="6.99887" y1="31.6286" x2="10.8993" y2="31.6286" gradientUnits="userSpaceOnUse">
<stop stop-color="#4AFFC7"/>
<stop offset="1" stop-color="#3BADEA"/>
</linearGradient>
<linearGradient id="paint15_linear_1_10466" x1="7.49369" y1="16.0508" x2="62.9856" y2="16.0508" gradientUnits="userSpaceOnUse">
<stop stop-color="#3BADEA"/>
<stop offset="1" stop-color="#4AFFC7"/>
</linearGradient>
<linearGradient id="paint16_linear_1_10466" x1="10.3244" y1="19.6673" x2="63.6889" y2="19.6673" gradientUnits="userSpaceOnUse">
<stop stop-color="#4AFFC7"/>
<stop offset="1" stop-color="#3BADEA"/>
</linearGradient>
</defs>
</svg>
