<svg width="70" height="101" viewBox="0 0 70 101" fill="none" xmlns="http://www.w3.org/2000/svg">
<path opacity="0.2" fill-rule="evenodd" clip-rule="evenodd" d="M59.7251 65.9858C73.3816 73.7896 73.3816 86.7367 59.7251 94.5404C46.0685 102.344 23.8989 102.344 10.2424 94.5404C-3.41414 86.5593 -3.41414 73.7896 10.2424 65.9858C23.8989 58.0047 46.0685 58.0047 59.7251 65.9858Z" fill="#E9E9EB"/>
<path opacity="0.2" fill-rule="evenodd" clip-rule="evenodd" d="M54.5761 69.0345C65.3949 75.2421 65.3949 85.3515 54.5761 91.559C43.7573 97.7666 26.3763 97.7666 15.5575 91.559C4.73866 85.3515 4.73866 75.2421 15.5575 69.0345C26.3763 62.827 43.7573 62.827 54.5761 69.0345Z" fill="#DDDEE1"/>
<path opacity="0.2" fill-rule="evenodd" clip-rule="evenodd" d="M49.267 71.9975C57.2481 76.6088 57.2481 83.8804 49.267 88.4917C41.2859 93.103 28.5161 93.103 20.7124 88.4917C12.7313 83.8804 12.7313 76.6088 20.7124 71.9975C28.6935 67.3862 41.4632 67.3862 49.267 71.9975Z" fill="#D1D2D6"/>
<path fill-rule="evenodd" clip-rule="evenodd" d="M55.4 1.95095L51.8526 0H51.4981H51.143H50.611L50.0789 0.354791L41.034 5.49804L40.502 5.85284L39.9699 6.20736L39.6149 6.73968L39.2604 7.27173L38.9053 7.80378V8.51309L38.5508 9.22267V9.75473C38.5508 28.1999 38.5508 46.6449 38.5508 65.2675V65.7995L38.7283 66.3319V66.6864L39.2604 66.8639L42.8072 68.8149H42.4527L42.2751 68.2825V67.7505L42.0982 67.2184V11.1736L42.2751 10.464V9.75473L42.8072 9.22267L43.1623 8.69062L43.5168 8.1583L44.0488 7.80378L44.5809 7.44899L53.6263 2.30574H54.1583L54.6904 1.95095H55.0449H55.4Z" fill="#D1A43D"/>
<path fill-rule="evenodd" clip-rule="evenodd" d="M55.4 1.95095L51.8526 0H51.4981H51.143H50.611L50.0789 0.354791L41.034 5.49804L40.502 5.85284L39.9699 6.20736L39.6149 6.73968L39.2604 7.27173L38.9053 7.80378V8.51309L38.5508 9.22267V9.75473C38.5508 28.1999 38.5508 46.6449 38.5508 65.2675V65.7995L38.7283 66.3319V66.6864L39.2604 66.8639L42.8072 68.8149H42.4527L42.2751 68.2825V67.7505L42.0982 67.2184V11.1736L42.2751 10.464V9.75473L42.8072 9.22267L43.1623 8.69062L43.5168 8.1583L44.0488 7.80378L44.5809 7.44899L53.6263 2.30574H54.1583L54.6904 1.95095H55.0449H55.4Z" fill="url(#paint0_linear_1_10388)"/>
<path fill-rule="evenodd" clip-rule="evenodd" d="M42.127 11.5089V67.0219C42.127 68.6182 43.1908 69.3276 44.6097 68.4408L53.6551 63.2973C55.074 62.4105 56.1378 60.6371 56.1378 59.0409V3.52786C56.1378 1.93164 55.074 1.22217 53.6551 2.10896L44.6097 7.25249C43.1908 7.96192 42.127 9.91268 42.127 11.5089Z" fill="#EDBF53"/>
<path fill-rule="evenodd" clip-rule="evenodd" d="M42.127 11.5089V67.0219C42.127 68.6182 43.1908 69.3276 44.6097 68.4408L53.6551 63.2973C55.074 62.4105 56.1378 60.6371 56.1378 59.0409V3.52786C56.1378 1.93164 55.074 1.22217 53.6551 2.10896L44.6097 7.25249C43.1908 7.96192 42.127 9.91268 42.127 11.5089Z" fill="url(#paint1_linear_1_10388)"/>
<path fill-rule="evenodd" clip-rule="evenodd" d="M62.1585 38.8401L59.1432 37.2437L58.7887 37.0664H58.4336H57.9016L57.3695 37.4212L9.48327 65.0889L8.95122 65.4437L8.59615 65.7983L8.0641 66.3306L7.70958 66.8626L7.35452 67.5719L7.17753 68.104L7 68.8136V69.3456V79.8097V80.3417L7.17753 80.8738L7.35452 81.2286L7.70958 81.4058L10.7244 83.002L10.3698 82.8247L10.1923 82.4699L10.0153 81.9379L9.83779 81.4058V71.119L10.0153 70.4097L10.1923 69.8777L10.3698 69.1681L10.7244 68.636L11.0794 68.104L11.4339 67.5719L11.966 67.0399L12.498 66.6851L60.3848 39.0174L60.9169 38.8401L61.2714 38.6626H61.8035L62.1585 38.8401Z" fill="#C79D3A"/>
<path fill-rule="evenodd" clip-rule="evenodd" d="M62.1585 38.8401L59.1432 37.2437L58.7887 37.0664H58.4336H57.9016L57.3695 37.4212L9.48327 65.0889L8.95122 65.4437L8.59615 65.7983L8.0641 66.3306L7.70958 66.8626L7.35452 67.5719L7.17753 68.104L7 68.8136V69.3456V79.8097V80.3417L7.17753 80.8738L7.35452 81.2286L7.70958 81.4058L10.7244 83.002L10.3698 82.8247L10.1923 82.4699L10.0153 81.9379L9.83779 81.4058V71.119L10.0153 70.4097L10.1923 69.8777L10.3698 69.1681L10.7244 68.636L11.0794 68.104L11.4339 67.5719L11.966 67.0399L12.498 66.6851L60.3848 39.0174L60.9169 38.8401L61.2714 38.6626H61.8035L62.1585 38.8401Z" fill="url(#paint2_linear_1_10388)"/>
<path fill-rule="evenodd" clip-rule="evenodd" d="M12.5042 82.8499L60.391 55.1822C61.8099 54.4727 62.8737 52.5217 62.8737 50.9255V40.4614C62.8737 38.8652 61.8099 38.1558 60.391 39.0426L12.5042 66.7103C11.0853 67.4197 10.0215 69.3708 10.0215 70.967V81.431C10.0215 83.0272 11.0853 83.7367 12.5042 82.8499Z" fill="#FAC13C"/>
<path fill-rule="evenodd" clip-rule="evenodd" d="M12.5042 82.8499L60.391 55.1822C61.8099 54.4727 62.8737 52.5217 62.8737 50.9255V40.4614C62.8737 38.8652 61.8099 38.1558 60.391 39.0426L12.5042 66.7103C11.0853 67.4197 10.0215 69.3708 10.0215 70.967V81.431C10.0215 83.0272 11.0853 83.7367 12.5042 82.8499Z" fill="url(#paint3_linear_1_10388)"/>
<path fill-rule="evenodd" clip-rule="evenodd" d="M18.5188 68.5513C18.5188 68.5513 17.9868 69.9702 17.4547 70.3249C16.9227 70.6797 16.3906 70.325 16.3906 69.7929V64.4721L18.3418 63.2305V68.5513H18.5188Z" fill="#2C3E50"/>
<path fill-rule="evenodd" clip-rule="evenodd" d="M18.5188 68.5513C18.5188 68.5513 17.9868 69.9702 17.4547 70.3249C16.9227 70.6797 16.3906 70.325 16.3906 69.7929V64.4721L18.3418 63.2305V68.5513H18.5188Z" fill="url(#paint4_linear_1_10388)"/>
<path fill-rule="evenodd" clip-rule="evenodd" d="M30.5677 61.4927C30.5677 61.4927 30.0356 62.9114 29.5036 63.2661C28.9715 63.6208 28.4395 63.2661 28.4395 62.734V57.4135L30.3907 56.1719V61.4927H30.5677Z" fill="#2C3E50"/>
<path fill-rule="evenodd" clip-rule="evenodd" d="M30.5677 61.4927C30.5677 61.4927 30.0356 62.9114 29.5036 63.2661C28.9715 63.6208 28.4395 63.2661 28.4395 62.734V57.4135L30.3907 56.1719V61.4927H30.5677Z" fill="url(#paint5_linear_1_10388)"/>
<path fill-rule="evenodd" clip-rule="evenodd" d="M42.7942 54.5903C42.7942 54.5903 42.2622 56.009 41.7301 56.3637C41.198 56.7184 40.666 56.3637 40.666 55.8317V50.5109L42.6172 49.2695V54.5903H42.7942Z" fill="#2C3E50"/>
<path fill-rule="evenodd" clip-rule="evenodd" d="M42.7942 54.5903C42.7942 54.5903 42.2622 56.009 41.7301 56.3637C41.198 56.7184 40.666 56.3637 40.666 55.8317V50.5109L42.6172 49.2695V54.5903H42.7942Z" fill="url(#paint6_linear_1_10388)"/>
<path fill-rule="evenodd" clip-rule="evenodd" d="M24.5462 61.9947C24.5462 61.9947 24.0141 63.4134 23.4821 63.7681C22.95 64.1228 22.418 63.7682 22.418 63.2361V60.7531L24.3692 59.5117V61.9947H24.5462Z" fill="#2C3E50"/>
<path fill-rule="evenodd" clip-rule="evenodd" d="M24.5462 61.9947C24.5462 61.9947 24.0141 63.4134 23.4821 63.7681C22.95 64.1228 22.418 63.7682 22.418 63.2361V60.7531L24.3692 59.5117V61.9947H24.5462Z" fill="url(#paint7_linear_1_10388)"/>
<path fill-rule="evenodd" clip-rule="evenodd" d="M36.7688 55.1353C36.7688 55.1353 36.2368 56.554 35.7047 56.9088C35.1727 57.2635 34.6406 56.9088 34.6406 56.3767V53.8937L36.5918 52.6523V55.1353H36.7688Z" fill="#2C3E50"/>
<path fill-rule="evenodd" clip-rule="evenodd" d="M36.7688 55.1353C36.7688 55.1353 36.2368 56.554 35.7047 56.9088C35.1727 57.2635 34.6406 56.9088 34.6406 56.3767V53.8937L36.5918 52.6523V55.1353H36.7688Z" fill="url(#paint8_linear_1_10388)"/>
<path fill-rule="evenodd" clip-rule="evenodd" d="M54.8866 47.5236C54.8866 47.5236 54.3545 48.9426 53.8225 49.2973C53.2904 49.652 52.7578 49.2973 52.7578 48.7653V43.4445L54.709 42.2031V47.5236H54.8866Z" fill="#2C3E50"/>
<path fill-rule="evenodd" clip-rule="evenodd" d="M54.8866 47.5236C54.8866 47.5236 54.3545 48.9426 53.8225 49.2973C53.2904 49.652 52.7578 49.2973 52.7578 48.7653V43.4445L54.709 42.2031V47.5236H54.8866Z" fill="url(#paint9_linear_1_10388)"/>
<path fill-rule="evenodd" clip-rule="evenodd" d="M48.8592 48.0728C48.8592 48.0728 48.3266 49.4918 47.7946 49.8465C47.2625 50.2012 46.7305 49.8465 46.7305 49.3145V46.8315L48.6817 45.5898V48.0728H48.8592Z" fill="#2C3E50"/>
<path fill-rule="evenodd" clip-rule="evenodd" d="M48.8592 48.0728C48.8592 48.0728 48.3266 49.4918 47.7946 49.8465C47.2625 50.2012 46.7305 49.8465 46.7305 49.3145V46.8315L48.6817 45.5898V48.0728H48.8592Z" fill="url(#paint10_linear_1_10388)"/>
<path fill-rule="evenodd" clip-rule="evenodd" d="M46.7379 14.405C46.7379 14.405 47.802 13.3407 47.802 12.6313C47.802 11.9219 47.27 11.7445 46.7379 12.0992L42.127 14.7598V17.0652L46.7379 14.405Z" fill="#3D566E"/>
<path fill-rule="evenodd" clip-rule="evenodd" d="M46.7379 14.405C46.7379 14.405 47.802 13.3407 47.802 12.6313C47.802 11.9219 47.27 11.7445 46.7379 12.0992L42.127 14.7598V17.0652L46.7379 14.405Z" fill="url(#paint11_linear_1_10388)"/>
<path fill-rule="evenodd" clip-rule="evenodd" d="M46.7379 28.3852C46.7379 28.3852 47.802 27.3212 47.802 26.6118C47.802 25.9023 47.27 25.725 46.7379 26.0797L42.127 28.74V31.0457L46.7379 28.3852Z" fill="#3D566E"/>
<path fill-rule="evenodd" clip-rule="evenodd" d="M46.7379 28.3852C46.7379 28.3852 47.802 27.3212 47.802 26.6118C47.802 25.9023 47.27 25.725 46.7379 26.0797L42.127 28.74V31.0457L46.7379 28.3852Z" fill="url(#paint12_linear_1_10388)"/>
<path fill-rule="evenodd" clip-rule="evenodd" d="M46.7379 42.3815C46.7379 42.3815 47.802 41.3173 47.802 40.6079C47.802 39.8984 47.27 39.7211 46.7379 40.0758L42.127 42.7363V45.0418L46.7379 42.3815Z" fill="#3D566E"/>
<path fill-rule="evenodd" clip-rule="evenodd" d="M46.7379 42.3815C46.7379 42.3815 47.802 41.3173 47.802 40.6079C47.802 39.8984 47.27 39.7211 46.7379 40.0758L42.127 42.7363V45.0418L46.7379 42.3815Z" fill="url(#paint13_linear_1_10388)"/>
<path fill-rule="evenodd" clip-rule="evenodd" d="M44.2552 22.9125C44.2552 22.9125 45.3193 21.8485 45.3193 21.1391C45.3193 20.4297 44.7872 20.2523 44.2552 20.6071L42.127 21.8484V24.1542L44.2552 22.9125Z" fill="#3D566E"/>
<path fill-rule="evenodd" clip-rule="evenodd" d="M44.2552 22.9125C44.2552 22.9125 45.3193 21.8485 45.3193 21.1391C45.3193 20.4297 44.7872 20.2523 44.2552 20.6071L42.127 21.8484V24.1542L44.2552 22.9125Z" fill="url(#paint14_linear_1_10388)"/>
<path fill-rule="evenodd" clip-rule="evenodd" d="M44.2552 36.9089C44.2552 36.9089 45.3193 35.8446 45.3193 35.1352C45.3193 34.4258 44.7872 34.2484 44.2552 34.6031L42.127 35.8448V38.1502L44.2552 36.9089Z" fill="#3D566E"/>
<path fill-rule="evenodd" clip-rule="evenodd" d="M44.2552 36.9089C44.2552 36.9089 45.3193 35.8446 45.3193 35.1352C45.3193 34.4258 44.7872 34.2484 44.2552 34.6031L42.127 35.8448V38.1502L44.2552 36.9089Z" fill="url(#paint15_linear_1_10388)"/>
<defs>
<linearGradient id="paint0_linear_1_10388" x1="38.5459" y1="34.4074" x2="55.3887" y2="34.4074" gradientUnits="userSpaceOnUse">
<stop stop-color="#4AFFC7"/>
<stop offset="1" stop-color="#3BADEA"/>
</linearGradient>
<linearGradient id="paint1_linear_1_10388" x1="45.4048" y1="34.7045" x2="56.2638" y2="34.7269" gradientUnits="userSpaceOnUse">
<stop stop-color="#E6F0FF"/>
<stop offset="0.24" stop-color="#E2ECFD"/>
<stop offset="0.47" stop-color="#D6E3F8"/>
<stop offset="0.69" stop-color="#C3D3F0"/>
<stop offset="0.91" stop-color="#A9BDE4"/>
<stop offset="1" stop-color="#9CB2DF"/>
</linearGradient>
<linearGradient id="paint2_linear_1_10388" x1="6.98402" y1="60.0342" x2="62.1217" y2="60.0342" gradientUnits="userSpaceOnUse">
<stop stop-color="#4AFFC7"/>
<stop offset="1" stop-color="#3BADEA"/>
</linearGradient>
<linearGradient id="paint3_linear_1_10388" x1="22.3862" y1="60.5673" x2="63.3435" y2="61.0474" gradientUnits="userSpaceOnUse">
<stop stop-color="#E6F0FF"/>
<stop offset="0.24" stop-color="#E2ECFD"/>
<stop offset="0.47" stop-color="#D6E3F8"/>
<stop offset="0.69" stop-color="#C3D3F0"/>
<stop offset="0.91" stop-color="#A9BDE4"/>
<stop offset="1" stop-color="#9CB2DF"/>
</linearGradient>
<linearGradient id="paint4_linear_1_10388" x1="16.39" y1="66.8491" x2="18.5174" y2="66.8491" gradientUnits="userSpaceOnUse">
<stop stop-color="#4AFFC7"/>
<stop offset="1" stop-color="#3BADEA"/>
</linearGradient>
<linearGradient id="paint5_linear_1_10388" x1="28.4388" y1="59.7904" x2="30.5662" y2="59.7904" gradientUnits="userSpaceOnUse">
<stop stop-color="#4AFFC7"/>
<stop offset="1" stop-color="#3BADEA"/>
</linearGradient>
<linearGradient id="paint6_linear_1_10388" x1="40.6654" y1="52.888" x2="42.7928" y2="52.888" gradientUnits="userSpaceOnUse">
<stop stop-color="#4AFFC7"/>
<stop offset="1" stop-color="#3BADEA"/>
</linearGradient>
<linearGradient id="paint7_linear_1_10388" x1="22.4174" y1="61.7113" x2="24.5448" y2="61.7113" gradientUnits="userSpaceOnUse">
<stop stop-color="#4AFFC7"/>
<stop offset="1" stop-color="#3BADEA"/>
</linearGradient>
<linearGradient id="paint8_linear_1_10388" x1="34.64" y1="54.8519" x2="36.7674" y2="54.8519" gradientUnits="userSpaceOnUse">
<stop stop-color="#4AFFC7"/>
<stop offset="1" stop-color="#3BADEA"/>
</linearGradient>
<linearGradient id="paint9_linear_1_10388" x1="52.7572" y1="45.8216" x2="54.8851" y2="45.8216" gradientUnits="userSpaceOnUse">
<stop stop-color="#4AFFC7"/>
<stop offset="1" stop-color="#3BADEA"/>
</linearGradient>
<linearGradient id="paint10_linear_1_10388" x1="46.7299" y1="47.7896" x2="48.8578" y2="47.7896" gradientUnits="userSpaceOnUse">
<stop stop-color="#4AFFC7"/>
<stop offset="1" stop-color="#3BADEA"/>
</linearGradient>
<linearGradient id="paint11_linear_1_10388" x1="42.1253" y1="14.4936" x2="47.7982" y2="14.4936" gradientUnits="userSpaceOnUse">
<stop stop-color="#4AFFC7"/>
<stop offset="1" stop-color="#3BADEA"/>
</linearGradient>
<linearGradient id="paint12_linear_1_10388" x1="42.1253" y1="28.474" x2="47.7982" y2="28.474" gradientUnits="userSpaceOnUse">
<stop stop-color="#4AFFC7"/>
<stop offset="1" stop-color="#3BADEA"/>
</linearGradient>
<linearGradient id="paint13_linear_1_10388" x1="42.1253" y1="42.4701" x2="47.7982" y2="42.4701" gradientUnits="userSpaceOnUse">
<stop stop-color="#4AFFC7"/>
<stop offset="1" stop-color="#3BADEA"/>
</linearGradient>
<linearGradient id="paint14_linear_1_10388" x1="42.126" y1="22.2919" x2="45.3171" y2="22.2919" gradientUnits="userSpaceOnUse">
<stop stop-color="#4AFFC7"/>
<stop offset="1" stop-color="#3BADEA"/>
</linearGradient>
<linearGradient id="paint15_linear_1_10388" x1="42.126" y1="36.288" x2="45.3171" y2="36.288" gradientUnits="userSpaceOnUse">
<stop stop-color="#4AFFC7"/>
<stop offset="1" stop-color="#3BADEA"/>
</linearGradient>
</defs>
</svg>
