<svg width="83" height="106" viewBox="0 0 83 106" fill="none" xmlns="http://www.w3.org/2000/svg">
<path opacity="0.2" fill-rule="evenodd" clip-rule="evenodd" d="M65.7251 70.9858C79.3816 78.7896 79.3816 91.7367 65.7251 99.5404C52.0685 107.344 29.8989 107.344 16.2424 99.5404C2.58586 91.5593 2.58586 78.7896 16.2424 70.9858C29.8989 63.0047 52.0685 63.0047 65.7251 70.9858Z" fill="#E9E9EB"/>
<path opacity="0.2" fill-rule="evenodd" clip-rule="evenodd" d="M60.5761 74.0345C71.3949 80.2421 71.3949 90.3515 60.5761 96.559C49.7573 102.767 32.3763 102.767 21.5575 96.559C10.7387 90.3515 10.7387 80.2421 21.5575 74.0345C32.3763 67.827 49.7573 67.827 60.5761 74.0345Z" fill="#DDDEE1"/>
<path opacity="0.2" fill-rule="evenodd" clip-rule="evenodd" d="M55.267 76.9975C63.2481 81.6088 63.2481 88.8804 55.267 93.4917C47.2859 98.103 34.5161 98.103 26.7124 93.4917C18.7313 88.8804 18.7313 81.6088 26.7124 76.9975C34.6935 72.3862 47.4632 72.3862 55.267 76.9975Z" fill="#D1D2D6"/>
<path fill-rule="evenodd" clip-rule="evenodd" d="M10.6309 51.7666L12.0498 62.7629C12.0498 62.7629 12.7593 63.8269 13.2914 64.0043C13.8235 64.359 14.3554 64.5363 15.0648 64.5363L36.7025 65.4232C37.944 65.0685 39.0082 64.8911 39.895 64.0043C40.6045 63.2948 40.7816 61.6988 40.7816 60.812V53.7175C40.7816 53.7175 40.7816 52.8307 40.7816 52.2986C40.7816 51.9439 40.427 51.5892 40.0723 51.2345C39.7176 50.8798 39.3629 50.7025 39.0082 50.5252C38.6535 50.5252 38.1214 50.3477 37.5893 50.3477L10.8081 51.9441L10.6309 51.7666Z" fill="#404040"/>
<path fill-rule="evenodd" clip-rule="evenodd" d="M28.8878 50.9023C23.567 50.9023 9.91057 50.9023 4.58984 50.9023L12.0388 63.6721C12.0388 63.6721 12.7484 64.7363 13.2805 65.091C13.8125 65.4457 14.3445 65.6231 15.0539 65.6231C21.7935 66.1551 28.8878 66.3325 36.6915 65.6231C37.7557 65.6231 38.6425 65.2684 39.1745 64.559C39.7066 63.8495 40.2386 62.9628 40.2386 62.076V54.627C40.2386 54.627 40.2387 53.7402 40.0614 53.2081C40.0614 52.8534 39.7065 52.3214 39.3518 51.9667C38.9971 51.612 38.6425 51.2571 38.1104 51.2571C37.7557 51.2571 37.2236 51.0799 36.6915 51.0799H28.8878V50.9023Z" fill="#709140"/>
<path fill-rule="evenodd" clip-rule="evenodd" d="M28.8878 50.9023C23.567 50.9023 9.91057 50.9023 4.58984 50.9023L12.0388 63.6721C12.0388 63.6721 12.7484 64.7363 13.2805 65.091C13.8125 65.4457 14.3445 65.6231 15.0539 65.6231C21.7935 66.1551 28.8878 66.3325 36.6915 65.6231C37.7557 65.6231 38.6425 65.2684 39.1745 64.559C39.7066 63.8495 40.2386 62.9628 40.2386 62.076V54.627C40.2386 54.627 40.2387 53.7402 40.0614 53.2081C40.0614 52.8534 39.7065 52.3214 39.3518 51.9667C38.9971 51.612 38.6425 51.2571 38.1104 51.2571C37.7557 51.2571 37.2236 51.0799 36.6915 51.0799H28.8878V50.9023Z" fill="url(#paint0_linear_1_10438)"/>
<path fill-rule="evenodd" clip-rule="evenodd" d="M72.0111 55.724L80.7014 48.9846C80.7014 48.9846 81.2335 47.743 81.2335 47.211C81.2335 46.6789 81.2335 45.9693 80.7014 45.4373L70.7694 26.2826C69.8826 25.3958 69.1731 24.509 67.9316 24.3317C67.0448 24.1543 65.4488 24.6864 64.7393 25.2185L58.5317 28.5883C58.5317 28.5883 57.8223 29.1205 57.4676 29.4752C57.1129 29.8299 56.9355 30.1845 56.9355 30.7165C56.9355 31.2486 56.9355 31.6034 56.9355 32.1354C56.9355 32.4902 57.1129 33.0224 57.4676 33.3771L72.3656 55.9016L72.0111 55.724Z" fill="#404040"/>
<path fill-rule="evenodd" clip-rule="evenodd" d="M62.0521 40.2809C64.7124 44.8922 71.4519 56.7752 74.1123 61.3865L81.5613 48.6167C81.5613 48.6167 82.0933 47.3751 82.0933 46.843C82.0933 46.311 82.0933 45.6017 81.5613 45.0696C78.5462 38.8621 75.1764 32.6545 70.7424 26.447C70.7424 26.447 69.501 25.0282 68.6142 24.8509C67.7274 24.6735 66.6631 24.8507 65.9537 25.2054L59.5688 28.93C59.5688 28.93 58.8594 29.4621 58.5047 29.8169C58.15 30.1716 57.9727 30.5261 57.9727 31.0582C57.9727 31.5903 57.9727 31.945 57.9727 32.4771C57.9727 33.0092 58.15 33.364 58.5047 33.7187L62.4066 40.4582L62.0521 40.2809Z" fill="#709140"/>
<path fill-rule="evenodd" clip-rule="evenodd" d="M62.0521 40.2809C64.7124 44.8922 71.4519 56.7752 74.1123 61.3865L81.5613 48.6167C81.5613 48.6167 82.0933 47.3751 82.0933 46.843C82.0933 46.311 82.0933 45.6017 81.5613 45.0696C78.5462 38.8621 75.1764 32.6545 70.7424 26.447C70.7424 26.447 69.501 25.0282 68.6142 24.8509C67.7274 24.6735 66.6631 24.8507 65.9537 25.2054L59.5688 28.93C59.5688 28.93 58.8594 29.4621 58.5047 29.8169C58.15 30.1716 57.9727 30.5261 57.9727 31.0582C57.9727 31.5903 57.9727 31.945 57.9727 32.4771C57.9727 33.0092 58.15 33.364 58.5047 33.7187L62.4066 40.4582L62.0521 40.2809Z" fill="url(#paint1_linear_1_10438)"/>
<path fill-rule="evenodd" clip-rule="evenodd" d="M44.3473 5.81918L34.0605 1.5625C34.0605 1.5625 32.8189 1.56248 32.2868 2.09455C31.7548 2.44927 31.4002 2.80411 31.0455 3.33618L19.5171 21.604C19.3397 22.8455 18.8076 23.9097 19.1623 24.9738C19.3396 25.8606 20.7586 26.9248 21.468 27.4568L27.4981 31.1815C27.4981 31.1815 28.385 31.5362 28.7397 31.7135C29.0945 31.7135 29.6266 31.7135 30.1586 31.7135C30.6907 31.7135 31.0453 31.3588 31.4 31.1815C31.7547 30.8268 32.1095 30.4718 32.2868 30.1171L44.3473 5.99644V5.81918Z" fill="#404040"/>
<path fill-rule="evenodd" clip-rule="evenodd" d="M35.8187 22.1837C38.4791 17.5724 45.2188 5.68942 47.8792 1.07812H33.1585C33.1585 1.07812 31.9168 1.0781 31.3848 1.61018C30.8527 1.96489 30.3208 2.31964 30.1434 3.02907C26.2415 8.70451 22.6944 14.7347 19.3246 21.6517C19.3246 21.6517 18.7924 23.4251 18.9698 24.3119C19.1471 25.1987 19.8565 26.0857 20.5659 26.4404L26.9508 30.1648C26.9508 30.1648 27.8377 30.5195 28.1925 30.6968C28.7245 30.6968 29.0793 30.6968 29.6114 30.6968C30.1434 30.6968 30.498 30.3421 30.8527 30.1648C31.2074 29.8101 31.5622 29.4554 31.7396 29.1007L35.6414 22.3613L35.8187 22.1837Z" fill="#709140"/>
<path fill-rule="evenodd" clip-rule="evenodd" d="M35.8187 22.1837C38.4791 17.5724 45.2188 5.68942 47.8792 1.07812H33.1585C33.1585 1.07812 31.9168 1.0781 31.3848 1.61018C30.8527 1.96489 30.3208 2.31964 30.1434 3.02907C26.2415 8.70451 22.6944 14.7347 19.3246 21.6517C19.3246 21.6517 18.7924 23.4251 18.9698 24.3119C19.1471 25.1987 19.8565 26.0857 20.5659 26.4404L26.9508 30.1648C26.9508 30.1648 27.8377 30.5195 28.1925 30.6968C28.7245 30.6968 29.0793 30.6968 29.6114 30.6968C30.1434 30.6968 30.498 30.3421 30.8527 30.1648C31.2074 29.8101 31.5622 29.4554 31.7396 29.1007L35.6414 22.3613L35.8187 22.1837Z" fill="url(#paint2_linear_1_10438)"/>
<path fill-rule="evenodd" clip-rule="evenodd" d="M62.9582 18.253C60.4752 15.77 57.6377 13.819 54.2679 12.4002C51.0754 11.1587 47.7055 10.4492 44.1583 10.4492C40.6112 10.4492 37.0642 11.1587 34.0491 12.4002C30.8567 13.819 27.8415 15.77 25.3585 18.253C22.8755 20.736 20.9245 23.5738 19.5056 26.9436C18.2641 30.1361 17.5547 33.5057 17.5547 37.0529C17.5547 40.6 18.2641 44.1473 19.5056 47.1624C20.9245 50.3548 22.8755 53.37 25.3585 55.853C27.8415 58.336 30.6793 60.2867 34.0491 61.7056C37.2415 62.9471 40.6112 63.6565 44.1583 63.6565C47.7055 63.6565 51.2528 62.9471 54.2679 61.7056C57.4603 60.2867 60.4752 58.336 62.9582 55.853C65.4412 53.37 67.3922 50.5322 68.811 47.1624C70.0525 43.9699 70.762 40.6 70.762 37.0529C70.762 33.5057 70.0525 29.9587 68.811 26.9436C67.3922 23.7512 65.4412 20.736 62.9582 18.253Z" fill="#D0DEFA"/>
<path fill-rule="evenodd" clip-rule="evenodd" d="M61.3673 19.8169C59.0617 17.5112 56.4013 15.7378 53.5636 14.4963C50.7258 13.2548 47.5336 12.7227 44.3412 12.7227C41.1487 12.7227 37.9562 13.4322 35.1185 14.4963C32.1034 15.7378 29.4431 17.5112 27.1374 19.8169C24.8318 22.1225 23.0582 24.7831 21.8167 27.7982C20.5752 30.6359 20.043 33.8281 20.043 37.0206C20.043 40.213 20.7525 43.4055 21.8167 46.2432C23.0582 49.2583 24.8318 51.9186 27.1374 54.2243C29.4431 56.5299 32.1034 58.3036 35.1185 59.5451C37.9562 60.7866 41.1487 61.3188 44.3412 61.3188C47.5336 61.3188 50.7258 60.6092 53.5636 59.5451C56.5786 58.3036 59.239 56.5299 61.3673 54.2243C63.673 51.9186 65.4466 49.2583 66.6881 46.2432C67.9296 43.4055 68.4615 40.213 68.4615 37.0206C68.4615 33.8281 67.7523 30.6359 66.6881 27.7982C65.4466 24.7831 63.673 22.1225 61.3673 19.8169Z" fill="#B4CCFA"/>
<path fill-rule="evenodd" clip-rule="evenodd" d="M61.3673 19.8169C59.0617 17.5112 56.4013 15.7378 53.5636 14.4963C50.7258 13.2548 47.5336 12.7227 44.3412 12.7227C41.1487 12.7227 37.9562 13.4322 35.1185 14.4963C32.1034 15.7378 29.4431 17.5112 27.1374 19.8169C24.8318 22.1225 23.0582 24.7831 21.8167 27.7982C20.5752 30.6359 20.043 33.8281 20.043 37.0206C20.043 40.213 20.7525 43.4055 21.8167 46.2432C23.0582 49.2583 24.8318 51.9186 27.1374 54.2243C29.4431 56.5299 32.1034 58.3036 35.1185 59.5451C37.9562 60.7866 41.1487 61.3188 44.3412 61.3188C47.5336 61.3188 50.7258 60.6092 53.5636 59.5451C56.5786 58.3036 59.239 56.5299 61.3673 54.2243C63.673 51.9186 65.4466 49.2583 66.6881 46.2432C67.9296 43.4055 68.4615 40.213 68.4615 37.0206C68.4615 33.8281 67.7523 30.6359 66.6881 27.7982C65.4466 24.7831 63.673 22.1225 61.3673 19.8169Z" fill="url(#paint3_linear_1_10438)"/>
<path fill-rule="evenodd" clip-rule="evenodd" d="M62.6062 21.2112C63.4929 22.2753 65.7985 25.4679 66.6853 27.9509C67.9268 30.9659 68.4587 34.1584 68.4587 37.3508C68.4587 40.5432 67.7495 43.7358 66.508 46.5735C65.2665 49.4112 63.4929 52.0716 61.1873 54.3773C58.8816 56.6829 56.0439 58.4564 53.2062 59.5205C51.9647 60.0526 55.3345 55.9733 53.2062 53.6677C51.0779 51.362 42.21 54.0226 42.3874 49.4113C42.5647 44.8 44.6928 44.8 45.757 42.4943C46.8211 40.1887 48.0627 41.9622 52.4966 40.5434C56.9306 38.9472 62.9607 39.3018 64.9116 37.1735C66.8626 35.2226 57.4627 37.5283 55.8665 37.1735C54.0929 36.8188 53.7381 34.6905 52.4966 34.6905C51.2551 34.6905 51.9646 36.9961 50.5457 37.3508C49.1268 37.7055 45.4023 38.415 45.2249 36.8187C44.3381 30.7886 48.9496 32.7395 49.3043 32.3848C50.5458 30.9659 47.8854 29.9019 49.4816 27.7736C51.0778 25.8227 52.8515 25.4678 53.7383 24.049C54.6251 22.6301 51.6098 21.566 53.0287 20.5019C54.4475 19.4377 61.7194 19.7925 62.6062 20.8567V21.2112Z" fill="#27AE60"/>
<path fill-rule="evenodd" clip-rule="evenodd" d="M62.6062 21.2112C63.4929 22.2753 65.7985 25.4679 66.6853 27.9509C67.9268 30.9659 68.4587 34.1584 68.4587 37.3508C68.4587 40.5432 67.7495 43.7358 66.508 46.5735C65.2665 49.4112 63.4929 52.0716 61.1873 54.3773C58.8816 56.6829 56.0439 58.4564 53.2062 59.5205C51.9647 60.0526 55.3345 55.9733 53.2062 53.6677C51.0779 51.362 42.21 54.0226 42.3874 49.4113C42.5647 44.8 44.6928 44.8 45.757 42.4943C46.8211 40.1887 48.0627 41.9622 52.4966 40.5434C56.9306 38.9472 62.9607 39.3018 64.9116 37.1735C66.8626 35.2226 57.4627 37.5283 55.8665 37.1735C54.0929 36.8188 53.7381 34.6905 52.4966 34.6905C51.2551 34.6905 51.9646 36.9961 50.5457 37.3508C49.1268 37.7055 45.4023 38.415 45.2249 36.8187C44.3381 30.7886 48.9496 32.7395 49.3043 32.3848C50.5458 30.9659 47.8854 29.9019 49.4816 27.7736C51.0778 25.8227 52.8515 25.4678 53.7383 24.049C54.6251 22.6301 51.6098 21.566 53.0287 20.5019C54.4475 19.4377 61.7194 19.7925 62.6062 20.8567V21.2112Z" fill="url(#paint4_linear_1_10438)"/>
<path fill-rule="evenodd" clip-rule="evenodd" d="M42.5562 12.7866C36.8808 13.1414 31.3826 15.4469 26.9487 19.8808C24.643 22.1865 22.8694 24.8469 21.6279 27.6846C19.1449 33.7148 19.1449 40.4544 21.6279 46.3072C22.692 48.6129 23.9337 50.9186 25.7073 53.0469C25.7073 53.0469 26.062 53.2242 26.2394 53.2242C26.4167 53.2242 26.594 53.2243 26.7714 53.0469C28.3676 51.096 33.1562 49.8543 33.3336 47.3713C33.5109 45.5977 30.4959 44.8885 29.7865 43.1149C28.8997 41.164 29.6091 38.6808 28.3676 37.0845C27.1261 35.311 22.5149 35.1338 21.2734 33.3602C20.5639 32.4734 21.0959 30.8772 21.4506 29.8131C21.4506 29.281 22.1602 29.1036 22.6923 28.9262C23.4017 28.7489 24.111 28.9262 24.8205 28.9262C24.8205 28.9262 31.7373 27.8621 33.8656 26.9753C35.9939 26.0885 34.7524 24.847 35.8165 24.4923C36.7033 24.1376 38.1222 26.9752 39.7184 25.7337C41.1373 24.4922 42.2014 18.4622 42.7335 17.0433C43.2656 15.6245 45.2166 17.0432 45.5713 17.2206C46.1033 17.5753 44.6846 20.2356 45.394 20.7677C46.1034 21.2997 48.7637 19.5262 49.1184 19.1715C51.0693 17.2206 50.7147 15.2696 49.4732 14.3828C48.409 13.496 44.8619 14.7376 42.911 12.7866C42.911 12.7866 42.5563 12.6094 42.379 12.6094L42.5562 12.7866Z" fill="#27AE60"/>
<path fill-rule="evenodd" clip-rule="evenodd" d="M42.5562 12.7866C36.8808 13.1414 31.3826 15.4469 26.9487 19.8808C24.643 22.1865 22.8694 24.8469 21.6279 27.6846C19.1449 33.7148 19.1449 40.4544 21.6279 46.3072C22.692 48.6129 23.9337 50.9186 25.7073 53.0469C25.7073 53.0469 26.062 53.2242 26.2394 53.2242C26.4167 53.2242 26.594 53.2243 26.7714 53.0469C28.3676 51.096 33.1562 49.8543 33.3336 47.3713C33.5109 45.5977 30.4959 44.8885 29.7865 43.1149C28.8997 41.164 29.6091 38.6808 28.3676 37.0845C27.1261 35.311 22.5149 35.1338 21.2734 33.3602C20.5639 32.4734 21.0959 30.8772 21.4506 29.8131C21.4506 29.281 22.1602 29.1036 22.6923 28.9262C23.4017 28.7489 24.111 28.9262 24.8205 28.9262C24.8205 28.9262 31.7373 27.8621 33.8656 26.9753C35.9939 26.0885 34.7524 24.847 35.8165 24.4923C36.7033 24.1376 38.1222 26.9752 39.7184 25.7337C41.1373 24.4922 42.2014 18.4622 42.7335 17.0433C43.2656 15.6245 45.2166 17.0432 45.5713 17.2206C46.1033 17.5753 44.6846 20.2356 45.394 20.7677C46.1034 21.2997 48.7637 19.5262 49.1184 19.1715C51.0693 17.2206 50.7147 15.2696 49.4732 14.3828C48.409 13.496 44.8619 14.7376 42.911 12.7866C42.911 12.7866 42.5563 12.6094 42.379 12.6094L42.5562 12.7866Z" fill="url(#paint5_linear_1_10438)"/>
<path fill-rule="evenodd" clip-rule="evenodd" d="M53.033 14.5261C50.3726 13.462 47.3575 12.9297 44.1651 12.9297C40.7953 12.9297 37.7801 13.6392 34.9424 14.7034C31.9273 15.9449 29.267 17.7185 26.9614 20.0242C24.6557 22.3298 22.8821 24.9901 21.6406 28.0052C20.3991 30.8429 19.8672 34.0354 19.8672 37.2279C19.8672 40.4203 20.5765 43.6126 21.6406 46.4503C22.8821 49.4654 24.6557 52.1259 26.9614 54.4316C29.267 56.7372 31.9273 58.5106 34.9424 59.7521C37.7801 60.9936 40.9727 61.5258 44.1651 61.5258C47.3575 61.5258 50.5501 60.8162 53.3878 59.7521C56.4029 58.5106 59.0633 56.7372 61.1916 54.4316C61.901 53.7222 62.4329 53.0125 62.965 52.3031C58.8857 56.205 53.3878 58.688 47.3577 58.688C34.9426 58.688 25.0104 48.5787 25.0104 36.341C25.0104 24.1033 35.12 13.9941 47.3577 13.9941C49.3086 13.9941 51.0821 14.1713 52.8557 14.7034L53.033 14.5261Z" fill="#8DA4D1"/>
<path fill-rule="evenodd" clip-rule="evenodd" d="M53.033 14.5261C50.3726 13.462 47.3575 12.9297 44.1651 12.9297C40.7953 12.9297 37.7801 13.6392 34.9424 14.7034C31.9273 15.9449 29.267 17.7185 26.9614 20.0242C24.6557 22.3298 22.8821 24.9901 21.6406 28.0052C20.3991 30.8429 19.8672 34.0354 19.8672 37.2279C19.8672 40.4203 20.5765 43.6126 21.6406 46.4503C22.8821 49.4654 24.6557 52.1259 26.9614 54.4316C29.267 56.7372 31.9273 58.5106 34.9424 59.7521C37.7801 60.9936 40.9727 61.5258 44.1651 61.5258C47.3575 61.5258 50.5501 60.8162 53.3878 59.7521C56.4029 58.5106 59.0633 56.7372 61.1916 54.4316C61.901 53.7222 62.4329 53.0125 62.965 52.3031C58.8857 56.205 53.3878 58.688 47.3577 58.688C34.9426 58.688 25.0104 48.5787 25.0104 36.341C25.0104 24.1033 35.12 13.9941 47.3577 13.9941C49.3086 13.9941 51.0821 14.1713 52.8557 14.7034L53.033 14.5261Z" fill="url(#paint6_linear_1_10438)"/>
<path fill-rule="evenodd" clip-rule="evenodd" d="M42.5562 12.7866C36.8808 13.1414 31.3826 15.4469 26.9487 19.8808C24.643 22.1865 22.8694 24.8469 21.6279 27.6846C19.1449 33.7148 19.1449 40.4544 21.6279 46.3072C22.692 48.6129 23.9337 50.9186 25.7073 53.0469C25.7073 53.0469 26.062 53.2242 26.2394 53.2242C26.4167 53.2242 26.594 53.2243 26.7714 53.0469C27.4808 52.1601 29.077 51.4507 30.3185 50.5639C26.9487 46.662 24.9977 41.5185 24.9977 36.0204C24.9977 35.6657 24.9977 35.4883 24.9977 35.1336C23.5789 34.6015 21.9828 34.0694 21.2734 33.1827C20.5639 32.2959 21.0959 30.6997 21.4506 29.6356C21.4506 29.1035 22.1602 28.9261 22.6923 28.7487C23.4017 28.5714 24.111 28.7487 24.8205 28.7487C24.8205 28.7487 25.3524 28.7488 26.0618 28.5715C28.8995 20.5904 35.994 14.7376 44.5072 13.6735C43.7977 13.6735 43.2656 13.3187 42.7335 12.7866C42.7335 12.7866 42.3788 12.6094 42.2014 12.6094L42.5562 12.7866Z" fill="#05883B"/>
<path fill-rule="evenodd" clip-rule="evenodd" d="M42.5562 12.7866C36.8808 13.1414 31.3826 15.4469 26.9487 19.8808C24.643 22.1865 22.8694 24.8469 21.6279 27.6846C19.1449 33.7148 19.1449 40.4544 21.6279 46.3072C22.692 48.6129 23.9337 50.9186 25.7073 53.0469C25.7073 53.0469 26.062 53.2242 26.2394 53.2242C26.4167 53.2242 26.594 53.2243 26.7714 53.0469C27.4808 52.1601 29.077 51.4507 30.3185 50.5639C26.9487 46.662 24.9977 41.5185 24.9977 36.0204C24.9977 35.6657 24.9977 35.4883 24.9977 35.1336C23.5789 34.6015 21.9828 34.0694 21.2734 33.1827C20.5639 32.2959 21.0959 30.6997 21.4506 29.6356C21.4506 29.1035 22.1602 28.9261 22.6923 28.7487C23.4017 28.5714 24.111 28.7487 24.8205 28.7487C24.8205 28.7487 25.3524 28.7488 26.0618 28.5715C28.8995 20.5904 35.994 14.7376 44.5072 13.6735C43.7977 13.6735 43.2656 13.3187 42.7335 12.7866C42.7335 12.7866 42.3788 12.6094 42.2014 12.6094L42.5562 12.7866Z" fill="url(#paint7_linear_1_10438)"/>
<path fill-rule="evenodd" clip-rule="evenodd" d="M63.3149 52.1148C63.3149 52.1148 61.8961 53.7111 61.1866 54.4205C58.881 56.7261 56.0433 58.4996 53.2056 59.5638C52.6735 59.7411 53.2054 58.8543 53.5601 57.6128C57.2846 56.5487 60.4772 54.5979 63.1376 51.9375L63.3149 52.1148Z" fill="#05883B"/>
<path fill-rule="evenodd" clip-rule="evenodd" d="M77.8665 57.28L82.123 49.831C74.8513 52.6687 70.0627 50.8953 64.2099 50.5406C64.2099 50.5406 63.1458 50.0085 63.1458 49.4765L64.742 41.1406L48.0703 56.2159L59.5985 75.0157L60.6628 67.7443C60.6628 67.7443 61.1949 66.6802 61.7269 66.6802L66.6929 65.9706C72.3684 65.2612 73.7873 63.8423 75.3835 61.0046L77.689 56.9254L77.8665 57.28Z" fill="#9BC957"/>
<path fill-rule="evenodd" clip-rule="evenodd" d="M77.8665 57.28L82.123 49.831C74.8513 52.6687 70.0627 50.8953 64.2099 50.5406C64.2099 50.5406 63.1458 50.0085 63.1458 49.4765L64.742 41.1406L48.0703 56.2159L59.5985 75.0157L60.6628 67.7443C60.6628 67.7443 61.1949 66.6802 61.7269 66.6802L66.6929 65.9706C72.3684 65.2612 73.7873 63.8423 75.3835 61.0046L77.689 56.9254L77.8665 57.28Z" fill="url(#paint8_linear_1_10438)"/>
<path fill-rule="evenodd" clip-rule="evenodd" d="M80.1634 49.3049C84.42 46.1125 71.8276 29.7956 70.2314 25.5391C72.1823 28.7315 85.484 45.7578 81.7595 50.1918C79.6312 53.9163 67.7483 51.4333 64.0238 50.5466C63.4917 50.5466 63.1372 50.0145 63.1372 49.4825L63.4917 47.886C66.5068 48.9502 76.9709 51.7879 80.1634 49.3049ZM64.7333 41.3239L63.4917 39.1957L46.8203 54.2709L48.0617 56.3994L64.7333 41.3239Z" fill="#415721"/>
<path fill-rule="evenodd" clip-rule="evenodd" d="M80.1634 49.3049C84.42 46.1125 71.8276 29.7956 70.2314 25.5391C72.1823 28.7315 85.484 45.7578 81.7595 50.1918C79.6312 53.9163 67.7483 51.4333 64.0238 50.5466C63.4917 50.5466 63.1372 50.0145 63.1372 49.4825L63.4917 47.886C66.5068 48.9502 76.9709 51.7879 80.1634 49.3049ZM64.7333 41.3239L63.4917 39.1957L46.8203 54.2709L48.0617 56.3994L64.7333 41.3239Z" fill="url(#paint9_linear_1_10438)"/>
<path fill-rule="evenodd" clip-rule="evenodd" d="M42.7353 0H34.0449C40.0751 4.96601 40.9617 9.93204 43.7994 15.2528C43.7994 15.2528 43.7996 16.3169 43.4449 16.6717L35.4638 19.3319L56.7467 26.2489L67.2107 6.91694L60.471 9.57747C60.471 9.57747 59.4069 9.57739 59.0521 9.22267L56.0371 5.32078C52.6673 0.709485 50.5391 0.354889 47.524 0.177531H42.9128L42.7353 0Z" fill="#9BC957"/>
<path fill-rule="evenodd" clip-rule="evenodd" d="M42.7353 0H34.0449C40.0751 4.96601 40.9617 9.93204 43.7994 15.2528C43.7994 15.2528 43.7996 16.3169 43.4449 16.6717L35.4638 19.3319L56.7467 26.2489L67.2107 6.91694L60.471 9.57747C60.471 9.57747 59.4069 9.57739 59.0521 9.22267L56.0371 5.32078C52.6673 0.709485 50.5391 0.354889 47.524 0.177531H42.9128L42.7353 0Z" fill="url(#paint10_linear_1_10438)"/>
<path fill-rule="evenodd" clip-rule="evenodd" d="M34.5783 1.97974C29.6122 -0.14855 21.8084 19.0062 18.9707 22.376C20.7443 19.0062 28.9028 -0.857992 34.5783 0.0287967C39.0122 0.0287967 42.7365 11.5571 43.8007 15.2816C43.978 15.8136 43.8009 16.3457 43.4461 16.7005L41.8497 17.2325C41.3176 14.0401 38.48 3.57596 34.7555 1.97974H34.5783ZM35.2876 19.3607L34.0462 21.4892L55.3291 28.4061L56.5704 26.2777L35.2876 19.3607Z" fill="#415721"/>
<path fill-rule="evenodd" clip-rule="evenodd" d="M34.5783 1.97974C29.6122 -0.14855 21.8084 19.0062 18.9707 22.376C20.7443 19.0062 28.9028 -0.857992 34.5783 0.0287967C39.0122 0.0287967 42.7365 11.5571 43.8007 15.2816C43.978 15.8136 43.8009 16.3457 43.4461 16.7005L41.8497 17.2325C41.3176 14.0401 38.48 3.57596 34.7555 1.97974H34.5783ZM35.2876 19.3607L34.0462 21.4892L55.3291 28.4061L56.5704 26.2777L35.2876 19.3607Z" fill="url(#paint11_linear_1_10438)"/>
<path fill-rule="evenodd" clip-rule="evenodd" d="M6.38462 56.0381L10.6413 63.4871C11.8828 55.8607 15.7847 52.491 18.9771 47.525C19.3318 46.9929 19.864 46.8155 20.396 47.1702L26.7809 52.6682L21.9922 30.6758L0 31.3854L5.6753 35.8193C5.6753 35.8193 6.38481 36.7061 6.0301 37.2382L4.07915 41.8494C1.7735 47.1701 2.48293 48.9437 4.07915 51.7814L6.38462 55.8608V56.0381Z" fill="#9BC957"/>
<path fill-rule="evenodd" clip-rule="evenodd" d="M6.38462 56.0381L10.6413 63.4871C11.8828 55.8607 15.7847 52.491 18.9771 47.525C19.3318 46.9929 19.864 46.8155 20.396 47.1702L26.7809 52.6682L21.9922 30.6758L0 31.3854L5.6753 35.8193C5.6753 35.8193 6.38481 36.7061 6.0301 37.2382L4.07915 41.8494C1.7735 47.1701 2.48293 48.9437 4.07915 51.7814L6.38462 55.8608V56.0381Z" fill="url(#paint12_linear_1_10438)"/>
<path fill-rule="evenodd" clip-rule="evenodd" d="M12.058 62.0977C12.7674 67.4184 33.1636 64.7581 37.5975 65.4675C33.873 65.4675 12.5901 68.4825 10.4618 63.1618C8.33351 59.4373 16.4919 50.3922 18.9749 47.5545C19.3296 47.1998 19.8617 47.0223 20.3938 47.1997L21.6352 48.2638C19.1521 50.3921 11.5259 58.0184 12.058 62.0977ZM26.7787 52.875H29.2617L24.4729 30.8828H21.9899L26.7787 52.875Z" fill="#415721"/>
<path fill-rule="evenodd" clip-rule="evenodd" d="M12.058 62.0977C12.7674 67.4184 33.1636 64.7581 37.5975 65.4675C33.873 65.4675 12.5901 68.4825 10.4618 63.1618C8.33351 59.4373 16.4919 50.3922 18.9749 47.5545C19.3296 47.1998 19.8617 47.0223 20.3938 47.1997L21.6352 48.2638C19.1521 50.3921 11.5259 58.0184 12.058 62.0977ZM26.7787 52.875H29.2617L24.4729 30.8828H21.9899L26.7787 52.875Z" fill="url(#paint13_linear_1_10438)"/>
<defs>
<linearGradient id="paint0_linear_1_10438" x1="12.9298" y1="58.3676" x2="40.5444" y2="59.0083" gradientUnits="userSpaceOnUse">
<stop stop-color="#9CB2DF"/>
<stop offset="0.09" stop-color="#A9BDE4"/>
<stop offset="0.31" stop-color="#C3D3F0"/>
<stop offset="0.53" stop-color="#D6E3F8"/>
<stop offset="0.76" stop-color="#E2ECFD"/>
<stop offset="1" stop-color="#E6F0FF"/>
</linearGradient>
<linearGradient id="paint1_linear_1_10438" x1="63.6156" y1="42.7727" x2="82.3095" y2="42.8945" gradientUnits="userSpaceOnUse">
<stop stop-color="#9CB2DF"/>
<stop offset="0.09" stop-color="#A9BDE4"/>
<stop offset="0.31" stop-color="#C3D3F0"/>
<stop offset="0.53" stop-color="#D6E3F8"/>
<stop offset="0.76" stop-color="#E2ECFD"/>
<stop offset="1" stop-color="#E6F0FF"/>
</linearGradient>
<linearGradient id="paint2_linear_1_10438" x1="25.7054" y1="15.6357" x2="48.1374" y2="15.8525" gradientUnits="userSpaceOnUse">
<stop stop-color="#9CB2DF"/>
<stop offset="0.09" stop-color="#A9BDE4"/>
<stop offset="0.31" stop-color="#C3D3F0"/>
<stop offset="0.53" stop-color="#D6E3F8"/>
<stop offset="0.76" stop-color="#E2ECFD"/>
<stop offset="1" stop-color="#E6F0FF"/>
</linearGradient>
<linearGradient id="paint3_linear_1_10438" x1="31.3704" y1="36.6077" x2="68.8934" y2="36.9773" gradientUnits="userSpaceOnUse">
<stop stop-color="#E6F0FF"/>
<stop offset="0.24" stop-color="#E2ECFD"/>
<stop offset="0.47" stop-color="#D6E3F8"/>
<stop offset="0.69" stop-color="#C3D3F0"/>
<stop offset="0.91" stop-color="#A9BDE4"/>
<stop offset="1" stop-color="#9CB2DF"/>
</linearGradient>
<linearGradient id="paint4_linear_1_10438" x1="42.3772" y1="39.7136" x2="68.4413" y2="39.7136" gradientUnits="userSpaceOnUse">
<stop stop-color="#4AFFC7"/>
<stop offset="1" stop-color="#3BADEA"/>
</linearGradient>
<linearGradient id="paint5_linear_1_10438" x1="19.7567" y1="32.9168" x2="50.4724" y2="32.9168" gradientUnits="userSpaceOnUse">
<stop stop-color="#4AFFC7"/>
<stop offset="1" stop-color="#3BADEA"/>
</linearGradient>
<linearGradient id="paint6_linear_1_10438" x1="29.9498" y1="36.8147" x2="63.3501" y2="37.1075" gradientUnits="userSpaceOnUse">
<stop stop-color="#9CB2DF"/>
<stop offset="0.09" stop-color="#A9BDE4"/>
<stop offset="0.31" stop-color="#C3D3F0"/>
<stop offset="0.53" stop-color="#D6E3F8"/>
<stop offset="0.76" stop-color="#E2ECFD"/>
<stop offset="1" stop-color="#E6F0FF"/>
</linearGradient>
<linearGradient id="paint7_linear_1_10438" x1="19.7585" y1="32.9168" x2="44.4907" y2="32.9168" gradientUnits="userSpaceOnUse">
<stop stop-color="#4AFFC7"/>
<stop offset="1" stop-color="#3BADEA"/>
</linearGradient>
<linearGradient id="paint8_linear_1_10438" x1="56.0369" y1="57.7903" x2="82.4267" y2="58.0525" gradientUnits="userSpaceOnUse">
<stop stop-color="#E6F0FF"/>
<stop offset="0.24" stop-color="#E2ECFD"/>
<stop offset="0.47" stop-color="#D6E3F8"/>
<stop offset="0.69" stop-color="#C3D3F0"/>
<stop offset="0.91" stop-color="#A9BDE4"/>
<stop offset="1" stop-color="#9CB2DF"/>
</linearGradient>
<linearGradient id="paint9_linear_1_10438" x1="46.81" y1="40.9692" x2="82.3902" y2="40.9692" gradientUnits="userSpaceOnUse">
<stop stop-color="#4AFFC7"/>
<stop offset="1" stop-color="#3BADEA"/>
</linearGradient>
<linearGradient id="paint10_linear_1_10438" x1="41.804" y1="12.9013" x2="67.505" y2="13.2224" gradientUnits="userSpaceOnUse">
<stop stop-color="#E6F0FF"/>
<stop offset="0.24" stop-color="#E2ECFD"/>
<stop offset="0.47" stop-color="#D6E3F8"/>
<stop offset="0.69" stop-color="#C3D3F0"/>
<stop offset="0.91" stop-color="#A9BDE4"/>
<stop offset="1" stop-color="#9CB2DF"/>
</linearGradient>
<linearGradient id="paint11_linear_1_10438" x1="18.9598" y1="14.2031" x2="56.5454" y2="14.2031" gradientUnits="userSpaceOnUse">
<stop stop-color="#4AFFC7"/>
<stop offset="1" stop-color="#3BADEA"/>
</linearGradient>
<linearGradient id="paint12_linear_1_10438" x1="6.26535" y1="46.8025" x2="27.0205" y2="46.97" gradientUnits="userSpaceOnUse">
<stop stop-color="#E6F0FF"/>
<stop offset="0.24" stop-color="#E2ECFD"/>
<stop offset="0.47" stop-color="#D6E3F8"/>
<stop offset="0.69" stop-color="#C3D3F0"/>
<stop offset="0.91" stop-color="#A9BDE4"/>
<stop offset="1" stop-color="#9CB2DF"/>
</linearGradient>
<linearGradient id="paint13_linear_1_10438" x1="10.1034" y1="48.6006" x2="37.5792" y2="48.6006" gradientUnits="userSpaceOnUse">
<stop stop-color="#4AFFC7"/>
<stop offset="1" stop-color="#3BADEA"/>
</linearGradient>
</defs>
</svg>
