<svg width="70" height="109" viewBox="0 0 70 109" fill="none" xmlns="http://www.w3.org/2000/svg">
<path opacity="0.2" fill-rule="evenodd" clip-rule="evenodd" d="M59.7251 73.9858C73.3816 81.7896 73.3816 94.7367 59.7251 102.54C46.0685 110.344 23.8989 110.344 10.2424 102.54C-3.41414 94.5593 -3.41414 81.7896 10.2424 73.9858C23.8989 66.0047 46.0685 66.0047 59.7251 73.9858Z" fill="#E9E9EB"/>
<path opacity="0.2" fill-rule="evenodd" clip-rule="evenodd" d="M54.5761 77.0345C65.3949 83.2421 65.3949 93.3515 54.5761 99.559C43.7573 105.767 26.3763 105.767 15.5575 99.559C4.73866 93.3515 4.73866 83.2421 15.5575 77.0345C26.3763 70.827 43.7573 70.827 54.5761 77.0345Z" fill="#DDDEE1"/>
<path opacity="0.2" fill-rule="evenodd" clip-rule="evenodd" d="M49.267 79.9975C57.2481 84.6088 57.2481 91.8804 49.267 96.4917C41.2859 101.103 28.5161 101.103 20.7124 96.4917C12.7313 91.8804 12.7313 84.6088 20.7124 79.9975C28.6935 75.3862 41.4632 75.3862 49.267 79.9975Z" fill="#D1D2D6"/>
<path fill-rule="evenodd" clip-rule="evenodd" d="M21.9291 70.5573L14.3027 64.7044C35.0536 76.41 69.9931 21.9612 46.9366 8.30469L55.4497 12.0292C79.0383 27.814 42.68 84.0363 21.9291 70.7345V70.5573Z" fill="#2C3E50"/>
<path fill-rule="evenodd" clip-rule="evenodd" d="M21.9291 70.5573L14.3027 64.7044C35.0536 76.41 69.9931 21.9612 46.9366 8.30469L55.4497 12.0292C79.0383 27.814 42.68 84.0363 21.9291 70.7345V70.5573Z" fill="url(#paint0_linear_1_10414)"/>
<path fill-rule="evenodd" clip-rule="evenodd" d="M36.1354 13.2522C23.543 20.5238 13.4336 38.0823 13.4336 52.6256C13.4336 67.1689 23.543 73.0217 36.1354 65.75C48.7277 58.4784 58.8371 40.9199 58.8371 26.3766C58.8371 11.8333 48.7277 5.9805 36.1354 13.2522Z" fill="#E6EAEB"/>
<path fill-rule="evenodd" clip-rule="evenodd" d="M36.1354 13.2522C23.543 20.5238 13.4336 38.0823 13.4336 52.6256C13.4336 67.1689 23.543 73.0217 36.1354 65.75C48.7277 58.4784 58.8371 40.9199 58.8371 26.3766C58.8371 11.8333 48.7277 5.9805 36.1354 13.2522Z" fill="url(#paint1_linear_1_10414)"/>
<path fill-rule="evenodd" clip-rule="evenodd" d="M41.0667 0.127934H41.7761C44.9686 -0.226781 47.4515 0.127967 50.2892 1.54683L58.093 5.98077C55.4326 4.73927 53.1269 4.20712 50.2892 4.38448H49.5798C43.5496 5.09391 38.4063 7.9317 33.6177 11.6562L32.9082 12.1883C25.9913 17.8637 20.8479 24.7807 16.946 32.5844L16.5914 33.4711C12.3348 42.339 9.49697 52.6257 11.0932 62.5578V63.2672C12.1573 68.0559 14.1083 71.9577 18.0101 74.6181L18.5422 74.9729L10.7385 70.5389L10.2065 70.1842C6.30462 67.3464 4.35359 63.2672 3.46681 58.8333V58.1238C1.87059 48.1918 4.53104 38.0824 8.96499 29.0372L9.31964 28.1505C13.3989 20.3467 18.5423 13.4298 25.2819 7.75432L25.9913 7.22227C30.6026 3.67511 35.5686 1.01472 41.2441 0.127934H41.0667Z" fill="#31485E"/>
<path fill-rule="evenodd" clip-rule="evenodd" d="M41.0667 0.127934H41.7761C44.9686 -0.226781 47.4515 0.127967 50.2892 1.54683L58.093 5.98077C55.4326 4.73927 53.1269 4.20712 50.2892 4.38448H49.5798C43.5496 5.09391 38.4063 7.9317 33.6177 11.6562L32.9082 12.1883C25.9913 17.8637 20.8479 24.7807 16.946 32.5844L16.5914 33.4711C12.3348 42.339 9.49697 52.6257 11.0932 62.5578V63.2672C12.1573 68.0559 14.1083 71.9577 18.0101 74.6181L18.5422 74.9729L10.7385 70.5389L10.2065 70.1842C6.30462 67.3464 4.35359 63.2672 3.46681 58.8333V58.1238C1.87059 48.1918 4.53104 38.0824 8.96499 29.0372L9.31964 28.1505C13.3989 20.3467 18.5423 13.4298 25.2819 7.75432L25.9913 7.22227C30.6026 3.67511 35.5686 1.01472 41.2441 0.127934H41.0667Z" fill="url(#paint2_linear_1_10414)"/>
<path fill-rule="evenodd" clip-rule="evenodd" d="M21.7548 68.7933L13.9512 64.3594L14.1284 64.5368H14.4832L22.287 69.1481L22.1096 68.9707L21.7548 68.7933Z" fill="#2C3E50"/>
<path fill-rule="evenodd" clip-rule="evenodd" d="M54.7405 12.6831L46.9368 8.07179H46.7594L46.582 7.89453L54.3858 12.5057H54.5632L54.7405 12.6831Z" fill="#2C3E50"/>
<path fill-rule="evenodd" clip-rule="evenodd" d="M18.5784 29.4194C23.7217 20.5515 30.6387 12.9251 38.4425 8.49119C46.2462 4.05725 53.1632 3.52516 58.3066 6.54024C63.4499 9.55532 66.465 15.7628 66.465 24.8081C66.465 33.8533 63.2726 43.7853 58.3066 52.4758C53.1632 61.3437 46.2462 68.9701 38.4425 73.404C30.6387 77.838 23.7217 78.37 18.5784 75.355C13.435 72.3399 10.4199 66.1324 10.4199 57.0871C10.4199 48.0419 13.6123 38.1099 18.5784 29.4194ZM54.7593 12.7477C52.631 11.5062 50.1481 10.9741 47.3103 11.3288C44.65 11.6836 41.6349 12.5703 38.4425 14.3439C35.25 16.1175 32.4123 18.6005 29.5746 21.4382C26.7369 24.4533 24.2539 27.8231 22.1256 31.5476C19.9973 35.2721 18.2237 39.174 17.1596 43.0759C16.0955 46.8004 15.386 50.7022 15.386 54.2494C15.386 57.7965 16.0955 60.989 17.1596 63.472C18.4011 66.1324 19.9973 67.906 22.1256 69.1475C24.2539 70.389 26.7369 70.9211 29.5746 70.5664C32.2349 70.2117 35.25 69.3248 38.4425 67.5512C41.6349 65.7776 44.4726 63.2947 47.3103 60.457C50.1481 57.4419 52.631 54.0721 54.7593 50.3476C56.8876 46.6231 58.6613 42.7212 59.7255 38.8193C60.7896 35.0948 61.499 31.1929 61.499 27.6457C61.499 24.0986 60.967 20.9062 59.7255 18.4232C58.484 15.7628 56.8876 13.9892 54.7593 12.7477Z" fill="#3D566E"/>
<path fill-rule="evenodd" clip-rule="evenodd" d="M18.5784 29.4194C23.7217 20.5515 30.6387 12.9251 38.4425 8.49119C46.2462 4.05725 53.1632 3.52516 58.3066 6.54024C63.4499 9.55532 66.465 15.7628 66.465 24.8081C66.465 33.8533 63.2726 43.7853 58.3066 52.4758C53.1632 61.3437 46.2462 68.9701 38.4425 73.404C30.6387 77.838 23.7217 78.37 18.5784 75.355C13.435 72.3399 10.4199 66.1324 10.4199 57.0871C10.4199 48.0419 13.6123 38.1099 18.5784 29.4194ZM54.7593 12.7477C52.631 11.5062 50.1481 10.9741 47.3103 11.3288C44.65 11.6836 41.6349 12.5703 38.4425 14.3439C35.25 16.1175 32.4123 18.6005 29.5746 21.4382C26.7369 24.4533 24.2539 27.8231 22.1256 31.5476C19.9973 35.2721 18.2237 39.174 17.1596 43.0759C16.0955 46.8004 15.386 50.7022 15.386 54.2494C15.386 57.7965 16.0955 60.989 17.1596 63.472C18.4011 66.1324 19.9973 67.906 22.1256 69.1475C24.2539 70.389 26.7369 70.9211 29.5746 70.5664C32.2349 70.2117 35.25 69.3248 38.4425 67.5512C41.6349 65.7776 44.4726 63.2947 47.3103 60.457C50.1481 57.4419 52.631 54.0721 54.7593 50.3476C56.8876 46.6231 58.6613 42.7212 59.7255 38.8193C60.7896 35.0948 61.499 31.1929 61.499 27.6457C61.499 24.0986 60.967 20.9062 59.7255 18.4232C58.484 15.7628 56.8876 13.9892 54.7593 12.7477Z" fill="url(#paint3_linear_1_10414)"/>
<path fill-rule="evenodd" clip-rule="evenodd" d="M25.2915 39.5176L24.582 39.1628L26.533 34.9062L27.4197 35.2609L25.2915 39.5176Z" fill="#2C3E50"/>
<path fill-rule="evenodd" clip-rule="evenodd" d="M25.2915 39.5176L24.582 39.1628L26.533 34.9062L27.4197 35.2609L25.2915 39.5176Z" fill="url(#paint4_linear_1_10414)"/>
<path fill-rule="evenodd" clip-rule="evenodd" d="M27.418 35.2609L26.5312 34.9062L41.0746 38.9855L41.784 39.3402L27.418 35.2609Z" fill="#2C3E50"/>
<path fill-rule="evenodd" clip-rule="evenodd" d="M27.418 35.2609L26.5312 34.9062L41.0746 38.9855L41.784 39.3402L27.418 35.2609Z" fill="url(#paint5_linear_1_10414)"/>
<path fill-rule="evenodd" clip-rule="evenodd" d="M41.8146 39.3527L39.8636 43.7867L25.3203 39.5301L27.4485 35.2734L41.8146 39.3527Z" fill="#415A73"/>
<path fill-rule="evenodd" clip-rule="evenodd" d="M41.8146 39.3527L39.8636 43.7867L25.3203 39.5301L27.4485 35.2734L41.8146 39.3527Z" fill="url(#paint6_linear_1_10414)"/>
<path fill-rule="evenodd" clip-rule="evenodd" d="M35.0628 46.9688L34.3535 46.614L51.2024 17.5273L51.9119 17.8821L35.0628 46.9688Z" fill="#2C3E50"/>
<path fill-rule="evenodd" clip-rule="evenodd" d="M35.0628 46.9688L34.3535 46.614L51.2024 17.5273L51.9119 17.8821L35.0628 46.9688Z" fill="url(#paint7_linear_1_10414)"/>
<path fill-rule="evenodd" clip-rule="evenodd" d="M36.2962 47.6711L35.0547 46.9616L51.9037 17.875L52.9678 18.5844L49.9528 23.9051L36.2962 47.6711Z" fill="#415A73"/>
<path fill-rule="evenodd" clip-rule="evenodd" d="M36.2962 47.6711L35.0547 46.9616L51.9037 17.875L52.9678 18.5844L49.9528 23.9051L36.2962 47.6711Z" fill="url(#paint8_linear_1_10414)"/>
<path fill-rule="evenodd" clip-rule="evenodd" d="M40.7259 36.3571L40.3712 36.1797H39.4844L39.8392 36.5343L40.7259 36.3571Z" fill="#C43E3F"/>
<path fill-rule="evenodd" clip-rule="evenodd" d="M39.842 36.5343L39.4872 36.1797L31.6836 65.9758L32.0382 66.1532L39.842 36.5343Z" fill="#943B3B"/>
<path fill-rule="evenodd" clip-rule="evenodd" d="M39.842 36.5343L39.4872 36.1797L31.6836 65.9758L32.0382 66.1532L39.842 36.5343Z" fill="url(#paint9_linear_1_10414)"/>
<path fill-rule="evenodd" clip-rule="evenodd" d="M32.041 66.1047L33.1053 65.9273L40.7315 36.3086L39.8448 36.4859L32.041 66.1047Z" fill="#E74C3C"/>
<path fill-rule="evenodd" clip-rule="evenodd" d="M32.041 66.1047L33.1053 65.9273L40.7315 36.3086L39.8448 36.4859L32.041 66.1047Z" fill="url(#paint10_linear_1_10414)"/>
<path fill-rule="evenodd" clip-rule="evenodd" d="M33.2861 11.9829L25.4824 7.54894H25.8371C30.4484 3.82443 35.7691 0.809417 41.6219 0.277344L49.4257 4.71129C43.5729 5.42072 38.2522 8.25833 33.6409 11.8055H33.2861V11.9829Z" fill="#466785"/>
<path fill-rule="evenodd" clip-rule="evenodd" d="M33.2861 11.9829L25.4824 7.54894H25.8371C30.4484 3.82443 35.7691 0.809417 41.6219 0.277344L49.4257 4.71129C43.5729 5.42072 38.2522 8.25833 33.6409 11.8055H33.2861V11.9829Z" fill="url(#paint11_linear_1_10414)"/>
<defs>
<linearGradient id="paint0_linear_1_10414" x1="14.2886" y1="40.5286" x2="63.0989" y2="40.5286" gradientUnits="userSpaceOnUse">
<stop stop-color="#4AFFC7"/>
<stop offset="1" stop-color="#3BADEA"/>
</linearGradient>
<linearGradient id="paint1_linear_1_10414" x1="24.0557" y1="39.0018" x2="59.2435" y2="39.2707" gradientUnits="userSpaceOnUse">
<stop stop-color="#9CB2DF"/>
<stop offset="0.09" stop-color="#A9BDE4"/>
<stop offset="0.31" stop-color="#C3D3F0"/>
<stop offset="0.53" stop-color="#D6E3F8"/>
<stop offset="0.76" stop-color="#E2ECFD"/>
<stop offset="1" stop-color="#E6F0FF"/>
</linearGradient>
<linearGradient id="paint2_linear_1_10414" x1="2.98404" y1="37.4864" x2="58.0562" y2="37.4864" gradientUnits="userSpaceOnUse">
<stop stop-color="#4AFFC7"/>
<stop offset="1" stop-color="#3BADEA"/>
</linearGradient>
<linearGradient id="paint3_linear_1_10414" x1="23.5316" y1="40.3305" x2="66.9666" y2="40.6619" gradientUnits="userSpaceOnUse">
<stop stop-color="#E6F0FF"/>
<stop offset="0.24" stop-color="#E2ECFD"/>
<stop offset="0.47" stop-color="#D6E3F8"/>
<stop offset="0.69" stop-color="#C3D3F0"/>
<stop offset="0.91" stop-color="#A9BDE4"/>
<stop offset="1" stop-color="#9CB2DF"/>
</linearGradient>
<linearGradient id="paint4_linear_1_10414" x1="24.5812" y1="37.2119" x2="27.4178" y2="37.2119" gradientUnits="userSpaceOnUse">
<stop stop-color="#4AFFC7"/>
<stop offset="1" stop-color="#3BADEA"/>
</linearGradient>
<linearGradient id="paint5_linear_1_10414" x1="26.5268" y1="37.1232" x2="41.7738" y2="37.1232" gradientUnits="userSpaceOnUse">
<stop stop-color="#4AFFC7"/>
<stop offset="1" stop-color="#3BADEA"/>
</linearGradient>
<linearGradient id="paint6_linear_1_10414" x1="25.3155" y1="39.5301" x2="41.8036" y2="39.5301" gradientUnits="userSpaceOnUse">
<stop stop-color="#4AFFC7"/>
<stop offset="1" stop-color="#3BADEA"/>
</linearGradient>
<linearGradient id="paint7_linear_1_10414" x1="34.3484" y1="32.2481" x2="51.9002" y2="32.2481" gradientUnits="userSpaceOnUse">
<stop stop-color="#3BADEA"/>
<stop offset="1" stop-color="#4AFFC7"/>
</linearGradient>
<linearGradient id="paint8_linear_1_10414" x1="35.0495" y1="32.773" x2="52.9559" y2="32.773" gradientUnits="userSpaceOnUse">
<stop stop-color="#4AFFC7"/>
<stop offset="1" stop-color="#3BADEA"/>
</linearGradient>
<linearGradient id="paint9_linear_1_10414" x1="33.5922" y1="50.9117" x2="39.9154" y2="50.9287" gradientUnits="userSpaceOnUse">
<stop stop-color="#9CB2DF"/>
<stop offset="0.09" stop-color="#A9BDE4"/>
<stop offset="0.31" stop-color="#C3D3F0"/>
<stop offset="0.53" stop-color="#D6E3F8"/>
<stop offset="0.76" stop-color="#E2ECFD"/>
<stop offset="1" stop-color="#E6F0FF"/>
</linearGradient>
<linearGradient id="paint10_linear_1_10414" x1="34.0741" y1="50.9534" x2="40.8096" y2="50.9728" gradientUnits="userSpaceOnUse">
<stop stop-color="#E6F0FF"/>
<stop offset="0.24" stop-color="#E2ECFD"/>
<stop offset="0.47" stop-color="#D6E3F8"/>
<stop offset="0.69" stop-color="#C3D3F0"/>
<stop offset="0.91" stop-color="#A9BDE4"/>
<stop offset="1" stop-color="#9CB2DF"/>
</linearGradient>
<linearGradient id="paint11_linear_1_10414" x1="25.4755" y1="6.13011" x2="49.4097" y2="6.13011" gradientUnits="userSpaceOnUse">
<stop stop-color="#4AFFC7"/>
<stop offset="1" stop-color="#3BADEA"/>
</linearGradient>
</defs>
</svg>
