<svg width="552" height="415" viewBox="0 0 552 415" fill="none" xmlns="http://www.w3.org/2000/svg">
<path d="M-0.00109863 3.48007C-0.00109863 1.61651 1.15589 0.141884 3.01945 0.141884H8.75362L28.5506 0.137461L101.627 0.125299H450.94L527.746 0.138567L545.544 0.141884C547.052 0.141884 550.397 -0.258358 551.699 0.285617C551.881 0.367719 551.998 0.548953 551.998 0.748736V414.248C551.998 414.449 551.881 414.632 551.699 414.716C550.397 415.259 547.052 414.858 545.544 414.858L527.746 414.862L450.94 414.874H101.628L28.5517 414.862L8.75473 414.858H3.01945C1.15564 414.858 -0.00109863 413.381 -0.00109863 411.517V3.48007Z" fill="url(#paint0_linear_51_18608)"/>
<path d="M384.856 324.854C385.704 324.678 386.507 324.545 387.28 324.133C387.777 325.457 388.346 326.538 389.726 327.142C390.844 327.633 391.936 327.712 393.06 327.205C394.093 326.741 394.547 326.117 395.2 325.234L395.572 324.756L396.657 325.607L397.598 325.413C396.856 326.864 395.791 328.225 394.316 328.974C392.872 329.709 390.481 329.912 388.942 329.315C386.799 328.485 385.735 326.86 384.857 324.853L384.856 324.854Z" fill="#ECEFF2"/>
<path d="M384.858 324.853C384.848 323.816 384.743 322.739 384.966 321.719C385.336 320.029 386.466 318.614 387.897 317.683C389.391 316.709 391.11 316.271 392.874 316.704C395.061 317.24 396.446 318.781 397.544 320.655C397.051 321.523 396.534 321.65 395.644 322.017C394.912 320.792 394.149 319.664 392.651 319.33C391.509 319.075 390.214 319.201 389.243 319.879C388.143 320.646 387.536 321.727 387.336 323.04C387.28 323.408 387.274 323.76 387.281 324.131C386.508 324.544 385.707 324.676 384.858 324.852V324.853Z" fill="url(#paint1_linear_51_18608)"/>
<path d="M387.281 324.133C387.275 323.761 387.281 323.409 387.337 323.041C387.536 321.728 388.145 320.648 389.243 319.88C390.215 319.202 391.51 319.076 392.651 319.331C394.15 319.665 394.913 320.794 395.644 322.019C395.661 322.935 395.709 323.847 395.571 324.756L395.199 325.234C394.548 326.116 394.093 326.74 393.06 327.205C391.936 327.71 390.844 327.632 389.726 327.142C388.346 326.536 387.777 325.457 387.279 324.133H387.281Z" fill="#020D40"/>
<path d="M417.53 175.924C417.138 171.679 417.477 167.099 417.477 162.812L417.485 136.107C417.485 132.264 417.885 127.91 417.367 124.12L415.851 123.89C415.321 122.949 415.571 121.357 415.568 120.269L415.556 112.46L420.312 112.48L420.19 120.501C420.171 121.469 420.352 122.94 419.932 123.816C419.293 123.925 418.857 124.085 418.278 124.37L417.78 124.647L417.727 160.288L417.756 169.889C417.76 171.859 417.934 173.991 417.53 175.924Z" fill="#3856B0"/>
<path d="M184.317 91.4968C184.231 90.7052 184.183 90.1446 184.433 89.3795C185.268 86.8155 186.027 84.4749 187.367 82.1044C190.068 77.3313 194.841 73.1631 199.635 70.609C206.665 66.8631 216.19 65.9587 223.817 68.3038C231.623 70.703 237.85 75.7923 241.643 83.0099C242.82 85.2477 244.728 89.5741 244.228 92.1104C243.493 88.8466 242.439 85.6424 240.769 82.7302C236.842 75.8796 229.906 70.8423 222.313 68.8853C214.413 66.8476 205.823 68.0727 198.799 72.2001C191.471 76.5076 186.439 83.2896 184.315 91.4968H184.317Z" fill="#2198E0"/>
<path d="M403.091 92.0421C406.241 94.3927 409.698 95.7891 413.568 96.4437C413.952 96.5089 413.802 96.4724 414.191 96.6681C413.556 97.1878 413.366 98.2326 413.087 98.99C412.569 100.407 411.946 101.776 411.328 103.149C407.223 101.495 403.651 99.6744 400.059 97.0717C400.98 95.3038 401.922 93.6641 403.091 92.041V92.0421Z" fill="#7A8797"/>
<path d="M420.495 96.5027C422.472 95.8747 424.474 95.2699 426.346 94.3643C428.247 93.4434 429.994 92.2238 431.886 91.2686L434.66 96.0748C430.972 98.6885 427.183 100.888 423.07 102.777L420.495 96.5016V96.5027Z" fill="#7A8797"/>
<path d="M429.585 56.786C430.653 55.4084 432.355 53.0523 434.021 52.4287L442.534 61.8576L437.236 67.1116L436.774 67.1514C434.566 63.8843 432.677 59.789 429.75 57.1387L429.584 56.7849L429.585 56.786Z" fill="#7A8797"/>
<path d="M-0.00109863 0.4194C0.938406 -0.00627212 2.00487 0.141884 3.01945 0.141884H8.75362L28.5506 0.137461L101.627 0.125299H450.94L527.746 0.138567L545.544 0.141884C547.052 0.141884 550.397 -0.258358 551.699 0.285617L551.998 0.420505C549.693 0.660429 547.214 0.489055 544.888 0.484633L531.539 0.45478L488.249 0.392864L345.525 0.385125H112.978L39.4183 0.395076L14.4911 0.465837L-0.00109863 0.4194Z" fill="#030F4A"/>
<path d="M88.6566 291.104C98.9249 291.462 108.752 295.593 115.801 303.209C121.05 308.881 124.775 317.233 125.171 324.972L190.342 324.946L190.432 324.579C190.809 323.09 191.278 321.911 192.659 321.06C193.797 320.359 195.298 320.176 196.576 320.588C197.823 320.989 198.86 321.899 199.428 323.075C200.059 324.385 200.109 325.587 199.61 326.939C199.166 328.141 198.136 329.145 196.94 329.603C195.857 330.018 194.181 329.984 193.149 329.46C191.522 328.635 190.833 327.419 190.326 325.752L125.1 325.785L114.883 325.773L106.285 325.784L106.179 324.989L114.878 324.985C114.048 319.184 112.34 314.22 108.302 309.844C102.771 303.849 96.7125 301.465 88.6743 301.164L88.6566 291.106V291.104Z" fill="#B8E9FF"/>
<path d="M194.723 321.185C195.444 321.27 196.185 321.35 196.852 321.659C197.769 322.082 198.54 322.888 198.888 323.841C199.3 324.968 199.213 326.144 198.649 327.203C197.967 328.482 196.928 328.886 195.629 329.256C194.879 329.158 194.021 329.081 193.335 328.745C192.401 328.287 191.599 327.314 191.276 326.331C190.949 325.338 191.172 324.138 191.66 323.234C192.355 321.947 193.416 321.566 194.723 321.186V321.185Z" fill="#020D40"/>
<path d="M89.5059 114.614L90.2743 114.802L90.2853 155.244L100.336 155.174C102.01 155.168 103.967 154.957 105.588 155.394C106.415 155.616 107.103 156.103 107.716 156.691C108.807 157.734 109.475 159.106 109.502 160.631V160.993L109.334 171.888C109.323 173.794 109.461 175.79 109.162 177.666L109.078 179.344C108.037 178.216 107.142 177.197 105.852 176.334C105.207 175.904 104.749 175.657 104.041 175.374L103.447 175.051C103.025 174.819 102.721 174.683 102.245 174.589C101.559 174.454 100.899 174.17 100.25 173.922L99.9277 173.818C98.9131 173.475 98.2882 172.817 97.1688 172.658C96.7824 172.028 96.7724 171.999 96.0891 171.728L95.8815 171.762C95.3394 171.844 94.9972 171.853 94.454 171.762C91.8497 171.32 88.5002 171.715 85.8274 171.715H75.8925C74.2188 171.717 72.4127 171.576 70.7522 171.727C70.357 171.764 70.3592 171.752 70.0788 171.995C69.7741 172.258 69.4871 172.686 69.4054 173.077C68.7717 173.371 68.1093 173.743 67.4336 173.918C66.5703 174.14 65.7865 174.643 64.8911 174.883C63.8048 175.174 62.8222 175.436 62.0086 176.243C61.0812 177.163 60.0589 177.942 59.3987 179.088C59.2552 179.337 59.0929 179.49 58.8677 179.666C58.8301 178.558 58.9118 177.337 58.4868 176.301C58.2594 175.332 58.4537 173.812 58.4504 172.792L58.4338 164.227C58.436 161.481 58.362 159.302 60.4872 157.232C61.3329 156.409 62.4711 155.701 63.6348 155.464C66.3572 154.909 69.7586 155.251 72.5407 155.255L89.4419 155.3L89.507 114.614H89.5059Z" fill="#2198E0"/>
<path d="M125.102 325.784C125.122 335.572 122.23 344.699 115.428 351.945C108.819 358.983 99.8029 362.929 90.187 363.222C80.7368 363.51 71.4312 360.125 64.5323 353.614C57.5329 347.007 53.3741 338.457 53.129 328.743C52.8862 319.113 55.9685 309.527 62.714 302.493C69.54 295.374 78.8258 291.287 88.6591 291.104L88.6768 301.163C81.3142 301.425 74.9353 304.414 69.943 309.794C64.9418 315.184 62.9845 321.929 63.3112 329.182C63.5983 335.557 66.8153 341.924 71.525 346.172C77.0008 351.113 83.6513 353.438 90.983 353.058C97.4756 352.721 104.096 349.303 108.405 344.487C111.431 341.105 113.887 336.568 114.589 332.044C114.907 329.995 114.856 327.843 114.887 325.772L125.103 325.784H125.102Z" fill="#3856B0"/>
<path d="M184.319 91.4966C186.444 83.2894 191.476 76.5075 198.804 72.1999C205.826 68.0725 214.418 66.8486 222.318 68.8852C229.91 70.8432 236.847 75.8794 240.774 82.73C242.444 85.6434 243.497 88.8475 244.232 92.1103C244.152 92.5315 244.029 92.7018 244.208 93.0854C244.758 94.2685 244.46 98.2366 244.33 99.6552C244.288 100.113 244.364 100.225 244.484 100.642L244.606 101.224L241.364 101.174L224.615 101.09C223.858 101.367 222.076 101.157 221.207 101.17L219.375 101.152L211.587 101.126L209.302 101.129L205.323 101.146L188.003 101.185L182.746 101.201C182.784 100.468 182.743 99.9459 183.217 99.3732L183.284 98.0221C184.477 96.6191 183.381 94.9694 184.224 93.7024C184.205 93.2214 184.139 92.7349 184.35 92.2883L184.476 92.0881L184.321 91.4988L184.319 91.4966Z" fill="#030F4A"/>
<path d="M201.976 80.0552C198.249 82.9387 195.171 86.6028 193.699 91.147C193.04 93.1825 192.769 95.333 192.428 97.4392C192.056 95.7177 192.143 93.7818 192.534 92.0724C193.7 86.9721 196.862 81.937 201.307 79.1055L201.976 80.0563V80.0552Z" fill="#6FBBF5"/>
<path d="M217.05 71.0957C224.312 71.6916 230.821 74.8516 235.541 80.4704C238.29 83.7431 239.793 87.8019 240.573 91.9603L240.385 91.9967C239.865 91.0017 239.596 89.7855 239.192 88.7252C238.339 86.4862 237.264 84.1633 235.807 82.256C230.909 75.8411 224.129 73.0527 216.361 72.0963L217.256 71.5092L217.049 71.0957H217.05Z" fill="#2198E0"/>
<path d="M188.175 94.3898L188.206 93.4302C188.542 87.4884 192.258 81.5534 196.625 77.7245C202.347 72.7071 209.554 70.6473 217.049 71.0973L217.257 71.5108L216.362 72.0979C208.83 71.8149 202.075 74.0096 196.516 79.2547C193.147 82.4346 190.661 86.4867 189.228 90.8828C188.873 91.9729 188.794 93.4688 188.174 94.3898H188.175Z" fill="#6FBBF5"/>
<path d="M209.301 101.127C208.251 99.0718 207.681 97.2508 208.395 94.9644C208.959 93.1555 210.358 91.5855 212.057 90.7618C213.829 89.9027 216.085 89.874 217.923 90.5528C219.668 91.1974 221.074 92.4546 221.839 94.1539C222.568 95.7726 222.76 97.786 222.06 99.4455C221.815 100.028 221.548 100.637 221.207 101.169L219.374 101.152C220.311 100.155 221.157 98.8949 221.21 97.4797C221.271 95.8643 220.618 94.3551 219.472 93.2241C218.332 92.0974 216.696 91.3931 215.088 91.4363C213.585 91.4772 212.079 92.2135 211.04 93.2915C210.079 94.2866 209.347 95.8013 209.462 97.2099C209.6 98.885 210.398 100.027 211.587 101.125L209.302 101.128L209.301 101.127Z" fill="#B8E9FF"/>
<path d="M205.077 100.562C204.766 100.364 204.706 100.206 204.587 99.862C203.751 97.4318 204.309 93.9546 205.482 91.7311C206.823 89.186 209.361 87.2489 212.103 86.4495C214.807 85.6612 218.105 86.0294 220.546 87.4435C223.003 88.8664 224.926 91.0976 225.602 93.8993C225.953 95.3588 226.179 98.7498 225.398 100.021C225.402 98.3064 225.482 96.6137 224.985 94.9541L224.869 94.5561C224.113 92.0208 222.281 89.9245 219.969 88.6785C217.651 87.4291 214.828 87.0587 212.301 87.8514C209.639 88.6873 207.379 90.5769 206.081 93.0623C204.871 95.3809 204.921 98.0156 205.077 100.561V100.562Z" fill="#D5DBE2"/>
<path d="M201.31 79.1046C206.571 75.5146 212.829 73.9678 219.15 75.1132C224.81 76.1393 230.395 79.4164 233.627 84.2525C234.405 85.4167 235.051 86.5898 235.554 87.8977C236.341 89.9388 236.927 91.8106 237.053 94.0097C236.455 93.6416 236.071 91.3772 235.815 90.6364C235.238 88.9592 234.447 87.3482 233.523 85.8368C228.671 77.9005 218.503 74.4885 209.679 76.576C206.932 77.2261 204.305 78.4766 201.976 80.0565L201.307 79.1057L201.31 79.1046Z" fill="#B0BBC9"/>
<path d="M213.199 82.2982C215.277 82.0207 217.407 82.2286 219.398 82.8599C223.166 84.054 226.397 86.6644 228.219 90.208C229.236 92.186 230.438 96.4151 229.713 98.56C229.495 99.2057 229.705 99.9122 229.327 100.466C229.165 99.7486 229.449 99.3693 229.413 98.6971C229.285 96.2481 228.911 93.8699 227.816 91.6586C225.892 87.7712 222.619 85.3299 218.578 83.9478C215.45 83.1728 212.073 83.468 209.187 84.9263C205.703 86.6876 202.776 89.7856 201.591 93.5437L201.476 93.9251C200.924 95.6267 200.97 97.3294 200.939 99.0995L200.662 99.1814L200.534 98.9547C199.77 97.4853 200.463 93.7471 200.921 92.1915C201.915 88.8138 204.354 85.8595 207.46 84.2021C209.316 83.2126 211.136 82.6531 213.201 82.2982H213.199Z" fill="#B0BBC9"/>
<path d="M213.763 78.5467C217.301 78.1862 221.576 79.2255 224.641 81.0023C228.78 83.4016 231.595 87.0833 232.876 91.6751C233.34 93.3424 233.362 94.7266 233.309 96.4404C232.651 93.7813 232.073 91.2991 230.753 88.8656C227.622 83.0953 221.872 80.3644 215.606 79.7795C212.029 79.8701 208.818 80.633 205.692 82.4009C201.99 84.4939 199.035 88.1038 197.827 92.2102C197.31 93.9693 197.127 95.7892 196.622 97.5659C195.953 93.736 197.189 89.7247 199.244 86.5184C201.654 82.7581 206.003 79.932 210.365 79.0531L213.763 78.5456V78.5467Z" fill="#B0BBC9"/>
<path d="M211.584 101.125C210.395 100.026 209.597 98.8851 209.459 97.2101C209.344 95.8015 210.076 94.2868 211.037 93.2917C212.077 92.2137 213.581 91.4762 215.085 91.4364C216.693 91.3933 218.329 92.0987 219.469 93.2243C220.615 94.3553 221.267 95.8656 221.207 97.4799C221.154 98.8951 220.309 100.156 219.371 101.152L211.583 101.125H211.584Z" fill="#030F4A"/>
<path d="M329.058 340.235C331.193 347.727 334.3 353.637 341.315 357.566C351.448 363.242 362.994 358.649 373.76 361.283C378.593 362.466 383.203 365.092 386.57 368.774C388.66 371.06 390.633 373.601 393.1 375.498C395.651 377.459 398.681 378.861 401.819 379.544C408.857 381.076 415.979 380.448 423.129 380.434L450.979 380.43L476.804 380.438L481.471 380.44C481.738 380.44 482.655 380.351 482.862 380.44C483.093 380.539 483.222 380.79 483.399 380.965C483.258 381.067 482.87 381.423 482.728 381.451C481.624 381.683 479.917 381.451 478.762 381.45L468.215 381.447L425.373 381.443L415.87 381.485C414.192 381.497 412.388 381.325 410.763 381.687C409.671 381.929 408.438 381.886 407.31 382.051C399.467 383.194 391.43 382.922 383.515 382.954L344.841 382.992L325.259 382.981C322.019 382.974 318.446 383.258 315.26 382.778C317.484 381.888 319.586 381.176 321.519 379.693C325.187 376.877 327.843 372.342 328.557 367.768C328.945 365.286 328.831 362.662 328.843 360.152L328.859 347.541C328.861 345.224 328.7 342.778 329.019 340.49L329.059 340.235H329.058Z" fill="url(#paint2_linear_51_18608)"/>
<path d="M394.602 73.0023C394.47 71.0199 395.135 68.4824 395.957 66.688L396.088 66.4093C394.393 65.1799 392.736 63.9382 391.393 62.3174C392.864 58.9706 395.931 55.7421 398.441 53.1306L403.47 56.9329C405.904 55.0422 408.085 54.1146 410.967 53.1737L411.077 47.065C414.563 46.6582 418.715 46.7654 422.202 47.1303L422.306 53.2522C424.996 54.1356 427.224 55.218 429.582 56.7847L429.747 57.1385C432.675 59.7877 434.564 63.8841 436.772 67.1512L437.234 67.1114C438.463 68.9678 438.787 71.2554 439.038 73.4191C439.07 73.7209 439.074 73.6391 439.223 73.994L444.225 74.4982C444.096 79.1939 443.275 82.8226 441.694 87.2474L436.045 86.6448C434.827 88.4216 433.545 89.8998 431.884 91.2697C429.991 92.225 428.244 93.4445 426.344 94.3655C424.471 95.271 422.47 95.8747 420.493 96.5038C418.455 97.008 416.259 96.9881 414.188 96.6696C413.799 96.4739 413.949 96.5104 413.565 96.4452C409.695 95.7906 406.238 94.3942 403.088 92.0436C400.722 90.143 398.992 87.8942 397.076 85.5756C395.722 86.6382 393.137 87.4309 391.5 88.0644C390.11 83.5811 388.85 79.1861 388.302 74.5082C389.786 74.2052 393.576 73.9763 394.603 73.0034L394.602 73.0023Z" fill="#7A8797"/>
<path d="M401.62 72.2007C401.932 71.9 402.36 69.64 402.574 69.064C402.963 68.0203 403.521 67.002 404.164 66.0931C406.519 62.7696 410.198 60.7628 414.133 60.0022C415.504 59.7379 416.923 59.6826 418.31 59.8418C422.342 60.3029 425.703 62.7021 428.227 65.7294C430.573 70.0325 431.713 74.569 430.26 79.4117C429.176 83.0271 426.309 86.0677 423.014 87.7825C419.629 89.5438 415.33 89.8036 411.706 88.6272C407.816 87.3635 404.605 84.1781 402.824 80.5538C401.474 77.8096 401.576 75.166 401.62 72.1996V72.2007Z" fill="url(#paint3_linear_51_18608)"/>
<path d="M415.44 69.0139C416.337 68.973 417.186 69.0007 418.044 69.2981C419.164 69.6884 420.223 70.794 420.68 71.8842C421.13 72.9544 421.178 74.405 420.737 75.4742C420.073 77.0929 419.098 77.7032 417.582 78.3632C416.629 78.3389 415.427 78.3566 414.55 77.9519C413.385 77.4157 412.617 76.3255 412.2 75.1425C411.711 73.7616 411.86 72.4038 412.528 71.0981C413.183 69.8199 414.17 69.4297 415.44 69.0128V69.0139Z" fill="#B8E9FF"/>
<path d="M415.051 70.4825C415.686 70.279 416.617 70.1939 417.264 70.3431C418.186 70.5565 419.08 71.3526 419.545 72.1542C419.99 72.9138 420.075 73.8392 419.832 74.6839C419.516 75.794 418.72 76.4319 417.753 76.9626C417.203 77.1351 416.192 77.1871 415.618 77.0566C414.833 76.8786 413.867 76.0615 413.434 75.3992C412.989 74.7204 412.819 73.6921 413.001 72.9049C413.293 71.6655 413.988 71.0861 415.051 70.4836V70.4825Z" fill="#F4F4F5"/>
<path d="M88.6771 301.163C96.7153 301.465 102.774 303.848 108.305 309.843C112.342 314.22 114.05 319.184 114.881 324.984L106.182 324.989L106.288 325.784L114.886 325.772C114.856 327.843 114.906 329.996 114.588 332.045C113.886 336.569 111.431 341.107 108.404 344.488C104.096 349.304 97.4738 352.72 90.9823 353.059C83.6506 353.44 77.0012 351.114 71.5242 346.173C66.8146 341.925 63.5975 335.557 63.3105 329.182C62.9837 321.929 64.9411 315.185 69.9422 309.795C74.9345 304.415 81.3134 301.425 88.676 301.163H88.6771Z" fill="#030F4A"/>
<path d="M106.286 325.782C106.18 329.26 105.745 332.551 103.914 335.592C101.489 339.616 97.6751 342.367 93.12 343.466C88.6731 344.54 83.7934 343.798 79.925 341.364C76.1515 338.989 73.5836 335.252 72.6055 330.904C71.5721 326.311 72.399 321.518 74.9217 317.55C77.5337 313.441 81.5876 310.941 86.3028 309.977C90.3578 309.148 94.956 310.25 98.3773 312.522C103.066 315.638 105.077 319.622 106.18 324.987L106.286 325.782Z" fill="#FD9B39"/>
<path d="M88.1985 321.208C89.1447 321.135 90.1118 321.225 91.0192 321.515C92.4103 321.959 93.4491 322.977 94.0839 324.269C94.7574 325.642 94.8115 327.489 94.2573 328.918C93.4635 330.965 92.2038 331.656 90.3039 332.425C89.201 332.482 88.055 332.403 87.0228 331.978C85.7388 331.448 84.7264 330.414 84.1844 329.141C83.6235 327.823 83.607 326.05 84.1656 324.731C84.9892 322.786 86.3416 321.977 88.1985 321.209V321.208Z" fill="#F8EEFF"/>
<path d="M226.325 301.729L235.809 301.747C238.469 302.371 241.117 302.76 243.709 303.672C248.738 305.441 254.083 309.369 256.883 313.953C258.56 316.699 259.877 320.096 260.301 323.298C260.717 326.454 260.478 329.892 260.478 333.085L260.465 351.04L260.499 372.186C260.501 375.82 260.72 379.674 260.391 383.286C253.478 383.296 246.183 384.311 240.022 380.602C236.363 378.398 233.655 374.555 232.488 370.467C231.725 367.795 231.804 365.194 231.781 362.445L231.713 353.363L231.729 318.935L231.745 312.117C231.744 310.703 231.842 309.182 231.479 307.802C230.681 304.77 228.941 303.256 226.325 301.732V301.729Z" fill="#ECEFF2"/>
<path d="M241.229 324.932L250.794 324.845L250.808 328.237L241.227 328.259V324.931L241.229 324.932Z" fill="#F4F4F5"/>
<path d="M241.919 365.847L250.682 365.835L250.574 369.087L249.718 369.3L241.299 369.349L241.306 366.118L241.918 365.848L241.919 365.847Z" fill="#F4F4F5"/>
<path d="M241.261 349.245H250.661L250.636 352.817L241.275 352.859L241.261 349.246V349.245Z" fill="#F4F4F5"/>
<path d="M244.06 333.18L250.695 333.091C250.701 334.184 250.937 335.775 250.381 336.687L248.012 336.737L241.237 336.739L241.296 333.583C241.895 333.003 243.219 333.207 244.059 333.18H244.06Z" fill="#F4F4F5"/>
<path d="M241.262 357.35L250.709 357.339L250.683 360.996L241.251 361.026L241.262 357.35Z" fill="#F4F4F5"/>
<path d="M241.314 341.134L250.708 341.116L250.706 344.922L241.303 344.937L241.314 341.134Z" fill="#F4F4F5"/>
<path d="M109.499 160.993L109.601 173.37L109.597 194.66L109.624 207.672C109.63 209.95 109.836 212.397 109.547 214.649C109.395 215.835 108.966 216.475 108.165 217.353C106.847 218.798 105.333 219.399 103.413 219.432L75.2931 219.409L68.424 219.454C66.8884 219.496 65.2335 219.675 63.7066 219.478C62.3873 219.308 61.1685 218.732 60.2158 217.797C59.3271 216.924 58.7441 215.84 58.5366 214.604C58.3213 213.324 58.4472 211.831 58.4428 210.52L58.4317 203.008L58.4041 177.504L58.4847 176.302C58.9086 177.338 58.828 178.559 58.8656 179.666C59.0908 179.491 59.252 179.338 59.3966 179.088C60.0557 177.943 61.0791 177.163 62.0065 176.243C62.8201 175.436 63.8027 175.174 64.889 174.883C65.7844 174.644 66.5693 174.14 67.4315 173.918C68.1072 173.745 68.7696 173.372 69.4033 173.078C69.485 172.687 69.772 172.259 70.0767 171.996C70.3582 171.752 70.3549 171.764 70.7501 171.728C72.4106 171.576 74.2178 171.717 75.8904 171.717H85.8253C88.4981 171.716 91.8476 171.32 94.4519 171.761C94.994 171.853 95.3373 171.844 95.8794 171.761L96.087 171.728C96.7703 171.999 96.7803 172.028 97.1667 172.658C98.2861 172.817 98.911 173.475 99.9256 173.818L100.248 173.922C100.897 174.168 101.558 174.453 102.243 174.588C102.719 174.682 103.025 174.818 103.445 175.05L104.039 175.373C104.746 175.656 105.205 175.904 105.85 176.334C107.14 177.195 108.034 178.216 109.076 179.344L109.159 177.665C109.459 175.79 109.321 173.793 109.332 171.887L109.499 160.992V160.993Z" fill="url(#paint4_linear_51_18608)"/>
<path d="M70.5064 180.096C72.031 179.651 74.2401 179.922 75.852 179.917L87.3766 179.891C89.9688 179.888 93.5888 179.422 96.0772 179.996C96.6513 180.129 96.6911 180.435 96.9958 180.905C96.9295 181.895 96.9008 182.014 96.2969 182.795C93.9918 183.366 90.6743 182.947 88.2698 182.947L70.4821 182.883L69.8153 182.119C69.7899 180.964 69.7457 180.953 70.5064 180.095V180.096Z" fill="#D5DBE2"/>
<path d="M70.6037 187.655C72.5854 187.141 75.5805 187.521 77.6726 187.517L96.0895 187.562C96.7652 188.241 96.8403 188.337 97.0246 189.275C96.6703 190.153 96.689 190.129 95.8202 190.504L70.6192 190.487C70.0208 190.088 69.8706 189.807 69.6189 189.14C69.8132 188.183 69.7978 188.205 70.6037 187.655Z" fill="#2198E0"/>
<path d="M70.6823 172.266C72.7402 171.762 75.9097 172.163 78.0692 172.162L95.9529 172.133C96.6219 172.555 96.6484 172.659 96.9641 173.346C96.8835 174.2 96.7466 174.6 96.1637 175.235C95.9098 175.318 95.837 175.354 95.5378 175.39C93.4755 175.642 71.146 175.706 70.4836 175.392C70.2904 175.301 70.1623 175.108 70.0022 174.966C69.8377 174.591 69.7759 174.378 69.7991 173.959C69.8565 172.952 69.9746 172.93 70.6834 172.266H70.6823Z" fill="#B8E9FF"/>
<path d="M70.9997 195.217C77.1181 194.736 83.5776 195.255 89.7313 195.29C91.5109 195.3 95.3981 194.803 96.7417 195.756C97.1281 196.49 97.0872 196.706 97.0596 197.511C96.6214 198.12 96.4701 198.185 95.8176 198.494C89.3913 198.834 82.7915 198.539 76.3475 198.494C74.8957 198.483 71.3607 198.85 70.2126 198.031C69.7434 197.407 69.6407 197.072 69.591 196.297C70.0679 195.554 70.1684 195.539 70.9997 195.217Z" fill="#ECEFF2"/>
<path d="M70.6413 203.044C72.9134 202.593 75.8533 202.934 78.1894 202.933L96.0852 202.975C96.7763 203.659 96.8845 203.713 97.028 204.664C96.6891 205.542 96.5975 205.608 95.8158 206.142C91.7873 206.485 87.5502 206.249 83.4996 206.267C79.2945 206.287 74.7824 206.644 70.6148 206.115C69.9944 205.6 69.937 205.393 69.6488 204.665C69.895 203.725 69.8785 203.626 70.6413 203.046V203.044Z" fill="#ECEFF2"/>
<path d="M71.7566 55.6143C78.777 50.4432 86.7766 47.9245 95.4695 49.185C104.113 50.4388 112.128 55.4893 117.256 62.529C118.677 64.4793 120.365 67.0068 120.946 69.3607C124.474 76.2964 124.459 85.3914 122.133 92.682C119.614 100.577 113.988 107.157 106.594 110.862C102.661 112.833 98.5816 113.921 94.2054 114.271C93.203 114.351 90.8658 114.138 90.2707 114.8L89.5023 114.612C88.7196 114.053 87.2977 114.126 86.3272 114.018C78.3619 113.13 70.7498 108.559 65.7961 102.301C60.0035 94.984 57.9423 86.3832 59.0264 77.2041C60.0885 68.2219 64.7904 61.1082 71.7555 55.6132L71.7566 55.6143Z" fill="url(#paint5_linear_51_18608)"/>
<path d="M113.212 83.3237L116.944 83.2861C116.734 86.2891 116.557 89.4766 114.482 91.867L113.375 91.8283L111.407 91.0002C112.289 88.3854 112.875 86.0668 113.211 83.3237H113.212Z" fill="#B8E9FF"/>
<path d="M110.191 70.5189C110.991 70.017 111.74 69.4785 112.665 69.2441C113.674 69.5803 114.153 70.3575 114.619 71.2796C115.339 72.7037 116.732 75.7199 116.37 77.2987C115.391 78.076 114.392 78.4199 113.169 78.6178C112.564 75.7542 111.555 73.1017 110.191 70.5189Z" fill="#B8E9FF"/>
<path d="M94.8083 61.2027C94.8303 60.1955 94.6504 58.7891 95.2786 57.9654C97.4413 57.3065 101.197 59.0467 103.095 60.0783C103.519 60.3094 103.764 60.4597 103.998 60.8976C103.889 61.8197 103.484 62.6401 102.964 63.4052C101.985 63.6827 100.376 62.8015 99.3777 62.4587C97.8818 61.9457 96.3351 61.6118 94.8094 61.2038L94.8083 61.2027Z" fill="#B8E9FF"/>
<path d="M69.8482 67.809L69.9399 67.5901C71.3552 65.1975 75.1474 61.3886 77.8666 60.4775L77.9063 60.7871L79.5082 62.858L79.4928 62.9044C77.4835 64.2655 75.7767 65.9925 74.1859 67.8179C73.7465 68.3221 72.967 69.0584 72.786 69.6897L72.7573 69.8744C71.9105 69.002 70.8805 68.4304 69.8482 67.8079V67.809Z" fill="#1B4090"/>
<path d="M77.9024 60.7862C81.348 59.6828 84.0484 57.7811 87.8638 57.8828C88.5924 58.387 88.7128 58.9719 88.9744 59.7912L88.9016 60.8957C87.6883 61.7669 85.8843 61.9405 84.4469 62.3231C83.1851 62.6592 81.9475 63.1921 80.722 63.6476L79.4889 62.9024L79.5043 62.856L77.9024 60.7851V60.7862Z" fill="#B8E9FF"/>
<path d="M69.847 67.8076C70.8793 68.4301 71.9082 69.0028 72.7561 69.8741L72.681 70.2621C72.3785 71.6796 71.3441 73.0672 70.8285 74.4503C70.2058 76.1187 69.8835 77.8667 69.3028 79.5429C68.9296 79.6745 68.6956 79.6922 68.3014 79.6601L68.1756 83.1705C68.5973 83.5774 68.5774 83.5741 69.1592 83.615C69.3469 83.6282 69.6064 83.5066 69.7223 83.6548C69.9618 83.961 70.1617 86.0109 70.3063 86.5449C70.9455 88.9055 71.9998 91.1842 72.9592 93.4297C72.8002 93.998 72.6633 94.5531 72.3895 95.0794C71.9733 95.4475 71.4522 96.0269 70.8881 96.1264C70.5326 96.1883 70.388 96.0722 70.112 95.8599C67.2902 93.6896 65.5867 87.5179 65.2676 84.1048C64.7267 78.3079 66.0581 72.3109 69.8481 67.8076H69.847Z" fill="#B8E9FF"/>
<path d="M109.337 96.9922C110.127 97.8181 111.345 98.8275 111.407 100.044C111.438 100.658 110.426 101.592 109.999 101.986C104.468 107.073 97.4412 109.518 89.9781 109.155C84.5719 108.892 77.589 106.391 73.8553 102.34C73.2868 101.723 73.0384 101.438 73.0693 100.599L75.89 98.7811L76.1759 99.083C80.2939 103.193 86.4994 105.05 92.1961 104.958C98.9526 104.85 104.682 101.787 109.337 96.9933V96.9922Z" fill="#6FBBF5"/>
<path d="M88.9779 59.7916C90.4385 59.1935 92.62 59.4677 94.2009 59.4699C94.8743 60.047 94.5498 60.4395 94.8092 61.2024C96.3349 61.6104 97.8827 61.9443 99.3776 62.4573C100.376 62.8001 101.985 63.6813 102.963 63.4038C105.617 64.1633 108.645 68.3736 110.19 70.5186C111.555 73.1014 112.564 75.7538 113.169 78.6174L113.211 83.3241C112.874 86.0661 112.288 88.3846 111.407 91.0006L113.374 91.8287C112.828 92.4976 109.367 96.4061 109.339 96.9932C104.684 101.787 98.9547 104.85 92.1982 104.958C86.5016 105.05 80.296 103.192 76.1781 99.0828L75.8922 98.781L72.3892 95.0804C72.6641 94.5552 72.801 93.9991 72.9588 93.4308C71.9995 91.1852 70.9462 88.9065 70.3059 86.5459C70.1613 86.0119 69.9615 83.9621 69.7219 83.6558C69.606 83.5076 69.3465 83.6293 69.1589 83.616C68.5782 83.5751 68.598 83.5784 68.1752 83.1715L68.3011 79.6611C68.6952 79.6932 68.9292 79.6755 69.3024 79.5439C69.8842 77.8678 70.2066 76.1198 70.8281 74.4513C71.3437 73.0682 72.3781 71.6806 72.6806 70.2632L72.7557 69.8751L72.7844 69.6904C72.9655 69.0591 73.746 68.3228 74.1843 67.8186C75.774 65.9932 77.4808 64.2673 79.4912 62.9051L80.7244 63.6503C81.9498 63.1948 83.1874 62.6619 84.4493 62.3258C85.8878 61.9432 87.6906 61.7685 88.9039 60.8984L88.9768 59.7939L88.9779 59.7916Z" fill="#030F4A"/>
<path d="M87.0863 63.7886L88.0015 63.51C90.0483 62.9163 92.7487 62.8046 94.8165 63.3629C97.6229 64.3204 100.191 65.2857 102.578 67.1122L103.501 66.5671C104.789 67.3134 106.959 69.664 107.394 71.0648C108.474 73.1799 109.227 75.6322 110.396 77.65C111.275 79.4777 111.362 82.1036 111.262 84.1136C110.924 84.3502 110.632 84.5437 110.245 84.6874C109.845 87.906 108.713 90.68 106.676 93.2042L106.438 93.5027L107.435 94.7189C106.326 96.4238 104.444 98.0933 102.827 99.3106C102.033 99.2852 101.684 98.7103 101.13 98.1752L95.1002 100.717L94.9203 101.922L94.4897 102.276C93.0247 102.456 88.7611 102.653 87.6825 101.88L87.4605 100.344C85.2084 100.001 83.4895 99.0895 81.5188 98.0137C81.0993 98.4814 80.7758 98.8728 80.1852 99.1315C79.1949 98.4438 77.1702 97.2785 76.627 96.1795C76.372 95.6631 76.6811 95.1247 76.8379 94.6128C76.3709 93.7526 75.6533 93.066 75.1278 92.2445C73.718 90.0399 72.816 87.3907 72.041 84.9086C71.6281 82.4043 71.6281 79.534 72.3092 77.084C72.9805 74.97 73.8504 72.6802 75.4534 71.0958C75.2161 70.6447 75.1896 70.5795 75.2249 70.0731C76.0805 69.0603 77.646 66.6168 78.8394 66.2796L80.4479 67.2382C82.4186 65.4172 84.6718 64.8169 87.0896 63.7853L87.0863 63.7886Z" fill="#ECEFF2"/>
<path d="M76.8366 94.6144L79.3648 91.8447C80.715 93.1162 82.0376 94.4187 83.5534 95.4944L81.5176 98.0153C81.0981 98.483 80.7746 98.8744 80.184 99.1331C79.1937 98.4454 77.1689 97.2801 76.6258 96.181C76.3708 95.6647 76.6799 95.1263 76.8366 94.6144Z" fill="#30FBF2"/>
<path d="M102.576 67.1144L103.499 66.5693C104.788 67.3156 106.958 69.6662 107.393 71.0671L103.979 74.614L99.8615 70.051C100.76 69.1587 101.711 68.2875 102.467 67.2659L102.576 67.1133V67.1144Z" fill="#30FBF2"/>
<path d="M101.13 98.1776L99.6561 95.8933C101.406 94.5688 102.85 92.9988 104.347 91.4033C105.1 92.0302 105.761 92.7964 106.439 93.504L107.436 94.7202C106.326 96.4251 104.445 98.0947 102.828 99.312C102.034 99.2865 101.685 98.7116 101.131 98.1765L101.13 98.1776Z" fill="#30FBF2"/>
<path d="M75.4517 71.0984C75.2143 70.6473 75.1878 70.5821 75.2231 70.0757C76.0787 69.0629 77.6442 66.6194 78.8376 66.2822L80.4462 67.2408C81.2201 68.0148 82.1066 68.7732 82.6917 69.7042L78.5848 74.0173C77.4599 73.0963 76.4055 72.1996 75.4528 71.0984H75.4517Z" fill="#30FBF2"/>
<path d="M87.4601 100.347L87.7869 98.0201C89.3347 97.4429 93.085 97.6585 94.7874 97.841L94.9199 101.925L94.4893 102.279C93.0243 102.459 88.7607 102.656 87.682 101.883L87.4601 100.347Z" fill="#30FBF2"/>
<path d="M87.0892 63.7886L88.0044 63.51C90.0513 62.9163 92.7516 62.8046 94.8194 63.3629L95.1749 67.6794L87.8179 67.8795C87.7572 66.4996 87.7296 65.3874 87.204 64.1015L87.0892 63.7897V63.7886Z" fill="#30FBF2"/>
<path d="M72.3083 77.0861L76.8513 77.1137L76.3479 84.7393L72.039 84.9096C71.6261 82.4053 71.6261 79.5351 72.3072 77.085L72.3083 77.0861Z" fill="#30FBF2"/>
<path d="M110.396 77.6523C111.275 79.48 111.362 82.1059 111.261 84.1159C110.924 84.3525 110.632 84.546 110.245 84.6897C108.866 84.9529 107.37 84.8777 105.967 84.8954L105.943 77.6822L110.397 77.6523H110.396Z" fill="#30FBF2"/>
<path d="M89.2654 73.9089C91.299 73.6325 93.0765 73.7165 94.9886 74.5115C97.0553 75.3717 98.7985 77.0998 99.6353 79.1839C100.4 81.0901 100.523 83.4838 99.6971 85.3811C98.4684 88.206 96.5242 89.7008 93.7278 90.802C91.9062 90.9911 90.0106 91.0353 88.295 90.3144C86.0407 89.3669 84.0711 87.3104 83.1868 85.0372C82.3975 83.0095 82.6713 80.6622 83.5456 78.7151C84.6916 76.1633 86.7848 74.8985 89.2654 73.9089Z" fill="#030F4A"/>
<path d="M467.407 194.871C467.128 191.147 467.412 187.164 467.403 183.414C467.399 182.238 467.634 180.389 467.172 179.321L465.478 179.134C464.923 178.37 465.174 176.065 465.166 175.032L465.074 162.972C457.774 162.808 450.535 159.519 445.036 154.843C438.105 148.951 434.558 140.659 433.838 131.727C433.155 123.245 435.985 114.303 441.534 107.867C447.183 101.314 455.809 96.6434 464.475 96.0033C473.752 95.3167 482.649 97.9326 489.726 104.11C496.836 110.311 500.632 118.761 501.227 128.099C501.765 136.61 497.968 145.656 492.415 151.94C486.891 158.187 478.537 162.516 470.222 162.992C470.241 165.431 470.783 177.818 470.059 179.1L468.579 179.316C468.175 180.451 468.393 182.164 468.405 183.385L468.208 183.365L468.143 179.557L467.771 179.29C467.411 180.977 467.605 183.009 467.601 184.748L467.596 194.892L467.406 194.872L467.407 194.871Z" fill="url(#paint6_linear_51_18608)"/>
<path d="M464.075 110.649C468.636 110.093 473.177 111.003 477.068 113.458C481.525 116.272 484.686 121.06 485.815 126.178C486.894 131.075 485.475 136.355 482.785 140.497C479.947 144.871 475.122 147.563 470.119 148.599C465.574 149.154 461.097 148.529 457.178 146.005C452.891 143.244 449.531 138.66 448.467 133.632C447.376 128.498 448.552 123.104 451.444 118.774C454.449 114.271 458.824 111.659 464.074 110.648L464.075 110.649Z" fill="white"/>
<path d="M477.377 121.508L477.72 121.503C478.326 122.056 478.788 122.275 478.914 123.128L464.1 138.128L457.775 131.82L455.956 130.021L457.658 128.378L463.894 134.577L477.376 121.508H477.377Z" fill="#030F4A"/>
<path d="M397.542 320.657L398.213 322.699L411.587 321.258L422.255 320.185C424.382 319.947 426.513 319.815 428.555 319.111C430.973 318.279 433.04 316.877 434.71 314.929C436.809 312.473 438.124 309.271 439.951 306.596C446.324 297.265 455.949 291.79 467.138 290.739C476.281 289.878 485.534 293.251 492.525 299.068C498.879 304.352 503.137 312.14 504.329 320.289C505.021 324.396 504.721 328.569 503.901 332.631C503.068 335.623 502.17 338.522 500.743 341.298C497.584 347.44 492.497 352.18 486.532 355.529C478.962 359.777 468.791 361.087 460.403 358.647C451.535 356.069 443.184 348.928 438.764 340.874L438.19 339.713C436.337 336.012 434.866 333.215 431.731 330.43C430.248 329.586 428.731 328.729 427.065 328.298C422.378 327.083 416.935 326.881 412.107 326.372L398.093 324.925L397.592 325.417L396.652 325.61L395.567 324.76C395.705 323.851 395.656 322.939 395.639 322.023C396.528 321.654 397.046 321.527 397.539 320.66L397.542 320.657Z" fill="url(#paint7_linear_51_18608)"/>
<path d="M443.815 326.944C444.073 326.473 444.094 321.148 444.26 320.17C444.782 317.09 445.906 314.157 447.482 311.466C450.989 305.478 456.82 301.211 463.537 299.555C470.299 297.888 477.727 299.063 483.672 302.66C488.993 305.878 492.722 310.793 494.724 316.658C495.261 318.228 495.476 319.868 495.876 321.472C495.986 325.273 495.986 328.763 494.97 332.472C492.252 339.92 488.407 345.383 481.075 348.839C475.042 351.683 467.229 351.876 460.972 349.61C454.198 347.155 448.93 342.066 445.917 335.558L445.832 335.367C444.764 332.555 444.251 329.899 443.814 326.945L443.815 326.944Z" fill="#F4F4F5"/>
<path d="M447.737 331.042C446.907 327.696 446.625 323.947 447.275 320.54C448.42 314.508 451.986 309.206 457.029 305.747C462.44 302.038 468.643 301.236 474.988 302.49C480.831 303.644 486.205 307.752 489.432 312.689C492.914 318.019 493.581 324.435 492.267 330.575C490.811 336.424 487.241 341.845 482.02 344.992C476.933 348.06 470.232 349.139 464.465 347.613C458.642 346.075 453.287 342.566 450.23 337.283C449.139 335.398 448.22 333.166 447.735 331.041L447.737 331.042Z" fill="url(#paint8_linear_51_18608)"/>
<path d="M460.443 329.417C459.4 327.035 458.858 324.661 459.469 322.052C460.135 319.21 462.126 316.632 464.616 315.153C467.095 313.68 470.31 313.249 473.093 314.063C475.644 314.81 478.1 316.602 479.401 318.944C481.059 321.927 481.031 324.65 480.129 327.849C478.721 330.787 477.011 333.202 473.828 334.354L472.433 334.783C469.942 335.461 466.755 334.845 464.576 333.522C462.89 332.499 461.555 331.029 460.442 329.415L460.443 329.417Z" fill="#020D40"/>
<path d="M465.795 322.79C465.759 321.426 465.302 320.761 466.301 319.678C467.098 318.817 468.723 318.311 469.864 318.318C471.413 318.33 473.074 318.929 474.134 320.095C475.391 321.481 474.955 324.109 474.829 325.843C473.847 327.168 472.751 328.581 471.004 328.825C469.572 329.025 468.056 328.731 466.952 327.764C466.459 327.334 466.128 326.843 465.792 326.29L465.659 326.076C465.242 325.361 465.327 324.207 465.517 323.415L465.566 323.247C465.704 324.281 465.8 325.35 466.383 326.241C467.03 327.23 468.065 328.037 469.254 328.204C470.568 328.389 471.681 328.168 472.741 327.359C473.788 326.557 474.52 325.335 474.621 324.005C474.726 322.598 473.974 321.641 473.12 320.643C471.212 321.704 469.21 322.158 467.043 321.756L466.594 321.367L465.797 322.789L465.795 322.79Z" fill="#030F4A"/>
<path d="M466.592 321.368C467.405 320.486 468.234 319.885 469.423 319.627C470.834 319.319 471.967 319.94 473.119 320.645C471.211 321.706 469.209 322.161 467.042 321.758L466.592 321.369V321.368Z" fill="#FEB862"/>
<path d="M473.118 320.644C473.972 321.643 474.723 322.599 474.619 324.006C474.517 325.335 473.785 326.558 472.738 327.36C471.679 328.169 470.567 328.39 469.252 328.205C468.063 328.037 467.027 327.231 466.38 326.243C465.799 325.35 465.702 324.282 465.564 323.248L465.794 322.79L466.591 321.368L467.041 321.757C469.208 322.159 471.21 321.705 473.118 320.644Z" fill="#EE9F5D"/>
<path d="M235.807 301.747L262.818 301.432L302.09 301.444L327.366 301.461C332.029 301.47 336.956 301.191 341.586 301.714C336.671 303.354 333.011 305.911 330.662 310.698C328.076 315.969 328.831 322.441 328.841 328.167C328.848 332.171 328.732 336.241 329.061 340.233L329.021 340.488C328.702 342.776 328.863 345.222 328.861 347.54L328.845 360.15C328.834 362.659 328.947 365.284 328.559 367.766C327.844 372.339 325.189 376.874 321.521 379.692C319.588 381.175 317.486 381.887 315.262 382.776C310.506 383.76 305.039 383.277 300.17 383.258L273.625 383.276L260.39 383.284C260.72 379.672 260.499 375.817 260.497 372.184L260.464 351.038L260.476 333.083C260.476 329.89 260.716 326.452 260.3 323.296C259.877 320.094 258.559 316.697 256.882 313.951C254.082 309.367 248.736 305.439 243.707 303.67C241.115 302.758 238.468 302.369 235.807 301.745V301.747Z" fill="#B8E9FF"/>
<path d="M273.622 383.277L273.557 345.6L273.566 335.505C273.569 333.668 273.401 331.641 273.763 329.844C274.248 327.437 275.602 325.003 277.327 323.276C280.054 320.548 283.244 319.215 287.11 319.262C290.791 319.306 294.021 320.846 296.571 323.479C298.322 325.288 299.456 327.576 299.904 330.056C300.344 332.488 300.224 334.964 300.227 337.423V347.769L300.168 383.259L273.622 383.276V383.277Z" fill="#ECEFF2"/>
<path d="M467.6 194.891L467.604 184.747C467.609 183.01 467.415 180.976 467.774 179.289L468.146 179.556L468.212 183.364L468.409 183.384L468.417 193.313C468.421 195.02 468.283 196.87 468.498 198.557L483.686 198.623C486.619 198.639 490.153 198.43 492.992 199.142L502.621 199.124C504.506 199.125 506.952 199.035 508.8 199.413C509.367 199.528 510.632 200.534 511.064 200.945C514.442 204.185 513.737 208.668 513.742 212.917L513.749 231.953C513.749 234.514 514.093 237.649 513.737 240.149L513.73 256.392C513.725 258.471 513.98 260.975 513.544 263.002C513.204 264.575 512.542 265.988 511.45 267.186C509.896 268.891 507.826 269.816 505.509 269.871L456.614 269.86L440.224 269.886C437.737 269.891 434.874 270.184 432.435 269.81C430.976 269.587 429.548 268.719 428.496 267.696C427.315 266.541 426.466 265.046 426.13 263.422C425.617 260.915 425.933 257.829 425.921 255.267L425.88 238.161L425.892 214.184C425.896 210.895 425.464 206.902 426.045 203.684C426.267 202.463 426.834 201.296 427.707 200.402C428.661 199.423 430.077 198.734 431.415 198.511C434.679 197.967 438.581 198.343 441.913 198.341L467.419 198.549L467.411 194.875L467.601 194.895L467.6 194.891Z" fill="#D5DBE2"/>
<path d="M435.615 253.261C437.139 252.996 438.934 253.166 440.483 253.163L449.332 253.145L456.396 253.142C456.967 253.142 458.366 253.024 458.875 253.251C459.057 253.332 459.405 253.777 459.563 253.937L459.466 255.152L458.79 255.691C454.293 256.031 449.562 255.739 445.044 255.74C442.128 255.74 438.077 256.255 435.295 255.5C434.752 254.735 434.76 254.736 434.87 253.802L435.614 253.262L435.615 253.261Z" fill="#F4F4F5"/>
<path d="M435.403 258.661C437.198 258.175 439.993 258.517 441.893 258.508L458.336 258.517C459.039 258.931 459.112 259.061 459.501 259.741C459.303 260.555 459.295 260.557 458.607 261.038C455.068 261.531 450.939 261.164 447.328 261.183C443.628 261.203 439.503 261.589 435.848 261.186C435.096 261.103 435.096 260.962 434.671 260.419C434.736 259.474 434.797 259.397 435.403 258.661Z" fill="#F4F4F5"/>
<path d="M463.816 256.907L494.482 256.879L494.498 260.198L463.805 260.244L463.817 256.907H463.816Z" fill="#3856B0"/>
<path d="M467.407 194.87L467.597 194.89L467.614 242.45L442.557 242.49C439.217 242.49 435.003 242.959 431.763 242.33C430.227 242.031 428.67 241.204 427.549 240.112L425.876 238.157L425.888 214.18C425.892 210.891 425.46 206.898 426.041 203.68C426.263 202.459 426.83 201.292 427.703 200.398C428.657 199.419 430.073 198.73 431.411 198.507C434.675 197.963 438.577 198.339 441.909 198.337L467.415 198.545L467.407 194.871V194.87Z" fill="url(#paint9_linear_51_18608)"/>
<path d="M447.196 222.67C448.244 222.695 450.496 222.452 451.175 223.159L451.09 224.143C450.762 224.338 450.536 224.474 450.161 224.568C447.488 224.38 436.561 225.109 435.057 224.239L435.004 223.294L435.429 222.868L447.196 222.67Z" fill="#F4F4F5"/>
<path d="M451.918 227.292C451.967 228.117 451.882 228.13 451.425 228.77C450.126 229.127 448.711 229.003 447.369 229.006H440.514C438.831 228.999 436.708 229.245 435.12 228.731L434.82 228.02L435.136 227.344C436.284 226.83 438.412 227.099 439.706 227.097L450.996 227.104L451.918 227.292Z" fill="#F4F4F5"/>
<path d="M436.297 218.013C438.097 217.1 441.858 217.598 443.911 217.611C444.381 217.615 445.237 217.736 445.67 217.624C446.131 217.505 446.689 217.211 447.15 217.087C447.793 216.914 448.222 217.358 448.768 216.817L458.558 216.825C459.185 216.825 459.84 217.097 460.35 217.009C460.875 216.917 461.284 217.011 461.797 217.119C462.775 217.327 463.314 217.278 464.175 217.894C464.547 218.826 464.406 219.849 464.382 220.839L464.111 227.001L456.14 227.157C454.781 227.178 453.241 227.057 451.919 227.292L450.997 227.104C450.443 226.682 448.765 226.879 448.008 226.875C446.265 226.869 435.65 227.145 434.95 226.534L434.885 225.079C436.276 224.181 447.255 225.133 449.973 224.608L450.16 224.568C450.536 224.474 450.763 224.339 451.09 224.142L451.175 223.158C450.496 222.452 448.242 222.695 447.196 222.67L435.694 222.486C436.212 222.226 436.479 222.309 437.044 222.348C437.061 221.723 437.012 221.15 436.927 220.531C436.195 220.506 435.536 220.495 434.836 220.267L435.277 219.922C435.046 219.225 434.978 218.935 435.277 218.26L436.296 218.011L436.297 218.013Z" fill="url(#paint10_linear_51_18608)"/>
<path d="M436.299 218.014L442.882 218.047C443.267 218.049 444.415 217.928 444.726 218.056C444.972 218.158 445.13 218.399 445.332 218.569L445.381 219.244C444.775 219.938 444.657 219.867 443.795 219.923H435.279C435.048 219.228 434.98 218.937 435.279 218.262L436.298 218.013L436.299 218.014Z" fill="#F4F4F5"/>
<path d="M468.211 183.364L468.408 183.384L468.416 193.313C468.421 195.02 468.283 196.87 468.497 198.557L483.686 198.623C486.618 198.639 490.152 198.43 492.991 199.142L502.62 199.124C504.505 199.125 506.951 199.035 508.799 199.413C509.366 199.528 510.631 200.534 511.064 200.945C514.441 204.185 513.736 208.668 513.741 212.917L513.749 231.953C513.749 234.513 514.092 237.649 513.736 240.149C512.285 241.051 510.845 241.923 509.143 242.245C507.752 242.508 506.166 242.412 504.755 242.429L496.449 242.446L468.424 242.368L468.21 183.365L468.211 183.364Z" fill="url(#paint11_linear_51_18608)"/>
<path d="M484.892 225.335C484.742 224.521 484.617 223.868 485.203 223.189C485.782 222.517 486.23 222.476 487.043 222.406C487.905 222.803 488.245 223.144 488.714 223.963L488.908 224.773C488.326 225.566 488.091 225.974 487.181 226.4C486.082 226.266 485.71 226.125 484.893 225.335H484.892Z" fill="#30FBF2"/>
<path d="M500.437 227.043L501.731 227.226C501.965 228.487 501.076 229.958 500.381 231.002C500.057 231.488 499.681 231.859 499.212 232.202C498.71 232.251 498.738 232.35 498.31 232.005C497.157 231.074 496.207 229.101 495.365 227.836C495.66 227.67 496 227.457 496.331 227.38C497.189 227.18 497.669 227.609 498.362 228.033L500.436 227.042L500.437 227.043Z" fill="#30FBF2"/>
<path d="M495.552 220.839L495.136 219.514C495.727 219.143 495.851 219.136 496.544 219.299C497.276 219.47 497.842 220.115 498.501 220.475L498.788 220.251C499.516 219.691 500.045 219.252 501.004 219.226L501.538 219.649C501.534 221.604 499.945 223.219 498.917 224.757L498.509 224.689C497.55 224.376 496.126 221.713 495.552 220.839Z" fill="#30FBF2"/>
<path d="M494.839 228.318L494.807 228.921C494.063 229.519 483.257 229.255 481.467 229.264C480.961 229.89 480.56 230.518 479.769 230.776C478.956 230.67 478.382 230.642 477.852 229.909C477.375 229.246 477.427 228.763 477.589 228.02C478.18 227.249 478.56 226.993 479.498 226.745C480.509 226.971 480.857 227.443 481.597 228.135L481.799 228.477L494.841 228.318H494.839Z" fill="#30FBF2"/>
<path d="M468.497 198.557L483.686 198.623C486.618 198.638 490.152 198.429 492.991 199.142C491.054 199.645 488.745 199.579 486.751 199.604L477.341 199.687C474.53 199.728 471.347 200.13 468.582 199.76L468.497 198.558V198.557Z" fill="#1B4090"/>
<path d="M495.549 220.84C496.123 221.716 497.546 224.377 498.506 224.69L498.914 224.758L499.274 224.851C499.019 225.705 499.452 226.047 499.035 226.807C499.565 226.864 499.893 226.956 500.37 226.675L500.439 227.045L498.364 228.035C497.673 227.612 497.192 227.183 496.334 227.383C496.003 227.459 495.663 227.673 495.368 227.839L494.838 228.32L481.796 228.478L481.594 228.136L481.57 227.628L481.922 227.885C482.626 228.014 483.722 227.993 484.417 227.816C484.785 227.722 485.101 226.851 485.291 226.504L484.469 225.526L484.89 225.338C485.707 226.126 486.079 226.269 487.178 226.402C488.088 225.978 488.323 225.569 488.905 224.776L488.711 223.965L494.834 223.977C493.754 223.239 490.948 223.576 489.601 223.569C489.92 223.347 490.106 223.351 490.478 223.356C491.914 223.38 493.705 223.497 495.113 223.32C495.198 222.954 495.351 222.829 495.606 222.56L495.804 222.351C495.687 222.034 495.598 221.733 495.383 221.466L495.262 221.34L495.549 220.842V220.84Z" fill="#122A73"/>
<path d="M488.711 223.962L494.834 223.973L494.987 224.556C493.815 225.222 490.357 224.784 488.905 224.771L488.711 223.961V223.962Z" fill="#B8E9FF"/>
<path d="M211.582 101.125L219.37 101.152L221.203 101.169C222.072 101.157 223.853 101.366 224.611 101.09L241.36 101.174L244.601 101.224H268.394L272.838 101.207L354.579 101.226L377.442 101.291C380.881 101.305 384.728 100.934 388.106 101.451C391.811 102.019 395.357 103.678 398.037 106.325C401.055 109.304 402.724 112.882 403.484 117.028C403.992 119.793 403.754 122.879 403.757 125.689L403.765 140.496L403.749 194.375C409.395 191.741 414.312 186.652 416.508 180.787C417.055 179.327 417.544 177.48 417.527 175.924C417.931 173.991 417.758 171.859 417.753 169.889L417.725 160.288L417.778 124.648L418.276 124.37L418.296 159.787L418.267 170.897C418.255 173.677 418.347 176.444 417.664 179.164C416.726 182.901 414.364 186.546 411.691 189.278C410.018 190.99 408.157 192.625 406.042 193.768C405.476 194.073 404.147 194.392 403.734 194.76C403.686 194.802 403.734 194.888 403.734 194.952V199.166L403.775 255.755L403.791 271.738C403.796 277.808 404.598 284.945 402.05 290.607C398.775 297.887 392.071 301.488 384.378 301.514L341.583 301.713C336.953 301.189 332.027 301.469 327.363 301.46L302.087 301.443L262.815 301.431L235.804 301.746L226.321 301.728C220.051 301.331 213.563 301.672 207.275 301.677L169.644 301.731L157.548 301.758C155.318 301.763 152.89 301.951 150.695 301.583C147.852 301.108 145.116 299.622 143.078 297.598C138.444 292.995 138.516 288.193 138.503 282.102L138.533 167.778L138.526 133.852V123.843C138.526 121.769 138.415 119.596 138.699 117.538C139.262 113.455 141.08 109.707 144.012 106.803C146.534 104.306 149.799 102.558 153.248 101.74C156.813 100.895 160.935 101.242 164.587 101.23L182.742 101.197L187.999 101.182L205.318 101.142L209.297 101.125L211.582 101.122V101.125Z" fill="#F4F4F5"/>
<path d="M140.112 240.747C140.573 238.527 140.253 235.695 140.253 233.413L140.243 217.443L156.668 204.901C157.496 208.989 159.25 213.211 160.968 217.01C164.542 224.913 168.556 231.587 174.359 238.037L180.944 244.817L181.157 244.919C182.796 245.732 184.248 246.906 185.784 247.896C187.493 248.999 189.289 249.966 191.101 250.886C202.25 256.548 215.878 258.891 228.317 257.165C225.892 258.793 222.686 259.321 220.143 260.798L215.301 262.729C213.519 263.832 211.563 264.658 209.712 265.642L201.009 270.667C199.392 271.652 197.432 272.642 196.198 274.09C194.26 273.864 192.499 273.799 190.854 275.075C189.48 276.141 188.65 277.593 188.461 279.322C188.357 280.265 188.485 281.11 188.679 282.026C186.112 283.138 183.497 286.207 181.592 288.245L171.075 300.037L209.893 300.05L220.368 300.037C222.36 300.032 224.562 299.844 226.526 300.151C224.137 300.525 221.29 300.316 218.851 300.325L203.66 300.339L153.501 300.349C149.65 300.329 146.311 298.639 143.664 295.882C142.011 294.162 140.673 291.835 140.232 289.471C139.861 287.491 139.972 285.354 139.966 283.343L139.977 273.585L140.112 240.751V240.747Z" fill="url(#paint12_linear_51_18608)"/>
<path d="M161.603 273.678C162.614 273.642 163.678 273.757 164.621 274.142C166.119 274.753 167.392 276.099 167.951 277.62C168.553 279.258 168.61 280.854 167.836 282.447C166.86 284.456 165.25 285.374 163.212 286.045C162.053 286.108 160.902 286.025 159.819 285.567C158.208 284.885 157.111 283.518 156.544 281.893C155.987 280.292 156.207 278.344 156.97 276.856C157.904 275.037 159.755 274.217 161.604 273.679L161.603 273.678Z" fill="#F4F4F5"/>
<path d="M177.392 273.681C178.408 273.631 179.559 273.51 180.537 273.828C182.212 274.372 183.551 275.588 184.303 277.174C185 278.644 185.204 280.591 184.58 282.127C183.707 284.275 182.103 285.208 180.067 285.974C178.916 286.069 177.699 286.09 176.597 285.684C175.02 285.104 173.773 283.95 173.078 282.418C172.445 281.029 172.225 279.234 172.797 277.79C173.676 275.571 175.28 274.556 177.392 273.679V273.681Z" fill="#F4F4F5"/>
<path d="M167.328 246.67C166.507 248.643 165.505 250.254 163.567 251.294C161.569 252.368 158.909 252.744 156.731 252.021C154.699 251.345 152.704 249.71 151.742 247.784C150.765 245.828 150.719 243.563 151.422 241.503C152.147 239.378 153.763 237.459 155.822 236.524C157.711 235.665 160.326 235.4 162.284 236.221C165.068 237.389 166.398 239.252 167.493 241.981C167.635 243.619 167.59 245.049 167.328 246.672V246.67Z" fill="#B8E9FF"/>
<path d="M157.897 240.303C158.567 240.146 159.449 240.074 160.137 240.174C161.094 240.315 162.064 240.889 162.642 241.66C163.355 242.61 163.554 243.905 163.315 245.06C163.038 246.399 161.93 247.214 160.829 247.854C160.021 247.943 159.212 248.038 158.409 247.853C157.284 247.594 156.348 246.851 155.797 245.837C155.328 244.974 155.32 243.431 155.661 242.517C156.086 241.38 156.844 240.817 157.898 240.303H157.897Z" fill="#030F4A"/>
<path d="M158.501 241.922C158.666 241.861 158.731 241.828 158.925 241.807C159.932 241.694 160.253 241.918 161.058 242.447C161.435 243.087 161.801 243.716 161.626 244.486C161.434 245.328 160.94 245.749 160.235 246.177C159.254 246.42 158.781 246.35 157.861 245.931C157.223 245.094 157.012 244.794 157.132 243.677C157.223 242.847 157.88 242.381 158.5 241.923L158.501 241.922Z" fill="#B8E9FF"/>
<path d="M167.492 241.981L180.943 244.817L181.157 244.918C182.796 245.731 184.248 246.905 185.783 247.896C187.492 248.998 189.289 249.966 191.1 250.885C202.25 256.547 215.877 258.89 228.316 257.164C225.892 258.792 222.686 259.32 220.142 260.797L215.301 262.728C213.015 262.446 210.461 262.694 208.143 262.712L193.78 262.718C191.728 262.684 187.976 262.93 186.269 261.797L164.082 261.811C161.618 261.808 156.8 262.389 154.689 261.358L154.934 260.606L157.746 255.222C157.874 254.961 158.322 253.814 158.504 253.677C158.74 253.5 159.714 253.427 160.049 253.384C162.022 253.132 163.618 252.872 165.103 251.418C166.445 250.105 167.343 248.57 167.327 246.67C167.588 245.047 167.634 243.617 167.491 241.979L167.492 241.981Z" fill="url(#paint13_linear_51_18608)"/>
<path d="M154.935 260.606C159.174 260.51 187.499 260.037 189.401 260.822L189.344 261.428C188.55 261.892 187.184 261.763 186.269 261.797L164.082 261.811C161.618 261.808 156.8 262.388 154.689 261.358L154.934 260.606H154.935Z" fill="#F4F4F5"/>
<path d="M140.114 240.748C140.056 240.492 140.03 240.262 140.028 239.997L140.001 155.293L139.995 130.637C139.995 126.343 139.631 121.62 140.279 117.366C140.803 113.925 142.631 110.643 145.05 108.184C147.577 105.615 150.913 103.855 154.471 103.257C158.17 102.635 162.372 102.985 166.131 102.973L188.376 102.913L273.147 102.979C272.685 105.514 271.132 108.165 270.179 110.582L265.451 122.855C264.11 126.304 262.642 129.764 261.645 133.332C253.486 125.41 241.351 120.169 230.281 118.29C226.979 117.729 223.597 117.55 220.256 117.38L217.919 117.376C217.346 118.367 217.648 120.445 217.653 121.588C217.667 125.509 217.978 129.683 217.581 133.585L217.522 124.596C203.797 125.71 190.821 129.538 180.304 138.807L176.104 134.466C175.494 135.029 174.437 135.719 174.25 136.516C162.926 146.619 154.871 164.805 154.175 179.825L154.188 180.82L154.104 183.74C154.188 189.103 154.823 193.885 155.961 199.116C155.792 201.046 156.224 203.028 156.672 204.9L140.247 217.441L140.257 233.411C140.257 235.693 140.577 238.527 140.117 240.746L140.114 240.748Z" fill="url(#paint14_linear_51_18608)"/>
<path d="M166.753 122.504C167.491 122.962 167.758 123.621 167.926 124.477C168.336 126.584 167.737 129.078 166.451 130.769C165.131 132.504 163.083 133.743 160.907 134.021C158.294 134.355 155.899 133.71 153.916 131.966C152.435 130.664 151.27 128.343 151.2 126.367C151.165 125.412 151.176 124.429 151.63 123.571L151.937 125.837C152.555 127.922 153.615 129.561 155.42 130.794C157.163 131.984 159.248 132.312 161.297 131.862C163.135 131.458 165.053 130.128 166.073 128.544C167.338 126.582 167.231 124.697 166.752 122.504H166.753Z" fill="#020D40"/>
<path d="M151.937 125.839C151.983 124.742 151.877 123.565 152.152 122.497C152.636 120.614 153.972 119.011 155.63 118.038C157.461 116.964 159.628 116.878 161.637 117.459C164.289 118.226 165.509 120.226 166.753 122.504C167.232 124.699 167.339 126.582 166.074 128.544C165.053 130.128 163.136 131.46 161.298 131.862C159.25 132.312 157.165 131.984 155.422 130.794C153.617 129.561 152.557 127.922 151.938 125.837L151.937 125.839Z" fill="#B8E9FF"/>
<path d="M158.286 121.238C158.925 121.11 159.694 121.018 160.326 121.204C161.346 121.506 162.264 122.375 162.72 123.327C163.047 124.008 163.197 124.824 162.928 125.549C162.507 126.686 161.546 127.419 160.504 127.94C159.894 128.146 159.07 128.23 158.444 128.051C157.564 127.8 156.595 127.079 156.15 126.279C155.697 125.467 155.631 124.304 155.931 123.428C156.344 122.226 157.188 121.737 158.286 121.238Z" fill="#020D40"/>
<path d="M176.1 134.468C188.14 124.223 201.714 118.581 217.491 117.328L217.519 124.597C203.794 125.71 190.817 129.539 180.301 138.807L176.1 134.467V134.468Z" fill="#B8E9FF"/>
<path d="M273.146 102.978L352.896 103.066L376.27 103.024C380.123 103.016 384.413 102.652 388.223 103.167C391.495 103.609 394.648 105.182 396.993 107.502C399.455 109.939 401.258 113.448 401.965 116.833C402.947 121.528 402.363 127.357 402.374 132.172L402.415 160.296C401.715 160.341 400.998 160.227 400.293 160.225L357.981 160.277L350.292 160.306C349.698 160.309 348.25 160.142 347.768 160.319C346.453 160.802 323.292 184.303 320.497 187.093C319.753 186.757 319.133 185.931 318.57 185.348L315.243 181.887L296.351 161.931C295.888 161.466 295.09 160.554 294.514 160.276C293.607 159.837 282.852 160.238 280.992 160.251C280.26 158.67 278.599 154.027 277.188 153.299C276.105 151.772 275.339 149.841 274.379 148.21C271.743 143.731 267.992 138.741 263.888 135.473L261.862 133.689L261.645 133.33C262.642 129.762 264.11 126.304 265.451 122.853L270.179 110.58C271.131 108.163 272.685 105.512 273.147 102.977L273.146 102.978Z" fill="url(#paint15_linear_51_18608)"/>
<path d="M323.365 148.501L331.522 148.438C332.738 148.449 333.853 148.258 334.891 148.927C335.16 149.995 335.208 150.091 334.788 151.098C333.916 151.783 332.856 151.62 331.809 151.628L324.986 151.619H314.677C313.821 151.528 313.632 151.269 313.097 150.666C312.935 149.826 312.975 149.779 313.312 149.046C314.224 148.399 315.445 148.58 316.528 148.562L323.366 148.5L323.365 148.501Z" fill="#F4F4F5"/>
<path d="M352.484 148.239L368.644 148.168C370.498 148.165 373.146 147.841 374.914 148.253C375.673 148.43 375.731 148.731 376.114 149.357C376.135 150.259 376.128 150.429 375.683 151.206C373.934 152.193 366.896 151.611 364.54 151.601L347.859 151.634C346.55 151.635 343.33 152.007 342.199 151.476C342.001 151.382 341.612 151.116 341.456 150.935C340.917 150.314 341.072 149.896 341.209 149.181C341.399 148.991 341.678 148.617 341.898 148.49C342.472 148.157 343.956 148.289 344.626 148.282L352.483 148.239H352.484Z" fill="#ECEFF2"/>
<path d="M313.616 130.148C315.019 129.764 316.771 129.975 318.224 129.98L327.201 129.984L363.73 130.024C364.444 130.527 364.494 130.65 364.819 131.469C364.664 132.471 364.671 132.665 363.999 133.403C362.186 133.761 360.032 133.536 358.17 133.536L346.165 133.543L325.058 133.577C321.331 133.581 317.435 133.81 313.731 133.474C313.127 132.962 312.969 132.667 312.772 131.904C312.939 130.964 312.958 130.83 313.614 130.149L313.616 130.148Z" fill="#B8E9FF"/>
<path d="M313.704 139.869C315.173 139.54 383.431 139.575 384.482 139.959C385.114 140.189 385.234 140.499 385.481 141.084C385.284 142.022 385.265 142.005 384.482 142.565C379.735 143.032 374.683 142.67 369.892 142.676L340.543 142.715L321.414 142.729C319.19 142.729 316.088 143.117 313.952 142.669C313.319 142.537 313.255 142.252 312.923 141.759C312.997 140.686 312.958 140.63 313.704 139.87V139.869Z" fill="#F4F4F5"/>
<path d="M313.84 120.968C315.42 120.481 317.965 120.793 319.663 120.787L333.657 120.763L364.577 120.773C369.426 120.78 374.859 120.32 379.633 120.953C380.397 121.6 380.436 121.606 380.599 122.588C380.246 123.452 380.12 123.562 379.362 124.118C377.235 124.51 374.772 124.254 372.591 124.249L358.807 124.215H315.484C314.608 124.201 313.817 124.279 313.218 123.534C312.883 123.116 312.86 122.654 312.918 122.143C312.994 121.48 313.341 121.377 313.839 120.969L313.84 120.968Z" fill="#B8E9FF"/>
<path d="M290.023 118.494C292.176 118.369 294.28 118.753 296.135 119.873C298.56 121.336 300.568 123.932 301.183 126.718C301.757 129.321 301.19 132.412 299.699 134.63C297.812 137.437 295.344 138.54 292.143 139.186C289.678 139.241 287.184 138.861 285.111 137.438C282.665 135.76 281.045 133.267 280.549 130.338C280.126 127.838 280.959 124.739 282.44 122.699C284.352 120.065 286.918 118.976 290.023 118.493V118.494Z" fill="#B8E9FF"/>
<path d="M290.797 123.895C291.423 123.955 292.072 124.015 292.666 124.238C294.009 124.743 295.242 125.889 295.722 127.257C296.154 128.485 296.143 130.052 295.477 131.191C294.524 132.823 293.124 133.409 291.412 133.92C290.42 133.869 289.383 133.833 288.484 133.362C287.289 132.735 286.407 131.671 286.104 130.344C285.758 128.816 286.065 127.357 286.946 126.072C287.919 124.649 289.203 124.217 290.797 123.895Z" fill="#122A73"/>
<path d="M217.578 133.585C217.975 129.683 217.664 125.51 217.649 121.587C217.645 120.444 217.343 118.367 217.916 117.376L220.253 117.379C223.593 117.548 226.976 117.729 230.278 118.289C241.348 120.169 253.483 125.41 261.642 133.331L261.859 133.691L263.885 135.474C267.989 138.742 271.74 143.732 274.376 148.211C275.337 149.842 276.102 151.775 277.185 153.3C278.596 154.028 280.257 158.672 280.989 160.253C282.583 165.285 284.267 169.907 285.13 175.166C285.775 179.098 285.821 183.002 285.725 186.975C285.435 199.041 282.673 210.632 277.121 221.38C275.028 225.432 272.619 229.245 269.767 232.81C268.601 234.268 267.031 235.611 266.008 237.133C265.094 238.493 263.334 240.049 262.009 241.002L256.324 245.446C253.704 247.312 250.907 248.828 248.238 250.567C246.313 251.821 243.845 252.598 241.77 253.537L241.232 253.677C238.48 254.448 235.817 255.542 233.011 256.237C232.76 256.299 232.556 256.378 232.295 256.429C232.005 256.487 231.806 256.549 231.536 256.646C231.101 256.803 230.774 256.801 230.315 256.788L230.172 256.911C229.738 257.185 228.841 257.136 228.317 257.162C215.879 258.888 202.251 256.546 191.102 250.883C189.29 249.963 187.493 248.996 185.785 247.894C184.249 246.903 182.798 245.729 181.158 244.916L180.945 244.814L174.359 238.035C168.558 231.585 164.544 224.912 160.969 217.007C159.251 213.209 157.497 208.986 156.669 204.899C156.221 203.027 155.789 201.044 155.958 199.115C154.82 193.882 154.185 189.101 154.101 183.739L154.185 180.819L154.172 179.824C154.868 164.805 162.923 146.618 174.247 136.515C174.434 135.716 175.492 135.028 176.1 134.465L180.301 138.806C190.818 129.537 203.794 125.708 217.519 124.595L217.578 133.584V133.585Z" fill="#020D40"/>
<path d="M181.065 199.204C182.752 202.766 184.628 206.114 187.156 209.161C188.263 210.494 190.424 212.023 191.157 213.479L174.487 230.569C170.132 226.268 165.159 221.015 162.49 215.451L171.298 208.033C174.628 205.251 178.15 202.422 181.066 199.203L181.065 199.204Z" fill="#ECEFF2"/>
<path d="M180.299 138.807C190.815 129.539 203.792 125.71 217.517 124.597L217.575 133.586L217.562 141.28C207.601 141.574 200.015 145.059 192.003 150.874L180.297 138.809L180.299 138.807Z" fill="#ECEFF2"/>
<path d="M154.101 183.741L177.589 183.761C178.064 189.304 178.995 194.025 181.067 199.206C178.153 202.424 174.629 205.254 171.299 208.035L162.491 215.453C159.537 210.185 157.647 204.898 155.958 199.12C154.82 193.887 154.185 189.106 154.101 183.743V183.741Z" fill="#B8E9FF"/>
<path d="M193.041 215.042C200.222 220.765 207.778 223.801 217.013 224.276L216.917 248.83C211.898 248.492 207.106 247.793 202.208 246.636C196.68 244.638 191.425 242.769 186.323 239.739C182.607 237.532 179.317 234.792 176.1 231.923L193.041 215.042Z" fill="#D5DBE2"/>
<path d="M220.253 117.379C223.594 117.548 226.977 117.728 230.279 118.289C241.349 120.168 253.484 125.409 261.642 133.331L261.86 133.69C260.186 135.926 257.968 137.798 256.01 139.79L245.113 150.832C243.487 150.038 241.918 148.284 240.324 147.28C234.216 143.434 227.427 141.646 220.278 141.309L220.253 117.38V117.379Z" fill="#B8E9FF"/>
<path d="M245.218 214.447L261.798 231.167C261.262 232.123 259.741 233.149 258.887 233.878C251.689 240.025 243.515 243.949 234.533 246.756C229.597 247.979 224.764 248.584 219.691 248.853L219.724 224.537C229.371 223.722 237.703 220.552 245.217 214.447H245.218Z" fill="#ECEFF2"/>
<path d="M154.184 180.822L154.171 179.827C154.867 164.808 162.922 146.621 174.246 136.518L190.215 152.871C184.401 158.587 180.682 164.435 178.601 172.425C177.938 174.974 177.631 177.539 177.416 180.157C177.397 180.385 177.547 180.71 177.36 180.841C177.268 180.906 155.71 180.821 154.184 180.821V180.822Z" fill="#B8E9FF"/>
<path d="M260.045 183.703H283.26C282.867 187.814 282.513 191.84 281.649 195.89C279.282 206.987 273.992 216.806 266.948 225.584L263.379 229.48L247.102 212.748C249.506 210.238 251.832 207.716 253.685 204.754C257.579 198.525 259.457 190.95 260.045 183.702V183.703Z" fill="#ECEFF2"/>
<path d="M263.885 135.474C267.988 138.742 271.739 143.732 274.376 148.211C275.336 149.842 276.101 151.774 277.184 153.3C281.201 162.366 282.881 171.202 283.291 181.083L259.887 181.166C259.687 173.435 257.128 165.5 252.641 159.214C250.965 156.867 248.924 154.794 246.93 152.721L263.882 135.472L263.885 135.474Z" fill="#ECEFF2"/>
<path d="M214.977 144.156C224.284 143.417 233.59 145.813 241.198 151.312C249.614 157.395 255.17 166.749 256.766 176.986C258.322 186.971 255.655 197.246 249.71 205.372C243.16 214.326 234.051 219.583 223.128 221.268L222.448 221.378C213.025 222.529 203.173 219.319 195.674 213.591C187.698 207.498 182.012 197.834 180.731 187.874C179.417 177.655 181.531 167.461 187.961 159.265C194.754 150.606 204.078 145.439 214.977 144.156Z" fill="#F4F4F5"/>
<path d="M186.553 171.872H186.747C187.658 171.844 188.586 171.744 189.468 172.029C190.927 172.501 192.007 173.491 192.627 174.893C193.086 175.933 193.279 177.99 192.814 179.048C192.063 180.761 190.595 181.437 188.959 182.03C188.109 182 187.224 181.992 186.409 181.726C185.039 181.278 183.896 180.458 183.238 179.151C182.563 177.807 182.374 176.308 182.953 174.895C183.619 173.273 185.043 172.524 186.553 171.872Z" fill="#B8E9FF"/>
<path d="M193.951 181.131C194.693 174.098 197.865 167.62 203.431 163.143C208.501 159.067 214.991 157.316 221.436 158.05C228.046 158.801 233.911 162.35 238.034 167.544C242.164 172.746 243.906 179.65 243.103 186.209C242.874 188.082 242.388 190.152 241.674 191.899C241.036 191.755 240.447 191.583 239.834 191.353C239.769 190.889 239.738 191.061 239.872 190.65L240.148 189.812C241.754 184.383 240.418 176.593 237.633 171.736C234.779 166.76 229.692 162.931 224.186 161.424C218.931 159.987 212.452 160.695 207.714 163.447C203.904 165.66 200.828 168.981 198.776 172.871C197.918 174.496 197.358 176.224 196.604 177.89C196.046 179.12 195.157 179.741 194.799 181.195L194.74 181.447L194.535 181.176L194.273 181.686L193.951 181.132V181.131Z" fill="#030F4A"/>
<path d="M193.949 181.129L194.272 181.683L194.533 181.173L194.739 181.444L194.797 181.192C195.154 179.738 196.045 179.118 196.602 177.888C197.357 176.221 197.916 174.494 198.774 172.868C200.827 168.977 203.902 165.657 207.712 163.445C212.45 160.693 218.929 159.984 224.184 161.421C229.69 162.927 234.777 166.757 237.631 171.734C240.417 176.591 241.752 184.38 240.146 189.81L239.87 190.648C239.737 191.058 239.767 190.887 239.833 191.35C240.445 191.58 241.034 191.752 241.672 191.896C240.343 195.78 237.769 199.41 234.601 201.997C229.356 206.277 223.126 208.622 216.307 207.899C210.022 207.232 203.743 204.064 199.811 199.045C195.995 194.174 193.168 187.43 193.95 181.129H193.949Z" fill="#122A73"/>
<path d="M217.975 187.655C218.828 187.376 219.457 187.408 220.342 187.52C221.052 187.913 221.545 188.27 221.951 188.99C222.398 189.782 222.529 190.792 222.228 191.662C221.901 192.613 221.196 193.055 220.342 193.478C219.846 193.691 219.339 193.716 218.805 193.677C218.006 193.62 217.33 193.262 216.814 192.65C216.13 191.835 215.989 190.941 216.16 189.904C216.343 188.79 217.093 188.245 217.975 187.655Z" fill="#2198E0"/>
<path d="M211.92 173.886C212.412 173.75 212.959 173.684 213.468 173.718C214.421 173.779 215.411 174.533 215.974 175.262C216.633 176.115 217.068 177.254 216.874 178.342C216.599 179.881 215.588 180.68 214.356 181.456L214.161 181.471C213.641 181.529 213.047 181.646 212.525 181.581C211.482 181.449 210.419 180.553 209.876 179.676C209.323 178.781 209.21 177.673 209.446 176.657C209.763 175.293 210.781 174.542 211.921 173.888L211.92 173.886Z" fill="#ECEFF2"/>
<path d="M223.234 173.885C223.701 173.805 224.191 173.713 224.665 173.782C225.911 173.964 226.991 174.739 227.684 175.776C228.321 176.729 228.554 177.926 228.306 179.053C228.009 180.404 226.655 181.141 225.561 181.783C224.633 181.848 223.659 181.906 222.769 181.574C221.893 181.247 221.046 180.405 220.679 179.547C220.272 178.595 220.316 177.079 220.722 176.135C221.235 174.946 222.075 174.357 223.235 173.886L223.234 173.885Z" fill="#ECEFF2"/>
<path d="M228.226 184.685C228.889 184.611 229.362 184.434 229.963 184.766C231.632 185.685 233.27 188.266 233.755 190.085C234.012 191.04 233.888 191.663 233.355 192.515C232.424 194.005 230.885 194.477 229.265 194.772C228.564 194.707 227.803 194.658 227.131 194.437C225.829 194.008 224.666 192.975 224.087 191.735C223.712 190.933 223.721 190.407 224.008 189.588C224.695 187.629 226.363 185.606 228.226 184.685Z" fill="#B8E9FF"/>
<path d="M208.086 184.685C208.638 184.566 209.319 184.685 209.817 184.946C211.343 185.745 212.832 187.885 213.312 189.53C213.573 190.422 213.619 191.718 213.107 192.514C212.079 194.115 210.72 194.483 208.989 194.85L207 194.467C205.821 194.12 204.217 193.002 203.683 191.867C203.368 191.196 203.369 190.154 203.683 189.476C204.53 187.649 206.201 185.482 208.087 184.685H208.086Z" fill="#B8E9FF"/>
<path d="M280.989 160.251C282.848 160.238 293.603 159.838 294.511 160.276C295.087 160.554 295.884 161.466 296.348 161.931L315.24 181.886L318.567 185.348C319.13 185.931 319.748 186.757 320.493 187.093C323.289 184.303 346.45 160.801 347.765 160.319C348.246 160.142 349.694 160.308 350.288 160.305L357.978 160.277L400.29 160.225C400.995 160.227 401.713 160.341 402.411 160.295V194.871C397.362 196.355 392.662 196.483 387.937 193.869C384.612 192.03 381.813 188.792 379.156 186.098L378.236 186.195C382.8 190.735 386.55 195.073 393.243 196.156L393.643 196.225C395.133 196.475 396.728 196.454 398.228 196.324C399.36 196.225 401.404 195.288 402.336 195.631L402.426 197.544L402.416 258.275L402.386 274.98C402.375 278.631 402.622 282.499 401.965 286.099C401.388 289.257 399.826 292.277 397.569 294.557C394.671 297.486 391.231 299.363 387.145 299.969C382.184 300.705 376.455 300.182 371.416 300.183H338.997H226.942C226.65 300.182 226.763 300.193 226.525 300.148C224.561 299.841 222.36 300.029 220.367 300.034L209.893 300.046L171.075 300.034L181.591 288.241C183.497 286.203 186.111 283.134 188.678 282.023C188.484 281.107 188.357 280.262 188.461 279.319C188.649 277.59 189.48 276.137 190.854 275.072C192.499 273.797 194.26 273.86 196.197 274.087C197.431 272.639 199.391 271.649 201.009 270.664L209.711 265.639C211.563 264.655 213.518 263.829 215.301 262.725L220.142 260.795C222.686 259.317 225.892 258.788 228.316 257.162C228.839 257.135 229.738 257.185 230.171 256.911L230.313 256.788C230.772 256.8 231.099 256.804 231.534 256.645C231.805 256.548 232.003 256.485 232.294 256.429C232.554 256.377 232.759 256.298 233.009 256.236C235.816 255.543 238.478 254.447 241.231 253.677L241.768 253.536C243.845 252.598 246.312 251.82 248.237 250.567C250.906 248.829 253.703 247.313 256.322 245.445L262.008 241.002C263.333 240.048 265.091 238.493 266.007 237.133C267.03 235.611 268.6 234.266 269.766 232.81C272.617 229.244 275.026 225.433 277.12 221.38C282.672 210.631 285.434 199.04 285.724 186.975C285.82 183.002 285.774 179.098 285.129 175.165C284.267 169.906 282.582 165.284 280.988 160.252L280.989 160.251Z" fill="url(#paint16_linear_51_18608)"/>
<path d="M200.408 279.307L200.704 279.386C202.087 279.728 204.167 279.47 205.619 279.469L225.714 279.443C226.61 279.445 229.563 279.132 230.282 279.453C230.452 279.528 230.54 279.721 230.67 279.856L230.479 280.674C229.119 281.393 224.641 280.914 222.882 280.915L200.254 280.918L200.406 279.307H200.408Z" fill="#B0BBC9"/>
<path d="M309.482 242.735L314.013 242.659V252.554L307.976 252.57L303.873 252.59L303.87 242.798L309.482 242.737V242.735Z" fill="#ECEFF2"/>
<path d="M188.678 282.026C188.484 281.11 188.357 280.265 188.461 279.322C188.649 277.592 189.48 276.14 190.854 275.075C192.499 273.8 194.26 273.863 196.197 274.09C197.859 274.781 199.306 275.806 199.973 277.561C200.185 278.121 200.292 278.722 200.409 279.307L200.258 280.918C199.741 282.693 198.929 284.11 197.248 285.008C195.864 285.749 194.215 286.041 192.69 285.588C190.836 285.037 189.537 283.718 188.679 282.025L188.678 282.026Z" fill="#B8E9FF"/>
<path d="M286.254 236.064L297.283 236.121L297.25 252.577L286.24 252.698L286.254 236.062V236.064Z" fill="#3856B0"/>
<path d="M329.097 234.236L339.15 234.222L339.169 252.639L329.106 252.616L329.097 234.237V234.236Z" fill="#B8E9FF"/>
<path d="M378.97 229.91L389.037 229.95L389.098 252.568L379.033 252.6L378.97 229.909V229.91Z" fill="#3856B0"/>
<path d="M363.047 216.202L372.257 216.276L372.228 252.631L362.911 252.638L363.047 216.201V216.202Z" fill="#ECEFF2"/>
<path d="M304.634 269.067L344.384 269.104L344.337 285.677L304.616 285.693L304.634 269.067Z" fill="#B8E9FF"/>
<path d="M346.36 269.095L388.197 269.19L388.227 285.759H346.36V269.095Z" fill="#B8E9FF"/>
<path d="M260.604 269.043L302.524 269.013L302.551 285.706L260.619 285.688L260.605 269.041L260.604 269.043Z" fill="#ECEFF2"/>
<path d="M280.989 160.251C282.848 160.238 293.603 159.838 294.511 160.276C295.087 160.554 295.884 161.466 296.348 161.931L315.239 181.886L318.567 185.348C319.13 185.931 319.748 186.757 320.493 187.093C323.289 184.303 346.449 160.801 347.764 160.319C348.246 160.142 349.694 160.308 350.288 160.305L357.977 160.277L400.289 160.225C400.995 160.227 401.712 160.341 402.411 160.295V194.871C397.361 196.355 392.662 196.483 387.937 193.869C384.611 192.03 381.813 188.792 379.155 186.098L378.236 186.195C382.8 190.735 386.55 195.073 393.242 196.156L393.643 196.225C395.133 196.475 396.728 196.454 398.228 196.324C399.36 196.225 401.403 195.288 402.336 195.631L402.426 197.544L401.987 197.103L401.745 197.34C399.235 199.737 396.037 201.468 393.037 203.17C383.709 208.463 373.872 212.722 363.57 215.711C361.074 216.435 358.505 216.694 355.992 217.297L355.997 252.622L345.897 252.605C345.887 251.05 346.139 248.997 345.852 247.503L345.823 247.176L345.735 220.211L345.512 220.021C334.364 221.553 323.345 222.886 312.082 223.335L292.212 223.371C290.81 223.371 287.602 222.999 286.416 223.505C285.584 223.861 279.626 230.817 278.657 231.869L244.718 268.352C244.523 268.565 242.799 270.457 242.793 270.457C242.703 270.46 241.6 269.596 241.421 269.461L228.157 259.259L222.21 260.72C221.421 260.944 220.932 261.026 220.14 260.796C222.683 259.318 225.889 258.789 228.314 257.163C228.837 257.136 229.736 257.186 230.168 256.912L230.311 256.789C230.77 256.801 231.097 256.805 231.532 256.647C231.802 256.549 232.001 256.486 232.291 256.43C232.552 256.378 232.756 256.299 233.007 256.237C235.813 255.544 238.476 254.449 241.228 253.678L241.766 253.537C243.842 252.599 246.31 251.822 248.234 250.568C250.904 248.83 253.7 247.314 256.32 245.446L262.006 241.003C263.33 240.049 265.089 238.494 266.004 237.134C267.028 235.612 268.597 234.267 269.763 232.811C272.615 229.245 275.024 225.434 277.117 221.381C282.669 210.632 285.431 199.042 285.722 186.976C285.818 183.003 285.771 179.099 285.127 175.166C284.264 169.907 282.58 165.285 280.985 160.253L280.989 160.251Z" fill="url(#paint17_linear_51_18608)"/>
<path d="M295.023 220.723C293.895 221.412 289.924 221.138 288.452 221.196C290.482 218.803 292.459 215.986 294.714 213.844L295.313 214.02C294.338 215.299 293.592 216.441 293.856 218.15C294.006 219.12 294.423 219.958 295.021 220.722L295.023 220.723Z" fill="#030F4A"/>
<path d="M378.238 186.197L366.458 174.932C366.129 174.966 365.995 175.025 365.727 175.226C365.118 175.686 364.676 176.032 363.893 176.114C362.95 176.212 362.06 175.806 361.371 175.174C360.708 174.566 360.232 173.657 360.256 172.745C360.28 171.815 360.613 171.068 361.295 170.438C361.99 169.795 362.751 169.55 363.689 169.617C364.681 169.688 365.496 170.052 366.115 170.845C366.891 171.837 366.971 172.685 366.813 173.899L366.776 174.157L379.158 186.1L378.238 186.197Z" fill="#30FBF2"/>
<path d="M333.351 185.496C334.062 185.327 335.043 185.33 335.735 185.579C336.946 186.014 337.528 187.1 338.003 188.207C338.212 188.692 338.485 188.507 338.987 188.508L360.007 188.533C361.29 188.536 365.392 188.143 366.284 188.87L365.888 189.183L360.497 189.206L338.195 189.23C337.941 189.787 337.678 190.352 337.295 190.834C336.659 191.633 335.708 192.275 334.667 192.362C333.417 192.466 332.332 191.624 331.404 190.896C330.996 190.125 330.676 189.432 330.733 188.536C330.794 187.6 331.454 186.585 332.22 186.059C332.564 185.822 332.967 185.656 333.35 185.496H333.351Z" fill="#30FBF2"/>
<path d="M295.313 214.02C296.728 213.324 298.073 213.045 299.583 213.609C300.857 214.085 301.868 214.899 302.42 216.161L302.922 217.577C303.945 217.338 322.054 199.303 324.584 196.87C326.43 195.095 328.74 192.28 330.983 191.085L331.208 191.301C328.906 194.465 325.236 197.254 322.412 199.994L304.704 217.102C304.263 217.491 303.669 217.974 303.072 218.063L302.798 218.087L302.659 218.425C302.033 219.932 301.316 221.101 299.717 221.731C298.647 222.152 297.568 222.174 296.532 221.654L295.019 220.724C294.421 219.96 294.002 219.122 293.853 218.152C293.589 216.443 294.336 215.301 295.311 214.021L295.313 214.02Z" fill="#30FBF2"/>
<path d="M345.858 247.503C346.384 243.561 345.989 239.042 346.003 235.044L345.997 207.206L356.02 207.19L355.998 217.297L356.002 252.622L345.903 252.606C345.893 251.05 346.145 248.997 345.858 247.503Z" fill="#B8E9FF"/>
<defs>
<linearGradient id="paint0_linear_51_18608" x1="275.998" y1="415.001" x2="275.998" y2="0" gradientUnits="userSpaceOnUse">
<stop stop-color="#B0BBC9"/>
<stop offset="1" stop-color="#D5DBE2"/>
</linearGradient>
<linearGradient id="paint1_linear_51_18608" x1="390.176" y1="317.482" x2="389.927" y2="323.441" gradientUnits="userSpaceOnUse">
<stop stop-color="#1FE5EB"/>
<stop offset="1" stop-color="#1CD1F0"/>
</linearGradient>
<linearGradient id="paint2_linear_51_18608" x1="399.33" y1="383.058" x2="399.33" y2="340.235" gradientUnits="userSpaceOnUse">
<stop stop-color="#B0BBC9"/>
<stop offset="1" stop-color="#D5DBE2"/>
</linearGradient>
<linearGradient id="paint3_linear_51_18608" x1="416.252" y1="89.3455" x2="416.252" y2="59.7529" gradientUnits="userSpaceOnUse">
<stop stop-color="#B0BBC9"/>
<stop offset="1" stop-color="#D5DBE2"/>
</linearGradient>
<linearGradient id="paint4_linear_51_18608" x1="83.7845" y1="219.627" x2="83.5881" y2="173.834" gradientUnits="userSpaceOnUse">
<stop stop-color="#1F31A9"/>
<stop offset="1" stop-color="#2573D5"/>
</linearGradient>
<linearGradient id="paint5_linear_51_18608" x1="91.2531" y1="114.8" x2="91.2531" y2="48.8643" gradientUnits="userSpaceOnUse">
<stop stop-color="#B0BBC9"/>
<stop offset="1" stop-color="#D5DBE2"/>
</linearGradient>
<linearGradient id="paint6_linear_51_18608" x1="467.508" y1="194.892" x2="467.508" y2="95.8965" gradientUnits="userSpaceOnUse">
<stop stop-color="#B0BBC9"/>
<stop offset="1" stop-color="#D5DBE2"/>
</linearGradient>
<linearGradient id="paint7_linear_51_18608" x1="453.519" y1="362.059" x2="444.882" y2="293.714" gradientUnits="userSpaceOnUse">
<stop stop-color="#4445CE"/>
<stop offset="1" stop-color="#10EAFB"/>
</linearGradient>
<linearGradient id="paint8_linear_51_18608" x1="470.296" y1="348.331" x2="466.687" y2="302.32" gradientUnits="userSpaceOnUse">
<stop stop-color="#4161E0"/>
<stop offset="1" stop-color="#0EE0FA"/>
</linearGradient>
<linearGradient id="paint9_linear_51_18608" x1="446.6" y1="243.314" x2="444.505" y2="198.933" gradientUnits="userSpaceOnUse">
<stop stop-color="#0E2880"/>
<stop offset="1" stop-color="#1773C9"/>
</linearGradient>
<linearGradient id="paint10_linear_51_18608" x1="448.855" y1="228.498" x2="447.834" y2="219.081" gradientUnits="userSpaceOnUse">
<stop stop-color="#000749"/>
<stop offset="1" stop-color="#08307C"/>
</linearGradient>
<linearGradient id="paint11_linear_51_18608" x1="490.708" y1="243.433" x2="487.972" y2="199.675" gradientUnits="userSpaceOnUse">
<stop stop-color="#0B2A81"/>
<stop offset="1" stop-color="#1E64BC"/>
</linearGradient>
<linearGradient id="paint12_linear_51_18608" x1="139.955" y1="237.502" x2="231.812" y2="284.113" gradientUnits="userSpaceOnUse">
<stop stop-color="#3EF4A7"/>
<stop offset="1" stop-color="#096EE0"/>
</linearGradient>
<linearGradient id="paint13_linear_51_18608" x1="154.689" y1="249.064" x2="174.803" y2="288.197" gradientUnits="userSpaceOnUse">
<stop stop-color="#3EF4A7"/>
<stop offset="1" stop-color="#096EE0"/>
</linearGradient>
<linearGradient id="paint14_linear_51_18608" x1="139.893" y1="149.961" x2="275.893" y2="222.033" gradientUnits="userSpaceOnUse">
<stop stop-color="#3EF4A7"/>
<stop offset="1" stop-color="#096EE0"/>
</linearGradient>
<linearGradient id="paint15_linear_51_18608" x1="261.645" y1="131.643" x2="361.654" y2="223.391" gradientUnits="userSpaceOnUse">
<stop stop-color="#3EF4A7"/>
<stop offset="1" stop-color="#096EE0"/>
</linearGradient>
<linearGradient id="paint16_linear_51_18608" x1="171.075" y1="207.976" x2="337.477" y2="358.425" gradientUnits="userSpaceOnUse">
<stop stop-color="#3EF4A7"/>
<stop offset="1" stop-color="#096EE0"/>
</linearGradient>
<linearGradient id="paint17_linear_51_18608" x1="220.14" y1="197.764" x2="351.089" y2="316.322" gradientUnits="userSpaceOnUse">
<stop stop-color="#3EF4A7"/>
<stop offset="1" stop-color="#096EE0"/>
</linearGradient>
</defs>
</svg>
