<svg width="382" height="382" viewBox="0 0 382 382" fill="none" xmlns="http://www.w3.org/2000/svg">
<g filter="url(#filter0_d_1_9271)">
<path d="M121.089 69.9108C54.2135 108.521 31.3002 194.035 69.9109 260.911C108.522 327.786 194.035 350.7 260.911 312.089C327.787 273.478 350.7 187.965 312.089 121.089C273.478 54.2134 187.965 31.3001 121.089 69.9108Z" fill="url(#paint0_linear_1_9271)"/>
<path d="M268.918 23.147C314.253 23.1471 351.242 60.1624 351.242 105.497C351.242 150.831 314.252 187.821 268.918 187.821C223.559 187.821 186.569 150.856 186.568 105.497C186.568 60.1368 223.584 23.147 268.918 23.147Z" fill="#3DD4E9" stroke="white"/>
<path fill-rule="evenodd" clip-rule="evenodd" d="M349.363 120.462C347.979 127.968 345.574 135.117 342.285 141.74H277.164C271.302 141.74 266.512 136.95 266.512 131.113C266.512 125.251 271.302 120.462 277.164 120.462H349.363ZM342.929 70.5423C347.933 81.1477 350.746 92.9895 350.746 105.496C350.746 106.829 350.721 108.141 350.649 109.453C348.341 110.407 345.788 110.908 343.143 110.908H288.434C277.332 110.908 268.253 101.829 268.253 90.7271C268.253 79.6212 277.332 70.5465 288.434 70.5465H342.929V70.5423ZM192.502 134.877C189.121 126.109 187.211 116.576 187.094 106.618H213.519C216.736 106.618 219.381 109.263 219.381 112.48C219.381 113.338 219.188 114.15 218.855 114.886H233.914C239.419 114.886 243.922 119.389 243.922 124.894C243.922 130.399 239.419 134.877 233.914 134.877H192.502ZM198.343 64.0369C201.488 58.7005 205.205 53.7427 209.448 49.2642H240.899C244.974 49.2642 248.283 52.5778 248.283 56.6526C248.283 60.7022 244.969 64.0411 240.899 64.0411H198.343V64.0369Z" fill="#7DC983"/>
<path fill-rule="evenodd" clip-rule="evenodd" d="M306.52 125.152C311.284 125.152 315.359 122.149 316.957 117.956C318.866 116.169 320.056 113.621 320.056 110.808C320.056 105.4 315.624 100.989 310.241 100.989H303.475C304.594 98.987 305.237 96.6742 305.237 94.2226C305.237 86.6196 299.089 80.4759 291.491 80.4759C283.892 80.4759 277.74 86.6238 277.74 94.2226C277.74 94.3403 277.765 94.4623 277.765 94.58C276.953 94.3193 276.121 94.1763 275.242 94.1763C271.213 94.1763 267.879 97.1325 267.281 100.993H262.206C256.798 100.993 252.391 105.4 252.391 110.812C252.391 116.22 256.798 120.631 262.206 120.631H270.116C271.903 124.395 275.738 126.993 280.17 126.993C284.602 126.993 288.463 124.395 290.25 120.631H297.567C299.594 123.373 302.857 125.156 306.524 125.156L306.52 125.152ZM321.553 42.827C326.175 46.7336 330.367 51.1196 334.038 55.9345H297.512C296.583 56.8639 295.296 57.4358 293.892 57.4358C293.32 57.4358 292.794 57.3391 292.294 57.1751V57.4148C292.294 62.2297 288.387 66.1363 283.572 66.1363C278.757 66.1363 274.83 62.2297 274.83 57.4148C274.83 55.842 275.259 54.387 275.973 53.1045H271.663C268.257 53.1045 265.444 50.3164 265.444 46.885C265.444 45.0978 266.205 43.4999 267.395 42.3561C268.421 39.6858 270.995 37.7809 274.018 37.7809C276.352 37.7809 278.425 38.8994 279.712 40.6404H284.359C285.502 38.2602 287.933 36.6118 290.746 36.6118C293.559 36.6118 296.011 38.256 297.13 40.6404H302.159C304.043 40.6404 305.733 41.4982 306.902 42.8313H321.557L321.553 42.827ZM205.133 66.2036C206.609 66.2036 207.993 66.5358 209.254 67.1077C210.301 66.6072 211.542 66.275 212.829 66.2036C212.614 65.5349 212.497 64.8201 212.497 64.0842C212.497 59.8201 216.311 56.3887 221.004 56.3887C225.697 56.3887 229.532 59.8201 229.532 64.0842C229.532 65.6569 228.985 67.1077 228.102 68.3482C230.818 69.1093 232.774 71.2329 232.774 73.756C232.774 74.8283 232.391 75.8544 231.773 76.7123C235.587 77.4524 238.039 78.592 238.039 79.8577C238.039 82.0738 230.675 83.8863 221.575 83.8863C217.812 83.8863 214.355 83.5751 211.567 83.0536C209.877 84.5801 207.614 85.5095 205.133 85.5095C199.797 85.5095 195.482 81.195 195.482 75.8586C195.482 70.5223 199.797 66.2078 205.133 66.2078V66.2036Z" fill="white"/>
<path fill-rule="evenodd" clip-rule="evenodd" d="M74.4126 111.811H306.496C310.238 111.811 313.287 114.885 313.287 118.602V271.481C313.287 275.198 310.238 278.247 306.496 278.247H74.4126C70.6952 278.247 67.6465 275.198 67.6465 271.481V118.602C67.6465 114.885 70.6952 111.811 74.4126 111.811Z" fill="white"/>
<path fill-rule="evenodd" clip-rule="evenodd" d="M72.5791 111.811H308.329C311.046 111.811 313.287 114.052 313.287 116.769V131.971C313.287 132.185 313.098 132.374 312.858 132.374H67.6465V116.769C67.6465 114.052 69.8626 111.811 72.5791 111.811Z" fill="url(#paint1_linear_1_9271)"/>
<path fill-rule="evenodd" clip-rule="evenodd" d="M79.7733 126.365C82.2501 126.365 84.277 124.338 84.277 121.862C84.277 119.385 82.2501 117.358 79.7733 117.358C77.2964 117.358 75.2695 119.385 75.2695 121.862C75.2695 124.338 77.2922 126.365 79.7733 126.365Z" fill="#FFDB79"/>
<path fill-rule="evenodd" clip-rule="evenodd" d="M92.3807 126.365C94.8575 126.365 96.9054 124.338 96.9054 121.862C96.9054 119.385 94.8575 117.358 92.3807 117.358C89.9038 117.358 87.877 119.385 87.877 121.862C87.877 124.338 89.9038 126.365 92.3807 126.365Z" fill="#9BDDE7"/>
<path fill-rule="evenodd" clip-rule="evenodd" d="M104.984 126.365C107.461 126.365 109.488 124.338 109.488 121.862C109.488 119.385 107.461 117.358 104.984 117.358C102.507 117.358 100.48 119.385 100.48 121.862C100.48 124.338 102.507 126.365 104.984 126.365Z" fill="#F77B55"/>
<path d="M306.276 118.077H116.324V126.63H306.276V118.077Z" fill="white"/>
<path fill-rule="evenodd" clip-rule="evenodd" d="M94.9558 158.749H288.7C292.106 158.749 294.894 161.537 294.894 164.943V177.192C294.894 180.599 292.106 183.387 288.7 183.387H94.9558C91.5244 183.387 88.7363 180.599 88.7363 177.192V164.943C88.7363 161.537 91.5244 158.749 94.9558 158.749Z" fill="url(#paint2_linear_1_9271)"/>
<path d="M217.931 144.12H165.627V147.908H217.931V144.12Z" fill="#CCCCCC"/>
<path d="M154.02 144.12H101.695V147.908H154.02V144.12Z" fill="#CCCCCC"/>
<path d="M283.65 144.12H231.346V147.908H283.65V144.12Z" fill="#CCCCCC"/>
<path fill-rule="evenodd" clip-rule="evenodd" d="M112.036 234.59C121.973 234.59 130.072 226.487 130.072 216.554C130.072 206.621 121.973 198.518 112.036 198.518C102.099 198.518 94 206.617 94 216.554C94 226.491 102.099 234.59 112.036 234.59Z" fill="#ADECF7"/>
<path fill-rule="evenodd" clip-rule="evenodd" d="M102.031 212.723L111.417 228.711L133.553 192.42L111.964 217.176L102.031 212.723Z" fill="#FF9E58"/>
<path d="M231.867 207.792H146.852V210.483H231.867V207.792Z" fill="#A6A9AB"/>
<path d="M231.871 215.455H180.854V218.147H231.871V215.455Z" fill="#A6A9AB"/>
<path d="M201.677 223.112H145.824V225.828H201.677V223.112Z" fill="#A6A9AB"/>
<path d="M231.867 223.112H215.879V225.828H231.867V223.112Z" fill="#A6A9AB"/>
<path d="M164.886 215.456H155.879V218.147H164.886V215.456Z" fill="#A6A9AB"/>
<path fill-rule="evenodd" clip-rule="evenodd" d="M251.239 199.784H326.39C331.2 199.784 335.136 203.716 335.136 208.53V277.773C335.136 282.588 331.204 286.515 326.39 286.515H251.239C246.449 286.515 242.518 282.583 242.518 277.773V208.53C242.518 203.716 246.449 199.784 251.239 199.784Z" fill="#FF9E58"/>
<path d="M335.136 229.237H242.518V257.067H335.136V229.237Z" fill="#08C6A2"/>
<path fill-rule="evenodd" clip-rule="evenodd" d="M160.289 292.204C162.72 293.302 164.89 294.849 166.652 296.779L173.944 293.47L179.065 304.765L171.774 308.054C171.917 309.34 171.917 310.673 171.799 312.011C171.656 313.344 171.395 314.63 171.013 315.871L177.518 320.543L170.298 330.597L163.792 325.951C161.694 327.477 159.263 328.596 156.669 329.193L155.882 337.153L143.54 335.938L144.327 328.003C141.896 326.905 139.726 325.333 137.943 323.428L130.677 326.716L125.555 315.446L132.821 312.137C132.703 310.85 132.678 309.538 132.821 308.205C132.939 306.872 133.225 305.56 133.582 304.319L127.102 299.673L134.297 289.593L140.803 294.265C142.922 292.717 145.353 291.595 147.951 291.002L148.738 283.045L161.055 284.261L160.294 292.217L160.289 292.204Z" fill="#E6E6E6"/>
<path fill-rule="evenodd" clip-rule="evenodd" d="M152.903 303.927C156.309 304.264 158.811 307.287 158.479 310.693C158.146 314.1 155.094 316.602 151.713 316.269C148.306 315.937 145.804 312.884 146.137 309.478C146.469 306.093 149.496 303.591 152.903 303.927ZM153.5 297.973C160.194 298.616 165.102 304.596 164.437 311.291C163.769 317.985 157.814 322.872 151.12 322.228C144.425 321.56 139.513 315.605 140.182 308.91C140.825 302.216 146.805 297.308 153.504 297.973H153.5Z" fill="#363F48"/>
<path fill-rule="evenodd" clip-rule="evenodd" d="M115.539 295.237C116.565 296.978 117.208 298.883 117.469 300.839L123.428 302.008L121.615 311.204L115.682 310.061C115.207 310.918 114.61 311.73 113.941 312.491C113.272 313.252 112.557 313.946 111.771 314.539L113.748 320.258L104.858 323.307L102.907 317.588C100.93 317.588 98.9285 317.23 97.0699 316.444L93.0918 321.019L86.0397 314.846L89.9926 310.296C88.9665 308.534 88.3231 306.625 88.0624 304.674L82.1289 303.505L83.9161 294.308L89.8748 295.452C90.35 294.619 90.9219 293.782 91.5905 293.021C92.2591 292.26 92.9951 291.566 93.7604 290.973L91.805 285.254L100.669 282.206L102.646 287.946C104.622 287.92 106.599 288.303 108.457 289.064L112.436 284.514L119.513 290.662L115.535 295.237H115.539Z" fill="#E6E6E6"/>
<path fill-rule="evenodd" clip-rule="evenodd" d="M105.845 299.214C107.8 300.93 108.015 303.882 106.32 305.837C104.604 307.793 101.648 307.982 99.697 306.292C97.7416 304.601 97.5272 301.624 99.2429 299.668C100.933 297.713 103.89 297.524 105.845 299.214ZM108.822 295.808C112.683 299.143 113.086 304.984 109.726 308.819C106.392 312.654 100.555 313.062 96.7156 309.723C92.8804 306.363 92.4725 300.551 95.8114 296.691C99.1714 292.856 104.987 292.448 108.822 295.808Z" fill="#363F48"/>
<path fill-rule="evenodd" clip-rule="evenodd" d="M324.082 245.6L335.638 251.891L347.194 258.207L337.354 260.995L345.12 273.716L339.498 277.172L331.727 264.427L324.746 271.908L324.414 258.754L324.082 245.6Z" fill="#FEFEFE"/>
<path fill-rule="evenodd" clip-rule="evenodd" d="M100.903 25.7915C90.6554 25.7915 82.0307 32.3684 79.6001 41.2791C69.617 42.3767 61.8711 50.3328 61.8711 59.9585C61.8711 70.3494 70.8533 78.7808 81.9339 78.7808H133.401C142.955 78.7808 150.701 71.5143 150.701 62.532C150.701 55.8584 146.412 50.1184 140.239 47.6163C140.264 47.5196 140.264 47.4018 140.264 47.2841C140.264 40.9469 134.784 35.7998 128.018 35.7998C125.373 35.7998 122.943 36.5862 120.941 37.9192C117.484 30.7704 109.814 25.7915 100.903 25.7915Z" fill="white"/>
<path fill-rule="evenodd" clip-rule="evenodd" d="M45.4361 75.9009C40.3142 75.9009 35.9997 79.1893 34.7844 83.6468C29.7803 84.1724 25.9199 88.1505 25.9199 92.9865C25.9199 98.1798 30.3984 102.377 35.9534 102.377H61.689C66.4535 102.377 70.3391 98.7559 70.3391 94.2732C70.3391 90.9133 68.1944 88.0538 65.1205 86.8175V86.6493C65.1205 83.4786 62.3787 80.905 58.9977 80.905C57.6857 80.905 56.4494 81.2877 55.4486 81.9521C53.7329 78.3777 49.8978 75.9009 45.4403 75.9009H45.4361Z" fill="white"/>
</g>
<path d="M259.62 223.999V210.039H267.86V212.239H262.42V215.679H267.4V217.879H262.42V221.799H267.9V223.999H259.62ZM270.593 223.999V210.039H274.033L279.353 220.479H279.393V210.039H282.073V223.999H278.653L273.313 213.559H273.273V223.999H270.593ZM296.247 210.379L296.067 212.739C294.987 212.239 293.587 211.999 292.467 211.999C289.207 211.999 287.407 214.199 287.407 217.059C287.407 219.899 289.167 222.039 292.147 222.039C292.907 222.039 293.507 221.959 293.987 221.839V218.199H291.027V215.999H296.667V223.519C295.187 223.919 293.647 224.239 292.147 224.239C287.627 224.239 284.487 221.979 284.487 217.259C284.487 212.479 287.407 209.799 292.147 209.799C293.767 209.799 295.047 210.019 296.247 210.379Z" fill="white"/>
<path d="M102.093 176.565L99.3088 168.325H101.581L103.405 174.421H103.437L105.101 168.325H107.597L109.389 174.421H109.421L111.133 168.325H113.181L110.653 176.565H108.125L106.333 170.277H106.301L104.541 176.565H102.093ZM116.312 176.565L113.528 168.325H115.8L117.624 174.421H117.656L119.32 168.325H121.816L123.608 174.421H123.64L125.352 168.325H127.4L124.872 176.565H122.344L120.552 170.277H120.52L118.76 176.565H116.312ZM130.53 176.565L127.746 168.325H130.018L131.842 174.421H131.874L133.538 168.325H136.034L137.826 174.421H137.858L139.57 168.325H141.618L139.09 176.565H136.562L134.77 170.277H134.738L132.978 176.565H130.53ZM142.018 176.565V174.325H144.258V176.565H142.018ZM152.007 168.405L151.815 170.101C151.431 169.925 151.015 169.797 150.359 169.797C149.031 169.797 148.183 170.853 148.183 172.405C148.183 173.925 148.903 175.093 150.407 175.093C151.015 175.093 151.687 174.869 152.055 174.709L152.151 176.485C151.527 176.677 150.887 176.757 150.007 176.757C147.303 176.757 145.943 174.917 145.943 172.405C145.943 170.021 147.351 168.133 149.927 168.133C150.791 168.133 151.415 168.229 152.007 168.405ZM153.053 172.501C153.053 169.781 154.925 168.133 157.357 168.133C159.805 168.133 161.677 169.781 161.677 172.501C161.677 174.869 160.093 176.757 157.357 176.757C154.637 176.757 153.053 174.869 153.053 172.501ZM155.293 172.245C155.293 173.605 155.725 175.093 157.357 175.093C159.005 175.093 159.437 173.621 159.437 172.245C159.437 170.981 158.765 169.797 157.357 169.797C155.965 169.797 155.293 171.013 155.293 172.245ZM163.362 176.565V168.325H165.394V169.445H165.426C166.098 168.501 167.01 168.133 168.13 168.133C170.082 168.133 170.93 169.509 170.93 171.365V176.565H168.786V172.165C168.786 171.157 168.77 169.797 167.394 169.797C165.842 169.797 165.506 171.477 165.506 172.533V176.565H163.362ZM173.847 174.085V169.893H172.263V168.325H173.847V166.677L175.991 165.989V168.325H177.895V169.893H175.991V173.733C175.991 174.437 176.183 175.093 176.999 175.093C177.383 175.093 177.751 175.013 177.975 174.869L178.039 176.565C177.591 176.693 177.095 176.757 176.455 176.757C174.775 176.757 173.847 175.717 173.847 174.085ZM101.757 190.637H105.405C105.341 189.597 104.861 188.701 103.661 188.701C102.461 188.701 101.853 189.533 101.757 190.637ZM106.845 193.357V195.101C106.061 195.533 105.165 195.757 104.013 195.757C101.293 195.757 99.7088 194.189 99.7088 191.485C99.7088 189.101 100.973 187.133 103.533 187.133C106.589 187.133 107.453 189.229 107.453 192.109H101.757C101.853 193.437 102.781 194.189 104.109 194.189C105.149 194.189 106.045 193.805 106.845 193.357ZM109.127 195.565V187.325H111.159V188.445H111.191C111.863 187.501 112.775 187.133 113.895 187.133C115.847 187.133 116.695 188.509 116.695 190.365V195.565H114.551V191.165C114.551 190.157 114.535 188.797 113.159 188.797C111.607 188.797 111.271 190.477 111.271 191.533V195.565H109.127ZM119.613 193.085V188.893H118.029V187.325H119.613V185.677L121.757 184.989V187.325H123.661V188.893H121.757V192.733C121.757 193.437 121.949 194.093 122.765 194.093C123.149 194.093 123.517 194.013 123.741 193.869L123.805 195.565C123.357 195.693 122.861 195.757 122.221 195.757C120.541 195.757 119.613 194.717 119.613 193.085Z" fill="white"/>
<path d="M259.62 249.999V236.039H267.86V238.239H262.42V241.679H267.4V243.879H262.42V247.799H267.9V249.999H259.62ZM278.493 236.299L278.233 238.599C277.353 238.219 276.373 237.999 275.393 237.999C274.433 237.999 273.193 238.419 273.193 239.939C273.193 242.359 279.313 241.339 279.313 246.019C279.313 249.079 276.893 250.239 274.073 250.239C272.553 250.239 271.873 250.039 270.493 249.699L270.753 247.179C271.713 247.699 272.813 248.039 273.913 248.039C274.973 248.039 276.393 247.499 276.393 246.239C276.393 243.579 270.273 244.679 270.273 240.059C270.273 236.939 272.693 235.799 275.153 235.799C276.353 235.799 277.473 235.959 278.493 236.299ZM284.407 238.239V242.499H285.387C286.787 242.499 288.047 242.039 288.047 240.419C288.047 238.799 286.827 238.239 285.387 238.239H284.407ZM281.607 249.999V236.039H285.147C288.187 236.039 290.967 236.919 290.967 240.259C290.967 243.519 288.587 244.699 285.587 244.699H284.407V249.999H281.607Z" fill="white"/>
<path d="M259.38 278.999V265.039H262.18V278.999H259.38ZM267.726 278.999V267.239H263.726V265.039H274.526V267.239H270.526V278.999H267.726ZM282.258 273.599L280.238 267.839H280.198L278.178 273.599H282.258ZM273.258 278.999L278.698 265.039H281.858L287.338 278.999H284.238L283.038 275.799H277.378L276.158 278.999H273.258Z" fill="white"/>
<defs>
<filter id="filter0_d_1_9271" x="21.9199" y="22.647" width="333.822" height="322.506" filterUnits="userSpaceOnUse" color-interpolation-filters="sRGB">
<feFlood flood-opacity="0" result="BackgroundImageFix"/>
<feColorMatrix in="SourceAlpha" type="matrix" values="0 0 0 0 0 0 0 0 0 0 0 0 0 0 0 0 0 0 127 0" result="hardAlpha"/>
<feOffset dy="4"/>
<feGaussianBlur stdDeviation="2"/>
<feComposite in2="hardAlpha" operator="out"/>
<feColorMatrix type="matrix" values="0 0 0 0 0 0 0 0 0 0 0 0 0 0 0 0 0 0 0.25 0"/>
<feBlend mode="normal" in2="BackgroundImageFix" result="effect1_dropShadow_1_9271"/>
<feBlend mode="normal" in="SourceGraphic" in2="effect1_dropShadow_1_9271" result="shape"/>
</filter>
<linearGradient id="paint0_linear_1_9271" x1="334.256" y1="159.483" x2="13.7919" y2="166.563" gradientUnits="userSpaceOnUse">
<stop stop-color="#3EF4A7"/>
<stop offset="1" stop-color="#096EE0"/>
</linearGradient>
<linearGradient id="paint1_linear_1_9271" x1="190.467" y1="132.374" x2="190.467" y2="111.811" gradientUnits="userSpaceOnUse">
<stop stop-color="#22272F"/>
<stop offset="1" stop-color="#394453"/>
</linearGradient>
<linearGradient id="paint2_linear_1_9271" x1="88.7363" y1="167.162" x2="100.961" y2="223.241" gradientUnits="userSpaceOnUse">
<stop stop-color="#3EF4A7"/>
<stop offset="1" stop-color="#096EE0"/>
</linearGradient>
</defs>
</svg>
