<svg width="486" height="319" viewBox="0 0 486 319" fill="none" xmlns="http://www.w3.org/2000/svg">
<g filter="url(#filter0_d_1_9763)">
<path d="M440.054 21.832C443.086 21.832 445.575 23.8016 447.163 26.8115C448.749 29.8177 449.48 33.9214 449.018 38.3975L449.338 242.936V242.962L449.336 242.987C448.873 247.473 447.298 251.57 445.111 254.556C442.933 257.53 440.088 259.474 437.079 259.474H85.3643C82.355 259.474 79.5108 257.53 77.332 254.556C75.145 251.57 73.5703 247.473 73.1074 242.987L73.1045 242.963V242.938L72.5703 38.3975C72.1124 33.9216 72.8428 29.8187 74.4277 26.8125C76.0147 23.8025 78.5003 21.832 81.5332 21.832H440.054Z" fill="url(#paint0_linear_1_9763)" stroke="url(#paint1_linear_1_9763)"/>
<path d="M158.104 111.906H122.517V258.973H158.104V111.906Z" fill="url(#paint2_linear_1_9763)"/>
<path d="M217.347 130.742H184.347V258.974H217.347V130.742Z" fill="url(#paint3_linear_1_9763)"/>
<path d="M277.907 194.859H244.907V258.975H277.907V194.859Z" fill="url(#paint4_linear_1_9763)"/>
<path d="M338.472 82.2109H305.472V258.969H338.472V82.2109Z" fill="url(#paint5_linear_1_9763)"/>
<path d="M398.978 161.551H366.032V258.964H398.978V161.551Z" fill="url(#paint6_linear_1_9763)"/>
<path d="M260.025 182.771L202.834 117.69L142.92 89.6943L78.0827 132.946L76.0811 129.944L142.613 85.5738L205.043 114.742L258.925 176.063L319.02 32.3047L382.757 142.982L444.845 127.87L445.701 131.368L380.981 147.12L319.534 40.4195L260.025 182.771Z" fill="#FF9E58"/>
<path fill-rule="evenodd" clip-rule="evenodd" d="M140.335 100.025C147.341 100.025 153.03 94.3358 153.03 87.3301C153.03 80.3243 147.341 74.5898 140.335 74.5898C133.329 74.5898 127.595 80.3243 127.595 87.3301C127.595 94.3358 133.329 100.025 140.335 100.025Z" fill="#FF9E58"/>
<path fill-rule="evenodd" clip-rule="evenodd" d="M140.335 94.845C144.447 94.845 147.846 91.4458 147.846 87.3343C147.846 83.2228 144.447 79.7695 140.335 79.7695C136.224 79.7695 132.771 83.1687 132.771 87.3343C132.771 91.4999 136.17 94.845 140.335 94.845Z" fill="white"/>
<path fill-rule="evenodd" clip-rule="evenodd" d="M200.843 126.629C207.848 126.629 213.583 120.894 213.583 113.889C213.583 106.883 207.848 101.148 200.843 101.148C193.837 101.148 188.147 106.883 188.147 113.889C188.147 120.894 193.837 126.629 200.843 126.629Z" fill="#FF9E58"/>
<path fill-rule="evenodd" clip-rule="evenodd" d="M200.844 121.447C205.009 121.447 208.408 118.047 208.408 113.882C208.408 109.716 205.009 106.371 200.844 106.371C196.678 106.371 193.333 109.725 193.333 113.882C193.333 118.038 196.687 121.447 200.844 121.447Z" fill="white"/>
<path fill-rule="evenodd" clip-rule="evenodd" d="M261.405 188.566C268.411 188.566 274.146 182.832 274.146 175.826C274.146 168.82 268.411 163.086 261.405 163.086C254.4 163.086 248.665 168.82 248.665 175.826C248.665 182.832 254.4 188.566 261.405 188.566Z" fill="#FF9E58"/>
<path fill-rule="evenodd" clip-rule="evenodd" d="M261.408 183.376C265.573 183.376 268.972 179.976 268.972 175.811C268.972 171.645 265.573 168.246 261.408 168.246C257.242 168.246 253.843 171.645 253.843 175.811C253.843 179.976 257.242 183.376 261.408 183.376Z" fill="white"/>
<path fill-rule="evenodd" clip-rule="evenodd" d="M321.97 51.9549C328.976 51.9549 334.665 46.2655 334.665 39.2598C334.665 32.254 328.976 26.5195 321.97 26.5195C314.964 26.5195 309.229 32.254 309.229 39.2598C309.229 46.2655 314.964 51.9549 321.97 51.9549Z" fill="#FF9E58"/>
<path fill-rule="evenodd" clip-rule="evenodd" d="M321.968 46.7708C326.134 46.7708 329.479 43.4167 329.479 39.2601C329.479 35.1035 326.125 31.6953 321.968 31.6953C317.811 31.6953 314.403 35.0945 314.403 39.2601C314.403 43.4257 317.802 46.7708 321.968 46.7708Z" fill="white"/>
<path fill-rule="evenodd" clip-rule="evenodd" d="M382.534 150.236C389.54 150.236 395.22 144.547 395.22 137.496C395.22 130.445 389.531 124.801 382.534 124.801C375.537 124.801 369.794 130.49 369.794 137.496C369.794 144.502 375.483 150.236 382.534 150.236Z" fill="#FF9E58"/>
<path fill-rule="evenodd" clip-rule="evenodd" d="M382.535 145.052C386.646 145.052 390.045 141.653 390.045 137.487C390.045 133.322 386.646 129.977 382.535 129.977C378.423 129.977 374.97 133.376 374.97 137.487C374.97 141.599 378.369 145.052 382.535 145.052Z" fill="white"/>
<path fill-rule="evenodd" clip-rule="evenodd" d="M446.034 222.328C465.897 222.328 481.988 238.4 481.988 258.263C481.988 278.126 465.897 294.198 446.034 294.198L414.111 297.789L427.875 289.3C417.237 283.048 410.099 271.5 410.099 258.267C410.099 238.404 426.194 222.332 446.03 222.332L446.034 222.328Z" fill="#0085F2"/>
<path fill-rule="evenodd" clip-rule="evenodd" d="M434.459 251.874C434.349 250.586 434.306 249.369 434.306 248.259C434.306 244.381 435.014 241.566 436.432 239.837C438.227 237.644 440.534 236.333 443.349 235.916C444.346 235.758 445.322 235.672 446.275 235.672C447.984 235.672 449.645 235.916 451.24 236.404C453.7 237.156 455.586 238.664 456.846 240.904C457.957 242.92 458.508 245.491 458.508 248.617V249.704C458.354 253.342 457.598 256.334 456.267 258.724C454.917 261.094 452.897 262.827 450.173 263.89L450.086 269.874L443.125 269.985L443.034 259.122C446.558 258.61 448.708 257.059 449.507 254.488C450.039 252.716 450.307 250.964 450.307 249.279C450.307 248.57 450.263 247.862 450.173 247.149C449.842 244.865 448.421 243.735 445.94 243.735H445.787C443.613 243.802 442.527 245.775 442.527 249.653C442.527 250.409 442.55 251.204 442.613 252.047L434.455 251.87L434.459 251.874ZM446.897 283.107C445.59 283.107 444.46 282.643 443.527 281.69C442.597 280.761 442.129 279.651 442.129 278.343C442.129 277.036 442.594 275.883 443.527 274.954C444.46 274.024 445.586 273.556 446.897 273.556C448.208 273.556 449.358 274.02 450.291 274.954C451.22 275.883 451.688 277.017 451.688 278.343C451.688 279.67 451.224 280.761 450.291 281.69C449.358 282.643 448.228 283.107 446.897 283.107Z" fill="white"/>
<path fill-rule="evenodd" clip-rule="evenodd" d="M56.1953 131.23C34.7851 131.23 17.4404 148.575 17.4404 169.985C17.4404 191.396 34.7893 208.719 56.1953 208.719L90.5791 212.589L75.7638 203.414C87.2307 196.7 94.9248 184.228 94.9248 169.985C94.9248 148.575 77.5759 131.23 56.1911 131.23H56.1953Z" fill="#39E7AD"/>
<path fill-rule="evenodd" clip-rule="evenodd" d="M48.9548 169.941C48.9548 170.276 48.9294 170.586 48.9294 170.896C48.9294 175.746 49.9352 178.182 51.9383 178.182C54.0644 178.182 55.1169 175.437 55.1169 169.941C55.1169 164.445 54.1366 161.699 52.1547 161.699C50.1728 161.699 49.1203 164.445 48.9548 169.941ZM78.4878 171.422C77.9404 171.592 77.533 172.114 77.342 173.073C77.1977 173.62 77.151 174.197 77.151 174.745C77.151 175.127 77.1765 175.534 77.2232 175.916C77.3675 176.871 77.8428 177.376 78.6321 177.397H78.7297C79.4469 177.397 79.9477 177.041 80.2108 176.345C80.4485 175.746 80.5716 175.029 80.5716 174.219C80.5716 174.028 80.5716 173.811 80.5461 173.599C80.474 172.525 80.2575 171.855 79.901 171.592C79.6634 171.422 79.4003 171.354 79.0862 171.354C78.8952 171.354 78.7043 171.379 78.4878 171.426V171.422ZM78.9419 168.294C82.023 168.294 83.555 170.085 83.555 173.692V174.121C83.4107 178.017 81.7853 179.999 78.6321 180.024C78.6067 180.05 78.56 180.05 78.5387 180.05C75.5299 180.05 74.0487 178.208 74.0487 174.507V174.197C74.1209 170.255 75.7675 168.294 78.9462 168.294H78.9419ZM66.1594 162.535C65.5865 162.705 65.1791 163.253 64.9881 164.186C64.8438 164.759 64.7971 165.311 64.7971 165.884C64.7971 166.266 64.8226 166.648 64.8693 167.055C65.0136 168.01 65.4889 168.515 66.2782 168.536H66.3759C67.0931 168.536 67.5938 168.175 67.8824 167.462C68.0989 166.864 68.2177 166.172 68.2177 165.362C68.2177 165.145 68.2177 164.954 68.1922 164.738C68.1201 163.664 67.9036 162.994 67.5472 162.709C67.3307 162.54 67.0464 162.472 66.7366 162.472C66.5456 162.472 66.3546 162.497 66.1637 162.544L66.1594 162.535ZM66.5881 159.403C69.6691 159.403 71.2011 161.22 71.2011 164.802V165.256C71.0823 169.151 69.4314 171.108 66.2782 171.159H66.1806C63.1717 171.159 61.6864 169.317 61.6864 165.638V165.302C61.7798 161.385 63.4052 159.399 66.5838 159.399L66.5881 159.403ZM76.8879 159.403L70.9125 180.309L68.5954 179.901L74.5707 158.996L76.8879 159.403ZM52.2778 156.534C57.1285 156.534 59.5645 160.957 59.5645 169.822C59.5645 178.687 56.9587 183.105 51.7515 183.105C46.5443 183.105 43.9598 178.518 43.9598 169.342C43.9598 160.812 46.731 156.534 52.2735 156.534H52.2778ZM28.8389 174.957L33.1634 174.596C33.1634 177.274 33.9995 178.611 35.7225 178.611C37.4455 178.611 38.3027 177.822 38.447 176.222C38.5192 175.458 38.5404 174.694 38.5404 173.951C38.5404 173.069 38.4937 172.182 38.4216 171.299C38.2561 169.699 37.611 168.884 36.4397 168.884H36.3209C35.0562 168.956 34.148 169.911 33.5963 171.825L29.1063 171.706L29.6325 156.416L42.0076 156.199L42.0798 160.693L33.8594 160.859L33.5242 167.119C34.0971 165.493 35.1241 164.564 36.6052 164.322C36.9617 164.25 37.3224 164.224 37.6577 164.224C38.7314 164.224 39.7117 164.513 40.6199 165.06C41.7912 165.803 42.5296 167.569 42.8182 170.34C42.9158 171.295 42.9837 172.228 42.9837 173.136C42.9837 174.855 42.7927 176.481 42.4108 178.013C41.8633 180.355 40.7642 181.811 39.1133 182.384C37.942 182.791 36.7707 183.003 35.5782 183.003C35.0986 183.003 34.6233 182.957 34.1183 182.885C32.4462 182.647 31.1306 181.93 30.1503 180.712C29.2676 179.638 28.8135 177.941 28.8135 175.645C28.8135 175.428 28.8135 175.19 28.8389 174.953V174.957Z" fill="white"/>
<path d="M176.369 276.773H23.874C20.5603 276.773 17.874 279.46 17.874 282.773V305.002C17.874 308.315 20.5603 311.002 23.874 311.002H176.369C179.683 311.002 182.369 308.315 182.369 305.002V282.773C182.369 279.46 179.683 276.773 176.369 276.773Z" fill="#FF9E58"/>
<path fill-rule="evenodd" clip-rule="evenodd" d="M162.502 284.382C158.938 286.185 157.508 290.564 159.342 294.129C160.94 297.289 164.571 298.779 167.834 297.796L171.465 304.961L173.841 303.737L170.204 296.608C172.918 294.503 173.871 290.697 172.279 287.542C170.446 283.978 166.097 282.548 162.496 284.382H162.502ZM163.69 286.692C161.417 287.844 160.5 290.667 161.652 292.94C162.804 295.25 165.627 296.167 167.9 294.979C170.21 293.827 171.127 291.004 169.939 288.73C168.787 286.42 166 285.54 163.69 286.692Z" fill="#FEFEFE"/>
<path fill-rule="evenodd" clip-rule="evenodd" d="M31.1816 284.381C28.3951 284.381 27.038 286.148 27.038 289.031C27.038 294.261 33.2866 294.665 33.2866 298.808C33.2866 300.509 32.5749 301.492 31.1153 301.492C29.6557 301.492 28.9078 300.509 28.9078 298.808V297.656H26.9717V298.706C26.9717 301.522 28.2986 303.356 31.1515 303.356C34.0043 303.356 35.3614 301.522 35.3614 298.706C35.3614 293.476 29.1128 293.066 29.1128 288.893C29.1128 287.228 29.7582 286.245 31.254 286.245C32.7498 286.245 33.359 287.228 33.359 288.929V289.538H35.3312V289.031C35.3312 286.215 34.0043 284.381 31.1876 284.381H31.1816ZM39.2336 292.801V286.45H44.8367V284.55H37.1648V303.193H44.8367V301.293H39.2336V294.671H43.7812V292.801H39.2336ZM53.5642 299.423L54.2759 303.193H56.3447L52.7801 284.55H49.7946L46.23 303.193H48.1299L48.8416 299.423H53.5642ZM51.1878 286.896L53.2566 297.662H49.113L51.1878 286.896ZM57.9792 284.55V303.193H60.054V295.25H61.5136C63.2446 295.25 64.2278 295.895 64.2278 298V300.919C64.2278 302.174 64.3303 302.65 64.5655 303.193H66.6705C66.3327 302.548 66.2965 301.764 66.2965 300.949V298.066C66.2965 296.064 65.6874 294.671 63.9563 294.164C65.5547 293.651 66.2965 292.397 66.2965 290.328V288.832C66.2965 286.046 65.0722 284.556 62.1228 284.556H57.9792V284.55ZM60.048 293.344V286.45H62.0866C63.6126 286.45 64.2278 287.33 64.2278 288.995V290.792C64.2278 292.795 63.2446 293.338 61.6162 293.338H60.054L60.048 293.344ZM72.4787 284.381C69.6259 284.381 68.299 286.251 68.299 289.067V298.676C68.299 301.528 69.6259 303.362 72.4787 303.362C75.3316 303.362 76.6887 301.528 76.6887 298.676V296.365H74.7224V298.808C74.7224 300.473 74.0409 301.492 72.5511 301.492C71.0614 301.492 70.3798 300.473 70.3798 298.808V288.959C70.3798 287.258 71.0553 286.245 72.5511 286.245C74.0469 286.245 74.7224 287.264 74.7224 288.959V290.726H76.6887V289.061C76.6887 286.245 75.3618 284.375 72.4787 284.375V284.381ZM85.2473 294.803V303.193H87.316V284.55H85.2473V292.94H80.6634V284.55H78.5946V303.193H80.6634V294.803H85.2473ZM89.421 300.612V303.193H91.4234V300.612H89.421ZM93.5646 300.612V303.193H95.567V300.612H93.5646ZM97.672 300.612V303.193H99.6744V300.612H97.672Z" fill="white"/>
</g>
<g filter="url(#filter1_d_1_9763)">
<path fill-rule="evenodd" clip-rule="evenodd" d="M41.076 39.4538L39.9376 107.101C39.9302 107.714 40.4271 108.236 41.0497 108.234L47.883 108.351C48.4969 108.359 49.0183 107.862 49.0252 107.251L50.1513 39.6137C50.1614 38.982 49.6618 38.4784 49.0495 38.473L42.2162 38.3556C41.5967 38.3363 41.0809 38.845 41.0739 39.4553L41.076 39.4538Z" fill="white"/>
<path fill-rule="evenodd" clip-rule="evenodd" d="M48.7236 38.4624L49.8415 26.1728L45.9199 20.9582L45.6328 38.4092L48.7236 38.4624Z" fill="#808080"/>
<path fill-rule="evenodd" clip-rule="evenodd" d="M42.5445 38.3608L41.8352 26.0382L45.9209 20.9609L45.6338 38.4119L42.5445 38.3608Z" fill="#B3B3B3"/>
<path fill-rule="evenodd" clip-rule="evenodd" d="M46.9855 27.6598C46.9723 28.3129 46.4463 28.8293 45.7951 28.8145C45.1419 28.8013 44.6256 28.2753 44.6403 27.6241C44.6535 26.9709 45.1796 26.4546 45.8307 26.4693C46.4839 26.4825 46.988 27.0178 46.9855 27.6598Z" fill="#E6E6E6"/>
<path fill-rule="evenodd" clip-rule="evenodd" d="M47.8587 109.944C47.8454 110.811 47.1171 111.513 46.2524 111.498L42.6841 111.428C41.8174 111.415 41.1168 110.688 41.1302 109.822C41.1435 108.955 41.8718 108.253 42.7365 108.268L46.3048 108.338C47.1837 108.342 47.8767 109.058 47.8587 109.944Z" fill="#335E8A"/>
<path fill-rule="evenodd" clip-rule="evenodd" d="M43.3714 109.603L43.6674 91.7539L42.5443 91.7342L42.2519 109.584L43.3714 109.603Z" fill="#335E8A"/>
<path fill-rule="evenodd" clip-rule="evenodd" d="M49.4336 82.353L49.4138 83.6896L42.0698 83.5578L42.0885 82.2412L49.4336 82.353Z" fill="#E6E6E6"/>
<path fill-rule="evenodd" clip-rule="evenodd" d="M49.9998 48.9856L49.9732 50.219L42.2201 50.0896L42.2467 48.8562L49.9998 48.9856Z" fill="#E6E6E6"/>
<path fill-rule="evenodd" clip-rule="evenodd" d="M286.815 16.3809C287.302 13.1032 285.039 10.0517 281.762 9.56499L223.283 0.881358C220.006 0.394607 216.954 2.65743 216.467 5.93539L204.214 88.4907C203.727 91.7686 205.99 94.8203 209.268 95.3066L267.746 103.983C271.024 104.469 274.075 102.206 274.562 98.9289L286.815 16.3809Z" fill="#03386E"/>
<path fill-rule="evenodd" clip-rule="evenodd" d="M200.681 95.9452C200.681 99.2589 203.367 101.945 206.681 101.945H268.527C271.841 101.945 274.527 99.2589 274.527 95.9452V8.82813C274.527 5.51442 271.841 2.82812 268.527 2.82812H216.264C214.672 2.82812 213.145 3.46093 212.02 4.58719L202.436 14.1786C201.312 15.3036 200.681 16.829 200.681 18.4195V95.9452Z" fill="#FEFEFE"/>
<path fill-rule="evenodd" clip-rule="evenodd" d="M213.778 2.82812L200.681 15.9356L213.778 15.758V2.82812Z" fill="#E6E6E6"/>
<path fill-rule="evenodd" clip-rule="evenodd" d="M213.003 39.2007C213.003 28.0245 222.06 18.9766 233.227 18.9766V39.2007H213.003Z" fill="#F2BF5D"/>
<path fill-rule="evenodd" clip-rule="evenodd" d="M237.747 43.1172H254.068C254.058 48.0545 251.869 52.4799 248.411 55.4754L237.747 43.1172Z" fill="#F0687B"/>
<path fill-rule="evenodd" clip-rule="evenodd" d="M244.911 23.5939C244.309 23.3564 244.615 23.476 244.911 23.5939V23.5939ZM244.932 23.5939C252.55 26.4908 257.971 33.8642 257.971 42.5058H237.747L244.932 23.5939Z" fill="#6564AC"/>
<path fill-rule="evenodd" clip-rule="evenodd" d="M243.102 26.5773L237.276 41.9221V25.4727C239.327 25.4832 241.297 25.8772 243.102 26.5773Z" fill="#F7A271"/>
<path fill-rule="evenodd" clip-rule="evenodd" d="M237.139 63.6811C225.973 63.6811 216.915 54.6244 216.915 43.457H237.139L250.345 58.772C246.808 61.8272 242.185 63.6794 237.139 63.6794V63.6811Z" fill="#6BC06F"/>
<path fill-rule="evenodd" clip-rule="evenodd" d="M227.607 54.489C227.607 54.6068 227.695 54.686 227.815 54.686C227.924 54.686 228.012 54.6068 228.012 54.489C228.012 52.4293 229.806 52.0353 229.806 50.6053C229.806 50.4962 229.716 50.4083 229.609 50.4083H227.262C227.153 50.4083 227.065 50.498 227.065 50.6053C227.065 50.7126 227.153 50.8023 227.262 50.8023H229.382C229.382 51.7591 227.607 52.4082 227.607 54.489ZM231.846 54.35C231.058 54.35 230.703 53.817 230.703 52.5172C230.703 51.2174 231.058 50.6932 231.846 50.6932C232.634 50.6932 232.979 51.2156 232.979 52.5172C232.979 53.8188 232.624 54.35 231.846 54.35ZM231.846 50.3203C230.782 50.3203 230.29 51.0098 230.29 52.5172C230.29 54.0246 230.782 54.7247 231.846 54.7247C232.91 54.7247 233.394 54.0246 233.394 52.5172C233.394 51.0098 232.902 50.3203 231.846 50.3203ZM237.098 50.359C237.03 50.359 236.98 50.3977 236.959 50.4382L234.91 54.4696C234.901 54.4995 234.901 54.5189 234.901 54.5294C234.901 54.6174 234.97 54.6877 235.058 54.6877C235.107 54.6877 235.167 54.6578 235.197 54.6086L237.237 50.5771C237.248 50.5666 237.257 50.5384 237.257 50.5173C237.257 50.4294 237.188 50.359 237.098 50.359ZM234.91 52.0845C234.437 52.0845 234.309 51.7398 234.309 51.3458C234.309 50.9518 234.437 50.607 234.91 50.607C235.383 50.607 235.521 50.943 235.521 51.3458C235.521 51.7486 235.403 52.0845 234.91 52.0845ZM234.91 50.3203C234.24 50.3203 233.994 50.7741 233.994 51.3458C233.994 51.9174 234.24 52.3712 234.91 52.3712C235.58 52.3712 235.837 51.9174 235.837 51.3458C235.837 50.7741 235.6 50.3203 234.91 50.3203ZM237.237 54.4292C236.764 54.4292 236.636 54.0932 236.636 53.6992C236.636 53.3052 236.764 52.9605 237.237 52.9605C237.71 52.9605 237.849 53.2964 237.849 53.6992C237.849 54.102 237.732 54.4292 237.237 54.4292ZM237.237 52.6755C236.567 52.6755 236.321 53.1293 236.321 53.701C236.321 54.2726 236.567 54.7264 237.237 54.7264C237.907 54.7264 238.164 54.2638 238.164 53.701C238.164 53.1381 237.929 52.6755 237.237 52.6755Z" fill="white"/>
<path fill-rule="evenodd" clip-rule="evenodd" d="M221.369 30.0579C221.408 30.1071 221.457 30.1265 221.507 30.1265C221.594 30.1265 221.674 30.0473 221.674 29.9594C221.674 29.9207 221.663 29.8908 221.644 29.8609C221.417 29.5249 221.012 29.3086 220.511 29.3086C219.742 29.3086 219.387 29.7325 219.387 30.2144C219.387 31.4668 221.378 31.0024 221.378 31.9892C221.378 32.4518 221.053 32.6892 220.472 32.6892C220.01 32.6892 219.704 32.4623 219.537 32.1862C219.507 32.1264 219.457 32.0982 219.389 32.0982C219.29 32.0982 219.222 32.1774 219.222 32.2653C219.222 32.2952 219.222 32.3251 219.252 32.3638C219.429 32.7086 219.872 33.0146 220.474 33.0146C221.292 33.0146 221.746 32.6505 221.746 31.9892C221.746 30.7175 219.746 31.0921 219.746 30.2144C219.746 29.9084 219.962 29.6428 220.514 29.6428C220.958 29.6428 221.215 29.8591 221.371 30.0561L221.369 30.0579ZM223.202 30.7861C223.586 30.7861 223.823 31.0024 223.823 31.3683V31.5055H223.074C222.513 31.5055 222.157 31.7904 222.157 32.2548C222.157 32.7191 222.513 33.0041 223.065 33.0041C223.38 33.0041 223.686 32.8757 223.823 32.6294V32.8159C223.823 32.9038 223.892 32.983 223.981 32.983C224.08 32.983 224.148 32.9038 224.148 32.8159V31.3665C224.148 30.8248 223.812 30.4695 223.202 30.4695C222.759 30.4695 222.472 30.6471 222.324 30.8828C222.305 30.9127 222.295 30.9321 222.295 30.9725C222.295 31.0605 222.363 31.1308 222.453 31.1308C222.492 31.1308 222.532 31.1115 222.592 31.0517C222.75 30.8635 222.917 30.7861 223.202 30.7861ZM223.093 32.698C222.689 32.698 222.492 32.5204 222.492 32.2548C222.492 31.9487 222.738 31.801 223.072 31.801H223.821V32.0279C223.821 32.4711 223.466 32.698 223.091 32.698H223.093ZM225.538 32.9847C225.607 32.9847 225.666 32.946 225.696 32.8757L226.593 30.7474C226.604 30.728 226.613 30.7069 226.613 30.6682C226.613 30.5697 226.544 30.5011 226.446 30.5011C226.347 30.5011 226.308 30.5609 226.287 30.6102L225.538 32.4342L224.799 30.6102C224.78 30.5609 224.731 30.5011 224.641 30.5011C224.542 30.5011 224.474 30.5697 224.474 30.6682C224.474 30.7069 224.484 30.728 224.484 30.7474L225.381 32.8757C225.42 32.9443 225.469 32.9847 225.54 32.9847H225.538ZM226.878 31.7324C226.878 32.6189 227.322 33.0041 228.022 33.0041C228.495 33.0041 228.771 32.7877 228.85 32.7086C228.88 32.6787 228.899 32.6488 228.899 32.5907C228.899 32.5028 228.831 32.4324 228.752 32.4324C228.713 32.4324 228.692 32.443 228.653 32.4711C228.505 32.5802 228.328 32.698 228.022 32.698C227.529 32.698 227.223 32.3533 227.223 31.8309H228.771C228.978 31.8309 228.978 31.6532 228.978 31.4967C228.978 31.1414 228.811 30.4712 227.974 30.4712C227.285 30.4712 226.88 30.925 226.88 31.7324H226.878ZM228.642 31.5354H227.223C227.253 31.0728 227.508 30.7773 227.972 30.7773C228.514 30.7773 228.642 31.1625 228.642 31.5354Z" fill="white"/>
<path d="M251.183 69.6914H216.175V71.7019H251.183V69.6914Z" fill="#6564AC"/>
<path d="M241.609 76.0156H230.808V78.0261H241.609V76.0156Z" fill="#6564AC"/>
<path d="M236.585 82.6602H216.175V84.6618H236.585V82.6602Z" fill="#6564AC"/>
<path d="M227.933 76.0156H216.175V78.0261H227.933V76.0156Z" fill="#6564AC"/>
<path d="M247.8 88.207H216.175V90.2087H247.8V88.207Z" fill="#6564AC"/>
<path d="M251.585 82.6602H238.989V84.6618H251.585V82.6602Z" fill="#6564AC"/>
<path fill-rule="evenodd" clip-rule="evenodd" d="M85.7432 39.7891H107.1C107.811 39.7891 108.381 40.3713 108.381 41.0801V74.3431C108.381 75.0519 107.809 75.6341 107.1 75.6341H85.7432C85.0344 75.6341 84.4521 75.0519 84.4521 74.3431V41.0801C84.4521 40.3713 85.0344 39.7891 85.7432 39.7891Z" fill="url(#paint7_linear_1_9763)"/>
<path d="M106.697 45.418H85.9307V49.5778H106.697V45.418Z" fill="#E6E6E6"/>
<path fill-rule="evenodd" clip-rule="evenodd" d="M98.7814 41.7188H106.104C106.429 41.7188 106.695 41.9843 106.695 42.3097V43.1962C106.695 43.5216 106.429 43.7978 106.104 43.7978H98.7814C98.456 43.7978 98.1904 43.5216 98.1904 43.1962V42.3097C98.1904 41.9843 98.456 41.7188 98.7814 41.7188Z" fill="#F7A271"/>
<path d="M108.381 51.3984H84.4521V52.1864H108.381V51.3984Z" fill="#F7A271"/>
<path fill-rule="evenodd" clip-rule="evenodd" d="M88.3451 55.1537H92.278C92.3959 55.1537 92.5049 55.0552 92.5049 54.9268V54.2074C92.5049 54.079 92.3959 53.9805 92.278 53.9805H88.3451C88.2167 53.9805 88.1182 54.079 88.1182 54.2074V54.9268C88.1182 55.0552 88.2167 55.1537 88.3451 55.1537Z" fill="#F2F2F2"/>
<path fill-rule="evenodd" clip-rule="evenodd" d="M94.4564 55.1537H98.3788C98.5072 55.1537 98.6145 55.0552 98.6145 54.9268V54.2074C98.6145 54.079 98.5054 53.9805 98.3788 53.9805H94.4564C94.328 53.9805 94.2295 54.079 94.2295 54.2074V54.9268C94.2295 55.0552 94.328 55.1537 94.4564 55.1537Z" fill="#F2F2F2"/>
<path fill-rule="evenodd" clip-rule="evenodd" d="M100.567 55.1537H104.489C104.617 55.1537 104.716 55.0552 104.716 54.9268V54.2074C104.716 54.079 104.617 53.9805 104.489 53.9805H100.567C100.438 53.9805 100.329 54.079 100.329 54.2074V54.9268C100.329 55.0552 100.438 55.1537 100.567 55.1537Z" fill="#F2F2F2"/>
<path fill-rule="evenodd" clip-rule="evenodd" d="M88.4527 57.0469H90.4438C90.7991 57.0469 91.0841 57.3336 91.0841 57.6783V59.6694C91.0841 60.0247 90.7991 60.3097 90.4438 60.3097H88.4527C88.108 60.3097 87.8213 60.0247 87.8213 59.6694V57.6783C87.8213 57.3336 88.108 57.0469 88.4527 57.0469Z" fill="#F2F2F2"/>
<path fill-rule="evenodd" clip-rule="evenodd" d="M88.4527 61.2383H90.4438C90.7991 61.2383 91.0841 61.5232 91.0841 61.8785V63.8696C91.0841 64.2144 90.7991 64.5011 90.4438 64.5011H88.4527C88.108 64.5011 87.8213 64.2161 87.8213 63.8696V61.8785C87.8213 61.5232 88.108 61.2383 88.4527 61.2383Z" fill="#F2F2F2"/>
<path fill-rule="evenodd" clip-rule="evenodd" d="M88.4527 65.4414H90.4438C90.7991 65.4414 91.0841 65.7369 91.0841 66.0817V68.0728C91.0841 68.4281 90.7991 68.713 90.4438 68.713H88.4527C88.108 68.713 87.8213 68.4263 87.8213 68.0728V66.0817C87.8213 65.7369 88.108 65.4414 88.4527 65.4414Z" fill="#F2F2F2"/>
<path fill-rule="evenodd" clip-rule="evenodd" d="M88.4527 69.6523H90.4438C90.7991 69.6523 91.0841 69.939 91.0841 70.2838V72.2749C91.0841 72.6302 90.7991 72.9151 90.4438 72.9151H88.4527C88.108 72.9151 87.8213 72.6284 87.8213 72.2749V70.2838C87.8213 69.939 88.108 69.6523 88.4527 69.6523Z" fill="#F2F2F2"/>
<path fill-rule="evenodd" clip-rule="evenodd" d="M93.0856 57.0469H95.0767C95.432 57.0469 95.7169 57.3336 95.7169 57.6783V59.6694C95.7169 60.0247 95.432 60.3097 95.0767 60.3097H93.0856C92.7408 60.3097 92.4541 60.0247 92.4541 59.6694V57.6783C92.4541 57.3336 92.739 57.0469 93.0856 57.0469Z" fill="#F2F2F2"/>
<path fill-rule="evenodd" clip-rule="evenodd" d="M93.0856 61.2383H95.0767C95.432 61.2383 95.7169 61.5232 95.7169 61.8785V63.8696C95.7169 64.2144 95.432 64.5011 95.0767 64.5011H93.0856C92.7408 64.5011 92.4541 64.2161 92.4541 63.8696V61.8785C92.4541 61.5232 92.739 61.2383 93.0856 61.2383Z" fill="#F2F2F2"/>
<path fill-rule="evenodd" clip-rule="evenodd" d="M93.1041 65.4414H95.0847C95.44 65.4414 95.7249 65.7369 95.7249 66.0817V68.0728C95.7249 68.4281 95.44 68.713 95.0847 68.713H93.1041C92.7488 68.713 92.4639 68.4263 92.4639 68.0728V66.0817C92.4639 65.7369 92.7488 65.4414 93.1041 65.4414Z" fill="#F2F2F2"/>
<path fill-rule="evenodd" clip-rule="evenodd" d="M93.1041 69.6523H95.0847C95.44 69.6523 95.7249 69.939 95.7249 70.2838V72.2749C95.7249 72.6302 95.44 72.9151 95.0847 72.9151H93.1041C92.7488 72.9151 92.4639 72.6284 92.4639 72.2749V70.2838C92.4639 69.939 92.7488 69.6523 93.1041 69.6523Z" fill="#F2F2F2"/>
<path fill-rule="evenodd" clip-rule="evenodd" d="M97.7154 57.0469H99.7065C100.062 57.0469 100.347 57.3336 100.347 57.6783V59.6694C100.347 60.0247 100.06 60.3097 99.7065 60.3097H97.7154C97.3707 60.3097 97.0752 60.0247 97.0752 59.6694V57.6783C97.0752 57.3336 97.3707 57.0469 97.7154 57.0469Z" fill="#F2F2F2"/>
<path fill-rule="evenodd" clip-rule="evenodd" d="M97.7154 61.2383H99.7065C100.062 61.2383 100.347 61.5232 100.347 61.8785V63.8696C100.347 64.2144 100.06 64.5011 99.7065 64.5011H97.7154C97.3707 64.5011 97.0752 64.2161 97.0752 63.8696V61.8785C97.0752 61.5232 97.3707 61.2383 97.7154 61.2383Z" fill="#F2F2F2"/>
<path fill-rule="evenodd" clip-rule="evenodd" d="M97.7447 65.4414H99.7358C100.081 65.4414 100.367 65.7369 100.367 66.0817V68.0728C100.367 68.4281 100.081 68.713 99.7358 68.713H97.7447C97.3894 68.713 97.1045 68.4263 97.1045 68.0728V66.0817C97.1045 65.7369 97.3894 65.4414 97.7447 65.4414Z" fill="#F2F2F2"/>
<path fill-rule="evenodd" clip-rule="evenodd" d="M97.7447 69.6523H99.7358C100.081 69.6523 100.367 69.939 100.367 70.2838V72.2749C100.367 72.6302 100.081 72.9151 99.7358 72.9151H97.7447C97.3894 72.9151 97.1045 72.6284 97.1045 72.2749V70.2838C97.1045 69.939 97.3894 69.6523 97.7447 69.6523Z" fill="#F2F2F2"/>
<path fill-rule="evenodd" clip-rule="evenodd" d="M102.346 57.0469H104.337C104.682 57.0469 104.978 57.3336 104.978 57.6783V59.6694C104.978 60.0247 104.682 60.3097 104.337 60.3097H102.346C101.991 60.3097 101.706 60.0247 101.706 59.6694V57.6783C101.706 57.3336 101.991 57.0469 102.346 57.0469Z" fill="#F2F2F2"/>
<path fill-rule="evenodd" clip-rule="evenodd" d="M102.346 61.2383H104.337C104.682 61.2383 104.978 61.5232 104.978 61.8785V63.8696C104.978 64.2144 104.682 64.5011 104.337 64.5011H102.346C101.991 64.5011 101.706 64.2161 101.706 63.8696V61.8785C101.706 61.5232 101.991 61.2383 102.346 61.2383Z" fill="#F2F2F2"/>
<path fill-rule="evenodd" clip-rule="evenodd" d="M105.02 70.2849V72.276C105.02 72.6313 104.733 72.9162 104.379 72.9162H102.388C102.044 72.9162 101.757 72.6295 101.757 72.276V66.3431C101.757 65.9984 102.044 65.7029 102.388 65.7029H104.379C104.735 65.7029 105.02 65.9984 105.02 66.3431V70.2849Z" fill="#F7A271"/>
<path fill-rule="evenodd" clip-rule="evenodd" d="M104.044 47.3256V46.5165C104.054 46.3195 104.162 46.1418 104.329 46.0134C104.496 45.8956 104.712 45.8164 104.969 45.8164C105.226 45.8164 105.442 45.8956 105.609 46.0134C105.776 46.1418 105.875 46.3195 105.886 46.5165V47.3256C105.845 47.3555 105.806 47.3643 105.757 47.3643C105.708 47.3643 105.667 47.3537 105.629 47.3256V46.5464C105.629 46.3986 105.55 46.2702 105.432 46.1717C105.314 46.0838 105.147 46.024 104.969 46.024C104.783 46.024 104.624 46.0838 104.496 46.1717C104.378 46.2702 104.31 46.3986 104.31 46.5464V47.3256C104.271 47.3555 104.222 47.3643 104.181 47.3643C104.132 47.3643 104.093 47.3537 104.044 47.3256ZM104.044 47.6211V48.4302C104.054 48.6272 104.162 48.8048 104.329 48.9332C104.496 49.0511 104.712 49.1302 104.969 49.1302C105.226 49.1302 105.442 49.0511 105.609 48.9332C105.776 48.8048 105.875 48.6272 105.886 48.4302V47.6211C105.845 47.5912 105.806 47.5824 105.757 47.5824C105.708 47.5824 105.667 47.5929 105.629 47.6211V48.4003C105.629 48.548 105.55 48.6764 105.432 48.7749C105.314 48.8629 105.147 48.9227 104.969 48.9227C104.783 48.9227 104.624 48.8629 104.496 48.7749C104.378 48.6764 104.31 48.548 104.31 48.4003V47.6211C104.271 47.5912 104.222 47.5824 104.181 47.5824C104.132 47.5824 104.093 47.5929 104.044 47.6211Z" fill="#666666"/>
</g>
<defs>
<filter id="filter0_d_1_9763" x="13.4404" y="21.332" width="472.548" height="297.67" filterUnits="userSpaceOnUse" color-interpolation-filters="sRGB">
<feFlood flood-opacity="0" result="BackgroundImageFix"/>
<feColorMatrix in="SourceAlpha" type="matrix" values="0 0 0 0 0 0 0 0 0 0 0 0 0 0 0 0 0 0 127 0" result="hardAlpha"/>
<feOffset dy="4"/>
<feGaussianBlur stdDeviation="2"/>
<feComposite in2="hardAlpha" operator="out"/>
<feColorMatrix type="matrix" values="0 0 0 0 0 0 0 0 0 0 0 0 0 0 0 0 0 0 0.25 0"/>
<feBlend mode="normal" in2="BackgroundImageFix" result="effect1_dropShadow_1_9763"/>
<feBlend mode="normal" in="SourceGraphic" in2="effect1_dropShadow_1_9763" result="shape"/>
</filter>
<filter id="filter1_d_1_9763" x="35.9375" y="0.81543" width="254.944" height="118.683" filterUnits="userSpaceOnUse" color-interpolation-filters="sRGB">
<feFlood flood-opacity="0" result="BackgroundImageFix"/>
<feColorMatrix in="SourceAlpha" type="matrix" values="0 0 0 0 0 0 0 0 0 0 0 0 0 0 0 0 0 0 127 0" result="hardAlpha"/>
<feOffset dy="4"/>
<feGaussianBlur stdDeviation="2"/>
<feComposite in2="hardAlpha" operator="out"/>
<feColorMatrix type="matrix" values="0 0 0 0 0 0 0 0 0 0 0 0 0 0 0 0 0 0 0.25 0"/>
<feBlend mode="normal" in2="BackgroundImageFix" result="effect1_dropShadow_1_9763"/>
<feBlend mode="normal" in="SourceGraphic" in2="effect1_dropShadow_1_9763" result="shape"/>
</filter>
<linearGradient id="paint0_linear_1_9763" x1="260.886" y1="22.332" x2="260.886" y2="258.973" gradientUnits="userSpaceOnUse">
<stop stop-color="#BDBCBC"/>
<stop offset="1" stop-color="#EAEAEA"/>
</linearGradient>
<linearGradient id="paint1_linear_1_9763" x1="260.886" y1="258.973" x2="260.886" y2="22.332" gradientUnits="userSpaceOnUse">
<stop stop-color="#B0BBC9"/>
<stop offset="1" stop-color="#D5DBE2"/>
</linearGradient>
<linearGradient id="paint2_linear_1_9763" x1="122.517" y1="162.124" x2="168.233" y2="168.19" gradientUnits="userSpaceOnUse">
<stop stop-color="#3EF4A7"/>
<stop offset="1" stop-color="#096EE0"/>
</linearGradient>
<linearGradient id="paint3_linear_1_9763" x1="200.847" y1="258.974" x2="200.847" y2="130.742" gradientUnits="userSpaceOnUse">
<stop stop-color="#22272F"/>
<stop offset="1" stop-color="#394453"/>
</linearGradient>
<linearGradient id="paint4_linear_1_9763" x1="244.907" y1="216.753" x2="284.864" y2="228.028" gradientUnits="userSpaceOnUse">
<stop stop-color="#3EF4A7"/>
<stop offset="1" stop-color="#096EE0"/>
</linearGradient>
<linearGradient id="paint5_linear_1_9763" x1="305.472" y1="142.567" x2="348.163" y2="146.937" gradientUnits="userSpaceOnUse">
<stop stop-color="#3EF4A7"/>
<stop offset="1" stop-color="#096EE0"/>
</linearGradient>
<linearGradient id="paint6_linear_1_9763" x1="382.505" y1="258.964" x2="382.505" y2="161.551" gradientUnits="userSpaceOnUse">
<stop stop-color="#22272F"/>
<stop offset="1" stop-color="#394453"/>
</linearGradient>
<linearGradient id="paint7_linear_1_9763" x1="96.4163" y1="39.7891" x2="96.4163" y2="75.6341" gradientUnits="userSpaceOnUse">
<stop stop-color="#6E6E6E"/>
<stop offset="1" stop-color="#D4D4D4"/>
</linearGradient>
</defs>
</svg>
