<svg width="552" height="415" viewBox="0 0 552 415" fill="none" xmlns="http://www.w3.org/2000/svg">
<path d="M0 3.48007C0 1.61651 1.15699 0.141884 3.02054 0.141884H8.75472L28.5516 0.137461L101.628 0.125299H450.941L527.747 0.138567L545.545 0.141884C547.053 0.141884 550.398 -0.258358 551.7 0.285617C551.882 0.367719 551.999 0.548953 551.999 0.748736V414.248C551.999 414.449 551.882 414.632 551.7 414.716C550.398 415.259 547.053 414.858 545.545 414.858L527.747 414.862L450.941 414.874H101.629L28.5528 414.862L8.75582 414.858H3.02054C1.15674 414.858 0 413.381 0 411.517V3.48007Z" fill="url(#paint0_linear_51_18893)"/>
<defs>
<linearGradient id="paint0_linear_51_18893" x1="275.999" y1="415.001" x2="275.999" y2="0" gradientUnits="userSpaceOnUse">
<stop stop-color="#B0BBC9"/>
<stop offset="1" stop-color="#D5DBE2"/>
</linearGradient>
</defs>
</svg>
