<svg width="385" height="289" viewBox="0 0 385 289" fill="none" xmlns="http://www.w3.org/2000/svg">
<g filter="url(#filter0_d_51_18527)" transform="matrix(0.85 0 0 0.75 48.13 36.13)">
<path d="M245.519 236.18H196.013V251.437H245.519V236.18Z" fill="#363F48"/>
<path fill-rule="evenodd" clip-rule="evenodd" d="M124.246 88.6035H317.281C319.158 88.6035 320.685 90.1302 320.685 92.0073V236.017C320.685 237.894 319.158 239.421 317.281 239.421H124.246C122.369 239.421 120.842 237.894 120.842 236.017V92.0073C120.842 90.1302 122.369 88.6035 124.246 88.6035Z" fill="url(#paint0_linear_51_18527)"/>
<path fill-rule="evenodd" clip-rule="evenodd" d="M129.37 97.2402H312.16C313.288 97.2402 314.201 98.1524 314.201 99.2806V213.952C314.201 215.076 313.288 215.988 312.16 215.988H129.37C128.242 215.988 127.33 215.076 127.33 213.952V99.2806C127.33 98.1524 128.242 97.2402 129.37 97.2402Z" fill="url(#paint1_linear_51_18527)"/>
<path fill-rule="evenodd" clip-rule="evenodd" d="M185.341 248.248H256.191C258.068 248.248 259.595 249.775 259.595 251.652V252.938C259.595 254.816 258.068 256.342 256.191 256.342H185.341C183.464 256.342 181.932 254.816 181.932 252.938V251.652C181.932 249.775 183.459 248.248 185.341 248.248Z" fill="url(#paint2_linear_51_18527)"/>
<path fill-rule="evenodd" clip-rule="evenodd" d="M220.766 229.747C222.509 229.747 223.93 228.297 223.93 226.554C223.93 224.812 222.509 223.391 220.766 223.391C219.023 223.391 217.602 224.812 217.602 226.554C217.602 228.297 219.023 229.747 220.766 229.747Z" fill="white"/>
<path fill-rule="evenodd" clip-rule="evenodd" d="M26.8713 256.349H318.083C320.311 256.349 322.106 258.144 322.106 260.372V261.927C322.106 264.126 320.311 265.95 318.083 265.95H26.8713C24.6726 265.95 22.8483 264.126 22.8483 261.927V260.372C22.8483 258.144 24.6726 256.349 26.8713 256.349Z" fill="#C3C3C3"/>
<path d="M28.8819 97.7488H60.9033C64.4991 97.7488 67.4179 94.6091 67.4179 90.7493V88.4977V66.294C67.4179 65.9195 67.2835 65.5691 67.0435 65.329C66.8274 65.089 66.5058 64.9258 66.1601 64.9258H65.3296V90.7493C65.3296 92.0647 64.8207 93.2457 64.0142 94.1002C63.2076 94.9596 62.1083 95.4973 60.9033 95.4973H28.8819C24.8877 95.4973 21.6423 99.0114 21.6423 103.299C21.6423 107.59 24.8877 111.1 28.8819 111.1H159.728C161.125 111.1 162.411 111.714 163.347 112.708C164.288 113.731 164.874 115.094 164.874 116.626C164.874 118.157 164.284 119.525 163.347 120.543C162.411 121.537 161.125 122.151 159.728 122.151H49.3717V122.18C49.3189 122.18 49.2661 122.151 49.1845 122.151H47.9267C43.9324 122.151 40.6583 125.665 40.6583 129.957C40.6583 134.249 43.9324 137.763 47.9267 137.763H193.924C195.345 137.763 196.631 138.378 197.572 139.372C198.513 140.39 199.075 141.787 199.075 143.289C199.075 144.816 198.513 146.213 197.572 147.207C196.636 148.2 195.35 148.844 193.924 148.844H63.4237C58.7813 148.844 55.0031 152.891 55.0031 157.879V235.973C55.0031 236.833 55.3247 237.61 55.8624 238.172C56.2129 238.547 56.6401 238.815 57.0962 238.979V157.884C57.0962 156.007 57.8211 154.317 58.9733 153.083C60.0439 151.902 61.5466 151.153 63.2124 151.1H193.977C195.158 151.1 196.286 150.778 197.275 150.241H197.246C197.918 149.866 198.533 149.381 199.041 148.82C200.357 147.399 201.187 145.469 201.187 143.347C201.187 139.084 197.942 135.622 193.972 135.622H168.657V135.517H47.9267C46.5057 135.517 45.219 134.873 44.2781 133.88C43.3659 132.862 42.7754 131.494 42.7754 129.962C42.7754 128.431 43.3659 127.067 44.2781 126.045C45.2142 125.051 46.5057 124.436 47.9267 124.436H159.728C163.698 124.436 166.967 120.922 166.967 116.63C166.967 114.513 166.19 112.583 164.874 111.162L164.85 111.133C164.207 110.437 163.453 109.9 162.623 109.496H162.651C161.821 109.093 160.933 108.877 159.997 108.824H28.8819C27.4897 108.824 26.1983 108.21 25.2621 107.216C24.3212 106.198 23.7307 104.83 23.7307 103.303C23.7307 101.777 24.3212 100.408 25.2621 99.3859C26.1983 98.3921 27.4897 97.7488 28.8819 97.7488Z" fill="white"/>
<path fill-rule="evenodd" clip-rule="evenodd" d="M99.6548 222.314C99.6548 224.139 99.4964 225.934 99.1987 227.677C100.725 226.899 102.444 226.472 104.268 226.472C110.461 226.472 115.478 231.513 115.478 237.706C115.478 243.899 110.461 248.944 104.268 248.944C99.3091 248.944 95.1228 245.752 93.6202 241.302C87.6672 249.722 77.8256 255.248 66.7213 255.248C48.5407 255.248 33.8167 240.5 33.8167 222.314H99.6548ZM104.268 230.226C100.14 230.226 96.7887 233.577 96.7887 237.706C96.7887 241.834 100.14 245.161 104.268 245.161C108.397 245.161 111.724 241.834 111.724 237.706C111.724 233.577 108.373 230.226 104.268 230.226Z" fill="#FF9E58"/>
<path fill-rule="evenodd" clip-rule="evenodd" d="M39.2334 253.05H92.0374C93.0312 253.05 93.8329 253.88 93.8329 254.845V256.641H37.4331V254.845C37.4331 253.88 38.2636 253.05 39.2286 253.05H39.2334Z" fill="#FF9E58"/>
<path fill-rule="evenodd" clip-rule="evenodd" d="M33.7937 123.652C25.9636 123.652 19.3914 128.693 17.543 135.477C9.92898 136.307 4 142.371 4 149.745C4 157.68 10.8651 164.118 19.3145 164.118H58.6043C65.8967 164.118 71.8257 158.568 71.8257 151.703C71.8257 146.61 68.5275 142.236 63.8371 140.33C63.8371 140.225 63.8659 140.143 63.8659 140.061C63.8659 135.237 59.6845 131.29 54.5044 131.29C52.4929 131.29 50.6446 131.881 49.1131 132.899C46.4583 127.454 40.6109 123.647 33.7985 123.647L33.7937 123.652Z" fill="url(#paint3_linear_51_18527)"/>
<path fill-rule="evenodd" clip-rule="evenodd" d="M66.5361 187.239C60.6072 187.239 55.6479 191.046 54.2269 196.198C48.4611 196.841 43.982 201.426 43.982 207.004C43.982 213.01 49.1861 217.864 55.5663 217.864H85.3073C90.833 217.864 95.3121 213.653 95.3121 208.478C95.3121 204.618 92.8205 201.291 89.2775 199.87V199.683C89.2775 196.01 86.1138 193.029 82.1964 193.029C80.6937 193.029 79.2727 193.485 78.1205 194.263C76.1377 190.134 71.6826 187.239 66.5361 187.239Z" fill="url(#paint4_linear_51_18527)"/>
<path fill-rule="evenodd" clip-rule="evenodd" d="M177.054 0H273.569L296.738 23.1686V215.988H177.054V0Z" fill="#F5F5F5"/>
<path d="M262.25 48.5361H192.74V53.0681H262.25V48.5361Z" fill="#808080"/>
<path d="M285.717 57.3887H238.866V61.2245H285.717V57.3887Z" fill="#808080"/>
<path d="M242.355 65.54H195.475V69.3999H242.355V65.54Z" fill="#808080"/>
<path d="M242.355 82.5449H195.475V86.4096H242.355V82.5449Z" fill="#808080"/>
<path d="M242.355 89.3516H195.475V93.2114H242.355V89.3516Z" fill="#808080"/>
<path d="M261.21 89.3516H246.38V93.2114H261.21V89.3516Z" fill="#FF9E58"/>
<path d="M281.156 89.3516H266.326V93.2114H281.156V89.3516Z" fill="#808080"/>
<path d="M281.162 82.7842H247.667V86.62H281.162V82.7842Z" fill="#808080"/>
<path d="M278.05 65.54H252.788V69.3999H278.05V65.54Z" fill="#808080"/>
<path d="M212.318 57.3887H198.775V61.2245H212.318V57.3887Z" fill="#808080"/>
<path d="M231.731 57.3887H218.188V61.2245H231.731V57.3887Z" fill="#FF9E58"/>
<path d="M280.436 48.5361H269.817V53.0681H280.436V48.5361Z" fill="#FF9E58"/>
<path d="M210.415 98.877H195.475V102.737H210.415V98.877Z" fill="#808080"/>
<path d="M230.364 98.877H215.429V102.737H230.364V98.877Z" fill="#FF9E58"/>
<path d="M261.207 98.877H236.963V102.737H261.207V98.877Z" fill="#808080"/>
<path fill-rule="evenodd" clip-rule="evenodd" d="M296.738 23.1686H273.569V0L296.738 23.1686Z" fill="#B3B3B3"/>
<path d="M271.823 126.496H192.74V131.028H271.823V126.496Z" fill="#808080"/>
<path d="M285.717 135.348H238.866V139.183H285.717V135.348Z" fill="#808080"/>
<path d="M242.355 143.501H195.475V147.361H242.355V143.501Z" fill="#808080"/>
<path d="M242.355 160.5H195.475V164.365H242.355V160.5Z" fill="#808080"/>
<path d="M242.355 167.312H195.475V171.172H242.355V167.312Z" fill="#808080"/>
<path d="M261.21 167.312H246.38V171.172H261.21V167.312Z" fill="#FF9E58"/>
<path d="M281.156 167.312H266.326V171.172H281.156V167.312Z" fill="#808080"/>
<path d="M281.162 160.745H247.667V164.581H281.162V160.745Z" fill="#808080"/>
<path d="M278.05 143.501H252.788V147.361H278.05V143.501Z" fill="#808080"/>
<path d="M212.318 135.348H198.775V139.183H212.318V135.348Z" fill="#808080"/>
<path d="M231.731 135.348H218.188V139.183H231.731V135.348Z" fill="#FF9E58"/>
<path d="M210.415 176.832H195.475V180.692H210.415V176.832Z" fill="#808080"/>
<path d="M230.364 176.832H215.429V180.692H230.364V176.832Z" fill="#FF9E58"/>
<path d="M261.207 176.832H236.963V180.692H261.207V176.832Z" fill="#808080"/>
<path fill-rule="evenodd" clip-rule="evenodd" d="M354.292 177.744C357.672 179.112 360.701 181.148 363.222 183.668L373.011 178.815L380.548 193.966L370.759 198.82C371.028 200.562 371.081 202.387 370.975 204.211C370.87 206.035 370.572 207.831 370.116 209.521L379.209 215.555L369.876 229.66L360.759 223.625C357.941 225.824 354.7 227.461 351.157 228.397L350.485 239.31L333.591 238.263L334.287 227.375C330.884 226.007 327.85 223.971 325.358 221.451L315.569 226.304L308.008 211.153L317.797 206.299C317.557 204.557 317.475 202.732 317.581 200.908C317.715 199.084 317.984 197.288 318.464 195.598L309.347 189.564L318.709 175.459L327.802 181.494C330.62 179.295 333.889 177.634 337.403 176.693L338.075 165.805L354.969 166.851L354.297 177.739L354.292 177.744Z" fill="#FEFEFE"/>
<path fill-rule="evenodd" clip-rule="evenodd" d="M344.802 194.13C349.468 194.399 353.006 198.422 352.742 203.088C352.444 207.755 348.421 211.293 343.76 211C339.093 210.731 335.555 206.708 335.848 202.042C336.141 197.375 340.14 193.837 344.806 194.13H344.802ZM345.31 185.954C354.48 186.516 361.456 194.404 360.894 203.602C360.332 212.776 352.444 219.747 343.275 219.185C334.077 218.624 327.106 210.712 327.668 201.538C328.229 192.368 336.141 185.392 345.315 185.959L345.31 185.954Z" fill="#363F48"/>
<path fill-rule="evenodd" clip-rule="evenodd" d="M324.282 243.074C325.65 245.22 326.533 247.577 326.936 250.02L334.445 251.201L332.621 262.843L325.112 261.634C324.55 262.733 323.854 263.78 323.072 264.773C322.27 265.762 321.382 266.65 320.417 267.428L323.153 274.533L312.184 278.744L309.447 271.662C306.98 271.773 304.459 271.394 302.097 270.481L297.325 276.382L288.18 269.008L292.952 263.107C291.583 260.961 290.671 258.575 290.268 256.137L282.76 254.956L284.613 243.343L292.092 244.524C292.654 243.424 293.35 242.378 294.157 241.384C294.958 240.39 295.847 239.507 296.783 238.729L294.075 231.648L305.045 227.438L307.752 234.519C310.249 234.413 312.74 234.788 315.126 235.671L319.898 229.771L329.044 237.174L324.272 243.074H324.282Z" fill="#FEFEFE"/>
<path fill-rule="evenodd" clip-rule="evenodd" d="M312.323 248.518C314.844 250.553 315.218 254.259 313.182 256.78C311.142 259.3 307.446 259.703 304.925 257.663C302.405 255.623 302.001 251.897 304.042 249.377C306.077 246.857 309.779 246.482 312.328 248.518H312.323ZM315.89 244.091C320.854 248.114 321.632 255.383 317.609 260.371C313.586 265.335 306.317 266.084 301.329 262.089C296.365 258.066 295.592 250.774 299.611 245.81C303.634 240.846 310.926 240.068 315.89 244.091Z" fill="#363F48"/>
<path fill-rule="evenodd" clip-rule="evenodd" d="M367.969 253.319C369.203 254.711 370.139 256.348 370.73 258.12H376.361V266.862H370.73C370.432 267.721 370.034 268.576 369.577 269.406C369.097 270.213 368.56 270.962 367.94 271.658L370.758 276.54L363.197 280.914L360.355 276.031C358.56 276.406 356.683 276.406 354.834 276.031L351.992 280.914L344.431 276.54L347.249 271.634C345.991 270.242 345.079 268.605 344.488 266.833H338.833L338.862 258.091H344.493C344.791 257.232 345.165 256.372 345.645 255.542C346.13 254.735 346.663 253.986 347.283 253.29L344.44 248.408L352.031 244.034L354.849 248.917C356.673 248.566 358.55 248.542 360.398 248.917L363.216 244.034L370.806 248.408L367.988 253.314L367.969 253.319Z" fill="#FEFEFE"/>
<path fill-rule="evenodd" clip-rule="evenodd" d="M359.789 258.681C361.882 259.886 362.602 262.569 361.397 264.663C360.164 266.756 357.509 267.481 355.416 266.271C353.322 265.066 352.598 262.382 353.807 260.289C355.012 258.196 357.696 257.471 359.789 258.681ZM361.906 255.032C366.011 257.394 367.432 262.675 365.046 266.78C362.66 270.908 357.403 272.305 353.298 269.919C349.17 267.557 347.773 262.277 350.135 258.172C352.521 254.043 357.806 252.646 361.906 255.032Z" fill="#363F48"/>
<path fill-rule="evenodd" clip-rule="evenodd" d="M65 66.9289C82.6273 66.9289 97 52.5384 97 34.9141C97 17.2897 82.6273 2.91406 65 2.91406C47.3727 2.91406 33 17.2867 33 34.9141C33 52.5414 47.3727 66.9289 65 66.9289Z" fill="url(#paint5_linear_51_18527)"/>
<path fill-rule="evenodd" clip-rule="evenodd" d="M64.9993 61.551C79.663 61.551 91.6362 49.5956 91.6362 34.9141C91.6362 20.2326 79.663 8.29492 64.9993 8.29492C50.3356 8.29492 38.3623 20.2504 38.3623 34.9141C38.3623 49.5778 50.3356 61.551 64.9993 61.551Z" fill="white"/>
<path d="M66.4549 14.3232H63.5418V34.9142H66.4549V14.3232Z" fill="#43ACC4"/>
<path fill-rule="evenodd" clip-rule="evenodd" d="M64.3651 33.7471L65.6687 36.3514L52.7689 42.828L51.4504 40.2237L64.3651 33.7471Z" fill="#43ACC4"/>
<path fill-rule="evenodd" clip-rule="evenodd" d="M65.0007 38.7324C67.1091 38.7324 68.8196 37.019 68.8196 34.9136C68.8196 32.8082 67.1062 31.0947 65.0007 31.0947C62.8953 31.0947 61.1819 32.826 61.1819 34.9136C61.1819 37.0012 62.8953 38.7324 65.0007 38.7324Z" fill="#43ACC4"/>
<path d="M26.98 143.134C26.3933 143.867 26.1 144.867 26.1 146.134C26.1 147.401 26.3933 148.407 26.98 149.154C27.5667 149.887 28.36 150.254 29.36 150.254C30.36 150.254 31.1533 149.887 31.74 149.154C32.3267 148.407 32.62 147.401 32.62 146.134C32.62 144.867 32.3267 143.867 31.74 143.134C31.1533 142.387 30.36 142.014 29.36 142.014C28.36 142.014 27.5667 142.387 26.98 143.134ZM36.76 154.594L33.26 155.934L29.28 153.054C27.3067 153.041 25.7333 152.401 24.56 151.134C23.3867 149.867 22.8 148.201 22.8 146.134C22.8 144.067 23.3933 142.401 24.58 141.134C25.78 139.854 27.3733 139.214 29.36 139.214C31.36 139.214 32.9533 139.847 34.14 141.114C35.3267 142.381 35.92 144.054 35.92 146.134C35.92 147.547 35.6333 148.787 35.06 149.854C34.4867 150.921 33.68 151.734 32.64 152.294L36.76 154.594ZM42.0642 147.674H45.3042L45.1642 147.194C44.7776 145.887 44.4576 144.774 44.2042 143.854C43.9642 142.934 43.8176 142.341 43.7642 142.074L43.6842 141.674C43.5776 142.407 43.0842 144.247 42.2042 147.194L42.0642 147.674ZM46.8642 152.914L46.0442 150.154H41.3242L40.5042 152.914H37.2842L41.7842 139.434H45.6642L50.1642 152.914H46.8642Z" fill="white"/>
<path fill-rule="evenodd" clip-rule="evenodd" d="M62.2381 204.552L76.7637 204.552L77.2961 203.665L78.9273 200.914L82.2009 200.914L85.4859 200.914L87 203.965L86.5412 203.965L82.5219 203.965L80.549 206.413L82.5219 208.874L86.5412 208.874L87 208.874L85.4859 211.914L82.2009 211.914L78.9273 211.914L77.2961 209.164L76.7637 208.274L62.2381 208.274L61.7039 209.164L60.0727 211.914L56.7991 211.914L53.5235 211.914L52 208.874L52.4569 208.874L56.4781 208.874L58.451 206.413L56.4781 203.965L52.4569 203.965L52 203.965L53.5235 200.914L56.7991 200.914L60.0727 200.914L61.7039 203.665L62.2381 204.552Z" fill="white"/>
</g>
<defs>
<filter id="filter0_d_51_18527" x="0" y="0" width="384.548" height="288.914" filterUnits="userSpaceOnUse" color-interpolation-filters="sRGB">
<feFlood flood-opacity="0" result="BackgroundImageFix"/>
<feColorMatrix in="SourceAlpha" type="matrix" values="0 0 0 0 0 0 0 0 0 0 0 0 0 0 0 0 0 0 127 0" result="hardAlpha"/>
<feOffset dy="4"/>
<feGaussianBlur stdDeviation="2"/>
<feComposite in2="hardAlpha" operator="out"/>
<feColorMatrix type="matrix" values="0 0 0 0 0 0 0 0 0 0 0 0 0 0 0 0 0 0 0.25 0"/>
<feBlend mode="normal" in2="BackgroundImageFix" result="effect1_dropShadow_51_18527"/>
<feBlend mode="normal" in="SourceGraphic" in2="effect1_dropShadow_51_18527" result="shape"/>
</filter>
<linearGradient id="paint0_linear_51_18527" x1="220.764" y1="239.421" x2="220.764" y2="88.6035" gradientUnits="userSpaceOnUse">
<stop stop-color="#B0BBC9"/>
<stop offset="1" stop-color="#D5DBE2"/>
</linearGradient>
<linearGradient id="paint1_linear_51_18527" x1="127.33" y1="137.788" x2="267.367" y2="258.612" gradientUnits="userSpaceOnUse">
<stop stop-color="#3EF4A7"/>
<stop offset="1" stop-color="#096EE0"/>
</linearGradient>
<linearGradient id="paint2_linear_51_18527" x1="220.764" y1="256.342" x2="220.764" y2="248.248" gradientUnits="userSpaceOnUse">
<stop stop-color="#B0BBC9"/>
<stop offset="1" stop-color="#D5DBE2"/>
</linearGradient>
<linearGradient id="paint3_linear_51_18527" x1="4" y1="137.467" x2="52.0749" y2="181.64" gradientUnits="userSpaceOnUse">
<stop stop-color="#3EF4A7"/>
<stop offset="1" stop-color="#096EE0"/>
</linearGradient>
<linearGradient id="paint4_linear_51_18527" x1="43.982" y1="197.696" x2="80.3608" y2="231.127" gradientUnits="userSpaceOnUse">
<stop stop-color="#3EF4A7"/>
<stop offset="1" stop-color="#096EE0"/>
</linearGradient>
<linearGradient id="paint5_linear_51_18527" x1="33" y1="24.7728" x2="97.3334" y2="60.0363" gradientUnits="userSpaceOnUse">
<stop stop-color="#3EF4A7"/>
<stop offset="1" stop-color="#096EE0"/>
</linearGradient>
</defs>
</svg>




