<svg width="445" height="260" viewBox="0 0 445 260" fill="none" xmlns="http://www.w3.org/2000/svg">
<path d="M372.998 174.049C370.725 168.366 367.391 163.12 363.222 158.64C359.065 154.173 354.09 150.479 348.61 147.803C345.088 146.085 341.362 144.792 337.536 143.961C334.1 143.214 330.408 142.696 326.89 142.832C323.406 142.964 320.269 142.707 317.177 140.886C310.829 137.145 307.165 129.766 306.78 122.559C306.645 120.009 306.872 117.434 307.53 114.965C308.655 110.737 311.183 106.333 314.952 103.958C316.299 103.11 317.795 102.513 319.357 102.207C321.305 101.823 323.246 101.392 325.22 101.115C329.994 100.446 334.824 100.333 339.637 100.368C344.051 100.402 348.443 100.45 352.859 100.45C353.693 100.45 354.514 100.401 355.322 100.314C360.445 99.7489 365.054 97.4176 368.511 93.9556C372.52 89.9538 374.994 84.4065 374.994 78.2937C374.994 73.7597 373.59 69.2843 370.989 65.5726C368.769 62.4043 365.748 59.5645 362.035 58.2997C357.656 56.8074 352.747 57.3691 348.199 57.3838C338.552 57.4131 328.908 57.4021 319.261 57.4021C314.543 57.4021 310.707 53.2902 310.707 48.1963C310.707 45.6557 311.663 43.3483 313.22 41.6779C314.765 40.0203 316.897 38.9905 319.263 38.9905H325.6C327.242 38.9905 328.712 38.3278 329.792 37.2484C330.87 36.1672 331.533 34.695 331.533 33.0503C331.533 29.7736 328.874 27.1211 325.602 27.1211H276.854C275.225 27.1211 273.729 27.7838 272.662 28.8521C271.585 29.9315 270.921 31.4055 270.921 33.0503C270.921 34.438 271.399 35.7138 272.195 36.7198H215.335C213.276 36.7198 211.401 37.566 210.039 38.917C208.69 40.2791 207.845 42.157 207.845 44.2202C207.845 46.8838 209.242 49.2279 211.339 50.5423C212.492 51.2912 213.863 51.7207 215.335 51.7207H223.69C225.16 51.7207 226.835 51.4931 228.289 51.7207C232.721 52.411 234.933 58.5879 234.933 62.4263V62.6833C234.933 67.1201 232.569 71.7459 228.406 73.6128C224.971 75.1529 220.929 74.5655 217.276 74.5674C212.987 74.5674 208.697 74.5729 204.408 74.5729C195.83 74.5729 187.253 74.5674 178.674 74.5215C174.952 74.5013 172.354 75.6027 169.713 78.2478C166.685 81.2804 164.809 85.4657 164.809 90.0934C164.809 99.3487 172.299 106.849 181.541 106.849H95.6443C89.9693 106.849 84.8221 109.157 81.0828 112.889C77.3563 116.62 75.0522 121.775 75.0522 127.471C75.0522 133.56 77.688 139.034 81.8802 142.802C85.5334 146.092 90.3615 148.093 95.6443 148.093H98.1812C107.055 148.093 114.262 155.298 114.262 164.197C114.262 168.641 112.46 172.667 109.555 175.576C106.639 178.486 102.617 180.29 98.1812 180.29H63.0642C54.5206 180.29 46.7742 183.763 41.1725 189.373C37.446 193.105 34.6635 197.793 33.2301 203.034C32.495 205.661 32.1156 208.424 32.1156 211.284C32.1156 228.396 45.9659 242.277 63.0642 242.277H326.874C340.59 242.277 353.005 236.717 361.991 227.707C368.61 221.079 373.377 212.572 375.425 203.06C376.16 199.671 376.541 196.149 376.541 192.54C376.541 186.223 375.344 179.919 372.998 174.055V174.049Z" fill="white"/>
<path opacity="0.25" d="M372.998 174.049C370.725 168.366 367.391 163.12 363.222 158.64C359.065 154.173 354.09 150.479 348.61 147.803C345.088 146.085 341.362 144.792 337.536 143.961C334.1 143.214 330.408 142.696 326.89 142.832C323.406 142.964 320.269 142.707 317.177 140.886C310.829 137.145 307.165 129.766 306.78 122.559C306.645 120.009 306.872 117.434 307.53 114.965C308.655 110.737 311.183 106.333 314.952 103.958C316.299 103.11 317.795 102.513 319.357 102.207C321.305 101.823 323.246 101.392 325.22 101.115C329.994 100.446 334.824 100.333 339.637 100.368C344.051 100.402 348.443 100.45 352.859 100.45C353.693 100.45 354.514 100.401 355.322 100.314C360.445 99.7489 365.054 97.4176 368.511 93.9556C372.52 89.9538 374.994 84.4065 374.994 78.2937C374.994 73.7597 373.59 69.2843 370.989 65.5726C368.769 62.4043 365.748 59.5645 362.035 58.2998C357.656 56.8074 352.747 57.3691 348.199 57.3838C338.552 57.4131 328.908 57.4021 319.261 57.4021C314.543 57.4021 310.707 53.2902 310.707 48.1963C310.707 45.6557 311.663 43.3483 313.22 41.6779C314.765 40.0203 316.897 38.9905 319.263 38.9905H325.6C327.242 38.9905 328.712 38.3278 329.792 37.2484C330.87 36.1672 331.533 34.695 331.533 33.0503C331.533 29.7736 328.874 27.1211 325.602 27.1211H276.854C275.225 27.1211 273.729 27.7838 272.662 28.8521C271.585 29.9315 270.921 31.4055 270.921 33.0503C270.921 34.438 271.399 35.7138 272.195 36.7198H215.335C213.276 36.7198 211.401 37.566 210.039 38.917C208.69 40.2791 207.845 42.157 207.845 44.2202C207.845 46.8838 209.242 49.2279 211.339 50.5423C212.492 51.2912 213.863 51.7207 215.335 51.7207H223.69C225.16 51.7207 226.835 51.4931 228.289 51.7207C232.721 52.411 234.933 58.5879 234.933 62.4263V62.6833C234.933 67.1201 232.569 71.7459 228.406 73.6128C224.971 75.1529 220.929 74.5655 217.276 74.5674C212.987 74.5674 208.697 74.5729 204.408 74.5729C195.83 74.5729 187.253 74.5674 178.674 74.5215C174.952 74.5013 172.354 75.6027 169.713 78.2478C166.685 81.2804 164.809 85.4657 164.809 90.0934C164.809 99.3487 172.299 106.849 181.541 106.849H95.6443C89.9693 106.849 84.8221 109.157 81.0828 112.889C77.3563 116.62 75.0522 121.775 75.0522 127.471C75.0522 133.56 77.6881 139.034 81.8802 142.802C85.5334 146.092 90.3615 148.093 95.6443 148.093H98.1812C107.055 148.093 114.262 155.298 114.262 164.197C114.262 168.641 112.46 172.667 109.555 175.576C106.639 178.486 102.617 180.29 98.1812 180.29H63.0642C54.5206 180.29 46.7742 183.763 41.1725 189.373C37.446 193.105 34.6635 197.793 33.2301 203.034C32.495 205.661 32.1156 208.424 32.1156 211.284C32.1156 228.396 45.9659 242.277 63.0642 242.277H326.874C340.59 242.277 353.005 236.717 361.991 227.707C368.61 221.079 373.377 212.572 375.425 203.06C376.16 199.671 376.541 196.149 376.541 192.54C376.541 186.223 375.344 179.919 372.998 174.055V174.049Z" stroke="#457B9D" stroke-width="1.89" stroke-miterlimit="10"/>
<path d="M136.627 80.3753C146.624 80.3753 154.728 72.2596 154.728 62.2482C154.728 52.2369 146.624 44.1211 136.627 44.1211C126.63 44.1211 118.526 52.2369 118.526 62.2482C118.526 72.2596 126.63 80.3753 136.627 80.3753Z" fill="#3EF4A7"/>
<path d="M147.831 62.2482L130.17 53.7344V70.7638L147.831 62.2482Z" fill="white"/>
<path opacity="0.08" d="M161.565 133.644H30.2498C29.029 133.644 28.0374 134.645 28.0374 135.865V223.775C28.0374 225.003 29.029 225.996 30.2498 225.996H161.565C162.792 225.996 163.783 225.003 163.783 223.775V135.865C163.783 134.643 162.792 133.644 161.565 133.644Z" fill="#21103A"/>
<path d="M168.518 131.6V205.362H32.7719V131.6C32.7719 130.377 33.7635 129.379 34.9843 129.379H166.3C167.526 129.379 168.518 130.379 168.518 131.6Z" fill="#A6D3FD"/>
<path d="M168.518 205.363V219.511C168.518 220.739 167.526 221.732 166.3 221.732H34.9843C33.7635 221.732 32.7719 220.739 32.7719 219.511V205.363H168.518Z" fill="#FF9E58"/>
<path d="M113.644 213.296C113.644 213.74 113.724 214.166 113.871 214.561H39.8942C39.1958 214.561 38.6312 213.995 38.6312 213.296C38.6312 212.596 39.1958 212.027 39.8942 212.027H113.875C113.724 212.422 113.644 212.848 113.644 213.296Z" fill="white"/>
<path opacity="0.25" d="M160.912 213.296C160.912 213.995 160.344 214.561 159.647 214.561H120.611C120.76 214.166 120.839 213.74 120.839 213.296C120.839 212.852 120.758 212.422 120.608 212.027H159.647C160.346 212.027 160.912 212.596 160.912 213.296Z" fill="white"/>
<path d="M120.838 213.297C120.838 213.741 120.757 214.167 120.61 214.562C120.099 215.927 118.787 216.898 117.241 216.898C115.696 216.898 114.385 215.927 113.872 214.562C113.724 214.167 113.645 213.741 113.645 213.297C113.645 212.853 113.726 212.423 113.876 212.028C114.387 210.663 115.703 209.695 117.241 209.695C118.779 209.695 120.095 210.665 120.607 212.028C120.757 212.423 120.838 212.849 120.838 213.297Z" fill="white"/>
<path d="M100.644 189.597C112.899 189.597 122.834 179.648 122.834 167.375C122.834 155.102 112.899 145.152 100.644 145.152C88.3885 145.152 78.4535 155.102 78.4535 167.375C78.4535 179.648 88.3885 189.597 100.644 189.597Z" fill="#DEECF5"/>
<path d="M114.384 167.371L92.7328 156.934V177.809L114.384 167.371Z" fill="#FF9E58"/>
<path d="M39.3791 136.786C40.4015 136.786 41.2304 135.956 41.2304 134.932C41.2304 133.908 40.4015 133.078 39.3791 133.078C38.3566 133.078 37.5277 133.908 37.5277 134.932C37.5277 135.956 38.3566 136.786 39.3791 136.786Z" fill="#DEECF5"/>
<path d="M44.9591 136.786C45.9816 136.786 46.8105 135.956 46.8105 134.932C46.8105 133.908 45.9816 133.078 44.9591 133.078C43.9367 133.078 43.1078 133.908 43.1078 134.932C43.1078 135.956 43.9367 136.786 44.9591 136.786Z" fill="white"/>
<path d="M50.5373 136.786C51.5597 136.786 52.3886 135.956 52.3886 134.932C52.3886 133.908 51.5597 133.078 50.5373 133.078C49.5148 133.078 48.6859 133.908 48.6859 134.932C48.6859 135.956 49.5148 136.786 50.5373 136.786Z" fill="#DEECF5"/>
<path d="M112.457 94.2148H326.276C328.718 94.2148 330.699 96.1992 330.699 98.6443V226.061H108.034V98.6443C108.034 96.1992 110.015 94.2148 112.457 94.2148Z" fill="#263C88"/>
<path d="M322.203 219.019V102.723L116.535 102.723V219.019H322.203Z" fill="white"/>
<path d="M319.881 215.029V106.721C319.881 105.799 319.134 105.051 318.213 105.051L120.522 105.051C119.601 105.051 118.854 105.799 118.854 106.721V215.029C118.854 215.951 119.601 216.699 120.522 216.699H318.213C319.134 216.699 319.881 215.951 319.881 215.029Z" fill="url(#paint0_linear_1_9082)"/>
<path d="M345.016 226.055C345.016 226.521 344.998 226.98 344.958 227.435H93.7778C93.7374 226.98 93.7191 226.521 93.7191 226.055H345.018H345.016Z" fill="#263C88"/>
<path d="M344.96 227.43C344.632 231.356 342.905 234.882 340.278 237.513C337.347 240.448 333.302 242.26 328.831 242.26H109.908C101.433 242.26 94.478 235.736 93.7797 227.43H344.962H344.96Z" fill="white"/>
<path d="M344.96 227.43C344.632 231.356 342.905 234.882 340.278 237.513C337.347 240.448 333.302 242.26 328.831 242.26H109.908C101.433 242.26 94.478 235.736 93.7797 227.43H344.962H344.96Z" stroke="#263C88" stroke-miterlimit="10"/>
<path d="M239.374 232.039H199.295C198.418 232.039 197.707 232.751 197.707 233.629C197.707 234.507 198.418 235.218 199.295 235.218H239.374C240.25 235.218 240.961 234.507 240.961 233.629C240.961 232.751 240.25 232.039 239.374 232.039Z" fill="#263C88"/>
<path d="M219.372 176.118C231.201 176.118 240.789 166.516 240.789 154.67C240.789 142.825 231.201 133.223 219.372 133.223C207.544 133.223 197.955 142.825 197.955 154.67C197.955 166.516 207.544 176.118 219.372 176.118Z" fill="#ECF4FF"/>
<path d="M232.627 154.672L211.731 144.598V164.746L232.627 154.672Z" fill="#FF9E58"/>
<path d="M151.791 206.422H126.417C125.994 206.422 125.651 206.765 125.651 207.189V212.551C125.651 212.975 125.994 213.318 126.417 213.318H151.791C152.215 213.318 152.558 212.975 152.558 212.551V207.189C152.558 206.765 152.215 206.422 151.791 206.422Z" fill="#21103A"/>
<path d="M312.324 206.422H155.497C155.074 206.422 154.731 206.765 154.731 207.189V212.551C154.731 212.975 155.074 213.318 155.497 213.318H312.324C312.748 213.318 313.091 212.975 313.091 212.551V207.189C313.091 206.765 312.748 206.422 312.324 206.422Z" fill="#21103A"/>
<path d="M304.93 209.23H304.479V207.422H306.435V207.873H304.93V209.23Z" fill="white"/>
<path d="M311.134 209.23H310.683V207.873H309.18V207.422H311.134V209.23Z" fill="white"/>
<path d="M311.134 212.316H309.18V211.864H310.683V210.508H311.134V212.316Z" fill="white"/>
<path d="M306.435 212.316H304.479V210.508H304.93V211.864H306.435V212.316Z" fill="white"/>
<path d="M306.517 209.179V209.704H307.318V209.179C307.318 209.104 307.335 209.047 307.37 209.01C307.403 208.973 307.447 208.953 307.503 208.953C307.56 208.953 307.604 208.971 307.639 209.008C307.674 209.045 307.69 209.102 307.69 209.177V210.622C307.69 210.697 307.674 210.754 307.639 210.792C307.604 210.829 307.558 210.849 307.503 210.849C307.448 210.849 307.403 210.831 307.37 210.792C307.337 210.754 307.32 210.699 307.32 210.624V210.007H306.519V210.624C306.519 210.699 306.503 210.756 306.468 210.794C306.433 210.831 306.387 210.851 306.332 210.851C306.277 210.851 306.231 210.833 306.198 210.794C306.165 210.756 306.149 210.701 306.149 210.625V209.181C306.149 209.105 306.165 209.049 306.198 209.012C306.231 208.975 306.275 208.955 306.332 208.955C306.389 208.955 306.433 208.973 306.468 209.01C306.503 209.047 306.519 209.104 306.519 209.179H306.517Z" fill="white"/>
<path d="M308.317 208.984H308.801C308.926 208.984 309.034 208.995 309.124 209.019C309.214 209.043 309.294 209.087 309.368 209.15C309.558 209.313 309.654 209.561 309.654 209.895C309.654 210.005 309.644 210.106 309.624 210.196C309.604 210.288 309.577 210.368 309.536 210.442C309.496 210.515 309.445 210.58 309.382 210.638C309.333 210.682 309.28 210.717 309.221 210.745C309.162 210.772 309.1 210.791 309.032 210.802C308.964 210.813 308.889 210.818 308.805 210.818H308.321C308.253 210.818 308.202 210.807 308.169 210.787C308.136 210.767 308.112 210.737 308.103 210.701C308.092 210.664 308.086 210.616 308.086 210.556V209.212C308.086 209.131 308.105 209.074 308.141 209.038C308.176 209.001 308.235 208.984 308.315 208.984H308.317ZM308.46 209.278V210.523H308.741C308.803 210.523 308.851 210.523 308.885 210.517C308.92 210.513 308.957 210.506 308.994 210.491C309.03 210.477 309.063 210.458 309.091 210.435C309.215 210.33 309.276 210.148 309.276 209.891C309.276 209.709 309.248 209.575 309.193 209.486C309.138 209.396 309.072 209.339 308.992 209.313C308.911 209.289 308.816 209.276 308.702 209.276H308.457L308.46 209.278Z" fill="white"/>
<path opacity="0.25" d="M303.179 209.248H157.315C157.016 209.248 156.743 209.45 156.686 209.744C156.611 210.138 156.909 210.483 157.291 210.483H303.177C303.518 210.483 303.795 210.206 303.795 209.865C303.795 209.523 303.518 209.246 303.177 209.246L303.179 209.248Z" fill="white"/>
<path d="M216.405 209.062H157.485C157.039 209.062 156.678 209.424 156.678 209.87C156.678 210.316 157.039 210.678 157.485 210.678H216.405C216.851 210.678 217.212 210.316 217.212 209.87C217.212 209.424 216.851 209.062 216.405 209.062Z" fill="white"/>
<path d="M217.707 212.205C218.996 212.205 220.042 211.158 220.042 209.866C220.042 208.574 218.996 207.527 217.707 207.527C216.417 207.527 215.371 208.574 215.371 209.866C215.371 211.158 216.417 212.205 217.707 212.205Z" fill="white"/>
<path d="M138.693 207.676H137.037V212.063H138.693V207.676Z" fill="white"/>
<path d="M141.175 207.676H139.52V212.063H141.175V207.676Z" fill="white"/>
<path d="M133.553 209.869C133.553 209.754 133.542 209.64 133.52 209.526C133.454 209.187 133.291 208.862 133.027 208.599C132.95 208.522 132.868 208.454 132.781 208.394C132.774 208.388 132.767 208.386 132.759 208.381C132.738 208.366 132.714 208.355 132.69 208.34C132.62 208.298 132.549 208.26 132.474 208.227C132.441 208.212 132.409 208.199 132.375 208.188C132.303 208.162 132.232 208.14 132.16 208.124C132.129 208.116 132.098 208.107 132.067 208.104C131.964 208.085 131.859 208.074 131.755 208.074C131.651 208.074 131.546 208.085 131.443 208.104C131.412 208.109 131.381 208.118 131.352 208.124C131.278 208.14 131.207 208.162 131.135 208.188C131.102 208.201 131.069 208.212 131.038 208.227C130.965 208.26 130.892 208.298 130.822 208.34C130.8 208.355 130.776 208.366 130.754 208.381C130.747 208.386 130.74 208.388 130.732 208.394C130.646 208.454 130.564 208.522 130.487 208.599C130.261 208.825 130.103 209.104 130.023 209.405C130.023 209.412 130.019 209.418 130.019 209.425C130.012 209.453 130.006 209.482 129.999 209.51C129.999 209.513 129.999 209.517 129.997 209.521L129.86 209.383C129.764 209.288 129.625 209.275 129.511 209.333C129.486 209.346 129.46 209.361 129.438 209.383C129.411 209.411 129.39 209.442 129.376 209.477C129.37 209.488 129.37 209.499 129.367 209.51C129.359 209.534 129.354 209.557 129.352 209.581C129.352 209.594 129.352 209.607 129.354 209.622C129.356 209.644 129.359 209.666 129.367 209.688C129.37 209.701 129.376 209.713 129.383 209.726C129.389 209.735 129.39 209.747 129.396 209.756C129.396 209.756 129.398 209.752 129.4 209.75C129.411 209.769 129.42 209.789 129.436 209.805L130.087 210.457C130.16 210.538 130.274 210.576 130.388 210.547C130.441 210.532 130.487 210.505 130.521 210.47L131.185 209.807C131.201 209.791 131.211 209.77 131.222 209.75C131.222 209.75 131.225 209.754 131.225 209.756C131.231 209.747 131.233 209.735 131.238 209.726C131.245 209.713 131.249 209.701 131.255 209.688C131.262 209.666 131.266 209.646 131.267 209.622C131.267 209.609 131.271 209.594 131.269 209.581C131.269 209.557 131.262 209.534 131.256 209.51C131.253 209.499 131.251 209.488 131.247 209.475C131.233 209.442 131.212 209.409 131.185 209.381C131.068 209.264 130.879 209.264 130.762 209.381L130.657 209.486L130.604 209.539C130.659 209.348 130.762 209.168 130.908 209.021C131.141 208.788 131.449 208.671 131.753 208.671C132.057 208.671 132.365 208.788 132.598 209.021C132.831 209.255 132.948 209.563 132.948 209.868C132.948 209.934 132.941 210.002 132.93 210.066C132.926 210.092 132.919 210.115 132.913 210.141C132.902 210.187 132.89 210.231 132.873 210.275C132.864 210.299 132.855 210.325 132.844 210.349C132.824 210.394 132.8 210.439 132.774 210.481C132.763 210.501 132.752 210.521 132.739 210.541C132.697 210.602 132.651 210.661 132.598 210.716C132.518 210.797 132.426 210.861 132.331 210.914C132.312 210.925 132.296 210.936 132.277 210.945C132.244 210.962 132.211 210.971 132.177 210.984C132.149 210.995 132.123 211.008 132.096 211.015C132.034 211.033 131.971 211.046 131.907 211.055C131.689 211.085 131.465 211.048 131.256 210.953C131.222 210.936 131.187 210.923 131.154 210.903C131.047 210.841 130.917 210.853 130.824 210.923C130.793 210.947 130.765 210.976 130.745 211.013C130.727 211.044 130.718 211.079 130.712 211.112C130.712 211.121 130.71 211.131 130.708 211.14C130.707 211.169 130.708 211.199 130.714 211.226C130.714 211.232 130.714 211.237 130.716 211.243C130.723 211.27 130.734 211.298 130.751 211.321C130.751 211.321 130.752 211.322 130.752 211.318C130.778 211.358 130.809 211.395 130.853 211.419C131.205 211.623 131.603 211.694 131.986 211.645C132.367 211.595 132.734 211.421 133.02 211.134C133.337 210.817 133.504 210.409 133.533 209.992C133.533 210.003 133.537 210.013 133.539 210.024C133.544 209.97 133.546 209.917 133.546 209.864L133.553 209.869Z" fill="white"/>
<path d="M144.657 209.869C144.657 209.754 144.668 209.64 144.69 209.526C144.756 209.187 144.919 208.862 145.183 208.599C145.26 208.522 145.342 208.454 145.428 208.394C145.436 208.388 145.443 208.386 145.45 208.381C145.472 208.366 145.496 208.355 145.52 208.34C145.59 208.298 145.661 208.26 145.736 208.227C145.769 208.212 145.8 208.199 145.835 208.188C145.907 208.162 145.978 208.14 146.05 208.124C146.081 208.116 146.112 208.107 146.143 208.104C146.246 208.085 146.35 208.074 146.455 208.074C146.559 208.074 146.664 208.085 146.766 208.104C146.798 208.109 146.829 208.118 146.858 208.124C146.931 208.14 147.003 208.162 147.074 208.188C147.107 208.201 147.14 208.212 147.172 208.227C147.245 208.26 147.318 208.298 147.388 208.34C147.41 208.355 147.434 208.366 147.456 208.381C147.463 208.386 147.47 208.388 147.478 208.394C147.564 208.454 147.646 208.522 147.723 208.599C147.949 208.825 148.106 209.104 148.187 209.405C148.187 209.412 148.191 209.418 148.191 209.425C148.198 209.453 148.204 209.482 148.211 209.51C148.211 209.513 148.211 209.517 148.213 209.521L148.35 209.383C148.445 209.288 148.585 209.275 148.698 209.333C148.724 209.346 148.75 209.361 148.772 209.383C148.799 209.411 148.819 209.442 148.834 209.477C148.84 209.488 148.84 209.499 148.843 209.51C148.851 209.534 148.856 209.557 148.858 209.581C148.858 209.594 148.858 209.607 148.856 209.622C148.854 209.644 148.851 209.666 148.843 209.688C148.84 209.701 148.834 209.713 148.827 209.726C148.821 209.735 148.819 209.747 148.814 209.756C148.814 209.756 148.812 209.752 148.81 209.75C148.799 209.769 148.79 209.789 148.774 209.805L148.123 210.457C148.05 210.538 147.936 210.576 147.822 210.547C147.769 210.532 147.723 210.505 147.688 210.47L147.025 209.807C147.008 209.791 146.999 209.77 146.988 209.75C146.988 209.75 146.985 209.754 146.985 209.756C146.979 209.747 146.977 209.735 146.972 209.726C146.964 209.713 146.961 209.701 146.955 209.688C146.948 209.666 146.944 209.646 146.942 209.622C146.942 209.609 146.939 209.594 146.941 209.581C146.941 209.557 146.948 209.534 146.953 209.51C146.957 209.499 146.959 209.488 146.963 209.475C146.977 209.442 146.997 209.409 147.025 209.381C147.142 209.264 147.331 209.264 147.448 209.381L147.553 209.486L147.606 209.539C147.551 209.348 147.448 209.168 147.302 209.021C147.069 208.788 146.761 208.671 146.457 208.671C146.151 208.671 145.844 208.788 145.612 209.021C145.379 209.255 145.262 209.563 145.262 209.868C145.262 209.934 145.269 210.002 145.28 210.066C145.284 210.092 145.291 210.115 145.296 210.141C145.307 210.187 145.32 210.231 145.337 210.275C145.346 210.299 145.355 210.325 145.366 210.349C145.386 210.394 145.41 210.439 145.436 210.481C145.447 210.501 145.458 210.521 145.47 210.541C145.513 210.602 145.558 210.661 145.612 210.716C145.692 210.797 145.784 210.861 145.879 210.914C145.898 210.925 145.914 210.936 145.932 210.945C145.965 210.962 145.998 210.971 146.033 210.984C146.061 210.995 146.086 211.008 146.114 211.015C146.176 211.033 146.239 211.046 146.303 211.055C146.521 211.085 146.744 211.048 146.953 210.953C146.988 210.936 147.023 210.923 147.056 210.903C147.162 210.841 147.292 210.853 147.386 210.923C147.417 210.947 147.445 210.976 147.465 211.013C147.483 211.044 147.492 211.079 147.498 211.112C147.498 211.121 147.5 211.131 147.501 211.14C147.503 211.169 147.501 211.199 147.496 211.226C147.496 211.232 147.496 211.237 147.494 211.243C147.487 211.27 147.476 211.298 147.459 211.321C147.459 211.321 147.457 211.322 147.457 211.318C147.432 211.358 147.401 211.395 147.357 211.419C147.005 211.623 146.607 211.694 146.224 211.645C145.843 211.595 145.476 211.421 145.19 211.134C144.873 210.817 144.706 210.409 144.677 209.992C144.677 210.003 144.673 210.013 144.671 210.024C144.666 209.97 144.664 209.917 144.664 209.864L144.657 209.869Z" fill="white"/>
<path d="M125.777 115.034C127.113 115.034 128.195 113.95 128.195 112.613C128.195 111.275 127.113 110.191 125.777 110.191C124.442 110.191 123.36 111.275 123.36 112.613C123.36 113.95 124.442 115.034 125.777 115.034Z" fill="#DEECF5"/>
<path d="M133.07 115.034C134.406 115.034 135.488 113.95 135.488 112.613C135.488 111.275 134.406 110.191 133.07 110.191C131.735 110.191 130.653 111.275 130.653 112.613C130.653 113.95 131.735 115.034 133.07 115.034Z" fill="white"/>
<path d="M140.358 115.034C141.693 115.034 142.775 113.95 142.775 112.613C142.775 111.275 141.693 110.191 140.358 110.191C139.022 110.191 137.94 111.275 137.94 112.613C137.94 113.95 139.022 115.034 140.358 115.034Z" fill="#DEECF5"/>
<path opacity="0.08" d="M434.865 43.0469H256.943C255.29 43.0469 253.946 44.4016 253.946 46.0574V165.168C253.946 166.831 255.29 168.178 256.943 168.178H434.865C436.525 168.178 437.871 166.831 437.871 165.168V46.0574C437.871 44.4016 436.525 43.0469 434.865 43.0469Z" fill="#21103A"/>
<path d="M444.289 40.2761V140.219H260.364V40.2761C260.364 38.6203 261.707 37.2656 263.361 37.2656H441.283C442.943 37.2656 444.289 38.6203 444.289 40.2761Z" fill="url(#paint1_linear_1_9082)"/>
<path d="M444.289 140.223V159.391C444.289 161.054 442.945 162.401 441.283 162.401H263.361C261.707 162.401 260.364 161.054 260.364 159.391V140.223H444.289Z" fill="#FF9E58"/>
<path d="M369.937 150.964C369.937 151.566 370.045 152.145 370.245 152.677H270.012C269.066 152.677 268.301 151.91 268.301 150.964C268.301 150.019 269.068 149.246 270.012 149.246H370.25C370.045 149.78 369.937 150.359 369.937 150.964Z" fill="white"/>
<path opacity="0.25" d="M433.983 150.964C433.983 151.911 433.213 152.677 432.267 152.677H379.375C379.575 152.143 379.683 151.565 379.683 150.964C379.683 150.364 379.575 149.78 379.37 149.246H432.265C433.211 149.246 433.981 150.017 433.981 150.964H433.983Z" fill="white"/>
<path d="M379.686 150.971C379.686 151.573 379.578 152.151 379.378 152.684C378.685 154.534 376.906 155.85 374.814 155.85C372.723 155.85 370.943 154.534 370.25 152.684C370.05 152.149 369.942 151.571 369.942 150.971C369.942 150.371 370.05 149.787 370.255 149.253C370.948 147.402 372.732 146.09 374.816 146.09C376.9 146.09 378.682 147.402 379.377 149.253C379.582 149.787 379.69 150.365 379.69 150.971H379.686Z" fill="white"/>
<path d="M352.323 118.853C368.929 118.853 382.39 105.373 382.39 88.7431C382.39 72.1137 368.929 58.6328 352.323 58.6328C335.718 58.6328 322.256 72.1137 322.256 88.7431C322.256 105.373 335.718 118.853 352.323 118.853Z" fill="#DEECF5"/>
<path d="M370.934 88.7435L341.6 74.6016V102.885L370.934 88.7435Z" fill="#FF9E58"/>
<path d="M269.311 47.3075C270.696 47.3075 271.818 46.1832 271.818 44.7963C271.818 43.4094 270.696 42.2852 269.311 42.2852C267.926 42.2852 266.803 43.4094 266.803 44.7963C266.803 46.1832 267.926 47.3075 269.311 47.3075Z" fill="#DEECF5"/>
<path d="M276.873 47.3075C278.258 47.3075 279.381 46.1832 279.381 44.7963C279.381 43.4094 278.258 42.2852 276.873 42.2852C275.489 42.2852 274.366 43.4094 274.366 44.7963C274.366 46.1832 275.489 47.3075 276.873 47.3075Z" fill="white"/>
<path d="M284.432 47.3075C285.817 47.3075 286.94 46.1832 286.94 44.7963C286.94 43.4094 285.817 42.2852 284.432 42.2852C283.047 42.2852 281.924 43.4094 281.924 44.7963C281.924 46.1832 283.047 47.3075 284.432 47.3075Z" fill="#DEECF5"/>
<path d="M58.3481 253C52.0975 253 48.338 253 48.338 253" stroke="#263C88" stroke-width="12.95" stroke-linecap="round" stroke-linejoin="round"/>
<path d="M58.3481 253H48.338" stroke="#263C88" stroke-width="12.95" stroke-linecap="round" stroke-linejoin="round"/>
<path d="M99.5455 253H69.8928" stroke="#516278" stroke-width="12.95" stroke-linecap="round" stroke-linejoin="round"/>
<path d="M189.679 253H112.246" stroke="#263C88" stroke-width="12.95" stroke-linecap="round" stroke-linejoin="round"/>
<path d="M327.258 242.273H336.689" stroke="#516278" stroke-width="12.95" stroke-linecap="round" stroke-linejoin="round"/>
<path d="M6.47498 242.277C127.093 242.323 313.945 242.323 434.501 242.27" stroke="#516278" stroke-width="12.95" stroke-linecap="round" stroke-linejoin="round"/>
<path opacity="0.1" d="M201.429 76.7683C201.385 76.7187 201.339 76.6673 201.295 76.6178V69.813C201.295 33.3917 171.809 3.86328 135.441 3.86328C99.0718 3.86328 69.5859 33.3917 69.5859 69.813V76.6178C69.5419 76.6673 69.496 76.7187 69.452 76.7683C67.6575 78.8573 66.5724 81.5722 66.5724 84.5405V101.691C66.5724 104.661 67.6575 107.38 69.452 109.463C69.6555 109.698 69.8663 109.926 70.0863 110.141C72.0934 112.14 74.8008 113.421 77.8088 113.586C78.1864 114.79 78.7949 115.894 79.5776 116.841C79.6583 116.936 79.7389 117.032 79.8214 117.123C80.6298 118.028 81.6013 118.777 82.6956 119.33H82.6993C84.0044 119.987 85.4781 120.358 87.038 120.358H87.916C90.9827 120.358 93.7322 118.994 95.5945 116.843C96.9748 115.242 97.8675 113.204 98.0324 110.965C98.0544 110.713 98.0636 110.454 98.0636 110.197V76.0322C98.0636 74.2883 97.631 72.6454 96.8666 71.2062C95.1399 67.9516 91.7177 65.736 87.7822 65.736H87.4101C82.9632 65.736 79.1927 68.6271 77.8711 72.638C77.0407 72.6766 76.2324 72.8069 75.4588 73.007V69.8111C75.4588 56.8 79.5611 44.424 87.1553 34.1553C87.1242 34.1351 87.0967 34.1168 87.0655 34.0929C88.8234 31.7194 90.7682 29.4597 92.8927 27.334C104.076 16.1347 118.898 9.90076 134.691 9.74473C118.949 9.93564 104.18 16.1659 93.0283 27.334C90.8837 29.4817 88.926 31.7598 87.1553 34.1553C88.4109 35.0419 89.8645 35.477 91.3108 35.477C93.2244 35.477 95.1253 34.7152 96.5239 33.232C96.8868 32.8428 97.2589 32.4628 97.6365 32.0847C107.553 22.1538 120.925 16.5495 134.951 16.4577H135.442C149.623 16.4944 162.952 22.0418 172.981 32.0847C172.995 32.0994 173.006 32.1104 173.019 32.1232C175.144 34.2563 178.529 34.4435 180.837 32.5087L181.732 31.7579C180.476 30.227 179.14 28.7511 177.723 27.3322C166.571 16.164 151.798 9.9338 136.057 9.74289C151.848 9.89893 166.673 16.1328 177.857 27.3322C189.188 38.6802 195.426 53.7638 195.426 69.8093V73.0052C194.75 72.829 194.048 72.7078 193.329 72.6546C193.223 72.6454 193.12 72.6399 193.014 72.6344C192.981 72.5334 192.944 72.4325 192.908 72.3315C191.498 68.4766 187.81 65.7305 183.475 65.7305H183.103C179.167 65.7305 175.747 67.9443 174.018 71.2007C173.256 72.6399 172.821 74.2828 172.821 76.0267V110.192C172.821 110.449 172.83 110.708 172.852 110.959C173.017 113.199 173.908 115.236 175.29 116.837C175.796 117.423 176.37 117.951 176.999 118.407C178.672 119.629 180.738 120.352 182.969 120.352H183.847C185.407 120.352 186.879 119.983 188.186 119.324H188.189C189.282 118.774 190.255 118.023 191.063 117.118C191.144 117.026 191.225 116.931 191.307 116.835C192.09 115.886 192.699 114.783 193.076 113.581C193.226 113.571 193.375 113.56 193.523 113.548C193.529 113.548 193.533 113.548 193.538 113.546C189.324 125.002 179.803 134.331 167.581 139.197C167.473 138.788 167.326 138.397 167.15 138.022C165.988 135.526 163.455 133.795 160.52 133.795H150.629C148.609 133.795 146.78 134.615 145.454 135.943C144.129 137.266 143.31 139.1 143.31 141.125C143.31 143.605 144.54 145.796 146.424 147.12C147.616 147.959 149.062 148.453 150.627 148.453H160.518C162.538 148.453 164.369 147.632 165.693 146.305C166.791 145.207 167.542 143.757 167.766 142.14C181.755 136.853 192.539 126.061 196.759 112.782C196.861 112.744 196.966 112.701 197.068 112.655C198.469 112.057 199.732 111.198 200.797 110.137C200.971 109.97 201.134 109.792 201.297 109.61C201.341 109.56 201.387 109.509 201.431 109.46C203.226 107.374 204.311 104.656 204.311 101.687V84.5368C204.311 81.5667 203.226 78.8518 201.431 76.7646L201.429 76.7683ZM145.779 143.195C145.773 143.241 145.77 143.287 145.764 143.333C145.768 143.287 145.773 143.241 145.779 143.195ZM145.748 143.568C145.746 143.603 145.742 143.639 145.74 143.674C145.74 143.638 145.744 143.603 145.748 143.568ZM145.907 145.616C145.935 145.747 145.968 145.875 146.002 146.002C145.825 145.37 145.731 144.708 145.731 144.019C145.731 144.568 145.793 145.103 145.907 145.615V145.616ZM145.839 142.773C145.869 142.597 145.905 142.424 145.947 142.254C145.905 142.424 145.869 142.599 145.839 142.773ZM145.951 142.243C145.968 142.176 145.986 142.11 146.004 142.046C145.986 142.112 145.968 142.176 145.951 142.243ZM146.14 141.607C146.158 141.554 146.177 141.503 146.197 141.45C146.177 141.501 146.158 141.554 146.14 141.607ZM146.268 141.268C146.287 141.222 146.307 141.174 146.325 141.128C146.305 141.174 146.287 141.222 146.268 141.268ZM146.589 140.578C146.607 140.543 146.626 140.508 146.646 140.475C146.628 140.51 146.607 140.543 146.589 140.578ZM146.758 140.28C146.774 140.251 146.791 140.223 146.809 140.194C146.792 140.221 146.774 140.251 146.758 140.28Z" fill="#4A3130"/>
<path d="M186.733 27.8976L185.838 28.6484C183.53 30.5832 180.145 30.396 178.02 28.2629C178.006 28.2482 177.995 28.2372 177.982 28.2244C167.953 18.1815 154.624 12.6341 140.443 12.5974V5.87891C140.65 5.87891 140.854 5.87891 141.057 5.88441C156.799 6.07532 171.572 12.3055 182.724 23.4737C184.141 24.8927 185.477 26.3685 186.733 27.8995V27.8976Z" fill="#146093"/>
<path d="M140.443 5.875V12.5935H139.952C125.926 12.6853 112.554 18.2896 102.637 28.2205C102.26 28.5986 101.888 28.9786 101.525 29.3678C100.128 30.851 98.2272 31.6128 96.3117 31.6128C94.8636 31.6128 93.41 31.1796 92.1562 30.2911C93.9251 27.8956 95.8846 25.6175 98.0292 23.4698C109.181 12.3016 123.95 6.07142 139.692 5.88051C139.943 5.87867 140.192 5.875 140.443 5.875Z" fill="#0075D6"/>
<path d="M82.8712 68.7753C82.5413 69.7684 82.3653 70.8294 82.3653 71.9326V72.878C81.6523 73.1019 80.9704 73.3901 80.3252 73.7407C77.4711 75.2753 75.3155 77.9426 74.4558 81.1421C74.1901 82.1334 74.0471 83.1723 74.0471 84.2462V101.397C74.0471 102.472 74.1901 103.513 74.4558 104.501C74.6208 105.114 74.8334 105.711 75.0901 106.278C74.8701 106.063 74.6593 105.835 74.4558 105.6C72.6613 103.515 71.5762 100.797 71.5762 97.8264V80.6759C71.5762 77.7058 72.6613 74.9908 74.4558 72.9018C74.4998 72.8523 74.5457 72.8009 74.5897 72.7513C76.0927 71.057 78.0779 69.7959 80.3252 69.1791C80.3691 69.1681 80.415 69.1534 80.459 69.1424C81.2325 68.9405 82.0409 68.812 82.8712 68.7734V68.7753Z" fill="#F25366"/>
<path d="M82.8124 109.724C79.8044 109.559 77.097 108.278 75.0899 106.279C74.8332 105.71 74.6206 105.115 74.4556 104.502C74.1899 103.514 74.0469 102.472 74.0469 101.398V84.2471C74.0469 83.1714 74.1899 82.1343 74.4556 81.143C75.3172 77.9435 77.4709 75.2763 80.325 73.7417C80.9702 73.391 81.6521 73.1029 82.3651 72.8789V106.807C82.3651 106.905 82.3688 107.004 82.3706 107.101C82.3963 108.013 82.5502 108.893 82.8124 109.724Z" fill="#FF9E58"/>
<path d="M101.864 67.3455C100.433 66.5892 98.8034 66.1615 97.073 66.1615H96.7046C94.1108 66.1615 91.7481 67.1436 89.9682 68.7626C88.8812 69.7429 88.0124 70.9599 87.435 72.3311C86.9346 73.5262 86.6578 74.8423 86.6578 76.2227V111.1C86.6578 111.745 86.722 112.374 86.8393 112.984C86.8613 113.099 86.8869 113.211 86.9144 113.32C87.0904 114.076 87.3525 114.797 87.6934 115.473C86.601 114.922 85.6276 114.171 84.8193 113.266C84.7386 113.175 84.658 113.079 84.5755 112.984C83.7928 112.035 83.1842 110.931 82.8066 109.729C82.5445 108.897 82.3905 108.018 82.3649 107.106C82.3612 107.009 82.3594 106.909 82.3594 106.812V71.9383C82.3594 70.8351 82.5353 69.7741 82.8653 68.781C84.1869 64.7701 87.9574 61.8789 92.4043 61.8789H92.7764C96.7119 61.8789 100.132 64.0927 101.861 67.3492L101.864 67.3455Z" fill="url(#paint2_linear_1_9082)"/>
<path d="M103.062 72.1699V106.335C103.062 106.592 103.053 106.851 103.031 107.102C102.866 109.342 101.975 111.38 100.593 112.98C98.7304 115.133 95.9809 116.496 92.9143 116.496H92.0363C90.4764 116.496 89.0045 116.127 87.6975 115.468H87.6939C87.3529 114.794 87.0908 114.071 86.9148 113.314C86.8873 113.206 86.8617 113.094 86.8397 112.978C86.7224 112.369 86.6582 111.739 86.6582 111.095V76.2175C86.6582 74.8371 86.935 73.5227 87.4354 72.3259C88.011 70.9547 88.8798 69.7376 89.9686 68.7574C91.7485 67.1402 94.1112 66.1562 96.705 66.1562H97.0734C98.8038 66.1562 100.433 66.584 101.865 67.3403C102.627 68.7794 103.062 70.4223 103.062 72.1662V72.1699Z" fill="url(#paint3_linear_1_9082)"/>
<path d="M140.443 0V5.87778C140.192 5.87778 139.942 5.88145 139.691 5.88328C123.9 6.03931 109.076 12.2732 97.8929 23.4726C95.7684 25.6001 93.8236 27.858 92.0657 30.2315C92.0969 30.2535 92.1244 30.2737 92.1555 30.2939C84.5613 40.5607 80.4572 52.9386 80.4572 65.9497V69.1456C80.4132 69.1566 80.3674 69.1713 80.3234 69.1823C78.0761 69.7972 76.091 71.0602 74.5879 72.7545V65.9497C74.5879 29.5284 104.07 0 140.443 0Z" fill="#4091E2"/>
<path d="M206.298 65.9497V72.7545C204.795 71.0602 202.81 69.7991 200.563 69.1823C200.519 69.1713 200.473 69.1566 200.429 69.1456V65.9497C200.429 49.906 194.191 34.8206 182.859 23.4726C171.676 12.2732 156.851 6.03931 141.059 5.88328C140.856 5.87778 140.651 5.87778 140.445 5.87778V0C176.814 0 206.3 29.5284 206.3 65.9497H206.298Z" fill="#186FB7"/>
<path d="M197.91 68.4742C196.259 67.27 194.22 66.5651 192.024 66.5651H191.652C187.717 66.5651 184.296 68.7789 182.568 72.0354C181.805 73.4745 181.371 75.1174 181.371 76.8613V111.027C181.371 111.284 181.38 111.542 181.402 111.794C181.472 112.758 181.679 113.681 182 114.551C181.371 114.094 180.797 113.565 180.291 112.982C178.911 111.381 178.018 109.343 177.853 107.104C177.831 106.852 177.822 106.595 177.822 106.336V72.1712C177.822 70.4273 178.255 68.7844 179.019 67.3453C180.746 64.0906 184.168 61.875 188.104 61.875H188.476C192.811 61.875 196.501 64.6211 197.908 68.476L197.91 68.4742Z" fill="url(#paint4_linear_1_9082)"/>
<path d="M198.523 71.9357V106.81C198.523 106.907 198.519 107.006 198.517 107.103C198.491 108.016 198.337 108.895 198.075 109.726C197.698 110.931 197.089 112.034 196.306 112.981C196.226 113.076 196.145 113.172 196.063 113.264C195.254 114.169 194.283 114.918 193.188 115.47H193.185C191.88 116.127 190.406 116.498 188.846 116.498H187.968C185.737 116.498 183.671 115.777 181.998 114.552C181.677 113.682 181.47 112.759 181.4 111.795C181.378 111.544 181.369 111.287 181.369 111.028V76.8626C181.369 75.1187 181.802 73.4758 182.566 72.0367C184.293 68.782 187.715 66.5664 191.651 66.5664H192.023C194.22 66.5664 196.257 67.2713 197.908 68.4755C197.945 68.5765 197.982 68.6774 198.015 68.7784C198.345 69.7715 198.521 70.8325 198.521 71.9357H198.523Z" fill="url(#paint5_linear_1_9082)"/>
<path d="M209.311 84.6548V97.8274C209.311 100.798 208.225 103.516 206.431 105.601C206.387 105.651 206.341 105.702 206.297 105.752C206.136 105.934 205.971 106.11 205.797 106.279C204.732 107.34 203.469 108.199 202.068 108.797C201.966 108.841 201.861 108.884 201.759 108.924C200.747 109.322 199.665 109.585 198.536 109.688C198.531 109.689 198.527 109.689 198.521 109.689C198.373 109.704 198.225 109.715 198.074 109.723C198.336 108.891 198.49 108.012 198.516 107.099C198.52 107.002 198.521 106.903 198.521 106.806V72.7891C199.176 72.8478 199.812 72.9616 200.428 73.1213C200.472 73.1323 200.518 73.147 200.562 73.158C200.903 73.2498 201.238 73.36 201.568 73.4848C203.401 74.1676 205.023 75.2929 206.297 76.7284C206.341 76.778 206.387 76.8294 206.431 76.8789C208.225 78.9679 209.311 81.6828 209.311 84.6529V84.6548Z" fill="#FF9E58"/>
<path d="M209.313 80.6779V84.6558C209.313 81.6857 208.227 78.9708 206.433 76.8818C206.389 76.8322 206.343 76.7808 206.299 76.7313C205.025 75.2958 203.403 74.1705 201.57 73.4876C201.24 73.361 200.905 73.2527 200.564 73.1609C200.52 73.1499 200.474 73.1352 200.43 73.1242C199.816 72.9645 199.178 72.8507 198.523 72.7919V71.9347C198.523 70.8314 198.348 69.7704 198.018 68.7773C198.124 68.7829 198.227 68.7884 198.333 68.7975C199.051 68.8508 199.753 68.9719 200.43 69.1482C200.474 69.1592 200.52 69.1739 200.564 69.1849C202.811 69.7998 204.796 71.0627 206.299 72.757C206.343 72.8066 206.389 72.858 206.433 72.9076C208.227 74.9966 209.313 77.7115 209.313 80.6816V80.6779Z" fill="#F25366"/>
<path d="M172.147 134.165C170.959 133.326 169.509 132.832 167.944 132.832H158.053C156.033 132.832 154.204 133.653 152.88 134.98C151.555 136.304 150.736 138.137 150.736 140.16C150.736 141.269 150.981 142.319 151.423 143.263C149.539 141.939 148.309 139.747 148.309 137.267C148.309 135.244 149.128 133.411 150.453 132.085C151.779 130.758 153.606 129.938 155.626 129.938H165.517C168.452 129.938 170.985 131.667 172.147 134.165Z" fill="url(#paint6_linear_1_9082)"/>
<path d="M172.835 137.265C172.835 137.61 172.813 137.952 172.766 138.282C172.542 139.899 171.79 141.349 170.692 142.447C169.371 143.774 167.54 144.595 165.52 144.595H155.629C154.063 144.595 152.615 144.103 151.426 143.262C151.202 142.787 151.028 142.282 150.914 141.757C150.799 141.245 150.738 140.711 150.738 140.162C150.738 139.751 150.771 139.345 150.839 138.952C151.094 137.412 151.825 136.035 152.883 134.98C154.208 133.653 156.036 132.832 158.056 132.832H167.947C169.512 132.832 170.962 133.324 172.15 134.165C172.326 134.539 172.471 134.932 172.581 135.34C172.749 135.953 172.837 136.599 172.837 137.265H172.835Z" fill="url(#paint7_linear_1_9082)"/>
<path d="M201.758 108.926C197.536 122.205 186.755 132.995 172.765 138.283C172.813 137.953 172.835 137.612 172.835 137.267C172.835 136.6 172.745 135.954 172.578 135.341C184.801 130.476 194.321 121.148 198.535 109.689C199.665 109.587 200.746 109.322 201.758 108.926Z" fill="#C11A3A"/>
<defs>
<linearGradient id="paint0_linear_1_9082" x1="251.238" y1="105.051" x2="210.567" y2="238.616" gradientUnits="userSpaceOnUse">
<stop stop-color="#3EF4A7"/>
<stop offset="1" stop-color="#096EE0"/>
</linearGradient>
<linearGradient id="paint1_linear_1_9082" x1="260.364" y1="72.4203" x2="383.073" y2="192.61" gradientUnits="userSpaceOnUse">
<stop stop-color="#3EF4A7"/>
<stop offset="1" stop-color="#096EE0"/>
</linearGradient>
<linearGradient id="paint2_linear_1_9082" x1="92.1119" y1="115.473" x2="92.1119" y2="61.8789" gradientUnits="userSpaceOnUse">
<stop stop-color="#B0BBC9"/>
<stop offset="1" stop-color="#D5DBE2"/>
</linearGradient>
<linearGradient id="paint3_linear_1_9082" x1="94.86" y1="116.496" x2="94.86" y2="66.1562" gradientUnits="userSpaceOnUse">
<stop stop-color="#B0BBC9"/>
<stop offset="1" stop-color="#D5DBE2"/>
</linearGradient>
<linearGradient id="paint4_linear_1_9082" x1="187.866" y1="114.551" x2="187.866" y2="61.875" gradientUnits="userSpaceOnUse">
<stop stop-color="#B0BBC9"/>
<stop offset="1" stop-color="#D5DBE2"/>
</linearGradient>
<linearGradient id="paint5_linear_1_9082" x1="189.946" y1="116.498" x2="189.946" y2="66.5664" gradientUnits="userSpaceOnUse">
<stop stop-color="#B0BBC9"/>
<stop offset="1" stop-color="#D5DBE2"/>
</linearGradient>
<linearGradient id="paint6_linear_1_9082" x1="160.228" y1="143.263" x2="160.228" y2="129.937" gradientUnits="userSpaceOnUse">
<stop stop-color="#B0BBC9"/>
<stop offset="1" stop-color="#D5DBE2"/>
</linearGradient>
<linearGradient id="paint7_linear_1_9082" x1="161.788" y1="144.595" x2="161.788" y2="132.832" gradientUnits="userSpaceOnUse">
<stop stop-color="#B0BBC9"/>
<stop offset="1" stop-color="#D5DBE2"/>
</linearGradient>
</defs>
</svg>
