<svg width="441" height="321" viewBox="0 0 441 321" fill="none" xmlns="http://www.w3.org/2000/svg">
<g filter="url(#filter0_d_51_19152)" transform="matrix(0.75 0 0 0.75 48.13 36.13)">
<path fill-rule="evenodd" clip-rule="evenodd" d="M19.1234 34H366.276C374.587 34 381.399 40.8061 381.399 49.1525V247.942C381.399 256.253 374.593 263.065 366.276 263.065H19.1234C10.8061 263.065 4 256.259 4 247.942V49.1525C4 40.8003 10.8061 34 19.1234 34Z" fill="url(#paint0_linear_51_19152)"/>
<path fill-rule="evenodd" clip-rule="evenodd" d="M68.8836 48.4844H355.583C361.651 48.4844 366.614 53.448 366.614 59.516V236.143C366.614 242.211 361.651 247.175 355.583 247.175H68.8836C62.8157 247.175 57.8521 242.211 57.8521 236.143V59.516C57.8521 53.448 62.8157 48.4844 68.8836 48.4844Z" fill="#FDFDFD"/>
<path fill-rule="evenodd" clip-rule="evenodd" d="M30.8578 160.434C37.3965 160.434 42.7612 155.104 42.7612 148.53C42.7612 141.957 37.3965 136.627 30.8578 136.627C24.319 136.627 18.9543 141.957 18.9543 148.53C18.9543 155.104 24.2841 160.434 30.8578 160.434Z" fill="#FF9E58" stroke="#FAA199" stroke-width="0.2" stroke-miterlimit="10"/>
<path fill-rule="evenodd" clip-rule="evenodd" d="M30.8582 75.54C35.8509 75.54 39.9136 77.4523 39.9136 79.7655C39.9136 82.0788 35.8567 83.991 30.8582 83.991C25.8597 83.991 21.8027 82.0788 21.8027 79.7655C21.8027 77.4523 25.8248 75.54 30.8582 75.54ZM30.8582 99.4166C35.8509 99.4166 39.9136 101.329 39.9136 103.642C39.9136 105.955 35.8567 107.868 30.8582 107.868C25.8597 107.868 21.8027 105.99 21.8027 103.642C21.8027 101.294 25.8248 99.4166 30.8582 99.4166ZM30.8582 87.4783C35.8509 87.4783 39.9136 89.3906 39.9136 91.7038C39.9136 94.0171 35.8567 95.9293 30.8582 95.9293C25.8597 95.9293 21.8027 94.0171 21.8027 91.7038C21.8027 89.3906 25.8248 87.4783 30.8582 87.4783Z" fill="#FF9E58"/>
<path fill-rule="evenodd" clip-rule="evenodd" d="M99.2211 190.78H112.726C120.996 190.684 126.569 186.307 126.569 176.937V174.419V166.31C127.748 166.374 128.912 166.488 130.106 166.648V178.7C130.106 187.293 123.079 194.305 114.503 194.305H98.7688C90.4815 194.402 84.9255 198.796 84.9255 208.166V222.009H84.9109V227.808H88.2871L85.7192 232.266L83.1513 236.725L80.5659 232.266L77.998 227.808H81.3888V206.389C81.3888 197.813 88.398 190.783 96.9917 190.783H99.2211V190.78Z" fill="#FF9E58"/>
<path fill-rule="evenodd" clip-rule="evenodd" d="M150.056 90.2418H163.561C171.831 90.3381 177.404 94.7152 177.404 104.085V106.606H177.422V113.487C178.583 113.423 179.765 113.309 180.944 113.149V102.325C180.944 93.7318 173.917 86.7197 165.341 86.7197H149.607C141.337 86.6234 135.763 82.2288 135.763 72.8764V62.7158H135.746V56.9176H139.137L136.551 52.4588L133.983 48L131.415 52.4588L128.83 56.9176H132.221V74.639C132.221 83.218 139.248 90.2447 147.827 90.2447H150.056V90.2418Z" fill="#FF9E58"/>
<path fill-rule="evenodd" clip-rule="evenodd" d="M269.752 180.848H256.264C247.995 180.751 242.421 176.357 242.421 167.005V164.486H242.407V157.605C241.242 157.67 240.063 157.783 238.885 157.944V168.767C238.885 177.343 245.911 184.37 254.49 184.37H270.224C278.494 184.466 284.068 188.861 284.068 198.213V218.05H284.082V223.848H280.692L283.277 228.307L285.845 232.766L288.413 228.307L290.998 223.848H287.604V196.454C287.604 187.874 280.578 180.848 272.002 180.848H269.755H269.752Z" fill="#FF9E58"/>
<path d="M147.63 205.125L172.104 160.202L127.682 158.069L127.793 155.79L170.829 157.859L114.726 107.639L116.229 105.94L172.83 156.615V106.781H175.109V157.794L240.675 135.923L242.21 135.632L242 137.181L239.546 138.442L174.721 160.17L149.617 206.222L147.63 205.125Z" fill="#4D8C51"/>
<path fill-rule="evenodd" clip-rule="evenodd" d="M115.486 129.625C128.054 129.625 138.329 119.368 138.329 106.782C138.329 94.1964 128.054 83.9395 115.486 83.9395C102.918 83.9395 92.6438 94.2139 92.6438 106.782C92.6438 119.35 102.901 129.625 115.486 129.625Z" fill="#1B7D9A"/>
<path fill-rule="evenodd" clip-rule="evenodd" d="M173.979 121.062C181.828 121.062 188.242 114.648 188.242 106.781C188.242 98.914 181.828 92.5176 173.979 92.5176C166.129 92.5176 159.715 98.9315 159.715 106.781C159.715 114.631 166.111 121.062 173.979 121.062Z" fill="#1B7D9A"/>
<path fill-rule="evenodd" clip-rule="evenodd" d="M173.98 184.221C187.792 184.221 199.049 172.963 199.049 159.152C199.049 145.341 187.792 134.08 173.98 134.08C160.169 134.08 148.908 145.338 148.908 159.152C148.908 172.966 160.166 184.221 173.98 184.221Z" fill="#1B7D9A"/>
<path fill-rule="evenodd" clip-rule="evenodd" d="M148.632 218.485C155.691 218.485 161.442 212.733 161.442 205.675C161.442 198.616 155.691 192.864 148.632 192.864C141.573 192.864 135.807 198.616 135.807 205.675C135.807 212.733 141.573 218.485 148.632 218.485Z" fill="#1B7D9A"/>
<path fill-rule="evenodd" clip-rule="evenodd" d="M127.73 169.747C134.789 169.747 140.555 163.981 140.555 156.937C140.555 149.893 134.789 144.112 127.73 144.112C120.672 144.112 114.92 149.878 114.92 156.937C114.92 163.996 120.686 169.747 127.73 169.747Z" fill="#1B7D9A"/>
<path fill-rule="evenodd" clip-rule="evenodd" d="M240.677 169.184C258.994 169.184 273.937 154.241 273.937 135.924C273.937 117.607 258.994 102.646 240.677 102.646C222.36 102.646 207.399 117.59 207.399 135.924C207.399 154.258 222.343 169.184 240.677 169.184Z" fill="#1B7D9A"/>
<path fill-rule="evenodd" clip-rule="evenodd" d="M171.572 154.611H168.826L167.066 157.649L165.339 154.611H162.593L165.905 160.345V163.689H168.263V160.345L171.575 154.611H171.572ZM172.59 163.689H178.228V161.752H174.98V160.089H177.854V158.069H174.98V156.584H178.228V154.614H172.59V163.692V163.689ZM185.368 157.392C185.368 155.857 184.125 154.614 182.573 154.614C181.021 154.614 179.795 155.857 179.795 157.41C179.795 158.962 181.023 160.205 182.573 160.205C182.944 160.205 183.267 160.512 183.267 160.9C183.267 161.288 182.944 161.577 182.573 161.577C182.202 161.577 181.893 161.27 181.893 160.882H179.777C179.777 162.481 181.021 163.692 182.573 163.692C184.125 163.692 185.368 162.464 185.368 160.914C185.368 160.252 185.144 159.654 184.77 159.169C184.254 158.507 183.463 158.087 182.573 158.087C182.202 158.087 181.893 157.78 181.893 157.392C181.893 157.004 182.199 156.715 182.573 156.715C182.946 156.715 183.267 157.022 183.267 157.41L185.368 157.392Z" fill="#E6E6E6"/>
<path fill-rule="evenodd" clip-rule="evenodd" d="M169.649 103.584C169.617 103.149 169.6 102.729 169.6 102.341C169.6 101.001 169.792 99.9652 170.198 99.2561C170.715 98.3194 171.555 97.7533 172.734 97.5287C173.3 97.4324 173.849 97.3682 174.365 97.3682C174.882 97.3682 175.398 97.4324 175.882 97.5462C176.804 97.7738 177.563 98.2903 178.112 99.0811C178.678 99.8719 178.97 100.954 179.016 102.329V102.717C179.016 103.896 178.838 104.768 178.468 105.317C178.048 105.93 177.371 106.4 176.431 106.706C177.207 106.82 177.805 107.109 178.191 107.561C178.579 108.013 178.853 108.611 178.999 109.353C179.095 109.79 179.127 110.24 179.127 110.742C179.127 111.162 179.095 111.597 179.046 112.081C178.917 113.132 178.479 114.036 177.753 114.812C177.026 115.571 175.912 115.977 174.394 116.009H174.202C172.781 116.009 171.648 115.638 170.793 114.894C169.921 114.135 169.469 112.519 169.469 110.015V109.933L172.731 109.755V110.176C172.731 111.935 173.183 112.84 174.105 112.907C174.187 112.907 174.251 112.924 174.298 112.924C175.17 112.924 175.704 112.455 175.879 111.535C175.929 111.276 175.944 111.019 175.944 110.791C175.944 110.129 175.766 109.548 175.378 109.064C174.861 108.401 174.003 108.077 172.792 108.077L172.646 105.688H173.049C174.099 105.688 174.826 105.396 175.214 104.783C175.585 104.217 175.763 103.49 175.763 102.586C175.763 102.425 175.763 102.23 175.745 102.052C175.664 100.969 175.179 100.435 174.292 100.435H174.132C173.244 100.499 172.807 101.372 172.807 103.085C172.807 103.277 172.807 103.505 172.821 103.73L169.641 103.584H169.649Z" fill="#FFDB79"/>
<path fill-rule="evenodd" clip-rule="evenodd" d="M108.478 101.646C108.429 101.033 108.414 100.467 108.414 99.9501C108.414 98.1234 108.738 96.8161 109.4 96.0078C110.255 94.9748 111.323 94.3591 112.648 94.149C113.115 94.0848 113.57 94.0527 114.023 94.0527C114.831 94.0527 115.607 94.1665 116.348 94.3912C117.495 94.7472 118.382 95.4417 118.98 96.4922C119.447 97.3793 119.692 98.494 119.692 99.8509C119.692 100.125 119.675 100.4 119.675 100.691C119.546 102.451 119.03 104.068 118.093 105.538C117.157 107.009 115.54 109.125 113.264 111.856L119.935 111.905L119.885 115.734C116.961 115.88 113.197 115.944 108.577 115.944L108.221 111.76C110.999 108.771 112.972 106.478 114.151 104.861C115.234 103.376 115.782 101.937 115.782 100.499V100.128C115.668 98.5932 115.023 97.817 113.845 97.817H113.795C112.777 97.8491 112.26 98.7858 112.26 100.613C112.26 100.951 112.278 101.325 112.31 101.727L108.481 101.646H108.478Z" fill="#E6E6E6"/>
<path fill-rule="evenodd" clip-rule="evenodd" d="M129.412 150.444C129.362 153.578 129.348 156.695 129.348 159.814C129.348 161.363 129.348 162.916 129.362 164.465L126.891 164.597C126.841 160.608 126.777 156.89 126.713 153.482C126.164 153.596 125.402 153.884 124.451 154.322L123.967 152.142L126.73 150.383L129.412 150.447V150.444Z" fill="#FFD068"/>
<path fill-rule="evenodd" clip-rule="evenodd" d="M226.252 155.839V117.586C226.252 116.019 227.545 114.727 229.112 114.727H256.688C258.255 114.727 259.53 116.019 259.53 117.586V155.839C259.53 157.406 258.255 158.699 256.688 158.699H229.112C227.545 158.699 226.252 157.406 226.252 155.839Z" fill="#FFE5AF"/>
<path fill-rule="evenodd" clip-rule="evenodd" d="M224.312 154.273V115.973C224.312 114.424 225.587 113.146 227.14 113.146H254.488C256.037 113.146 257.315 114.421 257.315 115.973V154.273C257.315 155.825 256.04 157.1 254.488 157.1H227.14C225.59 157.1 224.312 155.825 224.312 154.273Z" fill="#FEC878"/>
<path fill-rule="evenodd" clip-rule="evenodd" d="M232.534 118.559H250.255C251.046 118.559 251.708 119.203 251.708 119.997V126.394C251.708 127.184 251.046 127.832 250.255 127.832H232.534C231.743 127.832 231.095 127.184 231.095 126.394V119.997C231.095 119.206 231.74 118.559 232.534 118.559Z" fill="white"/>
<path fill-rule="evenodd" clip-rule="evenodd" d="M225.17 151.901C225.17 151.11 225.8 150.479 226.576 150.479C227.353 150.479 227.998 151.11 227.998 151.901C227.998 152.691 227.367 153.307 226.576 153.307C225.786 153.307 225.17 152.677 225.17 151.901Z" fill="#686868"/>
<path fill-rule="evenodd" clip-rule="evenodd" d="M221.808 151.851C221.808 151.271 222.292 150.801 222.876 150.801H225.8C226.38 150.801 226.868 151.271 226.868 151.851C226.868 152.432 226.383 152.902 225.8 152.902H222.876C222.295 152.902 221.808 152.432 221.808 151.851Z" fill="white"/>
<path fill-rule="evenodd" clip-rule="evenodd" d="M225.17 146.309C225.17 145.518 225.8 144.888 226.576 144.888C227.353 144.888 227.998 145.518 227.998 146.309C227.998 147.1 227.367 147.715 226.576 147.715C225.786 147.715 225.17 147.085 225.17 146.309Z" fill="#686868"/>
<path fill-rule="evenodd" clip-rule="evenodd" d="M221.808 146.262C221.808 145.682 222.292 145.212 222.876 145.212H225.8C226.38 145.212 226.868 145.682 226.868 146.262C226.868 146.843 226.383 147.313 225.8 147.313H222.876C222.295 147.313 221.808 146.843 221.808 146.262Z" fill="white"/>
<path fill-rule="evenodd" clip-rule="evenodd" d="M225.17 140.721C225.17 139.93 225.8 139.3 226.576 139.3C227.353 139.3 227.998 139.93 227.998 140.721C227.998 141.512 227.367 142.127 226.576 142.127C225.786 142.127 225.17 141.497 225.17 140.721Z" fill="#686868"/>
<path fill-rule="evenodd" clip-rule="evenodd" d="M221.808 140.672C221.808 140.091 222.292 139.621 222.876 139.621H225.8C226.38 139.621 226.868 140.088 226.868 140.672C226.868 141.252 226.383 141.722 225.8 141.722H222.876C222.295 141.722 221.808 141.252 221.808 140.672Z" fill="white"/>
<path fill-rule="evenodd" clip-rule="evenodd" d="M225.17 135.13C225.17 134.339 225.8 133.709 226.576 133.709C227.353 133.709 227.998 134.339 227.998 135.13C227.998 135.921 227.367 136.537 226.576 136.537C225.786 136.537 225.17 135.906 225.17 135.13Z" fill="#686868"/>
<path fill-rule="evenodd" clip-rule="evenodd" d="M221.808 135.083C221.808 134.502 222.292 134.032 222.876 134.032H225.8C226.38 134.032 226.868 134.502 226.868 135.083C226.868 135.663 226.383 136.133 225.8 136.133H222.876C222.295 136.133 221.808 135.663 221.808 135.083Z" fill="white"/>
<path fill-rule="evenodd" clip-rule="evenodd" d="M225.17 129.542C225.17 128.751 225.8 128.121 226.576 128.121C227.353 128.121 227.998 128.751 227.998 129.542C227.998 130.333 227.367 130.949 226.576 130.949C225.786 130.949 225.17 130.318 225.17 129.542Z" fill="#686868"/>
<path fill-rule="evenodd" clip-rule="evenodd" d="M221.808 129.493C221.808 128.912 222.292 128.442 222.876 128.442H225.8C226.38 128.442 226.868 128.909 226.868 129.493C226.868 130.074 226.383 130.543 225.8 130.543H222.876C222.295 130.543 221.808 130.074 221.808 129.493Z" fill="white"/>
<path fill-rule="evenodd" clip-rule="evenodd" d="M225.17 123.954C225.17 123.164 225.8 122.533 226.576 122.533C227.353 122.533 227.998 123.164 227.998 123.954C227.998 124.745 227.367 125.358 226.576 125.358C225.786 125.358 225.17 124.728 225.17 123.954Z" fill="#686868"/>
<path fill-rule="evenodd" clip-rule="evenodd" d="M221.808 123.904C221.808 123.323 222.292 122.854 222.876 122.854H225.8C226.38 122.854 226.868 123.323 226.868 123.904C226.868 124.485 226.383 124.955 225.8 124.955H222.876C222.295 124.955 221.808 124.485 221.808 123.904Z" fill="white"/>
<path fill-rule="evenodd" clip-rule="evenodd" d="M225.17 118.362C225.17 117.572 225.8 116.941 226.576 116.941C227.353 116.941 227.998 117.572 227.998 118.362C227.998 119.153 227.367 119.769 226.576 119.769C225.786 119.769 225.17 119.139 225.17 118.362Z" fill="#686868"/>
<path fill-rule="evenodd" clip-rule="evenodd" d="M221.808 118.316C221.808 117.735 222.292 117.266 222.876 117.266H225.8C226.38 117.266 226.868 117.735 226.868 118.316C226.868 118.897 226.383 119.367 225.8 119.367H222.876C222.295 119.367 221.808 118.897 221.808 118.316Z" fill="white"/>
<path fill-rule="evenodd" clip-rule="evenodd" d="M194.784 181.396L252.291 225.771C252.807 226.174 253.566 226.077 253.971 225.561L258.462 219.745C258.865 219.211 258.769 218.453 258.252 218.05L200.728 173.675C200.212 173.272 199.453 173.369 199.048 173.885L194.557 179.701C194.154 180.235 194.25 180.993 194.784 181.396Z" fill="#1B7D9A"/>
<path fill-rule="evenodd" clip-rule="evenodd" d="M198.823 174.174L188.969 165.323L181.975 165.355L196.804 176.791L198.823 174.174Z" fill="#808080"/>
<path fill-rule="evenodd" clip-rule="evenodd" d="M194.77 179.423L183.72 172.14L181.975 165.355L196.804 176.791L194.77 179.423Z" fill="#B3B3B3"/>
<path fill-rule="evenodd" clip-rule="evenodd" d="M188.42 168.731C188.969 169.166 189.065 169.96 188.645 170.508C188.225 171.057 187.434 171.156 186.885 170.736C186.337 170.316 186.223 169.525 186.658 168.976C187.078 168.41 187.869 168.314 188.417 168.734L188.42 168.731Z" fill="#E6E6E6"/>
<path fill-rule="evenodd" clip-rule="evenodd" d="M259.802 220.777C260.546 221.358 260.689 222.426 260.109 223.167L257.765 226.205C257.199 226.932 256.134 227.077 255.39 226.511C254.646 225.931 254.518 224.863 255.084 224.121L257.427 221.084C257.993 220.34 259.076 220.211 259.802 220.777Z" fill="#104B5C"/>
<path fill-rule="evenodd" clip-rule="evenodd" d="M256.652 224.429L241.467 212.716L240.726 213.67L255.908 225.38L256.652 224.429Z" fill="#104B5C"/>
<path d="M237.08 201.724L232.261 207.972L233.391 208.843L238.21 202.596L237.08 201.724Z" fill="#E6E6E6"/>
<path fill-rule="evenodd" clip-rule="evenodd" d="M208.71 179.829L209.76 180.634L204.671 187.226L203.621 186.418L208.71 179.829Z" fill="#E6E6E6"/>
<path d="M109.382 200.471C109.382 199.648 110.062 198.985 110.867 198.985C111.673 198.985 112.352 199.648 112.352 200.471V203.444C112.352 204.252 111.69 204.929 110.867 204.929C110.044 204.929 109.382 204.25 109.382 203.444V200.471ZM276.102 227.804C276.925 227.804 277.587 228.466 277.587 229.289C277.587 230.112 276.925 230.775 276.102 230.775H273.146C272.323 230.775 271.661 230.112 271.661 229.289C271.661 228.466 272.323 227.804 273.146 227.804H276.102ZM264.229 227.804C265.051 227.804 265.714 228.466 265.714 229.289C265.714 230.112 265.051 230.775 264.229 230.775H261.255C260.447 230.775 259.77 230.112 259.77 229.289C259.77 228.466 260.45 227.804 261.255 227.804H264.229ZM252.355 227.804C253.178 227.804 253.84 228.466 253.84 229.289C253.84 230.112 253.178 230.775 252.355 230.775H249.382C248.559 230.775 247.896 230.112 247.896 229.289C247.896 228.466 248.559 227.804 249.382 227.804H252.355ZM240.484 227.804C241.293 227.804 241.955 228.466 241.955 229.289C241.955 230.112 241.293 230.775 240.484 230.775H237.514C236.691 230.775 236.028 230.112 236.028 229.289C236.028 228.466 236.691 227.804 237.514 227.804H240.484ZM228.593 227.804C229.416 227.804 230.079 228.466 230.079 229.289C230.079 230.112 229.416 230.775 228.593 230.775H225.62C224.811 230.775 224.149 230.112 224.149 229.289C224.149 228.466 224.811 227.804 225.62 227.804H228.593ZM216.723 227.804C217.545 227.804 218.208 228.466 218.208 229.289C218.208 230.112 217.545 230.775 216.723 230.775H213.749C212.926 230.775 212.264 230.112 212.264 229.289C212.264 228.466 212.926 227.804 213.749 227.804H216.723ZM204.849 227.804C205.657 227.804 206.334 228.466 206.334 229.289C206.334 230.112 205.657 230.775 204.849 230.775H201.876C201.053 230.775 200.39 230.112 200.39 229.289C200.39 228.466 201.053 227.804 201.876 227.804H204.849ZM192.961 227.804C193.784 227.804 194.446 228.466 194.446 229.289C194.446 230.112 193.784 230.775 192.961 230.775H190.005C189.182 230.775 188.52 230.112 188.52 229.289C188.52 228.466 189.182 227.804 190.005 227.804H192.961ZM181.087 227.804C181.91 227.804 182.573 228.466 182.573 229.289C182.573 230.112 181.91 230.775 181.087 230.775H178.114C177.305 230.775 176.628 230.112 176.628 229.289C176.628 228.466 177.305 227.804 178.114 227.804H181.087ZM169.214 227.804C170.037 227.804 170.699 228.466 170.699 229.289C170.699 230.112 170.037 230.775 169.214 230.775H166.24C165.417 230.775 164.755 230.112 164.755 229.289C164.755 228.466 165.417 227.804 166.24 227.804H169.214ZM157.34 227.804C158.148 227.804 158.811 228.466 158.811 229.289C158.811 230.112 158.148 230.775 157.34 230.775H154.367C153.544 230.775 152.881 230.112 152.881 229.289C152.881 228.466 153.544 227.804 154.367 227.804H157.34ZM145.452 227.804C146.275 227.804 146.937 228.466 146.937 229.289C146.937 230.112 146.275 230.775 145.452 230.775H142.478C141.67 230.775 141.008 230.112 141.008 229.289C141.008 228.466 141.67 227.804 142.478 227.804H145.452ZM133.578 227.804C134.401 227.804 135.064 228.466 135.064 229.289C135.064 230.112 134.401 230.775 133.578 230.775H130.605C129.782 230.775 129.12 230.112 129.12 229.289C129.12 228.466 129.782 227.804 130.605 227.804H133.578ZM121.705 227.804C122.513 227.804 123.19 228.466 123.19 229.289C123.19 230.112 122.51 230.775 121.705 230.775H118.731C117.908 230.775 117.246 230.112 117.246 229.289C117.246 228.466 117.908 227.804 118.731 227.804H121.705ZM112.352 227.188C112.352 228.011 111.69 228.674 110.867 228.674C110.044 228.674 109.382 228.011 109.382 227.188V224.215C109.382 223.407 110.062 222.744 110.867 222.744C111.673 222.744 112.352 223.407 112.352 224.215V227.188ZM112.352 215.318C112.352 216.141 111.69 216.803 110.867 216.803C110.044 216.803 109.382 216.141 109.382 215.318V212.344C109.382 211.521 110.062 210.859 110.867 210.859C111.673 210.859 112.352 211.521 112.352 212.344V215.318Z" fill="#FEFEFE"/>
<path fill-rule="evenodd" clip-rule="evenodd" d="M239.66 97.978H241.679V85.3633H239.66V97.978ZM203.992 121.886L203.233 123.759L194.301 120.123L195.06 118.25L203.992 121.886ZM226.286 100.61L224.413 101.386L220.73 92.4862L222.589 91.71L226.289 100.61H226.286ZM201.556 129.382L201.167 131.369L194.981 130.19L195.352 128.203L201.556 129.382ZM207.853 115.005L206.738 116.686L201.488 113.213L202.603 111.532L207.853 115.005ZM219.114 104.228L217.433 105.361L213.896 100.143L215.577 99.011L219.114 104.228ZM233.701 98.5587L231.714 98.9614L230.453 92.7897L232.44 92.387L233.701 98.5587ZM201.214 97.7533L199.793 99.2065L201.1 100.499L202.521 99.046L201.214 97.7533ZM212.846 109.172L211.424 110.625L202.428 101.789L203.849 100.336L212.846 109.172ZM277.346 121.886L278.105 123.759L287.037 120.123L286.261 118.25L277.343 121.886H277.346ZM255.055 100.61L256.929 101.386L260.611 92.4862L258.738 91.71L255.055 100.61ZM279.786 129.382L280.174 131.369L286.36 130.19L285.99 128.203L279.786 129.382ZM273.486 115.005L274.6 116.686L279.85 113.213L278.735 111.532L273.486 115.005ZM262.228 104.228L263.909 105.361L267.445 100.143L265.765 99.011L262.228 104.228ZM247.64 98.5587L249.628 98.9614L250.888 92.7897L248.901 92.387L247.64 98.5587ZM280.124 97.7533L281.545 99.2065L280.221 100.499L278.814 99.046L280.121 97.7533H280.124ZM239.66 81.6807H241.679V83.522H239.66V81.6807ZM268.496 109.172L269.917 110.625L278.913 101.789L277.492 100.336L268.496 109.172Z" fill="white"/>
<path d="M428.106 53.6441H389.266C384.923 53.6441 381.346 49.8197 381.346 45.134V42.3877V15.43C381.346 14.9783 381.521 14.5989 381.798 14.2857C382.075 13.9725 382.46 13.7979 382.876 13.7979H383.918V45.134C383.918 46.73 384.508 48.1574 385.484 49.1994C386.459 50.2413 387.814 50.9038 389.272 50.9038H428.112C432.979 50.9038 436.936 55.1799 436.936 60.3534C436.936 65.5631 432.973 69.8392 428.112 69.8392H269.341C267.637 69.8392 266.077 70.568 264.927 71.7845C263.783 73.0373 263.084 74.7056 263.084 76.5425C263.084 78.3855 263.783 80.0838 264.927 81.3004C266.071 82.517 267.637 83.2458 269.341 83.2458H403.238V83.2819C403.341 83.2458 403.413 83.2458 403.479 83.2458H405.009C409.869 83.2458 413.832 87.5159 413.832 92.7315C413.832 97.905 409.869 102.181 405.009 102.181L309.818 102.181C308.114 102.181 306.554 102.946 305.404 104.163C304.259 105.379 303.561 107.048 303.561 108.884C303.561 110.764 304.253 112.432 305.404 113.642C306.548 114.859 308.114 115.624 309.818 115.624L386.212 115.624C391.837 115.624 396.427 120.556 396.427 126.603V221.383C396.427 222.389 396.047 223.364 395.385 224.057C394.969 224.509 394.445 224.822 393.891 224.996V126.603C393.891 124.309 393.024 122.261 391.633 120.767C390.278 119.346 388.471 118.436 386.459 118.37L309.752 118.37C308.325 118.37 306.97 117.991 305.789 117.328V117.292C304.988 116.84 304.229 116.286 303.603 115.588C302.007 113.883 301.031 111.522 300.995 108.951C301.031 103.777 304.958 99.5733 309.752 99.5733H340.498V99.4348L405.009 99.4348C406.744 99.4348 408.31 98.6699 409.424 97.4533C410.568 96.2367 411.267 94.5685 411.267 92.7315C411.267 90.8886 410.574 89.1902 409.424 87.9736C408.31 86.757 406.75 85.9921 405.009 85.9921H269.341C264.511 85.9921 260.518 81.7521 260.518 76.5425C260.518 73.9708 261.494 71.6099 263.054 69.9055L263.126 69.8693C263.891 69.0382 264.794 68.3757 265.8 67.8878C266.776 67.4 267.848 67.123 268.998 67.0868H428.118C429.859 67.0868 431.419 66.3219 432.533 65.1054C433.677 63.8888 434.376 62.1843 434.376 60.3474C434.376 58.5045 433.683 56.8362 432.533 55.6196C431.419 54.403 429.859 53.6381 428.118 53.6381L428.106 53.6441Z" fill="#00D0FF"/>
<path fill-rule="evenodd" clip-rule="evenodd" d="M410.779 17.2002L395.493 21.1271C383.683 14.49 382.328 7.92527 394.975 1.42676L410.472 5.2813C439.272 12.4363 438.61 9.93684 410.785 17.2002H410.779Z" fill="#FBC081"/>
<path fill-rule="evenodd" clip-rule="evenodd" d="M418.311 6.98633C437.211 11.4311 436.861 10.9131 418.522 15.4302C416.752 14.316 415.674 12.8585 415.637 11.2263C415.565 9.6303 416.607 8.13667 418.311 6.98633Z" fill="#0085F2"/>
<path fill-rule="evenodd" clip-rule="evenodd" d="M298.871 7.75124L308.08 7.71509L389.513 7.54044C393.68 7.54044 397.053 5.83601 397.017 3.75215C396.945 1.66829 393.476 0 389.302 0L298.66 0.174655C298.311 0.174655 297.968 0.210789 297.654 0.210789L288.343 0.246933C284.766 0.246933 281.845 1.70443 281.917 3.47511L282.019 7.78134L298.871 7.74521V7.75124Z" fill="url(#paint1_linear_51_19152)"/>
<path fill-rule="evenodd" clip-rule="evenodd" d="M298.872 6.70966L308.08 6.67352L389.513 6.43262C393.681 6.43262 397.156 8.3418 397.228 10.6726C397.265 13.0335 393.892 14.9788 389.724 14.9788L308.285 15.2559L299.046 15.292L282.231 15.3282L282.02 6.78193L298.872 6.70966Z" fill="url(#paint2_linear_51_19152)"/>
<path fill-rule="evenodd" clip-rule="evenodd" d="M299.258 22.8319H302.907L389.936 22.5187C394.103 22.5187 397.476 20.5373 397.44 18.1402C397.368 15.7432 393.899 13.7979 389.725 13.7979L308.286 14.0749L299.077 14.111L282.225 14.1833L282.328 19.1882C282.4 21.0673 284.863 22.6272 287.989 22.8741L299.246 22.8379L299.258 22.8319Z" fill="url(#paint3_linear_51_19152)"/>
<path fill-rule="evenodd" clip-rule="evenodd" d="M265.175 6.05312L265.488 17.3758C265.554 20.5016 268.198 23.0372 271.324 23.0372L286.02 23.001C289.145 23.001 291.615 20.4655 291.542 17.3397L291.229 6.01096C291.157 2.88517 288.519 0.349609 285.429 0.349609L270.698 0.385744C267.572 0.385744 265.103 2.95744 265.175 6.04709V6.05312Z" fill="#0085F2"/>
<path fill-rule="evenodd" clip-rule="evenodd" d="M406.329 293.751V193.696C406.329 189.594 402.992 186.228 398.897 186.228H326.769C322.667 186.228 319.3 189.6 319.3 193.696V293.751C319.3 297.852 322.673 301.183 326.769 301.183H398.897C402.998 301.183 406.329 297.846 406.329 293.751Z" fill="url(#paint4_linear_51_19152)"/>
<path fill-rule="evenodd" clip-rule="evenodd" d="M411.406 289.651V189.451C411.406 185.385 408.069 182.049 404.004 182.049H332.502C328.437 182.049 325.1 185.385 325.1 189.451V289.651C325.1 293.716 328.437 297.053 332.502 297.053H404.004C408.069 297.053 411.406 293.716 411.406 289.651Z" fill="url(#paint5_linear_51_19152)"/>
<path fill-rule="evenodd" clip-rule="evenodd" d="M401.606 295.348V183.753C401.606 182.814 400.877 182.049 399.938 182.049H383.713C382.773 182.049 382.008 182.814 382.008 183.753V295.348C382.008 296.288 382.773 297.053 383.713 297.053H399.938C400.877 297.053 401.606 296.288 401.606 295.348Z" fill="url(#paint6_linear_51_19152)"/>
<path fill-rule="evenodd" clip-rule="evenodd" d="M361.965 297.052H346.469V312.753L354.076 305.146L361.965 313V297.052Z" fill="#1B8A75"/>
</g>
<defs>
<filter id="filter0_d_51_19152" x="0" y="0" width="440.936" height="321" filterUnits="userSpaceOnUse" color-interpolation-filters="sRGB">
<feFlood flood-opacity="0" result="BackgroundImageFix"/>
<feColorMatrix in="SourceAlpha" type="matrix" values="0 0 0 0 0 0 0 0 0 0 0 0 0 0 0 0 0 0 127 0" result="hardAlpha"/>
<feOffset dy="4"/>
<feGaussianBlur stdDeviation="2"/>
<feComposite in2="hardAlpha" operator="out"/>
<feColorMatrix type="matrix" values="0 0 0 0 0 0 0 0 0 0 0 0 0 0 0 0 0 0 0.25 0"/>
<feBlend mode="normal" in2="BackgroundImageFix" result="effect1_dropShadow_51_19152"/>
<feBlend mode="normal" in="SourceGraphic" in2="effect1_dropShadow_51_19152" result="shape"/>
</filter>
<linearGradient id="paint0_linear_51_19152" x1="4.00001" y1="112.217" x2="275.674" y2="357.621" gradientUnits="userSpaceOnUse">
<stop stop-color="#3EF4A7"/>
<stop offset="1" stop-color="#096EE0"/>
</linearGradient>
<linearGradient id="paint1_linear_51_19152" x1="339.466" y1="0" x2="339.466" y2="7.78134" gradientUnits="userSpaceOnUse">
<stop stop-color="white"/>
<stop offset="1" stop-color="#EAEAEA"/>
</linearGradient>
<linearGradient id="paint2_linear_51_19152" x1="339.624" y1="6.43262" x2="339.624" y2="15.3282" gradientUnits="userSpaceOnUse">
<stop stop-color="white"/>
<stop offset="1" stop-color="#EAEAEA"/>
</linearGradient>
<linearGradient id="paint3_linear_51_19152" x1="339.833" y1="13.7979" x2="339.833" y2="22.8741" gradientUnits="userSpaceOnUse">
<stop stop-color="white"/>
<stop offset="1" stop-color="#EAEAEA"/>
</linearGradient>
<linearGradient id="paint4_linear_51_19152" x1="362.815" y1="186.228" x2="362.815" y2="301.183" gradientUnits="userSpaceOnUse">
<stop stop-color="white"/>
<stop offset="1" stop-color="#EAEAEA"/>
</linearGradient>
<linearGradient id="paint5_linear_51_19152" x1="368.253" y1="297.053" x2="368.253" y2="182.049" gradientUnits="userSpaceOnUse">
<stop stop-color="#B0BBC9"/>
<stop offset="1" stop-color="#D5DBE2"/>
</linearGradient>
<linearGradient id="paint6_linear_51_19152" x1="401.606" y1="221.318" x2="376.209" y2="223.691" gradientUnits="userSpaceOnUse">
<stop stop-color="#3EF4A7"/>
<stop offset="1" stop-color="#096EE0"/>
</linearGradient>
</defs>
</svg>

