<svg width="425" height="310" viewBox="0 0 425 310" fill="none" xmlns="http://www.w3.org/2000/svg">
<path d="M305.508 256.066C306.289 255.904 307.028 255.782 307.739 255.402C308.198 256.622 308.722 257.617 309.992 258.174C311.022 258.626 312.028 258.698 313.063 258.232C314.015 257.804 314.432 257.23 315.033 256.417L315.376 255.977L316.375 256.76L317.242 256.581C316.558 257.917 315.578 259.171 314.22 259.861C312.89 260.537 310.688 260.725 309.271 260.175C307.297 259.41 306.317 257.914 305.509 256.065L305.508 256.066Z" fill="#ECEFF2"/>
<path d="M305.511 256.069C305.502 255.114 305.405 254.122 305.611 253.182C305.951 251.626 306.992 250.323 308.31 249.466C309.686 248.569 311.269 248.165 312.893 248.564C314.907 249.057 316.183 250.477 317.194 252.203C316.741 253.002 316.264 253.119 315.444 253.457C314.77 252.329 314.068 251.289 312.688 250.982C311.637 250.748 310.444 250.864 309.549 251.488C308.537 252.195 307.978 253.189 307.794 254.399C307.742 254.738 307.737 255.062 307.743 255.404C307.031 255.784 306.293 255.906 305.511 256.068V256.069Z" fill="url(#paint0_linear_1_9603)"/>
<path d="M307.742 255.401C307.736 255.059 307.742 254.736 307.793 254.396C307.977 253.187 308.537 252.192 309.549 251.485C310.444 250.861 311.636 250.745 312.688 250.979C314.068 251.287 314.771 252.326 315.444 253.455C315.459 254.299 315.504 255.139 315.377 255.976L315.034 256.416C314.434 257.228 314.015 257.802 313.064 258.231C312.029 258.696 311.023 258.624 309.993 258.173C308.722 257.615 308.199 256.621 307.74 255.401H307.742Z" fill="#020D40"/>
<path d="M335.599 118.914C335.238 115.006 335.55 110.787 335.55 106.839L335.557 82.2464C335.557 78.7071 335.926 74.6973 335.449 71.2069L334.052 70.9951C333.564 70.1286 333.795 68.6624 333.792 67.6604L333.781 60.4688L338.161 60.4871L338.049 67.8743C338.031 68.7652 338.198 70.1204 337.811 70.9269C337.222 71.0277 336.821 71.1743 336.288 71.437L335.83 71.6926L335.781 104.515L335.807 113.357C335.811 115.171 335.971 117.135 335.599 118.914Z" fill="#3856B0"/>
<path d="M120.825 41.1635C120.746 40.4345 120.702 39.9183 120.932 39.2137C121.701 36.8524 122.4 34.6968 123.635 32.5138C126.122 28.1181 130.518 24.2795 134.932 21.9274C141.407 18.4776 150.178 17.6447 157.202 19.8044C164.391 22.0139 170.126 26.7008 173.619 33.3477C174.703 35.4086 176.46 39.3929 175.999 41.7286C175.322 38.7229 174.352 35.7721 172.814 33.0901C169.197 26.7812 162.809 22.1422 155.817 20.34C148.542 18.4634 140.631 19.5916 134.163 23.3926C127.414 27.3596 122.78 33.6053 120.823 41.1635H120.825Z" fill="#2198E0"/>
<path d="M322.302 41.6651C325.202 43.8298 328.387 45.1158 331.95 45.7186C332.304 45.7787 332.166 45.7451 332.524 45.9253C331.939 46.4039 331.764 47.3661 331.507 48.0636C331.03 49.3689 330.457 50.6295 329.887 51.8941C326.107 50.3708 322.817 48.6938 319.51 46.297C320.358 44.6688 321.225 43.1588 322.302 41.6641V41.6651Z" fill="#7A8797"/>
<path d="M338.33 45.7695C340.151 45.1911 341.994 44.6341 343.719 43.8002C345.469 42.9521 347.078 41.829 348.82 40.9492L351.375 45.3754C347.979 47.7825 344.489 49.8077 340.702 51.5478L338.33 45.7684V45.7695Z" fill="#7A8797"/>
<path d="M346.704 9.19248C347.687 7.92378 349.255 5.75396 350.789 5.17969L358.629 13.863L353.75 18.7016L353.325 18.7383C351.292 15.7294 349.552 11.958 346.856 9.51729L346.703 9.19146L346.704 9.19248Z" fill="#7A8797"/>
<path d="M32.7305 224.984C42.1869 225.313 51.2366 229.118 57.7282 236.132C62.5627 241.355 65.993 249.047 66.358 256.174L126.375 256.15L126.459 255.812C126.805 254.44 127.237 253.355 128.509 252.571C129.558 251.925 130.939 251.757 132.117 252.136C133.265 252.506 134.22 253.344 134.743 254.427C135.324 255.634 135.37 256.741 134.911 257.986C134.502 259.093 133.553 260.017 132.452 260.439C131.455 260.821 129.911 260.79 128.961 260.307C127.462 259.548 126.828 258.428 126.361 256.892L66.292 256.923L56.8834 256.912L48.9652 256.922L48.8676 256.19L56.8783 256.186C56.1137 250.844 54.5409 246.272 50.8228 242.242C45.7291 236.721 40.1494 234.526 32.7467 234.248L32.7305 224.985V224.984Z" fill="#B8E9FF"/>
<path d="M130.411 252.688C131.075 252.766 131.757 252.84 132.371 253.124C133.216 253.514 133.926 254.257 134.246 255.134C134.625 256.172 134.546 257.255 134.026 258.23C133.398 259.408 132.441 259.78 131.245 260.12C130.554 260.031 129.764 259.96 129.132 259.65C128.272 259.229 127.534 258.333 127.236 257.427C126.935 256.513 127.14 255.407 127.59 254.575C128.23 253.39 129.207 253.039 130.411 252.689V252.688Z" fill="#020D40"/>
<path d="M33.512 62.4492L34.2197 62.6223L34.2298 99.8667L43.4859 99.8015C45.0272 99.7964 46.8299 99.6019 48.3224 100.004C49.0839 100.209 49.7173 100.658 50.2826 101.199C51.2871 102.16 51.9022 103.423 51.9266 104.827V105.16L51.7721 115.194C51.7619 116.949 51.889 118.788 51.6135 120.515L51.5362 122.061C50.5774 121.022 49.7539 120.083 48.5654 119.289C47.9716 118.893 47.5497 118.665 46.898 118.404L46.351 118.107C45.9626 117.893 45.682 117.768 45.2438 117.681C44.6124 117.557 44.0044 117.296 43.4066 117.067L43.1097 116.972C42.1754 116.656 41.5999 116.05 40.569 115.904C40.2131 115.323 40.204 115.297 39.5746 115.047L39.3835 115.078C38.8843 115.154 38.5691 115.162 38.0689 115.078C35.6705 114.672 32.5858 115.035 30.1244 115.035H20.975C19.4337 115.037 17.7704 114.907 16.2412 115.046C15.8772 115.08 15.8793 115.069 15.621 115.293C15.3404 115.535 15.0761 115.929 15.0008 116.29C14.4172 116.56 13.8072 116.902 13.185 117.063C12.3899 117.268 11.6681 117.731 10.8435 117.952C9.84309 118.22 8.93822 118.461 8.1889 119.205C7.33487 120.052 6.3934 120.77 5.78541 121.825C5.65324 122.055 5.50378 122.195 5.29637 122.357C5.2618 121.337 5.33705 120.213 4.94561 119.259C4.73617 118.366 4.91511 116.967 4.91206 116.027L4.89681 108.139C4.89884 105.61 4.83073 103.604 6.78789 101.697C7.56668 100.939 8.61491 100.287 9.68652 100.069C12.1937 99.5582 15.3262 99.8728 17.8883 99.8769L33.4531 99.9176L33.513 62.4492H33.512Z" fill="#2198E0"/>
<path d="M66.2944 256.922C66.3127 265.936 63.6489 274.342 57.385 281.014C51.299 287.496 42.9955 291.13 34.14 291.4C25.437 291.665 16.8672 288.548 10.5138 282.552C4.06788 276.467 0.237947 268.593 0.012238 259.647C-0.211437 250.778 2.62721 241.95 8.83929 235.472C15.1256 228.917 23.6771 225.153 32.7329 224.985L32.7492 234.247C25.9688 234.489 20.0942 237.242 15.4967 242.197C10.891 247.16 9.08838 253.372 9.38932 260.051C9.65367 265.922 12.6164 271.786 16.9536 275.698C21.9965 280.248 28.1211 282.39 34.8731 282.039C40.8523 281.729 46.9495 278.582 50.9177 274.146C53.7045 271.031 55.9657 266.854 56.6123 262.687C56.9051 260.8 56.8584 258.818 56.8868 256.911L66.2954 256.922H66.2944Z" fill="#3856B0"/>
<path d="M120.83 41.1578C122.786 33.5996 127.42 27.3538 134.169 23.3868C140.636 19.5858 148.548 18.4587 155.824 20.3342C162.816 22.1375 169.204 26.7755 172.82 33.0844C174.358 35.7674 175.328 38.7181 176.005 41.7229C175.931 42.1108 175.818 42.2677 175.983 42.621C176.489 43.7105 176.215 47.3649 176.095 48.6712C176.056 49.0928 176.126 49.1956 176.237 49.5805L176.349 50.1161L173.364 50.0703L157.939 49.9929C157.242 50.2474 155.601 50.054 154.801 50.0662L153.113 50.0499L145.941 50.0255L143.837 50.0285L140.173 50.0438L124.222 50.0804L119.381 50.0947C119.415 49.4196 119.378 48.939 119.814 48.4116L119.876 47.1673C120.975 45.8752 119.965 44.356 120.742 43.1891C120.724 42.7462 120.664 42.2982 120.858 41.8868L120.974 41.7025L120.831 41.1598L120.83 41.1578Z" fill="#030F4A"/>
<path d="M137.09 30.6247C133.658 33.2802 130.823 36.6545 129.467 40.8394C128.86 42.714 128.611 44.6944 128.297 46.6341C127.954 45.0487 128.035 43.2658 128.395 41.6917C129.468 36.9946 132.38 32.3577 136.474 29.75L137.09 30.6257V30.6247Z" fill="#6FBBF5"/>
<path d="M150.97 22.375C157.658 22.9238 163.653 25.8339 167.999 31.0085C170.531 34.0224 171.916 37.7603 172.633 41.5898L172.46 41.6234C171.982 40.707 171.734 39.587 171.361 38.6105C170.577 36.5486 169.586 34.4093 168.244 32.6529C163.734 26.7452 157.489 24.1773 150.336 23.2965L151.16 22.7558L150.969 22.375H150.97Z" fill="#2198E0"/>
<path d="M124.38 43.8187L124.408 42.9349C124.717 37.463 128.14 31.9972 132.162 28.4711C137.431 23.8505 144.068 21.9535 150.971 22.3679L151.162 22.7488L150.337 23.2894C143.401 23.0288 137.18 25.0499 132.061 29.8803C128.958 32.8087 126.67 36.5405 125.35 40.5889C125.022 41.5929 124.949 42.9706 124.379 43.8187H124.38Z" fill="#6FBBF5"/>
<path d="M143.834 50.0318C142.867 48.1389 142.342 46.4619 142.999 44.3562C143.519 42.6904 144.807 41.2446 146.372 40.486C148.004 39.6948 150.082 39.6684 151.774 40.2936C153.381 40.8872 154.676 42.0449 155.381 43.6099C156.052 45.1006 156.229 46.9547 155.584 48.4831C155.358 49.0197 155.112 49.5807 154.798 50.0705L153.11 50.0542C153.974 49.1368 154.752 47.976 154.801 46.6727C154.857 45.1851 154.256 43.7952 153.201 42.7536C152.151 41.716 150.644 41.0674 149.164 41.1071C147.779 41.1448 146.392 41.8229 145.435 42.8157C144.551 43.7321 143.877 45.127 143.982 46.4242C144.11 47.9668 144.845 49.0187 145.94 50.0298L143.835 50.0328L143.834 50.0318Z" fill="#B8E9FF"/>
<path d="M139.944 49.5085C139.659 49.3263 139.603 49.1807 139.494 48.864C138.723 46.626 139.238 43.4237 140.318 41.376C141.553 39.0321 143.89 37.2482 146.416 36.512C148.906 35.786 151.943 36.1251 154.19 37.4274C156.454 38.7378 158.225 40.7926 158.847 43.3728C159.17 44.7168 159.379 47.8397 158.659 49.0106C158.663 47.4314 158.736 45.8725 158.279 44.3441L158.172 43.9776C157.475 41.6428 155.789 39.7123 153.66 38.5647C151.525 37.4141 148.925 37.073 146.598 37.8031C144.146 38.5729 142.065 40.313 140.87 42.602C139.755 44.7372 139.801 47.1636 139.944 49.5075V49.5085Z" fill="#D5DBE2"/>
<path d="M136.477 29.7488C141.322 26.4427 147.085 25.0182 152.907 26.0731C158.119 27.018 163.263 30.036 166.239 34.4897C166.955 35.5618 167.55 36.6422 168.014 37.8467C168.738 39.7263 169.278 41.4502 169.394 43.4754C168.843 43.1364 168.49 41.051 168.254 40.3688C167.722 38.8242 166.994 37.3407 166.143 35.9488C161.675 28.64 152.311 25.4978 144.184 27.4202C141.655 28.0189 139.235 29.1705 137.091 30.6255L136.475 29.7498L136.477 29.7488Z" fill="#B0BBC9"/>
<path d="M147.425 32.6852C149.339 32.4296 151.301 32.621 153.134 33.2024C156.604 34.3021 159.58 36.7061 161.257 39.9695C162.194 41.7911 163.301 45.6858 162.633 47.6611C162.433 48.2558 162.626 48.9064 162.278 49.4165C162.129 48.7557 162.39 48.4065 162.358 47.7874C162.24 45.532 161.895 43.3419 160.886 41.3054C159.114 37.7254 156.101 35.4771 152.379 34.2044C149.498 33.4906 146.388 33.7625 143.73 35.1055C140.522 36.7275 137.826 39.5806 136.736 43.0415L136.629 43.3928C136.12 44.9598 136.163 46.5279 136.135 48.158L135.879 48.2334L135.761 48.0246C135.058 46.6714 135.696 43.2288 136.118 41.7962C137.033 38.6855 139.279 35.9649 142.14 34.4386C143.849 33.5273 145.525 33.012 147.427 32.6852H147.425Z" fill="#B0BBC9"/>
<path d="M147.944 29.2373C151.202 28.9054 155.139 29.8625 157.961 31.4988C161.773 33.7083 164.366 37.099 165.545 41.3277C165.973 42.8631 165.993 44.1379 165.945 45.7162C165.339 43.2674 164.806 40.9815 163.59 38.7404C160.707 33.4263 155.412 30.9113 149.641 30.3727C146.347 30.4562 143.39 31.1587 140.511 32.7869C137.102 34.7143 134.38 38.0388 133.268 41.8205C132.792 43.4405 132.623 45.1165 132.158 46.7527C131.542 43.2256 132.68 39.5315 134.573 36.5787C136.793 33.1157 140.797 30.5132 144.814 29.7037L147.944 29.2363V29.2373Z" fill="#B0BBC9"/>
<path d="M145.937 50.0259C144.842 49.0138 144.107 47.963 143.98 46.4204C143.874 45.1232 144.548 43.7282 145.433 42.8119C146.39 41.8191 147.776 41.1399 149.161 41.1033C150.641 41.0636 152.148 41.7132 153.198 42.7497C154.254 43.7914 154.854 45.1823 154.798 46.6689C154.75 47.9722 153.972 49.1329 153.108 50.0504L145.936 50.0259H145.937Z" fill="#030F4A"/>
<path d="M254.123 270.227C256.089 277.126 258.95 282.568 265.41 286.187C274.743 291.414 285.375 287.184 295.29 289.61C299.741 290.7 303.986 293.118 307.087 296.509C309.012 298.613 310.829 300.954 313.101 302.701C315.451 304.507 318.24 305.798 321.131 306.427C327.612 307.837 334.171 307.259 340.755 307.247L366.404 307.243L390.187 307.25L394.484 307.252C394.73 307.252 395.575 307.171 395.765 307.252C395.978 307.344 396.097 307.575 396.26 307.736C396.13 307.829 395.772 308.157 395.642 308.184C394.626 308.396 393.054 308.184 391.989 308.183L382.277 308.18L342.822 308.176L334.071 308.214C332.525 308.225 330.864 308.068 329.367 308.401C328.362 308.624 327.226 308.584 326.187 308.736C318.964 309.788 311.563 309.538 304.274 309.567L268.658 309.602L250.624 309.592C247.64 309.586 244.35 309.847 241.416 309.406C243.464 308.586 245.399 307.93 247.18 306.565C250.558 303.971 253.003 299.795 253.661 295.582C254.019 293.296 253.913 290.88 253.925 288.569L253.94 276.955C253.942 274.821 253.793 272.568 254.087 270.461L254.124 270.227H254.123Z" fill="url(#paint1_linear_1_9603)"/>
<path d="M314.485 24.1261C314.364 22.3005 314.976 19.9637 315.733 18.3111L315.853 18.0545C314.293 16.9223 312.767 15.7788 311.53 14.2861C312.885 11.2039 315.709 8.23074 318.021 5.82571L322.652 9.32736C324.894 7.58621 326.902 6.73193 329.557 5.86542L329.657 0.239769C332.868 -0.134935 336.692 -0.0361681 339.903 0.299844L339.999 5.93772C342.476 6.75127 344.528 7.74811 346.699 9.19092L346.852 9.51675C349.548 11.9564 351.288 15.7289 353.321 18.7377L353.746 18.7011C354.879 20.4107 355.177 22.5174 355.407 24.51C355.437 24.788 355.441 24.7126 355.578 25.0395L360.185 25.5038C360.066 29.8282 359.309 33.17 357.854 37.2449L352.651 36.6899C351.53 38.3262 350.349 39.6876 348.819 40.9491C347.076 41.8289 345.467 42.952 343.717 43.8001C341.993 44.6341 340.15 45.19 338.329 45.7694C336.452 46.2337 334.43 46.2154 332.522 45.9221C332.164 45.7419 332.303 45.7755 331.949 45.7154C328.385 45.1126 325.201 43.8266 322.3 41.6619C320.122 39.9116 318.528 37.8405 316.763 35.7053C315.517 36.6838 313.136 37.4139 311.629 37.9973C310.349 33.8685 309.188 29.821 308.684 25.513C310.05 25.234 313.54 25.0232 314.486 24.1272L314.485 24.1261Z" fill="#7A8797"/>
<path d="M320.949 23.3893C321.236 23.1124 321.631 21.0311 321.828 20.5006C322.186 19.5394 322.7 18.6016 323.292 17.7647C325.461 14.7039 328.849 12.8558 332.473 12.1553C333.736 11.912 335.042 11.861 336.32 12.0077C340.033 12.4323 343.128 14.6418 345.452 17.4297C347.613 21.3926 348.663 25.5703 347.325 30.0301C346.326 33.3597 343.686 36.1598 340.651 37.739C337.534 39.3611 333.575 39.6003 330.238 38.517C326.655 37.3531 323.699 34.4197 322.058 31.0819C320.815 28.5547 320.909 26.1202 320.949 23.3883V23.3893Z" fill="url(#paint2_linear_1_9603)"/>
<path d="M333.674 20.4551C334.501 20.4175 335.283 20.4429 336.073 20.7168C337.105 21.0763 338.08 22.0945 338.501 23.0984C338.914 24.0841 338.959 25.42 338.552 26.4046C337.941 27.8953 337.044 28.4573 335.648 29.0652C334.769 29.0428 333.663 29.0591 332.855 28.6864C331.782 28.1926 331.075 27.1886 330.691 26.0991C330.241 24.8274 330.378 23.577 330.993 22.3745C331.596 21.1974 332.505 20.838 333.674 20.4541V20.4551Z" fill="#B8E9FF"/>
<path d="M333.316 21.8034C333.9 21.616 334.757 21.5376 335.353 21.6751C336.202 21.8716 337.026 22.6047 337.454 23.3429C337.863 24.0424 337.942 24.8947 337.718 25.6726C337.427 26.6949 336.694 27.2824 335.804 27.7711C335.297 27.93 334.366 27.9778 333.837 27.8577C333.114 27.6937 332.225 26.9413 331.826 26.3314C331.417 25.7062 331.26 24.7592 331.428 24.0343C331.696 22.8928 332.337 22.3593 333.316 21.8044V21.8034Z" fill="#F4F4F5"/>
<path d="M32.7503 234.246C40.153 234.524 45.7327 236.719 50.8264 242.24C54.5445 246.27 56.1173 250.842 56.8819 256.184L48.8712 256.188L48.9688 256.92L56.887 256.91C56.8595 258.817 56.9053 260.799 56.6124 262.686C55.9658 266.853 53.7047 271.031 50.9179 274.145C46.9497 278.581 40.8514 281.727 34.8732 282.038C28.1213 282.39 21.9976 280.247 16.9538 275.697C12.6165 271.785 9.6538 265.921 9.38946 260.05C9.08852 253.371 10.8911 247.159 15.4968 242.196C20.0944 237.241 25.9689 234.488 32.7493 234.246H32.7503Z" fill="#030F4A"/>
<path d="M48.9663 256.922C48.8687 260.124 48.4681 263.156 46.7814 265.956C44.5487 269.662 41.036 272.195 36.841 273.207C32.7458 274.196 28.2519 273.513 24.6894 271.272C21.2143 269.085 18.8494 265.643 17.9486 261.638C16.997 257.409 17.7585 252.995 20.0817 249.34C22.4872 245.557 26.2205 243.254 30.5629 242.367C34.2972 241.603 38.5318 242.618 41.6826 244.711C46.0006 247.58 47.853 251.249 48.8687 256.19L48.9663 256.922Z" fill="#FD9B39"/>
<path d="M32.3089 252.71C33.1802 252.642 34.0708 252.726 34.9066 252.993C36.1876 253.402 37.1443 254.339 37.7289 255.529C38.3491 256.794 38.399 258.494 37.8886 259.811C37.1576 261.695 35.9975 262.332 34.2477 263.04C33.2321 263.092 32.1767 263.02 31.2261 262.628C30.0437 262.14 29.1113 261.188 28.6121 260.015C28.0956 258.802 28.0804 257.169 28.5949 255.955C29.3533 254.164 30.5988 253.418 32.3089 252.711V252.71Z" fill="#F8EEFF"/>
<path d="M159.514 234.77L168.247 234.786C170.697 235.36 173.136 235.719 175.523 236.559C180.154 238.188 185.077 241.805 187.655 246.027C189.199 248.555 190.412 251.684 190.803 254.633C191.186 257.539 190.965 260.706 190.965 263.646L190.954 280.181L190.985 299.655C190.987 303.001 191.189 306.551 190.886 309.877C184.52 309.886 177.801 310.821 172.127 307.405C168.758 305.376 166.264 301.836 165.189 298.072C164.486 295.611 164.56 293.216 164.538 290.684L164.475 282.32L164.49 250.615L164.505 244.336C164.504 243.033 164.594 241.632 164.26 240.362C163.525 237.57 161.922 236.176 159.514 234.772V234.77Z" fill="#ECEFF2"/>
<path d="M173.238 256.139L182.047 256.059L182.059 259.182L173.236 259.203V256.138L173.238 256.139Z" fill="#F4F4F5"/>
<path d="M173.874 293.82L181.944 293.809L181.844 296.803L181.056 297L173.303 297.044L173.309 294.069L173.873 293.821L173.874 293.82Z" fill="#F4F4F5"/>
<path d="M173.268 278.527H181.924L181.901 281.817L173.281 281.856L173.268 278.528V278.527Z" fill="#F4F4F5"/>
<path d="M175.846 263.731L181.956 263.648C181.961 264.655 182.179 266.121 181.666 266.961L179.486 267.007L173.246 267.009L173.3 264.102C173.852 263.568 175.071 263.755 175.845 263.731H175.846Z" fill="#F4F4F5"/>
<path d="M173.27 285.995L181.97 285.984L181.945 289.353L173.26 289.38L173.27 285.995Z" fill="#F4F4F5"/>
<path d="M173.319 271.059L181.97 271.043L181.968 274.548L173.309 274.562L173.319 271.059Z" fill="#F4F4F5"/>
<path d="M51.9244 105.161L52.0179 116.559L52.0138 136.166L52.0393 148.149C52.0443 150.247 52.2345 152.5 51.9681 154.574C51.8278 155.667 51.4333 156.256 50.6952 157.065C49.4812 158.396 48.0873 158.949 46.3193 158.979L20.4227 158.958L14.0968 158.999C12.6825 159.038 11.1585 159.203 9.75238 159.022C8.53742 158.865 7.41497 158.335 6.53755 157.473C5.7191 156.67 5.18228 155.671 4.99114 154.533C4.79288 153.354 4.90879 151.979 4.90472 150.772L4.89456 143.853L4.86914 120.366L4.94336 119.259C5.33377 120.213 5.25956 121.338 5.29412 122.358C5.50153 122.196 5.64997 122.055 5.78316 121.825C6.39013 120.77 7.33262 120.053 8.18665 119.205C8.93596 118.462 9.84084 118.221 10.8413 117.953C11.6658 117.732 12.3887 117.269 13.1827 117.064C13.805 116.904 14.415 116.561 14.9986 116.29C15.0738 115.93 15.3382 115.536 15.6188 115.293C15.878 115.069 15.875 115.081 16.239 115.047C17.7681 114.908 19.4324 115.037 20.9728 115.037H30.1221C32.5835 115.036 35.6682 114.671 38.0667 115.078C38.5659 115.162 38.882 115.154 39.3813 115.078L39.5724 115.047C40.2017 115.297 40.2109 115.323 40.5667 115.903C41.5977 116.05 42.1731 116.656 43.1075 116.971L43.4044 117.067C44.0022 117.294 44.6112 117.557 45.2416 117.681C45.6798 117.768 45.9614 117.893 46.3487 118.107L46.8957 118.404C47.5464 118.665 47.9694 118.893 48.5631 119.289C49.7517 120.082 50.5752 121.022 51.534 122.061L51.6112 120.515C51.8867 118.788 51.7597 116.949 51.7698 115.194L51.9244 105.16V105.161Z" fill="url(#paint3_linear_1_9603)"/>
<path d="M16.0156 122.754C17.4197 122.344 19.4541 122.594 20.9385 122.589L31.5519 122.565C33.9392 122.562 37.2729 122.134 39.5646 122.662C40.0933 122.784 40.1299 123.066 40.4105 123.499C40.3495 124.41 40.3231 124.52 39.7669 125.239C37.644 125.766 34.5888 125.38 32.3744 125.38L15.9933 125.321L15.3792 124.617C15.3558 123.553 15.3151 123.543 16.0156 122.753V122.754Z" fill="#D5DBE2"/>
<path d="M16.1042 129.717C17.9292 129.243 20.6875 129.594 22.6141 129.59L39.5748 129.631C40.1971 130.257 40.2662 130.345 40.436 131.209C40.1096 132.017 40.1269 131.995 39.3268 132.341L16.1184 132.325C15.5673 131.957 15.4291 131.698 15.1973 131.084C15.3762 130.203 15.362 130.223 16.1042 129.717Z" fill="#2198E0"/>
<path d="M16.1771 115.542C18.0722 115.079 20.9912 115.448 22.9799 115.447L39.4495 115.42C40.0656 115.809 40.09 115.905 40.3808 116.537C40.3066 117.324 40.1805 117.692 39.6437 118.277C39.4098 118.354 39.3427 118.386 39.0672 118.42C37.168 118.652 16.6041 118.711 15.9941 118.422C15.8161 118.337 15.6982 118.16 15.5508 118.029C15.3993 117.684 15.3424 117.488 15.3637 117.102C15.4166 116.175 15.5254 116.154 16.1781 115.542H16.1771Z" fill="#B8E9FF"/>
<path d="M16.4692 136.675C22.1038 136.232 28.0525 136.711 33.7197 136.743C35.3586 136.752 38.9384 136.295 40.1757 137.172C40.5316 137.848 40.494 138.047 40.4686 138.788C40.0649 139.349 39.9256 139.409 39.3248 139.693C33.4065 140.007 27.3286 139.735 21.3941 139.693C20.0572 139.683 16.8017 140.021 15.7443 139.267C15.3122 138.692 15.2176 138.384 15.1719 137.67C15.6111 136.986 15.7036 136.972 16.4692 136.675Z" fill="#ECEFF2"/>
<path d="M16.1406 143.887C18.233 143.472 20.9405 143.785 23.0918 143.784L39.5726 143.823C40.2091 144.453 40.3087 144.503 40.4409 145.379C40.1288 146.187 40.0444 146.248 39.3245 146.74C35.6146 147.056 31.7125 146.838 27.9822 146.855C24.1095 146.874 19.9542 147.203 16.1162 146.715C15.5448 146.24 15.4919 146.05 15.2266 145.38C15.4533 144.514 15.438 144.423 16.1406 143.888V143.887Z" fill="#ECEFF2"/>
<path d="M17.1665 8.11474C23.6318 3.35253 30.9988 1.03303 39.0044 2.1938C46.9642 3.34846 54.3455 7.99968 59.0681 14.4827C60.3766 16.2788 61.9311 18.6065 62.4669 20.7742C65.7153 27.1615 65.7021 35.5374 63.5599 42.2515C61.2398 49.5226 56.0586 55.582 49.2497 58.9941C45.6272 60.8095 41.8705 61.8115 37.8403 62.1332C36.9171 62.2076 34.7647 62.011 34.2167 62.6209L33.5091 62.4478C32.7882 61.9326 31.4787 61.9998 30.585 61.9001C23.2495 61.0824 16.2393 56.8731 11.6773 51.11C6.34269 44.3714 4.44449 36.4507 5.4429 27.9975C6.42097 19.7255 10.7511 13.1743 17.1655 8.11372L17.1665 8.11474Z" fill="url(#paint4_linear_1_9603)"/>
<path d="M55.344 33.6323L58.7804 33.5977C58.5873 36.3631 58.4246 39.2987 56.5132 41.5L55.4934 41.4644L53.6816 40.7018C54.494 38.2937 55.0328 36.1585 55.3429 33.6323H55.344Z" fill="#B8E9FF"/>
<path d="M52.5605 21.842C53.2977 21.3797 53.987 20.8838 54.839 20.668C55.7683 20.9775 56.2095 21.6933 56.6386 22.5425C57.3014 23.854 58.5845 26.6317 58.2511 28.0857C57.3492 28.8015 56.4291 29.1182 55.3036 29.3004C54.7465 26.6632 53.8172 24.2205 52.5605 21.842Z" fill="#B8E9FF"/>
<path d="M38.3959 13.2595C38.4162 12.3319 38.2505 11.0367 38.829 10.2782C40.8207 9.67131 44.2796 11.274 46.0273 12.224C46.4177 12.4368 46.6434 12.5753 46.859 12.9785C46.7583 13.8277 46.3852 14.5832 45.9063 15.2878C45.0055 15.5434 43.5232 14.7318 42.604 14.4162C41.2264 13.9437 39.802 13.6362 38.3969 13.2605L38.3959 13.2595Z" fill="#B8E9FF"/>
<path d="M15.4102 19.3456L15.4945 19.1439C16.798 16.9405 20.2903 13.4328 22.7945 12.5938L22.8311 12.8788L24.3063 14.786L24.2921 14.8287C22.4417 16.0822 20.8699 17.6726 19.4048 19.3537C19.0002 19.818 18.2824 20.4961 18.1156 21.0775L18.0892 21.2476C17.3094 20.4442 16.3608 19.9178 15.4102 19.3445V19.3456Z" fill="#1B4090"/>
<path d="M22.8281 12.8767C26.0013 11.8605 28.4881 10.1092 32.0019 10.2028C32.6729 10.6671 32.7837 11.2058 33.0247 11.9603L32.9576 12.9775C31.8402 13.7798 30.1789 13.9397 28.8552 14.292C27.6931 14.6015 26.5533 15.0923 25.4248 15.5118L24.2891 14.8255L24.3034 14.7828L22.8281 12.8757V12.8767Z" fill="#B8E9FF"/>
<path d="M15.4077 19.3438C16.3583 19.917 17.3059 20.4444 18.0867 21.2468L18.0175 21.6042C17.739 22.9096 16.7863 24.1874 16.3115 25.4612C15.7381 26.9977 15.4412 28.6075 14.9064 30.1511C14.5628 30.2723 14.3472 30.2886 13.9843 30.259L13.8684 33.4919C14.2568 33.8666 14.2384 33.8635 14.7743 33.9012C14.9471 33.9134 15.186 33.8014 15.2928 33.9379C15.5134 34.2199 15.6974 36.1077 15.8306 36.5995C16.4193 38.7734 17.3902 40.8719 18.2738 42.9399C18.1273 43.4633 18.0013 43.9744 17.7491 44.4591C17.3658 44.7982 16.8859 45.3317 16.3664 45.4234C16.039 45.4804 15.9058 45.3735 15.6517 45.178C13.053 43.1792 11.4842 37.4955 11.1904 34.3523C10.6922 29.0138 11.9183 23.491 15.4087 19.3438H15.4077Z" fill="#B8E9FF"/>
<path d="M51.7752 46.2188C52.5032 46.9794 53.6246 47.909 53.6816 49.029C53.71 49.5952 52.7787 50.4545 52.3853 50.818C47.2916 55.5029 40.8202 57.7541 33.9473 57.4202C28.9685 57.1778 22.5378 54.8746 19.0993 51.1439C18.5757 50.5757 18.3469 50.313 18.3754 49.5402L20.9731 47.8662L21.2364 48.1442C25.0287 51.9289 30.7436 53.6395 35.9898 53.555C42.2121 53.4552 47.4888 50.6348 51.7752 46.2198V46.2188Z" fill="#6FBBF5"/>
<path d="M33.025 11.9613C34.3701 11.4104 36.3791 11.663 37.835 11.665C38.4552 12.1965 38.1563 12.558 38.3952 13.2605C39.8003 13.6363 41.2257 13.9438 42.6024 14.4162C43.5215 14.7319 45.0038 15.5434 45.9046 15.2878C48.3488 15.9873 51.1366 19.8647 52.56 21.84C53.8166 24.2186 54.7459 26.6613 55.3031 29.2985L55.3417 33.633C55.0316 36.1582 54.4917 38.2934 53.6804 40.7025L55.4922 41.4652C54.9889 42.0812 51.8015 45.6806 51.7761 46.2213C47.4897 50.6363 42.213 53.4567 35.9907 53.5565C30.7445 53.641 25.0296 51.9304 21.2373 48.1457L20.974 47.8677L17.748 44.4597C18.0011 43.9761 18.1272 43.4639 18.2726 42.9406C17.3891 40.8726 16.4191 38.774 15.8294 36.6001C15.6962 36.1083 15.5122 34.2205 15.2916 33.9385C15.1848 33.8021 14.9459 33.9141 14.7731 33.9018C14.2383 33.8642 14.2566 33.8672 13.8672 33.4925L13.9831 30.2597C14.3461 30.2892 14.5616 30.2729 14.9052 30.1517C15.441 28.6081 15.7379 26.9983 16.3103 25.4618C16.7851 24.188 17.7378 22.9102 18.0164 21.6048L18.0855 21.2474L18.1119 21.0774C18.2787 20.496 18.9975 19.8179 19.4011 19.3536C20.8652 17.6725 22.437 16.083 24.2884 14.8286L25.4241 15.5149C26.5526 15.0954 27.6924 14.6046 28.8545 14.295C30.1792 13.9427 31.8395 13.7819 32.9569 12.9805L33.024 11.9633L33.025 11.9613Z" fill="#030F4A"/>
<path d="M31.2837 15.6412L32.1265 15.3846C34.0115 14.8378 36.4984 14.735 38.4027 15.2492C40.9871 16.131 43.352 17.0199 45.5501 18.702L46.4001 18.2C47.5866 18.8873 49.5854 21.052 49.986 22.3421C50.9804 24.29 51.6737 26.5484 52.7504 28.4066C53.5597 30.0897 53.6401 32.508 53.5475 34.3591C53.2364 34.577 52.968 34.7552 52.6111 34.8876C52.2431 37.8516 51.2 40.4063 49.3241 42.7309L49.1055 43.0058L50.0236 44.1259C49.0018 45.696 47.2694 47.2335 45.7799 48.3545C45.0489 48.3311 44.7276 47.8016 44.2172 47.3088L38.664 49.6497L38.4982 50.7595L38.1017 51.0854C36.7526 51.2514 32.826 51.4326 31.8327 50.7209L31.6284 49.3066C29.5543 48.9899 27.9713 48.1509 26.1564 47.1602C25.7701 47.5909 25.4722 47.9513 24.9283 48.1896C24.0163 47.5562 22.1516 46.483 21.6514 45.4709C21.4165 44.9954 21.7012 44.4995 21.8456 44.0281C21.4155 43.2359 20.7547 42.6036 20.2707 41.8471C18.9724 39.8168 18.1417 37.3771 17.428 35.0912C17.0478 32.785 17.0478 30.1417 17.6751 27.8853C18.2932 25.9385 19.0944 23.8297 20.5706 22.3706C20.3521 21.9552 20.3277 21.8951 20.3602 21.4288C21.1481 20.4961 22.5898 18.2458 23.6889 17.9353L25.1702 18.8181C26.9851 17.1411 29.0602 16.5882 31.2867 15.6382L31.2837 15.6412Z" fill="#ECEFF2"/>
<path d="M21.8443 44.0272L24.1726 41.4766C25.416 42.6475 26.6341 43.847 28.03 44.8377L26.1552 47.1592C25.7688 47.5899 25.4709 47.9504 24.927 48.1887C24.015 47.5553 22.1504 46.4821 21.6502 45.47C21.4153 44.9945 21.7 44.4986 21.8443 44.0272Z" fill="#30FBF2"/>
<path d="M45.5509 18.7051L46.4008 18.2031C47.5873 18.8904 49.5862 21.0552 49.9868 22.3452L46.8431 25.6117L43.0508 21.4095C43.8784 20.5878 44.7538 19.7854 45.4502 18.8446L45.5509 18.7041V18.7051Z" fill="#30FBF2"/>
<path d="M44.2167 47.3128L42.8594 45.2092C44.4709 43.9894 45.8007 42.5435 47.1794 41.0742C47.8728 41.6515 48.4818 42.3572 49.106 43.0088L50.0241 44.1289C49.0023 45.699 47.2698 47.2365 45.7804 48.3575C45.0494 48.3341 44.7281 47.8046 44.2177 47.3118L44.2167 47.3128Z" fill="#30FBF2"/>
<path d="M20.5679 22.3729C20.3493 21.9574 20.3249 21.8973 20.3575 21.431C21.1454 20.4983 22.5871 18.2481 23.6861 17.9375L25.1675 18.8203C25.8802 19.533 26.6966 20.2315 27.2355 21.0889L23.4533 25.061C22.4173 24.2128 21.4463 23.387 20.5689 22.3729H20.5679Z" fill="#30FBF2"/>
<path d="M31.627 49.3086L31.9279 47.1653C33.3533 46.6337 36.8071 46.8323 38.3748 47.0003L38.4968 50.7616L38.1003 51.0874C36.7512 51.2534 32.8246 51.4346 31.8313 50.7229L31.627 49.3086Z" fill="#30FBF2"/>
<path d="M31.2852 15.6412L32.128 15.3846C34.013 14.8378 36.4998 14.735 38.4041 15.2492L38.7315 19.2243L31.9562 19.4086C31.9003 18.1379 31.8748 17.1136 31.3909 15.9294L31.2852 15.6422V15.6412Z" fill="#30FBF2"/>
<path d="M17.6741 27.8877L21.8579 27.9132L21.3943 34.9358L17.4261 35.0926C17.0458 32.7864 17.0458 30.1431 17.6731 27.8867L17.6741 27.8877Z" fill="#30FBF2"/>
<path d="M52.7508 28.4102C53.5601 30.0933 53.6404 32.5115 53.5479 34.3627C53.2368 34.5806 52.9683 34.7587 52.6115 34.8911C51.3416 35.1334 49.964 35.0642 48.6717 35.0805L48.6504 28.4376L52.7518 28.4102H52.7508Z" fill="#30FBF2"/>
<path d="M33.2914 24.964C35.1642 24.7094 36.8011 24.7868 38.562 25.5189C40.4653 26.3111 42.0707 27.9026 42.8414 29.8219C43.5459 31.5773 43.6588 33.7818 42.8983 35.529C41.7667 38.1306 39.9763 39.5072 37.401 40.5213C35.7234 40.6955 33.9777 40.7362 32.3977 40.0723C30.3216 39.1997 28.5078 37.3058 27.6934 35.2124C26.9665 33.3449 27.2186 31.1833 28.0239 29.3902C29.0792 27.0401 31.0069 25.8753 33.2914 24.964Z" fill="#030F4A"/>
<path d="M381.535 136.359C381.278 132.93 381.539 129.262 381.531 125.809C381.527 124.725 381.743 123.023 381.318 122.039L379.758 121.867C379.247 121.163 379.478 119.04 379.471 118.089L379.385 106.983C372.663 106.832 365.996 103.803 360.932 99.4968C354.549 94.0707 351.283 86.4341 350.62 78.2079C349.99 70.3971 352.597 62.1618 357.707 56.2347C362.91 50.1998 370.853 45.8988 378.834 45.3093C387.378 44.677 395.571 47.0861 402.089 52.7748C408.636 58.486 412.133 66.2672 412.681 74.8671C413.176 82.7053 409.679 91.0364 404.565 96.8229C399.478 102.576 391.784 106.563 384.126 107.001C384.145 109.247 384.644 120.655 383.977 121.835L382.614 122.034C382.241 123.08 382.443 124.657 382.454 125.782L382.272 125.764L382.212 122.256L381.869 122.011C381.538 123.564 381.717 125.436 381.713 127.037L381.709 136.379L381.534 136.36L381.535 136.359Z" fill="url(#paint5_linear_1_9603)"/>
<path d="M378.464 58.7976C382.665 58.2854 386.847 59.1234 390.43 61.3848C394.534 63.9762 397.446 68.3851 398.485 73.0984C399.48 77.6081 398.172 82.4711 395.695 86.2854C393.081 90.3134 388.638 92.7928 384.031 93.7469C379.845 94.258 375.722 93.6827 372.113 91.3581C368.165 88.8156 365.07 84.5941 364.091 79.9633C363.086 75.2357 364.169 70.2678 366.832 66.2804C369.6 62.1332 373.629 59.7282 378.463 58.7965L378.464 58.7976Z" fill="white"/>
<path d="M390.714 68.7979L391.03 68.7928C391.588 69.302 392.013 69.5036 392.129 70.2896L378.487 84.1038L372.662 78.2938L370.987 76.6372L372.554 75.1241L378.297 80.8333L390.713 68.7979H390.714Z" fill="#030F4A"/>
<path d="M317.192 252.199L317.81 254.08L330.126 252.752L339.951 251.764C341.91 251.545 343.872 251.423 345.753 250.775C347.98 250.009 349.883 248.718 351.421 246.924C353.354 244.662 354.565 241.713 356.248 239.249C362.117 230.657 370.981 225.614 381.285 224.646C389.705 223.854 398.227 226.959 404.665 232.317C410.516 237.183 414.438 244.356 415.536 251.86C416.172 255.643 415.897 259.485 415.141 263.226C414.374 265.982 413.547 268.651 412.233 271.208C409.324 276.864 404.639 281.229 399.146 284.314C392.174 288.226 382.807 289.432 375.083 287.185C366.916 284.81 359.226 278.235 355.155 270.817L354.626 269.748C352.92 266.34 351.565 263.764 348.678 261.199C347.312 260.422 345.915 259.633 344.381 259.236C340.065 258.117 335.051 257.93 330.605 257.462L317.699 256.129L317.239 256.582L316.372 256.761L315.373 255.978C315.5 255.141 315.455 254.301 315.44 253.456C316.259 253.117 316.735 253 317.19 252.202L317.192 252.199Z" fill="url(#paint6_linear_1_9603)"/>
<path d="M359.804 257.995C360.042 257.561 360.061 252.657 360.213 251.756C360.694 248.92 361.729 246.219 363.181 243.741C366.41 238.226 371.781 234.297 377.966 232.772C384.194 231.236 391.034 232.318 396.509 235.631C401.409 238.595 404.844 243.121 406.687 248.522C407.182 249.968 407.38 251.478 407.749 252.956C407.849 256.456 407.849 259.67 406.914 263.086C404.411 269.945 400.87 274.976 394.118 278.159C388.561 280.777 381.366 280.956 375.604 278.868C369.366 276.608 364.514 271.921 361.74 265.928L361.661 265.752C360.678 263.162 360.205 260.717 359.803 257.996L359.804 257.995Z" fill="#F4F4F5"/>
<path d="M363.419 261.763C362.656 258.682 362.395 255.229 362.994 252.091C364.048 246.537 367.332 241.653 371.977 238.468C376.96 235.052 382.672 234.314 388.515 235.469C393.897 236.532 398.846 240.314 401.818 244.862C405.025 249.77 405.639 255.678 404.429 261.334C403.088 266.72 399.8 271.712 394.992 274.61C390.307 277.436 384.135 278.429 378.825 277.024C373.462 275.608 368.531 272.376 365.716 267.511C364.71 265.775 363.864 263.719 363.418 261.762L363.419 261.763Z" fill="url(#paint7_linear_1_9603)"/>
<path d="M375.12 260.268C374.159 258.075 373.66 255.889 374.222 253.486C374.836 250.869 376.67 248.494 378.963 247.132C381.246 245.776 384.206 245.379 386.769 246.128C389.119 246.816 391.38 248.467 392.579 250.624C394.106 253.371 394.08 255.879 393.249 258.824C391.953 261.53 390.378 263.754 387.447 264.815L386.161 265.211C383.868 265.835 380.933 265.268 378.926 264.049C377.373 263.107 376.144 261.753 375.119 260.267L375.12 260.268Z" fill="#020D40"/>
<path d="M380.049 254.169C380.016 252.913 379.595 252.3 380.515 251.303C381.249 250.51 382.746 250.044 383.796 250.051C385.222 250.061 386.752 250.613 387.729 251.687C388.887 252.963 388.485 255.383 388.369 256.981C387.464 258.201 386.455 259.502 384.846 259.727C383.527 259.911 382.132 259.64 381.115 258.749C380.66 258.353 380.355 257.901 380.046 257.392L379.923 257.195C379.54 256.537 379.618 255.474 379.793 254.745L379.838 254.59C379.965 255.542 380.053 256.527 380.59 257.347C381.186 258.258 382.14 259.001 383.235 259.155C384.445 259.325 385.469 259.121 386.445 258.377C387.41 257.638 388.084 256.512 388.177 255.288C388.273 253.992 387.581 253.111 386.795 252.191C385.037 253.169 383.194 253.587 381.198 253.216L380.784 252.858L380.05 254.168L380.049 254.169Z" fill="#030F4A"/>
<path d="M380.783 252.854C381.531 252.041 382.295 251.488 383.39 251.25C384.689 250.967 385.733 251.538 386.794 252.188C385.036 253.165 383.193 253.584 381.197 253.213L380.783 252.855V252.854Z" fill="#FEB862"/>
<path d="M386.791 252.191C387.577 253.112 388.27 253.993 388.173 255.288C388.079 256.512 387.405 257.638 386.442 258.377C385.465 259.121 384.442 259.325 383.231 259.155C382.136 259 381.182 258.258 380.586 257.348C380.051 256.526 379.961 255.542 379.834 254.59L380.046 254.168L380.781 252.858L381.194 253.217C383.19 253.587 385.034 253.169 386.791 252.191Z" fill="#EE9F5D"/>
<path d="M168.246 234.79L193.121 234.499L229.288 234.511L252.566 234.526C256.859 234.534 261.397 234.277 265.661 234.759C261.134 236.269 257.764 238.624 255.601 243.033C253.219 247.887 253.915 253.848 253.924 259.12C253.93 262.808 253.823 266.556 254.126 270.233L254.09 270.467C253.796 272.575 253.944 274.827 253.942 276.961L253.927 288.575C253.917 290.885 254.022 293.303 253.664 295.588C253.006 299.8 250.561 303.976 247.182 306.571C245.402 307.937 243.466 308.593 241.418 309.412C237.039 310.318 232.004 309.873 227.52 309.856L203.073 309.872L190.885 309.879C191.189 306.553 190.986 303.003 190.984 299.657L190.953 280.183L190.964 263.648C190.964 260.707 191.185 257.541 190.802 254.635C190.412 251.686 189.198 248.557 187.654 246.029C185.076 241.807 180.153 238.189 175.522 236.56C173.134 235.72 170.696 235.362 168.246 234.788V234.79Z" fill="#B8E9FF"/>
<path d="M203.072 309.869L203.012 275.171L203.02 265.874C203.023 264.183 202.867 262.315 203.201 260.661C203.648 258.444 204.895 256.203 206.484 254.612C208.995 252.099 211.932 250.872 215.493 250.915C218.883 250.956 221.857 252.374 224.206 254.799C225.819 256.464 226.863 258.572 227.276 260.856C227.68 263.095 227.57 265.376 227.572 267.64V277.168L227.519 309.852L203.072 309.868V309.869Z" fill="#ECEFF2"/>
<path d="M381.711 136.38L381.715 127.038C381.719 125.438 381.54 123.566 381.872 122.012L382.214 122.257L382.274 125.765L382.456 125.783L382.463 134.927C382.467 136.499 382.34 138.202 382.538 139.756L396.525 139.817C399.226 139.832 402.48 139.639 405.095 140.295L413.963 140.279C415.698 140.28 417.952 140.196 419.653 140.544C420.175 140.65 421.34 141.577 421.739 141.956C424.849 144.939 424.2 149.068 424.204 152.981L424.211 170.511C424.211 172.87 424.528 175.757 424.2 178.06L424.193 193.018C424.189 194.932 424.424 197.239 424.022 199.105C423.709 200.554 423.099 201.855 422.094 202.959C420.663 204.529 418.757 205.38 416.623 205.431L371.594 205.421L356.5 205.445C354.209 205.45 351.573 205.719 349.327 205.375C347.983 205.17 346.668 204.37 345.699 203.428C344.611 202.364 343.83 200.988 343.52 199.492C343.048 197.184 343.338 194.342 343.327 191.982L343.29 176.229L343.301 154.148C343.305 151.118 342.906 147.442 343.442 144.478C343.647 143.354 344.168 142.278 344.972 141.456C345.851 140.553 347.155 139.919 348.387 139.713C351.393 139.212 354.987 139.559 358.055 139.558L381.544 139.749L381.537 136.366L381.712 136.384L381.711 136.38Z" fill="#D5DBE2"/>
<path d="M352.254 190.134C353.658 189.89 355.312 190.046 356.738 190.043L364.887 190.027L371.393 190.024C371.918 190.024 373.207 189.916 373.675 190.125C373.843 190.199 374.163 190.609 374.309 190.756L374.219 191.875L373.597 192.372C369.456 192.685 365.098 192.416 360.938 192.417C358.253 192.417 354.522 192.891 351.959 192.196C351.46 191.491 351.467 191.492 351.568 190.632L352.253 190.135L352.254 190.134Z" fill="#F4F4F5"/>
<path d="M352.059 195.104C353.712 194.656 356.286 194.972 358.036 194.964L373.179 194.972C373.827 195.353 373.894 195.473 374.252 196.099C374.07 196.848 374.061 196.85 373.428 197.293C370.169 197.748 366.367 197.409 363.041 197.427C359.633 197.445 355.835 197.8 352.469 197.43C351.776 197.353 351.776 197.223 351.385 196.723C351.445 195.853 351.501 195.782 352.059 195.104Z" fill="#F4F4F5"/>
<path d="M378.227 193.49L406.468 193.465L406.483 196.522L378.217 196.564L378.228 193.49H378.227Z" fill="#3856B0"/>
<path d="M381.533 136.359L381.708 136.378L381.723 180.177L358.648 180.214C355.572 180.214 351.691 180.646 348.708 180.066C347.293 179.791 345.859 179.03 344.827 178.024L343.286 176.224L343.297 154.143C343.301 151.113 342.902 147.437 343.438 144.473C343.643 143.348 344.164 142.273 344.968 141.45C345.847 140.548 347.151 139.914 348.384 139.708C351.389 139.207 354.983 139.554 358.051 139.553L381.54 139.744L381.533 136.36V136.359Z" fill="url(#paint8_linear_1_9603)"/>
<path d="M362.922 161.96C363.887 161.984 365.961 161.76 366.586 162.41L366.508 163.317C366.206 163.497 365.997 163.622 365.652 163.709C363.19 163.536 353.127 164.207 351.742 163.405L351.693 162.535L352.085 162.143L362.922 161.96Z" fill="#F4F4F5"/>
<path d="M367.271 166.22C367.316 166.979 367.238 166.991 366.817 167.581C365.621 167.909 364.318 167.795 363.081 167.798H356.769C355.219 167.792 353.264 168.018 351.801 167.544L351.525 166.89L351.816 166.267C352.874 165.794 354.833 166.041 356.024 166.039L366.422 166.047L367.271 166.22Z" fill="#F4F4F5"/>
<path d="M352.882 157.671C354.539 156.831 358.003 157.289 359.894 157.301C360.327 157.304 361.115 157.416 361.514 157.314C361.939 157.204 362.452 156.933 362.877 156.819C363.469 156.659 363.865 157.068 364.367 156.57L373.383 156.577C373.961 156.577 374.563 156.828 375.033 156.746C375.517 156.662 375.893 156.748 376.366 156.848C377.267 157.04 377.763 156.995 378.556 157.562C378.899 158.42 378.769 159.362 378.746 160.274L378.497 165.949L371.157 166.093C369.905 166.112 368.487 166 367.269 166.217L366.42 166.044C365.909 165.655 364.364 165.836 363.667 165.833C362.062 165.827 352.286 166.081 351.642 165.518L351.582 164.178C352.863 163.352 362.974 164.228 365.477 163.745L365.649 163.708C365.996 163.621 366.204 163.497 366.505 163.316L366.583 162.41C365.958 161.759 363.883 161.983 362.919 161.96L352.327 161.791C352.804 161.551 353.05 161.628 353.571 161.663C353.586 161.088 353.541 160.561 353.463 159.991C352.789 159.967 352.182 159.957 351.537 159.747L351.943 159.429C351.73 158.788 351.667 158.52 351.943 157.899L352.881 157.67L352.882 157.671Z" fill="url(#paint9_linear_1_9603)"/>
<path d="M352.883 157.672L358.946 157.702C359.299 157.704 360.357 157.592 360.643 157.71C360.87 157.804 361.016 158.026 361.202 158.183L361.246 158.805C360.688 159.443 360.579 159.378 359.786 159.43H351.944C351.731 158.79 351.668 158.522 351.944 157.9L352.882 157.671L352.883 157.672Z" fill="#F4F4F5"/>
<path d="M382.274 125.766L382.456 125.784L382.464 134.928C382.468 136.5 382.341 138.203 382.538 139.757L396.526 139.818C399.226 139.832 402.481 139.64 405.095 140.296L413.963 140.279C415.699 140.28 417.952 140.197 419.654 140.545C420.175 140.651 421.34 141.578 421.739 141.956C424.849 144.94 424.2 149.069 424.204 152.982L424.212 170.512C424.212 172.87 424.528 175.758 424.2 178.06C422.863 178.891 421.538 179.695 419.97 179.991C418.689 180.233 417.229 180.145 415.929 180.16L408.28 180.176L382.471 180.104L382.273 125.767L382.274 125.766Z" fill="url(#paint10_linear_1_9603)"/>
<path d="M397.635 164.416C397.496 163.667 397.382 163.065 397.921 162.44C398.454 161.821 398.867 161.783 399.616 161.719C400.409 162.084 400.722 162.398 401.155 163.152L401.334 163.899C400.798 164.629 400.581 165.005 399.743 165.397C398.731 165.273 398.388 165.143 397.636 164.416H397.635Z" fill="#30FBF2"/>
<path d="M411.952 165.985L413.144 166.153C413.359 167.315 412.541 168.669 411.9 169.632C411.602 170.079 411.256 170.421 410.823 170.736C410.362 170.781 410.387 170.873 409.993 170.555C408.931 169.698 408.056 167.88 407.281 166.715C407.553 166.563 407.866 166.366 408.171 166.296C408.961 166.112 409.403 166.507 410.041 166.897L411.951 165.984L411.952 165.985Z" fill="#30FBF2"/>
<path d="M407.452 160.277L407.068 159.058C407.612 158.715 407.727 158.709 408.365 158.859C409.039 159.017 409.56 159.61 410.167 159.942L410.432 159.736C411.102 159.22 411.59 158.816 412.472 158.792L412.964 159.182C412.96 160.982 411.497 162.47 410.551 163.886L410.174 163.823C409.292 163.535 407.98 161.083 407.452 160.277Z" fill="#30FBF2"/>
<path d="M406.795 167.168L406.765 167.723C406.08 168.273 396.129 168.03 394.479 168.038C394.014 168.615 393.645 169.193 392.916 169.431C392.167 169.333 391.639 169.308 391.151 168.633C390.711 168.022 390.759 167.577 390.909 166.893C391.453 166.183 391.802 165.947 392.667 165.719C393.598 165.926 393.918 166.361 394.599 166.999L394.785 167.313L406.796 167.168H406.795Z" fill="#30FBF2"/>
<path d="M382.537 139.758L396.525 139.819C399.225 139.833 402.48 139.641 405.095 140.296C403.31 140.76 401.185 140.7 399.348 140.722L390.682 140.798C388.093 140.836 385.162 141.207 382.615 140.866L382.537 139.759V139.758Z" fill="#1B4090"/>
<path d="M407.448 160.277C407.976 161.084 409.287 163.535 410.17 163.823L410.547 163.886L410.878 163.971C410.643 164.758 411.042 165.073 410.658 165.773C411.147 165.826 411.449 165.91 411.888 165.651L411.951 165.992L410.04 166.904C409.404 166.514 408.961 166.119 408.171 166.303C407.866 166.373 407.552 166.57 407.281 166.723L406.793 167.166L394.783 167.311L394.597 166.997L394.574 166.529L394.899 166.765C395.546 166.885 396.556 166.865 397.196 166.702C397.535 166.616 397.826 165.813 398 165.494L397.244 164.593L397.631 164.419C398.384 165.145 398.726 165.277 399.739 165.4C400.577 165.009 400.793 164.632 401.329 163.902L401.15 163.156L406.789 163.166C405.795 162.487 403.21 162.797 401.97 162.79C402.264 162.587 402.435 162.59 402.778 162.595C404.1 162.616 405.75 162.724 407.046 162.561C407.124 162.224 407.266 162.109 407.501 161.862L407.683 161.669C407.575 161.377 407.493 161.1 407.295 160.854L407.183 160.738L407.448 160.279V160.277Z" fill="#122A73"/>
<path d="M401.152 163.153L406.791 163.164L406.932 163.7C405.853 164.314 402.668 163.91 401.331 163.899L401.152 163.152V163.153Z" fill="#B8E9FF"/>
<path d="M145.938 50.0287L153.109 50.0531L154.797 50.0694C155.597 50.0582 157.238 50.2506 157.936 49.9961L173.36 50.0735L176.345 50.1193H198.257L202.35 50.104L277.628 50.1213L298.683 50.1814C301.85 50.1946 305.393 49.8525 308.503 50.3291C311.915 50.8514 315.181 52.3797 317.649 54.8174C320.429 57.5604 321.965 60.8554 322.666 64.6737C323.133 67.2203 322.914 70.0621 322.917 72.6504L322.924 86.2864L322.91 135.905C328.109 133.48 332.638 128.793 334.66 123.391C335.163 122.047 335.613 120.346 335.598 118.913C335.97 117.133 335.811 115.169 335.807 113.356L335.78 104.514L335.829 71.6913L336.288 71.4357L336.306 104.052L336.279 114.283C336.268 116.844 336.354 119.392 335.724 121.897C334.86 125.338 332.685 128.695 330.224 131.211C328.683 132.787 326.969 134.293 325.021 135.346C324.5 135.627 323.276 135.92 322.895 136.26C322.852 136.298 322.895 136.378 322.895 136.437V140.317L322.933 192.432L322.948 207.151C322.952 212.741 323.692 219.313 321.345 224.528C318.328 231.233 312.155 234.549 305.071 234.573L265.659 234.756C261.395 234.273 256.858 234.531 252.564 234.523L229.286 234.507L193.119 234.496L168.244 234.786L159.511 234.77C153.737 234.404 147.762 234.718 141.97 234.723L107.315 234.772L96.1759 234.798C94.1222 234.802 91.8864 234.975 89.8642 234.637C87.2462 234.199 84.7268 232.83 82.85 230.966C78.5818 226.727 78.6489 222.305 78.6367 216.696L78.6642 111.411L78.6581 80.1679V70.95C78.6581 69.0398 78.5554 67.039 78.8167 65.1441C79.3352 61.3838 81.0097 57.9321 83.7101 55.2572C86.0322 52.9581 89.0397 51.3483 92.2159 50.5948C95.4988 49.8169 99.2952 50.1366 102.658 50.1254L119.377 50.0949L124.219 50.0806L140.169 50.0439L143.833 50.0287L145.938 50.0256V50.0287Z" fill="#F4F4F5"/>
<path d="M80.1158 178.609C80.5398 176.565 80.245 173.956 80.245 171.854L80.2358 157.147L95.3624 145.598C96.1249 149.362 97.7404 153.251 99.3224 156.749C102.614 164.027 106.31 170.173 111.654 176.114L117.719 182.357L117.915 182.451C119.425 183.199 120.762 184.281 122.176 185.193C123.75 186.208 125.404 187.099 127.072 187.946C137.34 193.161 149.89 195.318 161.346 193.729C159.113 195.228 156.16 195.714 153.818 197.075L149.36 198.852C147.718 199.869 145.917 200.629 144.212 201.535L136.197 206.163C134.708 207.071 132.903 207.982 131.767 209.316C129.982 209.107 128.361 209.048 126.846 210.223C125.58 211.204 124.815 212.541 124.641 214.134C124.546 215.002 124.664 215.78 124.842 216.624C122.478 217.648 120.07 220.474 118.316 222.351L108.63 233.211L144.379 233.222L154.025 233.211C155.86 233.206 157.888 233.033 159.697 233.316C157.496 233.66 154.874 233.468 152.628 233.476L138.638 233.489L92.4454 233.498C88.8992 233.48 85.8246 231.923 83.3866 229.385C81.8646 227.8 80.6323 225.657 80.2256 223.48C79.884 221.656 79.9867 219.689 79.9806 217.837L79.9908 208.85L80.1158 178.612V178.609Z" fill="url(#paint11_linear_1_9603)"/>
<path d="M99.9104 208.936C100.842 208.902 101.822 209.008 102.69 209.362C104.07 209.925 105.242 211.164 105.756 212.566C106.311 214.075 106.363 215.544 105.651 217.011C104.752 218.861 103.27 219.706 101.393 220.324C100.325 220.382 99.2648 220.306 98.2674 219.884C96.784 219.256 95.7734 217.998 95.2519 216.501C94.7384 215.027 94.9408 213.232 95.6443 211.862C96.5044 210.187 98.2085 209.431 99.9114 208.937L99.9104 208.936Z" fill="#F4F4F5"/>
<path d="M114.448 208.942C115.383 208.896 116.444 208.785 117.345 209.077C118.887 209.578 120.12 210.698 120.813 212.16C121.454 213.513 121.642 215.306 121.068 216.72C120.264 218.699 118.786 219.558 116.912 220.264C115.851 220.351 114.731 220.371 113.716 219.997C112.263 219.462 111.115 218.399 110.475 216.989C109.892 215.709 109.69 214.057 110.217 212.727C111.026 210.683 112.503 209.748 114.448 208.941V208.942Z" fill="#F4F4F5"/>
<path d="M105.182 184.061C104.426 185.877 103.503 187.361 101.718 188.319C99.8781 189.308 97.4289 189.654 95.4229 188.988C93.5511 188.366 91.7139 186.86 90.8284 185.086C89.9286 183.285 89.8859 181.199 90.5335 179.302C91.2015 177.345 92.69 175.578 94.5861 174.717C96.3257 173.926 98.7333 173.681 100.537 174.438C103.101 175.513 104.325 177.229 105.334 179.743C105.465 181.251 105.423 182.567 105.182 184.062V184.061Z" fill="#B8E9FF"/>
<path d="M96.4952 178.2C97.1123 178.055 97.9246 177.989 98.5581 178.082C99.4395 178.211 100.332 178.74 100.865 179.45C101.522 180.325 101.705 181.517 101.485 182.581C101.23 183.814 100.209 184.565 99.1955 185.154C98.4513 185.236 97.7061 185.323 96.9669 185.153C95.9309 184.915 95.0687 184.231 94.5614 183.297C94.1293 182.502 94.1222 181.081 94.4363 180.239C94.8278 179.192 95.5252 178.673 96.4962 178.2H96.4952Z" fill="#030F4A"/>
<path d="M97.0541 179.687C97.2056 179.631 97.2656 179.6 97.4445 179.581C98.3717 179.477 98.6676 179.684 99.4088 180.17C99.7555 180.76 100.093 181.339 99.9314 182.048C99.7544 182.824 99.3 183.212 98.6503 183.606C97.7475 183.829 97.3113 183.765 96.4644 183.379C95.8767 182.608 95.6825 182.332 95.7934 181.304C95.8767 180.539 96.4817 180.109 97.053 179.688L97.0541 179.687Z" fill="#B8E9FF"/>
<path d="M105.33 179.747L117.717 182.359L117.914 182.452C119.423 183.201 120.76 184.282 122.175 185.195C123.748 186.21 125.403 187.101 127.071 187.948C137.339 193.162 149.889 195.32 161.344 193.73C159.112 195.229 156.159 195.716 153.817 197.076L149.358 198.854C147.253 198.594 144.901 198.822 142.766 198.84L129.539 198.845C127.65 198.813 124.194 199.04 122.622 197.997L102.189 198.01C99.9199 198.007 95.483 198.541 93.5391 197.592L93.7648 196.9L96.3543 191.941C96.4723 191.701 96.885 190.645 97.0518 190.519C97.2694 190.356 98.1661 190.289 98.4752 190.249C100.292 190.017 101.762 189.778 103.13 188.439C104.365 187.229 105.193 185.816 105.177 184.065C105.418 182.571 105.46 181.254 105.329 179.746L105.33 179.747Z" fill="url(#paint12_linear_1_9603)"/>
<path d="M93.7658 196.899C97.6689 196.81 123.755 196.374 125.506 197.097L125.453 197.655C124.722 198.083 123.465 197.964 122.622 197.995L102.189 198.008C99.9199 198.005 95.483 198.54 93.5391 197.591L93.7648 196.899H93.7658Z" fill="#F4F4F5"/>
<path d="M80.1198 178.61C80.0659 178.374 80.0425 178.162 80.0405 177.919L80.0151 99.9121L80.01 77.2058C80.01 73.251 79.6745 68.9012 80.2713 64.9841C80.7542 61.8144 82.4379 58.7923 84.6655 56.5278C86.9927 54.1615 90.0642 52.5415 93.3411 51.9906C96.7481 51.4174 100.618 51.7402 104.08 51.729L124.565 51.674L202.634 51.7341C202.208 54.0688 200.778 56.5105 199.9 58.7363L195.547 70.0386C194.311 73.2154 192.959 76.4014 192.041 79.6872C184.527 72.3917 173.352 67.5653 163.157 65.8343C160.116 65.3181 157.001 65.1532 153.925 64.9963L151.772 64.9933C151.245 65.9056 151.523 67.8188 151.527 68.8717C151.54 72.4833 151.827 76.3271 151.461 79.9204L151.407 71.6423C138.768 72.6676 126.817 76.1937 117.132 84.7294L113.263 80.7319C112.702 81.2502 111.728 81.8855 111.556 82.6197C101.128 91.9241 93.7101 108.672 93.0686 122.504L93.0808 123.421L93.0035 126.11C93.0808 131.048 93.6654 135.452 94.7136 140.27C94.5581 142.047 94.9556 143.873 95.3684 145.596L80.2418 157.146L80.251 171.853C80.251 173.955 80.5458 176.564 80.1218 178.608L80.1198 178.61Z" fill="url(#paint13_linear_1_9603)"/>
<path d="M104.653 69.7148C105.333 70.1364 105.579 70.7432 105.733 71.5324C106.111 73.4721 105.56 75.7692 104.375 77.326C103.159 78.9246 101.273 80.065 99.2692 80.3216C96.8627 80.6291 94.6575 80.0345 92.8315 78.4287C91.467 77.2293 90.3944 75.092 90.3293 73.2725C90.2978 72.3928 90.308 71.4876 90.7258 70.6974L91.0085 72.7848C91.5779 74.7041 92.5539 76.2141 94.2162 77.3494C95.8216 78.445 97.7411 78.7475 99.6281 78.333C101.321 77.9614 103.087 76.7365 104.026 75.2774C105.192 73.47 105.093 71.735 104.652 69.7148H104.653Z" fill="#020D40"/>
<path d="M91.0059 72.7835C91.0475 71.7735 90.9499 70.6901 91.2031 69.7065C91.6494 67.9724 92.8796 66.496 94.4067 65.6C96.0924 64.6103 98.0882 64.5319 99.9386 65.0665C102.381 65.7731 103.504 67.6151 104.65 69.7126C105.091 71.7337 105.19 73.4678 104.025 75.2751C103.084 76.7342 101.319 77.9601 99.6265 78.3308C97.7405 78.7452 95.82 78.4428 94.2146 77.3472C92.5523 76.2119 91.5762 74.7019 91.0069 72.7825L91.0059 72.7835Z" fill="#B8E9FF"/>
<path d="M96.8549 68.5503C97.4436 68.4322 98.1512 68.3476 98.7338 68.5187C99.6732 68.7967 100.518 69.597 100.938 70.4737C101.239 71.1009 101.377 71.8523 101.13 72.5203C100.742 73.567 99.8572 74.2421 98.8975 74.7227C98.3352 74.9121 97.5768 74.9895 97.0003 74.8245C96.19 74.5934 95.2973 73.9295 94.8876 73.1923C94.4707 72.4449 94.4097 71.3738 94.6863 70.5674C95.0665 69.4605 95.8433 69.0095 96.8549 68.5503Z" fill="#020D40"/>
<path d="M113.26 80.7336C124.348 71.2988 136.848 66.1029 151.378 64.9492L151.404 71.643C138.764 72.6683 126.813 76.1944 117.128 84.7301L113.26 80.7326V80.7336Z" fill="#B8E9FF"/>
<path d="M202.633 51.7359L276.077 51.8173L297.603 51.7786C301.151 51.7705 305.102 51.4355 308.611 51.91C311.624 52.3173 314.528 53.7652 316.687 55.9024C318.954 58.1466 320.615 61.3784 321.266 64.4951C322.17 68.8195 321.632 74.1876 321.643 78.6219L321.68 104.521C321.036 104.563 320.376 104.458 319.726 104.456L280.76 104.504L273.678 104.53C273.132 104.534 271.799 104.38 271.354 104.543C270.143 104.988 248.814 126.631 246.24 129.2C245.554 128.89 244.984 128.13 244.465 127.593L241.401 124.405L224.003 106.027C223.576 105.6 222.842 104.76 222.311 104.503C221.476 104.099 211.571 104.468 209.859 104.481C209.185 103.025 207.655 98.748 206.355 98.078C205.358 96.6719 204.652 94.893 203.769 93.3912C201.341 89.2663 197.886 84.6711 194.107 81.6613L192.241 80.0189L192.041 79.688C192.959 76.4022 194.311 73.2172 195.547 70.0393L199.9 58.7371C200.778 56.5113 202.208 54.0696 202.634 51.7348L202.633 51.7359Z" fill="url(#paint14_linear_1_9603)"/>
<path d="M248.881 93.6559L256.392 93.5979C257.513 93.608 258.54 93.4319 259.495 94.0479C259.743 95.0315 259.787 95.1201 259.401 96.0477C258.598 96.678 257.622 96.5283 256.657 96.5354L250.373 96.5273H240.879C240.092 96.4438 239.918 96.2045 239.425 95.6496C239.275 94.8757 239.313 94.833 239.623 94.1579C240.463 93.5622 241.587 93.7282 242.585 93.7119L248.882 93.6549L248.881 93.6559Z" fill="#F4F4F5"/>
<path d="M275.696 93.4177L290.578 93.3526C292.286 93.3495 294.724 93.0512 296.352 93.431C297.051 93.5939 297.105 93.8708 297.458 94.4471C297.477 95.278 297.47 95.4348 297.06 96.1506C295.45 97.0589 288.968 96.5233 286.798 96.5141L271.436 96.5447C270.231 96.5457 267.265 96.8878 266.224 96.3991C266.041 96.3125 265.683 96.0671 265.54 95.9012C265.043 95.3289 265.186 94.944 265.312 94.2852C265.487 94.1101 265.744 93.766 265.947 93.6489C266.475 93.3424 267.842 93.4635 268.459 93.4574L275.695 93.4177H275.696Z" fill="#ECEFF2"/>
<path d="M239.903 76.7548C241.195 76.4015 242.809 76.5959 244.147 76.6L252.413 76.6041L286.054 76.6407C286.712 77.104 286.758 77.217 287.057 77.9715C286.914 78.894 286.92 79.0733 286.302 79.7524C284.632 80.0823 282.648 79.8746 280.934 79.8746L269.878 79.8817L250.44 79.9123C247.008 79.9163 243.42 80.1271 240.009 79.8176C239.452 79.3461 239.307 79.0743 239.125 78.3717C239.28 77.5062 239.297 77.383 239.901 76.7558L239.903 76.7548Z" fill="#B8E9FF"/>
<path d="M239.981 85.7064C241.334 85.404 304.195 85.4356 305.163 85.7899C305.744 86.0017 305.855 86.2868 306.083 86.8254C305.901 87.6899 305.883 87.6736 305.163 88.1898C300.791 88.6195 296.138 88.2866 291.726 88.2917L264.698 88.3273L247.081 88.3406C245.034 88.3406 242.177 88.6979 240.209 88.2856C239.627 88.1634 239.568 87.9017 239.262 87.4476C239.33 86.4589 239.294 86.408 239.981 85.7074V85.7064Z" fill="#F4F4F5"/>
<path d="M240.108 68.2986C241.563 67.8506 243.907 68.1377 245.47 68.1316L258.358 68.1102L286.833 68.1194C291.3 68.1255 296.303 67.7019 300.699 68.2854C301.403 68.881 301.438 68.8861 301.589 69.7903C301.263 70.5865 301.147 70.6873 300.45 71.1995C298.491 71.561 296.222 71.3248 294.213 71.3207L281.52 71.2891H241.622C240.816 71.2759 240.087 71.3482 239.536 70.6619C239.227 70.277 239.205 69.8514 239.259 69.381C239.33 68.77 239.649 68.6754 240.107 68.2996L240.108 68.2986Z" fill="#B8E9FF"/>
<path d="M218.173 66.0208C220.157 65.9058 222.094 66.2591 223.803 67.2905C226.035 68.6376 227.885 71.0284 228.451 73.5943C228.98 75.9912 228.457 78.8382 227.085 80.8807C225.347 83.466 223.074 84.4811 220.126 85.0768C217.856 85.1267 215.559 84.7774 213.65 83.467C211.398 81.9213 209.905 79.6252 209.449 76.928C209.059 74.6258 209.826 71.7717 211.191 69.8931C212.951 67.4677 215.314 66.4648 218.173 66.0198V66.0208Z" fill="#B8E9FF"/>
<path d="M218.888 70.9961C219.464 71.0521 220.062 71.1071 220.609 71.3128C221.846 71.7771 222.981 72.833 223.423 74.0925C223.821 75.2237 223.811 76.6665 223.198 77.7153C222.32 79.2182 221.03 79.7579 219.454 80.2293C218.54 80.1814 217.586 80.1489 216.758 79.7151C215.657 79.1378 214.844 78.1572 214.566 76.9354C214.247 75.5282 214.529 74.1852 215.341 73.001C216.237 71.6905 217.42 71.2934 218.888 70.9961Z" fill="#122A73"/>
<path d="M151.458 79.9193C151.824 76.326 151.537 72.4832 151.524 68.8706C151.52 67.8177 151.241 65.9045 151.769 64.9922L153.921 64.9952C156.998 65.151 160.113 65.317 163.154 65.8332C173.348 67.5642 184.524 72.3906 192.037 79.6861L192.238 80.017L194.103 81.6594C197.882 84.6693 201.337 89.2645 203.765 93.3893C204.65 94.8911 205.354 96.671 206.352 98.0761C207.651 98.7461 209.181 103.023 209.855 104.479C211.323 109.113 212.874 113.37 213.669 118.212C214.263 121.834 214.305 125.43 214.217 129.088C213.949 140.2 211.406 150.875 206.293 160.773C204.365 164.505 202.147 168.015 199.52 171.299C198.447 172.641 197.001 173.878 196.058 175.28C195.217 176.533 193.596 177.965 192.376 178.843L187.14 182.935C184.727 184.654 182.152 186.05 179.694 187.652C177.92 188.806 175.648 189.522 173.737 190.387L173.242 190.516C170.707 191.226 168.255 192.234 165.67 192.873C165.439 192.93 165.251 193.004 165.011 193.05C164.744 193.103 164.561 193.16 164.312 193.25C163.911 193.395 163.61 193.392 163.187 193.381L163.056 193.494C162.657 193.747 161.83 193.701 161.348 193.725C149.893 195.315 137.343 193.158 127.075 187.943C125.407 187.096 123.751 186.205 122.178 185.19C120.764 184.277 119.428 183.196 117.917 182.448L117.721 182.354L111.657 176.11C106.314 170.171 102.617 164.025 99.3249 156.746C97.7429 153.247 96.1274 149.359 95.3649 145.594C94.9521 143.87 94.5546 142.045 94.7101 140.268C93.6619 135.449 93.0773 131.046 93 126.108L93.0773 123.419L93.0651 122.502C93.7066 108.671 101.125 91.922 111.553 82.6175C111.726 81.8824 112.7 81.248 113.26 80.7298L117.128 84.7273C126.814 76.1916 138.764 72.6655 151.404 71.6401L151.458 79.9182V79.9193Z" fill="#020D40"/>
<path d="M117.835 140.353C119.388 143.632 121.116 146.716 123.444 149.522C124.464 150.75 126.453 152.158 127.128 153.499L111.777 169.237C107.766 165.277 103.186 160.439 100.729 155.314L108.84 148.483C111.906 145.921 115.151 143.316 117.836 140.352L117.835 140.353Z" fill="#ECEFF2"/>
<path d="M117.126 84.7278C126.811 76.192 138.762 72.666 151.401 71.6406L151.455 79.9187L151.443 87.0045C142.269 87.2753 135.283 90.4848 127.905 95.8406L117.125 84.7288L117.126 84.7278Z" fill="#ECEFF2"/>
<path d="M93 126.109L114.63 126.128C115.069 131.232 115.926 135.58 117.834 140.351C115.15 143.315 111.905 145.921 108.838 148.483L100.727 155.314C98.0063 150.462 96.2657 145.593 94.7101 140.272C93.6619 135.453 93.0773 131.05 93 126.111V126.109Z" fill="#B8E9FF"/>
<path d="M128.861 154.934C135.475 160.204 142.433 163 150.938 163.438L150.849 186.05C146.228 185.739 141.814 185.095 137.304 184.029C132.212 182.189 127.373 180.468 122.674 177.678C119.252 175.645 116.222 173.122 113.26 170.48L128.861 154.934Z" fill="#D5DBE2"/>
<path d="M153.922 64.9961C156.998 65.1519 160.114 65.3178 163.155 65.8341C173.349 67.5651 184.525 72.3914 192.038 79.6869L192.238 80.0179C190.697 82.0767 188.655 83.8005 186.851 85.6354L176.816 95.8043C175.318 95.0732 173.874 93.4573 172.406 92.5328C166.78 88.9914 160.528 87.3439 153.944 87.0344L153.922 64.9971V64.9961Z" fill="#B8E9FF"/>
<path d="M176.911 154.391L192.18 169.788C191.686 170.669 190.285 171.614 189.5 172.285C182.871 177.946 175.343 181.56 167.071 184.145C162.525 185.271 158.074 185.828 153.402 186.076L153.433 163.683C162.317 162.932 169.99 160.012 176.91 154.391H176.911Z" fill="#ECEFF2"/>
<path d="M93.0767 123.422L93.0645 122.506C93.706 108.674 101.124 91.9256 111.552 82.6211L126.259 97.6816C120.904 102.946 117.48 108.331 115.563 115.69C114.952 118.037 114.669 120.399 114.471 122.81C114.454 123.02 114.592 123.319 114.42 123.439C114.335 123.499 94.4817 123.421 93.0767 123.421V123.422Z" fill="#B8E9FF"/>
<path d="M190.568 126.075H211.948C211.586 129.861 211.259 133.568 210.464 137.298C208.284 147.518 203.412 156.561 196.926 164.644L193.639 168.233L178.648 152.824C180.863 150.511 183.005 148.189 184.711 145.461C188.297 139.725 190.026 132.749 190.568 126.074V126.075Z" fill="#ECEFF2"/>
<path d="M194.104 81.6622C197.883 84.672 201.338 89.2673 203.766 93.3921C204.65 94.8939 205.355 96.6738 206.352 98.0789C210.051 106.428 211.598 114.565 211.975 123.665L190.422 123.741C190.238 116.622 187.882 109.314 183.75 103.525C182.206 101.364 180.326 99.4545 178.49 97.5454L194.102 81.6602L194.104 81.6622Z" fill="#ECEFF2"/>
<path d="M149.062 89.6557C157.633 88.9745 166.204 91.181 173.21 96.2456C180.96 101.848 186.077 110.462 187.547 119.89C188.98 129.085 186.524 138.547 181.049 146.031C175.017 154.277 166.628 159.119 156.568 160.67L155.942 160.771C147.265 161.831 138.191 158.875 131.285 153.6C123.94 147.989 118.703 139.089 117.524 129.917C116.314 120.506 118.261 111.118 124.182 103.57C130.438 95.595 139.025 90.8369 149.062 89.6557Z" fill="#F4F4F5"/>
<path d="M122.886 115.178H123.065C123.904 115.151 124.759 115.06 125.571 115.322C126.914 115.757 127.909 116.668 128.48 117.959C128.903 118.918 129.081 120.812 128.653 121.786C127.96 123.363 126.609 123.986 125.102 124.532C124.319 124.505 123.504 124.497 122.754 124.252C121.492 123.84 120.44 123.084 119.834 121.881C119.212 120.644 119.038 119.263 119.571 117.962C120.185 116.468 121.496 115.777 122.886 115.178Z" fill="#B8E9FF"/>
<path d="M129.699 123.707C130.382 117.23 133.303 111.264 138.43 107.142C143.098 103.387 149.076 101.776 155.011 102.451C161.098 103.143 166.5 106.412 170.296 111.194C174.1 115.985 175.704 122.344 174.965 128.384C174.754 130.109 174.306 132.015 173.648 133.623C173.061 133.491 172.519 133.332 171.955 133.12C171.895 132.694 171.866 132.852 171.989 132.474L172.243 131.702C173.723 126.702 172.492 119.528 169.927 115.055C167.299 110.472 162.614 106.946 157.544 105.558C152.704 104.235 146.737 104.887 142.373 107.422C138.865 109.459 136.032 112.518 134.142 116.1C133.352 117.597 132.837 119.188 132.142 120.723C131.629 121.855 130.809 122.427 130.48 123.766L130.426 123.998L130.237 123.749L129.996 124.218L129.699 123.708V123.707Z" fill="#030F4A"/>
<path d="M129.698 123.705L129.994 124.215L130.235 123.746L130.425 123.995L130.478 123.763C130.807 122.424 131.627 121.853 132.141 120.72C132.836 119.185 133.351 117.595 134.141 116.097C136.032 112.514 138.863 109.456 142.372 107.419C146.736 104.884 152.703 104.232 157.542 105.555C162.612 106.942 167.297 110.469 169.926 115.052C172.491 119.525 173.721 126.699 172.242 131.699L171.988 132.471C171.864 132.849 171.893 132.691 171.953 133.117C172.517 133.329 173.059 133.488 173.647 133.62C172.423 137.197 170.053 140.54 167.135 142.923C162.304 146.864 156.567 149.024 150.288 148.358C144.5 147.744 138.717 144.826 135.096 140.204C131.582 135.718 128.978 129.508 129.699 123.705H129.698Z" fill="#122A73"/>
<path d="M151.822 129.711C152.608 129.454 153.188 129.484 154.002 129.587C154.656 129.948 155.11 130.277 155.484 130.941C155.896 131.67 156.016 132.6 155.74 133.401C155.438 134.277 154.789 134.684 154.002 135.074C153.546 135.269 153.079 135.293 152.587 135.257C151.851 135.204 151.228 134.874 150.754 134.311C150.123 133.561 149.993 132.737 150.151 131.782C150.32 130.757 151.01 130.255 151.822 129.711Z" fill="#2198E0"/>
<path d="M146.247 117.038C146.7 116.912 147.204 116.852 147.673 116.883C148.55 116.94 149.462 117.634 149.981 118.305C150.588 119.09 150.988 120.14 150.809 121.142C150.556 122.559 149.625 123.295 148.49 124.009L148.311 124.024C147.832 124.077 147.285 124.184 146.804 124.124C145.844 124.003 144.864 123.177 144.364 122.37C143.855 121.546 143.751 120.526 143.969 119.59C144.261 118.334 145.198 117.642 146.248 117.04L146.247 117.038Z" fill="#ECEFF2"/>
<path d="M156.667 117.035C157.097 116.961 157.549 116.877 157.985 116.941C159.133 117.108 160.127 117.821 160.766 118.777C161.352 119.654 161.567 120.757 161.338 121.795C161.065 123.039 159.818 123.717 158.811 124.309C157.956 124.369 157.059 124.422 156.239 124.116C155.432 123.815 154.652 123.04 154.315 122.25C153.94 121.373 153.98 119.977 154.354 119.107C154.826 118.012 155.6 117.47 156.668 117.036L156.667 117.035Z" fill="#ECEFF2"/>
<path d="M161.264 126.98C161.875 126.912 162.31 126.749 162.865 127.054C164.402 127.9 165.91 130.278 166.357 131.953C166.593 132.833 166.479 133.406 165.988 134.191C165.131 135.562 163.713 135.997 162.222 136.269C161.576 136.209 160.875 136.164 160.257 135.961C159.057 135.565 157.986 134.614 157.453 133.472C157.108 132.734 157.116 132.249 157.38 131.495C158.013 129.691 159.549 127.828 161.264 126.98Z" fill="#B8E9FF"/>
<path d="M142.716 126.98C143.224 126.87 143.851 126.98 144.31 127.221C145.715 127.957 147.087 129.927 147.529 131.442C147.769 132.264 147.811 133.457 147.34 134.19C146.393 135.665 145.142 136.004 143.547 136.342L141.715 135.988C140.629 135.669 139.152 134.639 138.661 133.595C138.37 132.977 138.371 132.016 138.661 131.392C139.441 129.71 140.979 127.714 142.717 126.98H142.716Z" fill="#B8E9FF"/>
<path d="M209.856 104.474C211.568 104.462 221.473 104.093 222.309 104.497C222.839 104.753 223.574 105.593 224.001 106.021L241.398 124.399L244.463 127.587C244.981 128.123 245.551 128.884 246.237 129.194C248.811 126.625 270.141 104.98 271.352 104.536C271.795 104.373 273.129 104.526 273.676 104.524L280.757 104.498L319.724 104.45C320.373 104.452 321.034 104.557 321.678 104.515V136.357C317.027 137.723 312.699 137.841 308.348 135.434C305.285 133.74 302.708 130.759 300.261 128.277L299.414 128.367C303.617 132.548 307.071 136.543 313.234 137.54L313.603 137.604C314.974 137.834 316.444 137.815 317.825 137.695C318.867 137.604 320.749 136.741 321.609 137.056L321.691 138.819L321.682 194.747L321.654 210.132C321.644 213.494 321.872 217.056 321.267 220.371C320.735 223.28 319.297 226.061 317.218 228.16C314.549 230.858 311.381 232.586 307.619 233.144C303.05 233.823 297.774 233.341 293.133 233.342H263.277H160.082C159.814 233.341 159.918 233.351 159.699 233.309C157.89 233.026 155.863 233.199 154.028 233.204L144.381 233.216L108.633 233.204L118.318 222.344C120.073 220.467 122.48 217.641 124.844 216.618C124.665 215.774 124.548 214.996 124.644 214.127C124.818 212.535 125.582 211.197 126.848 210.216C128.363 209.042 129.985 209.1 131.769 209.309C132.905 207.975 134.71 207.064 136.2 206.157L144.214 201.529C145.92 200.623 147.72 199.862 149.362 198.846L153.82 197.068C156.163 195.707 159.115 195.22 161.348 193.722C161.83 193.698 162.658 193.743 163.056 193.491L163.187 193.378C163.61 193.389 163.911 193.392 164.312 193.247C164.561 193.157 164.744 193.099 165.011 193.047C165.251 192.999 165.439 192.927 165.67 192.87C168.255 192.231 170.707 191.222 173.241 190.513L173.737 190.383C175.649 189.519 177.921 188.803 179.694 187.648C182.152 186.048 184.727 184.652 187.14 182.932L192.376 178.84C193.596 177.961 195.216 176.529 196.058 175.277C197.001 173.875 198.447 172.637 199.52 171.296C202.146 168.012 204.365 164.502 206.293 160.77C211.406 150.87 213.949 140.196 214.217 129.085C214.305 125.426 214.263 121.831 213.669 118.209C212.875 113.365 211.323 109.109 209.855 104.475L209.856 104.474Z" fill="url(#paint15_linear_1_9603)"/>
<path d="M135.645 214.121L135.918 214.194C137.192 214.509 139.107 214.272 140.444 214.271L158.95 214.246C159.776 214.248 162.495 213.96 163.157 214.256C163.314 214.325 163.395 214.503 163.514 214.627L163.338 215.381C162.086 216.042 157.962 215.602 156.342 215.603L135.504 215.605L135.643 214.121H135.645Z" fill="#B0BBC9"/>
<path d="M236.094 180.441L240.267 180.371V189.483L234.707 189.498L230.929 189.517L230.926 180.499L236.094 180.442V180.441Z" fill="#ECEFF2"/>
<path d="M124.844 216.623C124.665 215.779 124.548 215.001 124.644 214.132C124.817 212.54 125.582 211.202 126.848 210.221C128.363 209.047 129.984 209.105 131.769 209.314C133.299 209.95 134.632 210.894 135.246 212.511C135.441 213.026 135.54 213.58 135.647 214.119L135.508 215.602C135.032 217.237 134.284 218.542 132.737 219.369C131.462 220.051 129.943 220.32 128.539 219.903C126.832 219.395 125.635 218.181 124.845 216.622L124.844 216.623Z" fill="#B8E9FF"/>
<path d="M214.703 174.298L224.86 174.351L224.829 189.506L214.689 189.617L214.703 174.297V174.298Z" fill="#3856B0"/>
<path d="M254.158 172.615L263.416 172.602L263.434 189.563L254.166 189.542L254.158 172.616V172.615Z" fill="#B8E9FF"/>
<path d="M300.09 168.63L309.361 168.667L309.417 189.496L300.148 189.526L300.09 168.629V168.63Z" fill="#3856B0"/>
<path d="M285.424 156.001L293.905 156.069L293.879 189.549L285.299 189.555L285.424 156V156.001Z" fill="#ECEFF2"/>
<path d="M231.631 204.688L268.237 204.721L268.193 219.984L231.613 219.998L231.631 204.688Z" fill="#B8E9FF"/>
<path d="M270.057 204.715L308.586 204.802L308.613 220.061H270.057V204.715Z" fill="#B8E9FF"/>
<path d="M191.082 204.668L229.687 204.641L229.713 220.014L191.096 219.997L191.083 204.667L191.082 204.668Z" fill="#ECEFF2"/>
<path d="M209.854 104.474C211.566 104.462 221.471 104.093 222.307 104.497C222.838 104.753 223.572 105.593 223.999 106.021L241.397 124.399L244.461 127.587C244.979 128.123 245.549 128.884 246.235 129.194C248.809 126.625 270.139 104.98 271.35 104.536C271.793 104.373 273.127 104.526 273.674 104.524L280.755 104.498L319.722 104.45C320.371 104.452 321.032 104.557 321.676 104.515V136.357C317.025 137.723 312.697 137.841 308.346 135.434C305.283 133.74 302.706 130.759 300.259 128.277L299.412 128.367C303.615 132.548 307.069 136.543 313.232 137.54L313.601 137.604C314.973 137.834 316.442 137.815 317.823 137.695C318.866 137.604 320.747 136.741 321.607 137.056L321.689 138.819L321.285 138.413L321.063 138.63C318.751 140.838 315.805 142.432 313.043 143.999C304.453 148.874 295.393 152.796 285.906 155.549C283.607 156.216 281.241 156.454 278.927 157.009L278.931 189.541L269.63 189.526C269.621 188.093 269.853 186.203 269.589 184.827L269.562 184.526L269.481 159.693L269.276 159.518C259.009 160.929 248.861 162.156 238.489 162.57L220.19 162.603C218.899 162.603 215.944 162.26 214.852 162.727C214.086 163.054 208.6 169.46 207.707 170.429L176.451 204.027C176.271 204.224 174.684 205.966 174.678 205.966C174.596 205.969 173.58 205.173 173.415 205.049L161.2 195.654L155.723 196.999C154.997 197.205 154.546 197.281 153.816 197.069C156.159 195.708 159.111 195.221 161.344 193.723C161.826 193.699 162.654 193.744 163.052 193.492L163.183 193.379C163.606 193.39 163.907 193.393 164.308 193.248C164.557 193.158 164.74 193.1 165.007 193.048C165.247 193 165.435 192.928 165.666 192.871C168.251 192.232 170.703 191.223 173.238 190.514L173.733 190.384C175.645 189.52 177.917 188.804 179.69 187.649C182.148 186.049 184.723 184.653 187.136 182.933L192.372 178.841C193.592 177.962 195.212 176.531 196.054 175.278C196.997 173.876 198.443 172.638 199.516 171.297C202.143 168.013 204.361 164.503 206.289 160.771C211.402 150.871 213.945 140.197 214.213 129.086C214.301 125.427 214.259 121.832 213.665 118.21C212.871 113.366 211.319 109.11 209.851 104.476L209.854 104.474Z" fill="url(#paint16_linear_1_9603)"/>
<path d="M222.78 160.167C221.742 160.802 218.085 160.549 216.729 160.603C218.598 158.399 220.419 155.805 222.496 153.832L223.047 153.994C222.15 155.172 221.462 156.224 221.705 157.798C221.844 158.691 222.228 159.463 222.779 160.166L222.78 160.167Z" fill="#030F4A"/>
<path d="M299.414 128.373L288.566 117.998C288.263 118.03 288.139 118.084 287.893 118.269C287.332 118.693 286.925 119.011 286.203 119.087C285.335 119.177 284.516 118.803 283.881 118.221C283.27 117.661 282.832 116.824 282.854 115.984C282.877 115.128 283.183 114.44 283.811 113.859C284.452 113.268 285.152 113.042 286.016 113.104C286.929 113.169 287.68 113.504 288.25 114.234C288.965 115.148 289.038 115.929 288.893 117.047L288.859 117.285L300.261 128.283L299.414 128.373Z" fill="#30FBF2"/>
<path d="M258.075 127.729C258.73 127.573 259.634 127.576 260.271 127.805C261.386 128.206 261.922 129.206 262.359 130.225C262.552 130.672 262.804 130.501 263.265 130.502L282.623 130.526C283.805 130.529 287.583 130.166 288.404 130.836L288.039 131.125L283.075 131.146L262.536 131.167C262.302 131.68 262.06 132.201 261.708 132.645C261.122 133.381 260.246 133.971 259.287 134.052C258.136 134.148 257.137 133.373 256.283 132.702C255.906 131.992 255.611 131.354 255.664 130.529C255.72 129.666 256.328 128.732 257.034 128.247C257.35 128.029 257.721 127.876 258.074 127.729H258.075Z" fill="#30FBF2"/>
<path d="M223.046 153.997C224.349 153.355 225.588 153.099 226.978 153.618C228.152 154.056 229.083 154.806 229.591 155.968L230.053 157.273C230.995 157.053 247.672 140.443 250.003 138.202C251.703 136.568 253.83 133.976 255.896 132.875L256.103 133.074C253.983 135.988 250.603 138.557 248.002 141.08L231.695 156.835C231.288 157.193 230.741 157.638 230.191 157.72L229.939 157.742L229.811 158.053C229.234 159.441 228.575 160.518 227.101 161.098C226.116 161.486 225.123 161.506 224.168 161.027L222.775 160.17C222.224 159.467 221.839 158.695 221.702 157.802C221.459 156.228 222.146 155.176 223.044 153.998L223.046 153.997Z" fill="#30FBF2"/>
<path d="M269.594 184.832C270.079 181.201 269.715 177.04 269.728 173.358L269.722 147.721L278.953 147.707L278.932 157.015L278.936 189.547L269.635 189.531C269.626 188.099 269.858 186.208 269.594 184.832Z" fill="#B8E9FF"/>
<defs>
<linearGradient id="paint0_linear_1_9603" x1="310.409" y1="249.28" x2="310.18" y2="254.768" gradientUnits="userSpaceOnUse">
<stop stop-color="#1FE5EB"/>
<stop offset="1" stop-color="#1CD1F0"/>
</linearGradient>
<linearGradient id="paint1_linear_1_9603" x1="318.838" y1="309.663" x2="318.838" y2="270.227" gradientUnits="userSpaceOnUse">
<stop stop-color="#B0BBC9"/>
<stop offset="1" stop-color="#D5DBE2"/>
</linearGradient>
<linearGradient id="paint2_linear_1_9603" x1="334.424" y1="39.1784" x2="334.424" y2="11.9258" gradientUnits="userSpaceOnUse">
<stop stop-color="#B0BBC9"/>
<stop offset="1" stop-color="#D5DBE2"/>
</linearGradient>
<linearGradient id="paint3_linear_1_9603" x1="28.2427" y1="159.159" x2="28.0618" y2="116.987" gradientUnits="userSpaceOnUse">
<stop stop-color="#1F31A9"/>
<stop offset="1" stop-color="#2573D5"/>
</linearGradient>
<linearGradient id="paint4_linear_1_9603" x1="35.1214" y1="62.6209" x2="35.1214" y2="1.89844" gradientUnits="userSpaceOnUse">
<stop stop-color="#B0BBC9"/>
<stop offset="1" stop-color="#D5DBE2"/>
</linearGradient>
<linearGradient id="paint5_linear_1_9603" x1="381.627" y1="136.379" x2="381.627" y2="45.2109" gradientUnits="userSpaceOnUse">
<stop stop-color="#B0BBC9"/>
<stop offset="1" stop-color="#D5DBE2"/>
</linearGradient>
<linearGradient id="paint6_linear_1_9603" x1="368.743" y1="290.327" x2="360.789" y2="227.386" gradientUnits="userSpaceOnUse">
<stop stop-color="#4445CE"/>
<stop offset="1" stop-color="#10EAFB"/>
</linearGradient>
<linearGradient id="paint7_linear_1_9603" x1="384.194" y1="277.685" x2="380.871" y2="235.312" gradientUnits="userSpaceOnUse">
<stop stop-color="#4161E0"/>
<stop offset="1" stop-color="#0EE0FA"/>
</linearGradient>
<linearGradient id="paint8_linear_1_9603" x1="362.371" y1="180.973" x2="360.442" y2="140.101" gradientUnits="userSpaceOnUse">
<stop stop-color="#0E2880"/>
<stop offset="1" stop-color="#1773C9"/>
</linearGradient>
<linearGradient id="paint9_linear_1_9603" x1="364.447" y1="167.328" x2="363.507" y2="158.655" gradientUnits="userSpaceOnUse">
<stop stop-color="#000749"/>
<stop offset="1" stop-color="#08307C"/>
</linearGradient>
<linearGradient id="paint10_linear_1_9603" x1="402.993" y1="181.085" x2="400.473" y2="140.786" gradientUnits="userSpaceOnUse">
<stop stop-color="#0B2A81"/>
<stop offset="1" stop-color="#1E64BC"/>
</linearGradient>
<linearGradient id="paint11_linear_1_9603" x1="79.9707" y1="175.621" x2="164.565" y2="218.546" gradientUnits="userSpaceOnUse">
<stop stop-color="#3EF4A7"/>
<stop offset="1" stop-color="#096EE0"/>
</linearGradient>
<linearGradient id="paint12_linear_1_9603" x1="93.5391" y1="186.271" x2="112.062" y2="222.309" gradientUnits="userSpaceOnUse">
<stop stop-color="#3EF4A7"/>
<stop offset="1" stop-color="#096EE0"/>
</linearGradient>
<linearGradient id="paint13_linear_1_9603" x1="79.916" y1="95.0012" x2="205.163" y2="161.374" gradientUnits="userSpaceOnUse">
<stop stop-color="#3EF4A7"/>
<stop offset="1" stop-color="#096EE0"/>
</linearGradient>
<linearGradient id="paint14_linear_1_9603" x1="192.041" y1="78.1346" x2="284.142" y2="162.628" gradientUnits="userSpaceOnUse">
<stop stop-color="#3EF4A7"/>
<stop offset="1" stop-color="#096EE0"/>
</linearGradient>
<linearGradient id="paint15_linear_1_9603" x1="108.633" y1="148.425" x2="261.878" y2="286.979" gradientUnits="userSpaceOnUse">
<stop stop-color="#3EF4A7"/>
<stop offset="1" stop-color="#096EE0"/>
</linearGradient>
<linearGradient id="paint16_linear_1_9603" x1="153.816" y1="139.021" x2="274.411" y2="248.205" gradientUnits="userSpaceOnUse">
<stop stop-color="#3EF4A7"/>
<stop offset="1" stop-color="#096EE0"/>
</linearGradient>
</defs>
</svg>
