<svg width="552" height="415" viewBox="0 0 552 415" fill="none" xmlns="http://www.w3.org/2000/svg">
<g clip-path="url(#clip0_51_18775)">
<path d="M552 0H0V415H552V0Z" fill="url(#paint0_linear_51_18775)"/>
<path d="M443.088 267.131C440.631 260.986 437.025 255.313 432.518 250.469C428.022 245.638 422.643 241.644 416.716 238.75C412.908 236.892 408.879 235.494 404.742 234.595C401.025 233.787 397.033 233.228 393.23 233.374C389.462 233.517 386.07 233.239 382.726 231.27C375.862 227.225 371.9 219.245 371.484 211.452C371.337 208.695 371.583 205.91 372.294 203.24C373.511 198.669 376.245 193.907 380.32 191.338C381.777 190.421 383.394 189.776 385.083 189.444C387.19 189.03 389.289 188.563 391.424 188.263C396.585 187.541 401.808 187.418 407.013 187.455C411.786 187.493 416.536 187.545 421.311 187.545C422.213 187.545 423.101 187.491 423.975 187.398C429.515 186.787 434.498 184.266 438.236 180.522C442.571 176.195 445.247 170.196 445.247 163.586C445.247 158.683 443.729 153.843 440.916 149.83C438.516 146.404 435.249 143.333 431.233 141.965C426.498 140.351 421.19 140.959 416.272 140.975C405.84 141.006 395.412 140.995 384.98 140.995C379.878 140.995 375.729 136.548 375.729 131.04C375.729 128.293 376.764 125.797 378.447 123.991C380.118 122.199 382.423 121.085 384.982 121.085H391.834C393.61 121.085 395.2 120.368 396.367 119.201C397.533 118.032 398.25 116.44 398.25 114.662C398.25 111.118 395.374 108.25 391.836 108.25H339.123C337.361 108.25 335.744 108.967 334.59 110.122C333.424 111.289 332.707 112.883 332.707 114.662C332.707 116.162 333.224 117.542 334.084 118.63H272.598C270.372 118.63 268.345 119.545 266.872 121.006C265.413 122.478 264.499 124.509 264.499 126.74C264.499 129.621 266.01 132.155 268.277 133.577C269.524 134.386 271.007 134.851 272.598 134.851H281.633C283.223 134.851 285.034 134.605 286.606 134.851C291.399 135.597 293.791 142.277 293.791 146.428V146.705C293.791 151.503 291.235 156.505 286.733 158.524C283.019 160.19 278.648 159.554 274.697 159.556C270.059 159.556 265.421 159.562 260.783 159.562C251.506 159.562 242.232 159.556 232.956 159.507C228.93 159.485 226.121 160.676 223.265 163.536C219.99 166.815 217.963 171.341 217.963 176.345C217.963 186.354 226.062 194.465 236.056 194.465H143.17C137.034 194.465 131.468 196.96 127.424 200.995C123.395 205.031 120.903 210.605 120.903 216.764C120.903 223.348 123.753 229.268 128.287 233.343C132.237 236.9 137.458 239.063 143.17 239.063H145.914C155.509 239.063 163.303 246.855 163.303 256.478C163.303 261.284 161.355 265.637 158.213 268.783C155.059 271.929 150.711 273.88 145.914 273.88H107.94C98.7011 273.88 90.3245 277.636 84.2671 283.702C80.2374 287.738 77.2285 292.807 75.6785 298.475C74.8836 301.315 74.4733 304.302 74.4733 307.395C74.4733 325.899 89.4504 340.91 107.94 340.91H393.212C408.044 340.91 421.469 334.897 431.186 325.155C438.343 317.987 443.499 308.789 445.713 298.502C446.508 294.838 446.92 291.029 446.92 287.126C446.92 280.296 445.626 273.479 443.088 267.137V267.131Z" fill="white"/>
<path opacity="0.25" d="M443.088 267.131C440.631 260.986 437.025 255.313 432.518 250.469C428.022 245.638 422.643 241.644 416.716 238.75C412.908 236.892 408.879 235.494 404.742 234.595C401.025 233.787 397.033 233.228 393.23 233.374C389.462 233.517 386.07 233.239 382.726 231.27C375.862 227.225 371.9 219.245 371.484 211.452C371.337 208.695 371.583 205.91 372.294 203.24C373.511 198.669 376.245 193.907 380.32 191.338C381.777 190.421 383.394 189.776 385.083 189.444C387.19 189.03 389.289 188.563 391.424 188.263C396.585 187.541 401.808 187.418 407.013 187.455C411.786 187.493 416.536 187.545 421.311 187.545C422.213 187.545 423.101 187.491 423.975 187.398C429.515 186.787 434.498 184.266 438.236 180.522C442.571 176.195 445.247 170.196 445.247 163.586C445.247 158.683 443.729 153.843 440.916 149.83C438.516 146.404 435.249 143.333 431.233 141.965C426.498 140.351 421.19 140.959 416.272 140.975C405.84 141.006 395.412 140.995 384.98 140.995C379.878 140.995 375.729 136.548 375.729 131.04C375.729 128.293 376.764 125.797 378.447 123.991C380.118 122.199 382.423 121.085 384.982 121.085H391.834C393.61 121.085 395.2 120.368 396.367 119.201C397.533 118.032 398.25 116.44 398.25 114.662C398.25 111.118 395.374 108.25 391.836 108.25H339.123C337.361 108.25 335.744 108.967 334.59 110.122C333.424 111.289 332.707 112.883 332.707 114.662C332.707 116.162 333.224 117.542 334.084 118.63H272.598C270.372 118.63 268.345 119.545 266.872 121.006C265.413 122.478 264.499 124.509 264.499 126.74C264.499 129.621 266.01 132.155 268.277 133.577C269.524 134.386 271.007 134.851 272.598 134.851H281.633C283.223 134.851 285.034 134.605 286.606 134.851C291.399 135.597 293.791 142.277 293.791 146.428V146.705C293.791 151.503 291.235 156.505 286.733 158.524C283.019 160.19 278.648 159.554 274.698 159.556C270.059 159.556 265.421 159.562 260.783 159.562C251.506 159.562 242.232 159.556 232.956 159.507C228.93 159.485 226.121 160.676 223.265 163.536C219.99 166.815 217.963 171.341 217.963 176.345C217.963 186.354 226.062 194.464 236.056 194.464H143.17C137.034 194.464 131.468 196.96 127.424 200.995C123.395 205.031 120.903 210.605 120.903 216.764C120.903 223.348 123.753 229.268 128.287 233.343C132.237 236.9 137.458 239.063 143.17 239.063H145.914C155.509 239.063 163.303 246.855 163.303 256.478C163.303 261.284 161.355 265.637 158.213 268.783C155.059 271.929 150.711 273.88 145.914 273.88H107.94C98.7011 273.88 90.3245 277.636 84.2671 283.702C80.2374 287.738 77.2285 292.807 75.6785 298.475C74.8836 301.315 74.4733 304.302 74.4733 307.395C74.4733 325.899 89.4504 340.91 107.94 340.91H393.212C408.044 340.91 421.469 334.897 431.186 325.155C438.343 317.987 443.499 308.789 445.713 298.502C446.508 294.838 446.92 291.029 446.92 287.126C446.92 280.296 445.626 273.479 443.088 267.137V267.131Z" stroke="#457B9D" stroke-width="1.89" stroke-miterlimit="10"/>
<path d="M187.487 165.839C198.297 165.839 207.061 157.062 207.061 146.237C207.061 135.411 198.297 126.635 187.487 126.635C176.677 126.635 167.914 135.411 167.914 146.237C167.914 157.062 176.677 165.839 187.487 165.839Z" fill="#3EF4A7"/>
<path d="M199.604 146.237L180.506 137.03V155.445L199.604 146.237Z" fill="white"/>
<path opacity="0.08" d="M214.454 223.439H72.4555C71.1354 223.439 70.063 224.521 70.063 225.841V320.903C70.063 322.231 71.1354 323.305 72.4555 323.305H214.454C215.78 323.305 216.853 322.231 216.853 320.903V225.841C216.853 224.519 215.78 223.439 214.454 223.439Z" fill="#21103A"/>
<path d="M221.974 221.232V300.995H75.1849V221.232C75.1849 219.91 76.2572 218.83 77.5774 218.83H219.576C220.902 218.83 221.974 219.912 221.974 221.232Z" fill="#A6D3FD"/>
<path d="M221.974 300.995V316.294C221.974 317.621 220.902 318.695 219.576 318.695H77.5774C76.2572 318.695 75.1849 317.621 75.1849 316.294V300.995H221.974Z" fill="#FF9E58"/>
<path d="M162.637 309.575C162.637 310.055 162.724 310.516 162.883 310.942H82.8875C82.1323 310.942 81.5218 310.331 81.5218 309.575C81.5218 308.818 82.1323 308.203 82.8875 308.203H162.887C162.724 308.63 162.637 309.09 162.637 309.575Z" fill="white"/>
<path opacity="0.25" d="M213.751 309.575C213.751 310.331 213.136 310.942 212.383 310.942H170.171C170.332 310.516 170.417 310.055 170.417 309.575C170.417 309.094 170.33 308.63 170.167 308.203H212.383C213.138 308.203 213.751 308.818 213.751 309.575Z" fill="white"/>
<path d="M170.415 309.574C170.415 310.055 170.328 310.515 170.169 310.942C169.616 312.419 168.197 313.469 166.526 313.469C164.855 313.469 163.438 312.419 162.883 310.942C162.722 310.515 162.637 310.055 162.637 309.574C162.637 309.094 162.724 308.629 162.887 308.203C163.44 306.726 164.863 305.68 166.526 305.68C168.189 305.68 169.612 306.728 170.165 308.203C170.328 308.629 170.415 309.09 170.415 309.574Z" fill="white"/>
<path d="M148.58 283.944C161.832 283.944 172.576 273.185 172.576 259.913C172.576 246.642 161.832 235.883 148.58 235.883C135.327 235.883 124.584 246.642 124.584 259.913C124.584 273.185 135.327 283.944 148.58 283.944Z" fill="#DEECF5"/>
<path d="M163.434 259.914L140.021 248.627V271.2L163.434 259.914Z" fill="#FF9E58"/>
<path d="M82.3285 226.842C83.4342 226.842 84.3305 225.944 84.3305 224.837C84.3305 223.73 83.4342 222.832 82.3285 222.832C81.2229 222.832 80.3266 223.73 80.3266 224.837C80.3266 225.944 81.2229 226.842 82.3285 226.842Z" fill="#DEECF5"/>
<path d="M88.3622 226.842C89.4678 226.842 90.3642 225.944 90.3642 224.837C90.3642 223.73 89.4678 222.832 88.3622 222.832C87.2565 222.832 86.3602 223.73 86.3602 224.837C86.3602 225.944 87.2565 226.842 88.3622 226.842Z" fill="white"/>
<path d="M94.3958 226.842C95.5015 226.842 96.3978 225.944 96.3978 224.837C96.3978 223.73 95.5015 222.832 94.3958 222.832C93.2902 222.832 92.3939 223.73 92.3939 224.837C92.3939 225.944 93.2902 226.842 94.3958 226.842Z" fill="#DEECF5"/>
<path d="M161.355 180.802H392.57C395.21 180.802 397.352 182.948 397.352 185.592V323.374H156.572V185.592C156.572 182.948 158.714 180.802 161.355 180.802Z" fill="#263C88"/>
<path d="M388.163 315.762V190.004H165.763V315.762H388.163Z" fill="white"/>
<path d="M385.654 311.445V194.326C385.654 193.328 384.846 192.52 383.85 192.52H170.076C169.08 192.52 168.272 193.328 168.272 194.326V311.445C168.272 312.442 169.08 313.251 170.076 313.251H383.85C384.846 313.251 385.654 312.442 385.654 311.445Z" fill="url(#paint1_linear_51_18775)"/>
<path d="M412.833 323.372C412.833 323.876 412.813 324.373 412.77 324.865H141.155C141.111 324.373 141.091 323.876 141.091 323.372H412.835H412.833Z" fill="#263C88"/>
<path d="M412.77 324.865C412.415 329.111 410.548 332.924 407.707 335.769C404.538 338.943 400.163 340.902 395.329 340.902H158.595C149.43 340.902 141.91 333.847 141.155 324.865H412.772H412.77Z" fill="white"/>
<path d="M412.77 324.865C412.415 329.111 410.548 332.924 407.707 335.769C404.538 338.943 400.163 340.902 395.329 340.902H158.595C149.43 340.902 141.91 333.847 141.155 324.865H412.772H412.77Z" stroke="#263C88" stroke-miterlimit="10"/>
<path d="M298.592 329.844H255.253C254.305 329.844 253.536 330.613 253.536 331.563C253.536 332.512 254.305 333.282 255.253 333.282H298.592C299.54 333.282 300.309 332.512 300.309 331.563C300.309 330.613 299.54 329.844 298.592 329.844Z" fill="#263C88"/>
<path d="M276.963 269.371C289.754 269.371 300.122 258.987 300.122 246.178C300.122 233.369 289.754 222.985 276.963 222.985C264.173 222.985 253.804 233.369 253.804 246.178C253.804 258.987 264.173 269.371 276.963 269.371Z" fill="#ECF4FF"/>
<path d="M291.298 246.178L268.702 235.284V257.072L291.298 246.178Z" fill="#FF9E58"/>
<path d="M203.887 302.141H176.449C175.991 302.141 175.62 302.512 175.62 302.97V308.769C175.62 309.227 175.991 309.598 176.449 309.598H203.887C204.345 309.598 204.716 309.227 204.716 308.769V302.97C204.716 302.512 204.345 302.141 203.887 302.141Z" fill="#21103A"/>
<path d="M377.476 302.141H207.889C207.432 302.141 207.061 302.512 207.061 302.97V308.769C207.061 309.227 207.432 309.598 207.889 309.598H377.476C377.933 309.598 378.304 309.227 378.304 308.769V302.97C378.304 302.512 377.933 302.141 377.476 302.141Z" fill="#21103A"/>
<path d="M369.484 305.178H368.996V303.223H371.111V303.711H369.484V305.178Z" fill="white"/>
<path d="M376.193 305.178H375.706V303.711H374.08V303.223H376.193V305.178Z" fill="white"/>
<path d="M376.193 308.517H374.08V308.028H375.706V306.562H376.193V308.517Z" fill="white"/>
<path d="M371.111 308.517H368.996V306.562H369.484V308.028H371.111V308.517Z" fill="white"/>
<path d="M371.2 305.118V305.686H372.066V305.118C372.066 305.037 372.084 304.975 372.122 304.936C372.157 304.896 372.205 304.874 372.267 304.874C372.328 304.874 372.376 304.894 372.413 304.934C372.451 304.973 372.469 305.035 372.469 305.116V306.678C372.469 306.76 372.451 306.821 372.413 306.863C372.376 306.903 372.326 306.925 372.267 306.925C372.207 306.925 372.157 306.905 372.122 306.863C372.086 306.821 372.068 306.762 372.068 306.68V306.013H371.202V306.68C371.202 306.762 371.184 306.823 371.147 306.865C371.109 306.905 371.059 306.927 371 306.927C370.94 306.927 370.891 306.907 370.855 306.865C370.82 306.823 370.802 306.764 370.802 306.682V305.12C370.802 305.039 370.82 304.977 370.855 304.938C370.891 304.898 370.938 304.876 371 304.876C371.061 304.876 371.109 304.896 371.147 304.936C371.184 304.975 371.202 305.037 371.202 305.118H371.2Z" fill="white"/>
<path d="M373.147 304.908H373.67C373.805 304.908 373.922 304.92 374.019 304.946C374.116 304.972 374.203 305.019 374.282 305.087C374.488 305.264 374.592 305.532 374.592 305.893C374.592 306.012 374.582 306.121 374.56 306.218C374.538 306.318 374.508 306.405 374.465 306.484C374.421 306.564 374.366 306.633 374.298 306.697C374.245 306.744 374.187 306.782 374.124 306.812C374.06 306.842 373.993 306.861 373.92 306.873C373.846 306.885 373.765 306.891 373.674 306.891H373.151C373.077 306.891 373.022 306.879 372.986 306.857C372.95 306.836 372.925 306.804 372.915 306.764C372.903 306.724 372.897 306.673 372.897 306.607V305.154C372.897 305.067 372.917 305.005 372.956 304.966C372.994 304.926 373.057 304.908 373.145 304.908H373.147ZM373.301 305.226V306.572H373.604C373.672 306.572 373.723 306.572 373.761 306.566C373.799 306.562 373.838 306.554 373.878 306.538C373.918 306.522 373.953 306.502 373.983 306.476C374.118 306.363 374.183 306.167 374.183 305.889C374.183 305.692 374.153 305.547 374.094 305.45C374.035 305.353 373.963 305.291 373.876 305.264C373.789 305.238 373.686 305.224 373.563 305.224H373.297L373.301 305.226Z" fill="white"/>
<path opacity="0.25" d="M367.593 305.202H209.862C209.539 305.202 209.243 305.421 209.182 305.738C209.1 306.165 209.424 306.538 209.836 306.538H367.591C367.959 306.538 368.259 306.238 368.259 305.869C368.259 305.5 367.959 305.2 367.591 305.2L367.593 305.202Z" fill="white"/>
<path d="M273.758 304.995H210.044C209.562 304.995 209.172 305.386 209.172 305.869C209.172 306.351 209.562 306.742 210.044 306.742H273.758C274.24 306.742 274.63 306.351 274.63 305.869C274.63 305.386 274.24 304.995 273.758 304.995Z" fill="white"/>
<path d="M275.165 308.398C276.56 308.398 277.691 307.265 277.691 305.869C277.691 304.472 276.56 303.34 275.165 303.34C273.771 303.34 272.64 304.472 272.64 305.869C272.64 307.265 273.771 308.398 275.165 308.398Z" fill="white"/>
<path d="M189.721 303.498H187.931V308.242H189.721V303.498Z" fill="white"/>
<path d="M192.405 303.498H190.615V308.242H192.405V303.498Z" fill="white"/>
<path d="M184.165 305.87C184.165 305.745 184.153 305.622 184.129 305.499C184.058 305.132 183.882 304.78 183.596 304.496C183.513 304.413 183.424 304.34 183.331 304.274C183.323 304.268 183.315 304.266 183.307 304.26C183.283 304.244 183.257 304.232 183.232 304.217C183.156 304.171 183.079 304.129 182.998 304.093C182.962 304.078 182.928 304.064 182.891 304.052C182.813 304.024 182.736 304 182.659 303.982C182.625 303.974 182.591 303.964 182.558 303.96C182.447 303.941 182.334 303.929 182.221 303.929C182.108 303.929 181.995 303.941 181.884 303.96C181.85 303.966 181.816 303.976 181.785 303.982C181.705 304 181.628 304.024 181.551 304.052C181.515 304.066 181.479 304.078 181.446 304.093C181.366 304.129 181.287 304.171 181.212 304.217C181.188 304.232 181.162 304.244 181.138 304.26C181.13 304.266 181.123 304.268 181.115 304.274C181.021 304.34 180.932 304.413 180.849 304.496C180.605 304.741 180.435 305.042 180.347 305.368C180.347 305.376 180.344 305.382 180.344 305.39C180.336 305.419 180.33 305.451 180.322 305.481C180.322 305.485 180.322 305.489 180.32 305.493L180.171 305.344C180.068 305.241 179.917 305.227 179.794 305.29C179.767 305.304 179.739 305.32 179.715 305.344C179.685 305.374 179.664 305.408 179.648 305.445C179.642 305.457 179.642 305.469 179.638 305.481C179.63 305.507 179.624 305.533 179.622 305.558C179.622 305.572 179.622 305.586 179.624 305.602C179.626 305.626 179.63 305.65 179.638 305.674C179.642 305.687 179.648 305.701 179.656 305.715C179.662 305.725 179.664 305.737 179.67 305.747C179.67 305.747 179.672 305.743 179.674 305.741C179.685 305.761 179.695 305.783 179.713 305.801L180.417 306.505C180.496 306.593 180.619 306.634 180.742 306.603C180.799 306.587 180.849 306.557 180.887 306.519L181.604 305.803C181.622 305.785 181.632 305.763 181.644 305.741C181.644 305.741 181.648 305.745 181.648 305.747C181.654 305.737 181.656 305.725 181.662 305.715C181.67 305.701 181.674 305.687 181.68 305.674C181.687 305.65 181.691 305.628 181.693 305.602C181.693 305.588 181.697 305.572 181.695 305.558C181.695 305.533 181.687 305.507 181.681 305.481C181.678 305.469 181.676 305.457 181.672 305.443C181.656 305.408 181.634 305.372 181.604 305.342C181.477 305.215 181.273 305.215 181.146 305.342L181.033 305.455L180.976 305.513C181.035 305.306 181.146 305.112 181.305 304.953C181.557 304.701 181.89 304.574 182.219 304.574C182.548 304.574 182.881 304.701 183.132 304.953C183.384 305.205 183.511 305.539 183.511 305.868C183.511 305.94 183.503 306.013 183.491 306.082C183.487 306.11 183.479 306.136 183.473 306.164C183.461 306.213 183.448 306.261 183.43 306.309C183.42 306.335 183.41 306.362 183.398 306.388C183.376 306.438 183.35 306.485 183.323 306.531C183.311 306.553 183.299 306.575 183.285 306.597C183.239 306.662 183.19 306.726 183.132 306.785C183.045 306.872 182.946 306.942 182.843 307C182.823 307.011 182.805 307.023 182.786 307.033C182.75 307.051 182.714 307.061 182.677 307.075C182.647 307.087 182.619 307.101 182.589 307.109C182.522 307.129 182.455 307.142 182.385 307.152C182.149 307.184 181.907 307.144 181.681 307.041C181.644 307.023 181.606 307.009 181.57 306.988C181.456 306.92 181.315 306.934 181.214 307.009C181.18 307.035 181.15 307.067 181.128 307.107C181.109 307.14 181.099 307.178 181.093 307.214C181.093 307.224 181.091 307.234 181.089 307.244C181.087 307.275 181.089 307.307 181.095 307.337C181.095 307.343 181.095 307.349 181.097 307.355C181.105 307.385 181.117 307.414 181.134 307.44C181.134 307.44 181.136 307.44 181.136 307.436C181.164 307.48 181.198 307.52 181.245 307.545C181.626 307.766 182.056 307.843 182.47 307.79C182.883 307.736 183.279 307.547 183.588 307.238C183.931 306.894 184.112 306.454 184.143 306.003C184.143 306.015 184.147 306.025 184.149 306.037C184.155 305.979 184.157 305.922 184.157 305.864L184.165 305.87Z" fill="white"/>
<path d="M196.169 305.87C196.169 305.745 196.181 305.622 196.205 305.499C196.276 305.132 196.452 304.78 196.738 304.496C196.821 304.413 196.91 304.34 197.003 304.274C197.011 304.268 197.019 304.266 197.027 304.26C197.051 304.244 197.077 304.232 197.103 304.217C197.178 304.171 197.255 304.129 197.336 304.093C197.372 304.078 197.406 304.064 197.443 304.052C197.521 304.024 197.598 304 197.675 303.982C197.709 303.974 197.743 303.964 197.776 303.96C197.887 303.941 198 303.929 198.113 303.929C198.226 303.929 198.339 303.941 198.45 303.96C198.484 303.966 198.518 303.976 198.55 303.982C198.629 304 198.706 304.024 198.783 304.052C198.819 304.066 198.855 304.078 198.888 304.093C198.968 304.129 199.047 304.171 199.122 304.217C199.146 304.232 199.172 304.244 199.196 304.26C199.204 304.266 199.212 304.268 199.219 304.274C199.313 304.34 199.402 304.413 199.485 304.496C199.729 304.741 199.899 305.042 199.987 305.368C199.987 305.376 199.991 305.382 199.991 305.39C199.998 305.419 200.004 305.451 200.012 305.481C200.012 305.485 200.012 305.489 200.014 305.493L200.163 305.344C200.266 305.241 200.417 305.227 200.54 305.29C200.567 305.304 200.595 305.32 200.619 305.344C200.649 305.374 200.67 305.408 200.686 305.445C200.692 305.457 200.692 305.469 200.696 305.481C200.704 305.507 200.71 305.533 200.712 305.558C200.712 305.572 200.712 305.586 200.71 305.602C200.708 305.626 200.704 305.65 200.696 305.674C200.692 305.687 200.686 305.701 200.678 305.715C200.672 305.725 200.67 305.737 200.664 305.747C200.664 305.747 200.663 305.743 200.661 305.741C200.649 305.761 200.639 305.783 200.621 305.801L199.917 306.505C199.838 306.593 199.715 306.634 199.592 306.603C199.535 306.587 199.485 306.557 199.447 306.519L198.73 305.803C198.712 305.785 198.702 305.763 198.69 305.741C198.69 305.741 198.686 305.745 198.686 305.747C198.68 305.737 198.678 305.725 198.672 305.715C198.664 305.701 198.661 305.687 198.655 305.674C198.647 305.65 198.643 305.628 198.641 305.602C198.641 305.588 198.637 305.572 198.639 305.558C198.639 305.533 198.647 305.507 198.653 305.481C198.657 305.469 198.659 305.457 198.663 305.443C198.678 305.408 198.7 305.372 198.73 305.342C198.857 305.215 199.061 305.215 199.188 305.342L199.301 305.455L199.358 305.513C199.299 305.306 199.188 305.112 199.029 304.953C198.777 304.701 198.444 304.574 198.115 304.574C197.784 304.574 197.453 304.701 197.202 304.953C196.95 305.205 196.823 305.539 196.823 305.868C196.823 305.94 196.831 306.013 196.843 306.082C196.847 306.11 196.855 306.136 196.861 306.164C196.873 306.213 196.887 306.261 196.904 306.309C196.914 306.335 196.924 306.362 196.936 306.388C196.958 306.438 196.984 306.485 197.011 306.531C197.023 306.553 197.035 306.575 197.049 306.597C197.095 306.662 197.144 306.726 197.202 306.785C197.289 306.872 197.388 306.942 197.491 307C197.511 307.011 197.529 307.023 197.549 307.033C197.584 307.051 197.62 307.061 197.658 307.075C197.687 307.087 197.715 307.101 197.745 307.109C197.812 307.129 197.88 307.142 197.949 307.152C198.185 307.184 198.427 307.144 198.653 307.041C198.69 307.023 198.728 307.009 198.764 306.988C198.879 306.92 199.019 306.934 199.12 307.009C199.154 307.035 199.184 307.067 199.206 307.107C199.225 307.14 199.235 307.178 199.241 307.214C199.241 307.224 199.243 307.234 199.245 307.244C199.247 307.275 199.245 307.307 199.239 307.337C199.239 307.343 199.239 307.349 199.237 307.355C199.229 307.385 199.218 307.414 199.2 307.44C199.2 307.44 199.198 307.44 199.198 307.436C199.17 307.48 199.136 307.52 199.089 307.545C198.708 307.766 198.278 307.843 197.864 307.79C197.451 307.736 197.055 307.547 196.746 307.238C196.403 306.894 196.222 306.454 196.191 306.003C196.191 306.015 196.187 306.025 196.185 306.037C196.179 305.979 196.177 305.922 196.177 305.864L196.169 305.87Z" fill="white"/>
<path d="M175.759 203.321C177.203 203.321 178.373 202.149 178.373 200.703C178.373 199.257 177.203 198.085 175.759 198.085C174.315 198.085 173.144 199.257 173.144 200.703C173.144 202.149 174.315 203.321 175.759 203.321Z" fill="#DEECF5"/>
<path d="M183.642 203.321C185.086 203.321 186.256 202.149 186.256 200.703C186.256 199.257 185.086 198.085 183.642 198.085C182.198 198.085 181.027 199.257 181.027 200.703C181.027 202.149 182.198 203.321 183.642 203.321Z" fill="white"/>
<path d="M191.525 203.321C192.969 203.321 194.139 202.149 194.139 200.703C194.139 199.257 192.969 198.085 191.525 198.085C190.081 198.085 188.91 199.257 188.91 200.703C188.91 202.149 190.081 203.321 191.525 203.321Z" fill="#DEECF5"/>
<path opacity="0.08" d="M509.988 125.473H317.591C315.803 125.473 314.35 126.938 314.35 128.728V257.529C314.35 259.327 315.803 260.784 317.591 260.784H509.988C511.784 260.784 513.239 259.327 513.239 257.529V128.728C513.239 126.938 511.784 125.473 509.988 125.473Z" fill="#21103A"/>
<path d="M520.178 122.481V230.554H321.29V122.481C321.29 120.691 322.743 119.226 324.531 119.226H516.927C518.723 119.226 520.178 120.691 520.178 122.481Z" fill="url(#paint2_linear_51_18775)"/>
<path d="M520.178 230.555V251.282C520.178 253.08 518.725 254.537 516.927 254.537H324.531C322.743 254.537 321.29 253.08 321.29 251.282V230.555H520.178Z" fill="#FF9E58"/>
<path d="M439.78 242.178C439.78 242.829 439.897 243.455 440.113 244.03H331.726C330.703 244.03 329.876 243.201 329.876 242.178C329.876 241.156 330.705 240.32 331.726 240.32H440.119C439.897 240.898 439.78 241.523 439.78 242.178Z" fill="white"/>
<path opacity="0.25" d="M509.034 242.178C509.034 243.203 508.202 244.03 507.179 244.03H449.984C450.2 243.453 450.317 242.827 450.317 242.178C450.317 241.529 450.2 240.898 449.978 240.32H507.177C508.2 240.32 509.032 241.154 509.032 242.178H509.034Z" fill="white"/>
<path d="M450.319 242.179C450.319 242.83 450.202 243.455 449.986 244.031C449.237 246.031 447.312 247.455 445.051 247.455C442.789 247.455 440.864 246.031 440.115 244.031C439.899 243.453 439.782 242.828 439.782 242.179C439.782 241.529 439.899 240.898 440.121 240.321C440.87 238.32 442.799 236.9 445.053 236.9C447.306 236.9 449.233 238.32 449.984 240.321C450.206 240.898 450.323 241.523 450.323 242.179H450.319Z" fill="white"/>
<path d="M420.734 207.451C438.69 207.451 453.247 192.873 453.247 174.891C453.247 156.909 438.69 142.331 420.734 142.331C402.777 142.331 388.221 156.909 388.221 174.891C388.221 192.873 402.777 207.451 420.734 207.451Z" fill="#DEECF5"/>
<path d="M440.859 174.891L409.138 159.599V190.184L440.859 174.891Z" fill="#FF9E58"/>
<path d="M330.969 130.079C332.466 130.079 333.68 128.864 333.68 127.364C333.68 125.864 332.466 124.648 330.969 124.648C329.471 124.648 328.257 125.864 328.257 127.364C328.257 128.864 329.471 130.079 330.969 130.079Z" fill="#DEECF5"/>
<path d="M339.143 130.079C340.64 130.079 341.854 128.864 341.854 127.364C341.854 125.864 340.64 124.648 339.143 124.648C337.645 124.648 336.431 125.864 336.431 127.364C336.431 128.864 337.645 130.079 339.143 130.079Z" fill="white"/>
<path d="M347.317 130.079C348.815 130.079 350.029 128.864 350.029 127.364C350.029 125.864 348.815 124.648 347.317 124.648C345.82 124.648 344.606 125.864 344.606 127.364C344.606 128.864 345.82 130.079 347.317 130.079Z" fill="#DEECF5"/>
<path d="M102.842 352.509C96.0827 352.509 92.0173 352.509 92.0173 352.509" stroke="#263C88" stroke-width="12.95" stroke-linecap="round" stroke-linejoin="round"/>
<path d="M102.842 352.509H92.0173" stroke="#263C88" stroke-width="12.95" stroke-linecap="round" stroke-linejoin="round"/>
<path d="M147.388 352.509H115.323" stroke="#516278" stroke-width="12.95" stroke-linecap="round" stroke-linejoin="round"/>
<path d="M244.858 352.509H161.127" stroke="#263C88" stroke-width="12.95" stroke-linecap="round" stroke-linejoin="round"/>
<path d="M393.626 340.91H403.824" stroke="#516278" stroke-width="12.95" stroke-linecap="round" stroke-linejoin="round"/>
<path d="M46.7471 340.91C177.178 340.96 379.232 340.96 509.595 340.902" stroke="#516278" stroke-width="12.95" stroke-linecap="round" stroke-linejoin="round"/>
<path opacity="0.1" d="M257.562 161.945C257.514 161.891 257.465 161.835 257.417 161.782V154.424C257.417 115.039 225.532 83.1084 186.205 83.1084C146.877 83.1084 114.992 115.039 114.992 154.424V161.782C114.945 161.835 114.895 161.891 114.848 161.945C112.907 164.204 111.734 167.139 111.734 170.349V188.895C111.734 192.107 112.907 195.047 114.848 197.299C115.068 197.554 115.296 197.8 115.533 198.032C117.704 200.194 120.631 201.579 123.884 201.758C124.292 203.06 124.951 204.253 125.797 205.277C125.884 205.38 125.971 205.484 126.061 205.583C126.935 206.562 127.985 207.371 129.169 207.969H129.173C130.584 208.68 132.177 209.08 133.864 209.08H134.814C138.13 209.08 141.103 207.606 143.117 205.279C144.609 203.548 145.575 201.345 145.753 198.923C145.777 198.651 145.787 198.371 145.787 198.093V161.149C145.787 159.263 145.319 157.486 144.493 155.93C142.625 152.411 138.925 150.015 134.669 150.015H134.267C129.458 150.015 125.381 153.141 123.952 157.478C123.054 157.52 122.18 157.661 121.343 157.877V154.422C121.343 140.352 125.779 126.969 133.991 115.865C133.957 115.843 133.928 115.823 133.894 115.797C135.795 113.231 137.898 110.787 140.195 108.489C152.288 96.3781 168.316 89.6371 185.394 89.4683C168.371 89.6748 152.401 96.4119 140.342 108.489C138.023 110.811 135.906 113.274 133.991 115.865C135.349 116.824 136.921 117.294 138.485 117.294C140.554 117.294 142.609 116.47 144.122 114.866C144.514 114.446 144.917 114.035 145.325 113.626C156.048 102.887 170.508 96.8267 185.675 96.7275H186.207C201.541 96.7672 215.955 102.766 226.799 113.626C226.815 113.642 226.827 113.654 226.841 113.667C229.138 115.974 232.799 116.177 235.294 114.084L236.262 113.272C234.904 111.617 233.459 110.021 231.927 108.487C219.867 96.4099 203.893 89.6728 186.871 89.4664C203.947 89.6351 219.978 96.3761 232.072 108.487C244.325 120.758 251.07 137.069 251.07 154.42V157.875C250.339 157.685 249.58 157.554 248.803 157.496C248.688 157.486 248.577 157.48 248.462 157.474C248.426 157.365 248.387 157.256 248.347 157.147C246.823 152.978 242.835 150.009 238.147 150.009H237.744C233.489 150.009 229.79 152.403 227.921 155.924C227.096 157.48 226.627 159.257 226.627 161.143V198.088C226.627 198.365 226.636 198.645 226.66 198.917C226.839 201.339 227.802 203.542 229.297 205.273C229.844 205.906 230.464 206.478 231.144 206.97C232.954 208.292 235.187 209.075 237.6 209.075H238.549C240.236 209.075 241.828 208.676 243.241 207.963H243.245C244.426 207.367 245.479 206.556 246.353 205.577C246.44 205.478 246.527 205.374 246.616 205.271C247.463 204.245 248.121 203.052 248.529 201.752C248.692 201.742 248.852 201.73 249.013 201.716C249.019 201.716 249.023 201.716 249.029 201.714C244.472 214.103 234.177 224.19 220.96 229.453C220.843 229.01 220.684 228.587 220.494 228.182C219.237 225.483 216.498 223.611 213.324 223.611H202.629C200.444 223.611 198.466 224.498 197.033 225.933C195.6 227.364 194.714 229.347 194.714 231.537C194.714 234.219 196.044 236.589 198.082 238.02C199.37 238.927 200.934 239.461 202.627 239.461H213.322C215.507 239.461 217.487 238.574 218.918 237.138C220.105 235.951 220.918 234.383 221.16 232.634C236.288 226.918 247.948 215.248 252.511 200.888C252.622 200.847 252.735 200.801 252.846 200.751C254.361 200.104 255.726 199.175 256.878 198.028C257.066 197.847 257.243 197.655 257.419 197.458C257.467 197.405 257.516 197.349 257.564 197.296C259.504 195.041 260.678 192.101 260.678 188.891V170.345C260.678 167.133 259.504 164.198 257.564 161.941L257.562 161.945ZM197.384 233.776C197.378 233.825 197.374 233.875 197.368 233.925C197.372 233.875 197.378 233.825 197.384 233.776ZM197.35 234.179C197.348 234.217 197.344 234.256 197.342 234.294C197.342 234.254 197.346 234.217 197.35 234.179ZM197.523 236.394C197.552 236.535 197.588 236.674 197.626 236.811C197.434 236.128 197.332 235.411 197.332 234.667C197.332 235.261 197.4 235.838 197.523 236.392V236.394ZM197.449 233.319C197.481 233.129 197.521 232.942 197.566 232.758C197.521 232.942 197.481 233.131 197.449 233.319ZM197.57 232.746C197.588 232.674 197.608 232.603 197.628 232.533C197.608 232.605 197.588 232.674 197.57 232.746ZM197.774 232.059C197.794 232.001 197.814 231.946 197.836 231.888C197.814 231.944 197.794 232.001 197.774 232.059ZM197.913 231.692C197.933 231.642 197.955 231.59 197.975 231.541C197.953 231.59 197.933 231.642 197.913 231.692ZM198.26 230.945C198.28 230.908 198.3 230.87 198.322 230.834C198.302 230.872 198.28 230.908 198.26 230.945ZM198.442 230.624C198.46 230.592 198.478 230.562 198.498 230.53C198.48 230.56 198.46 230.592 198.442 230.624Z" fill="#4A3130"/>
<path d="M241.669 109.096L240.702 109.908C238.206 112 234.545 111.798 232.248 109.491C232.232 109.475 232.22 109.463 232.206 109.45C221.362 98.5896 206.948 92.5909 191.614 92.5512V85.2861C191.838 85.2861 192.058 85.2861 192.278 85.2921C209.301 85.4985 225.275 92.2356 237.334 104.312C238.866 105.847 240.311 107.443 241.669 109.098V109.096Z" fill="#146093"/>
<path d="M191.614 85.2842V92.5493H191.083C175.915 92.6485 161.456 98.7087 150.732 109.448C150.324 109.856 149.922 110.267 149.529 110.688C148.019 112.292 145.963 113.116 143.892 113.116C142.326 113.116 140.754 112.647 139.398 111.687C141.311 109.096 143.43 106.633 145.749 104.31C157.809 92.2337 173.779 85.4966 190.801 85.2901C191.073 85.2881 191.342 85.2842 191.614 85.2842Z" fill="#0075D6"/>
<path d="M129.357 153.3C129 154.374 128.81 155.521 128.81 156.714V157.736C128.039 157.978 127.301 158.29 126.604 158.669C123.517 160.329 121.186 163.213 120.257 166.673C119.969 167.745 119.815 168.868 119.815 170.029V188.575C119.815 189.738 119.969 190.864 120.257 191.932C120.435 192.595 120.665 193.24 120.943 193.853C120.705 193.621 120.477 193.375 120.257 193.121C118.316 190.866 117.143 187.926 117.143 184.714V166.169C117.143 162.957 118.316 160.021 120.257 157.762C120.304 157.709 120.354 157.653 120.402 157.599C122.027 155.767 124.174 154.404 126.604 153.737C126.651 153.725 126.701 153.709 126.748 153.697C127.585 153.478 128.459 153.34 129.357 153.298V153.3Z" fill="#F25366"/>
<path d="M129.293 197.579C126.041 197.401 123.113 196.015 120.943 193.853C120.665 193.238 120.435 192.595 120.257 191.932C119.969 190.864 119.815 189.737 119.815 188.575V170.029C119.815 168.866 119.969 167.745 120.257 166.673C121.188 163.213 123.517 160.329 126.604 158.669C127.301 158.29 128.039 157.978 128.81 157.736V194.425C128.81 194.53 128.814 194.637 128.816 194.743C128.844 195.729 129.01 196.68 129.293 197.579Z" fill="#FF9E58"/>
<path d="M149.898 151.751C148.35 150.933 146.588 150.471 144.717 150.471H144.318C141.513 150.471 138.958 151.533 137.034 153.284C135.858 154.344 134.919 155.66 134.294 157.142C133.753 158.435 133.454 159.858 133.454 161.351V199.066C133.454 199.762 133.523 200.443 133.65 201.102C133.674 201.227 133.702 201.348 133.731 201.465C133.922 202.283 134.205 203.063 134.574 203.794C133.393 203.198 132.34 202.387 131.466 201.408C131.379 201.309 131.291 201.205 131.202 201.102C130.356 200.076 129.698 198.883 129.289 197.583C129.006 196.684 128.84 195.733 128.812 194.746C128.808 194.641 128.806 194.534 128.806 194.429V156.718C128.806 155.525 128.996 154.377 129.353 153.303C130.782 148.966 134.859 145.84 139.668 145.84H140.07C144.326 145.84 148.025 148.234 149.894 151.755L149.898 151.751Z" fill="url(#paint3_linear_51_18775)"/>
<path d="M151.192 156.968V193.913C151.192 194.19 151.182 194.47 151.158 194.742C150.98 197.164 150.017 199.367 148.522 201.098C146.508 203.427 143.535 204.899 140.219 204.899H139.27C137.583 204.899 135.991 204.501 134.578 203.788H134.574C134.205 203.059 133.922 202.277 133.731 201.459C133.702 201.342 133.674 201.221 133.65 201.096C133.523 200.437 133.454 199.756 133.454 199.06V161.345C133.454 159.852 133.753 158.431 134.294 157.136C134.917 155.654 135.856 154.338 137.034 153.278C138.958 151.529 141.513 150.465 144.318 150.465H144.717C146.588 150.465 148.35 150.927 149.898 151.745C150.722 153.301 151.192 155.078 151.192 156.964V156.968Z" fill="url(#paint4_linear_51_18775)"/>
<path d="M191.614 78.9277V85.2837C191.342 85.2837 191.073 85.2877 190.801 85.2897C173.725 85.4584 157.696 92.1994 145.603 104.31C143.305 106.611 141.202 109.052 139.301 111.619C139.335 111.643 139.365 111.664 139.398 111.686C131.186 122.788 126.748 136.173 126.748 150.243V153.699C126.701 153.711 126.651 153.727 126.604 153.738C124.174 154.403 122.027 155.769 120.402 157.601V150.243C120.402 110.858 152.282 78.9277 191.614 78.9277Z" fill="#4091E2"/>
<path d="M262.826 150.243V157.601C261.201 155.769 259.054 154.405 256.624 153.738C256.577 153.727 256.527 153.711 256.48 153.699V150.243C256.48 132.894 249.734 116.581 237.481 104.31C225.388 92.1994 209.356 85.4584 192.28 85.2897C192.06 85.2837 191.838 85.2837 191.616 85.2837V78.9277C230.944 78.9277 262.828 110.858 262.828 150.243H262.826Z" fill="#186FB7"/>
<path d="M253.756 152.974C251.97 151.672 249.766 150.91 247.392 150.91H246.989C242.733 150.91 239.035 153.303 237.166 156.825C236.341 158.381 235.871 160.158 235.871 162.043V198.988C235.871 199.266 235.881 199.546 235.905 199.818C235.98 200.86 236.204 201.859 236.551 202.799C235.871 202.305 235.251 201.733 234.704 201.102C233.211 199.371 232.246 197.168 232.068 194.746C232.044 194.474 232.034 194.196 232.034 193.917V156.972C232.034 155.086 232.502 153.309 233.328 151.753C235.195 148.234 238.896 145.838 243.152 145.838H243.554C248.242 145.838 252.232 148.807 253.754 152.976L253.756 152.974Z" fill="url(#paint5_linear_51_18775)"/>
<path d="M254.418 156.714V194.425C254.418 194.531 254.414 194.638 254.412 194.743C254.384 195.73 254.218 196.68 253.935 197.58C253.526 198.882 252.868 200.075 252.022 201.099C251.935 201.202 251.847 201.305 251.758 201.405C250.884 202.383 249.833 203.193 248.65 203.791H248.646C247.235 204.501 245.641 204.902 243.954 204.902H243.005C240.593 204.902 238.359 204.122 236.549 202.798C236.202 201.857 235.978 200.859 235.903 199.817C235.879 199.545 235.869 199.267 235.869 198.987V162.042C235.869 160.156 236.337 158.38 237.164 156.824C239.031 153.304 242.731 150.908 246.987 150.908H247.39C249.766 150.908 251.968 151.67 253.754 152.973C253.794 153.082 253.833 153.191 253.869 153.3C254.226 154.374 254.416 155.521 254.416 156.714H254.418Z" fill="url(#paint6_linear_51_18775)"/>
<path d="M266.085 170.472V184.716C266.085 187.928 264.912 190.868 262.971 193.122C262.924 193.176 262.874 193.232 262.826 193.285C262.652 193.482 262.474 193.672 262.285 193.855C261.134 195.002 259.768 195.931 258.254 196.578C258.143 196.626 258.03 196.672 257.919 196.715C256.825 197.146 255.655 197.43 254.434 197.541C254.428 197.543 254.424 197.543 254.418 197.543C254.258 197.559 254.097 197.571 253.935 197.579C254.218 196.68 254.385 195.729 254.412 194.742C254.416 194.637 254.418 194.53 254.418 194.425V157.641C255.126 157.704 255.814 157.827 256.48 158C256.527 158.012 256.577 158.028 256.624 158.04C256.993 158.139 257.356 158.258 257.713 158.393C259.695 159.131 261.449 160.348 262.826 161.9C262.874 161.954 262.924 162.01 262.971 162.063C264.912 164.322 266.085 167.258 266.085 170.47V170.472Z" fill="#FF9E58"/>
<path d="M266.085 166.171V170.472C266.085 167.26 264.912 164.324 262.971 162.066C262.924 162.012 262.874 161.956 262.826 161.903C261.449 160.35 259.695 159.134 257.713 158.395C257.356 158.258 256.993 158.141 256.624 158.042C256.577 158.03 256.527 158.014 256.48 158.002C255.816 157.83 255.126 157.706 254.418 157.643V156.716C254.418 155.523 254.228 154.376 253.871 153.302C253.986 153.308 254.097 153.314 254.212 153.324C254.989 153.381 255.748 153.512 256.48 153.703C256.527 153.715 256.577 153.731 256.624 153.742C259.054 154.407 261.201 155.773 262.826 157.605C262.874 157.659 262.924 157.714 262.971 157.768C264.912 160.027 266.085 162.963 266.085 166.174V166.171Z" fill="#F25366"/>
<path d="M225.897 224.007C224.613 223.1 223.045 222.566 221.352 222.566H210.656C208.472 222.566 206.494 223.453 205.063 224.888C203.63 226.32 202.744 228.303 202.744 230.49C202.744 231.689 203.009 232.824 203.487 233.845C201.449 232.413 200.119 230.043 200.119 227.362C200.119 225.174 201.005 223.191 202.439 221.758C203.872 220.323 205.848 219.436 208.032 219.436H218.728C221.901 219.436 224.64 221.305 225.897 224.007Z" fill="url(#paint7_linear_51_18775)"/>
<path d="M226.64 227.36C226.64 227.733 226.617 228.103 226.565 228.46C226.323 230.209 225.511 231.777 224.323 232.964C222.894 234.399 220.914 235.286 218.73 235.286H208.034C206.341 235.286 204.775 234.754 203.489 233.845C203.247 233.331 203.059 232.785 202.936 232.217C202.811 231.664 202.746 231.086 202.746 230.493C202.746 230.048 202.781 229.609 202.855 229.184C203.13 227.519 203.921 226.03 205.065 224.889C206.498 223.454 208.474 222.566 210.658 222.566H221.354C223.047 222.566 224.615 223.098 225.899 224.008C226.089 224.412 226.246 224.837 226.365 225.278C226.547 225.941 226.642 226.64 226.642 227.36H226.64Z" fill="url(#paint8_linear_51_18775)"/>
<path d="M257.919 196.714C253.354 211.073 241.695 222.741 226.567 228.46C226.619 228.103 226.642 227.733 226.642 227.36C226.642 226.64 226.545 225.941 226.365 225.278C239.582 220.018 249.877 209.93 254.434 197.54C255.655 197.428 256.825 197.143 257.919 196.714Z" fill="#C11A3A"/>
</g>
<defs>
<linearGradient id="paint0_linear_51_18775" x1="276" y1="415" x2="276" y2="0" gradientUnits="userSpaceOnUse">
<stop stop-color="#B0BBC9"/>
<stop offset="1" stop-color="#D5DBE2"/>
</linearGradient>
<linearGradient id="paint1_linear_51_18775" x1="311.426" y1="192.52" x2="267.446" y2="336.952" gradientUnits="userSpaceOnUse">
<stop stop-color="#3EF4A7"/>
<stop offset="1" stop-color="#096EE0"/>
</linearGradient>
<linearGradient id="paint2_linear_51_18775" x1="321.29" y1="157.24" x2="453.982" y2="287.209" gradientUnits="userSpaceOnUse">
<stop stop-color="#3EF4A7"/>
<stop offset="1" stop-color="#096EE0"/>
</linearGradient>
<linearGradient id="paint3_linear_51_18775" x1="139.352" y1="203.794" x2="139.352" y2="145.84" gradientUnits="userSpaceOnUse">
<stop stop-color="#B0BBC9"/>
<stop offset="1" stop-color="#D5DBE2"/>
</linearGradient>
<linearGradient id="paint4_linear_51_18775" x1="142.323" y1="204.899" x2="142.323" y2="150.465" gradientUnits="userSpaceOnUse">
<stop stop-color="#B0BBC9"/>
<stop offset="1" stop-color="#D5DBE2"/>
</linearGradient>
<linearGradient id="paint5_linear_51_18775" x1="242.895" y1="202.799" x2="242.895" y2="145.838" gradientUnits="userSpaceOnUse">
<stop stop-color="#B0BBC9"/>
<stop offset="1" stop-color="#D5DBE2"/>
</linearGradient>
<linearGradient id="paint6_linear_51_18775" x1="245.144" y1="204.902" x2="245.144" y2="150.908" gradientUnits="userSpaceOnUse">
<stop stop-color="#B0BBC9"/>
<stop offset="1" stop-color="#D5DBE2"/>
</linearGradient>
<linearGradient id="paint7_linear_51_18775" x1="213.008" y1="233.845" x2="213.008" y2="219.436" gradientUnits="userSpaceOnUse">
<stop stop-color="#B0BBC9"/>
<stop offset="1" stop-color="#D5DBE2"/>
</linearGradient>
<linearGradient id="paint8_linear_51_18775" x1="214.694" y1="235.286" x2="214.694" y2="222.566" gradientUnits="userSpaceOnUse">
<stop stop-color="#B0BBC9"/>
<stop offset="1" stop-color="#D5DBE2"/>
</linearGradient>
<clipPath id="clip0_51_18775">
<rect width="552" height="415" rx="16" fill="white"/>
</clipPath>
</defs>
</svg>
