<svg width="552" height="415" viewBox="0 0 552 415" fill="none" xmlns="http://www.w3.org/2000/svg">
<g clip-path="url(#clip0_51_19041)">
<path d="M0 3.48104C0 1.61749 1.15699 0.14286 3.02054 0.14286H8.75472L28.5516 0.138438L101.628 0.126276H450.941L527.747 0.139543L545.545 0.14286C547.053 0.14286 550.398 -0.257382 551.7 0.286594C551.882 0.368695 551.999 0.549929 551.999 0.749713V414.249C551.999 414.45 551.882 414.633 551.7 414.717C550.398 415.26 547.053 414.859 545.545 414.859L527.747 414.863L450.941 414.875H101.629L28.5528 414.863L8.75582 414.859H3.02054C1.15674 414.859 0 413.382 0 411.518V3.48104Z" fill="url(#paint0_linear_51_19041)"/>
<g filter="url(#filter0_d_51_19041)">
<path d="M450.61 89.8281C453.518 89.8281 455.901 91.7165 457.42 94.5957C458.936 97.4686 459.634 101.388 459.194 105.661L459.5 301.012V301.038L459.497 301.063C459.055 305.351 457.549 309.267 455.458 312.122C453.375 314.966 450.653 316.828 447.77 316.828H111.871C108.987 316.828 106.265 314.966 104.182 312.122C102.09 309.267 100.585 305.351 100.143 301.063L100.14 301.039V301.014L99.6299 105.673C99.1923 101.395 99.8902 97.4722 101.406 94.5967C102.924 91.7174 105.304 89.8281 108.212 89.8281H450.61Z" fill="url(#paint1_linear_51_19041)" stroke="url(#paint2_linear_51_19041)"/>
<path d="M181.341 175.874H147.354V316.328H181.341V175.874Z" fill="url(#paint3_linear_51_19041)"/>
<path d="M237.916 193.862H206.4V316.328H237.916V193.862Z" fill="url(#paint4_linear_51_19041)"/>
<path d="M295.756 255.096H264.24V316.328H295.756V255.096Z" fill="url(#paint5_linear_51_19041)"/>
<path d="M353.596 147.51H322.08V316.32H353.596V147.51Z" fill="url(#paint6_linear_51_19041)"/>
<path d="M411.382 223.286H379.917V316.319H411.382V223.286Z" fill="url(#paint7_linear_51_19041)"/>
<path d="M278.678 243.557L224.058 181.403L166.838 154.665L104.916 195.972L103.005 193.105L166.545 150.73L226.168 178.587L277.627 237.15L335.019 99.8564L395.89 205.556L455.186 191.124L456.004 194.465L394.194 209.509L335.51 107.606L278.678 243.557Z" fill="#FF9E58"/>
<path fill-rule="evenodd" clip-rule="evenodd" d="M164.37 164.524C171.061 164.524 176.494 159.09 176.494 152.4C176.494 145.709 171.061 140.232 164.37 140.232C157.679 140.232 152.203 145.709 152.203 152.4C152.203 159.09 157.679 164.524 164.37 164.524Z" fill="#FF9E58"/>
<path fill-rule="evenodd" clip-rule="evenodd" d="M164.367 159.582C168.294 159.582 171.54 156.336 171.54 152.409C171.54 148.483 168.294 145.185 164.367 145.185C160.441 145.185 157.143 148.431 157.143 152.409C157.143 156.387 160.389 159.582 164.367 159.582Z" fill="white"/>
<path fill-rule="evenodd" clip-rule="evenodd" d="M222.156 189.935C228.846 189.935 234.323 184.459 234.323 177.768C234.323 171.077 228.846 165.601 222.156 165.601C215.465 165.601 210.031 171.077 210.031 177.768C210.031 184.459 215.465 189.935 222.156 189.935Z" fill="#FF9E58"/>
<path fill-rule="evenodd" clip-rule="evenodd" d="M222.156 184.983C226.134 184.983 229.381 181.737 229.381 177.759C229.381 173.781 226.134 170.586 222.156 170.586C218.178 170.586 214.983 173.789 214.983 177.759C214.983 181.729 218.186 184.983 222.156 184.983Z" fill="white"/>
<path fill-rule="evenodd" clip-rule="evenodd" d="M279.995 249.085C286.686 249.085 292.162 243.608 292.162 236.917C292.162 230.227 286.686 224.75 279.995 224.75C273.304 224.75 267.828 230.227 267.828 236.917C267.828 243.608 273.304 249.085 279.995 249.085Z" fill="#FF9E58"/>
<path fill-rule="evenodd" clip-rule="evenodd" d="M279.995 244.134C283.974 244.134 287.22 240.887 287.22 236.909C287.22 232.931 283.974 229.685 279.995 229.685C276.017 229.685 272.771 232.931 272.771 236.909C272.771 240.887 276.017 244.134 279.995 244.134Z" fill="white"/>
<path fill-rule="evenodd" clip-rule="evenodd" d="M337.835 118.62C344.526 118.62 349.96 113.186 349.96 106.495C349.96 99.8047 344.526 94.3281 337.835 94.3281C331.145 94.3281 325.668 99.8047 325.668 106.495C325.668 113.186 331.145 118.62 337.835 118.62Z" fill="#FF9E58"/>
<path fill-rule="evenodd" clip-rule="evenodd" d="M337.836 113.669C341.814 113.669 345.009 110.466 345.009 106.496C345.009 102.526 341.805 99.2715 337.836 99.2715C333.866 99.2715 330.611 102.518 330.611 106.496C330.611 110.474 333.857 113.669 337.836 113.669Z" fill="white"/>
<path fill-rule="evenodd" clip-rule="evenodd" d="M395.676 212.479C402.366 212.479 407.791 207.046 407.791 200.312C407.791 193.578 402.358 188.188 395.676 188.188C388.994 188.188 383.508 193.621 383.508 200.312C383.508 207.003 388.942 212.479 395.676 212.479Z" fill="#FF9E58"/>
<path fill-rule="evenodd" clip-rule="evenodd" d="M395.676 207.528C399.603 207.528 402.849 204.282 402.849 200.304C402.849 196.326 399.603 193.131 395.676 193.131C391.749 193.131 388.451 196.377 388.451 200.304C388.451 204.23 391.698 207.528 395.676 207.528Z" fill="white"/>
<path fill-rule="evenodd" clip-rule="evenodd" d="M456.319 281.328C475.289 281.328 490.657 296.677 490.657 315.647C490.657 334.617 475.289 349.966 456.319 349.966L425.832 353.396L438.977 345.289C428.817 339.317 422 328.289 422 315.651C422 296.681 437.372 281.332 456.315 281.332L456.319 281.328Z" fill="#0085F2"/>
<path fill-rule="evenodd" clip-rule="evenodd" d="M445.268 309.548C445.163 308.319 445.122 307.157 445.122 306.096C445.122 302.393 445.798 299.704 447.152 298.053C448.867 295.959 451.07 294.707 453.759 294.308C454.71 294.158 455.643 294.075 456.553 294.075C458.184 294.075 459.771 294.308 461.294 294.775C463.644 295.493 465.445 296.933 466.649 299.072C467.709 300.998 468.235 303.453 468.235 306.439V307.476C468.089 310.951 467.367 313.809 466.096 316.091C464.806 318.355 462.877 320.009 460.275 321.024L460.192 326.74L453.544 326.845L453.458 316.471C456.823 315.982 458.876 314.5 459.64 312.045C460.147 310.353 460.403 308.68 460.403 307.07C460.403 306.394 460.362 305.717 460.275 305.036C459.959 302.855 458.602 301.776 456.233 301.776H456.086C454.011 301.84 452.973 303.724 452.973 307.428C452.973 308.15 452.995 308.909 453.056 309.714L445.264 309.545L445.268 309.548ZM457.147 339.378C455.898 339.378 454.819 338.934 453.928 338.024C453.041 337.137 452.593 336.076 452.593 334.828C452.593 333.58 453.037 332.478 453.928 331.59C454.819 330.703 455.894 330.256 457.147 330.256C458.399 330.256 459.497 330.699 460.388 331.59C461.275 332.478 461.723 333.561 461.723 334.828C461.723 336.095 461.279 337.137 460.388 338.024C459.497 338.934 458.418 339.378 457.147 339.378Z" fill="white"/>
<path fill-rule="evenodd" clip-rule="evenodd" d="M84.0122 194.328C63.5647 194.328 47 210.893 47 231.34C47 251.788 63.5687 268.332 84.0122 268.332L116.85 272.029L102.701 263.266C113.652 256.854 121 244.942 121 231.34C121 210.893 104.431 194.328 84.0081 194.328H84.0122Z" fill="#39E7AD"/>
<path fill-rule="evenodd" clip-rule="evenodd" d="M77.0979 231.296C77.0979 231.616 77.0736 231.912 77.0736 232.207C77.0736 236.84 78.0342 239.167 79.9472 239.167C81.9778 239.167 82.9829 236.544 82.9829 231.296C82.9829 226.047 82.0467 223.425 80.1539 223.425C78.2611 223.425 77.256 226.047 77.0979 231.296ZM105.303 232.71C104.78 232.872 104.391 233.371 104.209 234.287C104.071 234.81 104.026 235.361 104.026 235.884C104.026 236.248 104.051 236.637 104.095 237.002C104.233 237.914 104.687 238.396 105.441 238.417H105.534C106.219 238.417 106.697 238.076 106.948 237.412C107.175 236.84 107.293 236.155 107.293 235.381C107.293 235.199 107.293 234.992 107.269 234.789C107.2 233.764 106.993 233.123 106.653 232.872C106.426 232.71 106.174 232.645 105.874 232.645C105.692 232.645 105.51 232.67 105.303 232.714V232.71ZM105.737 229.723C108.679 229.723 110.142 231.433 110.142 234.878V235.288C110.004 239.008 108.452 240.901 105.441 240.926C105.416 240.95 105.372 240.95 105.352 240.95C102.478 240.95 101.063 239.191 101.063 235.657V235.361C101.132 231.595 102.705 229.723 105.741 229.723H105.737ZM93.5289 224.223C92.9817 224.385 92.5926 224.908 92.4102 225.8C92.2724 226.347 92.2278 226.874 92.2278 227.421C92.2278 227.786 92.2522 228.15 92.2967 228.54C92.4346 229.451 92.8885 229.934 93.6423 229.954H93.7356C94.4205 229.954 94.8988 229.609 95.1744 228.929C95.3811 228.357 95.4946 227.696 95.4946 226.922C95.4946 226.716 95.4946 226.533 95.4703 226.327C95.4014 225.301 95.1947 224.661 94.8542 224.389C94.6475 224.227 94.3759 224.162 94.0801 224.162C93.8977 224.162 93.7153 224.187 93.5329 224.231L93.5289 224.223ZM93.9382 221.232C96.8807 221.232 98.3439 222.967 98.3439 226.387V226.821C98.2304 230.542 96.6537 232.41 93.6423 232.459H93.5491C90.6755 232.459 89.257 230.7 89.257 227.186V226.866C89.3462 223.125 90.8985 221.228 93.9342 221.228L93.9382 221.232ZM103.775 221.232L98.0682 241.197L95.8553 240.808L101.562 220.843L103.775 221.232ZM80.2714 218.492C84.904 218.492 87.2305 222.715 87.2305 231.182C87.2305 239.649 84.7419 243.868 79.7689 243.868C74.7958 243.868 72.3275 239.487 72.3275 230.724C72.3275 222.578 74.9741 218.492 80.2674 218.492H80.2714ZM57.8866 236.086L62.0166 235.742C62.0166 238.299 62.8151 239.576 64.4606 239.576C66.1061 239.576 66.9249 238.822 67.0627 237.294C67.1316 236.564 67.1518 235.835 67.1518 235.126C67.1518 234.283 67.1072 233.436 67.0383 232.593C66.8803 231.065 66.2642 230.286 65.1456 230.286H65.0321C63.8243 230.355 62.957 231.267 62.4301 233.095L58.142 232.982L58.6445 218.379L70.4631 218.172L70.532 222.464L62.6813 222.622L62.3612 228.6C62.9083 227.048 63.8891 226.16 65.3036 225.929C65.6441 225.86 65.9886 225.836 66.3088 225.836C67.3342 225.836 68.2705 226.112 69.1378 226.635C70.2564 227.344 70.9617 229.03 71.2373 231.677C71.3305 232.588 71.3953 233.48 71.3953 234.347C71.3953 235.989 71.2129 237.541 70.8482 239.004C70.3253 241.242 69.2756 242.632 67.699 243.179C66.5803 243.568 65.4617 243.771 64.3228 243.771C63.8648 243.771 63.4109 243.726 62.9286 243.657C61.3317 243.43 60.0753 242.745 59.139 241.582C58.296 240.557 57.8623 238.935 57.8623 236.743C57.8623 236.536 57.8623 236.309 57.8866 236.082V236.086Z" fill="white"/>
<path d="M198.513 333.328H53.4148C50.1011 333.328 47.4148 336.014 47.4148 339.328V360.017C47.4148 363.331 50.1011 366.017 53.4148 366.017H198.513C201.826 366.017 204.513 363.331 204.513 360.017V339.328C204.513 336.014 201.826 333.328 198.513 333.328Z" fill="#FF9E58"/>
<path fill-rule="evenodd" clip-rule="evenodd" d="M185.539 340.592C182.135 342.314 180.77 346.496 182.521 349.9C184.047 352.919 187.515 354.342 190.631 353.403L194.099 360.246L196.368 359.076L192.895 352.268C195.487 350.258 196.397 346.623 194.876 343.61C193.125 340.206 188.972 338.841 185.533 340.592H185.539ZM186.674 342.798C184.502 343.898 183.627 346.594 184.727 348.766C185.827 350.972 188.523 351.847 190.694 350.713C192.901 349.612 193.776 346.917 192.641 344.745C191.541 342.539 188.88 341.698 186.674 342.798Z" fill="#FEFEFE"/>
<path fill-rule="evenodd" clip-rule="evenodd" d="M60.1276 340.592C57.4663 340.592 56.1703 342.279 56.1703 345.033C56.1703 350.027 62.1379 350.413 62.1379 354.37C62.1379 355.994 61.4582 356.933 60.0642 356.933C58.6702 356.933 57.956 355.994 57.956 354.37V353.27H56.1069V354.272C56.1069 356.962 57.3742 358.713 60.0988 358.713C62.8233 358.713 64.1194 356.962 64.1194 354.272C64.1194 349.278 58.1518 348.886 58.1518 344.9C58.1518 343.311 58.7681 342.372 60.1967 342.372C61.6252 342.372 62.207 343.311 62.207 344.935V345.517H64.0906V345.033C64.0906 342.343 62.8233 340.592 60.1333 340.592H60.1276ZM67.8174 348.633V342.567H73.1686V340.753H65.8417V358.558H73.1686V356.743H67.8174V350.419H72.1606V348.633H67.8174ZM81.5036 354.958L82.1833 358.558H84.1591L80.7548 340.753H77.9035L74.4992 358.558H76.3137L76.9934 354.958H81.5036ZM79.2341 342.994L81.2099 353.276H77.2526L79.2341 342.994ZM85.7201 340.753V358.558H87.7016V350.972H89.0956C90.7488 350.972 91.6877 351.588 91.6877 353.598V356.386C91.6877 357.584 91.7856 358.039 92.0102 358.558H94.0206C93.698 357.941 93.6634 357.193 93.6634 356.415V353.662C93.6634 351.749 93.0816 350.419 91.4285 349.935C92.9549 349.445 93.6634 348.247 93.6634 346.271V344.843C93.6634 342.182 92.4941 340.759 89.6774 340.759H85.7201V340.753ZM87.6959 349.151V342.567H89.6428C91.1001 342.567 91.6877 343.408 91.6877 344.998V346.715C91.6877 348.627 90.7488 349.146 89.1935 349.146H87.7016L87.6959 349.151ZM99.5676 340.592C96.843 340.592 95.5758 342.377 95.5758 345.067V354.243C95.5758 356.968 96.843 358.719 99.5676 358.719C102.292 358.719 103.588 356.968 103.588 354.243V352.037H101.71V354.37C101.71 355.96 101.06 356.933 99.6367 356.933C98.214 356.933 97.5631 355.96 97.5631 354.37V344.964C97.5631 343.339 98.2082 342.372 99.6367 342.372C101.065 342.372 101.71 343.345 101.71 344.964V346.651H103.588V345.062C103.588 342.372 102.321 340.586 99.5676 340.586V340.592ZM111.762 350.545V358.558H113.738V340.753H111.762V348.765H107.384V340.753H105.408V358.558H107.384V350.545H111.762ZM115.748 356.092V358.558H117.66V356.092H115.748ZM119.705 356.092V358.558H121.618V356.092H119.705ZM123.628 356.092V358.558H125.54V356.092H123.628Z" fill="white"/>
</g>
<g filter="url(#filter1_d_51_19041)">
<path fill-rule="evenodd" clip-rule="evenodd" d="M69.5727 106.679L68.4855 171.284C68.4784 171.87 68.9529 172.368 69.5475 172.366L76.0736 172.478C76.6598 172.485 77.1578 172.011 77.1644 171.428L78.2399 106.832C78.2495 106.229 77.7724 105.748 77.1876 105.743L70.6616 105.63C70.07 105.612 69.5773 106.098 69.5707 106.681L69.5727 106.679Z" fill="white"/>
<path fill-rule="evenodd" clip-rule="evenodd" d="M76.8771 105.733L77.9448 93.9961L74.1994 89.016L73.9253 105.682L76.8771 105.733Z" fill="#808080"/>
<path fill-rule="evenodd" clip-rule="evenodd" d="M70.9766 105.633L70.2992 93.8646L74.2012 89.0156L73.927 105.682L70.9766 105.633Z" fill="#B3B3B3"/>
<path fill-rule="evenodd" clip-rule="evenodd" d="M75.2185 95.4142C75.2059 96.038 74.7035 96.5311 74.0816 96.5171C73.4578 96.5045 72.9647 96.0021 72.9788 95.3802C72.9914 94.7564 73.4938 94.2633 74.1157 94.2773C74.7395 94.2899 75.2208 94.8011 75.2185 95.4142Z" fill="#E6E6E6"/>
<path fill-rule="evenodd" clip-rule="evenodd" d="M76.0504 173.998C76.0377 174.825 75.3421 175.496 74.5163 175.482L71.1085 175.415C70.2808 175.402 69.6117 174.709 69.6244 173.881C69.6371 173.053 70.3327 172.383 71.1585 172.397L74.5663 172.464C75.4058 172.468 76.0676 173.152 76.0504 173.998Z" fill="#335E8A"/>
<path fill-rule="evenodd" clip-rule="evenodd" d="M71.7669 173.673L72.0495 156.627L70.977 156.608L70.6977 173.655L71.7669 173.673Z" fill="#335E8A"/>
<path fill-rule="evenodd" clip-rule="evenodd" d="M77.5571 147.648L77.5382 148.924L70.5244 148.798L70.5423 147.541L77.5571 147.648Z" fill="#E6E6E6"/>
<path fill-rule="evenodd" clip-rule="evenodd" d="M78.0984 115.785L78.0729 116.962L70.6684 116.839L70.6939 115.661L78.0984 115.785Z" fill="#E6E6E6"/>
<path fill-rule="evenodd" clip-rule="evenodd" d="M304.22 84.9111C304.706 81.6335 302.444 78.5819 299.166 78.0952L243.851 69.8814C240.573 69.3946 237.521 71.6574 237.035 74.9354L225.412 153.245C224.925 156.522 227.188 159.574 230.466 160.06L285.781 168.267C289.059 168.754 292.11 166.491 292.597 163.213L304.22 84.9111Z" fill="#03386E"/>
<path fill-rule="evenodd" clip-rule="evenodd" d="M221.999 160.361C221.999 163.675 224.686 166.361 227.999 166.361H286.525C289.839 166.361 292.525 163.675 292.525 160.361V77.7012C292.525 74.3875 289.839 71.7012 286.525 71.7012H236.994C235.402 71.7012 233.875 72.334 232.75 73.4602L223.755 82.4622C222.631 83.5873 221.999 85.1126 221.999 86.7031V160.361Z" fill="#FEFEFE"/>
<path fill-rule="evenodd" clip-rule="evenodd" d="M234.508 71.7012L222 84.2192L234.508 84.0496V71.7012Z" fill="#E6E6E6"/>
<path fill-rule="evenodd" clip-rule="evenodd" d="M233.765 106.442C233.765 95.768 242.415 87.127 253.08 87.127V106.442H233.765Z" fill="#F2BF5D"/>
<path fill-rule="evenodd" clip-rule="evenodd" d="M257.399 110.18H272.986C272.976 114.895 270.886 119.121 267.583 121.982L257.399 110.18Z" fill="#F0687B"/>
<path fill-rule="evenodd" clip-rule="evenodd" d="M264.241 91.533C263.666 91.3062 263.958 91.4205 264.241 91.533V91.533ZM264.261 91.533C271.536 94.2997 276.713 101.342 276.713 109.595H257.399L264.261 91.533Z" fill="#6564AC"/>
<path fill-rule="evenodd" clip-rule="evenodd" d="M262.511 94.386L256.947 109.041V93.3311C258.906 93.3411 260.787 93.7174 262.511 94.386Z" fill="#F7A271"/>
<path fill-rule="evenodd" clip-rule="evenodd" d="M256.815 129.822C246.152 129.822 237.501 121.173 237.501 110.508H256.815L269.428 125.134C266.049 128.052 261.635 129.821 256.815 129.821V129.822Z" fill="#6BC06F"/>
<path fill-rule="evenodd" clip-rule="evenodd" d="M247.712 121.042C247.712 121.154 247.796 121.23 247.91 121.23C248.014 121.23 248.098 121.154 248.098 121.042C248.098 119.075 249.812 118.698 249.812 117.333C249.812 117.229 249.726 117.145 249.623 117.145H247.382C247.278 117.145 247.194 117.23 247.194 117.333C247.194 117.435 247.278 117.521 247.382 117.521H249.407C249.407 118.435 247.712 119.055 247.712 121.042ZM251.76 120.909C251.008 120.909 250.668 120.4 250.668 119.159C250.668 117.917 251.008 117.417 251.76 117.417C252.513 117.417 252.842 117.916 252.842 119.159C252.842 120.402 252.503 120.909 251.76 120.909ZM251.76 117.061C250.744 117.061 250.273 117.719 250.273 119.159C250.273 120.598 250.744 121.267 251.76 121.267C252.776 121.267 253.238 120.598 253.238 119.159C253.238 117.719 252.768 117.061 251.76 117.061ZM256.776 117.098C256.711 117.098 256.664 117.134 256.643 117.173L254.686 121.023C254.678 121.052 254.678 121.07 254.678 121.08C254.678 121.164 254.743 121.232 254.827 121.232C254.875 121.232 254.932 121.203 254.96 121.156L256.909 117.306C256.919 117.296 256.927 117.269 256.927 117.249C256.927 117.165 256.862 117.098 256.776 117.098ZM254.686 118.745C254.234 118.745 254.112 118.416 254.112 118.04C254.112 117.664 254.234 117.334 254.686 117.334C255.138 117.334 255.269 117.655 255.269 118.04C255.269 118.425 255.157 118.745 254.686 118.745ZM254.686 117.061C254.046 117.061 253.811 117.494 253.811 118.04C253.811 118.586 254.046 119.019 254.686 119.019C255.326 119.019 255.572 118.586 255.572 118.04C255.572 117.494 255.345 117.061 254.686 117.061ZM256.909 120.985C256.457 120.985 256.334 120.664 256.334 120.287C256.334 119.911 256.457 119.582 256.909 119.582C257.361 119.582 257.493 119.903 257.493 120.287C257.493 120.672 257.381 120.985 256.909 120.985ZM256.909 119.31C256.269 119.31 256.034 119.743 256.034 120.289C256.034 120.835 256.269 121.269 256.909 121.269C257.549 121.269 257.794 120.827 257.794 120.289C257.794 119.752 257.569 119.31 256.909 119.31Z" fill="white"/>
<path fill-rule="evenodd" clip-rule="evenodd" d="M241.756 97.7088C241.793 97.7558 241.84 97.7743 241.887 97.7743C241.971 97.7743 242.046 97.6987 242.046 97.6147C242.046 97.5777 242.036 97.5492 242.018 97.5206C241.801 97.1998 241.415 96.9932 240.936 96.9932C240.202 96.9932 239.862 97.398 239.862 97.8583C239.862 99.0543 241.764 98.6108 241.764 99.5532C241.764 99.995 241.453 100.222 240.899 100.222C240.457 100.222 240.165 100.005 240.005 99.7414C239.977 99.6842 239.93 99.6574 239.864 99.6574C239.77 99.6574 239.705 99.733 239.705 99.817C239.705 99.8455 239.705 99.8741 239.733 99.911C239.903 100.24 240.326 100.533 240.901 100.533C241.682 100.533 242.115 100.185 242.115 99.5532C242.115 98.3387 240.205 98.6965 240.205 97.8583C240.205 97.566 240.412 97.3123 240.939 97.3123C241.363 97.3123 241.608 97.5189 241.757 97.7071L241.756 97.7088ZM243.506 98.4042C243.872 98.4042 244.099 98.6108 244.099 98.9602V99.0913H243.383C242.848 99.0913 242.508 99.3634 242.508 99.8069C242.508 100.25 242.848 100.522 243.375 100.522C243.676 100.522 243.968 100.4 244.099 100.165V100.343C244.099 100.427 244.165 100.502 244.25 100.502C244.344 100.502 244.41 100.427 244.41 100.343V98.9586C244.41 98.4412 244.089 98.1019 243.506 98.1019C243.083 98.1019 242.809 98.2715 242.668 98.4966C242.649 98.5252 242.639 98.5436 242.639 98.5823C242.639 98.6663 242.705 98.7335 242.79 98.7335C242.827 98.7335 242.866 98.715 242.923 98.6579C243.074 98.4781 243.234 98.4042 243.506 98.4042ZM243.402 100.23C243.016 100.23 242.827 100.061 242.827 99.8069C242.827 99.5146 243.063 99.3735 243.382 99.3735H244.097V99.5902C244.097 100.013 243.758 100.23 243.4 100.23H243.402ZM245.737 100.504C245.802 100.504 245.859 100.467 245.888 100.4L246.745 98.3673C246.755 98.3488 246.763 98.3286 246.763 98.2917C246.763 98.1976 246.698 98.1321 246.604 98.1321C246.51 98.1321 246.473 98.1892 246.452 98.2362L245.737 99.9782L245.031 98.2362C245.013 98.1892 244.966 98.1321 244.88 98.1321C244.786 98.1321 244.721 98.1976 244.721 98.2917C244.721 98.3286 244.731 98.3488 244.731 98.3673L245.587 100.4C245.624 100.465 245.671 100.504 245.739 100.504H245.737ZM247.017 99.308C247.017 100.155 247.44 100.522 248.109 100.522C248.561 100.522 248.824 100.316 248.9 100.24C248.929 100.212 248.947 100.183 248.947 100.128C248.947 100.044 248.881 99.9765 248.806 99.9765C248.769 99.9765 248.749 99.9866 248.712 100.013C248.571 100.118 248.401 100.23 248.109 100.23C247.638 100.23 247.346 99.9009 247.346 99.402H248.824C249.023 99.402 249.023 99.2324 249.023 99.0829C249.023 98.7435 248.863 98.1035 248.063 98.1035C247.405 98.1035 247.019 98.5369 247.019 99.308H247.017ZM248.702 99.1198H247.346C247.375 98.678 247.618 98.3958 248.062 98.3958C248.579 98.3958 248.702 98.7637 248.702 99.1198Z" fill="white"/>
<path d="M270.229 135.555H236.795V137.475H270.229V135.555Z" fill="#6564AC"/>
<path d="M261.087 141.597H250.771V143.517H261.087V141.597Z" fill="#6564AC"/>
<path d="M256.288 147.942H236.795V149.854H256.288V147.942Z" fill="#6564AC"/>
<path d="M248.025 141.597H236.795V143.517H248.025V141.597Z" fill="#6564AC"/>
<path d="M266.999 153.24H236.795V155.152H266.999V153.24Z" fill="#6564AC"/>
<path d="M270.613 147.942H258.584V149.854H270.613V147.942Z" fill="#6564AC"/>
<path fill-rule="evenodd" clip-rule="evenodd" d="M112.233 107H132.63C133.308 107 133.853 107.556 133.853 108.233V140C133.853 140.677 133.307 141.233 132.63 141.233H112.233C111.556 141.233 111 140.677 111 140V108.233C111 107.556 111.556 107 112.233 107Z" fill="url(#paint8_linear_51_19041)"/>
<path d="M132.243 112.375H112.411V116.348H132.243V112.375Z" fill="#E6E6E6"/>
<path fill-rule="evenodd" clip-rule="evenodd" d="M124.686 108.845H131.679C131.99 108.845 132.244 109.098 132.244 109.409V110.256C132.244 110.567 131.99 110.83 131.679 110.83H124.686C124.375 110.83 124.122 110.567 124.122 110.256V109.409C124.122 109.098 124.375 108.845 124.686 108.845Z" fill="#F7A271"/>
<path d="M133.853 118.088H111V118.84H133.853V118.088Z" fill="#F7A271"/>
<path fill-rule="evenodd" clip-rule="evenodd" d="M114.718 121.675H118.474C118.587 121.675 118.691 121.581 118.691 121.458V120.771C118.691 120.649 118.587 120.555 118.474 120.555H114.718C114.595 120.555 114.501 120.649 114.501 120.771V121.458C114.501 121.581 114.595 121.675 114.718 121.675Z" fill="#F2F2F2"/>
<path fill-rule="evenodd" clip-rule="evenodd" d="M120.554 121.675H124.3C124.423 121.675 124.525 121.581 124.525 121.458V120.771C124.525 120.649 124.421 120.555 124.3 120.555H120.554C120.431 120.555 120.337 120.649 120.337 120.771V121.458C120.337 121.581 120.431 121.675 120.554 121.675Z" fill="#F2F2F2"/>
<path fill-rule="evenodd" clip-rule="evenodd" d="M126.389 121.675H130.135C130.258 121.675 130.352 121.581 130.352 121.458V120.771C130.352 120.649 130.258 120.555 130.135 120.555H126.389C126.267 120.555 126.162 120.649 126.162 120.771V121.458C126.162 121.581 126.267 121.675 126.389 121.675Z" fill="#F2F2F2"/>
<path fill-rule="evenodd" clip-rule="evenodd" d="M114.822 123.48H116.724C117.063 123.48 117.335 123.754 117.335 124.084V125.985C117.335 126.324 117.063 126.597 116.724 126.597H114.822C114.493 126.597 114.219 126.324 114.219 125.985V124.084C114.219 123.754 114.493 123.48 114.822 123.48Z" fill="#F2F2F2"/>
<path fill-rule="evenodd" clip-rule="evenodd" d="M114.822 127.49H116.724C117.063 127.49 117.335 127.762 117.335 128.102V130.003C117.335 130.332 117.063 130.606 116.724 130.606H114.822C114.493 130.606 114.219 130.334 114.219 130.003V128.102C114.219 127.762 114.493 127.49 114.822 127.49Z" fill="#F2F2F2"/>
<path fill-rule="evenodd" clip-rule="evenodd" d="M114.822 131.501H116.724C117.063 131.501 117.335 131.783 117.335 132.112V134.014C117.335 134.353 117.063 134.625 116.724 134.625H114.822C114.493 134.625 114.219 134.352 114.219 134.014V132.112C114.219 131.783 114.493 131.501 114.822 131.501Z" fill="#F2F2F2"/>
<path fill-rule="evenodd" clip-rule="evenodd" d="M114.822 135.521H116.724C117.063 135.521 117.335 135.794 117.335 136.124V138.025C117.335 138.364 117.063 138.637 116.724 138.637H114.822C114.493 138.637 114.219 138.363 114.219 138.025V136.124C114.219 135.794 114.493 135.521 114.822 135.521Z" fill="#F2F2F2"/>
<path fill-rule="evenodd" clip-rule="evenodd" d="M119.246 123.48H121.147C121.487 123.48 121.759 123.754 121.759 124.084V125.985C121.759 126.324 121.487 126.597 121.147 126.597H119.246C118.916 126.597 118.643 126.324 118.643 125.985V124.084C118.643 123.754 118.915 123.48 119.246 123.48Z" fill="#F2F2F2"/>
<path fill-rule="evenodd" clip-rule="evenodd" d="M119.246 127.49H121.147C121.487 127.49 121.759 127.762 121.759 128.102V130.003C121.759 130.332 121.487 130.606 121.147 130.606H119.246C118.916 130.606 118.643 130.334 118.643 130.003V128.102C118.643 127.762 118.915 127.49 119.246 127.49Z" fill="#F2F2F2"/>
<path fill-rule="evenodd" clip-rule="evenodd" d="M119.264 131.501H121.155C121.494 131.501 121.766 131.783 121.766 132.112V134.014C121.766 134.353 121.494 134.625 121.155 134.625H119.264C118.924 134.625 118.652 134.352 118.652 134.014V132.112C118.652 131.783 118.924 131.501 119.264 131.501Z" fill="#F2F2F2"/>
<path fill-rule="evenodd" clip-rule="evenodd" d="M119.264 135.521H121.155C121.494 135.521 121.766 135.794 121.766 136.124V138.025C121.766 138.364 121.494 138.637 121.155 138.637H119.264C118.924 138.637 118.652 138.363 118.652 138.025V136.124C118.652 135.794 118.924 135.521 119.264 135.521Z" fill="#F2F2F2"/>
<path fill-rule="evenodd" clip-rule="evenodd" d="M123.669 123.48H125.571C125.91 123.48 126.182 123.754 126.182 124.084V125.985C126.182 126.324 125.908 126.597 125.571 126.597H123.669C123.34 126.597 123.058 126.324 123.058 125.985V124.084C123.058 123.754 123.34 123.48 123.669 123.48Z" fill="#F2F2F2"/>
<path fill-rule="evenodd" clip-rule="evenodd" d="M123.669 127.49H125.571C125.91 127.49 126.182 127.762 126.182 128.102V130.003C126.182 130.332 125.908 130.606 125.571 130.606H123.669C123.34 130.606 123.058 130.334 123.058 130.003V128.102C123.058 127.762 123.34 127.49 123.669 127.49Z" fill="#F2F2F2"/>
<path fill-rule="evenodd" clip-rule="evenodd" d="M123.698 131.501H125.599C125.929 131.501 126.203 131.783 126.203 132.112V134.014C126.203 134.353 125.929 134.625 125.599 134.625H123.698C123.359 134.625 123.086 134.352 123.086 134.014V132.112C123.086 131.783 123.359 131.501 123.698 131.501Z" fill="#F2F2F2"/>
<path fill-rule="evenodd" clip-rule="evenodd" d="M123.698 135.521H125.599C125.929 135.521 126.203 135.794 126.203 136.124V138.025C126.203 138.364 125.929 138.637 125.599 138.637H123.698C123.359 138.637 123.086 138.363 123.086 138.025V136.124C123.086 135.794 123.359 135.521 123.698 135.521Z" fill="#F2F2F2"/>
<path fill-rule="evenodd" clip-rule="evenodd" d="M128.093 123.48H129.994C130.323 123.48 130.606 123.754 130.606 124.084V125.985C130.606 126.324 130.323 126.597 129.994 126.597H128.093C127.753 126.597 127.481 126.324 127.481 125.985V124.084C127.481 123.754 127.753 123.48 128.093 123.48Z" fill="#F2F2F2"/>
<path fill-rule="evenodd" clip-rule="evenodd" d="M128.093 127.49H129.994C130.323 127.49 130.606 127.762 130.606 128.102V130.003C130.606 130.332 130.323 130.606 129.994 130.606H128.093C127.753 130.606 127.481 130.334 127.481 130.003V128.102C127.481 127.762 127.753 127.49 128.093 127.49Z" fill="#F2F2F2"/>
<path fill-rule="evenodd" clip-rule="evenodd" d="M130.644 136.121V138.023C130.644 138.362 130.37 138.634 130.033 138.634H128.131C127.802 138.634 127.528 138.36 127.528 138.023V132.357C127.528 132.027 127.802 131.745 128.131 131.745H130.033C130.372 131.745 130.644 132.027 130.644 132.357V136.121Z" fill="#F7A271"/>
<path fill-rule="evenodd" clip-rule="evenodd" d="M129.713 114.201V113.428C129.723 113.24 129.825 113.071 129.985 112.948C130.145 112.835 130.351 112.76 130.596 112.76C130.842 112.76 131.048 112.835 131.208 112.948C131.368 113.071 131.462 113.24 131.472 113.428V114.201C131.433 114.23 131.396 114.238 131.349 114.238C131.302 114.238 131.263 114.228 131.226 114.201V113.457C131.226 113.316 131.151 113.193 131.038 113.099C130.926 113.015 130.766 112.958 130.596 112.958C130.418 112.958 130.267 113.015 130.145 113.099C130.032 113.193 129.967 113.316 129.967 113.457V114.201C129.93 114.23 129.883 114.238 129.844 114.238C129.797 114.238 129.76 114.228 129.713 114.201ZM129.713 114.483V115.256C129.723 115.444 129.825 115.614 129.985 115.736C130.145 115.849 130.351 115.925 130.596 115.925C130.842 115.925 131.048 115.849 131.208 115.736C131.368 115.614 131.462 115.444 131.472 115.256V114.483C131.433 114.455 131.396 114.446 131.349 114.446C131.302 114.446 131.263 114.456 131.226 114.483V115.227C131.226 115.369 131.151 115.491 131.038 115.585C130.926 115.669 130.766 115.726 130.596 115.726C130.418 115.726 130.267 115.669 130.145 115.585C130.032 115.491 129.967 115.369 129.967 115.227V114.483C129.93 114.455 129.883 114.446 129.844 114.446C129.797 114.446 129.76 114.456 129.713 114.483Z" fill="#666666"/>
</g>
</g>
<defs>
<filter id="filter0_d_51_19041" x="43" y="89.3281" width="451.657" height="284.689" filterUnits="userSpaceOnUse" color-interpolation-filters="sRGB">
<feFlood flood-opacity="0" result="BackgroundImageFix"/>
<feColorMatrix in="SourceAlpha" type="matrix" values="0 0 0 0 0 0 0 0 0 0 0 0 0 0 0 0 0 0 127 0" result="hardAlpha"/>
<feOffset dy="4"/>
<feGaussianBlur stdDeviation="2"/>
<feComposite in2="hardAlpha" operator="out"/>
<feColorMatrix type="matrix" values="0 0 0 0 0 0 0 0 0 0 0 0 0 0 0 0 0 0 0.25 0"/>
<feBlend mode="normal" in2="BackgroundImageFix" result="effect1_dropShadow_51_19041"/>
<feBlend mode="normal" in="SourceGraphic" in2="effect1_dropShadow_51_19041" result="shape"/>
</filter>
<filter id="filter1_d_51_19041" x="64.4854" y="69.8154" width="243.8" height="113.667" filterUnits="userSpaceOnUse" color-interpolation-filters="sRGB">
<feFlood flood-opacity="0" result="BackgroundImageFix"/>
<feColorMatrix in="SourceAlpha" type="matrix" values="0 0 0 0 0 0 0 0 0 0 0 0 0 0 0 0 0 0 127 0" result="hardAlpha"/>
<feOffset dy="4"/>
<feGaussianBlur stdDeviation="2"/>
<feComposite in2="hardAlpha" operator="out"/>
<feColorMatrix type="matrix" values="0 0 0 0 0 0 0 0 0 0 0 0 0 0 0 0 0 0 0.25 0"/>
<feBlend mode="normal" in2="BackgroundImageFix" result="effect1_dropShadow_51_19041"/>
<feBlend mode="normal" in="SourceGraphic" in2="effect1_dropShadow_51_19041" result="shape"/>
</filter>
<linearGradient id="paint0_linear_51_19041" x1="275.999" y1="415.002" x2="275.999" y2="0.000976562" gradientUnits="userSpaceOnUse">
<stop stop-color="#B0BBC9"/>
<stop offset="1" stop-color="#D5DBE2"/>
</linearGradient>
<linearGradient id="paint1_linear_51_19041" x1="279.5" y1="90.3281" x2="279.5" y2="316.328" gradientUnits="userSpaceOnUse">
<stop stop-color="#BDBCBC"/>
<stop offset="1" stop-color="#EAEAEA"/>
</linearGradient>
<linearGradient id="paint2_linear_51_19041" x1="279.5" y1="316.328" x2="279.5" y2="90.3281" gradientUnits="userSpaceOnUse">
<stop stop-color="#B0BBC9"/>
<stop offset="1" stop-color="#D5DBE2"/>
</linearGradient>
<linearGradient id="paint3_linear_51_19041" x1="147.354" y1="223.834" x2="191.015" y2="229.626" gradientUnits="userSpaceOnUse">
<stop stop-color="#3EF4A7"/>
<stop offset="1" stop-color="#096EE0"/>
</linearGradient>
<linearGradient id="paint4_linear_51_19041" x1="222.158" y1="316.328" x2="222.158" y2="193.862" gradientUnits="userSpaceOnUse">
<stop stop-color="#22272F"/>
<stop offset="1" stop-color="#394453"/>
</linearGradient>
<linearGradient id="paint5_linear_51_19041" x1="264.24" y1="276.004" x2="302.4" y2="286.773" gradientUnits="userSpaceOnUse">
<stop stop-color="#3EF4A7"/>
<stop offset="1" stop-color="#096EE0"/>
</linearGradient>
<linearGradient id="paint6_linear_51_19041" x1="322.08" y1="205.152" x2="362.852" y2="209.326" gradientUnits="userSpaceOnUse">
<stop stop-color="#3EF4A7"/>
<stop offset="1" stop-color="#096EE0"/>
</linearGradient>
<linearGradient id="paint7_linear_51_19041" x1="395.65" y1="316.319" x2="395.65" y2="223.286" gradientUnits="userSpaceOnUse">
<stop stop-color="#22272F"/>
<stop offset="1" stop-color="#394453"/>
</linearGradient>
<linearGradient id="paint8_linear_51_19041" x1="122.426" y1="107" x2="122.426" y2="141.233" gradientUnits="userSpaceOnUse">
<stop stop-color="#6E6E6E"/>
<stop offset="1" stop-color="#D4D4D4"/>
</linearGradient>
<clipPath id="clip0_51_19041">
<rect width="552" height="415" rx="16" fill="white"/>
</clipPath>
</defs>
</svg>
