<svg width="552" height="415" viewBox="0 0 552 415" fill="none" xmlns="http://www.w3.org/2000/svg">
<g clip-path="url(#clip0_51_18977)">
<path d="M0 3.48104C0 1.61749 1.15699 0.14286 3.02054 0.14286H8.75472L28.5516 0.138438L101.628 0.126276H450.941L527.747 0.139543L545.545 0.14286C547.053 0.14286 550.398 -0.257382 551.7 0.286594C551.882 0.368695 551.999 0.549929 551.999 0.749713V414.249C551.999 414.45 551.882 414.633 551.7 414.717C550.398 415.26 547.053 414.859 545.545 414.859L527.747 414.863L450.941 414.875H101.629L28.5528 414.863L8.75582 414.859H3.02054C1.15674 414.859 0 413.382 0 411.518V3.48104Z" fill="url(#paint0_linear_51_18977)"/>
<g filter="url(#filter0_d_51_18977)">
<path d="M198.389 86.2863C127.143 127.42 102.733 218.522 143.867 289.768C185.001 361.014 276.103 385.425 347.349 344.291C418.595 303.157 443.005 212.055 401.871 140.809C360.737 69.5631 269.635 45.1524 198.389 86.2863Z" fill="url(#paint1_linear_51_18977)"/>
<path d="M355.877 36.5C404.157 36.5 443.548 75.9194 443.548 124.198C443.548 172.477 404.156 211.869 355.877 211.869C307.572 211.869 268.179 172.504 268.179 124.198C268.179 75.8922 307.598 36.5 355.877 36.5Z" fill="#3DD4E9" stroke="white"/>
<path fill-rule="evenodd" clip-rule="evenodd" d="M441.58 140.142C440.106 148.139 437.544 155.755 434.04 162.811H364.664C358.419 162.811 353.316 157.708 353.316 151.49C353.316 145.245 358.419 140.142 364.664 140.142H441.58ZM434.726 86.9607C440.057 98.2592 443.054 110.875 443.054 124.198C443.054 125.618 443.027 127.016 442.951 128.414C440.492 129.431 437.772 129.964 434.954 129.964H376.67C364.843 129.964 355.171 120.292 355.171 108.465C355.171 96.6329 364.843 86.9651 376.67 86.9651H434.726V86.9607ZM274.468 155.5C270.866 146.159 268.832 136.003 268.707 125.394H296.859C300.286 125.394 303.104 128.212 303.104 131.639C303.104 132.553 302.898 133.418 302.544 134.202H318.587C324.451 134.202 329.249 139 329.249 144.864C329.249 150.729 324.451 155.5 318.587 155.5H274.468ZM280.691 80.0301C284.042 74.3451 288.002 69.0632 292.523 64.292H326.028C330.369 64.292 333.895 67.8222 333.895 72.1633C333.895 76.4775 330.365 80.0346 326.028 80.0346H280.691V80.0301Z" fill="#7DC983"/>
<path fill-rule="evenodd" clip-rule="evenodd" d="M395.938 145.142C401.014 145.142 405.355 141.944 407.057 137.477C409.091 135.573 410.359 132.858 410.359 129.861C410.359 124.1 405.637 119.4 399.903 119.4H392.694C393.886 117.268 394.571 114.804 394.571 112.192C394.571 104.092 388.022 97.547 379.926 97.547C371.831 97.547 365.277 104.097 365.277 112.192C365.277 112.317 365.304 112.447 365.304 112.573C364.439 112.295 363.552 112.143 362.616 112.143C358.324 112.143 354.771 115.292 354.135 119.405H348.728C342.967 119.405 338.272 124.1 338.272 129.866C338.272 135.627 342.967 140.326 348.728 140.326H357.155C359.059 144.336 363.144 147.104 367.866 147.104C372.588 147.104 376.701 144.336 378.605 140.326H386.4C388.559 143.247 392.036 145.147 395.942 145.147L395.938 145.142ZM411.954 57.4378C416.877 61.5997 421.344 66.2723 425.255 71.4019H386.342C385.352 72.392 383.981 73.0012 382.484 73.0012C381.875 73.0012 381.315 72.8982 380.782 72.7235V72.9788C380.782 78.1084 376.62 82.2703 371.491 82.2703C366.361 82.2703 362.177 78.1084 362.177 72.9788C362.177 71.3033 362.634 69.7533 363.395 68.3869H358.803C355.174 68.3869 352.177 65.4166 352.177 61.761C352.177 59.857 352.988 58.1546 354.256 56.9361C355.349 54.0913 358.091 52.0618 361.312 52.0618C363.798 52.0618 366.007 53.2535 367.378 55.1082H372.328C373.547 52.5726 376.136 50.8164 379.133 50.8164C382.13 50.8164 384.742 52.5681 385.934 55.1082H391.292C393.299 55.1082 395.1 56.0221 396.345 57.4423H411.958L411.954 57.4378ZM287.926 82.342C289.498 82.342 290.972 82.6959 292.316 83.3052C293.431 82.7721 294.753 82.4181 296.124 82.342C295.895 81.6297 295.77 80.8681 295.77 80.0841C295.77 75.5414 299.833 71.8857 304.833 71.8857C309.833 71.8857 313.918 75.5414 313.918 80.0841C313.918 81.7596 313.336 83.3052 312.395 84.6268C315.289 85.4376 317.372 87.7 317.372 90.388C317.372 91.5304 316.965 92.6235 316.306 93.5374C320.37 94.3259 322.981 95.54 322.981 96.8885C322.981 99.2494 315.137 101.18 305.442 101.18C301.433 101.18 297.75 100.849 294.78 100.293C292.979 101.919 290.569 102.91 287.926 102.91C282.24 102.91 277.644 98.3131 277.644 92.628C277.644 86.9429 282.24 82.3465 287.926 82.3465V82.342Z" fill="white"/>
<path fill-rule="evenodd" clip-rule="evenodd" d="M148.661 130.928H395.91C399.897 130.928 403.145 134.203 403.145 138.163V301.032C403.145 304.993 399.897 308.241 395.91 308.241H148.661C144.7 308.241 141.452 304.993 141.452 301.032V138.163C141.452 134.203 144.7 130.928 148.661 130.928Z" fill="white"/>
<path fill-rule="evenodd" clip-rule="evenodd" d="M146.707 130.928H397.863C400.757 130.928 403.145 133.316 403.145 136.21V152.405C403.145 152.633 402.944 152.835 402.688 152.835H141.452V136.21C141.452 133.316 143.813 130.928 146.707 130.928Z" fill="url(#paint2_linear_51_18977)"/>
<path fill-rule="evenodd" clip-rule="evenodd" d="M154.373 146.437C157.011 146.437 159.171 144.278 159.171 141.639C159.171 139 157.011 136.841 154.373 136.841C151.734 136.841 149.575 139 149.575 141.639C149.575 144.278 151.73 146.437 154.373 146.437Z" fill="#FFDB79"/>
<path fill-rule="evenodd" clip-rule="evenodd" d="M167.803 146.437C170.442 146.437 172.624 144.278 172.624 141.639C172.624 139 170.442 136.841 167.803 136.841C165.165 136.841 163.005 139 163.005 141.639C163.005 144.278 165.165 146.437 167.803 146.437Z" fill="#9BDDE7"/>
<path fill-rule="evenodd" clip-rule="evenodd" d="M181.23 146.437C183.869 146.437 186.028 144.278 186.028 141.639C186.028 139 183.869 136.841 181.23 136.841C178.591 136.841 176.432 139 176.432 141.639C176.432 144.278 178.591 146.437 181.23 146.437Z" fill="#F77B55"/>
<path d="M395.677 137.603H193.312V146.715H395.677V137.603Z" fill="white"/>
<path fill-rule="evenodd" clip-rule="evenodd" d="M170.546 180.933H376.952C380.581 180.933 383.551 183.903 383.551 187.532V200.582C383.551 204.211 380.581 207.181 376.952 207.181H170.546C166.891 207.181 163.921 204.211 163.921 200.582V187.532C163.921 183.903 166.891 180.933 170.546 180.933Z" fill="url(#paint3_linear_51_18977)"/>
<path d="M301.559 165.347H245.837V169.383H301.559V165.347Z" fill="#CCCCCC"/>
<path d="M233.472 165.347H177.728V169.383H233.472V165.347Z" fill="#CCCCCC"/>
<path d="M371.572 165.347H315.85V169.383H371.572V165.347Z" fill="#CCCCCC"/>
<path fill-rule="evenodd" clip-rule="evenodd" d="M188.743 261.734C199.329 261.734 207.958 253.101 207.958 242.519C207.958 231.938 199.329 223.305 188.743 223.305C178.157 223.305 169.529 231.933 169.529 242.519C169.529 253.105 178.157 261.734 188.743 261.734Z" fill="#ADECF7"/>
<path fill-rule="evenodd" clip-rule="evenodd" d="M178.085 238.433L188.085 255.466L211.667 216.804L188.667 243.177L178.085 238.433Z" fill="#FF9E58"/>
<path d="M316.406 233.179H225.834V236.046H316.406V233.179Z" fill="#A6A9AB"/>
<path d="M316.41 241.35H262.059V244.217H316.41V241.35Z" fill="#A6A9AB"/>
<path d="M284.243 249.498H224.74V252.392H284.243V249.498Z" fill="#A6A9AB"/>
<path d="M316.405 249.498H299.372V252.392H316.405V249.498Z" fill="#A6A9AB"/>
<path d="M245.048 241.35H235.452V244.217H245.048V241.35Z" fill="#A6A9AB"/>
<path fill-rule="evenodd" clip-rule="evenodd" d="M337.045 224.648H417.107C422.232 224.648 426.425 228.837 426.425 233.967V307.734C426.425 312.864 422.236 317.048 417.107 317.048H337.045C331.942 317.048 327.754 312.859 327.754 307.734V233.967C327.754 228.837 331.942 224.648 337.045 224.648Z" fill="#FF9E58"/>
<path d="M426.425 256.021H327.754V285.67H426.425V256.021Z" fill="#08C6A2"/>
<path fill-rule="evenodd" clip-rule="evenodd" d="M240.151 323.114C242.74 324.283 245.052 325.932 246.929 327.988L254.697 324.462L260.154 336.495L252.386 339.999C252.538 341.37 252.538 342.79 252.413 344.215C252.26 345.635 251.983 347.006 251.575 348.327L258.505 353.304L250.813 364.016L243.883 359.066C241.647 360.692 239.058 361.884 236.294 362.52L235.456 371L222.307 369.706L223.145 361.252C220.556 360.083 218.244 358.407 216.344 356.378L208.603 359.881L203.146 347.875L210.888 344.349C210.762 342.978 210.735 341.58 210.888 340.16C211.013 338.74 211.318 337.342 211.699 336.021L204.795 331.07L212.46 320.332L219.391 325.309C221.649 323.66 224.238 322.464 227.007 321.833L227.844 313.356L240.966 314.651L240.155 323.127L240.151 323.114Z" fill="#E6E6E6"/>
<path fill-rule="evenodd" clip-rule="evenodd" d="M232.28 335.604C235.909 335.963 238.574 339.184 238.22 342.812C237.867 346.441 234.614 349.107 231.012 348.753C227.383 348.399 224.718 345.146 225.072 341.518C225.426 337.911 228.651 335.246 232.28 335.604ZM232.916 329.26C240.048 329.946 245.276 336.316 244.569 343.449C243.856 350.581 237.513 355.786 230.381 355.101C223.248 354.389 218.016 348.045 218.728 340.913C219.414 333.781 225.784 328.553 232.921 329.26H232.916Z" fill="#363F48"/>
<path fill-rule="evenodd" clip-rule="evenodd" d="M192.475 326.339C193.568 328.194 194.254 330.224 194.531 332.307L200.88 333.552L198.949 343.35L192.627 342.131C192.121 343.045 191.485 343.91 190.773 344.721C190.06 345.532 189.299 346.271 188.461 346.903L190.567 352.995L181.096 356.243L179.017 350.151C176.912 350.151 174.779 349.77 172.799 348.932L168.561 353.806L161.048 347.23L165.259 342.382C164.166 340.505 163.481 338.471 163.203 336.393L156.882 335.147L158.786 325.349L165.134 326.568C165.64 325.681 166.249 324.789 166.962 323.979C167.674 323.168 168.458 322.428 169.273 321.797L167.19 315.704L176.634 312.456L178.74 318.571C180.845 318.544 182.951 318.952 184.931 319.763L189.169 314.916L196.709 321.465L192.471 326.339H192.475Z" fill="#E6E6E6"/>
<path fill-rule="evenodd" clip-rule="evenodd" d="M182.145 330.577C184.228 332.405 184.457 335.55 182.651 337.633C180.824 339.717 177.674 339.918 175.595 338.117C173.512 336.316 173.284 333.144 175.112 331.061C176.912 328.978 180.062 328.776 182.145 330.577ZM185.317 326.949C189.43 330.501 189.86 336.724 186.28 340.81C182.727 344.895 176.509 345.33 172.419 341.773C168.333 338.193 167.899 332.002 171.456 327.889C175.035 323.804 181.231 323.369 185.317 326.949Z" fill="#363F48"/>
<path fill-rule="evenodd" clip-rule="evenodd" d="M414.646 273.462L426.957 280.164L439.268 286.893L428.785 289.863L437.06 303.415L431.07 307.098L422.791 293.519L415.354 301.489L415 287.475L414.646 273.462Z" fill="#FEFEFE"/>
<path fill-rule="evenodd" clip-rule="evenodd" d="M176.885 39.2852C165.967 39.2852 156.779 46.2918 154.189 55.7849C143.554 56.9542 135.302 65.4303 135.302 75.6849C135.302 86.755 144.871 95.7373 156.676 95.7373H211.506C221.685 95.7373 229.937 87.9959 229.937 78.4267C229.937 71.317 225.367 65.2018 218.791 62.5362C218.818 62.4332 218.818 62.3077 218.818 62.1823C218.818 55.431 212.98 49.9475 205.772 49.9475C202.954 49.9475 200.365 50.7853 198.232 52.2054C194.55 44.5894 186.378 39.2852 176.885 39.2852Z" fill="white"/>
<path fill-rule="evenodd" clip-rule="evenodd" d="M117.791 92.6719C112.334 92.6719 107.738 96.1752 106.443 100.924C101.112 101.484 96.9991 105.722 96.9991 110.874C96.9991 116.407 101.77 120.878 107.688 120.878H135.106C140.182 120.878 144.321 117.021 144.321 112.245C144.321 108.665 142.036 105.619 138.761 104.302V104.123C138.761 100.745 135.841 98.003 132.239 98.003C130.841 98.003 129.524 98.4107 128.458 99.1186C126.63 95.3106 122.544 92.6719 117.795 92.6719H117.791Z" fill="white"/>
</g>
<path d="M345.62 249V235.04H353.86V237.24H348.42V240.68H353.4V242.88H348.42V246.8H353.9V249H345.62ZM356.593 249V235.04H360.033L365.353 245.48H365.393V235.04H368.073V249H364.653L359.313 238.56H359.273V249H356.593ZM382.247 235.38L382.067 237.74C380.987 237.24 379.587 237 378.467 237C375.207 237 373.407 239.2 373.407 242.06C373.407 244.9 375.167 247.04 378.147 247.04C378.907 247.04 379.507 246.96 379.987 246.84V243.2H377.027V241H382.667V248.52C381.187 248.92 379.647 249.24 378.147 249.24C373.627 249.24 370.487 246.98 370.487 242.26C370.487 237.48 373.407 234.8 378.147 234.8C379.767 234.8 381.047 235.02 382.247 235.38Z" fill="white"/>
<path d="M177.96 199L175.176 190.76H177.448L179.272 196.856H179.304L180.968 190.76H183.464L185.256 196.856H185.288L187 190.76H189.048L186.52 199H183.992L182.2 192.712H182.168L180.408 199H177.96ZM192.179 199L189.395 190.76H191.667L193.491 196.856H193.523L195.187 190.76H197.683L199.475 196.856H199.507L201.219 190.76H203.267L200.739 199H198.211L196.419 192.712H196.387L194.627 199H192.179ZM206.398 199L203.614 190.76H205.886L207.71 196.856H207.742L209.406 190.76H211.902L213.694 196.856H213.726L215.438 190.76H217.486L214.958 199H212.43L210.638 192.712H210.606L208.846 199H206.398ZM217.885 199V196.76H220.125V199H217.885ZM227.874 190.84L227.682 192.536C227.298 192.36 226.882 192.232 226.226 192.232C224.898 192.232 224.05 193.288 224.05 194.84C224.05 196.36 224.77 197.528 226.274 197.528C226.882 197.528 227.554 197.304 227.922 197.144L228.018 198.92C227.394 199.112 226.754 199.192 225.874 199.192C223.17 199.192 221.81 197.352 221.81 194.84C221.81 192.456 223.218 190.568 225.794 190.568C226.658 190.568 227.282 190.664 227.874 190.84ZM228.92 194.936C228.92 192.216 230.792 190.568 233.224 190.568C235.672 190.568 237.544 192.216 237.544 194.936C237.544 197.304 235.96 199.192 233.224 199.192C230.504 199.192 228.92 197.304 228.92 194.936ZM231.16 194.68C231.16 196.04 231.592 197.528 233.224 197.528C234.872 197.528 235.304 196.056 235.304 194.68C235.304 193.416 234.632 192.232 233.224 192.232C231.832 192.232 231.16 193.448 231.16 194.68ZM239.229 199V190.76H241.261V191.88H241.293C241.965 190.936 242.877 190.568 243.997 190.568C245.949 190.568 246.797 191.944 246.797 193.8V199H244.653V194.6C244.653 193.592 244.637 192.232 243.261 192.232C241.709 192.232 241.373 193.912 241.373 194.968V199H239.229ZM249.714 196.52V192.328H248.13V190.76H249.714V189.112L251.858 188.424V190.76H253.762V192.328H251.858V196.168C251.858 196.872 252.05 197.528 252.866 197.528C253.25 197.528 253.618 197.448 253.842 197.304L253.906 199C253.458 199.128 252.962 199.192 252.322 199.192C250.642 199.192 249.714 198.152 249.714 196.52ZM256.749 194.072H260.397C260.333 193.032 259.853 192.136 258.653 192.136C257.453 192.136 256.845 192.968 256.749 194.072ZM261.837 196.792V198.536C261.053 198.968 260.157 199.192 259.005 199.192C256.285 199.192 254.701 197.624 254.701 194.92C254.701 192.536 255.965 190.568 258.525 190.568C261.581 190.568 262.445 192.664 262.445 195.544H256.749C256.845 196.872 257.773 197.624 259.101 197.624C260.141 197.624 261.037 197.24 261.837 196.792ZM264.12 199V190.76H266.152V191.88H266.184C266.856 190.936 267.768 190.568 268.888 190.568C270.84 190.568 271.688 191.944 271.688 193.8V199H269.544V194.6C269.544 193.592 269.528 192.232 268.152 192.232C266.6 192.232 266.264 193.912 266.264 194.968V199H264.12ZM274.605 196.52V192.328H273.021V190.76H274.605V189.112L276.749 188.424V190.76H278.653V192.328H276.749V196.168C276.749 196.872 276.941 197.528 277.757 197.528C278.141 197.528 278.509 197.448 278.733 197.304L278.797 199C278.349 199.128 277.853 199.192 277.213 199.192C275.533 199.192 274.605 198.152 274.605 196.52Z" fill="white"/>
<path d="M345.62 277V263.04H353.86V265.24H348.42V268.68H353.4V270.88H348.42V274.8H353.9V277H345.62ZM364.493 263.3L364.233 265.6C363.353 265.22 362.373 265 361.393 265C360.433 265 359.193 265.42 359.193 266.94C359.193 269.36 365.313 268.34 365.313 273.02C365.313 276.08 362.893 277.24 360.073 277.24C358.553 277.24 357.873 277.04 356.493 276.7L356.753 274.18C357.713 274.7 358.813 275.04 359.913 275.04C360.973 275.04 362.393 274.5 362.393 273.24C362.393 270.58 356.273 271.68 356.273 267.06C356.273 263.94 358.693 262.8 361.153 262.8C362.353 262.8 363.473 262.96 364.493 263.3ZM370.407 265.24V269.5H371.387C372.787 269.5 374.047 269.04 374.047 267.42C374.047 265.8 372.827 265.24 371.387 265.24H370.407ZM367.607 277V263.04H371.147C374.187 263.04 376.967 263.92 376.967 267.26C376.967 270.52 374.587 271.7 371.587 271.7H370.407V277H367.607Z" fill="white"/>
<path d="M345.38 308V294.04H348.18V308H345.38ZM353.726 308V296.24H349.726V294.04H360.526V296.24H356.526V308H353.726ZM368.258 302.6L366.238 296.84H366.198L364.178 302.6H368.258ZM359.258 308L364.698 294.04H367.858L373.338 308H370.238L369.038 304.8H363.378L362.158 308H359.258Z" fill="white"/>
</g>
<defs>
<filter id="filter0_d_51_18977" x="92.9991" y="36" width="355.05" height="343" filterUnits="userSpaceOnUse" color-interpolation-filters="sRGB">
<feFlood flood-opacity="0" result="BackgroundImageFix"/>
<feColorMatrix in="SourceAlpha" type="matrix" values="0 0 0 0 0 0 0 0 0 0 0 0 0 0 0 0 0 0 127 0" result="hardAlpha"/>
<feOffset dy="4"/>
<feGaussianBlur stdDeviation="2"/>
<feComposite in2="hardAlpha" operator="out"/>
<feColorMatrix type="matrix" values="0 0 0 0 0 0 0 0 0 0 0 0 0 0 0 0 0 0 0.25 0"/>
<feBlend mode="normal" in2="BackgroundImageFix" result="effect1_dropShadow_51_18977"/>
<feBlend mode="normal" in="SourceGraphic" in2="effect1_dropShadow_51_18977" result="shape"/>
</filter>
<linearGradient id="paint0_linear_51_18977" x1="275.999" y1="415.002" x2="275.999" y2="0.000976562" gradientUnits="userSpaceOnUse">
<stop stop-color="#B0BBC9"/>
<stop offset="1" stop-color="#D5DBE2"/>
</linearGradient>
<linearGradient id="paint1_linear_51_18977" x1="425.487" y1="181.712" x2="84.0803" y2="189.255" gradientUnits="userSpaceOnUse">
<stop stop-color="#3EF4A7"/>
<stop offset="1" stop-color="#096EE0"/>
</linearGradient>
<linearGradient id="paint2_linear_51_18977" x1="272.299" y1="152.835" x2="272.299" y2="130.928" gradientUnits="userSpaceOnUse">
<stop stop-color="#22272F"/>
<stop offset="1" stop-color="#394453"/>
</linearGradient>
<linearGradient id="paint3_linear_51_18977" x1="163.921" y1="189.895" x2="176.944" y2="249.64" gradientUnits="userSpaceOnUse">
<stop stop-color="#3EF4A7"/>
<stop offset="1" stop-color="#096EE0"/>
</linearGradient>
<clipPath id="clip0_51_18977">
<rect width="552" height="415" rx="16" fill="white"/>
</clipPath>
</defs>
</svg>
