<svg width="418" height="304" viewBox="0 0 418 304" fill="none" xmlns="http://www.w3.org/2000/svg">
<g filter="url(#filter0_d_1_9385)">
<path fill-rule="evenodd" clip-rule="evenodd" d="M18.3021 32.1523H346.601C354.461 32.1523 360.903 38.5888 360.903 46.4819V234.476C360.903 242.336 354.467 248.778 346.601 248.778H18.3021C10.4365 248.778 4 242.341 4 234.476V46.4819C4 38.5833 10.4365 32.1523 18.3021 32.1523Z" fill="url(#paint0_linear_1_9385)"/>
<path fill-rule="evenodd" clip-rule="evenodd" d="M65.3602 45.8516H336.489C342.228 45.8516 346.922 50.5456 346.922 56.2841V223.319C346.922 229.058 342.228 233.752 336.489 233.752H65.3602C59.6218 233.752 54.9277 229.058 54.9277 223.319V56.2841C54.9277 50.5456 59.6218 45.8516 65.3602 45.8516Z" fill="#FDFDFD"/>
<path fill-rule="evenodd" clip-rule="evenodd" d="M29.4015 151.721C35.5851 151.721 40.6585 146.681 40.6585 140.464C40.6585 134.247 35.5851 129.207 29.4015 129.207C23.2179 129.207 18.1445 134.247 18.1445 140.464C18.1445 146.681 23.1849 151.721 29.4015 151.721Z" fill="#FF9E58" stroke="#FAA199" stroke-width="0.2" stroke-miterlimit="10"/>
<path fill-rule="evenodd" clip-rule="evenodd" d="M29.4016 71.4375C34.1231 71.4375 37.9652 73.2459 37.9652 75.4335C37.9652 77.6211 34.1286 79.4295 29.4016 79.4295C24.6745 79.4295 20.8379 77.6211 20.8379 75.4335C20.8379 73.2459 24.6416 71.4375 29.4016 71.4375ZM29.4016 94.0174C34.1231 94.0174 37.9652 95.8258 37.9652 98.0134C37.9652 100.201 34.1286 102.009 29.4016 102.009C24.6745 102.009 20.8379 100.234 20.8379 98.0134C20.8379 95.7928 24.6416 94.0174 29.4016 94.0174ZM29.4016 82.7274C34.1231 82.7274 37.9652 84.5358 37.9652 86.7235C37.9652 88.9111 34.1286 90.7195 29.4016 90.7195C24.6745 90.7195 20.8379 88.9111 20.8379 86.7235C20.8379 84.5358 24.6416 82.7274 29.4016 82.7274Z" fill="#FF9E58"/>
<path fill-rule="evenodd" clip-rule="evenodd" d="M94.049 180.419H106.82C114.641 180.328 119.912 176.189 119.912 167.328V164.946V157.277C121.027 157.338 122.128 157.446 123.256 157.597V168.995C123.256 177.122 116.611 183.753 108.501 183.753H93.6212C85.784 183.844 80.5298 188 80.5298 196.861V209.952H80.516V215.436H83.7088L81.2804 219.652L78.8519 223.869L76.4069 219.652L73.9785 215.436H77.1852V195.18C77.1852 187.07 83.8137 180.422 91.9407 180.422H94.049V180.419Z" fill="#FF9E58"/>
<path fill-rule="evenodd" clip-rule="evenodd" d="M142.126 85.3384H154.897C162.718 85.4294 167.989 89.5688 167.989 98.4298V100.814H168.005V107.321C169.104 107.261 170.221 107.153 171.336 107.001V96.7658C171.336 88.6388 164.691 82.0076 156.581 82.0076H141.701C133.88 81.9165 128.61 77.7606 128.61 68.9161V59.3072H128.593V53.8239H131.8L129.355 49.6073L126.926 45.3906L124.498 49.6073L122.053 53.8239H125.259V70.5829C125.259 78.6961 131.904 85.3411 140.018 85.3411H142.126V85.3384Z" fill="#FF9E58"/>
<path fill-rule="evenodd" clip-rule="evenodd" d="M255.32 171.027H242.565C234.744 170.936 229.474 166.78 229.474 157.935V155.554H229.46V149.047C228.359 149.108 227.244 149.215 226.129 149.367V159.602C226.129 167.713 232.774 174.358 240.887 174.358H255.767C263.588 174.449 268.858 178.605 268.858 187.449V206.209H268.872V211.692H265.665L268.11 215.909L270.539 220.126L272.967 215.909L275.412 211.692H272.203V185.785C272.203 177.672 265.558 171.027 257.447 171.027H255.323H255.32Z" fill="#FF9E58"/>
<path d="M139.83 193.99L162.975 151.506L120.965 149.489L121.07 147.333L161.769 149.29L108.713 101.797L110.134 100.191L163.662 148.114V100.986H165.817V149.229L227.822 128.546L229.274 128.27L229.075 129.736L226.754 130.928L165.45 151.476L141.709 195.027L139.83 193.99Z" fill="#4D8C51"/>
<path fill-rule="evenodd" clip-rule="evenodd" d="M109.432 122.579C121.318 122.579 131.034 112.879 131.034 100.977C131.034 89.0749 121.318 79.375 109.432 79.375C97.5466 79.375 87.8301 89.0915 87.8301 100.977C87.8301 112.863 97.53 122.579 109.432 122.579Z" fill="#1B7D9A"/>
<path fill-rule="evenodd" clip-rule="evenodd" d="M164.749 114.483C172.172 114.483 178.237 108.417 178.237 100.977C178.237 93.5373 172.172 87.4883 164.749 87.4883C157.325 87.4883 151.26 93.5538 151.26 100.977C151.26 108.4 157.309 114.483 164.749 114.483Z" fill="#1B7D9A"/>
<path fill-rule="evenodd" clip-rule="evenodd" d="M164.751 174.215C177.812 174.215 188.459 163.568 188.459 150.507C188.459 137.446 177.812 126.797 164.751 126.797C151.69 126.797 141.041 137.443 141.041 150.507C141.041 163.571 151.687 174.215 164.751 174.215Z" fill="#1B7D9A"/>
<path fill-rule="evenodd" clip-rule="evenodd" d="M140.777 206.616C147.452 206.616 152.891 201.177 152.891 194.501C152.891 187.826 147.452 182.387 140.777 182.387C134.101 182.387 128.648 187.826 128.648 194.501C128.648 201.177 134.101 206.616 140.777 206.616Z" fill="#1B7D9A"/>
<path fill-rule="evenodd" clip-rule="evenodd" d="M121.013 160.528C127.688 160.528 133.141 155.075 133.141 148.414C133.141 141.752 127.688 136.285 121.013 136.285C114.338 136.285 108.898 141.738 108.898 148.414C108.898 155.089 114.351 160.528 121.013 160.528Z" fill="#1B7D9A"/>
<path fill-rule="evenodd" clip-rule="evenodd" d="M227.824 159.994C245.146 159.994 259.278 145.863 259.278 128.541C259.278 111.219 245.146 97.0703 227.824 97.0703C210.502 97.0703 196.354 111.202 196.354 128.541C196.354 145.879 210.485 159.994 227.824 159.994Z" fill="#1B7D9A"/>
<path fill-rule="evenodd" clip-rule="evenodd" d="M162.472 146.215H159.875L158.211 149.088L156.577 146.215H153.98L157.113 151.637V154.8H159.342V151.637L162.474 146.215H162.472ZM163.435 154.8H168.766V152.968H165.695V151.395H168.413V149.485H165.695V148.08H168.766V146.218H163.435V154.803V154.8ZM175.519 148.845C175.519 147.393 174.343 146.218 172.875 146.218C171.407 146.218 170.248 147.393 170.248 148.861C170.248 150.329 171.41 151.505 172.875 151.505C173.226 151.505 173.532 151.795 173.532 152.162C173.532 152.529 173.226 152.802 172.875 152.802C172.525 152.802 172.232 152.512 172.232 152.145H170.232C170.232 153.657 171.407 154.803 172.875 154.803C174.343 154.803 175.519 153.641 175.519 152.176C175.519 151.549 175.307 150.983 174.953 150.525C174.465 149.899 173.717 149.502 172.875 149.502C172.525 149.502 172.232 149.212 172.232 148.845C172.232 148.478 172.522 148.205 172.875 148.205C173.229 148.205 173.532 148.494 173.532 148.861L175.519 148.845Z" fill="#E6E6E6"/>
<path fill-rule="evenodd" clip-rule="evenodd" d="M160.654 97.9599C160.623 97.5488 160.607 97.1514 160.607 96.7844C160.607 95.5177 160.789 94.5381 161.172 93.8675C161.661 92.9816 162.456 92.4463 163.57 92.2338C164.106 92.1427 164.625 92.082 165.113 92.082C165.601 92.082 166.09 92.1427 166.548 92.2504C167.42 92.4656 168.138 92.9541 168.656 93.7019C169.192 94.4498 169.468 95.4736 169.512 96.7733V97.1403C169.512 98.2552 169.343 99.0803 168.993 99.5991C168.596 100.179 167.955 100.623 167.067 100.913C167.801 101.02 168.367 101.294 168.731 101.721C169.098 102.149 169.357 102.715 169.495 103.416C169.586 103.83 169.617 104.255 169.617 104.729C169.617 105.127 169.586 105.538 169.539 105.996C169.418 106.989 169.004 107.845 168.317 108.579C167.63 109.296 166.576 109.68 165.141 109.71H164.958C163.615 109.71 162.544 109.36 161.735 108.656C160.91 107.939 160.482 106.41 160.482 104.042V103.965L163.568 103.796V104.194C163.568 105.858 163.995 106.713 164.867 106.777C164.945 106.777 165.005 106.793 165.05 106.793C165.875 106.793 166.38 106.349 166.545 105.48C166.592 105.234 166.606 104.991 166.606 104.776C166.606 104.15 166.438 103.601 166.071 103.142C165.582 102.516 164.771 102.21 163.626 102.21L163.488 99.9496H163.868C164.862 99.9496 165.549 99.6736 165.916 99.0941C166.267 98.5588 166.435 97.8716 166.435 97.0162C166.435 96.8644 166.435 96.6795 166.418 96.5112C166.341 95.4874 165.883 94.9823 165.044 94.9823H164.892C164.053 95.0431 163.639 95.8682 163.639 97.4881C163.639 97.6702 163.639 97.8854 163.653 98.0979L160.645 97.9599H160.654Z" fill="#FFDB79"/>
<path fill-rule="evenodd" clip-rule="evenodd" d="M102.803 96.1258C102.756 95.5462 102.743 95.0109 102.743 94.5224C102.743 92.7949 103.049 91.5586 103.675 90.7942C104.484 89.8173 105.494 89.2351 106.747 89.0364C107.188 88.9757 107.619 88.9453 108.047 88.9453C108.811 88.9453 109.545 89.0529 110.246 89.2654C111.331 89.6021 112.169 90.2589 112.735 91.2523C113.177 92.0912 113.408 93.1454 113.408 94.4286C113.408 94.688 113.392 94.9474 113.392 95.2234C113.27 96.8874 112.782 98.4162 111.896 99.807C111.01 101.198 109.482 103.199 107.329 105.782L113.638 105.828L113.591 109.449C110.826 109.587 107.266 109.648 102.897 109.648L102.561 105.69C105.188 102.865 107.053 100.696 108.168 99.1668C109.192 97.7622 109.711 96.4017 109.711 95.0412V94.6908C109.603 93.2392 108.993 92.5052 107.878 92.5052H107.831C106.868 92.5355 106.38 93.4214 106.38 95.1489C106.38 95.469 106.396 95.8222 106.427 96.203L102.806 96.1258H102.803Z" fill="#E6E6E6"/>
<path fill-rule="evenodd" clip-rule="evenodd" d="M122.601 142.281C122.554 145.244 122.54 148.192 122.54 151.142C122.54 152.607 122.54 154.075 122.554 155.54L120.216 155.665C120.169 151.892 120.109 148.377 120.048 145.153C119.529 145.261 118.809 145.534 117.909 145.948L117.451 143.887L120.064 142.223L122.601 142.283V142.281Z" fill="#FFD068"/>
<path fill-rule="evenodd" clip-rule="evenodd" d="M214.18 147.376V111.2C214.18 109.719 215.402 108.496 216.884 108.496H242.962C244.444 108.496 245.65 109.719 245.65 111.2V147.376C245.65 148.858 244.444 150.08 242.962 150.08H216.884C215.402 150.08 214.18 148.858 214.18 147.376Z" fill="#FFE5AF"/>
<path fill-rule="evenodd" clip-rule="evenodd" d="M212.346 145.894V109.674C212.346 108.209 213.552 107 215.02 107H240.883C242.348 107 243.557 108.206 243.557 109.674V145.894C243.557 147.362 242.351 148.568 240.883 148.568H215.02C213.554 148.568 212.346 147.362 212.346 145.894Z" fill="#FEC878"/>
<path fill-rule="evenodd" clip-rule="evenodd" d="M220.12 112.117H236.879C237.627 112.117 238.253 112.727 238.253 113.478V119.527C238.253 120.275 237.627 120.887 236.879 120.887H220.12C219.372 120.887 218.76 120.275 218.76 119.527V113.478C218.76 112.73 219.37 112.117 220.12 112.117Z" fill="white"/>
<path fill-rule="evenodd" clip-rule="evenodd" d="M213.156 143.656C213.156 142.909 213.752 142.312 214.486 142.312C215.22 142.312 215.83 142.909 215.83 143.656C215.83 144.404 215.234 144.987 214.486 144.987C213.739 144.987 213.156 144.39 213.156 143.656Z" fill="#686868"/>
<path fill-rule="evenodd" clip-rule="evenodd" d="M209.979 143.603C209.979 143.054 210.437 142.609 210.989 142.609H213.754C214.303 142.609 214.764 143.054 214.764 143.603C214.764 144.152 214.306 144.596 213.754 144.596H210.989C210.439 144.596 209.979 144.152 209.979 143.603Z" fill="white"/>
<path fill-rule="evenodd" clip-rule="evenodd" d="M213.156 138.363C213.156 137.616 213.752 137.02 214.486 137.02C215.22 137.02 215.83 137.616 215.83 138.363C215.83 139.111 215.234 139.694 214.486 139.694C213.739 139.694 213.156 139.097 213.156 138.363Z" fill="#686868"/>
<path fill-rule="evenodd" clip-rule="evenodd" d="M209.979 138.318C209.979 137.769 210.437 137.324 210.989 137.324H213.754C214.303 137.324 214.764 137.769 214.764 138.318C214.764 138.867 214.306 139.311 213.754 139.311H210.989C210.439 139.311 209.979 138.867 209.979 138.318Z" fill="white"/>
<path fill-rule="evenodd" clip-rule="evenodd" d="M213.156 133.082C213.156 132.334 213.752 131.738 214.486 131.738C215.22 131.738 215.83 132.334 215.83 133.082C215.83 133.83 215.234 134.412 214.486 134.412C213.739 134.412 213.156 133.816 213.156 133.082Z" fill="#686868"/>
<path fill-rule="evenodd" clip-rule="evenodd" d="M209.979 133.033C209.979 132.483 210.437 132.039 210.989 132.039H213.754C214.303 132.039 214.764 132.481 214.764 133.033C214.764 133.582 214.306 134.026 213.754 134.026H210.989C210.439 134.026 209.979 133.582 209.979 133.033Z" fill="white"/>
<path fill-rule="evenodd" clip-rule="evenodd" d="M213.156 127.793C213.156 127.045 213.752 126.449 214.486 126.449C215.22 126.449 215.83 127.045 215.83 127.793C215.83 128.541 215.234 129.123 214.486 129.123C213.739 129.123 213.156 128.527 213.156 127.793Z" fill="#686868"/>
<path fill-rule="evenodd" clip-rule="evenodd" d="M209.979 127.743C209.979 127.194 210.437 126.75 210.989 126.75H213.754C214.303 126.75 214.764 127.194 214.764 127.743C214.764 128.293 214.306 128.737 213.754 128.737H210.989C210.439 128.737 209.979 128.293 209.979 127.743Z" fill="white"/>
<path fill-rule="evenodd" clip-rule="evenodd" d="M213.156 122.508C213.156 121.76 213.752 121.164 214.486 121.164C215.22 121.164 215.83 121.76 215.83 122.508C215.83 123.256 215.234 123.838 214.486 123.838C213.739 123.838 213.156 123.242 213.156 122.508Z" fill="#686868"/>
<path fill-rule="evenodd" clip-rule="evenodd" d="M209.979 122.458C209.979 121.909 210.437 121.465 210.989 121.465H213.754C214.303 121.465 214.764 121.906 214.764 122.458C214.764 123.007 214.306 123.452 213.754 123.452H210.989C210.439 123.452 209.979 123.007 209.979 122.458Z" fill="white"/>
<path fill-rule="evenodd" clip-rule="evenodd" d="M213.156 117.223C213.156 116.475 213.752 115.879 214.486 115.879C215.22 115.879 215.83 116.475 215.83 117.223C215.83 117.971 215.234 118.55 214.486 118.55C213.739 118.55 213.156 117.954 213.156 117.223Z" fill="#686868"/>
<path fill-rule="evenodd" clip-rule="evenodd" d="M209.979 117.177C209.979 116.628 210.437 116.184 210.989 116.184H213.754C214.303 116.184 214.764 116.628 214.764 117.177C214.764 117.726 214.306 118.17 213.754 118.17H210.989C210.439 118.17 209.979 117.726 209.979 117.177Z" fill="white"/>
<path fill-rule="evenodd" clip-rule="evenodd" d="M213.156 111.934C213.156 111.186 213.752 110.59 214.486 110.59C215.22 110.59 215.83 111.186 215.83 111.934C215.83 112.682 215.234 113.264 214.486 113.264C213.739 113.264 213.156 112.668 213.156 111.934Z" fill="#686868"/>
<path fill-rule="evenodd" clip-rule="evenodd" d="M209.979 111.892C209.979 111.343 210.437 110.898 210.989 110.898H213.754C214.303 110.898 214.764 111.343 214.764 111.892C214.764 112.441 214.306 112.885 213.754 112.885H210.989C210.439 112.885 209.979 112.441 209.979 111.892Z" fill="white"/>
<path fill-rule="evenodd" clip-rule="evenodd" d="M184.422 171.545L238.805 213.51C239.294 213.891 240.011 213.8 240.395 213.312L244.642 207.812C245.023 207.307 244.932 206.589 244.443 206.208L190.044 164.243C189.555 163.863 188.838 163.954 188.454 164.442L184.207 169.942C183.826 170.447 183.917 171.164 184.422 171.545Z" fill="#1B7D9A"/>
<path fill-rule="evenodd" clip-rule="evenodd" d="M188.242 164.714L178.923 156.344L172.309 156.374L186.333 167.189L188.242 164.714Z" fill="#808080"/>
<path fill-rule="evenodd" clip-rule="evenodd" d="M184.409 169.683L173.959 162.795L172.309 156.379L186.333 167.194L184.409 169.683Z" fill="#B3B3B3"/>
<path fill-rule="evenodd" clip-rule="evenodd" d="M178.403 159.567C178.922 159.978 179.013 160.729 178.615 161.248C178.218 161.766 177.47 161.86 176.951 161.463C176.432 161.065 176.325 160.318 176.736 159.799C177.133 159.263 177.881 159.172 178.4 159.57L178.403 159.567Z" fill="#E6E6E6"/>
<path fill-rule="evenodd" clip-rule="evenodd" d="M245.91 208.786C246.614 209.335 246.749 210.345 246.2 211.046L243.984 213.918C243.448 214.606 242.441 214.744 241.738 214.208C241.034 213.659 240.912 212.649 241.448 211.948L243.664 209.075C244.199 208.372 245.223 208.25 245.91 208.786Z" fill="#104B5C"/>
<path fill-rule="evenodd" clip-rule="evenodd" d="M242.933 212.245L228.572 201.168L227.871 202.07L242.229 213.145L242.933 212.245Z" fill="#104B5C"/>
<path d="M224.421 190.768L219.863 196.676L220.932 197.5L225.49 191.592L224.421 190.768Z" fill="#E6E6E6"/>
<path fill-rule="evenodd" clip-rule="evenodd" d="M197.592 170.066L198.585 170.828L193.773 177.062L192.779 176.298L197.592 170.066Z" fill="#E6E6E6"/>
<path d="M103.656 189.584C103.656 188.806 104.299 188.18 105.061 188.18C105.823 188.18 106.466 188.806 106.466 189.584V192.396C106.466 193.161 105.839 193.801 105.061 193.801C104.283 193.801 103.656 193.158 103.656 192.396V189.584ZM261.322 215.433C262.101 215.433 262.727 216.06 262.727 216.838C262.727 217.616 262.101 218.243 261.322 218.243H258.527C257.749 218.243 257.122 217.616 257.122 216.838C257.122 216.06 257.749 215.433 258.527 215.433H261.322ZM250.094 215.433C250.872 215.433 251.498 216.06 251.498 216.838C251.498 217.616 250.872 218.243 250.094 218.243H247.282C246.517 218.243 245.877 217.616 245.877 216.838C245.877 216.06 246.52 215.433 247.282 215.433H250.094ZM238.865 215.433C239.643 215.433 240.269 216.06 240.269 216.838C240.269 217.616 239.643 218.243 238.865 218.243H236.053C235.275 218.243 234.648 217.616 234.648 216.838C234.648 216.06 235.275 215.433 236.053 215.433H238.865ZM227.639 215.433C228.403 215.433 229.03 216.06 229.03 216.838C229.03 217.616 228.403 218.243 227.639 218.243H224.83C224.051 218.243 223.425 217.616 223.425 216.838C223.425 216.06 224.051 215.433 224.83 215.433H227.639ZM216.394 215.433C217.172 215.433 217.798 216.06 217.798 216.838C217.798 217.616 217.172 218.243 216.394 218.243H213.582C212.817 218.243 212.191 217.616 212.191 216.838C212.191 216.06 212.817 215.433 213.582 215.433H216.394ZM205.168 215.433C205.946 215.433 206.572 216.06 206.572 216.838C206.572 217.616 205.946 218.243 205.168 218.243H202.356C201.577 218.243 200.951 217.616 200.951 216.838C200.951 216.06 201.577 215.433 202.356 215.433H205.168ZM193.939 215.433C194.703 215.433 195.343 216.06 195.343 216.838C195.343 217.616 194.703 218.243 193.939 218.243H191.127C190.349 218.243 189.722 217.616 189.722 216.838C189.722 216.06 190.349 215.433 191.127 215.433H193.939ZM182.696 215.433C183.474 215.433 184.101 216.06 184.101 216.838C184.101 217.616 183.474 218.243 182.696 218.243H179.901C179.123 218.243 178.496 217.616 178.496 216.838C178.496 216.06 179.123 215.433 179.901 215.433H182.696ZM171.468 215.433C172.246 215.433 172.872 216.06 172.872 216.838C172.872 217.616 172.246 218.243 171.468 218.243H168.656C167.891 218.243 167.251 217.616 167.251 216.838C167.251 216.06 167.891 215.433 168.656 215.433H171.468ZM160.239 215.433C161.017 215.433 161.643 216.06 161.643 216.838C161.643 217.616 161.017 218.243 160.239 218.243H157.427C156.649 218.243 156.022 217.616 156.022 216.838C156.022 216.06 156.649 215.433 157.427 215.433H160.239ZM149.01 215.433C149.774 215.433 150.401 216.06 150.401 216.838C150.401 217.616 149.774 218.243 149.01 218.243H146.198C145.42 218.243 144.793 217.616 144.793 216.838C144.793 216.06 145.42 215.433 146.198 215.433H149.01ZM137.767 215.433C138.546 215.433 139.172 216.06 139.172 216.838C139.172 217.616 138.546 218.243 137.767 218.243H134.955C134.191 218.243 133.565 217.616 133.565 216.838C133.565 216.06 134.191 215.433 134.955 215.433H137.767ZM126.539 215.433C127.317 215.433 127.943 216.06 127.943 216.838C127.943 217.616 127.317 218.243 126.539 218.243H123.727C122.949 218.243 122.322 217.616 122.322 216.838C122.322 216.06 122.949 215.433 123.727 215.433H126.539ZM115.31 215.433C116.074 215.433 116.715 216.06 116.715 216.838C116.715 217.616 116.072 218.243 115.31 218.243H112.498C111.72 218.243 111.093 217.616 111.093 216.838C111.093 216.06 111.72 215.433 112.498 215.433H115.31ZM106.466 214.851C106.466 215.629 105.839 216.256 105.061 216.256C104.283 216.256 103.656 215.629 103.656 214.851V212.039C103.656 211.275 104.299 210.648 105.061 210.648C105.823 210.648 106.466 211.275 106.466 212.039V214.851ZM106.466 203.625C106.466 204.403 105.839 205.03 105.061 205.03C104.283 205.03 103.656 204.403 103.656 203.625V200.813C103.656 200.035 104.299 199.408 105.061 199.408C105.823 199.408 106.466 200.035 106.466 200.813V203.625Z" fill="#FEFEFE"/>
<path fill-rule="evenodd" clip-rule="evenodd" d="M226.862 92.6584H228.771V80.7287H226.862V92.6584ZM193.131 115.268L192.414 117.039L183.967 113.601L184.684 111.829L193.131 115.268ZM214.215 95.1475L212.443 95.8816L208.96 87.4648L210.718 86.7308L214.217 95.1475H214.215ZM190.827 122.357L190.46 124.236L184.61 123.121L184.96 121.242L190.827 122.357ZM196.782 108.761L195.728 110.35L190.764 107.066L191.818 105.477L196.782 108.761ZM207.432 98.5694L205.842 99.6401L202.497 94.706L204.087 93.6353L207.432 98.5694ZM221.227 93.2075L219.347 93.5884L218.155 87.7518L220.035 87.371L221.227 93.2075ZM190.504 92.4459L189.16 93.8202L190.397 95.0427L191.741 93.6684L190.504 92.4459ZM201.504 103.244L200.16 104.618L191.652 96.2624L192.996 94.8881L201.504 103.244ZM262.502 115.268L263.219 117.039L271.666 113.601L270.932 111.829L262.499 115.268H262.502ZM241.421 95.1475L243.193 95.8816L246.676 87.4648L244.904 86.7308L241.421 95.1475ZM264.809 122.357L265.176 124.236L271.026 123.121L270.676 121.242L264.809 122.357ZM258.851 108.761L259.905 110.35L264.87 107.066L263.815 105.477L258.851 108.761ZM248.204 98.5694L249.794 99.6401L253.139 94.706L251.549 93.6353L248.204 98.5694ZM234.409 93.2075L236.289 93.5884L237.481 87.7518L235.601 87.371L234.409 93.2075ZM265.129 92.4459L266.473 93.8202L265.22 95.0427L263.89 93.6684L265.126 92.4459H265.129ZM226.862 77.2461H228.771V78.9874H226.862V77.2461ZM254.132 103.244L255.476 104.618L263.984 96.2624L262.64 94.8881L254.132 103.244Z" fill="white"/>
<path d="M405.074 50.7331H368.343C364.236 50.7331 360.853 47.1164 360.853 42.6852V40.088V14.5943C360.853 14.1671 361.018 13.8083 361.28 13.5121C361.542 13.216 361.907 13.0508 362.3 13.0508H363.285V42.6852C363.285 44.1945 363.843 45.5444 364.766 46.5297C365.689 47.5151 366.97 48.1416 368.349 48.1416H405.08C409.682 48.1416 413.424 52.1855 413.424 57.078C413.424 62.0048 409.676 66.0487 405.08 66.0487H254.931C253.32 66.0487 251.844 66.7378 250.757 67.8883C249.674 69.073 249.014 70.6507 249.014 72.3879C249.014 74.1308 249.674 75.7369 250.757 76.8875C251.839 78.038 253.32 78.7271 254.931 78.7271H381.557V78.7613C381.654 78.7271 381.722 78.7271 381.785 78.7271H383.231C387.828 78.7271 391.575 82.7653 391.575 87.6978C391.575 92.5903 387.828 96.6342 383.231 96.6342L293.21 96.6342C291.598 96.6342 290.123 97.3575 289.035 98.5081C287.953 99.6586 287.292 101.236 287.292 102.973C287.292 104.75 287.947 106.328 289.035 107.473C290.117 108.623 291.598 109.347 293.21 109.347L365.455 109.347C370.775 109.347 375.115 114.012 375.115 119.73V209.362C375.115 210.313 374.756 211.236 374.13 211.891C373.737 212.318 373.241 212.614 372.717 212.78V119.73C372.717 117.56 371.897 115.623 370.581 114.211C369.3 112.867 367.591 112.007 365.689 111.944L293.147 111.944C291.798 111.944 290.516 111.585 289.4 110.959V110.925C288.642 110.497 287.925 109.973 287.332 109.313C285.823 107.701 284.9 105.468 284.866 103.036C284.9 98.1435 288.614 94.168 293.147 94.168H322.224V94.037L383.231 94.037C384.872 94.037 386.353 93.3136 387.406 92.1631C388.488 91.0126 389.149 89.4349 389.149 87.6978C389.149 85.9549 388.494 84.3487 387.406 83.1982C386.353 82.0477 384.877 81.3243 383.231 81.3243H254.931C250.364 81.3243 246.587 77.3146 246.587 72.3879C246.587 69.9559 247.51 67.7232 248.985 66.1113L249.054 66.0771C249.777 65.2911 250.631 64.6646 251.582 64.2033C252.505 63.7419 253.519 63.4799 254.607 63.4458H405.085C406.731 63.4458 408.207 62.7224 409.26 61.5719C410.343 60.4214 411.003 58.8095 411.003 57.0723C411.003 55.3295 410.348 53.7518 409.26 52.6013C408.207 51.4507 406.731 50.7274 405.085 50.7274L405.074 50.7331Z" fill="#00D0FF"/>
<path fill-rule="evenodd" clip-rule="evenodd" d="M388.686 16.2645L374.23 19.9781C363.061 13.7015 361.78 7.49324 373.74 1.34766L388.395 4.99287C415.632 11.7593 415.005 9.39558 388.692 16.2645H388.686Z" fill="#FBC081"/>
<path fill-rule="evenodd" clip-rule="evenodd" d="M395.811 6.60156C413.684 10.8049 413.354 10.3151 396.011 14.5869C394.336 13.5332 393.317 12.1548 393.283 10.6113C393.214 9.10195 394.2 7.68943 395.811 6.60156Z" fill="#0085F2"/>
<path fill-rule="evenodd" clip-rule="evenodd" d="M282.858 7.33029L291.566 7.2961L368.577 7.13093C372.518 7.13093 375.708 5.51907 375.674 3.54838C375.605 1.57769 372.325 0 368.377 0L282.658 0.16517C282.328 0.16517 282.003 0.199342 281.707 0.199342L272.902 0.233523C269.518 0.233523 266.756 1.61187 266.824 3.28638L266.921 7.35876L282.858 7.32458V7.33029Z" fill="url(#paint1_linear_1_9385)"/>
<path fill-rule="evenodd" clip-rule="evenodd" d="M282.857 6.34793L291.566 6.31376L368.577 6.08594C372.518 6.08594 375.804 7.89144 375.873 10.0957C375.907 12.3283 372.717 14.168 368.776 14.168L291.76 14.43L283.023 14.4642L267.12 14.4984L266.921 6.41628L282.857 6.34793Z" fill="url(#paint2_linear_1_9385)"/>
<path fill-rule="evenodd" clip-rule="evenodd" d="M283.222 21.5942H286.673L368.975 21.2981C372.917 21.2981 376.106 19.4242 376.072 17.1573C376.004 14.8905 372.723 13.0508 368.776 13.0508L291.76 13.3128L283.051 13.347L267.115 13.4153L267.211 18.1484C267.28 19.9254 269.609 21.4006 272.565 21.6341L283.21 21.5999L283.222 21.5942Z" fill="url(#paint3_linear_1_9385)"/>
<path fill-rule="evenodd" clip-rule="evenodd" d="M250.991 5.7258L251.287 16.4336C251.35 19.3896 253.85 21.7875 256.806 21.7875L270.703 21.7533C273.659 21.7533 275.995 19.3554 275.926 16.3994L275.63 5.68592C275.562 2.72989 273.067 0.332031 270.145 0.332031L256.214 0.366204C253.258 0.366204 250.922 2.79824 250.991 5.7201V5.7258Z" fill="#0085F2"/>
<path fill-rule="evenodd" clip-rule="evenodd" d="M384.481 277.797V183.176C384.481 179.297 381.325 176.113 377.452 176.113H309.241C305.363 176.113 302.179 179.303 302.179 183.176V277.797C302.179 281.676 305.368 284.826 309.241 284.826H377.452C381.331 284.826 384.481 281.67 384.481 277.797Z" fill="url(#paint4_linear_1_9385)"/>
<path fill-rule="evenodd" clip-rule="evenodd" d="M389.281 273.918V179.16C389.281 175.316 386.126 172.16 382.281 172.16H314.663C310.818 172.16 307.663 175.316 307.663 179.16V273.918C307.663 277.763 310.818 280.918 314.663 280.918H382.281C386.126 280.918 389.281 277.763 389.281 273.918Z" fill="url(#paint5_linear_1_9385)"/>
<path fill-rule="evenodd" clip-rule="evenodd" d="M380.014 279.306V173.772C380.014 172.884 379.324 172.16 378.436 172.16H363.092C362.203 172.16 361.48 172.884 361.48 173.772V279.306C361.48 280.195 362.203 280.918 363.092 280.918H378.436C379.324 280.918 380.014 280.195 380.014 279.306Z" fill="url(#paint6_linear_1_9385)"/>
<path fill-rule="evenodd" clip-rule="evenodd" d="M342.527 280.918H327.872V295.766L335.066 288.573L342.527 296V280.918Z" fill="#1B8A75"/>
</g>
<defs>
<filter id="filter0_d_1_9385" x="0" y="0" width="417.424" height="304" filterUnits="userSpaceOnUse" color-interpolation-filters="linearRGB">
<feFlood flood-opacity="0" result="BackgroundImageFix"/>
<feColorMatrix in="SourceAlpha" type="matrix" values="0 0 0 0 0 0 0 0 0 0 0 0 0 0 0 0 0 0 127 0" result="hardAlpha"/>
<feOffset dy="4"/>
<feGaussianBlur stdDeviation="2"/>
<feComposite in2="hardAlpha" operator="out"/>
<feColorMatrix type="matrix" values="0 0 0 0 0 0 0 0 0 0 0 0 0 0 0 0 0 0 0.25 0"/>
<feBlend mode="normal" in2="BackgroundImageFix" result="effect1_dropShadow_1_9385"/>
<feBlend mode="normal" in="SourceGraphic" in2="effect1_dropShadow_1_9385" result="shape"/>
</filter>
<linearGradient id="paint0_linear_1_9385" x1="4.00001" y1="106.122" x2="260.92" y2="338.198" gradientUnits="userSpaceOnUse">
<stop stop-color="#3EF4A7"/>
<stop offset="1" stop-color="#096EE0"/>
</linearGradient>
<linearGradient id="paint1_linear_1_9385" x1="321.248" y1="0" x2="321.248" y2="7.35876" gradientUnits="userSpaceOnUse">
<stop stop-color="white"/>
<stop offset="1" stop-color="#EAEAEA"/>
</linearGradient>
<linearGradient id="paint2_linear_1_9385" x1="321.397" y1="6.08594" x2="321.397" y2="14.4984" gradientUnits="userSpaceOnUse">
<stop stop-color="white"/>
<stop offset="1" stop-color="#EAEAEA"/>
</linearGradient>
<linearGradient id="paint3_linear_1_9385" x1="321.593" y1="13.0508" x2="321.593" y2="21.6341" gradientUnits="userSpaceOnUse">
<stop stop-color="white"/>
<stop offset="1" stop-color="#EAEAEA"/>
</linearGradient>
<linearGradient id="paint4_linear_1_9385" x1="343.33" y1="176.113" x2="343.33" y2="284.826" gradientUnits="userSpaceOnUse">
<stop stop-color="white"/>
<stop offset="1" stop-color="#EAEAEA"/>
</linearGradient>
<linearGradient id="paint5_linear_1_9385" x1="348.472" y1="280.918" x2="348.472" y2="172.16" gradientUnits="userSpaceOnUse">
<stop stop-color="#B0BBC9"/>
<stop offset="1" stop-color="#D5DBE2"/>
</linearGradient>
<linearGradient id="paint6_linear_1_9385" x1="380.014" y1="209.297" x2="355.996" y2="211.541" gradientUnits="userSpaceOnUse">
<stop stop-color="#3EF4A7"/>
<stop offset="1" stop-color="#096EE0"/>
</linearGradient>
</defs>
</svg>
