<svg width="451" height="316" viewBox="0 0 451 316" fill="none" xmlns="http://www.w3.org/2000/svg">
<g filter="url(#filter0_d_1_9943)">
<path fill-rule="evenodd" clip-rule="evenodd" d="M144.838 185.98H369.835C372.254 185.98 374.213 187.966 374.213 190.359V278.433C374.213 280.852 372.259 282.812 369.835 282.812H144.838C142.413 282.812 140.459 280.857 140.459 278.433V190.359C140.459 187.966 142.413 185.98 144.838 185.98Z" fill="#FEFEFE"/>
<path fill-rule="evenodd" clip-rule="evenodd" d="M153.709 195.465H168.914V211.485H153.709V195.465ZM346.896 256.718H362.101V272.712H346.896V256.718ZM327.579 256.718H342.784V272.712H327.579V256.718ZM308.256 256.718H323.461V272.712H308.256V256.718ZM192.348 256.718H304.144V272.712H192.348V256.718ZM173.026 256.718H188.231V272.712H173.026V256.718ZM153.709 256.718H168.914V272.712H153.709V256.718ZM346.896 236.586H362.101V252.58H346.896V236.586ZM327.579 236.586H342.784V252.58H327.579V236.586ZM288.939 236.586H323.461V252.58H288.939V236.586ZM269.622 236.586H284.827V252.58H269.622V236.586ZM250.305 236.586H265.51V252.58H250.305V236.586ZM230.983 236.586H246.188V252.58H230.983V236.586ZM211.666 236.586H226.871V252.58H211.666V236.586ZM192.348 236.586H207.553V252.58H192.348V236.586ZM173.026 236.586H188.231V252.58H173.026V236.586ZM153.709 236.586H168.914V252.58H153.709V236.586ZM346.896 215.895H362.101V231.884H346.896V215.895ZM308.256 215.895H342.778V231.884H308.256V215.895ZM288.939 215.895H304.144V231.884H288.939V215.895ZM269.622 215.895H284.827V231.884H269.622V215.895ZM250.305 215.895H265.51V231.884H250.305V215.895ZM230.983 215.895H246.188V231.884H230.983V215.895ZM211.666 215.895H226.871V231.884H211.666V215.895ZM192.348 215.895H207.553V231.884H192.348V215.895ZM173.026 215.895H188.231V231.884H173.026V215.895ZM153.709 215.895H168.914V231.884H153.709V215.895ZM346.896 195.465H362.101V211.485H346.896V195.465ZM327.579 195.465H342.784V211.485H327.579V195.465ZM308.256 195.465H323.461V211.485H308.256V195.465ZM288.939 195.465H304.144V211.485H288.939V195.465ZM269.622 195.465H284.827V211.485H269.622V195.465ZM250.305 195.465H265.51V211.485H250.305V195.465ZM230.983 195.465H246.188V211.485H230.983V195.465ZM211.666 195.465H226.871V211.485H211.666V195.465ZM192.348 195.465H207.553V211.485H192.348V195.465ZM173.026 195.465H188.231V211.485H173.026V195.465Z" fill="url(#paint0_linear_1_9943)"/>
<path fill-rule="evenodd" clip-rule="evenodd" d="M102.145 302.217C98.0011 308.377 89.8866 309.861 84.0502 305.488C78.2399 301.14 76.432 293.491 80.3456 287.367L22.0703 243.769L98.879 129.727L178.316 189.141L102.15 302.222L102.145 302.217Z" fill="#32ACBD"/>
<path fill-rule="evenodd" clip-rule="evenodd" d="M91.7003 307.988C90.1537 308.02 88.5757 307.727 87.0604 307.142L163.895 193.068C164.073 192.802 164.13 192.514 164.099 192.222C164.041 191.96 163.895 191.694 163.66 191.49L102.145 145.499C101.884 145.295 101.617 145.238 101.356 145.295C101.064 145.353 100.834 145.499 100.656 145.76L30.4415 250.032L26.9668 247.435L97.2075 143.163C98.054 141.909 99.308 141.152 100.619 140.885V140.917C101.962 140.655 103.394 140.974 104.591 141.852L166.105 187.874C167.271 188.752 168.002 190.064 168.237 191.49C168.472 192.89 168.18 194.411 167.365 195.634L91.6951 307.983L91.7003 307.988Z" fill="#298C99"/>
<path fill-rule="evenodd" clip-rule="evenodd" d="M23.0903 256.079L22.7402 256.575L26.8262 259.611L31.116 262.819L31.5811 263.169L38.3528 268.216L38.8178 268.567L45.5582 273.614L46.0232 273.964L52.7949 279.043L53.2599 279.362L60.0003 284.44L60.4653 284.79L67.237 289.838L67.702 290.188L74.4424 295.235L74.9074 295.585L81.6791 300.633L82.1441 300.983L85.1486 303.23L88.1843 305.508L88.5031 305.011L82.4629 300.487L87.3379 293.25L93.3781 297.775L93.6968 297.278L87.6566 292.753L92.5316 285.517L98.5718 290.042L98.9219 289.545L92.8817 285.02L97.7567 277.784L103.797 282.308L104.116 281.812L98.0754 277.287L102.95 270.05L108.991 274.575L109.309 274.079L103.3 269.554L108.175 262.343L114.19 266.837L114.54 266.341L108.499 261.847L113.374 254.61L119.415 259.104L119.733 258.639L113.693 254.114L118.568 246.877L124.608 251.402L124.958 250.906L118.918 246.381L123.793 239.144L129.833 243.669L130.152 243.173L124.112 238.648L128.987 231.411L135.027 235.936L135.346 235.44L129.332 230.915L134.207 223.678L140.221 228.203L140.571 227.706L134.531 223.182L139.406 215.945L145.446 220.47L145.765 219.973L139.725 215.448L144.6 208.212L150.64 212.737L150.99 212.24L144.95 207.715L149.825 200.479L155.865 205.003L156.184 204.507L150.143 199.982L155.018 192.777L161.059 197.27L161.377 196.774L155.337 192.28L158.462 187.641L158.023 187.29L154.898 191.93L148.126 186.852L151.251 182.243L150.786 181.893L147.661 186.533L140.921 181.454L144.014 176.846L143.575 176.495L140.451 181.135L133.679 176.057L136.804 171.417L136.339 171.098L133.214 175.706L126.474 170.659L129.567 166.019L129.128 165.669L126.003 170.309L119.232 165.262L122.356 160.622L121.891 160.272L118.767 164.911L112.026 159.864L115.151 155.224L114.686 154.874L111.561 159.514L104.79 154.467L107.914 149.827L107.449 149.477L104.325 154.116L98.1381 149.477L97.8194 149.973L104.006 154.613L99.1309 161.85L92.9444 157.21L92.5943 157.706L98.7808 162.346L93.9058 169.583L87.7193 164.943L87.4006 165.439L93.5871 170.079L88.7121 177.284L82.5256 172.676L82.2068 173.172L88.3933 177.786L83.5183 185.023L77.3318 180.414L76.9818 180.911L83.1683 185.519L78.2933 192.756L72.1068 188.147L71.788 188.644L77.9745 193.252L73.0995 200.489L66.913 195.875L66.563 196.34L72.7495 200.98L67.8745 208.217L61.688 203.577L61.3692 204.073L67.5557 208.713L62.6807 215.95L56.4942 211.31L56.1755 211.807L62.362 216.446L57.487 223.683L51.3005 219.043L50.9504 219.54L57.1369 224.179L52.2619 231.416L46.0754 226.776L45.7567 227.273L51.9432 231.913L47.0682 239.149L40.8817 234.509L40.5316 235.006L46.7181 239.646L41.8431 246.856L35.6566 242.243L35.3379 242.739L41.5244 247.347L36.6494 254.584L30.4629 249.976L30.1442 250.472L36.3307 255.086L31.4557 262.323L23.0799 256.079H23.0903ZM104.481 154.958L99.6064 162.194L106.347 167.242L111.222 160.005L104.481 154.958ZM99.2563 162.665L94.3813 169.901L101.153 174.98L106.028 167.743L99.2563 162.665ZM94.0625 170.398L89.1876 177.634L95.9593 182.713L100.834 175.477L94.0625 170.398ZM88.8375 178.131L83.9625 185.368L90.7342 190.446L95.6092 183.21L88.8375 178.131ZM83.6437 185.864L78.7687 193.101L85.5404 198.148L90.4154 190.911L83.6437 185.864ZM78.45 193.597L73.575 200.834L80.3154 205.881L85.1904 198.645L78.45 193.597ZM73.2249 201.33L68.3499 208.567L75.1216 213.614L79.9966 206.378L73.2249 201.33ZM68.0312 209.063L63.1562 216.3L69.9279 221.348L74.8029 214.111L68.0312 209.063ZM62.8061 216.796L57.9311 224.033L64.7028 229.081L69.5778 221.844L62.8061 216.796ZM57.6124 224.53L52.7374 231.766L59.5091 236.814L64.3841 229.577L57.6124 224.53ZM52.4187 232.237L47.5437 239.473L54.284 244.552L59.159 237.315L52.4187 232.237ZM47.1936 239.97L42.3186 247.206L49.0903 252.285L53.9653 245.048L47.1936 239.97ZM41.9999 247.703L37.1249 254.94L43.8966 260.018L48.7716 252.782L41.9999 247.703ZM36.8061 255.436L31.9311 262.673L43.5465 260.483L36.8061 255.436ZM118.14 246.532L111.368 241.485L106.493 248.722L113.233 253.769L118.134 246.532H118.14ZM110.903 241.135L104.131 236.056L99.2563 243.293L106.028 248.372L110.903 241.135ZM103.692 235.737L96.9207 230.659L92.0457 237.895L98.8174 242.974L103.692 235.737ZM96.4556 230.34L89.6839 225.261L84.8089 232.498L91.5806 237.545L96.4556 230.335V230.34ZM89.245 224.911L82.4733 219.864L77.5983 227.1L84.37 232.148L89.245 224.911ZM82.0083 219.508L75.2366 214.461L70.3616 221.698L77.1333 226.745L82.0083 219.508ZM75.5919 213.964L82.3322 219.012L87.2072 211.775L80.4669 206.728L75.5919 213.964ZM82.7973 219.367L89.569 224.415L94.444 217.178L87.6723 212.13L82.7973 219.367ZM90.034 224.765L96.7744 229.843L101.649 222.607L94.909 217.528L90.034 224.765ZM97.2446 230.162L104.016 235.241L108.891 228.004L102.12 222.925L97.2446 230.162ZM104.481 235.591L111.222 240.638L116.097 233.402L109.356 228.354L104.481 235.591ZM111.687 240.989L118.458 246.036L123.333 238.799L116.562 233.752L111.687 240.989ZM80.7856 206.231L87.5573 211.279L92.4323 204.042L85.6606 198.995L80.7856 206.231ZM88.0224 211.629L94.7627 216.708L99.6377 209.471L92.8973 204.392L88.0224 211.629ZM95.2277 217.032L101.999 222.11L106.874 214.874L100.103 209.795L95.2277 217.032ZM102.47 222.46L109.21 227.508L114.085 220.271L107.345 215.224L102.47 222.46ZM109.675 227.858L116.447 232.905L121.322 225.669L114.55 220.621L109.675 227.858ZM116.912 233.255L123.652 238.303L128.527 231.066L121.787 226.019L116.912 233.255ZM154.559 192.432L147.818 187.353L142.943 194.59L149.684 199.669L154.559 192.432ZM147.348 187.029L140.576 181.95L135.701 189.187L142.473 194.266L147.348 187.029ZM140.111 181.6L133.371 176.553L128.496 183.79L135.236 188.837L140.111 181.6ZM132.906 176.203L126.134 171.155L121.259 178.392L128.031 183.44L132.906 176.203ZM125.669 170.805L118.929 165.758L114.054 172.995L120.794 178.042L125.669 170.805ZM118.458 165.408L111.687 160.36L106.812 167.597L113.583 172.645L118.458 165.408ZM149.365 200.16L142.593 195.081L137.718 202.318L144.49 207.397L149.365 200.16ZM142.128 194.736L135.388 189.689L130.513 196.925L137.253 201.973L142.128 194.736ZM134.917 189.333L128.146 184.286L123.271 191.523L130.042 196.57L134.917 189.333ZM127.681 183.936L120.94 178.889L116.065 186.125L122.806 191.173L127.681 183.936ZM120.475 178.538L113.704 173.491L108.829 180.728L115.6 185.775L120.475 178.538ZM113.233 173.141L106.493 168.094L101.618 175.33L108.358 180.378L113.233 173.141ZM144.14 207.867L137.399 202.819L132.524 210.056L139.265 215.104L144.14 207.867ZM136.934 202.469L130.163 197.422L125.288 204.659L132.059 209.706L136.934 202.469ZM129.724 197.067L122.952 192.019L118.077 199.256L124.849 204.303L129.724 197.067ZM122.487 191.669L115.715 186.622L110.84 193.858L117.612 198.906L122.487 191.669ZM115.276 186.272L108.505 181.224L103.63 188.461L110.401 193.508L115.276 186.272ZM108.04 180.874L101.268 175.827L96.3929 183.032L103.165 188.111L108.04 180.874ZM138.946 215.6L132.174 210.553L127.299 217.789L134.071 222.837L138.946 215.6ZM131.735 210.202L124.964 205.155L120.089 212.392L126.86 217.439L131.735 210.202ZM124.499 204.805L117.727 199.757L112.852 206.994L119.624 212.042L124.499 204.805ZM117.293 199.407L110.522 194.36L105.647 201.597L112.418 206.644L117.293 199.407ZM110.057 194.005L103.285 188.957L98.4098 196.163L105.182 201.241L110.057 194.005ZM102.846 188.607L96.0742 183.528L91.1992 190.765L97.9709 195.844L102.846 188.607ZM133.752 223.333L126.981 218.286L122.106 225.522L128.877 230.57L133.752 223.333ZM126.516 217.936L119.775 212.888L114.9 220.125L121.641 225.172L126.516 217.936ZM119.305 212.538L112.533 207.491L107.658 214.727L114.43 219.775L119.305 212.538ZM112.068 207.135L105.328 202.088L100.453 209.298L107.193 214.377L112.068 207.141V207.135ZM104.858 201.738L98.0859 196.659L93.2109 203.896L99.9826 208.975L104.858 201.738ZM97.6208 196.34L90.8805 191.261L86.0055 198.498L92.7458 203.577L97.6208 196.34ZM39.1418 268.07L50.7885 265.912L44.0168 260.833L39.1418 268.07ZM46.3785 273.468L57.9938 271.31L51.2535 266.231L46.3785 273.468ZM53.5891 278.865L65.2306 276.707L58.4589 271.66L53.5839 278.865H53.5891ZM60.8258 284.294L72.4412 282.105L65.6695 277.057L60.8258 284.294ZM68.0312 289.692L79.6727 287.502L72.901 282.455L68.026 289.692H68.0312ZM75.2418 295.094L82.0135 300.142L86.8885 292.905L80.1168 287.858L75.2418 295.094ZM44.3355 260.337L51.1072 265.416L55.9822 258.179L49.2105 253.1L44.3355 260.337ZM51.5722 265.735L58.3439 270.813L63.2189 263.577L56.4472 258.529L51.5722 265.735ZM58.7828 271.163L65.5545 276.211L70.4295 268.974L63.6578 263.927L58.7828 271.163ZM66.0196 276.561L72.7913 281.608L77.6663 274.372L70.8946 269.324L66.0196 276.561ZM73.2249 281.958L79.9966 287.006L84.8716 279.769L78.0999 274.722L73.2249 281.958ZM80.4617 287.361L87.2334 292.409L92.1084 285.172L85.3367 280.124L80.4617 287.361ZM49.5606 252.604L56.3009 257.683L61.1759 250.446L54.4356 245.399L49.5606 252.604ZM56.7659 258.033L63.5376 263.08L68.4126 255.843L61.6409 250.796L56.7659 258.033ZM64.0027 263.43L70.743 268.478L75.618 261.241L68.8777 256.194L64.0027 263.43ZM71.2133 268.828L77.985 273.875L82.86 266.638L76.0883 261.591L71.2133 268.828ZM78.45 274.231L85.1904 279.278L90.0654 272.041L83.325 266.994L78.45 274.231ZM85.6606 279.628L92.4323 284.675L97.3073 277.439L90.5356 272.391L85.6606 279.628ZM54.7543 244.897L61.526 249.944L66.401 242.708L59.6293 237.66L54.7543 244.897ZM61.991 250.3L68.7314 255.347L73.6064 248.11L66.866 243.063L61.991 250.3ZM69.2016 255.697L75.9733 260.745L80.8483 253.508L74.0766 248.46L69.2016 255.697ZM76.4384 261.095L83.1787 266.142L88.0537 258.905L81.3134 253.858L76.4384 261.095ZM83.6437 266.492L90.4154 271.54L95.2904 264.303L88.5187 259.255L83.6437 266.492ZM90.8805 271.895L97.6208 276.974L102.496 269.737L95.7555 264.658L90.8805 271.895ZM59.9794 237.164L66.7197 242.211L71.5947 234.975L64.8544 229.927L59.9794 237.164ZM67.1847 242.567L73.9564 247.614L78.8314 240.377L72.0597 235.33L67.1847 242.567ZM74.4215 247.964L81.1618 253.011L86.0368 245.775L79.2965 240.727L74.4215 247.964ZM81.6321 253.362L88.4038 258.409L93.2788 251.172L86.5071 246.125L81.6321 253.362ZM88.8688 258.759L95.6092 263.838L100.484 256.601L93.7438 251.522L88.8688 258.759ZM96.0742 264.162L102.846 269.241L107.721 262.004L100.949 256.925L96.0742 264.162ZM65.1731 229.431L71.9448 234.478L76.8198 227.241L70.0481 222.194L65.1731 229.431ZM72.3785 234.833L79.1502 239.881L84.0252 232.644L77.2535 227.597L72.3785 234.833ZM79.6152 240.231L86.3869 245.278L91.2619 238.042L84.4902 232.994L79.6152 240.231ZM86.8258 245.628L93.5975 250.676L98.4725 243.465L91.7008 238.386L86.8258 245.623V245.628ZM94.0625 251.026L100.834 256.105L105.709 248.868L98.9376 243.789L94.0625 251.026ZM101.268 256.429L108.04 261.507L112.915 254.271L106.143 249.223L101.268 256.434V256.429Z" fill="#298C99"/>
<path d="M98.2364 164.623C98.0901 164.737 97.8863 164.711 97.7714 164.565C97.6564 164.419 97.6564 164.184 97.8027 164.069L97.9177 163.98L98.0065 163.891L98.1215 163.802L98.2103 163.713L98.3252 163.625L98.3566 163.598C98.5029 163.452 98.738 163.483 98.853 163.656C98.9679 163.802 98.9418 164.037 98.7955 164.152L98.738 164.21L98.6492 164.267L98.5343 164.356L98.4454 164.445L98.3566 164.528L98.2417 164.617L98.2364 164.623ZM79.2067 236.41L88.3976 243.296L106.199 231.038L85.1006 215.254L82.185 225.704L79.2067 236.415V236.41ZM89.0716 243.767L100.509 252.346L106.199 231.979L89.0716 243.767ZM82.4201 266.412L82.4515 266.323L60.9137 250.214L60.8249 250.157C60.7099 250.042 60.6524 249.864 60.7674 249.718C60.7674 249.687 60.7987 249.661 60.8249 249.661L63.8293 238.803L66.8912 227.83C66.9225 227.799 66.9225 227.773 66.9487 227.741L66.98 227.71C67.0114 227.679 67.0375 227.653 67.0688 227.621L75.8522 220.97L84.5781 214.376C84.6355 214.229 84.7818 214.141 84.9281 214.172C84.9595 214.203 84.9856 214.203 85.017 214.229L85.1058 214.287L107.082 230.714L107.14 230.772C107.229 230.829 107.286 230.976 107.229 231.122V231.148L101.131 252.858C101.162 252.947 101.162 253.062 101.1 253.151C101.079 253.172 101.06 253.191 101.042 253.208C101.011 253.323 100.896 253.412 100.781 253.412L83.3293 266.632L83.2718 266.658C83.2143 266.715 83.1568 266.747 83.068 266.715C83.0105 266.804 82.8904 266.83 82.7754 266.804L82.6291 266.773C82.4567 266.715 82.3679 266.569 82.4253 266.391L82.4201 266.412ZM82.6239 265.508L87.9639 243.944L78.773 237.058L70.1621 243.537L61.7863 249.896L82.6239 265.508ZM88.6327 244.409L83.3815 265.623L100.076 252.989L88.638 244.409H88.6327ZM76.2911 221.618L67.5966 228.212L64.5608 239.038L61.8176 248.903L78.4229 236.295L84.228 215.604L76.2911 221.618ZM77.6026 210.143C77.31 210.232 77.0174 210.028 76.9338 209.736C76.8763 209.417 77.0487 209.093 77.3727 209.004L77.5765 208.973L77.7802 208.915L77.984 208.858L78.1565 208.827L78.3602 208.769L78.4491 208.738C78.7678 208.68 79.0604 208.884 79.1179 209.203C79.1753 209.522 79.0029 209.846 78.679 209.903L78.5901 209.934L78.3864 209.966L78.2087 210.023L78.0049 210.055L77.8011 210.112L77.5974 210.138L77.6026 210.143ZM74.478 209.882C74.7706 209.793 75.0893 209.971 75.1782 210.258C75.267 210.582 75.0893 210.901 74.7967 211.016H74.7654L74.5616 211.073L74.3839 211.162L74.1802 211.22L74.0025 211.277L73.8301 211.366H73.7726C73.48 211.481 73.1613 211.335 73.0411 211.016C72.9523 210.723 73.0986 210.373 73.3912 210.258H73.4487L73.6263 210.17L73.8301 210.112L74.0339 210.023L74.2063 209.966L74.4101 209.908L74.4675 209.882H74.478ZM70.5122 211.575C70.7734 211.429 71.1235 211.544 71.2437 211.836C71.39 212.129 71.275 212.479 70.9824 212.625L70.8361 212.714L70.6585 212.803L70.4808 212.892L70.3084 213.007L70.1307 213.096L70.0158 213.153C69.7232 213.299 69.4044 213.21 69.2581 212.918C69.1118 212.625 69.2268 212.275 69.4933 212.129L69.6082 212.04L69.7859 211.951L69.9583 211.862L70.1621 211.747L70.3397 211.659L70.5174 211.57L70.5122 211.575ZM66.5725 213.968C66.8076 213.764 67.1577 213.853 67.3301 214.114C67.5077 214.376 67.445 214.757 67.1838 214.93L67.1524 214.961L67.0061 215.076L66.8285 215.191L66.6822 215.28L66.5359 215.395L66.3582 215.51L66.2694 215.598C66.0343 215.776 65.6842 215.713 65.5118 215.452C65.308 215.191 65.3655 214.841 65.6267 214.637L65.7155 214.579L65.8618 214.465L66.0343 214.318L66.2119 214.203L66.3582 214.088L66.5359 213.973H66.5672L66.5725 213.968ZM62.9828 216.889C63.218 216.685 63.568 216.711 63.7718 216.946C63.9756 217.182 63.9442 217.558 63.7405 217.762L63.7091 217.788L63.5628 217.903L63.4479 218.049L63.3016 218.195L63.1553 218.31L63.0089 218.456L62.9201 218.545C62.685 218.78 62.3349 218.78 62.1311 218.545C61.9274 218.31 61.9274 217.934 62.1311 217.699L62.2461 217.61L62.3924 217.464L62.5387 217.317L62.685 217.171L62.8313 217.025L62.9776 216.91V216.878L62.9828 216.889ZM59.8321 220.332C60.0359 220.097 60.386 220.071 60.6211 220.275C60.8562 220.479 60.8823 220.86 60.6786 221.09L60.5897 221.21L60.4748 221.388L60.3598 221.534L60.2449 221.68L60.1299 221.827L60.015 222.004C59.8112 222.266 59.4611 222.297 59.226 222.093C58.9647 221.921 58.9334 221.539 59.111 221.278H59.1424L59.2573 221.1L59.3723 220.954L59.4873 220.782L59.6022 220.635L59.7171 220.489L59.8321 220.343V220.332ZM57.2352 260.544C57.0576 260.252 57.1464 259.902 57.4077 259.729C57.6689 259.552 58.019 259.641 58.1653 259.902L58.2541 260.017L58.343 260.194L58.4579 260.372L58.5467 260.518L58.6617 260.691L58.7766 260.868C58.9543 261.13 58.8916 261.511 58.6303 261.684C58.3691 261.856 58.019 261.799 57.8413 261.537L57.7264 261.36L57.6376 261.182L57.5226 261.01L57.4077 260.832L57.2927 260.659L57.2352 260.544ZM59.9209 264.395C59.7171 264.134 59.7433 263.753 59.9784 263.549C60.2135 263.345 60.5636 263.371 60.7674 263.606L60.8562 263.727L60.9712 263.873L61.1175 264.019L61.2324 264.165L61.3474 264.312L61.4937 264.458V264.489C61.6975 264.725 61.6975 265.101 61.4623 265.336C61.2272 265.54 60.8771 265.54 60.6733 265.278H60.642L60.527 265.106L60.3807 264.96L60.2658 264.813L60.1195 264.636L60.0045 264.489L59.9157 264.401L59.9209 264.395ZM63.0978 267.813C62.8626 267.577 62.8365 267.227 63.0403 266.966C63.2441 266.731 63.5942 266.705 63.8293 266.935L63.8868 266.966L64.0331 267.112L64.1794 267.227L64.3257 267.374L64.472 267.489L64.6183 267.604L64.6758 267.661C64.9109 267.865 64.937 268.246 64.7646 268.507C64.5608 268.737 64.2107 268.8 63.9756 268.565L63.8868 268.507L63.7405 268.393L63.5942 268.246L63.4479 268.131L63.3016 267.985L63.1553 267.87L63.0978 267.813ZM66.6874 270.728C66.4262 270.556 66.3687 270.174 66.5411 269.913C66.7188 269.652 67.0636 269.563 67.2987 269.735H67.3301L67.4764 269.85L67.6227 269.965L67.8003 270.054L67.9466 270.169L68.1243 270.284L68.2393 270.341C68.5005 270.514 68.5893 270.895 68.4117 271.157C68.2654 271.449 67.9153 271.538 67.654 271.36L67.5077 271.272L67.3614 271.157L67.1838 271.042L67.0375 270.953L66.8598 270.838L66.6822 270.723L66.6874 270.728ZM70.6585 273.095C70.3659 272.949 70.2509 272.599 70.3659 272.306C70.5122 272.014 70.8309 271.899 71.1235 272.014L71.2384 272.071L71.4161 272.16L71.5624 272.249L71.7401 272.337L71.9177 272.426L72.0954 272.484L72.1267 272.515C72.4193 272.63 72.5343 272.98 72.4193 273.273C72.3044 273.565 71.9804 273.712 71.6878 273.591L71.6565 273.56L71.4788 273.471L71.3064 273.382L71.1026 273.325L70.9302 273.236L70.7525 273.147L70.6637 273.09L70.6585 273.095ZM74.8594 274.846C74.5668 274.757 74.4205 274.407 74.5093 274.114C74.5982 273.795 74.9169 273.618 75.2095 273.733H75.267L75.4394 273.79L75.6171 273.848L75.7947 273.905L75.9671 273.962L76.1709 274.02L76.2597 274.046C76.5524 274.135 76.7248 274.454 76.6412 274.778C76.5523 275.07 76.2597 275.274 75.9671 275.185L75.8522 275.154L75.6798 275.096L75.476 275.039L75.3036 274.981L75.1311 274.924L74.9274 274.866L74.8699 274.835L74.8594 274.846ZM79.2642 275.953C78.9716 275.922 78.7678 275.603 78.8253 275.279C78.8566 274.96 79.144 274.757 79.4679 274.814H79.4993L79.677 274.846L79.8807 274.877L80.0584 274.908L80.2622 274.934L80.4346 274.966H80.5495C80.8421 275.023 81.0773 275.316 81.0146 275.635C80.9832 275.958 80.6958 276.188 80.4032 276.131H80.2883L80.0845 276.105L79.8807 276.073L79.7083 276.042L79.5045 276.011L79.3007 275.979L79.2694 275.948L79.2642 275.953ZM83.7891 276.418C83.4965 276.418 83.2352 276.126 83.2666 275.807C83.2666 275.483 83.5278 275.222 83.8204 275.253H84.9281C85.2208 275.253 85.482 275.514 85.482 275.838C85.482 276.162 85.2469 276.424 84.9281 276.424H83.7891V276.418ZM88.3401 276.188C88.0162 276.246 87.7549 276.016 87.6974 275.692C87.6661 275.368 87.9012 275.081 88.1938 275.023H88.3663L88.5439 274.992L88.7477 274.96L88.9515 274.929L89.1552 274.903L89.2702 274.872C89.5889 274.814 89.8815 275.044 89.9129 275.368C89.9704 275.692 89.7666 275.979 89.4478 276.042L89.3015 276.073L89.0978 276.105L88.894 276.131L88.6902 276.162L88.4864 276.194H88.3401V276.188ZM92.8076 275.311C92.4888 275.399 92.1962 275.222 92.1074 274.903C92.0186 274.579 92.2224 274.26 92.515 274.171L92.6926 274.114L92.8703 274.083L93.0741 274.025L93.2778 273.968L93.4555 273.91L93.5704 273.853C93.863 273.764 94.1818 273.942 94.2706 274.26C94.3594 274.579 94.1818 274.903 93.8892 274.992L93.7742 275.023L93.5704 275.081L93.3667 275.169L93.1629 275.227L92.9852 275.253L92.8128 275.311H92.8076ZM97.0974 273.795C96.8048 273.91 96.486 273.764 96.3658 273.471C96.2509 273.179 96.3659 272.829 96.6585 272.714L96.8048 272.656L96.9824 272.567L97.1601 272.479L97.3638 272.39L97.5415 272.301L97.6878 272.243C97.949 272.097 98.2991 272.243 98.4193 272.536C98.5343 272.829 98.4193 273.179 98.1581 273.294L97.9804 273.382L97.808 273.471L97.6355 273.56L97.4318 273.649L97.2541 273.738L97.1078 273.795H97.0974ZM101.152 271.632C100.891 271.805 100.541 271.721 100.394 271.428C100.222 271.167 100.306 270.786 100.567 270.639L100.598 270.608L100.776 270.493L100.953 270.404L101.1 270.289L101.277 270.2L101.424 270.085L101.513 270.028C101.774 269.85 102.124 269.939 102.302 270.2C102.448 270.462 102.39 270.843 102.129 271.016L102.04 271.073L101.863 271.188L101.685 271.303L101.539 271.392L101.361 271.507L101.183 271.622H101.152V271.632ZM104.888 268.92C104.653 269.124 104.303 269.098 104.099 268.831C103.895 268.57 103.953 268.22 104.188 268.011L104.219 267.985L104.365 267.839L104.512 267.724L104.658 267.609L104.804 267.462L104.951 267.348L105.039 267.259C105.275 267.055 105.625 267.081 105.828 267.316C106.032 267.577 106.001 267.928 105.771 268.163L105.682 268.22L105.536 268.366L105.358 268.513L105.212 268.628L105.066 268.774L104.919 268.889L104.888 268.92ZM108.216 265.649C108.013 265.911 107.662 265.911 107.427 265.707C107.192 265.472 107.192 265.096 107.396 264.86L107.511 264.714L107.657 264.568L107.772 264.421L107.892 264.275L108.039 264.129L108.128 264.014C108.331 263.753 108.681 263.721 108.916 263.956C109.152 264.16 109.178 264.542 108.974 264.772L108.859 264.918L108.744 265.064L108.598 265.21L108.483 265.357L108.337 265.503L108.222 265.649H108.216ZM111.074 261.945C110.902 262.206 110.552 262.295 110.285 262.091C110.05 261.919 109.993 261.537 110.171 261.276L110.228 261.187L110.343 261.015L110.432 260.868L110.547 260.691L110.662 260.518L110.75 260.372L110.782 260.341C110.954 260.048 111.278 259.991 111.539 260.163C111.801 260.341 111.89 260.691 111.717 260.952L111.686 261.01L111.597 261.182L111.482 261.328L111.367 261.506L111.252 261.684L111.163 261.856L111.074 261.945ZM113.441 257.859C113.295 258.151 112.945 258.266 112.684 258.12C112.391 257.974 112.302 257.624 112.449 257.331V257.274L112.537 257.096L112.626 256.924L112.715 256.746L112.804 256.573L112.861 256.396L112.919 256.281C113.065 255.988 113.384 255.873 113.677 256.02C113.938 256.135 114.058 256.485 113.938 256.777L113.88 256.892L113.791 257.096L113.703 257.274L113.614 257.451L113.525 257.624L113.436 257.827V257.859H113.441ZM115.218 253.454C115.103 253.773 114.81 253.95 114.518 253.835C114.225 253.721 114.053 253.397 114.168 253.078L114.225 252.905L114.283 252.728L114.34 252.55L114.398 252.346L114.455 252.169L114.486 251.996C114.575 251.672 114.894 251.5 115.187 251.589C115.479 251.709 115.652 252.028 115.568 252.346L115.511 252.519L115.453 252.696L115.396 252.9L115.338 253.104L115.281 253.276L115.223 253.449L115.218 253.454ZM116.388 248.84C116.331 249.159 116.038 249.363 115.746 249.305C115.453 249.248 115.249 248.924 115.307 248.637L115.338 248.49L115.369 248.286L115.401 248.083L115.432 247.879L115.464 247.706L115.495 247.503C115.552 247.179 115.845 246.949 116.138 247.006C116.456 247.038 116.66 247.356 116.603 247.68L116.571 247.884L116.54 248.088L116.509 248.292L116.477 248.495L116.42 248.699L116.388 248.846V248.84ZM116.968 244.085C116.937 244.436 116.676 244.671 116.357 244.671C116.064 244.639 115.829 244.378 115.829 244.059L115.861 243.887V243.072L115.892 242.894C115.892 242.575 116.127 242.309 116.446 242.309C116.765 242.309 117 242.57 117 242.92V243.302L116.968 243.537V244.091V244.085ZM116.885 239.331C116.916 239.649 116.681 239.916 116.357 239.942C116.064 239.973 115.772 239.738 115.772 239.414L115.74 239.383V239.179L115.709 238.975L115.678 238.772V238.568L115.646 238.333V238.275C115.589 237.956 115.819 237.664 116.111 237.606C116.43 237.575 116.697 237.81 116.723 238.129L116.754 238.218L116.785 238.421V238.625L116.817 238.86L116.848 239.064L116.88 239.268V239.325L116.885 239.331ZM116.153 234.602C116.211 234.926 116.038 235.213 115.746 235.302C115.453 235.36 115.134 235.187 115.077 234.863V234.832L115.019 234.628L114.962 234.424L114.931 234.221L114.873 233.985L114.816 233.782V233.724C114.727 233.432 114.904 233.108 115.197 233.024C115.49 232.935 115.808 233.113 115.897 233.432V233.489L115.955 233.693L116.012 233.928L116.07 234.132L116.101 234.336L116.158 234.571V234.597L116.153 234.602ZM114.842 230.02C114.931 230.312 114.784 230.662 114.523 230.777C114.23 230.892 113.912 230.746 113.791 230.453L113.76 230.396L113.703 230.218L113.645 230.014L113.556 229.811L113.468 229.638L113.41 229.434L113.379 229.377C113.259 229.084 113.379 228.734 113.671 228.588C113.964 228.473 114.283 228.619 114.403 228.912L114.434 229.001L114.523 229.204L114.58 229.382L114.669 229.586L114.758 229.79L114.816 229.993L114.847 230.025L114.842 230.02ZM112.914 225.672C113.06 225.965 112.971 226.315 112.679 226.487C112.417 226.634 112.067 226.545 111.921 226.252L111.863 226.137L111.775 225.965L111.686 225.787L111.571 225.615L111.482 225.437L111.393 225.26H111.362C111.216 224.967 111.304 224.617 111.566 224.444C111.827 224.272 112.177 224.356 112.323 224.648L112.438 224.826L112.527 225.03L112.642 225.202L112.731 225.374L112.82 225.552L112.908 225.667L112.914 225.672ZM110.432 221.675C110.609 221.936 110.547 222.318 110.317 222.49C110.082 222.694 109.732 222.668 109.528 222.401L109.439 222.281L109.324 222.104L109.209 221.957L109.094 221.785L108.979 221.639L108.864 221.492C108.66 221.231 108.687 220.85 108.953 220.646C109.188 220.442 109.538 220.473 109.711 220.735H109.742L109.857 220.912L109.972 221.059L110.087 221.236L110.202 221.383L110.348 221.56L110.437 221.675H110.432ZM107.427 218.085C107.662 218.321 107.662 218.671 107.427 218.901C107.224 219.136 106.873 219.136 106.638 218.932L106.581 218.843L106.435 218.697L106.288 218.551L106.173 218.436L106.027 218.289L105.881 218.143L105.849 218.117C105.614 217.913 105.614 217.532 105.818 217.302C106.022 217.067 106.372 217.04 106.607 217.276L106.638 217.302L106.785 217.448L106.931 217.563L107.077 217.709L107.224 217.856L107.339 218.002L107.427 218.091V218.085ZM103.984 214.961C104.245 215.165 104.277 215.515 104.099 215.781C103.921 216.042 103.571 216.1 103.31 215.896L103.279 215.865L103.132 215.75L102.986 215.63L102.84 215.515L102.662 215.4L102.516 215.285L102.427 215.227C102.166 215.055 102.108 214.674 102.281 214.412C102.458 214.151 102.808 214.094 103.07 214.266L103.158 214.323L103.305 214.438L103.482 214.585L103.629 214.7L103.801 214.815L103.947 214.93L103.979 214.961H103.984ZM100.159 212.364C100.452 212.542 100.541 212.892 100.394 213.184C100.248 213.446 99.898 213.566 99.6367 213.419L99.4904 213.331L99.3441 213.242L99.1717 213.153L98.9941 213.038L98.8478 212.949L98.6701 212.86C98.3775 212.714 98.2887 212.364 98.4089 212.071C98.5552 211.779 98.9052 211.664 99.1665 211.81L99.3389 211.899L99.5113 212.014L99.689 212.103L99.8667 212.192L100.013 212.28L100.159 212.369V212.364ZM96.0471 210.378C96.3397 210.493 96.486 210.817 96.3658 211.136C96.277 211.429 95.9583 211.575 95.6657 211.46L95.5769 211.429L95.4044 211.371L95.2268 211.282L95.023 211.225L94.8454 211.167L94.6677 211.11L94.6102 211.084C94.3176 210.995 94.1713 210.645 94.2601 210.352C94.3751 210.028 94.6677 209.856 94.9603 209.971L95.0491 210.002L95.2216 210.06L95.3992 210.117L95.603 210.206L95.7806 210.264L95.9583 210.321L96.0471 210.378ZM91.6999 209.01C91.9925 209.067 92.1962 209.391 92.1388 209.71C92.0499 210.002 91.7573 210.206 91.4647 210.149L91.4073 210.122L91.2348 210.091L91.031 210.06L90.8586 210.002L90.681 209.971L90.4772 209.94L90.3884 209.908C90.0958 209.851 89.892 209.532 89.9494 209.208C90.0069 208.884 90.2995 208.68 90.5921 208.743L90.7071 208.774L90.8847 208.806L91.0885 208.863L91.2662 208.895L91.47 208.952L91.6737 208.978L91.7051 209.01H91.6999ZM87.2063 208.278C87.525 208.309 87.7601 208.571 87.7288 208.921C87.6974 209.245 87.4362 209.475 87.1175 209.448H87.0861L86.8823 209.422H86.7047L86.5009 209.391H86.0359C85.7171 209.36 85.482 209.098 85.5081 208.78C85.5081 208.43 85.7694 208.194 86.0933 208.194H86.1822L86.386 208.226H86.5636L86.7674 208.257H86.9712L87.1749 208.288H87.2063V208.278ZM82.6814 208.221C82.974 208.221 83.2352 208.456 83.2666 208.774C83.2979 209.093 83.0628 209.386 82.7388 209.417H82.4462L82.2425 209.443H82.0387L81.8349 209.475L81.6625 209.506C81.3385 209.537 81.0773 209.302 81.0511 208.978C81.0198 208.628 81.2549 208.367 81.5475 208.336L81.7513 208.304L81.9551 208.273H82.1589L82.3626 208.241H82.5664L82.6814 208.21V208.221ZM84.3429 188.203C84.2541 188.261 84.1392 188.261 84.0503 188.172C83.9929 188.083 83.9929 187.937 84.0817 187.853H84.113L84.1444 187.822V187.79L84.1757 187.759H84.2071L84.2384 187.728L84.2698 187.696L84.3011 187.665L84.3325 187.634H84.3638L84.3952 187.602L84.4265 187.571H84.4579L84.4892 187.54C84.5781 187.451 84.693 187.482 84.7818 187.571C84.8393 187.686 84.8132 187.806 84.7244 187.89H84.693L84.6617 187.921L84.6303 187.952H84.599V187.984L84.5676 188.015L84.5363 188.047H84.5049L84.4736 188.078L84.4422 188.109H84.4109L84.3795 188.141V188.172L84.3482 188.203H84.3429ZM83.4965 188.496C83.554 188.407 83.6689 188.376 83.7577 188.465C83.8466 188.553 83.8727 188.668 83.7891 188.757L83.7577 188.783V188.815L83.7264 188.846L83.695 188.877V188.903H83.6637L83.6323 188.935V188.966L83.601 188.997L83.5696 189.029V189.06L83.5383 189.092C83.4808 189.206 83.3345 189.206 83.2457 189.149C83.1568 189.06 83.1307 188.945 83.2143 188.856V188.825L83.2457 188.794V188.768L83.277 188.736L83.3084 188.71V188.679L83.3397 188.653L83.3711 188.621L83.4024 188.595L83.4338 188.564L83.4651 188.538L83.4965 188.506V188.496ZM82.7702 189.572C82.8277 189.483 82.9426 189.426 83.0628 189.483C83.1516 189.541 83.1778 189.687 83.1516 189.776L83.1203 189.807V189.839L83.0889 189.87V189.901L83.0576 189.933V189.964L83.0262 189.99V190.022L82.9949 190.053V190.11L82.9635 190.142V190.168C82.9322 190.283 82.7859 190.314 82.7023 190.283C82.5873 190.225 82.556 190.11 82.5873 189.99L82.6187 189.964V189.907L82.65 189.875V189.844L82.6814 189.813V189.781L82.7127 189.75V189.719L82.7441 189.687V189.656L82.7754 189.625V189.567L82.7702 189.572ZM82.3313 190.826C82.3626 190.711 82.4776 190.654 82.5925 190.68C82.6814 190.711 82.7702 190.826 82.7388 190.941H82.7075V191.056L82.6761 191.088V191.202L82.6448 191.234V191.323C82.6134 191.438 82.5298 191.526 82.4097 191.495C82.2947 191.495 82.232 191.38 82.232 191.26V191.229L82.2634 191.171V191.056L82.2947 191.025V190.91L82.3261 190.879V190.821L82.3313 190.826ZM82.185 192.143C82.185 192.028 82.2738 191.939 82.3888 191.939C82.4776 191.939 82.5612 192.028 82.5612 192.143V192.378L82.5925 192.404V192.551C82.5925 192.665 82.5037 192.786 82.3888 192.786C82.2738 192.786 82.185 192.697 82.185 192.582V192.143ZM82.2999 193.454C82.2686 193.34 82.3313 193.251 82.4462 193.219C82.5612 193.188 82.6814 193.251 82.6814 193.366L82.7127 193.397V193.486L82.7441 193.517V193.606L82.7754 193.637V193.695L82.8068 193.726V193.784C82.8381 193.899 82.7754 194.019 82.6605 194.045C82.5716 194.076 82.4567 194.014 82.4253 193.899L82.394 193.867V193.778L82.3626 193.747V193.69L82.3313 193.658V193.543L82.2999 193.512V193.454ZM82.7075 194.708C82.65 194.62 82.7075 194.473 82.7963 194.447C82.9113 194.39 83.0315 194.416 83.0889 194.536V194.567L83.1203 194.599V194.63L83.1516 194.661V194.693L83.183 194.724V194.756L83.2143 194.787V194.818L83.2457 194.85V194.881L83.277 194.912C83.3345 195.027 83.3084 195.147 83.1882 195.205C83.0994 195.262 82.9844 195.236 82.9269 195.147L82.8956 195.116V195.085L82.8642 195.059V195.027L82.8329 194.97V194.938L82.8015 194.907L82.7702 194.876V194.844L82.7388 194.813V194.782L82.7075 194.75V194.719V194.708ZM83.3815 195.848C83.3241 195.759 83.3241 195.612 83.4129 195.529C83.5017 195.471 83.648 195.471 83.7055 195.56L83.7368 195.592V195.623L83.7682 195.654L83.7995 195.686L83.8309 195.717V195.748H83.8622L83.8936 195.78V195.806L83.9249 195.837L83.9563 195.863L83.9876 195.895C84.0765 195.983 84.0451 196.13 83.9876 196.187C83.8988 196.276 83.7839 196.276 83.695 196.187L83.6637 196.156L83.6323 196.125L83.601 196.093L83.5696 196.067V196.036L83.5383 196.004L83.5069 195.973L83.4756 195.947L83.4442 195.915V195.889L83.4129 195.858H83.3815V195.848ZM84.2855 196.751C84.1966 196.694 84.1966 196.548 84.2541 196.459C84.3116 196.37 84.4579 196.344 84.5467 196.428L84.5781 196.459L84.6094 196.485L84.6408 196.516H84.6721L84.7035 196.543H84.7348L84.7662 196.574L84.7975 196.6L84.8289 196.631L84.8602 196.657H84.8916C84.9804 196.715 85.0065 196.861 84.9491 196.95C84.8916 197.039 84.7453 197.065 84.6565 197.008L84.6251 196.976H84.5937L84.5624 196.945L84.531 196.913L84.4997 196.882H84.4683L84.437 196.851L84.4056 196.819H84.3743L84.3429 196.788L84.3116 196.757L84.2802 196.731L84.2855 196.751ZM85.3671 197.452C85.2782 197.394 85.2208 197.274 85.2782 197.159C85.3096 197.044 85.4559 197.013 85.5395 197.044L85.5708 197.075H85.6022L85.6335 197.107H85.6649L85.6962 197.138H85.7537L85.7851 197.17H85.8164L85.8478 197.201H85.9052V197.227C86.0202 197.258 86.0829 197.373 86.0515 197.488C85.9941 197.603 85.8739 197.666 85.7903 197.603H85.7328L85.7015 197.572H85.6701L85.6388 197.54H85.5813L85.5499 197.509H85.5186L85.4872 197.478H85.4559L85.4245 197.446H85.3671V197.452ZM86.5897 197.833C86.4748 197.833 86.386 197.718 86.4121 197.598C86.4434 197.483 86.527 197.394 86.6472 197.426H86.7047L86.736 197.457H86.8823L86.9137 197.488H87.0286C87.1436 197.52 87.2324 197.603 87.2063 197.723C87.2063 197.838 87.1175 197.927 87.0025 197.927H86.945L86.9137 197.896H86.7674L86.736 197.864H86.5897V197.833ZM87.8437 197.948C87.7288 197.948 87.6086 197.859 87.6086 197.744C87.6086 197.629 87.6974 197.509 87.8124 197.509H88.0736L88.105 197.478H88.1938C88.3088 197.478 88.429 197.535 88.429 197.655C88.429 197.776 88.3715 197.891 88.2565 197.917H87.9953L87.9639 197.948H87.849H87.8437ZM89.0716 197.744C88.9567 197.776 88.8679 197.713 88.8365 197.598C88.8052 197.483 88.8679 197.363 88.9515 197.337L88.9828 197.305H89.0716L89.103 197.274H89.1605L89.1918 197.243H89.2493L89.2806 197.211H89.312L89.3433 197.185C89.4583 197.154 89.5785 197.211 89.6046 197.331C89.636 197.42 89.5732 197.567 89.4896 197.593L89.4322 197.624H89.3747L89.3433 197.655H89.2859L89.2545 197.687H89.2232L89.1918 197.718H89.1343L89.103 197.749H89.0716V197.744ZM90.2368 197.217C90.148 197.274 90.0331 197.248 89.9756 197.159C89.9181 197.044 89.9442 196.924 90.0331 196.866L90.0644 196.835H90.0958L90.1271 196.804H90.1585L90.1898 196.772L90.2212 196.746H90.2525V196.715H90.2839L90.3152 196.684L90.3466 196.652H90.3779L90.4093 196.626C90.4981 196.569 90.613 196.595 90.6705 196.684C90.728 196.799 90.728 196.919 90.613 196.976V197.008L90.5817 197.039H90.5503L90.519 197.07L90.4876 197.102H90.4563L90.4249 197.133L90.3936 197.164H90.3622L90.3309 197.196H90.2995L90.2682 197.222H90.2368V197.217ZM91.261 196.459C91.1721 196.548 91.0572 196.516 90.9683 196.428C90.9109 196.339 90.9109 196.224 90.9997 196.135L91.031 196.104V196.072H91.0624L91.0937 196.046L91.1251 196.015L91.1564 195.983V195.952L91.1878 195.926H91.2192L91.2505 195.895L91.2818 195.868V195.837L91.5745 196.13V196.161L91.5431 196.192L91.5118 196.224L91.4804 196.255L91.4491 196.286L91.4177 196.318L91.3863 196.349L91.355 196.375L91.3237 196.407L91.2923 196.433L91.261 196.464V196.459ZM91.261 195.848L91.5536 196.14C91.6424 196.051 91.6424 195.936 91.5536 195.848C91.4647 195.759 91.3498 195.759 91.261 195.848ZM92.0761 195.466C92.0186 195.555 91.8984 195.581 91.8148 195.497C91.726 195.44 91.6999 195.32 91.7573 195.205L91.7887 195.174V195.147L91.82 195.116V195.085H91.8514L91.8827 195.053V195.027L91.9141 194.996V194.965L91.9454 194.933V194.902L91.9768 194.87V194.839C92.0343 194.75 92.1544 194.724 92.2694 194.782C92.3582 194.839 92.3843 194.954 92.3269 195.074L92.2955 195.106V195.137L92.2642 195.163V195.194L92.2328 195.226L92.2015 195.257V195.283L92.1701 195.315L92.1388 195.346V195.377L92.1074 195.409V195.44L92.0761 195.471V195.466ZM92.6926 194.27C92.6351 194.385 92.515 194.442 92.4314 194.385C92.3164 194.353 92.2589 194.238 92.3164 194.123V194.066L92.3478 194.034V193.977L92.3791 193.946V193.888L92.4105 193.857V193.799L92.4418 193.768V193.737C92.4732 193.622 92.5881 193.564 92.6769 193.59C92.7919 193.622 92.8494 193.737 92.8232 193.852V193.909L92.7919 193.94V193.998L92.7605 194.029V194.087L92.7292 194.118V194.176L92.6978 194.207V194.264L92.6926 194.27ZM92.98 192.989C92.98 193.104 92.865 193.193 92.7449 193.162C92.656 193.162 92.5672 193.047 92.5672 192.927H92.5986V192.634L92.6299 192.603V192.514C92.6299 192.399 92.7187 192.31 92.8337 192.31C92.9486 192.336 93.0375 192.425 93.0375 192.545V192.603L93.0061 192.634V192.895L92.9748 192.953V192.979L92.98 192.989ZM93.0113 191.673C93.0113 191.788 92.9539 191.877 92.8389 191.908C92.724 191.908 92.6351 191.819 92.6038 191.704V191.532L92.5724 191.5V191.328L92.5411 191.297C92.5411 191.182 92.5986 191.061 92.7187 191.061C92.8337 191.03 92.9225 191.119 92.9539 191.239V191.27L92.9852 191.302V191.506L93.0166 191.537V191.683L93.0113 191.673ZM92.7501 190.361C92.7814 190.476 92.7187 190.596 92.6351 190.654C92.5202 190.685 92.4 190.622 92.3739 190.508L92.3425 190.476V190.419L92.3112 190.361V190.304L92.2798 190.272V190.241L92.2485 190.21V190.152L92.2171 190.126C92.1597 190.011 92.2171 189.891 92.3321 189.833C92.4209 189.802 92.5359 189.834 92.5933 189.948V190.006L92.6247 190.037V190.069L92.656 190.095V190.152L92.6874 190.184V190.215L92.7187 190.272V190.33L92.7501 190.361ZM92.1962 189.165C92.2537 189.28 92.2276 189.4 92.1388 189.457C92.0499 189.515 91.935 189.489 91.8775 189.4L91.8462 189.374V189.342L91.8148 189.316L91.7835 189.285V189.259L91.7521 189.227L91.7208 189.201L91.6894 189.17V189.144L91.6581 189.112L91.6267 189.081V189.05C91.5692 188.961 91.5692 188.846 91.6581 188.757C91.7469 188.7 91.8932 188.7 91.9507 188.815L91.982 188.846L92.0134 188.877L92.0447 188.903V188.935L92.0761 188.966L92.1074 188.997V189.029L92.1388 189.06L92.1701 189.092V189.123L92.2015 189.154V189.18L92.1962 189.165ZM91.4073 188.141C91.4961 188.229 91.4961 188.344 91.4073 188.433C91.3498 188.522 91.2035 188.522 91.146 188.433H91.1147L91.0833 188.402V188.37L91.0519 188.339H91.0206L90.9892 188.308L90.9579 188.276V188.245H90.9265L90.8952 188.214L90.8638 188.182L90.8325 188.151C90.7437 188.062 90.7175 187.947 90.8011 187.832C90.8586 187.743 91.0049 187.743 91.0937 187.832L91.1251 187.864L91.1564 187.895L91.1878 187.926H91.2192L91.2505 187.958L91.2818 187.989V188.02L91.3132 188.052L91.3445 188.083L91.3759 188.114H91.4073V188.146V188.141ZM90.4145 187.325C90.5033 187.383 90.5608 187.503 90.5033 187.618C90.4458 187.707 90.2995 187.733 90.2107 187.676H90.1794L90.148 187.644H90.1167L90.0853 187.613H90.054L90.0226 187.581L89.9912 187.55L89.9599 187.519H89.9286L89.8972 187.487H89.8397C89.7509 187.43 89.7248 187.284 89.7509 187.195C89.8084 187.08 89.9286 187.049 90.0435 187.08V187.111H90.0749L90.1062 187.143H90.1376L90.1689 187.174L90.2003 187.205H90.2316L90.263 187.237H90.2943L90.3257 187.268L90.357 187.299H90.3884L90.4197 187.331L90.4145 187.325ZM89.2754 186.772C89.3904 186.803 89.4531 186.918 89.3904 187.033C89.359 187.148 89.2441 187.205 89.1552 187.179H89.1239L89.0925 187.148H89.0351L89.0037 187.116H88.9462L88.9149 187.085H88.8261L88.7947 187.054H88.7634C88.6484 187.022 88.5857 186.907 88.6171 186.792C88.6484 186.678 88.732 186.62 88.8522 186.646H88.9097L88.941 186.678H88.9985L89.056 186.709H89.1134L89.1448 186.74H89.2023L89.2336 186.772H89.265H89.2754ZM88.0528 186.51C88.1416 186.51 88.2252 186.625 88.2252 186.745C88.2252 186.866 88.1102 186.949 87.99 186.949H87.9326L87.9012 186.918H87.6086C87.4937 186.918 87.4048 186.829 87.4048 186.714C87.4048 186.599 87.4937 186.51 87.6086 186.51H88.0475H88.0528ZM86.7674 186.568C86.8823 186.536 87.0025 186.625 87.0025 186.745C87.0339 186.86 86.945 186.981 86.8562 186.981H86.7987L86.7674 187.012H86.6524L86.6211 187.043H86.5323L86.5009 187.075H86.4434C86.3546 187.106 86.2397 187.017 86.2083 186.897C86.1769 186.808 86.2658 186.693 86.3546 186.662H86.386L86.4173 186.631H86.5061L86.5375 186.599H86.6263L86.6838 186.568H86.7726H86.7674ZM85.5708 186.918C85.6597 186.86 85.7746 186.918 85.8321 187.033C85.8634 187.148 85.8321 187.268 85.7171 187.294V187.325H85.6597L85.6283 187.357H85.597L85.5656 187.388H85.5343L85.5029 187.42H85.4716L85.4402 187.451H85.4089L85.3775 187.482H85.3462C85.2312 187.54 85.111 187.514 85.0849 187.393C85.0274 187.278 85.0536 187.158 85.1737 187.101L85.2051 187.069H85.2364L85.2678 187.038H85.2991L85.3305 187.007H85.3618L85.3932 186.975H85.4245L85.4559 186.944H85.4872L85.5186 186.913H85.5761L85.5708 186.918ZM105.938 174.806C105.823 174.895 105.646 174.895 105.557 174.749C105.442 174.634 105.468 174.456 105.588 174.341L105.619 174.31L105.651 174.284L105.682 174.252L105.74 174.226L105.771 174.195L105.802 174.169L105.834 174.111L105.891 174.08L105.923 174.049L105.954 174.017L106.011 173.986L106.043 173.954L106.074 173.923L106.132 173.892C106.246 173.803 106.424 173.834 106.513 173.949C106.628 174.096 106.57 174.273 106.455 174.388L106.424 174.414L106.393 174.446L106.335 174.472L106.304 174.503L106.273 174.529L106.241 174.561L106.184 174.592L106.152 174.623L106.121 174.655L106.09 174.686L106.058 174.717L106.001 174.749L105.97 174.78L105.938 174.811V174.806ZM104.742 175.214C104.857 175.099 105.034 175.067 105.149 175.188C105.264 175.276 105.264 175.48 105.181 175.595L105.149 175.621L105.118 175.679L105.087 175.71L105.055 175.741L105.024 175.773L104.992 175.804L104.961 175.862L104.93 175.893L104.898 175.924L104.867 175.956V176.013L104.836 176.045L104.804 176.076C104.716 176.191 104.543 176.222 104.423 176.133C104.277 176.018 104.25 175.841 104.365 175.694L104.397 175.637L104.428 175.611L104.459 175.579L104.491 175.522L104.522 175.496L104.554 175.465L104.585 175.407L104.616 175.381L104.648 175.35L104.679 175.292L104.71 175.266L104.742 175.235V175.214ZM103.749 176.76C103.838 176.614 104.01 176.557 104.13 176.614C104.277 176.703 104.334 176.875 104.277 177.022H104.245V177.079L104.214 177.11L104.183 177.142V177.199L104.151 177.231V177.288L104.12 177.319L104.089 177.351V177.408L104.057 177.44V177.497L104.026 177.528V177.56C103.968 177.706 103.791 177.764 103.644 177.706C103.498 177.649 103.441 177.471 103.498 177.325V177.293L103.529 177.236V177.204L103.561 177.147L103.592 177.116V177.058L103.623 177.027L103.655 176.969V176.938L103.686 176.881L103.718 176.849V176.792L103.749 176.76ZM103.138 178.485C103.169 178.338 103.341 178.223 103.488 178.281C103.634 178.312 103.723 178.459 103.691 178.631V178.662L103.66 178.72V178.809L103.629 178.835V178.924L103.597 178.981V179.096L103.566 179.153V179.185C103.535 179.357 103.388 179.477 103.247 179.446C103.101 179.415 102.986 179.242 103.012 179.096V178.981L103.043 178.955V178.866L103.075 178.809V178.72L103.106 178.662V178.573L103.138 178.516V178.485ZM102.902 180.324C102.902 180.146 103.049 180.031 103.195 180.031C103.341 180.031 103.488 180.178 103.488 180.324V180.909C103.488 181.081 103.373 181.202 103.226 181.228C103.08 181.228 102.934 181.113 102.934 180.935V180.815L102.902 180.758V180.319V180.324ZM103.08 182.163C103.049 182.017 103.169 181.839 103.315 181.813C103.462 181.782 103.608 181.87 103.634 182.048L103.665 182.079V182.168L103.697 182.2V182.288L103.728 182.346V182.435L103.759 182.466V182.524L103.791 182.555V182.612C103.848 182.759 103.759 182.936 103.618 182.994C103.472 183.02 103.3 182.936 103.268 182.79L103.237 182.764V182.675L103.205 182.644V182.586L103.174 182.529V182.503L103.143 182.445V182.356L103.111 182.299V182.21L103.08 182.179V182.163ZM103.665 183.913C103.608 183.767 103.665 183.595 103.812 183.532C103.958 183.443 104.104 183.501 104.193 183.647V183.678L104.224 183.736V183.767L104.256 183.799L104.287 183.856V183.887L104.318 183.945L104.35 183.976L104.381 184.008V184.065L104.412 184.096L104.444 184.128L104.475 184.185C104.533 184.331 104.507 184.504 104.36 184.593C104.214 184.682 104.041 184.624 103.979 184.478L103.947 184.446L103.916 184.389L103.885 184.358V184.3L103.853 184.269L103.822 184.211L103.791 184.18V184.122L103.759 184.091L103.728 184.034L103.697 184.002V183.945L103.665 183.913ZM104.627 185.486C104.512 185.371 104.538 185.162 104.658 185.079C104.773 184.964 104.951 184.99 105.066 185.11V185.141L105.097 185.173L105.128 185.199L105.16 185.262L105.191 185.288L105.248 185.319L105.28 185.345L105.311 185.403L105.343 185.434L105.374 185.465L105.405 185.491L105.437 185.523V185.549C105.552 185.664 105.552 185.842 105.437 185.956C105.322 186.071 105.144 186.071 105.029 185.956V185.93L104.998 185.899L104.94 185.873L104.909 185.842L104.878 185.784L104.846 185.758L104.815 185.727L104.783 185.669L104.752 185.643L104.721 185.612L104.689 185.554L104.632 185.528V185.497L104.627 185.486ZM105.881 186.772C105.766 186.683 105.734 186.479 105.823 186.364C105.912 186.218 106.116 186.218 106.231 186.307L106.262 186.338L106.293 186.369L106.325 186.401L106.382 186.427L106.414 186.458L106.445 186.484L106.476 186.516L106.508 186.547H106.565L106.597 186.578L106.628 186.61L106.659 186.641H106.691C106.806 186.73 106.868 186.934 106.779 187.08C106.691 187.195 106.518 187.252 106.372 187.169V187.137L106.314 187.106L106.283 187.075L106.252 187.043L106.194 187.012L106.163 186.981L106.132 186.949L106.074 186.918L106.043 186.887L106.011 186.855L105.98 186.824L105.923 186.792L105.891 186.761L105.881 186.772ZM107.396 187.733C107.25 187.676 107.192 187.498 107.25 187.325C107.307 187.179 107.485 187.122 107.631 187.179L107.662 187.211L107.72 187.242H107.751L107.783 187.273H107.84L107.871 187.305L107.903 187.336H107.96L107.992 187.367H108.023L108.08 187.399H108.112L108.143 187.43C108.289 187.461 108.378 187.634 108.316 187.811C108.258 187.958 108.08 188.047 107.934 187.984L107.903 187.952H107.871L107.814 187.921H107.783L107.751 187.89H107.694L107.662 187.858L107.605 187.827H107.574L107.516 187.796L107.485 187.764H107.427L107.396 187.733ZM109.063 188.287C108.916 188.256 108.828 188.109 108.859 187.937C108.89 187.79 109.037 187.676 109.178 187.702H109.235L109.293 187.733H109.408L109.439 187.764H109.585L109.617 187.796H109.705C109.878 187.827 109.967 187.968 109.967 188.114C109.935 188.292 109.82 188.407 109.648 188.376H109.502L109.444 188.344H109.329L109.272 188.313H109.157L109.099 188.282H109.068L109.063 188.287ZM110.813 188.433C110.667 188.433 110.552 188.318 110.521 188.141C110.521 187.963 110.636 187.848 110.813 187.822H111.132L111.163 187.79H111.341C111.487 187.759 111.634 187.879 111.66 188.052C111.691 188.198 111.571 188.344 111.398 188.37H111.31L111.278 188.402H110.986L110.954 188.433H110.808H110.813ZM112.564 188.141C112.417 188.172 112.245 188.083 112.214 187.937C112.182 187.764 112.271 187.618 112.417 187.555H112.475L112.506 187.524H112.537L112.595 187.493H112.626L112.684 187.461H112.715L112.746 187.43H112.804L112.835 187.399H112.893L112.924 187.367C113.07 187.31 113.243 187.399 113.306 187.545C113.363 187.691 113.274 187.864 113.128 187.926L113.07 187.958L113.039 187.989H112.982L112.95 188.02H112.893L112.861 188.052H112.804L112.773 188.083H112.715L112.684 188.114H112.626L112.595 188.146H112.564V188.141ZM114.199 187.446C114.053 187.503 113.88 187.477 113.818 187.325C113.729 187.179 113.786 187.007 113.906 186.918L113.938 186.887L113.969 186.855H114.027L114.058 186.824L114.089 186.792L114.147 186.761L114.178 186.73H114.209L114.241 186.698L114.298 186.667L114.33 186.636L114.361 186.604H114.392C114.539 186.489 114.711 186.547 114.8 186.662C114.889 186.808 114.831 186.981 114.711 187.101H114.68L114.648 187.132L114.591 187.163L114.56 187.195L114.502 187.226L114.471 187.258L114.439 187.289L114.382 187.32L114.351 187.352H114.293L114.262 187.383L114.23 187.414L114.199 187.446ZM115.625 186.333C115.511 186.448 115.333 186.448 115.218 186.333C115.103 186.213 115.129 186.009 115.249 185.894L115.281 185.868L115.312 185.836L115.343 185.81L115.375 185.779L115.406 185.753L115.437 185.721L115.495 185.664L115.526 185.638L115.558 185.606L115.589 185.58L115.62 185.549L115.652 185.523L116.059 185.93L116.028 185.956L115.996 185.988L115.965 186.014L115.908 186.071L115.876 186.103L115.845 186.129L115.814 186.16L115.782 186.218L115.751 186.249L115.693 186.28L115.662 186.312L115.631 186.343L115.625 186.333ZM115.625 185.518L116.033 185.925C116.148 185.779 116.148 185.601 116.033 185.486C115.918 185.371 115.74 185.397 115.625 185.518ZM116.765 184.964C116.676 185.079 116.503 185.11 116.383 185.021C116.237 184.932 116.211 184.76 116.294 184.614L116.326 184.582L116.357 184.525L116.388 184.493L116.42 184.462L116.451 184.405V184.373L116.482 184.342L116.514 184.284L116.545 184.253V184.222L116.576 184.164L116.608 184.133V184.102C116.697 183.981 116.869 183.924 116.989 184.013C117.136 184.07 117.193 184.274 117.104 184.42L117.073 184.478L117.041 184.509L117.01 184.567L116.979 184.598V184.655L116.947 184.687L116.916 184.718L116.885 184.776L116.853 184.807L116.822 184.864L116.791 184.896L116.759 184.927V184.958L116.765 184.964ZM117.585 183.297C117.554 183.443 117.381 183.532 117.235 183.469C117.089 183.412 117 183.234 117.057 183.088L117.089 183.057V182.999L117.12 182.973V182.915L117.151 182.884V182.827L117.183 182.801V182.743L117.214 182.712V182.623L117.245 182.592V182.534C117.303 182.388 117.449 182.299 117.595 182.33C117.742 182.388 117.83 182.565 117.799 182.712L117.768 182.743V182.858L117.736 182.884V182.942L117.705 182.973V183.03L117.674 183.062V183.119L117.642 183.177L117.611 183.208V183.266L117.58 183.297H117.585ZM118.019 181.52C118.019 181.667 117.872 181.782 117.7 181.756C117.554 181.756 117.439 181.609 117.465 181.437V181.379L117.496 181.322V181.061L117.527 181.029V180.852C117.527 180.705 117.674 180.559 117.82 180.59C117.966 180.59 118.113 180.737 118.081 180.914V181.176L118.05 181.207V181.442L118.019 181.5V181.526V181.52ZM118.081 179.65C118.081 179.827 117.966 179.974 117.82 179.974C117.648 180.005 117.527 179.885 117.501 179.713V179.566L117.47 179.509V179.336L117.439 179.279V179.164C117.407 178.991 117.496 178.845 117.674 178.814C117.82 178.782 117.966 178.871 117.992 179.049V179.164L118.024 179.195V179.399L118.055 179.43V179.634L118.086 179.665L118.081 179.65ZM117.7 177.842C117.757 177.988 117.668 178.161 117.522 178.223C117.376 178.281 117.203 178.192 117.141 178.046V177.988L117.109 177.931V177.899L117.078 177.842V177.811L117.047 177.753V177.722L117.015 177.664V177.633L116.984 177.602L116.953 177.544V177.487C116.895 177.34 116.953 177.168 117.099 177.105C117.245 177.048 117.392 177.105 117.449 177.252L117.48 177.283V177.314L117.512 177.372L117.543 177.403V177.461L117.574 177.492V177.549L117.606 177.607V177.638L117.637 177.696L117.668 177.727V177.784L117.7 177.816V177.847V177.842ZM116.942 176.18C117.031 176.295 116.974 176.504 116.853 176.588C116.707 176.677 116.535 176.619 116.446 176.499V176.442L116.414 176.41L116.383 176.379L116.352 176.321L116.32 176.29L116.289 176.259V176.201L116.258 176.17L116.226 176.139L116.195 176.081L116.164 176.05L116.132 176.018V175.987C116.043 175.872 116.043 175.668 116.19 175.579C116.305 175.491 116.482 175.522 116.571 175.637L116.603 175.668L116.634 175.7L116.665 175.757L116.697 175.788L116.728 175.82L116.759 175.877V175.909L116.791 175.966L116.822 175.997L116.853 176.055L116.885 176.086L116.916 176.118L116.947 176.175L116.942 176.18ZM115.829 174.717C115.944 174.832 115.944 175.036 115.829 175.156C115.714 175.271 115.537 175.271 115.422 175.156V175.125L115.39 175.094L115.359 175.062L115.302 175.031L115.27 175L115.239 174.968L115.207 174.937L115.176 174.905L115.145 174.848L115.113 174.817L115.082 174.785L115.025 174.754L114.993 174.723C114.878 174.634 114.878 174.43 114.962 174.315C115.077 174.2 115.255 174.169 115.369 174.284L115.401 174.315L115.432 174.341L115.49 174.372L115.521 174.399L115.552 174.43L115.584 174.456L115.615 174.514L115.673 174.545L115.704 174.576L115.735 174.608L115.767 174.639L115.798 174.696H115.829V174.717ZM114.429 173.584C114.575 173.672 114.607 173.845 114.544 173.991C114.455 174.137 114.283 174.195 114.136 174.111L114.105 174.08L114.074 174.049L114.016 174.017L113.985 173.986H113.953L113.896 173.954L113.865 173.923L113.833 173.892H113.802L113.744 173.86L113.713 173.829L113.682 173.798H113.65C113.504 173.74 113.447 173.536 113.535 173.39C113.593 173.244 113.771 173.186 113.917 173.275L113.974 173.307L114.006 173.333L114.063 173.364H114.095L114.126 173.39L114.183 173.422L114.215 173.448L114.272 173.479H114.304L114.335 173.51L114.392 173.542L114.424 173.573L114.429 173.584ZM112.825 172.821C112.971 172.852 113.06 173.024 113.029 173.202C112.971 173.348 112.825 173.437 112.647 173.375H112.616L112.584 173.343H112.553L112.496 173.317H112.407L112.375 173.286H112.344L112.287 173.26H112.198L112.166 173.228H112.135C111.957 173.202 111.874 173.024 111.9 172.878C111.931 172.7 112.104 172.617 112.25 172.643H112.308L112.339 172.674H112.396L112.428 172.706H112.517L112.574 172.737H112.605L112.663 172.768H112.694L112.752 172.8H112.783L112.814 172.831L112.825 172.821ZM111.106 172.444C111.278 172.476 111.398 172.622 111.367 172.763C111.367 172.941 111.221 173.056 111.074 173.056H110.986L110.928 173.03H110.521C110.374 173.03 110.228 172.883 110.228 172.737C110.228 172.559 110.374 172.418 110.521 172.444H111.106ZM109.355 172.528C109.502 172.497 109.648 172.617 109.674 172.763C109.705 172.941 109.585 173.087 109.439 173.113H109.324L109.293 173.145H109.204L109.173 173.171H109.026L108.995 173.202H108.906V173.228C108.728 173.26 108.587 173.139 108.556 172.993C108.525 172.821 108.613 172.674 108.76 172.643H108.791L108.822 172.612H108.88L108.911 172.58H109L109.058 172.549H109.204L109.235 172.518H109.35L109.355 172.528ZM107.662 173.03C107.809 172.941 107.955 173.03 108.013 173.176C108.07 173.322 108.013 173.5 107.866 173.557V173.589H107.809L107.777 173.62H107.746L107.689 173.651L107.657 173.683H107.626L107.568 173.714L107.537 173.745H107.48L107.448 173.777L107.417 173.808H107.359V173.84C107.213 173.897 107.041 173.84 106.978 173.693C106.921 173.547 106.978 173.369 107.093 173.286H107.124L107.156 173.254H107.213L107.244 173.228L107.302 173.197L107.333 173.171H107.365L107.422 173.139L107.453 173.113H107.511L107.542 173.082L107.6 173.056H107.657L107.662 173.03ZM109.355 178.981C110.113 178.338 111.252 178.427 111.863 179.242C112.506 180.031 112.391 181.196 111.628 181.87C110.897 182.539 109.758 182.424 109.146 181.635C108.504 180.846 108.619 179.65 109.35 178.981H109.355ZM100.656 182.074C100.771 182.774 100.948 183.443 101.183 184.086C101.418 184.76 101.711 185.397 102.061 185.983C102.176 186.155 102.15 186.39 102.03 186.536L99.6054 189.63L103.984 193.454L106.408 190.361C106.555 190.189 106.759 190.157 106.936 190.246C107.255 190.361 107.548 190.481 107.871 190.565C108.19 190.654 108.514 190.711 108.864 190.769C109.183 190.858 109.538 190.884 109.857 190.915C110.176 190.946 110.526 190.946 110.85 190.915C111.054 190.915 111.231 191.061 111.289 191.265L112.632 194.97L117.972 192.901L116.629 189.133C116.571 188.93 116.629 188.694 116.775 188.579C117.303 188.141 117.768 187.644 118.207 187.122C118.614 186.568 118.996 185.983 119.314 185.371C119.403 185.168 119.607 185.079 119.779 185.11L123.515 185.779L124.477 179.854L120.709 179.18C120.506 179.148 120.359 178.976 120.359 178.798C120.244 178.098 120.067 177.424 119.832 176.755C119.597 176.081 119.304 175.47 118.954 174.858C118.839 174.681 118.865 174.477 118.985 174.336L121.41 171.243L117.031 167.392L114.58 170.485C114.466 170.657 114.257 170.72 114.084 170.631C113.76 170.516 113.473 170.396 113.149 170.313C112.83 170.224 112.506 170.14 112.156 170.077C111.837 170.02 111.487 169.989 111.163 169.963C110.813 169.931 110.489 169.931 110.144 169.931C109.941 169.963 109.763 169.816 109.737 169.612L108.394 165.877L103.054 167.977L104.397 171.739C104.454 171.943 104.397 172.147 104.25 172.262C103.723 172.7 103.258 173.197 102.819 173.751C102.411 174.278 102.03 174.858 101.711 175.501C101.622 175.679 101.418 175.794 101.215 175.736L97.5101 175.062L96.5487 180.987L100.311 181.656C100.515 181.688 100.63 181.86 100.661 182.064L100.656 182.074ZM100.337 184.41C100.133 183.825 99.9555 183.182 99.8405 182.539L95.9583 181.839C95.7232 181.808 95.5769 181.547 95.6082 181.317L96.6898 174.461C96.7473 174.226 96.9824 174.054 97.2175 174.08L101.1 174.78C101.392 174.195 101.742 173.672 102.15 173.176C102.558 172.653 102.996 172.183 103.462 171.744L102.087 167.862C101.998 167.627 102.119 167.366 102.349 167.277L108.509 164.858C108.744 164.769 108.974 164.889 109.063 165.119L110.432 169.001C110.693 169.001 110.959 169.027 111.221 169.027C111.571 169.059 111.952 169.116 112.302 169.174C112.652 169.231 113.034 169.32 113.384 169.409C113.619 169.497 113.88 169.586 114.115 169.67L116.623 166.462C116.77 166.258 117.062 166.227 117.235 166.404L122.314 170.814C122.491 170.992 122.517 171.279 122.371 171.483L119.863 174.665C120.182 175.25 120.448 175.83 120.678 176.447C120.882 177.058 121.06 177.701 121.175 178.344L125.057 179.044C125.292 179.075 125.438 179.305 125.407 179.566L124.325 186.395C124.268 186.657 124.033 186.834 123.798 186.772L119.915 186.103C119.623 186.657 119.246 187.21 118.865 187.707C118.457 188.203 118.019 188.668 117.554 189.107L118.923 192.989C119.011 193.251 118.891 193.512 118.661 193.601L112.506 196.025C112.271 196.114 112.041 195.994 111.952 195.733L110.583 191.85C110.322 191.85 110.056 191.85 109.794 191.819C109.444 191.819 109.063 191.762 108.713 191.704C108.363 191.647 107.981 191.558 107.631 191.443C107.396 191.385 107.135 191.297 106.9 191.208L104.392 194.416C104.245 194.588 103.953 194.62 103.78 194.473L98.7015 190.037C98.5238 189.891 98.4977 189.598 98.644 189.395L101.152 186.186C100.833 185.633 100.567 185.047 100.337 184.405V184.41ZM87.06 190.915C87.7601 190.622 88.5491 190.946 88.8417 191.673C89.1343 192.373 88.8104 193.219 88.1416 193.512C87.4414 193.831 86.6524 193.512 86.3598 192.78C86.0672 192.054 86.3912 191.234 87.06 190.915ZM80.142 191.176C80.0845 191.699 80.0532 192.227 80.0845 192.749C80.142 193.303 80.2308 193.831 80.3458 194.327C80.4032 194.473 80.3458 194.646 80.2308 194.708L77.8377 196.401L80.2308 200.163L82.6239 198.471C82.7388 198.382 82.9165 198.413 83.0315 198.502C83.2091 198.68 83.4129 198.821 83.6167 198.967C83.8518 199.082 84.0556 199.228 84.2855 199.348C84.5206 199.469 84.7505 199.552 84.9856 199.672C85.2208 199.761 85.4507 199.85 85.7171 199.907C85.8634 199.939 85.9523 200.08 85.9523 200.226L86.156 203.231L90.4458 202.938L90.2682 199.902C90.2368 199.756 90.3257 199.61 90.472 199.552C90.937 199.348 91.3759 199.087 91.7835 198.795C92.2224 198.502 92.5986 198.183 92.9487 197.776C93.0636 197.687 93.2099 197.661 93.3301 197.718L95.9269 199.061L97.8236 194.975L95.2268 193.663C95.1118 193.575 95.023 193.428 95.0544 193.282C95.1118 192.754 95.1432 192.2 95.1118 191.704C95.0805 191.15 94.9969 190.622 94.8506 190.131C94.8192 189.985 94.8819 189.807 94.9969 189.724L97.3586 188.062L94.9655 184.269L92.5724 185.962C92.4575 186.051 92.2798 186.051 92.191 185.962C91.9872 185.789 91.7835 185.643 91.5797 185.497C91.3759 185.382 91.1408 185.235 90.9109 185.115C90.6757 185 90.4458 184.88 90.2107 184.797C89.9756 184.708 89.7457 184.624 89.4844 184.561C89.3381 184.53 89.2493 184.389 89.2493 184.211L89.0455 181.233L84.7557 181.526L84.9595 184.561C84.9595 184.708 84.8707 184.854 84.7244 184.911C84.2593 185.115 83.8204 185.35 83.4129 185.669C83.0053 185.962 82.5978 186.28 82.2477 186.662C82.1327 186.777 81.9864 186.808 81.8401 186.719L79.2746 185.408L77.3779 189.494L79.9748 190.805C80.1211 190.894 80.1786 191.04 80.1524 191.187L80.142 191.176ZM79.4418 192.812C79.4105 192.315 79.4105 191.819 79.4732 191.323L76.7875 189.954C76.6412 189.865 76.5523 189.661 76.6412 189.489L78.8305 184.791C78.9193 184.619 79.1231 184.53 79.2694 184.619L81.9551 185.988C82.279 185.669 82.6552 185.345 83.0367 185.084C83.4442 184.791 83.8518 184.561 84.2646 184.352L84.0921 181.228C84.0608 181.024 84.2071 180.878 84.3847 180.846L89.3433 180.496C89.5158 180.465 89.6934 180.611 89.6934 180.815L89.8972 183.94C90.0749 183.997 90.2786 184.055 90.4511 184.143C90.7123 184.232 90.9474 184.347 91.2087 184.493C91.4438 184.608 91.7051 184.755 91.9402 184.901C92.0865 185.016 92.2589 185.136 92.4052 185.251L94.8872 183.501C95.0335 183.386 95.2372 183.443 95.3522 183.59L98.1267 187.937C98.2155 188.114 98.1842 188.318 98.0379 188.433L95.556 190.184C95.6709 190.654 95.7284 191.145 95.7597 191.641C95.8172 192.138 95.7911 192.634 95.7597 193.131L98.4141 194.499C98.5917 194.588 98.6492 194.792 98.5604 194.965L96.3711 199.662C96.3136 199.84 96.1098 199.923 95.9322 199.84L93.2778 198.439C92.9277 198.789 92.5463 199.108 92.1701 199.369C91.7887 199.662 91.3811 199.897 90.9422 200.101L91.146 203.225C91.146 203.429 90.9997 203.575 90.8273 203.607L85.8687 203.957C85.691 203.957 85.5499 203.811 85.5186 203.633L85.3148 200.514C85.1372 200.456 84.9647 200.393 84.761 200.31C84.4997 200.221 84.2646 200.106 84.0033 199.96C83.7682 199.845 83.5069 199.698 83.2718 199.552C83.1255 199.437 82.9531 199.317 82.8068 199.202L80.3249 200.952C80.1786 201.067 79.9748 201.01 79.886 200.864L77.1114 196.516C76.9965 196.344 77.0226 196.135 77.2003 196.02L79.6508 194.27C79.5359 193.799 79.4732 193.308 79.447 192.807L79.4418 192.812ZM96.4286 165.38C96.5749 165.234 96.7786 165.234 96.9249 165.38C97.0399 165.526 97.0399 165.762 96.9249 165.908H96.8936L96.8048 166.023L96.7159 166.112L96.6271 166.2L96.5383 166.289L96.4494 166.378L96.4181 166.409C96.2979 166.556 96.068 166.556 95.9531 166.409C95.8068 166.295 95.8068 166.059 95.9217 165.913L95.9531 165.882L96.0419 165.793L96.1307 165.678L96.2195 165.589L96.3084 165.5L96.3972 165.411L96.4286 165.38ZM94.6729 167.454C94.7879 167.308 94.9917 167.282 95.138 167.397C95.2843 167.512 95.3156 167.747 95.1954 167.925L95.138 168.014L95.0805 168.102L94.9917 168.217L94.9342 168.306L94.8454 168.421L94.7879 168.479C94.6991 168.656 94.4692 168.682 94.3228 168.567C94.1765 168.452 94.1191 168.217 94.234 168.071L94.2915 167.982L94.3803 167.867L94.4378 167.778L94.5266 167.663L94.5841 167.575L94.6729 167.454ZM93.1002 169.931C93.189 169.754 93.4189 169.696 93.5652 169.785C93.7429 169.874 93.8003 170.104 93.7115 170.281L93.6802 170.313L93.6227 170.401L93.5652 170.516L93.5077 170.631L93.4503 170.746L93.3928 170.835L93.3614 170.924C93.2726 171.096 93.0688 171.159 92.8964 171.07C92.7501 170.981 92.6613 170.752 92.7501 170.574L92.8076 170.516L92.865 170.401L92.9225 170.286L92.98 170.166L93.0375 170.051L93.095 169.936L93.1002 169.931ZM91.8723 172.591C91.9611 172.418 92.1335 172.329 92.3373 172.387C92.5097 172.476 92.5986 172.68 92.5097 172.852V172.883L92.4784 172.998L92.4209 173.113L92.3896 173.202L92.3321 173.317L92.3007 173.432L92.2694 173.521C92.2119 173.725 92.0081 173.813 91.8305 173.756C91.6528 173.698 91.5379 173.463 91.6267 173.291L91.6581 173.202L91.6894 173.087L91.7469 172.972L91.7782 172.852L91.8357 172.706L91.8671 172.591H91.8723ZM91.0258 175.423C91.0572 175.219 91.261 175.099 91.4334 175.161C91.6058 175.193 91.726 175.397 91.6946 175.6L91.6633 175.689L91.6319 175.804L91.6006 175.919L91.5692 176.034V176.149L91.5379 176.264V176.295C91.4804 176.473 91.3028 176.619 91.1303 176.557C90.9265 176.525 90.8116 176.321 90.8691 176.149V176.003L90.9004 175.888L90.9318 175.773L90.9631 175.627L90.9945 175.512L91.0258 175.423ZM90.5608 178.338C90.5608 178.135 90.7332 177.988 90.9422 178.02C91.1146 178.02 91.2609 178.192 91.2348 178.401V178.573L91.2035 178.72V178.955L91.1721 179.07V179.127C91.1721 179.331 90.9997 179.477 90.822 179.446C90.6183 179.446 90.472 179.268 90.5033 179.065V178.772L90.5347 178.626V178.391L90.566 178.333L90.5608 178.338ZM90.472 181.285C90.472 181.081 90.6183 180.935 90.7907 180.904C90.9945 180.904 91.1408 181.076 91.1408 181.254V181.285L91.1721 181.4V181.75L91.2035 181.897V181.985C91.2035 182.189 91.0572 182.367 90.8847 182.367C90.681 182.393 90.5347 182.252 90.5033 182.043V181.808L90.472 181.693V181.285ZM100.044 198.476C99.898 198.387 99.8405 198.152 99.9294 197.979C100.044 197.807 100.248 197.744 100.426 197.864L100.483 197.896L100.598 197.985L100.687 198.042L100.802 198.1L100.891 198.157L101.006 198.215C101.152 198.329 101.241 198.538 101.121 198.711C101.032 198.889 100.828 198.946 100.656 198.857L100.541 198.8L100.452 198.742L100.337 198.653L100.222 198.596L100.133 198.538L100.044 198.481V198.476ZM102.552 199.845C102.375 199.756 102.291 199.552 102.375 199.348C102.432 199.176 102.636 199.087 102.814 199.176L102.902 199.207L102.991 199.265L103.106 199.296L103.221 199.354L103.336 199.385L103.425 199.442H103.456C103.634 199.531 103.718 199.735 103.66 199.907C103.571 200.111 103.367 200.2 103.195 200.111L103.08 200.08L102.965 200.022L102.85 199.965L102.735 199.934L102.62 199.876L102.563 199.845H102.552ZM105.212 200.806C105.034 200.775 104.919 200.571 104.977 200.367C105.008 200.163 105.212 200.049 105.384 200.106L105.442 200.137L105.557 200.169L105.646 200.2L105.761 200.231L105.875 200.263L105.99 200.294H106.048C106.226 200.352 106.341 200.555 106.309 200.733C106.252 200.937 106.074 201.052 105.87 201.026L105.813 200.994L105.698 200.963L105.583 200.932L105.468 200.9L105.353 200.869L105.238 200.838L105.207 200.806H105.212ZM107.955 201.391C107.777 201.36 107.636 201.188 107.662 200.984C107.694 200.78 107.866 200.665 108.044 200.665H108.075L108.164 200.696H108.279L108.394 200.728H108.509L108.624 200.759H108.739C108.916 200.79 109.058 200.963 109.031 201.167C109.031 201.37 108.854 201.517 108.65 201.485H108.561L108.446 201.454H108.331L108.216 201.423H108.101L107.986 201.391H107.955ZM110.782 201.569C110.578 201.569 110.432 201.423 110.432 201.219C110.4 201.015 110.578 200.838 110.75 200.838H111.304L111.419 200.806C111.623 200.806 111.801 200.952 111.801 201.156C111.801 201.36 111.654 201.538 111.482 201.538H111.336L111.221 201.569H110.782ZM113.582 201.334C113.379 201.365 113.201 201.219 113.175 201.015C113.144 200.811 113.264 200.634 113.468 200.608H113.499L113.614 200.576L113.729 200.545H113.844L113.959 200.514L114.074 200.482H114.131C114.309 200.425 114.481 200.571 114.539 200.775C114.57 200.947 114.45 201.156 114.246 201.182L114.189 201.214H114.074L113.959 201.245L113.844 201.276L113.729 201.308H113.614L113.582 201.339V201.334ZM116.326 200.665C116.122 200.723 115.944 200.608 115.887 200.43C115.829 200.226 115.918 200.022 116.122 199.965L116.237 199.934L116.352 199.902L116.467 199.845L116.582 199.813L116.697 199.782L116.754 199.751C116.927 199.693 117.136 199.782 117.193 199.986C117.25 200.158 117.162 200.367 116.958 200.425L116.9 200.456L116.785 200.514L116.671 200.545L116.556 200.576L116.441 200.634L116.326 200.665ZM118.954 199.61C118.781 199.698 118.572 199.61 118.489 199.432C118.4 199.254 118.489 199.024 118.666 198.936H118.698L118.787 198.878L118.902 198.821L119.017 198.763L119.105 198.706L119.22 198.648H119.252C119.429 198.559 119.633 198.617 119.717 198.795C119.806 198.972 119.748 199.202 119.57 199.291L119.539 199.317L119.424 199.374L119.309 199.432L119.194 199.489L119.079 199.547L118.99 199.578L118.959 199.61H118.954ZM121.404 198.183C121.227 198.298 121.023 198.241 120.939 198.068C120.824 197.896 120.851 197.687 121.028 197.572L121.117 197.514L121.206 197.457L121.321 197.368L121.41 197.311L121.525 197.222L121.582 197.164C121.755 197.049 121.964 197.107 122.078 197.253C122.193 197.426 122.136 197.661 121.99 197.776L121.901 197.833L121.812 197.891L121.697 197.979L121.582 198.037L121.493 198.126L121.404 198.183ZM123.651 196.401C123.505 196.516 123.27 196.516 123.155 196.37C123.04 196.192 123.04 195.989 123.186 195.842L123.275 195.754L123.364 195.665L123.479 195.576L123.568 195.487L123.656 195.398L123.714 195.367C123.829 195.221 124.064 195.221 124.179 195.367C124.325 195.513 124.325 195.748 124.179 195.889L124.121 195.947L124.033 196.036L123.918 196.125L123.829 196.213L123.74 196.302L123.651 196.391V196.401ZM125.637 194.301C125.522 194.447 125.287 194.479 125.14 194.332C124.994 194.217 124.994 193.982 125.109 193.836L125.166 193.747L125.255 193.658L125.344 193.543L125.402 193.454L125.49 193.366L125.548 193.277C125.663 193.131 125.898 193.104 126.044 193.219C126.191 193.334 126.217 193.569 126.102 193.742L126.013 193.831L125.955 193.92L125.867 194.04L125.778 194.129L125.689 194.217L125.632 194.306L125.637 194.301ZM127.33 191.939C127.241 192.112 127.011 192.174 126.865 192.054C126.687 191.939 126.661 191.704 126.75 191.558L126.781 191.526L126.839 191.411L126.896 191.323L126.953 191.208L127.011 191.093L127.068 191.004L127.126 190.946C127.215 190.769 127.418 190.711 127.591 190.8C127.737 190.915 127.795 191.15 127.706 191.323L127.675 191.38L127.617 191.469L127.528 191.584L127.471 191.699L127.413 191.814L127.356 191.903L127.324 191.934L127.33 191.939ZM128.704 189.337C128.615 189.515 128.411 189.598 128.239 189.515C128.066 189.426 128.004 189.222 128.066 189.05L128.098 189.018L128.129 188.903L128.187 188.788L128.244 188.674L128.275 188.559L128.333 188.47L128.364 188.381C128.422 188.203 128.625 188.12 128.803 188.203C128.976 188.261 129.064 188.496 129.007 188.668L128.976 188.726L128.918 188.841L128.861 188.956L128.829 189.071L128.772 189.186L128.714 189.301V189.327L128.704 189.337ZM129.691 186.568C129.634 186.772 129.456 186.887 129.252 186.829C129.075 186.772 128.991 186.568 129.017 186.364L129.075 186.249L129.106 186.134L129.138 186.019L129.169 185.904L129.2 185.789L129.232 185.7C129.263 185.497 129.467 185.382 129.639 185.439C129.843 185.471 129.932 185.674 129.9 185.878L129.869 185.967L129.838 186.113L129.806 186.228L129.749 186.348L129.718 186.463L129.686 186.578L129.691 186.568ZM130.308 183.678C130.277 183.882 130.104 184.028 129.927 183.997C129.754 183.966 129.608 183.762 129.634 183.59V183.501L129.665 183.386L129.697 183.271V183.124L129.728 183.004V182.858C129.759 182.654 129.932 182.534 130.109 182.534C130.313 182.565 130.459 182.738 130.428 182.942V182.973L130.397 183.088V183.234L130.365 183.349L130.334 183.464V183.61L130.303 183.668L130.308 183.678ZM130.569 180.731C130.569 180.935 130.392 181.113 130.219 181.113C130.015 181.081 129.869 180.935 129.869 180.731V180C129.869 179.796 130.015 179.65 130.188 179.65C130.392 179.618 130.538 179.796 130.569 180V180.731ZM130.392 177.784C130.423 177.988 130.303 178.166 130.099 178.192C129.927 178.223 129.749 178.077 129.718 177.873L129.686 177.758V177.643L129.655 177.523V177.408L129.623 177.262V177.173C129.566 176.969 129.712 176.766 129.885 176.734C130.088 176.703 130.266 176.849 130.292 177.053V177.168L130.324 177.283L130.355 177.398V177.544L130.386 177.664V177.779L130.392 177.784ZM129.869 174.864C129.9 175.067 129.812 175.271 129.608 175.329C129.435 175.36 129.258 175.24 129.2 175.067L129.169 174.979L129.138 174.864L129.106 174.749L129.075 174.634L129.043 174.519L128.986 174.372C128.929 174.195 129.043 173.991 129.221 173.934C129.399 173.876 129.603 173.965 129.66 174.169L129.691 174.284L129.723 174.43L129.78 174.545L129.812 174.665L129.843 174.78L129.874 174.869L129.869 174.864ZM128.934 172.063C128.991 172.267 128.934 172.471 128.761 172.559C128.584 172.648 128.38 172.559 128.296 172.356L128.265 172.267L128.207 172.152L128.176 172.037L128.119 171.922L128.061 171.833L128.004 171.718C127.946 171.546 128.004 171.311 128.181 171.222C128.354 171.133 128.563 171.222 128.646 171.394L128.704 171.509L128.735 171.624L128.793 171.739L128.85 171.854L128.908 171.969L128.939 172.058L128.934 172.063ZM127.648 169.435C127.737 169.607 127.68 169.842 127.533 169.931C127.356 170.046 127.152 169.989 127.037 169.816V169.79L126.98 169.701L126.922 169.586L126.833 169.471L126.776 169.383L126.718 169.268L126.687 169.236C126.572 169.064 126.63 168.829 126.776 168.714C126.953 168.594 127.157 168.656 127.272 168.829L127.304 168.855L127.361 168.97L127.418 169.085L127.507 169.205L127.565 169.32L127.622 169.409L127.654 169.44L127.648 169.435ZM126.018 167.016C126.133 167.193 126.107 167.423 125.961 167.538C125.814 167.653 125.611 167.653 125.464 167.481L125.375 167.366L125.318 167.277L125.229 167.162L125.14 167.073L125.052 166.984L125.02 166.953C124.905 166.775 124.931 166.571 125.052 166.43C125.198 166.284 125.433 166.31 125.548 166.456L125.579 166.488L125.668 166.603L125.757 166.692L125.846 166.807L125.935 166.895L125.992 167.01H126.023L126.018 167.016ZM124.09 164.884C124.205 164.999 124.236 165.234 124.09 165.38C123.975 165.526 123.74 165.553 123.625 165.411L123.594 165.38L123.505 165.291L123.416 165.202L123.327 165.145L123.238 165.056L123.123 164.967L123.092 164.936C122.946 164.79 122.946 164.555 123.061 164.408C123.176 164.262 123.411 164.236 123.557 164.382L123.589 164.408L123.677 164.497L123.766 164.586L123.881 164.675L123.97 164.764L124.059 164.852L124.09 164.884ZM121.875 163.018C122.052 163.133 122.078 163.368 121.964 163.546C121.875 163.692 121.645 163.75 121.498 163.635L121.441 163.577L121.326 163.52L121.237 163.431L121.148 163.374L121.033 163.316L120.945 163.227C120.767 163.139 120.709 162.909 120.83 162.731C120.918 162.553 121.148 162.496 121.295 162.616L121.41 162.705L121.525 162.762L121.613 162.851L121.728 162.909L121.817 162.997L121.875 163.029V163.018ZM119.45 161.529C119.623 161.618 119.711 161.822 119.623 161.994C119.534 162.172 119.33 162.256 119.158 162.172L119.069 162.141L118.98 162.083L118.865 162.026L118.75 161.968L118.661 161.911L118.546 161.853C118.374 161.796 118.285 161.561 118.374 161.388C118.463 161.216 118.666 161.127 118.839 161.216L118.954 161.273L119.043 161.299L119.158 161.357L119.273 161.414L119.388 161.472L119.445 161.529H119.45ZM116.853 160.39C117.057 160.448 117.146 160.651 117.089 160.855C117.031 161.033 116.827 161.148 116.65 161.09L116.592 161.059L116.477 161.002L116.362 160.97L116.247 160.939L116.132 160.907L116.043 160.85H116.012C115.808 160.793 115.72 160.589 115.777 160.411C115.808 160.207 116.012 160.087 116.185 160.15L116.216 160.181L116.331 160.207L116.446 160.239L116.561 160.265L116.676 160.322L116.791 160.354L116.848 160.38L116.853 160.39ZM114.142 159.659C114.319 159.69 114.46 159.862 114.434 160.066C114.377 160.27 114.199 160.385 114.027 160.359H113.995L113.88 160.327L113.76 160.301H113.645L113.53 160.27L113.415 160.244H113.358C113.154 160.213 113.039 160.04 113.065 159.836C113.097 159.633 113.269 159.486 113.447 159.518L113.535 159.549H113.65L113.765 159.58L113.886 159.612L114 159.643H114.115L114.147 159.674L114.142 159.659ZM111.336 159.309C111.539 159.309 111.686 159.481 111.686 159.69C111.654 159.894 111.508 160.04 111.304 160.04H110.636C110.458 160.014 110.285 159.868 110.285 159.664C110.285 159.46 110.458 159.314 110.636 159.314H111.336V159.309ZM108.535 159.397C108.739 159.366 108.885 159.512 108.916 159.716C108.948 159.92 108.802 160.098 108.598 160.124H108.42L108.305 160.15H108.19L108.075 160.181H107.986L107.929 160.207C107.751 160.239 107.579 160.092 107.548 159.889C107.516 159.685 107.662 159.507 107.84 159.481H107.871L108.018 159.45H108.133L108.248 159.418H108.363L108.478 159.387H108.535V159.397ZM105.766 159.894C105.943 159.836 106.147 159.951 106.173 160.155C106.231 160.359 106.116 160.563 105.938 160.594H105.907L105.792 160.625L105.677 160.657L105.562 160.714L105.447 160.745L105.332 160.777H105.275C105.097 160.834 104.893 160.719 104.867 160.542C104.81 160.338 104.898 160.134 105.102 160.077H105.16L105.275 160.045L105.39 159.988L105.505 159.962L105.619 159.93L105.734 159.904H105.766V159.894ZM103.08 160.798C103.258 160.709 103.462 160.798 103.545 161.002C103.603 161.174 103.514 161.383 103.341 161.467H103.31L103.195 161.524L103.08 161.582L102.991 161.613L102.876 161.67L102.761 161.728H102.73C102.558 161.817 102.349 161.728 102.265 161.555C102.176 161.378 102.265 161.148 102.443 161.09L102.5 161.059L102.615 161.002L102.73 160.944L102.819 160.887L102.934 160.855L103.049 160.798H103.08ZM100.541 162.083C100.718 161.968 100.922 162.026 101.037 162.198C101.126 162.37 101.068 162.606 100.891 162.726L100.833 162.757L100.744 162.815L100.63 162.872L100.515 162.961L100.426 163.018L100.311 163.076C100.164 163.196 99.9294 163.133 99.8457 162.961C99.7308 162.788 99.7883 162.579 99.9607 162.465L100.05 162.407L100.164 162.318L100.279 162.261L100.394 162.172L100.483 162.114L100.541 162.083Z" fill="white"/>
<path fill-rule="evenodd" clip-rule="evenodd" d="M83.0005 304.607L15.1216 253.83C9.4628 249.629 8.11995 241.311 12.1433 235.359L80.7799 286.722C77.1014 292.443 78.1255 300.145 82.9953 304.613L83.0005 304.607Z" fill="#21717C"/>
<path fill-rule="evenodd" clip-rule="evenodd" d="M222.755 178.777H297.26C299.188 178.777 300.818 177.758 300.876 176.53L301.022 172.883H219.02L219.166 176.53C219.197 177.758 220.827 178.777 222.755 178.777Z" fill="#E5E6E7"/>
<path fill-rule="evenodd" clip-rule="evenodd" d="M221.881 174.513H298.135C300.032 174.513 301.317 173.635 301.025 172.585L293.903 148.1C293.61 147.05 291.803 146.203 289.932 146.203H230.11C228.213 146.203 226.432 147.05 226.113 148.1L219.022 172.585C218.704 173.635 220.015 174.513 221.881 174.513Z" fill="#BBBDBF"/>
<path fill-rule="evenodd" clip-rule="evenodd" d="M136.934 20.5469H383.118C389.19 20.5469 393.391 24.8053 392.398 30.0304L369.46 150.991C368.467 156.185 362.688 160.474 356.591 160.474H163.461C157.364 160.474 151.553 156.185 150.561 150.991L127.654 30.0304C126.661 24.8053 130.836 20.5469 136.934 20.5469Z" fill="url(#paint1_linear_1_9943)"/>
<path fill-rule="evenodd" clip-rule="evenodd" d="M148.283 32.3945H371.733C375.208 32.3945 377.601 35.7229 377.016 39.8037L363.969 134.09C363.415 138.176 360.118 141.505 356.643 141.505H163.368C159.893 141.505 156.596 138.176 156.042 134.09L143 39.8037C142.447 35.7177 144.808 32.3945 148.283 32.3945Z" fill="#E1EDF2"/>
<path fill-rule="evenodd" clip-rule="evenodd" d="M241.288 150.027H278.757C280.247 150.027 280.915 151.313 280.273 152.885C279.604 154.432 277.854 155.717 276.39 155.717H243.65C242.161 155.717 240.411 154.432 239.768 152.885C239.099 151.307 239.799 150.027 241.288 150.027Z" fill="#BBBDBF"/>
<path fill-rule="evenodd" clip-rule="evenodd" d="M129.521 23.4324L137.866 13.6562H382.154L390.498 23.4324C286.608 26.557 233.438 26.557 129.521 23.4324Z" fill="#BBBDBF"/>
<path fill-rule="evenodd" clip-rule="evenodd" d="M250.536 65.7773L272.246 73.6306L293.961 81.51L272.246 89.3581L250.536 97.2375L228.825 89.3581L207.115 81.51L228.825 73.6306L250.536 65.7773Z" fill="url(#paint2_linear_1_9943)"/>
<path fill-rule="evenodd" clip-rule="evenodd" d="M293.961 81.5117L250.535 97.1817V141.506H293.961V81.5117Z" fill="url(#paint3_linear_1_9943)"/>
<path fill-rule="evenodd" clip-rule="evenodd" d="M207.115 81.5117L250.536 97.1817V141.506H207.115V81.5117Z" fill="url(#paint4_linear_1_9943)"/>
<path fill-rule="evenodd" clip-rule="evenodd" d="M280.246 20.7227L298.048 27.1704L315.85 33.6234L298.048 40.0711L280.246 46.4875L262.444 40.0711L244.643 33.6234L262.444 27.1704L280.246 20.7227Z" fill="url(#paint5_linear_1_9943)"/>
<path fill-rule="evenodd" clip-rule="evenodd" d="M314.473 82.0625L336.126 89.9106L357.81 97.7325L336.126 105.581L314.473 113.434L292.821 105.581L271.168 97.7325L292.821 89.9106L314.473 82.0625Z" fill="url(#paint6_linear_1_9943)"/>
<path fill-rule="evenodd" clip-rule="evenodd" d="M357.811 97.7344L314.475 113.378V141.505H357.811V97.7344Z" fill="url(#paint7_linear_1_9943)"/>
<path fill-rule="evenodd" clip-rule="evenodd" d="M271.168 97.7344L314.473 113.378V141.505H271.168V97.7344Z" fill="url(#paint8_linear_1_9943)"/>
<path fill-rule="evenodd" clip-rule="evenodd" d="M315.85 33.6252L280.246 46.4633V95.7253L315.85 82.8507V33.6252Z" fill="url(#paint9_linear_1_9943)"/>
<path fill-rule="evenodd" clip-rule="evenodd" d="M244.643 33.625L280.246 46.463V95.725L244.643 82.8505V33.625Z" fill="url(#paint10_linear_1_9943)"/>
<path fill-rule="evenodd" clip-rule="evenodd" d="M392.479 168.711H336.247C328.921 168.622 322.792 166.433 318.565 161.971C314.626 157.801 312.347 151.698 312.347 143.526V142.711H309.369V146.536C309.369 153.48 312.081 159.813 316.433 164.395C320.781 168.977 326.763 171.836 333.357 171.836H393.242C400.568 171.924 406.697 174.114 410.929 178.55C414.869 182.751 417.147 188.854 417.147 197.02V216.954H420.125V193.99C420.125 187.046 417.408 180.713 413.061 176.131C408.714 171.548 402.731 168.721 396.137 168.721H392.49L392.479 168.711Z" fill="#FEFEFE"/>
<path fill-rule="evenodd" clip-rule="evenodd" d="M418.744 192.902C432.46 192.902 443.668 204.136 443.668 217.821V250.357C443.668 264.073 432.46 275.281 418.744 275.281C405.028 275.281 393.82 264.073 393.82 250.357V217.821C393.82 204.136 405.028 192.902 418.744 192.902Z" fill="#FEFEFE"/>
<path fill-rule="evenodd" clip-rule="evenodd" d="M417.223 234.712L393.82 230.365V219.157C393.82 205.263 404.208 193.794 417.223 192.953V234.712Z" fill="url(#paint11_linear_1_9943)"/>
<path fill-rule="evenodd" clip-rule="evenodd" d="M420.26 234.712L443.663 230.365V219.157C443.663 205.263 433.275 193.794 420.26 192.953V234.712Z" fill="url(#paint12_linear_1_9943)"/>
<path fill-rule="evenodd" clip-rule="evenodd" d="M31.0009 165.003L33.279 147.054C33.5142 145.247 35.0608 143.993 36.7537 144.222L132.879 157.703C134.572 157.938 135.769 159.6 135.534 161.382L133.256 179.33C133.052 181.112 131.474 182.392 129.781 182.162L33.6814 168.681C31.9884 168.446 30.7606 166.784 30.9957 165.003H31.0009ZM34.9981 161.7C35.2332 159.861 36.7798 158.55 38.4728 158.78C40.1657 159.015 41.3622 160.708 41.1271 162.542C40.892 164.381 39.3192 165.692 37.6263 165.462C35.9647 165.227 34.7682 163.534 34.9981 161.695V161.7Z" fill="#E5E6E7"/>
<path fill-rule="evenodd" clip-rule="evenodd" d="M32.5762 152.598L33.2763 147.054C33.5115 145.272 35.0581 143.992 36.751 144.222L132.877 157.703C134.57 157.938 135.766 159.599 135.531 161.381L134.831 166.925C135.066 165.148 133.87 163.513 132.177 163.252L36.0508 149.797C34.3579 149.562 32.8113 150.821 32.5762 152.598Z" fill="#C1C3C5"/>
<path fill-rule="evenodd" clip-rule="evenodd" d="M45.0918 157.472L46.5809 145.621L47.3699 145.71L45.8808 157.56L45.0918 157.472ZM129.111 169.228L130.6 157.378L131.389 157.492L129.9 169.343L129.111 169.228ZM126.101 168.82L127.591 156.97L128.38 157.085L126.89 168.935L126.101 168.82ZM123.097 168.382L124.586 156.531L125.375 156.646L123.886 168.491L123.097 168.376V168.382ZM120.093 167.974L121.608 156.124L122.365 156.238L120.876 168.089L120.087 167.974H120.093ZM117.088 167.566L118.603 155.716L119.392 155.805L117.877 167.65L117.088 167.561V167.566ZM113.148 174.777L115.599 155.282L116.388 155.397L113.906 174.892L113.148 174.777ZM111.105 166.72L112.595 154.869L113.384 154.958L111.894 166.835L111.105 166.72ZM108.096 166.281L109.585 154.431L110.374 154.546L108.885 166.391L108.096 166.276V166.281ZM105.091 165.873L106.607 154.023L107.364 154.138L105.875 165.988L105.086 165.873H105.091ZM102.087 165.466L103.602 153.589L104.391 153.704L102.876 165.55L102.087 165.461V165.466ZM99.1086 165.027L100.598 153.177L101.387 153.292L99.8976 165.142L99.1086 165.027ZM95.1428 172.238L97.5934 152.774L98.3824 152.863L95.9318 172.358L95.1428 172.243V172.238ZM93.0998 164.181L94.589 152.335L95.3779 152.45L93.8888 164.296L93.0998 164.181ZM90.0954 163.773L91.6107 151.923L92.3683 152.037L90.8792 163.888L90.0902 163.773H90.0954ZM87.0857 163.334L88.601 151.489L89.39 151.604L87.8747 163.449L87.0857 163.334ZM84.1127 162.927L85.6018 151.076L86.3908 151.196L84.8755 163.042L84.1179 162.927H84.1127ZM81.103 162.519L82.5922 150.669L83.3812 150.757L81.892 162.608L81.103 162.519ZM77.1372 169.724L79.5878 150.23L80.3767 150.345L77.9262 169.839L77.1372 169.724ZM75.0942 161.673L76.6095 149.822L77.3671 149.911L75.878 161.787L75.089 161.673H75.0942ZM72.0898 161.234L73.605 149.388L74.394 149.503L72.8788 161.349L72.0898 161.234ZM69.1115 160.826L70.6006 148.976L71.3896 149.096L69.8743 160.941L69.1167 160.826H69.1115ZM66.1071 160.419L67.5962 148.542L68.3852 148.657L66.896 160.507L66.1071 160.419ZM63.0974 159.98L64.5866 148.134L65.3755 148.249L63.8864 160.095L63.0974 159.98ZM59.1316 167.185L61.5821 147.722L62.3711 147.81L59.9206 167.305L59.1316 167.19V167.185ZM57.0886 159.133L58.6038 147.288L59.3928 147.403L57.8776 159.248L57.0886 159.133ZM54.1103 158.726L55.5994 146.88L56.3884 146.995L54.8731 158.841L54.1155 158.726H54.1103ZM51.1059 158.287L52.595 146.436L53.384 146.551L51.8948 158.402L51.1059 158.287ZM48.1014 157.879L49.5906 146.034L50.3796 146.149L48.8904 157.994L48.1014 157.879Z" fill="#6C6D70"/>
<path fill-rule="evenodd" clip-rule="evenodd" d="M22.2148 211.489L84.4037 195.145C85.015 194.998 85.3651 194.387 85.2502 193.771L83.6722 187.145C83.5259 186.534 82.9145 186.184 82.3293 186.33L20.1143 202.674C19.5291 202.82 19.1529 203.463 19.2992 204.043L20.8772 210.668C21.0235 211.28 21.6087 211.63 22.22 211.484L22.2148 211.489Z" fill="#FD9B39"/>
<path fill-rule="evenodd" clip-rule="evenodd" d="M19.3513 204.371L7.82475 206.472L4 211.576L20.0828 207.376L19.3513 204.371Z" fill="#D0D2D4"/>
<path fill-rule="evenodd" clip-rule="evenodd" d="M20.7829 210.379L9.66398 214.236L4 211.576L20.0828 207.375L20.7829 210.379Z" fill="#BBBDBF"/>
<path fill-rule="evenodd" clip-rule="evenodd" d="M85.1306 186.745C85.9196 186.541 86.7347 187.038 86.9124 187.853L87.7902 191.442C87.9679 192.257 87.4715 193.078 86.6825 193.282C85.8674 193.517 85.047 193.02 84.8746 192.2L84.0282 188.61C83.8244 187.795 84.3208 186.975 85.1359 186.745H85.1306Z" fill="#8E7952"/>
<path fill-rule="evenodd" clip-rule="evenodd" d="M85.9199 191.18L69.4609 195.501L69.7222 196.582L86.1812 192.261L85.9199 191.18Z" fill="#8E7952"/>
<path fill-rule="evenodd" clip-rule="evenodd" d="M59.4512 192.351L60.6791 192.027L62.3406 199.149L61.1441 199.473L59.4512 192.351Z" fill="#8E7952"/>
<path fill-rule="evenodd" clip-rule="evenodd" d="M28.7207 200.429L29.8284 200.105L31.6102 207.635L30.5025 207.959L28.7207 200.429Z" fill="#8E7952"/>
<path fill-rule="evenodd" clip-rule="evenodd" d="M425.395 68.4076C428.4 71.0045 430.793 74.1865 432.517 77.7762L444.221 75.7332L446.761 94.6166L435.062 96.6596C434.712 98.6138 434.158 100.599 433.426 102.553C432.669 104.482 431.759 106.316 430.709 108.008L437.977 117.549L423.53 129.719L416.262 120.178C412.615 121.635 408.706 122.336 404.767 122.189L400.331 133.773L383.375 127.059L387.811 115.475C384.807 112.878 382.382 109.696 380.69 106.107L368.959 108.15L366.451 89.2661L378.15 87.2231C378.5 85.2689 379.028 83.2834 379.786 81.3292C380.543 79.4012 381.447 77.5672 382.497 75.8742L375.229 66.3332L389.677 54.164L396.945 63.705C400.592 62.2472 404.5 61.5471 408.44 61.6934L412.876 50.1094L429.831 56.8236L425.395 68.4076Z" fill="#0F5CBE"/>
<path fill-rule="evenodd" clip-rule="evenodd" d="M410.046 82.9726C414.717 84.8379 416.99 90.3556 415.093 95.2881C413.165 100.247 407.857 102.76 403.159 100.921C398.488 99.0554 396.215 93.5377 398.112 88.6052C400.009 83.6466 405.349 81.1333 410.046 82.9726ZM413.374 74.3042C422.597 77.9513 427.033 88.809 423.297 98.5538C419.561 108.272 409.053 113.231 399.831 109.584C390.609 105.937 386.173 95.0791 389.909 85.3343C393.644 75.6157 404.152 70.6571 413.374 74.3042Z" fill="#ECEFF2"/>
<path fill-rule="evenodd" clip-rule="evenodd" d="M374.821 26.236C376.279 28.8643 377.183 31.7537 377.564 34.7007L386.055 36.4511L383.484 50.3132L374.993 48.5628C374.293 49.8482 373.478 51.0708 372.543 52.2412C371.582 53.4064 370.531 54.4306 369.418 55.3345L372.219 63.9454L359.553 68.5278L356.721 59.9169C353.889 59.9482 351.057 59.363 348.403 58.1926L342.713 65.0793L332.587 55.7995L338.277 48.9129C336.819 46.2847 335.884 43.3952 335.534 40.4482L327.043 38.6978L329.614 24.8357L338.104 26.5861C338.773 25.3007 339.594 24.0781 340.555 22.9077C341.516 21.7425 342.567 20.7184 343.68 19.8144L340.848 11.2035L353.545 6.62109L356.345 15.232C359.177 15.2007 362.035 15.7859 364.69 16.9563L370.38 10.0696L380.475 19.3494L374.816 26.236H374.821Z" fill="#14D2F7"/>
<path fill-rule="evenodd" clip-rule="evenodd" d="M360.956 32.2489C363.731 34.8144 364.023 39.2819 361.599 42.2027C359.174 45.1496 354.947 45.4736 352.141 42.9028C349.341 40.3373 349.048 35.8699 351.499 32.9543C353.918 30.0073 358.15 29.6834 360.951 32.2541L360.956 32.2489ZM365.22 27.0813C370.706 32.1287 371.291 40.9121 366.505 46.691C361.719 52.4961 353.374 53.1126 347.888 48.06C342.402 43.0126 341.817 34.2292 346.603 28.4503C351.389 22.6452 359.707 22.0287 365.22 27.0813Z" fill="#ECEFF2"/>
<path fill-rule="evenodd" clip-rule="evenodd" d="M419.586 11.4116C421.279 13.1045 422.59 15.09 423.494 17.2793L430.381 16.6941L431.374 27.928L424.518 28.5132C424.257 29.6784 423.876 30.7914 423.411 31.8991C422.914 33.0068 422.329 34.0309 421.66 34.9923L425.658 40.9751L416.932 47.3653L412.934 41.3826C410.777 42.0514 408.472 42.2604 406.163 41.9678L403.273 48.5357L393.555 43.6921L396.444 37.1242C394.751 35.4626 393.44 33.4457 392.504 31.2564L385.618 31.8416L384.625 20.6077L391.512 20.0225C391.773 18.8834 392.154 17.7444 392.619 16.6366C393.116 15.5289 393.701 14.5048 394.338 13.5747L390.341 7.56069L399.093 1.17042L403.09 7.15313C405.248 6.51045 407.553 6.27531 409.831 6.56792L412.72 0L422.47 4.84365L419.581 11.4116H419.586Z" fill="#FD9B39"/>
<path fill-rule="evenodd" clip-rule="evenodd" d="M410.247 19.1772C412.933 20.5201 414.098 23.8746 412.875 26.6752C411.648 29.5072 408.471 30.7037 405.785 29.3609C403.099 28.0181 401.903 24.6636 403.157 21.8629C404.385 19.0309 407.562 17.8344 410.247 19.1772ZM412.41 14.2447C417.693 16.873 420.029 23.4931 417.604 29.0108C415.154 34.5546 408.91 36.9216 403.627 34.2934C398.318 31.6652 396.009 25.045 398.433 19.5273C400.853 13.9835 407.128 11.6165 412.41 14.2447Z" fill="#ECEFF2"/>
</g>
<path d="M111.572 15.8156L188.689 59.9985C193.456 62.7296 195.111 68.8297 192.378 73.5987L173.944 105.774C171.212 110.543 165.113 112.2 160.346 109.469L83.2285 65.2861C78.4617 62.5551 76.8069 56.455 79.5392 51.686L97.9731 19.5111C100.705 14.7421 106.805 13.0846 111.572 15.8156Z" fill="#66D0FF"/>
<path d="M116.49 34.741C114.073 38.9589 108.707 40.4172 104.491 38.0017C100.275 35.5862 98.8192 30.2194 101.236 26.0015C103.652 21.7836 109.018 20.3253 113.234 22.7408C117.45 25.1563 118.906 30.5231 116.49 34.741Z" fill="white"/>
<path d="M139.373 47.8504C136.956 52.0683 131.59 53.5265 127.374 51.1111C123.158 48.6956 121.702 43.3288 124.119 39.1109C126.535 34.893 131.901 33.4347 136.117 35.8502C140.333 38.2657 141.789 43.6324 139.373 47.8504Z" fill="#C1ECFF"/>
<path d="M162.249 60.9597C159.833 65.1777 154.467 66.6359 150.251 64.2204C146.035 61.8049 144.579 56.4382 146.995 52.2203C149.412 48.0023 154.778 46.5441 158.994 48.9596C163.21 51.3751 164.666 56.7418 162.249 60.9597Z" fill="#00B2FF"/>
<path d="M185.132 74.0691C182.716 78.287 177.35 79.7453 173.134 77.3298C168.918 74.9143 167.462 69.5476 169.878 65.3296C172.295 61.1117 177.661 59.6535 181.877 62.069C186.093 64.4845 187.549 69.8512 185.132 74.0691Z" fill="#0085FF"/>
<path d="M102.027 59.9832C99.6103 64.2011 94.2442 65.6593 90.0281 63.2438C85.8121 60.8283 84.3563 55.4616 86.7728 51.2437C89.1894 47.0258 94.5555 45.5675 98.7715 47.983C102.988 50.3985 104.443 55.7653 102.027 59.9832Z" fill="#FFA366"/>
<path d="M124.91 73.0925C122.493 77.3105 117.127 78.7687 112.911 76.3532C108.695 73.9377 107.239 68.571 109.656 64.3531C112.072 60.1352 117.438 58.6769 121.654 61.0924C125.87 63.5079 127.326 68.8746 124.91 73.0925Z" fill="#FF8533"/>
<path d="M135.79 89.4626C140.002 91.8759 145.374 90.4161 147.789 86.2019C150.203 81.9878 148.746 76.6151 144.533 74.2018C140.321 71.7884 134.949 73.2483 132.535 77.4625C130.12 81.6766 131.578 87.0493 135.79 89.4626Z" fill="#FF6800"/>
<path d="M170.669 99.3074C168.253 103.525 162.887 104.984 158.671 102.568C154.455 100.153 152.999 94.7858 155.415 90.5679C157.832 86.35 163.198 84.8917 167.414 87.3072C171.63 89.7227 173.086 95.0895 170.669 99.3074Z" fill="#BF4E00"/>
<path d="M174.443 87.6201L94.9314 42.0656C93.7238 41.3737 93.2988 39.807 93.991 38.5989C94.6832 37.3907 96.2497 36.965 97.4573 37.6569L176.969 83.2114C178.176 83.9033 178.601 85.4699 177.909 86.6781C177.217 87.8862 175.65 88.3119 174.443 87.6201Z" fill="#0085FF"/>
<defs>
<filter id="filter0_d_1_9943" x="0" y="0" width="450.761" height="316.002" filterUnits="userSpaceOnUse" color-interpolation-filters="linearRGB">
<feFlood flood-opacity="0" result="BackgroundImageFix"/>
<feColorMatrix in="SourceAlpha" type="matrix" values="0 0 0 0 0 0 0 0 0 0 0 0 0 0 0 0 0 0 127 0" result="hardAlpha"/>
<feOffset dy="4"/>
<feGaussianBlur stdDeviation="2"/>
<feComposite in2="hardAlpha" operator="out"/>
<feColorMatrix type="matrix" values="0 0 0 0 0 0 0 0 0 0 0 0 0 0 0 0 0 0 0.25 0"/>
<feBlend mode="normal" in2="BackgroundImageFix" result="effect1_dropShadow_1_9943"/>
<feBlend mode="normal" in="SourceGraphic" in2="effect1_dropShadow_1_9943" result="shape"/>
</filter>
<linearGradient id="paint0_linear_1_9943" x1="257.905" y1="272.712" x2="257.905" y2="195.465" gradientUnits="userSpaceOnUse">
<stop stop-color="#B0BBC9"/>
<stop offset="1" stop-color="#D5DBE2"/>
</linearGradient>
<linearGradient id="paint1_linear_1_9943" x1="260.026" y1="160.474" x2="260.026" y2="20.5469" gradientUnits="userSpaceOnUse">
<stop stop-color="#B0BBC9"/>
<stop offset="1" stop-color="#D5DBE2"/>
</linearGradient>
<linearGradient id="paint2_linear_1_9943" x1="207.115" y1="76.5198" x2="241.615" y2="128.735" gradientUnits="userSpaceOnUse">
<stop stop-color="#3EF4A7"/>
<stop offset="1" stop-color="#096EE0"/>
</linearGradient>
<linearGradient id="paint3_linear_1_9943" x1="250.535" y1="101.998" x2="299.579" y2="121.46" gradientUnits="userSpaceOnUse">
<stop stop-color="#3EF4A7"/>
<stop offset="1" stop-color="#096EE0"/>
</linearGradient>
<linearGradient id="paint4_linear_1_9943" x1="207.115" y1="101.998" x2="256.154" y2="121.456" gradientUnits="userSpaceOnUse">
<stop stop-color="#3EF4A7"/>
<stop offset="1" stop-color="#096EE0"/>
</linearGradient>
<linearGradient id="paint5_linear_1_9943" x1="244.643" y1="29.5204" x2="272.884" y2="72.3136" gradientUnits="userSpaceOnUse">
<stop stop-color="#3EF4A7"/>
<stop offset="1" stop-color="#096EE0"/>
</linearGradient>
<linearGradient id="paint6_linear_1_9943" x1="271.168" y1="92.7747" x2="305.564" y2="144.858" gradientUnits="userSpaceOnUse">
<stop stop-color="#3EF4A7"/>
<stop offset="1" stop-color="#096EE0"/>
</linearGradient>
<linearGradient id="paint7_linear_1_9943" x1="314.475" y1="112.68" x2="358.232" y2="136.433" gradientUnits="userSpaceOnUse">
<stop stop-color="#3EF4A7"/>
<stop offset="1" stop-color="#096EE0"/>
</linearGradient>
<linearGradient id="paint8_linear_1_9943" x1="271.168" y1="112.68" x2="314.908" y2="136.407" gradientUnits="userSpaceOnUse">
<stop stop-color="#3EF4A7"/>
<stop offset="1" stop-color="#096EE0"/>
</linearGradient>
<linearGradient id="paint9_linear_1_9943" x1="280.246" y1="54.8301" x2="322.603" y2="68.1444" gradientUnits="userSpaceOnUse">
<stop stop-color="#3EF4A7"/>
<stop offset="1" stop-color="#096EE0"/>
</linearGradient>
<linearGradient id="paint10_linear_1_9943" x1="244.643" y1="54.8299" x2="287" y2="68.1442" gradientUnits="userSpaceOnUse">
<stop stop-color="#3EF4A7"/>
<stop offset="1" stop-color="#096EE0"/>
</linearGradient>
<linearGradient id="paint11_linear_1_9943" x1="405.522" y1="234.712" x2="405.522" y2="192.953" gradientUnits="userSpaceOnUse">
<stop stop-color="#B0BBC9"/>
<stop offset="1" stop-color="#D5DBE2"/>
</linearGradient>
<linearGradient id="paint12_linear_1_9943" x1="431.961" y1="234.712" x2="431.961" y2="192.953" gradientUnits="userSpaceOnUse">
<stop stop-color="#B0BBC9"/>
<stop offset="1" stop-color="#D5DBE2"/>
</linearGradient>
</defs>
</svg>
