<svg width="431" height="323" viewBox="0 0 431 323" fill="none" xmlns="http://www.w3.org/2000/svg">
<g filter="url(#filter0_d_1_8937)">
<path d="M274.821 264.836H219.309V281.944H274.821V264.836Z" fill="#363F48"/>
<path fill-rule="evenodd" clip-rule="evenodd" d="M138.836 99.3555H355.293C357.398 99.3555 359.11 101.067 359.11 103.172V264.655C359.11 266.76 357.398 268.472 355.293 268.472H138.836C136.731 268.472 135.02 266.76 135.02 264.655V103.172C135.02 101.067 136.731 99.3555 138.836 99.3555Z" fill="url(#paint0_linear_1_8937)"/>
<path fill-rule="evenodd" clip-rule="evenodd" d="M144.579 109.035H349.548C350.813 109.035 351.836 110.058 351.836 111.323V239.909C351.836 241.168 350.813 242.191 349.548 242.191H144.579C143.314 242.191 142.291 241.168 142.291 239.909V111.323C142.291 110.058 143.314 109.035 144.579 109.035Z" fill="url(#paint1_linear_1_8937)"/>
<path fill-rule="evenodd" clip-rule="evenodd" d="M207.344 278.363H286.79C288.895 278.363 290.607 280.075 290.607 282.18V283.623C290.607 285.728 288.895 287.44 286.79 287.44H207.344C205.239 287.44 203.521 285.728 203.521 283.623V282.18C203.521 280.075 205.233 278.363 207.344 278.363Z" fill="url(#paint2_linear_1_8937)"/>
<path fill-rule="evenodd" clip-rule="evenodd" d="M247.065 257.62C249.019 257.62 250.613 255.994 250.613 254.04C250.613 252.086 249.019 250.492 247.065 250.492C245.111 250.492 243.518 252.086 243.518 254.04C243.518 255.994 245.111 257.62 247.065 257.62Z" fill="white"/>
<path fill-rule="evenodd" clip-rule="evenodd" d="M29.646 287.453H356.192C358.69 287.453 360.703 289.466 360.703 291.964V293.709C360.703 296.174 358.69 298.22 356.192 298.22H29.646C27.1804 298.22 25.1348 296.174 25.1348 293.709V291.964C25.1348 289.466 27.1804 287.453 29.646 287.453Z" fill="#C3C3C3"/>
<path d="M31.9012 109.606H67.8078C71.8399 109.606 75.113 106.086 75.113 101.757V99.2327V74.3349C75.113 73.915 74.9622 73.522 74.6931 73.2529C74.4508 72.9837 74.0902 72.8007 73.7026 72.8007H72.7712V101.757C72.7712 103.232 72.2006 104.557 71.2962 105.515C70.3918 106.479 69.159 107.082 67.8078 107.082H31.9012C27.4223 107.082 23.7832 111.022 23.7832 115.829C23.7832 120.642 27.4223 124.577 31.9012 124.577H178.623C180.19 124.577 181.632 125.266 182.682 126.381C183.737 127.527 184.394 129.056 184.394 130.773C184.394 132.491 183.732 134.025 182.682 135.166C181.632 136.281 180.19 136.97 178.623 136.97H54.8771V137.002C54.8179 137.002 54.7587 136.97 54.6672 136.97H53.2568C48.7779 136.97 45.1065 140.91 45.1065 145.723C45.1065 150.536 48.7779 154.476 53.2568 154.476H216.968C218.562 154.476 220.005 155.165 221.06 156.28C222.115 157.421 222.745 158.987 222.745 160.672C222.745 162.384 222.115 163.951 221.06 165.065C220.01 166.179 218.567 166.901 216.968 166.901H70.6341C65.4284 166.901 61.1918 171.439 61.1918 177.032V264.602C61.1918 265.566 61.5524 266.438 62.1554 267.068C62.5484 267.488 63.0275 267.789 63.5389 267.972V177.038C63.5389 174.933 64.3518 173.038 65.6438 171.654C66.8442 170.33 68.5292 169.49 70.3972 169.431H217.028C218.352 169.431 219.617 169.07 220.726 168.467H220.694C221.447 168.047 222.136 167.504 222.707 166.874C224.182 165.28 225.113 163.116 225.113 160.737C225.113 155.957 221.474 152.075 217.022 152.075H188.636V151.957H53.2568C51.6633 151.957 50.2206 151.235 49.1655 150.121C48.1426 148.98 47.4805 147.446 47.4805 145.728C47.4805 144.011 48.1426 142.482 49.1655 141.335C50.2152 140.221 51.6633 139.532 53.2568 139.532H178.623C183.075 139.532 186.741 135.591 186.741 130.779C186.741 128.405 185.869 126.241 184.394 124.647L184.367 124.615C183.646 123.834 182.801 123.231 181.869 122.779H181.902C180.97 122.327 179.974 122.085 178.925 122.026H31.9012C30.3401 122.026 28.892 121.336 27.8422 120.222C26.7871 119.081 26.1249 117.547 26.1249 115.835C26.1249 114.123 26.7871 112.589 27.8422 111.442C28.892 110.328 30.3401 109.606 31.9012 109.606Z" fill="white"/>
<path fill-rule="evenodd" clip-rule="evenodd" d="M111.26 249.293C111.26 251.339 111.083 253.352 110.749 255.306C112.461 254.434 114.388 253.955 116.434 253.955C123.378 253.955 129.004 259.607 129.004 266.552C129.004 273.496 123.378 279.154 116.434 279.154C110.873 279.154 106.178 275.574 104.493 270.584C97.8181 280.026 86.7823 286.222 74.3307 286.222C53.9442 286.222 37.4336 269.685 37.4336 249.293H111.26ZM116.434 258.165C111.804 258.165 108.046 261.922 108.046 266.552C108.046 271.181 111.804 274.912 116.434 274.912C121.063 274.912 124.794 271.181 124.794 266.552C124.794 261.922 121.036 258.165 116.434 258.165Z" fill="#FF9E58"/>
<path fill-rule="evenodd" clip-rule="evenodd" d="M43.5109 283.758H102.722C103.836 283.758 104.735 284.689 104.735 285.771V287.784H41.4922V285.771C41.4922 284.689 42.4235 283.758 43.5055 283.758H43.5109Z" fill="#FF9E58"/>
<path fill-rule="evenodd" clip-rule="evenodd" d="M37.4088 138.658C28.6286 138.658 21.2589 144.31 19.1863 151.917C10.6484 152.848 4 159.647 4 167.916C4 176.815 11.6981 184.034 21.1727 184.034H65.2297C73.4069 184.034 80.0553 177.81 80.0553 170.112C80.0553 164.401 76.3569 159.496 71.0975 157.359C71.0975 157.241 71.1298 157.149 71.1298 157.058C71.1298 151.648 66.4409 147.223 60.6323 147.223C58.3767 147.223 56.3041 147.885 54.5869 149.026C51.6099 142.921 45.053 138.652 37.4141 138.652L37.4088 138.658Z" fill="url(#paint3_linear_1_8937)"/>
<path fill-rule="evenodd" clip-rule="evenodd" d="M74.1247 209.957C67.4764 209.957 61.9154 214.226 60.3219 220.002C53.8566 220.724 48.834 225.865 48.834 232.12C48.834 238.855 54.6695 244.297 61.8239 244.297H95.1734C101.37 244.297 106.392 239.576 106.392 233.773C106.392 229.445 103.598 225.714 99.6254 224.12V223.911C99.6254 219.792 96.0778 216.449 91.6851 216.449C90.0001 216.449 88.4066 216.961 87.1146 217.833C84.8913 213.203 79.8956 209.957 74.1247 209.957Z" fill="url(#paint4_linear_1_8937)"/>
<path fill-rule="evenodd" clip-rule="evenodd" d="M198.051 0H306.277L332.256 25.9798V242.195H198.051V0Z" fill="#F5F5F5"/>
<path d="M293.585 54.4258H215.641V59.5076H293.585V54.4258Z" fill="#808080"/>
<path d="M319.899 64.3516H267.363V68.6528H319.899V64.3516Z" fill="#808080"/>
<path d="M271.275 73.4922H218.707V77.8204H271.275V73.4922Z" fill="#808080"/>
<path d="M271.275 92.5625H218.707V96.8961H271.275V92.5625Z" fill="#808080"/>
<path d="M271.275 100.191H218.707V104.52H271.275V100.191Z" fill="#808080"/>
<path d="M292.42 100.191H275.791V104.52H292.42V100.191Z" fill="#FF9E58"/>
<path d="M314.783 100.191H298.154V104.52H314.783V100.191Z" fill="#808080"/>
<path d="M314.792 92.832H277.232V97.1333H314.792V92.832Z" fill="#808080"/>
<path d="M311.303 73.4922H282.977V77.8204H311.303V73.4922Z" fill="#808080"/>
<path d="M237.595 64.3516H222.408V68.6528H237.595V64.3516Z" fill="#808080"/>
<path d="M259.366 64.3516H244.18V68.6528H259.366V64.3516Z" fill="#FF9E58"/>
<path d="M313.98 54.4258H302.072V59.5076H313.98V54.4258Z" fill="#FF9E58"/>
<path d="M235.46 110.871H218.707V115.199H235.46V110.871Z" fill="#808080"/>
<path d="M257.829 110.871H241.082V115.199H257.829V110.871Z" fill="#FF9E58"/>
<path d="M292.416 110.871H265.23V115.199H292.416V110.871Z" fill="#808080"/>
<path fill-rule="evenodd" clip-rule="evenodd" d="M332.259 25.9798H306.279V0L332.259 25.9798Z" fill="#B3B3B3"/>
<path d="M304.32 141.848H215.641V146.929H304.32V141.848Z" fill="#808080"/>
<path d="M319.899 151.77H267.363V156.071H319.899V151.77Z" fill="#808080"/>
<path d="M271.275 160.914H218.707V165.242H271.275V160.914Z" fill="#808080"/>
<path d="M271.275 179.973H218.707V184.306H271.275V179.973Z" fill="#808080"/>
<path d="M271.275 187.613H218.707V191.941H271.275V187.613Z" fill="#808080"/>
<path d="M292.42 187.613H275.791V191.941H292.42V187.613Z" fill="#FF9E58"/>
<path d="M314.783 187.613H298.154V191.941H314.783V187.613Z" fill="#808080"/>
<path d="M314.792 180.25H277.232V184.551H314.792V180.25Z" fill="#808080"/>
<path d="M311.303 160.914H282.977V165.242H311.303V160.914Z" fill="#808080"/>
<path d="M237.595 151.77H222.408V156.071H237.595V151.77Z" fill="#808080"/>
<path d="M259.366 151.77H244.18V156.071H259.366V151.77Z" fill="#FF9E58"/>
<path d="M235.46 198.285H218.707V202.613H235.46V198.285Z" fill="#808080"/>
<path d="M257.829 198.285H241.082V202.613H257.829V198.285Z" fill="#FF9E58"/>
<path d="M292.416 198.285H265.23V202.613H292.416V198.285Z" fill="#808080"/>
<path fill-rule="evenodd" clip-rule="evenodd" d="M396.795 199.31C400.585 200.844 403.982 203.127 406.808 205.953L417.784 200.511L426.236 217.5L415.26 222.943C415.561 224.897 415.62 226.943 415.502 228.988C415.383 231.034 415.05 233.047 414.538 234.942L424.734 241.709L414.269 257.525L404.046 250.758C400.886 253.224 397.253 255.06 393.28 256.109L392.526 268.346L373.582 267.172L374.363 254.963C370.546 253.428 367.144 251.146 364.35 248.32L353.373 253.762L344.895 236.773L355.871 231.33C355.602 229.376 355.51 227.33 355.629 225.285C355.78 223.239 356.081 221.226 356.619 219.331L346.396 212.564L356.894 196.748L367.09 203.514C370.25 201.049 373.916 199.186 377.856 198.131L378.61 185.922L397.554 187.095L396.8 199.305L396.795 199.31Z" fill="#FEFEFE"/>
<path fill-rule="evenodd" clip-rule="evenodd" d="M386.153 217.683C391.385 217.984 395.353 222.496 395.057 227.728C394.723 232.961 390.212 236.928 384.985 236.6C379.752 236.298 375.785 231.787 376.113 226.555C376.441 221.322 380.926 217.354 386.158 217.683H386.153ZM386.723 208.515C397.006 209.145 404.828 217.99 404.198 228.304C403.568 238.592 394.723 246.408 384.441 245.778C374.127 245.148 366.31 236.277 366.94 225.989C367.57 215.707 376.441 207.885 386.729 208.52L386.723 208.515Z" fill="#363F48"/>
<path fill-rule="evenodd" clip-rule="evenodd" d="M363.142 272.565C364.676 274.971 365.667 277.614 366.119 280.354L374.539 281.679L372.493 294.733L364.074 293.376C363.444 294.609 362.663 295.783 361.786 296.897C360.887 298.006 359.891 299.002 358.809 299.874L361.877 307.841L349.576 312.563L346.508 304.622C343.741 304.746 340.915 304.321 338.266 303.298L332.915 309.914L322.66 301.645L328.011 295.029C326.477 292.623 325.454 289.947 325.002 287.213L316.582 285.888L318.66 272.866L327.047 274.19C327.677 272.958 328.458 271.784 329.362 270.67C330.261 269.555 331.257 268.565 332.307 267.693L329.27 259.752L341.571 255.031L344.608 262.972C347.407 262.853 350.201 263.273 352.876 264.264L358.227 257.648L368.482 265.949L363.131 272.565H363.142Z" fill="#FEFEFE"/>
<path fill-rule="evenodd" clip-rule="evenodd" d="M349.735 278.672C352.561 280.954 352.981 285.11 350.698 287.937C348.41 290.763 344.265 291.215 341.439 288.927C338.613 286.639 338.161 282.462 340.448 279.635C342.731 276.809 346.881 276.389 349.74 278.672H349.735ZM353.734 273.708C359.301 278.22 360.173 286.37 355.662 291.963C351.15 297.53 343 298.369 337.407 293.89C331.841 289.379 330.974 281.202 335.48 275.636C339.991 270.069 348.168 269.197 353.734 273.708Z" fill="#363F48"/>
<path fill-rule="evenodd" clip-rule="evenodd" d="M412.132 284.056C413.516 285.617 414.565 287.453 415.228 289.439H421.542V299.242H415.228C414.894 300.206 414.447 301.164 413.936 302.095C413.397 303 412.794 303.839 412.1 304.62L415.26 310.095L406.781 314.999L403.594 309.524C401.581 309.944 399.476 309.944 397.403 309.524L394.217 314.999L385.738 310.095L388.898 304.593C387.487 303.032 386.465 301.196 385.802 299.21H379.461L379.493 289.407H385.808C386.142 288.443 386.562 287.48 387.1 286.548C387.644 285.644 388.241 284.804 388.936 284.024L385.749 278.549L394.26 273.645L397.42 279.119C399.465 278.726 401.57 278.699 403.643 279.119L406.803 273.645L415.314 278.549L412.154 284.05L412.132 284.056Z" fill="#FEFEFE"/>
<path fill-rule="evenodd" clip-rule="evenodd" d="M402.96 290.068C405.307 291.42 406.115 294.429 404.763 296.776C403.38 299.123 400.403 299.936 398.056 298.579C395.709 297.228 394.896 294.219 396.252 291.872C397.604 289.525 400.613 288.712 402.96 290.068ZM405.334 285.977C409.937 288.626 411.53 294.547 408.855 299.15C406.179 303.78 400.284 305.346 395.682 302.671C391.052 300.022 389.486 294.101 392.134 289.498C394.81 284.868 400.737 283.302 405.334 285.977Z" fill="#363F48"/>
<path fill-rule="evenodd" clip-rule="evenodd" d="M72.4003 75.0516C92.1664 75.0516 108.283 58.915 108.283 39.1522C108.283 19.3894 92.1664 3.26953 72.4003 3.26953C52.6342 3.26953 36.5176 19.3861 36.5176 39.1522C36.5176 58.9184 52.6342 75.0516 72.4003 75.0516Z" fill="url(#paint5_linear_1_8937)"/>
<path fill-rule="evenodd" clip-rule="evenodd" d="M72.4022 69.0148C88.8451 69.0148 102.271 55.6087 102.271 39.1459C102.271 22.683 88.8451 9.29688 72.4022 9.29688C55.9593 9.29688 42.5332 22.7029 42.5332 39.1459C42.5332 55.5888 55.9593 69.0148 72.4022 69.0148Z" fill="white"/>
<path d="M74.0303 16.0586H70.7637V39.1479H74.0303V16.0586Z" fill="#43ACC4"/>
<path fill-rule="evenodd" clip-rule="evenodd" d="M71.6906 37.8438L73.1524 40.764L58.6874 48.0265L57.209 45.1062L71.6906 37.8438Z" fill="#43ACC4"/>
<path fill-rule="evenodd" clip-rule="evenodd" d="M72.4033 43.4277C74.7675 43.4277 76.6855 41.5064 76.6855 39.1455C76.6855 36.7846 74.7642 34.8633 72.4033 34.8633C70.0424 34.8633 68.1211 36.8046 68.1211 39.1455C68.1211 41.4864 70.0424 43.4277 72.4033 43.4277Z" fill="#43ACC4"/>
<path d="M29.1636 159.622C28.5769 160.356 28.2836 161.356 28.2836 162.622C28.2836 163.889 28.5769 164.896 29.1636 165.642C29.7503 166.376 30.5436 166.742 31.5436 166.742C32.5436 166.742 33.3369 166.376 33.9236 165.642C34.5103 164.896 34.8036 163.889 34.8036 162.622C34.8036 161.356 34.5103 160.356 33.9236 159.622C33.3369 158.876 32.5436 158.502 31.5436 158.502C30.5436 158.502 29.7503 158.876 29.1636 159.622ZM38.9436 171.082L35.4436 172.422L31.4636 169.542C29.4903 169.529 27.9169 168.889 26.7436 167.622C25.5703 166.356 24.9836 164.689 24.9836 162.622C24.9836 160.556 25.5769 158.889 26.7636 157.622C27.9636 156.342 29.5569 155.702 31.5436 155.702C33.5436 155.702 35.1369 156.336 36.3236 157.602C37.5103 158.869 38.1036 160.542 38.1036 162.622C38.1036 164.036 37.8169 165.276 37.2436 166.342C36.6703 167.409 35.8636 168.222 34.8236 168.782L38.9436 171.082ZM44.2478 164.162H47.4878L47.3478 163.682C46.9611 162.376 46.6411 161.262 46.3878 160.342C46.1478 159.422 46.0011 158.829 45.9478 158.562L45.8678 158.162C45.7611 158.896 45.2678 160.736 44.3878 163.682L44.2478 164.162ZM49.0478 169.402L48.2278 166.642H43.5078L42.6878 169.402H39.4678L43.9678 155.922H47.8478L52.3478 169.402H49.0478Z" fill="white"/>
<path fill-rule="evenodd" clip-rule="evenodd" d="M69.3046 229.37L85.5927 229.37L86.1896 228.375L88.0187 225.29L91.6896 225.29L95.3731 225.29L97.0709 228.711L96.5565 228.711L92.0494 228.711L89.8372 231.457L92.0494 234.217L96.5565 234.217L97.0709 234.217L95.3731 237.625L91.6896 237.625L88.0187 237.625L86.1896 234.541L85.5927 233.544L69.3046 233.544L68.7055 234.541L66.8764 237.625L63.2056 237.625L59.5326 237.625L57.8242 234.217L58.3365 234.217L62.8457 234.217L65.0579 231.457L62.8457 228.711L58.3365 228.711L57.8242 228.711L59.5326 225.29L63.2056 225.29L66.8764 225.29L68.7055 228.375L69.3046 229.37Z" fill="white"/>
</g>
<defs>
<filter id="filter0_d_1_8937" x="0" y="0" width="430.236" height="322.999" filterUnits="userSpaceOnUse" color-interpolation-filters="sRGB">
<feFlood flood-opacity="0" result="BackgroundImageFix"/>
<feColorMatrix in="SourceAlpha" type="matrix" values="0 0 0 0 0 0 0 0 0 0 0 0 0 0 0 0 0 0 127 0" result="hardAlpha"/>
<feOffset dy="4"/>
<feGaussianBlur stdDeviation="2"/>
<feComposite in2="hardAlpha" operator="out"/>
<feColorMatrix type="matrix" values="0 0 0 0 0 0 0 0 0 0 0 0 0 0 0 0 0 0 0.25 0"/>
<feBlend mode="normal" in2="BackgroundImageFix" result="effect1_dropShadow_1_8937"/>
<feBlend mode="normal" in="SourceGraphic" in2="effect1_dropShadow_1_8937" result="shape"/>
</filter>
<linearGradient id="paint0_linear_1_8937" x1="247.065" y1="268.472" x2="247.065" y2="99.3555" gradientUnits="userSpaceOnUse">
<stop stop-color="#B0BBC9"/>
<stop offset="1" stop-color="#D5DBE2"/>
</linearGradient>
<linearGradient id="paint1_linear_1_8937" x1="142.291" y1="154.503" x2="299.32" y2="289.987" gradientUnits="userSpaceOnUse">
<stop stop-color="#3EF4A7"/>
<stop offset="1" stop-color="#096EE0"/>
</linearGradient>
<linearGradient id="paint2_linear_1_8937" x1="247.064" y1="287.44" x2="247.064" y2="278.363" gradientUnits="userSpaceOnUse">
<stop stop-color="#B0BBC9"/>
<stop offset="1" stop-color="#D5DBE2"/>
</linearGradient>
<linearGradient id="paint3_linear_1_8937" x1="4" y1="154.148" x2="57.9081" y2="203.682" gradientUnits="userSpaceOnUse">
<stop stop-color="#3EF4A7"/>
<stop offset="1" stop-color="#096EE0"/>
</linearGradient>
<linearGradient id="paint4_linear_1_8937" x1="48.834" y1="221.683" x2="89.6268" y2="259.17" gradientUnits="userSpaceOnUse">
<stop stop-color="#3EF4A7"/>
<stop offset="1" stop-color="#096EE0"/>
</linearGradient>
<linearGradient id="paint5_linear_1_8937" x1="36.5176" y1="27.7805" x2="108.657" y2="67.3227" gradientUnits="userSpaceOnUse">
<stop stop-color="#3EF4A7"/>
<stop offset="1" stop-color="#096EE0"/>
</linearGradient>
</defs>
</svg>
