<svg width="435" height="305" viewBox="0 0 435 305" fill="none" xmlns="http://www.w3.org/2000/svg">
<g filter="url(#filter0_d_51_18896)" transform="matrix(0.75 0 0 0.75 48.13 36.13)">
<path fill-rule="evenodd" clip-rule="evenodd" d="M139.792 179.317H356.727C359.06 179.317 360.949 181.232 360.949 183.539V268.457C360.949 270.79 359.065 272.679 356.727 272.679H139.792C137.454 272.679 135.57 270.795 135.57 268.457V183.539C135.57 181.232 137.454 179.317 139.792 179.317Z" fill="#FEFEFE"/>
<path fill-rule="evenodd" clip-rule="evenodd" d="M148.345 188.462H163.005V203.908H148.345V188.462ZM334.61 247.521H349.27V262.942H334.61V247.521ZM315.985 247.521H330.645V262.942H315.985V247.521ZM297.355 247.521H312.015V262.942H297.355V247.521ZM185.6 247.521H293.39V262.942H185.6V247.521ZM166.97 247.521H181.63V262.942H166.97V247.521ZM148.345 247.521H163.005V262.942H148.345V247.521ZM334.61 228.11H349.27V243.531H334.61V228.11ZM315.985 228.11H330.645V243.531H315.985V228.11ZM278.73 228.11H312.015V243.531H278.73V228.11ZM260.105 228.11H274.765V243.531H260.105V228.11ZM241.48 228.11H256.14V243.531H241.48V228.11ZM222.85 228.11H237.51V243.531H222.85V228.11ZM204.225 228.11H218.885V243.531H204.225V228.11ZM185.6 228.11H200.26V243.531H185.6V228.11ZM166.97 228.11H181.63V243.531H166.97V228.11ZM148.345 228.11H163.005V243.531H148.345V228.11ZM334.61 208.16H349.27V223.576H334.61V208.16ZM297.355 208.16H330.64V223.576H297.355V208.16ZM278.73 208.16H293.39V223.576H278.73V208.16ZM260.105 208.16H274.765V223.576H260.105V208.16ZM241.48 208.16H256.14V223.576H241.48V208.16ZM222.85 208.16H237.51V223.576H222.85V208.16ZM204.225 208.16H218.885V223.576H204.225V208.16ZM185.6 208.16H200.26V223.576H185.6V208.16ZM166.97 208.16H181.63V223.576H166.97V208.16ZM148.345 208.16H163.005V223.576H148.345V208.16ZM334.61 188.462H349.27V203.908H334.61V188.462ZM315.985 188.462H330.645V203.908H315.985V188.462ZM297.355 188.462H312.015V203.908H297.355V188.462ZM278.73 188.462H293.39V203.908H278.73V188.462ZM260.105 188.462H274.765V203.908H260.105V188.462ZM241.48 188.462H256.14V203.908H241.48V188.462ZM222.85 188.462H237.51V203.908H222.85V188.462ZM204.225 188.462H218.885V203.908H204.225V188.462ZM185.6 188.462H200.26V203.908H185.6V188.462ZM166.97 188.462H181.63V203.908H166.97V188.462Z" fill="url(#paint0_linear_51_18896)"/>
<path fill-rule="evenodd" clip-rule="evenodd" d="M98.6275 291.39C94.6325 297.33 86.8087 298.76 81.1814 294.544C75.5793 290.352 73.8362 282.977 77.6096 277.072L21.4222 235.037L95.4789 125.08L172.07 182.366L98.6326 291.395L98.6275 291.39Z" fill="#32ACBD"/>
<path fill-rule="evenodd" clip-rule="evenodd" d="M88.5581 296.957C87.0669 296.987 85.5455 296.705 84.0845 296.141L158.166 186.154C158.338 185.897 158.393 185.62 158.363 185.338C158.307 185.086 158.166 184.829 157.94 184.633L98.6288 140.29C98.3769 140.093 98.12 140.038 97.8681 140.093C97.586 140.149 97.3643 140.29 97.193 140.542L29.4942 241.077L26.144 238.573L93.868 138.038C94.6842 136.829 95.8932 136.098 97.1577 135.841V135.871C98.4525 135.62 99.8328 135.927 100.987 136.773L160.297 181.147C161.421 181.993 162.126 183.258 162.353 184.633C162.579 185.983 162.297 187.449 161.511 188.628L88.5531 296.952L88.5581 296.957Z" fill="#298C99"/>
<path fill-rule="evenodd" clip-rule="evenodd" d="M22.4046 246.905L22.067 247.383L26.0066 250.31L30.1427 253.403L30.5911 253.741L37.1202 258.608L37.5685 258.945L44.0674 263.812L44.5157 264.149L51.0448 269.046L51.4932 269.353L57.992 274.25L58.4404 274.588L64.9695 279.454L65.4178 279.792L71.9167 284.658L72.3651 284.996L78.8941 289.862L79.3425 290.2L82.2393 292.366L85.1663 294.563L85.4736 294.084L79.6498 289.721L84.3501 282.744L90.1739 287.107L90.4812 286.628L84.6575 282.265L89.3578 275.288L95.1816 279.651L95.5191 279.172L89.6953 274.809L94.3957 267.832L100.219 272.195L100.527 271.716L94.703 267.353L99.4033 260.376L105.227 264.739L105.534 264.26L99.7408 259.897L104.441 252.945L110.24 257.278L110.577 256.799L104.754 252.466L109.454 245.489L115.278 249.822L115.585 249.373L109.761 245.01L114.461 238.033L120.285 242.396L120.623 241.917L114.799 237.554L119.499 230.577L125.323 234.94L125.63 234.461L119.807 230.098L124.507 223.121L130.331 227.484L130.638 227.005L124.839 222.642L129.54 215.665L135.338 220.028L135.676 219.549L129.852 215.186L134.552 208.209L140.376 212.572L140.684 212.093L134.86 207.73L139.56 200.753L145.384 205.116L145.721 204.637L139.898 200.274L144.598 193.297L150.422 197.659L150.729 197.181L144.905 192.818L149.606 185.871L155.429 190.203L155.737 189.725L149.913 185.392L152.926 180.919L152.502 180.581L149.49 185.055L142.961 180.158L145.973 175.715L145.525 175.377L142.512 179.851L136.013 174.954L138.996 170.51L138.573 170.173L135.56 174.646L129.031 169.75L132.044 165.276L131.595 164.969L128.583 169.412L122.084 164.546L125.066 160.072L124.643 159.734L121.63 164.208L115.101 159.341L118.114 154.868L117.666 154.53L114.653 159.004L108.154 154.137L111.167 149.664L110.718 149.326L107.706 153.8L101.177 148.933L104.189 144.46L103.741 144.122L100.728 148.596L94.7634 144.122L94.4561 144.601L100.421 149.074L95.7206 156.052L89.7558 151.578L89.4182 152.057L95.3831 156.53L90.6828 163.508L84.7179 159.034L84.4106 159.513L90.3754 163.986L85.6751 170.934L79.7103 166.49L79.403 166.969L85.3678 171.417L80.6675 178.395L74.7026 173.951L74.3651 174.43L80.3299 178.873L75.6296 185.851L69.6648 181.407L69.3575 181.886L75.3223 186.329L70.622 193.307L64.6571 188.858L64.3196 189.307L70.2844 193.78L65.5841 200.758L59.6193 196.284L59.312 196.763L65.2768 201.236L60.5765 208.214L54.6116 203.74L54.3043 204.219L60.2692 208.692L55.5688 215.67L49.604 211.196L49.2665 211.675L55.2313 216.148L50.531 223.126L44.5661 218.652L44.2588 219.131L50.2237 223.604L45.5233 230.582L39.5585 226.108L39.2209 226.587L45.1858 231.061L40.4855 238.013L34.5206 233.564L34.2133 234.043L40.1781 238.486L35.4778 245.464L29.513 241.02L29.2057 241.499L35.1705 245.947L30.4702 252.925L22.3945 246.905H22.4046ZM100.879 149.407L96.1791 156.384L102.678 161.251L107.378 154.273L100.879 149.407ZM95.8415 156.838L91.1412 163.815L97.6703 168.712L102.371 161.734L95.8415 156.838ZM90.8339 164.294L86.1336 171.271L92.6626 176.168L97.363 169.19L90.8339 164.294ZM85.796 171.75L81.0957 178.727L87.6248 183.624L92.3251 176.647L85.796 171.75ZM80.7884 179.206L76.0881 186.183L82.6171 191.05L87.3174 184.072L80.7884 179.206ZM75.7807 186.662L71.0804 193.639L77.5793 198.506L82.2796 191.528L75.7807 186.662ZM70.7429 194.118L66.0425 201.095L72.5716 205.962L77.272 198.984L70.7429 194.118ZM65.7352 201.574L61.0349 208.551L67.564 213.418L72.2643 206.44L65.7352 201.574ZM60.6974 209.03L55.997 216.007L62.5261 220.874L67.2264 213.897L60.6974 209.03ZM55.6897 216.486L50.9894 223.463L57.5185 228.33L62.2188 221.353L55.6897 216.486ZM50.6821 223.917L45.9818 230.894L52.4806 235.791L57.1809 228.814L50.6821 223.917ZM45.6442 231.373L40.9439 238.35L47.473 243.247L52.1733 236.27L45.6442 231.373ZM40.6366 238.829L35.9363 245.806L42.4653 250.703L47.1657 243.726L40.6366 238.829ZM35.629 246.285L30.9286 253.262L42.1278 251.152L35.629 246.285ZM114.048 237.7L107.519 232.834L102.819 239.811L109.318 244.678L114.043 237.7H114.048ZM107.071 232.496L100.542 227.6L95.8415 234.577L102.371 239.474L107.071 232.496ZM100.119 227.292L93.5896 222.395L88.8893 229.373L95.4183 234.27L100.119 227.292ZM93.1412 222.088L86.6122 217.191L81.9118 224.169L88.4409 229.035L93.1412 222.083V222.088ZM86.189 216.854L79.6599 211.987L74.9596 218.965L81.4886 223.831L86.189 216.854ZM79.2115 211.645L72.6825 206.778L67.9821 213.755L74.5112 218.622L79.2115 211.645ZM73.025 206.299L79.5239 211.166L84.2242 204.189L77.7254 199.322L73.025 206.299ZM79.9722 211.509L86.5013 216.375L91.2017 209.398L84.6726 204.531L79.9722 211.509ZM86.9497 216.713L93.4485 221.609L98.1489 214.632L91.65 209.735L86.9497 216.713ZM93.9019 221.917L100.431 226.814L105.131 219.836L98.6023 214.939L93.9019 221.917ZM100.879 227.151L107.378 232.018L112.079 225.04L105.58 220.174L100.879 227.151ZM107.827 232.355L114.356 237.222L119.056 230.244L112.527 225.378L107.827 232.355ZM78.0327 198.843L84.5617 203.71L89.2621 196.732L82.733 191.866L78.0327 198.843ZM85.0101 204.047L91.509 208.944L96.2093 201.967L89.7104 197.07L85.0101 204.047ZM91.9573 209.257L98.4864 214.153L103.187 207.176L96.6577 202.279L91.9573 209.257ZM98.9398 214.491L105.439 219.358L110.139 212.38L103.64 207.514L98.9398 214.491ZM105.887 219.695L112.416 224.562L117.116 217.584L110.587 212.718L105.887 219.695ZM112.864 224.899L119.363 229.766L124.064 222.788L117.565 217.922L112.864 224.899ZM149.162 185.538L142.663 180.642L137.963 187.619L144.462 192.516L149.162 185.538ZM142.21 180.329L135.681 175.432L130.981 182.41L137.51 187.307L142.21 180.329ZM135.233 175.095L128.734 170.228L124.033 177.206L130.532 182.072L135.233 175.095ZM128.285 169.891L121.756 165.024L117.056 172.002L123.585 176.868L128.285 169.891ZM121.308 164.687L114.809 159.82L110.109 166.798L116.608 171.664L121.308 164.687ZM114.356 159.483L107.827 154.616L103.126 161.593L109.655 166.46L114.356 159.483ZM144.155 192.989L137.626 188.093L132.925 195.07L139.454 199.967L144.155 192.989ZM137.177 187.76L130.678 182.893L125.978 189.871L132.477 194.737L137.177 187.76ZM130.225 182.551L123.696 177.684L118.996 184.662L125.525 189.528L130.225 182.551ZM123.248 177.347L116.749 172.48L112.048 179.458L118.547 184.324L123.248 177.347ZM116.3 172.143L109.771 167.276L105.071 174.254L111.6 179.12L116.3 172.143ZM109.318 166.939L102.819 162.072L98.1186 169.049L104.617 173.916L109.318 166.939ZM139.117 200.42L132.618 195.554L127.918 202.531L134.416 207.398L139.117 200.42ZM132.17 195.216L125.64 190.35L120.94 197.327L127.469 202.194L132.17 195.216ZM125.217 190.007L118.688 185.14L113.988 192.118L120.517 196.984L125.217 190.007ZM118.24 184.803L111.711 179.936L107.01 186.914L113.54 191.78L118.24 184.803ZM111.288 179.599L104.759 174.732L100.058 181.71L106.587 186.576L111.288 179.599ZM104.31 174.395L97.7811 169.528L93.0808 176.475L99.6098 181.372L104.31 174.395ZM134.109 207.876L127.58 203.01L122.88 209.987L129.409 214.854L134.109 207.876ZM127.157 202.672L120.628 197.806L115.927 204.783L122.457 209.65L127.157 202.672ZM120.179 197.468L113.65 192.601L108.95 199.579L115.479 204.445L120.179 197.468ZM113.232 192.264L106.703 187.397L102.003 194.375L108.532 199.241L113.232 192.264ZM106.255 187.055L99.7257 182.188L95.0254 189.135L101.554 194.032L106.255 187.055ZM99.3025 181.851L92.7735 176.954L88.0731 183.931L94.6022 188.828L99.3025 181.851ZM129.102 215.332L122.572 210.466L117.872 217.443L124.401 222.31L129.102 215.332ZM122.124 210.128L115.625 205.262L110.925 212.239L117.424 217.106L122.124 210.128ZM115.172 204.924L108.643 200.057L103.942 207.035L110.471 211.902L115.172 204.924ZM108.194 199.715L101.696 194.848L96.9952 201.801L103.494 206.697L108.194 199.72V199.715ZM101.242 194.511L94.713 189.614L90.0127 196.591L96.5418 201.488L101.242 194.511ZM94.2647 189.307L87.7658 184.41L83.0655 191.387L89.5643 196.284L94.2647 189.307ZM37.8809 258.466L49.1103 256.386L42.5812 251.489L37.8809 258.466ZM44.8583 263.671L56.0575 261.59L49.5586 256.693L44.8583 263.671ZM51.8106 268.875L63.0349 266.794L56.5059 261.928L51.8055 268.875H51.8106ZM58.788 274.109L69.9872 271.998L63.4581 267.132L58.788 274.109ZM65.7352 279.313L76.9596 277.202L70.4305 272.336L65.7302 279.313H65.7352ZM72.6875 284.522L79.2166 289.389L83.9169 282.411L77.3878 277.545L72.6875 284.522ZM42.8885 251.01L49.4176 255.907L54.1179 248.93L47.5888 244.033L42.8885 251.01ZM49.866 256.215L56.395 261.111L61.0954 254.134L54.5663 249.267L49.866 256.215ZM56.8182 261.449L63.3473 266.315L68.0476 259.338L61.5185 254.471L56.8182 261.449ZM63.7957 266.653L70.3247 271.52L75.0251 264.542L68.496 259.676L63.7957 266.653ZM70.7429 271.857L77.272 276.724L81.9723 269.746L75.4432 264.88L70.7429 271.857ZM77.7203 277.066L84.2494 281.933L88.9497 274.955L82.4206 270.089L77.7203 277.066ZM47.9264 243.554L54.4252 248.451L59.1256 241.474L52.6267 236.607L47.9264 243.554ZM54.8736 248.789L61.4027 253.655L66.103 246.678L59.5739 241.811L54.8736 248.789ZM61.851 253.993L68.3499 258.859L73.0502 251.882L66.5514 247.015L61.851 253.993ZM68.8033 259.197L75.3324 264.064L80.0327 257.086L73.5036 252.22L68.8033 259.197ZM75.7807 264.406L82.2796 269.273L86.9799 262.295L80.4811 257.429L75.7807 264.406ZM82.733 269.61L89.2621 274.477L93.9624 267.499L87.4333 262.633L82.733 269.61ZM52.934 236.124L59.4631 240.99L64.1634 234.013L57.6343 229.146L52.934 236.124ZM59.9115 241.333L66.4103 246.199L71.1106 239.222L64.6118 234.355L59.9115 241.333ZM66.8637 246.537L73.3928 251.403L78.0931 244.426L71.564 239.559L66.8637 246.537ZM73.8412 251.741L80.34 256.608L85.0403 249.63L78.5415 244.764L73.8412 251.741ZM80.7884 256.945L87.3174 261.812L92.0178 254.834L85.4887 249.968L80.7884 256.945ZM87.7658 262.154L94.2647 267.051L98.965 260.074L92.4661 255.177L87.7658 262.154ZM57.9719 228.668L64.4707 233.534L69.1711 226.557L62.6722 221.69L57.9719 228.668ZM64.9191 233.877L71.4482 238.743L76.1485 231.766L69.6194 226.899L64.9191 233.877ZM71.8965 239.081L78.3954 243.947L83.0957 236.97L76.5969 232.103L71.8965 239.081ZM78.8488 244.285L85.3779 249.151L90.0782 242.174L83.5491 237.307L78.8488 244.285ZM85.8262 249.489L92.3251 254.386L97.0254 247.408L90.5266 242.512L85.8262 249.489ZM92.7735 254.698L99.3025 259.595L104.003 252.618L97.4738 247.721L92.7735 254.698ZM62.9795 221.212L69.5086 226.078L74.2089 219.101L67.6799 214.234L62.9795 221.212ZM69.9267 226.421L76.4558 231.287L81.1561 224.31L74.6271 219.443L69.9267 226.421ZM76.9042 231.625L83.4333 236.491L88.1336 229.514L81.6045 224.647L76.9042 231.625ZM83.8564 236.829L90.3855 241.695L95.0858 234.743L88.5568 229.846L83.8564 236.824V236.829ZM90.8339 242.033L97.363 246.93L102.063 239.952L95.5342 235.056L90.8339 242.033ZM97.7811 247.242L104.31 252.139L109.011 245.161L102.481 240.295L97.7811 247.247V247.242Z" fill="#298C99"/>
<path d="M94.8586 158.723C94.7175 158.834 94.5211 158.809 94.4102 158.668C94.2994 158.527 94.2994 158.3 94.4404 158.189L94.5513 158.103L94.6369 158.018L94.7478 157.932L94.8334 157.847L94.9442 157.761L94.9745 157.736C95.1155 157.595 95.3422 157.625 95.4531 157.791C95.5639 157.932 95.5387 158.159 95.3976 158.27L95.3422 158.325L95.2566 158.381L95.1458 158.466L95.0601 158.552L94.9745 158.632L94.8636 158.718L94.8586 158.723ZM76.5107 227.938L85.3723 234.578L102.536 222.759L82.1934 207.54L79.3823 217.616L76.5107 227.943V227.938ZM86.0222 235.032L97.0501 243.304L102.536 223.666L86.0222 235.032ZM79.609 256.866L79.6392 256.78L58.8731 241.248L58.7875 241.193C58.6766 241.082 58.6212 240.911 58.7321 240.77C58.7321 240.74 58.7623 240.714 58.7875 240.714L61.6843 230.246L64.6364 219.666C64.6667 219.636 64.6667 219.611 64.6919 219.581L64.7221 219.55C64.7523 219.52 64.7775 219.495 64.8077 219.465L73.2764 213.051L81.6896 206.694C81.745 206.553 81.8861 206.467 82.0271 206.497C82.0574 206.527 82.0826 206.527 82.1128 206.553L82.1984 206.608L103.388 222.447L103.443 222.503C103.529 222.558 103.584 222.699 103.529 222.84V222.865L97.6496 243.798C97.6798 243.883 97.6798 243.994 97.6194 244.08C97.5992 244.1 97.5807 244.118 97.5639 244.135C97.5337 244.246 97.4229 244.332 97.312 244.332L80.4856 257.077L80.4301 257.103C80.3747 257.158 80.3193 257.188 80.2337 257.158C80.1783 257.244 80.0624 257.269 79.9515 257.244L79.8105 257.213C79.6442 257.158 79.5586 257.017 79.614 256.846L79.609 256.866ZM79.8055 255.994L84.9542 235.203L76.0925 228.563L67.7901 234.81L59.7144 240.941L79.8055 255.994ZM85.599 235.651L80.5359 256.105L96.6319 243.923L85.604 235.651H85.599ZM73.6996 213.676L65.3165 220.034L62.3896 230.472L59.7447 239.984L75.755 227.828L81.3521 207.878L73.6996 213.676ZM74.9641 202.613C74.6819 202.699 74.3998 202.502 74.3192 202.22C74.2638 201.913 74.43 201.6 74.7424 201.515L74.9389 201.485L75.1354 201.429L75.3318 201.374L75.4981 201.343L75.6946 201.288L75.7802 201.258C76.0875 201.202 76.3696 201.399 76.425 201.706C76.4805 202.013 76.3142 202.326 76.0019 202.381L75.9162 202.411L75.7197 202.442L75.5485 202.497L75.352 202.527L75.1555 202.583L74.959 202.608L74.9641 202.613ZM71.9514 202.361C72.2335 202.275 72.5409 202.447 72.6265 202.724C72.7121 203.036 72.5408 203.344 72.2587 203.454H72.2285L72.032 203.51L71.8607 203.595L71.6643 203.651L71.493 203.706L71.3267 203.792H71.2713C70.9892 203.903 70.6819 203.762 70.566 203.454C70.4804 203.172 70.6214 202.835 70.9035 202.724H70.959L71.1303 202.638L71.3267 202.583L71.5232 202.497L71.6895 202.442L71.8859 202.386L71.9413 202.361H71.9514ZM68.1277 203.993C68.3796 203.852 68.7171 203.963 68.833 204.245C68.974 204.527 68.8632 204.865 68.5811 205.006L68.44 205.092L68.2687 205.177L68.0975 205.263L67.9312 205.374L67.7599 205.459L67.6491 205.515C67.367 205.656 67.0597 205.57 66.9186 205.288C66.7775 205.006 66.8884 204.668 67.1453 204.527L67.2561 204.442L67.4274 204.356L67.5937 204.27L67.7901 204.16L67.9614 204.074L68.1327 203.988L68.1277 203.993ZM64.3291 206.301C64.5558 206.104 64.8934 206.19 65.0596 206.442C65.2309 206.694 65.1705 207.061 64.9186 207.228L64.8883 207.258L64.7473 207.369L64.576 207.48L64.4349 207.565L64.2939 207.676L64.1226 207.787L64.0369 207.873C63.8102 208.044 63.4727 207.983 63.3064 207.731C63.11 207.48 63.1654 207.142 63.4173 206.946L63.5029 206.89L63.644 206.779L63.8102 206.638L63.9815 206.527L64.1226 206.417L64.2939 206.306H64.3241L64.3291 206.301ZM60.8681 209.117C61.0948 208.92 61.4324 208.946 61.6288 209.172C61.8253 209.399 61.7951 209.762 61.5986 209.958L61.5684 209.983L61.4273 210.094L61.3165 210.235L61.1754 210.376L61.0344 210.487L60.8933 210.628L60.8077 210.714C60.581 210.941 60.2434 210.941 60.0469 210.714C59.8505 210.487 59.8505 210.124 60.0469 209.898L60.1578 209.812L60.2988 209.671L60.4399 209.53L60.581 209.389L60.722 209.248L60.8631 209.137V209.107L60.8681 209.117ZM57.8303 212.437C58.0268 212.21 58.3643 212.185 58.591 212.381C58.8177 212.578 58.8429 212.946 58.6464 213.167L58.5608 213.283L58.4499 213.454L58.3391 213.596L58.2283 213.737L58.1174 213.878L58.0066 214.049C57.8101 214.301 57.4726 214.331 57.2459 214.135C56.994 213.968 56.9638 213.601 57.1351 213.349H57.1653L57.2761 213.177L57.387 213.036L57.4978 212.87L57.6086 212.729L57.7194 212.588L57.8303 212.447V212.437ZM55.3265 251.208C55.1552 250.926 55.2408 250.589 55.4927 250.422C55.7446 250.251 56.0821 250.337 56.2232 250.589L56.3089 250.699L56.3945 250.871L56.5053 251.042L56.591 251.183L56.7018 251.349L56.8126 251.521C56.9839 251.772 56.9235 252.14 56.6716 252.307C56.4197 252.473 56.0821 252.417 55.9109 252.165L55.8 251.994L55.7144 251.823L55.6035 251.657L55.4927 251.485L55.3819 251.319L55.3265 251.208ZM57.9159 254.921C57.7194 254.669 57.7446 254.302 57.9713 254.105C58.198 253.909 58.5356 253.934 58.7321 254.16L58.8177 254.276L58.9285 254.417L59.0696 254.558L59.1804 254.699L59.2913 254.841L59.4323 254.982V255.012C59.6288 255.239 59.6288 255.601 59.4021 255.828C59.1754 256.024 58.8379 256.024 58.6414 255.773H58.6112L58.5003 255.606L58.3593 255.465L58.2484 255.324L58.1074 255.153L57.9965 255.012L57.9109 254.926L57.9159 254.921ZM60.9789 258.216C60.7522 257.989 60.7271 257.652 60.9235 257.4C61.12 257.173 61.4575 257.148 61.6843 257.37L61.7397 257.4L61.8807 257.541L62.0218 257.652L62.1628 257.793L62.3039 257.904L62.445 258.014L62.5004 258.07C62.7271 258.266 62.7523 258.634 62.586 258.886C62.3895 259.108 62.052 259.168 61.8253 258.941L61.7397 258.886L61.5986 258.775L61.4575 258.634L61.3165 258.523L61.1754 258.382L61.0344 258.271L60.9789 258.216ZM64.44 261.027C64.1881 260.861 64.1327 260.493 64.2989 260.241C64.4702 259.989 64.8027 259.904 65.0294 260.07H65.0596L65.2007 260.181L65.3417 260.292L65.513 260.377L65.6541 260.488L65.8254 260.599L65.9362 260.654C66.1881 260.821 66.2737 261.188 66.1025 261.44C65.9614 261.722 65.6239 261.808 65.372 261.637L65.2309 261.551L65.0898 261.44L64.9186 261.329L64.7775 261.244L64.6062 261.133L64.4349 261.022L64.44 261.027ZM68.2687 263.309C67.9866 263.168 67.8758 262.831 67.9866 262.549C68.1277 262.266 68.435 262.156 68.7171 262.266L68.8279 262.322L68.9992 262.407L69.1403 262.493L69.3116 262.579L69.4829 262.664L69.6542 262.72L69.6844 262.75C69.9665 262.861 70.0773 263.198 69.9665 263.48C69.8557 263.763 69.5433 263.904 69.2612 263.788L69.231 263.758L69.0597 263.672L68.8934 263.586L68.697 263.531L68.5307 263.445L68.3594 263.36L68.2738 263.304L68.2687 263.309ZM72.3192 264.997C72.0371 264.911 71.896 264.574 71.9816 264.292C72.0673 263.984 72.3746 263.813 72.6567 263.924H72.7121L72.8784 263.979L73.0497 264.035L73.221 264.09L73.3872 264.145L73.5837 264.201L73.6693 264.226C73.9515 264.312 74.1177 264.619 74.0371 264.931C73.9514 265.214 73.6693 265.41 73.3872 265.324L73.2764 265.294L73.1101 265.239L72.9137 265.183L72.7474 265.128L72.5812 265.072L72.3847 265.017L72.3293 264.987L72.3192 264.997ZM76.5661 266.065C76.284 266.035 76.0875 265.727 76.1429 265.415C76.1732 265.108 76.4502 264.911 76.7626 264.967H76.7928L76.9641 264.997L77.1606 265.027L77.3319 265.057L77.5283 265.083L77.6946 265.113H77.8054C78.0875 265.168 78.3142 265.45 78.2538 265.758C78.2236 266.07 77.9465 266.292 77.6644 266.236H77.5535L77.3571 266.211L77.1606 266.181L76.9943 266.151L76.7978 266.12L76.6014 266.09L76.5711 266.06L76.5661 266.065ZM80.9289 266.513C80.6468 266.513 80.3949 266.231 80.4251 265.924C80.4251 265.612 80.677 265.36 80.9591 265.39H82.0271C82.3093 265.39 82.5612 265.642 82.5612 265.954C82.5612 266.266 82.3345 266.518 82.0271 266.518H80.9289V266.513ZM85.3169 266.292C85.0045 266.347 84.7526 266.125 84.6972 265.813C84.667 265.501 84.8937 265.224 85.1758 265.168H85.3421L85.5133 265.138L85.7098 265.108L85.9063 265.078L86.1028 265.052L86.2136 265.022C86.5209 264.967 86.803 265.188 86.8333 265.501C86.8887 265.813 86.6922 266.09 86.3849 266.151L86.2438 266.181L86.0474 266.211L85.8509 266.236L85.6544 266.266L85.4579 266.297H85.3169V266.292ZM89.6243 265.445C89.3169 265.531 89.0348 265.36 88.9492 265.052C88.8635 264.74 89.06 264.433 89.3421 264.347L89.5134 264.292L89.6847 264.261L89.8812 264.206L90.0777 264.151L90.249 264.095L90.3598 264.04C90.6419 263.954 90.9492 264.125 91.0349 264.433C91.1205 264.74 90.9492 265.052 90.6671 265.138L90.5563 265.168L90.3598 265.224L90.1633 265.309L89.9668 265.365L89.7955 265.39L89.6293 265.445H89.6243ZM93.7603 263.984C93.4782 264.095 93.1709 263.954 93.055 263.672C92.9442 263.39 93.055 263.052 93.3372 262.941L93.4782 262.886L93.6495 262.8L93.8208 262.715L94.0173 262.629L94.1886 262.543L94.3296 262.488C94.5815 262.347 94.9191 262.488 95.0349 262.77C95.1458 263.052 95.0349 263.39 94.783 263.501L94.6117 263.586L94.4455 263.672L94.2792 263.758L94.0828 263.843L93.9115 263.929L93.7704 263.984H93.7603ZM97.6697 261.899C97.4178 262.065 97.0803 261.984 96.9392 261.702C96.773 261.45 96.8536 261.082 97.1055 260.941L97.1357 260.911L97.307 260.8L97.4783 260.715L97.6194 260.604L97.7906 260.518L97.9317 260.407L98.0173 260.352C98.2692 260.181 98.6068 260.266 98.7781 260.518C98.9191 260.77 98.8637 261.138 98.6118 261.304L98.5262 261.36L98.3549 261.47L98.1836 261.581L98.0425 261.667L97.8712 261.778L97.7 261.889H97.6697V261.899ZM101.272 259.284C101.045 259.48 100.708 259.455 100.511 259.198C100.315 258.946 100.37 258.609 100.597 258.407L100.627 258.382L100.768 258.241L100.909 258.13L101.05 258.019L101.191 257.878L101.332 257.768L101.418 257.682C101.645 257.485 101.982 257.511 102.179 257.737C102.375 257.989 102.345 258.327 102.123 258.553L102.038 258.609L101.896 258.75L101.725 258.891L101.584 259.002L101.443 259.143L101.302 259.254L101.272 259.284ZM104.481 256.13C104.284 256.382 103.947 256.382 103.72 256.186C103.494 255.959 103.494 255.596 103.69 255.37L103.801 255.228L103.942 255.087L104.053 254.946L104.169 254.805L104.31 254.664L104.395 254.553C104.592 254.302 104.929 254.271 105.156 254.498C105.383 254.694 105.408 255.062 105.211 255.284L105.101 255.425L104.99 255.566L104.849 255.707L104.738 255.848L104.597 255.989L104.486 256.13H104.481ZM107.237 252.558C107.07 252.81 106.733 252.896 106.476 252.699C106.249 252.533 106.194 252.165 106.365 251.914L106.42 251.828L106.531 251.662L106.617 251.521L106.728 251.349L106.839 251.183L106.924 251.042L106.955 251.012C107.121 250.73 107.433 250.674 107.685 250.84C107.937 251.012 108.023 251.349 107.856 251.601L107.826 251.657L107.74 251.823L107.63 251.964L107.519 252.135L107.408 252.307L107.322 252.473L107.237 252.558ZM109.519 248.619C109.378 248.901 109.04 249.012 108.788 248.871C108.506 248.73 108.421 248.392 108.562 248.11V248.055L108.647 247.883L108.733 247.717L108.819 247.546L108.904 247.379L108.96 247.208L109.015 247.097C109.156 246.815 109.463 246.704 109.745 246.845C109.997 246.956 110.113 247.294 109.997 247.576L109.942 247.687L109.856 247.883L109.771 248.055L109.685 248.226L109.599 248.392L109.514 248.589V248.619H109.519ZM111.232 244.372C111.121 244.679 110.839 244.85 110.557 244.74C110.274 244.629 110.108 244.316 110.219 244.009L110.274 243.843L110.33 243.672L110.385 243.5L110.441 243.304L110.496 243.133L110.526 242.966C110.612 242.654 110.919 242.488 111.201 242.573C111.484 242.689 111.65 242.997 111.569 243.304L111.514 243.47L111.458 243.641L111.403 243.838L111.348 244.034L111.292 244.201L111.237 244.367L111.232 244.372ZM112.36 239.923C112.305 240.231 112.023 240.427 111.74 240.372C111.458 240.316 111.262 240.004 111.317 239.727L111.348 239.586L111.378 239.389L111.408 239.193L111.438 238.996L111.468 238.83L111.499 238.634C111.554 238.321 111.836 238.1 112.118 238.155C112.426 238.185 112.622 238.493 112.567 238.805L112.536 239.002L112.506 239.198L112.476 239.394L112.446 239.591L112.39 239.787L112.36 239.928V239.923ZM112.919 235.339C112.889 235.677 112.637 235.903 112.33 235.903C112.048 235.873 111.821 235.621 111.821 235.314L111.851 235.148V234.362L111.882 234.19C111.882 233.883 112.108 233.626 112.416 233.626C112.723 233.626 112.95 233.878 112.95 234.216V234.583L112.919 234.81V235.344V235.339ZM112.839 230.755C112.869 231.062 112.642 231.319 112.33 231.344C112.048 231.374 111.766 231.147 111.766 230.835L111.735 230.805V230.608L111.705 230.412L111.675 230.215V230.019L111.645 229.792V229.737C111.589 229.43 111.811 229.147 112.093 229.092C112.4 229.062 112.657 229.288 112.683 229.596L112.713 229.681L112.743 229.878V230.074L112.773 230.301L112.803 230.498L112.834 230.694V230.749L112.839 230.755ZM112.133 226.195C112.189 226.508 112.023 226.785 111.74 226.87C111.458 226.926 111.151 226.759 111.096 226.447V226.417L111.04 226.22L110.985 226.024L110.955 225.827L110.899 225.601L110.844 225.404V225.349C110.758 225.067 110.929 224.754 111.212 224.674C111.494 224.588 111.801 224.759 111.887 225.067V225.122L111.942 225.319L111.997 225.545L112.053 225.742L112.083 225.938L112.138 226.165V226.19L112.133 226.195ZM110.869 221.777C110.955 222.059 110.814 222.397 110.562 222.508C110.279 222.618 109.972 222.477 109.856 222.195L109.826 222.14L109.771 221.968L109.715 221.772L109.63 221.576L109.544 221.409L109.489 221.213L109.458 221.157C109.342 220.875 109.458 220.538 109.74 220.397C110.023 220.286 110.33 220.427 110.446 220.709L110.476 220.795L110.562 220.991L110.617 221.162L110.703 221.359L110.788 221.555L110.844 221.752L110.874 221.782L110.869 221.777ZM109.01 217.586C109.151 217.868 109.065 218.205 108.783 218.371C108.531 218.513 108.194 218.427 108.053 218.145L107.997 218.034L107.912 217.868L107.826 217.696L107.715 217.53L107.63 217.359L107.544 217.188H107.514C107.373 216.905 107.458 216.568 107.71 216.402C107.962 216.235 108.3 216.316 108.441 216.598L108.552 216.769L108.637 216.966L108.748 217.132L108.834 217.298L108.919 217.47L109.005 217.581L109.01 217.586ZM106.617 213.732C106.788 213.983 106.728 214.351 106.506 214.517C106.279 214.714 105.942 214.689 105.745 214.432L105.66 214.316L105.549 214.145L105.438 214.004L105.327 213.837L105.216 213.696L105.106 213.555C104.909 213.303 104.934 212.936 105.191 212.739C105.418 212.543 105.756 212.573 105.922 212.825H105.952L106.063 212.996L106.174 213.137L106.284 213.308L106.395 213.449L106.536 213.621L106.622 213.732H106.617ZM103.72 210.271C103.947 210.497 103.947 210.835 103.72 211.056C103.524 211.283 103.186 211.283 102.959 211.087L102.904 211.001L102.763 210.86L102.622 210.719L102.511 210.608L102.37 210.467L102.229 210.326L102.199 210.301C101.972 210.104 101.972 209.737 102.169 209.515C102.365 209.288 102.703 209.263 102.929 209.49L102.959 209.515L103.101 209.656L103.242 209.767L103.383 209.908L103.524 210.049L103.635 210.19L103.72 210.276V210.271ZM100.4 207.258C100.652 207.454 100.682 207.792 100.511 208.049C100.34 208.301 100.002 208.356 99.7504 208.16L99.7201 208.129L99.5791 208.019L99.438 207.903L99.297 207.792L99.1257 207.681L98.9846 207.57L98.899 207.515C98.6471 207.349 98.5917 206.981 98.7579 206.729C98.9292 206.477 99.2667 206.422 99.5186 206.588L99.6043 206.643L99.7453 206.754L99.9166 206.895L100.058 207.006L100.224 207.117L100.365 207.228L100.395 207.258H100.4ZM96.7125 204.754C96.9947 204.925 97.0803 205.263 96.9392 205.545C96.7982 205.797 96.4606 205.913 96.2087 205.772L96.0677 205.686L95.9266 205.6L95.7604 205.515L95.5891 205.404L95.448 205.318L95.2767 205.233C94.9946 205.092 94.909 204.754 95.0248 204.472C95.1659 204.19 95.5034 204.079 95.7553 204.22L95.9216 204.306L96.0878 204.417L96.2591 204.502L96.4304 204.588L96.5715 204.673L96.7125 204.759V204.754ZM92.7477 202.84C93.0298 202.951 93.1709 203.263 93.055 203.57C92.9694 203.852 92.6621 203.993 92.38 203.883L92.2943 203.852L92.1281 203.797L91.9568 203.711L91.7603 203.656L91.589 203.6L91.4177 203.545L91.3623 203.52C91.0802 203.434 90.9391 203.097 91.0248 202.815C91.1356 202.502 91.4177 202.336 91.6999 202.447L91.7855 202.477L91.9518 202.532L92.123 202.588L92.3195 202.673L92.4908 202.729L92.6621 202.784L92.7477 202.84ZM88.5562 201.52C88.8383 201.575 89.0348 201.888 88.9794 202.195C88.8938 202.477 88.6116 202.673 88.3295 202.618L88.2741 202.593L88.1079 202.563L87.9114 202.532L87.7451 202.477L87.5738 202.447L87.3774 202.417L87.2917 202.386C87.0096 202.331 86.8131 202.024 86.8685 201.711C86.924 201.399 87.2061 201.202 87.4882 201.263L87.599 201.293L87.7703 201.323L87.9668 201.379L88.1381 201.409L88.3346 201.464L88.531 201.49L88.5613 201.52H88.5562ZM84.2237 200.814C84.531 200.845 84.7577 201.097 84.7274 201.434C84.6972 201.746 84.4453 201.968 84.138 201.943H84.1078L83.9113 201.918H83.74L83.5436 201.888H83.0952C82.7879 201.857 82.5612 201.605 82.5864 201.298C82.5864 200.961 82.8382 200.734 83.1506 200.734H83.2362L83.4327 200.764H83.604L83.8005 200.794H83.997L84.1934 200.825H84.2237V200.814ZM79.8609 200.759C80.143 200.759 80.3949 200.986 80.4251 201.293C80.4553 201.6 80.2286 201.883 79.9163 201.913H79.6342L79.4377 201.938H79.2412L79.0447 201.968L78.8785 201.998C78.5661 202.029 78.3142 201.802 78.2891 201.49C78.2588 201.152 78.4855 200.9 78.7676 200.87L78.9641 200.84L79.1606 200.809H79.3571L79.5536 200.779H79.75L79.8609 200.749V200.759ZM81.4629 181.459C81.3773 181.514 81.2664 181.514 81.1808 181.429C81.1254 181.343 81.1254 181.202 81.211 181.121H81.2412L81.2715 181.091V181.061L81.3017 181.031H81.3319L81.3622 181.001L81.3924 180.97L81.4226 180.94L81.4528 180.91H81.4831L81.5133 180.88L81.5435 180.849H81.5737L81.604 180.819C81.6896 180.734 81.8004 180.764 81.8861 180.849C81.9415 180.96 81.9163 181.076 81.8307 181.157H81.8004L81.7702 181.187L81.74 181.217H81.7098V181.247L81.6795 181.278L81.6493 181.308H81.6191L81.5889 181.338L81.5586 181.368H81.5284L81.4982 181.399V181.429L81.4679 181.459H81.4629ZM80.6468 181.741C80.7022 181.655 80.813 181.625 80.8987 181.711C80.9843 181.797 81.0095 181.907 80.9289 181.993L80.8987 182.018V182.048L80.8684 182.079L80.8382 182.109V182.134H80.808L80.7778 182.164V182.195L80.7475 182.225L80.7173 182.255V182.285L80.6871 182.315C80.6317 182.426 80.4906 182.426 80.405 182.371C80.3193 182.285 80.2941 182.174 80.3747 182.089V182.059L80.405 182.028V182.003L80.4352 181.973L80.4654 181.948V181.917L80.4956 181.892L80.5259 181.862L80.5561 181.837L80.5863 181.807L80.6166 181.781L80.6468 181.751V181.741ZM79.9465 182.779C80.0019 182.693 80.1128 182.638 80.2286 182.693C80.3143 182.749 80.3395 182.89 80.3143 182.975L80.284 183.006V183.036L80.2538 183.066V183.096L80.2236 183.127V183.157L80.1934 183.182V183.212L80.1631 183.242V183.298L80.1329 183.328V183.353C80.1027 183.464 79.9616 183.494 79.881 183.464C79.7702 183.409 79.74 183.298 79.7702 183.182L79.8004 183.157V183.101L79.8306 183.071V183.041L79.8609 183.011V182.98L79.8911 182.95V182.92L79.9213 182.89V182.86L79.9515 182.829V182.774L79.9465 182.779ZM79.5233 183.988C79.5536 183.877 79.6644 183.822 79.7752 183.847C79.8609 183.877 79.9465 183.988 79.9163 184.099H79.8861V184.21L79.8558 184.24V184.351L79.8256 184.381V184.467C79.7954 184.577 79.7148 184.663 79.5989 184.633C79.4881 184.633 79.4276 184.522 79.4276 184.406V184.376L79.4578 184.321V184.21L79.4881 184.179V184.069L79.5183 184.038V183.983L79.5233 183.988ZM79.3823 185.258C79.3823 185.147 79.4679 185.061 79.5787 185.061C79.6644 185.061 79.745 185.147 79.745 185.258V185.484L79.7752 185.509V185.651C79.7752 185.761 79.6896 185.877 79.5787 185.877C79.4679 185.877 79.3823 185.792 79.3823 185.681V185.258ZM79.4931 186.522C79.4629 186.411 79.5233 186.326 79.6342 186.295C79.745 186.265 79.8609 186.326 79.8609 186.436L79.8911 186.467V186.552L79.9213 186.583V186.668L79.9515 186.698V186.754L79.9818 186.784V186.839C80.012 186.95 79.9515 187.066 79.8407 187.091C79.7551 187.122 79.6442 187.061 79.614 186.95L79.5838 186.92V186.834L79.5536 186.804V186.749L79.5233 186.719V186.608L79.4931 186.577V186.522ZM79.8861 187.731C79.8306 187.646 79.8861 187.504 79.9717 187.479C80.0825 187.424 80.1984 187.449 80.2538 187.565V187.595L80.284 187.625V187.656L80.3143 187.686V187.716L80.3445 187.746V187.777L80.3747 187.807V187.837L80.405 187.867V187.897L80.4352 187.928C80.4906 188.038 80.4654 188.154 80.3495 188.21C80.2639 188.265 80.1531 188.24 80.0976 188.154L80.0674 188.124V188.094L80.0372 188.069V188.038L80.007 187.983V187.953L79.9767 187.923L79.9465 187.892V187.862L79.9163 187.832V187.802L79.8861 187.771V187.741V187.731ZM80.5359 188.829C80.4805 188.744 80.4805 188.603 80.5662 188.522C80.6518 188.467 80.7929 188.467 80.8483 188.552L80.8785 188.583V188.613L80.9087 188.643L80.939 188.673L80.9692 188.703V188.734H80.9994L81.0297 188.764V188.789L81.0599 188.819L81.0901 188.845L81.1203 188.875C81.206 188.96 81.1758 189.101 81.1203 189.157C81.0347 189.243 80.9239 189.243 80.8382 189.157L80.808 189.127L80.7778 189.096L80.7475 189.066L80.7173 189.041V189.011L80.6871 188.981L80.6568 188.95L80.6266 188.925L80.5964 188.895V188.87L80.5662 188.839H80.5359V188.829ZM81.4075 189.701C81.3218 189.646 81.3218 189.504 81.3773 189.419C81.4327 189.333 81.5737 189.308 81.6594 189.389L81.6896 189.419L81.7198 189.444L81.7501 189.474H81.7803L81.8105 189.499H81.8407L81.871 189.53L81.9012 189.555L81.9314 189.585L81.9617 189.61H81.9919C82.0775 189.666 82.1027 189.807 82.0473 189.892C81.9919 189.978 81.8508 190.003 81.7652 189.948L81.735 189.918H81.7047L81.6745 189.887L81.6443 189.857L81.614 189.827H81.5838L81.5536 189.797L81.5234 189.766H81.4931L81.4629 189.736L81.4327 189.706L81.4025 189.681L81.4075 189.701ZM82.4503 190.376C82.3647 190.321 82.3093 190.205 82.3647 190.094C82.3949 189.983 82.536 189.953 82.6166 189.983L82.6468 190.013H82.677L82.7073 190.044H82.7375L82.7677 190.074H82.8231L82.8534 190.104H82.8836L82.9138 190.134H82.9692V190.159C83.0801 190.19 83.1405 190.3 83.1103 190.411C83.0549 190.522 82.939 190.583 82.8584 190.522H82.803L82.7728 190.492H82.7425L82.7123 190.462H82.6569L82.6267 190.431H82.5964L82.5662 190.401H82.536L82.5058 190.371H82.4503V190.376ZM83.6292 190.744C83.5184 190.744 83.4327 190.633 83.4579 190.517C83.4881 190.406 83.5687 190.321 83.6846 190.351H83.74L83.7703 190.381H83.9113L83.9415 190.411H84.0524C84.1632 190.442 84.2488 190.522 84.2237 190.638C84.2237 190.749 84.138 190.834 84.0272 190.834H83.9718L83.9415 190.804H83.8005L83.7703 190.774H83.6292V190.744ZM84.8383 190.855C84.7274 190.855 84.6116 190.769 84.6116 190.658C84.6116 190.547 84.6972 190.431 84.8081 190.431H85.0599L85.0902 190.401H85.1758C85.2866 190.401 85.4025 190.457 85.4025 190.573C85.4025 190.688 85.3471 190.799 85.2363 190.824H84.9844L84.9542 190.855H84.8433H84.8383ZM86.0222 190.658C85.9113 190.688 85.8257 190.628 85.7955 190.517C85.7652 190.406 85.8257 190.29 85.9063 190.265L85.9365 190.235H86.0222L86.0524 190.205H86.1078L86.138 190.175H86.1935L86.2237 190.144H86.2539L86.2842 190.119C86.395 190.089 86.5109 190.144 86.536 190.26C86.5663 190.346 86.5058 190.487 86.4252 190.512L86.3698 190.542H86.3144L86.2842 190.573H86.2287L86.1985 190.603H86.1683L86.138 190.633H86.0826L86.0524 190.663H86.0222V190.658ZM87.1456 190.149C87.06 190.205 86.9491 190.18 86.8937 190.094C86.8383 189.983 86.8635 189.867 86.9491 189.812L86.9794 189.782H87.0096L87.0398 189.751H87.0701L87.1003 189.721L87.1305 189.696H87.1607V189.666H87.191L87.2212 189.635L87.2514 189.605H87.2816L87.3119 189.58C87.3975 189.525 87.5084 189.55 87.5638 189.635C87.6192 189.746 87.6192 189.862 87.5084 189.918V189.948L87.4781 189.978H87.4479L87.4177 190.008L87.3874 190.039H87.3572L87.327 190.069L87.2968 190.099H87.2665L87.2363 190.129H87.2061L87.1758 190.154H87.1456V190.149ZM88.133 189.419C88.0474 189.504 87.9366 189.474 87.8509 189.389C87.7955 189.303 87.7955 189.192 87.8812 189.106L87.9114 189.076V189.046H87.9416L87.9718 189.021L88.0021 188.991L88.0323 188.96V188.93L88.0625 188.905H88.0927L88.123 188.875L88.1532 188.85V188.819L88.4353 189.101V189.132L88.4051 189.162L88.3749 189.192L88.3446 189.222L88.3144 189.253L88.2842 189.283L88.254 189.313L88.2237 189.338L88.1935 189.368L88.1633 189.394L88.133 189.424V189.419ZM88.133 188.829L88.4152 189.112C88.5008 189.026 88.5008 188.915 88.4152 188.829C88.3295 188.744 88.2187 188.744 88.133 188.829ZM88.919 188.462C88.8635 188.547 88.7477 188.572 88.6671 188.492C88.5814 188.436 88.5562 188.321 88.6116 188.21L88.6419 188.18V188.154L88.6721 188.124V188.094H88.7023L88.7326 188.064V188.038L88.7628 188.008V187.978L88.793 187.948V187.918L88.8232 187.887V187.857C88.8787 187.771 88.9945 187.746 89.1054 187.802C89.191 187.857 89.2162 187.968 89.1608 188.084L89.1305 188.114V188.144L89.1003 188.169V188.2L89.0701 188.23L89.0399 188.26V188.285L89.0096 188.316L88.9794 188.346V188.376L88.9492 188.406V188.436L88.919 188.467V188.462ZM89.5134 187.308C89.458 187.419 89.3421 187.474 89.2615 187.419C89.1507 187.389 89.0953 187.278 89.1507 187.167V187.111L89.1809 187.081V187.026L89.2112 186.996V186.94L89.2414 186.91V186.855L89.2716 186.824V186.794C89.3018 186.683 89.4127 186.628 89.4983 186.653C89.6091 186.683 89.6646 186.794 89.6394 186.905V186.96L89.6091 186.991V187.046L89.5789 187.076V187.132L89.5487 187.162V187.217L89.5185 187.248V187.303L89.5134 187.308ZM89.7905 186.074C89.7905 186.185 89.6797 186.27 89.5638 186.24C89.4782 186.24 89.3925 186.129 89.3925 186.013H89.4227V185.731L89.453 185.701V185.615C89.453 185.504 89.5386 185.419 89.6494 185.419C89.7603 185.444 89.8459 185.53 89.8459 185.645V185.701L89.8157 185.731V185.983L89.7855 186.038V186.064L89.7905 186.074ZM89.8207 184.804C89.8207 184.915 89.7653 185.001 89.6545 185.031C89.5436 185.031 89.458 184.945 89.4278 184.834V184.668L89.3975 184.638V184.472L89.3673 184.441C89.3673 184.331 89.4227 184.215 89.5386 184.215C89.6494 184.185 89.7351 184.27 89.7653 184.386V184.416L89.7955 184.446V184.643L89.8258 184.673V184.814L89.8207 184.804ZM89.5688 183.54C89.5991 183.65 89.5386 183.766 89.458 183.822C89.3472 183.852 89.2313 183.792 89.2061 183.681L89.1759 183.65V183.595L89.1457 183.54V183.484L89.1154 183.454V183.424L89.0852 183.394V183.338L89.055 183.313C88.9996 183.202 89.055 183.086 89.1658 183.031C89.2514 183.001 89.3623 183.031 89.4177 183.142V183.197L89.4479 183.227V183.258L89.4782 183.283V183.338L89.5084 183.368V183.399L89.5386 183.454V183.509L89.5688 183.54ZM89.0348 182.386C89.0902 182.497 89.065 182.613 88.9794 182.668C88.8938 182.724 88.7829 182.698 88.7275 182.613L88.6973 182.587V182.557L88.6671 182.532L88.6368 182.502V182.477L88.6066 182.446L88.5764 182.421L88.5462 182.391V182.366L88.5159 182.336L88.4857 182.305V182.275C88.4303 182.189 88.4303 182.079 88.5159 181.993C88.6016 181.938 88.7426 181.938 88.798 182.048L88.8283 182.079L88.8585 182.109L88.8887 182.134V182.164L88.919 182.195L88.9492 182.225V182.255L88.9794 182.285L89.0096 182.315V182.346L89.0399 182.376V182.401L89.0348 182.386ZM88.2741 181.399C88.3598 181.484 88.3598 181.595 88.2741 181.681C88.2187 181.766 88.0776 181.766 88.0222 181.681H87.992L87.9618 181.65V181.62L87.9315 181.59H87.9013L87.8711 181.56L87.8409 181.53V181.499H87.8106L87.7804 181.469L87.7502 181.439L87.7199 181.409C87.6343 181.323 87.6091 181.212 87.6897 181.101C87.7451 181.016 87.8862 181.016 87.9718 181.101L88.0021 181.132L88.0323 181.162L88.0625 181.192H88.0927L88.123 181.222L88.1532 181.252V181.283L88.1834 181.313L88.2136 181.343L88.2439 181.373H88.2741V181.404V181.399ZM87.3169 180.613C87.4025 180.668 87.458 180.784 87.4025 180.895C87.3471 180.98 87.2061 181.006 87.1204 180.95H87.0902L87.06 180.92H87.0298L86.9995 180.89H86.9693L86.9391 180.859L86.9088 180.829L86.8786 180.799H86.8484L86.8182 180.769H86.7627C86.6771 180.713 86.6519 180.572 86.6771 180.487C86.7325 180.376 86.8484 180.346 86.9592 180.376V180.406H86.9894L87.0197 180.436H87.0499L87.0801 180.467L87.1104 180.497H87.1406L87.1708 180.527H87.201L87.2313 180.557L87.2615 180.587H87.2917L87.3219 180.618L87.3169 180.613ZM86.2187 180.079C86.3295 180.109 86.3899 180.22 86.3295 180.331C86.2993 180.441 86.1884 180.497 86.1028 180.472H86.0726L86.0423 180.441H85.9869L85.9567 180.411H85.9013L85.871 180.381H85.7854L85.7552 180.351H85.7249C85.6141 180.32 85.5537 180.21 85.5839 180.099C85.6141 179.988 85.6947 179.933 85.8106 179.958H85.866L85.8962 179.988H85.9516L86.0071 180.018H86.0625L86.0927 180.048H86.1481L86.1784 180.079H86.2086H86.2187ZM85.0398 179.827C85.1254 179.827 85.206 179.938 85.206 180.053C85.206 180.169 85.0952 180.25 84.9793 180.25H84.9239L84.8937 180.22H84.6116C84.5007 180.22 84.4151 180.134 84.4151 180.023C84.4151 179.912 84.5007 179.827 84.6116 179.827H85.0348H85.0398ZM83.8005 179.882C83.9113 179.852 84.0272 179.938 84.0272 180.053C84.0574 180.164 83.9718 180.28 83.8861 180.28H83.8307L83.8005 180.31H83.6896L83.6594 180.341H83.5738L83.5436 180.371H83.4881C83.4025 180.401 83.2917 180.315 83.2614 180.2C83.2312 180.114 83.3168 180.003 83.4025 179.973H83.4327L83.4629 179.943H83.5486L83.5788 179.912H83.6645L83.7199 179.882H83.8055H83.8005ZM82.6468 180.22C82.7325 180.164 82.8433 180.22 82.8987 180.331C82.9289 180.441 82.8987 180.557 82.7879 180.582V180.613H82.7325L82.7022 180.643H82.672L82.6418 180.673H82.6115L82.5813 180.703H82.5511L82.5209 180.734H82.4906L82.4604 180.764H82.4302C82.3193 180.819 82.2035 180.794 82.1783 180.678C82.1229 180.567 82.1481 180.451 82.2639 180.396L82.2942 180.366H82.3244L82.3546 180.336H82.3848L82.4151 180.305H82.4453L82.4755 180.275H82.5058L82.536 180.245H82.5662L82.5964 180.215H82.6518L82.6468 180.22ZM102.284 168.542C102.174 168.628 102.002 168.628 101.917 168.486C101.806 168.376 101.831 168.204 101.947 168.094L101.977 168.063L102.007 168.038L102.038 168.008L102.093 167.983L102.123 167.952L102.153 167.927L102.184 167.872L102.239 167.842L102.269 167.811L102.3 167.781L102.355 167.751L102.385 167.721L102.415 167.691L102.471 167.66C102.582 167.575 102.753 167.605 102.839 167.716C102.949 167.857 102.894 168.028 102.783 168.139L102.753 168.164L102.723 168.194L102.667 168.219L102.637 168.25L102.607 168.275L102.577 168.305L102.521 168.335L102.491 168.366L102.461 168.396L102.431 168.426L102.4 168.456L102.345 168.486L102.315 168.517L102.284 168.547V168.542ZM101.131 168.935C101.242 168.824 101.413 168.794 101.524 168.91C101.635 168.995 101.635 169.192 101.554 169.303L101.524 169.328L101.493 169.383L101.463 169.413L101.433 169.444L101.403 169.474L101.373 169.504L101.342 169.56L101.312 169.59L101.282 169.62L101.252 169.65V169.706L101.221 169.736L101.191 169.766C101.106 169.877 100.939 169.907 100.823 169.822C100.682 169.711 100.657 169.539 100.768 169.398L100.798 169.343L100.828 169.318L100.859 169.288L100.889 169.232L100.919 169.207L100.949 169.177L100.98 169.121L101.01 169.096L101.04 169.066L101.07 169.01L101.101 168.985L101.131 168.955V168.935ZM100.174 170.426C100.259 170.285 100.425 170.23 100.541 170.285C100.682 170.371 100.738 170.537 100.682 170.678H100.652V170.733L100.622 170.764L100.592 170.794V170.849L100.561 170.879V170.935L100.531 170.965L100.501 170.995V171.051L100.471 171.081V171.136L100.441 171.167V171.197C100.385 171.338 100.214 171.393 100.073 171.338C99.9317 171.283 99.8763 171.111 99.9317 170.97V170.94L99.962 170.885V170.854L99.9922 170.799L100.022 170.769V170.713L100.053 170.683L100.083 170.628V170.597L100.113 170.542L100.143 170.512V170.456L100.174 170.426ZM99.5841 172.089C99.6143 171.948 99.7806 171.837 99.9216 171.892C100.063 171.922 100.148 172.063 100.118 172.23V172.26L100.088 172.315V172.401L100.058 172.426V172.512L100.027 172.567V172.678L99.9972 172.733V172.764C99.967 172.93 99.8259 173.046 99.6899 173.016C99.5489 172.985 99.438 172.819 99.4632 172.678V172.567L99.4934 172.542V172.456L99.5237 172.401V172.315L99.5539 172.26V172.174L99.5841 172.119V172.089ZM99.3574 173.862C99.3574 173.691 99.4985 173.58 99.6395 173.58C99.7806 173.58 99.9216 173.721 99.9216 173.862V174.426C99.9216 174.592 99.8108 174.708 99.6698 174.733C99.5287 174.733 99.3876 174.623 99.3876 174.451V174.335L99.3574 174.28V173.857V173.862ZM99.5287 175.635C99.4985 175.494 99.6143 175.323 99.7554 175.298C99.8965 175.267 100.038 175.353 100.063 175.524L100.093 175.555V175.64L100.123 175.67V175.756L100.153 175.812V175.897L100.184 175.927V175.983L100.214 176.013V176.068C100.269 176.21 100.184 176.381 100.048 176.436C99.9065 176.461 99.7403 176.381 99.7101 176.24L99.6798 176.215V176.129L99.6496 176.099V176.043L99.6194 175.988V175.963L99.5891 175.907V175.822L99.5589 175.766V175.681L99.5287 175.65V175.635ZM100.093 177.323C100.038 177.182 100.093 177.016 100.234 176.955C100.375 176.87 100.516 176.925 100.602 177.066V177.096L100.632 177.152V177.182L100.662 177.212L100.692 177.268V177.298L100.723 177.353L100.753 177.383L100.783 177.414V177.469L100.813 177.499L100.844 177.529L100.874 177.585C100.929 177.726 100.904 177.892 100.763 177.978C100.622 178.063 100.456 178.008 100.395 177.867L100.365 177.837L100.335 177.781L100.305 177.751V177.696L100.274 177.665L100.244 177.61L100.214 177.58V177.524L100.184 177.494L100.153 177.439L100.123 177.409V177.353L100.093 177.323ZM101.02 178.839C100.909 178.728 100.934 178.527 101.05 178.446C101.161 178.336 101.332 178.361 101.443 178.477V178.507L101.473 178.537L101.504 178.562L101.534 178.623L101.564 178.648L101.619 178.678L101.65 178.703L101.68 178.759L101.71 178.789L101.74 178.819L101.771 178.844L101.801 178.875V178.9C101.912 179.011 101.912 179.182 101.801 179.293C101.69 179.404 101.519 179.404 101.408 179.293V179.268L101.378 179.237L101.322 179.212L101.292 179.182L101.262 179.126L101.231 179.101L101.201 179.071L101.171 179.016L101.141 178.99L101.111 178.96L101.08 178.905L101.025 178.88V178.849L101.02 178.839ZM102.229 180.079C102.118 179.993 102.088 179.797 102.174 179.686C102.259 179.545 102.456 179.545 102.567 179.63L102.597 179.66L102.627 179.691L102.657 179.721L102.713 179.746L102.743 179.776L102.773 179.802L102.803 179.832L102.834 179.862H102.889L102.919 179.892L102.949 179.922L102.98 179.953H103.01C103.121 180.038 103.181 180.235 103.096 180.376C103.01 180.487 102.844 180.542 102.703 180.462V180.431L102.647 180.401L102.617 180.371L102.587 180.341L102.531 180.31L102.501 180.28L102.471 180.25L102.415 180.22L102.385 180.189L102.355 180.159L102.325 180.129L102.269 180.099L102.239 180.069L102.229 180.079ZM103.69 181.006C103.549 180.95 103.494 180.779 103.549 180.613C103.604 180.472 103.776 180.416 103.917 180.472L103.947 180.502L104.002 180.532H104.033L104.063 180.562H104.118L104.148 180.593L104.179 180.623H104.234L104.264 180.653H104.295L104.35 180.683H104.38L104.41 180.713C104.551 180.744 104.637 180.91 104.577 181.081C104.521 181.222 104.35 181.308 104.209 181.247L104.179 181.217H104.148L104.093 181.187H104.063L104.033 181.157H103.977L103.947 181.127L103.891 181.096H103.861L103.806 181.066L103.776 181.036H103.72L103.69 181.006ZM105.297 181.54C105.156 181.509 105.07 181.368 105.101 181.202C105.131 181.061 105.272 180.95 105.408 180.975H105.463L105.519 181.006H105.63L105.66 181.036H105.801L105.831 181.066H105.917C106.083 181.096 106.169 181.232 106.169 181.373C106.138 181.545 106.028 181.655 105.861 181.625H105.72L105.665 181.595H105.554L105.499 181.565H105.388L105.332 181.535H105.302L105.297 181.54ZM106.985 181.681C106.844 181.681 106.733 181.57 106.703 181.399C106.703 181.227 106.813 181.116 106.985 181.091H107.292L107.322 181.061H107.494C107.635 181.031 107.776 181.147 107.801 181.313C107.831 181.454 107.715 181.595 107.549 181.62H107.463L107.433 181.65H107.151L107.121 181.681H106.98H106.985ZM108.672 181.399C108.531 181.429 108.365 181.343 108.335 181.202C108.305 181.036 108.39 180.895 108.531 180.834H108.587L108.617 180.804H108.647L108.703 180.774H108.733L108.788 180.744H108.819L108.849 180.713H108.904L108.934 180.683H108.99L109.02 180.653C109.161 180.598 109.327 180.683 109.388 180.824C109.443 180.965 109.358 181.132 109.217 181.192L109.161 181.222L109.131 181.252H109.075L109.045 181.283H108.99L108.96 181.313H108.904L108.874 181.343H108.819L108.788 181.373H108.733L108.703 181.404H108.672V181.399ZM110.249 180.729C110.108 180.784 109.942 180.759 109.882 180.613C109.796 180.472 109.851 180.305 109.967 180.22L109.997 180.189L110.028 180.159H110.083L110.113 180.129L110.143 180.099L110.199 180.069L110.229 180.038H110.259L110.29 180.008L110.345 179.978L110.375 179.948L110.405 179.917H110.436C110.577 179.807 110.743 179.862 110.829 179.973C110.914 180.114 110.859 180.28 110.743 180.396H110.713L110.683 180.426L110.627 180.456L110.597 180.487L110.541 180.517L110.511 180.547L110.481 180.577L110.426 180.608L110.395 180.638H110.34L110.31 180.668L110.28 180.698L110.249 180.729ZM111.625 179.655C111.514 179.766 111.342 179.766 111.232 179.655C111.121 179.54 111.146 179.343 111.262 179.232L111.292 179.207L111.322 179.177L111.353 179.152L111.383 179.121L111.413 179.096L111.443 179.066L111.499 179.011L111.529 178.985L111.559 178.955L111.589 178.93L111.62 178.9L111.65 178.875L112.043 179.268L112.013 179.293L111.982 179.323L111.952 179.348L111.897 179.404L111.866 179.434L111.836 179.459L111.806 179.489L111.776 179.545L111.746 179.575L111.69 179.605L111.66 179.635L111.63 179.666L111.625 179.655ZM111.625 178.87L112.018 179.262C112.128 179.121 112.128 178.95 112.018 178.839C111.907 178.728 111.735 178.754 111.625 178.87ZM112.723 178.336C112.637 178.446 112.471 178.477 112.355 178.391C112.214 178.305 112.189 178.139 112.269 177.998L112.3 177.968L112.33 177.912L112.36 177.882L112.39 177.852L112.421 177.796V177.766L112.451 177.736L112.481 177.681L112.511 177.65V177.62L112.541 177.565L112.572 177.535V177.504C112.657 177.388 112.824 177.333 112.939 177.419C113.081 177.474 113.136 177.671 113.05 177.812L113.02 177.867L112.99 177.897L112.96 177.953L112.929 177.983V178.038L112.899 178.069L112.869 178.099L112.839 178.154L112.809 178.184L112.778 178.24L112.748 178.27L112.718 178.3V178.33L112.723 178.336ZM113.514 176.728C113.484 176.87 113.317 176.955 113.176 176.895C113.035 176.839 112.95 176.668 113.005 176.527L113.035 176.497V176.441L113.065 176.416V176.361L113.096 176.33V176.275L113.126 176.25V176.194L113.156 176.164V176.079L113.186 176.048V175.993C113.242 175.852 113.383 175.766 113.524 175.796C113.665 175.852 113.751 176.023 113.72 176.164L113.69 176.194V176.305L113.66 176.33V176.386L113.63 176.416V176.472L113.599 176.502V176.557L113.569 176.613L113.539 176.643V176.698L113.509 176.728H113.514ZM113.932 175.016C113.932 175.157 113.791 175.267 113.625 175.242C113.484 175.242 113.373 175.101 113.398 174.935V174.88L113.428 174.824V174.572L113.458 174.542V174.371C113.458 174.23 113.599 174.089 113.741 174.119C113.882 174.119 114.023 174.26 113.992 174.431V174.683L113.962 174.713V174.94L113.932 174.995V175.021V175.016ZM113.992 173.212C113.992 173.383 113.882 173.524 113.741 173.524C113.574 173.555 113.458 173.439 113.433 173.272V173.131L113.403 173.076V172.91L113.373 172.854V172.743C113.343 172.577 113.428 172.436 113.599 172.406C113.741 172.376 113.882 172.461 113.907 172.633V172.743L113.937 172.774V172.97L113.967 173V173.197L113.997 173.227L113.992 173.212ZM113.625 171.469C113.68 171.61 113.594 171.776 113.453 171.837C113.312 171.892 113.146 171.806 113.086 171.665V171.61L113.055 171.555V171.524L113.025 171.469V171.439L112.995 171.383V171.353L112.965 171.298V171.267L112.934 171.237L112.904 171.182V171.126C112.849 170.985 112.904 170.819 113.045 170.759C113.186 170.703 113.327 170.759 113.383 170.9L113.413 170.93V170.96L113.443 171.016L113.474 171.046V171.101L113.504 171.131V171.187L113.534 171.242V171.272L113.564 171.328L113.594 171.358V171.413L113.625 171.444V171.474V171.469ZM112.894 169.867C112.98 169.978 112.924 170.179 112.809 170.26C112.667 170.345 112.501 170.29 112.416 170.174V170.119L112.385 170.089L112.355 170.058L112.325 170.003L112.295 169.973L112.264 169.942V169.887L112.234 169.857L112.204 169.827L112.174 169.771L112.144 169.741L112.113 169.711V169.68C112.028 169.57 112.028 169.373 112.169 169.288C112.28 169.202 112.451 169.232 112.536 169.343L112.567 169.373L112.597 169.403L112.627 169.459L112.657 169.489L112.688 169.519L112.718 169.575V169.605L112.748 169.66L112.778 169.691L112.809 169.746L112.839 169.776L112.869 169.806L112.899 169.862L112.894 169.867ZM111.821 168.456C111.932 168.567 111.932 168.764 111.821 168.879C111.71 168.99 111.539 168.99 111.428 168.879V168.849L111.398 168.819L111.368 168.789L111.312 168.759L111.282 168.728L111.252 168.698L111.222 168.668L111.191 168.638L111.161 168.582L111.131 168.552L111.101 168.522L111.045 168.492L111.015 168.461C110.904 168.376 110.904 168.179 110.985 168.068C111.096 167.958 111.267 167.927 111.378 168.038L111.408 168.068L111.438 168.094L111.494 168.124L111.524 168.149L111.554 168.179L111.584 168.204L111.615 168.26L111.67 168.29L111.7 168.32L111.73 168.35L111.761 168.381L111.791 168.436H111.821V168.456ZM110.471 167.363C110.612 167.449 110.642 167.615 110.582 167.756C110.496 167.897 110.33 167.952 110.189 167.872L110.159 167.842L110.128 167.811L110.073 167.781L110.043 167.751H110.012L109.957 167.721L109.927 167.691L109.897 167.66H109.866L109.811 167.63L109.781 167.6L109.751 167.57H109.72C109.579 167.514 109.524 167.318 109.609 167.177C109.665 167.036 109.836 166.98 109.977 167.066L110.033 167.096L110.063 167.121L110.118 167.151H110.149L110.179 167.177L110.234 167.207L110.264 167.232L110.32 167.262H110.35L110.38 167.293L110.436 167.323L110.466 167.353L110.471 167.363ZM108.924 166.628C109.065 166.658 109.151 166.824 109.121 166.995C109.065 167.136 108.924 167.222 108.753 167.162H108.723L108.693 167.131H108.662L108.607 167.106H108.521L108.491 167.076H108.461L108.405 167.051H108.32L108.29 167.02H108.259C108.088 166.995 108.007 166.824 108.033 166.683C108.063 166.512 108.229 166.431 108.37 166.456H108.426L108.456 166.486H108.511L108.541 166.517H108.627L108.683 166.547H108.713L108.768 166.577H108.798L108.854 166.607H108.884L108.914 166.638L108.924 166.628ZM107.267 166.265C107.433 166.295 107.549 166.436 107.519 166.572C107.519 166.743 107.378 166.854 107.237 166.854H107.151L107.096 166.829H106.703C106.562 166.829 106.42 166.688 106.42 166.547C106.42 166.376 106.562 166.24 106.703 166.265H107.267ZM105.579 166.345C105.72 166.315 105.861 166.431 105.886 166.572C105.917 166.743 105.801 166.884 105.66 166.91H105.549L105.519 166.94H105.433L105.403 166.965H105.262L105.232 166.995H105.146V167.02C104.975 167.051 104.839 166.935 104.808 166.794C104.778 166.628 104.864 166.486 105.005 166.456H105.035L105.065 166.426H105.121L105.151 166.396H105.237L105.292 166.366H105.433L105.463 166.335H105.574L105.579 166.345ZM103.947 166.829C104.088 166.743 104.229 166.829 104.284 166.97C104.34 167.111 104.284 167.282 104.143 167.338V167.368H104.088L104.058 167.398H104.028L103.972 167.429L103.942 167.459H103.912L103.856 167.489L103.826 167.519H103.771L103.74 167.549L103.71 167.58H103.655V167.61C103.514 167.665 103.347 167.61 103.287 167.469C103.232 167.328 103.287 167.157 103.398 167.076H103.428L103.458 167.046H103.514L103.544 167.02L103.599 166.99L103.63 166.965H103.66L103.715 166.935L103.745 166.91H103.801L103.831 166.879L103.886 166.854H103.942L103.947 166.829ZM105.579 172.567C106.31 171.948 107.408 172.033 107.997 172.819C108.617 173.58 108.506 174.703 107.771 175.353C107.065 175.998 105.967 175.887 105.378 175.126C104.758 174.366 104.869 173.212 105.574 172.567H105.579ZM97.1911 175.55C97.302 176.225 97.4732 176.87 97.7 177.489C97.9267 178.139 98.2088 178.754 98.5463 179.318C98.6572 179.484 98.632 179.711 98.5161 179.852L96.1785 182.834L100.4 186.522L102.738 183.54C102.879 183.373 103.075 183.343 103.247 183.429C103.554 183.54 103.836 183.656 104.148 183.736C104.456 183.822 104.768 183.877 105.106 183.933C105.413 184.018 105.756 184.043 106.063 184.074C106.37 184.104 106.708 184.104 107.02 184.074C107.216 184.074 107.388 184.215 107.443 184.411L108.738 187.983L113.887 185.988L112.592 182.356C112.536 182.159 112.592 181.933 112.733 181.822C113.242 181.399 113.69 180.92 114.113 180.416C114.506 179.882 114.874 179.318 115.181 178.728C115.267 178.532 115.463 178.446 115.63 178.477L119.232 179.121L120.159 173.409L116.526 172.759C116.33 172.728 116.189 172.562 116.189 172.391C116.078 171.716 115.907 171.066 115.68 170.421C115.453 169.771 115.171 169.182 114.834 168.592C114.723 168.421 114.748 168.225 114.864 168.089L117.202 165.106L112.98 161.393L110.617 164.376C110.506 164.542 110.305 164.602 110.138 164.517C109.826 164.406 109.549 164.29 109.237 164.209C108.929 164.124 108.617 164.043 108.279 163.983C107.972 163.927 107.635 163.897 107.322 163.872C106.985 163.842 106.672 163.842 106.34 163.842C106.143 163.872 105.972 163.731 105.947 163.534L104.652 159.932L99.5035 161.957L100.798 165.585C100.854 165.781 100.798 165.978 100.657 166.088C100.148 166.512 99.7 166.99 99.2768 167.524C98.8839 168.033 98.5161 168.592 98.2088 169.212C98.1231 169.383 97.9267 169.494 97.7302 169.439L94.1583 168.789L93.2314 174.502L96.8586 175.147C97.0551 175.177 97.1659 175.343 97.1962 175.54L97.1911 175.55ZM96.8838 177.802C96.6873 177.237 96.5161 176.618 96.4052 175.998L92.6621 175.323C92.4354 175.293 92.2943 175.041 92.3245 174.819L93.3674 168.209C93.4228 167.983 93.6495 167.816 93.8762 167.842L97.6194 168.517C97.9015 167.952 98.239 167.449 98.632 166.97C99.0249 166.466 99.4481 166.013 99.8965 165.59L98.5715 161.847C98.4859 161.62 98.6017 161.368 98.8234 161.282L104.763 158.95C104.99 158.864 105.211 158.98 105.297 159.202L106.617 162.945C106.869 162.945 107.126 162.97 107.378 162.97C107.715 163 108.083 163.056 108.421 163.111C108.758 163.167 109.126 163.252 109.463 163.338C109.69 163.423 109.942 163.509 110.169 163.59L112.587 160.496C112.728 160.3 113.01 160.27 113.176 160.441L118.073 164.693C118.244 164.864 118.27 165.141 118.129 165.338L115.71 168.406C116.018 168.97 116.275 169.529 116.496 170.124C116.693 170.713 116.864 171.333 116.975 171.953L120.718 172.628C120.945 172.658 121.086 172.88 121.056 173.131L120.013 179.716C119.957 179.968 119.731 180.139 119.504 180.079L115.761 179.434C115.479 179.968 115.116 180.502 114.748 180.98C114.355 181.459 113.932 181.907 113.484 182.331L114.804 186.074C114.889 186.326 114.773 186.577 114.552 186.663L108.617 189.001C108.39 189.086 108.169 188.97 108.083 188.719L106.763 184.975C106.511 184.975 106.254 184.975 106.002 184.945C105.665 184.945 105.297 184.89 104.96 184.834C104.622 184.779 104.254 184.693 103.917 184.582C103.69 184.527 103.438 184.441 103.211 184.356L100.793 187.449C100.652 187.615 100.37 187.646 100.204 187.504L95.307 183.227C95.1357 183.086 95.1105 182.804 95.2515 182.608L97.6697 179.514C97.3624 178.98 97.1055 178.416 96.8838 177.796V177.802ZM84.0826 184.074C84.7577 183.792 85.5184 184.104 85.8005 184.804C86.0826 185.479 85.7703 186.295 85.1254 186.577C84.4504 186.885 83.6896 186.577 83.4075 185.872C83.1254 185.172 83.4378 184.381 84.0826 184.074ZM77.4125 184.326C77.3571 184.829 77.3268 185.338 77.3571 185.842C77.4125 186.376 77.4981 186.885 77.6089 187.363C77.6644 187.504 77.6089 187.671 77.4981 187.731L75.1908 189.363L77.4981 192.991L79.8055 191.358C79.9163 191.273 80.0876 191.303 80.1984 191.389C80.3697 191.56 80.5662 191.696 80.7626 191.837C80.9893 191.948 81.1858 192.089 81.4075 192.205C81.6342 192.321 81.8559 192.401 82.0826 192.517C82.3093 192.603 82.5309 192.688 82.7879 192.744C82.9289 192.774 83.0146 192.91 83.0146 193.051L83.2111 195.948L87.3471 195.666L87.1758 192.739C87.1456 192.598 87.2313 192.457 87.3723 192.401C87.8207 192.205 88.2439 191.953 88.6368 191.671C89.06 191.389 89.4227 191.081 89.7603 190.688C89.8711 190.603 90.0122 190.578 90.128 190.633L92.6319 191.928L94.4606 187.988L91.9568 186.724C91.846 186.638 91.7603 186.497 91.7905 186.356C91.846 185.847 91.8762 185.313 91.846 184.834C91.8157 184.3 91.7351 183.792 91.5941 183.318C91.5638 183.177 91.6243 183.006 91.7351 182.925L94.0122 181.323L91.7049 177.665L89.3975 179.298C89.2867 179.383 89.1154 179.383 89.0298 179.298C88.8333 179.132 88.6368 178.99 88.4404 178.849C88.2439 178.739 88.0172 178.598 87.7955 178.482C87.5688 178.371 87.3471 178.255 87.1204 178.174C86.8937 178.089 86.6721 178.008 86.4202 177.948C86.2791 177.917 86.1935 177.781 86.1935 177.61L85.997 174.738L81.8609 175.021L82.0574 177.948C82.0574 178.089 81.9717 178.23 81.8307 178.285C81.3823 178.482 80.9591 178.708 80.5662 179.016C80.1732 179.298 79.7803 179.605 79.4427 179.973C79.3319 180.084 79.1908 180.114 79.0498 180.028L76.5762 178.764L74.7474 182.703L77.2513 183.968C77.3923 184.054 77.4477 184.195 77.4225 184.336L77.4125 184.326ZM76.7374 185.902C76.7072 185.424 76.7072 184.945 76.7676 184.467L74.1782 183.147C74.0371 183.061 73.9514 182.865 74.0371 182.698L76.148 178.169C76.2336 178.003 76.4301 177.917 76.5711 178.003L79.1606 179.323C79.473 179.016 79.8357 178.703 80.2034 178.451C80.5964 178.169 80.9894 177.948 81.3873 177.746L81.2211 174.733C81.1909 174.537 81.3319 174.396 81.5032 174.366L86.2842 174.028C86.4504 173.998 86.6217 174.139 86.6217 174.335L86.8182 177.348C86.9895 177.404 87.1859 177.459 87.3522 177.545C87.6041 177.63 87.8308 177.741 88.0827 177.882C88.3094 177.993 88.5613 178.134 88.788 178.275C88.929 178.386 89.0953 178.502 89.2363 178.613L91.6293 176.925C91.7704 176.814 91.9669 176.87 92.0777 177.011L94.7528 181.202C94.8384 181.373 94.8082 181.57 94.6672 181.681L92.2742 183.368C92.385 183.822 92.4404 184.295 92.4706 184.774C92.5261 185.253 92.5009 185.731 92.4706 186.21L95.0299 187.53C95.2012 187.615 95.2566 187.812 95.1709 187.978L93.0601 192.507C93.0047 192.678 92.8082 192.759 92.6369 192.678L90.0777 191.328C89.7401 191.666 89.3724 191.973 89.0096 192.225C88.6419 192.507 88.2489 192.734 87.8257 192.93L88.0222 195.943C88.0222 196.139 87.8812 196.28 87.7149 196.311L82.934 196.648C82.7627 196.648 82.6267 196.507 82.5964 196.336L82.4 193.328C82.2287 193.273 82.0624 193.212 81.8659 193.132C81.614 193.046 81.3873 192.935 81.1355 192.794C80.9087 192.683 80.6568 192.542 80.4301 192.401C80.2891 192.29 80.1228 192.175 79.9818 192.064L77.5888 193.751C77.4477 193.862 77.2513 193.807 77.1656 193.666L74.4905 189.474C74.3797 189.308 74.4049 189.106 74.5761 188.996L76.9389 187.308C76.8281 186.855 76.7676 186.381 76.7424 185.897L76.7374 185.902ZM93.1155 159.454C93.2566 159.313 93.453 159.313 93.5941 159.454C93.7049 159.595 93.7049 159.821 93.5941 159.962H93.5639L93.4782 160.073L93.3926 160.159L93.3069 160.245L93.2213 160.33L93.1356 160.416L93.1054 160.446C92.9895 160.587 92.7679 160.587 92.6571 160.446C92.516 160.335 92.516 160.109 92.6268 159.967L92.6571 159.937L92.7427 159.852L92.8283 159.741L92.914 159.655L92.9996 159.569L93.0853 159.484L93.1155 159.454ZM91.4228 161.454C91.5336 161.313 91.7301 161.287 91.8711 161.398C92.0122 161.509 92.0424 161.736 91.9266 161.907L91.8711 161.993L91.8157 162.078L91.7301 162.189L91.6747 162.275L91.589 162.386L91.5336 162.441C91.448 162.612 91.2263 162.638 91.0852 162.527C90.9442 162.416 90.8888 162.189 90.9996 162.048L91.055 161.962L91.1407 161.852L91.1961 161.766L91.2817 161.655L91.3371 161.57L91.4228 161.454ZM89.9064 163.842C89.992 163.67 90.2137 163.615 90.3547 163.701C90.526 163.786 90.5815 164.008 90.4958 164.179L90.4656 164.209L90.4102 164.295L90.3547 164.406L90.2993 164.517L90.2439 164.628L90.1885 164.713L90.1583 164.799C90.0726 164.965 89.8761 165.025 89.7099 164.94C89.5688 164.854 89.4832 164.633 89.5688 164.461L89.6243 164.406L89.6797 164.295L89.7351 164.184L89.7905 164.068L89.8459 163.957L89.9013 163.847L89.9064 163.842ZM88.7225 166.406C88.8081 166.24 88.9744 166.154 89.1708 166.209C89.3371 166.295 89.4227 166.492 89.3371 166.658V166.688L89.3069 166.799L89.2515 166.91L89.2212 166.995L89.1658 167.106L89.1356 167.217L89.1054 167.303C89.0499 167.499 88.8535 167.585 88.6822 167.529C88.5109 167.474 88.4001 167.247 88.4857 167.081L88.5159 166.995L88.5462 166.884L88.6016 166.774L88.6318 166.658L88.6872 166.517L88.7174 166.406H88.7225ZM87.9063 169.136C87.9366 168.94 88.133 168.824 88.2993 168.884C88.4655 168.915 88.5814 169.111 88.5512 169.308L88.521 169.393L88.4907 169.504L88.4605 169.615L88.4303 169.726V169.837L88.4001 169.947V169.978C88.3446 170.149 88.1734 170.29 88.0071 170.23C87.8106 170.199 87.6998 170.003 87.7552 169.837V169.696L87.7854 169.585L87.8157 169.474L87.8459 169.333L87.8761 169.222L87.9063 169.136ZM87.458 171.948C87.458 171.751 87.6242 171.61 87.8257 171.64C87.992 171.64 88.133 171.806 88.1079 172.008V172.174L88.0776 172.315V172.542L88.0474 172.653V172.708C88.0474 172.905 87.8811 173.046 87.7099 173.016C87.5134 173.016 87.3723 172.844 87.4025 172.648V172.366L87.4328 172.225V171.998L87.463 171.942L87.458 171.948ZM87.3723 174.789C87.3723 174.592 87.5134 174.451 87.6796 174.421C87.8761 174.421 88.0172 174.587 88.0172 174.759V174.789L88.0474 174.9V175.237L88.0776 175.378V175.464C88.0776 175.66 87.9366 175.832 87.7703 175.832C87.5738 175.857 87.4328 175.721 87.4025 175.519V175.293L87.3723 175.182V174.789ZM96.6017 191.363C96.4606 191.278 96.4052 191.051 96.4909 190.885C96.6017 190.719 96.7982 190.658 96.9695 190.774L97.0249 190.804L97.1357 190.89L97.2214 190.945L97.3322 191.001L97.4178 191.056L97.5287 191.112C97.6697 191.222 97.7554 191.424 97.6395 191.59C97.5539 191.761 97.3574 191.817 97.1911 191.731L97.0803 191.676L96.9947 191.62L96.8838 191.535L96.773 191.479L96.6873 191.424L96.6017 191.368V191.363ZM99.0199 192.683C98.8486 192.598 98.768 192.401 98.8486 192.205C98.904 192.039 99.1005 191.953 99.2718 192.039L99.3574 192.069L99.4431 192.124L99.5539 192.154L99.6647 192.21L99.7756 192.24L99.8612 192.295H99.8914C100.063 192.381 100.143 192.578 100.088 192.744C100.002 192.94 99.8058 193.026 99.6395 192.94L99.5287 192.91L99.4179 192.855L99.307 192.799L99.1962 192.769L99.0854 192.714L99.0299 192.683H99.0199ZM101.584 193.61C101.413 193.58 101.302 193.384 101.357 193.187C101.388 192.991 101.584 192.88 101.75 192.935L101.806 192.965L101.917 192.996L102.002 193.026L102.113 193.056L102.224 193.086L102.335 193.117H102.39C102.561 193.172 102.672 193.369 102.642 193.54C102.587 193.736 102.415 193.847 102.219 193.822L102.164 193.792L102.053 193.761L101.942 193.731L101.831 193.701L101.72 193.671L101.609 193.641L101.579 193.61H101.584ZM104.229 194.175C104.058 194.144 103.922 193.978 103.947 193.782C103.977 193.585 104.143 193.474 104.315 193.474H104.345L104.431 193.505H104.541L104.652 193.535H104.763L104.874 193.565H104.985C105.156 193.595 105.292 193.761 105.267 193.958C105.267 194.154 105.096 194.295 104.899 194.265H104.813L104.703 194.235H104.592L104.481 194.205H104.37L104.259 194.175H104.229ZM106.955 194.346C106.758 194.346 106.617 194.205 106.617 194.008C106.587 193.812 106.758 193.641 106.924 193.641H107.458L107.569 193.61C107.766 193.61 107.937 193.751 107.937 193.948C107.937 194.144 107.796 194.316 107.63 194.316H107.489L107.378 194.346H106.955ZM109.655 194.119C109.458 194.149 109.287 194.008 109.262 193.812C109.232 193.615 109.347 193.444 109.544 193.419H109.574L109.685 193.389L109.796 193.358H109.907L110.018 193.328L110.128 193.298H110.184C110.355 193.243 110.521 193.384 110.577 193.58C110.607 193.746 110.491 193.948 110.295 193.973L110.239 194.003H110.128L110.018 194.034L109.907 194.064L109.796 194.094H109.685L109.655 194.124V194.119ZM112.3 193.474C112.103 193.53 111.932 193.419 111.877 193.248C111.821 193.051 111.907 192.855 112.103 192.799L112.214 192.769L112.325 192.739L112.436 192.683L112.547 192.653L112.657 192.623L112.713 192.593C112.879 192.537 113.081 192.623 113.136 192.819C113.191 192.986 113.106 193.187 112.909 193.243L112.854 193.273L112.743 193.328L112.632 193.358L112.521 193.389L112.411 193.444L112.3 193.474ZM114.834 192.457C114.667 192.542 114.466 192.457 114.385 192.285C114.3 192.114 114.385 191.892 114.557 191.807H114.587L114.673 191.751L114.783 191.696L114.894 191.641L114.98 191.585L115.091 191.53H115.121C115.292 191.444 115.489 191.499 115.569 191.671C115.655 191.842 115.599 192.064 115.428 192.149L115.398 192.175L115.287 192.23L115.176 192.285L115.065 192.341L114.955 192.396L114.869 192.426L114.839 192.457H114.834ZM117.196 191.081C117.025 191.192 116.829 191.137 116.748 190.97C116.637 190.804 116.662 190.603 116.834 190.492L116.919 190.436L117.005 190.381L117.116 190.295L117.202 190.24L117.312 190.154L117.368 190.099C117.534 189.988 117.736 190.044 117.846 190.185C117.957 190.351 117.902 190.578 117.761 190.688L117.675 190.744L117.589 190.799L117.479 190.885L117.368 190.94L117.282 191.026L117.196 191.081ZM119.363 189.363C119.222 189.474 118.995 189.474 118.884 189.333C118.773 189.162 118.773 188.965 118.914 188.824L119 188.739L119.086 188.653L119.197 188.567L119.282 188.482L119.368 188.396L119.423 188.366C119.534 188.225 119.761 188.225 119.872 188.366C120.013 188.507 120.013 188.734 119.872 188.87L119.816 188.925L119.731 189.011L119.62 189.096L119.534 189.182L119.448 189.268L119.363 189.353V189.363ZM121.277 187.338C121.166 187.479 120.94 187.509 120.799 187.368C120.658 187.258 120.658 187.031 120.768 186.89L120.824 186.804L120.909 186.719L120.995 186.608L121.05 186.522L121.136 186.436L121.192 186.351C121.302 186.21 121.529 186.185 121.67 186.295C121.811 186.406 121.836 186.633 121.726 186.799L121.64 186.885L121.584 186.97L121.499 187.086L121.413 187.172L121.328 187.258L121.272 187.343L121.277 187.338ZM122.909 185.061C122.824 185.227 122.602 185.288 122.461 185.172C122.29 185.061 122.265 184.834 122.35 184.693L122.38 184.663L122.436 184.552L122.491 184.467L122.547 184.356L122.602 184.245L122.658 184.159L122.713 184.104C122.799 183.933 122.995 183.877 123.161 183.963C123.302 184.074 123.358 184.3 123.272 184.467L123.242 184.522L123.187 184.608L123.101 184.719L123.045 184.829L122.99 184.94L122.935 185.026L122.904 185.056L122.909 185.061ZM124.234 182.552C124.149 182.723 123.952 182.804 123.786 182.724C123.62 182.638 123.559 182.441 123.62 182.275L123.65 182.245L123.68 182.134L123.736 182.023L123.791 181.912L123.821 181.802L123.877 181.716L123.907 181.63C123.962 181.459 124.159 181.378 124.33 181.459C124.496 181.514 124.582 181.741 124.527 181.907L124.496 181.963L124.441 182.074L124.386 182.184L124.355 182.295L124.3 182.406L124.244 182.517V182.542L124.234 182.552ZM125.187 179.882C125.131 180.079 124.96 180.189 124.763 180.134C124.592 180.079 124.511 179.882 124.537 179.686L124.592 179.575L124.622 179.464L124.653 179.353L124.683 179.242L124.713 179.132L124.743 179.046C124.773 178.849 124.97 178.739 125.136 178.794C125.333 178.824 125.418 179.021 125.388 179.217L125.358 179.303L125.328 179.444L125.297 179.555L125.242 179.671L125.212 179.781L125.182 179.892L125.187 179.882ZM125.781 177.096C125.751 177.293 125.585 177.434 125.413 177.404C125.247 177.373 125.106 177.177 125.131 177.011V176.925L125.161 176.814L125.192 176.703V176.562L125.222 176.446V176.305C125.252 176.109 125.418 175.993 125.59 175.993C125.786 176.023 125.927 176.189 125.897 176.386V176.416L125.867 176.527V176.668L125.836 176.779L125.806 176.89V177.031L125.776 177.086L125.781 177.096ZM126.033 174.255C126.033 174.451 125.862 174.623 125.695 174.623C125.499 174.592 125.358 174.451 125.358 174.255V173.55C125.358 173.353 125.499 173.212 125.665 173.212C125.862 173.182 126.003 173.353 126.033 173.55V174.255ZM125.862 171.413C125.892 171.61 125.776 171.781 125.579 171.806C125.413 171.837 125.242 171.696 125.212 171.499L125.182 171.388V171.277L125.151 171.162V171.051L125.121 170.91V170.824C125.066 170.628 125.207 170.431 125.373 170.401C125.569 170.371 125.741 170.512 125.766 170.708V170.819L125.796 170.93L125.826 171.041V171.182L125.857 171.298V171.408L125.862 171.413ZM125.358 168.597C125.388 168.794 125.302 168.99 125.106 169.046C124.94 169.076 124.768 168.96 124.713 168.794L124.683 168.708L124.653 168.597L124.622 168.486L124.592 168.376L124.562 168.265L124.506 168.124C124.451 167.952 124.562 167.756 124.733 167.701C124.904 167.645 125.101 167.731 125.156 167.927L125.187 168.038L125.217 168.179L125.272 168.29L125.302 168.406L125.333 168.517L125.363 168.602L125.358 168.597ZM124.456 165.897C124.511 166.094 124.456 166.29 124.29 166.376C124.119 166.461 123.922 166.376 123.841 166.179L123.811 166.094L123.756 165.983L123.726 165.872L123.67 165.761L123.615 165.675L123.559 165.565C123.504 165.398 123.559 165.172 123.731 165.086C123.897 165 124.098 165.086 124.179 165.252L124.234 165.363L124.265 165.474L124.32 165.585L124.375 165.696L124.431 165.806L124.461 165.892L124.456 165.897ZM123.217 163.363C123.302 163.529 123.247 163.756 123.106 163.842C122.935 163.952 122.738 163.897 122.627 163.731V163.706L122.572 163.62L122.516 163.509L122.431 163.398L122.375 163.313L122.32 163.202L122.29 163.172C122.179 163.005 122.234 162.779 122.375 162.668C122.547 162.552 122.743 162.612 122.854 162.779L122.884 162.804L122.94 162.915L122.995 163.025L123.081 163.141L123.136 163.252L123.192 163.338L123.222 163.368L123.217 163.363ZM121.645 161.03C121.756 161.202 121.731 161.423 121.59 161.534C121.448 161.645 121.252 161.645 121.111 161.479L121.025 161.368L120.97 161.282L120.884 161.172L120.799 161.086L120.713 161L120.683 160.97C120.572 160.799 120.597 160.602 120.713 160.466C120.854 160.325 121.081 160.35 121.192 160.491L121.222 160.522L121.307 160.632L121.393 160.718L121.479 160.829L121.564 160.915L121.62 161.025H121.65L121.645 161.03ZM119.786 158.975C119.897 159.086 119.927 159.313 119.786 159.454C119.675 159.595 119.448 159.62 119.338 159.484L119.307 159.454L119.222 159.368L119.136 159.282L119.05 159.227L118.965 159.141L118.854 159.056L118.824 159.025C118.683 158.884 118.683 158.658 118.793 158.517C118.904 158.376 119.131 158.35 119.272 158.491L119.302 158.517L119.388 158.602L119.474 158.688L119.584 158.773L119.67 158.859L119.756 158.945L119.786 158.975ZM117.65 157.176C117.821 157.287 117.846 157.514 117.736 157.685C117.65 157.826 117.428 157.882 117.287 157.771L117.232 157.716L117.121 157.66L117.035 157.574L116.95 157.519L116.839 157.464L116.753 157.378C116.582 157.292 116.526 157.071 116.642 156.899C116.728 156.728 116.95 156.673 117.091 156.789L117.202 156.874L117.312 156.93L117.398 157.015L117.509 157.071L117.594 157.156L117.65 157.187V157.176ZM115.312 155.741C115.479 155.826 115.564 156.023 115.479 156.189C115.393 156.36 115.196 156.441 115.03 156.36L114.945 156.33L114.859 156.275L114.748 156.219L114.637 156.164L114.552 156.108L114.441 156.053C114.275 155.998 114.189 155.771 114.275 155.605C114.36 155.438 114.557 155.353 114.723 155.438L114.834 155.494L114.919 155.519L115.03 155.574L115.141 155.63L115.252 155.685L115.307 155.741H115.312ZM112.809 154.642C113.005 154.698 113.091 154.894 113.035 155.091C112.98 155.262 112.783 155.373 112.612 155.318L112.557 155.287L112.446 155.232L112.335 155.202L112.224 155.171L112.113 155.141L112.028 155.086H111.997C111.801 155.03 111.715 154.834 111.771 154.663C111.801 154.466 111.997 154.35 112.164 154.411L112.194 154.441L112.305 154.466L112.416 154.496L112.526 154.522L112.637 154.577L112.748 154.607L112.803 154.632L112.809 154.642ZM110.194 153.937C110.365 153.967 110.501 154.134 110.476 154.33C110.421 154.527 110.249 154.637 110.083 154.612H110.053L109.942 154.582L109.826 154.557H109.715L109.604 154.527L109.494 154.501H109.438C109.242 154.471 109.131 154.305 109.156 154.108C109.186 153.912 109.353 153.771 109.524 153.801L109.609 153.831H109.72L109.831 153.862L109.947 153.892L110.058 153.922H110.169L110.199 153.952L110.194 153.937ZM107.489 153.6C107.685 153.6 107.826 153.766 107.826 153.967C107.796 154.164 107.655 154.305 107.458 154.305H106.813C106.642 154.28 106.476 154.139 106.476 153.942C106.476 153.746 106.642 153.605 106.813 153.605H107.489V153.6ZM104.788 153.685C104.985 153.655 105.126 153.796 105.156 153.993C105.186 154.189 105.045 154.36 104.849 154.386H104.677L104.567 154.411H104.456L104.345 154.441H104.259L104.204 154.466C104.033 154.496 103.866 154.355 103.836 154.159C103.806 153.962 103.947 153.791 104.118 153.766H104.148L104.289 153.736H104.4L104.511 153.705H104.622L104.733 153.675H104.788V153.685ZM102.118 154.164C102.289 154.108 102.486 154.219 102.511 154.416C102.567 154.612 102.456 154.809 102.284 154.839H102.254L102.143 154.869L102.033 154.899L101.922 154.955L101.811 154.985L101.7 155.015H101.645C101.473 155.071 101.277 154.96 101.252 154.789C101.196 154.592 101.282 154.396 101.478 154.34H101.534L101.645 154.31L101.755 154.255L101.866 154.229L101.977 154.199L102.088 154.174H102.118V154.164ZM99.5287 155.035C99.7 154.95 99.8965 155.035 99.9771 155.232C100.032 155.398 99.9468 155.6 99.7806 155.68H99.7504L99.6395 155.736L99.5287 155.791L99.4431 155.821L99.3322 155.877L99.2214 155.932H99.1912C99.0249 156.018 98.8234 155.932 98.7428 155.766C98.6571 155.595 98.7428 155.373 98.9141 155.318L98.9695 155.287L99.0803 155.232L99.1912 155.176L99.2768 155.121L99.3876 155.091L99.4985 155.035H99.5287ZM97.0803 156.275C97.2516 156.164 97.4481 156.219 97.5589 156.386C97.6445 156.552 97.5891 156.779 97.4178 156.894L97.3624 156.925L97.2768 156.98L97.1659 157.035L97.0551 157.121L96.9695 157.176L96.8586 157.232C96.7176 157.348 96.4909 157.287 96.4103 157.121C96.2994 156.955 96.3548 156.753 96.5211 156.642L96.6067 156.587L96.7176 156.501L96.8284 156.446L96.9392 156.36L97.0249 156.305L97.0803 156.275Z" fill="white"/>
<path fill-rule="evenodd" clip-rule="evenodd" d="M80.169 293.697L14.7221 244.739C9.26608 240.688 7.97135 232.668 11.8505 226.93L78.0279 276.452C74.4812 281.968 75.4687 289.394 80.164 293.702L80.169 293.697Z" fill="#21717C"/>
<path fill-rule="evenodd" clip-rule="evenodd" d="M214.916 172.37H286.751C288.61 172.37 290.182 171.388 290.237 170.204L290.378 166.688H211.314L211.455 170.204C211.485 171.388 213.057 172.37 214.916 172.37Z" fill="#E5E6E7"/>
<path fill-rule="evenodd" clip-rule="evenodd" d="M214.076 168.259H287.598C289.427 168.259 290.666 167.413 290.384 166.4L283.518 142.793C283.236 141.78 281.492 140.964 279.689 140.964H222.01C220.182 140.964 218.464 141.78 218.156 142.793L211.32 166.4C211.013 167.413 212.277 168.259 214.076 168.259Z" fill="#BBBDBF"/>
<path fill-rule="evenodd" clip-rule="evenodd" d="M132.17 19.8076H369.534C375.388 19.8076 379.439 23.9135 378.482 28.9513L356.365 145.578C355.408 150.586 349.836 154.722 343.957 154.722H157.747C151.868 154.722 146.266 150.586 145.309 145.578L123.223 28.9513C122.266 23.9135 126.291 19.8076 132.17 19.8076Z" fill="url(#paint1_linear_51_18896)"/>
<path fill-rule="evenodd" clip-rule="evenodd" d="M143.111 31.2334H358.556C361.906 31.2334 364.213 34.4425 363.649 38.3771L351.07 129.285C350.536 133.225 347.357 136.434 344.006 136.434H157.656C154.306 136.434 151.127 133.225 150.593 129.285L138.018 38.3771C137.484 34.4375 139.761 31.2334 143.111 31.2334Z" fill="#E1EDF2"/>
<path fill-rule="evenodd" clip-rule="evenodd" d="M232.786 144.652H268.913C270.349 144.652 270.994 145.892 270.374 147.408C269.729 148.899 268.041 150.139 266.631 150.139H235.064C233.628 150.139 231.94 148.899 231.32 147.408C230.676 145.887 231.351 144.652 232.786 144.652Z" fill="#BBBDBF"/>
<path fill-rule="evenodd" clip-rule="evenodd" d="M125.023 22.5948L133.068 13.1689H368.604L376.649 22.5948C276.481 25.6074 225.216 25.6074 125.023 22.5948Z" fill="#BBBDBF"/>
<path fill-rule="evenodd" clip-rule="evenodd" d="M241.703 63.4209L262.636 70.9928L283.573 78.5899L262.636 86.1568L241.703 93.7539L220.771 86.1568L199.839 78.5899L220.771 70.9928L241.703 63.4209Z" fill="url(#paint2_linear_51_18896)"/>
<path fill-rule="evenodd" clip-rule="evenodd" d="M283.572 78.5898L241.702 93.6984V136.435H283.572V78.5898Z" fill="url(#paint3_linear_51_18896)"/>
<path fill-rule="evenodd" clip-rule="evenodd" d="M199.839 78.5898L241.703 93.6984V136.435H199.839V78.5898Z" fill="url(#paint4_linear_51_18896)"/>
<path fill-rule="evenodd" clip-rule="evenodd" d="M270.348 19.9805L287.512 26.1972L304.676 32.419L287.512 38.6357L270.348 44.8222L253.184 38.6357L236.02 32.419L253.184 26.1972L270.348 19.9805Z" fill="url(#paint5_linear_51_18896)"/>
<path fill-rule="evenodd" clip-rule="evenodd" d="M303.35 79.124L324.227 86.6909L345.134 94.2326L324.227 101.799L303.35 109.371L282.473 101.799L261.596 94.2326L282.473 86.6909L303.35 79.124Z" fill="url(#paint6_linear_51_18896)"/>
<path fill-rule="evenodd" clip-rule="evenodd" d="M345.136 94.2324L303.352 109.316V136.435H345.136V94.2324Z" fill="url(#paint7_linear_51_18896)"/>
<path fill-rule="evenodd" clip-rule="evenodd" d="M261.596 94.2324L303.35 109.316V136.435H261.596V94.2324Z" fill="url(#paint8_linear_51_18896)"/>
<path fill-rule="evenodd" clip-rule="evenodd" d="M304.677 32.418L270.349 44.796V92.293L304.677 79.8797V32.418Z" fill="url(#paint9_linear_51_18896)"/>
<path fill-rule="evenodd" clip-rule="evenodd" d="M236.02 32.418L270.348 44.796V92.293L236.02 79.8797V32.418Z" fill="url(#paint10_linear_51_18896)"/>
<path fill-rule="evenodd" clip-rule="evenodd" d="M378.561 162.663H324.343C317.28 162.577 311.37 160.467 307.295 156.164C303.496 152.144 301.3 146.26 301.3 138.381V137.595H298.428V141.282C298.428 147.978 301.043 154.084 305.239 158.502C309.431 162.92 315.199 165.676 321.557 165.676H379.296C386.359 165.761 392.269 167.872 396.349 172.149C400.148 176.2 402.344 182.084 402.344 189.958V209.178H405.216V187.036C405.216 180.341 402.596 174.235 398.405 169.817C394.213 165.399 388.445 162.673 382.087 162.673H378.571L378.561 162.663Z" fill="#FEFEFE"/>
<path fill-rule="evenodd" clip-rule="evenodd" d="M403.885 185.988C417.11 185.988 427.916 196.82 427.916 210.014V241.385C427.916 254.609 417.11 265.415 403.885 265.415C390.661 265.415 379.854 254.609 379.854 241.385V210.014C379.854 196.82 390.661 185.988 403.885 185.988Z" fill="#FEFEFE"/>
<path fill-rule="evenodd" clip-rule="evenodd" d="M402.419 226.307L379.854 222.115V211.309C379.854 197.913 389.87 186.855 402.419 186.044V226.307Z" fill="url(#paint11_linear_51_18896)"/>
<path fill-rule="evenodd" clip-rule="evenodd" d="M405.347 226.307L427.911 222.115V211.309C427.911 197.913 417.896 186.855 405.347 186.044V226.307Z" fill="url(#paint12_linear_51_18896)"/>
<path fill-rule="evenodd" clip-rule="evenodd" d="M30.0331 159.091L32.2296 141.786C32.4563 140.043 33.9475 138.834 35.5798 139.055L128.261 152.053C129.894 152.28 131.047 153.882 130.821 155.6L128.624 172.905C128.428 174.623 126.906 175.857 125.274 175.635L32.6176 162.638C30.9853 162.411 29.8014 160.809 30.0281 159.091H30.0331ZM33.8871 155.907C34.1138 154.134 35.605 152.869 37.2373 153.091C38.8695 153.318 40.0232 154.95 39.7965 156.718C39.5698 158.492 38.0534 159.756 36.4211 159.534C34.8191 159.308 33.6654 157.675 33.8871 155.902V155.907Z" fill="#E5E6E7"/>
<path fill-rule="evenodd" clip-rule="evenodd" d="M31.551 147.131L32.226 141.786C32.4527 140.068 33.944 138.833 35.5762 139.055L128.258 152.053C129.89 152.279 131.044 153.881 130.817 155.599L130.142 160.945C130.369 159.232 129.215 157.655 127.583 157.403L34.9011 144.43C33.2689 144.204 31.7777 145.418 31.551 147.131Z" fill="#C1C3C5"/>
<path fill-rule="evenodd" clip-rule="evenodd" d="M43.6197 151.83L45.0555 140.404L45.8162 140.49L44.3804 151.916L43.6197 151.83ZM124.629 163.165L126.064 151.739L126.825 151.85L125.389 163.276L124.629 163.165ZM121.727 162.772L123.163 151.347L123.923 151.457L122.487 162.883L121.727 162.772ZM118.83 162.349L120.266 150.923L121.026 151.034L119.591 162.455L118.83 162.344V162.349ZM115.933 161.956L117.394 150.53L118.125 150.641L116.689 162.067L115.928 161.956H115.933ZM113.036 161.563L114.497 150.137L115.258 150.223L113.797 161.644L113.036 161.558V161.563ZM109.238 168.516L111.601 149.719L112.361 149.83L109.968 168.626L109.238 168.516ZM107.268 160.747L108.704 149.321L109.465 149.407L108.029 160.858L107.268 160.747ZM104.366 160.324L105.802 148.898L106.563 149.009L105.127 160.43L104.366 160.319V160.324ZM101.47 159.931L102.93 148.505L103.661 148.616L102.225 160.042L101.464 159.931H101.47ZM98.5727 159.538L100.034 148.087L100.794 148.198L99.3334 159.619L98.5727 159.533V159.538ZM95.7011 159.115L97.1369 147.689L97.8976 147.8L96.4619 159.226L95.7011 159.115ZM91.8774 166.067L94.2402 147.301L95.0009 147.387L92.6381 166.183L91.8774 166.072V166.067ZM89.9076 158.299L91.3434 146.878L92.1041 146.989L90.6683 158.41L89.9076 158.299ZM87.0108 157.906L88.4718 146.48L89.2023 146.591L87.7665 158.017L87.0058 157.906H87.0108ZM84.109 157.483L85.57 146.062L86.3307 146.173L84.8697 157.593L84.109 157.483ZM81.2425 157.09L82.6783 145.664L83.439 145.78L81.978 157.201L81.2475 157.09H81.2425ZM78.3407 156.697L79.7764 145.271L80.5372 145.357L79.1014 156.782L78.3407 156.697ZM74.5169 163.644L76.8797 144.848L77.6404 144.959L75.2776 163.755L74.5169 163.644ZM72.5471 155.881L74.0081 144.455L74.7386 144.54L73.3028 155.991L72.5421 155.881H72.5471ZM69.6503 155.457L71.1113 144.037L71.872 144.147L70.4111 155.568L69.6503 155.457ZM66.7788 155.064L68.2145 143.639L68.9753 143.754L67.5143 155.175L66.7838 155.064H66.7788ZM63.882 154.672L65.3178 143.22L66.0785 143.331L64.6427 154.757L63.882 154.672ZM60.9802 154.248L62.416 142.828L63.1767 142.938L61.7409 154.359L60.9802 154.248ZM57.1564 161.196L59.5192 142.43L60.2799 142.515L57.9171 161.311L57.1564 161.201V161.196ZM55.1866 153.432L56.6476 142.011L57.4083 142.122L55.9473 153.543L55.1866 153.432ZM52.315 153.039L53.7508 141.618L54.5116 141.729L53.0506 153.15L52.3201 153.039H52.315ZM49.4183 152.616L50.8541 141.19L51.6148 141.301L50.179 152.727L49.4183 152.616ZM46.5215 152.223L47.9573 140.802L48.718 140.913L47.2822 152.334L46.5215 152.223Z" fill="#6C6D70"/>
<path fill-rule="evenodd" clip-rule="evenodd" d="M21.5631 203.912L81.5237 188.154C82.1132 188.013 82.4507 187.423 82.3399 186.829L80.8185 180.441C80.6774 179.851 80.088 179.514 79.5237 179.655L19.5379 195.413C18.9736 195.555 18.6109 196.174 18.7519 196.733L20.2734 203.121C20.4144 203.711 20.9787 204.048 21.5681 203.907L21.5631 203.912Z" fill="#FD9B39"/>
<path fill-rule="evenodd" clip-rule="evenodd" d="M18.8012 197.046L7.68772 199.071L4 203.993L19.5065 199.943L18.8012 197.046Z" fill="#D0D2D4"/>
<path fill-rule="evenodd" clip-rule="evenodd" d="M20.1816 202.839L9.46105 206.557L4 203.993L19.5066 199.942L20.1816 202.839Z" fill="#BBBDBF"/>
<path fill-rule="evenodd" clip-rule="evenodd" d="M82.2224 180.048C82.9832 179.852 83.7691 180.33 83.9404 181.116L84.7867 184.577C84.958 185.363 84.4794 186.154 83.7187 186.35C82.9328 186.577 82.1418 186.098 81.9756 185.308L81.1595 181.847C80.963 181.061 81.4416 180.27 82.2275 180.048H82.2224Z" fill="#8E7952"/>
<path fill-rule="evenodd" clip-rule="evenodd" d="M82.9838 184.324L67.1145 188.491L67.3664 189.533L83.2357 185.367L82.9838 184.324Z" fill="#8E7952"/>
<path fill-rule="evenodd" clip-rule="evenodd" d="M57.4624 185.453L58.6463 185.141L60.2483 192.007L59.0947 192.32L57.4624 185.453Z" fill="#8E7952"/>
<path fill-rule="evenodd" clip-rule="evenodd" d="M27.8362 193.247L28.9043 192.935L30.6222 200.194L29.5542 200.506L27.8362 193.247Z" fill="#8E7952"/>
<path fill-rule="evenodd" clip-rule="evenodd" d="M410.3 65.9551C413.196 68.4589 415.504 71.527 417.166 74.988L428.451 73.0182L430.899 91.225L419.62 93.1949C419.282 95.079 418.748 96.9934 418.043 98.8776C417.312 100.737 416.436 102.505 415.423 104.137L422.431 113.336L408.501 125.069L401.493 115.87C397.977 117.276 394.209 117.951 390.41 117.81L386.133 128.979L369.785 122.505L374.062 111.336C371.165 108.832 368.828 105.764 367.196 102.303L355.886 104.273L353.467 86.0663L364.747 84.0965C365.085 82.2123 365.594 80.2979 366.324 78.4138C367.055 76.5548 367.926 74.7865 368.939 73.1542L361.931 63.9551L375.861 52.2219L382.868 61.421C386.385 60.0155 390.153 59.3404 393.952 59.4814L398.229 48.3125L414.577 54.7862L410.3 65.9551Z" fill="#0F5CBE"/>
<path fill-rule="evenodd" clip-rule="evenodd" d="M395.498 79.996C400.002 81.7945 402.193 87.1145 400.364 91.8702C398.505 96.6512 393.387 99.0744 388.858 97.3011C384.354 95.5025 382.163 90.1826 383.991 85.4268C385.82 80.6459 390.969 78.2227 395.498 79.996ZM398.707 71.6382C407.599 75.1546 411.876 85.6233 408.274 95.0189C404.672 104.389 394.541 109.17 385.649 105.654C376.757 102.137 372.48 91.6687 376.082 82.2731C379.684 72.9027 389.815 68.1217 398.707 71.6382Z" fill="#ECEFF2"/>
<path fill-rule="evenodd" clip-rule="evenodd" d="M361.538 25.294C362.943 27.828 363.815 30.614 364.183 33.4553L372.369 35.143L369.89 48.5085L361.704 46.8208C361.029 48.0601 360.243 49.239 359.341 50.3674C358.414 51.4909 357.402 52.4783 356.329 53.3499L359.029 61.6522L346.817 66.0705L344.087 57.7681C341.356 57.7983 338.625 57.2341 336.066 56.1056L330.58 62.7455L320.817 53.7982L326.303 47.1583C324.897 44.6243 323.996 41.8383 323.658 38.997L315.471 37.3093L317.95 23.9438L326.137 25.6315C326.781 24.3922 327.572 23.2133 328.499 22.0849C329.426 20.9614 330.439 19.974 331.512 19.1024L328.781 10.8L341.023 6.38184L343.724 14.6842C346.454 14.654 349.21 15.2183 351.769 16.3467L357.255 9.70683L366.989 18.6541L361.533 25.294H361.538Z" fill="#14D2F7"/>
<path fill-rule="evenodd" clip-rule="evenodd" d="M348.171 31.0935C350.846 33.5671 351.128 37.8745 348.79 40.6907C346.453 43.532 342.377 43.8444 339.672 41.3657C336.971 38.8921 336.689 34.5848 339.052 31.7736C341.385 28.9323 345.465 28.6199 348.166 31.0986L348.171 31.0935ZM352.281 26.1111C357.571 30.9777 358.135 39.4463 353.521 45.0182C348.906 50.6152 340.861 51.2097 335.571 46.3381C330.281 41.4715 329.717 33.0029 334.332 27.431C338.946 21.8339 346.967 21.2395 352.281 26.1111Z" fill="#ECEFF2"/>
<path fill-rule="evenodd" clip-rule="evenodd" d="M404.698 11.0027C406.33 12.635 407.594 14.5493 408.466 16.6602L415.106 16.096L416.063 26.9274L409.453 27.4916C409.201 28.6151 408.834 29.6881 408.385 30.7562C407.907 31.8242 407.342 32.8116 406.698 33.7386L410.552 39.5069L402.138 45.6682L398.284 39.8999C396.204 40.5447 393.982 40.7463 391.755 40.4641L388.969 46.7967L379.599 42.1266L382.385 35.794C380.753 34.192 379.488 32.2474 378.586 30.1365L371.946 30.7008L370.989 19.8693L377.629 19.3051C377.881 18.2068 378.249 17.1086 378.697 16.0406C379.176 14.9725 379.74 13.9851 380.355 13.0884L376.501 7.28979L384.939 1.12848L388.793 6.89684C390.874 6.27718 393.095 6.05047 395.292 6.33259L398.078 0L407.479 4.6701L404.693 11.0027H404.698Z" fill="#FD9B39"/>
<path fill-rule="evenodd" clip-rule="evenodd" d="M395.695 18.4894C398.284 19.7841 399.408 23.0184 398.229 25.7187C397.045 28.4493 393.982 29.6029 391.393 28.3082C388.803 27.0135 387.649 23.7792 388.858 21.0789C390.042 18.3483 393.105 17.1947 395.695 18.4894ZM397.781 13.7336C402.874 16.2677 405.126 22.6507 402.788 27.9707C400.425 33.3158 394.405 35.598 389.312 33.0639C384.193 30.5299 381.967 24.1469 384.304 18.8269C386.637 13.4818 392.687 11.1996 397.781 13.7336Z" fill="#ECEFF2"/>
</g>
<defs>
<filter id="filter0_d_51_18896" x="0" y="0" width="434.899" height="304.968" filterUnits="userSpaceOnUse" color-interpolation-filters="sRGB">
<feFlood flood-opacity="0" result="BackgroundImageFix"/>
<feColorMatrix in="SourceAlpha" type="matrix" values="0 0 0 0 0 0 0 0 0 0 0 0 0 0 0 0 0 0 127 0" result="hardAlpha"/>
<feOffset dy="4"/>
<feGaussianBlur stdDeviation="2"/>
<feComposite in2="hardAlpha" operator="out"/>
<feColorMatrix type="matrix" values="0 0 0 0 0 0 0 0 0 0 0 0 0 0 0 0 0 0 0.25 0"/>
<feBlend mode="normal" in2="BackgroundImageFix" result="effect1_dropShadow_51_18896"/>
<feBlend mode="normal" in="SourceGraphic" in2="effect1_dropShadow_51_18896" result="shape"/>
</filter>
<linearGradient id="paint0_linear_51_18896" x1="248.807" y1="262.942" x2="248.807" y2="188.462" gradientUnits="userSpaceOnUse">
<stop stop-color="#B0BBC9"/>
<stop offset="1" stop-color="#D5DBE2"/>
</linearGradient>
<linearGradient id="paint1_linear_51_18896" x1="250.852" y1="154.722" x2="250.852" y2="19.8076" gradientUnits="userSpaceOnUse">
<stop stop-color="#B0BBC9"/>
<stop offset="1" stop-color="#D5DBE2"/>
</linearGradient>
<linearGradient id="paint2_linear_51_18896" x1="199.839" y1="73.7785" x2="233.103" y2="124.123" gradientUnits="userSpaceOnUse">
<stop stop-color="#3EF4A7"/>
<stop offset="1" stop-color="#096EE0"/>
</linearGradient>
<linearGradient id="paint3_linear_51_18896" x1="241.702" y1="98.3417" x2="288.988" y2="117.107" gradientUnits="userSpaceOnUse">
<stop stop-color="#3EF4A7"/>
<stop offset="1" stop-color="#096EE0"/>
</linearGradient>
<linearGradient id="paint4_linear_51_18896" x1="199.839" y1="98.3417" x2="247.121" y2="117.103" gradientUnits="userSpaceOnUse">
<stop stop-color="#3EF4A7"/>
<stop offset="1" stop-color="#096EE0"/>
</linearGradient>
<linearGradient id="paint5_linear_51_18896" x1="236.02" y1="28.463" x2="263.249" y2="69.7229" gradientUnits="userSpaceOnUse">
<stop stop-color="#3EF4A7"/>
<stop offset="1" stop-color="#096EE0"/>
</linearGradient>
<linearGradient id="paint6_linear_51_18896" x1="261.596" y1="89.4524" x2="294.76" y2="139.669" gradientUnits="userSpaceOnUse">
<stop stop-color="#3EF4A7"/>
<stop offset="1" stop-color="#096EE0"/>
</linearGradient>
<linearGradient id="paint7_linear_51_18896" x1="303.352" y1="108.643" x2="345.542" y2="131.545" gradientUnits="userSpaceOnUse">
<stop stop-color="#3EF4A7"/>
<stop offset="1" stop-color="#096EE0"/>
</linearGradient>
<linearGradient id="paint8_linear_51_18896" x1="261.596" y1="108.643" x2="303.769" y2="131.519" gradientUnits="userSpaceOnUse">
<stop stop-color="#3EF4A7"/>
<stop offset="1" stop-color="#096EE0"/>
</linearGradient>
<linearGradient id="paint9_linear_51_18896" x1="270.349" y1="52.8631" x2="311.188" y2="65.7004" gradientUnits="userSpaceOnUse">
<stop stop-color="#3EF4A7"/>
<stop offset="1" stop-color="#096EE0"/>
</linearGradient>
<linearGradient id="paint10_linear_51_18896" x1="236.02" y1="52.8631" x2="276.859" y2="65.7004" gradientUnits="userSpaceOnUse">
<stop stop-color="#3EF4A7"/>
<stop offset="1" stop-color="#096EE0"/>
</linearGradient>
<linearGradient id="paint11_linear_51_18896" x1="391.137" y1="226.307" x2="391.137" y2="186.044" gradientUnits="userSpaceOnUse">
<stop stop-color="#B0BBC9"/>
<stop offset="1" stop-color="#D5DBE2"/>
</linearGradient>
<linearGradient id="paint12_linear_51_18896" x1="416.629" y1="226.307" x2="416.629" y2="186.044" gradientUnits="userSpaceOnUse">
<stop stop-color="#B0BBC9"/>
<stop offset="1" stop-color="#D5DBE2"/>
</linearGradient>
</defs>
</svg>

