<svg width="54" height="27" viewBox="0 0 54 27" fill="none" xmlns="http://www.w3.org/2000/svg">
<path d="M31.511 14.1514C31.9287 13.7337 32.606 13.7338 33.0237 14.1514L38.1292 19.2568C38.5468 19.6746 38.5468 20.3519 38.1292 20.7695L33.0237 25.875C32.606 26.2924 31.9286 26.2925 31.511 25.875L26.4055 20.7695C25.988 20.3519 25.9881 19.6745 26.4055 19.2568L31.511 14.1514ZM8.45923 14.1074C8.66803 13.8986 9.00622 13.8987 9.21509 14.1074L12.5706 17.4619C12.7794 17.6708 12.7794 18.0099 12.5706 18.2188L9.21509 21.5742C9.00629 21.7825 8.66796 21.7827 8.45923 21.5742L5.10376 18.2188C4.89505 18.0099 4.89495 17.6707 5.10376 17.4619L8.45923 14.1074ZM21.8176 9.11328C22.2353 8.69565 22.9126 8.69582 23.3303 9.11328L28.0237 13.8066C28.4412 14.2244 28.4413 14.9017 28.0237 15.3193L23.3303 20.0117C22.9126 20.4294 22.2353 20.4294 21.8176 20.0117L17.1252 15.3193C16.7075 14.9016 16.7075 14.2244 17.1252 13.8066L21.8176 9.11328ZM2.35864 7.15527C2.56748 6.94645 2.90564 6.94648 3.1145 7.15527L5.31665 9.35742C5.52526 9.56629 5.52541 9.9045 5.31665 10.1133L3.1145 12.3154C2.9057 12.5239 2.56742 12.5239 2.35864 12.3154L0.156494 10.1133C-0.0522059 9.90452 -0.0520525 9.56628 0.156494 9.35742L2.35864 7.15527ZM31.5784 0.313477C31.9961 -0.104236 32.6734 -0.104236 33.0911 0.313477L38.1965 5.41797C38.6141 5.83553 38.6138 6.51292 38.1965 6.93066L33.0911 12.0361C32.6734 12.4538 31.9961 12.4538 31.5784 12.0361L26.4729 6.93066C26.0554 6.51293 26.0553 5.8356 26.4729 5.41797L31.5784 0.313477ZM13.4504 2.19629C13.7637 1.883 14.2719 1.883 14.5852 2.19629L18.5979 6.20898C18.9112 6.52227 18.9112 7.03047 18.5979 7.34375L14.5852 11.3564C14.2719 11.6697 13.7637 11.6697 13.4504 11.3564L9.43774 7.34375C9.12446 7.03047 9.12446 6.52227 9.43774 6.20898L13.4504 2.19629Z" fill="url(#paint0_linear_51_19935)"/>
<rect x="45.2694" y="4.94824" width="11.565" height="11.565" rx="1.06962" transform="rotate(45 45.2694 4.94824)" fill="url(#paint1_linear_51_19935)"/>
<defs>
<linearGradient id="paint0_linear_51_19935" x1="0.000244874" y1="8.94221" x2="30.5097" y2="33.5398" gradientUnits="userSpaceOnUse">
<stop stop-color="#3EF4A7"/>
<stop offset="1" stop-color="#096EE0"/>
</linearGradient>
<linearGradient id="paint1_linear_51_19935" x1="45.2996" y1="10.7071" x2="56.8349" y2="10.6003" gradientUnits="userSpaceOnUse">
<stop offset="1" stop-color="#FF9E58"/>
</linearGradient>
</defs>
</svg>
