<svg width="436" height="86" viewBox="0 0 436 86" fill="none" xmlns="http://www.w3.org/2000/svg">
<path d="M104.344 75.0804C103.821 74.9251 103.278 74.8431 102.732 74.8367C102.05 74.805 101.373 74.9722 100.783 75.3178C100.557 75.4514 100.37 75.6427 100.241 75.872C100.113 76.1014 100.048 76.3607 100.052 76.6235C100.034 77.0523 100.179 77.4719 100.458 77.7981C100.733 78.1074 101.072 78.3527 101.451 78.5165C101.978 78.7398 102.516 78.9337 103.063 79.0976C103.723 79.2826 104.369 79.5165 104.994 79.7973C105.485 80.0252 105.913 80.3681 106.243 80.7969C106.606 81.2986 106.787 81.9091 106.756 82.5274C106.766 83.1256 106.582 83.7111 106.231 84.1955C105.847 84.7003 105.33 85.0876 104.738 85.3138C104.036 85.5902 103.286 85.7261 102.532 85.7137C101.707 85.7135 100.891 85.5455 100.133 85.2201C99.389 84.9162 98.7071 84.4778 98.1216 83.9269L98.6651 82.9648C99.1905 83.4841 99.8123 83.8958 100.496 84.1768C101.144 84.4592 101.843 84.6079 102.551 84.6141C103.302 84.654 104.047 84.4644 104.688 84.0706C104.935 83.9129 105.137 83.6946 105.276 83.4366C105.415 83.1785 105.486 82.8892 105.481 82.5961C105.499 82.1561 105.354 81.7249 105.075 81.3842C104.804 81.0692 104.464 80.8212 104.082 80.6594C103.688 80.4907 103.138 80.2971 102.432 80.0722C101.779 79.8789 101.139 79.6452 100.514 79.3724C100.024 79.1552 99.5949 78.8205 99.2648 78.3978C98.9105 77.9068 98.7341 77.3095 98.765 76.7047C98.7512 76.1427 98.9273 75.5925 99.2648 75.1429C99.6324 74.6725 100.123 74.3135 100.683 74.1058C101.354 73.8547 102.066 73.7318 102.782 73.7434C103.436 73.744 104.087 73.8408 104.713 74.0308C105.313 74.2041 105.887 74.4584 106.418 74.7868L105.912 75.7801C105.425 75.4743 104.897 75.2387 104.344 75.0804Z" fill="#9851C7"/>
<path d="M116.027 73.8706H117.189V85.6347H116.027V73.8706Z" fill="#9851C7"/>
<path d="M127.29 73.8706H128.714L133.325 82.7108L137.886 73.8706H139.335V85.6534H138.26V75.4887L133.65 84.3914H133.025L128.396 75.4887V85.6534H127.302L127.29 73.8706Z" fill="#9851C7"/>
<path d="M157.174 74.8782C157.578 75.2379 157.895 75.6845 158.102 76.1844C158.308 76.6843 158.399 77.2246 158.367 77.7646C158.403 78.3207 158.315 78.8779 158.108 79.3956C157.902 79.9132 157.583 80.3784 157.174 80.7571C156.219 81.5205 155.014 81.8993 153.794 81.8192H150.614V85.6239H149.452V73.8661H153.825C155.026 73.7936 156.214 74.1525 157.174 74.8782ZM156.343 80.0137C156.655 79.7387 156.9 79.3958 157.06 79.0114C157.219 78.6269 157.288 78.2111 157.261 77.7958C157.286 77.3914 157.216 76.9868 157.058 76.6139C156.9 76.241 156.657 75.9099 156.349 75.6466C155.592 75.1056 154.672 74.8429 153.744 74.9032H150.62V80.7759H153.744C154.673 80.8335 155.592 80.5638 156.343 80.0137Z" fill="#9851C7"/>
<path d="M167.096 73.8706H168.258V84.5913H173.437V85.6347H167.096V73.8706Z" fill="#9851C7"/>
<path d="M182.122 73.8706H190V74.9139H183.284V79.1185H189.319V80.1681H183.309V84.5913H190.243V85.6347H182.122V73.8706Z" fill="#9851C7"/>
<path d="M218.174 74.6293C218.501 74.8832 218.763 75.2121 218.937 75.5882C219.111 75.9644 219.192 76.3769 219.173 76.791C219.193 77.4245 218.987 78.0444 218.592 78.5403C218.176 79.0291 217.601 79.3564 216.968 79.4649C217.737 79.5299 218.456 79.8718 218.992 80.427C219.483 80.9749 219.742 81.6913 219.717 82.4262C219.737 82.8816 219.644 83.3348 219.447 83.7457C219.249 84.1566 218.954 84.5124 218.586 84.7815C217.663 85.3927 216.567 85.6887 215.462 85.625H210.464V73.8671H215.393C216.38 73.7997 217.36 74.0683 218.174 74.6293ZM217.293 78.4965C217.522 78.3098 217.703 78.0715 217.823 77.8011C217.942 77.5308 217.996 77.236 217.98 76.9409C217.994 76.6523 217.939 76.3646 217.82 76.1016C217.7 75.8386 217.519 75.608 217.293 75.429C216.727 75.0359 216.043 74.8505 215.356 74.9042H211.607V79.0463H215.356C216.045 79.0891 216.729 78.8952 217.293 78.4965ZM217.705 83.9819C217.974 83.796 218.191 83.5448 218.337 83.252C218.482 82.9591 218.551 82.6341 218.536 82.3075C218.55 81.9831 218.48 81.6605 218.332 81.3714C218.184 81.0822 217.964 80.8365 217.693 80.6582C216.991 80.2306 216.176 80.0258 215.356 80.0709H211.607V84.5816H215.356C216.182 84.6309 217.003 84.4212 217.705 83.9819Z" fill="#9851C7"/>
<path d="M230.853 83.6792C231.614 84.3279 232.582 84.6842 233.583 84.6842C234.583 84.6842 235.551 84.3279 236.313 83.6792C237 82.9024 237.351 81.8844 237.288 80.8491V73.8706H238.45V80.8741C238.483 81.5348 238.382 82.1954 238.152 82.8157C237.922 83.4361 237.569 84.0032 237.113 84.4827C236.657 84.9621 236.109 85.3439 235.501 85.6048C234.893 85.8657 234.238 86.0002 233.577 86.0002C232.915 86.0002 232.26 85.8657 231.652 85.6048C231.044 85.3439 230.496 84.9621 230.04 84.4827C229.584 84.0032 229.231 83.4361 229.001 82.8157C228.771 82.1954 228.67 81.5348 228.704 80.8741V73.8706H229.866V80.8741C229.837 81.3837 229.909 81.8938 230.079 82.3753C230.248 82.8567 230.511 83.2999 230.853 83.6792Z" fill="#9851C7"/>
<path d="M253.229 75.0804C252.704 74.9251 252.159 74.8431 251.611 74.8367C250.93 74.8052 250.255 74.9723 249.668 75.3178C249.442 75.4514 249.255 75.6426 249.126 75.872C248.998 76.1014 248.933 76.3607 248.937 76.6235C248.919 77.0523 249.064 77.4719 249.343 77.798C249.618 78.1074 249.957 78.3527 250.337 78.5165C250.863 78.7398 251.401 78.9337 251.948 79.0975C252.608 79.2826 253.254 79.5165 253.879 79.7973C254.37 80.0252 254.798 80.3681 255.128 80.7969C255.468 81.2985 255.65 81.8904 255.65 82.4962C255.65 83.102 255.468 83.6939 255.128 84.1955C254.747 84.7001 254.232 85.0875 253.641 85.3138C252.94 85.5902 252.19 85.7261 251.436 85.7137C250.611 85.7135 249.795 85.5455 249.037 85.2201C248.292 84.9177 247.61 84.4792 247.025 83.9269L247.569 82.9648C248.094 83.4841 248.716 83.8958 249.399 84.1768C250.048 84.4596 250.747 84.6084 251.455 84.6141C252.205 84.6512 252.95 84.4618 253.591 84.0706C253.838 83.9129 254.041 83.6946 254.18 83.4366C254.319 83.1785 254.389 82.8892 254.385 82.5961C254.402 82.156 254.258 81.7248 253.979 81.3842C253.708 81.0692 253.368 80.8211 252.985 80.6594C252.592 80.4907 252.042 80.2971 251.336 80.0722C250.683 79.8799 250.042 79.6462 249.418 79.3724C248.928 79.1552 248.499 78.8205 248.169 78.3978C247.812 77.9073 247.634 77.3102 247.663 76.7047C247.651 76.142 247.829 75.5916 248.169 75.1429C248.535 74.6739 249.023 74.3151 249.581 74.1058C250.254 73.8548 250.968 73.7319 251.686 73.7434C252.34 73.7444 252.99 73.8413 253.616 74.0308C254.217 74.2041 254.791 74.4584 255.322 74.7867L254.816 75.7801C254.323 75.4727 253.789 75.2371 253.229 75.0804Z" fill="#9851C7"/>
<path d="M264.912 73.8706H266.068V85.6347H264.912V73.8706Z" fill="#9851C7"/>
<path d="M284.697 73.8706H285.84V85.6347H284.59L277.306 75.6387V85.6347H276.15V73.8706H277.4L284.709 83.8666L284.697 73.8706Z" fill="#9851C7"/>
<path d="M295.955 73.8706H303.827V74.9139H297.117V79.1185H303.121V80.1681H297.117V84.5913H304.046V85.6347H295.924L295.955 73.8706Z" fill="#9851C7"/>
<path d="M318.235 75.0805C317.712 74.9247 317.169 74.8427 316.623 74.8368C315.942 74.8041 315.267 74.9714 314.68 75.3179C314.452 75.4502 314.264 75.641 314.134 75.8705C314.004 76.1001 313.938 76.36 313.943 76.6236C313.925 77.0523 314.07 77.4719 314.349 77.7981C314.623 78.1075 314.963 78.3527 315.342 78.5166C315.87 78.7407 316.41 78.9347 316.96 79.0976C317.618 79.2836 318.261 79.5175 318.885 79.7973C319.376 80.0236 319.805 80.3668 320.134 80.797C320.499 81.2978 320.682 81.9084 320.653 82.5275C320.661 83.1263 320.474 83.7117 320.122 84.1956C319.738 84.7003 319.221 85.0877 318.628 85.3139C317.927 85.5903 317.177 85.7262 316.423 85.7137C315.6 85.7141 314.786 85.5461 314.03 85.2202C313.284 84.9192 312.602 84.4805 312.019 83.9269L312.556 82.9648C313.082 83.4859 313.707 83.8978 314.393 84.1768C315.039 84.4597 315.736 84.6085 316.442 84.6142C317.193 84.654 317.938 84.4645 318.579 84.0706C318.826 83.9138 319.03 83.6958 319.169 83.4375C319.308 83.1792 319.378 82.8894 319.372 82.5962C319.389 82.1561 319.245 81.7249 318.966 81.3842C318.695 81.0693 318.355 80.8212 317.972 80.6595C317.579 80.4908 317.029 80.2971 316.323 80.0722C315.67 79.879 315.029 79.6453 314.405 79.3725C313.913 79.1578 313.484 78.8226 313.156 78.3979C312.8 77.9074 312.621 77.3103 312.65 76.7048C312.638 76.142 312.816 75.5917 313.156 75.1429C313.519 74.6714 314.009 74.3119 314.568 74.1059C315.24 73.8543 315.955 73.7314 316.673 73.7435C317.325 73.7445 317.973 73.8413 318.597 74.0309C319.197 74.2042 319.771 74.4585 320.303 74.7868L319.803 75.7802C319.315 75.4759 318.787 75.2404 318.235 75.0805Z" fill="#9851C7"/>
<path d="M334.881 75.0804C334.356 74.9251 333.811 74.8431 333.263 74.8367C332.583 74.8052 331.908 74.9723 331.32 75.3178C331.094 75.4514 330.907 75.6426 330.779 75.872C330.65 76.1014 330.585 76.3607 330.589 76.6235C330.571 77.0523 330.717 77.4719 330.995 77.798C331.27 78.1074 331.609 78.3527 331.989 78.5165C332.514 78.7408 333.053 78.9348 333.601 79.0975C334.26 79.2837 334.905 79.5175 335.531 79.7973C336.022 80.0252 336.45 80.3681 336.781 80.7969C337.12 81.2985 337.302 81.8904 337.302 82.4962C337.302 83.102 337.12 83.6939 336.781 84.1955C336.399 84.7001 335.884 85.0875 335.294 85.3138C334.592 85.5902 333.842 85.7261 333.088 85.7137C332.263 85.7135 331.447 85.5455 330.689 85.2201C329.944 84.9177 329.262 84.4792 328.677 83.9269L329.215 82.9648C329.744 83.4829 330.367 83.8944 331.052 84.1768C331.7 84.4596 332.399 84.6084 333.107 84.6141C333.858 84.6512 334.602 84.4618 335.244 84.0706C335.49 83.9126 335.692 83.6941 335.829 83.4359C335.967 83.1778 336.037 82.8887 336.031 82.5961C336.051 82.1568 335.908 81.7254 335.631 81.3842C335.36 81.0692 335.02 80.8211 334.638 80.6594C334.244 80.4907 333.694 80.2971 332.988 80.0722C332.335 79.8799 331.694 79.6462 331.07 79.3724C330.58 79.1552 330.151 78.8205 329.821 78.3978C329.465 77.9073 329.286 77.3102 329.315 76.7047C329.303 76.142 329.481 75.5916 329.821 75.1429C330.186 74.6727 330.675 74.3136 331.233 74.1058C331.906 73.8548 332.62 73.7319 333.338 73.7434C333.992 73.7449 334.643 73.8417 335.269 74.0308C335.869 74.2041 336.443 74.4584 336.974 74.7867L336.468 75.7801C335.975 75.4727 335.441 75.2371 334.881 75.0804Z" fill="#9851C7"/>
<path d="M250.276 60.8133H295.689L288.923 52.0168H253.943L232.508 30.4066L253.943 8.79651H288.923L295.689 0H250.276L220.119 30.4066L250.276 60.8133Z" fill="url(#paint0_linear_209_336)"/>
<path d="M188.091 60.8133H142.678L149.444 52.0168H184.424L205.859 30.4066L184.424 8.79651H149.444L142.678 0H188.091L218.254 30.4066L188.091 60.8133Z" fill="url(#paint1_linear_209_336)"/>
<path d="M17.3118 19.0812C19.3282 20.1864 21.0061 21.819 22.1662 23.8043C23.3483 25.8118 23.9617 28.1033 23.9404 30.4329C23.9617 32.745 23.3545 35.0194 22.1837 37.0133C21.0129 39.0071 19.3225 40.6455 17.2931 41.7534C15.188 42.907 12.8211 43.4987 10.4208 43.4715H0V17.3631H10.4958C12.878 17.3376 15.2263 17.9295 17.3118 19.0812ZM15.9874 39.7354C17.6238 38.789 18.9815 37.4277 19.9236 35.7887C20.8657 34.1498 21.3588 32.2914 21.3531 30.401C21.3474 28.5106 20.8431 26.6552 19.8911 25.022C18.9392 23.3888 17.5732 22.0357 15.9311 21.0991C14.2651 20.1489 12.3762 19.6594 10.4583 19.6809H2.58015V41.1536H10.5832C12.4785 41.1683 14.3436 40.6789 15.9874 39.7354Z" fill="black"/>
<path d="M36.7219 17.3623H39.3083V43.4707H36.7344L36.7219 17.3623Z" fill="black"/>
<path d="M72.9823 30.6874H75.2564V40.246C73.9421 41.3351 72.4443 42.1814 70.8331 42.745C69.1883 43.3489 67.4499 43.6577 65.6977 43.6572C63.3282 43.6672 60.9971 43.0593 58.9341 41.8936C56.8712 40.728 55.1477 39.0447 53.9337 37.0098C52.7171 34.9937 52.0834 32.6797 52.1031 30.325C52.0818 27.9819 52.7159 25.6795 53.9337 23.6776C55.1475 21.6656 56.8718 20.0103 58.9317 18.8796C61.0293 17.701 63.3979 17.0895 65.8039 17.1053C67.5585 17.1029 69.2988 17.4205 70.9394 18.0424C72.545 18.6373 74.0274 19.5225 75.3126 20.6539L73.8195 22.4844C72.7456 21.4878 71.49 20.7072 70.121 20.1853C68.7391 19.6553 67.2715 19.3842 65.7914 19.3856C63.8374 19.3696 61.9148 19.8788 60.2249 20.86C58.5593 21.8169 57.1691 23.1877 56.189 24.8397C55.1971 26.4964 54.6805 28.3941 54.6959 30.325C54.6786 32.2758 55.1949 34.1942 56.189 35.8728C57.1788 37.5467 58.5892 38.9326 60.2803 39.8926C61.9714 40.8527 63.8843 41.3536 65.829 41.3456C67.1042 41.3433 68.3704 41.1323 69.5775 40.7209C70.7969 40.3159 71.9488 39.7304 72.9948 38.984L72.9823 30.6874Z" fill="black"/>
<path d="M91.5123 17.3623H94.0862V43.4707H91.5123V17.3623Z" fill="black"/>
<path d="M107.223 17.3247H127.053V19.68H118.425V43.4706H115.845V19.68H107.223V17.3247Z" fill="black"/>
<path d="M159.635 43.4707L156.511 36.5234H142.023L138.962 43.4707H136.219L147.983 17.3623H150.676L162.459 43.4707H159.635ZM143.054 34.2056H155.549L149.27 20.0862L143.054 34.2056Z" fill="black"/>
<path d="M175.138 17.3623H177.718V41.1528H189.22V43.4707H175.138V17.3623Z" fill="black"/>
<path d="M263.865 20.2664C262.516 19.7016 261.068 19.4107 259.605 19.4105C257.676 19.3922 255.777 19.8856 254.101 20.8404C252.425 21.7952 251.032 23.1773 250.065 24.8459C249.099 26.5172 248.591 28.4134 248.591 30.3437C248.591 32.2739 249.099 34.1701 250.065 35.8415C251.028 37.4913 252.404 38.8626 254.057 39.8211C255.739 40.8037 257.656 41.3131 259.605 41.2955C261.054 41.2941 262.489 41.0075 263.828 40.4521C265.18 39.9039 266.42 39.1143 267.489 38.1218L269.057 39.8024C267.753 41.0017 266.247 41.9619 264.609 42.6388C262.991 43.3259 261.25 43.6807 259.492 43.6821C257.127 43.6922 254.801 43.0812 252.747 41.9103C250.692 40.7393 248.981 39.0495 247.784 37.0098C246.582 34.9884 245.956 32.6767 245.973 30.3249C245.954 27.9822 246.588 25.6806 247.803 23.6776C249.006 21.6743 250.712 20.0203 252.751 18.8795C254.556 17.8673 256.564 17.2713 258.628 17.1351C260.693 16.9989 262.762 17.3259 264.684 18.0923C266.287 18.7312 267.758 19.6634 269.02 20.8412L267.489 22.6342C266.442 21.623 265.212 20.8195 263.865 20.2664Z" fill="black"/>
<path d="M293.459 18.8863C295.499 20.0272 297.204 21.6812 298.407 23.6844C299.625 25.6863 300.259 27.9887 300.238 30.3318C300.258 32.6864 299.624 35.0005 298.407 37.0166C297.188 39.059 295.46 40.75 293.391 41.9243C291.322 43.0985 288.984 43.7159 286.606 43.7159C284.227 43.7159 281.889 43.0985 279.821 41.9243C277.752 40.75 276.024 39.059 274.804 37.0166C273.59 34.9993 272.957 32.686 272.974 30.3318C272.955 27.9891 273.589 25.6874 274.804 23.6844C276.007 21.6812 277.713 20.0272 279.752 18.8863C281.849 17.7228 284.208 17.1123 286.606 17.1123C289.004 17.1123 291.362 17.7228 293.459 18.8863ZM281.114 20.8855C279.447 21.8302 278.058 23.196 277.085 24.8464C276.09 26.5019 275.573 28.4005 275.591 30.3318C275.576 32.2764 276.093 34.1881 277.085 35.8608C278.054 37.5288 279.443 38.9138 281.114 39.8779C282.792 40.8558 284.702 41.365 286.643 41.3524C288.567 41.3632 290.458 40.8538 292.116 39.8779C293.78 38.9081 295.163 37.5242 296.133 35.8608C297.123 34.187 297.639 32.276 297.626 30.3318C297.642 28.4009 297.125 26.5031 296.133 24.8464C295.16 23.2006 293.775 21.8358 292.116 20.8855C290.455 19.9182 288.565 19.4154 286.643 19.4298C284.702 19.4174 282.793 19.9243 281.114 20.898V20.8855Z" fill="black"/>
<path d="M326.345 17.3623H328.881V43.4707H326.157L309.983 21.3607V43.4707H307.409V17.3623H310.133L326.345 39.4723V17.3623Z" fill="black"/>
<path d="M334.933 17.3242H354.762V19.6795H346.135V43.4701H343.561V19.6795H334.933V17.3242Z" fill="black"/>
<path d="M377.993 43.4707L372.37 34.9553C371.57 35.0053 370.958 35.0303 370.539 35.0303H363.367V43.4707H360.787V17.3623H370.539C373.801 17.3623 376.32 18.1162 378.099 19.6239C379.877 21.1316 380.769 23.2662 380.773 26.0276C380.844 27.9555 380.292 29.8551 379.198 31.4442C378.091 32.9307 376.512 33.9968 374.719 34.468L380.966 43.4707H377.993ZM370.496 32.7124C372.995 32.7124 374.911 32.146 376.243 31.0131C377.576 29.8803 378.249 28.2434 378.261 26.1026C378.261 24.0201 377.589 22.427 376.243 21.3232C374.9 20.2237 372.982 19.6801 370.496 19.6801H363.324V32.7124H370.496Z" fill="black"/>
<path d="M407.217 18.8863C409.256 20.0272 410.962 21.6812 412.165 23.6844C413.38 25.6874 414.014 27.9891 413.995 30.3318C414.012 32.686 413.379 34.9993 412.165 37.0166C410.945 39.059 409.217 40.75 407.148 41.9243C405.08 43.0985 402.742 43.7159 400.363 43.7159C397.984 43.7159 395.647 43.0985 393.578 41.9243C391.509 40.75 389.781 39.059 388.562 37.0166C387.348 34.9993 386.714 32.686 386.731 30.3318C386.713 27.9891 387.347 25.6874 388.562 23.6844C389.765 21.6812 391.47 20.0272 393.51 18.8863C395.607 17.7228 397.965 17.1123 400.363 17.1123C402.761 17.1123 405.12 17.7228 407.217 18.8863ZM394.872 20.8855C393.205 21.8302 391.815 23.196 390.842 24.8464C389.845 26.5014 389.326 28.4 389.343 30.3318C389.33 32.2769 389.848 34.1886 390.842 35.8608C391.811 37.5288 393.201 38.9138 394.872 39.8779C396.549 40.8558 398.459 41.365 400.401 41.3524C402.324 41.3632 404.215 40.8538 405.873 39.8779C407.536 38.9096 408.919 37.5252 409.884 35.8608C410.876 34.1881 411.393 32.2764 411.377 30.3318C411.396 28.4005 410.879 26.5019 409.884 24.8464C408.915 23.1997 407.532 21.8344 405.873 20.8855C404.213 19.9182 402.322 19.4154 400.401 19.4298C398.46 19.4174 396.551 19.9243 394.872 20.898V20.8855Z" fill="black"/>
<path d="M421.173 17.3623H423.747V41.1528H435.248V43.4707H421.173V17.3623Z" fill="black"/>
<defs>
<linearGradient id="paint0_linear_209_336" x1="257.904" y1="3.63605" x2="257.904" y2="67.2232" gradientUnits="userSpaceOnUse">
<stop stop-color="#9851C7"/>
<stop offset="1" stop-color="#612984"/>
</linearGradient>
<linearGradient id="paint1_linear_209_336" x1="180.463" y1="0" x2="180.463" y2="60.8132" gradientUnits="userSpaceOnUse">
<stop stop-color="#9851C7"/>
<stop offset="1" stop-color="#612984"/>
</linearGradient>
</defs>
</svg>
