<svg width="63" height="78" viewBox="0 0 63 78" fill="none" xmlns="http://www.w3.org/2000/svg">
<path opacity="0.5" fill-rule="evenodd" clip-rule="evenodd" d="M53.9792 49.1404C65.3059 55.6128 65.3059 66.3511 53.9792 72.8235C42.6525 79.2959 24.2651 79.2959 12.9384 72.8235C1.61168 66.204 1.61168 55.6128 12.9384 49.1404C24.2651 42.5209 42.6525 42.5209 53.9792 49.1404Z" fill="#E9E9EB"/>
<path opacity="0.5" fill-rule="evenodd" clip-rule="evenodd" d="M49.707 51.67C58.6801 56.8185 58.6801 65.2032 49.707 70.3517C40.7339 75.5003 26.3182 75.5003 17.3451 70.3517C8.37196 65.2032 8.37196 56.8185 17.3451 51.67C26.3182 46.5215 40.7339 46.5215 49.707 51.67Z" fill="#DDDEE1"/>
<path opacity="0.5" fill-rule="evenodd" clip-rule="evenodd" d="M45.3021 54.1263C51.9216 57.9509 51.9216 63.9819 45.3021 67.8065C38.8296 71.6311 28.0913 71.6311 21.6189 67.8065C14.9994 63.9819 14.9994 57.9509 21.6189 54.1263C28.2384 50.3017 38.8296 50.3017 45.3021 54.1263Z" fill="#D1D2D6"/>
<path fill-rule="evenodd" clip-rule="evenodd" d="M51.0343 16.3514L50.2987 15.9102L47.9453 17.3812L48.6806 17.8225L51.0343 16.3514Z" fill="#C5CCD1"/>
<path fill-rule="evenodd" clip-rule="evenodd" d="M51.0343 16.3514L50.2987 15.9102L47.9453 17.3812L48.6806 17.8225L51.0343 16.3514Z" fill="url(#paint0_linear_1_20624)"/>
<path fill-rule="evenodd" clip-rule="evenodd" d="M51.0099 20.7255V16.3125L48.6562 17.7836V22.1966L51.0099 20.7255Z" fill="#E6EAEB"/>
<path fill-rule="evenodd" clip-rule="evenodd" d="M51.0099 20.7255V16.3125L48.6562 17.7836V22.1966L51.0099 20.7255Z" fill="url(#paint1_linear_1_20624)"/>
<path fill-rule="evenodd" clip-rule="evenodd" d="M48.6806 17.785L47.9453 17.3438V18.8148L48.6806 22.0508V22.1981V17.785Z" fill="#9C9C9C"/>
<path fill-rule="evenodd" clip-rule="evenodd" d="M48.6806 17.785L47.9453 17.3438V18.8148L48.6806 22.0508V22.1981V17.785Z" fill="url(#paint2_linear_1_20624)"/>
<path fill-rule="evenodd" clip-rule="evenodd" d="M4.0896 29.1229C4.0896 29.1229 4.0896 29.1228 4.0896 29.2699L3.20703 29.7112V29.5642V29.2699V28.9757V28.6816V28.3874V28.0931V27.7988V27.5048L3.35428 27.2105V26.7692V26.475H3.50129L3.64831 26.1809H3.79556L3.94258 25.8867L22.4771 15.1484H22.3301L22.1831 15.4425H22.0358L21.8888 15.7367V16.031V16.4723V16.7663L21.7418 17.0606V17.3548V17.6491V17.9432V18.2374V18.5317V18.8259V18.973L11.5918 24.8569H11.4446H11.2976H11.1506H11.0033H10.8563H10.415H10.2678H10.1208H9.97373H9.82649L9.67947 25.0041L6.14899 27.0635C6.14899 27.0635 4.97224 28.0932 4.82514 29.1229H4.0896Z" fill="#677475"/>
<path fill-rule="evenodd" clip-rule="evenodd" d="M4.0896 29.1229C4.0896 29.1229 4.0896 29.1228 4.0896 29.2699L3.20703 29.7112V29.5642V29.2699V28.9757V28.6816V28.3874V28.0931V27.7988V27.5048L3.35428 27.2105V26.7692V26.475H3.50129L3.64831 26.1809H3.79556L3.94258 25.8867L22.4771 15.1484H22.3301L22.1831 15.4425H22.0358L21.8888 15.7367V16.031V16.4723V16.7663L21.7418 17.0606V17.3548V17.6491V17.9432V18.2374V18.5317V18.8259V18.973L11.5918 24.8569H11.4446H11.2976H11.1506H11.0033H10.8563H10.415H10.2678H10.1208H9.97373H9.82649L9.67947 25.0041L6.14899 27.0635C6.14899 27.0635 4.97224 28.0932 4.82514 29.1229H4.0896Z" fill="url(#paint3_linear_1_20624)"/>
<path fill-rule="evenodd" clip-rule="evenodd" d="M10.4379 31.7477L10.5849 31.8949V32.042L10.7322 32.189L10.8792 32.3362L11.0262 32.4832V32.6303L11.1734 32.7775L11.3205 32.9245H11.4675V33.0715L11.6147 33.2188L11.7618 33.3658H11.9088L12.056 33.513H12.203L12.3501 33.6601L12.4973 33.8071H12.6443L12.7916 33.9543H12.9386H13.0856H13.2328H13.3799H13.5269H13.6741H13.8211H13.9682L14.1154 33.8071L10.5849 35.8665H10.4379L10.2907 36.0137H10.1436H9.99662H9.84938H9.70236H9.55534H9.4081H9.26108L9.11406 35.8665H8.96681L8.81979 35.7195H8.67255V35.5724H8.52553L8.37851 35.4252L8.23127 35.2782H8.08425L7.93723 35.1309L7.78999 34.9839V34.8369H7.64297L7.49595 34.6896L7.3487 34.5426V34.3956L7.20168 34.2484L7.05466 34.1013V33.9543L6.90742 33.8071L6.7604 33.6601V33.513L6.61316 33.3658V33.2188V33.0715L6.46614 32.7775V32.6303L6.31912 32.4832V32.3362V32.189V32.042L6.17188 31.8949V31.7477V31.6007V31.4534V31.3064V31.1594V31.0121V30.8651V30.7181L6.31912 30.5709V30.4238V30.2768L6.46614 30.1296L6.61316 29.9826V29.8355H6.7604V29.6883H6.90742L10.4379 27.6289L10.2907 27.7759L10.1436 27.9232L9.99662 28.0702V28.2174L9.84938 28.3645V28.5115V28.6587L9.70236 28.8057V28.9528V29.1V29.247V29.394V29.5413V29.6883L9.84938 29.8355V29.9826V30.1296V30.2768V30.4238L9.99662 30.5709V30.8651L10.1436 31.0121V31.1594L10.2907 31.3064V31.4534L10.4379 31.6007V31.7477Z" fill="#677475"/>
<path fill-rule="evenodd" clip-rule="evenodd" d="M15.5716 28.8336L15.4246 28.5394L15.2776 28.2453L14.9833 28.0981L14.8363 27.8038L14.689 27.5098L14.542 27.3625L14.2477 27.0685L14.1007 26.9213L13.8065 26.6272L13.6594 26.48L13.3652 26.1859L13.2182 26.0387L12.9239 25.8917L12.7769 25.7444L12.4826 25.5974L12.3354 25.4504L12.0413 25.3031L11.7471 25.1561L11.6001 25.0091H11.3058L11.1588 24.8619H10.8645H10.7175L10.4232 24.7148H10.276H10.129H9.8347L9.68768 24.8619H9.54066H9.2464L9.09938 25.0091H8.95213L5.42188 27.0685H5.56889L5.71591 26.9213H6.01018H6.1572L6.30444 26.7742H6.45146H6.74572H6.89274H7.187L7.33402 26.9213H7.62829L7.77531 27.0685H8.06957L8.21659 27.2155L8.51085 27.3625L8.65787 27.5098H8.95213L9.2464 27.8038L9.39342 27.9511L9.68768 28.0981L9.8347 28.2453L10.129 28.5394L10.276 28.6866L10.5702 28.8336L10.7175 29.1279L10.8645 29.4219L11.1588 29.5692L11.3058 29.8634L11.4528 30.1575L11.6001 30.3047L11.8941 30.5988L12.0413 30.893V31.04L12.1884 31.1873V31.3343L12.3354 31.4813V31.6286L12.4826 31.7756V31.9228L12.6296 32.0698V32.2169V32.3641L12.7769 32.5111V32.6582V32.8054L12.9239 32.9524V33.0994L13.0709 33.2467V33.3937V33.5409V33.688L13.2182 33.835V33.9822V34.1292V34.2763V34.4235L13.3652 34.5705V34.7175V34.8648V35.0118V35.1588V35.3061V35.4531V35.7474V36.0416V36.1886L13.2182 36.4829V36.7769L13.0709 36.9242V37.0712L12.9239 37.3655V37.5125L12.7769 37.6597L12.6296 37.8067V37.9538L12.4826 38.101L12.3354 38.248L12.1884 38.395H12.0413L15.5716 36.4829L15.7188 36.3357L15.8659 36.1886L16.0129 36.0416L16.1601 35.8944V35.7474L16.3071 35.6003L16.4544 35.4531L16.6014 35.3061V35.1588L16.7484 34.8648V34.7175V34.4235L16.8957 34.1292V33.9822V33.688V33.3937V33.2467V33.0994V32.9524V32.8054V32.6582V32.5111V32.3641L16.7484 32.2169V32.0698V31.9228V31.7756L16.6014 31.6286V31.4813V31.3343V31.1873L16.4544 31.04V30.893V30.746L16.3071 30.5988V30.4517L16.1601 30.3047V30.1575V30.0105L16.0129 29.8634V29.7162L15.8659 29.5692V29.4219L15.7188 29.2749V29.1279L15.5716 28.9806V28.8336Z" fill="#30383B"/>
<path fill-rule="evenodd" clip-rule="evenodd" d="M15.5716 28.8336L15.4246 28.5394L15.2776 28.2453L14.9833 28.0981L14.8363 27.8038L14.689 27.5098L14.542 27.3625L14.2477 27.0685L14.1007 26.9213L13.8065 26.6272L13.6594 26.48L13.3652 26.1859L13.2182 26.0387L12.9239 25.8917L12.7769 25.7444L12.4826 25.5974L12.3354 25.4504L12.0413 25.3031L11.7471 25.1561L11.6001 25.0091H11.3058L11.1588 24.8619H10.8645H10.7175L10.4232 24.7148H10.276H10.129H9.8347L9.68768 24.8619H9.54066H9.2464L9.09938 25.0091H8.95213L5.42188 27.0685H5.56889L5.71591 26.9213H6.01018H6.1572L6.30444 26.7742H6.45146H6.74572H6.89274H7.187L7.33402 26.9213H7.62829L7.77531 27.0685H8.06957L8.21659 27.2155L8.51085 27.3625L8.65787 27.5098H8.95213L9.2464 27.8038L9.39342 27.9511L9.68768 28.0981L9.8347 28.2453L10.129 28.5394L10.276 28.6866L10.5702 28.8336L10.7175 29.1279L10.8645 29.4219L11.1588 29.5692L11.3058 29.8634L11.4528 30.1575L11.6001 30.3047L11.8941 30.5988L12.0413 30.893V31.04L12.1884 31.1873V31.3343L12.3354 31.4813V31.6286L12.4826 31.7756V31.9228L12.6296 32.0698V32.2169V32.3641L12.7769 32.5111V32.6582V32.8054L12.9239 32.9524V33.0994L13.0709 33.2467V33.3937V33.5409V33.688L13.2182 33.835V33.9822V34.1292V34.2763V34.4235L13.3652 34.5705V34.7175V34.8648V35.0118V35.1588V35.3061V35.4531V35.7474V36.0416V36.1886L13.2182 36.4829V36.7769L13.0709 36.9242V37.0712L12.9239 37.3655V37.5125L12.7769 37.6597L12.6296 37.8067V37.9538L12.4826 38.101L12.3354 38.248L12.1884 38.395H12.0413L15.5716 36.4829L15.7188 36.3357L15.8659 36.1886L16.0129 36.0416L16.1601 35.8944V35.7474L16.3071 35.6003L16.4544 35.4531L16.6014 35.3061V35.1588L16.7484 34.8648V34.7175V34.4235L16.8957 34.1292V33.9822V33.688V33.3937V33.2467V33.0994V32.9524V32.8054V32.6582V32.5111V32.3641L16.7484 32.2169V32.0698V31.9228V31.7756L16.6014 31.6286V31.4813V31.3343V31.1873L16.4544 31.04V30.893V30.746L16.3071 30.5988V30.4517L16.1601 30.3047V30.1575V30.0105L16.0129 29.8634V29.7162L15.8659 29.5692V29.4219L15.7188 29.2749V29.1279L15.5716 28.9806V28.8336Z" fill="url(#paint4_linear_1_20624)"/>
<path fill-rule="evenodd" clip-rule="evenodd" d="M12.0463 30.9201C11.1637 29.4491 9.98687 28.1252 8.81007 27.5368C7.48617 26.8013 6.30935 26.8012 5.57385 27.2425C4.69125 27.6839 4.25 28.7135 4.25 30.1845C4.25 31.6555 4.83835 33.2736 5.57385 34.7446C6.45645 36.2156 7.63327 37.3925 8.81007 38.128C10.134 38.8635 11.3108 38.8634 12.0463 38.4221C12.9289 37.9808 13.3701 36.9511 13.3701 35.4801C13.3701 34.0091 12.7818 32.3911 12.0463 30.9201ZM10.5752 31.8026C11.0165 32.5381 11.3107 33.5678 11.3107 34.3033C11.3107 35.0388 11.0165 35.6272 10.5752 35.9214C10.1339 36.2156 9.54557 36.2157 8.81007 35.7744C8.07457 35.3331 7.48624 34.7446 7.04494 33.862C6.60364 32.9794 6.30939 32.0968 6.30939 31.3613C6.30939 30.6258 6.60364 30.0374 7.04494 29.7432C7.04494 29.7432 8.07457 29.4492 8.81007 29.8905C9.54557 30.3318 10.1339 30.92 10.5752 31.8026Z" fill="#4E5A5E"/>
<path fill-rule="evenodd" clip-rule="evenodd" d="M12.0463 30.9201C11.1637 29.4491 9.98687 28.1252 8.81007 27.5368C7.48617 26.8013 6.30935 26.8012 5.57385 27.2425C4.69125 27.6839 4.25 28.7135 4.25 30.1845C4.25 31.6555 4.83835 33.2736 5.57385 34.7446C6.45645 36.2156 7.63327 37.3925 8.81007 38.128C10.134 38.8635 11.3108 38.8634 12.0463 38.4221C12.9289 37.9808 13.3701 36.9511 13.3701 35.4801C13.3701 34.0091 12.7818 32.3911 12.0463 30.9201ZM10.5752 31.8026C11.0165 32.5381 11.3107 33.5678 11.3107 34.3033C11.3107 35.0388 11.0165 35.6272 10.5752 35.9214C10.1339 36.2156 9.54557 36.2157 8.81007 35.7744C8.07457 35.3331 7.48624 34.7446 7.04494 33.862C6.60364 32.9794 6.30939 32.0968 6.30939 31.3613C6.30939 30.6258 6.60364 30.0374 7.04494 29.7432C7.04494 29.7432 8.07457 29.4492 8.81007 29.8905C9.54557 30.3318 10.1339 30.92 10.5752 31.8026Z" fill="url(#paint5_linear_1_20624)"/>
<path fill-rule="evenodd" clip-rule="evenodd" d="M10.5842 31.6603C10.1429 30.9248 9.55454 30.1894 8.81903 29.8952C8.08353 29.4539 7.49521 29.4537 7.0539 29.7479C7.0539 29.7479 6.31836 30.4835 6.31836 31.3661C6.31836 32.2487 6.6126 32.9842 7.0539 33.7197C7.49521 34.4552 8.08353 35.1908 8.81903 35.6321C9.55454 36.0734 10.1429 36.0733 10.5842 35.7791C11.0255 35.4849 11.3197 35.0436 11.3197 34.161C11.3197 33.2784 11.0255 32.5428 10.5842 31.8073V31.6603Z" fill="#E6EAEB"/>
<path fill-rule="evenodd" clip-rule="evenodd" d="M35.1447 46.068V46.215L35.292 46.3623L35.439 46.5093V46.6565L35.586 46.8035L35.7332 46.9506H35.8803V47.0978L36.0273 47.2448L36.1745 47.3919L36.3215 47.5391H36.4688V47.6861L36.6158 47.8331H36.7628L36.9101 47.9804H37.0571L37.2041 48.1274H37.3513H37.4984V48.2746H37.6454H37.7926H37.9396H38.0867H38.2339H38.3809H38.5282L38.6752 48.1274L35.1447 50.1868H34.9977L34.8507 50.334H34.7034H34.5564H34.4092H34.2621H34.1151H33.9679L33.8209 50.1868H33.6738L33.5266 50.0398H33.3796L33.2326 49.8925H33.0853L32.9383 49.7455V49.5985H32.7913L32.644 49.4512L32.497 49.3042L32.3498 49.1572L32.2028 49.01V48.8629H32.0557L31.9085 48.7159V48.5687L31.7615 48.4217L31.6145 48.2746V48.1274V47.9804L31.4672 47.8331V47.6861L31.3202 47.5391V47.3919L31.1732 47.2448V47.0978L31.0259 46.9506V46.8035V46.6565L30.8789 46.5093V46.3623V46.215V46.068V45.921V45.7737V45.6267V45.4797V45.3325V45.1854V45.0384V44.8912V44.7442L31.0259 44.5971V44.4499L31.1732 44.3029L31.3202 44.1556L31.4672 44.0086L31.6145 43.8616L35.1447 41.9492H34.9977L34.8507 42.0962L34.7034 42.2435L34.5564 42.3905V42.5375V42.6848L34.4092 42.8318V42.979V43.126V43.2731V43.4203V43.5673V43.7143V43.8616V44.0086V44.1556V44.3029L34.5564 44.4499V44.5971V44.7442V44.8912L34.7034 45.0384V45.1854L34.8507 45.3325V45.4797L34.9977 45.6267V45.921L35.1447 46.068Z" fill="#677475"/>
<path fill-rule="evenodd" clip-rule="evenodd" d="M40.1318 43.1266L39.9846 42.8323L39.8376 42.5381L39.6903 42.244L39.5433 42.0968L39.249 41.8028L39.102 41.5085L38.955 41.3615L38.6607 41.0672L38.5137 40.9202L38.2195 40.6259L38.0722 40.4787L37.7782 40.3317L37.6309 40.1846L37.3369 39.8904L37.1896 39.7434L36.8956 39.5961L36.6013 39.4491H36.4543L36.1601 39.3021L36.0128 39.1548H35.7188H35.5715L35.2775 39.0078H35.1303H34.8362H34.689H34.542H34.2477L34.1007 39.1548H33.9534L33.8064 39.3021H33.6594L30.1289 41.3615L30.2759 41.2142H30.4232H30.5702L30.7172 41.0672H31.0115H31.1587H31.3057H31.6H31.747H32.0413L32.1883 41.2142H32.4826L32.6296 41.3615L32.9238 41.5085H33.0709L33.3651 41.6555L33.6594 41.8028L33.8064 41.9498L34.1007 42.0968L34.2477 42.3911L34.542 42.5381L34.689 42.6853L34.9832 42.9796L35.1303 43.1266L35.4245 43.4209L35.5715 43.5679L35.7188 43.8621L36.0128 44.1562L36.1601 44.3034L36.3071 44.5977L36.4543 44.8917L36.6013 45.186L36.7484 45.333V45.4803L36.8956 45.6273V45.7743L37.0426 45.9215L37.1896 46.0686V46.2156L37.3369 46.3628V46.5098V46.6571L37.4839 46.8041V46.9511V47.0984L37.6309 47.2454V47.3924V47.5396L37.7782 47.6867V47.8337V47.9809V48.1279V48.2752L37.9252 48.4222V48.5692V48.7165V48.8635V49.0105V49.1578V49.3048V49.4518V49.599V49.7461V50.0403V50.1873V50.4816V50.7759L37.7782 50.9229V51.2171V51.3642L37.6309 51.6584L37.4839 51.8054V51.9527L37.3369 52.0997L37.1896 52.2467L37.0426 52.394L36.8956 52.541L36.7484 52.688H36.6013L40.1318 50.6286H40.2789L40.4259 50.4816L40.5731 50.3346L40.7201 50.1873L40.8672 50.0403L41.0144 49.8931V49.7461L41.1614 49.599L41.3084 49.3048V49.1578L41.4557 48.8635V48.7165V48.4222V48.2752L41.6027 47.9809V47.6867V47.5396V47.3924L41.4557 47.2454V47.0984V46.9511V46.8041V46.6571V46.5098V46.3628V46.2156L41.3084 46.0686V45.9215V45.7743V45.6273L41.1614 45.4803V45.333V45.186L41.0144 45.039V44.8917V44.7447L40.8672 44.5977V44.4504V44.3034L40.7201 44.1562L40.5731 44.0092V43.8621L40.4259 43.7149V43.5679L40.2789 43.4209V43.2736L40.1318 43.1266Z" fill="#30383B"/>
<path fill-rule="evenodd" clip-rule="evenodd" d="M40.1318 43.1266L39.9846 42.8323L39.8376 42.5381L39.6903 42.244L39.5433 42.0968L39.249 41.8028L39.102 41.5085L38.955 41.3615L38.6607 41.0672L38.5137 40.9202L38.2195 40.6259L38.0722 40.4787L37.7782 40.3317L37.6309 40.1846L37.3369 39.8904L37.1896 39.7434L36.8956 39.5961L36.6013 39.4491H36.4543L36.1601 39.3021L36.0128 39.1548H35.7188H35.5715L35.2775 39.0078H35.1303H34.8362H34.689H34.542H34.2477L34.1007 39.1548H33.9534L33.8064 39.3021H33.6594L30.1289 41.3615L30.2759 41.2142H30.4232H30.5702L30.7172 41.0672H31.0115H31.1587H31.3057H31.6H31.747H32.0413L32.1883 41.2142H32.4826L32.6296 41.3615L32.9238 41.5085H33.0709L33.3651 41.6555L33.6594 41.8028L33.8064 41.9498L34.1007 42.0968L34.2477 42.3911L34.542 42.5381L34.689 42.6853L34.9832 42.9796L35.1303 43.1266L35.4245 43.4209L35.5715 43.5679L35.7188 43.8621L36.0128 44.1562L36.1601 44.3034L36.3071 44.5977L36.4543 44.8917L36.6013 45.186L36.7484 45.333V45.4803L36.8956 45.6273V45.7743L37.0426 45.9215L37.1896 46.0686V46.2156L37.3369 46.3628V46.5098V46.6571L37.4839 46.8041V46.9511V47.0984L37.6309 47.2454V47.3924V47.5396L37.7782 47.6867V47.8337V47.9809V48.1279V48.2752L37.9252 48.4222V48.5692V48.7165V48.8635V49.0105V49.1578V49.3048V49.4518V49.599V49.7461V50.0403V50.1873V50.4816V50.7759L37.7782 50.9229V51.2171V51.3642L37.6309 51.6584L37.4839 51.8054V51.9527L37.3369 52.0997L37.1896 52.2467L37.0426 52.394L36.8956 52.541L36.7484 52.688H36.6013L40.1318 50.6286H40.2789L40.4259 50.4816L40.5731 50.3346L40.7201 50.1873L40.8672 50.0403L41.0144 49.8931V49.7461L41.1614 49.599L41.3084 49.3048V49.1578L41.4557 48.8635V48.7165V48.4222V48.2752L41.6027 47.9809V47.6867V47.5396V47.3924L41.4557 47.2454V47.0984V46.9511V46.8041V46.6571V46.5098V46.3628V46.2156L41.3084 46.0686V45.9215V45.7743V45.6273L41.1614 45.4803V45.333V45.186L41.0144 45.039V44.8917V44.7447L40.8672 44.5977V44.4504V44.3034L40.7201 44.1562L40.5731 44.0092V43.8621L40.4259 43.7149V43.5679L40.2789 43.4209V43.2736L40.1318 43.1266Z" fill="url(#paint6_linear_1_20624)"/>
<path fill-rule="evenodd" clip-rule="evenodd" d="M36.6146 45.1779C35.732 43.7069 34.5552 42.5301 33.3784 41.7946C32.0545 41.0591 30.8777 41.0591 30.1422 41.5004C29.2596 41.9417 28.8184 42.9713 28.8184 44.4423C28.8184 45.9133 29.4067 47.5314 30.1422 49.0024C31.0248 50.4734 32.2016 51.7974 33.3784 52.5329C34.7023 53.2684 35.8791 53.2684 36.6146 52.8271C37.4972 52.3858 37.9385 51.356 37.9385 49.885C37.9385 48.4139 37.3501 46.7959 36.6146 45.3249V45.1779ZM35.1436 46.0604C35.5849 46.7959 35.8791 47.8256 35.8791 48.5611C35.8791 49.2966 35.5849 49.885 35.1436 50.1792C34.7023 50.4734 34.1139 50.4735 33.3784 50.0322C32.6429 49.5909 32.0546 49.0024 31.6133 48.1198C31.172 47.2372 30.8778 46.3546 30.8778 45.6191C30.8778 44.8836 31.172 44.2952 31.6133 44.001C31.6133 44.001 32.6429 43.7068 33.3784 44.1481C34.1139 44.5894 34.7023 45.3249 35.1436 46.0604Z" fill="#4E5A5E"/>
<path fill-rule="evenodd" clip-rule="evenodd" d="M36.6146 45.1779C35.732 43.7069 34.5552 42.5301 33.3784 41.7946C32.0545 41.0591 30.8777 41.0591 30.1422 41.5004C29.2596 41.9417 28.8184 42.9713 28.8184 44.4423C28.8184 45.9133 29.4067 47.5314 30.1422 49.0024C31.0248 50.4734 32.2016 51.7974 33.3784 52.5329C34.7023 53.2684 35.8791 53.2684 36.6146 52.8271C37.4972 52.3858 37.9385 51.356 37.9385 49.885C37.9385 48.4139 37.3501 46.7959 36.6146 45.3249V45.1779ZM35.1436 46.0604C35.5849 46.7959 35.8791 47.8256 35.8791 48.5611C35.8791 49.2966 35.5849 49.885 35.1436 50.1792C34.7023 50.4734 34.1139 50.4735 33.3784 50.0322C32.6429 49.5909 32.0546 49.0024 31.6133 48.1198C31.172 47.2372 30.8778 46.3546 30.8778 45.6191C30.8778 44.8836 31.172 44.2952 31.6133 44.001C31.6133 44.001 32.6429 43.7068 33.3784 44.1481C34.1139 44.5894 34.7023 45.3249 35.1436 46.0604Z" fill="url(#paint7_linear_1_20624)"/>
<path fill-rule="evenodd" clip-rule="evenodd" d="M35.1447 45.8948C34.7034 45.1593 34.1151 44.4236 33.3796 44.1294C32.6441 43.6881 32.0558 43.6882 31.6145 43.9824C31.6145 43.9824 30.8789 44.7179 30.8789 45.6005C30.8789 46.4831 31.1732 47.2187 31.6145 47.9542C32.0558 48.6897 32.6441 49.425 33.3796 49.8663C34.1151 50.3076 34.7034 50.3078 35.1447 50.0136C35.586 49.7194 35.8803 49.2781 35.8803 48.3955C35.8803 47.5129 35.586 46.7773 35.1447 46.0418V45.8948Z" fill="#E6EAEB"/>
<path fill-rule="evenodd" clip-rule="evenodd" d="M25.2734 21.3166L43.8082 10.5781L49.5451 22.4934C49.5451 22.4934 49.9864 23.3758 50.4277 23.67L59.5478 28.9656C60.7246 29.7011 60.8716 30.1425 60.8716 30.4367V41.4692L42.3371 52.2075V41.175C42.3371 41.175 42.3371 40.4395 41.4545 39.8511L31.8929 34.2613C31.8929 34.2613 31.3045 33.5257 31.0103 33.0844L26.156 23.2287V22.9347V22.6404V22.3462V22.0519V21.7579V21.4636V21.1694V20.8753L25.2734 21.3166Z" fill="#F0B11D"/>
<path fill-rule="evenodd" clip-rule="evenodd" d="M25.2734 21.3166L43.8082 10.5781L49.5451 22.4934C49.5451 22.4934 49.9864 23.3758 50.4277 23.67L59.5478 28.9656C60.7246 29.7011 60.8716 30.1425 60.8716 30.4367V41.4692L42.3371 52.2075V41.175C42.3371 41.175 42.3371 40.4395 41.4545 39.8511L31.8929 34.2613C31.8929 34.2613 31.3045 33.5257 31.0103 33.0844L26.156 23.2287V22.9347V22.6404V22.3462V22.0519V21.7579V21.4636V21.1694V20.8753L25.2734 21.3166Z" fill="url(#paint8_linear_1_20624)"/>
<path fill-rule="evenodd" clip-rule="evenodd" d="M61.0191 30.4375V41.617L42.4844 52.2083V41.1757L61.0191 30.4375Z" fill="#FAC13C"/>
<path fill-rule="evenodd" clip-rule="evenodd" d="M61.0191 30.4375V41.617L42.4844 52.2083V41.1757L61.0191 30.4375Z" fill="url(#paint9_linear_1_20624)"/>
<path fill-rule="evenodd" clip-rule="evenodd" d="M42.3543 9.26738H42.5013L42.6486 9.4144L42.7956 9.56164H42.9426V9.70866H43.0899L43.2369 9.85591V10.0029H43.3839V10.1499L43.5311 10.2972H43.6782V10.4442L43.8254 10.5912L25.2906 21.3297V21.1825H25.1436V21.0354L24.9964 20.8884L24.8494 20.7412L24.7023 20.5942L24.5551 20.4469L24.4081 20.2999L24.2611 20.1529H24.1138V20.0056H23.9668H23.8198L7.78569 10.5912H7.63867L26.0262 0H26.1732H26.3204L42.3543 9.26738Z" fill="#F0B11D"/>
<path fill-rule="evenodd" clip-rule="evenodd" d="M42.3543 9.26738H42.5013L42.6486 9.4144L42.7956 9.56164H42.9426V9.70866H43.0899L43.2369 9.85591V10.0029H43.3839V10.1499L43.5311 10.2972H43.6782V10.4442L43.8254 10.5912L25.2906 21.3297V21.1825H25.1436V21.0354L24.9964 20.8884L24.8494 20.7412L24.7023 20.5942L24.5551 20.4469L24.4081 20.2999L24.2611 20.1529H24.1138V20.0056H23.9668H23.8198L7.78569 10.5912H7.63867L26.0262 0H26.1732H26.3204L42.3543 9.26738Z" fill="url(#paint10_linear_1_20624)"/>
<path fill-rule="evenodd" clip-rule="evenodd" d="M42.3543 9.26738H42.5013L42.6486 9.4144L42.7956 9.56164H42.9426V9.70866H43.0899L43.2369 9.85591V10.0029H43.3839V10.1499L43.5311 10.2972H43.6782V10.4442L43.8254 10.5912L25.2906 21.3297V21.1825H25.1436V21.0354L24.9964 20.8884L24.8494 20.7412L24.7023 20.5942L24.5551 20.4469L24.4081 20.2999L24.2611 20.1529H24.1138V20.0056H23.9668H23.8198L7.78569 10.5912H7.63867L26.0262 0H26.1732H26.3204L42.3543 9.26738Z" fill="url(#paint11_linear_1_20624)"/>
<path fill-rule="evenodd" clip-rule="evenodd" d="M0 22.3516L0.588526 22.6458V24.7052L0 24.411V22.3516Z" fill="#FF0000"/>
<path fill-rule="evenodd" clip-rule="evenodd" d="M0.882565 22.5001L0.441282 22.3529V22.0586L0 22.3529L0.588526 22.6471L0.882565 22.5001Z" fill="#AB4032"/>
<path fill-rule="evenodd" clip-rule="evenodd" d="M7.64927 10.6041L23.8304 19.8714C23.8304 19.8714 24.8599 20.6069 25.3012 21.1953C27.2135 24.1373 30.1555 31.198 31.0381 33.1103C31.3323 33.5517 31.4794 33.993 31.9207 34.2872L41.4823 39.8771C42.2178 40.3184 42.3649 40.6126 42.3649 41.0539V52.2334C42.3649 52.2334 42.2178 52.5277 41.9236 52.5277L38.9817 50.9096C38.9817 50.9096 38.5404 50.4682 38.5404 50.174C38.5404 48.4088 37.952 46.6436 36.9223 44.8784C35.8926 43.1132 34.5685 41.7895 33.0975 40.9069C31.6265 40.0243 30.3027 40.0241 29.273 40.4654C28.2433 41.0538 27.6549 42.2306 27.6549 43.9958C27.6549 44.29 27.5078 44.2901 27.2136 44.2901C24.4187 42.672 16.4753 38.1118 14.1217 36.6408C13.9746 36.6408 13.6804 36.1995 13.6804 35.9053C13.6804 34.1401 13.092 32.3749 12.0623 30.6097C11.0326 28.9916 9.70857 27.5207 8.23757 26.6381C6.76657 25.7555 5.44275 25.7556 4.41305 26.1969C3.38335 26.7853 2.79494 27.962 2.79494 29.5801C2.79494 29.8743 2.64786 29.8744 2.35366 29.8744C2.35366 29.8744 1.02975 28.6975 0.735546 27.962C0.294245 27.2265 0 26.3438 0 25.6083V19.4301C0 19.4301 -1.79467e-05 18.4004 0.441282 17.9591C1.17678 17.0765 6.76677 10.457 7.06097 10.457L7.64927 10.6041Z" fill="#D19917"/>
<path fill-rule="evenodd" clip-rule="evenodd" d="M7.64927 10.6041L23.8304 19.8714C23.8304 19.8714 24.8599 20.6069 25.3012 21.1953C27.2135 24.1373 30.1555 31.198 31.0381 33.1103C31.3323 33.5517 31.4794 33.993 31.9207 34.2872L41.4823 39.8771C42.2178 40.3184 42.3649 40.6126 42.3649 41.0539V52.2334C42.3649 52.2334 42.2178 52.5277 41.9236 52.5277L38.9817 50.9096C38.9817 50.9096 38.5404 50.4682 38.5404 50.174C38.5404 48.4088 37.952 46.6436 36.9223 44.8784C35.8926 43.1132 34.5685 41.7895 33.0975 40.9069C31.6265 40.0243 30.3027 40.0241 29.273 40.4654C28.2433 41.0538 27.6549 42.2306 27.6549 43.9958C27.6549 44.29 27.5078 44.2901 27.2136 44.2901C24.4187 42.672 16.4753 38.1118 14.1217 36.6408C13.9746 36.6408 13.6804 36.1995 13.6804 35.9053C13.6804 34.1401 13.092 32.3749 12.0623 30.6097C11.0326 28.9916 9.70857 27.5207 8.23757 26.6381C6.76657 25.7555 5.44275 25.7556 4.41305 26.1969C3.38335 26.7853 2.79494 27.962 2.79494 29.5801C2.79494 29.8743 2.64786 29.8744 2.35366 29.8744C2.35366 29.8744 1.02975 28.6975 0.735546 27.962C0.294245 27.2265 0 26.3438 0 25.6083V19.4301C0 19.4301 -1.79467e-05 18.4004 0.441282 17.9591C1.17678 17.0765 6.76677 10.457 7.06097 10.457L7.64927 10.6041Z" fill="url(#paint12_linear_1_20624)"/>
<path fill-rule="evenodd" clip-rule="evenodd" d="M18.9608 19.7148L22.7853 21.9213C22.7853 21.9213 23.3737 22.3626 23.6679 22.6568C24.5505 23.8336 27.9339 31.0414 28.8165 32.6595C28.8165 32.9537 28.8164 33.1008 28.5222 33.1008L18.9608 27.6582C18.9608 27.6582 18.5195 27.2168 18.5195 26.9226V20.0089C18.5195 20.0089 18.6666 19.7148 18.9608 19.7148Z" fill="#2192FC"/>
<path fill-rule="evenodd" clip-rule="evenodd" d="M18.9608 19.7148L22.7853 21.9213C22.7853 21.9213 23.3737 22.3626 23.6679 22.6568C24.5505 23.8336 27.9339 31.0414 28.8165 32.6595C28.8165 32.9537 28.8164 33.1008 28.5222 33.1008L18.9608 27.6582C18.9608 27.6582 18.5195 27.2168 18.5195 26.9226V20.0089C18.5195 20.0089 18.6666 19.7148 18.9608 19.7148Z" fill="url(#paint13_linear_1_20624)"/>
<path fill-rule="evenodd" clip-rule="evenodd" d="M10.4276 14.7488L16.9001 18.4263C16.9001 18.4263 17.3413 18.8676 17.3413 19.1618V26.5168C17.3413 26.5168 17.1943 26.9582 16.9001 26.8111L10.4276 23.1336C10.4276 23.1336 9.98633 22.6922 9.98633 22.398V15.043C9.98633 15.043 10.1334 14.6017 10.4276 14.7488Z" fill="#2192FC"/>
<path fill-rule="evenodd" clip-rule="evenodd" d="M10.4276 14.7488L16.9001 18.4263C16.9001 18.4263 17.3413 18.8676 17.3413 19.1618V26.5168C17.3413 26.5168 17.1943 26.9582 16.9001 26.8111L10.4276 23.1336C10.4276 23.1336 9.98633 22.6922 9.98633 22.398V15.043C9.98633 15.043 10.1334 14.6017 10.4276 14.7488Z" fill="url(#paint14_linear_1_20624)"/>
<path fill-rule="evenodd" clip-rule="evenodd" d="M8.21373 13.8555C8.21373 13.8555 8.65501 14.2968 8.65501 14.591V21.6518C8.65501 21.6518 8.50793 22.0931 8.21373 21.946L4.09494 19.5924C3.35944 19.1511 3.35952 18.4156 3.94792 17.8272L7.18414 14.1497C7.18414 14.1497 8.06677 13.8556 8.36097 14.0027L8.21373 13.8555Z" fill="#2192FC"/>
<path fill-rule="evenodd" clip-rule="evenodd" d="M8.21373 13.8555C8.21373 13.8555 8.65501 14.2968 8.65501 14.591V21.6518C8.65501 21.6518 8.50793 22.0931 8.21373 21.946L4.09494 19.5924C3.35944 19.1511 3.35952 18.4156 3.94792 17.8272L7.18414 14.1497C7.18414 14.1497 8.06677 13.8556 8.36097 14.0027L8.21373 13.8555Z" fill="url(#paint15_linear_1_20624)"/>
<path fill-rule="evenodd" clip-rule="evenodd" d="M21.0006 30.5673L18.3526 28.9492L18.0586 29.2435L20.7063 30.7146L21.0006 30.5673Z" fill="#677475"/>
<path fill-rule="evenodd" clip-rule="evenodd" d="M21.0006 30.5673L18.3526 28.9492L18.0586 29.2435L20.7063 30.7146L21.0006 30.5673Z" fill="url(#paint16_linear_1_20624)"/>
<path fill-rule="evenodd" clip-rule="evenodd" d="M20.7063 30.7836L18.0586 29.3125V29.901L20.7063 31.3719V30.7836Z" fill="#4E5A5E"/>
<path fill-rule="evenodd" clip-rule="evenodd" d="M20.7063 30.7836L18.0586 29.3125V29.901L20.7063 31.3719V30.7836Z" fill="url(#paint17_linear_1_20624)"/>
<path fill-rule="evenodd" clip-rule="evenodd" d="M21.0306 31.2252V30.6367L20.7363 30.784V31.3723L21.0306 31.2252Z" fill="#677475"/>
<path fill-rule="evenodd" clip-rule="evenodd" d="M21.0306 31.2252V30.6367L20.7363 30.784V31.3723L21.0306 31.2252Z" fill="url(#paint18_linear_1_20624)"/>
<path fill-rule="evenodd" clip-rule="evenodd" d="M11.4771 25.0219L8.82942 23.5508L8.53516 23.6978L11.1831 25.3159L11.4771 25.0219Z" fill="#677475"/>
<path fill-rule="evenodd" clip-rule="evenodd" d="M11.4771 25.0219L8.82942 23.5508L8.53516 23.6978L11.1831 25.3159L11.4771 25.0219Z" fill="url(#paint19_linear_1_20624)"/>
<path fill-rule="evenodd" clip-rule="evenodd" d="M11.1831 25.2822L8.53516 23.6641V24.3996L11.1831 25.8707V25.2822Z" fill="#4E5A5E"/>
<path fill-rule="evenodd" clip-rule="evenodd" d="M11.1831 25.2822L8.53516 23.6641V24.3996L11.1831 25.8707V25.2822Z" fill="url(#paint20_linear_1_20624)"/>
<path fill-rule="evenodd" clip-rule="evenodd" d="M11.4542 25.7197V24.9844L11.1602 25.2784V25.8669L11.4542 25.7197Z" fill="#677475"/>
<path fill-rule="evenodd" clip-rule="evenodd" d="M11.4542 25.7197V24.9844L11.1602 25.2784V25.8669L11.4542 25.7197Z" fill="url(#paint21_linear_1_20624)"/>
<path fill-rule="evenodd" clip-rule="evenodd" d="M42.4849 52.2514L61.0197 41.6602H60.8724V41.8074L42.3379 52.5456V52.3986H42.4849V52.2514Z" fill="#E6EAEB"/>
<path fill-rule="evenodd" clip-rule="evenodd" d="M62.7843 42.3482V39.4062L42.4844 51.0271V54.1163L62.7843 42.3482Z" fill="#E6EAEB"/>
<path fill-rule="evenodd" clip-rule="evenodd" d="M62.7843 42.3482V39.4062L42.4844 51.0271V54.1163L62.7843 42.3482Z" fill="url(#paint22_linear_1_20624)"/>
<path fill-rule="evenodd" clip-rule="evenodd" d="M42.5021 51.0475L38.2363 48.5469V51.4888L42.5021 54.1368V51.0475Z" fill="#9C9C9C"/>
<path fill-rule="evenodd" clip-rule="evenodd" d="M42.5021 51.0475L38.2363 48.5469V51.4888L42.5021 54.1368V51.0475Z" fill="url(#paint23_linear_1_20624)"/>
<path fill-rule="evenodd" clip-rule="evenodd" d="M62.802 39.4087L61.0369 38.3789V39.4087L42.5021 49.9999L38.9719 48.0876L38.2363 48.5289L42.5021 51.0295L62.802 39.4087Z" fill="#C5CCD1"/>
<path fill-rule="evenodd" clip-rule="evenodd" d="M62.802 39.4087L61.0369 38.3789V39.4087L42.5021 49.9999L38.9719 48.0876L38.2363 48.5289L42.5021 51.0295L62.802 39.4087Z" fill="url(#paint24_linear_1_20624)"/>
<path fill-rule="evenodd" clip-rule="evenodd" d="M25.2734 21.3166L43.8082 10.5781L49.5451 22.4934C49.5451 22.4934 49.9864 23.3758 50.4277 23.67L31.8929 34.4085C31.0103 32.4962 28.2154 25.7295 26.156 22.6404V22.4934L25.2734 21.3166Z" fill="#FAC13C"/>
<path fill-rule="evenodd" clip-rule="evenodd" d="M25.2734 21.3166L43.8082 10.5781L49.5451 22.4934C49.5451 22.4934 49.9864 23.3758 50.4277 23.67L31.8929 34.4085C31.0103 32.4962 28.2154 25.7295 26.156 22.6404V22.4934L25.2734 21.3166Z" fill="url(#paint25_linear_1_20624)"/>
<path fill-rule="evenodd" clip-rule="evenodd" d="M27.3438 22.5188L43.2306 13.3984L48.0849 23.2541L32.3451 32.3745L27.3438 22.5188Z" fill="#2192FC"/>
<path fill-rule="evenodd" clip-rule="evenodd" d="M27.3438 22.5188L43.2306 13.3984L48.0849 23.2541L32.3451 32.3745L27.3438 22.5188Z" fill="url(#paint26_linear_1_20624)"/>
<path fill-rule="evenodd" clip-rule="evenodd" d="M31.168 29.9938L39.6996 25.2865L41.1707 22.4918L45.2895 20.2852L46.7605 20.5794L48.0844 23.2271L32.3446 32.3475L31.168 29.9938Z" fill="#2D7DB3"/>
<path fill-rule="evenodd" clip-rule="evenodd" d="M31.168 29.9938L39.6996 25.2865L41.1707 22.4918L45.2895 20.2852L46.7605 20.5794L48.0844 23.2271L32.3446 32.3475L31.168 29.9938Z" fill="url(#paint27_linear_1_20624)"/>
<path fill-rule="evenodd" clip-rule="evenodd" d="M28.9659 29.1249L28.2304 28.6836L25.877 30.0074L26.6123 30.4487L28.9659 29.1249Z" fill="#C5CCD1"/>
<path fill-rule="evenodd" clip-rule="evenodd" d="M28.9659 29.1249L28.2304 28.6836L25.877 30.0074L26.6123 30.4487L28.9659 29.1249Z" fill="url(#paint28_linear_1_20624)"/>
<path fill-rule="evenodd" clip-rule="evenodd" d="M26.6123 30.4218L25.877 29.9805V34.3935L26.6123 34.8348V30.4218Z" fill="#9C9C9C"/>
<path fill-rule="evenodd" clip-rule="evenodd" d="M26.6123 30.4218L25.877 29.9805V34.3935L26.6123 34.8348V30.4218Z" fill="url(#paint29_linear_1_20624)"/>
<path fill-rule="evenodd" clip-rule="evenodd" d="M28.9591 33.5302V29.1172L26.6055 30.441V34.8541L28.9591 33.5302Z" fill="#E6EAEB"/>
<path fill-rule="evenodd" clip-rule="evenodd" d="M28.9591 33.5302V29.1172L26.6055 30.441V34.8541L28.9591 33.5302Z" fill="url(#paint30_linear_1_20624)"/>
<path fill-rule="evenodd" clip-rule="evenodd" d="M30.128 31.7421L29.3925 31.3008L28.9512 31.4478V32.3306L30.128 31.7421Z" fill="#C5CCD1"/>
<path fill-rule="evenodd" clip-rule="evenodd" d="M30.128 31.7421L29.3925 31.3008L28.9512 31.4478V32.3306L30.128 31.7421Z" fill="url(#paint31_linear_1_20624)"/>
<path fill-rule="evenodd" clip-rule="evenodd" d="M30.128 32.7993V31.7695L28.9512 32.3581V33.5349L30.128 32.7993Z" fill="#E6EAEB"/>
<path fill-rule="evenodd" clip-rule="evenodd" d="M30.128 32.7993V31.7695L28.9512 32.3581V33.5349L30.128 32.7993Z" fill="url(#paint32_linear_1_20624)"/>
<path fill-rule="evenodd" clip-rule="evenodd" d="M58.0732 38.4274L57.7792 38.2804L57.6319 38.1333L57.4849 37.9861L57.3379 37.8391V37.6921V37.5448V37.3978V37.2508V36.9565V36.8093V36.6622V36.368L57.4849 36.221V36.0739L57.6319 35.7797L57.7792 35.6327L57.9262 35.4854V35.3384L58.0732 35.0441L58.2205 34.8971L58.3675 34.7499H58.5147L58.6617 34.6029L58.8088 34.4558L58.956 34.3086H59.25H59.3973H59.5443H59.6913H59.8386H59.9856L60.4269 34.6029L60.2798 34.4558H60.1326H59.9856H59.8386H59.6913H59.5443L59.3973 34.6029H59.25L59.103 34.7499L58.956 34.8971L58.8088 35.0441L58.6617 35.1912L58.5147 35.3384L58.3675 35.4854L58.2205 35.6327L58.0732 35.7797V36.0739L57.9262 36.221L57.7792 36.368V36.6622V36.8093L57.6319 36.9565V37.2508V37.3978V37.5448V37.6921L57.7792 37.9861V38.1333L57.9262 38.2804L58.0732 38.4274Z" fill="#C5CCD1"/>
<path fill-rule="evenodd" clip-rule="evenodd" d="M58.0732 38.4274L57.7792 38.2804L57.6319 38.1333L57.4849 37.9861L57.3379 37.8391V37.6921V37.5448V37.3978V37.2508V36.9565V36.8093V36.6622V36.368L57.4849 36.221V36.0739L57.6319 35.7797L57.7792 35.6327L57.9262 35.4854V35.3384L58.0732 35.0441L58.2205 34.8971L58.3675 34.7499H58.5147L58.6617 34.6029L58.8088 34.4558L58.956 34.3086H59.25H59.3973H59.5443H59.6913H59.8386H59.9856L60.4269 34.6029L60.2798 34.4558H60.1326H59.9856H59.8386H59.6913H59.5443L59.3973 34.6029H59.25L59.103 34.7499L58.956 34.8971L58.8088 35.0441L58.6617 35.1912L58.5147 35.3384L58.3675 35.4854L58.2205 35.6327L58.0732 35.7797V36.0739L57.9262 36.221L57.7792 36.368V36.6622V36.8093L57.6319 36.9565V37.2508V37.3978V37.5448V37.6921L57.7792 37.9861V38.1333L57.9262 38.2804L58.0732 38.4274Z" fill="url(#paint33_linear_1_20624)"/>
<path fill-rule="evenodd" clip-rule="evenodd" d="M59.2705 38.2608C58.3879 38.7021 57.6523 38.2608 57.6523 37.3782C57.6523 36.4956 58.3879 35.1717 59.2705 34.5833C60.1531 34.142 60.8886 34.5833 60.8886 35.4659C60.8886 36.3485 60.1531 37.6724 59.2705 38.2608Z" fill="#E6EAEB"/>
<path fill-rule="evenodd" clip-rule="evenodd" d="M59.2705 38.2608C58.3879 38.7021 57.6523 38.2608 57.6523 37.3782C57.6523 36.4956 58.3879 35.1717 59.2705 34.5833C60.1531 34.142 60.8886 34.5833 60.8886 35.4659C60.8886 36.3485 60.1531 37.6724 59.2705 38.2608Z" fill="url(#paint34_linear_1_20624)"/>
<path fill-rule="evenodd" clip-rule="evenodd" d="M47.6641 43.6925L56.0487 38.8382H56.1959V37.8086L47.6641 42.6629V43.6925Z" fill="#9C9C9C"/>
<path fill-rule="evenodd" clip-rule="evenodd" d="M47.6641 43.6925L56.0487 38.8382H56.1959V37.8086L47.6641 42.6629V43.6925Z" fill="url(#paint35_linear_1_20624)"/>
<path fill-rule="evenodd" clip-rule="evenodd" d="M56.1959 36.1953L47.6641 41.0496V42.0792L56.1959 37.2251V36.1953Z" fill="#9C9C9C"/>
<path fill-rule="evenodd" clip-rule="evenodd" d="M56.1959 36.1953L47.6641 41.0496V42.0792L56.1959 37.2251V36.1953Z" fill="url(#paint36_linear_1_20624)"/>
<path fill-rule="evenodd" clip-rule="evenodd" d="M56.1959 39.4062L47.6641 44.2606V45.2902L56.1959 40.4358V39.4062Z" fill="#9C9C9C"/>
<path fill-rule="evenodd" clip-rule="evenodd" d="M56.1959 39.4062L47.6641 44.2606V45.2902L56.1959 40.4358V39.4062Z" fill="url(#paint37_linear_1_20624)"/>
<path fill-rule="evenodd" clip-rule="evenodd" d="M47.6641 42.1067V41.0771L55.3133 36.6641L56.1959 37.2526L47.6641 42.1067Z" fill="#677475"/>
<path fill-rule="evenodd" clip-rule="evenodd" d="M47.6641 42.1067V41.0771L55.3133 36.6641L56.1959 37.2526L47.6641 42.1067Z" fill="url(#paint38_linear_1_20624)"/>
<path fill-rule="evenodd" clip-rule="evenodd" d="M47.6641 43.6745V42.6449L55.3133 38.3789L56.1959 38.8202L47.6641 43.6745Z" fill="#677475"/>
<path fill-rule="evenodd" clip-rule="evenodd" d="M47.6641 43.6745V42.6449L55.3133 38.3789L56.1959 38.8202L47.6641 43.6745Z" fill="url(#paint39_linear_1_20624)"/>
<path fill-rule="evenodd" clip-rule="evenodd" d="M47.6641 45.2956V44.266L55.3133 40L56.1959 40.4413L47.6641 45.2956Z" fill="#677475"/>
<path fill-rule="evenodd" clip-rule="evenodd" d="M47.6641 45.2956V44.266L55.3133 40L56.1959 40.4413L47.6641 45.2956Z" fill="url(#paint40_linear_1_20624)"/>
<path fill-rule="evenodd" clip-rule="evenodd" d="M44.1169 46.4924L43.6757 46.1981L43.5286 46.0511L43.3814 45.9041V45.7568V45.6098L43.2344 45.4628V45.1685V45.0215L43.3814 44.8743V44.7272V44.433L43.5286 44.286V43.9917L43.6757 43.8447V43.6974L43.8229 43.5504L43.9699 43.2561L44.1169 43.1091L44.2642 42.9621L44.4112 42.8149L44.5582 42.6678H44.7055L44.8525 42.5206L44.9995 42.3736H45.1467H45.2938L45.4408 42.2266H45.588L45.735 42.3736H45.8823H46.0293L46.3236 42.6678L46.1763 42.5206H46.0293H45.8823H45.735H45.588L45.4408 42.6678H45.2938L44.9995 42.8149L44.8525 42.9621L44.7055 43.1091L44.5582 43.2561L44.4112 43.4034V43.5504L44.2642 43.6974L44.1169 43.8447L43.9699 44.1387V44.286L43.8229 44.433V44.7272L43.6757 44.8743V45.0215V45.3155V45.4628V45.6098V45.7568V45.9041L43.8229 46.0511V46.1981L43.9699 46.3453L44.1169 46.4924Z" fill="#C5CCD1"/>
<path fill-rule="evenodd" clip-rule="evenodd" d="M44.1169 46.4924L43.6757 46.1981L43.5286 46.0511L43.3814 45.9041V45.7568V45.6098L43.2344 45.4628V45.1685V45.0215L43.3814 44.8743V44.7272V44.433L43.5286 44.286V43.9917L43.6757 43.8447V43.6974L43.8229 43.5504L43.9699 43.2561L44.1169 43.1091L44.2642 42.9621L44.4112 42.8149L44.5582 42.6678H44.7055L44.8525 42.5206L44.9995 42.3736H45.1467H45.2938L45.4408 42.2266H45.588L45.735 42.3736H45.8823H46.0293L46.3236 42.6678L46.1763 42.5206H46.0293H45.8823H45.735H45.588L45.4408 42.6678H45.2938L44.9995 42.8149L44.8525 42.9621L44.7055 43.1091L44.5582 43.2561L44.4112 43.4034V43.5504L44.2642 43.6974L44.1169 43.8447L43.9699 44.1387V44.286L43.8229 44.433V44.7272L43.6757 44.8743V45.0215V45.3155V45.4628V45.6098V45.7568V45.9041L43.8229 46.0511V46.1981L43.9699 46.3453L44.1169 46.4924Z" fill="url(#paint41_linear_1_20624)"/>
<path fill-rule="evenodd" clip-rule="evenodd" d="M45.2763 46.3663C44.3937 46.8076 43.6582 46.3663 43.6582 45.4837C43.6582 44.6011 44.3937 43.2772 45.2763 42.6888C46.1589 42.2475 46.8944 42.6887 46.8944 43.5713C46.8944 44.4539 46.1589 45.7779 45.2763 46.3663Z" fill="#E6EAEB"/>
<path fill-rule="evenodd" clip-rule="evenodd" d="M45.2763 46.3663C44.3937 46.8076 43.6582 46.3663 43.6582 45.4837C43.6582 44.6011 44.3937 43.2772 45.2763 42.6888C46.1589 42.2475 46.8944 42.6887 46.8944 43.5713C46.8944 44.4539 46.1589 45.7779 45.2763 46.3663Z" fill="url(#paint42_linear_1_20624)"/>
<defs>
<linearGradient id="paint0_linear_1_20624" x1="48.668" y1="16.8501" x2="51.0615" y2="16.8883" gradientUnits="userSpaceOnUse">
<stop stop-color="#E6F0FF"/>
<stop offset="0.24" stop-color="#E2ECFD"/>
<stop offset="0.47" stop-color="#D6E3F8"/>
<stop offset="0.69" stop-color="#C3D3F0"/>
<stop offset="0.91" stop-color="#A9BDE4"/>
<stop offset="1" stop-color="#9CB2DF"/>
</linearGradient>
<linearGradient id="paint1_linear_1_20624" x1="49.2069" y1="19.2046" x2="51.031" y2="19.2118" gradientUnits="userSpaceOnUse">
<stop stop-color="#E6F0FF"/>
<stop offset="0.24" stop-color="#E2ECFD"/>
<stop offset="0.47" stop-color="#D6E3F8"/>
<stop offset="0.69" stop-color="#C3D3F0"/>
<stop offset="0.91" stop-color="#A9BDE4"/>
<stop offset="1" stop-color="#9CB2DF"/>
</linearGradient>
<linearGradient id="paint2_linear_1_20624" x1="48.1173" y1="19.7297" x2="48.6872" y2="19.7305" gradientUnits="userSpaceOnUse">
<stop stop-color="#E6F0FF"/>
<stop offset="0.24" stop-color="#E2ECFD"/>
<stop offset="0.47" stop-color="#D6E3F8"/>
<stop offset="0.69" stop-color="#C3D3F0"/>
<stop offset="0.91" stop-color="#A9BDE4"/>
<stop offset="1" stop-color="#9CB2DF"/>
</linearGradient>
<linearGradient id="paint3_linear_1_20624" x1="7.71523" y1="22.306" x2="22.6479" y2="22.5014" gradientUnits="userSpaceOnUse">
<stop stop-color="#9CB2DF"/>
<stop offset="0.09" stop-color="#A9BDE4"/>
<stop offset="0.31" stop-color="#C3D3F0"/>
<stop offset="0.53" stop-color="#D6E3F8"/>
<stop offset="0.76" stop-color="#E2ECFD"/>
<stop offset="1" stop-color="#E6F0FF"/>
</linearGradient>
<linearGradient id="paint4_linear_1_20624" x1="5.41855" y1="31.5549" x2="16.888" y2="31.5549" gradientUnits="userSpaceOnUse">
<stop stop-color="#4AFFC7"/>
<stop offset="1" stop-color="#3BADEA"/>
</linearGradient>
<linearGradient id="paint5_linear_1_20624" x1="4.24736" y1="32.8324" x2="13.364" y2="32.8324" gradientUnits="userSpaceOnUse">
<stop stop-color="#4AFFC7"/>
<stop offset="1" stop-color="#3BADEA"/>
</linearGradient>
<linearGradient id="paint6_linear_1_20624" x1="30.1256" y1="45.8479" x2="41.595" y2="45.8479" gradientUnits="userSpaceOnUse">
<stop stop-color="#4AFFC7"/>
<stop offset="1" stop-color="#3BADEA"/>
</linearGradient>
<linearGradient id="paint7_linear_1_20624" x1="28.8157" y1="47.1637" x2="37.9324" y2="47.1637" gradientUnits="userSpaceOnUse">
<stop stop-color="#4AFFC7"/>
<stop offset="1" stop-color="#3BADEA"/>
</linearGradient>
<linearGradient id="paint8_linear_1_20624" x1="33.6016" y1="31.039" x2="61.1899" y2="31.2722" gradientUnits="userSpaceOnUse">
<stop stop-color="#E6F0FF"/>
<stop offset="0.24" stop-color="#E2ECFD"/>
<stop offset="0.47" stop-color="#D6E3F8"/>
<stop offset="0.69" stop-color="#C3D3F0"/>
<stop offset="0.91" stop-color="#A9BDE4"/>
<stop offset="1" stop-color="#9CB2DF"/>
</linearGradient>
<linearGradient id="paint9_linear_1_20624" x1="46.8205" y1="41.1378" x2="61.1848" y2="41.2587" gradientUnits="userSpaceOnUse">
<stop stop-color="#E6F0FF"/>
<stop offset="0.24" stop-color="#E2ECFD"/>
<stop offset="0.47" stop-color="#D6E3F8"/>
<stop offset="0.69" stop-color="#C3D3F0"/>
<stop offset="0.91" stop-color="#A9BDE4"/>
<stop offset="1" stop-color="#9CB2DF"/>
</linearGradient>
<linearGradient id="paint10_linear_1_20624" x1="16.1045" y1="10.4836" x2="44.143" y2="10.9538" gradientUnits="userSpaceOnUse">
<stop stop-color="#9CB2DF"/>
<stop offset="0.09" stop-color="#A9BDE4"/>
<stop offset="0.31" stop-color="#C3D3F0"/>
<stop offset="0.53" stop-color="#D6E3F8"/>
<stop offset="0.76" stop-color="#E2ECFD"/>
<stop offset="1" stop-color="#E6F0FF"/>
</linearGradient>
<linearGradient id="paint11_linear_1_20624" x1="16.1045" y1="10.4836" x2="44.143" y2="10.9538" gradientUnits="userSpaceOnUse">
<stop stop-color="#E6F0FF"/>
<stop offset="0.24" stop-color="#E2ECFD"/>
<stop offset="0.47" stop-color="#D6E3F8"/>
<stop offset="0.69" stop-color="#C3D3F0"/>
<stop offset="0.91" stop-color="#A9BDE4"/>
<stop offset="1" stop-color="#9CB2DF"/>
</linearGradient>
<linearGradient id="paint12_linear_1_20624" x1="9.9112" y1="31.1348" x2="42.7427" y2="31.4616" gradientUnits="userSpaceOnUse">
<stop stop-color="#E6F0FF"/>
<stop offset="0.24" stop-color="#E2ECFD"/>
<stop offset="0.47" stop-color="#D6E3F8"/>
<stop offset="0.69" stop-color="#C3D3F0"/>
<stop offset="0.91" stop-color="#A9BDE4"/>
<stop offset="1" stop-color="#9CB2DF"/>
</linearGradient>
<linearGradient id="paint13_linear_1_20624" x1="18.5165" y1="26.4078" x2="28.8096" y2="26.4078" gradientUnits="userSpaceOnUse">
<stop stop-color="#4AFFC7"/>
<stop offset="1" stop-color="#3BADEA"/>
</linearGradient>
<linearGradient id="paint14_linear_1_20624" x1="9.9842" y1="20.7799" x2="17.3364" y2="20.7799" gradientUnits="userSpaceOnUse">
<stop stop-color="#4AFFC7"/>
<stop offset="1" stop-color="#3BADEA"/>
</linearGradient>
<linearGradient id="paint15_linear_1_20624" x1="3.52195" y1="17.9158" x2="8.65159" y2="17.9158" gradientUnits="userSpaceOnUse">
<stop stop-color="#4AFFC7"/>
<stop offset="1" stop-color="#3BADEA"/>
</linearGradient>
<linearGradient id="paint16_linear_1_20624" x1="18.0577" y1="29.8319" x2="20.9986" y2="29.8319" gradientUnits="userSpaceOnUse">
<stop stop-color="#4AFFC7"/>
<stop offset="1" stop-color="#3BADEA"/>
</linearGradient>
<linearGradient id="paint17_linear_1_20624" x1="18.0578" y1="30.3422" x2="20.7045" y2="30.3422" gradientUnits="userSpaceOnUse">
<stop stop-color="#4AFFC7"/>
<stop offset="1" stop-color="#3BADEA"/>
</linearGradient>
<linearGradient id="paint18_linear_1_20624" x1="20.7362" y1="31.0045" x2="21.0304" y2="31.0045" gradientUnits="userSpaceOnUse">
<stop stop-color="#4AFFC7"/>
<stop offset="1" stop-color="#3BADEA"/>
</linearGradient>
<linearGradient id="paint19_linear_1_20624" x1="8.5343" y1="24.4333" x2="11.4752" y2="24.4333" gradientUnits="userSpaceOnUse">
<stop stop-color="#4AFFC7"/>
<stop offset="1" stop-color="#3BADEA"/>
</linearGradient>
<linearGradient id="paint20_linear_1_20624" x1="8.53439" y1="24.7674" x2="11.1813" y2="24.7674" gradientUnits="userSpaceOnUse">
<stop stop-color="#4AFFC7"/>
<stop offset="1" stop-color="#3BADEA"/>
</linearGradient>
<linearGradient id="paint21_linear_1_20624" x1="11.1601" y1="25.4257" x2="11.454" y2="25.4257" gradientUnits="userSpaceOnUse">
<stop stop-color="#4AFFC7"/>
<stop offset="1" stop-color="#3BADEA"/>
</linearGradient>
<linearGradient id="paint22_linear_1_20624" x1="47.2335" y1="46.6362" x2="62.9639" y2="46.8508" gradientUnits="userSpaceOnUse">
<stop stop-color="#E6F0FF"/>
<stop offset="0.24" stop-color="#E2ECFD"/>
<stop offset="0.47" stop-color="#D6E3F8"/>
<stop offset="0.69" stop-color="#C3D3F0"/>
<stop offset="0.91" stop-color="#A9BDE4"/>
<stop offset="1" stop-color="#9CB2DF"/>
</linearGradient>
<linearGradient id="paint23_linear_1_20624" x1="39.2343" y1="51.2943" x2="42.5403" y2="51.3192" gradientUnits="userSpaceOnUse">
<stop stop-color="#E6F0FF"/>
<stop offset="0.24" stop-color="#E2ECFD"/>
<stop offset="0.47" stop-color="#D6E3F8"/>
<stop offset="0.69" stop-color="#C3D3F0"/>
<stop offset="0.91" stop-color="#A9BDE4"/>
<stop offset="1" stop-color="#9CB2DF"/>
</linearGradient>
<linearGradient id="paint24_linear_1_20624" x1="43.9834" y1="44.5967" x2="63.016" y2="44.9621" gradientUnits="userSpaceOnUse">
<stop stop-color="#9CB2DF"/>
<stop offset="0.09" stop-color="#A9BDE4"/>
<stop offset="0.31" stop-color="#C3D3F0"/>
<stop offset="0.53" stop-color="#D6E3F8"/>
<stop offset="0.76" stop-color="#E2ECFD"/>
<stop offset="1" stop-color="#E6F0FF"/>
</linearGradient>
<linearGradient id="paint25_linear_1_20624" x1="31.1582" y1="22.2908" x2="50.6518" y2="22.4942" gradientUnits="userSpaceOnUse">
<stop stop-color="#E6F0FF"/>
<stop offset="0.24" stop-color="#E2ECFD"/>
<stop offset="0.47" stop-color="#D6E3F8"/>
<stop offset="0.69" stop-color="#C3D3F0"/>
<stop offset="0.91" stop-color="#A9BDE4"/>
<stop offset="1" stop-color="#9CB2DF"/>
</linearGradient>
<linearGradient id="paint26_linear_1_20624" x1="27.3377" y1="22.8865" x2="48.0711" y2="22.8865" gradientUnits="userSpaceOnUse">
<stop stop-color="#4AFFC7"/>
<stop offset="1" stop-color="#3BADEA"/>
</linearGradient>
<linearGradient id="paint27_linear_1_20624" x1="31.1631" y1="26.3163" x2="48.0731" y2="26.3163" gradientUnits="userSpaceOnUse">
<stop stop-color="#3BADEA"/>
<stop offset="1" stop-color="#4AFFC7"/>
</linearGradient>
<linearGradient id="paint28_linear_1_20624" x1="26.5996" y1="29.5512" x2="28.993" y2="29.5926" gradientUnits="userSpaceOnUse">
<stop stop-color="#E6F0FF"/>
<stop offset="0.24" stop-color="#E2ECFD"/>
<stop offset="0.47" stop-color="#D6E3F8"/>
<stop offset="0.69" stop-color="#C3D3F0"/>
<stop offset="0.91" stop-color="#A9BDE4"/>
<stop offset="1" stop-color="#9CB2DF"/>
</linearGradient>
<linearGradient id="paint29_linear_1_20624" x1="26.049" y1="32.3664" x2="26.6189" y2="32.3672" gradientUnits="userSpaceOnUse">
<stop stop-color="#E6F0FF"/>
<stop offset="0.24" stop-color="#E2ECFD"/>
<stop offset="0.47" stop-color="#D6E3F8"/>
<stop offset="0.69" stop-color="#C3D3F0"/>
<stop offset="0.91" stop-color="#A9BDE4"/>
<stop offset="1" stop-color="#9CB2DF"/>
</linearGradient>
<linearGradient id="paint30_linear_1_20624" x1="27.1561" y1="31.9369" x2="28.9803" y2="31.9443" gradientUnits="userSpaceOnUse">
<stop stop-color="#E6F0FF"/>
<stop offset="0.24" stop-color="#E2ECFD"/>
<stop offset="0.47" stop-color="#D6E3F8"/>
<stop offset="0.69" stop-color="#C3D3F0"/>
<stop offset="0.91" stop-color="#A9BDE4"/>
<stop offset="1" stop-color="#9CB2DF"/>
</linearGradient>
<linearGradient id="paint31_linear_1_20624" x1="29.2265" y1="31.8069" x2="30.1385" y2="31.8172" gradientUnits="userSpaceOnUse">
<stop stop-color="#E6F0FF"/>
<stop offset="0.24" stop-color="#E2ECFD"/>
<stop offset="0.47" stop-color="#D6E3F8"/>
<stop offset="0.69" stop-color="#C3D3F0"/>
<stop offset="0.91" stop-color="#A9BDE4"/>
<stop offset="1" stop-color="#9CB2DF"/>
</linearGradient>
<linearGradient id="paint32_linear_1_20624" x1="29.2265" y1="32.6372" x2="30.1385" y2="32.6432" gradientUnits="userSpaceOnUse">
<stop stop-color="#E6F0FF"/>
<stop offset="0.24" stop-color="#E2ECFD"/>
<stop offset="0.47" stop-color="#D6E3F8"/>
<stop offset="0.69" stop-color="#C3D3F0"/>
<stop offset="0.91" stop-color="#A9BDE4"/>
<stop offset="1" stop-color="#9CB2DF"/>
</linearGradient>
<linearGradient id="paint33_linear_1_20624" x1="58.0606" y1="36.333" x2="60.4545" y2="36.3507" gradientUnits="userSpaceOnUse">
<stop stop-color="#9CB2DF"/>
<stop offset="0.09" stop-color="#A9BDE4"/>
<stop offset="0.31" stop-color="#C3D3F0"/>
<stop offset="0.53" stop-color="#D6E3F8"/>
<stop offset="0.76" stop-color="#E2ECFD"/>
<stop offset="1" stop-color="#E6F0FF"/>
</linearGradient>
<linearGradient id="paint34_linear_1_20624" x1="58.4095" y1="36.3878" x2="60.9175" y2="36.4078" gradientUnits="userSpaceOnUse">
<stop stop-color="#E6F0FF"/>
<stop offset="0.24" stop-color="#E2ECFD"/>
<stop offset="0.47" stop-color="#D6E3F8"/>
<stop offset="0.69" stop-color="#C3D3F0"/>
<stop offset="0.91" stop-color="#A9BDE4"/>
<stop offset="1" stop-color="#9CB2DF"/>
</linearGradient>
<linearGradient id="paint35_linear_1_20624" x1="49.6601" y1="40.7005" x2="56.2713" y2="40.7953" gradientUnits="userSpaceOnUse">
<stop stop-color="#E6F0FF"/>
<stop offset="0.24" stop-color="#E2ECFD"/>
<stop offset="0.47" stop-color="#D6E3F8"/>
<stop offset="0.69" stop-color="#C3D3F0"/>
<stop offset="0.91" stop-color="#A9BDE4"/>
<stop offset="1" stop-color="#9CB2DF"/>
</linearGradient>
<linearGradient id="paint36_linear_1_20624" x1="49.6601" y1="39.0873" x2="56.2713" y2="39.182" gradientUnits="userSpaceOnUse">
<stop stop-color="#E6F0FF"/>
<stop offset="0.24" stop-color="#E2ECFD"/>
<stop offset="0.47" stop-color="#D6E3F8"/>
<stop offset="0.69" stop-color="#C3D3F0"/>
<stop offset="0.91" stop-color="#A9BDE4"/>
<stop offset="1" stop-color="#9CB2DF"/>
</linearGradient>
<linearGradient id="paint37_linear_1_20624" x1="49.6601" y1="42.2982" x2="56.2713" y2="42.393" gradientUnits="userSpaceOnUse">
<stop stop-color="#E6F0FF"/>
<stop offset="0.24" stop-color="#E2ECFD"/>
<stop offset="0.47" stop-color="#D6E3F8"/>
<stop offset="0.69" stop-color="#C3D3F0"/>
<stop offset="0.91" stop-color="#A9BDE4"/>
<stop offset="1" stop-color="#9CB2DF"/>
</linearGradient>
<linearGradient id="paint38_linear_1_20624" x1="49.6601" y1="39.3391" x2="56.2711" y2="39.4416" gradientUnits="userSpaceOnUse">
<stop stop-color="#9CB2DF"/>
<stop offset="0.09" stop-color="#A9BDE4"/>
<stop offset="0.31" stop-color="#C3D3F0"/>
<stop offset="0.53" stop-color="#D6E3F8"/>
<stop offset="0.76" stop-color="#E2ECFD"/>
<stop offset="1" stop-color="#E6F0FF"/>
</linearGradient>
<linearGradient id="paint39_linear_1_20624" x1="49.6601" y1="40.9817" x2="56.271" y2="41.087" gradientUnits="userSpaceOnUse">
<stop stop-color="#9CB2DF"/>
<stop offset="0.09" stop-color="#A9BDE4"/>
<stop offset="0.31" stop-color="#C3D3F0"/>
<stop offset="0.53" stop-color="#D6E3F8"/>
<stop offset="0.76" stop-color="#E2ECFD"/>
<stop offset="1" stop-color="#E6F0FF"/>
</linearGradient>
<linearGradient id="paint40_linear_1_20624" x1="49.6601" y1="42.6028" x2="56.271" y2="42.7081" gradientUnits="userSpaceOnUse">
<stop stop-color="#9CB2DF"/>
<stop offset="0.09" stop-color="#A9BDE4"/>
<stop offset="0.31" stop-color="#C3D3F0"/>
<stop offset="0.53" stop-color="#D6E3F8"/>
<stop offset="0.76" stop-color="#E2ECFD"/>
<stop offset="1" stop-color="#E6F0FF"/>
</linearGradient>
<linearGradient id="paint41_linear_1_20624" x1="43.9571" y1="44.3232" x2="46.3512" y2="44.3403" gradientUnits="userSpaceOnUse">
<stop stop-color="#9CB2DF"/>
<stop offset="0.09" stop-color="#A9BDE4"/>
<stop offset="0.31" stop-color="#C3D3F0"/>
<stop offset="0.53" stop-color="#D6E3F8"/>
<stop offset="0.76" stop-color="#E2ECFD"/>
<stop offset="1" stop-color="#E6F0FF"/>
</linearGradient>
<linearGradient id="paint42_linear_1_20624" x1="44.4153" y1="44.4933" x2="46.9234" y2="44.5132" gradientUnits="userSpaceOnUse">
<stop stop-color="#E6F0FF"/>
<stop offset="0.24" stop-color="#E2ECFD"/>
<stop offset="0.47" stop-color="#D6E3F8"/>
<stop offset="0.69" stop-color="#C3D3F0"/>
<stop offset="0.91" stop-color="#A9BDE4"/>
<stop offset="1" stop-color="#9CB2DF"/>
</linearGradient>
</defs>
</svg>
