<svg width="59" height="89" viewBox="0 0 59 89" fill="none" xmlns="http://www.w3.org/2000/svg">
<path opacity="0.5" fill-rule="evenodd" clip-rule="evenodd" d="M49.5361 59.7185C60.8628 66.1909 60.8628 76.9293 49.5361 83.4017C38.2094 89.8741 19.8217 89.8741 8.49503 83.4017C-2.83168 76.7822 -2.83168 66.1909 8.49503 59.7185C19.8217 53.099 38.2094 53.099 49.5361 59.7185Z" fill="#E9E9EB"/>
<path opacity="0.5" fill-rule="evenodd" clip-rule="evenodd" d="M45.2776 62.2364C54.2507 67.3849 54.2507 75.7697 45.2776 80.9182C36.3045 86.0667 21.8885 86.0667 12.9154 80.9182C3.94227 75.7697 3.94227 67.3849 12.9154 62.2364C21.8885 57.0879 36.3045 57.0879 45.2776 62.2364Z" fill="#DDDEE1"/>
<path opacity="0.5" fill-rule="evenodd" clip-rule="evenodd" d="M40.8624 64.7552C47.4819 68.5798 47.4819 74.611 40.8624 78.4356C34.2429 82.2602 23.6519 82.2602 17.1795 78.4356C10.56 74.611 10.56 68.5798 17.1795 64.7552C23.799 60.9306 34.39 60.9306 40.8624 64.7552Z" fill="#D1D2D6"/>
<path fill-rule="evenodd" clip-rule="evenodd" d="M32.3243 63.2864C32.3243 63.2864 32.7656 62.1095 32.7656 61.374C32.7656 59.6088 32.7656 52.9893 32.7656 53.7248C32.6185 54.9016 29.3824 54.9016 29.2353 53.7248C29.2353 55.0487 29.0882 62.5508 29.2353 62.9921C29.6766 63.7276 31.4415 63.8748 32.177 63.2864H32.3243Z" fill="#FAC13C"/>
<path fill-rule="evenodd" clip-rule="evenodd" d="M32.3243 63.2864C32.3243 63.2864 32.7656 62.1095 32.7656 61.374C32.7656 59.6088 32.7656 52.9893 32.7656 53.7248C32.6185 54.9016 29.3824 54.9016 29.2353 53.7248C29.2353 55.0487 29.0882 62.5508 29.2353 62.9921C29.6766 63.7276 31.4415 63.8748 32.177 63.2864H32.3243Z" fill="url(#paint0_linear_1_20700)"/>
<path fill-rule="evenodd" clip-rule="evenodd" d="M26.1553 0.735545V0.588302H26.3025V0.441282L26.4498 0.294263V0.147019H26.597H26.7438V0H26.891H27.0383L31.7451 2.79494H31.5983H31.4511H31.3039V2.94196H31.1571V3.08898L31.0098 3.23622L30.8626 3.38324V3.53048L30.5685 4.2658L30.1273 5.14859L29.686 6.17818L29.2447 7.35501L28.6562 8.38459L28.2149 9.56142L27.6264 10.8855L27.0383 12.2093L26.3025 13.9745L25.4199 15.7396L24.6846 17.652L23.8021 19.4171L22.9195 21.3295L22.1837 23.2418L21.3012 25.007L20.5658 26.7721L19.8301 28.5375L19.0947 30.3026L18.5062 31.9207L17.9177 33.3918L17.3296 34.8627L16.8883 36.1865L16.4471 37.2163L16.1526 38.2461L15.7113 39.4227L15.5645 40.4525L15.27 41.6294L15.1228 42.6589L14.976 43.6887L14.8287 44.7183V45.6011L14.6815 46.4837L14.8287 47.9546L14.976 49.1314L15.1228 50.3082L15.4172 51.485L15.8585 52.5146L16.2998 53.5444L16.8883 54.28L17.4764 55.1625L18.2122 55.7508L18.9475 56.3394L19.6833 56.9277L14.976 54.1327L14.2402 53.6914L13.5049 53.1031L12.7695 52.3676L12.181 51.6321L11.5925 50.7495L11.1512 49.8669L10.7099 48.8371L10.4159 47.6605L10.2686 46.4837L10.1214 45.1596L9.97461 43.8358L10.1214 42.9532V41.9236L10.2686 40.8938L10.4159 39.864L10.5627 38.8344L10.7099 37.8046L11.004 36.775L11.2985 35.5982L11.7397 34.5686L12.0338 33.3918L12.6223 32.0677L13.0636 30.7439L13.7989 29.1258L14.3874 27.5076L15.1228 25.8895L15.8585 24.1244L16.5938 22.3593L17.4764 20.4469L18.2122 18.5345L19.0947 16.7694L19.8301 14.857L20.7126 12.9449L21.5952 11.1795L22.331 9.4144L22.9195 8.09055L23.5076 6.91372L23.9489 5.7369L24.5374 4.56007L24.9787 3.53048L25.4199 2.50067L25.8612 1.61811L26.1553 0.735545Z" fill="#7FA34A"/>
<path fill-rule="evenodd" clip-rule="evenodd" d="M26.1553 0.735545V0.588302H26.3025V0.441282L26.4498 0.294263V0.147019H26.597H26.7438V0H26.891H27.0383L31.7451 2.79494H31.5983H31.4511H31.3039V2.94196H31.1571V3.08898L31.0098 3.23622L30.8626 3.38324V3.53048L30.5685 4.2658L30.1273 5.14859L29.686 6.17818L29.2447 7.35501L28.6562 8.38459L28.2149 9.56142L27.6264 10.8855L27.0383 12.2093L26.3025 13.9745L25.4199 15.7396L24.6846 17.652L23.8021 19.4171L22.9195 21.3295L22.1837 23.2418L21.3012 25.007L20.5658 26.7721L19.8301 28.5375L19.0947 30.3026L18.5062 31.9207L17.9177 33.3918L17.3296 34.8627L16.8883 36.1865L16.4471 37.2163L16.1526 38.2461L15.7113 39.4227L15.5645 40.4525L15.27 41.6294L15.1228 42.6589L14.976 43.6887L14.8287 44.7183V45.6011L14.6815 46.4837L14.8287 47.9546L14.976 49.1314L15.1228 50.3082L15.4172 51.485L15.8585 52.5146L16.2998 53.5444L16.8883 54.28L17.4764 55.1625L18.2122 55.7508L18.9475 56.3394L19.6833 56.9277L14.976 54.1327L14.2402 53.6914L13.5049 53.1031L12.7695 52.3676L12.181 51.6321L11.5925 50.7495L11.1512 49.8669L10.7099 48.8371L10.4159 47.6605L10.2686 46.4837L10.1214 45.1596L9.97461 43.8358L10.1214 42.9532V41.9236L10.2686 40.8938L10.4159 39.864L10.5627 38.8344L10.7099 37.8046L11.004 36.775L11.2985 35.5982L11.7397 34.5686L12.0338 33.3918L12.6223 32.0677L13.0636 30.7439L13.7989 29.1258L14.3874 27.5076L15.1228 25.8895L15.8585 24.1244L16.5938 22.3593L17.4764 20.4469L18.2122 18.5345L19.0947 16.7694L19.8301 14.857L20.7126 12.9449L21.5952 11.1795L22.331 9.4144L22.9195 8.09055L23.5076 6.91372L23.9489 5.7369L24.5374 4.56007L24.9787 3.53048L25.4199 2.50067L25.8612 1.61811L26.1553 0.735545Z" fill="url(#paint1_linear_1_20700)"/>
<path fill-rule="evenodd" clip-rule="evenodd" d="M30.8396 3.52993C30.8396 3.52993 31.1338 2.94141 31.2809 2.94141C31.428 2.94141 31.7222 2.94141 31.7222 2.94141C32.6048 3.97111 34.0759 5.44223 35.5469 7.20744C39.6657 11.6204 44.9612 17.3573 46.4322 20.7406C47.3148 22.6529 47.756 25.0064 47.756 27.5071C47.756 31.1846 46.7264 35.3034 45.1083 39.2752C43.3431 43.2469 40.8426 47.0715 37.9006 50.1606C33.6347 54.5736 28.6331 57.5156 24.3672 57.9569C21.4252 58.2511 18.9246 57.3684 17.1594 55.309C15.3942 53.3967 14.5117 50.4547 14.5117 46.7772C14.5117 44.2765 14.953 41.6287 15.8356 38.5396C17.3066 33.5382 22.602 21.6231 26.7208 12.3558C28.3389 8.8254 29.663 5.73635 30.5456 3.67695L30.8396 3.52993Z" fill="#9BC957"/>
<path fill-rule="evenodd" clip-rule="evenodd" d="M30.8396 3.52993C30.8396 3.52993 31.1338 2.94141 31.2809 2.94141C31.428 2.94141 31.7222 2.94141 31.7222 2.94141C32.6048 3.97111 34.0759 5.44223 35.5469 7.20744C39.6657 11.6204 44.9612 17.3573 46.4322 20.7406C47.3148 22.6529 47.756 25.0064 47.756 27.5071C47.756 31.1846 46.7264 35.3034 45.1083 39.2752C43.3431 43.2469 40.8426 47.0715 37.9006 50.1606C33.6347 54.5736 28.6331 57.5156 24.3672 57.9569C21.4252 58.2511 18.9246 57.3684 17.1594 55.309C15.3942 53.3967 14.5117 50.4547 14.5117 46.7772C14.5117 44.2765 14.953 41.6287 15.8356 38.5396C17.3066 33.5382 22.602 21.6231 26.7208 12.3558C28.3389 8.8254 29.663 5.73635 30.5456 3.67695L30.8396 3.52993Z" fill="url(#paint2_linear_1_20700)"/>
<path fill-rule="evenodd" clip-rule="evenodd" d="M31.4478 2.78869C32.1833 2.49449 32.0363 3.96535 32.0363 4.25955C32.0363 9.99646 32.0363 15.7334 32.0363 21.3232C32.0363 22.9413 31.8889 22.7942 33.0657 21.3232C33.6541 20.5877 40.4207 12.2031 40.4207 12.2031L41.1565 12.9386C41.1565 12.9386 38.5084 16.3219 37.1845 17.94C36.5961 18.5284 32.1831 24.1181 32.1831 24.2652C32.1831 24.4123 32.1831 33.8268 32.1831 34.7094C33.3599 33.2384 45.4222 18.0871 45.5693 18.2342L46.1578 19.1168C46.1578 19.1168 33.8015 34.5621 32.4776 36.1802C32.0363 36.7686 32.1831 36.6216 32.1831 37.3571C32.1831 40.152 32.1831 43.5354 32.1831 46.1832C32.1831 47.2129 32.1834 47.0658 32.9189 46.1832C35.7138 42.7999 38.6556 38.9752 41.4505 35.5919C42.9215 33.8267 48.2173 27.2073 48.0702 27.3544C48.0702 27.6486 48.0702 28.8253 48.0702 29.1195C46.4521 31.1789 32.4773 48.3897 32.1831 48.9781C32.1831 49.4194 32.1831 54.8622 32.1831 55.0093C32.1831 55.1564 31.3007 55.5976 31.0065 55.5976C31.0065 53.5382 31.0064 51.626 30.8593 49.7137C28.3586 49.1253 24.5342 48.978 21.8864 48.8309C21.298 48.8309 14.9727 48.3897 14.9727 48.0955C14.9727 47.8013 14.9727 46.6245 14.9727 46.4774C19.5328 46.9187 24.2397 47.36 28.9469 47.8013C29.6824 47.8013 30.271 47.8013 31.0065 47.8013C31.3007 45.4477 31.0065 42.2113 31.0065 39.8577C31.0065 38.9752 31.0065 38.2397 31.0065 37.3571C29.6826 37.21 17.032 36.1803 17.1791 36.0332C18.0617 34.1209 17.1791 34.4152 19.974 34.7094C23.6515 35.0036 27.4763 35.4448 31.1538 35.739C31.1538 32.9441 31.1538 29.708 31.1538 26.9131C31.1538 24.8537 31.4476 25.2949 29.3882 25.0007C26.8875 24.7065 24.5339 24.5595 22.0332 24.4124C22.0332 24.2653 22.6218 22.7943 22.7689 22.7943C23.2102 22.7943 29.6828 23.3828 31.1538 23.5299C31.3009 20.4408 31.1538 16.469 31.1538 13.3799C31.1538 12.2031 31.1538 4.25965 31.1538 3.67125C31.1538 3.37705 31.4476 3.08281 31.7418 2.93571L31.4478 2.78869Z" fill="#80A648"/>
<path fill-rule="evenodd" clip-rule="evenodd" d="M31.4478 2.78869C32.1833 2.49449 32.0363 3.96535 32.0363 4.25955C32.0363 9.99646 32.0363 15.7334 32.0363 21.3232C32.0363 22.9413 31.8889 22.7942 33.0657 21.3232C33.6541 20.5877 40.4207 12.2031 40.4207 12.2031L41.1565 12.9386C41.1565 12.9386 38.5084 16.3219 37.1845 17.94C36.5961 18.5284 32.1831 24.1181 32.1831 24.2652C32.1831 24.4123 32.1831 33.8268 32.1831 34.7094C33.3599 33.2384 45.4222 18.0871 45.5693 18.2342L46.1578 19.1168C46.1578 19.1168 33.8015 34.5621 32.4776 36.1802C32.0363 36.7686 32.1831 36.6216 32.1831 37.3571C32.1831 40.152 32.1831 43.5354 32.1831 46.1832C32.1831 47.2129 32.1834 47.0658 32.9189 46.1832C35.7138 42.7999 38.6556 38.9752 41.4505 35.5919C42.9215 33.8267 48.2173 27.2073 48.0702 27.3544C48.0702 27.6486 48.0702 28.8253 48.0702 29.1195C46.4521 31.1789 32.4773 48.3897 32.1831 48.9781C32.1831 49.4194 32.1831 54.8622 32.1831 55.0093C32.1831 55.1564 31.3007 55.5976 31.0065 55.5976C31.0065 53.5382 31.0064 51.626 30.8593 49.7137C28.3586 49.1253 24.5342 48.978 21.8864 48.8309C21.298 48.8309 14.9727 48.3897 14.9727 48.0955C14.9727 47.8013 14.9727 46.6245 14.9727 46.4774C19.5328 46.9187 24.2397 47.36 28.9469 47.8013C29.6824 47.8013 30.271 47.8013 31.0065 47.8013C31.3007 45.4477 31.0065 42.2113 31.0065 39.8577C31.0065 38.9752 31.0065 38.2397 31.0065 37.3571C29.6826 37.21 17.032 36.1803 17.1791 36.0332C18.0617 34.1209 17.1791 34.4152 19.974 34.7094C23.6515 35.0036 27.4763 35.4448 31.1538 35.739C31.1538 32.9441 31.1538 29.708 31.1538 26.9131C31.1538 24.8537 31.4476 25.2949 29.3882 25.0007C26.8875 24.7065 24.5339 24.5595 22.0332 24.4124C22.0332 24.2653 22.6218 22.7943 22.7689 22.7943C23.2102 22.7943 29.6828 23.3828 31.1538 23.5299C31.3009 20.4408 31.1538 16.469 31.1538 13.3799C31.1538 12.2031 31.1538 4.25965 31.1538 3.67125C31.1538 3.37705 31.4476 3.08281 31.7418 2.93571L31.4478 2.78869Z" fill="url(#paint3_linear_1_20700)"/>
<path fill-rule="evenodd" clip-rule="evenodd" d="M21.2954 25.334L20.5601 26.8049L19.8243 28.5702L19.089 30.3354L18.5005 31.9535L17.912 33.4246L17.3239 34.8954L16.8826 36.2193L16.4413 37.2491L16.1468 38.2789L15.7055 39.4555L15.5588 40.4853L15.2643 41.6621L15.117 42.2504L10.4102 39.4555L10.557 38.8672L10.7042 37.8374L10.9982 36.8078L11.2927 35.631L11.734 34.6014L12.028 33.4246L12.6166 32.1005L13.0579 30.7766L13.7932 29.1585L14.3817 27.5404L15.117 25.9223L15.8528 24.1572L16.5881 22.5391L21.2954 25.334Z" fill="#85AB4D"/>
<path fill-rule="evenodd" clip-rule="evenodd" d="M21.2954 25.334L20.5601 26.8049L19.8243 28.5702L19.089 30.3354L18.5005 31.9535L17.912 33.4246L17.3239 34.8954L16.8826 36.2193L16.4413 37.2491L16.1468 38.2789L15.7055 39.4555L15.5588 40.4853L15.2643 41.6621L15.117 42.2504L10.4102 39.4555L10.557 38.8672L10.7042 37.8374L10.9982 36.8078L11.2927 35.631L11.734 34.6014L12.028 33.4246L12.6166 32.1005L13.0579 30.7766L13.7932 29.1585L14.3817 27.5404L15.117 25.9223L15.8528 24.1572L16.5881 22.5391L21.2954 25.334Z" fill="url(#paint4_linear_1_20700)"/>
<defs>
<linearGradient id="paint0_linear_1_20700" x1="30.0111" y1="58.5739" x2="32.7979" y2="58.5838" gradientUnits="userSpaceOnUse">
<stop stop-color="#9CB2DF"/>
<stop offset="0.09" stop-color="#A9BDE4"/>
<stop offset="0.31" stop-color="#C3D3F0"/>
<stop offset="0.53" stop-color="#D6E3F8"/>
<stop offset="0.76" stop-color="#E2ECFD"/>
<stop offset="1" stop-color="#E6F0FF"/>
</linearGradient>
<linearGradient id="paint1_linear_1_20700" x1="9.9683" y1="28.4638" x2="31.7306" y2="28.4638" gradientUnits="userSpaceOnUse">
<stop stop-color="#4AFFC7"/>
<stop offset="1" stop-color="#3BADEA"/>
</linearGradient>
<linearGradient id="paint2_linear_1_20700" x1="22.2892" y1="30.0087" x2="48.0542" y2="30.1624" gradientUnits="userSpaceOnUse">
<stop stop-color="#E6F0FF"/>
<stop offset="0.24" stop-color="#E2ECFD"/>
<stop offset="0.47" stop-color="#D6E3F8"/>
<stop offset="0.69" stop-color="#C3D3F0"/>
<stop offset="0.91" stop-color="#A9BDE4"/>
<stop offset="1" stop-color="#9CB2DF"/>
</linearGradient>
<linearGradient id="paint3_linear_1_20700" x1="14.9631" y1="29.1738" x2="48.0511" y2="29.1738" gradientUnits="userSpaceOnUse">
<stop stop-color="#4AFFC7"/>
<stop offset="1" stop-color="#3BADEA"/>
</linearGradient>
<linearGradient id="paint4_linear_1_20700" x1="10.407" y1="32.3947" x2="21.2882" y2="32.3947" gradientUnits="userSpaceOnUse">
<stop stop-color="#4AFFC7"/>
<stop offset="1" stop-color="#3BADEA"/>
</linearGradient>
</defs>
</svg>
