<svg width="59" height="86" viewBox="0 0 59 86" fill="none" xmlns="http://www.w3.org/2000/svg">
<path opacity="0.5" fill-rule="evenodd" clip-rule="evenodd" d="M49.5361 57.0818C60.8628 63.5542 60.8628 74.2925 49.5361 80.7649C38.2094 87.2373 19.8217 87.2373 8.49503 80.7649C-2.83168 74.1454 -2.83168 63.5542 8.49503 57.0818C19.8217 50.4623 38.2094 50.4623 49.5361 57.0818Z" fill="#E9E9EB"/>
<path opacity="0.5" fill-rule="evenodd" clip-rule="evenodd" d="M45.2637 59.6075C54.2368 64.756 54.2368 73.1407 45.2637 78.2892C36.2906 83.4378 21.8748 83.4378 12.9017 78.2892C3.9286 73.1407 3.9286 64.756 12.9017 59.6075C21.8748 54.459 36.2906 54.459 45.2637 59.6075Z" fill="#DDDEE1"/>
<path opacity="0.5" fill-rule="evenodd" clip-rule="evenodd" d="M40.8626 62.0677C47.4821 65.8923 47.4821 71.9233 40.8626 75.7479C34.2431 79.5725 23.6519 79.5725 17.1795 75.7479C10.56 71.9233 10.56 65.8923 17.1795 62.0677C23.799 58.2431 34.3902 58.2431 40.8626 62.0677Z" fill="#D1D2D6"/>
<path fill-rule="evenodd" clip-rule="evenodd" d="M45.5856 7.65225V7.50501L46.7624 5.8869C45.7327 5.2985 40.2899 2.20949 39.2602 1.62109C39.1131 1.91529 38.819 2.20954 38.6719 2.35664L44.703 7.50501C44.703 7.50501 44.703 7.50501 44.8501 7.50501L45.5856 7.65225Z" fill="#5D7834"/>
<path fill-rule="evenodd" clip-rule="evenodd" d="M45.5856 7.65225V7.50501L46.7624 5.8869C45.7327 5.2985 40.2899 2.20949 39.2602 1.62109C39.1131 1.91529 38.819 2.20954 38.6719 2.35664L44.703 7.50501C44.703 7.50501 44.703 7.50501 44.8501 7.50501L45.5856 7.65225Z" fill="url(#paint0_linear_1_20677)"/>
<path fill-rule="evenodd" clip-rule="evenodd" d="M34.2351 0.294263L28.7924 3.38324L26.1445 10.1499L29.0865 14.2687L29.2337 14.4157V14.563L29.0865 14.71V14.857V15.0043H28.9395V15.1513L27.9099 16.3281L35.4119 20.7412L36.4415 19.5643V19.4173L36.5887 19.2701V19.1231V18.9758L36.7358 18.8288V18.6818H36.5887V18.5345L33.6468 14.4157L36.2945 7.79629L42.4727 4.85433H42.6199H42.7669L42.9139 4.70731H43.0612L43.2082 4.41305L35.7062 0.147019H35.5589V0H35.4119H35.2649H35.1176H34.9706H34.8236L34.6764 0.147019H34.5293L34.3821 0.294263H34.2351Z" fill="#4F662D"/>
<path fill-rule="evenodd" clip-rule="evenodd" d="M34.2351 0.294263L28.7924 3.38324L26.1445 10.1499L29.0865 14.2687L29.2337 14.4157V14.563L29.0865 14.71V14.857V15.0043H28.9395V15.1513L27.9099 16.3281L35.4119 20.7412L36.4415 19.5643V19.4173L36.5887 19.2701V19.1231V18.9758L36.7358 18.8288V18.6818H36.5887V18.5345L33.6468 14.4157L36.2945 7.79629L42.4727 4.85433H42.6199H42.7669L42.9139 4.70731H43.0612L43.2082 4.41305L35.7062 0.147019H35.5589V0H35.4119H35.2649H35.1176H34.9706H34.8236L34.6764 0.147019H34.5293L34.3821 0.294263H34.2351Z" fill="url(#paint1_linear_1_20677)"/>
<path fill-rule="evenodd" clip-rule="evenodd" d="M43.8088 34.8465L51.311 39.1126C48.9574 35.7293 46.4567 32.1989 44.1031 28.8156V28.6684V28.5213V28.3741V28.2271V27.9328V27.6388V27.3445V27.0502V26.7562V26.4619V26.1677V25.8734V25.5794V25.2851V24.9909L48.0748 19.9895V19.6952L48.5161 19.5482H48.6631L48.8104 19.254H48.9574L49.1044 18.9597H49.2516L49.3987 18.8127H49.5459H49.6929H49.8399H49.9872H50.1342L42.6322 14.5469H42.4849H42.3379H42.1909H42.0437H41.8966H41.7494H41.6024L41.4554 14.6939H41.3081L41.1611 14.9882H41.0141L40.8668 15.4294V15.7237L36.748 20.5778V20.8721V21.1663V21.4606V21.7546V22.0489V22.3432V22.6372V22.9315V23.2257V23.52V23.814V23.9613V24.1083V24.2553V24.4026L41.3081 31.022C42.1907 32.0517 43.0734 33.5227 43.956 34.6995L43.8088 34.8465Z" fill="#5D7834"/>
<path fill-rule="evenodd" clip-rule="evenodd" d="M43.8088 34.8465L51.311 39.1126C48.9574 35.7293 46.4567 32.1989 44.1031 28.8156V28.6684V28.5213V28.3741V28.2271V27.9328V27.6388V27.3445V27.0502V26.7562V26.4619V26.1677V25.8734V25.5794V25.2851V24.9909L48.0748 19.9895V19.6952L48.5161 19.5482H48.6631L48.8104 19.254H48.9574L49.1044 18.9597H49.2516L49.3987 18.8127H49.5459H49.6929H49.8399H49.9872H50.1342L42.6322 14.5469H42.4849H42.3379H42.1909H42.0437H41.8966H41.7494H41.6024L41.4554 14.6939H41.3081L41.1611 14.9882H41.0141L40.8668 15.4294V15.7237L36.748 20.5778V20.8721V21.1663V21.4606V21.7546V22.0489V22.3432V22.6372V22.9315V23.2257V23.52V23.814V23.9613V24.1083V24.2553V24.4026L41.3081 31.022C42.1907 32.0517 43.0734 33.5227 43.956 34.6995L43.8088 34.8465Z" fill="url(#paint2_linear_1_20677)"/>
<path fill-rule="evenodd" clip-rule="evenodd" d="M12.1758 24.2673L12.3228 24.4146V24.5616L12.47 24.7086L12.6171 24.8559L12.7643 25.0029L20.2663 29.2689H20.1193L19.9721 29.1217L19.825 28.9747V28.6804L19.6778 28.5334V28.3861V28.0921V27.7978V27.6508V27.3565L19.825 27.0623V26.7682L19.9721 26.474L23.9438 16.177L24.0909 15.8828V15.7357L24.2381 15.5885L24.3851 15.2942V15.1472L24.5321 15.0002L24.6794 14.8529L24.8264 14.7059V14.5589L24.9734 14.4117L25.1207 14.2646L25.2677 14.1176H25.4147L25.5619 13.9704L25.709 13.8234L25.8562 13.6761L34.8293 8.52775L27.3271 4.26172L18.354 9.41031L18.2069 9.55733H18.0597L17.9127 9.70458L17.7657 9.85159L17.6184 9.99861L17.4714 10.1459L17.3244 10.2929V10.4401L17.1771 10.5871L17.0301 10.7342L16.8831 10.8814V11.0284L16.7358 11.1754L16.5888 11.4697V11.6167L16.4418 11.764L12.47 22.208L12.3228 22.5022V22.7965L12.1758 23.0907V23.2378V23.532V23.8261V23.9733V24.2673Z" fill="#5D7834"/>
<path fill-rule="evenodd" clip-rule="evenodd" d="M12.1758 24.2673L12.3228 24.4146V24.5616L12.47 24.7086L12.6171 24.8559L12.7643 25.0029L20.2663 29.2689H20.1193L19.9721 29.1217L19.825 28.9747V28.6804L19.6778 28.5334V28.3861V28.0921V27.7978V27.6508V27.3565L19.825 27.0623V26.7682L19.9721 26.474L23.9438 16.177L24.0909 15.8828V15.7357L24.2381 15.5885L24.3851 15.2942V15.1472L24.5321 15.0002L24.6794 14.8529L24.8264 14.7059V14.5589L24.9734 14.4117L25.1207 14.2646L25.2677 14.1176H25.4147L25.5619 13.9704L25.709 13.8234L25.8562 13.6761L34.8293 8.52775L27.3271 4.26172L18.354 9.41031L18.2069 9.55733H18.0597L17.9127 9.70458L17.7657 9.85159L17.6184 9.99861L17.4714 10.1459L17.3244 10.2929V10.4401L17.1771 10.5871L17.0301 10.7342L16.8831 10.8814V11.0284L16.7358 11.1754L16.5888 11.4697V11.6167L16.4418 11.764L12.47 22.208L12.3228 22.5022V22.7965L12.1758 23.0907V23.2378V23.532V23.8261V23.9733V24.2673Z" fill="url(#paint3_linear_1_20677)"/>
<path fill-rule="evenodd" clip-rule="evenodd" d="M13.6726 48.6827L5.58203 53.39L14.2609 62.2159L14.4079 62.3631V62.5102H14.5551L14.7022 62.6572L17.9384 64.4225H17.7914L17.6441 64.2753L17.4971 64.1283L16.4675 62.5102L19.4095 64.2753L16.4675 62.5102L13.0841 57.6558L21.1746 52.9487L27.5 49.2712H27.647L27.7941 49.124H27.9413H28.0883L28.2353 48.977H28.3826H28.5296H28.6766L28.8239 49.124H28.9709L21.6159 44.8582H21.4689L21.3216 44.7109H21.1746H21.0276H20.8803H20.7333H20.5863L20.4391 44.8582H20.292H20.145V45.0052H19.9978L13.6726 48.6827Z" fill="#70913F"/>
<path fill-rule="evenodd" clip-rule="evenodd" d="M13.6726 48.6827L5.58203 53.39L14.2609 62.2159L14.4079 62.3631V62.5102H14.5551L14.7022 62.6572L17.9384 64.4225H17.7914L17.6441 64.2753L17.4971 64.1283L16.4675 62.5102L19.4095 64.2753L16.4675 62.5102L13.0841 57.6558L21.1746 52.9487L27.5 49.2712H27.647L27.7941 49.124H27.9413H28.0883L28.2353 48.977H28.3826H28.5296H28.6766L28.8239 49.124H28.9709L21.6159 44.8582H21.4689L21.3216 44.7109H21.1746H21.0276H20.8803H20.7333H20.5863L20.4391 44.8582H20.292H20.145V45.0052H19.9978L13.6726 48.6827Z" fill="url(#paint4_linear_1_20677)"/>
<path fill-rule="evenodd" clip-rule="evenodd" d="M29.9914 21.0439L32.3448 14.8657L34.6985 8.6875L25.7254 13.8361C25.7254 13.8361 24.9899 14.4244 24.5486 14.8657C24.2544 15.307 23.9603 15.7484 23.8132 16.3368L19.8415 26.781C19.5473 27.5165 19.5471 28.252 19.6942 28.8404C19.6942 29.4288 20.1356 29.7229 20.724 29.7229L24.6958 30.017C24.6958 30.017 25.284 30.017 25.4311 30.017C25.7253 30.017 26.0197 29.7229 26.3139 29.4287C26.6081 29.1345 26.9021 28.8403 27.0492 28.5461C27.3434 28.2519 27.4907 27.8105 27.6378 27.5163L29.9914 21.3381V21.0439Z" fill="#9BC957"/>
<path fill-rule="evenodd" clip-rule="evenodd" d="M29.9914 21.0439L32.3448 14.8657L34.6985 8.6875L25.7254 13.8361C25.7254 13.8361 24.9899 14.4244 24.5486 14.8657C24.2544 15.307 23.9603 15.7484 23.8132 16.3368L19.8415 26.781C19.5473 27.5165 19.5471 28.252 19.6942 28.8404C19.6942 29.4288 20.1356 29.7229 20.724 29.7229L24.6958 30.017C24.6958 30.017 25.284 30.017 25.4311 30.017C25.7253 30.017 26.0197 29.7229 26.3139 29.4287C26.6081 29.1345 26.9021 28.8403 27.0492 28.5461C27.3434 28.2519 27.4907 27.8105 27.6378 27.5163L29.9914 21.3381V21.0439Z" fill="url(#paint5_linear_1_20677)"/>
<path fill-rule="evenodd" clip-rule="evenodd" d="M48.9623 35.733L51.3159 39.1165L55.876 27.4954C55.876 27.4954 56.1703 26.4659 56.1703 26.0246C56.1703 25.5833 56.1702 25.289 55.876 24.9948L51.9042 19.2579C51.9042 19.2579 51.1688 18.6695 50.5804 18.8166C49.992 18.8166 49.4036 19.405 48.9623 19.9934L44.9905 24.8477C44.9905 24.8477 44.5493 25.5831 44.4022 25.8773C44.4022 25.8773 44.108 26.6128 43.9609 27.0541C43.9609 27.4954 43.9609 27.7898 43.9609 28.084C43.9609 28.3782 43.961 28.6724 44.2552 28.8195L49.1093 35.733H48.9623Z" fill="#9BC957"/>
<path fill-rule="evenodd" clip-rule="evenodd" d="M48.9623 35.733L51.3159 39.1165L55.876 27.4954C55.876 27.4954 56.1703 26.4659 56.1703 26.0246C56.1703 25.5833 56.1702 25.289 55.876 24.9948L51.9042 19.2579C51.9042 19.2579 51.1688 18.6695 50.5804 18.8166C49.992 18.8166 49.4036 19.405 48.9623 19.9934L44.9905 24.8477C44.9905 24.8477 44.5493 25.5831 44.4022 25.8773C44.4022 25.8773 44.108 26.6128 43.9609 27.0541C43.9609 27.4954 43.9609 27.7898 43.9609 28.084C43.9609 28.3782 43.961 28.6724 44.2552 28.8195L49.1093 35.733H48.9623Z" fill="url(#paint6_linear_1_20677)"/>
<path fill-rule="evenodd" clip-rule="evenodd" d="M21.1628 52.9395L13.0723 57.6466L17.6323 64.119C17.6323 64.119 18.0737 64.5603 18.3679 64.5603C18.6621 64.5603 19.1035 64.5602 19.3977 64.266L27.4882 59.5589C27.4882 59.5589 28.6648 58.6763 29.1061 57.9408C29.5474 57.2053 29.6946 56.4697 29.6946 55.7342V50.4386C29.6946 50.4386 29.6947 49.8502 29.5476 49.556C29.5476 49.2618 29.2532 49.1148 29.1061 48.9677C28.959 48.9677 28.665 48.8206 28.3708 48.9677C28.3708 48.9677 27.7824 48.9678 27.4882 49.262L21.1628 52.9395Z" fill="#9BC957"/>
<path fill-rule="evenodd" clip-rule="evenodd" d="M21.1628 52.9395L13.0723 57.6466L17.6323 64.119C17.6323 64.119 18.0737 64.5603 18.3679 64.5603C18.6621 64.5603 19.1035 64.5602 19.3977 64.266L27.4882 59.5589C27.4882 59.5589 28.6648 58.6763 29.1061 57.9408C29.5474 57.2053 29.6946 56.4697 29.6946 55.7342V50.4386C29.6946 50.4386 29.6947 49.8502 29.5476 49.556C29.5476 49.2618 29.2532 49.1148 29.1061 48.9677C28.959 48.9677 28.665 48.8206 28.3708 48.9677C28.3708 48.9677 27.7824 48.9678 27.4882 49.262L21.1628 52.9395Z" fill="url(#paint7_linear_1_20677)"/>
<path fill-rule="evenodd" clip-rule="evenodd" d="M12.4818 56.8008L17.6301 53.8589L20.5723 46.5038C20.5723 46.5038 21.0135 45.7683 21.3077 45.7683H22.1904L20.2781 34.8828L10.2751 44.8857H11.452C11.452 44.8857 11.7463 45.327 11.5992 45.7683L9.68684 50.6226C9.68684 50.6226 9.39258 51.6522 9.39258 52.0935C9.39258 52.0935 9.39264 52.8291 9.68684 53.1233L12.3345 56.9478L12.4818 56.8008Z" fill="#9BC957"/>
<path fill-rule="evenodd" clip-rule="evenodd" d="M12.4818 56.8008L17.6301 53.8589L20.5723 46.5038C20.5723 46.5038 21.0135 45.7683 21.3077 45.7683H22.1904L20.2781 34.8828L10.2751 44.8857H11.452C11.452 44.8857 11.7463 45.327 11.5992 45.7683L9.68684 50.6226C9.68684 50.6226 9.39258 51.6522 9.39258 52.0935C9.39258 52.0935 9.39264 52.8291 9.68684 53.1233L12.3345 56.9478L12.4818 56.8008Z" fill="url(#paint8_linear_1_20677)"/>
<path fill-rule="evenodd" clip-rule="evenodd" d="M17.6094 9.99861L25.1116 14.2646L25.2586 14.1176H25.4057L25.5529 13.9704L25.6999 13.8234L25.8472 13.6761L34.8203 8.52775L27.318 4.26172L18.3449 9.41031L18.1979 9.55733H18.0507L17.9036 9.70458L17.7566 9.85159L17.6094 9.99861Z" fill="#70913F"/>
<path fill-rule="evenodd" clip-rule="evenodd" d="M17.6094 9.99861L25.1116 14.2646L25.2586 14.1176H25.4057L25.5529 13.9704L25.6999 13.8234L25.8472 13.6761L34.8203 8.52775L27.318 4.26172L18.3449 9.41031L18.1979 9.55733H18.0507L17.9036 9.70458L17.7566 9.85159L17.6094 9.99861Z" fill="url(#paint9_linear_1_20677)"/>
<path fill-rule="evenodd" clip-rule="evenodd" d="M28.8184 3.38324L36.3204 7.79629L42.4986 4.85433H42.6458H42.7928L42.9398 4.70731H43.0871L43.2341 4.41305L35.7321 0.147019H35.5848V0H35.4378H35.2908H35.1436H34.9965H34.8495L34.7023 0.147019H34.5553L34.408 0.294263H34.261L28.8184 3.38324Z" fill="#70913F"/>
<path fill-rule="evenodd" clip-rule="evenodd" d="M28.8184 3.38324L36.3204 7.79629L42.4986 4.85433H42.6458H42.7928L42.9398 4.70731H43.0871L43.2341 4.41305L35.7321 0.147019H35.5848V0H35.4378H35.2908H35.1436H34.9965H34.8495L34.7023 0.147019H34.5553L34.408 0.294263H34.261L28.8184 3.38324Z" fill="url(#paint10_linear_1_20677)"/>
<path fill-rule="evenodd" clip-rule="evenodd" d="M36.2825 7.81293L33.6348 14.4324L36.5767 18.5512C36.5767 18.5512 36.5766 19.1397 36.4295 19.581L35.5469 20.7578L45.5498 19.1397L47.462 5.90055L46.2854 7.37164C46.2854 7.37164 45.6969 7.81286 45.5498 7.51866L43.6375 4.87097C43.6375 4.87097 43.1961 4.42969 42.9019 4.42969C42.9019 4.42969 42.1665 4.42975 41.8723 4.72395L36.4295 7.81293H36.2825Z" fill="#9BC957"/>
<path fill-rule="evenodd" clip-rule="evenodd" d="M36.2825 7.81293L33.6348 14.4324L36.5767 18.5512C36.5767 18.5512 36.5766 19.1397 36.4295 19.581L35.5469 20.7578L45.5498 19.1397L47.462 5.90055L46.2854 7.37164C46.2854 7.37164 45.6969 7.81286 45.5498 7.51866L43.6375 4.87097C43.6375 4.87097 43.1961 4.42969 42.9019 4.42969C42.9019 4.42969 42.1665 4.42975 41.8723 4.72395L36.4295 7.81293H36.2825Z" fill="url(#paint11_linear_1_20677)"/>
<path fill-rule="evenodd" clip-rule="evenodd" d="M5.58203 53.4023L14.2609 62.2282L14.4079 62.3755V62.5225H14.5551L14.7022 62.6695L17.9384 64.4349H17.7914L17.6441 64.2876L17.4971 64.1406L16.4675 62.5225L19.4095 64.2876L16.4675 62.5225L13.0841 57.6681L5.58203 53.4023Z" fill="#4F662D"/>
<path fill-rule="evenodd" clip-rule="evenodd" d="M5.58203 53.4023L14.2609 62.2282L14.4079 62.3755V62.5225H14.5551L14.7022 62.6695L17.9384 64.4349H17.7914L17.6441 64.2876L17.4971 64.1406L16.4675 62.5225L19.4095 64.2876L16.4675 62.5225L13.0841 57.6681L5.58203 53.4023Z" fill="url(#paint12_linear_1_20677)"/>
<path fill-rule="evenodd" clip-rule="evenodd" d="M11.4501 44.8806L10.5675 44.4393L20.2762 34.7306L12.7742 30.4648L2.77124 40.4675L4.09508 41.2031L2.18293 46.2044V46.3515L2.03569 46.4987V46.7927V46.94V47.087L1.88867 47.2342V47.3813V47.6755V47.8225V47.9696L2.03569 48.1168V48.2638V48.4109L2.18293 48.5581V48.7051L4.97765 52.5299L12.4799 56.7957L9.68496 52.9711L9.53794 52.8239V52.6769V52.5299L9.3907 52.3826V52.2356V52.0884V51.9413V51.7943V51.6471V51.5001L9.53794 51.2058V51.0588V50.9117L9.68496 50.7645V50.4702L11.5973 45.6161V45.4689L11.7444 45.3219V45.1749V45.0276H11.5973V44.8806H11.4501Z" fill="#5D7834"/>
<path fill-rule="evenodd" clip-rule="evenodd" d="M11.4501 44.8806L10.5675 44.4393L20.2762 34.7306L12.7742 30.4648L2.77124 40.4675L4.09508 41.2031L2.18293 46.2044V46.3515L2.03569 46.4987V46.7927V46.94V47.087L1.88867 47.2342V47.3813V47.6755V47.8225V47.9696L2.03569 48.1168V48.2638V48.4109L2.18293 48.5581V48.7051L4.97765 52.5299L12.4799 56.7957L9.68496 52.9711L9.53794 52.8239V52.6769V52.5299L9.3907 52.3826V52.2356V52.0884V51.9413V51.7943V51.6471V51.5001L9.53794 51.2058V51.0588V50.9117L9.68496 50.7645V50.4702L11.5973 45.6161V45.4689L11.7444 45.3219V45.1749V45.0276H11.5973V44.8806H11.4501Z" fill="url(#paint13_linear_1_20677)"/>
<path fill-rule="evenodd" clip-rule="evenodd" d="M1.88867 47.9453L2.03569 48.0926V48.2396V48.3866L2.18293 48.5338V48.6809L4.97765 52.5056L12.4799 56.7714L9.68496 52.9469L9.53794 52.7996V52.6526V52.5056L9.3907 52.3584L1.88867 47.9453Z" fill="#4F662D"/>
<path fill-rule="evenodd" clip-rule="evenodd" d="M1.88867 47.9453L2.03569 48.0926V48.2396V48.3866L2.18293 48.5338V48.6809L4.97765 52.5056L12.4799 56.7714L9.68496 52.9469L9.53794 52.7996V52.6526V52.5056L9.3907 52.3584L1.88867 47.9453Z" fill="url(#paint14_linear_1_20677)"/>
<path fill-rule="evenodd" clip-rule="evenodd" d="M43.8093 34.867L51.3116 39.1331C48.958 35.7498 46.4572 32.2194 44.1036 28.8361V28.6888V28.5418V28.3946V28.2476L36.6016 23.6875V23.8345V23.9818V24.1288V24.2758V24.423L41.1616 31.0425C42.0442 32.0722 42.9267 33.5432 43.8093 34.72V34.867Z" fill="#4F662D"/>
<path fill-rule="evenodd" clip-rule="evenodd" d="M43.8093 34.867L51.3116 39.1331C48.958 35.7498 46.4572 32.2194 44.1036 28.8361V28.6888V28.5418V28.3946V28.2476L36.6016 23.6875V23.8345V23.9818V24.1288V24.2758V24.423L41.1616 31.0425C42.0442 32.0722 42.9267 33.5432 43.8093 34.72V34.867Z" fill="url(#paint15_linear_1_20677)"/>
<path fill-rule="evenodd" clip-rule="evenodd" d="M43.8093 34.867L51.3116 39.1331C48.958 35.7498 46.4572 32.2194 44.1036 28.8361V28.6888V28.5418V28.3946V28.2476L36.6016 23.6875V23.8345V23.9818V24.1288V24.2758V24.423L41.1616 31.0425C42.0442 32.0722 42.9267 33.5432 43.8093 34.72V34.867Z" fill="url(#paint16_linear_1_20677)"/>
<path fill-rule="evenodd" clip-rule="evenodd" d="M41.3184 41.0408L48.2322 36.9221L40.7301 32.6562L38.6707 33.8331L33.8164 36.628L41.3184 41.0408Z" fill="#70913F"/>
<path fill-rule="evenodd" clip-rule="evenodd" d="M41.3184 41.0408L48.2322 36.9221L40.7301 32.6562L38.6707 33.8331L33.8164 36.628L41.3184 41.0408Z" fill="url(#paint17_linear_1_20677)"/>
<path fill-rule="evenodd" clip-rule="evenodd" d="M35.9995 35.3201L35.1169 34.8788L34.3813 34.4375L26.291 47.0881L33.793 51.3541L41.148 39.8804L41.8836 38.8505L35.9995 35.3201Z" fill="#5D7834"/>
<path fill-rule="evenodd" clip-rule="evenodd" d="M35.9995 35.3201L35.1169 34.8788L34.3813 34.4375L26.291 47.0881L33.793 51.3541L41.148 39.8804L41.8836 38.8505L35.9995 35.3201Z" fill="url(#paint18_linear_1_20677)"/>
<path fill-rule="evenodd" clip-rule="evenodd" d="M50.8801 40.572L48.2322 36.8945L42.4953 40.278C42.4953 40.278 41.907 40.2779 41.907 39.9837V38.8069L33.8164 51.4575L41.907 54.6937V53.0756C41.907 53.0756 42.2011 52.3402 42.4953 52.1931L46.32 49.9864C46.32 49.9864 47.0554 49.3981 47.3496 48.9568C47.6438 48.5155 47.938 48.0743 48.0851 47.633L50.7328 40.7193L50.8801 40.572Z" fill="#9BC957"/>
<path fill-rule="evenodd" clip-rule="evenodd" d="M50.8801 40.572L48.2322 36.8945L42.4953 40.278C42.4953 40.278 41.907 40.2779 41.907 39.9837V38.8069L33.8164 51.4575L41.907 54.6937V53.0756C41.907 53.0756 42.2011 52.3402 42.4953 52.1931L46.32 49.9864C46.32 49.9864 47.0554 49.3981 47.3496 48.9568C47.6438 48.5155 47.938 48.0743 48.0851 47.633L50.7328 40.7193L50.8801 40.572Z" fill="url(#paint19_linear_1_20677)"/>
<defs>
<linearGradient id="paint0_linear_1_20677" x1="38.6695" y1="4.63667" x2="46.757" y2="4.63667" gradientUnits="userSpaceOnUse">
<stop stop-color="#4AFFC7"/>
<stop offset="1" stop-color="#3BADEA"/>
</linearGradient>
<linearGradient id="paint1_linear_1_20677" x1="26.1396" y1="10.3706" x2="43.1968" y2="10.3706" gradientUnits="userSpaceOnUse">
<stop stop-color="#4AFFC7"/>
<stop offset="1" stop-color="#3BADEA"/>
</linearGradient>
<linearGradient id="paint2_linear_1_20677" x1="36.7438" y1="26.8297" x2="51.3013" y2="26.8297" gradientUnits="userSpaceOnUse">
<stop stop-color="#4AFFC7"/>
<stop offset="1" stop-color="#3BADEA"/>
</linearGradient>
<linearGradient id="paint3_linear_1_20677" x1="12.1692" y1="16.7653" x2="34.8142" y2="16.7653" gradientUnits="userSpaceOnUse">
<stop stop-color="#4AFFC7"/>
<stop offset="1" stop-color="#3BADEA"/>
</linearGradient>
<linearGradient id="paint4_linear_1_20677" x1="5.57526" y1="54.5667" x2="28.9553" y2="54.5667" gradientUnits="userSpaceOnUse">
<stop stop-color="#4AFFC7"/>
<stop offset="1" stop-color="#3BADEA"/>
</linearGradient>
<linearGradient id="paint5_linear_1_20677" x1="23.1305" y1="19.1709" x2="34.8338" y2="19.2529" gradientUnits="userSpaceOnUse">
<stop stop-color="#E6F0FF"/>
<stop offset="0.24" stop-color="#E2ECFD"/>
<stop offset="0.47" stop-color="#D6E3F8"/>
<stop offset="0.69" stop-color="#C3D3F0"/>
<stop offset="0.91" stop-color="#A9BDE4"/>
<stop offset="1" stop-color="#9CB2DF"/>
</linearGradient>
<linearGradient id="paint6_linear_1_20677" x1="46.8173" y1="28.782" x2="56.2798" y2="28.8382" gradientUnits="userSpaceOnUse">
<stop stop-color="#E6F0FF"/>
<stop offset="0.24" stop-color="#E2ECFD"/>
<stop offset="0.47" stop-color="#D6E3F8"/>
<stop offset="0.69" stop-color="#C3D3F0"/>
<stop offset="0.91" stop-color="#A9BDE4"/>
<stop offset="1" stop-color="#9CB2DF"/>
</linearGradient>
<linearGradient id="paint7_linear_1_20677" x1="16.961" y1="56.5982" x2="29.8428" y2="56.7334" gradientUnits="userSpaceOnUse">
<stop stop-color="#E6F0FF"/>
<stop offset="0.24" stop-color="#E2ECFD"/>
<stop offset="0.47" stop-color="#D6E3F8"/>
<stop offset="0.69" stop-color="#C3D3F0"/>
<stop offset="0.91" stop-color="#A9BDE4"/>
<stop offset="1" stop-color="#9CB2DF"/>
</linearGradient>
<linearGradient id="paint8_linear_1_20677" x1="12.3866" y1="45.7278" x2="22.3052" y2="45.7847" gradientUnits="userSpaceOnUse">
<stop stop-color="#E6F0FF"/>
<stop offset="0.24" stop-color="#E2ECFD"/>
<stop offset="0.47" stop-color="#D6E3F8"/>
<stop offset="0.69" stop-color="#C3D3F0"/>
<stop offset="0.91" stop-color="#A9BDE4"/>
<stop offset="1" stop-color="#9CB2DF"/>
</linearGradient>
<linearGradient id="paint9_linear_1_20677" x1="17.6044" y1="9.26318" x2="34.8088" y2="9.26318" gradientUnits="userSpaceOnUse">
<stop stop-color="#4AFFC7"/>
<stop offset="1" stop-color="#3BADEA"/>
</linearGradient>
<linearGradient id="paint10_linear_1_20677" x1="28.8142" y1="3.89814" x2="43.2245" y2="3.89814" gradientUnits="userSpaceOnUse">
<stop stop-color="#4AFFC7"/>
<stop offset="1" stop-color="#3BADEA"/>
</linearGradient>
<linearGradient id="paint11_linear_1_20677" x1="36.8696" y1="12.455" x2="47.5856" y2="12.5447" gradientUnits="userSpaceOnUse">
<stop stop-color="#E6F0FF"/>
<stop offset="0.24" stop-color="#E2ECFD"/>
<stop offset="0.47" stop-color="#D6E3F8"/>
<stop offset="0.69" stop-color="#C3D3F0"/>
<stop offset="0.91" stop-color="#A9BDE4"/>
<stop offset="1" stop-color="#9CB2DF"/>
</linearGradient>
<linearGradient id="paint12_linear_1_20677" x1="5.57803" y1="58.9186" x2="19.4003" y2="58.9186" gradientUnits="userSpaceOnUse">
<stop stop-color="#4AFFC7"/>
<stop offset="1" stop-color="#3BADEA"/>
</linearGradient>
<linearGradient id="paint13_linear_1_20677" x1="1.88335" y1="43.6303" x2="20.2639" y2="43.6303" gradientUnits="userSpaceOnUse">
<stop stop-color="#4AFFC7"/>
<stop offset="1" stop-color="#3BADEA"/>
</linearGradient>
<linearGradient id="paint14_linear_1_20677" x1="1.8856" y1="52.3584" x2="12.4728" y2="52.3584" gradientUnits="userSpaceOnUse">
<stop stop-color="#4AFFC7"/>
<stop offset="1" stop-color="#3BADEA"/>
</linearGradient>
<linearGradient id="paint15_linear_1_20677" x1="36.5973" y1="31.4103" x2="51.3018" y2="31.4103" gradientUnits="userSpaceOnUse">
<stop stop-color="#4AFFC7"/>
<stop offset="1" stop-color="#3BADEA"/>
</linearGradient>
<linearGradient id="paint16_linear_1_20677" x1="36.5973" y1="31.4103" x2="51.3018" y2="31.4103" gradientUnits="userSpaceOnUse">
<stop stop-color="#4AFFC7"/>
<stop offset="1" stop-color="#3BADEA"/>
</linearGradient>
<linearGradient id="paint17_linear_1_20677" x1="33.8122" y1="36.8485" x2="48.2225" y2="36.8485" gradientUnits="userSpaceOnUse">
<stop stop-color="#4AFFC7"/>
<stop offset="1" stop-color="#3BADEA"/>
</linearGradient>
<linearGradient id="paint18_linear_1_20677" x1="26.2865" y1="42.8958" x2="41.8732" y2="42.8958" gradientUnits="userSpaceOnUse">
<stop stop-color="#4AFFC7"/>
<stop offset="1" stop-color="#3BADEA"/>
</linearGradient>
<linearGradient id="paint19_linear_1_20677" x1="37.8084" y1="45.6429" x2="51.0324" y2="45.7682" gradientUnits="userSpaceOnUse">
<stop stop-color="#E6F0FF"/>
<stop offset="0.24" stop-color="#E2ECFD"/>
<stop offset="0.47" stop-color="#D6E3F8"/>
<stop offset="0.69" stop-color="#C3D3F0"/>
<stop offset="0.91" stop-color="#A9BDE4"/>
<stop offset="1" stop-color="#9CB2DF"/>
</linearGradient>
</defs>
</svg>
