<svg xmlns="http://www.w3.org/2000/svg" fill="none" viewBox="5.2388059701492535 5.3298 38.28358208955224 33.711999999999996" style="max-height: 500px" width="38.28358208955224" height="33.711999999999996">
<g>
<path fill="url(#paint0_linear_75_2475)" d="M43.2715 34.9014C43.2705 35.9768 42.8434 37.0081 42.083 37.7686C41.3224 38.5292 40.2905 38.9572 39.2148 38.958H9.46582C8.39027 38.9571 7.3592 38.529 6.59863 37.7686C5.83812 37.008 5.41013 35.9769 5.40918 34.9014V17.2881H43.2715V34.9014ZM13.5225 32.1826C12.9885 32.1887 12.478 32.4055 12.1025 32.7852C11.7273 33.1648 11.5167 33.6772 11.5166 34.2109C11.5166 34.7449 11.7272 35.258 12.1025 35.6377C12.478 36.0174 12.9885 36.2332 13.5225 36.2393C14.0565 36.2333 14.5669 36.0174 14.9424 35.6377C15.3178 35.258 15.5283 34.7449 15.5283 34.2109C15.5282 33.6771 15.3177 33.1648 14.9424 32.7852C14.5669 32.4054 14.0565 32.1886 13.5225 32.1826ZM24.3408 32.1826C23.8068 32.1886 23.2964 32.4054 22.9209 32.7852C22.5455 33.1648 22.3351 33.6771 22.335 34.2109C22.335 34.745 22.5454 35.258 22.9209 35.6377C23.2964 36.0174 23.8068 36.2332 24.3408 36.2393C24.8746 36.2332 25.3844 36.0172 25.7598 35.6377C26.1353 35.258 26.3457 34.745 26.3457 34.2109C26.3456 33.6771 26.1351 33.1648 25.7598 32.7852C25.3844 32.4056 24.8746 32.1887 24.3408 32.1826ZM35.1582 32.1826C34.6244 32.1887 34.1147 32.4056 33.7393 32.7852C33.3639 33.1648 33.1525 33.677 33.1523 34.2109C33.1523 34.745 33.3638 35.258 33.7393 35.6377C34.1147 36.0172 34.6244 36.2332 35.1582 36.2393C35.6922 36.2333 36.2026 36.0174 36.5781 35.6377C36.9536 35.258 37.1641 34.7449 37.1641 34.2109C37.164 33.6771 36.9535 33.1648 36.5781 32.7852C36.2026 32.4054 35.6922 32.1886 35.1582 32.1826ZM13.5215 33.5342C13.699 33.5368 13.8685 33.6089 13.9932 33.7354C14.1178 33.8618 14.1874 34.0324 14.1875 34.21C14.1875 34.3875 14.1177 34.5581 13.9932 34.6846C13.8685 34.811 13.699 34.8841 13.5215 34.8867C13.3438 34.8842 13.1736 34.8111 13.0488 34.6846C12.9243 34.5581 12.8545 34.3874 12.8545 34.21C12.8546 34.0324 12.9242 33.8618 13.0488 33.7354C13.1736 33.6088 13.3438 33.5367 13.5215 33.5342ZM24.3398 33.5342C24.5173 33.5368 24.6869 33.6089 24.8115 33.7354C24.9362 33.8618 25.0058 34.0324 25.0059 34.21C25.0059 34.3875 24.9361 34.5581 24.8115 34.6846C24.6869 34.811 24.5174 34.8841 24.3398 34.8867C24.1622 34.8842 23.9919 34.8111 23.8672 34.6846C23.7427 34.5581 23.6729 34.3874 23.6729 34.21C23.6729 34.0324 23.7426 33.8618 23.8672 33.7354C23.9919 33.6088 24.1622 33.5367 24.3398 33.5342ZM35.1602 33.5342C35.3377 33.5368 35.5072 33.6089 35.6318 33.7354C35.7565 33.8618 35.8261 34.0324 35.8262 34.21C35.8262 34.3875 35.7564 34.5581 35.6318 34.6846C35.5072 34.811 35.3377 34.8841 35.1602 34.8867C34.9825 34.8842 34.8122 34.8111 34.6875 34.6846C34.563 34.5581 34.4932 34.3874 34.4932 34.21C34.4933 34.0324 34.5629 33.8618 34.6875 33.7354C34.8122 33.6088 34.9825 33.5367 35.1602 33.5342ZM13.5225 26.0977C12.9885 26.1037 12.478 26.3205 12.1025 26.7002C11.7273 27.0798 11.5167 27.5922 11.5166 28.126C11.5166 28.66 11.7271 29.173 12.1025 29.5527C12.478 29.9325 12.9885 30.1483 13.5225 30.1543C14.0565 30.1483 14.5669 29.9325 14.9424 29.5527C15.3179 29.173 15.5283 28.66 15.5283 28.126C15.5282 27.5921 15.3177 27.0798 14.9424 26.7002C14.5669 26.3205 14.0565 26.1037 13.5225 26.0977ZM24.3408 26.0977C23.8068 26.1037 23.2964 26.3205 22.9209 26.7002C22.5455 27.0799 22.335 27.5921 22.335 28.126C22.335 28.66 22.5454 29.173 22.9209 29.5527C23.2964 29.9324 23.8069 30.1483 24.3408 30.1543C24.8746 30.1482 25.3844 29.9322 25.7598 29.5527C26.1353 29.173 26.3457 28.66 26.3457 28.126C26.3456 27.5921 26.1352 27.0799 25.7598 26.7002C25.3844 26.3206 24.8747 26.1038 24.3408 26.0977ZM35.1582 26.0977C34.6243 26.1037 34.1147 26.3206 33.7393 26.7002C33.3638 27.0799 33.1524 27.592 33.1523 28.126C33.1523 28.66 33.3638 29.173 33.7393 29.5527C34.1147 29.9322 34.6244 30.1482 35.1582 30.1543C35.6922 30.1483 36.2026 29.9325 36.5781 29.5527C36.9536 29.173 37.1641 28.66 37.1641 28.126C37.164 27.5921 36.9534 27.0798 36.5781 26.7002C36.2026 26.3205 35.6922 26.1037 35.1582 26.0977ZM13.5215 27.4521C13.699 27.4548 13.8685 27.5269 13.9932 27.6533C14.1178 27.7798 14.1874 27.9504 14.1875 28.1279C14.1875 28.3055 14.1177 28.476 13.9932 28.6025C13.8685 28.729 13.699 28.8021 13.5215 28.8047C13.3438 28.8022 13.1736 28.7291 13.0488 28.6025C12.9243 28.4761 12.8545 28.3054 12.8545 28.1279C12.8546 27.9504 12.9242 27.7798 13.0488 27.6533C13.1736 27.5268 13.3438 27.4547 13.5215 27.4521ZM24.3398 27.4521C24.5173 27.4548 24.6869 27.5269 24.8115 27.6533C24.9362 27.7798 25.0058 27.9504 25.0059 28.1279C25.0059 28.3055 24.9361 28.476 24.8115 28.6025C24.6869 28.729 24.5174 28.8021 24.3398 28.8047C24.1622 28.8022 23.9919 28.7291 23.8672 28.6025C23.7427 28.4761 23.6729 28.3054 23.6729 28.1279C23.6729 27.9504 23.7426 27.7798 23.8672 27.6533C23.9919 27.5268 24.1622 27.4547 24.3398 27.4521ZM35.1602 27.4521C35.3377 27.4548 35.5072 27.5269 35.6318 27.6533C35.7565 27.7798 35.8261 27.9504 35.8262 28.1279C35.8262 28.3055 35.7564 28.476 35.6318 28.6025C35.5072 28.729 35.3377 28.8021 35.1602 28.8047C34.9825 28.8022 34.8122 28.7291 34.6875 28.6025C34.563 28.4761 34.4932 28.3054 34.4932 28.1279C34.4933 27.9504 34.5629 27.7798 34.6875 27.6533C34.8122 27.5268 34.9825 27.4547 35.1602 27.4521ZM13.5225 20.0127C12.9885 20.0187 12.478 20.2355 12.1025 20.6152C11.7273 20.9949 11.5167 21.5072 11.5166 22.041C11.5166 22.575 11.7271 23.088 12.1025 23.4678C12.478 23.8475 12.9885 24.0633 13.5225 24.0693C14.0565 24.0633 14.5669 23.8475 14.9424 23.4678C15.3179 23.088 15.5283 22.5751 15.5283 22.041C15.5283 21.5072 15.3177 20.9949 14.9424 20.6152C14.5669 20.2355 14.0565 20.0187 13.5225 20.0127ZM24.3408 20.0127C23.8068 20.0187 23.2964 20.2355 22.9209 20.6152C22.5456 20.9949 22.335 21.5071 22.335 22.041C22.335 22.5751 22.5454 23.088 22.9209 23.4678C23.2964 23.8474 23.8069 24.0633 24.3408 24.0693C24.8746 24.0632 25.3844 23.8472 25.7598 23.4678C26.1353 23.088 26.3457 22.5751 26.3457 22.041C26.3457 21.5071 26.1352 20.9949 25.7598 20.6152C25.3844 20.2356 24.8747 20.0188 24.3408 20.0127ZM35.1582 20.0127C34.6243 20.0188 34.1147 20.2356 33.7393 20.6152C33.3638 20.9949 33.1524 21.507 33.1523 22.041C33.1523 22.5751 33.3638 23.088 33.7393 23.4678C34.1147 23.8472 34.6244 24.0633 35.1582 24.0693C35.6922 24.0633 36.2026 23.8475 36.5781 23.4678C36.9536 23.088 37.1641 22.5751 37.1641 22.041C37.164 21.5072 36.9534 20.9949 36.5781 20.6152C36.2026 20.2355 35.6922 20.0187 35.1582 20.0127ZM13.5215 21.3662C13.699 21.3688 13.8685 21.441 13.9932 21.5674C14.1178 21.6938 14.1874 21.8644 14.1875 22.042C14.1875 22.2195 14.1177 22.3901 13.9932 22.5166C13.8685 22.643 13.699 22.7161 13.5215 22.7188C13.3438 22.7162 13.1736 22.6431 13.0488 22.5166C12.9243 22.3901 12.8545 22.2195 12.8545 22.042C12.8546 21.8645 12.9242 21.6938 13.0488 21.5674C13.1736 21.4409 13.3438 21.3687 13.5215 21.3662ZM24.3398 21.3662C24.5173 21.3688 24.6869 21.441 24.8115 21.5674C24.9362 21.6938 25.0058 21.8644 25.0059 22.042C25.0059 22.2195 24.9361 22.3901 24.8115 22.5166C24.6869 22.643 24.5174 22.7161 24.3398 22.7188C24.1622 22.7162 23.9919 22.6431 23.8672 22.5166C23.7427 22.3901 23.6729 22.2195 23.6729 22.042C23.6729 21.8645 23.7426 21.6938 23.8672 21.5674C23.9919 21.4409 24.1622 21.3687 24.3398 21.3662ZM35.1602 21.3662C35.3377 21.3688 35.5072 21.441 35.6318 21.5674C35.7565 21.6938 35.8261 21.8644 35.8262 22.042C35.8262 22.2195 35.7564 22.3901 35.6318 22.5166C35.5072 22.643 35.3377 22.7161 35.1602 22.7188C34.9825 22.7162 34.8122 22.6431 34.6875 22.5166C34.563 22.3901 34.4932 22.2195 34.4932 22.042C34.4933 21.8645 34.5629 21.6938 34.6875 21.5674C34.8122 21.4409 34.9825 21.3687 35.1602 21.3662ZM31.8984 5.42188C32.274 5.38494 32.6534 5.42749 33.0117 5.5459C33.3701 5.66437 33.6998 5.8568 33.9795 6.11035C34.259 6.3638 34.4828 6.67262 34.6357 7.01758C34.7887 7.36272 34.8682 7.73675 34.8682 8.11426H39.2148C40.2901 8.11626 41.3207 8.54439 42.0811 9.30469C42.8414 10.065 43.2695 11.0956 43.2715 12.1709V15.9365H5.40918V12.1709C5.41118 11.0957 5.83933 10.065 6.59961 9.30469C7.35994 8.54436 8.39055 8.11628 9.46582 8.11426H13.8135V9.46582C13.8143 10.4063 14.1415 11.3178 14.7393 12.0439C15.337 12.77 16.1681 13.2666 17.0908 13.4482C17.2655 13.4722 17.4431 13.4269 17.585 13.3223C17.7269 13.2174 17.8221 13.0608 17.8506 12.8867C17.879 12.7125 17.8385 12.5342 17.7373 12.3896C17.6361 12.2451 17.4829 12.1452 17.3096 12.1123C16.7031 11.9837 16.1588 11.6507 15.7686 11.1689C15.3784 10.6872 15.1659 10.0857 15.166 9.46582V8.22949C15.1542 7.87187 15.2129 7.51522 15.3398 7.18066C15.4668 6.84613 15.6593 6.54008 15.9053 6.28027C16.1513 6.02056 16.4464 5.81192 16.7734 5.66699C17.1006 5.52209 17.4538 5.4432 17.8115 5.43555C18.1693 5.42792 18.5253 5.49124 18.8584 5.62207C19.1915 5.75294 19.496 5.9491 19.7529 6.19824C20.0096 6.44722 20.2144 6.74462 20.3555 7.07324C20.4966 7.40217 20.5708 7.75636 20.5742 8.11426H28.1064V9.46582C28.1073 10.4063 28.4345 11.3178 29.0322 12.0439C29.63 12.7701 30.4619 13.2667 31.3848 13.4482C31.5595 13.4721 31.7371 13.427 31.8789 13.3223C32.0208 13.2174 32.1161 13.0609 32.1445 12.8867C32.173 12.7125 32.1315 12.5342 32.0303 12.3896C31.9291 12.2451 31.7759 12.1452 31.6025 12.1123C30.996 11.9837 30.4518 11.6507 30.0615 11.1689C29.6714 10.6872 29.4589 10.0857 29.459 9.46582V8.22949C29.4476 7.54309 29.6903 6.87657 30.1406 6.3584C30.591 5.84024 31.2171 5.50625 31.8984 5.42188ZM17.8701 6.78125C17.5148 6.78124 17.1739 6.92151 16.9209 7.1709C16.6679 7.42027 16.5227 7.75908 16.5176 8.11426H19.2227C19.2175 7.75909 19.0723 7.42028 18.8193 7.1709C18.5663 6.92151 18.2254 6.78127 17.8701 6.78125ZM32.1631 6.78125C31.8079 6.78129 31.4669 6.92155 31.2139 7.1709C30.961 7.42026 30.8157 7.75913 30.8105 8.11426H33.5156C33.5105 7.75904 33.3653 7.42029 33.1123 7.1709C32.8593 6.9215 32.5184 6.78126 32.1631 6.78125Z" data-index="0" style="opacity: 1; visibility: visible;"></path>
</g>
<defs>
<linearGradient gradientUnits="userSpaceOnUse" y2="39.0111" x2="41.2009" y1="16.865" x1="5.40918" id="paint0_linear_75_2475">
<stop stop-color="#3EF4A7"></stop>
<stop stop-color="#096EE0" offset="1"></stop>
</linearGradient>
</defs>
</svg>