<svg width="61" height="65" viewBox="0 0 61 65" fill="none" xmlns="http://www.w3.org/2000/svg">
<path d="M36.916 11.2244C37.4568 10.6835 38.2687 10.6837 38.8096 11.2244L41.5029 13.9177C41.5064 13.9211 41.5102 13.9241 41.5137 13.9275C41.517 13.9308 41.5202 13.9349 41.5234 13.9382L44.2188 16.6335C44.7596 17.1744 44.7596 17.9862 44.2188 18.5271C43.9483 18.7975 43.6772 18.9324 43.2715 18.9324C42.8661 18.9323 42.5955 18.7974 42.3252 18.5271L40.5654 16.7673L39.2344 18.0994C41.7607 21.3177 43.2715 25.3663 43.2715 29.7507C43.2713 40.1627 34.7528 48.6812 24.3408 48.6814C13.9287 48.6814 5.40934 40.1628 5.40918 29.7507C5.40918 19.3385 13.9286 10.8191 24.3408 10.8191C29.4094 10.8192 34.0295 12.8379 37.4365 16.1111L38.6729 14.8748L36.916 13.1179C36.3753 12.577 36.3752 11.7652 36.916 11.2244ZM24.3408 16.2283C23.5296 16.2283 22.9885 16.7687 22.9883 17.5798V25.9646C21.3657 26.5055 20.2842 27.9929 20.2842 29.7507C20.2843 32.0494 22.0421 33.8074 24.3408 33.8074C26.0986 33.8073 27.5861 32.7249 28.127 31.1023H33.8066C34.6176 31.1021 35.1581 30.5618 35.1582 29.7507C35.1582 28.9395 34.6177 28.3984 33.8066 28.3982H28.127C27.7213 27.3164 26.7742 26.3703 25.6924 25.9646V17.5798C25.6922 16.7688 25.1518 16.2284 24.3408 16.2283ZM25.6934 5.40894C27.1806 5.40906 28.3973 6.62582 28.3975 8.11304V8.51929C27.0453 8.24885 25.693 8.11304 24.3408 8.11304C22.9886 8.11304 21.6364 8.24884 20.2842 8.51929V8.11304C20.2844 6.62587 21.5011 5.40914 22.9883 5.40894H25.6934Z" fill="url(#paint0_linear_75_2487)"/>
<defs>
<linearGradient id="paint0_linear_75_2487" x1="5.40918" y1="20.1849" x2="46.5228" y2="40.6126" gradientUnits="userSpaceOnUse">
<stop stop-color="#3EF4A7"/>
<stop offset="1" stop-color="#096EE0"/>
</linearGradient>
</defs>
</svg>
