<svg width="136" height="243" viewBox="0 0 136 243" fill="none" xmlns="http://www.w3.org/2000/svg">
<g opacity="0.46" filter="url(#filter0_dddd_1_25028)">
<path d="M68.0011 212.151L94.0432 198.443C95.5278 197.639 97.3093 197.651 98.7815 198.468L122.622 213.338C123.859 214.031 123.859 215.813 122.622 216.506L97.2103 230.201C95.7381 231.017 93.9442 231.03 92.472 230.226L68.0011 215.343C66.7392 214.65 66.7392 212.844 68.0011 212.151Z" fill="#95B1E9"/>
</g>
<path d="M1.40573 43.015C1.96245 42.2108 2.67999 41.4933 3.55837 40.8499L19.2579 29.4062C18.8373 29.7155 18.4785 30.0743 18.2063 30.4578C17.8104 31.0269 17.5753 31.6826 17.5258 32.3754C17.464 33.2538 17.6743 34.194 18.194 35.1714C18.4538 35.6663 18.7878 36.1611 19.196 36.656C20.1363 37.7941 21.3734 38.8086 22.7838 39.6499C24.0333 40.4046 25.4313 41.0108 26.854 41.4561C27.9551 41.8025 29.0809 42.0376 30.1944 42.1613C31.3573 42.285 32.4955 42.285 33.5594 42.1366C33.6708 42.1242 33.7697 42.0995 33.8811 42.0871C37.5554 41.4562 39.2874 39.1922 38.6317 36.4828L43.234 55.3618C44.5825 60.8918 41.0442 65.5312 33.5223 66.8178C33.2996 66.8549 33.0893 66.892 32.8666 66.9168C30.6768 67.2261 28.3386 67.2261 25.9633 66.9663C23.6993 66.7189 21.3858 66.224 19.1342 65.5312C16.2145 64.6281 13.369 63.3662 10.8081 61.8321C7.92552 60.1125 5.38934 58.034 3.45938 55.6958C2.61811 54.669 1.92533 53.6545 1.39335 52.6524C0.341767 50.6482 -0.103591 48.6935 0.0201242 46.912C0.119097 45.4893 0.58921 44.1655 1.40573 42.9902V43.015Z" fill="url(#paint0_linear_1_25028)"/>
<path d="M22.3872 28.1855C27.3234 27.3319 33.9299 29.7815 37.0723 33.5919C40.2518 37.4271 38.8167 41.2499 33.8804 42.0912C28.9813 42.9448 22.3749 40.4952 19.1954 36.6601C16.0283 32.8372 17.4634 29.0144 22.3749 28.1855H22.3872Z" fill="#F5F9FE"/>
<path d="M55.0879 3.03105L52.2423 2.63515L51.166 0L54.0238 0.383515L55.0879 3.03105Z" fill="url(#paint1_linear_1_25028)"/>
<path d="M52.2414 2.63527L26.7066 36.0385L25.6426 33.4033L51.1651 0.00012207L52.2414 2.63527Z" fill="url(#paint2_linear_1_25028)"/>
<path d="M55.0854 3.03262L29.5505 36.4358L26.7051 36.0399L52.2399 2.63672L55.0854 3.03262Z" fill="url(#paint3_linear_1_25028)"/>
<g filter="url(#filter1_dddd_1_25028)">
<path d="M73.4572 207.508L94.0187 199.269C94.8724 198.774 95.9116 198.786 96.7529 199.269L117.166 207.484C119.034 208.535 118.428 214.486 116.609 215.537L96.592 227.092C95.7384 227.587 94.6992 227.587 93.8579 227.092L74.0015 215.55C72.1829 214.498 71.5891 208.548 73.4572 207.496V207.508Z" fill="#F5F9FE"/>
</g>
<path d="M74.0019 206.961L94.0191 195.406C94.8727 194.911 95.912 194.911 96.7532 195.406L116.61 206.949C118.428 208.001 118.416 210.623 116.61 211.675L96.5924 223.23C95.7388 223.725 94.6995 223.725 93.8582 223.23L74.0019 211.687C72.1833 210.636 72.1957 208.013 74.0019 206.961Z" fill="url(#paint4_linear_1_25028)"/>
<path d="M104.906 56.1836L104.3 59.1156L101.43 60.0559L102.036 57.1238L104.906 56.1836Z" fill="url(#paint5_linear_1_25028)"/>
<path d="M102.036 57.1234L101.43 60.0554L43.5059 7.67424L44.1121 4.74219L102.036 57.1234Z" fill="url(#paint6_linear_1_25028)"/>
<path d="M104.905 56.1821L102.035 57.1223L44.1115 4.74115L46.994 3.8009L104.905 56.1821Z" fill="url(#paint7_linear_1_25028)"/>
<path d="M96.9885 29.5081L94.4152 30.9927L91.8419 29.5081L94.4276 28.0236L96.9885 29.5081Z" fill="url(#paint8_linear_1_25028)"/>
<path d="M94.4151 212.087L91.8542 210.603L91.8418 29.5078L94.4151 30.9924V212.087Z" fill="url(#paint9_linear_1_25028)"/>
<path d="M96.9874 210.603L94.4141 212.087V30.9924L96.9874 29.5078V210.603Z" fill="url(#paint10_linear_1_25028)"/>
<defs>
<filter id="filter0_dddd_1_25028" x="53.0547" y="183.848" width="82.4946" height="58.9734" filterUnits="userSpaceOnUse" color-interpolation-filters="linearRGB">
<feFlood flood-opacity="0" result="BackgroundImageFix"/>
<feColorMatrix in="SourceAlpha" type="matrix" values="0 0 0 0 0 0 0 0 0 0 0 0 0 0 0 0 0 0 127 0" result="hardAlpha"/>
<feOffset dx="5" dy="5"/>
<feGaussianBlur stdDeviation="3.5"/>
<feComposite in2="hardAlpha" operator="out"/>
<feColorMatrix type="matrix" values="0 0 0 0 0 0 0 0 0 0 0 0 0 0 0 0 0 0 0.1 0"/>
<feBlend mode="normal" in2="BackgroundImageFix" result="effect1_dropShadow_1_25028"/>
<feColorMatrix in="SourceAlpha" type="matrix" values="0 0 0 0 0 0 0 0 0 0 0 0 0 0 0 0 0 0 127 0" result="hardAlpha"/>
<feOffset dx="1" dy="1"/>
<feGaussianBlur stdDeviation="1"/>
<feComposite in2="hardAlpha" operator="out"/>
<feColorMatrix type="matrix" values="0 0 0 0 0 0 0 0 0 0 0 0 0 0 0 0 0 0 0.1 0"/>
<feBlend mode="normal" in2="effect1_dropShadow_1_25028" result="effect2_dropShadow_1_25028"/>
<feColorMatrix in="SourceAlpha" type="matrix" values="0 0 0 0 0 0 0 0 0 0 0 0 0 0 0 0 0 0 127 0" result="hardAlpha"/>
<feOffset dx="-2" dy="-2"/>
<feGaussianBlur stdDeviation="1"/>
<feComposite in2="hardAlpha" operator="out"/>
<feColorMatrix type="matrix" values="0 0 0 0 1 0 0 0 0 1 0 0 0 0 1 0 0 0 0.8 0"/>
<feBlend mode="normal" in2="effect2_dropShadow_1_25028" result="effect3_dropShadow_1_25028"/>
<feColorMatrix in="SourceAlpha" type="matrix" values="0 0 0 0 0 0 0 0 0 0 0 0 0 0 0 0 0 0 127 0" result="hardAlpha"/>
<feOffset dx="-6" dy="-6"/>
<feGaussianBlur stdDeviation="4"/>
<feComposite in2="hardAlpha" operator="out"/>
<feColorMatrix type="matrix" values="0 0 0 0 1 0 0 0 0 1 0 0 0 0 1 0 0 0 0.5 0"/>
<feBlend mode="normal" in2="effect3_dropShadow_1_25028" result="effect4_dropShadow_1_25028"/>
<feBlend mode="normal" in="SourceGraphic" in2="effect4_dropShadow_1_25028" result="shape"/>
</filter>
<clipPath id="bgblur_0_1_25028_clip_path" transform="translate(-53.0547 -183.848)"><path d="M68.0011 212.151L94.0432 198.443C95.5278 197.639 97.3093 197.651 98.7815 198.468L122.622 213.338C123.859 214.031 123.859 215.813 122.622 216.506L97.2103 230.201C95.7381 231.017 93.9442 231.03 92.472 230.226L68.0011 215.343C66.7392 214.65 66.7392 212.844 68.0011 212.151Z"/>
</clipPath><filter id="filter1_dddd_1_25028" x="58.3145" y="184.902" width="71.9894" height="54.5613" filterUnits="userSpaceOnUse" color-interpolation-filters="linearRGB">
<feFlood flood-opacity="0" result="BackgroundImageFix"/>
<feColorMatrix in="SourceAlpha" type="matrix" values="0 0 0 0 0 0 0 0 0 0 0 0 0 0 0 0 0 0 127 0" result="hardAlpha"/>
<feOffset dx="5" dy="5"/>
<feGaussianBlur stdDeviation="3.5"/>
<feComposite in2="hardAlpha" operator="out"/>
<feColorMatrix type="matrix" values="0 0 0 0 0 0 0 0 0 0 0 0 0 0 0 0 0 0 0.1 0"/>
<feBlend mode="normal" in2="BackgroundImageFix" result="effect1_dropShadow_1_25028"/>
<feColorMatrix in="SourceAlpha" type="matrix" values="0 0 0 0 0 0 0 0 0 0 0 0 0 0 0 0 0 0 127 0" result="hardAlpha"/>
<feOffset dx="1" dy="1"/>
<feGaussianBlur stdDeviation="1"/>
<feComposite in2="hardAlpha" operator="out"/>
<feColorMatrix type="matrix" values="0 0 0 0 0 0 0 0 0 0 0 0 0 0 0 0 0 0 0.1 0"/>
<feBlend mode="normal" in2="effect1_dropShadow_1_25028" result="effect2_dropShadow_1_25028"/>
<feColorMatrix in="SourceAlpha" type="matrix" values="0 0 0 0 0 0 0 0 0 0 0 0 0 0 0 0 0 0 127 0" result="hardAlpha"/>
<feOffset dx="-2" dy="-2"/>
<feGaussianBlur stdDeviation="1"/>
<feComposite in2="hardAlpha" operator="out"/>
<feColorMatrix type="matrix" values="0 0 0 0 1 0 0 0 0 1 0 0 0 0 1 0 0 0 0.8 0"/>
<feBlend mode="normal" in2="effect2_dropShadow_1_25028" result="effect3_dropShadow_1_25028"/>
<feColorMatrix in="SourceAlpha" type="matrix" values="0 0 0 0 0 0 0 0 0 0 0 0 0 0 0 0 0 0 127 0" result="hardAlpha"/>
<feOffset dx="-6" dy="-6"/>
<feGaussianBlur stdDeviation="4"/>
<feComposite in2="hardAlpha" operator="out"/>
<feColorMatrix type="matrix" values="0 0 0 0 1 0 0 0 0 1 0 0 0 0 1 0 0 0 0.5 0"/>
<feBlend mode="normal" in2="effect3_dropShadow_1_25028" result="effect4_dropShadow_1_25028"/>
<feBlend mode="normal" in="SourceGraphic" in2="effect4_dropShadow_1_25028" result="shape"/>
</filter>
<linearGradient id="paint0_linear_1_25028" x1="0.675816" y1="41.4809" x2="32.3594" y2="51.7493" gradientUnits="userSpaceOnUse">
<stop stop-color="#E6F0FF"/>
<stop offset="0.24" stop-color="#E2ECFD"/>
<stop offset="0.47" stop-color="#D6E3F8"/>
<stop offset="0.69" stop-color="#C3D3F0"/>
<stop offset="0.91" stop-color="#A9BDE4"/>
<stop offset="1" stop-color="#9CB2DF"/>
</linearGradient>
<linearGradient id="paint1_linear_1_25028" x1="55.0879" y1="1.50934" x2="51.1784" y2="1.50934" gradientUnits="userSpaceOnUse">
<stop stop-color="#9CB2DF"/>
<stop offset="1" stop-color="#E6F0FF"/>
</linearGradient>
<linearGradient id="paint2_linear_1_25028" x1="52.2414" y1="18.0131" x2="25.6426" y2="18.0131" gradientUnits="userSpaceOnUse">
<stop stop-color="#9CB2DF"/>
<stop offset="1" stop-color="#E6F0FF"/>
</linearGradient>
<linearGradient id="paint3_linear_1_25028" x1="55.0854" y1="19.5363" x2="26.7051" y2="19.5363" gradientUnits="userSpaceOnUse">
<stop stop-color="#E6F0FF"/>
<stop offset="0.24" stop-color="#E2ECFD"/>
<stop offset="0.47" stop-color="#D6E3F8"/>
<stop offset="0.69" stop-color="#C3D3F0"/>
<stop offset="0.91" stop-color="#A9BDE4"/>
<stop offset="1" stop-color="#9CB2DF"/>
</linearGradient>
<linearGradient id="paint4_linear_1_25028" x1="117.995" y1="209.312" x2="72.641" y2="209.312" gradientUnits="userSpaceOnUse">
<stop stop-color="#E6F0FF"/>
<stop offset="0.24" stop-color="#E2ECFD"/>
<stop offset="0.47" stop-color="#D6E3F8"/>
<stop offset="0.69" stop-color="#C3D3F0"/>
<stop offset="0.91" stop-color="#A9BDE4"/>
<stop offset="1" stop-color="#9CB2DF"/>
</linearGradient>
<linearGradient id="paint5_linear_1_25028" x1="104.906" y1="58.1259" x2="101.43" y2="58.1259" gradientUnits="userSpaceOnUse">
<stop stop-color="#9CB2DF"/>
<stop offset="1" stop-color="#E6F0FF"/>
</linearGradient>
<linearGradient id="paint6_linear_1_25028" x1="102.036" y1="32.405" x2="43.5182" y2="32.405" gradientUnits="userSpaceOnUse">
<stop stop-color="#9CB2DF"/>
<stop offset="1" stop-color="#E6F0FF"/>
</linearGradient>
<linearGradient id="paint7_linear_1_25028" x1="104.905" y1="30.4616" x2="44.1238" y2="30.4616" gradientUnits="userSpaceOnUse">
<stop stop-color="#E6F0FF"/>
<stop offset="0.24" stop-color="#E2ECFD"/>
<stop offset="0.47" stop-color="#D6E3F8"/>
<stop offset="0.69" stop-color="#C3D3F0"/>
<stop offset="0.91" stop-color="#A9BDE4"/>
<stop offset="1" stop-color="#9CB2DF"/>
</linearGradient>
<linearGradient id="paint8_linear_1_25028" x1="96.9885" y1="29.5081" x2="91.8543" y2="29.5081" gradientUnits="userSpaceOnUse">
<stop stop-color="#9CB2DF"/>
<stop offset="1" stop-color="#E6F0FF"/>
</linearGradient>
<linearGradient id="paint9_linear_1_25028" x1="93.1284" y1="182.804" x2="93.1284" y2="97.836" gradientUnits="userSpaceOnUse">
<stop stop-color="#9CB2DF"/>
<stop offset="1" stop-color="#E6F0FF"/>
</linearGradient>
<linearGradient id="paint10_linear_1_25028" x1="95.7007" y1="197.563" x2="95.7007" y2="54.5231" gradientUnits="userSpaceOnUse">
<stop stop-color="#E6F0FF"/>
<stop offset="0.24" stop-color="#E2ECFD"/>
<stop offset="0.47" stop-color="#D6E3F8"/>
<stop offset="0.69" stop-color="#C3D3F0"/>
<stop offset="0.91" stop-color="#A9BDE4"/>
<stop offset="1" stop-color="#9CB2DF"/>
</linearGradient>
</defs>
</svg>
