<svg width="94" height="315" viewBox="0 0 94 315" fill="none" xmlns="http://www.w3.org/2000/svg">
<path d="M21.3769 22.1953C19.8057 19.5602 21.0924 19.2385 20.1274 17.0982C19.5954 15.9477 19.9294 14.9456 19.5954 15.0693C18.3335 15.5147 19.3727 17.9766 18.9273 17.0982C18.4819 16.2199 17.6902 14.5868 18.1108 13.6342C18.5191 12.6816 18.3211 11.4568 17.8881 12.0506C17.4551 12.6445 16.4654 13.2754 16.2427 13.7332C16.02 14.1909 16.3293 14.9209 15.9582 15.1312C15.587 15.3415 15.6365 15.7869 16.5272 17.6673C17.4303 19.5478 22.1316 34.8638 22.8491 36.9917C23.9873 40.3815 28.5276 38.6371 27.6616 34.6411C26.7461 30.3853 22.9729 24.8181 21.3893 22.183L21.3769 22.1953Z" fill="#B6DBF7"/>
<path d="M0 29.9883L61.4496 303.375L63.5527 304.996L2.10318 32.6729L0 29.9883Z" fill="white"/>
<path d="M2.10352 32.6702L63.553 304.993L68.0192 304.003L6.56963 30.6289L2.10352 32.6702Z" fill="url(#paint0_linear_1_22854)"/>
<path d="M36.1869 183.965L61.7218 197.239L63.4167 193.998L35.6797 181.824L36.1869 183.965Z" fill="white"/>
<path d="M35.6797 181.836L61.7218 195.395L64.9137 193.415L38.8716 179.844L35.6797 181.836Z" fill="url(#paint1_linear_1_22854)"/>
<path d="M30.1245 157.507L55.6593 170.794L57.3542 167.553L29.6172 155.379L30.1245 157.507Z" fill="white"/>
<path d="M29.6172 155.374L55.6593 168.946L58.8512 166.966L32.8215 153.395L29.6172 155.374Z" fill="url(#paint2_linear_1_22854)"/>
<path d="M24.0613 131.054L49.5962 144.341L51.2911 141.099L23.5664 128.926L24.0613 131.054Z" fill="white"/>
<path d="M23.5664 128.925L49.5962 142.496L52.8004 140.517L26.7583 126.945L23.5664 128.925Z" fill="url(#paint3_linear_1_22854)"/>
<path d="M18.0007 104.604L43.5356 117.879L45.2305 114.638L17.5059 102.477L18.0007 104.604Z" fill="white"/>
<path d="M17.5059 102.472L43.5356 116.044L46.7399 114.052L20.6977 100.48L17.5059 102.472Z" fill="url(#paint4_linear_1_22854)"/>
<path d="M11.9506 78.1396L37.4855 91.4267L39.1681 88.1853L11.4434 76.0117L11.9506 78.1396Z" fill="white"/>
<path d="M38.5756 31.9953C33.3796 32.7005 29.8414 32.8366 26.0928 33.7521C22.3442 34.6676 21.2555 37.4264 25.8577 39.6286C28.53 40.9028 33.9364 39.6781 38.0808 39.4925C42.2129 39.3069 47.2605 38.0945 45.9244 34.1356C45.3553 32.4283 44.3903 31.2159 38.588 31.9953H38.5756Z" fill="#B6DBF7"/>
<path d="M56.7355 16.7158C53.3581 11.7548 48.4961 15.4663 48.4961 15.4663C48.4961 15.4663 49.7827 16.3694 50.0425 19.2025C50.3518 22.4686 49.659 27.9368 50.191 31.438C51.1807 37.9701 54.2489 39.1083 56.7603 40.0115C59.2717 40.9022 59.5687 44.8735 59.5687 44.8735C63.3791 39.3063 58.2572 36.6711 57.8984 33.1329C57.5397 29.5946 60.0883 21.6768 56.7108 16.7034L56.7355 16.7158Z" fill="#0089FF"/>
<path d="M47.2329 58.6797C43.0265 58.6797 27.9828 63.5541 22.8486 66.8697C20.5846 68.3295 20.7207 74.2926 26.6343 74.2926C38.8574 74.2926 50.5237 73.8101 51.8846 65.6325C52.7753 60.2756 48.5195 58.6797 47.2329 58.6797Z" fill="url(#paint5_linear_1_22854)"/>
<path d="M56.1669 60.464C53.2225 57.6309 47.012 57.9278 45.7377 60.8598C44.4634 63.8043 45.0449 82.6091 44.8098 89.1907C44.5748 95.7724 52.4802 92.9888 53.3215 90.1681C54.1627 87.3597 55.7586 81.5451 56.6865 78.7491C57.602 75.9408 58.9134 73.1324 59.3835 68.456C59.8536 63.7672 57.7381 61.9733 56.1669 60.464Z" fill="url(#paint6_linear_1_22854)"/>
<path d="M44.9077 88.2722C44.5984 91.4146 46.0088 114.463 45.9345 115.205C45.8479 116.096 49.4357 117.494 49.7326 114.512C50.0295 111.531 52.442 99.3571 52.6771 97.1055C52.8998 94.8539 53.4688 91.5631 53.7658 88.7052C53.9885 86.5402 45.6129 81.307 44.9201 88.2722H44.9077Z" fill="#B6DBF7"/>
<path d="M44.8091 86.7372C44.6607 89.1868 44.5122 93.4797 44.6359 97.2777C45.2298 97.7479 49.5474 99.1335 53.1846 97.6984C53.4073 95.3973 53.927 89.0507 54.3229 86.7496C54.7435 84.3 45.2174 79.9205 44.8091 86.7496V86.7372Z" fill="url(#paint7_linear_1_22854)"/>
<path d="M55.5359 46.7752C55.9813 44.5731 58.1834 40.243 56.6617 36.346C55.14 32.449 48.9048 30.1602 46.1212 30.7046C45.2923 30.8654 42.9169 31.7438 42.9169 31.7438C41.9148 33.6614 40.3065 35.5913 38.9209 38.5976C37.4982 41.6781 39.923 43.9174 40.1951 46.5278C40.5787 50.1774 39.3415 55.1755 39.3415 60.3344C39.3415 60.3344 46.1706 68.8213 58.8267 62.883C58.8267 57.5137 53.6802 55.9797 55.5483 46.7876L55.5359 46.7752Z" fill="url(#paint8_linear_1_22854)"/>
<path d="M49.892 118.682C48.6672 120.711 46.131 121.478 43.9165 121.503C42.9392 121.516 42.0608 121.379 41.2443 121.107C40.6999 121.107 40.1432 121.045 39.6112 120.909C39.3762 121.095 39.2401 121.181 39.2401 121.181C39.2401 121.181 38.3122 122.258 41.0092 122.815C45.5991 123.755 46.7373 122.753 47.6033 122.097C47.7394 121.998 48.6301 121.231 48.6301 121.231C48.6301 121.231 48.9147 121.441 48.9889 121.404C49.793 121.12 50.6961 121.008 50.8075 119.895C50.9188 118.757 50.5848 118.398 50.3127 117.742C50.2013 118.051 50.0652 118.361 49.8796 118.67L49.892 118.682Z" fill="white"/>
<path d="M50.3021 111.947C47.7783 112.949 45.6504 111.91 45.6504 111.91C45.205 116.352 45.0071 117.416 43.2256 119.049C41.444 120.682 36.5326 121.053 41.0853 122.166C45.638 123.28 47.5308 121.746 48.3845 121.102C49.2505 120.459 50.6238 120.768 50.7723 119.308C50.9455 117.552 50.166 117.576 50.1041 115.585C50.0547 113.593 50.3021 111.935 50.3021 111.935V111.947Z" fill="url(#paint9_linear_1_22854)"/>
<path d="M21.7109 71.3436C21.7109 74.4984 25.2369 96.5816 25.2369 97.3363C25.2369 98.227 28.9483 99.2662 28.9483 96.2723C28.9483 93.2784 30.371 79.8181 30.371 70.193C30.371 68.0157 21.7109 64.3537 21.7109 71.3436Z" fill="#B6DBF7"/>
<path d="M11.4434 76.0107L37.4855 89.5823L40.6774 87.6029L14.6352 74.0312L11.4434 76.0107Z" fill="url(#paint10_linear_1_22854)"/>
<path d="M29.5173 100.41C28.4905 102.551 26.0534 103.565 23.8512 103.812C22.8862 103.924 21.9955 103.874 21.1542 103.676C20.6099 103.726 20.0531 103.726 19.5088 103.652C19.2985 103.85 19.1624 103.961 19.1624 103.961C19.1624 103.961 18.3458 105.124 21.0923 105.408C25.744 105.891 26.7832 104.765 27.5874 104.048C27.7111 103.936 28.5276 103.083 28.5276 103.083C28.5276 103.083 28.8246 103.256 28.9112 103.219C29.6782 102.86 30.569 102.65 30.569 101.536C30.569 100.423 30.1978 100.064 29.8638 99.4453C29.7896 99.767 29.6782 100.089 29.5297 100.41H29.5173Z" fill="white"/>
<path d="M29.2576 93.6641C26.8451 94.9136 24.6182 94.0847 24.6182 94.0847C24.6182 98.5508 24.5316 99.6272 22.9233 101.433C21.315 103.24 16.4654 104.093 21.1047 104.749C25.744 105.405 27.4761 103.697 28.2679 102.967C29.0597 102.238 30.4576 102.411 30.4576 100.951C30.4576 99.1941 29.6782 99.2931 29.4184 97.3137C29.1586 95.3342 29.2452 93.6641 29.2452 93.6641H29.2576Z" fill="url(#paint11_linear_1_22854)"/>
<path d="M45.1187 37.9684L46.8878 35.9023L44.0918 36.9292L45.1187 37.9684Z" fill="#B6DBF7"/>
<path d="M50.9081 25.2625C50.9081 25.2625 46.8873 25.0275 46.8873 27.8729C46.8873 30.0256 46.5038 30.4091 45.5883 31.1762C45.2914 31.4236 44.7223 31.7205 44.3388 32.0669C43.6955 32.6484 42.916 34.467 42.916 34.467L43.8192 36.397C43.8192 36.397 45.18 35.9021 45.8728 35.6794C46.6522 35.432 47.2709 35.0608 47.9142 34.7391C47.9389 34.7144 47.9637 34.6773 47.9884 34.6526C49.374 33.1803 52.64 32.2772 52.64 32.2772C50.2152 31.1019 50.8833 25.2625 50.8833 25.2625H50.9081Z" fill="#ACCBE3"/>
<path d="M43.5841 33.1055C43.2006 33.7735 42.916 34.4663 42.916 34.4663L43.8192 36.3963C43.8192 36.3963 45.18 35.9014 45.8728 35.6788C46.6522 35.4313 47.2709 35.0602 47.9142 34.7385C47.9389 34.7138 47.9637 34.6767 47.9884 34.6519C48.1616 34.4663 48.3719 34.2808 48.607 34.1076C46.7636 34.2808 44.9821 34.0333 43.5841 33.1055Z" fill="#B6DBF7"/>
<path d="M42.373 36.9286C42.6576 36.8173 43.2143 36.607 43.2143 36.607L42.67 35.3203C42.67 35.3203 42.4473 36.3966 42.373 36.9286Z" fill="#B6DBF7"/>
<path d="M42.2982 37.6505L42.2363 41.3743L44.6983 38.467L43.4611 37.168L42.2982 37.6505Z" fill="#B6DBF7"/>
<path d="M47.1232 15.2812C43.9313 15.2812 41.6426 17.236 41.6426 19.9701C41.6426 22.7042 43.9684 23.5455 46.3561 24.8445C47.8655 25.661 50.7975 24.9929 50.7975 24.9929C50.7975 24.9929 50.9088 25.7847 50.8099 27.0219C50.649 29.1498 53.5935 22.5805 53.5935 20.8237C53.5935 16.5803 49.8325 15.2936 47.1108 15.2936L47.1232 15.2812Z" fill="#0089FF"/>
<path d="M50.0921 22.8647C50.0921 22.8647 50.1664 20.8729 48.422 19.4254C46.8879 18.1388 41.8527 17.9284 41.8527 20.5759C41.8527 21.1203 41.9641 21.776 41.9641 22.6915C41.9641 23.607 41.6548 23.5575 41.8775 24.6215C42.1002 25.6854 43.7208 28.5309 43.9559 29.2113C44.1786 29.8917 46.8632 29.7062 48.4468 28.4071C50.0303 27.1081 50.4015 26.2916 50.3396 25.6359C50.2901 24.9802 51.5273 26.1432 51.5273 23.7183C51.5273 21.2935 50.0798 22.8647 50.0798 22.8647H50.0921Z" fill="#B6DBF7"/>
<path d="M50.0932 22.8624C50.0932 22.8624 50.1551 21.118 48.7323 19.6953C48.9303 20.0293 49.1035 20.3881 49.2519 20.784C49.821 22.2315 49.9942 23.8893 49.4994 25.3739C48.8932 27.1801 47.7674 28.875 45.825 29.407C45.4044 29.5183 44.9962 29.5678 44.5879 29.5678C45.5281 29.7287 47.2973 29.3699 48.4602 28.4173C50.0438 27.1183 50.4149 26.3017 50.353 25.646C50.3035 24.9903 51.5407 26.1533 51.5407 23.7284C51.5407 21.3036 50.0932 22.8748 50.0932 22.8748V22.8624Z" fill="#ACCBE3"/>
<path d="M48.4089 238.058L73.9438 251.345L75.6387 248.103L47.9141 235.93L48.4089 238.058Z" fill="white"/>
<path d="M47.9141 235.925L73.9438 249.496L77.1357 247.517L51.1059 233.945L47.9141 235.925Z" fill="url(#paint12_linear_1_22854)"/>
<path d="M42.3465 211.604L67.8813 224.879L69.5762 221.65L41.8516 209.477L42.3465 211.604Z" fill="white"/>
<path d="M41.8516 209.472L67.8813 223.044L71.0856 221.052L45.0434 207.48L41.8516 209.472Z" fill="url(#paint13_linear_1_22854)"/>
<path d="M5.88806 51.6865L31.423 64.9735L33.1179 61.7322L5.38086 49.5586L5.88806 51.6865Z" fill="white"/>
<path d="M5.38086 49.5615L31.423 63.1331L34.6149 61.1536L8.57267 47.582L5.38086 49.5615Z" fill="url(#paint14_linear_1_22854)"/>
<path d="M25.584 39.0312L87.0336 312.406L89.1367 314.039L27.6872 41.7159L25.584 39.0312Z" fill="white"/>
<path d="M27.6875 41.7177L89.137 314.04L93.232 311.43L32.1413 39.6641L27.6875 41.7177Z" fill="url(#paint15_linear_1_22854)"/>
<path d="M56.6227 34.8615C56.1649 31.1377 51.0802 32.2882 47.4058 33.7357C43.7315 35.1708 40.3046 36.5688 38.6963 37.3606C34.6384 39.3772 34.7869 43.0515 38.6221 42.5195C42.4449 41.9999 45.2532 41.4061 50.3503 40.1566C56.0412 38.7586 56.8454 36.643 56.6351 34.8615H56.6227Z" fill="#B6DBF7"/>
<path d="M14.6833 19.3468C14.6833 20.3489 16.3783 22.2046 18.1474 22.9717C22.762 24.9759 30.2468 24.9759 34.8614 22.9717C35.0098 22.9098 35.1583 22.8356 35.3068 22.7737C37.311 21.8087 38.3255 20.584 38.3255 19.3592V11.8125L14.6957 11.6641V19.3592L14.6833 19.3468Z" fill="url(#paint16_linear_1_22854)"/>
<path d="M34.466 8.83127C30.0741 6.82708 22.9481 6.82708 18.5562 8.83127C18.0984 9.04159 17.6778 9.26428 17.319 9.49934C17.2819 9.52408 17.2325 9.54882 17.1953 9.58594C15.9087 10.4519 15.2654 11.454 15.2654 12.4561C15.2654 13.4582 15.9087 14.4603 17.1953 15.3263C17.2325 15.3511 17.2695 15.3758 17.3066 15.4006C17.5664 15.5614 17.8387 15.7222 18.148 15.8831C18.2841 15.9449 18.4201 16.0191 18.5562 16.081C22.9481 18.0852 30.0741 18.0852 34.466 16.081C34.6144 16.0191 34.7506 15.9449 34.8867 15.8831C36.8042 14.9181 37.7569 13.6933 37.7569 12.4685C37.7569 11.1571 36.6558 9.84574 34.466 8.84364V8.83127Z" fill="url(#paint17_linear_1_22854)"/>
<path d="M22.2045 21.4905C25.1737 23.6555 29.2192 23.5442 32.0647 21.2431L37.7803 16.6285V15.082L15.2517 16.4182L22.2045 21.4905Z" fill="#445DCF"/>
<path d="M7.40967 11.0231L26.5114 22.0461L45.6007 11.0231L26.5114 0L7.40967 11.0231Z" fill="url(#paint18_linear_1_22854)"/>
<path d="M7.40967 11.8894L26.5114 22.9248V22.0464L7.40967 11.0233V11.8894Z" fill="#F2F3FF"/>
<path d="M26.4977 22.9124L45.5375 11.8894V11.0233L26.4977 22.034V22.9124Z" fill="url(#paint19_linear_1_22854)"/>
<path d="M36.1116 16.4452L25.435 9.99965C25.2742 9.91304 25.0762 9.96253 24.9896 10.111C24.903 10.2718 24.9525 10.4698 25.101 10.5564L35.4312 16.804C36.0745 17.1875 36.4705 17.868 36.4705 18.6226V30.6478C36.4705 30.8334 36.6189 30.9818 36.8045 30.9818H36.8292C37.0148 30.9818 37.1633 30.8334 37.1633 30.6478V18.2515C37.1633 17.5092 36.7674 16.8164 36.124 16.4329L36.1116 16.4452Z" fill="url(#paint20_linear_1_22854)"/>
<path d="M36.8523 27.7031C36.5059 27.7031 36.2213 27.9629 36.1966 28.3093L35.8625 32.7755C35.8378 33.159 36.1347 33.4807 36.5183 33.4807H37.1739C37.5574 33.4807 37.8544 33.159 37.8296 32.7755L37.4956 28.3093C37.4708 27.9629 37.1863 27.7031 36.8399 27.7031H36.8523Z" fill="url(#paint21_linear_1_22854)"/>
<path d="M36.841 25.8242C36.4328 25.8242 36.1111 26.1582 36.1111 26.5541C36.1111 26.95 36.4451 27.2841 36.841 27.2841C37.2369 27.2841 37.5709 26.95 37.5709 26.5541C37.5709 26.1582 37.2369 25.8242 36.841 25.8242Z" fill="url(#paint22_linear_1_22854)"/>
<path d="M39.514 38.811C38.4129 34.8644 33.9344 29.8539 32.2395 27.1446C30.693 24.6826 32.2766 25.2022 31.0642 23.198C30.4085 22.1093 30.6312 21.0825 30.3095 21.2433C29.1095 21.8372 30.4209 24.1507 29.8765 23.3341C29.3322 22.5176 28.7136 21.4784 29.0105 20.4887C29.3074 19.4989 28.9734 18.3113 28.6146 18.9422C28.2558 19.5732 27.0063 19.8206 26.8207 20.3031C26.6475 20.7856 27.0434 21.466 26.697 21.7258C26.3506 21.9856 26.4496 22.4186 27.5507 24.1878C28.6641 25.9569 31.8807 37.1655 35.2211 41.31C37.0026 43.5122 40.6274 42.7698 39.514 38.8233V38.811Z" fill="#B6DBF7"/>
<defs>
<linearGradient id="paint0_linear_1_22854" x1="35.0614" y1="304.993" x2="35.0614" y2="30.6289" gradientUnits="userSpaceOnUse">
<stop stop-color="#9CB2DF"/>
<stop offset="1" stop-color="#E6F0FF"/>
</linearGradient>
<linearGradient id="paint1_linear_1_22854" x1="50.3029" y1="195.395" x2="50.3029" y2="179.844" gradientUnits="userSpaceOnUse">
<stop stop-color="#9CB2DF"/>
<stop offset="1" stop-color="#E6F0FF"/>
</linearGradient>
<linearGradient id="paint2_linear_1_22854" x1="44.2404" y1="168.946" x2="44.2404" y2="153.395" gradientUnits="userSpaceOnUse">
<stop stop-color="#9CB2DF"/>
<stop offset="1" stop-color="#E6F0FF"/>
</linearGradient>
<linearGradient id="paint3_linear_1_22854" x1="38.1772" y1="142.496" x2="38.1772" y2="126.945" gradientUnits="userSpaceOnUse">
<stop stop-color="#9CB2DF"/>
<stop offset="1" stop-color="#E6F0FF"/>
</linearGradient>
<linearGradient id="paint4_linear_1_22854" x1="32.1167" y1="116.044" x2="32.1167" y2="100.48" gradientUnits="userSpaceOnUse">
<stop stop-color="#9CB2DF"/>
<stop offset="1" stop-color="#E6F0FF"/>
</linearGradient>
<linearGradient id="paint5_linear_1_22854" x1="43.9792" y1="59.5581" x2="35.183" y2="69.579" gradientUnits="userSpaceOnUse">
<stop stop-color="#F5F9FD"/>
<stop offset="1" stop-color="#DBF1FF"/>
</linearGradient>
<linearGradient id="paint6_linear_1_22854" x1="44.7727" y1="75.2975" x2="56.835" y2="76.7573" gradientUnits="userSpaceOnUse">
<stop stop-color="#F5F9FD"/>
<stop offset="1" stop-color="#DBF1FF"/>
</linearGradient>
<linearGradient id="paint7_linear_1_22854" x1="42.9781" y1="90.0033" x2="55.0404" y2="91.4755" gradientUnits="userSpaceOnUse">
<stop stop-color="#F5F9FD"/>
<stop offset="1" stop-color="#DBF1FF"/>
</linearGradient>
<linearGradient id="paint8_linear_1_22854" x1="38.4632" y1="47.8021" x2="58.8143" y2="47.8021" gradientUnits="userSpaceOnUse">
<stop stop-color="#ABCCF7"/>
<stop offset="1" stop-color="#7784EB"/>
</linearGradient>
<linearGradient id="paint9_linear_1_22854" x1="39.2048" y1="117.23" x2="50.797" y2="117.23" gradientUnits="userSpaceOnUse">
<stop stop-color="#445DCF"/>
<stop offset="1" stop-color="#6A7FFF"/>
</linearGradient>
<linearGradient id="paint10_linear_1_22854" x1="26.0665" y1="89.5823" x2="26.0665" y2="74.0312" gradientUnits="userSpaceOnUse">
<stop stop-color="#9CB2DF"/>
<stop offset="1" stop-color="#E6F0FF"/>
</linearGradient>
<linearGradient id="paint11_linear_1_22854" x1="19.15" y1="99.2808" x2="30.4576" y2="99.2808" gradientUnits="userSpaceOnUse">
<stop stop-color="#445DCF"/>
<stop offset="1" stop-color="#6A7FFF"/>
</linearGradient>
<linearGradient id="paint12_linear_1_22854" x1="62.5249" y1="249.496" x2="62.5249" y2="233.945" gradientUnits="userSpaceOnUse">
<stop stop-color="#9CB2DF"/>
<stop offset="1" stop-color="#E6F0FF"/>
</linearGradient>
<linearGradient id="paint13_linear_1_22854" x1="56.4624" y1="223.044" x2="56.4624" y2="207.48" gradientUnits="userSpaceOnUse">
<stop stop-color="#9CB2DF"/>
<stop offset="1" stop-color="#E6F0FF"/>
</linearGradient>
<linearGradient id="paint14_linear_1_22854" x1="20.004" y1="63.1331" x2="20.004" y2="47.582" gradientUnits="userSpaceOnUse">
<stop stop-color="#9CB2DF"/>
<stop offset="1" stop-color="#E6F0FF"/>
</linearGradient>
<linearGradient id="paint15_linear_1_22854" x1="60.4598" y1="314.04" x2="60.4598" y2="39.6641" gradientUnits="userSpaceOnUse">
<stop stop-color="#9CB2DF"/>
<stop offset="1" stop-color="#E6F0FF"/>
</linearGradient>
<linearGradient id="paint16_linear_1_22854" x1="14.77" y1="18.0725" x2="30.4448" y2="18.0725" gradientUnits="userSpaceOnUse">
<stop stop-color="#445DCF"/>
<stop offset="1" stop-color="#6A7FFF"/>
</linearGradient>
<linearGradient id="paint17_linear_1_22854" x1="21.0553" y1="17.8996" x2="31.0886" y2="7.87867" gradientUnits="userSpaceOnUse">
<stop stop-color="white"/>
<stop offset="0.22" stop-color="#FAFAFD"/>
<stop offset="0.47" stop-color="#ECEDF9"/>
<stop offset="0.73" stop-color="#D4D7F2"/>
<stop offset="1" stop-color="#B6BAE9"/>
</linearGradient>
<linearGradient id="paint18_linear_1_22854" x1="26.5114" y1="0.79178" x2="26.5114" y2="19.8316" gradientUnits="userSpaceOnUse">
<stop stop-color="#445DCF"/>
<stop offset="1" stop-color="#6A7FFF"/>
</linearGradient>
<linearGradient id="paint19_linear_1_22854" x1="26.4977" y1="16.9617" x2="45.5375" y2="16.9617" gradientUnits="userSpaceOnUse">
<stop stop-color="#00D0FF"/>
<stop offset="1" stop-color="#007FD9"/>
</linearGradient>
<linearGradient id="paint20_linear_1_22854" x1="24.9401" y1="20.4784" x2="37.1509" y2="20.4784" gradientUnits="userSpaceOnUse">
<stop stop-color="#00D0FF"/>
<stop offset="1" stop-color="#007FD9"/>
</linearGradient>
<linearGradient id="paint21_linear_1_22854" x1="35.8625" y1="30.5981" x2="37.8296" y2="30.5981" gradientUnits="userSpaceOnUse">
<stop stop-color="#3BA2A9"/>
<stop offset="1" stop-color="#00E7D5"/>
</linearGradient>
<linearGradient id="paint22_linear_1_22854" x1="36.1111" y1="26.5665" x2="37.5833" y2="26.5665" gradientUnits="userSpaceOnUse">
<stop stop-color="#3BA2A9"/>
<stop offset="1" stop-color="#00E7D5"/>
</linearGradient>
</defs>
</svg>
