<svg width="49" height="171" viewBox="0 0 49 171" fill="none" xmlns="http://www.w3.org/2000/svg">
<path d="M9.4643 33.4644C10.0829 34.7139 11.5427 34.3428 11.9262 35.8769C12.2603 37.213 12.0005 39.6749 11.9262 40.343C11.8644 41.0111 12.4829 43.6957 12.4829 43.6957C12.4829 43.6957 9.31578 44.4627 9.24155 44.2029C9.16732 43.9431 8.73432 42.2111 8.23945 41.7533C7.75696 41.2956 7.10128 39.8976 7.08891 39.477C7.03942 38.1037 5.87652 36.9779 6.73016 36.8666C7.39822 36.78 7.757 37.7078 7.96732 38.1656C8.05392 38.3388 8.17759 38.8213 8.38791 38.5244C8.96937 37.7202 8.38792 33.3283 8.78381 33.0561C9.1797 32.7716 9.35293 33.2912 9.43953 33.4768L9.4643 33.4644Z" fill="#B6DBF7"/>
<path d="M9.46456 33.4651C10.0831 34.7146 11.543 34.3435 11.9265 35.8775C12.2605 37.2137 12.0007 39.6756 11.9265 40.3437C11.8646 41.0117 12.4832 43.6963 12.4832 43.6963C12.4832 43.6963 12.0873 43.7953 11.5677 43.9067C11.4811 43.1272 9.78619 41.8653 9.7367 41.5313C9.5635 40.356 11.778 41.2344 11.8027 37.7456C11.8027 36.261 10.2068 36.3476 9.72432 35.0734C9.66246 34.9002 9.53879 34.3805 9.15527 34.5661C8.77175 34.7517 8.95731 38.8962 8.36348 39.5271C8.1779 39.7251 8.09128 39.4034 8.02942 39.1931C8.06653 38.9085 8.06655 38.6116 8.0418 38.29C8.1284 38.4879 8.23972 38.7477 8.40055 38.5127C8.98201 37.7085 8.40056 33.3166 8.79645 33.0444C9.19234 32.7599 9.36558 33.2795 9.45218 33.4651H9.46456Z" fill="#ACCBE3"/>
<path d="M14.5976 58.8275C14.6966 62.7617 9.89643 65.6071 8.27575 59.4956C6.65508 53.384 7.70663 42.0146 7.70663 42.0146C10.9604 40.431 13.0017 42.3239 13.0017 42.3239C13.0017 42.3239 14.4244 52.3448 14.5976 58.8275Z" fill="url(#paint0_linear_1_25092)"/>
<path d="M26.8708 70.7145C29.0111 73.0774 27.774 76.1085 25.6955 76.4549C23.6419 76.7889 20.2892 77.1477 15.3282 71.3454C10.3672 65.5432 9.31553 62.0173 9.08047 60.8048C8.77118 59.246 9.12996 53.7407 14.8085 58.6522C20.9077 63.9348 26.2027 69.9845 26.8708 70.7145Z" fill="url(#paint1_linear_1_25092)"/>
<path d="M37.6093 166.543C41.061 165.467 41.1723 162.04 41.1723 162.04L46.1828 159.133C46.1828 159.133 46.3931 163.574 46.9127 164.515C48.1993 166.84 46.4673 168.597 44.1167 168.944C42.2362 169.228 36.335 171.801 34.2442 169.995C32.7101 168.659 35.0732 167.335 37.6093 166.543Z" fill="url(#paint2_linear_1_25092)"/>
<path d="M19.2135 156.401C22.4919 155.609 22.591 153.098 22.591 153.098L27.7993 153.667C27.7993 153.667 27.8488 154.867 27.8736 155.894C27.9354 157.688 29.0366 160.545 24.0756 160.199C18.7805 159.828 15.6134 161.424 13.8937 159.655C12.0504 157.762 15.935 157.205 19.2135 156.401Z" fill="url(#paint3_linear_1_25092)"/>
<path d="M27.4406 128.071C28.3561 130.372 28.3932 154.212 28.3932 154.212C25.6591 155.734 21.3414 154.942 21.3414 154.942C21.1558 154.101 17.5557 131.807 17.2588 129.16C16.7887 125.052 26.5251 125.782 27.4406 128.071Z" fill="url(#paint4_linear_1_25092)"/>
<path d="M25.7565 96.9297C25.7565 96.9297 37.9796 97.0906 38.7219 99.0453C39.192 100.282 41.1096 103.784 37.9549 109.722C34.8125 115.673 28.5153 127.24 27.0184 130.234C23.2203 137.781 16.5645 133.092 17.2573 127.574C17.9377 122.044 25.7565 96.9297 25.7565 96.9297Z" fill="url(#paint5_linear_1_25092)"/>
<path d="M42.3721 136.967C43.535 139.144 47.1104 162.353 47.1104 162.353C44.5619 164.16 40.1823 163.85 40.1823 163.85C39.9101 163.034 34.7512 144.934 33.2171 139.652C32.0665 135.68 41.2215 134.79 42.3845 136.967H42.3721Z" fill="url(#paint6_linear_1_25092)"/>
<path d="M45.886 103.7C46.7644 104.702 48.2119 108.005 47.3583 114.686C46.517 121.366 42.954 134.084 42.8551 138.489C42.719 144.662 34.5043 145.058 33.1929 139.639C31.8815 134.233 32.3516 102.821 32.3516 102.821C32.3516 102.821 44.5005 102.129 45.8737 103.687L45.886 103.7Z" fill="url(#paint7_linear_1_25092)"/>
<path d="M33.4765 67.1027C37.1756 67.1646 37.1756 67.8079 36.9529 68.3647C36.7303 68.9214 36.9777 70.3936 35.7776 70.5792C34.59 70.7647 27.1423 72.3112 26.3257 71.9153C25.5092 71.5318 26.7093 69.5523 26.7093 69.5523C26.7093 69.5523 29.7774 67.0409 33.4765 67.1027Z" fill="url(#paint8_linear_1_25092)"/>
<path d="M27.5875 70.2083C31.8186 69.3299 34.8868 69.8372 34.8868 69.8372C34.8868 69.8372 39.4271 69.6268 42.854 73.6476C46.281 77.6684 46.0335 105.888 46.8253 108.845C46.8253 108.845 33.7857 109.773 24.8039 105.876C24.8039 105.876 23.7895 81.4417 23.3812 79.4746C23.0224 77.755 23.3564 71.0867 27.5999 70.2083H27.5875Z" fill="white"/>
<path d="M27.5875 70.2065C29.3195 69.8477 30.8412 69.724 32.0536 69.6993C31.4103 70.5529 30.4577 71.1715 29.901 72.1241C29.0102 73.6334 29.1587 75.217 28.9113 76.8624C28.6391 78.681 27.971 80.3141 28.1195 82.1945C28.2556 83.8647 28.8865 85.1513 29.8391 86.4875C31.2495 88.4669 33.6372 90.6072 36.0621 89.9392L37.7693 98.1291C35.7775 97.9559 33.8352 97.5105 31.8805 98.3394C29.8639 99.1931 29.802 101.803 30.9773 103.3C32.7712 105.602 34.0083 106.789 37.0146 107.371C37.1631 107.395 37.3115 107.42 37.46 107.445C33.5135 107.804 28.8247 107.643 24.8039 105.886C24.8039 105.886 23.7895 81.4523 23.3812 79.4852C23.0224 77.7655 23.3564 71.0973 27.5999 70.2189L27.5875 70.2065Z" fill="url(#paint9_linear_1_25092)"/>
<path d="M32.7216 65.1364C32.5237 67.8334 35.2454 69.8623 35.2454 69.8623C34.6268 71.3346 32.0907 72.3243 30.3339 72.4232C28.5771 72.5222 27.4637 70.1593 27.4637 70.1593C26.8204 67.0787 32.9196 62.4518 32.7216 65.124V65.1364Z" fill="#ACCBE3"/>
<path d="M31.8933 59.3342C33.0315 62.0807 32.8335 63.6272 32.6109 64.8891C32.2521 66.9922 30.285 70.4315 28.1695 70.0604C26.0663 69.6892 24.5075 67.982 24.0621 66.2004C23.6291 64.4189 23.2703 64.5303 22.8497 63.5777C22.429 62.6127 22.6888 60.757 22.6888 60.757C24.8415 55.2887 30.7428 56.5877 31.881 59.3342H31.8933Z" fill="#B6DBF7"/>
<path d="M30.1241 55.3005C30.1241 55.3005 28.5653 55.5355 27.6993 58.7892C26.8457 62.043 24.7548 60.113 22.9238 61.6594C21.0928 63.2059 22.3548 64.2822 22.3548 64.2822C22.3548 64.2822 19.398 63.0203 21.0805 59.3707C22.763 55.7211 26.4621 52.0467 30.1241 55.3005Z" fill="#0089FF"/>
<path d="M30.1234 55.2989C30.1234 55.2989 32.1771 54.1607 33.2658 57.3525C34.3669 60.5444 33.2782 60.8413 33.7359 63.0063C33.7359 63.0063 31.1008 63.3404 29.3811 62.1403C27.6615 60.9279 27.513 60.0248 27.3274 59.2454C27.1418 58.4536 29.3811 54.804 30.111 55.3112L30.1234 55.2989Z" fill="#0089FF"/>
<path d="M32.277 61.9786C33.0688 61.7435 33.341 62.09 33.539 63.4013C33.7493 64.7127 33.007 65.2199 32.8833 65.554C32.7472 65.888 32.2771 66.086 31.6462 65.0096C31.0152 63.9333 31.3121 62.9188 31.3121 62.9188C31.3121 62.9188 31.4853 62.2137 32.2647 61.991L32.277 61.9786Z" fill="#B6DBF7"/>
<path d="M33.2795 67.6351L32.9579 66.9052C33.7373 66.633 35.7661 66.9051 36.3847 67.2021C37.8941 67.932 36.2734 68.9093 40.5169 71.1486C44.1665 73.0662 44.5005 74.6374 44.983 76.9137C46.7769 85.5615 45.75 87.7141 47.1356 94.0483C48.5212 100.395 48.8553 109.971 48.8553 109.971C44.5005 114.375 35.0857 112.878 35.0857 112.878C35.0857 112.878 35.4569 106.024 34.8383 101.422C34.1207 96.1144 32.5743 75.7261 32.5743 75.7261C32.8465 73.6105 35.7291 70.6908 36.4095 68.8598C37.1023 67.0165 33.2671 67.6351 33.2671 67.6351H33.2795Z" fill="url(#paint10_linear_1_25092)"/>
<path d="M15.0817 41.3087C12.6321 41.3087 10.6156 41.9521 10.3681 42.781C10.2073 43.2635 10.1331 43.7707 10.1331 44.3027C10.1331 47.0368 12.3476 49.2513 15.0817 49.2513C17.8158 49.2513 20.0303 47.0368 20.0303 44.3027C20.0303 43.7707 19.9437 43.2635 19.7829 42.781C19.5354 41.9644 17.5189 41.3087 15.0817 41.3087Z" fill="url(#paint11_radial_1_25092)"/>
<path d="M5.77759 39.5236C5.80233 39.8824 6.19823 41.8619 7.02713 42.9877C8.40037 44.8558 10.5036 45.8331 12.5325 46.2785C16.8007 47.2064 24.2731 45.6104 24.4463 39.1525C19.8936 43.198 9.61278 42.864 5.78997 39.5236H5.77759Z" fill="url(#paint12_linear_1_25092)"/>
<path d="M21.3784 33.6732C19.634 32.8443 13.1266 31.4958 8.70994 33.7969C7.31196 34.5268 5.04797 35.9619 5.85212 39.9208C6.23564 41.789 8.33882 43.6447 10.5162 44.7581C12.5575 45.7973 15.8484 45.6118 17.0979 45.4262C18.4464 45.2159 19.6835 44.8571 20.7228 44.288C21.997 43.6076 23.2837 42.7045 23.9765 41.2322C25.2508 38.5352 23.729 34.799 21.3784 33.6732Z" fill="url(#paint13_linear_1_25092)"/>
<path d="M4.65259 37.5471C4.67733 37.9059 5.12271 39.8853 6.05058 41.0111C7.59702 42.8792 9.94761 43.8566 12.224 44.302C17.0118 45.2422 25.3873 43.6339 25.5852 37.1759C20.4882 41.2214 8.95789 40.8874 4.65259 37.5471Z" fill="url(#paint14_radial_1_25092)"/>
<path d="M4.65259 37.1916C4.67733 37.5504 5.12271 39.5298 6.05058 40.6557C7.59702 42.5238 9.94761 43.5011 12.224 43.9465C17.0118 44.8867 25.3873 43.2784 25.5852 36.8205C20.4882 40.866 8.95789 40.5319 4.65259 37.1916Z" fill="url(#paint15_linear_1_25092)"/>
<path d="M22.1452 31.349C20.1905 30.5201 12.8912 29.1716 7.94262 31.4727C6.37143 32.2026 3.8353 33.6377 4.73843 37.5966C5.15906 39.4648 7.522 41.3205 9.97157 42.4339C12.2603 43.4731 15.9471 43.2876 17.3451 43.102C18.8668 42.8917 20.2523 42.5329 21.4153 41.9638C22.838 41.2834 24.2855 40.3802 25.0773 38.908C26.5124 36.211 24.805 32.4748 22.1575 31.349H22.1452Z" fill="url(#paint16_linear_1_25092)"/>
<path d="M4.11743 35.0276C4.14217 35.3863 4.6123 37.3658 5.58965 38.4916C7.21033 40.3597 9.68464 41.337 12.0847 41.7824C17.1199 42.7227 25.9285 41.1144 26.1264 34.6564C20.7695 38.7019 8.64536 38.3679 4.12974 35.0276H4.11743Z" fill="url(#paint17_radial_1_25092)"/>
<path d="M4.11743 34.7033C4.14217 35.0621 4.6123 37.0415 5.58965 38.1674C7.21033 40.0355 9.68464 41.0128 12.0847 41.4582C17.1199 42.3984 25.9285 40.7901 26.1264 34.3322C20.7695 38.3777 8.64536 38.0436 4.12974 34.7033H4.11743Z" fill="url(#paint18_linear_1_25092)"/>
<path d="M22.5035 28.8646C20.4499 28.0357 12.7795 26.6872 7.57106 28.9883C5.92564 29.7183 3.25342 31.1534 4.20603 35.1123C4.65141 36.9804 7.13803 38.8361 9.71132 39.9495C12.1114 40.9887 15.9961 40.8032 17.4559 40.6176C19.0519 40.4073 20.5117 40.0485 21.7241 39.4794C23.2211 38.799 24.7428 37.8959 25.5717 36.4236C27.081 33.7266 25.2872 29.9904 22.5159 28.8646H22.5035Z" fill="url(#paint19_linear_1_25092)"/>
<path d="M24.916 30.7057C23.1221 28.6644 19.3982 27.2541 15.0806 27.2541C10.7629 27.2541 7.17515 28.6026 5.34416 30.5944C4.9359 31.0521 4.61422 31.5346 4.40391 32.0418C4.21833 32.4996 4.11938 32.9697 4.11938 33.4522C4.11938 33.613 4.13172 33.7739 4.15646 33.9471C4.21832 34.4419 4.39156 34.9244 4.66374 35.3945C6.09884 37.8565 10.2185 39.6503 15.0806 39.6503C19.9426 39.6503 23.8767 37.9431 25.3984 35.5677C25.6829 35.1347 25.8686 34.677 25.9675 34.1945C26.017 33.9594 26.0417 33.712 26.0417 33.4646C26.0417 33.0192 25.9551 32.5862 25.7943 32.1779C25.6087 31.6707 25.2995 31.1882 24.9036 30.7305L24.916 30.7057Z" fill="url(#paint20_radial_1_25092)"/>
<path d="M24.916 30.2252C23.1221 28.1839 19.3982 26.7736 15.0806 26.7736C10.7629 26.7736 7.17515 28.1221 5.34416 30.1139C4.9359 30.5717 4.61422 31.0541 4.40391 31.5614C4.21833 32.0068 4.11938 32.4892 4.11938 32.9717C4.11938 33.1326 4.13172 33.2934 4.15646 33.4666C4.21832 33.9615 4.39156 34.444 4.66374 34.9141C6.09884 37.376 10.2185 39.1699 15.0806 39.1699C19.9426 39.1699 23.8767 37.4626 25.3984 35.0873C25.6829 34.6543 25.8686 34.1965 25.9675 33.714C26.017 33.479 26.0417 33.2315 26.0417 32.9841C26.0417 32.5387 25.9551 32.1057 25.7943 31.6975C25.6087 31.1902 25.2995 30.7077 24.9036 30.25L24.916 30.2252Z" fill="url(#paint21_linear_1_25092)"/>
<path d="M15.0818 27.5783C9.01972 27.5783 4.80103 30.4114 4.80103 32.9599C4.80103 35.5085 9.01972 38.3415 15.0818 38.3415C21.1439 38.3415 25.3626 35.5085 25.3626 32.9599C25.3626 30.4114 21.1439 27.5783 15.0818 27.5783Z" fill="url(#paint22_linear_1_25092)"/>
<path opacity="0.67" d="M15.8607 0.0126031C15.6133 0.0126031 15.3782 0.000228882 15.1431 0.000228882C6.77997 0.000228882 0.000366211 6.77984 0.000366211 15.143C0.000366211 18.0751 0.829218 20.8092 2.27669 23.1351C4.02108 25.931 4.77577 29.1724 4.85 32.4508C4.88711 33.9478 5.87681 35.4324 7.84389 36.5706C11.8523 38.8964 18.3721 38.8964 22.4052 36.5706C24.3847 35.4324 25.3992 33.9354 25.4363 32.4385C25.5353 29.0858 26.3765 25.8197 28.1085 22.9619C29.6178 20.4628 30.4344 17.4936 30.2612 14.3265C29.853 6.60665 23.3703 0.0126031 15.8607 0.0126031Z" fill="url(#paint23_linear_1_25092)"/>
<g style="mix-blend-mode:screen" opacity="0.55">
<path d="M20.1683 1.76968C19.8467 2.68518 19.525 3.61304 19.2034 4.52854C20.7498 5.24609 22.1107 6.29767 23.2117 7.58431C23.9293 6.96573 24.6344 6.33479 25.3396 5.71621C23.9169 4.05843 22.1601 2.69755 20.1683 1.76968Z" fill="url(#paint24_linear_1_25092)"/>
<path d="M19.0042 5.08609C18.6826 6.00159 18.361 6.92945 18.0393 7.84494C19.0414 8.31506 19.9321 8.99549 20.6373 9.82438C21.3549 9.2058 22.06 8.57486 22.7776 7.95628C21.7507 6.74387 20.4641 5.75415 19.0042 5.08609Z" fill="url(#paint25_linear_1_25092)"/>
<path d="M23.842 8.39881C24.8318 9.77206 25.5246 11.3432 25.8586 13.0134C26.8236 12.9144 27.8009 12.8278 28.7659 12.7289C28.3453 10.5762 27.4298 8.53491 26.1679 6.76578C25.4009 7.31013 24.6214 7.85447 23.842 8.39881Z" fill="url(#paint26_linear_1_25092)"/>
<path d="M21.0569 10.3559C21.7002 11.2466 22.1456 12.2735 22.3683 13.3498C23.3332 13.2508 24.3106 13.1642 25.2756 13.0652C24.9663 11.4941 24.3106 10.0095 23.3827 8.72281C22.6033 9.26716 21.8363 9.81152 21.0569 10.3559Z" fill="url(#paint27_linear_1_25092)"/>
</g>
<path style="mix-blend-mode:screen" d="M15.3524 1.94156C10.4038 1.94156 6.38306 4.11896 6.38306 6.80359C6.38306 9.48822 10.4038 11.6656 15.3524 11.6656C20.3011 11.6656 24.3218 9.48822 24.3218 6.80359C24.3218 4.11896 20.3011 1.94156 15.3524 1.94156Z" fill="url(#paint28_radial_1_25092)"/>
<path style="mix-blend-mode:screen" d="M15.3534 3.10562C11.5306 3.10562 8.43774 4.44174 8.43774 6.07479C8.43774 7.70783 11.5306 9.04397 15.3534 9.04397C19.1762 9.04397 22.2691 7.70783 22.2691 6.07479C22.2691 4.44174 19.1762 3.10562 15.3534 3.10562Z" fill="url(#paint29_radial_1_25092)"/>
<g style="mix-blend-mode:screen">
<path d="M15.3411 12.2111C11.6543 12.2111 8.6604 15.205 8.6604 18.8917V32.1664C8.6604 33.2675 9.55115 34.1706 10.6646 34.1706C11.778 34.1706 12.6688 33.2799 12.6688 32.1664V18.8917C12.6688 17.4071 13.8688 16.2071 15.3534 16.2071C16.838 16.2071 18.0381 17.4071 18.0381 18.8917V32.1664C18.0381 33.2675 18.9288 34.1706 20.0422 34.1706C21.1557 34.1706 22.0464 33.2799 22.0464 32.1664V18.8917C22.0464 15.205 19.0525 12.2111 15.3658 12.2111H15.3411Z" fill="url(#paint30_linear_1_25092)"/>
</g>
<path style="mix-blend-mode:screen" d="M10.727 29.7541C10.1331 29.7541 9.65063 30.2242 9.65063 30.7933C9.65063 31.3624 10.1331 31.8325 10.727 31.8325C11.3208 31.8325 11.8033 31.3624 11.8033 30.7933C11.8033 30.2242 11.3208 29.7541 10.727 29.7541Z" fill="url(#paint31_radial_1_25092)"/>
<path style="mix-blend-mode:screen" d="M10.727 26.2267C10.1331 26.2267 9.65063 26.6845 9.65063 27.2659C9.65063 27.8474 10.1331 28.3051 10.727 28.3051C11.3208 28.3051 11.8033 27.8474 11.8033 27.2659C11.8033 26.6845 11.3208 26.2267 10.727 26.2267Z" fill="url(#paint32_radial_1_25092)"/>
<path style="mix-blend-mode:screen" d="M10.727 22.6916C10.1331 22.6916 9.65063 23.1617 9.65063 23.7308C9.65063 24.2999 10.1331 24.77 10.727 24.77C11.3208 24.77 11.8033 24.3122 11.8033 23.7308C11.8033 23.1493 11.3208 22.6916 10.727 22.6916Z" fill="url(#paint33_radial_1_25092)"/>
<path style="mix-blend-mode:screen" d="M10.727 19.1642C10.1331 19.1642 9.65063 19.6343 9.65063 20.2034C9.65063 20.7725 10.1331 21.2426 10.727 21.2426C11.3208 21.2426 11.8033 20.7725 11.8033 20.2034C11.8033 19.6343 11.3208 19.1642 10.727 19.1642Z" fill="url(#paint34_radial_1_25092)"/>
<path style="mix-blend-mode:screen" d="M11.2094 15.6369C10.6155 15.6369 10.1331 16.0946 10.1331 16.6761C10.1331 17.2575 10.6155 17.7153 11.2094 17.7153C11.8032 17.7153 12.2857 17.2575 12.2857 16.6761C12.2857 16.0946 11.8032 15.6369 11.2094 15.6369Z" fill="url(#paint35_radial_1_25092)"/>
<path style="mix-blend-mode:screen" d="M13.7816 13.5627C13.1878 13.5627 12.7053 14.0204 12.7053 14.6019C12.7053 15.1833 13.1878 15.6411 13.7816 15.6411C14.3755 15.6411 14.858 15.171 14.858 14.6019C14.858 14.0328 14.3755 13.5627 13.7816 13.5627Z" fill="url(#paint36_radial_1_25092)"/>
<path style="mix-blend-mode:screen" d="M19.9809 29.7541C19.3871 29.7541 18.9045 30.2242 18.9045 30.7933C18.9045 31.3624 19.3871 31.8325 19.9809 31.8325C20.5748 31.8325 21.0573 31.3624 21.0573 30.7933C21.0573 30.2242 20.5748 29.7541 19.9809 29.7541Z" fill="url(#paint37_radial_1_25092)"/>
<path style="mix-blend-mode:screen" d="M19.9809 26.2267C19.3871 26.2267 18.9045 26.6845 18.9045 27.2659C18.9045 27.8474 19.3871 28.3051 19.9809 28.3051C20.5748 28.3051 21.0573 27.8474 21.0573 27.2659C21.0573 26.6845 20.5748 26.2267 19.9809 26.2267Z" fill="url(#paint38_radial_1_25092)"/>
<path style="mix-blend-mode:screen" d="M19.9809 22.6916C19.3871 22.6916 18.9045 23.1617 18.9045 23.7308C18.9045 24.2999 19.3871 24.77 19.9809 24.77C20.5748 24.77 21.0573 24.3122 21.0573 23.7308C21.0573 23.1493 20.5748 22.6916 19.9809 22.6916Z" fill="url(#paint39_radial_1_25092)"/>
<path style="mix-blend-mode:screen" d="M19.9809 19.1642C19.3871 19.1642 18.9045 19.6343 18.9045 20.2034C18.9045 20.7725 19.3871 21.2426 19.9809 21.2426C20.5748 21.2426 21.0573 20.7725 21.0573 20.2034C21.0573 19.6343 20.5748 19.1642 19.9809 19.1642Z" fill="url(#paint40_radial_1_25092)"/>
<path style="mix-blend-mode:screen" d="M19.4984 15.6369C18.9046 15.6369 18.4221 16.0946 18.4221 16.6761C18.4221 17.2575 18.9046 17.7153 19.4984 17.7153C20.0923 17.7153 20.5748 17.2575 20.5748 16.6761C20.5748 16.0946 20.0923 15.6369 19.4984 15.6369Z" fill="url(#paint41_radial_1_25092)"/>
<path style="mix-blend-mode:screen" d="M16.9262 13.5627C16.3323 13.5627 15.8499 14.0204 15.8499 14.6019C15.8499 15.1833 16.3323 15.6411 16.9262 15.6411C17.52 15.6411 18.0025 15.171 18.0025 14.6019C18.0025 14.0328 17.52 13.5627 16.9262 13.5627Z" fill="url(#paint42_radial_1_25092)"/>
<path d="M21.9603 74.2273C23.4944 70.6519 24.9047 72.4458 26.7109 69.5508C26.7109 69.5508 26.513 71.5055 27.243 73.151C27.4162 73.5345 27.478 73.9551 27.4161 74.3757C27.1934 75.8356 26.6862 79.3491 26.6615 82.0956C26.6243 85.6586 28.6657 99.0199 28.0595 103.498C27.4532 107.977 27.8986 110.587 27.8986 110.587C27.8986 110.587 26.4511 111.713 21.7747 108.756C21.7747 108.756 22.1953 97.5601 21.9603 89.6299C21.7252 81.7121 20.4386 77.8027 21.9603 74.2273Z" fill="url(#paint43_linear_1_25092)"/>
<path d="M42.7682 70.9733C45.428 74.3878 41.6176 76.5405 39.6753 76.825C33.3287 77.7282 22.8747 61.4224 23.8891 55.88C24.2108 54.1232 26.9325 52.3417 30.8914 56.5852C34.8503 60.8286 42.2114 70.2681 42.7682 70.9857V70.9733Z" fill="white"/>
<path d="M42.7669 70.9742C44.9938 73.8444 42.6927 75.96 40.738 76.6157C41.8143 75.1806 43.9793 73.3248 41.839 72.3598C41.703 72.298 39.34 71.6918 39.2287 71.5928C36.7915 69.3041 37.1131 64.9988 34.5646 62.6853C33.7357 61.9306 32.783 61.7945 31.8923 61.2254C31.3603 60.8914 31.0015 60.446 30.6551 59.9759C30.8283 59.6295 30.9396 59.246 31.0386 58.8254C31.2984 57.6748 30.8284 56.6232 30.0861 55.7696C30.3459 56.0047 30.618 56.2768 30.9025 56.5737C34.8614 60.8172 42.2226 70.2567 42.7793 70.9742H42.7669Z" fill="url(#paint44_linear_1_25092)"/>
<path d="M24.3335 38.4719C24.2964 36.7399 25.3356 36.7027 25.2738 36.9131C25.0758 37.6059 25.3728 37.9275 25.4346 39.2637C25.4841 40.5998 25.3728 42.072 25.3728 42.072L21.3396 42.5669C21.3396 42.5669 20.6963 39.8699 20.6839 39.1523C20.6715 38.4348 20.5726 37.9152 19.9416 37.2718C19.1375 36.4677 20.0654 34.847 20.3499 34.8223C21.6118 34.6986 22.8119 36.579 22.8119 36.579C22.7747 35.6512 21.5252 35.3914 21.5871 34.7109C21.6489 34.0305 22.1191 34.5377 23.0469 35.2676C23.9748 36.0099 24.383 40.2039 24.3459 38.4719H24.3335Z" fill="#B6DBF7"/>
<path d="M31.2256 56.9564C32.438 60.3091 26.5491 64.8 24.3964 59.5173C22.2438 54.2347 20.9943 42.1353 20.9943 42.1353C23.9882 40.1064 26.0666 41.4549 26.0666 41.4549C26.0666 41.4549 29.1842 51.3645 31.2132 56.9564H31.2256Z" fill="white"/>
<path d="M31.2225 56.9561C31.5936 57.9706 31.3091 59.0716 30.6782 59.9995C30.6905 59.7644 30.6782 59.5294 30.6411 59.2696C30.307 57.0427 29.3297 55.1251 28.2038 53.1951C27.3626 51.7353 25.8656 49.7806 25.5192 48.1228C25.2718 46.898 25.8656 45.3392 25.9027 44.0649C25.9275 43.0752 25.8285 42.1102 25.5192 41.2071C25.8656 41.3308 26.0636 41.4545 26.0636 41.4545C26.0636 41.4545 29.1812 51.3641 31.2101 56.9561H31.2225Z" fill="url(#paint45_linear_1_25092)"/>
<defs>
<linearGradient id="paint0_linear_1_25092" x1="13.5736" y1="61.174" x2="8.00426" y2="40.8612" gradientUnits="userSpaceOnUse">
<stop stop-color="#E6F0FF"/>
<stop offset="0.24" stop-color="#E2ECFD"/>
<stop offset="0.47" stop-color="#D6E3F8"/>
<stop offset="0.69" stop-color="#C3D3F0"/>
<stop offset="0.91" stop-color="#A9BDE4"/>
<stop offset="1" stop-color="#9CB2DF"/>
</linearGradient>
<linearGradient id="paint1_linear_1_25092" x1="16.9409" y1="60.6854" x2="10.8316" y2="38.4153" gradientUnits="userSpaceOnUse">
<stop stop-color="#E6F0FF"/>
<stop offset="0.24" stop-color="#E2ECFD"/>
<stop offset="0.47" stop-color="#D6E3F8"/>
<stop offset="0.69" stop-color="#C3D3F0"/>
<stop offset="0.91" stop-color="#A9BDE4"/>
<stop offset="1" stop-color="#9CB2DF"/>
</linearGradient>
<linearGradient id="paint2_linear_1_25092" x1="47.3457" y1="164.873" x2="33.7494" y2="164.873" gradientUnits="userSpaceOnUse">
<stop stop-color="#445DCF"/>
<stop offset="1" stop-color="#6A7FFF"/>
</linearGradient>
<linearGradient id="paint3_linear_1_25092" x1="28.022" y1="156.797" x2="13.4236" y2="156.797" gradientUnits="userSpaceOnUse">
<stop stop-color="#445DCF"/>
<stop offset="1" stop-color="#6A7FFF"/>
</linearGradient>
<linearGradient id="paint4_linear_1_25092" x1="28.3313" y1="99.0102" x2="20.995" y2="155.548" gradientUnits="userSpaceOnUse">
<stop stop-color="#5784FF"/>
<stop offset="1" stop-color="#697CE3"/>
</linearGradient>
<linearGradient id="paint5_linear_1_25092" x1="30.6309" y1="99.3051" x2="23.3069" y2="155.843" gradientUnits="userSpaceOnUse">
<stop stop-color="#5784FF"/>
<stop offset="1" stop-color="#697CE3"/>
</linearGradient>
<linearGradient id="paint6_linear_1_25092" x1="44.0299" y1="106.83" x2="38.9823" y2="163.207" gradientUnits="userSpaceOnUse">
<stop stop-color="#5784FF"/>
<stop offset="1" stop-color="#697CE3"/>
</linearGradient>
<linearGradient id="paint7_linear_1_25092" x1="40.0838" y1="106.483" x2="35.0362" y2="162.848" gradientUnits="userSpaceOnUse">
<stop stop-color="#5784FF"/>
<stop offset="1" stop-color="#697CE3"/>
</linearGradient>
<linearGradient id="paint8_linear_1_25092" x1="37.0272" y1="69.5399" x2="26.0412" y2="69.5399" gradientUnits="userSpaceOnUse">
<stop stop-color="#445DCF"/>
<stop offset="1" stop-color="#6A7FFF"/>
</linearGradient>
<linearGradient id="paint9_linear_1_25092" x1="25.5833" y1="92.2031" x2="34.961" y2="87.5144" gradientUnits="userSpaceOnUse">
<stop stop-color="#E6F0FF"/>
<stop offset="0.24" stop-color="#E2ECFD"/>
<stop offset="0.47" stop-color="#D6E3F8"/>
<stop offset="0.69" stop-color="#C3D3F0"/>
<stop offset="0.91" stop-color="#A9BDE4"/>
<stop offset="1" stop-color="#9CB2DF"/>
</linearGradient>
<linearGradient id="paint10_linear_1_25092" x1="48.8677" y1="89.9534" x2="32.5867" y2="89.9534" gradientUnits="userSpaceOnUse">
<stop stop-color="#3BA2A9"/>
<stop offset="1" stop-color="#00E7D5"/>
</linearGradient>
<radialGradient id="paint11_radial_1_25092" cx="0" cy="0" r="1" gradientUnits="userSpaceOnUse" gradientTransform="translate(15.0817 67.7) scale(5.91361 2.48371)">
<stop stop-color="#003286"/>
<stop offset="1" stop-color="#0085F2"/>
</radialGradient>
<linearGradient id="paint12_linear_1_25092" x1="5.77759" y1="42.8392" x2="24.4339" y2="42.8392" gradientUnits="userSpaceOnUse">
<stop stop-color="#445DCF"/>
<stop offset="1" stop-color="#6A7FFF"/>
</linearGradient>
<linearGradient id="paint13_linear_1_25092" x1="5.67891" y1="39.0548" x2="24.4342" y2="39.0548" gradientUnits="userSpaceOnUse">
<stop stop-color="#445DCF"/>
<stop offset="1" stop-color="#6A7FFF"/>
</linearGradient>
<radialGradient id="paint14_radial_1_25092" cx="0" cy="0" r="1" gradientUnits="userSpaceOnUse" gradientTransform="translate(15.1065 40.8627) scale(7.84356 7.84358)">
<stop stop-color="#003286"/>
<stop offset="1" stop-color="#0085F2"/>
</radialGradient>
<linearGradient id="paint15_linear_1_25092" x1="4.64022" y1="40.5072" x2="25.5729" y2="40.5072" gradientUnits="userSpaceOnUse">
<stop stop-color="#445DCF"/>
<stop offset="1" stop-color="#6A7FFF"/>
</linearGradient>
<linearGradient id="paint16_linear_1_25092" x1="4.54048" y1="36.7183" x2="25.5721" y2="36.7183" gradientUnits="userSpaceOnUse">
<stop stop-color="#445DCF"/>
<stop offset="1" stop-color="#6A7FFF"/>
</linearGradient>
<radialGradient id="paint17_radial_1_25092" cx="0" cy="0" r="1" gradientUnits="userSpaceOnUse" gradientTransform="translate(15.1157 38.3431) scale(8.20234 8.20234)">
<stop stop-color="#003286"/>
<stop offset="1" stop-color="#0085F2"/>
</radialGradient>
<linearGradient id="paint18_linear_1_25092" x1="4.10506" y1="38.0189" x2="26.114" y2="38.0189" gradientUnits="userSpaceOnUse">
<stop stop-color="#445DCF"/>
<stop offset="1" stop-color="#6A7FFF"/>
</linearGradient>
<linearGradient id="paint19_linear_1_25092" x1="3.99572" y1="34.2339" x2="26.116" y2="34.2339" gradientUnits="userSpaceOnUse">
<stop stop-color="#445DCF"/>
<stop offset="1" stop-color="#6A7FFF"/>
</linearGradient>
<radialGradient id="paint20_radial_1_25092" cx="0" cy="0" r="1" gradientUnits="userSpaceOnUse" gradientTransform="translate(15.0806 33.4398) scale(8.90751 8.90751)">
<stop stop-color="#003286"/>
<stop offset="1" stop-color="#0085F2"/>
</radialGradient>
<linearGradient id="paint21_linear_1_25092" x1="4.10701" y1="32.9594" x2="26.0418" y2="32.9594" gradientUnits="userSpaceOnUse">
<stop stop-color="#445DCF"/>
<stop offset="1" stop-color="#6A7FFF"/>
</linearGradient>
<linearGradient id="paint22_linear_1_25092" x1="4.80103" y1="32.9599" x2="25.3502" y2="32.9599" gradientUnits="userSpaceOnUse">
<stop stop-color="#0085F2"/>
<stop offset="1" stop-color="#003286"/>
</linearGradient>
<linearGradient id="paint23_linear_1_25092" x1="26.1167" y1="29.9642" x2="4.96138" y2="8.7964" gradientUnits="userSpaceOnUse">
<stop stop-color="#E6F0FF"/>
<stop offset="1" stop-color="#9CB2DF"/>
</linearGradient>
<linearGradient id="paint24_linear_1_25092" x1="18.659" y1="4.677" x2="29.3109" y2="4.677" gradientUnits="userSpaceOnUse">
<stop stop-color="white"/>
<stop offset="0.04" stop-color="#F3F3F3"/>
<stop offset="0.4" stop-color="#8C8C8C"/>
<stop offset="0.69" stop-color="#404040"/>
<stop offset="0.89" stop-color="#121212"/>
<stop offset="1"/>
</linearGradient>
<linearGradient id="paint25_linear_1_25092" x1="12.8186" y1="7.46142" x2="21.7507" y2="7.46142" gradientUnits="userSpaceOnUse">
<stop stop-color="white"/>
<stop offset="0.04" stop-color="#F3F3F3"/>
<stop offset="0.4" stop-color="#8C8C8C"/>
<stop offset="0.69" stop-color="#404040"/>
<stop offset="0.89" stop-color="#121212"/>
<stop offset="1"/>
</linearGradient>
<linearGradient id="paint26_linear_1_25092" x1="23.3348" y1="9.89578" x2="30.3" y2="9.89578" gradientUnits="userSpaceOnUse">
<stop stop-color="white"/>
<stop offset="0.04" stop-color="#F3F3F3"/>
<stop offset="0.4" stop-color="#8C8C8C"/>
<stop offset="0.69" stop-color="#404040"/>
<stop offset="0.89" stop-color="#121212"/>
<stop offset="1"/>
</linearGradient>
<linearGradient id="paint27_linear_1_25092" x1="16.9248" y1="11.0363" x2="23.8033" y2="11.0363" gradientUnits="userSpaceOnUse">
<stop stop-color="white"/>
<stop offset="0.04" stop-color="#F3F3F3"/>
<stop offset="0.4" stop-color="#8C8C8C"/>
<stop offset="0.69" stop-color="#404040"/>
<stop offset="0.89" stop-color="#121212"/>
<stop offset="1"/>
</linearGradient>
<radialGradient id="paint28_radial_1_25092" cx="0" cy="0" r="1" gradientUnits="userSpaceOnUse" gradientTransform="translate(15.3524 6.80358) scale(7.21262)">
<stop stop-color="white"/>
<stop offset="1"/>
</radialGradient>
<radialGradient id="paint29_radial_1_25092" cx="0" cy="0" r="1" gradientUnits="userSpaceOnUse" gradientTransform="translate(15.3534 6.0748) scale(5.31977 5.31977)">
<stop stop-color="white"/>
<stop offset="1"/>
</radialGradient>
<linearGradient id="paint30_linear_1_25092" x1="15.341" y1="32.7974" x2="15.341" y2="12.0255" gradientUnits="userSpaceOnUse">
<stop/>
<stop offset="1" stop-color="white"/>
</linearGradient>
<radialGradient id="paint31_radial_1_25092" cx="0" cy="0" r="1" gradientUnits="userSpaceOnUse" gradientTransform="translate(10.7146 30.7933) scale(1.05158 1.05159)">
<stop stop-color="white"/>
<stop offset="1"/>
</radialGradient>
<radialGradient id="paint32_radial_1_25092" cx="0" cy="0" r="1" gradientUnits="userSpaceOnUse" gradientTransform="translate(-374.781 27.2536) scale(1.05158 1.05158)">
<stop stop-color="white"/>
<stop offset="1"/>
</radialGradient>
<radialGradient id="paint33_radial_1_25092" cx="0" cy="0" r="1" gradientUnits="userSpaceOnUse" gradientTransform="translate(-374.781 23.7308) scale(1.05158 1.05158)">
<stop stop-color="white"/>
<stop offset="1"/>
</radialGradient>
<radialGradient id="paint34_radial_1_25092" cx="0" cy="0" r="1" gradientUnits="userSpaceOnUse" gradientTransform="translate(-374.781 20.2034) scale(1.05158 1.05159)">
<stop stop-color="white"/>
<stop offset="1"/>
</radialGradient>
<radialGradient id="paint35_radial_1_25092" cx="0" cy="0" r="1" gradientUnits="userSpaceOnUse" gradientTransform="translate(11.2094 16.6637) scale(1.05158 1.05158)">
<stop stop-color="white"/>
<stop offset="1"/>
</radialGradient>
<radialGradient id="paint36_radial_1_25092" cx="0" cy="0" r="1" gradientUnits="userSpaceOnUse" gradientTransform="translate(13.7816 14.6019) scale(1.05158 1.05159)">
<stop stop-color="white"/>
<stop offset="1"/>
</radialGradient>
<radialGradient id="paint37_radial_1_25092" cx="0" cy="0" r="1" gradientUnits="userSpaceOnUse" gradientTransform="translate(19.9809 -153.705) scale(1.05161 1.05159)">
<stop stop-color="white"/>
<stop offset="1"/>
</radialGradient>
<radialGradient id="paint38_radial_1_25092" cx="0" cy="0" r="1" gradientUnits="userSpaceOnUse" gradientTransform="translate(19.9809 27.2536) scale(1.05161 1.05158)">
<stop stop-color="white"/>
<stop offset="1"/>
</radialGradient>
<radialGradient id="paint39_radial_1_25092" cx="0" cy="0" r="1" gradientUnits="userSpaceOnUse" gradientTransform="translate(19.9809 23.7308) scale(1.05161 1.05158)">
<stop stop-color="white"/>
<stop offset="1"/>
</radialGradient>
<radialGradient id="paint40_radial_1_25092" cx="0" cy="0" r="1" gradientUnits="userSpaceOnUse" gradientTransform="translate(19.9809 20.2034) scale(1.05161 1.05159)">
<stop stop-color="white"/>
<stop offset="1"/>
</radialGradient>
<radialGradient id="paint41_radial_1_25092" cx="0" cy="0" r="1" gradientUnits="userSpaceOnUse" gradientTransform="translate(19.4984 16.6637) scale(1.05158 1.05158)">
<stop stop-color="white"/>
<stop offset="1"/>
</radialGradient>
<radialGradient id="paint42_radial_1_25092" cx="0" cy="0" r="1" gradientUnits="userSpaceOnUse" gradientTransform="translate(16.9262 14.6019) scale(1.05158 1.05159)">
<stop stop-color="white"/>
<stop offset="1"/>
</radialGradient>
<linearGradient id="paint43_linear_1_25092" x1="28.1708" y1="90.1742" x2="21.2304" y2="90.1742" gradientUnits="userSpaceOnUse">
<stop stop-color="#3BA2A9"/>
<stop offset="1" stop-color="#00E7D5"/>
</linearGradient>
<linearGradient id="paint44_linear_1_25092" x1="38.1705" y1="68.9125" x2="29.4007" y2="46.4537" gradientUnits="userSpaceOnUse">
<stop stop-color="#E6F0FF"/>
<stop offset="0.24" stop-color="#E2ECFD"/>
<stop offset="0.47" stop-color="#D6E3F8"/>
<stop offset="0.69" stop-color="#C3D3F0"/>
<stop offset="0.91" stop-color="#A9BDE4"/>
<stop offset="1" stop-color="#9CB2DF"/>
</linearGradient>
<linearGradient id="paint45_linear_1_25092" x1="35.74" y1="70.2905" x2="26.7674" y2="47.3275" gradientUnits="userSpaceOnUse">
<stop stop-color="#E6F0FF"/>
<stop offset="0.24" stop-color="#E2ECFD"/>
<stop offset="0.47" stop-color="#D6E3F8"/>
<stop offset="0.69" stop-color="#C3D3F0"/>
<stop offset="0.91" stop-color="#A9BDE4"/>
<stop offset="1" stop-color="#9CB2DF"/>
</linearGradient>
</defs>
</svg>
