<svg width="73" height="110" viewBox="0 0 73 110" fill="none" xmlns="http://www.w3.org/2000/svg">
<path opacity="0.2" fill-rule="evenodd" clip-rule="evenodd" d="M61.8355 73.2666C75.9746 81.3461 75.9746 94.7507 61.8355 102.83C47.6964 111.093 24.7434 111.093 10.6043 102.83C-3.53477 94.7507 -3.53477 81.3461 10.6043 73.2666C24.7434 65.1872 47.6964 65.1872 61.8355 73.2666Z" fill="#E9E9EB"/>
<path opacity="0.2" fill-rule="evenodd" clip-rule="evenodd" d="M56.5032 76.4061C67.7043 82.8329 67.7043 93.2993 56.5032 99.7262C45.3021 106.153 27.307 106.153 16.1059 99.7262C4.90481 93.2993 4.90481 82.8329 16.1059 76.4061C27.307 69.9792 45.3021 69.9792 56.5032 76.4061Z" fill="#DDDEE1"/>
<path opacity="0.2" fill-rule="evenodd" clip-rule="evenodd" d="M51.1729 79.5494C59.436 84.3237 59.436 91.8521 51.1729 96.6263C42.9099 101.401 29.6889 101.401 21.6094 96.6263C13.3463 91.8521 13.3463 84.3237 21.6094 79.5494C29.8725 74.7752 43.0935 74.7752 51.1729 79.5494Z" fill="#D1D2D6"/>
<path fill-rule="evenodd" clip-rule="evenodd" d="M16.6456 29.9656L10.0352 26.1094V78.4424L16.6456 82.2984V29.9656Z" fill="#222F3B"/>
<path fill-rule="evenodd" clip-rule="evenodd" d="M16.6456 29.9656L10.0352 26.1094V78.4424L16.6456 82.2984V29.9656Z" fill="url(#paint0_linear_1_20819)"/>
<path fill-rule="evenodd" clip-rule="evenodd" d="M62.0008 3.67243L55.3903 0L10.0352 26.0746L16.6456 29.9308L62.0008 3.67243Z" fill="#34485C"/>
<path fill-rule="evenodd" clip-rule="evenodd" d="M62.0008 3.67243L55.3903 0L10.0352 26.0746L16.6456 29.9308L62.0008 3.67243Z" fill="url(#paint1_linear_1_20819)"/>
<path fill-rule="evenodd" clip-rule="evenodd" d="M16.6211 29.9303V82.263L61.9763 56.1884V3.67188L56.2839 6.97726L16.6211 29.9303Z" fill="#3D566E"/>
<path fill-rule="evenodd" clip-rule="evenodd" d="M16.6211 29.9303V82.263L61.9763 56.1884V3.67188L56.2839 6.97726L16.6211 29.9303Z" fill="url(#paint2_linear_1_20819)"/>
<path fill-rule="evenodd" clip-rule="evenodd" d="M54.6613 15.2053C54.6613 15.2053 54.2941 14.4708 53.7432 14.6545L53.1924 15.0215L51.3561 16.1235L50.8053 16.4905C50.2544 16.8578 49.8871 17.4087 49.8871 17.9596C49.8871 32.8331 49.8871 42.5652 49.8871 55.7861C49.8871 56.337 50.2544 56.5206 50.8053 56.337L51.3561 55.9699L53.1924 54.8682L53.7432 54.5009C54.2941 54.3173 54.6613 53.5827 54.6613 53.0319C54.6613 39.8109 54.6613 30.0789 54.6613 15.2053ZM40.7059 22.1829L40.155 22.5502L38.3188 23.6519L37.7679 24.0192C37.217 24.2028 36.8498 24.9374 36.8498 25.4882C36.8498 38.7092 36.8498 48.4412 36.8498 63.3148C36.8498 63.8657 37.217 64.0493 37.7679 63.8656L38.3188 63.4983L40.155 62.3966L40.7059 62.0296C41.2568 61.8459 41.624 61.1114 41.624 60.5605C41.624 45.687 41.624 35.9549 41.624 22.734C41.624 22.1831 41.2568 21.9992 40.7059 22.1829ZM27.6686 29.7115L27.1177 30.0788L25.2815 31.1805L24.7306 31.5479C24.1797 31.7315 23.8125 32.466 23.8125 33.0169C23.8125 47.8905 23.8125 57.6225 23.8125 70.8435C23.8125 71.3943 24.1797 71.5779 24.7306 71.3943L25.2815 71.027L27.1177 69.9253L27.6686 69.5579C28.2195 69.3743 28.5867 68.6398 28.5867 68.0889C28.5867 54.868 28.5867 45.1359 28.5867 30.2624C28.5867 29.7115 28.2195 29.5279 27.6686 29.7115Z" fill="#222F3B"/>
<path fill-rule="evenodd" clip-rule="evenodd" d="M54.6613 15.2053C54.6613 15.2053 54.2941 14.4708 53.7432 14.6545L53.1924 15.0215L51.3561 16.1235L50.8053 16.4905C50.2544 16.8578 49.8871 17.4087 49.8871 17.9596C49.8871 32.8331 49.8871 42.5652 49.8871 55.7861C49.8871 56.337 50.2544 56.5206 50.8053 56.337L51.3561 55.9699L53.1924 54.8682L53.7432 54.5009C54.2941 54.3173 54.6613 53.5827 54.6613 53.0319C54.6613 39.8109 54.6613 30.0789 54.6613 15.2053ZM40.7059 22.1829L40.155 22.5502L38.3188 23.6519L37.7679 24.0192C37.217 24.2028 36.8498 24.9374 36.8498 25.4882C36.8498 38.7092 36.8498 48.4412 36.8498 63.3148C36.8498 63.8657 37.217 64.0493 37.7679 63.8656L38.3188 63.4983L40.155 62.3966L40.7059 62.0296C41.2568 61.8459 41.624 61.1114 41.624 60.5605C41.624 45.687 41.624 35.9549 41.624 22.734C41.624 22.1831 41.2568 21.9992 40.7059 22.1829ZM27.6686 29.7115L27.1177 30.0788L25.2815 31.1805L24.7306 31.5479C24.1797 31.7315 23.8125 32.466 23.8125 33.0169C23.8125 47.8905 23.8125 57.6225 23.8125 70.8435C23.8125 71.3943 24.1797 71.5779 24.7306 71.3943L25.2815 71.027L27.1177 69.9253L27.6686 69.5579C28.2195 69.3743 28.5867 68.6398 28.5867 68.0889C28.5867 54.868 28.5867 45.1359 28.5867 30.2624C28.5867 29.7115 28.2195 29.5279 27.6686 29.7115Z" fill="url(#paint3_linear_1_20819)"/>
<path fill-rule="evenodd" clip-rule="evenodd" d="M28.3875 61.3636L25.6331 63.0162L23.9805 62.8327V61.1801L28.3875 58.6094V61.3636Z" fill="#0B0B0F"/>
<path fill-rule="evenodd" clip-rule="evenodd" d="M25.4629 31.06V66.6832L28.5845 68.5192C28.5845 68.5192 28.5845 68.5193 28.5845 68.3357V30.3254C28.5845 30.3254 28.2173 29.5911 27.6664 29.9583L27.1155 30.3254L25.2793 31.4271L25.4629 31.06Z" fill="#2C3E50"/>
<path fill-rule="evenodd" clip-rule="evenodd" d="M25.4629 31.06V66.6832L28.5845 68.5192C28.5845 68.5192 28.5845 68.5193 28.5845 68.3357V30.3254C28.5845 30.3254 28.2173 29.5911 27.6664 29.9583L27.1155 30.3254L25.2793 31.4271L25.4629 31.06Z" fill="url(#paint4_linear_1_20819)"/>
<path fill-rule="evenodd" clip-rule="evenodd" d="M38.4727 23.5053V59.1285L41.5943 60.9645C41.5943 60.9645 41.5943 60.9646 41.5943 60.781V22.7709C41.5943 22.7709 41.227 22.0364 40.6762 22.4036L40.1253 22.7709L38.2891 23.8726L38.4727 23.5053Z" fill="#2C3E50"/>
<path fill-rule="evenodd" clip-rule="evenodd" d="M38.4727 23.5053V59.1285L41.5943 60.9645C41.5943 60.9645 41.5943 60.9646 41.5943 60.781V22.7709C41.5943 22.7709 41.227 22.0364 40.6762 22.4036L40.1253 22.7709L38.2891 23.8726L38.4727 23.5053Z" fill="url(#paint5_linear_1_20819)"/>
<path fill-rule="evenodd" clip-rule="evenodd" d="M51.5273 15.9936V51.6167L54.649 53.4531C54.649 53.4531 54.649 53.4529 54.649 53.2693V15.2592C54.649 15.2592 54.2817 14.5246 53.7308 14.8919L53.18 15.2592L51.3438 16.3609L51.5273 15.9936Z" fill="#2C3E50"/>
<path fill-rule="evenodd" clip-rule="evenodd" d="M51.5273 15.9936V51.6167L54.649 53.4531C54.649 53.4531 54.649 53.4529 54.649 53.2693V15.2592C54.649 15.2592 54.2817 14.5246 53.7308 14.8919L53.18 15.2592L51.3438 16.3609L51.5273 15.9936Z" fill="url(#paint6_linear_1_20819)"/>
<path fill-rule="evenodd" clip-rule="evenodd" d="M50.4399 44.466L47.6855 42.8135L57.234 37.3047L59.9884 38.9572L50.4399 44.466Z" fill="#C0392B"/>
<path fill-rule="evenodd" clip-rule="evenodd" d="M50.4399 44.466L47.6855 42.8135L57.234 37.3047L59.9884 38.9572L50.4399 44.466Z" fill="url(#paint7_linear_1_20819)"/>
<path fill-rule="evenodd" clip-rule="evenodd" d="M50.4399 51.2044L47.6855 49.7353V42.7578L50.4399 44.4104V51.2044Z" fill="#C0392B"/>
<path fill-rule="evenodd" clip-rule="evenodd" d="M50.4399 51.2044L47.6855 49.7353V42.7578L50.4399 44.4104V51.2044Z" fill="url(#paint8_linear_1_20819)"/>
<path fill-rule="evenodd" clip-rule="evenodd" d="M37.2212 38.04L34.4668 36.5713L44.0152 31.0625L46.7696 32.5315L37.2212 38.04Z" fill="#F0B11D"/>
<path fill-rule="evenodd" clip-rule="evenodd" d="M37.2212 38.04L34.4668 36.5713L44.0152 31.0625L46.7696 32.5315L37.2212 38.04Z" fill="url(#paint9_linear_1_20819)"/>
<path fill-rule="evenodd" clip-rule="evenodd" d="M37.2212 44.9661L34.4668 43.3135V36.5195L37.2212 37.9883V44.9661Z" fill="#F0B11D"/>
<path fill-rule="evenodd" clip-rule="evenodd" d="M37.2212 44.9661L34.4668 43.3135V36.5195L37.2212 37.9883V44.9661Z" fill="url(#paint10_linear_1_20819)"/>
<path fill-rule="evenodd" clip-rule="evenodd" d="M24.1508 57.2744L21.3965 55.8054L30.945 50.2969L33.6993 51.7656L24.1508 57.2744Z" fill="#C5CCD1"/>
<path fill-rule="evenodd" clip-rule="evenodd" d="M24.1508 57.2744L21.3965 55.8054L30.945 50.2969L33.6993 51.7656L24.1508 57.2744Z" fill="url(#paint11_linear_1_20819)"/>
<path fill-rule="evenodd" clip-rule="evenodd" d="M24.1508 64.2593L21.3965 62.6068V55.8125L24.1508 57.2815V64.2593Z" fill="#C5CCD1"/>
<path fill-rule="evenodd" clip-rule="evenodd" d="M24.1508 64.2593L21.3965 62.6068V55.8125L24.1508 57.2815V64.2593Z" fill="url(#paint12_linear_1_20819)"/>
<path fill-rule="evenodd" clip-rule="evenodd" d="M24.1621 57.3057L33.7106 51.7969V58.7747L24.1621 64.2835V57.3057Z" fill="#E6EAEB"/>
<path fill-rule="evenodd" clip-rule="evenodd" d="M24.1621 57.3057L33.7106 51.7969V58.7747L24.1621 64.2835V57.3057Z" fill="url(#paint13_linear_1_20819)"/>
<path fill-rule="evenodd" clip-rule="evenodd" d="M37.2168 38.0085L46.7653 32.5V39.4775L37.2168 44.9863V38.0085Z" fill="#FFCB05"/>
<path fill-rule="evenodd" clip-rule="evenodd" d="M37.2168 38.0085L46.7653 32.5V39.4775L37.2168 44.9863V38.0085Z" fill="url(#paint14_linear_1_20819)"/>
<path fill-rule="evenodd" clip-rule="evenodd" d="M50.4199 44.4619L59.9684 38.9531V45.7474L50.4199 51.2559V44.4619Z" fill="#E74C3C"/>
<path fill-rule="evenodd" clip-rule="evenodd" d="M50.4199 44.4619L59.9684 38.9531V45.7474L50.4199 51.2559V44.4619Z" fill="url(#paint15_linear_1_20819)"/>
<defs>
<linearGradient id="paint0_linear_1_20819" x1="11.5817" y1="53.7263" x2="16.7051" y2="53.7322" gradientUnits="userSpaceOnUse">
<stop stop-color="#9CB2DF"/>
<stop offset="0.09" stop-color="#A9BDE4"/>
<stop offset="0.31" stop-color="#C3D3F0"/>
<stop offset="0.53" stop-color="#D6E3F8"/>
<stop offset="0.76" stop-color="#E2ECFD"/>
<stop offset="1" stop-color="#E6F0FF"/>
</linearGradient>
<linearGradient id="paint1_linear_1_20819" x1="22.1924" y1="14.711" x2="62.4564" y2="15.4021" gradientUnits="userSpaceOnUse">
<stop stop-color="#E6F0FF"/>
<stop offset="0.24" stop-color="#E2ECFD"/>
<stop offset="0.47" stop-color="#D6E3F8"/>
<stop offset="0.69" stop-color="#C3D3F0"/>
<stop offset="0.91" stop-color="#A9BDE4"/>
<stop offset="1" stop-color="#9CB2DF"/>
</linearGradient>
<linearGradient id="paint2_linear_1_20819" x1="27.2319" y1="42.2995" x2="62.3831" y2="42.5" gradientUnits="userSpaceOnUse">
<stop stop-color="#9CB2DF"/>
<stop offset="0.09" stop-color="#A9BDE4"/>
<stop offset="0.31" stop-color="#C3D3F0"/>
<stop offset="0.53" stop-color="#D6E3F8"/>
<stop offset="0.76" stop-color="#E2ECFD"/>
<stop offset="1" stop-color="#E6F0FF"/>
</linearGradient>
<linearGradient id="paint3_linear_1_20819" x1="23.8036" y1="43.0441" x2="54.6408" y2="43.0441" gradientUnits="userSpaceOnUse">
<stop stop-color="#4AFFC7"/>
<stop offset="1" stop-color="#3BADEA"/>
</linearGradient>
<linearGradient id="paint4_linear_1_20819" x1="25.2783" y1="49.1874" x2="28.5823" y2="49.1874" gradientUnits="userSpaceOnUse">
<stop stop-color="#4AFFC7"/>
<stop offset="1" stop-color="#3BADEA"/>
</linearGradient>
<linearGradient id="paint5_linear_1_20819" x1="38.2881" y1="41.6326" x2="41.5921" y2="41.6326" gradientUnits="userSpaceOnUse">
<stop stop-color="#4AFFC7"/>
<stop offset="1" stop-color="#3BADEA"/>
</linearGradient>
<linearGradient id="paint6_linear_1_20819" x1="51.3428" y1="34.1211" x2="54.6468" y2="34.1211" gradientUnits="userSpaceOnUse">
<stop stop-color="#4AFFC7"/>
<stop offset="1" stop-color="#3BADEA"/>
</linearGradient>
<linearGradient id="paint7_linear_1_20819" x1="50.5638" y1="40.8245" x2="60.0963" y2="40.9864" gradientUnits="userSpaceOnUse">
<stop stop-color="#9CB2DF"/>
<stop offset="0.09" stop-color="#A9BDE4"/>
<stop offset="0.31" stop-color="#C3D3F0"/>
<stop offset="0.53" stop-color="#D6E3F8"/>
<stop offset="0.76" stop-color="#E2ECFD"/>
<stop offset="1" stop-color="#E6F0FF"/>
</linearGradient>
<linearGradient id="paint8_linear_1_20819" x1="48.3299" y1="46.9093" x2="50.4647" y2="46.9162" gradientUnits="userSpaceOnUse">
<stop stop-color="#9CB2DF"/>
<stop offset="0.09" stop-color="#A9BDE4"/>
<stop offset="0.31" stop-color="#C3D3F0"/>
<stop offset="0.53" stop-color="#D6E3F8"/>
<stop offset="0.76" stop-color="#E2ECFD"/>
<stop offset="1" stop-color="#E6F0FF"/>
</linearGradient>
<linearGradient id="paint9_linear_1_20819" x1="37.345" y1="34.492" x2="46.8774" y2="34.6581" gradientUnits="userSpaceOnUse">
<stop stop-color="#9CB2DF"/>
<stop offset="0.09" stop-color="#A9BDE4"/>
<stop offset="0.31" stop-color="#C3D3F0"/>
<stop offset="0.53" stop-color="#D6E3F8"/>
<stop offset="0.76" stop-color="#E2ECFD"/>
<stop offset="1" stop-color="#E6F0FF"/>
</linearGradient>
<linearGradient id="paint10_linear_1_20819" x1="35.1112" y1="40.671" x2="37.2459" y2="40.6779" gradientUnits="userSpaceOnUse">
<stop stop-color="#9CB2DF"/>
<stop offset="0.09" stop-color="#A9BDE4"/>
<stop offset="0.31" stop-color="#C3D3F0"/>
<stop offset="0.53" stop-color="#D6E3F8"/>
<stop offset="0.76" stop-color="#E2ECFD"/>
<stop offset="1" stop-color="#E6F0FF"/>
</linearGradient>
<linearGradient id="paint11_linear_1_20819" x1="24.2747" y1="53.7263" x2="33.8071" y2="53.8925" gradientUnits="userSpaceOnUse">
<stop stop-color="#9CB2DF"/>
<stop offset="0.09" stop-color="#A9BDE4"/>
<stop offset="0.31" stop-color="#C3D3F0"/>
<stop offset="0.53" stop-color="#D6E3F8"/>
<stop offset="0.76" stop-color="#E2ECFD"/>
<stop offset="1" stop-color="#E6F0FF"/>
</linearGradient>
<linearGradient id="paint12_linear_1_20819" x1="22.0409" y1="59.9641" x2="24.1756" y2="59.971" gradientUnits="userSpaceOnUse">
<stop stop-color="#9CB2DF"/>
<stop offset="0.09" stop-color="#A9BDE4"/>
<stop offset="0.31" stop-color="#C3D3F0"/>
<stop offset="0.53" stop-color="#D6E3F8"/>
<stop offset="0.76" stop-color="#E2ECFD"/>
<stop offset="1" stop-color="#E6F0FF"/>
</linearGradient>
<linearGradient id="paint13_linear_1_20819" x1="26.396" y1="57.934" x2="33.796" y2="57.99" gradientUnits="userSpaceOnUse">
<stop stop-color="#9CB2DF"/>
<stop offset="0.09" stop-color="#A9BDE4"/>
<stop offset="0.31" stop-color="#C3D3F0"/>
<stop offset="0.53" stop-color="#D6E3F8"/>
<stop offset="0.76" stop-color="#E2ECFD"/>
<stop offset="1" stop-color="#E6F0FF"/>
</linearGradient>
<linearGradient id="paint14_linear_1_20819" x1="39.4506" y1="38.637" x2="46.8507" y2="38.693" gradientUnits="userSpaceOnUse">
<stop stop-color="#9CB2DF"/>
<stop offset="0.09" stop-color="#A9BDE4"/>
<stop offset="0.31" stop-color="#C3D3F0"/>
<stop offset="0.53" stop-color="#D6E3F8"/>
<stop offset="0.76" stop-color="#E2ECFD"/>
<stop offset="1" stop-color="#E6F0FF"/>
</linearGradient>
<linearGradient id="paint15_linear_1_20819" x1="52.6538" y1="45" x2="60.0538" y2="45.0567" gradientUnits="userSpaceOnUse">
<stop stop-color="#9CB2DF"/>
<stop offset="0.09" stop-color="#A9BDE4"/>
<stop offset="0.31" stop-color="#C3D3F0"/>
<stop offset="0.53" stop-color="#D6E3F8"/>
<stop offset="0.76" stop-color="#E2ECFD"/>
<stop offset="1" stop-color="#E6F0FF"/>
</linearGradient>
</defs>
</svg>
