<svg width="39" height="26" viewBox="0 0 39 26" fill="none" xmlns="http://www.w3.org/2000/svg">
<mask id="path-1-inside-1_1_21009" fill="white">
<path d="M10.9656 4.71045C11.6395 5.38442 11.6395 6.47788 10.9656 7.15186L6.95579 11.1616C6.28184 11.8352 5.18924 11.8354 4.51536 11.1616L0.505593 7.15186C-0.168384 6.47788 -0.168384 5.38442 0.505593 4.71045L4.51536 0.700684C5.18925 0.0269535 6.28184 0.0270552 6.95579 0.700684L10.9656 4.71045ZM17.8093 11.4214C18.4833 12.0954 18.4833 13.1888 17.8093 13.8628L13.7995 17.8726C13.1256 18.5462 12.033 18.5463 11.3591 17.8726L7.34934 13.8628C6.67537 13.1888 6.67537 12.0954 7.34934 11.4214L11.3591 7.41162C12.033 6.73789 13.1256 6.73799 13.7995 7.41162L17.8093 11.4214ZM31.4929 11.4214C32.1669 12.0954 32.1669 13.1888 31.4929 13.8628L27.4831 17.8726C26.8092 18.5462 25.7166 18.5463 25.0427 17.8726L21.0329 13.8628C20.359 13.1888 20.359 12.0954 21.0329 11.4214L25.0427 7.41162C25.7166 6.73789 26.8092 6.73799 27.4831 7.41162L31.4929 11.4214ZM38.2038 4.51514C38.8778 5.18911 38.8778 6.28257 38.2038 6.95654L34.1941 10.9663C33.5201 11.6399 32.4275 11.64 31.7536 10.9663L27.7439 6.95654C27.0699 6.28257 27.0699 5.18911 27.7439 4.51514L31.7536 0.505372C32.4275 -0.168359 33.5201 -0.168256 34.1941 0.505373L38.2038 4.51514Z"/>
</mask>
<path d="M10.9656 4.71045C11.6395 5.38442 11.6395 6.47788 10.9656 7.15186L6.95579 11.1616C6.28184 11.8352 5.18924 11.8354 4.51536 11.1616L0.505593 7.15186C-0.168384 6.47788 -0.168384 5.38442 0.505593 4.71045L4.51536 0.700684C5.18925 0.0269535 6.28184 0.0270552 6.95579 0.700684L10.9656 4.71045ZM17.8093 11.4214C18.4833 12.0954 18.4833 13.1888 17.8093 13.8628L13.7995 17.8726C13.1256 18.5462 12.033 18.5463 11.3591 17.8726L7.34934 13.8628C6.67537 13.1888 6.67537 12.0954 7.34934 11.4214L11.3591 7.41162C12.033 6.73789 13.1256 6.73799 13.7995 7.41162L17.8093 11.4214ZM31.4929 11.4214C32.1669 12.0954 32.1669 13.1888 31.4929 13.8628L27.4831 17.8726C26.8092 18.5462 25.7166 18.5463 25.0427 17.8726L21.0329 13.8628C20.359 13.1888 20.359 12.0954 21.0329 11.4214L25.0427 7.41162C25.7166 6.73789 26.8092 6.73799 27.4831 7.41162L31.4929 11.4214ZM38.2038 4.51514C38.8778 5.18911 38.8778 6.28257 38.2038 6.95654L34.1941 10.9663C33.5201 11.6399 32.4275 11.64 31.7536 10.9663L27.7439 6.95654C27.0699 6.28257 27.0699 5.18911 27.7439 4.51514L31.7536 0.505372C32.4275 -0.168359 33.5201 -0.168256 34.1941 0.505373L38.2038 4.51514Z" fill="url(#paint0_linear_1_21009)"/>
<path d="M10.9656 4.71045L11.0418 4.63418L10.9656 4.71045ZM10.9656 7.15186L10.8893 7.07558L10.9656 7.15186ZM6.95579 11.1616L7.03204 11.2379L7.03206 11.2379L6.95579 11.1616ZM4.51536 11.1616L4.43909 11.2379L4.4391 11.2379L4.51536 11.1616ZM0.505593 7.15186L0.581864 7.07558L0.505593 7.15186ZM0.505593 4.71045L0.581864 4.78672L0.505593 4.71045ZM4.51536 0.700684L4.4391 0.624404L4.43909 0.624413L4.51536 0.700684ZM6.95579 0.700684L7.03206 0.624413L7.03204 0.624394L6.95579 0.700684ZM17.8093 11.4214L17.8856 11.3451L17.8093 11.4214ZM17.8093 13.8628L17.8856 13.9391L17.8093 13.8628ZM13.7995 17.8726L13.8758 17.9488L13.8758 17.9488L13.7995 17.8726ZM11.3591 17.8726L11.2828 17.9488L11.2828 17.9488L11.3591 17.8726ZM7.34934 13.8628L7.27307 13.9391L7.34934 13.8628ZM7.34934 11.4214L7.27307 11.3451L7.34934 11.4214ZM11.3591 7.41162L11.2828 7.33534L11.2828 7.33535L11.3591 7.41162ZM13.7995 7.41162L13.8758 7.33535L13.8758 7.33533L13.7995 7.41162ZM31.4929 11.4214L31.5692 11.3451L31.4929 11.4214ZM27.4831 17.8726L27.5594 17.9488L27.5594 17.9488L27.4831 17.8726ZM25.0427 17.8726L24.9664 17.9488L24.9664 17.9488L25.0427 17.8726ZM21.0329 13.8628L20.9567 13.9391L21.0329 13.8628ZM21.0329 11.4214L20.9567 11.3451L21.0329 11.4214ZM25.0427 7.41162L24.9664 7.33534L24.9664 7.33535L25.0427 7.41162ZM27.4831 7.41162L27.5594 7.33535L27.5594 7.33533L27.4831 7.41162ZM38.2038 4.51514L38.1276 4.59141L38.2038 4.51514ZM38.2038 6.95654L38.2801 7.03282L38.2038 6.95654ZM34.1941 10.9663L34.2703 11.0426L34.2703 11.0426L34.1941 10.9663ZM31.7536 10.9663L31.6774 11.0426L31.6774 11.0426L31.7536 10.9663ZM27.7439 6.95654L27.8201 6.88027L27.7439 6.95654ZM27.7439 4.51514L27.6676 4.43887L27.7439 4.51514ZM31.7536 0.505372L31.6774 0.429092L31.6774 0.429101L31.7536 0.505372ZM34.1941 0.505373L34.2703 0.429101L34.2703 0.429083L34.1941 0.505373ZM10.9656 4.71045L10.8893 4.78672C11.5211 5.41857 11.5211 6.44373 10.8893 7.07558L10.9656 7.15186L11.0418 7.22813C11.7579 6.51203 11.7579 5.35028 11.0418 4.63418L10.9656 4.71045ZM10.9656 7.15186L10.8893 7.07558L6.87952 11.0854L6.95579 11.1616L7.03206 11.2379L11.0418 7.22813L10.9656 7.15186ZM6.95579 11.1616L6.87954 11.0853C6.2477 11.7169 5.22338 11.7169 4.59162 11.0853L4.51536 11.1616L4.4391 11.2379C5.15511 11.9538 6.31598 11.9536 7.03204 11.2379L6.95579 11.1616ZM4.51536 11.1616L4.59163 11.0854L0.581864 7.07558L0.505593 7.15186L0.429322 7.22813L4.43909 11.2379L4.51536 11.1616ZM0.505593 7.15186L0.581864 7.07558C-0.0499869 6.44373 -0.0499869 5.41857 0.581864 4.78672L0.505593 4.71045L0.429322 4.63418C-0.286777 5.35028 -0.286777 6.51203 0.429322 7.22813L0.505593 7.15186ZM0.505593 4.71045L0.581864 4.78672L4.59163 0.776955L4.51536 0.700684L4.43909 0.624413L0.429322 4.63418L0.505593 4.71045ZM4.51536 0.700684L4.59162 0.776964C5.22338 0.145355 6.2477 0.145435 6.87953 0.776973L6.95579 0.700684L7.03204 0.624394C6.31598 -0.0913241 5.15511 -0.0914474 4.4391 0.624404L4.51536 0.700684ZM6.95579 0.700684L6.87952 0.776955L10.8893 4.78672L10.9656 4.71045L11.0418 4.63418L7.03206 0.624413L6.95579 0.700684ZM17.8093 11.4214L17.733 11.4977C18.3649 12.1295 18.3649 13.1547 17.733 13.7865L17.8093 13.8628L17.8856 13.9391C18.6017 13.223 18.6017 12.0612 17.8856 11.3451L17.8093 11.4214ZM17.8093 13.8628L17.733 13.7865L13.7233 17.7963L13.7995 17.8726L13.8758 17.9488L17.8856 13.9391L17.8093 13.8628ZM13.7995 17.8726L13.7233 17.7963C13.0914 18.4278 12.0671 18.4279 11.4354 17.7963L11.3591 17.8726L11.2828 17.9488C11.9989 18.6647 13.1597 18.6646 13.8758 17.9488L13.7995 17.8726ZM11.3591 17.8726L11.4354 17.7963L7.42561 13.7865L7.34934 13.8628L7.27307 13.9391L11.2828 17.9488L11.3591 17.8726ZM7.34934 13.8628L7.42561 13.7865C6.79376 13.1547 6.79376 12.1295 7.42561 11.4977L7.34934 11.4214L7.27307 11.3451C6.55697 12.0612 6.55697 13.223 7.27307 13.9391L7.34934 13.8628ZM7.34934 11.4214L7.42561 11.4977L11.4354 7.48789L11.3591 7.41162L11.2828 7.33535L7.27307 11.3451L7.34934 11.4214ZM11.3591 7.41162L11.4354 7.4879C12.0671 6.85629 13.0914 6.85637 13.7233 7.48791L13.7995 7.41162L13.8758 7.33533C13.1597 6.61961 11.9989 6.61949 11.2828 7.33534L11.3591 7.41162ZM13.7995 7.41162L13.7233 7.48789L17.733 11.4977L17.8093 11.4214L17.8856 11.3451L13.8758 7.33535L13.7995 7.41162ZM31.4929 11.4214L31.4166 11.4977C32.0485 12.1295 32.0485 13.1547 31.4166 13.7865L31.4929 13.8628L31.5692 13.9391C32.2853 13.223 32.2853 12.0612 31.5692 11.3451L31.4929 11.4214ZM31.4929 13.8628L31.4166 13.7865L27.4069 17.7963L27.4831 17.8726L27.5594 17.9488L31.5692 13.9391L31.4929 13.8628ZM27.4831 17.8726L27.4069 17.7963C26.775 18.4278 25.7507 18.4279 25.119 17.7963L25.0427 17.8726L24.9664 17.9488C25.6825 18.6647 26.8433 18.6646 27.5594 17.9488L27.4831 17.8726ZM25.0427 17.8726L25.119 17.7963L21.1092 13.7865L21.0329 13.8628L20.9567 13.9391L24.9664 17.9488L25.0427 17.8726ZM21.0329 13.8628L21.1092 13.7865C20.4774 13.1547 20.4774 12.1295 21.1092 11.4977L21.0329 11.4214L20.9567 11.3451C20.2406 12.0612 20.2406 13.223 20.9567 13.9391L21.0329 13.8628ZM21.0329 11.4214L21.1092 11.4977L25.119 7.48789L25.0427 7.41162L24.9664 7.33535L20.9567 11.3451L21.0329 11.4214ZM25.0427 7.41162L25.119 7.4879C25.7507 6.85629 26.775 6.85637 27.4069 7.48791L27.4831 7.41162L27.5594 7.33533C26.8433 6.61962 25.6825 6.61949 24.9664 7.33534L25.0427 7.41162ZM27.4831 7.41162L27.4069 7.48789L31.4166 11.4977L31.4929 11.4214L31.5692 11.3451L27.5594 7.33535L27.4831 7.41162ZM38.2038 4.51514L38.1276 4.59141C38.7594 5.22326 38.7594 6.24842 38.1276 6.88027L38.2038 6.95654L38.2801 7.03282C38.9962 6.31672 38.9962 5.15497 38.2801 4.43887L38.2038 4.51514ZM38.2038 6.95654L38.1276 6.88027L34.1178 10.89L34.1941 10.9663L34.2703 11.0426L38.2801 7.03282L38.2038 6.95654ZM34.1941 10.9663L34.1178 10.89C33.486 11.5216 32.4617 11.5216 31.8299 10.89L31.7536 10.9663L31.6774 11.0426C32.3934 11.7584 33.5543 11.7583 34.2703 11.0426L34.1941 10.9663ZM31.7536 10.9663L31.8299 10.89L27.8201 6.88027L27.7439 6.95654L27.6676 7.03282L31.6774 11.0426L31.7536 10.9663ZM27.7439 6.95654L27.8201 6.88027C27.1883 6.24842 27.1883 5.22326 27.8201 4.59141L27.7439 4.51514L27.6676 4.43887C26.9515 5.15497 26.9515 6.31672 27.6676 7.03282L27.7439 6.95654ZM27.7439 4.51514L27.8201 4.59141L31.8299 0.581644L31.7536 0.505372L31.6774 0.429101L27.6676 4.43887L27.7439 4.51514ZM31.7536 0.505372L31.8299 0.581652C32.4617 -0.0499581 33.486 -0.0498768 34.1178 0.581662L34.1941 0.505373L34.2703 0.429083C33.5543 -0.286635 32.3934 -0.28676 31.6774 0.429092L31.7536 0.505372ZM34.1941 0.505373L34.1178 0.581644L38.1276 4.59141L38.2038 4.51514L38.2801 4.43887L34.2703 0.429101L34.1941 0.505373Z" fill="#3F3E3E" mask="url(#path-1-inside-1_1_21009)"/>
<rect x="25.858" y="19.5522" width="9.01451" height="9.01451" rx="1.67189" transform="rotate(135 25.858 19.5522)" fill="#FF9E58" stroke="#3F3E3E" stroke-width="0.107864"/>
<defs>
<linearGradient id="paint0_linear_1_21009" x1="25.4917" y1="0.000489746" x2="19.6356" y2="22.4994" gradientUnits="userSpaceOnUse">
<stop stop-color="#3EF4A7"/>
<stop offset="1" stop-color="#096EE0"/>
</linearGradient>
</defs>
</svg>
