<svg width="70" height="104" viewBox="0 0 70 104" fill="none" xmlns="http://www.w3.org/2000/svg">
<path opacity="0.2" fill-rule="evenodd" clip-rule="evenodd" d="M59.0336 69.0663C72.532 76.7796 72.532 89.5766 59.0336 97.2899C45.5352 105.179 23.6222 105.179 10.1238 97.2899C-3.3746 89.5766 -3.3746 76.7796 10.1238 69.0663C23.6222 61.3529 45.5352 61.3529 59.0336 69.0663Z" fill="#E9E9EB"/>
<path opacity="0.2" fill-rule="evenodd" clip-rule="evenodd" d="M53.958 72.0666C64.6516 78.2022 64.6516 88.1943 53.958 94.33C43.2645 100.466 26.0848 100.466 15.3912 94.33C4.69771 88.1943 4.69771 78.2022 15.3912 72.0666C26.0848 65.9309 43.2645 65.9309 53.958 72.0666Z" fill="#DDDEE1"/>
<path opacity="0.2" fill-rule="evenodd" clip-rule="evenodd" d="M48.6932 75.0356C56.5818 79.5935 56.5818 86.7808 48.6932 91.3387C40.8045 95.8966 28.1826 95.8966 20.4692 91.3387C12.5806 86.7808 12.5806 79.5935 20.4692 75.0356C28.3579 70.4777 40.9798 70.4777 48.6932 75.0356Z" fill="#D1D2D6"/>
<path fill-rule="evenodd" clip-rule="evenodd" d="M15.2135 78.8403L13.9864 77.9634L13.2852 63.0625L14.5123 63.7639L15.2135 78.8403Z" fill="#BA3B2C"/>
<path fill-rule="evenodd" clip-rule="evenodd" d="M15.2135 78.8403L13.9864 77.9634L13.2852 63.0625L14.5123 63.7639L15.2135 78.8403Z" fill="url(#paint0_linear_1_20759)"/>
<path fill-rule="evenodd" clip-rule="evenodd" d="M1.35603 70.81L0.128906 70.1092L10.8224 51.3516L12.0496 52.0529L1.35603 70.81Z" fill="#BA3B2C"/>
<path fill-rule="evenodd" clip-rule="evenodd" d="M1.35603 70.81L0.128906 70.1092L10.8224 51.3516L12.0496 52.0529L1.35603 70.81Z" fill="url(#paint1_linear_1_20759)"/>
<path fill-rule="evenodd" clip-rule="evenodd" d="M12.0455 52.0541L10.8184 51.3527L14.8504 44.5156L16.0775 45.217L12.0455 52.0541Z" fill="#BA3B2C"/>
<path fill-rule="evenodd" clip-rule="evenodd" d="M12.0455 52.0541L10.8184 51.3527L14.8504 44.5156L16.0775 45.217L12.0455 52.0541Z" fill="url(#paint2_linear_1_20759)"/>
<path fill-rule="evenodd" clip-rule="evenodd" d="M54.1609 22.7891L69.2371 31.5543L55.914 39.969L55.2127 55.7463L45.3958 49.9609L40.1367 46.9811C46.4477 40.4948 51.7067 31.7297 53.9856 22.9645L54.1609 22.7891Z" fill="#E74C3C"/>
<path fill-rule="evenodd" clip-rule="evenodd" d="M54.1609 22.7891L69.2371 31.5543L55.914 39.969L55.2127 55.7463L45.3958 49.9609L40.1367 46.9811C46.4477 40.4948 51.7067 31.7297 53.9856 22.9645L54.1609 22.7891Z" fill="url(#paint3_linear_1_20759)"/>
<path fill-rule="evenodd" clip-rule="evenodd" d="M29.9471 53.279L15.2215 78.8737L14.5203 63.9728L1.19727 70.9848L12.066 52.2272L15.9227 45.3906C18.377 51.351 23.4608 54.331 29.7717 53.4545L29.9471 53.279Z" fill="#E74C3C"/>
<path fill-rule="evenodd" clip-rule="evenodd" d="M29.9471 53.279L15.2215 78.8737L14.5203 63.9728L1.19727 70.9848L12.066 52.2272L15.9227 45.3906C18.377 51.351 23.4608 54.331 29.7717 53.4545L29.9471 53.279Z" fill="url(#paint4_linear_1_20759)"/>
<path fill-rule="evenodd" clip-rule="evenodd" d="M43.6018 0C46.0561 0 47.6338 -4.27753e-05 49.9128 1.05178L50.614 1.40219L55.1718 4.03165C53.0681 2.97982 51.4904 2.62945 49.0362 2.62945H47.9844H47.4585C43.0759 3.33067 39.3945 5.43427 35.8884 8.06382L35.3625 8.41424L34.8366 8.76519C29.9281 12.9725 26.2468 17.8806 23.0913 23.6656L22.7406 24.367L22.3901 25.0683C19.2346 31.7299 16.9556 39.4431 18.0075 46.8058V47.3317L18.1828 47.8576V48.3835C19.2346 52.0649 20.4617 54.5193 23.4418 56.7983L24.1431 57.3242L19.5851 54.6947C16.9556 52.7664 15.7284 51.3637 14.5013 48.3835C14.326 47.6823 14.1507 47.1566 13.9754 46.4554V45.9295L13.8002 45.4036C12.3978 37.8656 14.5013 29.9765 17.6568 23.1397L18.0075 22.4389C21.1629 16.1279 25.1949 10.6933 30.2787 6.31068L30.8046 5.96027C34.4859 2.9801 38.6933 0.701215 43.4265 0H43.6018ZM47.8091 6.31068C64.6382 17.0042 39.3945 58.3759 22.7406 49.6107L27.1232 53.292C43.6018 62.2325 69.5468 18.7575 53.2436 8.2393L47.8091 6.31068Z" fill="#D98C0F"/>
<path fill-rule="evenodd" clip-rule="evenodd" d="M43.6018 0C46.0561 0 47.6338 -4.27753e-05 49.9128 1.05178L50.614 1.40219L55.1718 4.03165C53.0681 2.97982 51.4904 2.62945 49.0362 2.62945H47.9844H47.4585C43.0759 3.33067 39.3945 5.43427 35.8884 8.06382L35.3625 8.41424L34.8366 8.76519C29.9281 12.9725 26.2468 17.8806 23.0913 23.6656L22.7406 24.367L22.3901 25.0683C19.2346 31.7299 16.9556 39.4431 18.0075 46.8058V47.3317L18.1828 47.8576V48.3835C19.2346 52.0649 20.4617 54.5193 23.4418 56.7983L24.1431 57.3242L19.5851 54.6947C16.9556 52.7664 15.7284 51.3637 14.5013 48.3835C14.326 47.6823 14.1507 47.1566 13.9754 46.4554V45.9295L13.8002 45.4036C12.3978 37.8656 14.5013 29.9765 17.6568 23.1397L18.0075 22.4389C21.1629 16.1279 25.1949 10.6933 30.2787 6.31068L30.8046 5.96027C34.4859 2.9801 38.6933 0.701215 43.4265 0H43.6018ZM47.8091 6.31068C64.6382 17.0042 39.3945 58.3759 22.7406 49.6107L27.1232 53.292C43.6018 62.2325 69.5468 18.7575 53.2436 8.2393L47.8091 6.31068Z" fill="url(#paint5_linear_1_20759)"/>
<path fill-rule="evenodd" clip-rule="evenodd" d="M50.8134 8.06786C49.2356 7.19134 47.3074 6.66547 45.0284 7.01608C42.9248 7.19138 40.6459 8.06798 38.1916 9.29511C35.7374 10.6975 33.4584 12.6258 31.3548 14.7295C29.2511 17.0084 27.3228 19.638 25.5697 22.4429C23.992 25.2478 22.5895 28.2276 21.713 31.383C20.8365 34.3632 20.3105 37.1684 20.3105 39.9733C20.3105 42.7781 20.8365 45.057 21.713 46.9853C22.5895 48.9137 23.992 50.4914 25.5697 51.3679C27.1474 52.2444 29.0758 52.7703 31.3548 52.4197C33.4584 52.2444 35.7374 51.3678 38.1916 50.1407C40.6459 48.7382 42.9248 46.8099 45.0284 44.7063C47.1321 42.4273 49.0603 39.7977 50.8134 36.9929C52.3911 34.188 53.7936 31.2077 54.6701 28.0522C55.5466 25.072 56.0725 22.2674 56.0725 19.4625C56.0725 16.6576 55.5466 14.3788 54.6701 12.4505C53.7936 10.5221 52.3911 8.94438 50.8134 8.06786Z" fill="#FACC4D"/>
<path fill-rule="evenodd" clip-rule="evenodd" d="M50.8134 8.06786C49.2356 7.19134 47.3074 6.66547 45.0284 7.01608C42.9248 7.19138 40.6459 8.06798 38.1916 9.29511C35.7374 10.6975 33.4584 12.6258 31.3548 14.7295C29.2511 17.0084 27.3228 19.638 25.5697 22.4429C23.992 25.2478 22.5895 28.2276 21.713 31.383C20.8365 34.3632 20.3105 37.1684 20.3105 39.9733C20.3105 42.7781 20.8365 45.057 21.713 46.9853C22.5895 48.9137 23.992 50.4914 25.5697 51.3679C27.1474 52.2444 29.0758 52.7703 31.3548 52.4197C33.4584 52.2444 35.7374 51.3678 38.1916 50.1407C40.6459 48.7382 42.9248 46.8099 45.0284 44.7063C47.1321 42.4273 49.0603 39.7977 50.8134 36.9929C52.3911 34.188 53.7936 31.2077 54.6701 28.0522C55.5466 25.072 56.0725 22.2674 56.0725 19.4625C56.0725 16.6576 55.5466 14.3788 54.6701 12.4505C53.7936 10.5221 52.3911 8.94438 50.8134 8.06786Z" fill="url(#paint6_linear_1_20759)"/>
<path fill-rule="evenodd" clip-rule="evenodd" d="M41.6726 16.8191L44.1269 24.3571L52.1908 19.6241C52.1908 19.6241 53.2427 19.4486 53.418 19.9745C53.5933 20.5004 53.418 21.2019 52.8921 21.9031L46.2306 31.1942L48.6848 38.7321C48.6848 38.7321 48.6848 39.959 48.1589 40.6602C47.633 41.3614 47.107 41.7123 46.5811 41.537L40.095 39.7839L33.4333 49.075C33.4333 49.075 32.3816 50.1266 31.8557 49.9513C31.3298 49.9513 31.1545 49.2503 31.3298 48.5491L33.784 38.2062L27.1224 36.4531C27.1224 36.4531 26.4212 35.7521 26.5965 35.0509C26.7718 34.3497 27.2977 33.6483 27.8236 33.2977L35.8876 28.5642L38.3418 18.2213C38.3418 18.2213 39.043 16.8193 39.5689 16.4687C40.0949 16.1181 40.8898 15.9495 41.0651 16.4754L41.6726 16.8191Z" fill="#F0B11D"/>
<path fill-rule="evenodd" clip-rule="evenodd" d="M41.6726 16.8191L44.1269 24.3571L52.1908 19.6241C52.1908 19.6241 53.2427 19.4486 53.418 19.9745C53.5933 20.5004 53.418 21.2019 52.8921 21.9031L46.2306 31.1942L48.6848 38.7321C48.6848 38.7321 48.6848 39.959 48.1589 40.6602C47.633 41.3614 47.107 41.7123 46.5811 41.537L40.095 39.7839L33.4333 49.075C33.4333 49.075 32.3816 50.1266 31.8557 49.9513C31.3298 49.9513 31.1545 49.2503 31.3298 48.5491L33.784 38.2062L27.1224 36.4531C27.1224 36.4531 26.4212 35.7521 26.5965 35.0509C26.7718 34.3497 27.2977 33.6483 27.8236 33.2977L35.8876 28.5642L38.3418 18.2213C38.3418 18.2213 39.043 16.8193 39.5689 16.4687C40.0949 16.1181 40.8898 15.9495 41.0651 16.4754L41.6726 16.8191Z" fill="url(#paint7_linear_1_20759)"/>
<path fill-rule="evenodd" clip-rule="evenodd" d="M39.7533 5.41724C42.7334 3.6642 45.5383 2.78744 48.1679 2.43684C50.7975 2.26153 53.2516 2.61244 55.18 3.83957C57.1083 5.06669 58.8614 6.81969 59.9132 9.27394C60.965 11.5529 61.4909 14.5329 61.4909 17.8637C61.4909 21.1944 60.965 24.8759 59.9132 28.382C58.8614 32.0634 57.1083 35.7447 55.18 39.2507C51.148 46.0876 45.7136 52.0478 39.7533 55.5539C36.7731 57.3069 33.9683 58.1837 31.3388 58.5343C28.7092 58.7096 26.2549 58.3587 24.3266 57.1315C22.3982 55.9044 20.6451 54.1514 19.5933 51.6972C18.5415 49.4182 18.0156 46.4382 18.0156 43.1075C18.0156 39.7767 18.5415 36.0952 19.5933 32.5891C20.6451 28.9077 22.3982 25.2264 24.3266 21.7204C26.2549 18.2143 28.7092 15.059 31.3388 12.0789C33.9683 9.44931 36.7731 6.99497 39.7533 5.41724ZM52.3752 8.92299C50.7974 8.04647 48.869 7.5206 46.5901 7.87121C44.4865 8.04652 42.2075 8.92312 39.7533 10.1502C37.299 11.5527 35.0201 13.481 32.9164 15.5846C30.8128 17.8636 28.8844 20.4932 27.1314 23.298C25.5536 26.1029 24.1512 29.0832 23.2747 32.2387C22.3981 35.2189 21.8723 38.0236 21.8723 40.8284C21.8723 43.6333 22.3981 45.9121 23.2747 47.8405C24.1512 49.7688 25.5536 51.3465 27.1314 52.2231C28.7091 53.0996 30.6375 53.6254 32.9164 53.2748C35.0201 53.0995 37.299 52.2235 39.7533 50.9963C42.2075 49.5939 44.4865 47.6651 46.5901 45.5614C48.6937 43.2825 50.6221 40.6534 52.3752 37.8486C53.9529 35.0437 55.3553 32.0634 56.2319 28.9079C57.1084 25.9277 57.6343 23.123 57.6343 20.3182C57.6343 17.5133 57.1084 15.2339 56.2319 13.3056C55.3553 11.3772 53.9529 9.79951 52.3752 8.92299Z" fill="#F0B11D"/>
<path fill-rule="evenodd" clip-rule="evenodd" d="M39.7533 5.41724C42.7334 3.6642 45.5383 2.78744 48.1679 2.43684C50.7975 2.26153 53.2516 2.61244 55.18 3.83957C57.1083 5.06669 58.8614 6.81969 59.9132 9.27394C60.965 11.5529 61.4909 14.5329 61.4909 17.8637C61.4909 21.1944 60.965 24.8759 59.9132 28.382C58.8614 32.0634 57.1083 35.7447 55.18 39.2507C51.148 46.0876 45.7136 52.0478 39.7533 55.5539C36.7731 57.3069 33.9683 58.1837 31.3388 58.5343C28.7092 58.7096 26.2549 58.3587 24.3266 57.1315C22.3982 55.9044 20.6451 54.1514 19.5933 51.6972C18.5415 49.4182 18.0156 46.4382 18.0156 43.1075C18.0156 39.7767 18.5415 36.0952 19.5933 32.5891C20.6451 28.9077 22.3982 25.2264 24.3266 21.7204C26.2549 18.2143 28.7092 15.059 31.3388 12.0789C33.9683 9.44931 36.7731 6.99497 39.7533 5.41724ZM52.3752 8.92299C50.7974 8.04647 48.869 7.5206 46.5901 7.87121C44.4865 8.04652 42.2075 8.92312 39.7533 10.1502C37.299 11.5527 35.0201 13.481 32.9164 15.5846C30.8128 17.8636 28.8844 20.4932 27.1314 23.298C25.5536 26.1029 24.1512 29.0832 23.2747 32.2387C22.3981 35.2189 21.8723 38.0236 21.8723 40.8284C21.8723 43.6333 22.3981 45.9121 23.2747 47.8405C24.1512 49.7688 25.5536 51.3465 27.1314 52.2231C28.7091 53.0996 30.6375 53.6254 32.9164 53.2748C35.0201 53.0995 37.299 52.2235 39.7533 50.9963C42.2075 49.5939 44.4865 47.6651 46.5901 45.5614C48.6937 43.2825 50.6221 40.6534 52.3752 37.8486C53.9529 35.0437 55.3553 32.0634 56.2319 28.9079C57.1084 25.9277 57.6343 23.123 57.6343 20.3182C57.6343 17.5133 57.1084 15.2339 56.2319 13.3056C55.3553 11.3772 53.9529 9.79951 52.3752 8.92299Z" fill="url(#paint8_linear_1_20759)"/>
<path fill-rule="evenodd" clip-rule="evenodd" d="M39.7533 5.41724C42.7334 3.6642 45.5383 2.78744 48.1679 2.43684C50.7975 2.26153 53.2516 2.61244 55.18 3.83957C57.1083 5.06669 58.8614 6.81969 59.9132 9.27394C60.965 11.5529 61.4909 14.5329 61.4909 17.8637C61.4909 21.1944 60.965 24.8759 59.9132 28.382C58.8614 32.0634 57.1083 35.7447 55.18 39.2507C51.148 46.0876 45.7136 52.0478 39.7533 55.5539C36.7731 57.3069 33.9683 58.1837 31.3388 58.5343C28.7092 58.7096 26.2549 58.3587 24.3266 57.1315C22.3982 55.9044 20.6451 54.1514 19.5933 51.6972C18.5415 49.4182 18.0156 46.4382 18.0156 43.1075C18.0156 39.7767 18.5415 36.0952 19.5933 32.5891C20.6451 28.9077 22.3982 25.2264 24.3266 21.7204C26.2549 18.2143 28.7092 15.059 31.3388 12.0789C33.9683 9.44931 36.7731 6.99497 39.7533 5.41724ZM52.3752 8.92299C50.7974 8.04647 48.869 7.5206 46.5901 7.87121C44.4865 8.04652 42.2075 8.92312 39.7533 10.1502C37.299 11.5527 35.0201 13.481 32.9164 15.5846C30.8128 17.8636 28.8844 20.4932 27.1314 23.298C25.5536 26.1029 24.1512 29.0832 23.2747 32.2387C22.3981 35.2189 21.8723 38.0236 21.8723 40.8284C21.8723 43.6333 22.3981 45.9121 23.2747 47.8405C24.1512 49.7688 25.5536 51.3465 27.1314 52.2231C28.7091 53.0996 30.6375 53.6254 32.9164 53.2748C35.0201 53.0995 37.299 52.2235 39.7533 50.9963C42.2075 49.5939 44.4865 47.6651 46.5901 45.5614C48.6937 43.2825 50.6221 40.6534 52.3752 37.8486C53.9529 35.0437 55.3553 32.0634 56.2319 28.9079C57.1084 25.9277 57.6343 23.123 57.6343 20.3182C57.6343 17.5133 57.1084 15.2339 56.2319 13.3056C55.3553 11.3772 53.9529 9.79951 52.3752 8.92299Z" fill="url(#paint9_linear_1_20759)"/>
<defs>
<linearGradient id="paint0_linear_1_20759" x1="13.2846" y1="70.9514" x2="15.2122" y2="70.9514" gradientUnits="userSpaceOnUse">
<stop stop-color="#4AFFC7"/>
<stop offset="1" stop-color="#3BADEA"/>
</linearGradient>
<linearGradient id="paint1_linear_1_20759" x1="0.125454" y1="61.0808" x2="12.0416" y2="61.0808" gradientUnits="userSpaceOnUse">
<stop stop-color="#4AFFC7"/>
<stop offset="1" stop-color="#3BADEA"/>
</linearGradient>
<linearGradient id="paint2_linear_1_20759" x1="10.8168" y1="48.2849" x2="16.074" y2="48.2849" gradientUnits="userSpaceOnUse">
<stop stop-color="#4AFFC7"/>
<stop offset="1" stop-color="#3BADEA"/>
</linearGradient>
<linearGradient id="paint3_linear_1_20759" x1="40.1283" y1="39.2677" x2="69.2177" y2="39.2677" gradientUnits="userSpaceOnUse">
<stop stop-color="#4AFFC7"/>
<stop offset="1" stop-color="#3BADEA"/>
</linearGradient>
<linearGradient id="paint4_linear_1_20759" x1="1.18894" y1="62.1322" x2="29.9279" y2="62.1322" gradientUnits="userSpaceOnUse">
<stop stop-color="#4AFFC7"/>
<stop offset="1" stop-color="#3BADEA"/>
</linearGradient>
<linearGradient id="paint5_linear_1_20759" x1="23.9" y1="28.1748" x2="58.8243" y2="28.4463" gradientUnits="userSpaceOnUse">
<stop stop-color="#9CB2DF"/>
<stop offset="0.09" stop-color="#A9BDE4"/>
<stop offset="0.31" stop-color="#C3D3F0"/>
<stop offset="0.53" stop-color="#D6E3F8"/>
<stop offset="0.76" stop-color="#E2ECFD"/>
<stop offset="1" stop-color="#E6F0FF"/>
</linearGradient>
<linearGradient id="paint6_linear_1_20759" x1="28.677" y1="29.3301" x2="56.3926" y2="29.5449" gradientUnits="userSpaceOnUse">
<stop stop-color="#9CB2DF"/>
<stop offset="0.09" stop-color="#A9BDE4"/>
<stop offset="0.31" stop-color="#C3D3F0"/>
<stop offset="0.53" stop-color="#D6E3F8"/>
<stop offset="0.76" stop-color="#E2ECFD"/>
<stop offset="1" stop-color="#E6F0FF"/>
</linearGradient>
<linearGradient id="paint7_linear_1_20759" x1="26.5606" y1="33.1272" x2="53.4657" y2="33.1272" gradientUnits="userSpaceOnUse">
<stop stop-color="#4AFFC7"/>
<stop offset="1" stop-color="#3BADEA"/>
</linearGradient>
<linearGradient id="paint8_linear_1_20759" x1="28.1866" y1="30.008" x2="61.88" y2="30.2658" gradientUnits="userSpaceOnUse">
<stop stop-color="#E6F0FF"/>
<stop offset="0.24" stop-color="#E2ECFD"/>
<stop offset="0.47" stop-color="#D6E3F8"/>
<stop offset="0.69" stop-color="#C3D3F0"/>
<stop offset="0.91" stop-color="#A9BDE4"/>
<stop offset="1" stop-color="#9CB2DF"/>
</linearGradient>
<linearGradient id="paint9_linear_1_20759" x1="28.1866" y1="30.008" x2="61.88" y2="30.2658" gradientUnits="userSpaceOnUse">
<stop stop-color="#E6F0FF"/>
<stop offset="0.24" stop-color="#E2ECFD"/>
<stop offset="0.47" stop-color="#D6E3F8"/>
<stop offset="0.69" stop-color="#C3D3F0"/>
<stop offset="0.91" stop-color="#A9BDE4"/>
<stop offset="1" stop-color="#9CB2DF"/>
</linearGradient>
</defs>
</svg>
