<svg width="78" height="100" viewBox="0 0 78 100" fill="none" xmlns="http://www.w3.org/2000/svg">
<path opacity="0.2" fill-rule="evenodd" clip-rule="evenodd" d="M62.3629 66.4001C75.3069 73.7966 75.3069 86.0682 62.3629 93.4647C49.4189 100.861 28.4058 100.861 15.4619 93.4647C2.51791 85.9001 2.51791 73.7966 15.4619 66.4001C28.4058 58.8354 49.4189 58.8354 62.3629 66.4001Z" fill="#E9E9EB"/>
<path opacity="0.2" fill-rule="evenodd" clip-rule="evenodd" d="M57.4977 69.276C67.752 75.1596 67.752 84.7416 57.4977 90.6252C47.2434 96.5088 30.7693 96.5088 20.515 90.6252C10.2606 84.7416 10.2606 75.1596 20.515 69.276C30.7693 63.3924 47.2434 63.3924 57.4977 69.276Z" fill="#DDDEE1"/>
<path opacity="0.2" fill-rule="evenodd" clip-rule="evenodd" d="M52.4491 72.1491C60.0138 76.5198 60.0138 83.4122 52.4491 87.7829C45.0525 92.1536 32.781 92.1536 25.3844 87.7829C17.8198 83.4122 17.8198 76.5198 25.3844 72.1491C32.9491 67.7784 45.0525 67.7784 52.4491 72.1491Z" fill="#D1D2D6"/>
<path fill-rule="evenodd" clip-rule="evenodd" d="M66.5691 11.4309C63.0389 7.90074 58.6682 4.87488 53.9613 3.02574C49.4225 1.1766 44.3794 0 39.0001 0C33.6208 0 28.7458 1.0085 24.0389 3.02574C19.332 5.04298 14.9613 7.90074 11.4312 11.4309C7.901 14.9611 4.87513 19.3318 3.026 24.0387C1.17686 28.5775 0 33.6206 0 38.9999C0 44.3792 1.00875 49.2542 3.026 53.9611C5.04324 58.668 7.901 63.0387 11.4312 66.5688C14.9613 70.099 19.332 73.1249 24.0389 74.974C28.5777 76.8231 33.6208 78 39.0001 78C44.3794 78 49.2544 76.9912 53.9613 74.974C58.6682 72.9568 63.0389 70.099 66.5691 66.5688C70.0993 63.0387 73.1251 58.668 74.9743 53.9611C76.8234 49.4223 78 44.3792 78 38.9999C78 33.6206 76.9915 28.7456 74.9743 24.0387C72.957 19.3318 70.0993 14.9611 66.5691 11.4309Z" fill="#D0DEFA"/>
<path fill-rule="evenodd" clip-rule="evenodd" d="M66.5691 11.4309C63.0389 7.90074 58.6682 4.87488 53.9613 3.02574C49.4225 1.1766 44.3794 0 39.0001 0C33.6208 0 28.7458 1.0085 24.0389 3.02574C19.332 5.04298 14.9613 7.90074 11.4312 11.4309C7.901 14.9611 4.87513 19.3318 3.026 24.0387C1.17686 28.5775 0 33.6206 0 38.9999C0 44.3792 1.00875 49.2542 3.026 53.9611C5.04324 58.668 7.901 63.0387 11.4312 66.5688C14.9613 70.099 19.332 73.1249 24.0389 74.974C28.5777 76.8231 33.6208 78 39.0001 78C44.3794 78 49.2544 76.9912 53.9613 74.974C58.6682 72.9568 63.0389 70.099 66.5691 66.5688C70.0993 63.0387 73.1251 58.668 74.9743 53.9611C76.8234 49.4223 78 44.3792 78 38.9999C78 33.6206 76.9915 28.7456 74.9743 24.0387C72.957 19.3318 70.0993 14.9611 66.5691 11.4309Z" fill="url(#paint0_linear_1_20743)"/>
<path fill-rule="evenodd" clip-rule="evenodd" d="M64.0487 13.8286C60.6866 10.4665 56.8204 7.94511 52.4498 6.09597C48.2472 4.41493 43.7082 3.40625 38.8332 3.40625C33.9582 3.40625 29.4194 4.41493 25.2168 6.09597C20.8461 7.94511 16.9797 10.4665 13.6176 13.8286C10.2556 17.1907 7.73417 21.0571 5.88503 25.4278C4.20399 29.6304 3.19531 34.1691 3.19531 39.0441C3.19531 43.9191 4.20399 48.4581 5.88503 52.6607C7.73417 57.0314 10.2556 60.8976 13.6176 64.2596C16.9797 67.6217 20.8461 70.1434 25.2168 71.9925C29.4194 73.6735 33.9582 74.6822 38.8332 74.6822C43.7082 74.6822 48.2472 73.6735 52.4498 71.9925C56.8204 70.1434 60.6866 67.6217 64.0487 64.2596C67.4108 60.8976 69.9324 57.0314 71.7816 52.6607C73.4626 48.4581 74.4713 43.9191 74.4713 39.0441C74.4713 34.1691 73.4626 29.6304 71.7816 25.4278C69.9324 21.0571 67.4108 17.1907 64.0487 13.8286Z" fill="#B4CCFA"/>
<path fill-rule="evenodd" clip-rule="evenodd" d="M64.0487 13.8286C60.6866 10.4665 56.8204 7.94511 52.4498 6.09597C48.2472 4.41493 43.7082 3.40625 38.8332 3.40625C33.9582 3.40625 29.4194 4.41493 25.2168 6.09597C20.8461 7.94511 16.9797 10.4665 13.6176 13.8286C10.2556 17.1907 7.73417 21.0571 5.88503 25.4278C4.20399 29.6304 3.19531 34.1691 3.19531 39.0441C3.19531 43.9191 4.20399 48.4581 5.88503 52.6607C7.73417 57.0314 10.2556 60.8976 13.6176 64.2596C16.9797 67.6217 20.8461 70.1434 25.2168 71.9925C29.4194 73.6735 33.9582 74.6822 38.8332 74.6822C43.7082 74.6822 48.2472 73.6735 52.4498 71.9925C56.8204 70.1434 60.6866 67.6217 64.0487 64.2596C67.4108 60.8976 69.9324 57.0314 71.7816 52.6607C73.4626 48.4581 74.4713 43.9191 74.4713 39.0441C74.4713 34.1691 73.4626 29.6304 71.7816 25.4278C69.9324 21.0571 67.4108 17.1907 64.0487 13.8286Z" fill="url(#paint1_linear_1_20743)"/>
<path fill-rule="evenodd" clip-rule="evenodd" d="M66.081 15.8531C67.4258 17.366 70.6198 22.2409 72.1327 25.7711C73.8138 30.1418 74.6542 34.8486 74.6542 39.3874C74.6542 44.0943 73.6456 48.6331 71.7965 53.0038C69.9473 57.2064 67.4258 61.0729 63.8956 64.435C60.3654 67.797 56.499 70.3185 52.2964 71.9996C50.6154 72.672 55.4904 66.7883 52.2964 63.5944C49.2705 60.4004 36.1584 64.0988 36.4946 57.3746C36.8308 50.6505 39.6887 50.8185 41.3698 47.2883C42.8827 43.7582 44.7318 46.6159 51.2878 44.4306C57.8439 42.2453 66.5854 42.5813 69.275 39.5555C72.1328 36.5296 58.5162 40.0598 55.9947 39.5555C53.4731 38.883 52.9689 35.8573 51.1198 36.0254C49.2707 36.0254 50.2793 39.3876 48.2621 40.06C46.2448 40.7324 40.8654 41.5728 40.5292 39.3874C39.1844 30.478 46.0767 33.3357 46.4129 32.8314C48.2621 30.8142 44.2274 29.1332 46.749 26.1074C49.1024 23.0815 51.624 22.5772 52.8007 20.5599C54.1455 18.5427 49.7749 16.8617 51.7921 15.3488C53.8094 13.6677 64.3999 14.34 65.7447 16.0211L66.081 15.8531Z" fill="#27AE60"/>
<path fill-rule="evenodd" clip-rule="evenodd" d="M66.081 15.8531C67.4258 17.366 70.6198 22.2409 72.1327 25.7711C73.8138 30.1418 74.6542 34.8486 74.6542 39.3874C74.6542 44.0943 73.6456 48.6331 71.7965 53.0038C69.9473 57.2064 67.4258 61.0729 63.8956 64.435C60.3654 67.797 56.499 70.3185 52.2964 71.9996C50.6154 72.672 55.4904 66.7883 52.2964 63.5944C49.2705 60.4004 36.1584 64.0988 36.4946 57.3746C36.8308 50.6505 39.6887 50.8185 41.3698 47.2883C42.8827 43.7582 44.7318 46.6159 51.2878 44.4306C57.8439 42.2453 66.5854 42.5813 69.275 39.5555C72.1328 36.5296 58.5162 40.0598 55.9947 39.5555C53.4731 38.883 52.9689 35.8573 51.1198 36.0254C49.2707 36.0254 50.2793 39.3876 48.2621 40.06C46.2448 40.7324 40.8654 41.5728 40.5292 39.3874C39.1844 30.478 46.0767 33.3357 46.4129 32.8314C48.2621 30.8142 44.2274 29.1332 46.749 26.1074C49.1024 23.0815 51.624 22.5772 52.8007 20.5599C54.1455 18.5427 49.7749 16.8617 51.7921 15.3488C53.8094 13.6677 64.3999 14.34 65.7447 16.0211L66.081 15.8531Z" fill="url(#paint2_linear_1_20743)"/>
<path fill-rule="evenodd" clip-rule="evenodd" d="M36.6723 3.37895C28.4352 3.88326 20.1981 7.41335 13.8102 13.8013C10.4481 17.1634 7.75835 21.1979 6.07732 25.4005C2.54714 34.1418 2.54714 43.892 6.07732 52.6334C7.59025 56.1636 9.6075 59.3573 12.1291 62.3832C12.2972 62.5513 12.6335 62.7195 12.8016 62.7195C13.1378 62.7195 13.3058 62.7194 13.4739 62.3832C15.8274 59.6935 22.7196 57.8445 23.2239 54.1463C23.5602 51.4566 19.1895 50.4478 18.0128 47.9263C16.6679 45.2366 17.6764 41.5384 15.9954 39.0168C14.1462 36.3271 7.42217 36.1592 5.57303 33.6376C4.56441 32.2928 5.23689 30.1075 5.90931 28.4265C6.07741 27.754 7.08604 27.2497 7.75845 27.0816C8.76708 26.7454 9.94384 27.0816 10.9525 27.0816C10.9525 27.0816 21.0386 25.5687 24.2325 24.2239C27.2584 22.879 25.5774 21.0299 26.9222 20.5256C28.2671 20.0213 30.4524 24.0556 32.4697 22.2065C34.4869 20.3573 36.1678 11.6159 37.0083 9.59869C37.6807 7.58145 40.5385 9.59877 41.2109 9.93497C41.8833 10.4393 39.8662 14.3057 40.8749 14.9781C41.8835 15.6505 45.7497 13.1289 46.254 12.7927C49.2799 9.93494 48.4394 7.24523 46.7583 5.9004C45.0773 4.55557 40.0343 6.40472 37.1766 3.54696C37.0085 3.37886 36.6722 3.21094 36.336 3.21094L36.6723 3.37895Z" fill="#27AE60"/>
<path fill-rule="evenodd" clip-rule="evenodd" d="M36.6723 3.37895C28.4352 3.88326 20.1981 7.41335 13.8102 13.8013C10.4481 17.1634 7.75835 21.1979 6.07732 25.4005C2.54714 34.1418 2.54714 43.892 6.07732 52.6334C7.59025 56.1636 9.6075 59.3573 12.1291 62.3832C12.2972 62.5513 12.6335 62.7195 12.8016 62.7195C13.1378 62.7195 13.3058 62.7194 13.4739 62.3832C15.8274 59.6935 22.7196 57.8445 23.2239 54.1463C23.5602 51.4566 19.1895 50.4478 18.0128 47.9263C16.6679 45.2366 17.6764 41.5384 15.9954 39.0168C14.1462 36.3271 7.42217 36.1592 5.57303 33.6376C4.56441 32.2928 5.23689 30.1075 5.90931 28.4265C6.07741 27.754 7.08604 27.2497 7.75845 27.0816C8.76708 26.7454 9.94384 27.0816 10.9525 27.0816C10.9525 27.0816 21.0386 25.5687 24.2325 24.2239C27.2584 22.879 25.5774 21.0299 26.9222 20.5256C28.2671 20.0213 30.4524 24.0556 32.4697 22.2065C34.4869 20.3573 36.1678 11.6159 37.0083 9.59869C37.6807 7.58145 40.5385 9.59877 41.2109 9.93497C41.8833 10.4393 39.8662 14.3057 40.8749 14.9781C41.8835 15.6505 45.7497 13.1289 46.254 12.7927C49.2799 9.93494 48.4394 7.24523 46.7583 5.9004C45.0773 4.55557 40.0343 6.40472 37.1766 3.54696C37.0085 3.37886 36.6722 3.21094 36.336 3.21094L36.6723 3.37895Z" fill="url(#paint3_linear_1_20743)"/>
<path fill-rule="evenodd" clip-rule="evenodd" d="M51.9432 5.88469C47.9087 4.37176 43.5382 3.53125 38.9994 3.53125C34.1244 3.53125 29.5857 4.53993 25.3831 6.22097C21.0124 8.07011 17.146 10.5918 13.7839 13.9538C10.4218 17.3159 7.90018 21.1823 6.05105 25.553C4.37001 29.7556 3.36133 34.2944 3.36133 39.1694C3.36133 44.0444 4.37001 48.5831 6.05105 52.7857C7.90018 57.1564 10.4218 61.0228 13.7839 64.3849C17.146 67.7469 21.0124 70.2684 25.3831 72.1175C29.5857 73.7985 34.1244 74.8072 38.9994 74.8072C43.8744 74.8072 48.4132 73.7985 52.6158 72.1175C56.9865 70.2684 60.8529 67.7469 64.215 64.3849C65.2236 63.3763 66.0639 62.3675 66.9044 61.3589C61.0208 67.0744 52.9521 70.7726 44.0426 70.7726C25.8874 70.7726 11.2622 56.1477 11.2622 37.9925C11.2622 19.8373 25.8874 5.21239 44.0426 5.21239C46.7322 5.21239 49.4218 5.54855 52.1115 6.22097L51.9432 5.88469Z" fill="#7488B0"/>
<path fill-rule="evenodd" clip-rule="evenodd" d="M51.9432 5.88469C47.9087 4.37176 43.5382 3.53125 38.9994 3.53125C34.1244 3.53125 29.5857 4.53993 25.3831 6.22097C21.0124 8.07011 17.146 10.5918 13.7839 13.9538C10.4218 17.3159 7.90018 21.1823 6.05105 25.553C4.37001 29.7556 3.36133 34.2944 3.36133 39.1694C3.36133 44.0444 4.37001 48.5831 6.05105 52.7857C7.90018 57.1564 10.4218 61.0228 13.7839 64.3849C17.146 67.7469 21.0124 70.2684 25.3831 72.1175C29.5857 73.7985 34.1244 74.8072 38.9994 74.8072C43.8744 74.8072 48.4132 73.7985 52.6158 72.1175C56.9865 70.2684 60.8529 67.7469 64.215 64.3849C65.2236 63.3763 66.0639 62.3675 66.9044 61.3589C61.0208 67.0744 52.9521 70.7726 44.0426 70.7726C25.8874 70.7726 11.2622 56.1477 11.2622 37.9925C11.2622 19.8373 25.8874 5.21239 44.0426 5.21239C46.7322 5.21239 49.4218 5.54855 52.1115 6.22097L51.9432 5.88469Z" fill="url(#paint4_linear_1_20743)"/>
<path fill-rule="evenodd" clip-rule="evenodd" d="M36.6723 3.40625C28.4352 3.91056 20.1981 7.44065 13.8102 13.8286C10.4481 17.1907 7.75835 21.2252 6.07732 25.4278C2.54714 34.1691 2.54714 43.9193 6.07732 52.6607C7.59025 56.1909 9.6075 59.3846 12.1291 62.4105C12.2972 62.5786 12.6335 62.7468 12.8016 62.7468C13.1378 62.7468 13.3058 62.7467 13.4739 62.4105C14.6506 61.0656 16.6678 60.0572 18.6851 58.8804C13.8101 53.1649 10.9525 45.7685 10.9525 37.6995C10.9525 37.3633 10.9525 36.8589 10.9525 36.5227C8.76712 35.8502 6.58165 35.0097 5.57303 33.8329C4.56441 32.4881 5.23689 30.3028 5.90931 28.6218C6.07741 27.9494 7.08604 27.445 7.75845 27.2769C8.76708 26.9407 9.94384 27.2769 10.9525 27.2769C10.9525 27.2769 11.6249 27.2768 12.8016 26.9406C16.8361 15.3415 27.2585 6.60032 39.8663 5.08739C38.8577 4.91928 38.017 4.41494 37.3446 3.74253C37.1765 3.57443 36.8402 3.40625 36.504 3.40625H36.6723Z" fill="#05883B"/>
<path fill-rule="evenodd" clip-rule="evenodd" d="M36.6723 3.40625C28.4352 3.91056 20.1981 7.44065 13.8102 13.8286C10.4481 17.1907 7.75835 21.2252 6.07732 25.4278C2.54714 34.1691 2.54714 43.9193 6.07732 52.6607C7.59025 56.1909 9.6075 59.3846 12.1291 62.4105C12.2972 62.5786 12.6335 62.7468 12.8016 62.7468C13.1378 62.7468 13.3058 62.7467 13.4739 62.4105C14.6506 61.0656 16.6678 60.0572 18.6851 58.8804C13.8101 53.1649 10.9525 45.7685 10.9525 37.6995C10.9525 37.3633 10.9525 36.8589 10.9525 36.5227C8.76712 35.8502 6.58165 35.0097 5.57303 33.8329C4.56441 32.4881 5.23689 30.3028 5.90931 28.6218C6.07741 27.9494 7.08604 27.445 7.75845 27.2769C8.76708 26.9407 9.94384 27.2769 10.9525 27.2769C10.9525 27.2769 11.6249 27.2768 12.8016 26.9406C16.8361 15.3415 27.2585 6.60032 39.8663 5.08739C38.8577 4.91928 38.017 4.41494 37.3446 3.74253C37.1765 3.57443 36.8402 3.40625 36.504 3.40625H36.6723Z" fill="url(#paint5_linear_1_20743)"/>
<path fill-rule="evenodd" clip-rule="evenodd" d="M68.7524 18.3742C59.8429 6.77511 46.2266 10.4735 46.2266 24.7623C46.2266 33.1674 53.1189 40.0597 61.524 40.0597C75.3085 40.0597 74.9722 26.6112 68.7524 18.5423V18.3742Z" fill="#E4F2FF"/>
<path fill-rule="evenodd" clip-rule="evenodd" d="M72.7869 27.926C72.4507 27.0855 72.1146 26.2449 71.7784 25.4043C70.0973 21.2018 67.4077 17.3355 64.2138 13.9734C55.8086 8.0898 46.2266 12.6286 46.2266 24.732C46.2266 33.1372 53.1189 40.0295 61.524 40.0295C70.6016 40.0295 73.4594 34.314 72.7869 27.926Z" fill="#C8E0FF"/>
<path fill-rule="evenodd" clip-rule="evenodd" d="M66.0625 15.8531C67.4073 17.366 70.6013 22.2409 72.1143 25.7711C72.4505 26.4435 72.6184 27.116 72.9546 27.9565C73.4589 32.1591 72.2822 36.3615 68.752 38.5469C66.3985 38.5469 61.0194 39.5556 58.1616 39.7237C56.6487 39.3875 55.1358 38.7151 53.9591 37.8746C53.1185 37.0341 52.6142 36.0254 51.6056 36.0254C49.0841 33.672 47.2348 30.478 46.7305 26.7797C46.7305 26.6116 47.0667 26.2755 47.2348 26.1074C49.5882 23.0815 52.1098 22.5772 53.2865 20.5599C54.6313 18.5427 50.2607 16.8617 52.2779 15.3488C54.2952 13.6677 64.8857 14.34 66.2305 16.0211L66.0625 15.8531Z" fill="#3BC274"/>
<path fill-rule="evenodd" clip-rule="evenodd" d="M66.0625 15.8531C67.4073 17.366 70.6013 22.2409 72.1143 25.7711C72.4505 26.4435 72.6184 27.116 72.9546 27.9565C73.4589 32.1591 72.2822 36.3615 68.752 38.5469C66.3985 38.5469 61.0194 39.5556 58.1616 39.7237C56.6487 39.3875 55.1358 38.7151 53.9591 37.8746C53.1185 37.0341 52.6142 36.0254 51.6056 36.0254C49.0841 33.672 47.2348 30.478 46.7305 26.7797C46.7305 26.6116 47.0667 26.2755 47.2348 26.1074C49.5882 23.0815 52.1098 22.5772 53.2865 20.5599C54.6313 18.5427 50.2607 16.8617 52.2779 15.3488C54.2952 13.6677 64.8857 14.34 66.2305 16.0211L66.0625 15.8531Z" fill="url(#paint6_linear_1_20743)"/>
<defs>
<linearGradient id="paint0_linear_1_20743" x1="18.248" y1="38.337" x2="78.6957" y2="38.9346" gradientUnits="userSpaceOnUse">
<stop stop-color="#E6F0FF"/>
<stop offset="0.24" stop-color="#E2ECFD"/>
<stop offset="0.47" stop-color="#D6E3F8"/>
<stop offset="0.69" stop-color="#C3D3F0"/>
<stop offset="0.91" stop-color="#A9BDE4"/>
<stop offset="1" stop-color="#9CB2DF"/>
</linearGradient>
<linearGradient id="paint1_linear_1_20743" x1="19.8702" y1="38.4384" x2="75.107" y2="38.9845" gradientUnits="userSpaceOnUse">
<stop stop-color="#E6F0FF"/>
<stop offset="0.24" stop-color="#E2ECFD"/>
<stop offset="0.47" stop-color="#D6E3F8"/>
<stop offset="0.69" stop-color="#C3D3F0"/>
<stop offset="0.91" stop-color="#A9BDE4"/>
<stop offset="1" stop-color="#9CB2DF"/>
</linearGradient>
<linearGradient id="paint2_linear_1_20743" x1="36.4772" y1="43.2138" x2="74.6287" y2="43.2138" gradientUnits="userSpaceOnUse">
<stop stop-color="#4AFFC7"/>
<stop offset="1" stop-color="#3BADEA"/>
</linearGradient>
<linearGradient id="paint3_linear_1_20743" x1="3.4167" y1="32.9652" x2="48.2436" y2="32.9652" gradientUnits="userSpaceOnUse">
<stop stop-color="#4AFFC7"/>
<stop offset="1" stop-color="#3BADEA"/>
</linearGradient>
<linearGradient id="paint4_linear_1_20743" x1="18.2271" y1="38.5634" x2="67.4722" y2="38.9974" gradientUnits="userSpaceOnUse">
<stop stop-color="#E6F0FF"/>
<stop offset="0.24" stop-color="#E2ECFD"/>
<stop offset="0.47" stop-color="#D6E3F8"/>
<stop offset="0.69" stop-color="#C3D3F0"/>
<stop offset="0.91" stop-color="#A9BDE4"/>
<stop offset="1" stop-color="#9CB2DF"/>
</linearGradient>
<linearGradient id="paint5_linear_1_20743" x1="3.41913" y1="33.0765" x2="39.842" y2="33.0765" gradientUnits="userSpaceOnUse">
<stop stop-color="#4AFFC7"/>
<stop offset="1" stop-color="#3BADEA"/>
</linearGradient>
<linearGradient id="paint6_linear_1_20743" x1="46.7228" y1="27.0494" x2="73.0483" y2="27.0494" gradientUnits="userSpaceOnUse">
<stop stop-color="#4AFFC7"/>
<stop offset="1" stop-color="#3BADEA"/>
</linearGradient>
</defs>
</svg>
