<svg width="78" height="110" viewBox="0 0 78 110" fill="none" xmlns="http://www.w3.org/2000/svg">
<path opacity="0.2" fill-rule="evenodd" clip-rule="evenodd" d="M63.1156 75.8592C76.614 83.5726 76.614 96.3698 63.1156 104.083C49.6172 111.972 27.7042 111.972 14.2058 104.083C0.707433 96.3698 0.707433 83.5726 14.2058 75.8592C27.7042 68.1459 49.6172 68.1459 63.1156 75.8592Z" fill="#E9E9EB"/>
<path opacity="0.2" fill-rule="evenodd" clip-rule="evenodd" d="M58.0264 78.7736C68.7199 84.9092 68.7199 94.9016 58.0264 101.037C47.3329 107.173 30.1531 107.173 19.4596 101.037C8.76607 94.9016 8.76607 84.9092 19.4596 78.7736C30.1531 72.638 47.3329 72.638 58.0264 78.7736Z" fill="#DDDEE1"/>
<path opacity="0.2" fill-rule="evenodd" clip-rule="evenodd" d="M52.9354 81.7739C60.824 86.3318 60.824 93.5194 52.9354 98.0773C45.222 102.635 32.4248 102.635 24.7114 98.0773C16.8228 93.5194 16.8228 86.3318 24.7114 81.7739C32.6001 77.216 45.222 77.216 52.9354 81.7739Z" fill="#D1D2D6"/>
<path fill-rule="evenodd" clip-rule="evenodd" d="M0 61.9545L33.8336 42.3203L68.0179 62.1297L34.1843 81.7637L0 61.9545Z" fill="#1F3B57"/>
<path fill-rule="evenodd" clip-rule="evenodd" d="M0 61.9545L33.8336 42.3203L68.0179 62.1297L34.1843 81.7637L0 61.9545Z" fill="url(#paint0_linear_1_20773)"/>
<path fill-rule="evenodd" clip-rule="evenodd" d="M0 25.0014L33.8336 5.36719V42.3563L0 61.9905V25.0014Z" fill="#BACBCF"/>
<path fill-rule="evenodd" clip-rule="evenodd" d="M33.8262 42.3563V5.36719L68.0104 25.1766V62.1657L33.8262 42.3563Z" fill="#BACBCF"/>
<path fill-rule="evenodd" clip-rule="evenodd" d="M33.8262 42.3563V5.36719L68.0104 25.1766V62.1657L33.8262 42.3563Z" fill="url(#paint1_linear_1_20773)"/>
<path fill-rule="evenodd" clip-rule="evenodd" d="M62.4141 28.506L68.3744 25V61.9891L62.4141 65.3197V28.506Z" fill="#DFEDF0"/>
<path fill-rule="evenodd" clip-rule="evenodd" d="M62.4141 28.506L68.3744 25V61.9891L62.4141 65.3197V28.506Z" fill="url(#paint2_linear_1_20773)"/>
<path fill-rule="evenodd" clip-rule="evenodd" d="M0 61.9891V25L5.78499 28.506V65.3197L0 61.9891Z" fill="#BACBCF"/>
<path fill-rule="evenodd" clip-rule="evenodd" d="M0 61.9891V25L5.78499 28.506V65.3197L0 61.9891Z" fill="url(#paint3_linear_1_20773)"/>
<path fill-rule="evenodd" clip-rule="evenodd" d="M0 61.9937V55.332L34.1843 75.1414V81.8028L0 61.9937Z" fill="#BACBCF"/>
<path fill-rule="evenodd" clip-rule="evenodd" d="M0 61.9937V55.332L34.1843 75.1414V81.8028L0 61.9937Z" fill="url(#paint4_linear_1_20773)"/>
<path fill-rule="evenodd" clip-rule="evenodd" d="M68.3561 61.9937V55.332L34.1719 75.1414V81.8028L68.3561 61.9937Z" fill="#DFEDF0"/>
<path fill-rule="evenodd" clip-rule="evenodd" d="M0 25.0014L33.8336 5.36719L68.0179 25.1766L34.1843 44.8105L0 25.0014Z" fill="#C5D7DB"/>
<path fill-rule="evenodd" clip-rule="evenodd" d="M0 25.0014L33.8336 5.36719L68.0179 25.1766L34.1843 44.8105L0 25.0014Z" fill="url(#paint5_linear_1_20773)"/>
<path fill-rule="evenodd" clip-rule="evenodd" d="M0 31.6614V25L34.1843 44.8092V51.4708L0 31.6614Z" fill="#BACBCF"/>
<path fill-rule="evenodd" clip-rule="evenodd" d="M0 31.6614V25L34.1843 44.8092V51.4708L0 31.6614Z" fill="url(#paint6_linear_1_20773)"/>
<path fill-rule="evenodd" clip-rule="evenodd" d="M68.3561 31.6614V25L34.1719 44.8092V51.4708L68.3561 31.6614Z" fill="#DFEDF0"/>
<path fill-rule="evenodd" clip-rule="evenodd" d="M68.3561 31.6614V25L34.1719 44.8092V51.4708L68.3561 31.6614Z" fill="url(#paint7_linear_1_20773)"/>
<path fill-rule="evenodd" clip-rule="evenodd" d="M68.3561 31.6614V25L34.1719 44.8092V51.4708L68.3561 31.6614Z" fill="url(#paint8_linear_1_20773)"/>
<path fill-rule="evenodd" clip-rule="evenodd" d="M26.1204 46.8823L5.78516 35.1367V58.6276L26.1204 46.8823Z" fill="#73BCE3"/>
<path fill-rule="evenodd" clip-rule="evenodd" d="M26.1204 46.8823L5.78516 35.1367V58.6276L26.1204 46.8823Z" fill="url(#paint9_linear_1_20773)"/>
<path fill-rule="evenodd" clip-rule="evenodd" d="M26.1204 46.9258L28.2241 48.1528V71.6434L5.78516 58.6711L26.1204 46.9258Z" fill="#34879E"/>
<path fill-rule="evenodd" clip-rule="evenodd" d="M26.1204 46.9258L28.2241 48.1528V71.6434L5.78516 58.6711L26.1204 46.9258Z" fill="url(#paint10_linear_1_20773)"/>
<path fill-rule="evenodd" clip-rule="evenodd" d="M62.4151 35.1367L61.3633 35.6629V64.7631L62.4151 65.289V35.1367Z" fill="#C5D7DB"/>
<path fill-rule="evenodd" clip-rule="evenodd" d="M62.4151 35.1367L61.3633 35.6629V64.7631L62.4151 65.289V35.1367Z" fill="url(#paint11_linear_1_20773)"/>
<path fill-rule="evenodd" clip-rule="evenodd" d="M31.748 66.9028L54.0116 54.1055L76.4506 66.9028L54.187 79.8752L31.748 66.9028Z" fill="#284E75"/>
<path fill-rule="evenodd" clip-rule="evenodd" d="M31.748 66.9028L54.0116 54.1055L76.4506 66.9028L54.187 79.8752L31.748 66.9028Z" fill="url(#paint12_linear_1_20773)"/>
<path fill-rule="evenodd" clip-rule="evenodd" d="M31.9062 69.0137V66.9102L54.1698 79.8825V81.9863L31.9062 69.0137Z" fill="#45729E"/>
<path fill-rule="evenodd" clip-rule="evenodd" d="M31.9062 69.0137V66.9102L54.1698 79.8825V81.9863L31.9062 69.0137Z" fill="url(#paint13_linear_1_20773)"/>
<path fill-rule="evenodd" clip-rule="evenodd" d="M76.4277 69.1889V66.9102L54.1641 79.8825V81.9863L76.4277 69.1889Z" fill="#1F3B57"/>
<path fill-rule="evenodd" clip-rule="evenodd" d="M76.4277 69.1889V66.9102L54.1641 79.8825V81.9863L76.4277 69.1889Z" fill="url(#paint14_linear_1_20773)"/>
<path fill-rule="evenodd" clip-rule="evenodd" d="M34.1719 44.7722L39.9569 41.4414V78.2553L34.1719 81.7613V44.7722Z" fill="#DFEDF0"/>
<path fill-rule="evenodd" clip-rule="evenodd" d="M34.1719 44.7722L39.9569 41.4414V78.2553L34.1719 81.7613V44.7722Z" fill="url(#paint15_linear_1_20773)"/>
<path fill-rule="evenodd" clip-rule="evenodd" d="M28.2129 78.2553V41.4414L34.1732 44.7722V81.7613L28.2129 78.2553Z" fill="#BACBCF"/>
<path fill-rule="evenodd" clip-rule="evenodd" d="M28.2129 78.2553V41.4414L34.1732 44.7722V81.7613L28.2129 78.2553Z" fill="url(#paint16_linear_1_20773)"/>
<path fill-rule="evenodd" clip-rule="evenodd" d="M54.1622 67.4294L48.9031 64.4492L49.0784 64.6244L49.2537 64.7996V65.1503L49.429 65.501V65.8514V66.2021V66.5528V66.9035V67.2539L49.2537 67.6046L49.0784 67.9552V68.3057L48.9031 68.6563L48.7278 69.007L48.3772 69.3577L48.2019 69.7081L48.0266 69.8836L47.676 70.234L47.3254 70.4095L47.1501 70.7602L46.7994 70.9354L46.4488 71.1106L46.0983 71.2861L45.7477 71.4613L45.397 71.6365H45.0464H44.8711H44.5205H44.3452L44.1699 71.4613L49.429 74.4414L49.6043 74.6166H49.7796H50.1303H50.3055H50.6561L51.0068 74.4414L51.3574 74.2662L51.708 74.0907L52.0586 73.9155L52.2339 73.7403L52.5845 73.3896L52.9351 73.2144L53.1104 72.8637L53.461 72.6883L53.6363 72.3378L53.8116 71.9872L53.9869 71.6365L54.1622 71.2861L54.3375 70.9354L54.5128 70.5847V70.234L54.6881 69.8836V69.5329V69.1822V68.8318V68.4811L54.5128 68.1304L54.3375 67.7798V67.6046L54.1622 67.4294Z" fill="#C43E3F"/>
<path fill-rule="evenodd" clip-rule="evenodd" d="M54.1622 67.4294L48.9031 64.4492L49.0784 64.6244L49.2537 64.7996V65.1503L49.429 65.501V65.8514V66.2021V66.5528V66.9035V67.2539L49.2537 67.6046L49.0784 67.9552V68.3057L48.9031 68.6563L48.7278 69.007L48.3772 69.3577L48.2019 69.7081L48.0266 69.8836L47.676 70.234L47.3254 70.4095L47.1501 70.7602L46.7994 70.9354L46.4488 71.1106L46.0983 71.2861L45.7477 71.4613L45.397 71.6365H45.0464H44.8711H44.5205H44.3452L44.1699 71.4613L49.429 74.4414L49.6043 74.6166H49.7796H50.1303H50.3055H50.6561L51.0068 74.4414L51.3574 74.2662L51.708 74.0907L52.0586 73.9155L52.2339 73.7403L52.5845 73.3896L52.9351 73.2144L53.1104 72.8637L53.461 72.6883L53.6363 72.3378L53.8116 71.9872L53.9869 71.6365L54.1622 71.2861L54.3375 70.9354L54.5128 70.5847V70.234L54.6881 69.8836V69.5329V69.1822V68.8318V68.4811L54.5128 68.1304L54.3375 67.7798V67.6046L54.1622 67.4294Z" fill="url(#paint17_linear_1_20773)"/>
<path fill-rule="evenodd" clip-rule="evenodd" d="M54.1595 67.4294L48.9004 64.4492L49.0757 64.6244L49.2509 64.7996V65.1503L49.4263 65.501V65.8514V66.2021V66.5528V66.9035V67.2539L49.2509 67.6046L49.0757 67.9552V68.3057L48.9004 68.6563L53.9842 71.6365L54.1595 71.2861L54.3348 70.9354L54.5101 70.5847V70.234L54.6854 69.8836V69.5329V69.1822V68.8318V68.4811L54.5101 68.1304L54.3348 67.7798V67.6046L54.1595 67.4294Z" fill="#943B3B"/>
<path fill-rule="evenodd" clip-rule="evenodd" d="M54.1595 67.4294L48.9004 64.4492L49.0757 64.6244L49.2509 64.7996V65.1503L49.4263 65.501V65.8514V66.2021V66.5528V66.9035V67.2539L49.2509 67.6046L49.0757 67.9552V68.3057L48.9004 68.6563L53.9842 71.6365L54.1595 71.2861L54.3348 70.9354L54.5101 70.5847V70.234L54.6854 69.8836V69.5329V69.1822V68.8318V68.4811L54.5101 68.1304L54.3348 67.7798V67.6046L54.1595 67.4294Z" fill="url(#paint18_linear_1_20773)"/>
<path fill-rule="evenodd" clip-rule="evenodd" d="M50.4955 65.527L45.2363 62.5469V65.527L50.4955 68.5071V65.527Z" fill="#943B3B"/>
<path fill-rule="evenodd" clip-rule="evenodd" d="M50.4955 65.527L45.2363 62.5469V65.527L50.4955 68.5071V65.527Z" fill="url(#paint19_linear_1_20773)"/>
<path fill-rule="evenodd" clip-rule="evenodd" d="M71.6961 49.5583L66.6122 46.5781L66.9628 46.7533L67.3135 47.104L67.4887 47.4547L67.6641 47.8051L67.8394 48.331L68.0147 48.8572L68.19 49.5583V50.2594V51.1359V51.4866V51.8373V52.1877V52.7136V53.0643L68.0147 53.415V53.7656V54.1161L67.8394 54.4667L67.6641 54.8174V55.1678L67.4887 55.5185L67.3135 55.8692V56.2199L67.1381 56.5703L66.9628 56.921L66.7875 57.0962L66.6122 57.4469L66.437 57.7976L66.2616 57.9728L65.911 58.3234L65.7357 58.6741L65.5604 58.8493L65.2098 59.2L65.0345 59.3752L64.6839 59.7259L64.5086 59.9011L64.158 60.0766L63.8074 60.427L63.4568 60.6025L63.1061 60.7777L62.7555 60.9529L59.7754 62.706L65.0345 65.6862L68.0147 63.933L68.3652 63.7578L68.7159 63.5826L69.0665 63.4071L69.2418 63.2319L69.5924 62.8813L69.943 62.706L70.1183 62.3554L70.4689 62.1802L70.6442 61.8295L70.9948 61.6543L71.1701 61.3036L71.3454 61.1284L71.5207 60.7777L71.6961 60.427L71.8713 60.0766L72.0467 59.9011L72.2219 59.5504L72.3973 59.2L72.5726 58.8493L72.7478 58.4987V58.1482L72.9232 57.7976L73.0985 57.4469V57.0962L73.2738 56.7458V56.3951V56.0444V55.694L73.4491 55.1678V54.8174V54.4667V54.1161V53.2398L73.2738 52.5384V51.8373L73.0985 51.3114L72.9232 50.7852L72.7478 50.4348L72.3973 50.0841L72.0467 49.7335L71.6961 49.5583Z" fill="#C43E3F"/>
<path fill-rule="evenodd" clip-rule="evenodd" d="M71.6961 49.5583L66.6122 46.5781L66.9628 46.7533L67.3135 47.104L67.4887 47.4547L67.6641 47.8051L67.8394 48.331L68.0147 48.8572L68.19 49.5583V50.2594V51.1359V51.4866V51.8373V52.1877V52.7136V53.0643L68.0147 53.415V53.7656V54.1161L67.8394 54.4667L67.6641 54.8174V55.1678L67.4887 55.5185L67.3135 55.8692V56.2199L67.1381 56.5703L66.9628 56.921L66.7875 57.0962L66.6122 57.4469L66.437 57.7976L66.2616 57.9728L65.911 58.3234L65.7357 58.6741L65.5604 58.8493L65.2098 59.2L65.0345 59.3752L64.6839 59.7259L64.5086 59.9011L64.158 60.0766L63.8074 60.427L63.4568 60.6025L63.1061 60.7777L62.7555 60.9529L59.7754 62.706L65.0345 65.6862L68.0147 63.933L68.3652 63.7578L68.7159 63.5826L69.0665 63.4071L69.2418 63.2319L69.5924 62.8813L69.943 62.706L70.1183 62.3554L70.4689 62.1802L70.6442 61.8295L70.9948 61.6543L71.1701 61.3036L71.3454 61.1284L71.5207 60.7777L71.6961 60.427L71.8713 60.0766L72.0467 59.9011L72.2219 59.5504L72.3973 59.2L72.5726 58.8493L72.7478 58.4987V58.1482L72.9232 57.7976L73.0985 57.4469V57.0962L73.2738 56.7458V56.3951V56.0444V55.694L73.4491 55.1678V54.8174V54.4667V54.1161V53.2398L73.2738 52.5384V51.8373L73.0985 51.3114L72.9232 50.7852L72.7478 50.4348L72.3973 50.0841L72.0467 49.7335L71.6961 49.5583Z" fill="url(#paint20_linear_1_20773)"/>
<path fill-rule="evenodd" clip-rule="evenodd" d="M71.6943 49.5583L66.6104 46.5781L66.9611 46.7533L67.3117 47.104L67.4869 47.4547L67.6623 47.8051L67.8376 48.331L68.0129 48.8572L68.1882 49.5583V50.2594V51.1359V51.4866V51.8373V52.1877V52.7136V53.0643L68.0129 53.415V53.7656V54.1161L67.8376 54.4667L67.6623 54.8174V55.1678L67.4869 55.5185L67.3117 55.8692V56.2199L67.1363 56.5703L66.9611 56.921L66.7857 57.0962L66.6104 57.4469L66.4352 57.7976L66.2598 57.9728L65.9092 58.3234L65.7339 58.6741L65.5586 58.8493L70.8178 61.8295L70.993 61.6543L71.1683 61.3036L71.3437 61.1284L71.5189 60.7777L71.6943 60.427L71.8695 60.0766L72.0449 59.9011L72.2202 59.5504L72.3955 59.2L72.5708 58.8493L72.746 58.4987V58.1482L72.9214 57.7976L73.0967 57.4469V57.0962L73.272 56.7458V56.3951V56.0444V55.694L73.4473 55.1678V54.8174V54.4667V54.1161V53.2398L73.272 52.5384V51.8373L73.0967 51.3114L72.9214 50.7852L72.746 50.4348L72.3955 50.0841L72.0449 49.7335L71.6943 49.5583Z" fill="#943B3B"/>
<path fill-rule="evenodd" clip-rule="evenodd" d="M71.6943 49.5583L66.6104 46.5781L66.9611 46.7533L67.3117 47.104L67.4869 47.4547L67.6623 47.8051L67.8376 48.331L68.0129 48.8572L68.1882 49.5583V50.2594V51.1359V51.4866V51.8373V52.1877V52.7136V53.0643L68.0129 53.415V53.7656V54.1161L67.8376 54.4667L67.6623 54.8174V55.1678L67.4869 55.5185L67.3117 55.8692V56.2199L67.1363 56.5703L66.9611 56.921L66.7857 57.0962L66.6104 57.4469L66.4352 57.7976L66.2598 57.9728L65.9092 58.3234L65.7339 58.6741L65.5586 58.8493L70.8178 61.8295L70.993 61.6543L71.1683 61.3036L71.3437 61.1284L71.5189 60.7777L71.6943 60.427L71.8695 60.0766L72.0449 59.9011L72.2202 59.5504L72.3955 59.2L72.5708 58.8493L72.746 58.4987V58.1482L72.9214 57.7976L73.0967 57.4469V57.0962L73.272 56.7458V56.3951V56.0444V55.694L73.4473 55.1678V54.8174V54.4667V54.1161V53.2398L73.272 52.5384V51.8373L73.0967 51.3114L72.9214 50.7852L72.746 50.4348L72.3955 50.0841L72.0449 49.7335L71.6943 49.5583Z" fill="url(#paint21_linear_1_20773)"/>
<path fill-rule="evenodd" clip-rule="evenodd" d="M48.5484 71.9757L43.2893 68.8203L39.7832 70.9239L44.867 73.904L48.5484 71.9757Z" fill="#CF5050"/>
<path fill-rule="evenodd" clip-rule="evenodd" d="M48.5484 71.9757L43.2893 68.8203L39.7832 70.9239L44.867 73.904L48.5484 71.9757Z" fill="url(#paint22_linear_1_20773)"/>
<path fill-rule="evenodd" clip-rule="evenodd" d="M44.867 73.8434L39.7832 70.8633V71.214V71.5644V72.0903V72.441V72.7916L39.9585 73.1423V73.4927L40.1338 73.6682V74.0186L40.3091 74.1941L40.4844 74.5445L40.6597 74.72L40.835 74.8952L41.0103 75.0707L41.1856 75.2459L41.3609 75.4211L46.62 78.4012L46.2694 78.226L46.0942 78.0508L45.9188 77.8753L45.7435 77.7001V77.5249L45.5682 77.1742L45.3929 76.9988L45.2176 76.6483V76.4729L45.0423 76.1224V75.7718V75.4211V75.0707L44.867 74.5445V74.1941V73.8434Z" fill="#943B3B"/>
<path fill-rule="evenodd" clip-rule="evenodd" d="M44.867 73.8434L39.7832 70.8633V71.214V71.5644V72.0903V72.441V72.7916L39.9585 73.1423V73.4927L40.1338 73.6682V74.0186L40.3091 74.1941L40.4844 74.5445L40.6597 74.72L40.835 74.8952L41.0103 75.0707L41.1856 75.2459L41.3609 75.4211L46.62 78.4012L46.2694 78.226L46.0942 78.0508L45.9188 77.8753L45.7435 77.7001V77.5249L45.5682 77.1742L45.3929 76.9988L45.2176 76.6483V76.4729L45.0423 76.1224V75.7718V75.4211V75.0707L44.867 74.5445V74.1941V73.8434Z" fill="url(#paint23_linear_1_20773)"/>
<path fill-rule="evenodd" clip-rule="evenodd" d="M60.9954 50.3786L55.7363 47.3984V68.9607L60.9954 71.9409V50.3786Z" fill="#943B3B"/>
<path fill-rule="evenodd" clip-rule="evenodd" d="M60.9954 50.3786L55.7363 47.3984V68.9607L60.9954 71.9409V50.3786Z" fill="url(#paint24_linear_1_20773)"/>
<path fill-rule="evenodd" clip-rule="evenodd" d="M57.4877 64.073L52.2286 61.0929L52.0534 60.9174H51.7027L51.5274 60.7422H51.1768H50.8262H50.4756L50.125 60.9174L55.2088 63.8975H55.7347L56.0853 63.7223H56.2606H56.6112L56.9618 63.8975H57.1371L57.4877 64.073Z" fill="#C43E3F"/>
<path fill-rule="evenodd" clip-rule="evenodd" d="M57.4877 64.073L52.2286 61.0929L52.0534 60.9174H51.7027L51.5274 60.7422H51.1768H50.8262H50.4756L50.125 60.9174L55.2088 63.8975H55.7347L56.0853 63.7223H56.2606H56.6112L56.9618 63.8975H57.1371L57.4877 64.073Z" fill="url(#paint25_linear_1_20773)"/>
<path fill-rule="evenodd" clip-rule="evenodd" d="M75.1951 44.9477L69.9359 41.9673L69.7606 41.7921L69.41 41.6169H69.0594H68.7088L68.3582 41.4414H68.0076H67.657L67.131 41.6169H66.7804L66.2545 41.7921L65.9039 41.9673L65.378 42.1428L64.8521 42.318L64.3262 42.4935L63.8003 42.8439L63.2744 43.0193L55.7363 47.4019L60.9954 50.3821L68.5335 45.9995L69.0594 45.824L69.5853 45.4736L70.1112 45.2981L70.6371 45.1229L70.9877 44.9477L71.5136 44.7722L71.8642 44.597H72.3902L72.7408 44.4218H73.0914H73.6173L73.9679 44.597H74.3185L74.6691 44.7722H74.8444L75.1951 44.9477Z" fill="#C43E3F"/>
<path fill-rule="evenodd" clip-rule="evenodd" d="M75.1951 44.9477L69.9359 41.9673L69.7606 41.7921L69.41 41.6169H69.0594H68.7088L68.3582 41.4414H68.0076H67.657L67.131 41.6169H66.7804L66.2545 41.7921L65.9039 41.9673L65.378 42.1428L64.8521 42.318L64.3262 42.4935L63.8003 42.8439L63.2744 43.0193L55.7363 47.4019L60.9954 50.3821L68.5335 45.9995L69.0594 45.824L69.5853 45.4736L70.1112 45.2981L70.6371 45.1229L70.9877 44.9477L71.5136 44.7722L71.8642 44.597H72.3902L72.7408 44.4218H73.0914H73.6173L73.9679 44.597H74.3185L74.6691 44.7722H74.8444L75.1951 44.9477Z" fill="url(#paint26_linear_1_20773)"/>
<path fill-rule="evenodd" clip-rule="evenodd" d="M53.6509 59.1325L48.3918 56.1523H48.5671L48.7424 56.3276V56.5028L48.9178 56.6782V56.8534L49.093 57.0286V57.3793V57.5548V57.9052V58.2559L48.9178 58.6066V58.957L48.7424 59.1325L48.5671 59.4829V59.8336L48.2165 60.009L48.0412 60.3595L47.8659 60.5349L47.5153 60.8854L47.34 61.0608L46.9894 61.4112L46.6388 61.5867L46.2882 61.9374L45.9376 62.1126H45.7623V62.2878H45.5869H45.4117V62.4633H45.2363L50.4955 65.4434L50.6708 65.2679H50.846L51.0214 65.0927L51.5473 64.9175L51.8979 64.5669L52.2485 64.3916L52.4238 64.2162L52.7744 63.8655L52.9497 63.6903L53.3004 63.3396L53.4756 62.9892L53.6509 62.8137L53.8262 62.4633L54.0015 62.1126V61.9374L54.1769 61.5867V61.236V60.8854L54.3521 60.5349L54.1769 60.3595V60.009V59.8336V59.6584L54.0015 59.4829L53.8262 59.3077L53.6509 59.1325Z" fill="#C43E3F"/>
<path fill-rule="evenodd" clip-rule="evenodd" d="M53.6509 59.1325L48.3918 56.1523H48.5671L48.7424 56.3276V56.5028L48.9178 56.6782V56.8534L49.093 57.0286V57.3793V57.5548V57.9052V58.2559L48.9178 58.6066V58.957L48.7424 59.1325L48.5671 59.4829V59.8336L48.2165 60.009L48.0412 60.3595L47.8659 60.5349L47.5153 60.8854L47.34 61.0608L46.9894 61.4112L46.6388 61.5867L46.2882 61.9374L45.9376 62.1126H45.7623V62.2878H45.5869H45.4117V62.4633H45.2363L50.4955 65.4434L50.6708 65.2679H50.846L51.0214 65.0927L51.5473 64.9175L51.8979 64.5669L52.2485 64.3916L52.4238 64.2162L52.7744 63.8655L52.9497 63.6903L53.3004 63.3396L53.4756 62.9892L53.6509 62.8137L53.8262 62.4633L54.0015 62.1126V61.9374L54.1769 61.5867V61.236V60.8854L54.3521 60.5349L54.1769 60.3595V60.009V59.8336V59.6584L54.0015 59.4829L53.8262 59.3077L53.6509 59.1325Z" fill="url(#paint27_linear_1_20773)"/>
<path fill-rule="evenodd" clip-rule="evenodd" d="M48.0352 60.5349V60.7101L52.9437 63.6903L53.2943 63.3396L53.4696 62.9892L53.6449 62.8137L53.8202 62.4633L53.9955 62.1126V61.9374L54.1708 61.5867V61.236V60.8854L54.3461 60.5349L54.1708 60.3595V60.009V59.8336V59.6584L53.9955 59.4829L53.8202 59.3077L53.6449 59.1325L48.3858 56.1523H48.5611L48.7364 56.3276V56.5028L48.9117 56.6782V56.8534L49.087 57.0286V57.3793V57.5548V57.9052V58.2559L48.9117 58.6066V58.957L48.7364 59.1325L48.5611 59.4829V59.8336L48.2105 60.009L48.0352 60.3595V60.5349Z" fill="#943B3B"/>
<path fill-rule="evenodd" clip-rule="evenodd" d="M48.0352 60.5349V60.7101L52.9437 63.6903L53.2943 63.3396L53.4696 62.9892L53.6449 62.8137L53.8202 62.4633L53.9955 62.1126V61.9374L54.1708 61.5867V61.236V60.8854L54.3461 60.5349L54.1708 60.3595V60.009V59.8336V59.6584L53.9955 59.4829L53.8202 59.3077L53.6449 59.1325L48.3858 56.1523H48.5611L48.7364 56.3276V56.5028L48.9117 56.6782V56.8534L49.087 57.0286V57.3793V57.5548V57.9052V58.2559L48.9117 58.6066V58.957L48.7364 59.1325L48.5611 59.4829V59.8336L48.2105 60.009L48.0352 60.3595V60.5349Z" fill="url(#paint28_linear_1_20773)"/>
<path fill-rule="evenodd" clip-rule="evenodd" d="M56.6074 55.2912L51.3483 52.1356L50.9977 51.9604H50.4718L50.1212 51.7852L49.5953 51.9604H49.0694L48.3681 52.1356L47.8423 52.311L47.141 52.6615L46.6151 53.0121L46.2645 53.1876L45.9139 53.3628L45.5633 53.7135L45.2127 53.8887L44.8621 54.0639L44.5115 54.4146L44.1609 54.7653L43.9855 54.9405L43.6349 55.2912L43.4597 55.6419L43.109 55.8171L42.9338 56.1678L42.5831 56.5182L42.4078 56.8688L42.2325 57.2195L42.0572 57.5702L41.7066 57.9206L41.5313 58.2713L41.356 58.622L41.1807 58.9724V59.3231L41.0054 59.6738L40.8301 60.0245L40.6548 60.5503V60.9008L40.4795 61.2514V61.6021L40.3042 62.128V62.4787V62.8291V63.355L40.1289 63.7057L45.388 66.6858V66.3354V65.8092L45.5633 65.4588V65.1082V64.5823L45.7386 64.2316V63.8809L45.9139 63.5305L46.0892 63.0046V62.6539L46.2645 62.3032L46.4398 61.9528L46.6151 61.6021L46.7904 61.2514L46.9657 60.9008L47.141 60.5503L47.3164 60.1997L47.667 59.849L47.8423 59.4983L48.0175 59.1479L48.3681 58.7972L48.5435 58.622L48.8941 58.2713L49.0694 57.9206L49.42 57.7454L49.7706 57.3947L50.1212 57.2195L50.2965 56.8688L50.6471 56.6936L50.9977 56.343L51.3483 56.1678L51.699 55.9923L52.4001 55.6419L53.1014 55.2912L53.6272 55.1157L54.1532 54.9405H54.6791H55.205H55.7309L56.0816 55.1157L56.6074 55.2912Z" fill="#C43E3F"/>
<path fill-rule="evenodd" clip-rule="evenodd" d="M56.6074 55.2912L51.3483 52.1356L50.9977 51.9604H50.4718L50.1212 51.7852L49.5953 51.9604H49.0694L48.3681 52.1356L47.8423 52.311L47.141 52.6615L46.6151 53.0121L46.2645 53.1876L45.9139 53.3628L45.5633 53.7135L45.2127 53.8887L44.8621 54.0639L44.5115 54.4146L44.1609 54.7653L43.9855 54.9405L43.6349 55.2912L43.4597 55.6419L43.109 55.8171L42.9338 56.1678L42.5831 56.5182L42.4078 56.8688L42.2325 57.2195L42.0572 57.5702L41.7066 57.9206L41.5313 58.2713L41.356 58.622L41.1807 58.9724V59.3231L41.0054 59.6738L40.8301 60.0245L40.6548 60.5503V60.9008L40.4795 61.2514V61.6021L40.3042 62.128V62.4787V62.8291V63.355L40.1289 63.7057L45.388 66.6858V66.3354V65.8092L45.5633 65.4588V65.1082V64.5823L45.7386 64.2316V63.8809L45.9139 63.5305L46.0892 63.0046V62.6539L46.2645 62.3032L46.4398 61.9528L46.6151 61.6021L46.7904 61.2514L46.9657 60.9008L47.141 60.5503L47.3164 60.1997L47.667 59.849L47.8423 59.4983L48.0175 59.1479L48.3681 58.7972L48.5435 58.622L48.8941 58.2713L49.0694 57.9206L49.42 57.7454L49.7706 57.3947L50.1212 57.2195L50.2965 56.8688L50.6471 56.6936L50.9977 56.343L51.3483 56.1678L51.699 55.9923L52.4001 55.6419L53.1014 55.2912L53.6272 55.1157L54.1532 54.9405H54.6791H55.205H55.7309L56.0816 55.1157L56.6074 55.2912Z" fill="url(#paint29_linear_1_20773)"/>
<path fill-rule="evenodd" clip-rule="evenodd" d="M45.4166 66.679L48.9227 64.5755C48.9227 62.1212 49.9745 60.3681 51.7275 59.3163C53.3053 58.4398 54.1818 58.9658 54.1818 60.5436C54.1818 62.2966 53.1299 63.8743 51.0263 65.1014C50.851 65.1014 50.6757 65.2768 50.3251 65.4521V68.4322C50.3251 68.4322 50.851 68.0816 51.2016 67.9063C52.9546 66.8545 54.5324 66.8543 54.5324 69.1333C54.5324 71.0616 53.3052 72.99 51.5522 74.0418C49.6238 75.2689 48.3967 74.3926 48.3967 71.763L44.8906 73.8666V74.2173C44.8906 78.7752 47.5202 80.0022 51.7275 77.7233C55.7595 75.4443 58.5644 70.8865 58.5644 66.8545C58.5644 64.4003 57.3372 63.1729 55.2336 63.8741C56.8113 62.4717 57.8631 60.1929 57.8631 58.2645C57.8631 54.7585 55.4089 53.8819 51.7275 55.9855C47.8708 58.2645 45.5919 62.2965 45.4166 66.679ZM61.0186 71.9382L68.5567 67.5556C74.3417 64.2248 77.6725 58.4398 77.6725 51.6029C77.6725 44.7661 74.3417 42.6626 68.5567 45.9933L61.0186 50.3759V71.9382ZM65.0506 65.6273V51.9536L68.0308 50.2004C71.7122 48.0968 73.4652 49.4993 73.4652 53.8819C73.4652 58.2645 71.7122 61.5952 68.0308 63.8741L65.0506 65.6273Z" fill="#F25E4B"/>
<path fill-rule="evenodd" clip-rule="evenodd" d="M45.4166 66.679L48.9227 64.5755C48.9227 62.1212 49.9745 60.3681 51.7275 59.3163C53.3053 58.4398 54.1818 58.9658 54.1818 60.5436C54.1818 62.2966 53.1299 63.8743 51.0263 65.1014C50.851 65.1014 50.6757 65.2768 50.3251 65.4521V68.4322C50.3251 68.4322 50.851 68.0816 51.2016 67.9063C52.9546 66.8545 54.5324 66.8543 54.5324 69.1333C54.5324 71.0616 53.3052 72.99 51.5522 74.0418C49.6238 75.2689 48.3967 74.3926 48.3967 71.763L44.8906 73.8666V74.2173C44.8906 78.7752 47.5202 80.0022 51.7275 77.7233C55.7595 75.4443 58.5644 70.8865 58.5644 66.8545C58.5644 64.4003 57.3372 63.1729 55.2336 63.8741C56.8113 62.4717 57.8631 60.1929 57.8631 58.2645C57.8631 54.7585 55.4089 53.8819 51.7275 55.9855C47.8708 58.2645 45.5919 62.2965 45.4166 66.679ZM61.0186 71.9382L68.5567 67.5556C74.3417 64.2248 77.6725 58.4398 77.6725 51.6029C77.6725 44.7661 74.3417 42.6626 68.5567 45.9933L61.0186 50.3759V71.9382ZM65.0506 65.6273V51.9536L68.0308 50.2004C71.7122 48.0968 73.4652 49.4993 73.4652 53.8819C73.4652 58.2645 71.7122 61.5952 68.0308 63.8741L65.0506 65.6273Z" fill="url(#paint30_linear_1_20773)"/>
<path fill-rule="evenodd" clip-rule="evenodd" d="M41.356 58.8398L46.6151 61.82L46.4398 61.9955L46.2645 62.3459L46.0892 62.6965V63.0472L45.9139 63.5731L45.7386 63.9235V64.2742L45.5633 64.6249V65.1508V65.5015L45.388 65.8519V66.378V66.7285L40.1289 63.7483L40.3042 63.3976V62.8718V62.5213V62.1707L40.4795 61.6448V61.2941L40.6548 60.9434V60.593L40.8301 60.0671L41.0054 59.7164L41.1807 59.3657V59.0151L41.356 58.8398Z" fill="#943B3B"/>
<path fill-rule="evenodd" clip-rule="evenodd" d="M41.356 58.8398L46.6151 61.82L46.4398 61.9955L46.2645 62.3459L46.0892 62.6965V63.0472L45.9139 63.5731L45.7386 63.9235V64.2742L45.5633 64.6249V65.1508V65.5015L45.388 65.8519V66.378V66.7285L40.1289 63.7483L40.3042 63.3976V62.8718V62.5213V62.1707L40.4795 61.6448V61.2941L40.6548 60.9434V60.593L40.8301 60.0671L41.0054 59.7164L41.1807 59.3657V59.0151L41.356 58.8398Z" fill="url(#paint31_linear_1_20773)"/>
<path fill-rule="evenodd" clip-rule="evenodd" d="M48.9227 51.9883L48.3967 52.1635L47.8708 52.339L47.1696 52.6894L46.6437 53.0401L46.2931 53.2155L45.9425 53.3907L45.5919 53.7414L45.2412 53.9166L44.8906 54.0918L50.1498 57.072L50.3251 56.8968L50.6757 56.7216L51.0263 56.3709L51.3769 56.1957L51.7275 56.0202L52.4287 55.6698L53.1299 55.3191L53.6558 55.1436L54.1818 54.9684L48.9227 51.9883Z" fill="#CF5050"/>
<path fill-rule="evenodd" clip-rule="evenodd" d="M48.9227 51.9883L48.3967 52.1635L47.8708 52.339L47.1696 52.6894L46.6437 53.0401L46.2931 53.2155L45.9425 53.3907L45.5919 53.7414L45.2412 53.9166L44.8906 54.0918L50.1498 57.072L50.3251 56.8968L50.6757 56.7216L51.0263 56.3709L51.3769 56.1957L51.7275 56.0202L52.4287 55.6698L53.1299 55.3191L53.6558 55.1436L54.1818 54.9684L48.9227 51.9883Z" fill="url(#paint32_linear_1_20773)"/>
<path fill-rule="evenodd" clip-rule="evenodd" d="M31.5571 25.1554C32.7842 25.8566 34.8878 25.8566 36.1149 25.1554C37.3421 24.4541 37.3421 23.2271 36.1149 22.5259C34.8878 21.8247 32.7842 21.8247 31.5571 22.5259C30.3299 23.2271 30.3299 24.4541 31.5571 25.1554Z" fill="#2C3E50"/>
<path fill-rule="evenodd" clip-rule="evenodd" d="M31.5571 25.1554C32.7842 25.8566 34.8878 25.8566 36.1149 25.1554C37.3421 24.4541 37.3421 23.2271 36.1149 22.5259C34.8878 21.8247 32.7842 21.8247 31.5571 22.5259C30.3299 23.2271 30.3299 24.4541 31.5571 25.1554Z" fill="url(#paint33_linear_1_20773)"/>
<path fill-rule="evenodd" clip-rule="evenodd" d="M37.1601 23.7734H30.6738C30.6738 23.7734 31.0244 24.8253 31.5503 25.1759C32.7775 25.8771 34.8811 25.8771 36.1082 25.1759C36.8094 24.8253 37.1601 24.2993 36.9848 23.7734H37.1601Z" fill="#2C3E50"/>
<path fill-rule="evenodd" clip-rule="evenodd" d="M37.1601 23.7734H30.6738C30.6738 23.7734 31.0244 24.8253 31.5503 25.1759C32.7775 25.8771 34.8811 25.8771 36.1082 25.1759C36.8094 24.8253 37.1601 24.2993 36.9848 23.7734H37.1601Z" fill="url(#paint34_linear_1_20773)"/>
<path fill-rule="evenodd" clip-rule="evenodd" d="M36.1076 25.3345C34.8805 24.6333 33.1275 24.6333 31.9004 25.3345C33.1275 26.0357 35.2311 26.0357 36.4583 25.3345H36.1076Z" fill="#808080"/>
<path fill-rule="evenodd" clip-rule="evenodd" d="M36.1076 25.3345C34.8805 24.6333 33.1275 24.6333 31.9004 25.3345C33.1275 26.0357 35.2311 26.0357 36.4583 25.3345H36.1076Z" fill="url(#paint35_linear_1_20773)"/>
<path fill-rule="evenodd" clip-rule="evenodd" d="M36.4656 25.1353C35.2385 24.4341 32.9595 24.4341 31.7324 25.1353C31.7324 25.1353 31.7325 25.1353 31.9078 25.1353C33.1349 25.8365 35.2385 25.8365 36.4656 25.1353C36.4656 25.1353 36.4657 25.1353 36.641 25.1353H36.4656Z" fill="#34485C"/>
<path fill-rule="evenodd" clip-rule="evenodd" d="M36.4656 25.1353C35.2385 24.4341 32.9595 24.4341 31.7324 25.1353C31.7324 25.1353 31.7325 25.1353 31.9078 25.1353C33.1349 25.8365 35.2385 25.8365 36.4656 25.1353C36.4656 25.1353 36.4657 25.1353 36.641 25.1353H36.4656Z" fill="url(#paint36_linear_1_20773)"/>
<path fill-rule="evenodd" clip-rule="evenodd" d="M36.2904 25.1353C35.0632 24.4341 32.9595 24.4341 31.7324 25.1353C32.9595 25.8365 35.0632 25.8365 36.2904 25.1353Z" fill="#1A1A1A"/>
<path fill-rule="evenodd" clip-rule="evenodd" d="M36.2904 25.1353C35.0632 24.4341 32.9595 24.4341 31.7324 25.1353C32.9595 25.8365 35.0632 25.8365 36.2904 25.1353Z" fill="url(#paint37_linear_1_20773)"/>
<path fill-rule="evenodd" clip-rule="evenodd" d="M32.9488 25.6838V24.632C32.9488 22.0025 33.4747 19.0224 34.5265 16.2175C35.5783 13.2374 36.9808 10.4325 38.5585 7.97823C40.4868 5.34867 42.5904 3.24491 44.8694 1.84248C47.1483 0.440053 49.6026 -0.261269 51.3557 0.0893384C53.8099 0.61525 56.2641 2.3683 58.0172 6.40029C59.4196 9.55576 60.6467 14.2892 61.1726 21.126L59.069 19.8988C58.5431 14.1137 57.4913 10.0817 56.2642 7.27686C54.6864 3.94609 52.9334 2.5436 50.8297 2.01769C49.4273 1.66708 47.6743 2.19303 45.7459 3.42015C43.8176 4.64728 41.7139 6.57575 39.9609 9.03001C38.3832 11.309 37.156 13.9386 36.1042 16.7434C35.2277 19.373 34.7018 22.0025 34.7018 24.632V25.5086C34.7018 25.5086 33.2993 25.5086 32.7734 25.5086L32.9488 25.6838Z" fill="#943B3B"/>
<path fill-rule="evenodd" clip-rule="evenodd" d="M32.9488 25.6838V24.632C32.9488 22.0025 33.4747 19.0224 34.5265 16.2175C35.5783 13.2374 36.9808 10.4325 38.5585 7.97823C40.4868 5.34867 42.5904 3.24491 44.8694 1.84248C47.1483 0.440053 49.6026 -0.261269 51.3557 0.0893384C53.8099 0.61525 56.2641 2.3683 58.0172 6.40029C59.4196 9.55576 60.6467 14.2892 61.1726 21.126L59.069 19.8988C58.5431 14.1137 57.4913 10.0817 56.2642 7.27686C54.6864 3.94609 52.9334 2.5436 50.8297 2.01769C49.4273 1.66708 47.6743 2.19303 45.7459 3.42015C43.8176 4.64728 41.7139 6.57575 39.9609 9.03001C38.3832 11.309 37.156 13.9386 36.1042 16.7434C35.2277 19.373 34.7018 22.0025 34.7018 24.632V25.5086C34.7018 25.5086 33.2993 25.5086 32.7734 25.5086L32.9488 25.6838Z" fill="url(#paint38_linear_1_20773)"/>
<defs>
<linearGradient id="paint0_linear_1_20773" x1="15.9127" y1="61.7067" x2="68.6144" y2="62.6052" gradientUnits="userSpaceOnUse">
<stop stop-color="#E6F0FF"/>
<stop offset="0.24" stop-color="#E2ECFD"/>
<stop offset="0.47" stop-color="#D6E3F8"/>
<stop offset="0.69" stop-color="#C3D3F0"/>
<stop offset="0.91" stop-color="#A9BDE4"/>
<stop offset="1" stop-color="#9CB2DF"/>
</linearGradient>
<linearGradient id="paint1_linear_1_20773" x1="41.8235" y1="33.2837" x2="68.317" y2="33.4413" gradientUnits="userSpaceOnUse">
<stop stop-color="#9CB2DF"/>
<stop offset="0.09" stop-color="#A9BDE4"/>
<stop offset="0.31" stop-color="#C3D3F0"/>
<stop offset="0.53" stop-color="#D6E3F8"/>
<stop offset="0.76" stop-color="#E2ECFD"/>
<stop offset="1" stop-color="#E6F0FF"/>
</linearGradient>
<linearGradient id="paint2_linear_1_20773" x1="63.8085" y1="44.8171" x2="68.428" y2="44.8239" gradientUnits="userSpaceOnUse">
<stop stop-color="#E6F0FF"/>
<stop offset="0.24" stop-color="#E2ECFD"/>
<stop offset="0.47" stop-color="#D6E3F8"/>
<stop offset="0.69" stop-color="#C3D3F0"/>
<stop offset="0.91" stop-color="#A9BDE4"/>
<stop offset="1" stop-color="#9CB2DF"/>
</linearGradient>
<linearGradient id="paint3_linear_1_20773" x1="1.35339" y1="44.8171" x2="5.83702" y2="44.8235" gradientUnits="userSpaceOnUse">
<stop stop-color="#E6F0FF"/>
<stop offset="0.24" stop-color="#E2ECFD"/>
<stop offset="0.47" stop-color="#D6E3F8"/>
<stop offset="0.69" stop-color="#C3D3F0"/>
<stop offset="0.91" stop-color="#A9BDE4"/>
<stop offset="1" stop-color="#9CB2DF"/>
</linearGradient>
<linearGradient id="paint4_linear_1_20773" x1="7.99735" y1="68.3424" x2="34.4874" y2="68.6806" gradientUnits="userSpaceOnUse">
<stop stop-color="#E6F0FF"/>
<stop offset="0.24" stop-color="#E2ECFD"/>
<stop offset="0.47" stop-color="#D6E3F8"/>
<stop offset="0.69" stop-color="#C3D3F0"/>
<stop offset="0.91" stop-color="#A9BDE4"/>
<stop offset="1" stop-color="#9CB2DF"/>
</linearGradient>
<linearGradient id="paint5_linear_1_20773" x1="15.9127" y1="24.7536" x2="68.6144" y2="25.6521" gradientUnits="userSpaceOnUse">
<stop stop-color="#E6F0FF"/>
<stop offset="0.24" stop-color="#E2ECFD"/>
<stop offset="0.47" stop-color="#D6E3F8"/>
<stop offset="0.69" stop-color="#C3D3F0"/>
<stop offset="0.91" stop-color="#A9BDE4"/>
<stop offset="1" stop-color="#9CB2DF"/>
</linearGradient>
<linearGradient id="paint6_linear_1_20773" x1="7.99735" y1="38.0104" x2="34.4874" y2="38.3486" gradientUnits="userSpaceOnUse">
<stop stop-color="#E6F0FF"/>
<stop offset="0.24" stop-color="#E2ECFD"/>
<stop offset="0.47" stop-color="#D6E3F8"/>
<stop offset="0.69" stop-color="#C3D3F0"/>
<stop offset="0.91" stop-color="#A9BDE4"/>
<stop offset="1" stop-color="#9CB2DF"/>
</linearGradient>
<linearGradient id="paint7_linear_1_20773" x1="42.1692" y1="38.0104" x2="68.6592" y2="38.3486" gradientUnits="userSpaceOnUse">
<stop stop-color="#E6F0FF"/>
<stop offset="0.24" stop-color="#E2ECFD"/>
<stop offset="0.47" stop-color="#D6E3F8"/>
<stop offset="0.69" stop-color="#C3D3F0"/>
<stop offset="0.91" stop-color="#A9BDE4"/>
<stop offset="1" stop-color="#9CB2DF"/>
</linearGradient>
<linearGradient id="paint8_linear_1_20773" x1="42.1692" y1="38.0104" x2="68.6592" y2="38.3486" gradientUnits="userSpaceOnUse">
<stop stop-color="#E6F0FF"/>
<stop offset="0.24" stop-color="#E2ECFD"/>
<stop offset="0.47" stop-color="#D6E3F8"/>
<stop offset="0.69" stop-color="#C3D3F0"/>
<stop offset="0.91" stop-color="#A9BDE4"/>
<stop offset="1" stop-color="#9CB2DF"/>
</linearGradient>
<linearGradient id="paint9_linear_1_20773" x1="22.157" y1="49.8498" x2="12.5296" y2="35.3416" gradientUnits="userSpaceOnUse">
<stop stop-color="#9CB2DF"/>
<stop offset="0.09" stop-color="#A9BDE4"/>
<stop offset="0.31" stop-color="#C3D3F0"/>
<stop offset="0.53" stop-color="#D6E3F8"/>
<stop offset="0.76" stop-color="#E2ECFD"/>
<stop offset="1" stop-color="#E6F0FF"/>
</linearGradient>
<linearGradient id="paint10_linear_1_20773" x1="20.0248" y1="50.6787" x2="35.5626" y2="69.7722" gradientUnits="userSpaceOnUse">
<stop stop-color="#9CB2DF"/>
<stop offset="0.09" stop-color="#A9BDE4"/>
<stop offset="0.31" stop-color="#C3D3F0"/>
<stop offset="0.53" stop-color="#D6E3F8"/>
<stop offset="0.76" stop-color="#E2ECFD"/>
<stop offset="1" stop-color="#E6F0FF"/>
</linearGradient>
<linearGradient id="paint11_linear_1_20773" x1="61.6093" y1="49.9566" x2="62.4245" y2="49.9569" gradientUnits="userSpaceOnUse">
<stop stop-color="#E6F0FF"/>
<stop offset="0.24" stop-color="#E2ECFD"/>
<stop offset="0.47" stop-color="#D6E3F8"/>
<stop offset="0.69" stop-color="#C3D3F0"/>
<stop offset="0.91" stop-color="#A9BDE4"/>
<stop offset="1" stop-color="#9CB2DF"/>
</linearGradient>
<linearGradient id="paint12_linear_1_20773" x1="42.2061" y1="66.7713" x2="76.8425" y2="67.3653" gradientUnits="userSpaceOnUse">
<stop stop-color="#E6F0FF"/>
<stop offset="0.24" stop-color="#E2ECFD"/>
<stop offset="0.47" stop-color="#D6E3F8"/>
<stop offset="0.69" stop-color="#C3D3F0"/>
<stop offset="0.91" stop-color="#A9BDE4"/>
<stop offset="1" stop-color="#9CB2DF"/>
</linearGradient>
<linearGradient id="paint13_linear_1_20773" x1="37.1148" y1="74.3201" x2="54.3664" y2="74.572" gradientUnits="userSpaceOnUse">
<stop stop-color="#E6F0FF"/>
<stop offset="0.24" stop-color="#E2ECFD"/>
<stop offset="0.47" stop-color="#D6E3F8"/>
<stop offset="0.69" stop-color="#C3D3F0"/>
<stop offset="0.91" stop-color="#A9BDE4"/>
<stop offset="1" stop-color="#9CB2DF"/>
</linearGradient>
<linearGradient id="paint14_linear_1_20773" x1="59.3726" y1="74.3201" x2="76.6242" y2="74.572" gradientUnits="userSpaceOnUse">
<stop stop-color="#E6F0FF"/>
<stop offset="0.24" stop-color="#E2ECFD"/>
<stop offset="0.47" stop-color="#D6E3F8"/>
<stop offset="0.69" stop-color="#C3D3F0"/>
<stop offset="0.91" stop-color="#A9BDE4"/>
<stop offset="1" stop-color="#9CB2DF"/>
</linearGradient>
<linearGradient id="paint15_linear_1_20773" x1="40.0075" y1="62.2281" x2="35.5239" y2="62.2217" gradientUnits="userSpaceOnUse">
<stop stop-color="#9CB2DF"/>
<stop offset="0.09" stop-color="#A9BDE4"/>
<stop offset="0.31" stop-color="#C3D3F0"/>
<stop offset="0.53" stop-color="#D6E3F8"/>
<stop offset="0.76" stop-color="#E2ECFD"/>
<stop offset="1" stop-color="#E6F0FF"/>
</linearGradient>
<linearGradient id="paint16_linear_1_20773" x1="29.6073" y1="61.2587" x2="34.2268" y2="61.2654" gradientUnits="userSpaceOnUse">
<stop stop-color="#E6F0FF"/>
<stop offset="0.24" stop-color="#E2ECFD"/>
<stop offset="0.47" stop-color="#D6E3F8"/>
<stop offset="0.69" stop-color="#C3D3F0"/>
<stop offset="0.91" stop-color="#A9BDE4"/>
<stop offset="1" stop-color="#9CB2DF"/>
</linearGradient>
<linearGradient id="paint17_linear_1_20773" x1="44.1669" y1="69.5329" x2="54.6811" y2="69.5329" gradientUnits="userSpaceOnUse">
<stop stop-color="#4AFFC7"/>
<stop offset="1" stop-color="#3BADEA"/>
</linearGradient>
<linearGradient id="paint18_linear_1_20773" x1="48.8987" y1="68.0428" x2="54.6815" y2="68.0428" gradientUnits="userSpaceOnUse">
<stop stop-color="#4AFFC7"/>
<stop offset="1" stop-color="#3BADEA"/>
</linearGradient>
<linearGradient id="paint19_linear_1_20773" x1="45.2348" y1="65.527" x2="50.492" y2="65.527" gradientUnits="userSpaceOnUse">
<stop stop-color="#4AFFC7"/>
<stop offset="1" stop-color="#3BADEA"/>
</linearGradient>
<linearGradient id="paint20_linear_1_20773" x1="59.7714" y1="56.1321" x2="73.4399" y2="56.1321" gradientUnits="userSpaceOnUse">
<stop stop-color="#4AFFC7"/>
<stop offset="1" stop-color="#3BADEA"/>
</linearGradient>
<linearGradient id="paint21_linear_1_20773" x1="65.5563" y1="54.2038" x2="73.442" y2="54.2038" gradientUnits="userSpaceOnUse">
<stop stop-color="#4AFFC7"/>
<stop offset="1" stop-color="#3BADEA"/>
</linearGradient>
<linearGradient id="paint22_linear_1_20773" x1="39.7807" y1="71.3622" x2="48.5425" y2="71.3622" gradientUnits="userSpaceOnUse">
<stop stop-color="#4AFFC7"/>
<stop offset="1" stop-color="#3BADEA"/>
</linearGradient>
<linearGradient id="paint23_linear_1_20773" x1="39.7812" y1="74.6322" x2="46.6155" y2="74.6322" gradientUnits="userSpaceOnUse">
<stop stop-color="#4AFFC7"/>
<stop offset="1" stop-color="#3BADEA"/>
</linearGradient>
<linearGradient id="paint24_linear_1_20773" x1="55.7348" y1="59.6696" x2="60.9919" y2="59.6696" gradientUnits="userSpaceOnUse">
<stop stop-color="#3BADEA"/>
<stop offset="1" stop-color="#4AFFC7"/>
</linearGradient>
<linearGradient id="paint25_linear_1_20773" x1="50.1229" y1="62.4076" x2="57.4828" y2="62.4076" gradientUnits="userSpaceOnUse">
<stop stop-color="#4AFFC7"/>
<stop offset="1" stop-color="#3BADEA"/>
</linearGradient>
<linearGradient id="paint26_linear_1_20773" x1="55.7307" y1="45.9117" x2="75.1821" y2="45.9117" gradientUnits="userSpaceOnUse">
<stop stop-color="#4AFFC7"/>
<stop offset="1" stop-color="#3BADEA"/>
</linearGradient>
<linearGradient id="paint27_linear_1_20773" x1="45.2337" y1="60.7979" x2="54.3461" y2="60.7979" gradientUnits="userSpaceOnUse">
<stop stop-color="#4AFFC7"/>
<stop offset="1" stop-color="#3BADEA"/>
</linearGradient>
<linearGradient id="paint28_linear_1_20773" x1="48.0333" y1="59.9213" x2="54.3419" y2="59.9213" gradientUnits="userSpaceOnUse">
<stop stop-color="#4AFFC7"/>
<stop offset="1" stop-color="#3BADEA"/>
</linearGradient>
<linearGradient id="paint29_linear_1_20773" x1="40.1241" y1="59.2355" x2="56.5964" y2="59.2355" gradientUnits="userSpaceOnUse">
<stop stop-color="#4AFFC7"/>
<stop offset="1" stop-color="#3BADEA"/>
</linearGradient>
<linearGradient id="paint30_linear_1_20773" x1="44.8811" y1="61.6409" x2="77.6506" y2="61.6409" gradientUnits="userSpaceOnUse">
<stop stop-color="#4AFFC7"/>
<stop offset="1" stop-color="#3BADEA"/>
</linearGradient>
<linearGradient id="paint31_linear_1_20773" x1="40.127" y1="62.7842" x2="46.6108" y2="62.7842" gradientUnits="userSpaceOnUse">
<stop stop-color="#4AFFC7"/>
<stop offset="1" stop-color="#3BADEA"/>
</linearGradient>
<linearGradient id="paint32_linear_1_20773" x1="44.8879" y1="54.5301" x2="54.1756" y2="54.5301" gradientUnits="userSpaceOnUse">
<stop stop-color="#4AFFC7"/>
<stop offset="1" stop-color="#3BADEA"/>
</linearGradient>
<linearGradient id="paint33_linear_1_20773" x1="32.1337" y1="23.8093" x2="37.0914" y2="23.8945" gradientUnits="userSpaceOnUse">
<stop stop-color="#E6F0FF"/>
<stop offset="0.24" stop-color="#E2ECFD"/>
<stop offset="0.47" stop-color="#D6E3F8"/>
<stop offset="0.69" stop-color="#C3D3F0"/>
<stop offset="0.91" stop-color="#A9BDE4"/>
<stop offset="1" stop-color="#9CB2DF"/>
</linearGradient>
<linearGradient id="paint34_linear_1_20773" x1="32.1913" y1="24.7212" x2="37.2128" y2="24.8882" gradientUnits="userSpaceOnUse">
<stop stop-color="#E6F0FF"/>
<stop offset="0.24" stop-color="#E2ECFD"/>
<stop offset="0.47" stop-color="#D6E3F8"/>
<stop offset="0.69" stop-color="#C3D3F0"/>
<stop offset="0.91" stop-color="#A9BDE4"/>
<stop offset="1" stop-color="#9CB2DF"/>
</linearGradient>
<linearGradient id="paint35_linear_1_20773" x1="32.9667" y1="25.3256" x2="36.4928" y2="25.4766" gradientUnits="userSpaceOnUse">
<stop stop-color="#E6F0FF"/>
<stop offset="0.24" stop-color="#E2ECFD"/>
<stop offset="0.47" stop-color="#D6E3F8"/>
<stop offset="0.69" stop-color="#C3D3F0"/>
<stop offset="0.91" stop-color="#A9BDE4"/>
<stop offset="1" stop-color="#9CB2DF"/>
</linearGradient>
<linearGradient id="paint36_linear_1_20773" x1="32.8808" y1="25.1263" x2="36.677" y2="25.3015" gradientUnits="userSpaceOnUse">
<stop stop-color="#E6F0FF"/>
<stop offset="0.24" stop-color="#E2ECFD"/>
<stop offset="0.47" stop-color="#D6E3F8"/>
<stop offset="0.69" stop-color="#C3D3F0"/>
<stop offset="0.91" stop-color="#A9BDE4"/>
<stop offset="1" stop-color="#9CB2DF"/>
</linearGradient>
<linearGradient id="paint37_linear_1_20773" x1="32.7987" y1="25.1263" x2="36.3249" y2="25.2774" gradientUnits="userSpaceOnUse">
<stop stop-color="#E6F0FF"/>
<stop offset="0.24" stop-color="#E2ECFD"/>
<stop offset="0.47" stop-color="#D6E3F8"/>
<stop offset="0.69" stop-color="#C3D3F0"/>
<stop offset="0.91" stop-color="#A9BDE4"/>
<stop offset="1" stop-color="#9CB2DF"/>
</linearGradient>
<linearGradient id="paint38_linear_1_20773" x1="32.7652" y1="12.8419" x2="61.1537" y2="12.8419" gradientUnits="userSpaceOnUse">
<stop stop-color="#4AFFC7"/>
<stop offset="1" stop-color="#3BADEA"/>
</linearGradient>
</defs>
</svg>
