<svg width="143" height="194" viewBox="0 0 143 194" fill="none" xmlns="http://www.w3.org/2000/svg">
<path opacity="0.5" fill-rule="evenodd" clip-rule="evenodd" d="M114.266 136.045C137.174 149.135 137.174 170.854 114.266 183.945C91.3566 197.333 54.1668 197.333 31.2579 183.945C8.34894 170.854 8.34894 149.135 31.2579 136.045C54.1668 122.954 91.3566 122.954 114.266 136.045Z" fill="#E9E9EB"/>
<path opacity="0.5" fill-rule="evenodd" clip-rule="evenodd" d="M105.628 141.134C123.777 151.547 123.777 168.505 105.628 178.919C87.4793 189.332 58.3226 189.332 40.174 178.919C22.0253 168.505 22.0253 151.547 40.174 141.134C58.3226 130.721 87.4793 130.721 105.628 141.134Z" fill="#DDDEE1"/>
<path opacity="0.5" fill-rule="evenodd" clip-rule="evenodd" d="M96.7188 146.079C110.107 153.814 110.107 166.012 96.7188 173.748C83.628 181.483 61.9094 181.483 48.8186 173.748C35.4303 166.012 35.4303 153.814 48.8186 146.079C62.2069 138.343 83.628 138.343 96.7188 146.079Z" fill="#D1D2D6"/>
<path fill-rule="evenodd" clip-rule="evenodd" d="M80.0281 138.418L78.243 141.69L77.9455 141.988V142.285H77.6479V142.583L77.3505 142.881L77.0529 143.178H76.7554L76.458 143.476L76.1604 143.773H75.8628L75.5653 144.07H75.2679L74.9703 144.368H74.6727H74.3752H73.7802L73.4826 144.666H73.1853H72.8877H72.5901H72.2925H71.9952H71.4H71.1027H70.8051H70.5075H70.2099H69.9126H69.3174H69.0201H68.7225L68.4249 144.368H68.1273H67.8299H67.5324L67.2348 144.07H66.9372L66.6398 143.773H66.3423L66.0447 143.476H65.7473L65.4497 143.178H65.1522V142.881H64.8546V142.583L64.5572 142.285L64.2596 141.988V141.69L62.4746 138.418V138.715L62.772 139.013L63.0695 139.31L63.3671 139.608L63.6647 139.905H63.9621V140.203L64.5572 140.5H64.8546L65.1522 140.798L65.4497 141.096H65.7473L66.0447 141.393H66.6398L66.9372 141.69H67.2348H67.8299L68.1273 141.988H68.7225H69.0201H69.3174H69.9126L70.2099 142.285H70.8051H71.1027H71.6976H71.9952L72.5901 141.988H72.8877H73.1853H73.7802H74.0778L74.6727 141.69H74.9703H75.2679L75.8628 141.393H76.1604L76.458 141.096H77.0529L77.3505 140.798L77.6479 140.5H77.9455L78.243 140.203L78.5406 139.905H78.838L79.1356 139.608V139.31L79.4331 139.013H79.7305V138.715L80.0281 138.418Z" fill="#2C3E50"/>
<path fill-rule="evenodd" clip-rule="evenodd" d="M80.0281 138.418L78.243 141.69L77.9455 141.988V142.285H77.6479V142.583L77.3505 142.881L77.0529 143.178H76.7554L76.458 143.476L76.1604 143.773H75.8628L75.5653 144.07H75.2679L74.9703 144.368H74.6727H74.3752H73.7802L73.4826 144.666H73.1853H72.8877H72.5901H72.2925H71.9952H71.4H71.1027H70.8051H70.5075H70.2099H69.9126H69.3174H69.0201H68.7225L68.4249 144.368H68.1273H67.8299H67.5324L67.2348 144.07H66.9372L66.6398 143.773H66.3423L66.0447 143.476H65.7473L65.4497 143.178H65.1522V142.881H64.8546V142.583L64.5572 142.285L64.2596 141.988V141.69L62.4746 138.418V138.715L62.772 139.013L63.0695 139.31L63.3671 139.608L63.6647 139.905H63.9621V140.203L64.5572 140.5H64.8546L65.1522 140.798L65.4497 141.096H65.7473L66.0447 141.393H66.6398L66.9372 141.69H67.2348H67.8299L68.1273 141.988H68.7225H69.0201H69.3174H69.9126L70.2099 142.285H70.8051H71.1027H71.6976H71.9952L72.5901 141.988H72.8877H73.1853H73.7802H74.0778L74.6727 141.69H74.9703H75.2679L75.8628 141.393H76.1604L76.458 141.096H77.0529L77.3505 140.798L77.6479 140.5H77.9455L78.243 140.203L78.5406 139.905H78.838L79.1356 139.608V139.31L79.4331 139.013H79.7305V138.715L80.0281 138.418Z" fill="url(#paint0_linear_1_20372)"/>
<path fill-rule="evenodd" clip-rule="evenodd" d="M88.3902 130.387L84.8201 136.932V137.229L84.5226 137.825L84.225 138.122L83.9276 138.42L83.63 138.717L83.0349 139.014L82.7375 139.61L82.1424 139.907L81.8448 140.205L81.2498 140.502L80.6549 140.799L80.3573 141.097L79.7622 141.395H79.1672L78.5723 141.692L77.9771 141.99H77.0846L76.4897 142.287H75.8945L75.2996 142.585H74.7044H73.8119L73.2169 142.882H72.6218H72.0268H71.1343H70.5392H69.9442H69.0517L68.4565 142.585H67.8616H67.2664L66.3739 142.287H65.779L65.1838 141.99H64.5889L63.9937 141.692L63.3988 141.395H62.8036L62.2087 141.097L61.6137 140.799L61.0186 140.502L60.721 140.205L60.1261 139.907L59.5309 139.61L59.2335 139.014L58.936 138.717L58.6384 138.42L58.341 138.122L58.0434 137.825L57.7459 137.229L57.4483 136.932L54.1758 130.387L54.4731 130.684L54.7707 131.279L55.0683 131.576L55.3657 132.172L55.6632 132.469L56.2584 133.064L56.8533 133.362L57.4483 133.957L58.0434 134.254L58.6384 134.552L59.2335 135.147L59.8285 135.444L60.721 135.742L61.3162 136.04L62.2087 136.337H62.8036L63.6964 136.634L64.5889 136.932H65.1838L66.0763 137.229H66.9689L67.8616 137.527H68.7541H69.3491H70.2416H71.1343H72.0268H72.9194H73.8119H74.7044L75.2996 137.229H76.1921L77.0846 136.932H77.9771L78.5723 136.634L79.4648 136.337H80.3573L80.9523 136.04L81.8448 135.742L82.4399 135.444L83.0349 135.147L83.9276 134.552L84.5226 134.254L85.1175 133.957L85.7127 133.362L86.0102 133.064L86.6052 132.469L86.9028 132.172L87.4977 131.576L87.7953 131.279L88.0929 130.684L88.3902 130.387Z" fill="#3D566E"/>
<path fill-rule="evenodd" clip-rule="evenodd" d="M88.3902 130.387L84.8201 136.932V137.229L84.5226 137.825L84.225 138.122L83.9276 138.42L83.63 138.717L83.0349 139.014L82.7375 139.61L82.1424 139.907L81.8448 140.205L81.2498 140.502L80.6549 140.799L80.3573 141.097L79.7622 141.395H79.1672L78.5723 141.692L77.9771 141.99H77.0846L76.4897 142.287H75.8945L75.2996 142.585H74.7044H73.8119L73.2169 142.882H72.6218H72.0268H71.1343H70.5392H69.9442H69.0517L68.4565 142.585H67.8616H67.2664L66.3739 142.287H65.779L65.1838 141.99H64.5889L63.9937 141.692L63.3988 141.395H62.8036L62.2087 141.097L61.6137 140.799L61.0186 140.502L60.721 140.205L60.1261 139.907L59.5309 139.61L59.2335 139.014L58.936 138.717L58.6384 138.42L58.341 138.122L58.0434 137.825L57.7459 137.229L57.4483 136.932L54.1758 130.387L54.4731 130.684L54.7707 131.279L55.0683 131.576L55.3657 132.172L55.6632 132.469L56.2584 133.064L56.8533 133.362L57.4483 133.957L58.0434 134.254L58.6384 134.552L59.2335 135.147L59.8285 135.444L60.721 135.742L61.3162 136.04L62.2087 136.337H62.8036L63.6964 136.634L64.5889 136.932H65.1838L66.0763 137.229H66.9689L67.8616 137.527H68.7541H69.3491H70.2416H71.1343H72.0268H72.9194H73.8119H74.7044L75.2996 137.229H76.1921L77.0846 136.932H77.9771L78.5723 136.634L79.4648 136.337H80.3573L80.9523 136.04L81.8448 135.742L82.4399 135.444L83.0349 135.147L83.9276 134.552L84.5226 134.254L85.1175 133.957L85.7127 133.362L86.0102 133.064L86.6052 132.469L86.9028 132.172L87.4977 131.576L87.7953 131.279L88.0929 130.684L88.3902 130.387Z" fill="url(#paint1_linear_1_20372)"/>
<path fill-rule="evenodd" clip-rule="evenodd" d="M81.5883 137.832C86.3486 135.154 87.8362 131.287 86.0511 127.716L82.7784 121.171V120.279L82.4808 119.683H82.1832L81.8859 119.088H81.5883L81.2907 118.493H80.6958L80.1006 117.898H79.5057L78.9105 117.303H78.3156L77.7204 116.708H77.1255L76.5305 116.411H75.9354L75.3404 116.113H74.7453H74.1503H73.5552H72.9602H72.3651H71.7701H71.1752H70.58H69.9851H69.3899H68.795H68.1998H67.6049H67.0099H66.4148H65.8198H65.2247L64.6297 116.411H64.0346L63.4396 116.708H62.8445L62.2495 117.303H61.6546L61.0594 117.898H60.4645L59.8693 118.493H59.572L59.2744 119.088H58.9768L58.6792 119.683H58.3819V120.279V121.171L55.1092 127.716C53.3241 131.287 54.8117 135.154 59.572 137.832C66.4149 141.7 77.7205 141.7 84.5634 137.832H81.5883Z" fill="#2C3E50"/>
<path fill-rule="evenodd" clip-rule="evenodd" d="M81.5883 137.832C86.3486 135.154 87.8362 131.287 86.0511 127.716L82.7784 121.171V120.279L82.4808 119.683H82.1832L81.8859 119.088H81.5883L81.2907 118.493H80.6958L80.1006 117.898H79.5057L78.9105 117.303H78.3156L77.7204 116.708H77.1255L76.5305 116.411H75.9354L75.3404 116.113H74.7453H74.1503H73.5552H72.9602H72.3651H71.7701H71.1752H70.58H69.9851H69.3899H68.795H68.1998H67.6049H67.0099H66.4148H65.8198H65.2247L64.6297 116.411H64.0346L63.4396 116.708H62.8445L62.2495 117.303H61.6546L61.0594 117.898H60.4645L59.8693 118.493H59.572L59.2744 119.088H58.9768L58.6792 119.683H58.3819V120.279V121.171L55.1092 127.716C53.3241 131.287 54.8117 135.154 59.572 137.832C66.4149 141.7 77.7205 141.7 84.5634 137.832H81.5883Z" fill="url(#paint2_linear_1_20372)"/>
<path fill-rule="evenodd" clip-rule="evenodd" d="M85.6086 129.204C85.6086 129.204 85.3112 128.014 85.0137 127.716L81.7409 121.171V120.279L81.4434 119.683H81.1458L80.8484 119.088H80.5508L80.2533 118.493H79.6583L79.0632 117.898H78.4682L77.8731 117.303H77.2781L76.683 116.708H76.088L75.4931 116.411H74.8979L74.303 116.113H73.7078H73.1129H72.5177H71.9228H71.3276H70.7327H70.1377H69.5426H68.9476H68.3525H67.7575H67.1624H66.5674H65.9725H65.3773H64.7824H64.1872L63.5923 116.411H62.9971L62.4022 116.708H61.807L61.2121 117.303H60.6172L60.022 117.898H59.4271L58.8319 118.493H58.5345L58.237 119.088H57.9394L57.6418 119.683H57.3444V120.279V121.171L54.0717 127.716C54.0717 127.716 53.4766 128.906 53.4766 129.204C54.0716 131.286 55.5594 133.369 58.5345 135.154C65.3775 139.022 76.6831 139.022 83.526 135.154C86.5012 133.369 87.9887 131.286 88.5837 129.204H85.6086Z" fill="#3D566E"/>
<path fill-rule="evenodd" clip-rule="evenodd" d="M85.6086 129.204C85.6086 129.204 85.3112 128.014 85.0137 127.716L81.7409 121.171V120.279L81.4434 119.683H81.1458L80.8484 119.088H80.5508L80.2533 118.493H79.6583L79.0632 117.898H78.4682L77.8731 117.303H77.2781L76.683 116.708H76.088L75.4931 116.411H74.8979L74.303 116.113H73.7078H73.1129H72.5177H71.9228H71.3276H70.7327H70.1377H69.5426H68.9476H68.3525H67.7575H67.1624H66.5674H65.9725H65.3773H64.7824H64.1872L63.5923 116.411H62.9971L62.4022 116.708H61.807L61.2121 117.303H60.6172L60.022 117.898H59.4271L58.8319 118.493H58.5345L58.237 119.088H57.9394L57.6418 119.683H57.3444V120.279V121.171L54.0717 127.716C54.0717 127.716 53.4766 128.906 53.4766 129.204C54.0716 131.286 55.5594 133.369 58.5345 135.154C65.3775 139.022 76.6831 139.022 83.526 135.154C86.5012 133.369 87.9887 131.286 88.5837 129.204H85.6086Z" fill="url(#paint3_linear_1_20372)"/>
<path fill-rule="evenodd" clip-rule="evenodd" d="M21.4214 69.4062C21.4214 69.4062 23.2066 70.2987 23.2066 71.1913C23.2066 72.0838 22.3139 72.9763 21.4214 72.9763H1.78526C1.78526 72.9763 0 72.0838 0 71.1913C0 70.2987 0.89271 69.4062 1.78526 69.4062H21.4214Z" fill="#FFED00"/>
<path fill-rule="evenodd" clip-rule="evenodd" d="M21.4214 69.4062C21.4214 69.4062 23.2066 70.2987 23.2066 71.1913C23.2066 72.0838 22.3139 72.9763 21.4214 72.9763H1.78526C1.78526 72.9763 0 72.0838 0 71.1913C0 70.2987 0.89271 69.4062 1.78526 69.4062H21.4214Z" fill="url(#paint4_linear_1_20372)"/>
<path fill-rule="evenodd" clip-rule="evenodd" d="M35.996 33.3325C35.996 33.3325 36.591 35.1177 35.996 35.7127C35.4009 36.3077 34.2108 36.3077 33.6158 35.7127L19.3348 21.4319C19.3348 21.4319 18.7397 19.6468 19.3348 19.0517C19.9298 18.4567 21.1199 18.4567 21.715 19.0517L35.996 33.3325Z" fill="#FFED00"/>
<path fill-rule="evenodd" clip-rule="evenodd" d="M35.996 33.3325C35.996 33.3325 36.591 35.1177 35.996 35.7127C35.4009 36.3077 34.2108 36.3077 33.6158 35.7127L19.3348 21.4319C19.3348 21.4319 18.7397 19.6468 19.3348 19.0517C19.9298 18.4567 21.1199 18.4567 21.715 19.0517L35.996 33.3325Z" fill="url(#paint5_linear_1_20372)"/>
<path fill-rule="evenodd" clip-rule="evenodd" d="M73.1933 22.0165C73.1933 22.0165 72.3006 23.8016 71.4081 23.8016C70.5155 23.8016 69.623 22.9091 69.623 22.0165V1.78504C69.623 1.78504 70.5155 0 71.4081 0C72.3006 0 73.1933 0.892483 73.1933 1.78504V22.0165Z" fill="#FFED00"/>
<path fill-rule="evenodd" clip-rule="evenodd" d="M73.1933 22.0165C73.1933 22.0165 72.3006 23.8016 71.4081 23.8016C70.5155 23.8016 69.623 22.9091 69.623 22.0165V1.78504C69.623 1.78504 70.5155 0 71.4081 0C72.3006 0 73.1933 0.892483 73.1933 1.78504V22.0165Z" fill="url(#paint6_linear_1_20372)"/>
<path fill-rule="evenodd" clip-rule="evenodd" d="M121.373 72.5818C121.373 72.5818 119.588 71.6893 119.588 70.7968C119.588 69.9042 120.48 69.0117 121.373 69.0117H141.009C141.009 69.0117 142.794 69.9042 142.794 70.7968C142.794 71.6893 141.902 72.5818 141.009 72.5818H121.373Z" fill="#FFED00"/>
<path fill-rule="evenodd" clip-rule="evenodd" d="M121.373 72.5818C121.373 72.5818 119.588 71.6893 119.588 70.7968C119.588 69.9042 120.48 69.0117 121.373 69.0117H141.009C141.009 69.0117 142.794 69.9042 142.794 70.7968C142.794 71.6893 141.902 72.5818 141.009 72.5818H121.373Z" fill="url(#paint7_linear_1_20372)"/>
<path fill-rule="evenodd" clip-rule="evenodd" d="M109.465 35.7535C109.465 35.7535 107.68 36.3486 107.085 35.7535C106.49 35.1585 106.49 33.9684 107.085 33.3733L121.366 19.0926C121.366 19.0926 123.151 18.4975 123.746 19.0926C124.341 19.6876 124.341 20.8778 123.746 21.4728L109.465 35.7535Z" fill="#FFED00"/>
<path fill-rule="evenodd" clip-rule="evenodd" d="M109.465 35.7535C109.465 35.7535 107.68 36.3486 107.085 35.7535C106.49 35.1585 106.49 33.9684 107.085 33.3733L121.366 19.0926C121.366 19.0926 123.151 18.4975 123.746 19.0926C124.341 19.6876 124.341 20.8778 123.746 21.4728L109.465 35.7535Z" fill="url(#paint8_linear_1_20372)"/>
<path fill-rule="evenodd" clip-rule="evenodd" d="M107.387 55.6619C112.445 71.4304 107.089 82.4386 101.139 91.9592C97.5689 98.2071 94.8913 98.8021 93.1062 105.943C91.9161 110.108 92.5112 114.571 88.9409 117.844C83.2881 122.901 77.6352 123.497 71.6848 123.497H70.1971C64.2468 123.497 58.5941 122.901 52.9412 117.844C49.371 114.571 49.9661 110.108 48.776 105.943C46.6934 99.0997 44.3131 98.2071 40.7429 91.9592C35.09 82.1411 29.7347 71.4304 34.495 55.6619C39.5528 39.2984 55.3214 31.2656 70.7923 31.2656C86.2633 31.2656 101.734 39.2984 107.09 55.6619H107.387Z" fill="#EDCC0F"/>
<path fill-rule="evenodd" clip-rule="evenodd" d="M107.387 55.6619C112.445 71.4304 107.089 82.4386 101.139 91.9592C97.5689 98.2071 94.8913 98.8021 93.1062 105.943C91.9161 110.108 92.5112 114.571 88.9409 117.844C83.2881 122.901 77.6352 123.497 71.6848 123.497H70.1971C64.2468 123.497 58.5941 122.901 52.9412 117.844C49.371 114.571 49.9661 110.108 48.776 105.943C46.6934 99.0997 44.3131 98.2071 40.7429 91.9592C35.09 82.1411 29.7347 71.4304 34.495 55.6619C39.5528 39.2984 55.3214 31.2656 70.7923 31.2656C86.2633 31.2656 101.734 39.2984 107.09 55.6619H107.387Z" fill="url(#paint9_linear_1_20372)"/>
<path fill-rule="evenodd" clip-rule="evenodd" d="M83.5883 132.152C88.3486 129.475 89.8362 125.607 88.0511 122.037L84.7784 115.491V114.599L84.4808 114.004H84.1832L83.8859 113.409H83.5883L83.2907 112.814H82.6958L82.1006 112.219H81.5057L80.9105 111.623H80.3156L79.7204 111.028H79.1255L78.5305 110.731H77.9354L77.3404 110.434H76.7453H76.1503H75.5552H74.9602H74.3651H73.7701H73.1752H72.58H71.9851H71.3899H70.795H70.1998H69.6049H69.0099H68.4148H67.8198H67.2247L66.6297 110.731H66.0346L65.4396 111.028H64.8445L64.2495 111.623H63.6546L63.0594 112.219H62.4645L61.8693 112.814H61.572L61.2744 113.409H60.9768L60.6792 114.004H60.3819V114.599V115.491L57.1092 122.037C55.3241 125.607 56.8117 129.475 61.572 132.152C68.4149 136.02 79.7205 136.02 86.5634 132.152H83.5883Z" fill="#2C3E50"/>
<path fill-rule="evenodd" clip-rule="evenodd" d="M83.5883 132.152C88.3486 129.475 89.8362 125.607 88.0511 122.037L84.7784 115.491V114.599L84.4808 114.004H84.1832L83.8859 113.409H83.5883L83.2907 112.814H82.6958L82.1006 112.219H81.5057L80.9105 111.623H80.3156L79.7204 111.028H79.1255L78.5305 110.731H77.9354L77.3404 110.434H76.7453H76.1503H75.5552H74.9602H74.3651H73.7701H73.1752H72.58H71.9851H71.3899H70.795H70.1998H69.6049H69.0099H68.4148H67.8198H67.2247L66.6297 110.731H66.0346L65.4396 111.028H64.8445L64.2495 111.623H63.6546L63.0594 112.219H62.4645L61.8693 112.814H61.572L61.2744 113.409H60.9768L60.6792 114.004H60.3819V114.599V115.491L57.1092 122.037C55.3241 125.607 56.8117 129.475 61.572 132.152C68.4149 136.02 79.7205 136.02 86.5634 132.152H83.5883Z" fill="url(#paint10_linear_1_20372)"/>
<path fill-rule="evenodd" clip-rule="evenodd" d="M85.6086 123.845C85.6086 123.845 85.3112 122.655 85.0137 122.357L81.7409 115.812V114.919L81.4434 114.324H81.1458L80.8484 113.729H80.5508L80.2533 113.134H79.6583L79.0632 112.539H78.4682L77.8731 111.944H77.2781L76.683 111.349H76.088L75.4931 111.051H74.8979L74.303 110.754H73.7078H73.1129H72.5177H71.9228H71.3276H70.7327H70.1377H69.5426H68.9476H68.3525H67.7575H67.1624H66.5674H65.9725H65.3773H64.7824H64.1872L63.5923 111.051H62.9971L62.4022 111.349H61.807L61.2121 111.944H60.6172L60.022 112.539H59.4271L58.8319 113.134H58.5345L58.237 113.729H57.9394L57.6418 114.324H57.3444V114.919V115.812L54.0717 122.357C54.0717 122.357 53.4766 123.547 53.4766 123.845C54.0716 125.927 55.5594 128.01 58.5345 129.795C65.3775 133.663 76.6831 133.663 83.526 129.795C86.5012 128.01 87.9887 125.927 88.5837 123.845H85.6086Z" fill="#3D566E"/>
<path fill-rule="evenodd" clip-rule="evenodd" d="M85.6086 123.845C85.6086 123.845 85.3112 122.655 85.0137 122.357L81.7409 115.812V114.919L81.4434 114.324H81.1458L80.8484 113.729H80.5508L80.2533 113.134H79.6583L79.0632 112.539H78.4682L77.8731 111.944H77.2781L76.683 111.349H76.088L75.4931 111.051H74.8979L74.303 110.754H73.7078H73.1129H72.5177H71.9228H71.3276H70.7327H70.1377H69.5426H68.9476H68.3525H67.7575H67.1624H66.5674H65.9725H65.3773H64.7824H64.1872L63.5923 111.051H62.9971L62.4022 111.349H61.807L61.2121 111.944H60.6172L60.022 112.539H59.4271L58.8319 113.134H58.5345L58.237 113.729H57.9394L57.6418 114.324H57.3444V114.919V115.812L54.0717 122.357C54.0717 122.357 53.4766 123.547 53.4766 123.845C54.0716 125.927 55.5594 128.01 58.5345 129.795C65.3775 133.663 76.6831 133.663 83.526 129.795C86.5012 128.01 87.9887 125.927 88.5837 123.845H85.6086Z" fill="url(#paint11_linear_1_20372)"/>
<path fill-rule="evenodd" clip-rule="evenodd" d="M83.8653 105.995C91.0057 110.16 91.0057 116.706 83.8653 120.574C76.7248 124.739 65.419 124.739 58.576 120.574C51.4356 116.408 51.4356 109.863 58.576 105.995C65.7165 101.83 77.0224 101.83 83.8653 105.995Z" fill="#C49F0C"/>
<path fill-rule="evenodd" clip-rule="evenodd" d="M83.8653 105.995C91.0057 110.16 91.0057 116.706 83.8653 120.574C76.7248 124.739 65.419 124.739 58.576 120.574C51.4356 116.408 51.4356 109.863 58.576 105.995C65.7165 101.83 77.0224 101.83 83.8653 105.995Z" fill="url(#paint12_linear_1_20372)"/>
<path fill-rule="evenodd" clip-rule="evenodd" d="M89.2204 113.641V119.888L88.923 120.483V120.781V121.376L88.6255 121.971L88.3279 122.268L88.0305 122.864L87.7329 123.161L87.4354 123.756L87.1378 124.351L86.5428 124.649L86.2453 125.244L85.6503 125.541L85.0552 125.839L84.4602 126.434L83.8653 126.731L83.2701 127.029L82.3776 127.326L81.7824 127.624L80.8899 127.921L80.295 128.219L79.4025 128.517L78.8073 128.814L77.9148 129.111H77.0223L76.1297 129.409H75.5346L74.6421 129.706H73.7495H72.857H71.9645H71.072H70.1792H69.2867H68.6918H67.7993L66.9065 129.409H66.014L65.1215 129.111H64.229L63.634 128.814L62.7413 128.517L62.1463 128.219L61.2538 127.921L60.3613 127.624L59.7661 127.326L59.1712 127.029L58.2787 126.731L57.6835 126.434L57.0886 125.839L56.4934 125.541L56.1961 125.244L55.6009 124.649L55.3033 124.351L54.7084 123.756L54.4108 123.161L54.1134 122.864L53.8159 122.268V121.971L53.5183 121.376L53.2207 120.781V120.483V119.888V113.641V114.235V114.533L53.5183 115.128L53.8159 115.723V116.021L54.1134 116.616L54.4108 116.913L54.7084 117.508L55.3033 118.103L55.6009 118.401L56.1961 118.996L56.4934 119.293L57.0886 119.591L57.6835 120.186L58.2787 120.483L59.1712 120.781L59.7661 121.079L60.3613 121.376L61.2538 121.673L62.1463 121.971L62.7413 122.268L63.634 122.566L64.229 122.864H65.1215L66.014 123.161H66.9065L67.7993 123.459H68.6918H69.2867H70.1792H71.072H71.9645H72.857H73.7495H74.6421L75.5346 123.161H76.1297L77.0223 122.864H77.9148L78.8073 122.566L79.4025 122.268L80.295 121.971L80.8899 121.673L81.7824 121.376L82.3776 121.079L83.2701 120.781L83.8653 120.483L84.4602 120.186L85.0552 119.591L85.6503 119.293L86.2453 118.996L86.5428 118.401L87.1378 118.103L87.4354 117.508L87.7329 116.913L88.0305 116.616L88.3279 116.021L88.6255 115.723L88.923 115.128V114.533V114.235L89.2204 113.641Z" fill="#2C3E50"/>
<path fill-rule="evenodd" clip-rule="evenodd" d="M89.2204 113.641V119.888L88.923 120.483V120.781V121.376L88.6255 121.971L88.3279 122.268L88.0305 122.864L87.7329 123.161L87.4354 123.756L87.1378 124.351L86.5428 124.649L86.2453 125.244L85.6503 125.541L85.0552 125.839L84.4602 126.434L83.8653 126.731L83.2701 127.029L82.3776 127.326L81.7824 127.624L80.8899 127.921L80.295 128.219L79.4025 128.517L78.8073 128.814L77.9148 129.111H77.0223L76.1297 129.409H75.5346L74.6421 129.706H73.7495H72.857H71.9645H71.072H70.1792H69.2867H68.6918H67.7993L66.9065 129.409H66.014L65.1215 129.111H64.229L63.634 128.814L62.7413 128.517L62.1463 128.219L61.2538 127.921L60.3613 127.624L59.7661 127.326L59.1712 127.029L58.2787 126.731L57.6835 126.434L57.0886 125.839L56.4934 125.541L56.1961 125.244L55.6009 124.649L55.3033 124.351L54.7084 123.756L54.4108 123.161L54.1134 122.864L53.8159 122.268V121.971L53.5183 121.376L53.2207 120.781V120.483V119.888V113.641V114.235V114.533L53.5183 115.128L53.8159 115.723V116.021L54.1134 116.616L54.4108 116.913L54.7084 117.508L55.3033 118.103L55.6009 118.401L56.1961 118.996L56.4934 119.293L57.0886 119.591L57.6835 120.186L58.2787 120.483L59.1712 120.781L59.7661 121.079L60.3613 121.376L61.2538 121.673L62.1463 121.971L62.7413 122.268L63.634 122.566L64.229 122.864H65.1215L66.014 123.161H66.9065L67.7993 123.459H68.6918H69.2867H70.1792H71.072H71.9645H72.857H73.7495H74.6421L75.5346 123.161H76.1297L77.0223 122.864H77.9148L78.8073 122.566L79.4025 122.268L80.295 121.971L80.8899 121.673L81.7824 121.376L82.3776 121.079L83.2701 120.781L83.8653 120.483L84.4602 120.186L85.0552 119.591L85.6503 119.293L86.2453 118.996L86.5428 118.401L87.1378 118.103L87.4354 117.508L87.7329 116.913L88.0305 116.616L88.3279 116.021L88.6255 115.723L88.923 115.128V114.533V114.235L89.2204 113.641Z" fill="url(#paint13_linear_1_20372)"/>
<path fill-rule="evenodd" clip-rule="evenodd" d="M89.2204 113.641V117.508L88.923 117.806V118.401V118.996L88.6255 119.293L88.3279 119.888L88.0305 120.483L87.7329 120.781L87.4354 121.376L87.1378 121.673L86.5428 122.268L86.2453 122.566L85.6503 123.161L85.0552 123.459L84.4602 124.053L83.8653 124.351L83.2701 124.649L82.3776 124.946L81.7824 125.244L80.8899 125.541L80.295 125.839L79.4025 126.136L78.8073 126.434H77.9148L77.0223 126.731L76.1297 127.029H75.5346H74.6421L73.7495 127.326H72.857H71.9645H71.072H70.1792H69.2867H68.6918L67.7993 127.029H66.9065H66.014L65.1215 126.731L64.229 126.434H63.634L62.7413 126.136L62.1463 125.839L61.2538 125.541L60.3613 125.244L59.7661 124.946L59.1712 124.649L58.2787 124.351L57.6835 124.053L57.0886 123.459L56.4934 123.161L56.1961 122.566L55.6009 122.268L55.3033 121.673L54.7084 121.376L54.4108 120.781L54.1134 120.483L53.8159 119.888V119.293L53.5183 118.996L53.2207 118.401V117.806V117.508V113.641V114.235V114.533L53.5183 115.128L53.8159 115.723V116.021L54.1134 116.616L54.4108 116.913L54.7084 117.508L55.3033 118.103L55.6009 118.401L56.1961 118.996L56.4934 119.293L57.0886 119.591L57.6835 120.186L58.2787 120.483L59.1712 120.781L59.7661 121.079L60.3613 121.376L61.2538 121.673L62.1463 121.971L62.7413 122.268L63.634 122.566L64.229 122.864H65.1215L66.014 123.161H66.9065L67.7993 123.459H68.6918H69.2867H70.1792H71.072H71.9645H72.857H73.7495H74.6421L75.5346 123.161H76.1297L77.0223 122.864H77.9148L78.8073 122.566L79.4025 122.268L80.295 121.971L80.8899 121.673L81.7824 121.376L82.3776 121.079L83.2701 120.781L83.8653 120.483L84.4602 120.186L85.0552 119.591L85.6503 119.293L86.2453 118.996L86.5428 118.401L87.1378 118.103L87.4354 117.508L87.7329 116.913L88.0305 116.616L88.3279 116.021L88.6255 115.723L88.923 115.128V114.533V114.235L89.2204 113.641Z" fill="#3D566E"/>
<path fill-rule="evenodd" clip-rule="evenodd" d="M89.2204 113.641V117.508L88.923 117.806V118.401V118.996L88.6255 119.293L88.3279 119.888L88.0305 120.483L87.7329 120.781L87.4354 121.376L87.1378 121.673L86.5428 122.268L86.2453 122.566L85.6503 123.161L85.0552 123.459L84.4602 124.053L83.8653 124.351L83.2701 124.649L82.3776 124.946L81.7824 125.244L80.8899 125.541L80.295 125.839L79.4025 126.136L78.8073 126.434H77.9148L77.0223 126.731L76.1297 127.029H75.5346H74.6421L73.7495 127.326H72.857H71.9645H71.072H70.1792H69.2867H68.6918L67.7993 127.029H66.9065H66.014L65.1215 126.731L64.229 126.434H63.634L62.7413 126.136L62.1463 125.839L61.2538 125.541L60.3613 125.244L59.7661 124.946L59.1712 124.649L58.2787 124.351L57.6835 124.053L57.0886 123.459L56.4934 123.161L56.1961 122.566L55.6009 122.268L55.3033 121.673L54.7084 121.376L54.4108 120.781L54.1134 120.483L53.8159 119.888V119.293L53.5183 118.996L53.2207 118.401V117.806V117.508V113.641V114.235V114.533L53.5183 115.128L53.8159 115.723V116.021L54.1134 116.616L54.4108 116.913L54.7084 117.508L55.3033 118.103L55.6009 118.401L56.1961 118.996L56.4934 119.293L57.0886 119.591L57.6835 120.186L58.2787 120.483L59.1712 120.781L59.7661 121.079L60.3613 121.376L61.2538 121.673L62.1463 121.971L62.7413 122.268L63.634 122.566L64.229 122.864H65.1215L66.014 123.161H66.9065L67.7993 123.459H68.6918H69.2867H70.1792H71.072H71.9645H72.857H73.7495H74.6421L75.5346 123.161H76.1297L77.0223 122.864H77.9148L78.8073 122.566L79.4025 122.268L80.295 121.971L80.8899 121.673L81.7824 121.376L82.3776 121.079L83.2701 120.781L83.8653 120.483L84.4602 120.186L85.0552 119.591L85.6503 119.293L86.2453 118.996L86.5428 118.401L87.1378 118.103L87.4354 117.508L87.7329 116.913L88.0305 116.616L88.3279 116.021L88.6255 115.723L88.923 115.128V114.533V114.235L89.2204 113.641Z" fill="url(#paint14_linear_1_20372)"/>
<path fill-rule="evenodd" clip-rule="evenodd" d="M77.6707 106.004V111.657H77.3734V111.954L68.1502 117.012V117.31H67.8528H67.5552H67.2576V117.012H66.9601L66.3651 116.714L64.5801 115.822V115.524V109.872V110.169L66.3651 111.359L66.9601 111.657H67.2576H67.5552H67.8528H68.1502L77.3734 106.301H77.6707V106.004Z" fill="#A8890D"/>
<path fill-rule="evenodd" clip-rule="evenodd" d="M77.6707 106.004V111.657H77.3734V111.954L68.1502 117.012V117.31H67.8528H67.5552H67.2576V117.012H66.9601L66.3651 116.714L64.5801 115.822V115.524V109.872V110.169L66.3651 111.359L66.9601 111.657H67.2576H67.5552H67.8528H68.1502L77.3734 106.301H77.6707V106.004Z" fill="url(#paint15_linear_1_20372)"/>
<path fill-rule="evenodd" clip-rule="evenodd" d="M74.9932 104.484L77.3734 105.972C77.3734 105.972 77.3734 106.27 77.3734 106.567L68.1502 111.922C68.1502 111.922 67.2576 111.922 66.9601 111.922L66.3651 111.625L64.5801 110.732C64.5801 110.732 64.5801 110.435 64.5801 110.137L73.8031 104.782C73.8031 104.782 74.6957 104.782 74.9932 104.782V104.484Z" fill="#E0D210"/>
<path fill-rule="evenodd" clip-rule="evenodd" d="M74.9932 104.484L77.3734 105.972C77.3734 105.972 77.3734 106.27 77.3734 106.567L68.1502 111.922C68.1502 111.922 67.2576 111.922 66.9601 111.922L66.3651 111.625L64.5801 110.732C64.5801 110.732 64.5801 110.435 64.5801 110.137L73.8031 104.782C73.8031 104.782 74.6957 104.782 74.9932 104.782V104.484Z" fill="url(#paint16_linear_1_20372)"/>
<path fill-rule="evenodd" clip-rule="evenodd" d="M75.833 105.705C75.833 105.705 75.8329 106.002 75.5354 106.3C75.2379 106.3 74.3454 106.3 74.0479 106.3C74.0479 106.3 73.7503 106.299 73.7503 106.002C73.7503 104.812 73.7503 103.622 73.7503 102.729C73.7503 96.7789 73.7504 91.4236 74.9404 86.0683C75.833 79.8204 77.618 73.2752 79.9982 64.9447C79.9982 64.0522 80.8908 63.457 81.4859 63.457C82.0809 63.457 82.3783 64.0519 82.0808 64.6469C79.4031 72.9774 77.9156 79.2254 77.0231 85.1757C76.1305 90.5311 75.833 95.8866 75.833 102.135C75.833 103.325 75.833 104.515 75.833 105.705ZM60.957 76.5479C60.957 76.5479 60.9572 75.0601 61.5522 74.4651C62.1472 73.87 62.7421 73.87 63.0397 74.4651C65.7173 79.8204 67.2049 84.5808 68.0974 89.9361C68.99 94.6964 68.9902 100.052 68.9902 106.597C68.9902 107.787 68.9902 108.68 68.9902 109.87C68.9902 109.87 68.9901 110.167 68.6926 110.465C68.3951 110.465 67.5024 110.465 67.2049 110.465C67.2049 110.465 66.9073 110.465 66.9073 109.87C66.9073 103.622 66.9073 97.6717 66.0148 91.4238C65.1222 86.366 63.6348 81.9032 61.2546 76.5479H60.957Z" fill="#C49F0C"/>
<path fill-rule="evenodd" clip-rule="evenodd" d="M75.833 105.705C75.833 105.705 75.8329 106.002 75.5354 106.3C75.2379 106.3 74.3454 106.3 74.0479 106.3C74.0479 106.3 73.7503 106.299 73.7503 106.002C73.7503 104.812 73.7503 103.622 73.7503 102.729C73.7503 96.7789 73.7504 91.4236 74.9404 86.0683C75.833 79.8204 77.618 73.2752 79.9982 64.9447C79.9982 64.0522 80.8908 63.457 81.4859 63.457C82.0809 63.457 82.3783 64.0519 82.0808 64.6469C79.4031 72.9774 77.9156 79.2254 77.0231 85.1757C76.1305 90.5311 75.833 95.8866 75.833 102.135C75.833 103.325 75.833 104.515 75.833 105.705ZM60.957 76.5479C60.957 76.5479 60.9572 75.0601 61.5522 74.4651C62.1472 73.87 62.7421 73.87 63.0397 74.4651C65.7173 79.8204 67.2049 84.5808 68.0974 89.9361C68.99 94.6964 68.9902 100.052 68.9902 106.597C68.9902 107.787 68.9902 108.68 68.9902 109.87C68.9902 109.87 68.9901 110.167 68.6926 110.465C68.3951 110.465 67.5024 110.465 67.2049 110.465C67.2049 110.465 66.9073 110.465 66.9073 109.87C66.9073 103.622 66.9073 97.6717 66.0148 91.4238C65.1222 86.366 63.6348 81.9032 61.2546 76.5479H60.957Z" fill="url(#paint17_linear_1_20372)"/>
<path fill-rule="evenodd" clip-rule="evenodd" d="M65.7425 77.4258C65.7425 77.4258 64.8499 79.2106 64.2549 79.5082C63.6598 79.8057 63.0648 79.2108 63.3623 78.3183L64.2549 72.368C64.2549 72.368 65.1475 70.5827 65.7425 70.2852C66.3376 70.2852 66.9326 70.5829 66.6351 71.4755L65.7425 77.4258Z" fill="#FFED00"/>
<path fill-rule="evenodd" clip-rule="evenodd" d="M65.7425 77.4258C65.7425 77.4258 64.8499 79.2106 64.2549 79.5082C63.6598 79.8057 63.0648 79.2108 63.3623 78.3183L64.2549 72.368C64.2549 72.368 65.1475 70.5827 65.7425 70.2852C66.3376 70.2852 66.9326 70.5829 66.6351 71.4755L65.7425 77.4258Z" fill="url(#paint18_linear_1_20372)"/>
<path fill-rule="evenodd" clip-rule="evenodd" d="M68.7035 75.9477C68.7035 75.9477 67.8108 77.7325 67.2158 78.0301C66.6208 78.0301 66.0258 77.7327 66.3233 76.8402L67.5134 69.6996C67.5134 69.6996 68.406 67.9147 69.0011 67.6172C69.5961 67.6172 70.1911 67.9145 69.8936 68.8071L68.7035 75.9477Z" fill="#FFED00"/>
<path fill-rule="evenodd" clip-rule="evenodd" d="M68.7035 75.9477C68.7035 75.9477 67.8108 77.7325 67.2158 78.0301C66.6208 78.0301 66.0258 77.7327 66.3233 76.8402L67.5134 69.6996C67.5134 69.6996 68.406 67.9147 69.0011 67.6172C69.5961 67.6172 70.1911 67.9145 69.8936 68.8071L68.7035 75.9477Z" fill="url(#paint19_linear_1_20372)"/>
<path fill-rule="evenodd" clip-rule="evenodd" d="M71.9593 74.4236C71.9593 74.4236 71.0667 76.209 70.4717 76.5065C69.8766 76.5065 69.2816 76.2087 69.5791 75.3161L71.0668 66.6883C71.0668 66.6883 71.9592 64.903 72.5543 64.6055C73.1493 64.6055 73.7443 64.9032 73.4468 65.7958L71.9593 74.4236Z" fill="#FFED00"/>
<path fill-rule="evenodd" clip-rule="evenodd" d="M71.9593 74.4236C71.9593 74.4236 71.0667 76.209 70.4717 76.5065C69.8766 76.5065 69.2816 76.2087 69.5791 75.3161L71.0668 66.6883C71.0668 66.6883 71.9592 64.903 72.5543 64.6055C73.1493 64.6055 73.7443 64.9032 73.4468 65.7958L71.9593 74.4236Z" fill="url(#paint20_linear_1_20372)"/>
<path fill-rule="evenodd" clip-rule="evenodd" d="M75.266 71.7875C75.266 71.7875 74.3733 73.5724 73.7783 73.8699C73.1833 73.8699 72.5883 73.5726 72.8858 72.68L74.0759 65.5394C74.0759 65.5394 74.9683 63.7545 75.5633 63.457C76.1584 63.457 76.7536 63.7543 76.4561 64.6469L75.266 71.7875Z" fill="#FFED00"/>
<path fill-rule="evenodd" clip-rule="evenodd" d="M75.266 71.7875C75.266 71.7875 74.3733 73.5724 73.7783 73.8699C73.1833 73.8699 72.5883 73.5726 72.8858 72.68L74.0759 65.5394C74.0759 65.5394 74.9683 63.7545 75.5633 63.457C76.1584 63.457 76.7536 63.7543 76.4561 64.6469L75.266 71.7875Z" fill="url(#paint21_linear_1_20372)"/>
<path fill-rule="evenodd" clip-rule="evenodd" d="M78.5453 69.0544C78.5453 69.0544 77.6526 70.8393 77.0576 71.1368C76.4626 71.4343 75.8676 70.8395 76.1651 69.9469L77.0576 63.9967C77.0576 63.9967 77.9502 62.2113 78.5453 61.9138C79.1403 61.9138 79.7353 62.2111 79.4378 63.1037L78.5453 69.0544Z" fill="#FFED00"/>
<path fill-rule="evenodd" clip-rule="evenodd" d="M78.5453 69.0544C78.5453 69.0544 77.6526 70.8393 77.0576 71.1368C76.4626 71.4343 75.8676 70.8395 76.1651 69.9469L77.0576 63.9967C77.0576 63.9967 77.9502 62.2113 78.5453 61.9138C79.1403 61.9138 79.7353 62.2111 79.4378 63.1037L78.5453 69.0544Z" fill="url(#paint22_linear_1_20372)"/>
<path fill-rule="evenodd" clip-rule="evenodd" d="M81.7775 66.9815C81.7775 66.9815 80.8851 68.7669 80.29 69.0644C79.695 69.0644 79.1 68.7666 79.3975 67.874L80.29 63.1136C80.29 63.1136 81.1824 61.3288 81.7775 61.0312C82.3725 61.0312 82.9677 61.3286 82.6702 62.2211L81.7775 66.9815Z" fill="#FFED00"/>
<path fill-rule="evenodd" clip-rule="evenodd" d="M81.7775 66.9815C81.7775 66.9815 80.8851 68.7669 80.29 69.0644C79.695 69.0644 79.1 68.7666 79.3975 67.874L80.29 63.1136C80.29 63.1136 81.1824 61.3288 81.7775 61.0312C82.3725 61.0312 82.9677 61.3286 82.6702 62.2211L81.7775 66.9815Z" fill="url(#paint23_linear_1_20372)"/>
<path fill-rule="evenodd" clip-rule="evenodd" d="M62.4867 78.3682C62.4867 78.3682 61.594 80.1531 60.999 80.4506C60.404 80.4506 59.809 80.1533 60.1065 79.2608L60.999 74.5004C60.999 74.5004 61.8916 72.7155 62.4867 72.418C63.0817 72.418 63.6767 72.7153 63.3792 73.6078L62.4867 78.3682Z" fill="#FFED00"/>
<path fill-rule="evenodd" clip-rule="evenodd" d="M62.4867 78.3682C62.4867 78.3682 61.594 80.1531 60.999 80.4506C60.404 80.4506 59.809 80.1533 60.1065 79.2608L60.999 74.5004C60.999 74.5004 61.8916 72.7155 62.4867 72.418C63.0817 72.418 63.6767 72.7153 63.3792 73.6078L62.4867 78.3682Z" fill="url(#paint24_linear_1_20372)"/>
<path fill-rule="evenodd" clip-rule="evenodd" d="M67.2432 58.3256C54.4499 59.8132 44.0369 67.8458 39.2766 77.9615C38.3841 76.4739 37.7888 74.9863 37.1938 72.9037C33.326 55.9452 47.3094 38.3919 66.9456 36.0117V58.3256H67.2432Z" fill="#FFED00"/>
<path fill-rule="evenodd" clip-rule="evenodd" d="M67.2432 58.3256C54.4499 59.8132 44.0369 67.8458 39.2766 77.9615C38.3841 76.4739 37.7888 74.9863 37.1938 72.9037C33.326 55.9452 47.3094 38.3919 66.9456 36.0117V58.3256H67.2432Z" fill="url(#paint25_linear_1_20372)"/>
<path fill-rule="evenodd" clip-rule="evenodd" d="M66.3304 76.7422C66.3304 76.7422 65.4378 78.5275 64.8428 78.825C64.2477 79.1225 63.6527 78.5272 63.9502 77.6347L64.8428 71.6844C64.8428 71.6844 65.7354 69.8991 66.3304 69.6016C66.9255 69.6016 67.5205 69.8993 67.223 70.7919L66.3304 76.7422Z" fill="#FFF896"/>
<path fill-rule="evenodd" clip-rule="evenodd" d="M66.3304 76.7422C66.3304 76.7422 65.4378 78.5275 64.8428 78.825C64.2477 79.1225 63.6527 78.5272 63.9502 77.6347L64.8428 71.6844C64.8428 71.6844 65.7354 69.8991 66.3304 69.6016C66.9255 69.6016 67.5205 69.8993 67.223 70.7919L66.3304 76.7422Z" fill="url(#paint26_linear_1_20372)"/>
<path fill-rule="evenodd" clip-rule="evenodd" d="M69.5863 75.2641C69.5863 75.2641 68.6936 77.0494 68.0986 77.3469C67.5036 77.3469 66.9086 77.0491 67.2061 76.1566L68.3962 69.0164C68.3962 69.0164 69.2888 67.2311 69.8839 66.9336C70.4789 66.9336 71.0739 67.2314 70.7764 68.1239L69.5863 75.2641Z" fill="#FFF896"/>
<path fill-rule="evenodd" clip-rule="evenodd" d="M69.5863 75.2641C69.5863 75.2641 68.6936 77.0494 68.0986 77.3469C67.5036 77.3469 66.9086 77.0491 67.2061 76.1566L68.3962 69.0164C68.3962 69.0164 69.2888 67.2311 69.8839 66.9336C70.4789 66.9336 71.0739 67.2314 70.7764 68.1239L69.5863 75.2641Z" fill="url(#paint27_linear_1_20372)"/>
<path fill-rule="evenodd" clip-rule="evenodd" d="M72.596 74.0838C72.596 74.0838 71.7036 75.8687 71.1086 76.1662C70.5135 76.1662 69.9183 75.8689 70.2158 74.9763L71.7035 66.348C71.7035 66.348 72.5962 64.5631 73.1912 64.2656C73.7862 64.2656 74.3812 64.5629 74.0837 65.4555L72.596 74.0838Z" fill="#FFF896"/>
<path fill-rule="evenodd" clip-rule="evenodd" d="M72.596 74.0838C72.596 74.0838 71.7036 75.8687 71.1086 76.1662C70.5135 76.1662 69.9183 75.8689 70.2158 74.9763L71.7035 66.348C71.7035 66.348 72.5962 64.5631 73.1912 64.2656C73.7862 64.2656 74.3812 64.5629 74.0837 65.4555L72.596 74.0838Z" fill="url(#paint28_linear_1_20372)"/>
<path fill-rule="evenodd" clip-rule="evenodd" d="M76.1468 71.4442C76.1468 71.4442 75.2542 73.2291 74.6592 73.5266C74.0641 73.5266 73.4691 73.2293 73.7666 72.3367L74.9567 65.1961C74.9567 65.1961 75.8494 63.4108 76.4444 63.1133C77.0395 63.1133 77.6345 63.4111 77.3369 64.3036L76.1468 71.4442Z" fill="#FFF896"/>
<path fill-rule="evenodd" clip-rule="evenodd" d="M76.1468 71.4442C76.1468 71.4442 75.2542 73.2291 74.6592 73.5266C74.0641 73.5266 73.4691 73.2293 73.7666 72.3367L74.9567 65.1961C74.9567 65.1961 75.8494 63.4108 76.4444 63.1133C77.0395 63.1133 77.6345 63.4111 77.3369 64.3036L76.1468 71.4442Z" fill="url(#paint29_linear_1_20372)"/>
<path fill-rule="evenodd" clip-rule="evenodd" d="M79.4027 68.7339C79.4027 68.7339 78.5101 70.5192 77.915 70.8167C77.32 70.8167 76.725 70.519 77.0225 69.6264L77.915 63.6761C77.915 63.6761 78.8077 61.8913 79.4027 61.5938C79.9977 61.5938 80.5927 61.8911 80.2952 62.7836L79.4027 68.7339Z" fill="#FFF896"/>
<path fill-rule="evenodd" clip-rule="evenodd" d="M79.4027 68.7339C79.4027 68.7339 78.5101 70.5192 77.915 70.8167C77.32 70.8167 76.725 70.519 77.0225 69.6264L77.915 63.6761C77.915 63.6761 78.8077 61.8913 79.4027 61.5938C79.9977 61.5938 80.5927 61.8911 80.2952 62.7836L79.4027 68.7339Z" fill="url(#paint30_linear_1_20372)"/>
<path fill-rule="evenodd" clip-rule="evenodd" d="M82.4144 66.7393C82.4144 66.7393 81.5218 68.5242 80.9267 68.8217C80.3317 68.8217 79.7367 68.5244 80.0342 67.6319L80.9267 62.8715C80.9267 62.8715 81.8194 61.0866 82.4144 60.7891C83.0095 60.7891 83.6045 61.0864 83.3069 61.9789L82.4144 66.7393Z" fill="#FFF896"/>
<path fill-rule="evenodd" clip-rule="evenodd" d="M82.4144 66.7393C82.4144 66.7393 81.5218 68.5242 80.9267 68.8217C80.3317 68.8217 79.7367 68.5244 80.0342 67.6319L80.9267 62.8715C80.9267 62.8715 81.8194 61.0866 82.4144 60.7891C83.0095 60.7891 83.6045 61.0864 83.3069 61.9789L82.4144 66.7393Z" fill="url(#paint31_linear_1_20372)"/>
<path fill-rule="evenodd" clip-rule="evenodd" d="M63.3422 77.6339C63.3422 77.6339 62.4495 79.4192 61.8545 79.7167C61.2594 79.7167 60.6644 79.4189 60.962 78.5264L61.8545 73.766C61.8545 73.766 62.7471 71.9811 63.3422 71.6836C63.9372 71.6836 64.5322 71.9809 64.2347 72.8735L63.3422 77.6339Z" fill="#FFF896"/>
<path fill-rule="evenodd" clip-rule="evenodd" d="M63.3422 77.6339C63.3422 77.6339 62.4495 79.4192 61.8545 79.7167C61.2594 79.7167 60.6644 79.4189 60.962 78.5264L61.8545 73.766C61.8545 73.766 62.7471 71.9811 63.3422 71.6836C63.9372 71.6836 64.5322 71.9809 64.2347 72.8735L63.3422 77.6339Z" fill="url(#paint32_linear_1_20372)"/>
<defs>
<linearGradient id="paint0_linear_1_20372" x1="66.5812" y1="141.489" x2="80.1755" y2="141.866" gradientUnits="userSpaceOnUse">
<stop stop-color="#E6F0FF"/>
<stop offset="0.24" stop-color="#E2ECFD"/>
<stop offset="0.47" stop-color="#D6E3F8"/>
<stop offset="0.69" stop-color="#C3D3F0"/>
<stop offset="0.91" stop-color="#A9BDE4"/>
<stop offset="1" stop-color="#9CB2DF"/>
</linearGradient>
<linearGradient id="paint1_linear_1_20372" x1="54.1659" y1="136.634" x2="88.3674" y2="136.634" gradientUnits="userSpaceOnUse">
<stop stop-color="#4AFFC7"/>
<stop offset="1" stop-color="#3BADEA"/>
</linearGradient>
<linearGradient id="paint2_linear_1_20372" x1="54.3695" y1="128.423" x2="86.7598" y2="128.423" gradientUnits="userSpaceOnUse">
<stop stop-color="#3BADEA"/>
<stop offset="1" stop-color="#4AFFC7"/>
</linearGradient>
<linearGradient id="paint3_linear_1_20372" x1="53.4664" y1="127.084" x2="88.5603" y2="127.084" gradientUnits="userSpaceOnUse">
<stop stop-color="#4AFFC7"/>
<stop offset="1" stop-color="#3BADEA"/>
</linearGradient>
<linearGradient id="paint4_linear_1_20372" x1="-0.00672129" y1="71.1913" x2="23.1911" y2="71.1913" gradientUnits="userSpaceOnUse">
<stop stop-color="#4AFFC7"/>
<stop offset="1" stop-color="#3BADEA"/>
</linearGradient>
<linearGradient id="paint5_linear_1_20372" x1="19.0653" y1="27.3822" x2="36.249" y2="27.3822" gradientUnits="userSpaceOnUse">
<stop stop-color="#4AFFC7"/>
<stop offset="1" stop-color="#3BADEA"/>
</linearGradient>
<linearGradient id="paint6_linear_1_20372" x1="69.622" y1="11.9008" x2="73.191" y2="11.9008" gradientUnits="userSpaceOnUse">
<stop stop-color="#4AFFC7"/>
<stop offset="1" stop-color="#3BADEA"/>
</linearGradient>
<linearGradient id="paint7_linear_1_20372" x1="119.581" y1="70.7968" x2="142.779" y2="70.7968" gradientUnits="userSpaceOnUse">
<stop stop-color="#4AFFC7"/>
<stop offset="1" stop-color="#3BADEA"/>
</linearGradient>
<linearGradient id="paint8_linear_1_20372" x1="106.634" y1="27.4231" x2="124.18" y2="27.4231" gradientUnits="userSpaceOnUse">
<stop stop-color="#4AFFC7"/>
<stop offset="1" stop-color="#3BADEA"/>
</linearGradient>
<linearGradient id="paint9_linear_1_20372" x1="50.6122" y1="76.5971" x2="110.088" y2="77.0864" gradientUnits="userSpaceOnUse">
<stop stop-color="#9CB2DF"/>
<stop offset="0.09" stop-color="#A9BDE4"/>
<stop offset="0.31" stop-color="#C3D3F0"/>
<stop offset="0.53" stop-color="#D6E3F8"/>
<stop offset="0.76" stop-color="#E2ECFD"/>
<stop offset="1" stop-color="#E6F0FF"/>
</linearGradient>
<linearGradient id="paint10_linear_1_20372" x1="56.3695" y1="122.743" x2="88.7598" y2="122.743" gradientUnits="userSpaceOnUse">
<stop stop-color="#3BADEA"/>
<stop offset="1" stop-color="#4AFFC7"/>
</linearGradient>
<linearGradient id="paint11_linear_1_20372" x1="53.4664" y1="121.725" x2="88.5603" y2="121.725" gradientUnits="userSpaceOnUse">
<stop stop-color="#4AFFC7"/>
<stop offset="1" stop-color="#3BADEA"/>
</linearGradient>
<linearGradient id="paint12_linear_1_20372" x1="61.6428" y1="113.107" x2="89.5363" y2="113.584" gradientUnits="userSpaceOnUse">
<stop stop-color="#9CB2DF"/>
<stop offset="0.09" stop-color="#A9BDE4"/>
<stop offset="0.31" stop-color="#C3D3F0"/>
<stop offset="0.53" stop-color="#D6E3F8"/>
<stop offset="0.76" stop-color="#E2ECFD"/>
<stop offset="1" stop-color="#E6F0FF"/>
</linearGradient>
<linearGradient id="paint13_linear_1_20372" x1="53.2103" y1="121.674" x2="89.1964" y2="121.674" gradientUnits="userSpaceOnUse">
<stop stop-color="#3BADEA"/>
<stop offset="1" stop-color="#4AFFC7"/>
</linearGradient>
<linearGradient id="paint14_linear_1_20372" x1="53.2103" y1="120.483" x2="89.1964" y2="120.483" gradientUnits="userSpaceOnUse">
<stop stop-color="#4AFFC7"/>
<stop offset="1" stop-color="#3BADEA"/>
</linearGradient>
<linearGradient id="paint15_linear_1_20372" x1="67.6426" y1="111.56" x2="77.7872" y2="111.677" gradientUnits="userSpaceOnUse">
<stop stop-color="#9CB2DF"/>
<stop offset="0.09" stop-color="#A9BDE4"/>
<stop offset="0.31" stop-color="#C3D3F0"/>
<stop offset="0.53" stop-color="#D6E3F8"/>
<stop offset="0.76" stop-color="#E2ECFD"/>
<stop offset="1" stop-color="#E6F0FF"/>
</linearGradient>
<linearGradient id="paint16_linear_1_20372" x1="67.573" y1="108.14" x2="77.4856" y2="108.309" gradientUnits="userSpaceOnUse">
<stop stop-color="#E6F0FF"/>
<stop offset="0.24" stop-color="#E2ECFD"/>
<stop offset="0.47" stop-color="#D6E3F8"/>
<stop offset="0.69" stop-color="#C3D3F0"/>
<stop offset="0.91" stop-color="#A9BDE4"/>
<stop offset="1" stop-color="#9CB2DF"/>
</linearGradient>
<linearGradient id="paint17_linear_1_20372" x1="74.72" y1="78.8979" x2="74.6464" y2="95.3599" gradientUnits="userSpaceOnUse">
<stop stop-color="#E6F0FF"/>
<stop offset="0.24" stop-color="#E2ECFD"/>
<stop offset="0.47" stop-color="#D6E3F8"/>
<stop offset="0.69" stop-color="#C3D3F0"/>
<stop offset="0.91" stop-color="#A9BDE4"/>
<stop offset="1" stop-color="#9CB2DF"/>
</linearGradient>
<linearGradient id="paint18_linear_1_20372" x1="63.2822" y1="74.9354" x2="66.7119" y2="74.9354" gradientUnits="userSpaceOnUse">
<stop stop-color="#4AFFC7"/>
<stop offset="1" stop-color="#3BADEA"/>
</linearGradient>
<linearGradient id="paint19_linear_1_20372" x1="66.2431" y1="72.8236" x2="69.9702" y2="72.8236" gradientUnits="userSpaceOnUse">
<stop stop-color="#4AFFC7"/>
<stop offset="1" stop-color="#3BADEA"/>
</linearGradient>
<linearGradient id="paint20_linear_1_20372" x1="69.4988" y1="70.556" x2="73.5232" y2="70.556" gradientUnits="userSpaceOnUse">
<stop stop-color="#4AFFC7"/>
<stop offset="1" stop-color="#3BADEA"/>
</linearGradient>
<linearGradient id="paint21_linear_1_20372" x1="72.8056" y1="68.6635" x2="76.5327" y2="68.6635" gradientUnits="userSpaceOnUse">
<stop stop-color="#4AFFC7"/>
<stop offset="1" stop-color="#3BADEA"/>
</linearGradient>
<linearGradient id="paint22_linear_1_20372" x1="76.0849" y1="66.564" x2="79.5146" y2="66.564" gradientUnits="userSpaceOnUse">
<stop stop-color="#4AFFC7"/>
<stop offset="1" stop-color="#3BADEA"/>
</linearGradient>
<linearGradient id="paint23_linear_1_20372" x1="79.3174" y1="65.0478" x2="82.747" y2="65.0478" gradientUnits="userSpaceOnUse">
<stop stop-color="#4AFFC7"/>
<stop offset="1" stop-color="#3BADEA"/>
</linearGradient>
<linearGradient id="paint24_linear_1_20372" x1="60.0264" y1="76.4343" x2="63.4561" y2="76.4343" gradientUnits="userSpaceOnUse">
<stop stop-color="#4AFFC7"/>
<stop offset="1" stop-color="#3BADEA"/>
</linearGradient>
<linearGradient id="paint25_linear_1_20372" x1="67.512" y1="57.6386" x2="43.7237" y2="57.4665" gradientUnits="userSpaceOnUse">
<stop stop-color="#E6F0FF"/>
<stop offset="0.24" stop-color="#E2ECFD"/>
<stop offset="0.47" stop-color="#D6E3F8"/>
<stop offset="0.69" stop-color="#C3D3F0"/>
<stop offset="0.91" stop-color="#A9BDE4"/>
<stop offset="1" stop-color="#9CB2DF"/>
</linearGradient>
<linearGradient id="paint26_linear_1_20372" x1="64.6738" y1="74.1729" x2="67.3329" y2="74.1826" gradientUnits="userSpaceOnUse">
<stop stop-color="#E6F0FF"/>
<stop offset="0.24" stop-color="#E2ECFD"/>
<stop offset="0.47" stop-color="#D6E3F8"/>
<stop offset="0.69" stop-color="#C3D3F0"/>
<stop offset="0.91" stop-color="#A9BDE4"/>
<stop offset="1" stop-color="#9CB2DF"/>
</linearGradient>
<linearGradient id="paint27_linear_1_20372" x1="67.9992" y1="72.0517" x2="70.889" y2="72.062" gradientUnits="userSpaceOnUse">
<stop stop-color="#E6F0FF"/>
<stop offset="0.24" stop-color="#E2ECFD"/>
<stop offset="0.47" stop-color="#D6E3F8"/>
<stop offset="0.69" stop-color="#C3D3F0"/>
<stop offset="0.91" stop-color="#A9BDE4"/>
<stop offset="1" stop-color="#9CB2DF"/>
</linearGradient>
<linearGradient id="paint28_linear_1_20372" x1="71.0786" y1="70.1148" x2="74.199" y2="70.1252" gradientUnits="userSpaceOnUse">
<stop stop-color="#E6F0FF"/>
<stop offset="0.24" stop-color="#E2ECFD"/>
<stop offset="0.47" stop-color="#D6E3F8"/>
<stop offset="0.69" stop-color="#C3D3F0"/>
<stop offset="0.91" stop-color="#A9BDE4"/>
<stop offset="1" stop-color="#9CB2DF"/>
</linearGradient>
<linearGradient id="paint29_linear_1_20372" x1="74.5598" y1="68.2314" x2="77.4496" y2="68.2417" gradientUnits="userSpaceOnUse">
<stop stop-color="#E6F0FF"/>
<stop offset="0.24" stop-color="#E2ECFD"/>
<stop offset="0.47" stop-color="#D6E3F8"/>
<stop offset="0.69" stop-color="#C3D3F0"/>
<stop offset="0.91" stop-color="#A9BDE4"/>
<stop offset="1" stop-color="#9CB2DF"/>
</linearGradient>
<linearGradient id="paint30_linear_1_20372" x1="77.746" y1="66.1269" x2="80.4052" y2="66.1366" gradientUnits="userSpaceOnUse">
<stop stop-color="#E6F0FF"/>
<stop offset="0.24" stop-color="#E2ECFD"/>
<stop offset="0.47" stop-color="#D6E3F8"/>
<stop offset="0.69" stop-color="#C3D3F0"/>
<stop offset="0.91" stop-color="#A9BDE4"/>
<stop offset="1" stop-color="#9CB2DF"/>
</linearGradient>
<linearGradient id="paint31_linear_1_20372" x1="80.7578" y1="64.7371" x2="83.4169" y2="64.7484" gradientUnits="userSpaceOnUse">
<stop stop-color="#E6F0FF"/>
<stop offset="0.24" stop-color="#E2ECFD"/>
<stop offset="0.47" stop-color="#D6E3F8"/>
<stop offset="0.69" stop-color="#C3D3F0"/>
<stop offset="0.91" stop-color="#A9BDE4"/>
<stop offset="1" stop-color="#9CB2DF"/>
</linearGradient>
<linearGradient id="paint32_linear_1_20372" x1="61.6855" y1="75.6319" x2="64.3446" y2="75.6431" gradientUnits="userSpaceOnUse">
<stop stop-color="#E6F0FF"/>
<stop offset="0.24" stop-color="#E2ECFD"/>
<stop offset="0.47" stop-color="#D6E3F8"/>
<stop offset="0.69" stop-color="#C3D3F0"/>
<stop offset="0.91" stop-color="#A9BDE4"/>
<stop offset="1" stop-color="#9CB2DF"/>
</linearGradient>
</defs>
</svg>
