<svg width="127" height="172" viewBox="0 0 127 172" fill="none" xmlns="http://www.w3.org/2000/svg">
<path opacity="0.5" fill-rule="evenodd" clip-rule="evenodd" d="M105.873 114.077C128.709 127.214 128.709 149.01 105.873 162.147C83.0361 175.284 45.9639 175.284 23.1274 162.147C0.290876 149.01 0.290876 127.214 23.1274 114.077C45.9639 100.641 83.0361 100.641 105.873 114.077Z" fill="#E9E9EB"/>
<path opacity="0.5" fill-rule="evenodd" clip-rule="evenodd" d="M97.488 119.751C115.504 130.085 115.504 146.915 97.488 157.249C79.4719 167.584 50.5281 167.584 32.512 157.249C14.496 146.915 14.496 130.085 32.512 119.751C50.5281 109.416 79.4719 109.416 97.488 119.751Z" fill="#DDDEE1"/>
<path opacity="0.5" fill-rule="evenodd" clip-rule="evenodd" d="M88.9562 124.761C102.348 132.443 102.348 144.557 88.9562 152.239C75.8621 159.92 54.1379 159.92 41.0438 152.239C27.6521 144.557 27.6521 132.443 41.0438 124.761C54.4355 117.08 75.8621 117.08 88.9562 124.761Z" fill="#D1D2D6"/>
<path fill-rule="evenodd" clip-rule="evenodd" d="M90 9.82815L75.4934 1.48897L73.717 0.893427L71.9408 0.297885L70.1644 0H68.0921H66.3157H64.2433L62.171 0.297885L59.8026 0.595542L57.7303 1.19131L55.3618 1.78685L53.2894 2.68028L50.921 3.87159L48.5526 4.76502L46.1841 6.25421L43.8158 7.74341L41.4473 9.23238L39.0789 11.0192L37.0066 12.8063L34.6381 14.5932L32.5657 16.6779L30.4934 18.7626L28.125 20.8474L26.3487 23.23L24.2763 25.3147L22.2039 27.9952L20.4276 30.3776L18.6513 32.7603L16.875 35.4408L15.0986 38.1211L13.6184 40.8013L12.1382 43.4818L10.6579 46.46L9.17756 49.1405L7.99343 52.1187L6.8092 54.799L5.62496 57.7774L4.73684 60.7555L3.84871 63.7337L2.96048 66.414L2.07236 69.3924L1.48024 72.3705L0.888121 75.3487L0.592119 78.029L0.296003 81.0074L0 83.6876V86.6658V89.3463L0.296003 92.0266L0.592119 94.4092L0.888121 96.7918L1.48024 99.1745L2.07236 101.259L2.96048 103.344L3.84871 105.429L4.73684 107.216L5.62496 109.002L6.8092 110.492L7.99343 111.981L9.17756 113.172L10.6579 114.661L24.8684 123L23.6842 121.511L22.2039 120.32L21.0197 118.831L20.1316 117.342L18.9473 115.554L18.0592 113.768L17.171 111.683L16.5789 109.598L15.9869 107.513L15.3947 105.131L15.0986 102.748L14.8026 100.366L14.5065 97.6853V95.005V92.0266L14.8026 89.3463L15.0986 86.3681L15.3947 83.6876L15.9869 80.7095L16.5789 77.7313L17.171 74.7531L18.0592 72.0726L18.9473 69.0945L20.1316 66.1163L21.0197 63.1379L22.2039 60.4576L23.6842 57.4795L24.8684 54.799L26.3487 51.8208L27.8289 49.1405L29.6053 46.46L31.0855 43.7797L32.8619 41.0992L34.6381 38.7166L36.7105 36.3342L38.4868 33.6537L40.5592 31.569L42.6315 29.1863L44.7039 27.1016L46.7762 25.0169L49.1447 22.9321L51.2171 21.1453L53.5854 19.3584L55.9539 17.5713L58.3223 16.0824L60.6908 14.5932L63.0592 13.1042L65.1316 12.2105L67.4999 11.0192L69.8684 10.1258L71.9408 9.53026L74.3091 8.93449L76.3815 8.63684L78.4539 8.33895H80.5262H82.5987H84.3749L86.4473 8.63684L88.2236 9.23238L90 9.82815Z" fill="#A6392D"/>
<path fill-rule="evenodd" clip-rule="evenodd" d="M90 9.82815L75.4934 1.48897L73.717 0.893427L71.9408 0.297885L70.1644 0H68.0921H66.3157H64.2433L62.171 0.297885L59.8026 0.595542L57.7303 1.19131L55.3618 1.78685L53.2894 2.68028L50.921 3.87159L48.5526 4.76502L46.1841 6.25421L43.8158 7.74341L41.4473 9.23238L39.0789 11.0192L37.0066 12.8063L34.6381 14.5932L32.5657 16.6779L30.4934 18.7626L28.125 20.8474L26.3487 23.23L24.2763 25.3147L22.2039 27.9952L20.4276 30.3776L18.6513 32.7603L16.875 35.4408L15.0986 38.1211L13.6184 40.8013L12.1382 43.4818L10.6579 46.46L9.17756 49.1405L7.99343 52.1187L6.8092 54.799L5.62496 57.7774L4.73684 60.7555L3.84871 63.7337L2.96048 66.414L2.07236 69.3924L1.48024 72.3705L0.888121 75.3487L0.592119 78.029L0.296003 81.0074L0 83.6876V86.6658V89.3463L0.296003 92.0266L0.592119 94.4092L0.888121 96.7918L1.48024 99.1745L2.07236 101.259L2.96048 103.344L3.84871 105.429L4.73684 107.216L5.62496 109.002L6.8092 110.492L7.99343 111.981L9.17756 113.172L10.6579 114.661L24.8684 123L23.6842 121.511L22.2039 120.32L21.0197 118.831L20.1316 117.342L18.9473 115.554L18.0592 113.768L17.171 111.683L16.5789 109.598L15.9869 107.513L15.3947 105.131L15.0986 102.748L14.8026 100.366L14.5065 97.6853V95.005V92.0266L14.8026 89.3463L15.0986 86.3681L15.3947 83.6876L15.9869 80.7095L16.5789 77.7313L17.171 74.7531L18.0592 72.0726L18.9473 69.0945L20.1316 66.1163L21.0197 63.1379L22.2039 60.4576L23.6842 57.4795L24.8684 54.799L26.3487 51.8208L27.8289 49.1405L29.6053 46.46L31.0855 43.7797L32.8619 41.0992L34.6381 38.7166L36.7105 36.3342L38.4868 33.6537L40.5592 31.569L42.6315 29.1863L44.7039 27.1016L46.7762 25.0169L49.1447 22.9321L51.2171 21.1453L53.5854 19.3584L55.9539 17.5713L58.3223 16.0824L60.6908 14.5932L63.0592 13.1042L65.1316 12.2105L67.4999 11.0192L69.8684 10.1258L71.9408 9.53026L74.3091 8.93449L76.3815 8.63684L78.4539 8.33895H80.5262H82.5987H84.3749L86.4473 8.63684L88.2236 9.23238L90 9.82815Z" fill="url(#paint0_linear_1_20409)"/>
<path fill-rule="evenodd" clip-rule="evenodd" d="M61 121.591C86.359 106.705 107 70.9773 107 41.2044C107 11.4315 86.359 -0.477653 61 14.4088C35.641 29.2952 15 65.0229 15 94.7957C15 124.569 35.641 136.478 61 121.591Z" fill="#E74C3C"/>
<path fill-rule="evenodd" clip-rule="evenodd" d="M61 121.591C86.359 106.705 107 70.9773 107 41.2044C107 11.4315 86.359 -0.477653 61 14.4088C35.641 29.2952 15 65.0229 15 94.7957C15 124.569 35.641 136.478 61 121.591Z" fill="url(#paint1_linear_1_20409)"/>
<path fill-rule="evenodd" clip-rule="evenodd" d="M61 109.873C81.424 97.9638 98 69.3818 98 45.5635C98 21.7452 81.424 12.2179 61 24.127C40.576 36.0362 24 64.6182 24 88.4365C24 112.255 40.576 121.782 61 109.873Z" fill="#E6EAEB"/>
<path fill-rule="evenodd" clip-rule="evenodd" d="M61 109.873C81.424 97.9638 98 69.3818 98 45.5635C98 21.7452 81.424 12.2179 61 24.127C40.576 36.0362 24 64.6182 24 88.4365C24 112.255 40.576 121.782 61 109.873Z" fill="url(#paint2_linear_1_20409)"/>
<path fill-rule="evenodd" clip-rule="evenodd" d="M61.0001 99.1547C76.4894 90.2228 89 68.7865 89 50.9227C89 33.0589 76.4894 25.9134 61.0001 34.8453C45.5107 43.7772 33 65.2135 33 83.0773C33 100.941 45.5107 108.087 61.0001 99.1547Z" fill="#E74C3C"/>
<path fill-rule="evenodd" clip-rule="evenodd" d="M61.0001 99.1547C76.4894 90.2228 89 68.7865 89 50.9227C89 33.0589 76.4894 25.9134 61.0001 34.8453C45.5107 43.7772 33 65.2135 33 83.0773C33 100.941 45.5107 108.087 61.0001 99.1547Z" fill="url(#paint3_linear_1_20409)"/>
<path fill-rule="evenodd" clip-rule="evenodd" d="M60.5001 46.5635C70.6452 40.6089 79 45.3726 79 57.2818C79 69.1909 70.6452 83.4819 60.5001 89.4365C50.3549 95.3911 42 90.6274 42 78.7182C42 66.8091 50.3549 52.5181 60.5001 46.5635Z" fill="#E6EAEB"/>
<path fill-rule="evenodd" clip-rule="evenodd" d="M60.5001 46.5635C70.6452 40.6089 79 45.3726 79 57.2818C79 69.1909 70.6452 83.4819 60.5001 89.4365C50.3549 95.3911 42 90.6274 42 78.7182C42 66.8091 50.3549 52.5181 60.5001 46.5635Z" fill="url(#paint4_linear_1_20409)"/>
<path fill-rule="evenodd" clip-rule="evenodd" d="M60.5001 77.7182C55.2904 80.6955 51 78.3139 51 72.3593C51 66.4046 55.2904 59.2591 60.5001 56.2818C65.7097 53.3045 70 55.6863 70 61.6409C70 67.5955 65.7097 74.7409 60.5001 77.7182Z" fill="#E74C3C"/>
<path fill-rule="evenodd" clip-rule="evenodd" d="M60.5001 77.7182C55.2904 80.6955 51 78.3139 51 72.3593C51 66.4046 55.2904 59.2591 60.5001 56.2818C65.7097 53.3045 70 55.6863 70 61.6409C70 67.5955 65.7097 74.7409 60.5001 77.7182Z" fill="url(#paint5_linear_1_20409)"/>
<path fill-rule="evenodd" clip-rule="evenodd" d="M13 40.6849L27.6999 49V48.7032L29.5 46.0303L31 43.3577L32.8 40.6849L34.5999 38.309L36.6999 35.9334L38.5 33.2606L40.6 31.1818L42.7 28.806L44.7999 26.7272L46.8999 24.6484L49.3 22.5696L51.4 20.7879L53.7999 19.0061L56.2 17.2241L58.5999 15.7394L61 14.2545L63.4 12.7698L65.5 11.8787L67.9 10.6907L70.3 9.79986L72.4 9.20602L74.8 8.61195L76 8.31515L61.6 0L60.1 0.296808L58 0.890876L55.6 1.48472L53.5 2.37559L51.0999 3.5635L48.7 4.45438L46.2999 5.93933L43.9 7.42427L41.4999 8.90899L39.1 10.6907L37 12.4727L34.5999 14.2545L32.4999 16.3333L30.4 18.412L28 20.4908L26.2 22.8667L24.1 24.9454L22 27.6183L20.1999 29.9939L18.4 32.3697L16.6 35.0426L14.7999 37.7152L13.2999 40.3878L13 40.6849Z" fill="#BF4A3D"/>
<path fill-rule="evenodd" clip-rule="evenodd" d="M13 40.6849L27.6999 49V48.7032L29.5 46.0303L31 43.3577L32.8 40.6849L34.5999 38.309L36.6999 35.9334L38.5 33.2606L40.6 31.1818L42.7 28.806L44.7999 26.7272L46.8999 24.6484L49.3 22.5696L51.4 20.7879L53.7999 19.0061L56.2 17.2241L58.5999 15.7394L61 14.2545L63.4 12.7698L65.5 11.8787L67.9 10.6907L70.3 9.79986L72.4 9.20602L74.8 8.61195L76 8.31515L61.6 0L60.1 0.296808L58 0.890876L55.6 1.48472L53.5 2.37559L51.0999 3.5635L48.7 4.45438L46.2999 5.93933L43.9 7.42427L41.4999 8.90899L39.1 10.6907L37 12.4727L34.5999 14.2545L32.4999 16.3333L30.4 18.412L28 20.4908L26.2 22.8667L24.1 24.9454L22 27.6183L20.1999 29.9939L18.4 32.3697L16.6 35.0426L14.7999 37.7152L13.2999 40.3878L13 40.6849Z" fill="url(#paint6_linear_1_20409)"/>
<path fill-rule="evenodd" clip-rule="evenodd" d="M96 85.3L103.825 82C103.825 82 104.427 82 104.728 82L126.097 94.3001C126.097 94.3001 127 95.5001 127 96.1001C127 96.7001 124.291 97.9001 123.689 98.5001L121.282 100L96 85.6001V85.3Z" fill="#E74C3C"/>
<path fill-rule="evenodd" clip-rule="evenodd" d="M96 85.3L103.825 82C103.825 82 104.427 82 104.728 82L126.097 94.3001C126.097 94.3001 127 95.5001 127 96.1001C127 96.7001 124.291 97.9001 123.689 98.5001L121.282 100L96 85.6001V85.3Z" fill="url(#paint7_linear_1_20409)"/>
<path fill-rule="evenodd" clip-rule="evenodd" d="M95.2945 87L96.1779 95.2301C96.1779 95.2301 96.4724 95.8181 96.7669 95.8181L117.677 107.869C117.677 107.869 119.149 108.163 119.738 107.869C120.327 107.281 119.738 104.93 119.738 104.048V101.403L95 87.294L95.2945 87Z" fill="#E74C3C"/>
<path fill-rule="evenodd" clip-rule="evenodd" d="M95.2945 87L96.1779 95.2301C96.1779 95.2301 96.4724 95.8181 96.7669 95.8181L117.677 107.869C117.677 107.869 119.149 108.163 119.738 107.869C120.327 107.281 119.738 104.93 119.738 104.048V101.403L95 87.294L95.2945 87Z" fill="url(#paint8_linear_1_20409)"/>
<path fill-rule="evenodd" clip-rule="evenodd" d="M120.873 102.94L60.6507 68.0197C60.6507 68.0197 59.765 66.836 60.0602 66.2442V65.6522C60.0602 65.6522 61.5363 64.7645 62.1267 65.0604L122.349 99.9803C122.349 99.9803 123.235 101.164 122.94 101.756V102.348C122.94 102.348 121.464 103.236 120.873 102.94Z" fill="#2C3E50"/>
<path fill-rule="evenodd" clip-rule="evenodd" d="M120.873 102.94L60.6507 68.0197C60.6507 68.0197 59.765 66.836 60.0602 66.2442V65.6522C60.0602 65.6522 61.5363 64.7645 62.1267 65.0604L122.349 99.9803C122.349 99.9803 123.235 101.164 122.94 101.756V102.348C122.94 102.348 121.464 103.236 120.873 102.94Z" fill="url(#paint9_linear_1_20409)"/>
<defs>
<linearGradient id="paint0_linear_1_20409" x1="21.0553" y1="60.4545" x2="90.8059" y2="60.9591" gradientUnits="userSpaceOnUse">
<stop stop-color="#9CB2DF"/>
<stop offset="0.09" stop-color="#A9BDE4"/>
<stop offset="0.31" stop-color="#C3D3F0"/>
<stop offset="0.53" stop-color="#D6E3F8"/>
<stop offset="0.76" stop-color="#E2ECFD"/>
<stop offset="1" stop-color="#E6F0FF"/>
</linearGradient>
<linearGradient id="paint1_linear_1_20409" x1="14.9734" y1="68" x2="106.939" y2="68" gradientUnits="userSpaceOnUse">
<stop stop-color="#4AFFC7"/>
<stop offset="1" stop-color="#3BADEA"/>
</linearGradient>
<linearGradient id="paint2_linear_1_20409" x1="41.3122" y1="66.184" x2="98.6623" y2="66.6211" gradientUnits="userSpaceOnUse">
<stop stop-color="#E6F0FF"/>
<stop offset="0.24" stop-color="#E2ECFD"/>
<stop offset="0.47" stop-color="#D6E3F8"/>
<stop offset="0.69" stop-color="#C3D3F0"/>
<stop offset="0.91" stop-color="#A9BDE4"/>
<stop offset="1" stop-color="#9CB2DF"/>
</linearGradient>
<linearGradient id="paint3_linear_1_20409" x1="32.9838" y1="67" x2="88.9626" y2="67" gradientUnits="userSpaceOnUse">
<stop stop-color="#4AFFC7"/>
<stop offset="1" stop-color="#3BADEA"/>
</linearGradient>
<linearGradient id="paint4_linear_1_20409" x1="50.6561" y1="67.592" x2="79.3312" y2="67.8105" gradientUnits="userSpaceOnUse">
<stop stop-color="#9CB2DF"/>
<stop offset="0.09" stop-color="#A9BDE4"/>
<stop offset="0.31" stop-color="#C3D3F0"/>
<stop offset="0.53" stop-color="#D6E3F8"/>
<stop offset="0.76" stop-color="#E2ECFD"/>
<stop offset="1" stop-color="#E6F0FF"/>
</linearGradient>
<linearGradient id="paint5_linear_1_20409" x1="50.9945" y1="67" x2="69.9873" y2="67" gradientUnits="userSpaceOnUse">
<stop stop-color="#4AFFC7"/>
<stop offset="1" stop-color="#3BADEA"/>
</linearGradient>
<linearGradient id="paint6_linear_1_20409" x1="27.7387" y1="24.0835" x2="76.5588" y2="24.7041" gradientUnits="userSpaceOnUse">
<stop stop-color="#9CB2DF"/>
<stop offset="0.09" stop-color="#A9BDE4"/>
<stop offset="0.31" stop-color="#C3D3F0"/>
<stop offset="0.53" stop-color="#D6E3F8"/>
<stop offset="0.76" stop-color="#E2ECFD"/>
<stop offset="1" stop-color="#E6F0FF"/>
</linearGradient>
<linearGradient id="paint7_linear_1_20409" x1="95.991" y1="91" x2="126.979" y2="91" gradientUnits="userSpaceOnUse">
<stop stop-color="#4AFFC7"/>
<stop offset="1" stop-color="#3BADEA"/>
</linearGradient>
<linearGradient id="paint8_linear_1_20409" x1="94.9928" y1="97.5" x2="119.983" y2="97.5" gradientUnits="userSpaceOnUse">
<stop stop-color="#4AFFC7"/>
<stop offset="1" stop-color="#3BADEA"/>
</linearGradient>
<linearGradient id="paint9_linear_1_20409" x1="74.7387" y1="83.677" x2="123.554" y2="84.4771" gradientUnits="userSpaceOnUse">
<stop stop-color="#9CB2DF"/>
<stop offset="0.09" stop-color="#A9BDE4"/>
<stop offset="0.31" stop-color="#C3D3F0"/>
<stop offset="0.53" stop-color="#D6E3F8"/>
<stop offset="0.76" stop-color="#E2ECFD"/>
<stop offset="1" stop-color="#E6F0FF"/>
</linearGradient>
</defs>
</svg>
