<svg width="86" height="102" viewBox="0 0 86 102" fill="none" xmlns="http://www.w3.org/2000/svg">
<path opacity="0.2" fill-rule="evenodd" clip-rule="evenodd" d="M67.626 67.2624C81.0312 74.9225 81.0312 87.6313 67.626 95.2914C54.2208 102.952 32.4591 102.952 19.0539 95.2914C5.6487 87.4572 5.6487 74.9225 19.0539 67.2624C32.4591 59.4282 54.2208 59.4282 67.626 67.2624Z" fill="#E9E9EB"/>
<path opacity="0.2" fill-rule="evenodd" clip-rule="evenodd" d="M62.572 70.2262C73.1917 76.3195 73.1917 86.2427 62.572 92.336C51.9523 98.4293 34.8911 98.4293 24.2714 92.336C13.6517 86.2427 13.6517 76.3195 24.2714 70.2262C34.8911 64.1329 51.9523 64.1329 62.572 70.2262Z" fill="#DDDEE1"/>
<path opacity="0.2" fill-rule="evenodd" clip-rule="evenodd" d="M57.352 73.2073C65.1862 77.7338 65.1862 84.8716 57.352 89.398C49.5178 93.9244 36.983 93.9244 29.3229 89.398C21.4887 84.8716 21.4887 77.7338 29.3229 73.2073C37.1571 68.6809 49.6919 68.6809 57.352 73.2073Z" fill="#D1D2D6"/>
<path fill-rule="evenodd" clip-rule="evenodd" d="M68.0437 21.6068L56.2217 14.6953L49.4922 15.9686L61.3143 22.8799L68.0437 21.6068Z" fill="#304559"/>
<path fill-rule="evenodd" clip-rule="evenodd" d="M68.0437 21.6068L56.2217 14.6953L49.4922 15.9686L61.3143 22.8799L68.0437 21.6068Z" fill="url(#paint0_linear_1_20841)"/>
<path fill-rule="evenodd" clip-rule="evenodd" d="M56.5901 6.91145L44.7681 0L38.4023 7.27514L50.4063 14.1865L56.5901 6.91145Z" fill="#2C3E50"/>
<path fill-rule="evenodd" clip-rule="evenodd" d="M56.5901 6.91145L44.7681 0L38.4023 7.27514L50.4063 14.1865L56.5901 6.91145Z" fill="url(#paint1_linear_1_20841)"/>
<path fill-rule="evenodd" clip-rule="evenodd" d="M50.4049 14.1535L38.401 7.24219L34.9453 7.60588L46.7674 14.5173L50.4049 14.1535Z" fill="#304559"/>
<path fill-rule="evenodd" clip-rule="evenodd" d="M50.4049 14.1535L38.401 7.24219L34.9453 7.60588L46.7674 14.5173L50.4049 14.1535Z" fill="url(#paint2_linear_1_20841)"/>
<path fill-rule="evenodd" clip-rule="evenodd" d="M44.578 7.97395L32.756 1.0625L32.3922 1.24442L32.2103 1.42633L31.8466 1.60825L31.6647 1.79003L31.3009 1.97195L30.9372 2.15386L30.7553 2.33578L30.3916 2.51756H30.2097L29.846 2.69947L29.664 2.88139L29.3003 3.06317L28.9366 3.24509L28.7547 3.427L28.3909 3.60892L28.2091 3.7907L27.8453 3.97261L27.6634 4.15453H27.2997L26.9359 4.33631L26.754 4.51822L26.3902 4.70014L26.2084 4.88206L25.8446 5.06384L25.6628 5.24575L25.299 5.42767L25.1171 5.60945L24.7533 5.79136L24.3896 5.97328H24.2077L23.844 6.1552L23.6621 6.33698L35.4841 13.2484L35.8479 13.0665L36.0298 12.8846L36.3936 12.7028L36.7573 12.5209H36.9392L37.303 12.339L37.4848 12.1571L37.8486 11.9753L38.0305 11.7934L38.3942 11.6115L38.5761 11.4297L38.9399 11.2478L39.3036 11.0658L39.4855 10.8839L39.8492 10.7021H40.0311L40.3948 10.5202L40.5768 10.3383L40.9405 10.1564L41.3042 9.97462L41.4861 9.7927L41.8499 9.61078L42.0317 9.42901L42.3955 9.24709L42.5774 9.06517H42.9411L43.3049 8.88326L43.4868 8.70148L43.8506 8.51956L44.0324 8.33764L44.3962 8.15587L44.578 7.97395Z" fill="#34485C"/>
<path fill-rule="evenodd" clip-rule="evenodd" d="M44.578 7.97395L32.756 1.0625L32.3922 1.24442L32.2103 1.42633L31.8466 1.60825L31.6647 1.79003L31.3009 1.97195L30.9372 2.15386L30.7553 2.33578L30.3916 2.51756H30.2097L29.846 2.69947L29.664 2.88139L29.3003 3.06317L28.9366 3.24509L28.7547 3.427L28.3909 3.60892L28.2091 3.7907L27.8453 3.97261L27.6634 4.15453H27.2997L26.9359 4.33631L26.754 4.51822L26.3902 4.70014L26.2084 4.88206L25.8446 5.06384L25.6628 5.24575L25.299 5.42767L25.1171 5.60945L24.7533 5.79136L24.3896 5.97328H24.2077L23.844 6.1552L23.6621 6.33698L35.4841 13.2484L35.8479 13.0665L36.0298 12.8846L36.3936 12.7028L36.7573 12.5209H36.9392L37.303 12.339L37.4848 12.1571L37.8486 11.9753L38.0305 11.7934L38.3942 11.6115L38.5761 11.4297L38.9399 11.2478L39.3036 11.0658L39.4855 10.8839L39.8492 10.7021H40.0311L40.3948 10.5202L40.5768 10.3383L40.9405 10.1564L41.3042 9.97462L41.4861 9.7927L41.8499 9.61078L42.0317 9.42901L42.3955 9.24709L42.5774 9.06517H42.9411L43.3049 8.88326L43.4868 8.70148L43.8506 8.51956L44.0324 8.33764L44.3962 8.15587L44.578 7.97395Z" fill="url(#paint3_linear_1_20841)"/>
<path fill-rule="evenodd" clip-rule="evenodd" d="M35.4948 13.2279L23.6728 6.31641L21.4902 15.4103L33.3123 22.3218L35.4948 13.2279Z" fill="#2C3E50"/>
<path fill-rule="evenodd" clip-rule="evenodd" d="M35.4948 13.2279L23.6728 6.31641L21.4902 15.4103L33.3123 22.3218L35.4948 13.2279Z" fill="url(#paint4_linear_1_20841)"/>
<path fill-rule="evenodd" clip-rule="evenodd" d="M33.2838 22.3411L21.4617 15.4297L17.8242 19.2491L29.8282 26.1606L33.2838 22.3411Z" fill="#304559"/>
<path fill-rule="evenodd" clip-rule="evenodd" d="M33.2838 22.3411L21.4617 15.4297L17.8242 19.2491L29.8282 26.1606L33.2838 22.3411Z" fill="url(#paint5_linear_1_20841)"/>
<path fill-rule="evenodd" clip-rule="evenodd" d="M33.2838 22.3411L21.4617 15.4297L17.8242 19.2491L29.8282 26.1606L33.2838 22.3411Z" fill="url(#paint6_linear_1_20841)"/>
<path fill-rule="evenodd" clip-rule="evenodd" d="M29.8323 26.1284L17.8284 19.2169L11.6445 19.0352L23.4666 25.9465L29.8323 26.1284Z" fill="#3D566E"/>
<path fill-rule="evenodd" clip-rule="evenodd" d="M29.8323 26.1284L17.8284 19.2169L11.6445 19.0352L23.4666 25.9465L29.8323 26.1284Z" fill="url(#paint7_linear_1_20841)"/>
<path fill-rule="evenodd" clip-rule="evenodd" d="M23.4888 25.9465L11.6668 19.0352L11.303 19.3989L11.1211 19.7627L10.9392 20.1264L10.7574 20.4902L10.5755 20.8539L10.3936 21.0358L10.2117 21.3995L10.0299 21.7634L9.84794 22.127L9.66609 22.4907L9.30232 22.8546L9.12048 23.2183L8.93856 23.5821L8.75671 23.9458L8.5748 24.3096L8.39295 24.6733L8.21103 25.0372L8.02918 25.2189L7.84727 25.5828L7.48357 25.9465L7.30166 26.3103L7.11981 26.674L6.93789 27.0377L6.75604 27.4015L6.57413 27.7652L6.39228 28.1291L6.21043 28.4927L6.02852 28.8566L5.84667 29.2203L5.4829 29.4022L5.30099 29.7659L5.11914 30.1297L17.1231 37.041L17.3049 36.6773L17.4868 36.3135L17.6687 35.9498L17.8506 35.586L18.0325 35.4042L18.2144 35.0404L18.5781 34.6767L18.76 34.3128L18.9418 33.9491L19.1237 33.5853L19.3056 33.2216L19.4875 32.8578L19.6694 32.4941L19.8513 32.1304L20.0331 31.7666L20.215 31.4029L20.5787 31.2209L20.7607 30.8572L20.9425 30.4934L21.1244 30.1297L21.3063 29.7659L21.4881 29.4022L21.67 29.0384L21.8519 28.6747L22.0338 28.3108L22.3976 27.9471L22.5794 27.5834L22.7613 27.4015L22.9432 27.0377L23.125 26.674L23.3069 26.3103L23.4888 25.9465Z" fill="#34485C"/>
<path fill-rule="evenodd" clip-rule="evenodd" d="M23.4888 25.9465L11.6668 19.0352L11.303 19.3989L11.1211 19.7627L10.9392 20.1264L10.7574 20.4902L10.5755 20.8539L10.3936 21.0358L10.2117 21.3995L10.0299 21.7634L9.84794 22.127L9.66609 22.4907L9.30232 22.8546L9.12048 23.2183L8.93856 23.5821L8.75671 23.9458L8.5748 24.3096L8.39295 24.6733L8.21103 25.0372L8.02918 25.2189L7.84727 25.5828L7.48357 25.9465L7.30166 26.3103L7.11981 26.674L6.93789 27.0377L6.75604 27.4015L6.57413 27.7652L6.39228 28.1291L6.21043 28.4927L6.02852 28.8566L5.84667 29.2203L5.4829 29.4022L5.30099 29.7659L5.11914 30.1297L17.1231 37.041L17.3049 36.6773L17.4868 36.3135L17.6687 35.9498L17.8506 35.586L18.0325 35.4042L18.2144 35.0404L18.5781 34.6767L18.76 34.3128L18.9418 33.9491L19.1237 33.5853L19.3056 33.2216L19.4875 32.8578L19.6694 32.4941L19.8513 32.1304L20.0331 31.7666L20.215 31.4029L20.5787 31.2209L20.7607 30.8572L20.9425 30.4934L21.1244 30.1297L21.3063 29.7659L21.4881 29.4022L21.67 29.0384L21.8519 28.6747L22.0338 28.3108L22.3976 27.9471L22.5794 27.5834L22.7613 27.4015L22.9432 27.0377L23.125 26.674L23.3069 26.3103L23.4888 25.9465Z" fill="url(#paint8_linear_1_20841)"/>
<path fill-rule="evenodd" clip-rule="evenodd" d="M17.1231 37.1105L5.11914 30.1992L8.39295 35.6555L6.93789 40.5663L18.76 47.4776L20.3969 42.5669L17.1231 37.1105Z" fill="#2C3E50"/>
<path fill-rule="evenodd" clip-rule="evenodd" d="M17.1231 37.1105L5.11914 30.1992L8.39295 35.6555L6.93789 40.5663L18.76 47.4776L20.3969 42.5669L17.1231 37.1105Z" fill="url(#paint9_linear_1_20841)"/>
<path fill-rule="evenodd" clip-rule="evenodd" d="M18.7625 47.4074L6.9404 40.4961L0.210938 46.8618L12.033 53.7731L18.7625 47.4074Z" fill="#34485C"/>
<path fill-rule="evenodd" clip-rule="evenodd" d="M18.7625 47.4074L6.9404 40.4961L0.210938 46.8618L12.033 53.7731L18.7625 47.4074Z" fill="url(#paint10_linear_1_20841)"/>
<path fill-rule="evenodd" clip-rule="evenodd" d="M12.0039 53.798L0 46.8867V57.4357L7.45699 61.6188L5.09256 68.3483L17.0965 75.2596L20.3703 66.1657L18.9152 62.8919L12.1858 59.0725V53.798H12.0039Z" fill="#2C3E50"/>
<path fill-rule="evenodd" clip-rule="evenodd" d="M12.0039 53.798L0 46.8867V57.4357L7.45699 61.6188L5.09256 68.3483L17.0965 75.2596L20.3703 66.1657L18.9152 62.8919L12.1858 59.0725V53.798H12.0039Z" fill="url(#paint11_linear_1_20841)"/>
<path fill-rule="evenodd" clip-rule="evenodd" d="M33.3123 71.4269L21.4902 64.5156L23.6728 71.0632L35.4948 77.9746L33.3123 71.4269Z" fill="#2C3E50"/>
<path fill-rule="evenodd" clip-rule="evenodd" d="M33.3123 71.4269L21.4902 64.5156L23.6728 71.0632L35.4948 77.9746L33.3123 71.4269Z" fill="url(#paint12_linear_1_20841)"/>
<path fill-rule="evenodd" clip-rule="evenodd" d="M36.0235 49.9629L24.0195 43.0516L24.3833 43.2335H24.5651L24.747 43.4152H24.9289H25.2927H25.4745H25.6564H26.0201H26.202H26.5658L26.7477 43.2335H27.1114L27.2933 43.0516H27.657L27.839 42.8696L28.2027 42.6877L28.3846 42.5059L28.7483 42.324L28.9302 42.1421L29.2939 41.9602L29.4759 41.7784L29.8396 41.4146L30.0215 41.2328L30.3852 40.869L30.5671 40.6871L30.749 40.3234L31.1128 40.1414L31.2946 39.7777L31.4765 39.4139L31.8403 39.0502L32.0221 38.6865L32.204 38.3227L32.3859 37.959L32.5677 37.5952L32.7497 37.2315L32.9315 36.8676L33.1134 36.5039L33.2953 36.1401V35.7764L33.4772 35.4127L33.659 35.0489V34.6852L33.8409 34.3214V34.1396V33.7757V33.412V33.0482V32.6845V32.3207V32.1389V31.7751V31.5932V31.2295L33.659 31.0475V30.6838L33.4772 30.5019L33.2953 30.1382V29.9563L33.1134 29.7744L32.9315 29.5926L32.7497 29.4107L32.5677 29.2288L32.3859 29.0469H32.204L44.2079 35.9583H44.3898L44.5717 36.1401L44.7536 36.322L44.9354 36.5039L45.1174 36.6859V36.8676L45.2992 37.0495L45.4811 37.4132V37.5952L45.663 37.7771V38.1408V38.3227L45.8448 38.6865V39.0502V39.2321V39.5958V39.9597V40.3234V40.6871L45.663 40.869V41.2328V41.5965L45.4811 41.9602V42.324L45.2992 42.6877L45.1174 43.0516V43.4152L44.9354 43.7791L44.7536 44.1428L44.5717 44.5066L44.3898 44.8703L44.2079 45.234L44.0261 45.5978L43.6623 45.9615L43.4805 46.3254L43.2985 46.6891L42.9348 47.0529L42.7529 47.2347L42.5711 47.5985L42.2073 47.7804L42.0254 48.1441L41.6616 48.326L41.4798 48.5078L41.116 48.8716L40.9342 49.0536L40.5704 49.2353L40.3885 49.4173L40.0247 49.5992L39.8429 49.7809H39.4791L39.2973 49.9629L38.9335 50.1448H38.7516L38.3878 50.3267H38.206H37.8422H37.6604H37.4785H37.1147H36.9328H36.7509L36.3872 50.1448H36.2053L36.0235 49.9629Z" fill="#2C3E50"/>
<path fill-rule="evenodd" clip-rule="evenodd" d="M36.0235 49.9629L24.0195 43.0516L24.3833 43.2335H24.5651L24.747 43.4152H24.9289H25.2927H25.4745H25.6564H26.0201H26.202H26.5658L26.7477 43.2335H27.1114L27.2933 43.0516H27.657L27.839 42.8696L28.2027 42.6877L28.3846 42.5059L28.7483 42.324L28.9302 42.1421L29.2939 41.9602L29.4759 41.7784L29.8396 41.4146L30.0215 41.2328L30.3852 40.869L30.5671 40.6871L30.749 40.3234L31.1128 40.1414L31.2946 39.7777L31.4765 39.4139L31.8403 39.0502L32.0221 38.6865L32.204 38.3227L32.3859 37.959L32.5677 37.5952L32.7497 37.2315L32.9315 36.8676L33.1134 36.5039L33.2953 36.1401V35.7764L33.4772 35.4127L33.659 35.0489V34.6852L33.8409 34.3214V34.1396V33.7757V33.412V33.0482V32.6845V32.3207V32.1389V31.7751V31.5932V31.2295L33.659 31.0475V30.6838L33.4772 30.5019L33.2953 30.1382V29.9563L33.1134 29.7744L32.9315 29.5926L32.7497 29.4107L32.5677 29.2288L32.3859 29.0469H32.204L44.2079 35.9583H44.3898L44.5717 36.1401L44.7536 36.322L44.9354 36.5039L45.1174 36.6859V36.8676L45.2992 37.0495L45.4811 37.4132V37.5952L45.663 37.7771V38.1408V38.3227L45.8448 38.6865V39.0502V39.2321V39.5958V39.9597V40.3234V40.6871L45.663 40.869V41.2328V41.5965L45.4811 41.9602V42.324L45.2992 42.6877L45.1174 43.0516V43.4152L44.9354 43.7791L44.7536 44.1428L44.5717 44.5066L44.3898 44.8703L44.2079 45.234L44.0261 45.5978L43.6623 45.9615L43.4805 46.3254L43.2985 46.6891L42.9348 47.0529L42.7529 47.2347L42.5711 47.5985L42.2073 47.7804L42.0254 48.1441L41.6616 48.326L41.4798 48.5078L41.116 48.8716L40.9342 49.0536L40.5704 49.2353L40.3885 49.4173L40.0247 49.5992L39.8429 49.7809H39.4791L39.2973 49.9629L38.9335 50.1448H38.7516L38.3878 50.3267H38.206H37.8422H37.6604H37.4785H37.1147H36.9328H36.7509L36.3872 50.1448H36.2053L36.0235 49.9629Z" fill="url(#paint13_linear_1_20841)"/>
<path fill-rule="evenodd" clip-rule="evenodd" d="M59.8377 43.4107L61.2928 38.5001L68.0223 32.1344V21.5854L61.2928 23.0405L59.8377 19.7667L63.1116 10.6728C60.929 9.39965 58.7465 8.12642 56.7459 7.03516L50.3801 14.4922L46.7426 14.8559L44.56 8.3083C41.4681 10.1271 38.558 11.764 35.4661 13.5828L33.2836 22.6767L29.646 26.4961H23.2803C21.0978 30.1336 18.9152 33.7712 16.9145 37.5907L20.1884 43.047L18.7334 47.9577L12.0039 54.3234V64.8723L18.7334 63.4173L20.1884 66.6911L16.9145 75.785C19.0971 77.0581 21.2797 78.3314 23.2803 79.4226L29.646 71.9656L33.2836 71.6019L35.4661 78.1495C38.558 76.3307 41.4681 74.6938 44.56 72.875L46.7426 63.7811L50.3801 59.9617H56.7459C58.9284 56.3241 61.1109 52.6866 63.1116 48.8671L59.8377 43.4107ZM44.1962 45.2295C42.0137 49.0489 38.3762 51.2315 36.0118 49.9584C33.8293 48.6852 33.8293 44.5021 36.0118 40.5008C38.1943 36.6813 41.8318 34.4988 44.1962 35.7719C46.5606 37.045 46.3788 41.2282 44.1962 45.2295Z" fill="#3D566E"/>
<path fill-rule="evenodd" clip-rule="evenodd" d="M59.8377 43.4107L61.2928 38.5001L68.0223 32.1344V21.5854L61.2928 23.0405L59.8377 19.7667L63.1116 10.6728C60.929 9.39965 58.7465 8.12642 56.7459 7.03516L50.3801 14.4922L46.7426 14.8559L44.56 8.3083C41.4681 10.1271 38.558 11.764 35.4661 13.5828L33.2836 22.6767L29.646 26.4961H23.2803C21.0978 30.1336 18.9152 33.7712 16.9145 37.5907L20.1884 43.047L18.7334 47.9577L12.0039 54.3234V64.8723L18.7334 63.4173L20.1884 66.6911L16.9145 75.785C19.0971 77.0581 21.2797 78.3314 23.2803 79.4226L29.646 71.9656L33.2836 71.6019L35.4661 78.1495C38.558 76.3307 41.4681 74.6938 44.56 72.875L46.7426 63.7811L50.3801 59.9617H56.7459C58.9284 56.3241 61.1109 52.6866 63.1116 48.8671L59.8377 43.4107ZM44.1962 45.2295C42.0137 49.0489 38.3762 51.2315 36.0118 49.9584C33.8293 48.6852 33.8293 44.5021 36.0118 40.5008C38.1943 36.6813 41.8318 34.4988 44.1962 35.7719C46.5606 37.045 46.3788 41.2282 44.1962 45.2295Z" fill="url(#paint14_linear_1_20841)"/>
<path fill-rule="evenodd" clip-rule="evenodd" d="M20.7612 30.8661L17.1236 37.0498L20.3974 42.5062L18.9424 47.4169L12.2129 53.7826V64.3315L18.9424 62.8765L20.3974 66.1503L17.1236 75.2442C19.3061 76.5173 21.4886 77.7906 23.4893 78.8818L29.8551 71.4248L33.4926 71.0611L35.6752 77.6087C38.7671 75.7899 41.6771 74.153 44.7691 72.3342L46.9516 63.2403L50.5891 59.4209H56.9548L60.5924 53.237L44.7691 44.1431C44.7691 44.1431 44.5872 44.5068 44.4053 44.8706C42.2228 48.69 38.5852 50.8726 36.2208 49.5995C34.0382 48.3263 34.0382 44.1431 36.2208 40.1417C36.2208 39.9599 36.4027 39.778 36.5845 39.4142L20.7612 30.3203V30.8661Z" fill="#3D566E"/>
<path fill-rule="evenodd" clip-rule="evenodd" d="M20.7612 30.8661L17.1236 37.0498L20.3974 42.5062L18.9424 47.4169L12.2129 53.7826V64.3315L18.9424 62.8765L20.3974 66.1503L17.1236 75.2442C19.3061 76.5173 21.4886 77.7906 23.4893 78.8818L29.8551 71.4248L33.4926 71.0611L35.6752 77.6087C38.7671 75.7899 41.6771 74.153 44.7691 72.3342L46.9516 63.2403L50.5891 59.4209H56.9548L60.5924 53.237L44.7691 44.1431C44.7691 44.1431 44.5872 44.5068 44.4053 44.8706C42.2228 48.69 38.5852 50.8726 36.2208 49.5995C34.0382 48.3263 34.0382 44.1431 36.2208 40.1417C36.2208 39.9599 36.4027 39.778 36.5845 39.4142L20.7612 30.3203V30.8661Z" fill="url(#paint15_linear_1_20841)"/>
<path fill-rule="evenodd" clip-rule="evenodd" d="M51.4836 49.3963C57.8494 38.4836 57.8494 26.6616 51.4836 23.024C45.1179 19.3865 34.9328 25.2064 28.7489 36.1191C22.3832 47.0318 22.3832 58.8539 28.7489 62.4915C35.1146 66.1291 45.2998 60.3089 51.4836 49.3963ZM44.2085 45.213C42.026 49.0325 38.3885 51.215 36.024 49.9419C33.8415 48.6687 33.8415 44.4856 36.024 40.4843C38.2066 36.6649 41.8441 34.4823 44.2085 35.7554C46.5729 37.0286 46.391 41.2117 44.2085 45.213Z" fill="#FFCB05"/>
<path fill-rule="evenodd" clip-rule="evenodd" d="M51.4836 49.3963C57.8494 38.4836 57.8494 26.6616 51.4836 23.024C45.1179 19.3865 34.9328 25.2064 28.7489 36.1191C22.3832 47.0318 22.3832 58.8539 28.7489 62.4915C35.1146 66.1291 45.2998 60.3089 51.4836 49.3963ZM44.2085 45.213C42.026 49.0325 38.3885 51.215 36.024 49.9419C33.8415 48.6687 33.8415 44.4856 36.024 40.4843C38.2066 36.6649 41.8441 34.4823 44.2085 35.7554C46.5729 37.0286 46.391 41.2117 44.2085 45.213Z" fill="url(#paint16_linear_1_20841)"/>
<path fill-rule="evenodd" clip-rule="evenodd" d="M31.4724 38.0035C36.2012 29.819 44.0219 25.272 48.7507 28.0002C53.4796 30.7283 53.4796 39.6403 48.7507 48.0067C44.0219 56.1912 36.2012 60.7382 31.4724 58.01C26.7436 55.2819 26.7436 46.3699 31.4724 38.0035ZM44.2038 45.2785C46.3863 41.4591 46.3863 37.0941 44.2038 35.8209C42.0213 34.5478 38.3838 36.5485 36.0193 40.5498C33.8368 44.3692 33.8368 48.7342 36.0193 50.0074C38.2019 51.2805 41.8394 49.2798 44.2038 45.2785Z" fill="#3D566E"/>
<path fill-rule="evenodd" clip-rule="evenodd" d="M31.4724 38.0035C36.2012 29.819 44.0219 25.272 48.7507 28.0002C53.4796 30.7283 53.4796 39.6403 48.7507 48.0067C44.0219 56.1912 36.2012 60.7382 31.4724 58.01C26.7436 55.2819 26.7436 46.3699 31.4724 38.0035ZM44.2038 45.2785C46.3863 41.4591 46.3863 37.0941 44.2038 35.8209C42.0213 34.5478 38.3838 36.5485 36.0193 40.5498C33.8368 44.3692 33.8368 48.7342 36.0193 50.0074C38.2019 51.2805 41.8394 49.2798 44.2038 45.2785Z" fill="url(#paint17_linear_1_20841)"/>
<path fill-rule="evenodd" clip-rule="evenodd" d="M70.1313 37.9249L73.0186 36.2887H73.3073L73.5961 36.0963H73.8848L74.1735 36H74.4622H74.751H75.0397H75.4247H75.8096L76.1946 36.1925H76.5796L76.9646 36.4812L77.3495 36.6737L77.7345 36.8662L78.1195 37.0587L78.5044 37.2511L78.8894 37.5399L79.2744 37.8286L79.6594 38.1174L80.0443 38.4061L80.4293 38.6948L80.8143 39.0798L81.1993 39.4647L81.488 39.8497L81.7767 40.2347L82.0654 40.6197L82.3542 41.0047L82.6429 41.3896L82.9316 41.7746L83.2203 42.2558L83.5091 42.737L83.7978 43.2182L83.9903 43.6995L84.1828 44.1806L84.3753 44.6619L84.5677 45.1431L84.7602 45.6243L84.9527 46.1055L85.1452 46.5867V47.0679L85.4339 47.5492V48.0303L85.6264 48.5116V48.9928L85.7227 49.474V49.9552V50.4364V50.9177V51.3026V51.6875L85.6264 52.0725V52.4575L85.4339 52.8425V53.2275L85.1452 53.5162L84.9527 53.8049L84.7602 54.0936L84.5677 54.3824L84.3753 54.5749L84.1828 54.7674L83.9903 54.9598L83.7978 55.1523L82.7391 55.7298L80.9105 56.7885L70.2276 38.2136L70.1313 37.9249Z" fill="#415A73"/>
<path fill-rule="evenodd" clip-rule="evenodd" d="M70.1313 37.9249L73.0186 36.2887H73.3073L73.5961 36.0963H73.8848L74.1735 36H74.4622H74.751H75.0397H75.4247H75.8096L76.1946 36.1925H76.5796L76.9646 36.4812L77.3495 36.6737L77.7345 36.8662L78.1195 37.0587L78.5044 37.2511L78.8894 37.5399L79.2744 37.8286L79.6594 38.1174L80.0443 38.4061L80.4293 38.6948L80.8143 39.0798L81.1993 39.4647L81.488 39.8497L81.7767 40.2347L82.0654 40.6197L82.3542 41.0047L82.6429 41.3896L82.9316 41.7746L83.2203 42.2558L83.5091 42.737L83.7978 43.2182L83.9903 43.6995L84.1828 44.1806L84.3753 44.6619L84.5677 45.1431L84.7602 45.6243L84.9527 46.1055L85.1452 46.5867V47.0679L85.4339 47.5492V48.0303L85.6264 48.5116V48.9928L85.7227 49.474V49.9552V50.4364V50.9177V51.3026V51.6875L85.6264 52.0725V52.4575L85.4339 52.8425V53.2275L85.1452 53.5162L84.9527 53.8049L84.7602 54.0936L84.5677 54.3824L84.3753 54.5749L84.1828 54.7674L83.9903 54.9598L83.7978 55.1523L82.7391 55.7298L80.9105 56.7885L70.2276 38.2136L70.1313 37.9249Z" fill="url(#paint18_linear_1_20841)"/>
<path fill-rule="evenodd" clip-rule="evenodd" d="M70.1313 37.9249L73.0186 36.2887H73.3073L73.5961 36.0963H73.8848L74.1735 36H74.4622H74.751H75.0397H75.4247H75.8096L76.1946 36.1925H76.5796L76.9646 36.4812L77.3495 36.6737L77.7345 36.8662L78.1195 37.0587L78.5044 37.2511L78.8894 37.5399L79.2744 37.8286L79.6594 38.1174L80.0443 38.4061L80.4293 38.6948L80.8143 39.0798L81.1993 39.4647L81.488 39.8497L81.7767 40.2347L82.0654 40.6197L82.3542 41.0047L82.6429 41.3896L82.9316 41.7746L83.2203 42.2558L83.5091 42.737L83.7978 43.2182L83.9903 43.6995L84.1828 44.1806L84.3753 44.6619L84.5677 45.1431L84.7602 45.6243L84.9527 46.1055L85.1452 46.5867V47.0679L85.4339 47.5492V48.0303L85.6264 48.5116V48.9928L85.7227 49.474V49.9552V50.4364V50.9177V51.3026V51.6875L85.6264 52.0725V52.4575L85.4339 52.8425V53.2275L85.1452 53.5162L84.9527 53.8049L84.7602 54.0936L84.5677 54.3824L84.3753 54.5749L84.1828 54.7674L83.9903 54.9598L83.7978 55.1523L82.7391 55.7298L80.9105 56.7885L70.2276 38.2136L70.1313 37.9249Z" fill="url(#paint19_linear_1_20841)"/>
<path fill-rule="evenodd" clip-rule="evenodd" d="M75.2406 56.1106C71.0059 53.7046 67.6374 47.8337 67.6374 43.0216C67.6374 38.2095 71.0059 36.1884 75.2406 38.5944C79.379 41.0005 82.8438 46.8713 82.8438 51.6834C82.8438 56.4955 79.4753 58.5167 75.2406 56.0144V56.1106Z" fill="#2C3E50"/>
<path fill-rule="evenodd" clip-rule="evenodd" d="M75.2406 56.1106C71.0059 53.7046 67.6374 47.8337 67.6374 43.0216C67.6374 38.2095 71.0059 36.1884 75.2406 38.5944C79.379 41.0005 82.8438 46.8713 82.8438 51.6834C82.8438 56.4955 79.4753 58.5167 75.2406 56.0144V56.1106Z" fill="url(#paint20_linear_1_20841)"/>
<path fill-rule="evenodd" clip-rule="evenodd" d="M75.2406 56.1106C71.0059 53.7046 67.6374 47.8337 67.6374 43.0216C67.6374 38.2095 71.0059 36.1884 75.2406 38.5944C79.379 41.0005 82.8438 46.8713 82.8438 51.6834C82.8438 56.4955 79.4753 58.5167 75.2406 56.0144V56.1106Z" fill="url(#paint21_linear_1_20841)"/>
<path fill-rule="evenodd" clip-rule="evenodd" d="M70.8134 40.9848L71.872 40.4073H72.0645L72.257 40.2148H72.4495H72.642H72.8344H73.0269H73.3156H73.6044H73.8931L74.1818 40.3111H74.4706L74.7593 40.5036H75.048L75.3368 40.7923L75.6255 40.9848L75.9142 41.1773L76.2029 41.3697L76.4917 41.5622L76.7804 41.7547L77.0691 41.9472L77.3578 42.1397L77.6466 42.4284L77.9353 42.7172L78.224 43.0059L78.4165 43.2946L78.609 43.5833L78.8015 43.872L78.994 44.1608L79.1865 44.4495L79.379 44.7383L79.5714 45.027L79.7639 45.3157L79.9564 45.6044L80.1489 45.8931L80.3414 46.1818V46.5668L80.6301 46.9518V47.3368L80.8226 47.7218V48.1067L81.0151 48.4917V48.8767L81.1113 49.2616V49.6466V50.0316V50.3203V50.6091V50.8978V51.1865V51.4752V51.7639V52.0527L81.0151 52.3415V52.6302L80.8226 52.8226V53.0152L80.6301 53.2076V53.4001L80.3414 53.5926L80.1489 53.785H79.9564L79.7639 54.0738L78.994 54.555L78.7053 54.7475C77.7428 55.4212 76.9729 55.8061 74.6631 54.4587C72.3532 53.1113 69.1772 47.7218 69.1772 45.027C69.1772 42.3322 69.8509 41.8509 71.0058 41.3697L70.8134 40.9848Z" fill="#E6EAEB"/>
<path fill-rule="evenodd" clip-rule="evenodd" d="M70.8134 40.9848L71.872 40.4073H72.0645L72.257 40.2148H72.4495H72.642H72.8344H73.0269H73.3156H73.6044H73.8931L74.1818 40.3111H74.4706L74.7593 40.5036H75.048L75.3368 40.7923L75.6255 40.9848L75.9142 41.1773L76.2029 41.3697L76.4917 41.5622L76.7804 41.7547L77.0691 41.9472L77.3578 42.1397L77.6466 42.4284L77.9353 42.7172L78.224 43.0059L78.4165 43.2946L78.609 43.5833L78.8015 43.872L78.994 44.1608L79.1865 44.4495L79.379 44.7383L79.5714 45.027L79.7639 45.3157L79.9564 45.6044L80.1489 45.8931L80.3414 46.1818V46.5668L80.6301 46.9518V47.3368L80.8226 47.7218V48.1067L81.0151 48.4917V48.8767L81.1113 49.2616V49.6466V50.0316V50.3203V50.6091V50.8978V51.1865V51.4752V51.7639V52.0527L81.0151 52.3415V52.6302L80.8226 52.8226V53.0152L80.6301 53.2076V53.4001L80.3414 53.5926L80.1489 53.785H79.9564L79.7639 54.0738L78.994 54.555L78.7053 54.7475C77.7428 55.4212 76.9729 55.8061 74.6631 54.4587C72.3532 53.1113 69.1772 47.7218 69.1772 45.027C69.1772 42.3322 69.8509 41.8509 71.0058 41.3697L70.8134 40.9848Z" fill="url(#paint22_linear_1_20841)"/>
<path fill-rule="evenodd" clip-rule="evenodd" d="M74.4673 54.0762C71.4838 52.3438 68.9815 48.1092 68.9815 44.6445C68.9815 41.1797 71.3875 39.7361 74.4673 41.4684C77.4508 43.2008 79.9531 47.4355 79.9531 50.9003C79.9531 54.365 77.5471 55.8086 74.4673 54.0762Z" fill="#BDBDBD"/>
<path fill-rule="evenodd" clip-rule="evenodd" d="M74.4673 54.0762C71.4838 52.3438 68.9815 48.1092 68.9815 44.6445C68.9815 41.1797 71.3875 39.7361 74.4673 41.4684C77.4508 43.2008 79.9531 47.4355 79.9531 50.9003C79.9531 54.365 77.5471 55.8086 74.4673 54.0762Z" fill="url(#paint23_linear_1_20841)"/>
<path fill-rule="evenodd" clip-rule="evenodd" d="M67.0556 69.1943L71.7715 65.4408L77.7385 54.0841H77.931L78.1235 53.7954V53.603L78.4122 53.4105V53.218L78.6047 53.0255V52.833L78.7972 52.6406V52.448L78.9897 52.1593V51.8706L79.0859 51.5819V51.2932V51.0044V50.7157V50.4269V50.1382V49.8495V49.5608L78.9897 49.272V48.9833L78.7972 48.6946V48.4059L78.6047 48.1171V47.8284L78.4122 47.5397V47.2509L78.1235 46.9622L77.931 46.6735L77.7385 46.3848L77.5461 46.0961L77.3536 45.8073L77.1611 45.5185L76.9686 45.2298L76.7761 44.9411L76.5836 44.6524L76.3912 44.3637C72.6377 40.0328 64.3608 41.4764 59.6449 43.0163C58.8749 43.305 58.2975 43.7862 57.9125 44.5561L56.8539 46.9622C56.5651 47.5397 56.4689 48.1171 56.6614 48.7908L57.6238 52.9293L52.6192 64.3822L57.9125 67.3657C57.9125 67.3657 59.0674 69.1943 60.5111 68.8094C60.7036 69.0981 60.5111 69.7718 62.1472 69.7718C62.1472 70.0605 62.4359 70.3492 63.2059 70.3492L66.5744 69.868C66.5744 69.868 66.9593 69.7717 67.1518 69.5792L67.0556 69.1943Z" fill="#F9E3CF"/>
<path fill-rule="evenodd" clip-rule="evenodd" d="M67.0556 69.1943L71.7715 65.4408L77.7385 54.0841H77.931L78.1235 53.7954V53.603L78.4122 53.4105V53.218L78.6047 53.0255V52.833L78.7972 52.6406V52.448L78.9897 52.1593V51.8706L79.0859 51.5819V51.2932V51.0044V50.7157V50.4269V50.1382V49.8495V49.5608L78.9897 49.272V48.9833L78.7972 48.6946V48.4059L78.6047 48.1171V47.8284L78.4122 47.5397V47.2509L78.1235 46.9622L77.931 46.6735L77.7385 46.3848L77.5461 46.0961L77.3536 45.8073L77.1611 45.5185L76.9686 45.2298L76.7761 44.9411L76.5836 44.6524L76.3912 44.3637C72.6377 40.0328 64.3608 41.4764 59.6449 43.0163C58.8749 43.305 58.2975 43.7862 57.9125 44.5561L56.8539 46.9622C56.5651 47.5397 56.4689 48.1171 56.6614 48.7908L57.6238 52.9293L52.6192 64.3822L57.9125 67.3657C57.9125 67.3657 59.0674 69.1943 60.5111 68.8094C60.7036 69.0981 60.5111 69.7718 62.1472 69.7718C62.1472 70.0605 62.4359 70.3492 63.2059 70.3492L66.5744 69.868C66.5744 69.868 66.9593 69.7717 67.1518 69.5792L67.0556 69.1943Z" fill="url(#paint24_linear_1_20841)"/>
<g filter="url(#filter0_d_1_20841)">
<path fill-rule="evenodd" clip-rule="evenodd" d="M53.4006 64.3662L56.3842 62.0563L58.694 58.4954L60.7151 56.4742C61.6775 55.5118 62.1587 54.3569 62.255 53.0095V50.5072L66.6821 50.1222L68.4145 52.1433C68.8957 52.7208 69.5694 53.0095 70.2431 52.817L71.8792 52.3358C71.8792 52.3358 72.168 52.1433 72.168 52.047C72.168 51.8545 72.168 51.7584 72.168 51.5659L68.7995 46.2725C68.7995 46.2725 68.222 45.5988 67.7408 45.5025L60.5226 44.3477C60.5226 44.3477 60.2339 44.3476 60.1376 44.5401L55.8067 48.3898C52.0532 51.7583 53.7856 51.6621 50.0321 52.5283C48.8772 52.817 48.2998 53.1057 46.5674 53.7794C43.9688 58.9765 47.9148 62.8262 51.7645 64.0774C51.7645 64.0774 53.1119 64.6549 53.4969 64.4624L53.4006 64.3662Z" fill="#C2AC78"/>
<path fill-rule="evenodd" clip-rule="evenodd" d="M53.4006 64.3662L56.3842 62.0563L58.694 58.4954L60.7151 56.4742C61.6775 55.5118 62.1587 54.3569 62.255 53.0095V50.5072L66.6821 50.1222L68.4145 52.1433C68.8957 52.7208 69.5694 53.0095 70.2431 52.817L71.8792 52.3358C71.8792 52.3358 72.168 52.1433 72.168 52.047C72.168 51.8545 72.168 51.7584 72.168 51.5659L68.7995 46.2725C68.7995 46.2725 68.222 45.5988 67.7408 45.5025L60.5226 44.3477C60.5226 44.3477 60.2339 44.3476 60.1376 44.5401L55.8067 48.3898C52.0532 51.7583 53.7856 51.6621 50.0321 52.5283C48.8772 52.817 48.2998 53.1057 46.5674 53.7794C43.9688 58.9765 47.9148 62.8262 51.7645 64.0774C51.7645 64.0774 53.1119 64.6549 53.4969 64.4624L53.4006 64.3662Z" fill="url(#paint25_linear_1_20841)"/>
</g>
<path fill-rule="evenodd" clip-rule="evenodd" d="M60.4246 68.3403C61.8683 68.3403 63.3119 67.9554 64.563 66.8967C65.8142 65.9343 68.3165 63.432 68.0278 63.1432C67.9315 63.047 65.5255 65.6455 64.2743 66.608C63.1194 67.5704 61.5795 67.9554 60.4246 68.3403Z" fill="#C2AC78"/>
<path fill-rule="evenodd" clip-rule="evenodd" d="M60.4246 68.3403C61.8683 68.3403 63.3119 67.9554 64.563 66.8967C65.8142 65.9343 68.3165 63.432 68.0278 63.1432C67.9315 63.047 65.5255 65.6455 64.2743 66.608C63.1194 67.5704 61.5795 67.9554 60.4246 68.3403Z" fill="url(#paint26_linear_1_20841)"/>
<path fill-rule="evenodd" clip-rule="evenodd" d="M57.8253 66.9641C59.1727 66.9641 60.5201 66.9641 61.7713 65.9054C63.0224 64.8468 66.5834 61.767 66.3909 61.5746C66.1984 61.3821 62.5412 64.6543 61.4825 65.713C60.4239 66.6754 58.884 66.7717 57.8253 67.0604V66.9641Z" fill="#C2AC78"/>
<path fill-rule="evenodd" clip-rule="evenodd" d="M57.8253 66.9641C59.1727 66.9641 60.5201 66.9641 61.7713 65.9054C63.0224 64.8468 66.5834 61.767 66.3909 61.5746C66.1984 61.3821 62.5412 64.6543 61.4825 65.713C60.4239 66.6754 58.884 66.7717 57.8253 67.0604V66.9641Z" fill="url(#paint27_linear_1_20841)"/>
<path fill-rule="evenodd" clip-rule="evenodd" d="M54.5523 65.3533C56.2847 65.1608 58.2095 64.872 59.6532 63.7171C61.0968 62.466 63.9841 59.9637 63.7916 59.7712C63.5991 59.5787 60.4231 62.3697 59.172 63.5247C57.9208 64.6796 55.8997 64.9683 54.4561 65.4495L54.5523 65.3533Z" fill="#C2AC78"/>
<path fill-rule="evenodd" clip-rule="evenodd" d="M54.5523 65.3533C56.2847 65.1608 58.2095 64.872 59.6532 63.7171C61.0968 62.466 63.9841 59.9637 63.7916 59.7712C63.5991 59.5787 60.4231 62.3697 59.172 63.5247C57.9208 64.6796 55.8997 64.9683 54.4561 65.4495L54.5523 65.3533Z" fill="url(#paint28_linear_1_20841)"/>
<path fill-rule="evenodd" clip-rule="evenodd" d="M62.0625 69.288C63.4099 69.1918 65.2385 68.9031 66.2972 67.9406C67.3558 66.9782 69.4732 65.1496 69.2807 64.9571C69.0882 64.7646 66.9709 66.9782 66.0084 67.7482C65.046 68.4219 63.1211 69.0955 62.1587 69.288H62.0625Z" fill="#C2AC78"/>
<path fill-rule="evenodd" clip-rule="evenodd" d="M62.0625 69.288C63.4099 69.1918 65.2385 68.9031 66.2972 67.9406C67.3558 66.9782 69.4732 65.1496 69.2807 64.9571C69.0882 64.7646 66.9709 66.9782 66.0084 67.7482C65.046 68.4219 63.1211 69.0955 62.1587 69.288H62.0625Z" fill="url(#paint29_linear_1_20841)"/>
<path fill-rule="evenodd" clip-rule="evenodd" d="M42.5161 52.7334L45.4034 51.0973H45.6921L45.9808 50.9049H46.2696L46.5583 50.8086H46.847H47.1357H47.4245H47.8094H48.1944L48.5794 51.001H48.9644L49.3493 51.2898L49.7343 51.4823L50.1193 51.6747L50.5043 51.8673L50.8892 52.0597L51.2742 52.3485L51.6592 52.6372L52.0441 52.9259L52.4291 53.2147L52.8141 53.5034L53.1991 53.8884L53.584 54.2733L53.8728 54.6583L54.1615 55.0433L54.4502 55.4283L54.7389 55.8132L55.0277 56.1982L55.3164 56.5831L55.6051 57.0644L55.8938 57.5456L56.1826 58.0268L56.3751 58.508L56.5675 58.9892L56.76 59.4705L56.9525 59.9516L57.145 60.4329L57.3375 60.9141L57.53 61.3953V61.8765L57.8187 62.3577V62.8389L58.0112 63.3202V63.8014L58.1074 64.2826V64.7638V65.245V65.7263V66.1112V66.4961L58.0112 66.8811V67.2661L57.8187 67.6511V68.0361L57.53 68.3248L57.3375 68.6135L57.145 68.9022L56.9525 69.191L56.76 69.3835L56.5675 69.5759L56.3751 69.7684L56.1826 69.9609L55.1239 70.5384L53.2953 71.5971L42.6123 53.0222L42.5161 52.7334Z" fill="#415A73"/>
<path fill-rule="evenodd" clip-rule="evenodd" d="M42.5161 52.7334L45.4034 51.0973H45.6921L45.9808 50.9049H46.2696L46.5583 50.8086H46.847H47.1357H47.4245H47.8094H48.1944L48.5794 51.001H48.9644L49.3493 51.2898L49.7343 51.4823L50.1193 51.6747L50.5043 51.8673L50.8892 52.0597L51.2742 52.3485L51.6592 52.6372L52.0441 52.9259L52.4291 53.2147L52.8141 53.5034L53.1991 53.8884L53.584 54.2733L53.8728 54.6583L54.1615 55.0433L54.4502 55.4283L54.7389 55.8132L55.0277 56.1982L55.3164 56.5831L55.6051 57.0644L55.8938 57.5456L56.1826 58.0268L56.3751 58.508L56.5675 58.9892L56.76 59.4705L56.9525 59.9516L57.145 60.4329L57.3375 60.9141L57.53 61.3953V61.8765L57.8187 62.3577V62.8389L58.0112 63.3202V63.8014L58.1074 64.2826V64.7638V65.245V65.7263V66.1112V66.4961L58.0112 66.8811V67.2661L57.8187 67.6511V68.0361L57.53 68.3248L57.3375 68.6135L57.145 68.9022L56.9525 69.191L56.76 69.3835L56.5675 69.5759L56.3751 69.7684L56.1826 69.9609L55.1239 70.5384L53.2953 71.5971L42.6123 53.0222L42.5161 52.7334Z" fill="url(#paint30_linear_1_20841)"/>
<path fill-rule="evenodd" clip-rule="evenodd" d="M42.5161 52.7334L45.4034 51.0973H45.6921L45.9808 50.9049H46.2696L46.5583 50.8086H46.847H47.1357H47.4245H47.8094H48.1944L48.5794 51.001H48.9644L49.3493 51.2898L49.7343 51.4823L50.1193 51.6747L50.5043 51.8673L50.8892 52.0597L51.2742 52.3485L51.6592 52.6372L52.0441 52.9259L52.4291 53.2147L52.8141 53.5034L53.1991 53.8884L53.584 54.2733L53.8728 54.6583L54.1615 55.0433L54.4502 55.4283L54.7389 55.8132L55.0277 56.1982L55.3164 56.5831L55.6051 57.0644L55.8938 57.5456L56.1826 58.0268L56.3751 58.508L56.5675 58.9892L56.76 59.4705L56.9525 59.9516L57.145 60.4329L57.3375 60.9141L57.53 61.3953V61.8765L57.8187 62.3577V62.8389L58.0112 63.3202V63.8014L58.1074 64.2826V64.7638V65.245V65.7263V66.1112V66.4961L58.0112 66.8811V67.2661L57.8187 67.6511V68.0361L57.53 68.3248L57.3375 68.6135L57.145 68.9022L56.9525 69.191L56.76 69.3835L56.5675 69.5759L56.3751 69.7684L56.1826 69.9609L55.1239 70.5384L53.2953 71.5971L42.6123 53.0222L42.5161 52.7334Z" fill="url(#paint31_linear_1_20841)"/>
<path fill-rule="evenodd" clip-rule="evenodd" d="M47.6038 70.9238C43.3692 68.5177 40.0007 62.647 40.0007 57.8349C40.0007 53.0227 43.3692 51.0016 47.6038 53.5039C51.8385 55.91 55.207 61.7808 55.207 66.5929C55.207 71.4051 51.8385 73.4261 47.6038 70.9238Z" fill="#2C3E50"/>
<path fill-rule="evenodd" clip-rule="evenodd" d="M47.6038 70.9238C43.3692 68.5177 40.0007 62.647 40.0007 57.8349C40.0007 53.0227 43.3692 51.0016 47.6038 53.5039C51.8385 55.91 55.207 61.7808 55.207 66.5929C55.207 71.4051 51.8385 73.4261 47.6038 70.9238Z" fill="url(#paint32_linear_1_20841)"/>
<path fill-rule="evenodd" clip-rule="evenodd" d="M47.6038 70.9238C43.3692 68.5177 40.0007 62.647 40.0007 57.8349C40.0007 53.0227 43.3692 51.0016 47.6038 53.5039C51.8385 55.91 55.207 61.7808 55.207 66.5929C55.207 71.4051 51.8385 73.4261 47.6038 70.9238Z" fill="url(#paint33_linear_1_20841)"/>
<path fill-rule="evenodd" clip-rule="evenodd" d="M69.8541 66.8632H72.0677C72.0677 66.8632 72.7414 66.6707 72.9339 66.4782L73.3188 66.1895C73.3188 66.1895 73.8001 65.612 73.8001 65.1308V64.2646H73.9925C73.9925 64.2646 74.4738 63.9759 74.6662 63.7834L75.2437 63.0134C75.2437 63.0134 75.5324 62.5323 75.5324 62.2436V61.666H75.8211C76.2061 61.5698 76.3986 61.3773 76.5911 60.9923L76.9761 60.3187C76.9761 60.3187 77.361 59.4525 77.361 58.9713V58.6825C78.2272 58.2976 78.8047 57.4314 78.8047 56.3727V55.699L78.7084 54.2554C78.7084 53.4854 78.3235 53.293 77.746 53.293C77.4573 53.293 77.1686 53.2929 76.8798 53.3892L76.4948 53.5817C76.4948 53.5817 76.0136 53.8704 75.8211 54.1591C75.6287 54.4478 75.5324 54.6404 75.5324 55.0253V55.2178V55.8915L75.1475 56.084L74.6662 56.4689C74.6662 56.4689 74.0888 57.2389 74.0888 57.7201V58.9713C74.0888 58.9713 73.8001 59.1638 73.6076 59.3562L73.1264 59.7412C73.1264 59.7412 72.5489 60.7037 72.5489 61.1849V62.7247C72.5489 62.7247 71.8752 62.9173 71.2977 63.3022C71.009 63.591 70.8165 63.8797 70.7203 64.3609L70.5278 65.7083L70.0466 66.9594L69.8541 66.8632Z" fill="#C2AC78"/>
<path fill-rule="evenodd" clip-rule="evenodd" d="M69.8541 66.8632H72.0677C72.0677 66.8632 72.7414 66.6707 72.9339 66.4782L73.3188 66.1895C73.3188 66.1895 73.8001 65.612 73.8001 65.1308V64.2646H73.9925C73.9925 64.2646 74.4738 63.9759 74.6662 63.7834L75.2437 63.0134C75.2437 63.0134 75.5324 62.5323 75.5324 62.2436V61.666H75.8211C76.2061 61.5698 76.3986 61.3773 76.5911 60.9923L76.9761 60.3187C76.9761 60.3187 77.361 59.4525 77.361 58.9713V58.6825C78.2272 58.2976 78.8047 57.4314 78.8047 56.3727V55.699L78.7084 54.2554C78.7084 53.4854 78.3235 53.293 77.746 53.293C77.4573 53.293 77.1686 53.2929 76.8798 53.3892L76.4948 53.5817C76.4948 53.5817 76.0136 53.8704 75.8211 54.1591C75.6287 54.4478 75.5324 54.6404 75.5324 55.0253V55.2178V55.8915L75.1475 56.084L74.6662 56.4689C74.6662 56.4689 74.0888 57.2389 74.0888 57.7201V58.9713C74.0888 58.9713 73.8001 59.1638 73.6076 59.3562L73.1264 59.7412C73.1264 59.7412 72.5489 60.7037 72.5489 61.1849V62.7247C72.5489 62.7247 71.8752 62.9173 71.2977 63.3022C71.009 63.591 70.8165 63.8797 70.7203 64.3609L70.5278 65.7083L70.0466 66.9594L69.8541 66.8632Z" fill="url(#paint34_linear_1_20841)"/>
<g filter="url(#filter1_d_1_20841)">
<path fill-rule="evenodd" clip-rule="evenodd" d="M78.4077 54.0649L77.4452 54.8349V56.471H77.6377C77.6377 56.471 77.734 56.4711 77.8302 56.3748L78.2152 55.9898C78.2152 55.9898 78.5039 55.7011 78.5039 55.5086V53.9688L78.4077 54.0649Z" fill="#D4BE8C"/>
<path fill-rule="evenodd" clip-rule="evenodd" d="M78.4077 54.0649L77.4452 54.8349V56.471H77.6377C77.6377 56.471 77.734 56.4711 77.8302 56.3748L78.2152 55.9898C78.2152 55.9898 78.5039 55.7011 78.5039 55.5086V53.9688L78.4077 54.0649Z" fill="url(#paint35_linear_1_20841)"/>
<path fill-rule="evenodd" clip-rule="evenodd" d="M78.4077 54.0649L77.4452 54.8349V56.471H77.6377C77.6377 56.471 77.734 56.4711 77.8302 56.3748L78.2152 55.9898C78.2152 55.9898 78.5039 55.7011 78.5039 55.5086V53.9688L78.4077 54.0649Z" fill="url(#paint36_linear_1_20841)"/>
</g>
<g filter="url(#filter2_d_1_20841)">
<path fill-rule="evenodd" clip-rule="evenodd" d="M77.0742 56.5924L75.9193 57.3623V58.806H76.0155C76.0155 58.806 76.4005 58.806 76.593 58.5173H76.6892C76.6892 58.5173 76.8817 58.1322 76.8817 57.9398V56.4961L77.0742 56.5924Z" fill="#D4BE8C"/>
<path fill-rule="evenodd" clip-rule="evenodd" d="M77.0742 56.5924L75.9193 57.3623V58.806H76.0155C76.0155 58.806 76.4005 58.806 76.593 58.5173H76.6892C76.6892 58.5173 76.8817 58.1322 76.8817 57.9398V56.4961L77.0742 56.5924Z" fill="url(#paint37_linear_1_20841)"/>
<path fill-rule="evenodd" clip-rule="evenodd" d="M77.0742 56.5924L75.9193 57.3623V58.806H76.0155C76.0155 58.806 76.4005 58.806 76.593 58.5173H76.6892C76.6892 58.5173 76.8817 58.1322 76.8817 57.9398V56.4961L77.0742 56.5924Z" fill="url(#paint38_linear_1_20841)"/>
</g>
<g filter="url(#filter3_d_1_20841)">
<path fill-rule="evenodd" clip-rule="evenodd" d="M75.1367 59.7525L73.9818 60.6187V61.9661H74.078C74.078 61.9661 74.463 61.9661 74.6555 61.6773H74.7518C74.7518 61.6773 74.9442 61.2924 74.9442 61.0999V59.6562L75.1367 59.7525Z" fill="#D4BE8C"/>
<path fill-rule="evenodd" clip-rule="evenodd" d="M75.1367 59.7525L73.9818 60.6187V61.9661H74.078C74.078 61.9661 74.463 61.9661 74.6555 61.6773H74.7518C74.7518 61.6773 74.9442 61.2924 74.9442 61.0999V59.6562L75.1367 59.7525Z" fill="url(#paint39_linear_1_20841)"/>
<path fill-rule="evenodd" clip-rule="evenodd" d="M75.1367 59.7525L73.9818 60.6187V61.9661H74.078C74.078 61.9661 74.463 61.9661 74.6555 61.6773H74.7518C74.7518 61.6773 74.9442 61.2924 74.9442 61.0999V59.6562L75.1367 59.7525Z" fill="url(#paint40_linear_1_20841)"/>
</g>
<g filter="url(#filter4_d_1_20841)">
<path fill-rule="evenodd" clip-rule="evenodd" d="M73.3145 63.3072L72.1595 64.0771V65.232L72.352 65.3283H72.5445C72.5445 65.3283 72.9295 65.3283 73.122 65.0396C73.122 65.0396 73.3145 64.4621 73.3145 64.2696V63.2109V63.3072Z" fill="#D4BE8C"/>
<path fill-rule="evenodd" clip-rule="evenodd" d="M73.3145 63.3072L72.1595 64.0771V65.232L72.352 65.3283H72.5445C72.5445 65.3283 72.9295 65.3283 73.122 65.0396C73.122 65.0396 73.3145 64.4621 73.3145 64.2696V63.2109V63.3072Z" fill="url(#paint41_linear_1_20841)"/>
<path fill-rule="evenodd" clip-rule="evenodd" d="M73.3145 63.3072L72.1595 64.0771V65.232L72.352 65.3283H72.5445C72.5445 65.3283 72.9295 65.3283 73.122 65.0396C73.122 65.0396 73.3145 64.4621 73.3145 64.2696V63.2109V63.3072Z" fill="url(#paint42_linear_1_20841)"/>
</g>
<path fill-rule="evenodd" clip-rule="evenodd" d="M75.4261 55.8313C75.4261 55.8313 75.8111 55.8313 76.0035 55.8313C76.3885 55.8313 76.8697 56.0238 77.0622 56.3126C77.2547 56.6013 77.3509 58.0449 77.3509 58.4299C77.3509 56.6013 77.7359 55.5426 75.4261 55.6389V55.8313Z" fill="#AB9667"/>
<path fill-rule="evenodd" clip-rule="evenodd" d="M75.4261 55.8313C75.4261 55.8313 75.8111 55.8313 76.0035 55.8313C76.3885 55.8313 76.8697 56.0238 77.0622 56.3126C77.2547 56.6013 77.3509 58.0449 77.3509 58.4299C77.3509 56.6013 77.7359 55.5426 75.4261 55.6389V55.8313Z" fill="url(#paint43_linear_1_20841)"/>
<g filter="url(#filter5_d_1_20841)">
<path fill-rule="evenodd" clip-rule="evenodd" d="M70.817 49.2656H69.9508C69.9508 49.2656 69.8546 49.4582 69.7583 49.4582C69.4696 49.8431 71.1057 51.4793 71.3944 51.8642L72.4531 51.6717C72.0682 50.8055 71.6832 50.0356 71.0095 49.3619C71.0095 49.3619 70.9132 49.2656 70.817 49.2656Z" fill="#D4BE8C"/>
<path fill-rule="evenodd" clip-rule="evenodd" d="M70.817 49.2656H69.9508C69.9508 49.2656 69.8546 49.4582 69.7583 49.4582C69.4696 49.8431 71.1057 51.4793 71.3944 51.8642L72.4531 51.6717C72.0682 50.8055 71.6832 50.0356 71.0095 49.3619C71.0095 49.3619 70.9132 49.2656 70.817 49.2656Z" fill="url(#paint44_linear_1_20841)"/>
<path fill-rule="evenodd" clip-rule="evenodd" d="M70.817 49.2656H69.9508C69.9508 49.2656 69.8546 49.4582 69.7583 49.4582C69.4696 49.8431 71.1057 51.4793 71.3944 51.8642L72.4531 51.6717C72.0682 50.8055 71.6832 50.0356 71.0095 49.3619C71.0095 49.3619 70.9132 49.2656 70.817 49.2656Z" fill="url(#paint45_linear_1_20841)"/>
</g>
<path fill-rule="evenodd" clip-rule="evenodd" d="M73.9796 58.8994C74.4609 58.8994 75.1346 59.092 75.327 59.5732C75.5195 59.8619 75.5195 61.113 75.5195 61.498C75.5195 60.1506 75.9045 58.8032 73.8834 58.8994H73.9796Z" fill="#AB9667"/>
<path fill-rule="evenodd" clip-rule="evenodd" d="M73.9796 58.8994C74.4609 58.8994 75.1346 59.092 75.327 59.5732C75.5195 59.8619 75.5195 61.113 75.5195 61.498C75.5195 60.1506 75.9045 58.8032 73.8834 58.8994H73.9796Z" fill="url(#paint46_linear_1_20841)"/>
<path fill-rule="evenodd" clip-rule="evenodd" d="M72.454 62.6369C73.7052 62.6369 73.7052 63.2144 73.8014 64.273C73.8014 63.0219 73.8977 62.5407 72.454 62.6369Z" fill="#AB9667"/>
<path fill-rule="evenodd" clip-rule="evenodd" d="M72.454 62.6369C73.7052 62.6369 73.7052 63.2144 73.8014 64.273C73.8014 63.0219 73.8977 62.5407 72.454 62.6369Z" fill="url(#paint47_linear_1_20841)"/>
<defs>
<filter id="filter0_d_1_20841" x="44.7314" y="44.3477" width="28.4365" height="22.1538" filterUnits="userSpaceOnUse" color-interpolation-filters="sRGB">
<feFlood flood-opacity="0" result="BackgroundImageFix"/>
<feColorMatrix in="SourceAlpha" type="matrix" values="0 0 0 0 0 0 0 0 0 0 0 0 0 0 0 0 0 0 127 0" result="hardAlpha"/>
<feOffset dy="1"/>
<feGaussianBlur stdDeviation="0.5"/>
<feComposite in2="hardAlpha" operator="out"/>
<feColorMatrix type="matrix" values="0 0 0 0 0 0 0 0 0 0 0 0 0 0 0 0 0 0 0.1 0"/>
<feBlend mode="normal" in2="BackgroundImageFix" result="effect1_dropShadow_1_20841"/>
<feBlend mode="normal" in="SourceGraphic" in2="effect1_dropShadow_1_20841" result="shape"/>
</filter>
<filter id="filter1_d_1_20841" x="76.4453" y="53.9688" width="3.05859" height="4.5022" filterUnits="userSpaceOnUse" color-interpolation-filters="sRGB">
<feFlood flood-opacity="0" result="BackgroundImageFix"/>
<feColorMatrix in="SourceAlpha" type="matrix" values="0 0 0 0 0 0 0 0 0 0 0 0 0 0 0 0 0 0 127 0" result="hardAlpha"/>
<feOffset dy="1"/>
<feGaussianBlur stdDeviation="0.5"/>
<feComposite in2="hardAlpha" operator="out"/>
<feColorMatrix type="matrix" values="0 0 0 0 0 0 0 0 0 0 0 0 0 0 0 0 0 0 0.1 0"/>
<feBlend mode="normal" in2="BackgroundImageFix" result="effect1_dropShadow_1_20841"/>
<feBlend mode="normal" in="SourceGraphic" in2="effect1_dropShadow_1_20841" result="shape"/>
</filter>
<filter id="filter2_d_1_20841" x="74.9194" y="56.4961" width="3.15479" height="4.31006" filterUnits="userSpaceOnUse" color-interpolation-filters="sRGB">
<feFlood flood-opacity="0" result="BackgroundImageFix"/>
<feColorMatrix in="SourceAlpha" type="matrix" values="0 0 0 0 0 0 0 0 0 0 0 0 0 0 0 0 0 0 127 0" result="hardAlpha"/>
<feOffset dy="1"/>
<feGaussianBlur stdDeviation="0.5"/>
<feComposite in2="hardAlpha" operator="out"/>
<feColorMatrix type="matrix" values="0 0 0 0 0 0 0 0 0 0 0 0 0 0 0 0 0 0 0.1 0"/>
<feBlend mode="normal" in2="BackgroundImageFix" result="effect1_dropShadow_1_20841"/>
<feBlend mode="normal" in="SourceGraphic" in2="effect1_dropShadow_1_20841" result="shape"/>
</filter>
<filter id="filter3_d_1_20841" x="72.9819" y="59.6562" width="3.15479" height="4.31006" filterUnits="userSpaceOnUse" color-interpolation-filters="sRGB">
<feFlood flood-opacity="0" result="BackgroundImageFix"/>
<feColorMatrix in="SourceAlpha" type="matrix" values="0 0 0 0 0 0 0 0 0 0 0 0 0 0 0 0 0 0 127 0" result="hardAlpha"/>
<feOffset dy="1"/>
<feGaussianBlur stdDeviation="0.5"/>
<feComposite in2="hardAlpha" operator="out"/>
<feColorMatrix type="matrix" values="0 0 0 0 0 0 0 0 0 0 0 0 0 0 0 0 0 0 0.1 0"/>
<feBlend mode="normal" in2="BackgroundImageFix" result="effect1_dropShadow_1_20841"/>
<feBlend mode="normal" in="SourceGraphic" in2="effect1_dropShadow_1_20841" result="shape"/>
</filter>
<filter id="filter4_d_1_20841" x="71.1597" y="63.2109" width="3.15479" height="4.11719" filterUnits="userSpaceOnUse" color-interpolation-filters="sRGB">
<feFlood flood-opacity="0" result="BackgroundImageFix"/>
<feColorMatrix in="SourceAlpha" type="matrix" values="0 0 0 0 0 0 0 0 0 0 0 0 0 0 0 0 0 0 127 0" result="hardAlpha"/>
<feOffset dy="1"/>
<feGaussianBlur stdDeviation="0.5"/>
<feComposite in2="hardAlpha" operator="out"/>
<feColorMatrix type="matrix" values="0 0 0 0 0 0 0 0 0 0 0 0 0 0 0 0 0 0 0.1 0"/>
<feBlend mode="normal" in2="BackgroundImageFix" result="effect1_dropShadow_1_20841"/>
<feBlend mode="normal" in="SourceGraphic" in2="effect1_dropShadow_1_20841" result="shape"/>
</filter>
<filter id="filter5_d_1_20841" x="68.7241" y="49.2656" width="4.729" height="4.59863" filterUnits="userSpaceOnUse" color-interpolation-filters="sRGB">
<feFlood flood-opacity="0" result="BackgroundImageFix"/>
<feColorMatrix in="SourceAlpha" type="matrix" values="0 0 0 0 0 0 0 0 0 0 0 0 0 0 0 0 0 0 127 0" result="hardAlpha"/>
<feOffset dy="1"/>
<feGaussianBlur stdDeviation="0.5"/>
<feComposite in2="hardAlpha" operator="out"/>
<feColorMatrix type="matrix" values="0 0 0 0 0 0 0 0 0 0 0 0 0 0 0 0 0 0 0.1 0"/>
<feBlend mode="normal" in2="BackgroundImageFix" result="effect1_dropShadow_1_20841"/>
<feBlend mode="normal" in="SourceGraphic" in2="effect1_dropShadow_1_20841" result="shape"/>
</filter>
<linearGradient id="paint0_linear_1_20841" x1="49.4868" y1="18.7876" x2="68.0314" y2="18.7876" gradientUnits="userSpaceOnUse">
<stop stop-color="#4AFFC7"/>
<stop offset="1" stop-color="#3BADEA"/>
</linearGradient>
<linearGradient id="paint1_linear_1_20841" x1="38.3971" y1="7.09323" x2="56.578" y2="7.09323" gradientUnits="userSpaceOnUse">
<stop stop-color="#4AFFC7"/>
<stop offset="1" stop-color="#3BADEA"/>
</linearGradient>
<linearGradient id="paint2_linear_1_20841" x1="34.9408" y1="10.8798" x2="50.3946" y2="10.8798" gradientUnits="userSpaceOnUse">
<stop stop-color="#4AFFC7"/>
<stop offset="1" stop-color="#3BADEA"/>
</linearGradient>
<linearGradient id="paint3_linear_1_20841" x1="23.6561" y1="7.15546" x2="44.5641" y2="7.15546" gradientUnits="userSpaceOnUse">
<stop stop-color="#4AFFC7"/>
<stop offset="1" stop-color="#3BADEA"/>
</linearGradient>
<linearGradient id="paint4_linear_1_20841" x1="21.4862" y1="14.3191" x2="35.4855" y2="14.3191" gradientUnits="userSpaceOnUse">
<stop stop-color="#4AFFC7"/>
<stop offset="1" stop-color="#3BADEA"/>
</linearGradient>
<linearGradient id="paint5_linear_1_20841" x1="17.8197" y1="20.7951" x2="33.2735" y2="20.7951" gradientUnits="userSpaceOnUse">
<stop stop-color="#4AFFC7"/>
<stop offset="1" stop-color="#3BADEA"/>
</linearGradient>
<linearGradient id="paint6_linear_1_20841" x1="17.8197" y1="20.7951" x2="33.2735" y2="20.7951" gradientUnits="userSpaceOnUse">
<stop stop-color="#4AFFC7"/>
<stop offset="1" stop-color="#3BADEA"/>
</linearGradient>
<linearGradient id="paint7_linear_1_20841" x1="11.6393" y1="22.5818" x2="29.8202" y2="22.5818" gradientUnits="userSpaceOnUse">
<stop stop-color="#4AFFC7"/>
<stop offset="1" stop-color="#3BADEA"/>
</linearGradient>
<linearGradient id="paint8_linear_1_20841" x1="5.11382" y1="28.0381" x2="23.4765" y2="28.0381" gradientUnits="userSpaceOnUse">
<stop stop-color="#4AFFC7"/>
<stop offset="1" stop-color="#3BADEA"/>
</linearGradient>
<linearGradient id="paint9_linear_1_20841" x1="5.11472" y1="38.8384" x2="20.3867" y2="38.8384" gradientUnits="userSpaceOnUse">
<stop stop-color="#4AFFC7"/>
<stop offset="1" stop-color="#3BADEA"/>
</linearGradient>
<linearGradient id="paint10_linear_1_20841" x1="0.205564" y1="47.1346" x2="18.7501" y2="47.1346" gradientUnits="userSpaceOnUse">
<stop stop-color="#4AFFC7"/>
<stop offset="1" stop-color="#3BADEA"/>
</linearGradient>
<linearGradient id="paint11_linear_1_20841" x1="-0.00589981" y1="61.0732" x2="20.3567" y2="61.0732" gradientUnits="userSpaceOnUse">
<stop stop-color="#4AFFC7"/>
<stop offset="1" stop-color="#3BADEA"/>
</linearGradient>
<linearGradient id="paint12_linear_1_20841" x1="21.4862" y1="71.2451" x2="35.4855" y2="71.2451" gradientUnits="userSpaceOnUse">
<stop stop-color="#4AFFC7"/>
<stop offset="1" stop-color="#3BADEA"/>
</linearGradient>
<linearGradient id="paint13_linear_1_20841" x1="24.0132" y1="39.6868" x2="45.8303" y2="39.6868" gradientUnits="userSpaceOnUse">
<stop stop-color="#4AFFC7"/>
<stop offset="1" stop-color="#3BADEA"/>
</linearGradient>
<linearGradient id="paint14_linear_1_20841" x1="25.1093" y1="42.6136" x2="68.5236" y2="42.9458" gradientUnits="userSpaceOnUse">
<stop stop-color="#E6F0FF"/>
<stop offset="0.24" stop-color="#E2ECFD"/>
<stop offset="0.47" stop-color="#D6E3F8"/>
<stop offset="0.69" stop-color="#C3D3F0"/>
<stop offset="0.91" stop-color="#A9BDE4"/>
<stop offset="1" stop-color="#9CB2DF"/>
</linearGradient>
<linearGradient id="paint15_linear_1_20841" x1="23.5312" y1="54.1883" x2="61.024" y2="54.5576" gradientUnits="userSpaceOnUse">
<stop stop-color="#E6F0FF"/>
<stop offset="0.24" stop-color="#E2ECFD"/>
<stop offset="0.47" stop-color="#D6E3F8"/>
<stop offset="0.69" stop-color="#C3D3F0"/>
<stop offset="0.91" stop-color="#A9BDE4"/>
<stop offset="1" stop-color="#9CB2DF"/>
</linearGradient>
<linearGradient id="paint16_linear_1_20841" x1="31.5272" y1="42.4039" x2="56.5469" y2="42.5957" gradientUnits="userSpaceOnUse">
<stop stop-color="#9CB2DF"/>
<stop offset="0.09" stop-color="#A9BDE4"/>
<stop offset="0.31" stop-color="#C3D3F0"/>
<stop offset="0.53" stop-color="#D6E3F8"/>
<stop offset="0.76" stop-color="#E2ECFD"/>
<stop offset="1" stop-color="#E6F0FF"/>
</linearGradient>
<linearGradient id="paint17_linear_1_20841" x1="33.6275" y1="42.7366" x2="52.5155" y2="42.8806" gradientUnits="userSpaceOnUse">
<stop stop-color="#E6F0FF"/>
<stop offset="0.24" stop-color="#E2ECFD"/>
<stop offset="0.47" stop-color="#D6E3F8"/>
<stop offset="0.69" stop-color="#C3D3F0"/>
<stop offset="0.91" stop-color="#A9BDE4"/>
<stop offset="1" stop-color="#9CB2DF"/>
</linearGradient>
<linearGradient id="paint18_linear_1_20841" x1="82.0751" y1="46.2175" x2="69.9917" y2="46.3071" gradientUnits="userSpaceOnUse">
<stop stop-color="#E6F0FF"/>
<stop offset="0.24" stop-color="#E2ECFD"/>
<stop offset="0.47" stop-color="#D6E3F8"/>
<stop offset="0.69" stop-color="#C3D3F0"/>
<stop offset="0.91" stop-color="#A9BDE4"/>
<stop offset="1" stop-color="#9CB2DF"/>
</linearGradient>
<linearGradient id="paint19_linear_1_20841" x1="85.7272" y1="46.3942" x2="70.1417" y2="46.3942" gradientUnits="userSpaceOnUse">
<stop stop-color="#4AFFC7"/>
<stop offset="1" stop-color="#3BADEA"/>
</linearGradient>
<linearGradient id="paint20_linear_1_20841" x1="79.2863" y1="47.1694" x2="67.5013" y2="47.2602" gradientUnits="userSpaceOnUse">
<stop stop-color="#E6F0FF"/>
<stop offset="0.24" stop-color="#E2ECFD"/>
<stop offset="0.47" stop-color="#D6E3F8"/>
<stop offset="0.69" stop-color="#C3D3F0"/>
<stop offset="0.91" stop-color="#A9BDE4"/>
<stop offset="1" stop-color="#9CB2DF"/>
</linearGradient>
<linearGradient id="paint21_linear_1_20841" x1="82.8482" y1="47.3353" x2="67.6475" y2="47.3353" gradientUnits="userSpaceOnUse">
<stop stop-color="#4AFFC7"/>
<stop offset="1" stop-color="#3BADEA"/>
</linearGradient>
<linearGradient id="paint22_linear_1_20841" x1="81.1148" y1="47.7882" x2="69.1852" y2="47.7882" gradientUnits="userSpaceOnUse">
<stop stop-color="#4AFFC7"/>
<stop offset="1" stop-color="#3BADEA"/>
</linearGradient>
<linearGradient id="paint23_linear_1_20841" x1="79.9563" y1="47.7723" x2="68.9888" y2="47.7723" gradientUnits="userSpaceOnUse">
<stop stop-color="#4AFFC7"/>
<stop offset="1" stop-color="#3BADEA"/>
</linearGradient>
<linearGradient id="paint24_linear_1_20841" x1="72.8941" y1="55.6734" x2="52.3828" y2="55.8594" gradientUnits="userSpaceOnUse">
<stop stop-color="#E6F0FF"/>
<stop offset="0.24" stop-color="#E2ECFD"/>
<stop offset="0.47" stop-color="#D6E3F8"/>
<stop offset="0.69" stop-color="#C3D3F0"/>
<stop offset="0.91" stop-color="#A9BDE4"/>
<stop offset="1" stop-color="#9CB2DF"/>
</linearGradient>
<linearGradient id="paint25_linear_1_20841" x1="65.9832" y1="54.2533" x2="45.4973" y2="54.519" gradientUnits="userSpaceOnUse">
<stop stop-color="#E6F0FF"/>
<stop offset="0.24" stop-color="#E2ECFD"/>
<stop offset="0.47" stop-color="#D6E3F8"/>
<stop offset="0.69" stop-color="#C3D3F0"/>
<stop offset="0.91" stop-color="#A9BDE4"/>
<stop offset="1" stop-color="#9CB2DF"/>
</linearGradient>
<linearGradient id="paint26_linear_1_20841" x1="68.053" y1="65.7405" x2="60.4297" y2="65.7405" gradientUnits="userSpaceOnUse">
<stop stop-color="#4AFFC7"/>
<stop offset="1" stop-color="#3BADEA"/>
</linearGradient>
<linearGradient id="paint27_linear_1_20841" x1="66.4009" y1="64.3134" x2="57.831" y2="64.3134" gradientUnits="userSpaceOnUse">
<stop stop-color="#4AFFC7"/>
<stop offset="1" stop-color="#3BADEA"/>
</linearGradient>
<linearGradient id="paint28_linear_1_20841" x1="63.8035" y1="62.6056" x2="54.4623" y2="62.6056" gradientUnits="userSpaceOnUse">
<stop stop-color="#4AFFC7"/>
<stop offset="1" stop-color="#3BADEA"/>
</linearGradient>
<linearGradient id="paint29_linear_1_20841" x1="69.2951" y1="67.1167" x2="62.0673" y2="67.1167" gradientUnits="userSpaceOnUse">
<stop stop-color="#4AFFC7"/>
<stop offset="1" stop-color="#3BADEA"/>
</linearGradient>
<linearGradient id="paint30_linear_1_20841" x1="54.4599" y1="61.0261" x2="42.3765" y2="61.1157" gradientUnits="userSpaceOnUse">
<stop stop-color="#E6F0FF"/>
<stop offset="0.24" stop-color="#E2ECFD"/>
<stop offset="0.47" stop-color="#D6E3F8"/>
<stop offset="0.69" stop-color="#C3D3F0"/>
<stop offset="0.91" stop-color="#A9BDE4"/>
<stop offset="1" stop-color="#9CB2DF"/>
</linearGradient>
<linearGradient id="paint31_linear_1_20841" x1="58.1119" y1="61.2028" x2="42.5265" y2="61.2028" gradientUnits="userSpaceOnUse">
<stop stop-color="#4AFFC7"/>
<stop offset="1" stop-color="#3BADEA"/>
</linearGradient>
<linearGradient id="paint32_linear_1_20841" x1="51.6495" y1="62.0475" x2="39.8646" y2="62.138" gradientUnits="userSpaceOnUse">
<stop stop-color="#E6F0FF"/>
<stop offset="0.24" stop-color="#E2ECFD"/>
<stop offset="0.47" stop-color="#D6E3F8"/>
<stop offset="0.69" stop-color="#C3D3F0"/>
<stop offset="0.91" stop-color="#A9BDE4"/>
<stop offset="1" stop-color="#9CB2DF"/>
</linearGradient>
<linearGradient id="paint33_linear_1_20841" x1="55.2114" y1="62.2139" x2="40.0108" y2="62.2139" gradientUnits="userSpaceOnUse">
<stop stop-color="#4AFFC7"/>
<stop offset="1" stop-color="#3BADEA"/>
</linearGradient>
<linearGradient id="paint34_linear_1_20841" x1="76.7107" y1="60.01" x2="69.7739" y2="60.055" gradientUnits="userSpaceOnUse">
<stop stop-color="#E6F0FF"/>
<stop offset="0.24" stop-color="#E2ECFD"/>
<stop offset="0.47" stop-color="#D6E3F8"/>
<stop offset="0.69" stop-color="#C3D3F0"/>
<stop offset="0.91" stop-color="#A9BDE4"/>
<stop offset="1" stop-color="#9CB2DF"/>
</linearGradient>
<linearGradient id="paint35_linear_1_20841" x1="78.5042" y1="55.2199" x2="77.4459" y2="55.2199" gradientUnits="userSpaceOnUse">
<stop stop-color="#4AFFC7"/>
<stop offset="1" stop-color="#3BADEA"/>
</linearGradient>
<linearGradient id="paint36_linear_1_20841" x1="78.2562" y1="55.1986" x2="77.4357" y2="55.202" gradientUnits="userSpaceOnUse">
<stop stop-color="#E6F0FF"/>
<stop offset="0.24" stop-color="#E2ECFD"/>
<stop offset="0.47" stop-color="#D6E3F8"/>
<stop offset="0.69" stop-color="#C3D3F0"/>
<stop offset="0.91" stop-color="#A9BDE4"/>
<stop offset="1" stop-color="#9CB2DF"/>
</linearGradient>
<linearGradient id="paint37_linear_1_20841" x1="77.0746" y1="57.651" x2="75.9201" y2="57.651" gradientUnits="userSpaceOnUse">
<stop stop-color="#4AFFC7"/>
<stop offset="1" stop-color="#3BADEA"/>
</linearGradient>
<linearGradient id="paint38_linear_1_20841" x1="76.804" y1="57.6314" x2="75.9089" y2="57.6358" gradientUnits="userSpaceOnUse">
<stop stop-color="#E6F0FF"/>
<stop offset="0.24" stop-color="#E2ECFD"/>
<stop offset="0.47" stop-color="#D6E3F8"/>
<stop offset="0.69" stop-color="#C3D3F0"/>
<stop offset="0.91" stop-color="#A9BDE4"/>
<stop offset="1" stop-color="#9CB2DF"/>
</linearGradient>
<linearGradient id="paint39_linear_1_20841" x1="75.1371" y1="60.8112" x2="73.9826" y2="60.8112" gradientUnits="userSpaceOnUse">
<stop stop-color="#4AFFC7"/>
<stop offset="1" stop-color="#3BADEA"/>
</linearGradient>
<linearGradient id="paint40_linear_1_20841" x1="74.8665" y1="60.7916" x2="73.9714" y2="60.796" gradientUnits="userSpaceOnUse">
<stop stop-color="#E6F0FF"/>
<stop offset="0.24" stop-color="#E2ECFD"/>
<stop offset="0.47" stop-color="#D6E3F8"/>
<stop offset="0.69" stop-color="#C3D3F0"/>
<stop offset="0.91" stop-color="#A9BDE4"/>
<stop offset="1" stop-color="#9CB2DF"/>
</linearGradient>
<linearGradient id="paint41_linear_1_20841" x1="73.3148" y1="64.2696" x2="72.1603" y2="64.2696" gradientUnits="userSpaceOnUse">
<stop stop-color="#4AFFC7"/>
<stop offset="1" stop-color="#3BADEA"/>
</linearGradient>
<linearGradient id="paint42_linear_1_20841" x1="73.0443" y1="64.2516" x2="72.1492" y2="64.2564" gradientUnits="userSpaceOnUse">
<stop stop-color="#E6F0FF"/>
<stop offset="0.24" stop-color="#E2ECFD"/>
<stop offset="0.47" stop-color="#D6E3F8"/>
<stop offset="0.69" stop-color="#C3D3F0"/>
<stop offset="0.91" stop-color="#A9BDE4"/>
<stop offset="1" stop-color="#9CB2DF"/>
</linearGradient>
<linearGradient id="paint43_linear_1_20841" x1="77.3756" y1="57.0314" x2="75.4274" y2="57.0314" gradientUnits="userSpaceOnUse">
<stop stop-color="#4AFFC7"/>
<stop offset="1" stop-color="#3BADEA"/>
</linearGradient>
<linearGradient id="paint44_linear_1_20841" x1="72.4539" y1="50.5649" x2="69.7261" y2="50.5649" gradientUnits="userSpaceOnUse">
<stop stop-color="#4AFFC7"/>
<stop offset="1" stop-color="#3BADEA"/>
</linearGradient>
<linearGradient id="paint45_linear_1_20841" x1="71.8147" y1="50.5428" x2="69.7" y2="50.5648" gradientUnits="userSpaceOnUse">
<stop stop-color="#E6F0FF"/>
<stop offset="0.24" stop-color="#E2ECFD"/>
<stop offset="0.47" stop-color="#D6E3F8"/>
<stop offset="0.69" stop-color="#C3D3F0"/>
<stop offset="0.91" stop-color="#A9BDE4"/>
<stop offset="1" stop-color="#9CB2DF"/>
</linearGradient>
<linearGradient id="paint46_linear_1_20841" x1="75.5493" y1="60.1963" x2="73.8845" y2="60.1963" gradientUnits="userSpaceOnUse">
<stop stop-color="#4AFFC7"/>
<stop offset="1" stop-color="#3BADEA"/>
</linearGradient>
<linearGradient id="paint47_linear_1_20841" x1="73.8031" y1="63.449" x2="72.4549" y2="63.449" gradientUnits="userSpaceOnUse">
<stop stop-color="#4AFFC7"/>
<stop offset="1" stop-color="#3BADEA"/>
</linearGradient>
</defs>
</svg>
