<svg width="892" height="140" viewBox="0 0 892 140" fill="none" xmlns="http://www.w3.org/2000/svg">
<path d="M157.57 77.7631C157.57 83.3231 157.57 83.2532 163.07 83.3432C169.89 83.4632 168.77 82.4931 168.81 77.5131C168.86 71.4631 168.72 72.3231 163.72 72.2531L163 72.2531C157 72.3031 157.62 71.7131 157.57 77.7631Z" fill="#353F4C" fill-opacity="0.15"/>
<path d="M53.0008 83.1726C53.6908 83.1726 54.3708 83.1726 55.0508 83.1726C57.4708 82.9926 57.9808 82.4925 58.0508 80.0325C58.1208 78.3325 58.1108 76.6226 58.0508 74.9226C58.0827 74.5793 58.0377 74.2333 57.9191 73.9096C57.8005 73.5859 57.6112 73.2928 57.3651 73.0515C57.1189 72.8101 56.8221 72.6267 56.4962 72.5144C56.1702 72.4022 55.8233 72.364 55.4808 72.4026C53.6608 72.4026 51.8408 72.4026 50.0208 72.4026C49.6798 72.358 49.3332 72.389 49.0056 72.4936C48.678 72.5982 48.3775 72.7737 48.1254 73.0076C47.8734 73.2415 47.676 73.5281 47.5472 73.847C47.4185 74.1659 47.3617 74.5092 47.3808 74.8525C47.2908 76.5525 47.2808 78.2626 47.3808 79.9626C47.4708 82.5726 47.9708 83.0426 50.6708 83.1726C51.4608 83.1726 52.2608 83.1726 53.0508 83.1726L53.0008 83.1726Z" fill="#353F4C" fill-opacity="0.15"/>
<path d="M568.059 62.5655C568.059 67.9255 568.059 67.9555 573.609 67.9755C579.609 67.9755 579.609 67.9755 579.609 61.8955C579.609 61.4355 579.609 60.9855 579.609 60.5355C579.479 57.2655 579.019 56.7655 575.839 56.6655C574.254 56.5855 572.665 56.5855 571.079 56.6655C568.579 56.8455 568.219 57.2755 568.079 59.8055C567.999 60.7255 568.059 61.6355 568.059 62.5655Z" fill="#353F4C" fill-opacity="0.15"/>
<path d="M494.85 67.9462C501.14 67.8862 500.53 68.5862 500.52 62.3062C500.52 56.3062 501.39 56.6662 494.85 56.6662C490.32 56.6662 489.2 55.6662 489.4 62.0562C489.4 62.1662 489.4 62.2862 489.4 62.3962C489.34 69.1962 489.6 67.7962 494.85 67.9462Z" fill="#353F4C" fill-opacity="0.15"/>
<path d="M252.321 62.2637C252.421 67.7837 251.381 67.8037 257.821 67.7937C263.641 67.7937 263.641 67.7937 263.641 62.0437C263.641 56.8737 263.641 56.8537 258.641 56.8437L257.961 56.8437C252.321 56.8437 252.321 56.8437 252.321 62.2637Z" fill="#353F4C" fill-opacity="0.15"/>
<path d="M583.881 77.8127C584.031 83.8127 582.751 83.3527 589.581 83.3527C596.411 83.3527 595.391 83.8627 595.421 77.6327C595.421 71.6327 596.191 72.2727 589.921 72.2227L589.571 72.2227C583.131 72.2827 584.001 71.5627 583.881 77.8127Z" fill="#353F4C" fill-opacity="0.15"/>
<path d="M279.58 77.6427C279.58 72.2827 279.52 72.2327 274.02 72.2227C268.02 72.2227 268.02 72.2227 268.02 78.2227C268.02 83.2227 268.19 83.3927 273.08 83.4427L273.76 83.4427C279.52 83.4627 279.59 83.4027 279.58 77.6427Z" fill="#353F4C" fill-opacity="0.15"/>
<path d="M573.891 52.3535C579.951 52.2235 579.541 53.3534 579.511 46.7834C579.511 40.7334 580.451 41.3134 573.831 41.2734C568.051 41.2734 568.011 41.2735 568.061 47.0135C568.101 53.2335 567.361 52.2535 573.891 52.3535Z" fill="#353F4C" fill-opacity="0.15"/>
<path d="M457.601 47.1234C457.601 53.0634 457.051 52.3634 462.891 52.3334C469.941 52.3334 469.071 53.4735 469.101 45.9835C469.101 40.9835 469.751 41.3034 464.311 41.2734C462.731 41.2734 461.151 41.2734 459.561 41.3434C458.221 41.3434 457.481 41.9034 457.561 43.3434C457.661 44.6234 457.601 45.8734 457.601 47.1234Z" fill="#353F4C" fill-opacity="0.15"/>
<path d="M400.07 10.1328C394.55 10.1328 394.55 10.1328 394.55 15.5928C394.55 21.0528 394.55 21.0728 399.93 21.0828C405.78 21.0828 405.8 21.0828 405.77 15.3328C405.74 9.58279 406.22 10.1928 400.77 10.1328L400.07 10.1328Z" fill="#353F4C" fill-opacity="0.15"/>
<path d="M573.94 130.126C580.03 129.996 579.56 131.176 579.54 124.466C579.54 118.316 580.33 119.046 574.13 119.006C572.22 119.006 569.82 118.236 568.53 119.546C567.24 120.856 568.05 123.236 568.05 125.146C568.05 130.756 567.56 130.056 572.92 130.146C573.26 130.136 573.6 130.126 573.94 130.126Z" fill="#353F4C" fill-opacity="0.15"/>
<path d="M573.75 72.173C567.98 72.173 567.98 72.1729 567.99 78.0429C567.99 83.4729 567.99 83.493 573.47 83.503C579.7 83.503 579.7 83.503 579.66 77.303C579.66 76.853 579.66 76.393 579.66 75.943C579.52 72.713 579.08 72.283 575.8 72.173C575.11 72.153 574.43 72.173 573.75 72.173Z" fill="#353F4C" fill-opacity="0.15"/>
<path d="M463.25 83.5637C469.25 83.5637 469.25 83.5637 469.25 77.5637C469.25 72.2437 469.25 72.2037 463.97 72.2037C456.97 72.2037 457.57 72.0136 457.51 78.7236C457.51 79.0636 457.51 79.4036 457.51 79.7236C457.6 83.1136 457.87 83.3836 461.22 83.5336C461.89 83.5636 462.57 83.5637 463.25 83.5637Z" fill="#353F4C" fill-opacity="0.15"/>
<path d="M500.491 15.4759C500.491 9.21591 500.931 10.0659 494.951 10.1059C489.271 10.1059 489.451 8.7859 489.461 15.4659C489.461 20.8259 488.461 21.2459 495.251 21.1459C501.381 21.0659 500.361 21.5459 500.491 15.8159L500.491 15.4759Z" fill="#353F4C" fill-opacity="0.15"/>
<path d="M311.19 139.565C317 139.465 316.62 140.435 316.56 134.015C316.51 128.335 317.7 128.615 311.09 128.545C304.18 128.475 305.51 129.005 305.48 134.015C305.43 140.695 305.18 139.395 311.19 139.565Z" fill="#353F4C" fill-opacity="0.15"/>
<path d="M552.621 62.3128C552.621 67.7428 552.621 67.7428 557.971 67.7428C563.321 67.7428 563.431 67.7428 563.441 62.3628C563.451 56.9828 563.441 56.8928 558.011 56.9028C552.581 56.9128 552.621 56.9028 552.621 62.3128Z" fill="#353F4C" fill-opacity="0.15"/>
<path d="M473.39 62.4228C473.39 67.8528 473.47 67.9228 478.9 67.9328C484.52 67.9328 484.65 67.8128 484.65 62.3328C484.65 56.8528 484.49 56.6328 478.96 56.6328L477.96 56.6328C473.82 56.7028 473.47 57.0528 473.41 61.0728C473.38 61.5628 473.39 61.9728 473.39 62.4228Z" fill="#353F4C" fill-opacity="0.15"/>
<path d="M326.769 61.9528C326.769 56.7728 326.649 56.6628 321.419 56.6328C315.419 56.6328 315.299 56.7128 315.329 62.6328C315.329 62.8628 315.329 63.0928 315.329 63.3128C315.409 67.5928 315.699 67.8828 320.039 67.9328L320.719 67.9328C326.789 67.9528 326.789 67.9528 326.769 61.9528Z" fill="#353F4C" fill-opacity="0.15"/>
<path d="M526.53 72.3644C521.13 72.5144 520.88 71.1344 520.92 78.1644C520.92 83.1644 520.92 83.2244 526.12 83.1644C533.53 83.1644 531.93 83.2544 532.01 77.4544C532.09 72.2144 532.77 72.3244 526.87 72.3244L526.53 72.3644Z" fill="#353F4C" fill-opacity="0.15"/>
<path d="M510.851 98.9433C517.321 98.8433 516.311 99.7033 516.331 93.3033C516.351 86.9033 517.071 87.8033 510.691 87.8033C504.161 87.8033 504.811 86.8034 504.831 93.4634C504.831 99.6434 504.041 98.8533 510.171 98.9433L510.851 98.9433Z" fill="#353F4C" fill-opacity="0.15"/>
<path d="M589.57 118.996C583.9 118.996 583.87 118.996 583.9 124.806C583.9 130.876 583.26 130.116 589.42 130.096C596.26 130.096 595.42 131.096 595.42 124.276C595.42 118.396 596.28 119.086 590.27 118.996L589.57 118.996Z" fill="#353F4C" fill-opacity="0.15"/>
<path d="M510.46 130.095C517.1 129.985 516.29 130.945 516.28 124.345C516.28 118.465 517.19 119.045 511.1 119.055C503.69 119.055 504.97 118.315 504.89 125.055C504.82 130.985 504.6 129.985 510.46 130.095Z" fill="#353F4C" fill-opacity="0.15"/>
<path d="M147.481 130.123C153.951 130.023 153.251 131.053 153.241 124.373C153.241 118.313 154.051 119.023 147.821 119.003C145.921 119.003 143.551 118.213 142.241 119.493C140.931 120.773 141.751 123.153 141.751 125.043C141.751 130.803 141.191 130.043 146.801 130.123C147.001 130.133 147.251 130.123 147.481 130.123Z" fill="#353F4C" fill-opacity="0.15"/>
<path d="M494.89 72.2734C489.51 72.2734 489.35 72.4434 489.34 77.7734C489.33 83.1034 489.5 83.4334 495.1 83.4034C500.26 83.4034 500.47 83.1834 500.49 78.0734L500.49 77.7334C500.48 72.4234 500.33 72.2734 494.89 72.2734Z" fill="#353F4C" fill-opacity="0.15"/>
<path d="M258.131 114.474C264.421 114.354 263.751 115.475 263.751 108.895C263.751 102.585 264.381 103.545 258.341 103.455C256.861 103.455 255.391 103.455 253.921 103.455C253.695 103.416 253.463 103.431 253.245 103.499C253.026 103.567 252.826 103.686 252.663 103.846C252.499 104.006 252.375 104.203 252.302 104.42C252.228 104.637 252.207 104.868 252.241 105.095C252.241 106.225 252.191 107.364 252.241 108.494C252.321 115.494 251.321 114.334 258.131 114.474Z" fill="#353F4C" fill-opacity="0.15"/>
<path d="M463.18 114.445C469.18 114.445 469.18 114.445 469.18 108.445C469.18 103.585 469.05 103.445 464.18 103.445C463.04 103.445 461.91 103.445 460.77 103.445C458.14 103.575 457.77 103.885 457.62 106.375C457.535 107.964 457.535 109.556 457.62 111.145C457.74 113.945 458.07 114.255 460.8 114.405C461.59 114.485 462.39 114.445 463.18 114.445Z" fill="#353F4C" fill-opacity="0.15"/>
<path d="M510.421 103.562C505.001 103.562 505.001 103.562 505.001 108.922C505.001 114.282 505.001 114.333 510.311 114.333C511.561 114.333 512.811 114.333 514.061 114.333C515.541 114.333 516.061 113.612 516.061 112.242C516.061 110.082 516.061 107.923 516.061 105.773C516.061 104.163 515.321 103.513 513.761 103.593C512.701 103.643 511.561 103.562 510.421 103.562Z" fill="#353F4C" fill-opacity="0.15"/>
<path d="M573.869 114.315C579.299 114.315 579.499 114.125 579.459 108.595C579.459 108.035 579.459 107.465 579.459 106.905C579.249 104.285 578.739 103.735 576.209 103.615C574.634 103.535 573.055 103.535 571.479 103.615C568.969 103.755 568.409 104.345 568.269 106.955C568.194 108.304 568.194 109.656 568.269 111.005C568.419 113.595 568.969 114.125 571.529 114.295C572.289 114.355 573.079 114.315 573.869 114.315Z" fill="#353F4C" fill-opacity="0.15"/>
<path d="M589.699 114.455C595.459 114.455 595.459 114.455 595.439 108.665C595.439 108.335 595.439 107.995 595.439 107.665C595.359 103.665 595.169 103.515 591.159 103.465C589.799 103.465 588.439 103.465 587.089 103.465C584.379 103.585 584.089 103.895 583.929 106.705C583.849 108.284 583.849 109.866 583.929 111.445C584.069 113.985 584.419 114.295 586.979 114.445C587.889 114.495 588.799 114.455 589.699 114.455Z" fill="#353F4C" fill-opacity="0.15"/>
<path d="M574 98.7355C579.32 98.7355 579.32 98.7355 579.32 93.4055C579.32 88.0755 579.32 87.9255 573.96 87.9655C567.67 87.9655 568.27 87.2554 568.26 93.5454C568.26 99.1854 567.75 98.6855 573.32 98.7355L574 98.7355Z" fill="#353F4C" fill-opacity="0.15"/>
<path d="M589.66 87.8844C584.04 87.8844 583.95 87.9544 583.97 93.5044C583.97 98.6444 584.14 98.7944 589.32 98.8144C595.32 98.8144 595.4 98.8144 595.32 92.8144C595.32 92.2544 595.32 91.6844 595.32 91.1244C595.14 88.5644 594.6 88.0344 592.02 87.8744C591.24 87.8444 590.45 87.8844 589.66 87.8844Z" fill="#353F4C" fill-opacity="0.15"/>
<path d="M-0.000321796 61.3758C-0.000322326 67.4358 0.239658 67.7058 5.47966 67.6858C6.04966 67.6858 6.61967 67.6858 7.17967 67.6858C9.97967 67.4958 10.4697 66.9958 10.6297 64.1758C10.6497 63.9496 10.6497 63.7221 10.6297 63.4958C10.3797 61.4958 11.6297 58.7558 9.44969 57.4958C7.26969 56.2358 4.35971 56.7959 1.77971 57.1459C1.32523 57.224 0.911684 57.4569 0.609176 57.8049C0.306667 58.153 0.13375 58.5949 0.119674 59.0558C-0.000326448 60.0458 -0.000321769 61.0658 -0.000321796 61.3758Z" fill="#353F4C" fill-opacity="0.15"/>
<path d="M536.861 62.2451C536.861 67.5551 537.081 67.7952 542.371 67.7752C542.821 67.7752 543.271 67.7752 543.721 67.7752C546.961 67.6352 547.471 67.1551 547.581 63.9951C547.581 62.6451 547.641 61.2851 547.581 59.9351C547.441 57.5551 546.901 57.0252 544.481 56.8452C543.125 56.7651 541.766 56.7651 540.411 56.8452C537.471 57.0052 537.011 57.5152 536.891 60.5852C536.841 61.1152 536.861 61.6851 536.861 62.2451Z" fill="#353F4C" fill-opacity="0.15"/>
<path d="M163.41 52.3939C168.82 52.3939 168.9 52.3039 168.9 46.8639C168.9 41.4239 168.9 41.2539 163.16 41.2539C157.42 41.2539 157.51 41.2539 157.52 46.9539C157.52 52.3839 157.54 52.3939 163.41 52.3939Z" fill="#353F4C" fill-opacity="0.15"/>
<path d="M211.709 99.043C216.959 98.933 216.889 100.043 216.879 93.503C216.879 87.373 217.119 88.2131 211.619 88.1331C210.489 88.1331 209.349 88.1331 208.219 88.1331C205.699 88.2331 205.639 88.283 205.559 90.933C205.509 92.743 205.509 94.563 205.559 96.373C205.639 98.883 205.709 98.9331 208.369 99.0131C209.389 99.0731 210.419 99.043 211.709 99.043Z" fill="#353F4C" fill-opacity="0.15"/>
<path d="M473.461 46.7443C473.521 53.1443 472.871 52.2343 479.121 52.2943C484.451 52.2943 484.471 52.2943 484.451 47.0643C484.451 40.0043 484.591 41.4243 478.951 41.3643C472.821 41.2943 473.521 40.7443 473.461 46.7443Z" fill="#353F4C" fill-opacity="0.15"/>
<path d="M589.84 52.4331C595.49 52.4331 595.49 52.4331 595.49 46.9031C595.49 41.2031 595.49 41.2031 589.65 41.2031C583.81 41.2031 583.83 41.2031 583.83 46.9331C583.83 52.4331 583.83 52.4331 589.84 52.4331Z" fill="#353F4C" fill-opacity="0.15"/>
<path d="M194.43 25.8831L193.43 25.8831C189.65 25.9531 189.24 26.3831 189.16 30.2831C189.03 36.2831 189.25 36.5631 195.34 36.5131C196.02 36.5131 196.7 36.5131 197.34 36.5131C199.46 36.2931 200.01 35.7131 200.23 33.5131C200.28 32.9531 200.23 32.3831 200.23 31.8231C200.35 26.0531 200.17 25.8731 194.43 25.8831Z" fill="#353F4C" fill-opacity="0.15"/>
<path d="M289.38 25.7529C284.09 25.7529 284.09 25.7529 284.09 31.1029C284.09 36.6229 284.09 36.6829 289.53 36.6129C294.97 36.5429 295 37.7629 295 31.1229C295 24.6629 295.1 25.8929 289.38 25.7529Z" fill="#353F4C" fill-opacity="0.15"/>
<path d="M384.25 36.7245C390.08 36.7245 390.08 36.7245 390.07 30.9745C390.07 25.7045 390.07 25.6645 384.81 25.6445C378.45 25.6445 378.45 25.6445 378.5 31.9345C378.5 32.1645 378.5 32.3845 378.5 32.6145C378.58 36.4245 378.8 36.6145 382.5 36.7145C383.12 36.7345 383.68 36.7245 384.25 36.7245Z" fill="#353F4C" fill-opacity="0.15"/>
<path d="M383.69 120.043C389.21 120.043 389.35 119.913 389.31 114.283C389.31 113.713 389.31 113.143 389.31 112.583C389.13 109.933 388.64 109.363 386.08 109.243C384.27 109.153 382.45 109.243 380.64 109.243C380.326 109.227 380.012 109.275 379.716 109.383C379.421 109.492 379.151 109.659 378.922 109.875C378.693 110.091 378.51 110.351 378.384 110.639C378.259 110.928 378.193 111.238 378.19 111.553C378.09 112.453 378.08 113.363 378.07 114.263C378 119.823 378.23 120.053 383.69 120.043Z" fill="#353F4C" fill-opacity="0.15"/>
<path d="M463.481 36.693C469.611 36.563 469.051 37.693 469.061 31.053C469.061 24.823 469.521 25.693 463.521 25.703C456.771 25.703 457.671 24.763 457.631 31.703C457.631 37.323 457.151 36.643 462.461 36.703L463.481 36.693Z" fill="#353F4C" fill-opacity="0.15"/>
<path d="M510.711 36.7337C517.101 36.6237 516.331 37.6437 516.331 31.1737C516.331 24.7037 517.121 25.6537 510.661 25.6637C504.201 25.6737 504.851 24.6637 504.841 31.3937C504.831 37.7137 504.221 36.6137 510.711 36.7337Z" fill="#353F4C" fill-opacity="0.15"/>
<path d="M574 36.6661C579.41 36.6661 579.57 36.5061 579.57 31.2161C579.57 30.5361 579.57 29.8561 579.57 29.2161C579.38 26.3761 578.91 25.8761 576.09 25.7861C574.28 25.7361 572.47 25.7861 570.66 25.8461C570.346 25.8198 570.03 25.8612 569.734 25.9677C569.437 26.0741 569.167 26.243 568.941 26.463C568.715 26.683 568.54 26.9489 568.426 27.2428C568.312 27.5366 568.262 27.8515 568.28 28.1661C568.23 29.0661 568.19 29.9761 568.19 30.8761C568.08 36.6561 568.1 36.6661 574 36.6661Z" fill="#353F4C" fill-opacity="0.15"/>
<path d="M589.78 36.765C595.49 36.765 595.49 36.765 595.48 30.905C595.48 25.625 595.48 25.595 590.22 25.615C583.68 25.615 583.84 25.015 583.85 31.835C583.85 36.745 583.85 36.745 588.76 36.765L589.78 36.765Z" fill="#353F4C" fill-opacity="0.15"/>
<path d="M257.93 10.275C252.65 10.275 252.42 10.4951 252.45 15.8151C252.433 16.4821 252.45 17.1497 252.5 17.8151C252.71 19.9851 253.27 20.6151 255.41 20.8151C257.099 20.9301 258.792 20.9301 260.48 20.8151C262.7 20.6951 263.3 20.135 263.48 17.995C263.605 16.4209 263.605 14.8393 263.48 13.2651C263.32 10.9251 262.75 10.4451 260.29 10.2651C259.51 10.2351 258.72 10.275 257.93 10.275Z" fill="#353F4C" fill-opacity="0.15"/>
<path d="M574.001 21.0825C579.431 21.1425 579.541 21.0825 579.551 15.6925C579.551 15.2325 579.551 14.7825 579.551 14.3225C579.451 10.4725 579.091 10.1025 575.181 10.0625C573.601 10.0625 572.011 10.0625 570.421 10.1325C570.107 10.0979 569.79 10.1339 569.492 10.2381C569.194 10.3423 568.924 10.5119 568.7 10.7345C568.477 10.9571 568.306 11.227 568.2 11.5243C568.095 11.8216 568.057 12.1388 568.091 12.4525C568.091 14.4525 568.091 16.5325 568.091 18.5725C568.051 18.9139 568.09 19.2597 568.205 19.5837C568.319 19.9078 568.506 20.2015 568.751 20.4425C568.995 20.6835 569.292 20.8656 569.618 20.9747C569.944 21.0839 570.29 21.1174 570.631 21.0725C571.781 21.0925 572.921 21.0825 574.001 21.0825Z" fill="#353F4C" fill-opacity="0.15"/>
<path d="M552.53 77.905C552.53 83.245 552.67 83.385 558.07 83.405C563.27 83.405 563.5 83.195 563.52 78.145C563.52 72.345 563.44 72.255 557.64 72.275C557.18 72.275 556.73 72.275 556.28 72.275C553.1 72.415 552.63 72.9049 552.53 76.1749C552.51 76.7649 552.53 77.335 552.53 77.905Z" fill="#353F4C" fill-opacity="0.15"/>
<path d="M552.501 15.8433L552.501 16.5633C552.561 20.9133 552.761 21.1133 557.171 21.1633C563.601 21.2333 563.601 21.2333 563.541 14.8733C563.541 14.3033 563.541 13.7333 563.541 13.1733C563.351 10.6733 562.991 10.2833 560.451 10.1733C558.865 10.0933 557.276 10.0933 555.691 10.1733C553.191 10.2933 552.761 10.7433 552.581 13.1733C552.521 14.0733 552.581 14.9833 552.581 15.8833L552.501 15.8433Z" fill="#353F4C" fill-opacity="0.15"/>
<path d="M352.541 21.1325C358.161 21.1325 358.201 21.1325 358.191 15.4525C358.191 10.1425 358.121 10.0825 352.951 10.0625C347.111 10.0625 347.111 10.0625 347.131 15.9025L347.131 16.5625C347.191 20.8025 347.421 21.0425 351.521 21.1125L352.541 21.1325Z" fill="#353F4C" fill-opacity="0.15"/>
<path d="M305.209 10.1055C299.429 10.1855 299.96 9.39547 299.98 15.4155C299.979 21.7855 299.189 21.0955 305.499 21.1055C311.629 21.1055 310.909 21.7155 310.909 15.6255C310.909 9.26546 311.569 10.2055 305.209 10.1055Z" fill="#353F4C" fill-opacity="0.15"/>
<path d="M236.629 15.8634C236.689 21.7334 235.939 21.2035 241.839 21.1635C248.639 21.1635 247.649 22.1035 247.689 15.1635C247.689 9.30345 248.209 10.1034 242.689 10.0234C241.329 10.0234 239.969 10.0234 238.619 10.0234C237.269 10.0234 236.619 10.7134 236.619 12.0934C236.619 13.4734 236.629 14.6134 236.629 15.8634Z" fill="#353F4C" fill-opacity="0.15"/>
<path d="M428.921 62.3828C423.071 62.4528 423.621 61.7128 423.641 67.6128C423.641 74.2228 422.871 73.2728 429.441 73.2928C435.021 73.2928 434.501 74.0828 434.561 68.2928L434.561 67.9528C434.481 61.5628 435.221 62.4828 428.921 62.3828Z" fill="#353F4C" fill-opacity="0.15"/>
<path d="M547.431 30.9144C547.431 30.2344 547.431 29.5544 547.431 28.9144C547.431 27.1744 546.551 26.1344 544.751 26.0844C542.951 26.0344 541.351 26.0344 539.651 26.0844C539.022 26.0635 538.409 26.2821 537.936 26.6962C537.462 27.1102 537.164 27.6886 537.101 28.3144C535.701 34.8844 537.361 36.8744 543.991 36.4644C546.761 36.2844 547.301 35.7544 547.461 32.9744C547.461 32.3044 547.461 31.6244 547.461 30.9744L547.431 30.9144Z" fill="#353F4C" fill-opacity="0.15"/>
<path d="M495.459 36.5627C496.249 36.5627 497.039 36.5627 497.829 36.5627C498.457 36.5666 499.062 36.3306 499.521 35.9031C499.98 35.4756 500.259 34.8888 500.299 34.2627C501.739 27.3627 498.979 24.5827 492.069 25.8927C491.444 25.9333 490.858 26.21 490.429 26.6667C490 27.1235 489.761 27.7262 489.759 28.3527C489.656 29.9305 489.633 31.5125 489.689 33.0927C489.809 35.9027 490.359 36.4427 493.089 36.5927C493.879 36.6427 494.669 36.5927 495.459 36.5927L495.459 36.5627Z" fill="#353F4C" fill-opacity="0.15"/>
<path d="M478.87 36.5655C483.97 36.5655 484.23 36.3055 484.22 31.1555L484.22 30.8155C484.22 26.3355 483.79 25.9454 479.39 25.8954C473.78 25.8454 473.53 26.0855 473.56 31.4855C473.58 36.2655 473.88 36.5655 478.87 36.5655Z" fill="#353F4C" fill-opacity="0.15"/>
<path d="M447.62 36.5626L449 36.5626C452.23 36.4426 452.73 35.9526 452.89 32.7826C453.22 26.0826 452.79 25.6326 446.05 25.8426C442.63 25.9526 442.14 26.4426 442.05 29.8426C442.05 30.1826 442.05 30.5226 442.05 30.8426C441.94 36.3726 442.15 36.5626 447.62 36.5626Z" fill="#353F4C" fill-opacity="0.15"/>
<path d="M415.949 36.5652C421.029 36.5652 421.269 36.3352 421.259 31.1652C421.259 30.8252 421.259 30.4952 421.259 30.1652C421.159 26.3852 420.73 25.9852 416.83 25.9152C410.9 25.8252 410.629 26.0651 410.649 31.4951C410.659 36.2451 410.999 36.5652 415.949 36.5652Z" fill="#353F4C" fill-opacity="0.15"/>
<path d="M331.58 31.2435C331.58 31.6935 331.58 32.1535 331.58 32.6035C331.7 35.8135 332.21 36.3435 335.33 36.4835C335.443 36.4935 335.557 36.4935 335.67 36.4835C337.67 36.2135 340.31 37.4235 341.67 35.2435C343.03 33.0635 342.33 30.4135 342.09 27.9635C342.049 27.4401 341.81 26.952 341.422 26.5989C341.033 26.2458 340.525 26.0543 340 26.0635C338 25.9735 335.94 25.9635 333.92 26.0635C333.343 26.0659 332.79 26.2927 332.377 26.6958C331.965 27.099 331.726 27.6469 331.71 28.2235C331.59 29.2235 331.59 30.2235 331.54 31.2235L331.58 31.2435Z" fill="#353F4C" fill-opacity="0.15"/>
<path d="M226.13 26.0438C225.34 26.0438 224.54 26.0438 223.75 26.0438C223.408 26.0324 223.067 26.0918 222.75 26.2184C222.432 26.3449 222.144 26.5358 221.903 26.779C221.663 27.0222 221.476 27.3126 221.353 27.6318C221.23 27.951 221.174 28.2921 221.19 28.6338C221.19 28.8638 221.19 29.0838 221.19 29.3138C220.68 36.0438 222.46 37.5938 229.19 36.3638C229.819 36.3358 230.413 36.0687 230.852 35.617C231.291 35.1654 231.54 34.5633 231.55 33.9338C231.656 32.356 231.673 30.7734 231.6 29.1938C231.47 26.7838 230.88 26.1938 228.6 26.0038C227.82 25.9338 227.02 26.0038 226.23 26.0038L226.13 26.0438Z" fill="#353F4C" fill-opacity="0.15"/>
<path d="M558.091 52.4034C563.611 52.4034 563.611 52.4034 563.621 47.0234C563.621 41.2134 563.621 41.2134 557.781 41.2234C552.471 41.2234 552.451 41.2234 552.431 46.4834L552.431 46.8234C552.431 52.4134 552.431 52.4134 558.091 52.4034Z" fill="#353F4C" fill-opacity="0.15"/>
<path d="M536.95 46.6656C536.95 51.9056 537.2 52.1856 542.53 52.1456C543.432 52.1558 544.333 52.1157 545.23 52.0256C545.797 51.9712 546.328 51.7191 546.728 51.3133C547.128 50.9074 547.373 50.3738 547.42 49.8056C548.8 43.2356 547.31 41.3456 540.92 41.5956C537.59 41.7256 537.07 42.2556 536.92 45.6456C536.94 45.9856 536.95 46.3256 536.95 46.6656Z" fill="#353F4C" fill-opacity="0.15"/>
<path d="M447.36 52.2248C453.36 52.1248 452.94 53.0548 452.95 46.4748C452.95 40.9648 453.21 41.4148 448.01 41.4748C441.17 41.4748 442.01 40.6348 441.95 47.3848C441.92 52.8848 441.64 52.1548 447.36 52.2248Z" fill="#353F4C" fill-opacity="0.15"/>
<path d="M415.951 41.4534C410.831 41.4534 410.581 41.7034 410.581 46.8434C410.581 51.9834 410.811 52.2234 415.941 52.2334C421.071 52.2434 421.311 52.0133 421.311 46.8633C421.311 41.7133 421.061 41.4434 415.951 41.4534Z" fill="#353F4C" fill-opacity="0.15"/>
<path d="M347.36 46.9254C347.36 47.3854 347.36 47.8355 347.36 48.2855C347.49 51.5155 347.98 52.0054 351.14 52.1454C357.67 52.4255 358.14 51.9355 357.89 45.4755C357.75 42.2755 357.23 41.7455 354.09 41.5955C353.64 41.5955 353.19 41.5955 352.74 41.5955C347.66 41.5655 347.35 41.8754 347.36 46.9254Z" fill="#353F4C" fill-opacity="0.15"/>
<path d="M131.49 52.3455C132.63 52.3455 133.76 52.3455 134.9 52.3455C136.41 52.4155 137.26 51.8755 137.23 50.2255C137.23 47.9555 137.23 45.6855 137.23 43.4155C137.23 42.0655 136.76 41.2655 135.23 41.2855C132.73 41.2855 130.23 41.2855 127.73 41.2855C126.43 41.2855 125.93 41.9855 125.93 43.2055C125.93 45.4755 125.99 47.7555 125.93 50.0255C125.87 51.8255 126.72 52.4355 128.4 52.3355C129.44 52.2955 130.47 52.3455 131.49 52.3455Z" fill="#353F4C" fill-opacity="0.15"/>
<path d="M541.939 72.4341C541.369 72.4341 540.799 72.4341 540.239 72.4341C537.619 72.6241 537.069 73.1641 536.879 75.6841C536.839 76.1365 536.839 76.5916 536.879 77.0441C537.079 78.8841 536.069 81.2941 538.079 82.3741C540.529 83.6941 543.389 83.2041 546.079 82.6441C547.159 82.4141 547.529 81.2941 547.569 80.2041C547.569 78.8441 547.659 77.4841 547.569 76.1241C547.469 73.1241 546.959 72.5841 543.979 72.4141C543.299 72.4141 542.619 72.4141 541.979 72.4141L541.939 72.4341Z" fill="#353F4C" fill-opacity="0.15"/>
<path d="M552.51 93.3259C552.51 98.7859 552.59 98.8659 557.99 98.8559C563.39 98.8459 563.52 98.7859 563.52 93.3759C563.52 87.9659 563.52 87.8359 558.06 87.8359C552.6 87.8359 552.51 87.8959 552.51 93.3259Z" fill="#353F4C" fill-opacity="0.15"/>
<path d="M536.799 93.146C536.879 99.406 536.089 98.746 542.439 98.756C548.119 98.756 547.629 99.216 547.619 93.706C547.619 87.136 548.309 87.966 541.809 87.946C536.399 87.936 536.839 87.316 536.799 93.146Z" fill="#353F4C" fill-opacity="0.15"/>
<path d="M526.839 98.7849C527.289 98.7849 527.74 98.7849 528.19 98.7849C531.47 98.6549 531.889 98.2449 532.029 95.0449C532.349 87.9049 532.029 87.615 524.849 87.895C521.569 88.015 521.139 88.435 520.989 91.635C520.989 92.085 520.989 92.5349 520.989 92.9849C520.939 98.6649 521.099 98.8249 526.839 98.7849Z" fill="#353F4C" fill-opacity="0.15"/>
<path d="M432 98.5641C432.79 98.5641 433.59 98.5641 434.38 98.5641C434.723 98.5771 435.065 98.5184 435.384 98.3918C435.703 98.2652 435.992 98.0734 436.233 97.8288C436.474 97.5841 436.661 97.2919 436.783 96.9709C436.905 96.6498 436.958 96.3069 436.94 95.9641C437.24 87.7441 437.31 87.8341 429.11 88.1341C428.767 88.1198 428.424 88.1771 428.105 88.3025C427.785 88.4278 427.495 88.6185 427.253 88.8622C427.011 89.1059 426.823 89.3973 426.7 89.7179C426.577 90.0385 426.523 90.3811 426.54 90.724C426.48 91.514 426.47 92.3041 426.47 93.0941C426.42 98.3341 426.71 98.6241 432 98.5641Z" fill="#353F4C" fill-opacity="0.15"/>
<path d="M347.451 93.5653C347.451 94.3553 347.451 95.1552 347.451 95.9352C347.439 96.2774 347.497 96.6186 347.622 96.9373C347.747 97.256 347.937 97.5455 348.179 97.7877C348.421 98.0298 348.71 98.2194 349.029 98.3445C349.348 98.4697 349.689 98.5279 350.031 98.5153L350.711 98.5153C357.371 99.0353 359.021 97.1553 357.771 90.5153C357.736 89.887 357.465 89.2951 357.013 88.8577C356.561 88.4202 355.96 88.1694 355.331 88.1553C353.867 88.057 352.398 88.0336 350.931 88.0853C348.111 88.1953 347.581 88.7452 347.401 91.4852C347.401 92.1552 347.401 92.8352 347.401 93.4852L347.451 93.5653Z" fill="#353F4C" fill-opacity="0.15"/>
<path d="M558.061 103.426C552.441 103.426 552.441 103.426 552.441 109.006C552.441 114.586 552.441 114.486 557.811 114.496C563.611 114.496 563.611 114.496 563.601 108.746C563.591 103.426 563.591 103.426 558.061 103.426Z" fill="#353F4C" fill-opacity="0.15"/>
<path d="M542.211 114.496C547.801 114.496 547.801 114.496 547.801 108.876C547.801 103.436 547.801 103.436 542.391 103.426C536.621 103.426 536.621 103.426 536.631 109.216C536.641 114.496 536.641 114.496 542.211 114.496Z" fill="#353F4C" fill-opacity="0.15"/>
<path d="M526.78 114.326C532.35 114.246 531.96 115.006 531.94 109.326C531.94 102.756 532.68 103.676 526.09 103.656C520.85 103.656 521.09 102.866 521.09 108.836C521.09 115.246 520.75 114.266 526.48 114.366L526.78 114.326Z" fill="#353F4C" fill-opacity="0.15"/>
<path d="M478.67 103.624C477.99 103.624 477.3 103.624 476.67 103.624C474.48 103.804 473.74 104.344 473.67 106.464C473.33 114.904 473.39 114.464 481.53 114.244C481.901 114.268 482.272 114.212 482.619 114.079C482.966 113.946 483.28 113.739 483.538 113.473C483.797 113.207 483.995 112.887 484.118 112.537C484.241 112.186 484.286 111.813 484.25 111.444C484.25 110.654 484.31 109.864 484.32 109.064C484.28 103.824 484 103.564 478.67 103.624Z" fill="#353F4C" fill-opacity="0.15"/>
<path d="M473.59 124.615L473.59 125.295C473.66 129.515 474.03 129.885 478.36 129.915C483.93 129.915 484.28 129.615 484.18 123.915C484.12 119.845 483.66 119.365 479.72 119.285L479 119.285C473.88 119.285 473.59 119.565 473.59 124.615Z" fill="#353F4C" fill-opacity="0.15"/>
<path d="M442.11 124.713C442.11 125.273 442.11 125.843 442.11 126.413C442.28 129.163 442.84 129.743 445.62 129.863C447.09 129.933 448.62 129.863 450.04 129.863C450.384 129.878 450.727 129.822 451.048 129.7C451.369 129.577 451.662 129.391 451.908 129.151C452.155 128.911 452.349 128.623 452.48 128.305C452.611 127.988 452.676 127.646 452.67 127.303C452.67 127.073 452.67 126.853 452.67 126.623C453.24 119.923 451.02 118.023 444.38 119.473C443.81 119.524 443.276 119.775 442.872 120.181C442.468 120.587 442.219 121.122 442.17 121.693C442.05 122.693 442.05 123.693 441.99 124.693L442.11 124.713Z" fill="#353F4C" fill-opacity="0.15"/>
<path d="M347.09 124.756C347.09 130.136 347.09 130.136 352.57 130.136C358.23 130.136 358.23 130.136 358.23 124.586C358.23 119.036 358.23 118.996 352.57 118.996C347.09 119.006 347.09 119.006 347.09 124.756Z" fill="#353F4C" fill-opacity="0.15"/>
<path d="M226.31 129.994C232.31 129.914 231.739 130.724 231.739 124.544C231.739 118.544 232.369 119.154 226.239 119.154C220.419 119.154 221.02 118.634 220.97 124.444C220.96 124.557 220.96 124.671 220.97 124.784C221 130.654 220.52 129.924 226.31 129.994Z" fill="#353F4C" fill-opacity="0.15"/>
<path fill-rule="evenodd" clip-rule="evenodd" d="M885.398 11.0215C878.789 10.9515 879.979 11.2313 879.929 5.55177C879.869 -0.868225 879.489 0.100998 885.299 0.000991821C891.309 0.17099 891.059 -1.12822 891.009 5.55177C890.979 10.5615 892.308 11.0915 885.398 11.0215ZM627.961 20.0195C626.671 21.3295 624.27 20.5596 622.36 20.5596C616.161 20.5196 616.95 21.2495 616.95 15.0996C616.93 8.38998 616.461 9.57043 622.551 9.44044C622.891 9.44043 623.23 9.42992 623.57 9.41993C628.93 9.50993 628.44 8.80994 628.44 14.4199C628.44 16.3297 629.25 18.7095 627.961 20.0195ZM606.22 20.5703C600.21 20.4803 601.07 21.1698 601.07 15.29C601.07 8.47005 600.23 9.46973 607.07 9.46973C613.23 9.44971 612.59 8.69007 612.59 14.7598C612.62 20.5698 612.59 20.5703 606.92 20.5703H606.22ZM843.92 20.5703C838.26 20.5703 838.26 20.5295 838.26 14.9795C838.26 9.42992 838.26 9.4297 843.92 9.4297C849.4 9.4297 849.4 9.42991 849.4 14.8096C849.4 20.5596 849.4 20.5603 843.92 20.5703ZM1054.25 20.0693C1052.94 21.3491 1050.57 20.5596 1048.67 20.5596C1042.44 20.5396 1043.25 21.2492 1043.25 15.1895C1043.24 8.50946 1042.54 9.53946 1049.01 9.43946C1049.24 9.43945 1049.49 9.42947 1049.69 9.43946C1055.3 9.51945 1054.74 8.75957 1054.74 14.5195C1054.74 16.4095 1055.56 18.7894 1054.25 20.0693ZM691.601 14.5107C691.521 21.2507 692.8 20.5108 685.391 20.5107C679.301 20.5208 680.21 21.1007 680.21 15.2207C680.2 8.62078 679.39 9.5807 686.03 9.47071C691.89 9.58071 691.671 8.58081 691.601 14.5107ZM970.249 20.4082C964.119 20.4082 964.749 21.0176 964.749 15.0176C964.749 8.83812 964.179 9.64835 970.179 9.56837C975.969 9.63837 975.489 8.90833 975.519 14.7783C975.529 14.8914 975.529 15.0051 975.519 15.1182C975.469 20.9279 976.069 20.4082 970.249 20.4082ZM716.77 20.2813C712.83 20.2012 712.37 19.7203 712.31 15.6504C712.21 9.95087 712.56 9.6504 718.13 9.6504C722.46 9.6804 722.83 10.0508 722.9 14.2705V14.9512C722.9 20.0008 722.61 20.2812 717.49 20.2813H716.77ZM752.11 20.0899C745.47 21.5398 743.25 19.6395 743.82 12.9395V12.2598C743.815 11.9161 743.879 11.5746 744.01 11.2568C744.141 10.939 744.336 10.6509 744.582 10.4111C744.828 10.1714 745.121 9.98471 745.442 9.86231C745.764 9.7399 746.107 9.68417 746.45 9.69923C747.87 9.69923 749.4 9.62923 750.87 9.69923C753.65 9.81922 754.21 10.3996 754.38 13.1494V14.8496L754.5 14.8691C754.44 15.869 754.44 16.8693 754.32 17.8691C754.271 18.4397 754.022 18.975 753.618 19.3809C753.214 19.7867 752.681 20.0379 752.11 20.0899ZM815.85 30.3193C814.04 30.3194 812.22 30.4093 810.41 30.3193C807.85 30.1993 807.36 29.6285 807.18 26.9785V25.2793C807.14 19.6494 807.28 19.5186 812.8 19.5186C818.26 19.5086 818.49 19.739 818.42 25.2988C818.41 26.1988 818.4 27.1089 818.3 28.0088C818.298 28.3235 818.231 28.6344 818.105 28.9229C817.98 29.2113 817.797 29.4716 817.568 29.6875C817.339 29.9033 817.069 30.0702 816.773 30.1787C816.478 30.2872 816.164 30.3356 815.85 30.3193ZM654.1 36.1406C648.69 36.1306 648.689 36.1302 648.689 30.6904C648.689 25.0705 648.689 25.0703 654.279 25.0703C659.849 25.0703 659.849 25.0706 659.859 30.3506C659.869 36.1402 659.869 36.1406 654.1 36.1406ZM638.43 36.1406C632.9 36.1406 632.9 36.1403 632.89 30.8203C632.88 25.0703 632.88 25.0703 638.68 25.0703C644.049 25.0803 644.05 24.9806 644.05 30.5606C644.05 36.1402 644.049 36.1406 638.43 36.1406ZM942.569 36.1113H938.149C932.11 36.0213 932.739 36.9815 932.739 30.6719C932.739 24.0919 932.069 25.2118 938.359 25.0918C945.169 25.2318 944.169 24.0716 944.249 31.0713C944.299 32.2013 944.249 33.3417 944.249 34.4717C944.282 34.6983 944.262 34.9295 944.188 35.1465C944.115 35.3633 943.992 35.5598 943.828 35.7197C943.664 35.8797 943.465 35.9993 943.246 36.0674C943.027 36.1354 942.795 36.1501 942.569 36.1113ZM605.329 36.1016C601.319 36.0516 601.129 35.9013 601.049 31.9014V30.9014C601.029 25.1114 601.029 25.1113 606.789 25.1113C607.689 25.1113 608.599 25.0711 609.509 25.1211C612.069 25.2711 612.419 25.5812 612.559 28.1211C612.639 29.7001 612.639 31.2823 612.559 32.8613C612.399 35.6711 612.109 35.9816 609.399 36.1016H605.329ZM732.309 36.1211C727.439 36.1211 727.309 35.9807 727.309 31.1211C727.309 25.1211 727.309 25.1211 733.309 25.1211C734.099 25.1211 734.898 25.0812 735.688 25.1611C738.418 25.3111 738.748 25.6209 738.868 28.4209C738.953 30.0096 738.953 31.6017 738.868 33.1904C738.718 35.6804 738.349 35.9911 735.719 36.1211H732.309ZM675.4 30.7305C675.4 36.7003 675.64 35.9102 670.4 35.9102C663.81 35.8902 664.551 36.8102 664.551 30.2402C664.531 24.5605 664.14 25.3202 669.71 25.2402L670.011 25.2002C675.74 25.3001 675.4 24.3206 675.4 30.7305ZM686.069 36C684.929 36 683.789 35.9197 682.729 35.9697C681.17 36.0497 680.43 35.3997 680.43 33.79V27.3193C680.43 25.9496 680.95 25.2295 682.43 25.2295C683.68 25.2295 684.93 25.2295 686.18 25.2295C691.49 25.2295 691.489 25.2797 691.489 30.6397C691.489 35.9997 691.489 36 686.069 36ZM717.82 35.9385C712.49 35.9985 712.21 35.7386 712.17 30.499C712.18 29.699 712.24 28.9082 712.24 28.1182C712.205 27.7486 712.249 27.3757 712.372 27.0254C712.495 26.6749 712.693 26.3553 712.952 26.0889C713.211 25.8226 713.524 25.6154 713.871 25.4824C714.218 25.3494 714.589 25.2934 714.96 25.3184C723.1 25.0984 723.16 24.6586 722.82 33.0986C722.75 35.2185 722.01 35.7585 719.82 35.9385H717.82ZM625.009 35.9512C623.433 36.0312 621.855 36.0312 620.279 35.9512C617.749 35.8312 617.239 35.2811 617.029 32.6611V30.9717C616.989 25.4417 617.189 25.251 622.619 25.251C623.409 25.251 624.199 25.2115 624.959 25.2715C627.519 25.4415 628.069 25.9715 628.219 28.5615C628.294 29.9104 628.294 31.2624 628.219 32.6113C628.079 35.2213 627.519 35.8112 625.009 35.9512ZM984.869 51.4287C979.369 51.3487 979.609 52.189 979.609 46.0596C979.599 39.5196 979.529 40.6295 984.779 40.5195C986.069 40.5195 987.099 40.4888 988.119 40.5488C990.779 40.6288 990.849 40.6795 990.929 43.1895C990.979 44.9993 990.979 46.8191 990.929 48.6289C990.849 51.2789 990.789 51.3287 988.269 51.4287H984.869ZM691.659 46.0986C691.679 52.7585 692.329 51.7588 685.8 51.7588C679.42 51.7588 680.139 52.6588 680.159 46.2588C680.179 39.8588 679.17 40.7191 685.64 40.6191H686.319C692.449 40.7091 691.659 39.9188 691.659 46.0986ZM638.431 51.7305C632.971 51.7305 632.971 51.6001 632.971 46.1904C632.971 40.7804 633.101 40.72 638.501 40.71C643.901 40.7 643.98 40.7803 643.98 46.2402C643.98 51.6701 643.891 51.7305 638.431 51.7305ZM604.47 51.6914C601.89 51.5314 601.35 51.0013 601.17 48.4414V46.752C601.09 40.752 601.17 40.752 607.17 40.752C612.35 40.772 612.521 40.9216 612.521 46.0615C612.541 51.6115 612.45 51.6816 606.83 51.6816C606.04 51.6816 605.25 51.7214 604.47 51.6914ZM671.641 51.6709C664.461 51.9509 664.141 51.6611 664.461 44.5215C664.601 41.3215 665.021 40.9113 668.301 40.7813C668.751 40.7813 669.201 40.7813 669.65 40.7813C675.39 40.7413 675.551 40.9011 675.501 46.5811V47.9307C675.351 51.1307 674.921 51.5509 671.641 51.6709ZM654.681 51.6201C648.181 51.6001 648.871 52.43 648.871 45.8604C648.861 40.3504 648.371 40.8106 654.051 40.8106C660.401 40.8206 659.61 40.1601 659.69 46.4199C659.65 52.2499 660.091 51.6301 654.681 51.6201ZM628.229 46.0205C628.219 52.3104 628.82 51.6006 622.53 51.6006C617.17 51.6406 617.17 51.4902 617.17 46.1602C617.17 40.8305 617.17 40.8311 622.49 40.8311H623.17C628.74 40.8811 628.229 40.3806 628.229 46.0205ZM845.56 51.4805C844.093 51.5321 842.624 51.5094 841.159 51.4111C840.53 51.397 839.93 51.1455 839.478 50.708C839.025 50.2706 838.754 49.679 838.719 49.0508C837.469 42.4108 839.119 40.5308 845.779 41.0508H846.459C846.801 41.0382 847.142 41.0965 847.461 41.2217C847.78 41.3469 848.069 41.5362 848.312 41.7783C848.554 42.0205 848.743 42.3102 848.868 42.6289C848.993 42.9476 849.052 43.2887 849.039 43.6309V46.001L849.089 46.0811V48.0811C848.909 50.8207 848.379 51.3704 845.56 51.4805ZM767.379 51.4277C759.179 51.7277 759.249 51.8177 759.549 43.5977C759.531 43.2549 759.583 42.9118 759.705 42.5908C759.827 42.2699 760.014 41.978 760.255 41.7334C760.496 41.4888 760.785 41.2965 761.104 41.1699C761.423 41.0434 761.765 40.9851 762.108 40.9981C762.898 40.9981 763.698 40.9981 764.488 40.9981C769.778 40.9381 770.069 41.228 770.019 46.4678C770.019 47.2577 770.008 48.048 769.948 48.8379C769.965 49.1808 769.911 49.5241 769.788 49.8447C769.665 50.1651 769.477 50.4566 769.235 50.7002C768.994 50.9439 768.703 51.1344 768.384 51.2598C768.064 51.3851 767.722 51.442 767.379 51.4277ZM732.521 67.3584C727.241 67.3584 727.24 67.3181 727.24 61.9981C727.24 55.9985 727.24 55.9981 733.24 55.9981C733.92 55.9981 734.6 55.9983 735.271 56.0283C738.62 56.1783 738.89 56.449 738.98 59.8389V60.8389C738.921 67.5484 739.52 67.3584 732.521 67.3584ZM620.69 67.3897C617.41 67.2797 616.97 66.8492 616.83 63.6191V62.2588C616.79 56.0593 616.79 56.0596 623.02 56.0596C628.5 56.0696 628.5 56.0895 628.5 61.5195C628.51 67.3891 628.51 67.3897 622.74 67.3897C622.06 67.3897 621.38 67.4096 620.69 67.3897ZM922.469 67.3399C916.969 67.3299 916.909 67.279 916.909 61.919C916.899 56.1595 916.969 56.0992 922.729 56.1191H923.409C928.299 56.1692 928.469 56.34 928.469 61.3399C928.469 67.3395 928.469 67.3399 922.469 67.3399ZM701.6 67.2891C696.16 67.2891 696.01 67.1386 696 61.8291V61.4883C696.02 56.3788 696.23 56.1582 701.39 56.1582C706.99 56.1282 707.16 56.4591 707.15 61.7891C707.14 67.1187 706.979 67.2891 701.6 67.2891ZM638.851 67.291C633.051 67.311 632.971 67.2209 632.971 61.4209C632.991 56.3711 633.221 56.1611 638.421 56.1611C643.821 56.1811 643.961 56.3212 643.961 61.6611C643.961 62.2311 643.981 62.8016 643.961 63.3916C643.861 66.6611 643.391 67.151 640.211 67.291H638.851ZM606.569 67.3399C600.299 67.2899 601.069 67.9294 601.069 61.9297C601.099 55.6997 600.079 56.209 606.909 56.209C613.739 56.209 612.459 55.7495 612.609 61.749C612.489 67.999 613.359 67.2799 606.919 67.3399H606.569ZM1032.77 67.3086C1027.77 67.2386 1027.63 68.0988 1027.68 62.0488C1027.72 57.069 1026.6 56.0988 1033.42 56.2188C1038.92 56.3088 1038.92 56.2391 1038.92 61.7988C1038.87 67.8488 1039.49 67.2586 1033.49 67.3086H1032.77ZM652.509 67.1484C649.529 66.9785 649.019 66.4381 648.919 63.4385C648.829 62.0786 648.919 60.7183 648.919 59.3584C648.959 58.2684 649.329 57.148 650.409 56.918C653.099 56.358 655.959 55.8685 658.409 57.1885C660.419 58.2685 659.41 60.6777 659.609 62.5176C659.649 62.97 659.649 63.4255 659.609 63.8779C659.419 66.3979 658.869 66.9379 656.249 67.1279H654.549L654.509 67.1484H652.509ZM1146.47 67.1592H1141.01C1140.67 67.1978 1140.32 67.1601 1139.99 67.0479C1139.67 66.9356 1139.37 66.7521 1139.12 66.5108C1138.88 66.2694 1138.69 65.976 1138.57 65.6524C1138.45 65.3287 1138.41 64.9828 1138.44 64.6397C1138.38 62.9397 1138.37 61.2293 1138.44 59.5293C1138.51 57.0696 1139.02 56.5696 1141.44 56.3897H1145.82C1148.52 56.5197 1149.02 56.9896 1149.11 59.5996C1149.21 61.2996 1149.2 63.01 1149.11 64.71C1149.13 65.0531 1149.07 65.3962 1148.94 65.7149C1148.81 66.0337 1148.62 66.3208 1148.37 66.5547C1148.11 66.7886 1147.81 66.9638 1147.48 67.0684C1147.16 67.1729 1146.81 67.2038 1146.47 67.1592ZM669.62 67.2412C663.72 67.2412 664.4 67.3513 664.48 62.1113C664.56 56.3117 662.96 56.4014 670.37 56.4014C675.57 56.3414 675.57 56.4017 675.57 61.4014C675.61 68.4314 675.36 67.0512 669.96 67.2012L669.62 67.2412ZM767.569 77.1797C761.27 77.0797 762.01 77.9992 761.93 71.6094V71.2695C761.99 65.4795 761.47 66.2695 767.05 66.2695C773.62 66.2895 772.85 65.3394 772.85 71.9492C772.87 77.8492 773.419 77.1097 767.569 77.1797ZM625.409 82.9004C623.824 82.9804 622.235 82.9804 620.649 82.9004C617.469 82.8004 617.009 82.3003 616.879 79.0303V77.6709C616.879 71.5909 616.879 71.5908 622.879 71.5908C628.429 71.6108 628.429 71.641 628.429 77.001C628.429 77.9308 628.489 78.8409 628.409 79.7608C628.269 82.2905 627.909 82.7204 625.409 82.9004ZM707.09 77.5098C707.29 83.8998 706.17 82.8994 701.64 82.8994C695.1 82.8994 695.97 83.2597 695.97 77.2598C695.96 70.9799 695.35 71.6801 701.64 71.6201C706.89 71.7701 707.15 70.3699 707.09 77.1699V77.5098ZM875.071 82.9297C869.841 82.8997 869.721 82.7893 869.721 77.6094C869.701 71.6095 869.701 71.6089 875.771 71.6289H876.451C880.791 71.6789 881.081 71.9694 881.161 76.249V76.9297C881.191 82.8492 881.071 82.9297 875.071 82.9297ZM717.53 82.9297C712 82.9297 711.84 82.7093 711.84 77.2295C711.84 71.7495 711.97 71.6289 717.59 71.6289C723.02 71.6389 723.1 71.7097 723.1 77.1397C723.1 77.5895 723.11 77.9994 723.08 78.4893C723.02 82.5091 722.67 82.8597 718.53 82.9297H717.53ZM937.85 82.7188C932.85 82.7088 932.85 82.6884 932.85 77.5186C932.85 71.7686 932.85 71.7686 938.67 71.7686C945.11 71.7586 944.07 71.7789 944.17 77.2988C944.17 82.7184 944.169 82.7188 938.529 82.7188H937.85ZM656.079 82.7207C654.724 82.8007 653.365 82.8007 652.01 82.7207C649.59 82.5407 649.049 82.0109 648.909 79.6309C648.849 78.281 648.909 76.9212 648.909 75.5713C649.019 72.4113 649.53 71.931 652.77 71.791H655.053C659.436 71.8203 659.63 72.343 659.63 77.3213C659.63 77.881 659.65 78.4507 659.6 78.9805C659.48 82.0505 659.019 82.5607 656.079 82.7207ZM638.479 82.6592C633.05 82.6692 633.04 82.5792 633.05 77.1992C633.06 71.8194 633.17 71.8193 638.52 71.8193C643.869 71.8193 643.869 71.8193 643.869 77.249C643.869 82.659 643.909 82.6492 638.479 82.6592ZM1194.71 82.4199C1192.13 82.7699 1189.22 83.33 1187.04 82.0703C1184.86 80.8104 1186.11 78.0703 1185.86 76.0703C1185.84 75.8441 1185.84 75.6159 1185.86 75.3897C1186.02 72.5699 1186.51 72.0699 1189.31 71.8799C1189.87 71.8799 1190.44 71.8799 1191.01 71.8799C1196.25 71.8599 1196.49 72.1305 1196.49 78.1904C1196.49 78.501 1196.49 79.5203 1196.37 80.5098C1196.35 80.9707 1196.18 81.4127 1195.88 81.7608C1195.58 82.1087 1195.16 82.3417 1194.71 82.4199ZM606.84 98.3594C601 98.3594 601 98.359 601 92.6592C601 87.1292 601 87.1289 606.65 87.1289C612.66 87.1289 612.66 87.1291 612.66 92.6289C612.66 98.3589 612.68 98.3594 606.84 98.3594ZM638.709 98.3389C632.869 98.3489 632.869 98.3487 632.869 92.5391C632.879 87.1591 632.879 87.1592 638.399 87.1592C644.059 87.1492 644.06 87.1488 644.06 92.7383V93.0791C644.04 98.3387 644.019 98.3389 638.709 98.3389ZM1033.33 98.3086C1027.59 98.3086 1027.59 98.1383 1027.59 92.6983C1027.59 87.2583 1027.67 87.168 1033.08 87.168C1038.95 87.168 1038.97 87.1785 1038.97 92.6084C1038.98 98.3082 1039.07 98.3086 1033.33 98.3086ZM732.18 98.2891C726.74 98.2591 727.39 98.5787 727.39 93.5791C727.42 86.0891 726.55 87.2285 733.6 87.2285C739.439 87.1985 738.89 86.4988 738.89 92.4385C738.89 93.6885 738.83 94.9388 738.93 96.2188C739.01 97.6586 738.27 98.2187 736.93 98.2188C735.34 98.2888 733.76 98.2891 732.18 98.2891ZM622.659 98.2891C616.04 98.2491 616.979 98.8282 616.979 92.7783C616.949 86.2087 616.54 87.339 622.6 87.209C629.13 87.309 628.39 86.3288 628.43 92.5488C628.48 98.2887 628.439 98.2891 622.659 98.2891ZM1061.26 98.2803C1059.73 98.3003 1059.26 97.5004 1059.26 96.1504V89.3408C1059.23 87.6908 1060.08 87.1507 1061.59 87.2207C1062.73 87.2207 1063.86 87.2207 1065 87.2207C1066.02 87.2207 1067.05 87.2705 1068.09 87.2305C1069.77 87.1306 1070.62 87.7405 1070.56 89.5401C1070.5 91.81 1070.56 94.0904 1070.56 96.3604C1070.56 97.5803 1070.06 98.2802 1068.76 98.2803H1061.26ZM717.539 98.2022C711.899 98.1422 712.039 99.5617 712.039 92.502C712.019 87.272 712.039 87.2715 717.369 87.2715C723.619 87.3315 722.969 86.4218 723.029 92.8213C722.969 98.8213 723.669 98.2722 717.539 98.2022ZM780.54 98.1084C775.43 98.1184 775.18 97.8488 775.18 92.6992C775.18 87.5492 775.42 87.3191 780.55 87.3291C785.68 87.3391 785.91 87.5788 785.91 92.7188C785.91 97.8587 785.66 98.1084 780.54 98.1084ZM748.48 98.0908C743.28 98.1508 743.54 98.6008 743.54 93.0908C743.55 86.5115 743.13 87.4408 749.13 87.3408C754.85 87.4108 754.57 86.6817 754.54 92.1817C754.48 98.9312 755.32 98.0908 748.48 98.0908ZM842.398 97.9707C839.259 97.8207 838.739 97.2906 838.599 94.0908C838.349 87.6308 838.819 87.1409 845.349 87.4209C848.508 87.5609 848.999 88.0506 849.129 91.2803V92.6406C849.138 97.3749 848.866 97.9429 844.646 97.9707H842.398ZM655.57 97.9707C649.18 98.2207 647.69 96.3305 649.07 89.7608C649.117 89.1927 649.362 88.6587 649.762 88.2529C650.162 87.8472 650.692 87.5945 651.26 87.5401C652.157 87.45 653.059 87.4098 653.96 87.4199C659.29 87.3799 659.54 87.6604 659.54 92.9004C659.54 93.2402 659.55 93.5801 659.57 93.9199C659.42 97.3099 658.9 97.8407 655.57 97.9707ZM606.269 113.951C601.009 113.971 601.009 113.941 601.009 108.661C600.999 102.801 600.999 102.801 606.709 102.801H607.729C612.638 102.821 612.639 102.821 612.639 107.731C612.649 114.551 612.808 113.951 606.269 113.951ZM970.259 113.559C969.469 113.559 968.669 113.629 967.889 113.559C965.609 113.369 965.019 112.778 964.889 110.368C964.815 108.789 964.832 107.206 964.938 105.628C964.948 104.999 965.198 104.397 965.637 103.945C966.075 103.494 966.67 103.226 967.299 103.198C974.028 101.968 975.809 103.518 975.299 110.248V110.929C975.314 111.27 975.259 111.612 975.136 111.931C975.013 112.25 974.825 112.54 974.585 112.783C974.345 113.026 974.056 113.217 973.738 113.344C973.421 113.47 973.08 113.53 972.738 113.519H970.358L970.259 113.559ZM685.829 113.898C679.37 113.908 680.159 114.858 680.159 108.389C680.159 101.919 679.389 102.938 685.779 102.828C692.269 102.948 691.659 101.848 691.649 108.168C691.639 114.898 692.289 113.888 685.829 113.898ZM811.679 113.922C806.419 113.902 806.419 113.861 806.419 108.592C806.409 102.842 806.409 102.842 812.239 102.842C812.809 102.842 813.369 102.832 813.989 102.852C817.689 102.952 817.909 103.142 817.989 106.951V107.632C818.039 113.922 818.039 113.922 811.679 113.922ZM732.97 113.859C726.97 113.869 727.43 114.739 727.43 108.509C727.44 101.869 726.88 102.999 733.01 102.869L734.029 102.859C739.339 102.919 738.859 102.239 738.859 107.859C738.819 114.799 739.719 113.859 732.97 113.859ZM625.83 113.72C624.02 113.78 622.21 113.83 620.4 113.78C617.58 113.69 617.11 113.19 616.92 110.35V108.35C616.92 103.06 617.08 102.9 622.49 102.9C628.39 102.9 628.41 102.91 628.3 108.689C628.3 109.589 628.26 110.5 628.21 111.4C628.228 111.715 628.178 112.03 628.064 112.323C627.951 112.617 627.774 112.883 627.549 113.103C627.323 113.323 627.053 113.492 626.757 113.599C626.46 113.705 626.144 113.746 625.83 113.72ZM907.11 113.81C901.39 113.67 901.49 114.899 901.49 108.439C901.49 101.8 901.52 103.019 906.96 102.949C912.4 102.879 912.4 102.939 912.4 108.459C912.4 113.809 912.4 113.81 907.11 113.81ZM704.421 113.67C697.511 114.98 694.751 112.199 696.19 105.3C696.231 104.674 696.511 104.087 696.97 103.659C697.429 103.232 698.034 102.995 698.661 102.999C699.451 102.999 700.241 102.999 701.031 102.999V102.97C701.821 102.97 702.611 102.92 703.401 102.97C706.131 103.12 706.681 103.66 706.801 106.47C706.857 108.05 706.834 109.631 706.73 111.209C706.729 111.836 706.49 112.439 706.062 112.896C705.633 113.352 705.046 113.629 704.421 113.67ZM862.57 113.499C860.55 113.599 858.49 113.589 856.49 113.499C855.965 113.508 855.457 113.316 855.068 112.963C854.68 112.61 854.441 112.122 854.4 111.599C854.16 109.149 853.46 106.498 854.82 104.318C856.18 102.139 858.82 103.349 860.82 103.079C860.933 103.069 861.047 103.069 861.16 103.079C864.28 103.219 864.79 103.749 864.91 106.959V108.318L864.95 108.339C864.9 109.339 864.9 110.339 864.78 111.339C864.765 111.915 864.526 112.463 864.113 112.866C863.701 113.269 863.147 113.497 862.57 113.499ZM750.44 113.72C743.7 113.93 743.271 113.479 743.601 106.779C743.761 103.61 744.26 103.12 747.49 103H748.87C754.34 103 754.55 103.19 754.44 108.72V109.72C754.35 113.12 753.86 113.61 750.44 113.72ZM779.659 113.651C775.759 113.581 775.329 113.181 775.229 109.401V108.401C775.219 103.231 775.459 103.001 780.539 103.001C785.489 103.001 785.829 103.321 785.839 108.071C785.859 113.501 785.589 113.741 779.659 113.651ZM717.1 113.671C712.7 113.621 712.27 113.23 712.27 108.751V108.41C712.26 103.261 712.52 103.001 717.62 103.001C722.61 103.001 722.91 103.301 722.93 108.08C722.96 113.48 722.71 113.721 717.1 113.671ZM1002.06 113.679C996.319 113.689 996.139 113.509 996.259 107.739C996.259 107.179 996.209 106.609 996.259 106.049C996.479 103.849 997.029 103.269 999.148 103.049C999.788 103.049 1000.47 103.049 1001.15 103.049C1007.24 102.999 1007.46 103.279 1007.33 109.279C1007.25 113.179 1006.84 113.609 1003.06 113.679H1002.06ZM656.839 113.481C655.139 113.531 653.539 113.531 651.739 113.481C649.939 113.431 649.06 112.391 649.06 110.651V108.651L649.029 108.592V106.592C649.189 103.812 649.729 103.282 652.499 103.102C659.129 102.692 660.79 104.682 659.39 111.252C659.327 111.878 659.028 112.456 658.555 112.87C658.081 113.284 657.467 113.502 656.839 113.481ZM953.799 129.539C948.279 129.459 948.799 130.258 948.799 124.398C948.839 117.459 947.849 118.398 954.649 118.398C960.549 118.358 959.799 117.829 959.859 123.698C959.859 124.948 959.869 126.089 959.869 127.469C959.869 128.849 959.219 129.539 957.869 129.539H953.799ZM640.8 129.389C639.214 129.469 637.626 129.469 636.04 129.389C633.5 129.279 633.139 128.889 632.949 126.389V124.688C632.889 118.329 632.89 118.328 639.319 118.398C643.729 118.448 643.929 118.649 643.989 122.999V123.719L643.909 123.679C643.909 124.579 643.969 125.489 643.909 126.389C643.729 128.819 643.3 129.269 640.8 129.389ZM707.029 124.101C707.039 130.78 707.219 129.46 701.539 129.46C695.559 129.5 695.999 130.35 695.999 124.09V123.75C696.129 118.02 695.11 118.5 701.239 118.42C708.029 118.32 707.029 118.741 707.029 124.101ZM843.539 129.5C838.37 129.48 838.3 129.419 838.3 124.109C838.29 118.43 838.33 118.43 843.949 118.43L844.97 118.449C849.07 118.519 849.299 118.76 849.359 123V123.659C849.379 129.499 849.379 129.5 843.539 129.5ZM891.279 129.461C884.919 129.361 885.579 130.3 885.579 123.94C885.579 117.851 884.859 118.461 890.989 118.461C897.299 118.471 896.509 117.781 896.509 124.15C896.529 130.17 897.059 129.381 891.279 129.461ZM621.31 129.5C617.4 129.46 617.039 129.089 616.939 125.239V123.869C616.949 118.48 617.06 118.42 622.489 118.48C623.569 118.48 624.709 118.469 625.859 118.489C626.2 118.444 626.546 118.478 626.872 118.587C627.198 118.696 627.494 118.878 627.739 119.119C627.984 119.36 628.172 119.654 628.286 119.979C628.4 120.302 628.439 120.648 628.399 120.989V127.109C628.433 127.423 628.396 127.741 628.29 128.038C628.185 128.335 628.013 128.605 627.79 128.827C627.566 129.05 627.296 129.22 626.998 129.324C626.7 129.428 626.383 129.464 626.069 129.43C624.479 129.5 622.889 129.5 621.31 129.5ZM795.719 129.43C790.269 129.37 790.749 129.979 790.719 124.23C790.689 118.48 790.709 118.48 796.559 118.48C801.939 118.49 801.938 118.51 801.938 123.97C801.938 129.429 801.938 129.43 796.419 129.43H795.719ZM936.2 129.301C933.74 129.121 933.17 128.641 933.01 126.301C932.885 124.727 932.885 123.145 933.01 121.571C933.19 119.431 933.79 118.871 936.01 118.751C937.698 118.636 939.392 118.636 941.08 118.751C943.22 118.951 943.78 119.581 943.99 121.751C944.041 122.416 944.057 123.084 944.04 123.751C944.07 129.071 943.84 129.291 938.56 129.291C937.77 129.291 936.98 129.331 936.2 129.301Z" fill="url(#paint0_linear_1507_61)" fill-opacity="0.15"/>
<defs>
<linearGradient id="paint0_linear_1507_61" x1="1196.49" y1="64.783" x2="601" y2="64.783" gradientUnits="userSpaceOnUse">
<stop stop-color="white" stop-opacity="0.01"/>
<stop offset="1" stop-color="#353F4C"/>
</linearGradient>
</defs>
</svg>
