<svg width="596" height="130" viewBox="0 0 596 130" fill="none" xmlns="http://www.w3.org/2000/svg">
<path d="M157.57 67.7632C157.57 73.3232 157.57 73.2532 163.07 73.3432C169.89 73.4632 168.77 72.4932 168.81 67.5132C168.86 61.4632 168.72 62.3232 163.72 62.2532L163 62.2532C157 62.3032 157.62 61.7132 157.57 67.7632Z" fill="#353F4C" fill-opacity="0.15"/>
<path d="M53.0009 73.1726C53.6909 73.1726 54.3709 73.1726 55.0509 73.1726C57.4709 72.9926 57.9809 72.4926 58.0509 70.0326C58.1209 68.3326 58.1109 66.6226 58.0509 64.9226C58.0828 64.5794 58.0378 64.2333 57.9192 63.9097C57.8006 63.586 57.6113 63.2929 57.3652 63.0515C57.1191 62.8102 56.8222 62.6267 56.4963 62.5145C56.1704 62.4022 55.8235 62.364 55.4809 62.4027C53.6609 62.4027 51.841 62.4027 50.021 62.4027C49.68 62.358 49.3333 62.3891 49.0058 62.4937C48.6782 62.5982 48.3776 62.7737 48.1256 63.0076C47.8735 63.2416 47.6761 63.5282 47.5474 63.847C47.4187 64.1659 47.3619 64.5093 47.3809 64.8526C47.2909 66.5526 47.2809 68.2626 47.3809 69.9626C47.4709 72.5726 47.9709 73.0426 50.6709 73.1726C51.4609 73.1726 52.2609 73.1726 53.0509 73.1726L53.0009 73.1726Z" fill="#353F4C" fill-opacity="0.15"/>
<path d="M568.06 52.5656C568.06 57.9256 568.06 57.9555 573.61 57.9755C579.61 57.9755 579.61 57.9756 579.61 51.8956C579.61 51.4356 579.61 50.9855 579.61 50.5355C579.48 47.2655 579.02 46.7656 575.84 46.6656C574.254 46.5855 572.665 46.5855 571.08 46.6655C568.58 46.8455 568.22 47.2756 568.08 49.8056C568 50.7256 568.06 51.6356 568.06 52.5656Z" fill="#353F4C" fill-opacity="0.15"/>
<path d="M494.85 57.9463C501.14 57.8863 500.53 58.5863 500.52 52.3063C500.52 46.3063 501.39 46.6662 494.85 46.6662C490.32 46.6662 489.2 45.6663 489.4 52.0563C489.4 52.1663 489.4 52.2863 489.4 52.3963C489.34 59.1963 489.6 57.7963 494.85 57.9463Z" fill="#353F4C" fill-opacity="0.15"/>
<path d="M252.321 52.2638C252.421 57.7838 251.381 57.8038 257.821 57.7938C263.641 57.7938 263.641 57.7938 263.641 52.0438C263.641 46.8738 263.641 46.8538 258.641 46.8438L257.961 46.8438C252.321 46.8438 252.321 46.8438 252.321 52.2638Z" fill="#353F4C" fill-opacity="0.15"/>
<path d="M583.881 67.8127C584.031 73.8127 582.751 73.3527 589.581 73.3527C596.411 73.3527 595.391 73.8627 595.421 67.6327C595.421 61.6327 596.191 62.2727 589.921 62.2227L589.571 62.2227C583.131 62.2827 584.001 61.5627 583.881 67.8127Z" fill="#353F4C" fill-opacity="0.15"/>
<path d="M279.58 67.6428C279.58 62.2828 279.52 62.2327 274.02 62.2227C268.02 62.2227 268.02 62.2227 268.02 68.2227C268.02 73.2227 268.19 73.3927 273.08 73.4427L273.76 73.4427C279.52 73.4627 279.59 73.4028 279.58 67.6428Z" fill="#353F4C" fill-opacity="0.15"/>
<path d="M573.891 42.3535C579.951 42.2235 579.541 43.3535 579.511 36.7835C579.511 30.7335 580.451 31.3135 573.831 31.2735C568.051 31.2735 568.011 31.2735 568.061 37.0135C568.101 43.2335 567.361 42.2535 573.891 42.3535Z" fill="#353F4C" fill-opacity="0.15"/>
<path d="M457.601 37.1235C457.601 43.0635 457.051 42.3635 462.891 42.3335C469.941 42.3335 469.071 43.4735 469.101 35.9835C469.101 30.9835 469.751 31.3035 464.311 31.2735C462.731 31.2735 461.151 31.2735 459.561 31.3435C458.221 31.3435 457.481 31.9035 457.561 33.3435C457.661 34.6235 457.601 35.8735 457.601 37.1235Z" fill="#353F4C" fill-opacity="0.15"/>
<path d="M400.07 0.132864C394.55 0.132864 394.55 0.132855 394.55 5.59286C394.55 11.0529 394.55 11.0728 399.93 11.0828C405.78 11.0828 405.8 11.0828 405.77 5.33285C405.74 -0.417154 406.22 0.192865 400.77 0.132864L400.07 0.132864Z" fill="#353F4C" fill-opacity="0.15"/>
<path d="M573.94 120.126C580.03 119.996 579.56 121.176 579.54 114.466C579.54 108.316 580.33 109.046 574.13 109.006C572.22 109.006 569.82 108.236 568.53 109.546C567.24 110.856 568.05 113.236 568.05 115.146C568.05 120.756 567.56 120.056 572.92 120.146C573.26 120.136 573.6 120.126 573.94 120.126Z" fill="#353F4C" fill-opacity="0.15"/>
<path d="M573.75 62.173C567.98 62.173 567.98 62.173 567.99 68.043C567.99 73.473 567.99 73.493 573.47 73.503C579.7 73.503 579.7 73.503 579.66 67.303C579.66 66.853 579.66 66.393 579.66 65.943C579.52 62.713 579.08 62.283 575.8 62.173C575.11 62.153 574.43 62.173 573.75 62.173Z" fill="#353F4C" fill-opacity="0.15"/>
<path d="M463.25 73.5637C469.25 73.5637 469.25 73.5637 469.25 67.5637C469.25 62.2437 469.25 62.2037 463.97 62.2037C456.97 62.2037 457.57 62.0137 457.51 68.7237C457.51 69.0637 457.51 69.4037 457.51 69.7237C457.6 73.1137 457.87 73.3837 461.22 73.5337C461.89 73.5637 462.57 73.5637 463.25 73.5637Z" fill="#353F4C" fill-opacity="0.15"/>
<path d="M500.491 5.47596C500.491 -0.784037 500.931 0.0659681 494.951 0.105968C489.271 0.105967 489.451 -1.21405 489.461 5.46595C489.461 10.826 488.461 11.2459 495.251 11.1459C501.381 11.0659 500.361 11.546 500.491 5.81596L500.491 5.47596Z" fill="#353F4C" fill-opacity="0.15"/>
<path d="M311.19 129.565C317 129.465 316.62 130.435 316.56 124.015C316.51 118.335 317.7 118.615 311.09 118.545C304.18 118.475 305.51 119.005 305.48 124.015C305.43 130.695 305.18 129.395 311.19 129.565Z" fill="#353F4C" fill-opacity="0.15"/>
<path d="M552.621 52.3129C552.621 57.7429 552.621 57.7429 557.971 57.7429C563.321 57.7429 563.431 57.7428 563.441 52.3628C563.451 46.9828 563.441 46.8929 558.011 46.9029C552.581 46.9129 552.621 46.9029 552.621 52.3129Z" fill="#353F4C" fill-opacity="0.15"/>
<path d="M473.391 52.4228C473.391 57.8528 473.471 57.9229 478.901 57.9329C484.521 57.9329 484.651 57.8129 484.651 52.3329C484.651 46.8529 484.491 46.6329 478.961 46.6329L477.961 46.6329C473.821 46.7029 473.471 47.0529 473.411 51.0729C473.381 51.5629 473.391 51.9728 473.391 52.4228Z" fill="#353F4C" fill-opacity="0.15"/>
<path d="M326.77 51.9529C326.77 46.7729 326.65 46.6629 321.42 46.6329C315.42 46.6329 315.3 46.7129 315.33 52.6329C315.33 52.8629 315.33 53.0929 315.33 53.3129C315.41 57.5929 315.7 57.8829 320.04 57.9329L320.72 57.9329C326.79 57.9529 326.79 57.9529 326.77 51.9529Z" fill="#353F4C" fill-opacity="0.15"/>
<path d="M526.53 62.3644C521.13 62.5144 520.88 61.1344 520.92 68.1644C520.92 73.1644 520.92 73.2244 526.12 73.1644C533.53 73.1644 531.93 73.2545 532.01 67.4545C532.09 62.2145 532.77 62.3244 526.87 62.3244L526.53 62.3644Z" fill="#353F4C" fill-opacity="0.15"/>
<path d="M510.851 88.9434C517.321 88.8434 516.311 89.7034 516.331 83.3034C516.351 76.9034 517.071 77.8034 510.691 77.8034C504.161 77.8034 504.811 76.8034 504.831 83.4634C504.831 89.6434 504.041 88.8534 510.171 88.9434L510.851 88.9434Z" fill="#353F4C" fill-opacity="0.15"/>
<path d="M589.57 108.996C583.9 108.996 583.87 108.996 583.9 114.806C583.9 120.876 583.26 120.116 589.42 120.096C596.26 120.096 595.42 121.096 595.42 114.276C595.42 108.396 596.28 109.086 590.27 108.996L589.57 108.996Z" fill="#353F4C" fill-opacity="0.15"/>
<path d="M510.46 120.095C517.1 119.985 516.29 120.945 516.28 114.345C516.28 108.465 517.19 109.045 511.1 109.055C503.69 109.055 504.97 108.315 504.89 115.055C504.82 120.985 504.6 119.985 510.46 120.095Z" fill="#353F4C" fill-opacity="0.15"/>
<path d="M147.481 120.123C153.951 120.023 153.251 121.053 153.241 114.373C153.241 108.313 154.051 109.023 147.821 109.003C145.921 109.003 143.551 108.213 142.241 109.493C140.931 110.773 141.751 113.153 141.751 115.043C141.751 120.803 141.191 120.043 146.801 120.123C147.001 120.133 147.251 120.123 147.481 120.123Z" fill="#353F4C" fill-opacity="0.15"/>
<path d="M494.89 62.2735C489.51 62.2735 489.35 62.4435 489.34 67.7735C489.33 73.1035 489.5 73.4335 495.1 73.4035C500.26 73.4035 500.47 73.1835 500.49 68.0735L500.49 67.7335C500.48 62.4235 500.33 62.2735 494.89 62.2735Z" fill="#353F4C" fill-opacity="0.15"/>
<path d="M258.131 104.475C264.421 104.355 263.751 105.475 263.751 98.8946C263.751 92.5846 264.381 93.5446 258.341 93.4546C256.861 93.4546 255.391 93.4546 253.921 93.4546C253.695 93.4158 253.463 93.4311 253.245 93.4991C253.026 93.5672 252.827 93.686 252.663 93.846C252.499 94.006 252.375 94.2026 252.302 94.4197C252.228 94.6367 252.208 94.868 252.241 95.0946C252.241 96.2246 252.191 97.3645 252.241 98.4945C252.321 105.495 251.321 104.335 258.131 104.475Z" fill="#353F4C" fill-opacity="0.15"/>
<path d="M463.18 104.445C469.18 104.445 469.18 104.445 469.18 98.4454C469.18 93.5854 469.05 93.4454 464.18 93.4454C463.04 93.4454 461.91 93.4454 460.77 93.4454C458.14 93.5754 457.77 93.8854 457.62 96.3754C457.535 97.9642 457.535 99.5565 457.62 101.145C457.74 103.945 458.07 104.255 460.8 104.405C461.59 104.485 462.39 104.445 463.18 104.445Z" fill="#353F4C" fill-opacity="0.15"/>
<path d="M510.421 93.5626C505.001 93.5626 505.001 93.5625 505.001 98.9225C505.001 104.283 505.001 104.333 510.311 104.333C511.561 104.333 512.811 104.333 514.061 104.333C515.541 104.333 516.061 103.613 516.061 102.243C516.061 100.083 516.061 97.9226 516.061 95.7726C516.061 94.1626 515.321 93.5126 513.761 93.5926C512.701 93.6426 511.561 93.5626 510.421 93.5626Z" fill="#353F4C" fill-opacity="0.15"/>
<path d="M573.869 104.315C579.299 104.315 579.499 104.125 579.459 98.5948C579.459 98.0348 579.459 97.4648 579.459 96.9048C579.249 94.2848 578.739 93.7347 576.209 93.6147C574.634 93.5347 573.055 93.5347 571.479 93.6147C568.969 93.7547 568.409 94.3448 568.269 96.9548C568.194 98.3037 568.194 99.6558 568.269 101.005C568.419 103.595 568.969 104.125 571.529 104.295C572.289 104.355 573.079 104.315 573.869 104.315Z" fill="#353F4C" fill-opacity="0.15"/>
<path d="M589.699 104.455C595.459 104.455 595.459 104.455 595.439 98.6648C595.439 98.3348 595.439 97.9948 595.439 97.6648C595.359 93.6648 595.169 93.5149 591.159 93.4649C589.799 93.4649 588.439 93.4649 587.089 93.4649C584.379 93.5849 584.089 93.8949 583.929 96.7049C583.849 98.2839 583.849 99.8659 583.929 101.445C584.069 103.985 584.419 104.295 586.979 104.445C587.889 104.495 588.799 104.455 589.699 104.455Z" fill="#353F4C" fill-opacity="0.15"/>
<path d="M574 88.7355C579.32 88.7355 579.32 88.7355 579.32 83.4055C579.32 78.0755 579.32 77.9255 573.96 77.9655C567.67 77.9655 568.27 77.2555 568.26 83.5455C568.26 89.1855 567.75 88.6855 573.32 88.7355L574 88.7355Z" fill="#353F4C" fill-opacity="0.15"/>
<path d="M589.661 77.8845C584.041 77.8845 583.951 77.9545 583.971 83.5045C583.971 88.6445 584.141 88.7945 589.321 88.8145C595.321 88.8145 595.401 88.8145 595.321 82.8145C595.321 82.2545 595.321 81.6845 595.321 81.1245C595.141 78.5645 594.601 78.0345 592.021 77.8745C591.241 77.8445 590.451 77.8845 589.661 77.8845Z" fill="#353F4C" fill-opacity="0.15"/>
<path d="M-5.29297e-06 51.3759C-5.82275e-06 57.4359 0.239975 57.7059 5.47997 57.6859C6.04997 57.6859 6.61999 57.6859 7.17999 57.6859C9.97999 57.4959 10.47 56.9959 10.63 54.1759C10.6501 53.9497 10.6501 53.7221 10.63 53.4959C10.38 51.4959 11.63 48.7559 9.45001 47.4959C7.27001 46.2359 4.36002 46.7959 1.78002 47.1459C1.32555 47.2241 0.912 47.4569 0.609492 47.805C0.306984 48.153 0.134066 48.595 0.11999 49.0559C-9.94507e-06 50.0459 -5.26587e-06 51.0659 -5.29297e-06 51.3759Z" fill="#353F4C" fill-opacity="0.15"/>
<path d="M536.861 52.2452C536.861 57.5552 537.081 57.7952 542.371 57.7752C542.821 57.7752 543.271 57.7752 543.721 57.7752C546.961 57.6352 547.471 57.1552 547.581 53.9952C547.581 52.6452 547.641 51.2852 547.581 49.9352C547.441 47.5552 546.901 47.0252 544.481 46.8452C543.125 46.7652 541.766 46.7652 540.411 46.8452C537.471 47.0052 537.011 47.5152 536.891 50.5852C536.841 51.1152 536.861 51.6852 536.861 52.2452Z" fill="#353F4C" fill-opacity="0.15"/>
<path d="M163.411 42.3939C168.821 42.3939 168.901 42.3039 168.901 36.8639C168.901 31.4239 168.901 31.254 163.161 31.254C157.421 31.254 157.511 31.254 157.521 36.954C157.521 42.384 157.541 42.3939 163.411 42.3939Z" fill="#353F4C" fill-opacity="0.15"/>
<path d="M211.709 89.0431C216.959 88.9331 216.889 90.0431 216.879 83.5031C216.879 77.3731 217.119 78.2131 211.619 78.1331C210.489 78.1331 209.349 78.1331 208.219 78.1331C205.699 78.2331 205.639 78.2831 205.559 80.9331C205.509 82.7431 205.509 84.5631 205.559 86.3731C205.639 88.8831 205.709 88.9331 208.369 89.0131C209.389 89.0731 210.419 89.0431 211.709 89.0431Z" fill="#353F4C" fill-opacity="0.15"/>
<path d="M473.461 36.7443C473.521 43.1443 472.871 42.2344 479.121 42.2944C484.451 42.2944 484.471 42.2944 484.451 37.0644C484.451 30.0044 484.591 31.4243 478.951 31.3643C472.821 31.2943 473.521 30.7443 473.461 36.7443Z" fill="#353F4C" fill-opacity="0.15"/>
<path d="M589.84 42.4332C595.49 42.4332 595.49 42.4332 595.49 36.9032C595.49 31.2032 595.49 31.2032 589.65 31.2032C583.81 31.2032 583.83 31.2032 583.83 36.9332C583.83 42.4332 583.83 42.4332 589.84 42.4332Z" fill="#353F4C" fill-opacity="0.15"/>
<path d="M194.43 15.8832L193.43 15.8832C189.65 15.9532 189.24 16.3832 189.16 20.2832C189.03 26.2832 189.25 26.5632 195.34 26.5132C196.02 26.5132 196.7 26.5132 197.34 26.5132C199.46 26.2932 200.01 25.7132 200.23 23.5132C200.28 22.9532 200.23 22.3832 200.23 21.8232C200.35 16.0532 200.17 15.8732 194.43 15.8832Z" fill="#353F4C" fill-opacity="0.15"/>
<path d="M289.38 15.7529C284.09 15.7529 284.09 15.753 284.09 21.103C284.09 26.623 284.09 26.6829 289.53 26.6129C294.97 26.5429 295 27.7629 295 21.1229C295 14.6629 295.1 15.8929 289.38 15.7529Z" fill="#353F4C" fill-opacity="0.15"/>
<path d="M384.25 26.7246C390.08 26.7246 390.08 26.7246 390.07 20.9746C390.07 15.7046 390.07 15.6646 384.81 15.6446C378.45 15.6446 378.45 15.6446 378.5 21.9346C378.5 22.1646 378.5 22.3846 378.5 22.6146C378.58 26.4246 378.8 26.6146 382.5 26.7146C383.12 26.7346 383.68 26.7246 384.25 26.7246Z" fill="#353F4C" fill-opacity="0.15"/>
<path d="M383.69 110.043C389.21 110.043 389.35 109.913 389.31 104.283C389.31 103.713 389.31 103.143 389.31 102.583C389.13 99.9332 388.64 99.3632 386.08 99.2432C384.27 99.1532 382.45 99.2432 380.64 99.2432C380.326 99.227 380.012 99.2746 379.717 99.3831C379.421 99.4917 379.151 99.659 378.922 99.8748C378.693 100.091 378.51 100.351 378.384 100.639C378.259 100.928 378.193 101.239 378.19 101.553C378.09 102.453 378.08 103.363 378.07 104.263C378 109.823 378.23 110.053 383.69 110.043Z" fill="#353F4C" fill-opacity="0.15"/>
<path d="M463.481 26.693C469.611 26.563 469.051 27.693 469.061 21.053C469.061 14.823 469.521 15.693 463.521 15.703C456.771 15.703 457.671 14.763 457.631 21.703C457.631 27.323 457.151 26.643 462.461 26.703L463.481 26.693Z" fill="#353F4C" fill-opacity="0.15"/>
<path d="M510.711 26.7338C517.101 26.6238 516.331 27.6438 516.331 21.1738C516.331 14.7038 517.121 15.6538 510.661 15.6638C504.201 15.6738 504.851 14.6638 504.841 21.3938C504.831 27.7138 504.221 26.6138 510.711 26.7338Z" fill="#353F4C" fill-opacity="0.15"/>
<path d="M574 26.6661C579.41 26.6661 579.57 26.5061 579.57 21.2161C579.57 20.5361 579.57 19.8561 579.57 19.2161C579.38 16.3761 578.91 15.8761 576.09 15.7861C574.28 15.7361 572.47 15.7861 570.66 15.8461C570.346 15.8198 570.03 15.8613 569.734 15.9677C569.437 16.0742 569.167 16.2431 568.941 16.4631C568.715 16.6831 568.54 16.949 568.426 17.2428C568.312 17.5366 568.262 17.8515 568.28 18.1661C568.23 19.0661 568.19 19.9761 568.19 20.8761C568.08 26.6561 568.1 26.6661 574 26.6661Z" fill="#353F4C" fill-opacity="0.15"/>
<path d="M589.78 26.7651C595.49 26.7651 595.49 26.7651 595.48 20.9051C595.48 15.6251 595.48 15.595 590.22 15.615C583.68 15.615 583.84 15.015 583.85 21.835C583.85 26.745 583.85 26.7451 588.76 26.7651L589.78 26.7651Z" fill="#353F4C" fill-opacity="0.15"/>
<path d="M257.931 0.275098C252.651 0.275097 252.421 0.495106 252.451 5.81511C252.433 6.48219 252.45 7.14973 252.501 7.81511C252.711 9.98511 253.271 10.6151 255.411 10.8151C257.099 10.9301 258.793 10.9301 260.481 10.8151C262.701 10.6951 263.301 10.1351 263.481 7.9951C263.606 6.42091 263.606 4.83931 263.481 3.26512C263.321 0.925119 262.751 0.445119 260.291 0.265119C259.511 0.235119 258.721 0.275098 257.931 0.275098Z" fill="#353F4C" fill-opacity="0.15"/>
<path d="M574.001 11.0825C579.431 11.1425 579.541 11.0826 579.551 5.69256C579.551 5.23256 579.551 4.78256 579.551 4.32256C579.451 0.472562 579.091 0.102552 575.181 0.0625517C573.601 0.0625515 572.011 0.0625587 570.421 0.132559C570.107 0.0979034 569.79 0.133993 569.492 0.23818C569.194 0.342367 568.924 0.511992 568.7 0.734579C568.477 0.957166 568.306 1.22706 568.201 1.52437C568.095 1.82169 568.058 2.13886 568.091 2.45257C568.091 4.45257 568.091 6.53256 568.091 8.57256C568.051 8.91391 568.09 9.25975 568.205 9.58379C568.319 9.90783 568.506 10.2015 568.751 10.4426C568.996 10.6836 569.292 10.8656 569.618 10.9748C569.944 11.0839 570.29 11.1174 570.631 11.0726C571.781 11.0926 572.921 11.0825 574.001 11.0825Z" fill="#353F4C" fill-opacity="0.15"/>
<path d="M552.53 67.905C552.53 73.245 552.67 73.385 558.07 73.405C563.27 73.405 563.5 73.195 563.52 68.145C563.52 62.345 563.44 62.255 557.64 62.275C557.18 62.275 556.73 62.275 556.28 62.275C553.1 62.415 552.63 62.905 552.53 66.175C552.51 66.765 552.53 67.335 552.53 67.905Z" fill="#353F4C" fill-opacity="0.15"/>
<path d="M552.501 5.84335L552.501 6.56335C552.561 10.9134 552.761 11.1134 557.171 11.1634C563.601 11.2334 563.601 11.2333 563.541 4.87335C563.541 4.30335 563.541 3.73334 563.541 3.17334C563.351 0.673338 562.991 0.283338 560.451 0.173337C558.865 0.0933315 557.276 0.0933313 555.691 0.173337C553.191 0.293337 552.761 0.743337 552.581 3.17334C552.521 4.07334 552.581 4.98336 552.581 5.88336L552.501 5.84335Z" fill="#353F4C" fill-opacity="0.15"/>
<path d="M352.541 11.1326C358.161 11.1326 358.201 11.1326 358.191 5.45257C358.191 0.142567 358.121 0.0825521 352.951 0.0625516C347.111 0.0625511 347.111 0.0625473 347.131 5.90255L347.131 6.56255C347.191 10.8026 347.421 11.0425 351.521 11.1125L352.541 11.1326Z" fill="#353F4C" fill-opacity="0.15"/>
<path d="M305.21 0.10552C299.43 0.18552 299.96 -0.604483 299.98 5.41552C299.98 11.7855 299.19 11.0955 305.5 11.1055C311.63 11.1055 310.91 11.7155 310.91 5.62551C310.91 -0.73449 311.57 0.205521 305.21 0.10552Z" fill="#353F4C" fill-opacity="0.15"/>
<path d="M236.629 5.86348C236.689 11.7335 235.939 11.2035 241.839 11.1635C248.639 11.1635 247.649 12.1035 247.689 5.1635C247.689 -0.696496 248.209 0.10349 242.689 0.0234891C241.329 0.023489 239.969 0.0234889 238.619 0.0234888C237.269 0.0234886 236.619 0.713496 236.619 2.0935C236.619 3.4735 236.629 4.61348 236.629 5.86348Z" fill="#353F4C" fill-opacity="0.15"/>
<path d="M428.921 52.3829C423.071 52.4529 423.621 51.7128 423.641 57.6128C423.641 64.2228 422.871 63.2728 429.441 63.2928C435.021 63.2928 434.501 64.0828 434.561 58.2928L434.561 57.9529C434.481 51.5629 435.221 52.4829 428.921 52.3829Z" fill="#353F4C" fill-opacity="0.15"/>
<path d="M547.431 20.9144C547.431 20.2344 547.431 19.5544 547.431 18.9144C547.431 17.1744 546.551 16.1344 544.751 16.0844C542.951 16.0344 541.351 16.0344 539.651 16.0844C539.022 16.0635 538.409 16.2822 537.936 16.6962C537.463 17.1102 537.164 17.6887 537.101 18.3144C535.701 24.8844 537.361 26.8744 543.991 26.4644C546.761 26.2844 547.301 25.7544 547.461 22.9744C547.461 22.3044 547.461 21.6244 547.461 20.9744L547.431 20.9144Z" fill="#353F4C" fill-opacity="0.15"/>
<path d="M495.46 26.5628C496.25 26.5628 497.04 26.5628 497.83 26.5628C498.457 26.5666 499.062 26.3307 499.521 25.9031C499.98 25.4756 500.259 24.8888 500.3 24.2628C501.74 17.3628 498.98 14.5827 492.07 15.8927C491.444 15.9333 490.858 16.21 490.429 16.6668C490 17.1235 489.761 17.7262 489.76 18.3528C489.656 19.9306 489.633 21.5126 489.69 23.0928C489.81 25.9028 490.36 26.4428 493.09 26.5928C493.88 26.6428 494.67 26.5928 495.46 26.5928L495.46 26.5628Z" fill="#353F4C" fill-opacity="0.15"/>
<path d="M478.87 26.5655C483.97 26.5655 484.23 26.3055 484.22 21.1555L484.22 20.8155C484.22 16.3355 483.79 15.9455 479.39 15.8955C473.78 15.8455 473.53 16.0855 473.56 21.4855C473.58 26.2655 473.88 26.5655 478.87 26.5655Z" fill="#353F4C" fill-opacity="0.15"/>
<path d="M447.62 26.5626L449 26.5626C452.23 26.4426 452.73 25.9526 452.89 22.7826C453.22 16.0826 452.79 15.6326 446.05 15.8426C442.63 15.9526 442.14 16.4426 442.05 19.8426C442.05 20.1826 442.05 20.5226 442.05 20.8426C441.94 26.3726 442.15 26.5626 447.62 26.5626Z" fill="#353F4C" fill-opacity="0.15"/>
<path d="M415.95 26.5652C421.03 26.5652 421.27 26.3352 421.26 21.1652C421.26 20.8252 421.26 20.4952 421.26 20.1652C421.16 16.3852 420.73 15.9852 416.83 15.9152C410.9 15.8252 410.63 16.0652 410.65 21.4952C410.66 26.2452 411 26.5652 415.95 26.5652Z" fill="#353F4C" fill-opacity="0.15"/>
<path d="M331.58 21.2435C331.58 21.6935 331.58 22.1535 331.58 22.6035C331.7 25.8135 332.21 26.3436 335.33 26.4836C335.443 26.4936 335.557 26.4936 335.67 26.4836C337.67 26.2136 340.31 27.4235 341.67 25.2435C343.03 23.0635 342.33 20.4135 342.09 17.9635C342.049 17.4402 341.81 16.9521 341.422 16.5989C341.034 16.2458 340.525 16.0543 340 16.0635C338 15.9735 335.94 15.9635 333.92 16.0635C333.343 16.0659 332.79 16.2927 332.378 16.6959C331.965 17.0991 331.726 17.6469 331.71 18.2235C331.59 19.2235 331.59 20.2235 331.54 21.2235L331.58 21.2435Z" fill="#353F4C" fill-opacity="0.15"/>
<path d="M226.13 16.0438C225.34 16.0438 224.54 16.0438 223.75 16.0438C223.408 16.0324 223.068 16.0919 222.75 16.2184C222.432 16.3449 222.144 16.5358 221.904 16.7791C221.663 17.0223 221.476 17.3127 221.353 17.6318C221.23 17.951 221.175 18.2922 221.19 18.6338C221.19 18.8638 221.19 19.0838 221.19 19.3138C220.68 26.0438 222.46 27.5938 229.19 26.3638C229.819 26.3358 230.413 26.0688 230.852 25.6171C231.291 25.1654 231.54 24.5633 231.55 23.9338C231.656 22.356 231.673 20.7735 231.6 19.1938C231.47 16.7838 230.88 16.1938 228.6 16.0038C227.82 15.9338 227.02 16.0038 226.23 16.0038L226.13 16.0438Z" fill="#353F4C" fill-opacity="0.15"/>
<path d="M558.091 42.4035C563.611 42.4035 563.611 42.4035 563.621 37.0235C563.621 31.2135 563.621 31.2135 557.781 31.2235C552.471 31.2235 552.451 31.2235 552.431 36.4835L552.431 36.8235C552.431 42.4135 552.431 42.4135 558.091 42.4035Z" fill="#353F4C" fill-opacity="0.15"/>
<path d="M536.95 36.6657C536.95 41.9057 537.2 42.1857 542.53 42.1457C543.432 42.1558 544.333 42.1158 545.23 42.0257C545.798 41.9713 546.328 41.7191 546.728 41.3133C547.129 40.9075 547.374 40.3738 547.42 39.8057C548.8 33.2357 547.31 31.3457 540.92 31.5957C537.59 31.7257 537.07 32.2557 536.92 35.6457C536.94 35.9857 536.95 36.3257 536.95 36.6657Z" fill="#353F4C" fill-opacity="0.15"/>
<path d="M447.36 42.2248C453.36 42.1248 452.94 43.0548 452.95 36.4748C452.95 30.9648 453.21 31.4148 448.01 31.4748C441.17 31.4748 442.01 30.6348 441.95 37.3848C441.92 42.8848 441.64 42.1548 447.36 42.2248Z" fill="#353F4C" fill-opacity="0.15"/>
<path d="M415.951 31.4534C410.831 31.4534 410.581 31.7034 410.581 36.8434C410.581 41.9834 410.811 42.2234 415.941 42.2334C421.071 42.2434 421.311 42.0134 421.311 36.8634C421.311 31.7134 421.061 31.4434 415.951 31.4534Z" fill="#353F4C" fill-opacity="0.15"/>
<path d="M347.36 36.9255C347.36 37.3855 347.36 37.8355 347.36 38.2855C347.49 41.5155 347.98 42.0055 351.14 42.1455C357.67 42.4255 358.14 41.9355 357.89 35.4755C357.75 32.2755 357.23 31.7455 354.09 31.5955C353.64 31.5955 353.19 31.5955 352.74 31.5955C347.66 31.5655 347.35 31.8755 347.36 36.9255Z" fill="#353F4C" fill-opacity="0.15"/>
<path d="M131.49 42.3456C132.63 42.3456 133.76 42.3456 134.9 42.3456C136.41 42.4156 137.26 41.8756 137.23 40.2256C137.23 37.9556 137.23 35.6856 137.23 33.4156C137.23 32.0656 136.76 31.2656 135.23 31.2856C132.73 31.2856 130.23 31.2856 127.73 31.2856C126.43 31.2856 125.93 31.9856 125.93 33.2056C125.93 35.4756 125.99 37.7556 125.93 40.0256C125.87 41.8256 126.72 42.4356 128.4 42.3356C129.44 42.2956 130.47 42.3456 131.49 42.3456Z" fill="#353F4C" fill-opacity="0.15"/>
<path d="M541.94 62.4341C541.37 62.4341 540.8 62.4341 540.24 62.4341C537.62 62.6241 537.07 63.1641 536.88 65.6841C536.84 66.1366 536.84 66.5917 536.88 67.0441C537.08 68.8841 536.07 71.2941 538.08 72.3741C540.53 73.6941 543.39 73.2042 546.08 72.6442C547.16 72.4142 547.53 71.2942 547.57 70.2042C547.57 68.8442 547.66 67.4841 547.57 66.1241C547.47 63.1241 546.96 62.5841 543.98 62.4141C543.3 62.4141 542.62 62.4141 541.98 62.4141L541.94 62.4341Z" fill="#353F4C" fill-opacity="0.15"/>
<path d="M552.51 83.326C552.51 88.786 552.59 88.8659 557.99 88.8559C563.39 88.8459 563.52 88.786 563.52 83.376C563.52 77.966 563.52 77.836 558.06 77.836C552.6 77.836 552.51 77.896 552.51 83.326Z" fill="#353F4C" fill-opacity="0.15"/>
<path d="M536.8 83.146C536.88 89.406 536.09 88.746 542.44 88.756C548.12 88.756 547.63 89.216 547.62 83.706C547.62 77.136 548.31 77.966 541.81 77.946C536.4 77.936 536.84 77.316 536.8 83.146Z" fill="#353F4C" fill-opacity="0.15"/>
<path d="M526.84 88.785C527.29 88.785 527.74 88.785 528.19 88.785C531.47 88.655 531.89 88.245 532.03 85.045C532.35 77.905 532.03 77.615 524.85 77.895C521.57 78.015 521.14 78.435 520.99 81.635C520.99 82.085 520.99 82.535 520.99 82.985C520.94 88.665 521.1 88.825 526.84 88.785Z" fill="#353F4C" fill-opacity="0.15"/>
<path d="M432 88.5641C432.79 88.5641 433.59 88.5641 434.38 88.5641C434.723 88.5771 435.065 88.5185 435.384 88.3919C435.703 88.2653 435.992 88.0735 436.233 87.8288C436.474 87.5842 436.661 87.292 436.783 86.9709C436.905 86.6498 436.958 86.307 436.94 85.9641C437.24 77.7441 437.31 77.8341 429.11 78.1341C428.767 78.1198 428.424 78.1772 428.105 78.3025C427.785 78.4279 427.495 78.6185 427.253 78.8622C427.012 79.1059 426.823 79.3973 426.7 79.7179C426.577 80.0385 426.523 80.3812 426.54 80.7241C426.48 81.5141 426.47 82.3041 426.47 83.0941C426.42 88.3341 426.71 88.6241 432 88.5641Z" fill="#353F4C" fill-opacity="0.15"/>
<path d="M347.451 83.5653C347.451 84.3553 347.451 85.1553 347.451 85.9353C347.439 86.2775 347.497 86.6186 347.622 86.9374C347.747 87.2561 347.937 87.5456 348.179 87.7877C348.421 88.0299 348.71 88.2194 349.029 88.3446C349.348 88.4698 349.689 88.5279 350.031 88.5153L350.711 88.5153C357.371 89.0353 359.021 87.1553 357.771 80.5153C357.736 79.8871 357.465 79.2952 357.013 78.8577C356.561 78.4203 355.96 78.1695 355.331 78.1553C353.867 78.057 352.398 78.0337 350.931 78.0853C348.111 78.1953 347.581 78.7453 347.401 81.4853C347.401 82.1553 347.401 82.8353 347.401 83.4853L347.451 83.5653Z" fill="#353F4C" fill-opacity="0.15"/>
<path d="M558.061 93.4258C552.441 93.4258 552.441 93.4258 552.441 99.0058C552.441 104.586 552.441 104.486 557.811 104.496C563.611 104.496 563.611 104.496 563.601 98.7458C563.591 93.4258 563.591 93.4258 558.061 93.4258Z" fill="#353F4C" fill-opacity="0.15"/>
<path d="M542.211 104.496C547.801 104.496 547.801 104.496 547.801 98.8758C547.801 93.4358 547.801 93.4358 542.391 93.4258C536.621 93.4258 536.621 93.4259 536.631 99.2159C536.641 104.496 536.641 104.496 542.211 104.496Z" fill="#353F4C" fill-opacity="0.15"/>
<path d="M526.78 104.326C532.35 104.246 531.96 105.006 531.94 99.3257C531.94 92.7557 532.68 93.6757 526.09 93.6557C520.85 93.6557 521.09 92.8657 521.09 98.8357C521.09 105.246 520.75 104.266 526.48 104.366L526.78 104.326Z" fill="#353F4C" fill-opacity="0.15"/>
<path d="M478.67 93.6236C477.99 93.6236 477.3 93.6236 476.67 93.6236C474.48 93.8036 473.74 94.3436 473.67 96.4636C473.33 104.904 473.39 104.464 481.53 104.244C481.901 104.269 482.273 104.213 482.619 104.079C482.966 103.946 483.28 103.74 483.539 103.473C483.797 103.207 483.995 102.887 484.118 102.537C484.241 102.186 484.286 101.813 484.25 101.444C484.25 100.654 484.31 99.8636 484.32 99.0636C484.28 93.8236 484 93.5636 478.67 93.6236Z" fill="#353F4C" fill-opacity="0.15"/>
<path d="M473.59 114.615L473.59 115.295C473.66 119.515 474.03 119.885 478.36 119.915C483.93 119.915 484.28 119.615 484.18 113.915C484.12 109.845 483.66 109.365 479.72 109.285L479 109.285C473.88 109.285 473.59 109.565 473.59 114.615Z" fill="#353F4C" fill-opacity="0.15"/>
<path d="M442.11 114.713C442.11 115.273 442.11 115.843 442.11 116.413C442.28 119.163 442.84 119.743 445.62 119.863C447.09 119.933 448.62 119.863 450.04 119.863C450.384 119.878 450.727 119.822 451.048 119.7C451.369 119.578 451.662 119.391 451.908 119.151C452.155 118.911 452.349 118.623 452.48 118.306C452.611 117.988 452.676 117.646 452.67 117.303C452.67 117.073 452.67 116.853 452.67 116.623C453.24 109.923 451.02 108.023 444.38 109.473C443.81 109.524 443.276 109.775 442.872 110.181C442.468 110.587 442.22 111.122 442.17 111.693C442.05 112.693 442.05 113.693 441.99 114.693L442.11 114.713Z" fill="#353F4C" fill-opacity="0.15"/>
<path d="M347.091 114.756C347.091 120.136 347.091 120.136 352.571 120.136C358.231 120.136 358.231 120.136 358.231 114.586C358.231 109.036 358.231 108.996 352.571 108.996C347.091 109.006 347.091 109.006 347.091 114.756Z" fill="#353F4C" fill-opacity="0.15"/>
<path d="M226.31 119.994C232.31 119.914 231.74 120.724 231.74 114.544C231.74 108.544 232.37 109.154 226.24 109.154C220.42 109.154 221.02 108.634 220.97 114.444C220.96 114.557 220.96 114.671 220.97 114.784C221 120.654 220.52 119.924 226.31 119.994Z" fill="#353F4C" fill-opacity="0.15"/>
</svg>
