<svg width="596" height="130" viewBox="0 0 596 130" fill="none" xmlns="http://www.w3.org/2000/svg">
<path d="M437.921 61.7986C437.921 56.2386 437.921 56.3086 432.421 56.2186C425.601 56.0986 426.721 57.0686 426.681 62.0486C426.631 68.0986 426.771 67.2386 431.771 67.3086L432.491 67.3086C438.491 67.2586 437.871 67.8486 437.921 61.7986Z" fill="#353F4C" fill-opacity="0.15"/>
<path d="M542.489 56.3892C541.799 56.3892 541.119 56.3892 540.439 56.3892C538.019 56.5692 537.509 57.0692 537.439 59.5292C537.369 61.2292 537.379 62.9392 537.439 64.6392C537.408 64.9825 537.453 65.3285 537.571 65.6522C537.69 65.9758 537.879 66.269 538.125 66.5103C538.371 66.7517 538.668 66.9351 538.994 67.0474C539.32 67.1596 539.667 67.1978 540.009 67.1592C541.829 67.1592 543.649 67.1592 545.469 67.1592C545.81 67.2038 546.157 67.1727 546.485 67.0682C546.812 66.9636 547.113 66.7881 547.365 66.5542C547.617 66.3203 547.814 66.0337 547.943 65.7148C548.072 65.3959 548.129 65.0526 548.109 64.7092C548.199 63.0092 548.209 61.2992 548.109 59.5992C548.019 56.9892 547.519 56.5192 544.819 56.3892C544.029 56.3892 543.229 56.3892 542.439 56.3892L542.489 56.3892Z" fill="#353F4C" fill-opacity="0.15"/>
<path d="M27.4289 77.0002C27.4289 71.6402 27.4289 71.6102 21.8789 71.5902C15.8789 71.5902 15.8789 71.5901 15.8789 77.6701C15.8789 78.1301 15.8789 78.5802 15.8789 79.0302C16.0089 82.3002 16.4689 82.8002 19.6489 82.9002C21.2346 82.9802 22.8233 82.9802 24.4089 82.9002C26.9089 82.7202 27.2689 82.2902 27.4089 79.7602C27.4889 78.8402 27.4289 77.9302 27.4289 77.0002Z" fill="#353F4C" fill-opacity="0.15"/>
<path d="M100.64 71.6195C94.3499 71.6795 94.9599 70.9795 94.9699 77.2595C94.97 83.2595 94.0999 82.8995 100.64 82.8995C105.17 82.8995 106.29 83.8995 106.09 77.5095C106.09 77.3995 106.09 77.2794 106.09 77.1694C106.15 70.3694 105.89 71.7695 100.64 71.6195Z" fill="#353F4C" fill-opacity="0.15"/>
<path d="M343.17 77.298C343.07 71.778 344.11 71.7581 337.67 71.7681C331.85 71.7681 331.85 71.7681 331.85 77.5181C331.85 82.6881 331.85 82.708 336.85 82.718L337.53 82.718C343.17 82.718 343.17 82.718 343.17 77.298Z" fill="#353F4C" fill-opacity="0.15"/>
<path d="M11.6092 61.7491C11.4592 55.7491 12.7392 56.2091 5.90915 56.2091C-0.920846 56.2091 0.0991544 55.6991 0.0691549 61.9291C0.0691554 67.9291 -0.700845 67.2891 5.56916 67.3391L5.91916 67.3391C12.3592 67.2791 11.4892 67.9991 11.6092 61.7491Z" fill="#353F4C" fill-opacity="0.15"/>
<path d="M315.911 61.9191C315.911 67.2791 315.971 67.3291 321.471 67.3391C327.471 67.3391 327.471 67.3391 327.471 61.3391C327.471 56.3391 327.301 56.1691 322.411 56.1191L321.731 56.1191C315.971 56.0991 315.901 56.1591 315.911 61.9191Z" fill="#353F4C" fill-opacity="0.15"/>
<path d="M21.5996 87.2083C15.5396 87.3383 15.9496 86.2083 15.9796 92.7783C15.9796 98.8283 15.0396 98.2483 21.6596 98.2883C27.4396 98.2883 27.4796 98.2883 27.4296 92.5483C27.3896 86.3283 28.1296 87.3083 21.5996 87.2083Z" fill="#353F4C" fill-opacity="0.15"/>
<path d="M137.889 92.4383C137.889 86.4983 138.439 87.1983 132.599 87.2283C125.549 87.2283 126.419 86.0883 126.389 93.5783C126.389 98.5783 125.739 98.2583 131.179 98.2883C132.759 98.2883 134.339 98.2883 135.929 98.2183C137.269 98.2183 138.009 97.6583 137.929 96.2183C137.829 94.9383 137.889 93.6883 137.889 92.4383Z" fill="#353F4C" fill-opacity="0.15"/>
<path d="M195.42 129.429C200.94 129.429 200.94 129.429 200.94 123.969C200.94 118.509 200.94 118.489 195.56 118.479C189.71 118.479 189.69 118.479 189.72 124.229C189.75 129.979 189.27 129.369 194.72 129.429L195.42 129.429Z" fill="#353F4C" fill-opacity="0.15"/>
<path d="M21.5506 9.4396C15.4606 9.5696 15.9306 8.38957 15.9506 15.0996C15.9506 21.2496 15.1606 20.5196 21.3606 20.5596C23.2706 20.5596 25.6706 21.3296 26.9606 20.0196C28.2506 18.7096 27.4406 16.3296 27.4406 14.4196C27.4406 8.80958 27.9306 9.50958 22.5706 9.41958C22.2306 9.42958 21.8906 9.4396 21.5506 9.4396Z" fill="#353F4C" fill-opacity="0.15"/>
<path d="M21.7399 67.3888C27.5099 67.3888 27.5099 67.3888 27.4999 61.5188C27.4999 56.0888 27.4999 56.0688 22.0199 56.0588C15.7899 56.0588 15.7899 56.0588 15.8299 62.2588C15.8299 62.7088 15.8299 63.1688 15.8299 63.6188C15.9699 66.8488 16.4099 67.2788 19.6899 67.3888C20.3799 67.4088 21.0599 67.3888 21.7399 67.3888Z" fill="#353F4C" fill-opacity="0.15"/>
<path d="M132.24 55.9981C126.24 55.9981 126.24 55.9981 126.24 61.9981C126.24 67.3181 126.24 67.3581 131.52 67.3581C138.52 67.3581 137.92 67.5481 137.98 60.8381C137.98 60.4981 137.98 60.1581 137.98 59.8381C137.89 56.4481 137.62 56.1781 134.27 56.0281C133.6 55.9981 132.92 55.9981 132.24 55.9981Z" fill="#353F4C" fill-opacity="0.15"/>
<path d="M94.9994 124.09C94.9994 130.35 94.5594 129.5 100.539 129.46C106.219 129.46 106.039 130.78 106.029 124.1C106.029 118.74 107.029 118.32 100.239 118.42C94.1094 118.5 95.1294 118.02 94.9994 123.75L94.9994 124.09Z" fill="#353F4C" fill-opacity="0.15"/>
<path d="M284.301 0.00108251C278.491 0.101083 278.871 -0.868928 278.931 5.55107C278.981 11.2311 277.791 10.9511 284.401 11.0211C291.311 11.0911 289.981 10.5611 290.011 5.55107C290.061 -1.12893 290.311 0.171082 284.301 0.00108251Z" fill="#353F4C" fill-opacity="0.15"/>
<path d="M42.8696 77.249C42.8696 71.819 42.8696 71.819 37.5196 71.819C32.1696 71.819 32.0596 71.819 32.0496 77.199C32.0396 82.579 32.0496 82.6689 37.4796 82.6589C42.9096 82.6489 42.8696 82.659 42.8696 77.249Z" fill="#353F4C" fill-opacity="0.15"/>
<path d="M122.1 77.139C122.1 71.709 122.02 71.639 116.59 71.629C110.97 71.629 110.84 71.7489 110.84 77.2289C110.84 82.7089 111 82.929 116.53 82.929L117.53 82.929C121.67 82.859 122.02 82.509 122.08 78.489C122.11 77.999 122.1 77.589 122.1 77.139Z" fill="#353F4C" fill-opacity="0.15"/>
<path d="M268.721 77.609C268.721 82.789 268.841 82.899 274.071 82.929C280.071 82.929 280.191 82.849 280.161 76.929C280.161 76.699 280.161 76.469 280.161 76.249C280.081 71.969 279.791 71.679 275.451 71.629L274.771 71.629C268.701 71.609 268.701 71.609 268.721 77.609Z" fill="#353F4C" fill-opacity="0.15"/>
<path d="M68.9603 67.2013C74.3603 67.0513 74.6103 68.4313 74.5703 61.4013C74.5703 56.4013 74.5703 56.3413 69.3703 56.4013C61.9603 56.4013 63.5603 56.3113 63.4803 62.1113C63.4003 67.3513 62.7203 67.2413 68.6203 67.2413L68.9603 67.2013Z" fill="#353F4C" fill-opacity="0.15"/>
<path d="M84.6394 40.6184C78.1694 40.7184 79.1794 39.8584 79.1594 46.2584C79.1394 52.6584 78.4194 51.7584 84.7994 51.7584C91.3294 51.7584 90.6794 52.7584 90.6594 46.0984C90.6594 39.9184 91.4494 40.7084 85.3194 40.6184L84.6394 40.6184Z" fill="#353F4C" fill-opacity="0.15"/>
<path d="M5.91993 20.5696C11.5899 20.5696 11.6199 20.5696 11.5899 14.7596C11.5899 8.68959 12.2299 9.44955 6.06993 9.46955C-0.770075 9.46955 0.0699255 8.46956 0.0699261 15.2896C0.0699266 21.1696 -0.790074 20.4796 5.21993 20.5696L5.91993 20.5696Z" fill="#353F4C" fill-opacity="0.15"/>
<path d="M85.0303 9.4704C78.3903 9.5804 79.2003 8.6204 79.2103 15.2204C79.2103 21.1004 78.3003 20.5204 84.3903 20.5104C91.8003 20.5104 90.5203 21.2504 90.6003 14.5104C90.6703 8.58044 90.8903 9.5804 85.0303 9.4704Z" fill="#353F4C" fill-opacity="0.15"/>
<path d="M448.009 9.43895C441.539 9.53895 442.239 8.50895 442.249 15.1889C442.249 21.2489 441.439 20.5389 447.669 20.5589C449.569 20.5589 451.939 21.349 453.249 20.069C454.559 18.789 453.739 16.409 453.739 14.519C453.739 8.75896 454.299 9.51895 448.689 9.43895C448.489 9.42895 448.239 9.43895 448.009 9.43895Z" fill="#353F4C" fill-opacity="0.15"/>
<path d="M100.6 67.2883C105.98 67.2883 106.14 67.1183 106.15 61.7883C106.16 56.4583 105.99 56.1283 100.39 56.1583C95.23 56.1583 95.02 56.3783 95 61.4883L95 61.8284C95.01 67.1384 95.16 67.2883 100.6 67.2883Z" fill="#353F4C" fill-opacity="0.15"/>
<path d="M337.359 25.0912C331.069 25.2112 331.739 24.0912 331.739 30.6712C331.739 36.9812 331.109 36.0212 337.149 36.1112C338.629 36.1112 340.099 36.1112 341.569 36.1112C341.795 36.1499 342.027 36.1347 342.246 36.0666C342.464 35.9986 342.664 35.8797 342.828 35.7197C342.992 35.5597 343.115 35.3631 343.189 35.1461C343.262 34.9291 343.283 34.6978 343.249 34.4712C343.249 33.3412 343.299 32.2012 343.249 31.0712C343.169 24.0712 344.169 25.2312 337.359 25.0912Z" fill="#353F4C" fill-opacity="0.15"/>
<path d="M132.311 25.1204C126.311 25.1204 126.311 25.1204 126.311 31.1204C126.311 35.9804 126.441 36.1204 131.311 36.1204C132.451 36.1204 133.581 36.1204 134.721 36.1204C137.351 35.9904 137.721 35.6804 137.871 33.1904C137.956 31.6015 137.956 30.0092 137.871 28.4204C137.751 25.6204 137.421 25.3103 134.691 25.1603C133.901 25.0803 133.101 25.1204 132.311 25.1204Z" fill="#353F4C" fill-opacity="0.15"/>
<path d="M85.0697 35.9993C90.4897 35.9993 90.4897 35.9993 90.4897 30.6393C90.4897 25.2793 90.4897 25.2293 85.1797 25.2293C83.9297 25.2293 82.6797 25.2293 81.4297 25.2293C79.9497 25.2293 79.4297 25.9493 79.4297 27.3193C79.4297 29.4793 79.4297 31.6393 79.4297 33.7893C79.4297 35.3993 80.1697 36.0492 81.7297 35.9692C82.7897 35.9192 83.9297 35.9993 85.0697 35.9993Z" fill="#353F4C" fill-opacity="0.15"/>
<path d="M21.619 25.251C16.189 25.251 15.989 25.441 16.029 30.971C16.029 31.531 16.029 32.101 16.029 32.661C16.239 35.281 16.749 35.831 19.279 35.951C20.8546 36.031 22.4333 36.031 24.009 35.951C26.519 35.811 27.079 35.221 27.219 32.611C27.294 31.262 27.294 29.9099 27.219 28.561C27.069 25.971 26.519 25.441 23.959 25.271C23.199 25.211 22.409 25.251 21.619 25.251Z" fill="#353F4C" fill-opacity="0.15"/>
<path d="M5.78905 25.1108C0.0290493 25.1108 0.0290493 25.1109 0.0490498 30.9009C0.0490498 31.2309 0.0490499 31.5709 0.0490499 31.9009C0.12905 35.9009 0.31905 36.0508 4.32905 36.1008C5.68905 36.1008 7.04905 36.1008 8.39905 36.1008C11.109 35.9808 11.399 35.6708 11.559 32.8608C11.639 31.2819 11.639 29.6998 11.559 28.1209C11.419 25.5809 11.069 25.2709 8.50905 25.1209C7.59905 25.0709 6.68905 25.1108 5.78905 25.1108Z" fill="#353F4C" fill-opacity="0.15"/>
<path d="M21.4899 40.8302C16.1699 40.8302 16.1699 40.8302 16.1699 46.1602C16.1699 51.4902 16.1699 51.6402 21.5299 51.6002C27.8199 51.6002 27.2199 52.3102 27.2299 46.0202C27.2299 40.3802 27.7399 40.8802 22.1699 40.8302L21.4899 40.8302Z" fill="#353F4C" fill-opacity="0.15"/>
<path d="M5.83003 51.6812C11.45 51.6812 11.54 51.6112 11.52 46.0612C11.52 40.9212 11.35 40.7712 6.17003 40.7512C0.170032 40.7512 0.0900325 40.7512 0.170033 46.7512C0.170033 47.3112 0.170033 47.8812 0.170033 48.4412C0.350033 51.0012 0.890034 51.5312 3.47003 51.6912C4.25003 51.7212 5.04003 51.6812 5.83003 51.6812Z" fill="#353F4C" fill-opacity="0.15"/>
<path d="M595.491 78.1896C595.491 72.1296 595.251 71.8596 590.011 71.8796C589.441 71.8796 588.871 71.8796 588.311 71.8796C585.511 72.0696 585.021 72.5696 584.861 75.3896C584.841 75.6158 584.841 75.8434 584.861 76.0696C585.111 78.0696 583.861 80.8096 586.041 82.0696C588.221 83.3296 591.131 82.7696 593.711 82.4196C594.165 82.3414 594.579 82.1086 594.881 81.7605C595.184 81.4124 595.356 80.9705 595.371 80.5096C595.491 79.5196 595.491 78.4996 595.491 78.1896Z" fill="#353F4C" fill-opacity="0.15"/>
<path d="M58.6295 77.3205C58.6295 72.0105 58.4095 71.7705 53.1195 71.7905C52.6695 71.7905 52.2195 71.7905 51.7695 71.7905C48.5295 71.9305 48.0195 72.4105 47.9095 75.5705C47.9095 76.9205 47.8495 78.2805 47.9095 79.6305C48.0495 82.0105 48.5895 82.5405 51.0095 82.7205C52.365 82.8005 53.724 82.8005 55.0795 82.7205C58.0195 82.5605 58.4795 82.0505 58.5995 78.9805C58.6495 78.4505 58.6295 77.8805 58.6295 77.3205Z" fill="#353F4C" fill-opacity="0.15"/>
<path d="M432.08 87.1679C426.67 87.1679 426.59 87.2579 426.59 92.6979C426.59 98.1379 426.59 98.3079 432.33 98.3079C438.07 98.3079 437.98 98.3079 437.97 92.6079C437.97 87.1779 437.95 87.1679 432.08 87.1679Z" fill="#353F4C" fill-opacity="0.15"/>
<path d="M383.779 40.5187C378.529 40.6287 378.599 39.5187 378.609 46.0587C378.609 52.1887 378.369 51.3487 383.869 51.4287C384.999 51.4287 386.139 51.4287 387.269 51.4287C389.789 51.3287 389.849 51.2787 389.929 48.6287C389.979 46.8187 389.979 44.9987 389.929 43.1887C389.849 40.6787 389.779 40.6287 387.119 40.5487C386.099 40.4887 385.069 40.5187 383.779 40.5187Z" fill="#353F4C" fill-opacity="0.15"/>
<path d="M122.029 92.8214C121.969 86.4214 122.619 87.3314 116.369 87.2714C111.039 87.2714 111.019 87.2714 111.039 92.5014C111.039 99.5614 110.899 98.1414 116.539 98.2014C122.669 98.2714 121.969 98.8214 122.029 92.8214Z" fill="#353F4C" fill-opacity="0.15"/>
<path d="M5.65001 87.1326C9.86839e-06 87.1326 1.03452e-05 87.1326 1.08287e-05 92.6626C1.1327e-05 98.3626 1.1327e-05 98.3626 5.84001 98.3626C11.68 98.3626 11.66 98.3626 11.66 92.6326C11.66 87.1326 11.66 87.1326 5.65001 87.1326Z" fill="#353F4C" fill-opacity="0.15"/>
<path d="M401.061 113.679L402.061 113.679C405.841 113.609 406.251 113.179 406.331 109.279C406.461 103.279 406.241 102.999 400.151 103.049C399.471 103.049 398.791 103.049 398.151 103.049C396.031 103.269 395.481 103.849 395.261 106.049C395.211 106.609 395.261 107.179 395.261 107.739C395.141 113.509 395.321 113.689 401.061 113.679Z" fill="#353F4C" fill-opacity="0.15"/>
<path d="M306.11 113.809C311.4 113.809 311.4 113.809 311.4 108.459C311.4 102.939 311.4 102.879 305.96 102.949C300.52 103.019 300.49 101.799 300.49 108.439C300.49 114.899 300.39 113.669 306.11 113.809Z" fill="#353F4C" fill-opacity="0.15"/>
<path d="M211.241 102.841C205.411 102.841 205.411 102.841 205.421 108.591C205.421 113.861 205.421 113.901 210.681 113.921C217.041 113.921 217.041 113.921 216.991 107.631C216.991 107.401 216.991 107.181 216.991 106.951C216.911 103.141 216.691 102.951 212.991 102.851C212.371 102.831 211.811 102.841 211.241 102.841Z" fill="#353F4C" fill-opacity="0.15"/>
<path d="M211.8 19.5187C206.28 19.5187 206.14 19.6487 206.18 25.2787C206.18 25.8487 206.18 26.4186 206.18 26.9786C206.36 29.6286 206.85 30.1986 209.41 30.3186C211.22 30.4086 213.04 30.3186 214.85 30.3186C215.164 30.3349 215.478 30.2872 215.774 30.1787C216.069 30.0701 216.339 29.9029 216.568 29.687C216.797 29.4711 216.98 29.2112 217.106 28.9227C217.232 28.6343 217.298 28.3233 217.3 28.0087C217.4 27.1087 217.41 26.1986 217.42 25.2986C217.49 19.7386 217.26 19.5087 211.8 19.5187Z" fill="#353F4C" fill-opacity="0.15"/>
<path d="M132.009 102.869C125.879 102.999 126.439 101.869 126.429 108.509C126.429 114.739 125.969 113.869 131.969 113.859C138.719 113.859 137.819 114.799 137.859 107.859C137.859 102.239 138.339 102.919 133.029 102.859L132.009 102.869Z" fill="#353F4C" fill-opacity="0.15"/>
<path d="M84.7794 102.828C78.3894 102.938 79.1594 101.918 79.1594 108.388C79.1594 114.858 78.3694 113.908 84.8294 113.898C91.2894 113.888 90.6394 114.898 90.6494 108.168C90.6594 101.848 91.2694 102.948 84.7794 102.828Z" fill="#353F4C" fill-opacity="0.15"/>
<path d="M21.4899 102.9C16.0799 102.9 15.9199 103.06 15.9199 108.35C15.9199 109.03 15.9199 109.71 15.9199 110.35C16.1099 113.19 16.5799 113.69 19.3999 113.78C21.2099 113.83 23.0199 113.78 24.8299 113.72C25.144 113.746 25.46 113.704 25.7567 113.598C26.0533 113.492 26.3236 113.323 26.5493 113.103C26.775 112.883 26.9507 112.617 27.0647 112.323C27.1787 112.029 27.2282 111.714 27.2099 111.4C27.2599 110.5 27.2999 109.59 27.2999 108.69C27.4099 102.91 27.3899 102.9 21.4899 102.9Z" fill="#353F4C" fill-opacity="0.15"/>
<path d="M5.71056 102.801C0.000563005 102.801 0.000563197 102.801 0.0105637 108.661C0.0105642 113.941 0.0105642 113.971 5.27056 113.951C11.8106 113.951 11.6506 114.551 11.6406 107.731C11.6406 102.821 11.6406 102.821 6.73056 102.801L5.71056 102.801Z" fill="#353F4C" fill-opacity="0.15"/>
<path d="M337.56 129.291C342.84 129.291 343.07 129.071 343.04 123.751C343.057 123.084 343.04 122.416 342.99 121.751C342.78 119.581 342.22 118.951 340.08 118.751C338.392 118.636 336.698 118.636 335.01 118.751C332.79 118.871 332.19 119.431 332.01 121.571C331.885 123.145 331.885 124.726 332.01 126.301C332.17 128.641 332.74 129.121 335.2 129.301C335.98 129.331 336.77 129.291 337.56 129.291Z" fill="#353F4C" fill-opacity="0.15"/>
<path d="M21.4895 118.479C16.0595 118.419 15.9495 118.479 15.9395 123.869C15.9395 124.329 15.9395 124.779 15.9395 125.239C16.0395 129.089 16.3995 129.459 20.3095 129.499C21.8895 129.499 23.4795 129.499 25.0695 129.429C25.383 129.464 25.7004 129.428 25.9981 129.324C26.2959 129.219 26.5665 129.05 26.79 128.827C27.0136 128.605 27.1844 128.335 27.2898 128.037C27.3953 127.74 27.4328 127.423 27.3995 127.109C27.3995 125.109 27.3995 123.029 27.3995 120.989C27.4389 120.648 27.4 120.302 27.2856 119.978C27.1713 119.654 26.9846 119.36 26.7397 119.119C26.4948 118.878 26.1982 118.696 25.8724 118.587C25.5466 118.478 25.2001 118.444 24.8595 118.489C23.7095 118.469 22.5695 118.479 21.4895 118.479Z" fill="#353F4C" fill-opacity="0.15"/>
<path d="M42.9607 61.6607C42.9607 56.3207 42.8207 56.1807 37.4207 56.1607C32.2207 56.1607 31.9907 56.3707 31.9707 61.4207C31.9707 67.2207 32.0507 67.3107 37.8507 67.2907C38.3107 67.2907 38.7607 67.2907 39.2107 67.2907C42.3907 67.1507 42.8607 66.6608 42.9607 63.3908C42.9807 62.8008 42.9607 62.2307 42.9607 61.6607Z" fill="#353F4C" fill-opacity="0.15"/>
<path d="M42.9896 123.718L42.9896 122.998C42.9296 118.648 42.7296 118.448 38.3196 118.398C31.8896 118.328 31.8896 118.328 31.9496 124.688C31.9496 125.258 31.9496 125.828 31.9496 126.388C32.1396 128.888 32.4996 129.278 35.0396 129.388C36.6252 129.468 38.2139 129.468 39.7996 129.388C42.2996 129.268 42.7296 128.818 42.9096 126.388C42.9696 125.488 42.9096 124.578 42.9096 123.678L42.9896 123.718Z" fill="#353F4C" fill-opacity="0.15"/>
<path d="M242.949 118.429C237.329 118.429 237.289 118.429 237.299 124.109C237.299 129.419 237.369 129.479 242.539 129.499C248.379 129.499 248.379 129.499 248.359 123.659L248.359 122.999C248.299 118.759 248.069 118.519 243.969 118.449L242.949 118.429Z" fill="#353F4C" fill-opacity="0.15"/>
<path d="M290.281 129.46C296.061 129.38 295.531 130.17 295.511 124.15C295.511 117.78 296.301 118.47 289.991 118.46C283.861 118.46 284.581 117.85 284.581 123.94C284.581 130.3 283.921 129.36 290.281 129.46Z" fill="#353F4C" fill-opacity="0.15"/>
<path d="M358.859 123.698C358.799 117.828 359.549 118.358 353.649 118.398C346.849 118.398 347.839 117.458 347.799 124.398C347.799 130.258 347.279 129.458 352.799 129.538C354.159 129.538 355.519 129.538 356.869 129.538C358.219 129.538 358.869 128.848 358.869 127.468C358.869 126.088 358.859 124.948 358.859 123.698Z" fill="#353F4C" fill-opacity="0.15"/>
<path d="M166.57 77.179C172.42 77.109 171.87 77.849 171.85 71.949C171.85 65.339 172.62 66.289 166.05 66.269C160.47 66.269 160.99 65.479 160.93 71.269L160.93 71.609C161.01 77.999 160.27 77.079 166.57 77.179Z" fill="#353F4C" fill-opacity="0.15"/>
<path d="M48.0593 108.651C48.0593 109.331 48.0593 110.011 48.0593 110.651C48.0593 112.391 48.9393 113.431 50.7393 113.481C52.5393 113.531 54.1393 113.531 55.8393 113.481C56.4679 113.502 57.0809 113.284 57.5544 112.87C58.0278 112.455 58.3263 111.877 58.3893 111.251C59.7893 104.681 58.1293 102.691 51.4993 103.101C48.7293 103.281 48.1893 103.811 48.0293 106.591C48.0293 107.261 48.0293 107.941 48.0293 108.591L48.0593 108.651Z" fill="#353F4C" fill-opacity="0.15"/>
<path d="M100.031 102.999C99.2409 102.999 98.4509 102.999 97.6609 102.999C97.0335 102.995 96.4284 103.231 95.9692 103.659C95.5101 104.086 95.2317 104.673 95.1909 105.299C93.7509 112.199 96.5109 114.979 103.421 113.669C104.046 113.628 104.633 113.352 105.061 112.895C105.49 112.438 105.73 111.836 105.731 111.209C105.834 109.631 105.858 108.049 105.801 106.469C105.681 103.659 105.131 103.119 102.401 102.969C101.611 102.919 100.821 102.969 100.031 102.969L100.031 102.999Z" fill="#353F4C" fill-opacity="0.15"/>
<path d="M116.62 103C111.52 103 111.26 103.26 111.27 108.41L111.27 108.75C111.27 113.23 111.7 113.62 116.1 113.67C121.71 113.72 121.96 113.48 121.93 108.08C121.91 103.3 121.61 103 116.62 103Z" fill="#353F4C" fill-opacity="0.15"/>
<path d="M147.87 102.999L146.49 102.999C143.26 103.119 142.76 103.609 142.6 106.779C142.27 113.479 142.7 113.929 149.44 113.719C152.86 113.609 153.35 113.119 153.44 109.719C153.44 109.379 153.44 109.039 153.44 108.719C153.55 103.189 153.34 102.999 147.87 102.999Z" fill="#353F4C" fill-opacity="0.15"/>
<path d="M179.541 103.001C174.461 103.001 174.221 103.231 174.231 108.401C174.231 108.741 174.231 109.071 174.231 109.401C174.331 113.181 174.761 113.581 178.661 113.651C184.591 113.741 184.861 113.501 184.841 108.071C184.831 103.321 184.491 103.001 179.541 103.001Z" fill="#353F4C" fill-opacity="0.15"/>
<path d="M263.91 108.318C263.91 107.868 263.91 107.408 263.91 106.958C263.79 103.748 263.28 103.218 260.16 103.078C260.047 103.068 259.933 103.068 259.82 103.078C257.82 103.348 255.18 102.138 253.82 104.318C252.46 106.498 253.16 109.148 253.4 111.598C253.441 112.122 253.68 112.61 254.068 112.963C254.457 113.316 254.965 113.508 255.49 113.498C257.49 113.588 259.55 113.598 261.57 113.498C262.147 113.496 262.7 113.269 263.113 112.866C263.525 112.463 263.765 111.915 263.78 111.338C263.9 110.338 263.9 109.338 263.95 108.338L263.91 108.318Z" fill="#353F4C" fill-opacity="0.15"/>
<path d="M369.36 113.518C370.15 113.518 370.95 113.518 371.74 113.518C372.082 113.529 372.423 113.47 372.741 113.343C373.058 113.217 373.346 113.026 373.587 112.783C373.827 112.54 374.015 112.249 374.138 111.93C374.26 111.611 374.316 111.27 374.3 110.928C374.3 110.698 374.3 110.478 374.3 110.248C374.81 103.518 373.03 101.968 366.3 103.198C365.672 103.226 365.077 103.493 364.638 103.945C364.2 104.396 363.95 104.998 363.94 105.628C363.834 107.206 363.817 108.788 363.89 110.368C364.02 112.778 364.61 113.368 366.89 113.558C367.67 113.628 368.47 113.558 369.26 113.558L369.36 113.518Z" fill="#353F4C" fill-opacity="0.15"/>
<path d="M37.3991 87.1583C31.8791 87.1583 31.8792 87.1583 31.8692 92.5383C31.8692 98.3483 31.8692 98.3483 37.7092 98.3383C43.0192 98.3383 43.0392 98.3383 43.0592 93.0783L43.0592 92.7383C43.0591 87.1483 43.0591 87.1483 37.3991 87.1583Z" fill="#353F4C" fill-opacity="0.15"/>
<path d="M58.5402 92.9C58.5402 87.66 58.2902 87.3801 52.9602 87.4201C52.0587 87.4099 51.1573 87.4499 50.2602 87.54C49.6927 87.5944 49.1625 87.8466 48.7621 88.2524C48.3618 88.6582 48.1169 89.1919 48.0702 89.76C46.6902 96.33 48.1802 98.22 54.5702 97.97C57.9002 97.84 58.4202 97.31 58.5702 93.92C58.5502 93.58 58.5402 93.24 58.5402 92.9Z" fill="#353F4C" fill-opacity="0.15"/>
<path d="M148.13 87.3409C142.13 87.4409 142.55 86.5109 142.54 93.0909C142.54 98.6009 142.28 98.1509 147.48 98.0909C154.32 98.0909 153.48 98.9309 153.54 92.1809C153.57 86.6809 153.85 87.4109 148.13 87.3409Z" fill="#353F4C" fill-opacity="0.15"/>
<path d="M179.54 98.1084C184.66 98.1084 184.91 97.8584 184.91 92.7184C184.91 87.5784 184.68 87.3384 179.55 87.3284C174.42 87.3184 174.18 87.5484 174.18 92.6984C174.18 97.8484 174.43 98.1184 179.54 98.1084Z" fill="#353F4C" fill-opacity="0.15"/>
<path d="M248.13 92.6402C248.13 92.1802 248.13 91.7302 248.13 91.2802C248 88.0502 247.51 87.5602 244.35 87.4202C237.82 87.1402 237.35 87.6302 237.6 94.0902C237.74 97.2902 238.26 97.8202 241.4 97.9702C241.85 97.9702 242.3 97.9702 242.75 97.9702C247.83 98.0002 248.14 97.6902 248.13 92.6402Z" fill="#353F4C" fill-opacity="0.15"/>
<path d="M464.001 87.2202C462.861 87.2202 461.731 87.2202 460.591 87.2202C459.081 87.1502 458.231 87.6902 458.261 89.3402C458.261 91.6102 458.261 93.8802 458.261 96.1502C458.261 97.5002 458.731 98.3002 460.261 98.2802C462.761 98.2802 465.261 98.2802 467.761 98.2802C469.061 98.2802 469.561 97.5801 469.561 96.3601C469.561 94.0901 469.501 91.8102 469.561 89.5402C469.621 87.7402 468.771 87.1302 467.091 87.2302C466.051 87.2702 465.021 87.2202 464.001 87.2202Z" fill="#353F4C" fill-opacity="0.15"/>
<path d="M53.5489 67.1277C54.1189 67.1277 54.6889 67.1277 55.2489 67.1277C57.8689 66.9377 58.4189 66.3977 58.6089 63.8777C58.6489 63.4252 58.6489 62.9702 58.6089 62.5177C58.4089 60.6777 59.4189 58.2677 57.4089 57.1877C54.9589 55.8677 52.0989 56.3577 49.4089 56.9177C48.3289 57.1477 47.9589 58.2677 47.9189 59.3577C47.9189 60.7177 47.8289 62.0777 47.9189 63.4377C48.0189 66.4377 48.5289 66.9777 51.5089 67.1477C52.1889 67.1477 52.8689 67.1477 53.5089 67.1477L53.5489 67.1277Z" fill="#353F4C" fill-opacity="0.15"/>
<path d="M42.9807 46.2398C42.9807 40.7798 42.9007 40.6998 37.5007 40.7098C32.1007 40.7198 31.9707 40.7798 31.9707 46.1898C31.9707 51.5998 31.9707 51.7297 37.4307 51.7297C42.8907 51.7297 42.9807 51.6698 42.9807 46.2398Z" fill="#353F4C" fill-opacity="0.15"/>
<path d="M58.6908 46.4197C58.6108 40.1597 59.4008 40.8197 53.0508 40.8097C47.3708 40.8097 47.8608 40.3497 47.8708 45.8597C47.8708 52.4297 47.1808 51.5997 53.6808 51.6197C59.0908 51.6297 58.6508 52.2497 58.6908 46.4197Z" fill="#353F4C" fill-opacity="0.15"/>
<path d="M68.6507 40.7807C68.2007 40.7807 67.7507 40.7807 67.3007 40.7807C64.0207 40.9107 63.6007 41.3207 63.4607 44.5207C63.1407 51.6607 63.4607 51.9507 70.6407 51.6707C73.9207 51.5507 74.3507 51.1307 74.5007 47.9307C74.5007 47.4807 74.5007 47.0307 74.5007 46.5807C74.5507 40.9007 74.3907 40.7407 68.6507 40.7807Z" fill="#353F4C" fill-opacity="0.15"/>
<path d="M163.491 40.9977C162.701 40.9977 161.901 40.9977 161.111 40.9977C160.768 40.9847 160.426 41.0434 160.106 41.1699C159.787 41.2965 159.498 41.4883 159.257 41.733C159.016 41.9777 158.829 42.2698 158.707 42.5909C158.586 42.912 158.532 43.2548 158.551 43.5977C158.251 51.8177 158.181 51.7277 166.381 51.4277C166.724 51.442 167.066 51.3847 167.386 51.2593C167.705 51.1339 167.995 50.9433 168.237 50.6996C168.479 50.4559 168.667 50.1645 168.79 49.8439C168.913 49.5233 168.968 49.1806 168.951 48.8377C169.011 48.0477 169.021 47.2577 169.021 46.4677C169.071 41.2277 168.781 40.9377 163.491 40.9977Z" fill="#353F4C" fill-opacity="0.15"/>
<path d="M248.039 46.0004C248.039 45.2104 248.039 44.4104 248.039 43.6304C248.052 43.2882 247.994 42.9471 247.868 42.6284C247.743 42.3096 247.554 42.0201 247.312 41.778C247.069 41.5359 246.78 41.3463 246.461 41.2211C246.142 41.0959 245.801 41.0378 245.459 41.0504L244.779 41.0504C238.119 40.5304 236.469 42.4104 237.719 49.0504C237.754 49.6787 238.025 50.2706 238.477 50.708C238.929 51.1455 239.53 51.3963 240.159 51.4104C241.624 51.5087 243.092 51.5321 244.559 51.4804C247.379 51.3704 247.909 50.8204 248.089 48.0804C248.089 47.4104 248.089 46.7304 248.089 46.0804L248.039 46.0004Z" fill="#353F4C" fill-opacity="0.15"/>
<path d="M37.4295 36.1399C43.0495 36.1399 43.0495 36.1399 43.0495 30.5599C43.0495 24.9799 43.0495 25.0799 37.6795 25.0699C31.8795 25.0699 31.8795 25.0699 31.8895 30.8199C31.8995 36.1399 31.8995 36.1399 37.4295 36.1399Z" fill="#353F4C" fill-opacity="0.15"/>
<path d="M53.2795 25.0699C47.6895 25.0699 47.6895 25.0699 47.6895 30.6899C47.6895 36.1299 47.6895 36.1299 53.0995 36.1399C58.8695 36.1399 58.8695 36.1399 58.8595 30.3499C58.8495 25.0699 58.8495 25.0699 53.2795 25.0699Z" fill="#353F4C" fill-opacity="0.15"/>
<path d="M68.7103 25.24C63.1403 25.32 63.5303 24.56 63.5503 30.24C63.5503 36.81 62.8103 35.89 69.4003 35.91C74.6403 35.91 74.4003 36.7 74.4003 30.73C74.4003 24.32 74.7403 25.3 69.0103 25.2L68.7103 25.24Z" fill="#353F4C" fill-opacity="0.15"/>
<path d="M116.82 35.9382C117.5 35.9382 118.19 35.9382 118.82 35.9382C121.01 35.7582 121.75 35.2182 121.82 33.0982C122.16 24.6582 122.1 25.0982 113.96 25.3182C113.589 25.2933 113.218 25.3493 112.871 25.4823C112.524 25.6154 112.211 25.8223 111.952 26.0887C111.693 26.3551 111.495 26.6746 111.372 27.0251C111.249 27.3755 111.204 27.7485 111.24 28.1182C111.24 28.9082 111.18 29.6982 111.17 30.4982C111.21 35.7382 111.49 35.9982 116.82 35.9382Z" fill="#353F4C" fill-opacity="0.15"/>
<path d="M121.9 14.9505L121.9 14.2705C121.83 10.0505 121.46 9.68052 117.13 9.65052C111.56 9.65052 111.21 9.95052 111.31 15.6505C111.37 19.7205 111.83 20.2005 115.77 20.2805L116.49 20.2805C121.61 20.2805 121.9 20.0005 121.9 14.9505Z" fill="#353F4C" fill-opacity="0.15"/>
<path d="M153.38 14.8491C153.38 14.2891 153.38 13.7192 153.38 13.1492C153.21 10.3992 152.65 9.81918 149.87 9.69918C148.4 9.62918 146.87 9.69918 145.45 9.69918C145.107 9.68412 144.764 9.73949 144.442 9.8619C144.121 9.98431 143.828 10.1712 143.582 10.411C143.336 10.6508 143.141 10.9385 143.01 11.2563C142.879 11.5742 142.814 11.9154 142.82 12.2592C142.82 12.4892 142.82 12.7092 142.82 12.9392C142.25 19.6392 144.47 21.5392 151.11 20.0892C151.68 20.0373 152.214 19.7865 152.618 19.3806C153.022 18.9748 153.271 18.4397 153.32 17.8692C153.44 16.8692 153.44 15.8692 153.5 14.8692L153.38 14.8491Z" fill="#353F4C" fill-opacity="0.15"/>
<path d="M248.4 14.8096C248.4 9.42958 248.4 9.42957 242.92 9.42957C237.26 9.42957 237.26 9.42956 237.26 14.9796C237.26 20.5296 237.26 20.5696 242.92 20.5696C248.4 20.5596 248.4 20.5596 248.4 14.8096Z" fill="#353F4C" fill-opacity="0.15"/>
<path d="M369.181 9.56767C363.181 9.64767 363.751 8.83768 363.751 15.0177C363.751 21.0177 363.121 20.4076 369.251 20.4076C375.071 20.4076 374.471 20.9277 374.521 15.1177C374.531 15.0045 374.531 14.8908 374.521 14.7777C374.491 8.90769 374.971 9.63767 369.181 9.56767Z" fill="#353F4C" fill-opacity="0.15"/>
</svg>
