<svg width="892" height="140" viewBox="0 0 892 140" fill="none" xmlns="http://www.w3.org/2000/svg">
<path d="M733.921 61.7986C733.921 56.2386 733.921 56.3086 728.421 56.2186C721.601 56.0986 722.721 57.0686 722.681 62.0486C722.631 68.0986 722.771 67.2386 727.771 67.3086L728.491 67.3086C734.491 67.2586 733.871 67.8486 733.921 61.7986Z" fill="#353F4C" fill-opacity="0.15"/>
<path d="M838.489 56.3892C837.799 56.3892 837.119 56.3892 836.439 56.3892C834.019 56.5692 833.509 57.0692 833.439 59.5292C833.369 61.2292 833.379 62.9392 833.439 64.6392C833.408 64.9825 833.453 65.3285 833.571 65.6521C833.69 65.9758 833.879 66.269 834.125 66.5103C834.371 66.7517 834.668 66.9351 834.994 67.0474C835.32 67.1596 835.667 67.1978 836.009 67.1592C837.829 67.1592 839.649 67.1592 841.469 67.1592C841.81 67.2038 842.157 67.1727 842.485 67.0682C842.812 66.9636 843.113 66.7881 843.365 66.5542C843.617 66.3203 843.814 66.0337 843.943 65.7148C844.072 65.3959 844.129 65.0526 844.109 64.7092C844.199 63.0092 844.209 61.2992 844.109 59.5992C844.019 56.9892 843.519 56.5192 840.819 56.3892C840.029 56.3892 839.229 56.3892 838.439 56.3892L838.489 56.3892Z" fill="#353F4C" fill-opacity="0.15"/>
<path d="M323.429 77.0002C323.429 71.6402 323.429 71.6102 317.879 71.5902C311.879 71.5902 311.879 71.5901 311.879 77.6701C311.879 78.1301 311.879 78.5802 311.879 79.0302C312.009 82.3002 312.469 82.8002 315.649 82.9002C317.235 82.9802 318.823 82.9802 320.409 82.9002C322.909 82.7202 323.269 82.2902 323.409 79.7602C323.489 78.8402 323.429 77.9301 323.429 77.0002Z" fill="#353F4C" fill-opacity="0.15"/>
<path d="M396.64 71.6194C390.35 71.6794 390.96 70.9795 390.97 77.2595C390.97 83.2595 390.1 82.8995 396.64 82.8995C401.17 82.8995 402.29 83.8995 402.09 77.5095C402.09 77.3995 402.09 77.2794 402.09 77.1694C402.15 70.3694 401.89 71.7694 396.64 71.6194Z" fill="#353F4C" fill-opacity="0.15"/>
<path d="M639.17 77.298C639.07 71.778 640.11 71.7581 633.67 71.7681C627.85 71.7681 627.85 71.7681 627.85 77.5181C627.85 82.6881 627.85 82.708 632.85 82.718L633.53 82.718C639.17 82.718 639.17 82.718 639.17 77.298Z" fill="#353F4C" fill-opacity="0.15"/>
<path d="M307.609 61.7491C307.459 55.7491 308.739 56.2091 301.909 56.2091C295.079 56.2091 296.099 55.6991 296.069 61.9291C296.069 67.9291 295.299 67.2891 301.569 67.3391L301.919 67.3391C308.359 67.2791 307.489 67.9991 307.609 61.7491Z" fill="#353F4C" fill-opacity="0.15"/>
<path d="M611.911 61.9191C611.911 67.2791 611.971 67.3291 617.471 67.3391C623.471 67.3391 623.471 67.3391 623.471 61.3391C623.471 56.3391 623.301 56.1691 618.411 56.1191L617.731 56.1191C611.971 56.0991 611.901 56.1591 611.911 61.9191Z" fill="#353F4C" fill-opacity="0.15"/>
<path d="M317.6 87.2083C311.54 87.3383 311.95 86.2083 311.98 92.7783C311.98 98.8283 311.04 98.2483 317.66 98.2883C323.44 98.2883 323.48 98.2883 323.43 92.5483C323.39 86.3283 324.13 87.3083 317.6 87.2083Z" fill="#353F4C" fill-opacity="0.15"/>
<path d="M433.889 92.4383C433.889 86.4983 434.439 87.1983 428.599 87.2283C421.549 87.2283 422.419 86.0883 422.389 93.5783C422.389 98.5783 421.739 98.2583 427.179 98.2883C428.759 98.2883 430.339 98.2883 431.929 98.2183C433.269 98.2183 434.009 97.6583 433.929 96.2183C433.829 94.9383 433.889 93.6883 433.889 92.4383Z" fill="#353F4C" fill-opacity="0.15"/>
<path d="M491.42 129.429C496.94 129.429 496.94 129.429 496.94 123.969C496.94 118.509 496.94 118.489 491.56 118.479C485.71 118.479 485.69 118.479 485.72 124.229C485.75 129.979 485.27 129.369 490.72 129.429L491.42 129.429Z" fill="#353F4C" fill-opacity="0.15"/>
<path d="M317.551 9.43959C311.461 9.56959 311.931 8.38957 311.951 15.0996C311.951 21.2496 311.161 20.5196 317.361 20.5596C319.271 20.5596 321.671 21.3296 322.961 20.0196C324.251 18.7096 323.441 16.3296 323.441 14.4196C323.441 8.80957 323.931 9.50957 318.571 9.41957C318.231 9.42957 317.891 9.43959 317.551 9.43959Z" fill="#353F4C" fill-opacity="0.15"/>
<path d="M317.74 67.3888C323.51 67.3888 323.51 67.3888 323.5 61.5188C323.5 56.0888 323.5 56.0688 318.02 56.0588C311.79 56.0588 311.79 56.0588 311.83 62.2588C311.83 62.7088 311.83 63.1688 311.83 63.6188C311.97 66.8488 312.41 67.2788 315.69 67.3888C316.38 67.4088 317.06 67.3888 317.74 67.3888Z" fill="#353F4C" fill-opacity="0.15"/>
<path d="M428.24 55.9981C422.24 55.9981 422.24 55.9981 422.24 61.9981C422.24 67.3181 422.24 67.3581 427.52 67.3581C434.52 67.3581 433.92 67.5481 433.98 60.8381C433.98 60.4981 433.98 60.1581 433.98 59.8381C433.89 56.4481 433.62 56.1781 430.27 56.0281C429.6 55.9981 428.92 55.9981 428.24 55.9981Z" fill="#353F4C" fill-opacity="0.15"/>
<path d="M390.999 124.09C390.999 130.35 390.559 129.5 396.539 129.46C402.219 129.46 402.039 130.78 402.029 124.1C402.029 118.74 403.029 118.32 396.239 118.42C390.109 118.5 391.129 118.02 390.999 123.75L390.999 124.09Z" fill="#353F4C" fill-opacity="0.15"/>
<path d="M580.301 0.00107622C574.491 0.101077 574.871 -0.868935 574.931 5.55106C574.981 11.2311 573.791 10.9511 580.401 11.0211C587.311 11.0911 585.981 10.5611 586.011 5.55106C586.061 -1.12894 586.311 0.171076 580.301 0.00107622Z" fill="#353F4C" fill-opacity="0.15"/>
<path d="M338.87 77.249C338.87 71.819 338.87 71.819 333.52 71.819C328.17 71.819 328.06 71.819 328.05 77.199C328.04 82.579 328.05 82.6689 333.48 82.6589C338.91 82.6489 338.87 82.659 338.87 77.249Z" fill="#353F4C" fill-opacity="0.15"/>
<path d="M418.1 77.139C418.1 71.709 418.02 71.639 412.59 71.629C406.97 71.629 406.84 71.7489 406.84 77.2289C406.84 82.7089 407 82.929 412.53 82.929L413.53 82.929C417.67 82.859 418.02 82.509 418.08 78.489C418.11 77.999 418.1 77.589 418.1 77.139Z" fill="#353F4C" fill-opacity="0.15"/>
<path d="M564.721 77.6089C564.721 82.7889 564.841 82.899 570.071 82.929C576.071 82.929 576.191 82.849 576.161 76.929C576.161 76.699 576.161 76.469 576.161 76.249C576.081 71.969 575.791 71.679 571.451 71.629L570.771 71.629C564.701 71.609 564.701 71.6089 564.721 77.6089Z" fill="#353F4C" fill-opacity="0.15"/>
<path d="M364.96 67.2013C370.36 67.0513 370.61 68.4313 370.57 61.4013C370.57 56.4013 370.57 56.3413 365.37 56.4013C357.96 56.4013 359.56 56.3113 359.48 62.1113C359.4 67.3513 358.72 67.2413 364.62 67.2413L364.96 67.2013Z" fill="#353F4C" fill-opacity="0.15"/>
<path d="M380.639 40.6184C374.169 40.7184 375.179 39.8584 375.159 46.2584C375.139 52.6584 374.419 51.7584 380.799 51.7584C387.329 51.7584 386.679 52.7584 386.659 46.0984C386.659 39.9184 387.449 40.7084 381.319 40.6184L380.639 40.6184Z" fill="#353F4C" fill-opacity="0.15"/>
<path d="M301.92 20.5696C307.59 20.5696 307.62 20.5696 307.59 14.7596C307.59 8.68958 308.23 9.44954 302.07 9.46954C295.23 9.46954 296.07 8.46955 296.07 15.2896C296.07 21.1696 295.21 20.4796 301.22 20.5696L301.92 20.5696Z" fill="#353F4C" fill-opacity="0.15"/>
<path d="M381.03 9.4704C374.39 9.5804 375.2 8.6204 375.21 15.2204C375.21 21.1004 374.3 20.5204 380.39 20.5104C387.8 20.5104 386.52 21.2504 386.6 14.5104C386.67 8.58043 386.89 9.58039 381.03 9.4704Z" fill="#353F4C" fill-opacity="0.15"/>
<path d="M744.009 9.43894C737.539 9.53894 738.239 8.50894 738.249 15.1889C738.249 21.2489 737.439 20.5389 743.669 20.5589C745.569 20.5589 747.939 21.3489 749.249 20.0689C750.559 18.7889 749.739 16.409 749.739 14.519C749.739 8.75896 750.299 9.51894 744.689 9.43894C744.489 9.42894 744.239 9.43894 744.009 9.43894Z" fill="#353F4C" fill-opacity="0.15"/>
<path d="M396.6 67.2883C401.98 67.2883 402.14 67.1183 402.15 61.7883C402.16 56.4583 401.99 56.1283 396.39 56.1583C391.23 56.1583 391.02 56.3783 391 61.4883L391 61.8284C391.01 67.1384 391.16 67.2883 396.6 67.2883Z" fill="#353F4C" fill-opacity="0.15"/>
<path d="M633.359 25.0912C627.069 25.2112 627.739 24.0912 627.739 30.6712C627.739 36.9812 627.109 36.0212 633.149 36.1112C634.629 36.1112 636.099 36.1112 637.569 36.1112C637.795 36.1499 638.027 36.1347 638.246 36.0666C638.464 35.9986 638.664 35.8797 638.828 35.7197C638.992 35.5597 639.115 35.3631 639.189 35.1461C639.262 34.9291 639.283 34.6978 639.249 34.4711C639.249 33.3411 639.299 32.2012 639.249 31.0712C639.169 24.0712 640.169 25.2312 633.359 25.0912Z" fill="#353F4C" fill-opacity="0.15"/>
<path d="M428.311 25.1204C422.311 25.1204 422.311 25.1204 422.311 31.1204C422.311 35.9804 422.441 36.1204 427.311 36.1204C428.451 36.1204 429.581 36.1204 430.721 36.1204C433.351 35.9904 433.721 35.6804 433.871 33.1904C433.956 31.6015 433.956 30.0092 433.871 28.4203C433.751 25.6203 433.421 25.3103 430.691 25.1603C429.901 25.0803 429.101 25.1204 428.311 25.1204Z" fill="#353F4C" fill-opacity="0.15"/>
<path d="M381.07 35.9993C386.49 35.9993 386.49 35.9993 386.49 30.6393C386.49 25.2793 386.49 25.2292 381.18 25.2292C379.93 25.2292 378.68 25.2292 377.43 25.2292C375.95 25.2292 375.43 25.9493 375.43 27.3193C375.43 29.4793 375.43 31.6392 375.43 33.7892C375.43 35.3992 376.17 36.0492 377.73 35.9692C378.79 35.9192 379.93 35.9993 381.07 35.9993Z" fill="#353F4C" fill-opacity="0.15"/>
<path d="M317.619 25.251C312.189 25.251 311.989 25.4409 312.029 30.9709C312.029 31.5309 312.029 32.1009 312.029 32.6609C312.239 35.2809 312.749 35.831 315.279 35.951C316.855 36.031 318.433 36.031 320.009 35.951C322.519 35.811 323.079 35.221 323.219 32.611C323.294 31.262 323.294 29.9099 323.219 28.561C323.069 25.971 322.519 25.441 319.959 25.271C319.199 25.211 318.409 25.251 317.619 25.251Z" fill="#353F4C" fill-opacity="0.15"/>
<path d="M301.789 25.1108C296.029 25.1108 296.029 25.1109 296.049 30.9009C296.049 31.2309 296.049 31.5709 296.049 31.9009C296.129 35.9009 296.319 36.0508 300.329 36.1008C301.689 36.1008 303.049 36.1008 304.399 36.1008C307.109 35.9808 307.399 35.6708 307.559 32.8608C307.639 31.2819 307.639 29.6998 307.559 28.1208C307.419 25.5808 307.069 25.2708 304.509 25.1208C303.599 25.0708 302.689 25.1108 301.789 25.1108Z" fill="#353F4C" fill-opacity="0.15"/>
<path d="M317.49 40.8302C312.17 40.8302 312.17 40.8302 312.17 46.1602C312.17 51.4902 312.17 51.6402 317.53 51.6002C323.82 51.6002 323.22 52.3102 323.23 46.0202C323.23 40.3802 323.74 40.8802 318.17 40.8302L317.49 40.8302Z" fill="#353F4C" fill-opacity="0.15"/>
<path d="M301.83 51.6812C307.45 51.6812 307.54 51.6112 307.52 46.0612C307.52 40.9212 307.35 40.7712 302.17 40.7512C296.17 40.7512 296.09 40.7512 296.17 46.7512C296.17 47.3112 296.17 47.8812 296.17 48.4412C296.35 51.0012 296.89 51.5312 299.47 51.6912C300.25 51.7212 301.04 51.6812 301.83 51.6812Z" fill="#353F4C" fill-opacity="0.15"/>
<path d="M891.491 78.1896C891.491 72.1296 891.251 71.8596 886.011 71.8796C885.441 71.8796 884.871 71.8796 884.311 71.8796C881.511 72.0696 881.021 72.5696 880.861 75.3896C880.84 75.6158 880.84 75.8434 880.861 76.0696C881.111 78.0696 879.861 80.8096 882.041 82.0696C884.221 83.3296 887.131 82.7696 889.711 82.4196C890.165 82.3414 890.579 82.1086 890.881 81.7605C891.184 81.4124 891.356 80.9705 891.371 80.5096C891.491 79.5196 891.491 78.4996 891.491 78.1896Z" fill="#353F4C" fill-opacity="0.15"/>
<path d="M354.629 77.3205C354.629 72.0105 354.409 71.7705 349.119 71.7905C348.669 71.7905 348.219 71.7905 347.769 71.7905C344.529 71.9305 344.019 72.4105 343.909 75.5705C343.909 76.9205 343.849 78.2805 343.909 79.6305C344.049 82.0105 344.589 82.5405 347.009 82.7205C348.365 82.8005 349.724 82.8005 351.079 82.7205C354.019 82.5605 354.479 82.0505 354.599 78.9805C354.649 78.4505 354.629 77.8805 354.629 77.3205Z" fill="#353F4C" fill-opacity="0.15"/>
<path d="M728.08 87.1679C722.67 87.1679 722.59 87.2579 722.59 92.6979C722.59 98.1379 722.59 98.3079 728.33 98.3079C734.07 98.3079 733.98 98.3078 733.97 92.6078C733.97 87.1778 733.95 87.1679 728.08 87.1679Z" fill="#353F4C" fill-opacity="0.15"/>
<path d="M679.779 40.5187C674.529 40.6287 674.599 39.5187 674.609 46.0587C674.609 52.1887 674.369 51.3487 679.869 51.4287C680.999 51.4287 682.139 51.4287 683.269 51.4287C685.789 51.3287 685.849 51.2787 685.929 48.6287C685.979 46.8187 685.979 44.9987 685.929 43.1887C685.849 40.6787 685.779 40.6287 683.119 40.5487C682.099 40.4887 681.069 40.5187 679.779 40.5187Z" fill="#353F4C" fill-opacity="0.15"/>
<path d="M418.029 92.8214C417.969 86.4214 418.619 87.3314 412.369 87.2714C407.039 87.2714 407.019 87.2714 407.039 92.5014C407.039 99.5614 406.899 98.1414 412.539 98.2014C418.669 98.2714 417.969 98.8214 418.029 92.8214Z" fill="#353F4C" fill-opacity="0.15"/>
<path d="M301.65 87.1326C296 87.1326 296 87.1326 296 92.6626C296 98.3626 296 98.3625 301.84 98.3625C307.68 98.3625 307.66 98.3626 307.66 92.6326C307.66 87.1326 307.66 87.1326 301.65 87.1326Z" fill="#353F4C" fill-opacity="0.15"/>
<path d="M697.061 113.679L698.061 113.679C701.841 113.609 702.251 113.179 702.331 109.279C702.461 103.279 702.241 102.999 696.151 103.049C695.471 103.049 694.791 103.049 694.151 103.049C692.031 103.269 691.481 103.849 691.261 106.049C691.211 106.609 691.261 107.179 691.261 107.739C691.141 113.509 691.321 113.689 697.061 113.679Z" fill="#353F4C" fill-opacity="0.15"/>
<path d="M602.11 113.809C607.4 113.809 607.4 113.809 607.4 108.459C607.4 102.939 607.4 102.879 601.96 102.949C596.52 103.019 596.49 101.799 596.49 108.439C596.49 114.899 596.39 113.669 602.11 113.809Z" fill="#353F4C" fill-opacity="0.15"/>
<path d="M507.241 102.841C501.411 102.841 501.411 102.841 501.421 108.591C501.421 113.861 501.421 113.901 506.681 113.921C513.041 113.921 513.041 113.921 512.991 107.631C512.991 107.401 512.991 107.181 512.991 106.951C512.911 103.141 512.691 102.951 508.991 102.851C508.371 102.831 507.811 102.841 507.241 102.841Z" fill="#353F4C" fill-opacity="0.15"/>
<path d="M507.8 19.5187C502.28 19.5187 502.14 19.6487 502.18 25.2787C502.18 25.8487 502.18 26.4186 502.18 26.9786C502.36 29.6286 502.85 30.1986 505.41 30.3186C507.22 30.4086 509.04 30.3186 510.85 30.3186C511.164 30.3349 511.478 30.2872 511.774 30.1787C512.069 30.0701 512.339 29.9029 512.568 29.687C512.797 29.4711 512.98 29.2112 513.106 28.9227C513.232 28.6342 513.298 28.3233 513.3 28.0086C513.4 27.1086 513.41 26.1986 513.42 25.2986C513.49 19.7386 513.26 19.5087 507.8 19.5187Z" fill="#353F4C" fill-opacity="0.15"/>
<path d="M428.009 102.869C421.879 102.999 422.439 101.869 422.429 108.509C422.429 114.739 421.969 113.869 427.969 113.859C434.719 113.859 433.819 114.799 433.859 107.859C433.859 102.239 434.339 102.919 429.029 102.859L428.009 102.869Z" fill="#353F4C" fill-opacity="0.15"/>
<path d="M380.779 102.828C374.389 102.938 375.159 101.918 375.159 108.388C375.159 114.858 374.369 113.908 380.829 113.898C387.289 113.888 386.639 114.898 386.649 108.168C386.659 101.848 387.269 102.948 380.779 102.828Z" fill="#353F4C" fill-opacity="0.15"/>
<path d="M317.49 102.9C312.08 102.9 311.92 103.06 311.92 108.35C311.92 109.03 311.92 109.71 311.92 110.35C312.11 113.19 312.58 113.69 315.4 113.78C317.21 113.83 319.02 113.78 320.83 113.72C321.144 113.746 321.46 113.704 321.757 113.598C322.053 113.492 322.324 113.323 322.549 113.103C322.775 112.883 322.951 112.617 323.065 112.323C323.179 112.029 323.228 111.714 323.21 111.4C323.26 110.5 323.3 109.59 323.3 108.69C323.41 102.91 323.39 102.9 317.49 102.9Z" fill="#353F4C" fill-opacity="0.15"/>
<path d="M301.711 102.801C296.001 102.801 296.001 102.801 296.011 108.661C296.011 113.941 296.011 113.971 301.271 113.951C307.811 113.951 307.651 114.551 307.641 107.731C307.641 102.821 307.641 102.821 302.731 102.801L301.711 102.801Z" fill="#353F4C" fill-opacity="0.15"/>
<path d="M633.56 129.291C638.84 129.291 639.07 129.071 639.04 123.751C639.057 123.084 639.04 122.416 638.99 121.751C638.78 119.581 638.22 118.951 636.08 118.751C634.392 118.636 632.698 118.636 631.01 118.751C628.79 118.871 628.19 119.431 628.01 121.571C627.885 123.145 627.885 124.726 628.01 126.301C628.17 128.641 628.74 129.121 631.2 129.301C631.98 129.331 632.77 129.291 633.56 129.291Z" fill="#353F4C" fill-opacity="0.15"/>
<path d="M317.489 118.479C312.059 118.419 311.949 118.479 311.939 123.869C311.939 124.329 311.939 124.779 311.939 125.239C312.039 129.089 312.399 129.459 316.309 129.499C317.889 129.499 319.479 129.499 321.069 129.429C321.383 129.464 321.7 129.428 321.998 129.324C322.296 129.219 322.566 129.05 322.79 128.827C323.014 128.605 323.184 128.335 323.29 128.037C323.395 127.74 323.433 127.423 323.399 127.109C323.399 125.109 323.399 123.029 323.399 120.989C323.439 120.648 323.4 120.302 323.286 119.978C323.171 119.654 322.985 119.36 322.74 119.119C322.495 118.878 322.198 118.696 321.872 118.587C321.547 118.478 321.2 118.444 320.859 118.489C319.709 118.469 318.569 118.479 317.489 118.479Z" fill="#353F4C" fill-opacity="0.15"/>
<path d="M338.961 61.6607C338.961 56.3207 338.821 56.1807 333.421 56.1607C328.221 56.1607 327.991 56.3707 327.971 61.4207C327.971 67.2207 328.051 67.3107 333.851 67.2907C334.311 67.2907 334.761 67.2907 335.211 67.2907C338.391 67.1507 338.861 66.6607 338.961 63.3907C338.981 62.8007 338.961 62.2307 338.961 61.6607Z" fill="#353F4C" fill-opacity="0.15"/>
<path d="M338.99 123.718L338.99 122.998C338.93 118.648 338.73 118.448 334.32 118.398C327.89 118.328 327.89 118.328 327.95 124.688C327.95 125.258 327.95 125.828 327.95 126.388C328.14 128.888 328.5 129.278 331.04 129.388C332.625 129.468 334.214 129.468 335.8 129.388C338.3 129.268 338.73 128.818 338.91 126.388C338.97 125.488 338.91 124.578 338.91 123.678L338.99 123.718Z" fill="#353F4C" fill-opacity="0.15"/>
<path d="M538.949 118.429C533.329 118.429 533.289 118.429 533.299 124.109C533.299 129.419 533.369 129.479 538.539 129.499C544.379 129.499 544.379 129.499 544.359 123.659L544.359 122.999C544.299 118.759 544.069 118.519 539.969 118.449L538.949 118.429Z" fill="#353F4C" fill-opacity="0.15"/>
<path d="M586.281 129.46C592.061 129.38 591.531 130.17 591.511 124.15C591.511 117.78 592.301 118.47 585.991 118.46C579.861 118.46 580.581 117.85 580.581 123.94C580.581 130.3 579.921 129.36 586.281 129.46Z" fill="#353F4C" fill-opacity="0.15"/>
<path d="M654.859 123.698C654.799 117.828 655.549 118.358 649.649 118.398C642.849 118.398 643.839 117.458 643.799 124.398C643.799 130.258 643.279 129.458 648.799 129.538C650.159 129.538 651.519 129.538 652.869 129.538C654.219 129.538 654.869 128.848 654.869 127.468C654.869 126.088 654.859 124.948 654.859 123.698Z" fill="#353F4C" fill-opacity="0.15"/>
<path d="M462.57 77.179C468.42 77.109 467.87 77.849 467.85 71.949C467.85 65.339 468.62 66.289 462.05 66.269C456.47 66.269 456.99 65.479 456.93 71.269L456.93 71.6089C457.01 77.9989 456.27 77.079 462.57 77.179Z" fill="#353F4C" fill-opacity="0.15"/>
<path d="M344.059 108.651C344.059 109.331 344.059 110.011 344.059 110.651C344.059 112.391 344.939 113.431 346.739 113.481C348.539 113.531 350.139 113.531 351.839 113.481C352.468 113.502 353.081 113.284 353.554 112.87C354.028 112.455 354.326 111.877 354.389 111.251C355.789 104.681 354.129 102.691 347.499 103.101C344.729 103.281 344.189 103.811 344.029 106.591C344.029 107.261 344.029 107.941 344.029 108.591L344.059 108.651Z" fill="#353F4C" fill-opacity="0.15"/>
<path d="M396.031 102.999C395.241 102.999 394.451 102.999 393.661 102.999C393.033 102.995 392.428 103.231 391.969 103.659C391.51 104.086 391.232 104.673 391.191 105.299C389.751 112.199 392.511 114.979 399.421 113.669C400.046 113.628 400.633 113.352 401.061 112.895C401.49 112.438 401.73 111.836 401.731 111.209C401.834 109.631 401.858 108.049 401.801 106.469C401.681 103.659 401.131 103.119 398.401 102.969C397.611 102.919 396.821 102.969 396.031 102.969L396.031 102.999Z" fill="#353F4C" fill-opacity="0.15"/>
<path d="M412.62 103C407.52 103 407.26 103.26 407.27 108.41L407.27 108.75C407.27 113.23 407.7 113.62 412.1 113.67C417.71 113.72 417.96 113.48 417.93 108.08C417.91 103.3 417.61 103 412.62 103Z" fill="#353F4C" fill-opacity="0.15"/>
<path d="M443.87 102.999L442.49 102.999C439.26 103.119 438.76 103.609 438.6 106.779C438.27 113.479 438.7 113.929 445.44 113.719C448.86 113.609 449.35 113.119 449.44 109.719C449.44 109.379 449.44 109.039 449.44 108.719C449.55 103.189 449.34 102.999 443.87 102.999Z" fill="#353F4C" fill-opacity="0.15"/>
<path d="M475.541 103.001C470.461 103.001 470.221 103.231 470.231 108.401C470.231 108.741 470.231 109.071 470.231 109.401C470.331 113.181 470.761 113.581 474.661 113.651C480.591 113.741 480.861 113.501 480.841 108.071C480.831 103.321 480.491 103.001 475.541 103.001Z" fill="#353F4C" fill-opacity="0.15"/>
<path d="M559.91 108.318C559.91 107.868 559.91 107.408 559.91 106.958C559.79 103.748 559.28 103.218 556.16 103.078C556.047 103.068 555.933 103.068 555.82 103.078C553.82 103.348 551.18 102.138 549.82 104.318C548.46 106.498 549.16 109.148 549.4 111.598C549.441 112.122 549.68 112.61 550.068 112.963C550.457 113.316 550.965 113.508 551.49 113.498C553.49 113.588 555.55 113.598 557.57 113.498C558.147 113.496 558.7 113.269 559.113 112.866C559.525 112.463 559.765 111.915 559.78 111.338C559.9 110.338 559.9 109.338 559.95 108.338L559.91 108.318Z" fill="#353F4C" fill-opacity="0.15"/>
<path d="M665.36 113.518C666.15 113.518 666.95 113.518 667.74 113.518C668.082 113.529 668.423 113.47 668.741 113.343C669.058 113.217 669.346 113.026 669.587 112.783C669.827 112.54 670.015 112.249 670.138 111.93C670.26 111.611 670.316 111.27 670.3 110.928C670.3 110.698 670.3 110.478 670.3 110.248C670.81 103.518 669.03 101.968 662.3 103.198C661.671 103.226 661.077 103.493 660.638 103.945C660.2 104.396 659.95 104.998 659.94 105.628C659.834 107.206 659.817 108.788 659.89 110.368C660.02 112.778 660.61 113.368 662.89 113.558C663.67 113.628 664.47 113.558 665.26 113.558L665.36 113.518Z" fill="#353F4C" fill-opacity="0.15"/>
<path d="M333.399 87.1583C327.879 87.1583 327.879 87.1583 327.869 92.5383C327.869 98.3483 327.869 98.3483 333.709 98.3383C339.019 98.3383 339.039 98.3383 339.059 93.0783L339.059 92.7383C339.059 87.1483 339.059 87.1483 333.399 87.1583Z" fill="#353F4C" fill-opacity="0.15"/>
<path d="M354.54 92.9C354.54 87.66 354.29 87.38 348.96 87.42C348.059 87.4099 347.157 87.4499 346.26 87.54C345.693 87.5944 345.162 87.8466 344.762 88.2524C344.362 88.6582 344.117 89.1919 344.07 89.76C342.69 96.33 344.18 98.22 350.57 97.97C353.9 97.84 354.42 97.31 354.57 93.92C354.55 93.58 354.54 93.24 354.54 92.9Z" fill="#353F4C" fill-opacity="0.15"/>
<path d="M444.13 87.3409C438.13 87.4409 438.55 86.5109 438.54 93.0909C438.54 98.6009 438.28 98.1509 443.48 98.0909C450.32 98.0909 449.48 98.9309 449.54 92.1809C449.57 86.6809 449.85 87.4109 444.13 87.3409Z" fill="#353F4C" fill-opacity="0.15"/>
<path d="M475.54 98.1084C480.66 98.1084 480.91 97.8584 480.91 92.7184C480.91 87.5784 480.68 87.3384 475.55 87.3284C470.42 87.3184 470.18 87.5484 470.18 92.6984C470.18 97.8484 470.43 98.1184 475.54 98.1084Z" fill="#353F4C" fill-opacity="0.15"/>
<path d="M544.13 92.6402C544.13 92.1802 544.13 91.7302 544.13 91.2802C544 88.0502 543.51 87.5602 540.35 87.4202C533.82 87.1402 533.35 87.6302 533.6 94.0902C533.74 97.2902 534.26 97.8202 537.4 97.9702C537.85 97.9702 538.3 97.9702 538.75 97.9702C543.83 98.0002 544.14 97.6902 544.13 92.6402Z" fill="#353F4C" fill-opacity="0.15"/>
<path d="M760.001 87.2202C758.861 87.2202 757.731 87.2202 756.591 87.2202C755.081 87.1502 754.231 87.6901 754.261 89.3401C754.261 91.6101 754.261 93.8801 754.261 96.1501C754.261 97.5001 754.731 98.3002 756.261 98.2802C758.761 98.2802 761.261 98.2802 763.761 98.2802C765.061 98.2802 765.561 97.5801 765.561 96.3601C765.561 94.0901 765.501 91.8102 765.561 89.5402C765.621 87.7402 764.771 87.1302 763.091 87.2302C762.051 87.2702 761.021 87.2202 760.001 87.2202Z" fill="#353F4C" fill-opacity="0.15"/>
<path d="M349.549 67.1277C350.119 67.1277 350.689 67.1277 351.249 67.1277C353.869 66.9377 354.419 66.3977 354.609 63.8777C354.649 63.4252 354.649 62.9702 354.609 62.5177C354.409 60.6777 355.419 58.2677 353.409 57.1877C350.959 55.8677 348.099 56.3577 345.409 56.9177C344.329 57.1477 343.959 58.2677 343.919 59.3577C343.919 60.7177 343.829 62.0777 343.919 63.4377C344.019 66.4377 344.529 66.9777 347.509 67.1477C348.189 67.1477 348.869 67.1477 349.509 67.1477L349.549 67.1277Z" fill="#353F4C" fill-opacity="0.15"/>
<path d="M338.981 46.2397C338.981 40.7797 338.901 40.6998 333.501 40.7098C328.101 40.7198 327.971 40.7798 327.971 46.1898C327.971 51.5998 327.971 51.7297 333.431 51.7297C338.891 51.7297 338.981 51.6697 338.981 46.2397Z" fill="#353F4C" fill-opacity="0.15"/>
<path d="M354.691 46.4197C354.611 40.1597 355.401 40.8197 349.051 40.8097C343.371 40.8097 343.861 40.3497 343.871 45.8597C343.871 52.4297 343.181 51.5997 349.681 51.6197C355.091 51.6297 354.651 52.2497 354.691 46.4197Z" fill="#353F4C" fill-opacity="0.15"/>
<path d="M364.651 40.7807C364.201 40.7807 363.751 40.7807 363.301 40.7807C360.021 40.9107 359.601 41.3207 359.461 44.5207C359.141 51.6607 359.461 51.9507 366.641 51.6707C369.921 51.5507 370.351 51.1307 370.501 47.9307C370.501 47.4807 370.501 47.0307 370.501 46.5807C370.551 40.9007 370.391 40.7407 364.651 40.7807Z" fill="#353F4C" fill-opacity="0.15"/>
<path d="M459.491 40.9977C458.701 40.9977 457.901 40.9977 457.111 40.9977C456.768 40.9847 456.426 41.0433 456.106 41.1699C455.787 41.2965 455.498 41.4883 455.257 41.733C455.016 41.9776 454.829 42.2698 454.707 42.5909C454.586 42.912 454.532 43.2548 454.551 43.5977C454.251 51.8177 454.181 51.7277 462.381 51.4277C462.724 51.442 463.066 51.3847 463.386 51.2593C463.705 51.1339 463.995 50.9433 464.237 50.6996C464.479 50.4559 464.667 50.1645 464.79 49.8439C464.913 49.5233 464.968 49.1806 464.951 48.8377C465.011 48.0477 465.021 47.2577 465.021 46.4677C465.071 41.2277 464.781 40.9377 459.491 40.9977Z" fill="#353F4C" fill-opacity="0.15"/>
<path d="M544.039 46.0004C544.039 45.2104 544.039 44.4104 544.039 43.6304C544.052 43.2882 543.994 42.9471 543.868 42.6283C543.743 42.3096 543.554 42.0201 543.312 41.778C543.069 41.5359 542.78 41.3463 542.461 41.2211C542.142 41.0959 541.801 41.0378 541.459 41.0504L540.779 41.0504C534.119 40.5304 532.469 42.4104 533.719 49.0504C533.754 49.6787 534.025 50.2705 534.477 50.708C534.929 51.1455 535.53 51.3963 536.159 51.4104C537.624 51.5087 539.092 51.5321 540.559 51.4804C543.379 51.3704 543.909 50.8204 544.089 48.0804C544.089 47.4104 544.089 46.7304 544.089 46.0804L544.039 46.0004Z" fill="#353F4C" fill-opacity="0.15"/>
<path d="M333.429 36.1399C339.049 36.1399 339.049 36.1399 339.049 30.5599C339.049 24.9799 339.049 25.0799 333.679 25.0699C327.879 25.0699 327.879 25.0699 327.889 30.8199C327.899 36.1399 327.899 36.1399 333.429 36.1399Z" fill="#353F4C" fill-opacity="0.15"/>
<path d="M349.279 25.0699C343.689 25.0699 343.689 25.0699 343.689 30.6899C343.689 36.1299 343.689 36.1299 349.099 36.1399C354.869 36.1399 354.869 36.1399 354.859 30.3499C354.849 25.0699 354.849 25.0699 349.279 25.0699Z" fill="#353F4C" fill-opacity="0.15"/>
<path d="M364.71 25.24C359.14 25.32 359.53 24.56 359.55 30.24C359.55 36.81 358.81 35.89 365.4 35.91C370.64 35.91 370.4 36.7 370.4 30.73C370.4 24.32 370.74 25.3 365.01 25.2L364.71 25.24Z" fill="#353F4C" fill-opacity="0.15"/>
<path d="M412.82 35.9382C413.5 35.9382 414.19 35.9382 414.82 35.9382C417.01 35.7582 417.75 35.2182 417.82 33.0982C418.16 24.6582 418.1 25.0982 409.96 25.3182C409.589 25.2933 409.218 25.3493 408.871 25.4823C408.524 25.6154 408.211 25.8223 407.952 26.0887C407.693 26.3551 407.495 26.6746 407.372 27.0251C407.249 27.3755 407.204 27.7485 407.24 28.1182C407.24 28.9082 407.18 29.6982 407.17 30.4982C407.21 35.7382 407.49 35.9982 412.82 35.9382Z" fill="#353F4C" fill-opacity="0.15"/>
<path d="M417.9 14.9505L417.9 14.2705C417.83 10.0505 417.46 9.68051 413.13 9.65051C407.56 9.65051 407.21 9.95051 407.31 15.6505C407.37 19.7205 407.83 20.2005 411.77 20.2805L412.49 20.2805C417.61 20.2805 417.9 20.0005 417.9 14.9505Z" fill="#353F4C" fill-opacity="0.15"/>
<path d="M449.38 14.8491C449.38 14.2891 449.38 13.7192 449.38 13.1492C449.21 10.3992 448.65 9.81917 445.87 9.69917C444.4 9.62917 442.87 9.69917 441.45 9.69917C441.107 9.68412 440.764 9.73948 440.442 9.86189C440.121 9.98431 439.828 10.1712 439.582 10.411C439.336 10.6508 439.141 10.9385 439.01 11.2563C438.879 11.5741 438.814 11.9154 438.82 12.2592C438.82 12.4892 438.82 12.7092 438.82 12.9392C438.25 19.6392 440.47 21.5392 447.11 20.0892C447.68 20.0373 448.214 19.7865 448.618 19.3806C449.022 18.9748 449.271 18.4397 449.32 17.8692C449.44 16.8692 449.44 15.8692 449.5 14.8692L449.38 14.8491Z" fill="#353F4C" fill-opacity="0.15"/>
<path d="M544.4 14.8096C544.4 9.42957 544.4 9.42956 538.92 9.42956C533.26 9.42957 533.26 9.42955 533.26 14.9796C533.26 20.5296 533.26 20.5696 538.92 20.5696C544.4 20.5596 544.4 20.5596 544.4 14.8096Z" fill="#353F4C" fill-opacity="0.15"/>
<path d="M665.181 9.56766C659.181 9.64766 659.751 8.83768 659.751 15.0177C659.751 21.0177 659.121 20.4076 665.251 20.4076C671.071 20.4076 670.471 20.9276 670.521 15.1176C670.531 15.0045 670.531 14.8908 670.521 14.7777C670.491 8.90768 670.971 9.63766 665.181 9.56766Z" fill="#353F4C" fill-opacity="0.15"/>
<path fill-rule="evenodd" clip-rule="evenodd" d="M7.08984 128.485C13.6993 128.555 12.5096 128.275 12.5596 133.955C12.6196 140.375 12.9995 139.406 7.18945 139.506C1.17947 139.336 1.4295 140.635 1.47949 133.955C1.50943 128.945 0.179993 128.415 7.08984 128.485ZM264.527 119.487C265.817 118.177 268.218 118.947 270.128 118.947C276.328 118.987 275.538 118.257 275.538 124.407C275.558 131.117 276.027 129.936 269.938 130.066C269.598 130.066 269.258 130.077 268.918 130.087C263.558 129.997 264.048 130.697 264.048 125.087C264.048 123.177 263.238 120.797 264.527 119.487ZM286.269 118.936C292.278 119.026 291.418 118.337 291.418 124.217C291.418 131.037 292.258 130.037 285.418 130.037C279.258 130.057 279.898 130.817 279.898 124.747C279.868 118.937 279.898 118.936 285.568 118.936H286.269ZM48.5684 118.936C54.2283 118.936 54.2285 118.977 54.2285 124.527C54.2285 130.077 54.2281 130.077 48.5684 130.077C43.0885 130.077 43.0879 130.077 43.0879 124.697C43.0879 118.947 43.0883 118.946 48.5684 118.936ZM-161.761 119.437C-160.451 118.158 -158.081 118.947 -156.181 118.947C-149.951 118.967 -150.761 118.258 -150.761 124.317C-150.751 130.997 -150.051 129.967 -156.521 130.067C-156.751 130.067 -157.001 130.077 -157.201 130.067C-162.811 129.987 -162.251 130.747 -162.251 124.987C-162.251 123.097 -163.071 120.717 -161.761 119.437ZM200.888 124.996C200.968 118.256 199.688 118.996 207.098 118.996C213.188 118.986 212.278 118.406 212.278 124.286C212.288 130.886 213.098 129.926 206.458 130.036C200.598 129.926 200.818 130.926 200.888 124.996ZM-77.7607 119.099C-71.6307 119.099 -72.2607 118.489 -72.2607 124.489C-72.2607 130.669 -71.6907 129.858 -77.6904 129.938C-83.4804 129.868 -83.0003 130.598 -83.0303 124.728C-83.0403 124.615 -83.0403 124.502 -83.0303 124.389C-82.9803 118.579 -83.5805 119.098 -77.7607 119.099ZM175.719 119.225C179.658 119.305 180.119 119.786 180.179 123.856C180.279 129.556 179.928 129.856 174.358 129.856C170.029 129.826 169.658 129.456 169.588 125.236V124.556C169.588 119.506 169.878 119.225 174.998 119.225H175.719ZM140.378 119.417C147.018 117.967 149.238 119.867 148.668 126.567V127.247C148.674 127.591 148.609 127.932 148.479 128.25C148.347 128.568 148.153 128.856 147.906 129.096C147.66 129.335 147.367 129.522 147.046 129.644C146.725 129.767 146.382 129.823 146.038 129.807C144.618 129.807 143.088 129.877 141.618 129.807C138.838 129.687 138.278 129.107 138.108 126.357V124.657L137.988 124.638C138.048 123.638 138.048 122.637 138.168 121.638C138.217 121.067 138.466 120.532 138.87 120.126C139.274 119.72 139.808 119.469 140.378 119.417ZM76.6387 109.187C78.4485 109.187 80.2683 109.097 82.0781 109.187C84.6381 109.307 85.1286 109.878 85.3086 112.528V114.227C85.3486 119.857 85.2083 119.988 79.6885 119.988C74.2285 119.998 73.9984 119.768 74.0684 114.208C74.0784 113.308 74.0885 112.398 74.1885 111.498C74.1908 111.183 74.2571 110.872 74.3828 110.584C74.5085 110.295 74.691 110.035 74.9199 109.819C75.1488 109.603 75.4196 109.437 75.7148 109.328C76.0101 109.219 76.3245 109.171 76.6387 109.187ZM238.389 103.366C243.799 103.376 243.799 103.376 243.799 108.816C243.799 114.436 243.799 114.436 238.209 114.436C232.639 114.436 232.639 114.436 232.629 109.156C232.619 103.367 232.619 103.366 238.389 103.366ZM254.059 103.366C259.589 103.366 259.589 103.366 259.599 108.686C259.609 114.436 259.609 114.436 253.809 114.436C248.439 114.426 248.438 114.526 248.438 108.946C248.438 103.367 248.439 103.366 254.059 103.366ZM-50.0811 103.395H-45.6611C-39.6213 103.485 -40.2509 102.525 -40.251 108.835C-40.251 115.415 -39.5812 114.295 -45.8711 114.415C-52.681 114.275 -51.6808 115.435 -51.7607 108.435C-51.8107 107.305 -51.7607 106.165 -51.7607 105.035C-51.794 104.808 -51.7735 104.577 -51.7002 104.36C-51.627 104.143 -51.5036 103.947 -51.3398 103.787C-51.176 103.627 -50.9764 103.507 -50.7578 103.439C-50.5391 103.371 -50.3068 103.357 -50.0811 103.395ZM287.159 103.405C291.169 103.455 291.359 103.605 291.439 107.605V108.605C291.459 114.395 291.459 114.395 285.699 114.395C284.799 114.395 283.889 114.436 282.979 114.386C280.42 114.236 280.07 113.925 279.93 111.386C279.85 109.807 279.85 108.224 279.93 106.645C280.09 103.836 280.379 103.525 283.089 103.405H287.159ZM160.18 103.386C165.05 103.386 165.18 103.526 165.18 108.386C165.18 114.386 165.18 114.386 159.18 114.386C158.39 114.386 157.59 114.426 156.8 114.346C154.07 114.196 153.74 113.886 153.62 111.086C153.535 109.497 153.535 107.905 153.62 106.316C153.77 103.826 154.14 103.516 156.77 103.386H160.18ZM217.088 108.776C217.088 102.806 216.848 103.597 222.088 103.597C228.678 103.617 227.938 102.696 227.938 109.266C227.958 114.946 228.348 114.187 222.778 114.266L222.478 114.307C216.748 114.207 217.088 115.186 217.088 108.776ZM206.419 103.507C207.559 103.507 208.699 103.587 209.759 103.537C211.318 103.457 212.058 104.107 212.059 105.717V112.187C212.059 113.557 211.538 114.277 210.059 114.277C208.809 114.277 207.559 114.277 206.309 114.277C200.999 114.277 200.999 114.227 200.999 108.867C200.999 103.507 200.999 103.507 206.419 103.507ZM174.668 103.568C179.998 103.508 180.278 103.768 180.318 109.008C180.308 109.808 180.248 110.599 180.248 111.389C180.284 111.758 180.239 112.131 180.116 112.481C179.993 112.832 179.795 113.151 179.536 113.418C179.277 113.684 178.964 113.891 178.617 114.024C178.27 114.157 177.899 114.213 177.528 114.188C169.388 114.408 169.328 114.848 169.668 106.408C169.738 104.288 170.478 103.748 172.668 103.568H174.668ZM267.479 103.556C269.055 103.476 270.633 103.476 272.209 103.556C274.739 103.676 275.249 104.226 275.459 106.846V108.535C275.499 114.065 275.299 114.256 269.869 114.256C269.079 114.256 268.289 114.295 267.529 114.235C264.969 114.065 264.42 113.535 264.27 110.945C264.195 109.596 264.195 108.244 264.27 106.895C264.41 104.285 264.969 103.696 267.479 103.556ZM-92.3809 88.078C-86.881 88.158 -87.1211 87.3177 -87.1211 93.4471C-87.1111 99.9871 -87.041 98.8772 -92.291 98.9872C-93.5809 98.9872 -94.6109 99.0179 -95.6309 98.9579C-98.2907 98.8779 -98.3604 98.8272 -98.4404 96.3173C-98.4904 94.5074 -98.4904 92.6876 -98.4404 90.8778C-98.3604 88.2278 -98.3003 88.178 -95.7803 88.078H-92.3809ZM200.829 93.4081C200.809 86.7482 200.159 87.7479 206.688 87.7479C213.068 87.7479 212.349 86.8479 212.329 93.2479C212.309 99.6479 213.319 98.7876 206.849 98.8876H206.169C200.039 98.7976 200.829 99.5879 200.829 93.4081ZM254.058 87.7762C259.517 87.7762 259.518 87.9066 259.518 93.3163C259.518 98.7263 259.387 98.7867 253.987 98.7967C248.588 98.8067 248.508 98.7264 248.508 93.2665C248.508 87.8366 248.598 87.7762 254.058 87.7762ZM288.019 87.8153C290.598 87.9753 291.138 88.5054 291.318 91.0653V92.7548C291.398 98.7547 291.318 98.7548 285.318 98.7548C280.138 98.7348 279.968 98.5851 279.968 93.4452C279.948 87.8952 280.038 87.8251 285.658 87.8251C286.448 87.8251 287.239 87.7853 288.019 87.8153ZM220.848 87.8358C228.027 87.5558 228.347 87.8456 228.027 94.9852C227.887 98.1852 227.468 98.5955 224.188 98.7255C223.738 98.7255 223.288 98.7255 222.838 98.7255C217.098 98.7655 216.937 98.6056 216.987 92.9257V91.576C217.137 88.376 217.568 87.9558 220.848 87.8358ZM237.808 87.8866C244.307 87.9066 243.617 87.0767 243.617 93.6464C243.627 99.1563 244.117 98.6962 238.438 98.6962C232.088 98.6862 232.878 99.3466 232.798 93.0868C232.838 87.2568 232.398 87.8766 237.808 87.8866ZM264.259 93.4862C264.269 87.1963 263.668 87.9061 269.958 87.9061C275.318 87.8661 275.318 88.0165 275.318 93.3465C275.318 98.6762 275.318 98.6757 269.998 98.6757H269.318C263.748 98.6256 264.259 99.1261 264.259 93.4862ZM46.9287 88.0262C48.3956 87.9746 49.8646 87.9973 51.3291 88.0956C51.9582 88.1097 52.5585 88.3612 53.0107 88.7987C53.463 89.2362 53.7345 89.8277 53.7695 90.4559C55.0195 97.0959 53.369 98.9759 46.709 98.4559H46.0293C45.6872 98.4685 45.346 98.4102 45.0273 98.285C44.7086 98.1598 44.4189 97.9705 44.1768 97.7284C43.9346 97.4863 43.7453 97.1965 43.6201 96.8778C43.4949 96.5591 43.4366 96.218 43.4492 95.8758V93.5057L43.3994 93.4257V91.4257C43.5794 88.686 44.1092 88.1363 46.9287 88.0262ZM125.109 88.079C133.309 87.779 133.239 87.689 132.939 95.909C132.958 96.2518 132.905 96.5949 132.783 96.9159C132.662 97.2368 132.474 97.5288 132.233 97.7733C131.993 98.018 131.703 98.2102 131.384 98.3368C131.065 98.4633 130.723 98.5216 130.38 98.5087C129.59 98.5087 128.79 98.5087 128 98.5087C122.71 98.5687 122.42 98.2787 122.47 93.0389C122.47 92.249 122.48 91.4588 122.54 90.6688C122.523 90.3259 122.577 89.9826 122.7 89.662C122.823 89.3416 123.011 89.0501 123.253 88.8065C123.495 88.5628 123.785 88.3723 124.104 88.2469C124.424 88.1216 124.766 88.0647 125.109 88.079ZM159.968 72.1483C165.248 72.1483 165.248 72.1887 165.248 77.5087C165.248 83.5082 165.248 83.5087 159.248 83.5087C158.568 83.5087 157.888 83.5084 157.218 83.4784C153.868 83.3284 153.598 83.0578 153.508 79.6678V78.6678C153.568 71.9583 152.968 72.1483 159.968 72.1483ZM271.798 72.1171C275.078 72.2271 275.518 72.6576 275.658 75.8876V77.2479C275.698 83.4474 275.698 83.4471 269.469 83.4471C263.989 83.4371 263.988 83.4172 263.988 77.9872C263.978 72.1176 263.978 72.1171 269.748 72.1171C270.428 72.1171 271.108 72.0971 271.798 72.1171ZM-29.9805 72.1669C-24.4805 72.1769 -24.4209 72.2278 -24.4209 77.5878C-24.4109 83.3472 -24.4806 83.4076 -30.2402 83.3876H-30.9209C-35.8105 83.3376 -35.9805 83.1667 -35.9805 78.1669C-35.9805 72.1672 -35.9803 72.1669 -29.9805 72.1669ZM190.889 72.2176C196.328 72.2176 196.478 72.3681 196.488 77.6776V78.0184C196.468 83.1279 196.258 83.3485 191.099 83.3485C185.499 83.3785 185.328 83.0476 185.338 77.7176C185.348 72.388 185.509 72.2176 190.889 72.2176ZM253.638 72.2157C259.438 72.1957 259.518 72.2859 259.518 78.0858C259.498 83.1356 259.267 83.3456 254.067 83.3456C248.668 83.3256 248.527 83.1855 248.527 77.8456C248.527 77.2756 248.507 76.7051 248.527 76.1151C248.627 72.8456 249.098 72.3557 252.277 72.2157H253.638ZM285.919 72.1669C292.189 72.2169 291.419 71.5773 291.419 77.577C291.389 83.807 292.409 83.2977 285.579 83.2977C278.749 83.2977 280.029 83.7572 279.879 77.7577C279.999 71.5077 279.129 72.2269 285.569 72.1669H285.919ZM-140.28 72.1981C-135.28 72.2681 -135.14 71.4079 -135.19 77.4579C-135.23 82.4377 -134.111 83.408 -140.931 83.288C-146.43 83.198 -146.431 83.2676 -146.431 77.7079C-146.381 71.6579 -147 72.2481 -141 72.1981H-140.28ZM239.979 72.3583C242.959 72.5283 243.469 73.0686 243.569 76.0682C243.659 77.4281 243.569 78.7884 243.569 80.1483C243.529 81.2383 243.159 82.3587 242.079 82.5887C239.389 83.1487 236.529 83.6382 234.079 82.3182C232.07 81.2382 233.079 78.829 232.879 76.9891C232.839 76.5367 232.839 76.0812 232.879 75.6288C233.069 73.1088 233.619 72.5688 236.239 72.3788H237.939L237.979 72.3583H239.979ZM-253.981 72.3475H-248.521C-248.179 72.3089 -247.832 72.3466 -247.506 72.4589C-247.18 72.5711 -246.883 72.7546 -246.637 72.996C-246.391 73.2373 -246.202 73.5307 -246.083 73.8544C-245.964 74.178 -245.919 74.5239 -245.951 74.8671C-245.891 76.5671 -245.881 78.2774 -245.951 79.9774C-246.021 82.4371 -246.531 82.9371 -248.951 83.1171H-253.331C-256.031 82.9871 -256.531 82.5171 -256.621 79.9071C-256.721 78.2071 -256.711 76.4967 -256.621 74.7967C-256.64 74.4537 -256.584 74.1105 -256.455 73.7919C-256.326 73.473 -256.129 73.1859 -255.877 72.952C-255.625 72.7181 -255.324 72.5429 -254.996 72.4383C-254.669 72.3338 -254.322 72.303 -253.981 72.3475ZM222.868 72.2655C228.768 72.2655 228.088 72.1554 228.008 77.3954C227.928 83.195 229.528 83.1053 222.118 83.1053C216.918 83.1653 216.918 83.105 216.918 78.1053C216.878 71.0753 217.128 72.4555 222.528 72.3055L222.868 72.2655ZM124.919 62.327C131.219 62.427 130.479 61.5075 130.559 67.8973V68.2372C130.499 74.0272 131.018 73.2372 125.438 73.2372C118.869 73.2172 119.639 74.1673 119.639 67.5575C119.619 61.6575 119.069 62.397 124.919 62.327ZM267.079 56.6063C268.665 56.5263 270.253 56.5263 271.839 56.6063C275.019 56.7063 275.479 57.2064 275.609 60.4764V61.8358C275.609 67.9158 275.609 67.9159 269.609 67.9159C264.059 67.8959 264.06 67.8657 264.06 62.5057C264.06 61.5759 263.999 60.6658 264.079 59.746C264.219 57.2162 264.579 56.7863 267.079 56.6063ZM185.398 61.9969C185.198 55.6069 186.319 56.6073 190.849 56.6073C197.388 56.6073 196.519 56.247 196.519 62.2469C196.529 68.5268 197.138 67.8266 190.849 67.8866C185.599 67.7366 185.338 69.1368 185.398 62.3368V61.9969ZM17.417 56.577C22.647 56.607 22.7676 56.7174 22.7676 61.8973C22.7876 67.8972 22.7874 67.8978 16.7178 67.8778H16.0371C11.6975 67.8278 11.4072 67.5373 11.3271 63.2577V62.577C11.2971 56.6575 11.4175 56.577 17.417 56.577ZM174.958 56.577C180.488 56.577 180.648 56.7974 180.648 62.2772C180.648 67.7572 180.518 67.8778 174.898 67.8778C169.468 67.8678 169.389 67.7971 169.389 62.3671C169.389 61.9172 169.378 61.5073 169.408 61.0174C169.468 56.9976 169.818 56.647 173.958 56.577H174.958ZM-45.3613 56.788C-40.3614 56.798 -40.3613 56.8183 -40.3613 61.9881C-40.3613 67.7381 -40.3616 67.7381 -46.1816 67.7381C-52.6213 67.7481 -51.5816 67.7278 -51.6816 62.2079C-51.6816 56.7883 -51.6809 56.788 -46.041 56.788H-45.3613ZM236.409 56.786C237.764 56.706 239.123 56.706 240.479 56.786C242.898 56.966 243.439 57.4958 243.579 59.8758C243.639 61.2257 243.579 62.5856 243.579 63.9354C243.469 67.0954 242.959 67.5757 239.719 67.7157H237.436C233.052 67.6864 232.858 67.1637 232.858 62.1854C232.858 61.6257 232.839 61.056 232.889 60.5262C233.009 57.4562 233.469 56.946 236.409 56.786ZM254.009 56.8475C259.439 56.8375 259.448 56.9275 259.438 62.3075C259.428 67.6873 259.319 67.6874 253.969 67.6874C248.619 67.6874 248.619 67.6874 248.619 62.2577C248.619 56.8477 248.579 56.8575 254.009 56.8475ZM-302.221 57.0868C-299.641 56.7368 -296.731 56.1768 -294.551 57.4364C-292.371 58.6963 -293.62 61.4364 -293.37 63.4364C-293.35 63.6626 -293.35 63.8908 -293.37 64.1171C-293.53 66.9368 -294.02 67.4368 -296.82 67.6268C-297.38 67.6268 -297.951 67.6268 -298.521 67.6268C-303.76 67.6468 -304 67.3762 -304 61.3163C-304 61.0057 -304 59.9864 -303.88 58.9969C-303.866 58.536 -303.693 58.094 -303.391 57.746C-303.088 57.398 -302.675 57.165 -302.221 57.0868ZM285.648 41.1473C291.488 41.1473 291.488 41.1477 291.488 46.8475C291.488 52.3775 291.488 52.3778 285.838 52.3778C279.828 52.3778 279.828 52.3776 279.828 46.8778C279.828 41.1478 279.808 41.1473 285.648 41.1473ZM253.779 41.1678C259.619 41.1578 259.619 41.1581 259.619 46.9676C259.609 52.3476 259.609 52.3475 254.089 52.3475C248.429 52.3575 248.429 52.3579 248.429 46.7684V46.4276C248.449 41.168 248.469 41.1678 253.779 41.1678ZM-140.842 41.1981C-135.102 41.1981 -135.102 41.3685 -135.102 46.8085C-135.102 52.2485 -135.182 52.3387 -140.592 52.3387C-146.462 52.3387 -146.481 52.3282 -146.481 46.8983C-146.491 41.1986 -146.582 41.1981 -140.842 41.1981ZM160.309 41.2176C165.748 41.2476 165.099 40.928 165.099 45.9276C165.069 53.4176 165.939 52.2782 158.889 52.2782C153.049 52.3082 153.599 53.0079 153.599 47.0682C153.599 45.8182 153.659 44.568 153.559 43.288C153.479 41.8481 154.219 41.288 155.559 41.288C157.148 41.218 158.729 41.2176 160.309 41.2176ZM269.829 41.2176C276.449 41.2576 275.509 40.6785 275.509 46.7284C275.539 53.298 275.949 52.1677 269.889 52.2977C263.359 52.1977 264.099 53.1779 264.059 46.9579C264.009 41.218 264.049 41.2176 269.829 41.2176ZM-168.771 41.2264C-167.241 41.2064 -166.771 42.0063 -166.771 43.3563V50.1659C-166.741 51.8159 -167.591 52.356 -169.101 52.286C-170.241 52.286 -171.371 52.286 -172.511 52.286C-173.531 52.286 -174.561 52.2362 -175.601 52.2762C-177.28 52.3762 -178.13 51.7662 -178.07 49.9667C-178.01 47.6967 -178.07 45.4163 -178.07 43.1464C-178.07 41.9264 -177.57 41.2265 -176.271 41.2264H-168.771ZM174.949 41.3046C180.589 41.3645 180.449 39.9451 180.449 47.0047C180.469 52.2347 180.449 52.2352 175.119 52.2352C168.869 52.1752 169.519 53.0849 169.459 46.6854C169.519 40.6854 168.819 41.2346 174.949 41.3046ZM111.948 41.3983C117.058 41.3883 117.309 41.6579 117.309 46.8075C117.309 51.9575 117.068 52.1876 111.938 52.1776C106.809 52.1676 106.578 51.9279 106.578 46.788C106.578 41.6481 106.829 41.3983 111.948 41.3983ZM144.008 41.4159C149.208 41.3559 148.948 40.9059 148.948 46.4159C148.938 52.9952 149.358 52.0659 143.358 52.1659C137.638 52.0959 137.918 52.8251 137.948 47.3251C138.008 40.5755 137.168 41.4159 144.008 41.4159ZM50.0898 41.536C53.2297 41.686 53.7496 42.2161 53.8896 45.4159C54.1396 51.8759 53.6696 52.3658 47.1396 52.0858C43.9799 51.9458 43.4894 51.4561 43.3594 48.2264V46.8661C43.35 42.1318 43.6223 41.5639 47.8418 41.536H50.0898ZM236.918 41.536C243.308 41.286 244.798 43.1762 243.418 49.746C243.371 50.314 243.127 50.848 242.727 51.2538C242.326 51.6595 241.796 51.9122 241.229 51.9667C240.332 52.0568 239.43 52.0969 238.528 52.0868C233.198 52.1268 232.948 51.8463 232.948 46.6063C232.948 46.2665 232.938 45.9266 232.918 45.5868C233.068 42.1968 233.588 41.666 236.918 41.536ZM286.22 25.5555C291.48 25.5355 291.479 25.5657 291.479 30.8456C291.49 36.7056 291.489 36.7059 285.779 36.7059H284.76C279.85 36.6859 279.85 36.6853 279.85 31.7753C279.84 24.9557 279.68 25.5555 286.22 25.5555ZM-77.7705 25.9481C-76.9806 25.9481 -76.1803 25.8781 -75.4004 25.9481C-73.1204 26.1381 -72.5304 26.7285 -72.4004 29.1385C-72.3271 30.7181 -72.3436 32.3011 -72.4502 33.8788C-72.4599 34.5081 -72.7099 35.1098 -73.1484 35.5614C-73.5871 36.013 -74.1816 36.2805 -74.8105 36.3085C-81.5402 37.5383 -83.3204 35.9883 -82.8105 29.2587V28.578C-82.8259 28.2365 -82.7702 27.8951 -82.6475 27.576C-82.5246 27.2569 -82.337 26.9667 -82.0967 26.7235C-81.8563 26.4803 -81.5677 26.2895 -81.25 26.163C-80.9323 26.0365 -80.5917 25.9768 -80.25 25.9881H-77.8701L-77.7705 25.9481ZM206.659 25.6083C213.119 25.5982 212.329 24.6484 212.329 31.118C212.329 37.588 213.099 36.5686 206.709 36.6786C200.219 36.5586 200.829 37.6582 200.839 31.3387C200.849 24.6087 200.199 25.6183 206.659 25.6083ZM80.8096 25.5848C86.0694 25.6048 86.0693 25.6452 86.0693 30.9149C86.0793 36.6649 86.079 36.6649 80.249 36.6649C79.6792 36.6649 79.1189 36.6751 78.499 36.6551C74.7996 36.5551 74.579 36.3651 74.499 32.5555V31.8749C74.449 25.5852 74.4497 25.5848 80.8096 25.5848ZM159.519 25.6473C165.519 25.6373 165.059 24.7679 165.059 30.9979C165.049 37.6375 165.608 36.5076 159.479 36.6376L158.459 36.6473C153.149 36.5873 153.629 37.2673 153.629 31.6473C153.669 24.7077 152.769 25.6473 159.519 25.6473ZM266.658 25.787C268.468 25.727 270.278 25.6765 272.088 25.7264C274.908 25.8164 275.378 26.3171 275.568 29.1571V31.1571C275.568 36.4468 275.408 36.6063 269.998 36.6063C264.099 36.6063 264.078 36.5967 264.188 30.8173C264.188 29.9173 264.228 29.0063 264.278 28.1063C264.26 27.7918 264.31 27.4771 264.424 27.1835C264.538 26.8897 264.714 26.6241 264.939 26.4042C265.165 26.1842 265.435 26.0145 265.731 25.9081C266.028 25.8016 266.344 25.7607 266.658 25.787ZM-14.6221 25.6971C-8.90216 25.8371 -9.00195 24.6075 -9.00195 31.0673C-9.00195 37.7071 -9.0321 36.4876 -14.4717 36.5575C-19.9116 36.6275 -19.9121 36.5675 -19.9121 31.0477C-19.9121 25.6977 -19.9121 25.6971 -14.6221 25.6971ZM188.067 25.8368C194.977 24.5268 197.738 27.3073 196.298 34.2069C196.257 34.8329 195.978 35.42 195.519 35.8475C195.059 36.275 194.454 36.5116 193.827 36.5077C193.037 36.5077 192.247 36.5077 191.457 36.5077V36.537C190.667 36.537 189.877 36.587 189.087 36.537C186.357 36.3869 185.807 35.8468 185.688 33.037C185.631 31.457 185.655 29.8753 185.758 28.2977C185.759 27.6712 185.998 27.0679 186.427 26.6112C186.856 26.1545 187.442 25.8774 188.067 25.8368ZM29.918 26.0077C31.938 25.9077 33.998 25.9177 35.998 26.0077C36.5229 25.9985 37.0315 26.1907 37.4199 26.5438C37.8083 26.8969 38.0472 27.3848 38.0879 27.9081C38.3279 30.3581 39.028 33.0083 37.668 35.1883C36.3079 37.368 33.6679 36.1576 31.668 36.4276C31.5549 36.4376 31.4412 36.4376 31.3281 36.4276C28.2081 36.2876 27.6981 35.7577 27.5781 32.5477V31.1883L27.5381 31.1678C27.5881 30.1679 27.588 29.1678 27.708 28.1678C27.7236 27.5915 27.9627 27.0436 28.375 26.6405C28.7875 26.2373 29.3412 26.0101 29.918 26.0077ZM142.048 25.787C148.788 25.577 149.218 26.0274 148.888 32.7274C148.728 35.8972 148.228 36.3867 144.998 36.5067H143.618C138.148 36.5067 137.938 36.317 138.048 30.787V29.787C138.138 26.3872 138.628 25.897 142.048 25.787ZM112.829 25.8553C116.729 25.9253 117.16 26.3258 117.26 30.1053V31.1053C117.27 36.2753 117.029 36.5057 111.949 36.5057C106.999 36.5057 106.659 36.1853 106.649 31.4354C106.629 26.0059 106.9 25.7654 112.829 25.8553ZM175.389 25.8358C179.788 25.8858 180.219 26.2762 180.219 30.7557V31.0965C180.229 36.2462 179.968 36.5057 174.868 36.5057C169.879 36.5057 169.579 36.2061 169.559 31.4266C169.529 26.0266 169.779 25.7858 175.389 25.8358ZM-109.57 25.828C-103.83 25.818 -103.651 25.9977 -103.771 31.7674C-103.771 32.3274 -103.721 32.8979 -103.771 33.4579C-103.991 35.6577 -104.54 36.2379 -106.66 36.4579C-107.3 36.4579 -107.98 36.4579 -108.66 36.4579C-114.75 36.5079 -114.97 36.2274 -114.84 30.2274C-114.76 26.3277 -114.35 25.898 -110.57 25.828H-109.57ZM235.649 26.0253C237.349 25.9753 238.949 25.9753 240.749 26.0253C242.549 26.0753 243.429 27.1154 243.429 28.8553V30.8553L243.459 30.9149V32.9149C243.299 35.6948 242.759 36.2251 239.989 36.4051C233.359 36.8151 231.699 34.8248 233.099 28.2548C233.162 27.6291 233.46 27.0505 233.934 26.6366C234.407 26.2226 235.021 26.0043 235.649 26.0253ZM-61.3105 9.96764C-55.7907 10.0476 -56.3105 9.24831 -56.3105 15.1083C-56.3505 22.048 -55.3612 21.1083 -62.1611 21.1083C-68.0605 21.1483 -67.3111 21.6778 -67.3711 15.8085C-67.3711 14.5585 -67.3809 13.418 -67.3809 12.038C-67.3808 10.6581 -66.7307 9.9677 -65.3809 9.96764H-61.3105ZM251.688 10.118C253.274 10.038 254.863 10.038 256.448 10.118C258.988 10.228 259.349 10.618 259.539 13.118V14.8182C259.599 21.1778 259.599 21.1783 253.169 21.1083C248.759 21.0583 248.559 20.8577 248.499 16.5077V15.788L248.579 15.828C248.579 14.928 248.519 14.018 248.579 13.118C248.759 10.6881 249.189 10.238 251.688 10.118ZM185.459 15.4061C185.449 8.72663 185.269 10.0467 190.949 10.0467C196.929 10.0067 196.489 9.157 196.489 15.4169V15.7567C196.359 21.4865 197.379 21.0068 191.249 21.0868C184.459 21.1868 185.459 20.7661 185.459 15.4061ZM48.9492 10.0067C54.1188 10.0267 54.1885 10.0875 54.1885 15.3973C54.1985 21.077 54.1587 21.077 48.5391 21.077L47.5186 21.0575C43.4188 20.9875 43.1889 20.7466 43.1289 16.5067V15.8475C43.1089 10.0075 43.1092 10.0067 48.9492 10.0067ZM1.20898 10.0458C7.56897 10.1458 6.90918 9.20627 6.90918 15.5663C6.90918 21.6561 7.62897 21.0458 1.49902 21.0458C-4.81046 21.0358 -4.02051 21.726 -4.02051 15.3563C-4.0405 9.33647 -4.57053 10.1257 1.20898 10.0458ZM271.179 10.0067C275.089 10.0467 275.449 10.4174 275.549 14.2674V15.6376C275.539 21.027 275.429 21.0872 269.999 21.0272C268.919 21.0272 267.779 21.0374 266.629 21.0174C266.288 21.0623 265.942 21.0288 265.616 20.9198C265.291 20.8107 264.994 20.6284 264.749 20.3876C264.504 20.1465 264.316 19.8522 264.202 19.5282C264.088 19.2043 264.049 18.8586 264.089 18.5174V12.3973C264.056 12.0836 264.093 11.7659 264.198 11.4686C264.304 11.1715 264.475 10.9021 264.698 10.6796C264.922 10.457 265.192 10.2867 265.49 10.1825C265.788 10.0783 266.105 10.0424 266.419 10.077C268.009 10.007 269.599 10.0067 271.179 10.0067ZM96.7695 10.077C102.219 10.137 101.74 9.52738 101.77 15.2772C101.8 21.0272 101.78 21.0272 95.9297 21.0272C90.5498 21.0172 90.5498 20.997 90.5498 15.537C90.5498 10.0775 90.5499 10.077 96.0693 10.077H96.7695ZM-43.7119 10.2059C-41.2519 10.3859 -40.6815 10.8659 -40.5215 13.2059C-40.3965 14.78 -40.3965 16.3614 -40.5215 17.9354C-40.7015 20.0754 -41.3015 20.6357 -43.5215 20.7557C-45.2095 20.8707 -46.9037 20.8707 -48.5918 20.7557C-50.7316 20.5557 -51.292 19.9256 -51.502 17.7557C-51.5527 17.0904 -51.5692 16.4228 -51.5518 15.7557C-51.5818 10.4357 -51.3513 10.2157 -46.0713 10.2157C-45.2815 10.2157 -44.4917 10.176 -43.7119 10.2059Z" fill="url(#paint0_linear_1507_60)" fill-opacity="0.15"/>
<defs>
<linearGradient id="paint0_linear_1507_60" x1="-304" y1="74.7238" x2="291.488" y2="74.7238" gradientUnits="userSpaceOnUse">
<stop stop-color="white" stop-opacity="0.01"/>
<stop offset="1" stop-color="#353F4C"/>
</linearGradient>
</defs>
</svg>
