<svg width="79" height="46" viewBox="0 0 79 46" fill="none" xmlns="http://www.w3.org/2000/svg">
<path fill-rule="evenodd" clip-rule="evenodd" d="M67.079 6.72286C82.4171 15.4875 82.4171 30.0288 67.079 38.7934C51.7409 47.7572 26.8416 47.7572 11.5036 38.7934C-3.83452 29.8296 -3.83452 15.4875 11.5036 6.72286C26.8416 -2.24095 51.7409 -2.24095 67.079 6.72286Z" fill="white" fill-opacity="0.05"/>
<path fill-rule="evenodd" clip-rule="evenodd" d="M61.2932 10.0629C73.4441 17.0347 73.4441 28.389 61.2932 35.3608C49.1423 42.3327 29.6208 42.3327 17.4699 35.3608C5.31895 28.389 5.31895 17.0347 17.4699 10.0629C29.6208 3.09102 49.1423 3.09102 61.2932 10.0629Z" fill="white" fill-opacity="0.1"/>
<path fill-rule="evenodd" clip-rule="evenodd" d="M55.321 13.4751C64.2848 18.6542 64.2848 26.8213 55.321 32.0003C46.5564 37.1794 32.0151 37.1794 23.2504 32.0003C14.2866 26.8213 14.2866 18.6542 23.2504 13.4751C32.2143 8.29605 46.5564 8.29605 55.321 13.4751Z" fill="white" fill-opacity="0.1"/>
</svg>
