<svg width="30" height="20" viewBox="0 0 30 20" fill="none" xmlns="http://www.w3.org/2000/svg">
<path d="M13.5693 11.0808C14.237 10.4132 15.3196 10.4131 15.9873 11.0808L18.5166 13.6101C19.184 14.2778 19.1842 15.3605 18.5166 16.0281L15.9873 18.5574C15.3197 19.2249 14.237 19.2247 13.5693 18.5574L11.04 16.0281C10.3724 15.3604 10.3724 14.2778 11.04 13.6101L13.5693 11.0808ZM8.27637 5.80151C8.94404 5.13384 10.0267 5.13384 10.6943 5.80151L13.2236 8.33081C13.8911 8.9985 13.8912 10.0812 13.2236 10.7488L10.6943 13.2781C10.0267 13.9454 8.94398 13.9454 8.27637 13.2781L5.74707 10.7488C5.07947 10.0812 5.07962 8.9985 5.74707 8.33081L8.27637 5.80151ZM18.7764 5.80151C19.444 5.13384 20.5267 5.13384 21.1943 5.80151L23.7236 8.33081C24.3911 8.9985 24.3912 10.0812 23.7236 10.7488L21.1943 13.2781C20.5267 13.9454 19.444 13.9454 18.7764 13.2781L16.2471 10.7488C15.5795 10.0812 15.5796 8.9985 16.2471 8.33081L18.7764 5.80151ZM3.03027 0.653076C3.69795 -0.014596 4.78057 -0.0145961 5.44824 0.653076L7.97754 3.18237C8.64497 3.85006 8.64513 4.93275 7.97754 5.60034L5.44824 8.12964C4.78063 8.797 3.69789 8.797 3.03027 8.12964L0.500977 5.60034C-0.166619 4.93274 -0.166469 3.85006 0.500977 3.18237L3.03027 0.653076ZM23.9209 0.500732C24.5886 -0.16694 25.6712 -0.16694 26.3389 0.500732L28.8682 3.03003C29.5356 3.69772 29.5358 4.78041 28.8682 5.448L26.3389 7.97729C25.6713 8.64466 24.5885 8.64466 23.9209 7.97729L21.3916 5.448C20.724 4.7804 20.7242 3.69772 21.3916 3.03003L23.9209 0.500732Z" fill="#FF9E58"/>
</svg>
