<svg width="24" height="16" viewBox="0 0 24 16" fill="none" xmlns="http://www.w3.org/2000/svg">
<path d="M12.7666 6.44971C12.2268 6.98935 11.3512 6.98943 10.8115 6.44971L8.76758 4.40478C8.22782 3.86502 8.22782 2.98947 8.76758 2.44971L10.8115 0.404784C11.3512 -0.134882 12.2268 -0.134725 12.7666 0.404784L14.8115 2.44971C15.3513 2.98946 15.3513 3.86502 14.8115 4.40478L12.7666 6.44971ZM17.0479 10.7173C16.5082 11.2568 15.6335 11.2566 15.0938 10.7173L13.0488 8.67236C12.5091 8.13264 12.5092 7.25802 13.0488 6.71826L15.0938 4.67334C15.6335 4.13367 16.5081 4.13363 17.0479 4.67334L19.0928 6.71826C19.6321 7.25802 19.6323 8.13272 19.0928 8.67236L17.0479 10.7173ZM8.56348 10.7173C8.02383 11.2568 7.14913 11.2566 6.60938 10.7173L4.56445 8.67236C4.02476 8.13264 4.02482 7.25802 4.56445 6.71826L6.60938 4.67334C7.14913 4.13367 8.02374 4.13363 8.56348 4.67334L10.6084 6.71826C11.1478 7.25802 11.148 8.13272 10.6084 8.67236L8.56348 10.7173ZM21.29 14.8774C20.7504 15.417 19.8757 15.4168 19.3359 14.8774L17.291 12.8325C16.7513 12.2928 16.7514 11.4182 17.291 10.8784L19.3359 8.8335C19.8757 8.29382 20.7503 8.29379 21.29 8.8335L23.335 10.8784C23.8743 11.4182 23.8745 12.2929 23.335 12.8325L21.29 14.8774ZM4.40332 14.9985C3.86367 15.5381 2.98897 15.5379 2.44922 14.9985L0.404297 12.9536C-0.135401 12.4139 -0.135339 11.5393 0.404297 10.9995L2.44922 8.95459C2.98898 8.41492 3.86359 8.41488 4.40332 8.95459L6.44824 10.9995C6.98761 11.5393 6.9878 12.414 6.44824 12.9536L4.40332 14.9985Z" fill="#FF9E58"/>
</svg>
