<svg width="24" height="16" viewBox="0 0 24 16" fill="none" xmlns="http://www.w3.org/2000/svg">
<path d="M10.9727 8.95068C11.5124 8.41092 12.388 8.41092 12.9277 8.95068L14.9727 10.9956C15.5123 11.5354 15.5124 12.411 14.9727 12.9507L12.9277 14.9946C12.388 15.5344 11.5124 15.5344 10.9727 14.9946L8.92773 12.9507C8.38802 12.411 8.38812 11.5354 8.92773 10.9956L10.9727 8.95068ZM6.69141 4.68604C7.23117 4.14628 8.10672 4.14628 8.64648 4.68604L10.6914 6.72998C11.2309 7.26971 11.2309 8.14535 10.6914 8.68506L8.64648 10.73C8.10678 11.2695 7.23113 11.2695 6.69141 10.73L4.64648 8.68506C4.10697 8.14534 4.10696 7.26969 4.64648 6.72998L6.69141 4.68604ZM15.1758 4.68604C15.7155 4.14628 16.5911 4.14628 17.1309 4.68604L19.1758 6.72998C19.7153 7.26971 19.7153 8.14535 19.1758 8.68506L17.1309 10.73C16.5912 11.2695 15.7155 11.2695 15.1758 10.73L13.1309 8.68506C12.5913 8.14534 12.5913 7.26969 13.1309 6.72998L15.1758 4.68604ZM2.44922 0.525879C2.98898 -0.0138807 3.86454 -0.0138806 4.4043 0.525879L6.44922 2.56982C6.98873 3.10955 6.98876 3.9852 6.44922 4.5249L4.4043 6.56982C3.86459 7.10935 2.98894 7.10933 2.44922 6.56982L0.404297 4.5249C-0.135216 3.98518 -0.13523 3.10953 0.404297 2.56982L2.44922 0.525879ZM19.3398 0.404785C19.8796 -0.134974 20.7552 -0.134974 21.2949 0.404785L23.3398 2.44873C23.8794 2.98846 23.8794 3.8641 23.3398 4.40381L21.2949 6.44873C20.7552 6.98826 19.8796 6.98824 19.3398 6.44873L17.2949 4.40381C16.7554 3.86409 16.7554 2.98844 17.2949 2.44873L19.3398 0.404785Z" fill="#FF9E58"/>
</svg>
