<svg width="20" height="21" viewBox="0 0 20 21" fill="none" xmlns="http://www.w3.org/2000/svg">
<path d="M19.5849 16.0698L15.9469 13.2772C15.7531 13.1285 15.5153 13.0569 15.2759 13.0752C15.0364 13.0935 14.811 13.2006 14.6398 13.3773L12.6962 15.3815L12.6895 15.3885C12.5263 15.5543 12.3073 15.6458 12.0801 15.6431C11.853 15.6405 11.636 15.5438 11.4763 15.3743L8.11637 11.8464L5.35786 8.94991C5.19634 8.7822 5.10434 8.55436 5.1018 8.31586C5.09927 8.07736 5.18641 7.84743 5.34432 7.67597L5.35094 7.66902L7.25972 5.62819C7.42801 5.44844 7.52998 5.21174 7.54744 4.96035C7.5649 4.70896 7.49671 4.45923 7.35504 4.25574L4.69544 0.435812C4.60921 0.31194 4.49847 0.209132 4.37082 0.134449C4.24317 0.0597663 4.10163 0.0149775 3.95594 0.00315895C3.81025 -0.00865965 3.66384 0.012772 3.52678 0.065982C3.38972 0.119192 3.26525 0.20292 3.16193 0.311415L1.79079 1.75111C1.70419 1.84204 1.6215 1.93644 1.54272 2.03432C1.29104 2.34657 0.746193 3.04684 0.53902 3.49738C0.0629104 4.55213 -0.103101 5.73192 0.0621722 6.88617C0.227445 8.04042 0.716507 9.11679 1.46694 9.97791L10.4972 19.4597C11.3173 20.2477 12.3425 20.7612 13.4417 20.9347C14.541 21.1083 15.6646 20.9339 16.6692 20.434C17.0982 20.2165 17.7652 19.6444 18.0626 19.3801C18.1558 19.2974 18.2457 19.2106 18.3323 19.1197L19.7034 17.68C19.8067 17.5715 19.8865 17.4408 19.9372 17.2969C19.9878 17.153 20.0082 16.9992 19.997 16.8463C19.9857 16.6933 19.9431 16.5447 19.872 16.4106C19.8008 16.2766 19.7029 16.1603 19.5849 16.0698Z" fill="#4E5C70"/>
</svg>
