<svg width="17" height="23" viewBox="0 0 17 23" fill="none" xmlns="http://www.w3.org/2000/svg">
<path fill-rule="evenodd" clip-rule="evenodd" d="M8.5 0C3.80071 0 0 3.69748 0 8.26913C0 13.1952 5.36714 19.9877 7.57714 22.5747C8.06286 23.1418 8.94929 23.1418 9.435 22.5747C11.6329 19.9877 17 13.1952 17 8.26913C17 3.69748 13.1993 0 8.5 0ZM8.5 11.2224C6.82429 11.2224 5.46429 9.89933 5.46429 8.26913C5.46429 6.63893 6.82429 5.31587 8.5 5.31587C10.1757 5.31587 11.5357 6.63893 11.5357 8.26913C11.5357 9.89933 10.1757 11.2224 8.5 11.2224Z" fill="#4E5C70"/>
</svg>
