<svg width="34" height="46" viewBox="0 0 34 46" fill="none" xmlns="http://www.w3.org/2000/svg">
<path opacity="0.5" fill-rule="evenodd" clip-rule="evenodd" d="M27.4813 30.775C33.456 34.1892 33.456 39.8535 27.4813 43.2676C21.5065 46.6817 11.8073 46.6817 5.83261 43.2676C-0.14212 39.7759 -0.14212 34.1892 5.83261 30.775C11.8073 27.2833 21.5065 27.2833 27.4813 30.775Z" fill="#E9E9EB"/>
<path opacity="0.5" fill-rule="evenodd" clip-rule="evenodd" d="M25.23 32.1091C29.9632 34.8249 29.9632 39.2477 25.23 41.9635C20.4968 44.6793 12.8925 44.6793 8.1593 41.9635C3.42607 39.2477 3.42607 34.8249 8.1593 32.1091C12.8925 29.3933 20.4968 29.3933 25.23 32.1091Z" fill="#DDDEE1"/>
<path opacity="0.5" fill-rule="evenodd" clip-rule="evenodd" d="M22.8849 33.4369C26.3766 35.4544 26.3766 38.6357 22.8849 40.6531C19.3931 42.6706 13.8064 42.6706 10.3922 40.6531C6.90051 38.6357 6.90051 35.4544 10.3922 33.4369C13.884 31.4195 19.4707 31.4195 22.8849 33.4369Z" fill="#D1D2D6"/>
<path fill-rule="evenodd" clip-rule="evenodd" d="M25.066 23.6632L19.8672 20.6371V20.7147V23.896L25.066 26.9222V23.8184V23.6632ZM19.9448 14.6624V14.8175V14.9727V15.1279V15.2055L25.1436 18.2317V18.1541V17.9989V17.8437V17.6885V14.5848L19.9448 11.5586V14.6624Z" fill="#943B3B"/>
<path fill-rule="evenodd" clip-rule="evenodd" d="M25.066 23.6632L19.8672 20.6371V20.7147V23.896L25.066 26.9222V23.8184V23.6632ZM19.9448 14.6624V14.8175V14.9727V15.1279V15.2055L25.1436 18.2317V18.1541V17.9989V17.8437V17.6885V14.5848L19.9448 11.5586V14.6624Z" fill="url(#paint0_linear_51_14401)"/>
<path fill-rule="evenodd" clip-rule="evenodd" d="M33.0586 16.1366L27.8599 13.1104L19.9453 11.5586L25.1441 14.5848L33.0586 16.1366Z" fill="#BF4A3D"/>
<path fill-rule="evenodd" clip-rule="evenodd" d="M33.0586 16.1366L27.8599 13.1104L19.9453 11.5586L25.1441 14.5848L33.0586 16.1366Z" fill="url(#paint1_linear_51_14401)"/>
<path fill-rule="evenodd" clip-rule="evenodd" d="M24.8307 18.159L19.6319 15.1328L5.50979 23.2802L5.35457 23.3577L5.27702 23.513L5.12179 23.5906L5.04418 23.6681L4.88902 23.8234L4.81141 23.9785L4.73386 24.0561L4.65625 24.2113L9.85503 27.2374L9.93264 27.0823L10.0102 26.9271L10.0878 26.8495L10.243 26.6943L10.3206 26.6167L10.4758 26.4615L10.5534 26.3839L10.7086 26.3064L24.8307 18.159Z" fill="#BF4A3D"/>
<path fill-rule="evenodd" clip-rule="evenodd" d="M24.8307 18.159L19.6319 15.1328L5.50979 23.2802L5.35457 23.3577L5.27702 23.513L5.12179 23.5906L5.04418 23.6681L4.88902 23.8234L4.81141 23.9785L4.73386 24.0561L4.65625 24.2113L9.85503 27.2374L9.93264 27.0823L10.0102 26.9271L10.0878 26.8495L10.243 26.6943L10.3206 26.6167L10.4758 26.4615L10.5534 26.3839L10.7086 26.3064L24.8307 18.159Z" fill="url(#paint2_linear_51_14401)"/>
<path fill-rule="evenodd" clip-rule="evenodd" d="M9.86021 27.2195L4.66143 24.1934L4.58382 24.3486L4.50621 24.5037L4.42866 24.659L4.35105 24.8141V24.9693V25.1245L4.27344 25.2797V25.4349V28.0731V28.2283L4.35105 28.3058V28.461V28.5387L4.42866 28.6938L4.50621 28.7714H4.58382L9.7826 31.7976L9.70505 31.72L9.62744 31.6424L9.54983 31.5648V31.4872V31.332L9.47222 31.1768V31.0992V28.3834V28.2283L9.54983 28.0731V27.9179V27.8403L9.62744 27.6851L9.70505 27.5299L9.7826 27.3747L9.86021 27.2195Z" fill="#943B3B"/>
<path fill-rule="evenodd" clip-rule="evenodd" d="M9.86021 27.2195L4.66143 24.1934L4.58382 24.3486L4.50621 24.5037L4.42866 24.659L4.35105 24.8141V24.9693V25.1245L4.27344 25.2797V25.4349V28.0731V28.2283L4.35105 28.3058V28.461V28.5387L4.42866 28.6938L4.50621 28.7714H4.58382L9.7826 31.7976L9.70505 31.72L9.62744 31.6424L9.54983 31.5648V31.4872V31.332L9.47222 31.1768V31.0992V28.3834V28.2283L9.54983 28.0731V27.9179V27.8403L9.62744 27.6851L9.70505 27.5299L9.7826 27.3747L9.86021 27.2195Z" fill="url(#paint3_linear_51_14401)"/>
<path fill-rule="evenodd" clip-rule="evenodd" d="M22.3526 0.232772L8.23047 8.3801L13.4292 11.3287L27.5513 3.18132L27.7066 3.10371H27.7841L27.9393 3.02616H28.0169H28.1721H28.2497L28.3273 3.10371L28.4825 3.18132L28.4049 3.10371L23.2061 0.155162L23.1285 0.0775513H23.0509L22.9733 0L22.8181 0.0775513H22.7406H22.5853L22.5077 0.155162L22.3526 0.232772Z" fill="#27AE60"/>
<path fill-rule="evenodd" clip-rule="evenodd" d="M22.3526 0.232772L8.23047 8.3801L13.4292 11.3287L27.5513 3.18132L27.7066 3.10371H27.7841L27.9393 3.02616H28.0169H28.1721H28.2497L28.3273 3.10371L28.4825 3.18132L28.4049 3.10371L23.2061 0.155162L23.1285 0.0775513H23.0509L22.9733 0L22.8181 0.0775513H22.7406H22.5853L22.5077 0.155162L22.3526 0.232772Z" fill="url(#paint4_linear_51_14401)"/>
<path fill-rule="evenodd" clip-rule="evenodd" d="M13.1133 8.15897L7.91455 5.13281L0 15.8408L5.19878 18.867L13.1133 8.15897Z" fill="#2A9155"/>
<path fill-rule="evenodd" clip-rule="evenodd" d="M13.1133 8.15897L7.91455 5.13281L0 15.8408L5.19878 18.867L13.1133 8.15897Z" fill="url(#paint5_linear_51_14401)"/>
<path fill-rule="evenodd" clip-rule="evenodd" d="M13.4202 16.8329L27.5423 8.68554C27.5423 8.68554 28.1631 8.14242 28.3959 7.75445C28.3959 7.75445 28.7839 6.9785 28.7839 6.59053V3.95231C28.7839 3.95231 28.6287 3.33157 28.3959 3.17638C28.1631 3.02119 27.8527 3.0988 27.5423 3.25399L13.4202 11.4014C13.4202 11.4014 13.1099 11.4013 13.1099 11.2462V8.14239L5.19531 18.9279L13.1099 20.4799V17.3761C13.1099 17.3761 13.2651 16.9105 13.4202 16.8329Z" fill="#34CF75"/>
<path fill-rule="evenodd" clip-rule="evenodd" d="M13.4202 16.8329L27.5423 8.68554C27.5423 8.68554 28.1631 8.14242 28.3959 7.75445C28.3959 7.75445 28.7839 6.9785 28.7839 6.59053V3.95231C28.7839 3.95231 28.6287 3.33157 28.3959 3.17638C28.1631 3.02119 27.8527 3.0988 27.5423 3.25399L13.4202 11.4014C13.4202 11.4014 13.1099 11.4013 13.1099 11.2462V8.14239L5.19531 18.9279L13.1099 20.4799V17.3761C13.1099 17.3761 13.2651 16.9105 13.4202 16.8329Z" fill="url(#paint6_linear_51_14401)"/>
<path fill-rule="evenodd" clip-rule="evenodd" d="M10.7103 31.7967L24.8324 23.6493C24.8324 23.6493 25.1428 23.6493 25.1428 23.8045V26.9083L33.0573 16.2003L25.1428 14.6484V17.7522C25.1428 17.7522 24.9876 18.2178 24.8324 18.2954L10.7103 26.4427C10.7103 26.4427 10.0895 26.9859 9.85674 27.3738C9.85674 27.3738 9.46875 28.1498 9.46875 28.5378V31.1759C9.46875 31.1759 9.62396 31.7967 9.85674 31.9518C10.0895 32.107 10.3999 32.0295 10.7103 31.8743V31.7967Z" fill="#E74C3C"/>
<path fill-rule="evenodd" clip-rule="evenodd" d="M10.7103 31.7967L24.8324 23.6493C24.8324 23.6493 25.1428 23.6493 25.1428 23.8045V26.9083L33.0573 16.2003L25.1428 14.6484V17.7522C25.1428 17.7522 24.9876 18.2178 24.8324 18.2954L10.7103 26.4427C10.7103 26.4427 10.0895 26.9859 9.85674 27.3738C9.85674 27.3738 9.46875 28.1498 9.46875 28.5378V31.1759C9.46875 31.1759 9.62396 31.7967 9.85674 31.9518C10.0895 32.107 10.3999 32.0295 10.7103 31.8743V31.7967Z" fill="url(#paint7_linear_51_14401)"/>
<defs>
<linearGradient id="paint0_linear_51_14401" x1="19.8657" y1="19.2404" x2="25.1401" y2="19.2404" gradientUnits="userSpaceOnUse">
<stop stop-color="#4AFFC7"/>
<stop offset="1" stop-color="#3BADEA"/>
</linearGradient>
<linearGradient id="paint1_linear_51_14401" x1="19.9415" y1="13.8476" x2="33.0499" y2="13.8476" gradientUnits="userSpaceOnUse">
<stop stop-color="#4AFFC7"/>
<stop offset="1" stop-color="#3BADEA"/>
</linearGradient>
<linearGradient id="paint2_linear_51_14401" x1="4.65041" y1="21.1851" x2="24.8172" y2="21.1851" gradientUnits="userSpaceOnUse">
<stop stop-color="#4AFFC7"/>
<stop offset="1" stop-color="#3BADEA"/>
</linearGradient>
<linearGradient id="paint3_linear_51_14401" x1="4.27182" y1="27.9955" x2="9.85648" y2="27.9955" gradientUnits="userSpaceOnUse">
<stop stop-color="#4AFFC7"/>
<stop offset="1" stop-color="#3BADEA"/>
</linearGradient>
<linearGradient id="paint4_linear_51_14401" x1="12.9684" y1="5.56806" x2="28.6598" y2="5.84539" gradientUnits="userSpaceOnUse">
<stop stop-color="#E6F0FF"/>
<stop offset="0.24" stop-color="#E2ECFD"/>
<stop offset="0.47" stop-color="#D6E3F8"/>
<stop offset="0.69" stop-color="#C3D3F0"/>
<stop offset="0.91" stop-color="#A9BDE4"/>
<stop offset="1" stop-color="#9CB2DF"/>
</linearGradient>
<linearGradient id="paint5_linear_51_14401" x1="3.06784" y1="11.8832" x2="13.2304" y2="11.9791" gradientUnits="userSpaceOnUse">
<stop stop-color="#E6F0FF"/>
<stop offset="0.24" stop-color="#E2ECFD"/>
<stop offset="0.47" stop-color="#D6E3F8"/>
<stop offset="0.69" stop-color="#C3D3F0"/>
<stop offset="0.91" stop-color="#A9BDE4"/>
<stop offset="1" stop-color="#9CB2DF"/>
</linearGradient>
<linearGradient id="paint6_linear_51_14401" x1="10.7138" y1="11.638" x2="28.9928" y2="11.8832" gradientUnits="userSpaceOnUse">
<stop stop-color="#E6F0FF"/>
<stop offset="0.24" stop-color="#E2ECFD"/>
<stop offset="0.47" stop-color="#D6E3F8"/>
<stop offset="0.69" stop-color="#C3D3F0"/>
<stop offset="0.91" stop-color="#A9BDE4"/>
<stop offset="1" stop-color="#9CB2DF"/>
</linearGradient>
<linearGradient id="paint7_linear_51_14401" x1="9.46192" y1="23.3424" x2="33.0416" y2="23.3424" gradientUnits="userSpaceOnUse">
<stop stop-color="#4AFFC7"/>
<stop offset="1" stop-color="#3BADEA"/>
</linearGradient>
</defs>
</svg>
