<svg width="31" height="47" viewBox="0 0 31 47" fill="none" xmlns="http://www.w3.org/2000/svg">
<path opacity="0.5" fill-rule="evenodd" clip-rule="evenodd" d="M26.1298 31.0504C32.1045 34.4646 32.1045 40.1289 26.1298 43.5431C20.155 47.0348 10.4558 47.0348 4.48105 43.5431C-1.49368 40.0513 -1.49368 34.4646 4.48105 31.0504C10.4558 27.5587 20.155 27.5587 26.1298 31.0504Z" fill="#E9E9EB"/>
<path opacity="0.5" fill-rule="evenodd" clip-rule="evenodd" d="M23.8784 32.3532C28.6116 35.069 28.6116 39.4919 23.8784 42.2077C19.1451 44.9235 11.541 44.9235 6.80773 42.2077C2.07451 39.4919 2.07451 35.069 6.80773 32.3532C11.541 29.6375 19.1451 29.6375 23.8784 32.3532Z" fill="#DDDEE1"/>
<path opacity="0.5" fill-rule="evenodd" clip-rule="evenodd" d="M21.6231 33.681C25.1149 35.6985 25.1149 38.8798 21.6231 40.8973C18.209 42.9147 12.5446 42.9147 9.13051 40.8973C5.63879 38.8798 5.63879 35.6985 9.13051 33.681C12.6222 31.6636 18.209 31.6636 21.6231 33.681Z" fill="#D1D2D6"/>
<path fill-rule="evenodd" clip-rule="evenodd" d="M7.19196 35.8484L5.87288 35.0724L5.79527 34.9949L5.71772 34.9173V34.8396L5.64011 34.762L5.5625 34.6845V34.6069V34.4517V34.2965V10.9407V10.7855V10.6304V10.5528L5.64011 10.3976L5.71772 10.2424V10.0872L5.79527 9.93201L5.87288 9.77685L5.95049 9.69924L6.02804 9.54402L6.18327 9.46647L6.26088 9.31124L6.33843 9.23369L6.49365 9.07847L6.57126 9.00086L6.72642 8.92331L9.13181 7.52662L10.6061 6.67308L17.9775 2.40539L19.2967 1.70708L21.9348 0.155162L22.0124 0.0776105H22.1676L22.2452 0H22.4004H22.478H22.5556L22.6332 0.0776105H22.7107L24.1074 0.853538H24.0299L23.9523 0.775927H23.7971H23.7195H23.6419L23.4867 0.853538H23.4091L23.2539 0.931148L20.6157 2.483L19.3742 3.18132L12.0028 7.44901L10.5285 8.30255L8.0455 9.69924L7.89034 9.77685L7.81273 9.8544L7.73512 10.0096L7.57996 10.0872L7.50235 10.2424L7.42474 10.32L7.26958 10.4752L7.19196 10.5528L7.11441 10.7079V10.8632L7.0368 11.0183L6.95919 11.1735V11.3287L6.88158 11.4063V11.5615V11.7167V35.0724V35.2276V35.3828L6.95919 35.4604V35.538L7.0368 35.6156L7.11441 35.6932V35.7708L7.19196 35.8484Z" fill="#34485C"/>
<path fill-rule="evenodd" clip-rule="evenodd" d="M7.19196 35.8484L5.87288 35.0724L5.79527 34.9949L5.71772 34.9173V34.8396L5.64011 34.762L5.5625 34.6845V34.6069V34.4517V34.2965V10.9407V10.7855V10.6304V10.5528L5.64011 10.3976L5.71772 10.2424V10.0872L5.79527 9.93201L5.87288 9.77685L5.95049 9.69924L6.02804 9.54402L6.18327 9.46647L6.26088 9.31124L6.33843 9.23369L6.49365 9.07847L6.57126 9.00086L6.72642 8.92331L9.13181 7.52662L10.6061 6.67308L17.9775 2.40539L19.2967 1.70708L21.9348 0.155162L22.0124 0.0776105H22.1676L22.2452 0H22.4004H22.478H22.5556L22.6332 0.0776105H22.7107L24.1074 0.853538H24.0299L23.9523 0.775927H23.7971H23.7195H23.6419L23.4867 0.853538H23.4091L23.2539 0.931148L20.6157 2.483L19.3742 3.18132L12.0028 7.44901L10.5285 8.30255L8.0455 9.69924L7.89034 9.77685L7.81273 9.8544L7.73512 10.0096L7.57996 10.0872L7.50235 10.2424L7.42474 10.32L7.26958 10.4752L7.19196 10.5528L7.11441 10.7079V10.8632L7.0368 11.0183L6.95919 11.1735V11.3287L6.88158 11.4063V11.5615V11.7167V35.0724V35.2276V35.3828L6.95919 35.4604V35.538L7.0368 35.6156L7.11441 35.6932V35.7708L7.19196 35.8484Z" fill="url(#paint0_linear_51_14511)"/>
<path fill-rule="evenodd" clip-rule="evenodd" d="M23.2551 27.0079L8.04673 35.7761C7.42598 36.164 6.88281 35.776 6.88281 35.0777V11.722C6.88281 11.0236 7.42598 10.0925 8.04673 9.70452L10.5297 8.30782L12.004 7.45428L19.3754 3.1866L20.617 2.41067L23.2551 0.858814C23.8759 0.470845 24.4191 0.858786 24.4191 1.55713V24.9129C24.4191 25.6113 23.8759 26.5424 23.2551 26.9304V27.0079Z" fill="#3D566E"/>
<path fill-rule="evenodd" clip-rule="evenodd" d="M23.2551 27.0079L8.04673 35.7761C7.42598 36.164 6.88281 35.776 6.88281 35.0777V11.722C6.88281 11.0236 7.42598 10.0925 8.04673 9.70452L10.5297 8.30782L12.004 7.45428L19.3754 3.1866L20.617 2.41067L23.2551 0.858814C23.8759 0.470845 24.4191 0.858786 24.4191 1.55713V24.9129C24.4191 25.6113 23.8759 26.5424 23.2551 26.9304V27.0079Z" fill="url(#paint1_linear_51_14511)"/>
<path fill-rule="evenodd" clip-rule="evenodd" d="M8.97496 11.415L8.74219 11.2598V33.4516L8.97496 33.6068V11.415Z" fill="#9C9C9C"/>
<path fill-rule="evenodd" clip-rule="evenodd" d="M8.97496 11.415L8.74219 11.2598V33.4516L8.97496 33.6068V11.415Z" fill="url(#paint2_linear_51_14511)"/>
<path fill-rule="evenodd" clip-rule="evenodd" d="M22.8643 3.42619L22.5539 3.19336L22.1659 3.50374L21.7004 3.73651L21.3124 3.96935L20.8468 4.20212L20.3813 4.5125L19.9933 4.74527L19.5277 4.97805L19.1397 5.21082L18.6742 5.5212L18.2862 5.75397L17.8207 5.98674L17.3551 6.21952L16.9671 6.45235L16.5016 6.76273L16.1136 6.9955L15.648 7.22828L15.26 7.46105L14.7945 7.77143L14.329 8.0042L13.941 8.23698L13.4754 8.46975L13.0874 8.70258L12.6219 9.0129L12.1563 9.24573L11.7683 9.47851L11.3027 9.71128L10.9148 10.0217L10.4493 10.2544L10.0613 10.4872L9.59573 10.72L9.13012 10.9528L8.74219 11.2631L8.97496 11.4184L9.4405 11.108L9.8285 10.8752L10.294 10.6424L10.7596 10.4096L11.1476 10.1768L11.6131 9.86644L12.0011 9.63367L12.4667 9.4009L12.8547 9.16812L13.3202 8.85774L13.7857 8.62497L14.1737 8.3922L14.6393 8.15936L15.0273 7.92659L15.4928 7.61621L15.9584 7.38344L16.3464 7.15067L16.812 6.91789L17.1999 6.60751L17.6654 6.37474L18.0534 6.14197L18.519 5.90919L18.9846 5.67636L19.3725 5.36604L19.8381 5.13321L20.2261 4.90043L20.6917 4.66766L21.1572 4.35728L21.5451 4.12451L22.0107 3.89174L22.3987 3.65896L22.8643 3.42619Z" fill="#BDBDBD"/>
<path fill-rule="evenodd" clip-rule="evenodd" d="M22.8643 3.42619L22.5539 3.19336L22.1659 3.50374L21.7004 3.73651L21.3124 3.96935L20.8468 4.20212L20.3813 4.5125L19.9933 4.74527L19.5277 4.97805L19.1397 5.21082L18.6742 5.5212L18.2862 5.75397L17.8207 5.98674L17.3551 6.21952L16.9671 6.45235L16.5016 6.76273L16.1136 6.9955L15.648 7.22828L15.26 7.46105L14.7945 7.77143L14.329 8.0042L13.941 8.23698L13.4754 8.46975L13.0874 8.70258L12.6219 9.0129L12.1563 9.24573L11.7683 9.47851L11.3027 9.71128L10.9148 10.0217L10.4493 10.2544L10.0613 10.4872L9.59573 10.72L9.13012 10.9528L8.74219 11.2631L8.97496 11.4184L9.4405 11.108L9.8285 10.8752L10.294 10.6424L10.7596 10.4096L11.1476 10.1768L11.6131 9.86644L12.0011 9.63367L12.4667 9.4009L12.8547 9.16812L13.3202 8.85774L13.7857 8.62497L14.1737 8.3922L14.6393 8.15936L15.0273 7.92659L15.4928 7.61621L15.9584 7.38344L16.3464 7.15067L16.812 6.91789L17.1999 6.60751L17.6654 6.37474L18.0534 6.14197L18.519 5.90919L18.9846 5.67636L19.3725 5.36604L19.8381 5.13321L20.2261 4.90043L20.6917 4.66766L21.1572 4.35728L21.5451 4.12451L22.0107 3.89174L22.3987 3.65896L22.8643 3.42619Z" fill="url(#paint3_linear_51_14511)"/>
<path fill-rule="evenodd" clip-rule="evenodd" d="M8.96875 11.416V33.6854L22.8581 25.6932V3.42383C18.2024 6.06202 13.6244 8.7778 8.96875 11.416Z" fill="#E6EAEB"/>
<path fill-rule="evenodd" clip-rule="evenodd" d="M8.96875 11.416V33.6854L22.8581 25.6932V3.42383C18.2024 6.06202 13.6244 8.7778 8.96875 11.416Z" fill="url(#paint4_linear_51_14511)"/>
<path fill-rule="evenodd" clip-rule="evenodd" d="M18.3633 6.36495L18.9064 6.67533V6.52011V6.36495V6.20973V6.05457V5.89941V5.74418V5.66657V5.51141V5.35625V5.20103V5.12342V4.96826V4.8131V4.65787V4.50271V4.34749L18.3633 4.03711V4.19233V4.34749V4.50271V4.65787V4.8131V4.89065V5.04587V5.20103V5.35625V5.4338V5.58902V5.74418V5.89941V6.05457V6.20973V6.36495Z" fill="#5C6869"/>
<path fill-rule="evenodd" clip-rule="evenodd" d="M18.3633 6.36495L18.9064 6.67533V6.52011V6.36495V6.20973V6.05457V5.89941V5.74418V5.66657V5.51141V5.35625V5.20103V5.12342V4.96826V4.8131V4.65787V4.50271V4.34749L18.3633 4.03711V4.19233V4.34749V4.50271V4.65787V4.8131V4.89065V5.04587V5.20103V5.35625V5.4338V5.58902V5.74418V5.89941V6.05457V6.20973V6.36495Z" fill="url(#paint5_linear_51_14511)"/>
<path fill-rule="evenodd" clip-rule="evenodd" d="M13.3203 9.24404L13.8635 9.63198L14.0187 9.47681L14.1739 9.3992L14.3291 9.32159L14.4842 9.24404L14.6394 9.16643L14.7946 9.01121L14.9498 8.93366L15.105 8.85605L15.2602 8.77844L15.4154 8.70089L15.5705 8.62328L15.7257 8.46806L15.8809 8.3905L16.0361 8.31289L16.1913 8.23528L16.4241 8.15767L16.5792 8.00251L16.7345 7.9249L16.8896 7.84735L17.0448 7.76974L17.2 7.69213L17.3552 7.53697L17.5104 7.45936L17.6656 7.38175L17.8208 7.30419L17.9759 7.22658L18.1312 7.14897L18.2863 6.99381L18.4415 6.9162L18.5967 6.83859L18.7519 6.76104L18.9071 6.68343L18.3639 6.37305L18.2088 6.45066L18.0535 6.52821L17.8984 6.60582L17.7432 6.68343L17.588 6.83859L17.4328 6.9162L17.2776 6.99381L17.1224 7.07136L16.9672 7.14897L16.8121 7.22658L16.6569 7.38175L16.5017 7.45936L16.3465 7.53697L16.1913 7.61452L16.0361 7.69213L15.8809 7.84735L15.7257 7.9249L15.4929 8.00251L15.3378 8.08012L15.1825 8.15767L15.0274 8.23528L14.8722 8.3905L14.717 8.46806L14.5618 8.54567L14.4066 8.62328L14.2515 8.70089L14.0962 8.85605L13.9411 8.93366L13.7859 9.01121L13.6307 9.08882L13.4755 9.16643L13.3203 9.24404Z" fill="#728082"/>
<path fill-rule="evenodd" clip-rule="evenodd" d="M13.3203 9.24404L13.8635 9.63198L14.0187 9.47681L14.1739 9.3992L14.3291 9.32159L14.4842 9.24404L14.6394 9.16643L14.7946 9.01121L14.9498 8.93366L15.105 8.85605L15.2602 8.77844L15.4154 8.70089L15.5705 8.62328L15.7257 8.46806L15.8809 8.3905L16.0361 8.31289L16.1913 8.23528L16.4241 8.15767L16.5792 8.00251L16.7345 7.9249L16.8896 7.84735L17.0448 7.76974L17.2 7.69213L17.3552 7.53697L17.5104 7.45936L17.6656 7.38175L17.8208 7.30419L17.9759 7.22658L18.1312 7.14897L18.2863 6.99381L18.4415 6.9162L18.5967 6.83859L18.7519 6.76104L18.9071 6.68343L18.3639 6.37305L18.2088 6.45066L18.0535 6.52821L17.8984 6.60582L17.7432 6.68343L17.588 6.83859L17.4328 6.9162L17.2776 6.99381L17.1224 7.07136L16.9672 7.14897L16.8121 7.22658L16.6569 7.38175L16.5017 7.45936L16.3465 7.53697L16.1913 7.61452L16.0361 7.69213L15.8809 7.84735L15.7257 7.9249L15.4929 8.00251L15.3378 8.08012L15.1825 8.15767L15.0274 8.23528L14.8722 8.3905L14.717 8.46806L14.5618 8.54567L14.4066 8.62328L14.2515 8.70089L14.0962 8.85605L13.9411 8.93366L13.7859 9.01121L13.6307 9.08882L13.4755 9.16643L13.3203 9.24404Z" fill="url(#paint6_linear_51_14511)"/>
<path fill-rule="evenodd" clip-rule="evenodd" d="M19.6892 7.00774V3.2832L13.0938 7.08529V10.8874L19.6892 7.08529V7.00774ZM13.8697 9.6459V7.39567C15.5767 6.38695 17.2838 5.45584 18.9909 4.44712V6.69735C17.2838 7.70608 15.5767 8.63718 13.8697 9.6459Z" fill="#889596"/>
<path fill-rule="evenodd" clip-rule="evenodd" d="M19.6892 7.00774V3.2832L13.0938 7.08529V10.8874L19.6892 7.08529V7.00774ZM13.8697 9.6459V7.39567C15.5767 6.38695 17.2838 5.45584 18.9909 4.44712V6.69735C17.2838 7.70608 15.5767 8.63718 13.8697 9.6459Z" fill="url(#paint7_linear_51_14511)"/>
<path fill-rule="evenodd" clip-rule="evenodd" d="M13.0938 21.8293L20.7755 17.4064V16.8633L13.0938 21.2861V21.8293Z" fill="#2C3E50"/>
<path fill-rule="evenodd" clip-rule="evenodd" d="M13.0938 21.8293L20.7755 17.4064V16.8633L13.0938 21.2861V21.8293Z" fill="url(#paint8_linear_51_14511)"/>
<path fill-rule="evenodd" clip-rule="evenodd" d="M13.0938 18.7954L21.3963 13.9846V13.4414L13.0938 18.2522V18.7954Z" fill="#2C3E50"/>
<path fill-rule="evenodd" clip-rule="evenodd" d="M13.0938 18.7954L21.3963 13.9846V13.4414L13.0938 18.2522V18.7954Z" fill="url(#paint9_linear_51_14511)"/>
<path fill-rule="evenodd" clip-rule="evenodd" d="M13.0938 15.5327L19.6116 11.7307V11.1875L13.0938 14.9896V15.5327Z" fill="#2C3E50"/>
<path fill-rule="evenodd" clip-rule="evenodd" d="M13.0938 15.5327L19.6116 11.7307V11.1875L13.0938 14.9896V15.5327Z" fill="url(#paint10_linear_51_14511)"/>
<path fill-rule="evenodd" clip-rule="evenodd" d="M12 7.15809L12.5432 7.46847V10.4946L13.0863 10.805V7.00293L19.6818 3.20078L19.1386 2.89046L18.5955 2.58008L12 6.38216V7.15809Z" fill="#728082"/>
<path fill-rule="evenodd" clip-rule="evenodd" d="M12 7.15809L12.5432 7.46847V10.4946L13.0863 10.805V7.00293L19.6818 3.20078L19.1386 2.89046L18.5955 2.58008L12 6.38216V7.15809Z" fill="url(#paint11_linear_51_14511)"/>
<path fill-rule="evenodd" clip-rule="evenodd" d="M11.1452 15.6196C11.1452 15.6196 10.6797 16.1627 10.6797 16.4731C10.6797 16.4731 10.9125 16.9386 11.1452 16.7834C11.1452 16.7834 11.6108 16.2403 11.6108 15.9299C11.6108 15.9299 11.378 15.4644 11.1452 15.6196Z" fill="#E02828"/>
<path fill-rule="evenodd" clip-rule="evenodd" d="M11.1452 15.6196C11.1452 15.6196 10.6797 16.1627 10.6797 16.4731C10.6797 16.4731 10.9125 16.9386 11.1452 16.7834C11.1452 16.7834 11.6108 16.2403 11.6108 15.9299C11.6108 15.9299 11.378 15.4644 11.1452 15.6196Z" fill="url(#paint12_linear_51_14511)"/>
<path fill-rule="evenodd" clip-rule="evenodd" d="M11.1452 18.7075C11.1452 18.7075 10.6797 19.2506 10.6797 19.561C10.6797 19.561 10.9125 20.0266 11.1452 19.8714C11.1452 19.8714 11.6108 19.3282 11.6108 19.0178C11.6108 19.0178 11.378 18.5523 11.1452 18.7075Z" fill="#FFCB05"/>
<path fill-rule="evenodd" clip-rule="evenodd" d="M11.1452 18.7075C11.1452 18.7075 10.6797 19.2506 10.6797 19.561C10.6797 19.561 10.9125 20.0266 11.1452 19.8714C11.1452 19.8714 11.6108 19.3282 11.6108 19.0178C11.6108 19.0178 11.378 18.5523 11.1452 18.7075Z" fill="url(#paint13_linear_51_14511)"/>
<path fill-rule="evenodd" clip-rule="evenodd" d="M11.1452 21.9907C11.1452 21.9907 10.6797 22.5338 10.6797 22.8442C10.6797 22.8442 10.9125 23.3097 11.1452 23.1545C11.1452 23.1545 11.6108 22.6114 11.6108 22.301C11.6108 22.301 11.378 21.8355 11.1452 21.9907Z" fill="#6699FF"/>
<path fill-rule="evenodd" clip-rule="evenodd" d="M11.1452 21.9907C11.1452 21.9907 10.6797 22.5338 10.6797 22.8442C10.6797 22.8442 10.9125 23.3097 11.1452 23.1545C11.1452 23.1545 11.6108 22.6114 11.6108 22.301C11.6108 22.301 11.378 21.8355 11.1452 21.9907Z" fill="url(#paint14_linear_51_14511)"/>
<path fill-rule="evenodd" clip-rule="evenodd" d="M7.19196 35.8684L5.87288 35.0924L5.79527 35.0149L5.71772 34.9373V34.8597L5.64011 34.7821L5.5625 34.7045V34.6269V34.4717V34.3165V10.9607V10.8056V10.6504V10.5728L5.64011 10.4176L5.71772 10.2624V10.1072L5.79527 9.95204L5.87288 9.79688L7.19196 10.5728L7.11441 10.728V10.8832L7.0368 11.0383L6.95919 11.1936V11.3487L6.88158 11.4263V11.5815V11.7367V35.0924V35.2477V35.4028L6.95919 35.4804V35.558L7.0368 35.6356L7.11441 35.7132V35.7908L7.19196 35.8684Z" fill="#2C3E50"/>
<path fill-rule="evenodd" clip-rule="evenodd" d="M7.19196 35.8684L5.87288 35.0924L5.79527 35.0149L5.71772 34.9373V34.8597L5.64011 34.7821L5.5625 34.7045V34.6269V34.4717V34.3165V10.9607V10.8056V10.6504V10.5728L5.64011 10.4176L5.71772 10.2624V10.1072L5.79527 9.95204L5.87288 9.79688L7.19196 10.5728L7.11441 10.728V10.8832L7.0368 11.0383L6.95919 11.1936V11.3487L6.88158 11.4263V11.5815V11.7367V35.0924V35.2477V35.4028L6.95919 35.4804V35.558L7.0368 35.6356L7.11441 35.7132V35.7908L7.19196 35.8684Z" fill="url(#paint15_linear_51_14511)"/>
<path fill-rule="evenodd" clip-rule="evenodd" d="M12 7.14897L12.5432 7.45936V10.4855L13.0863 10.7959V6.99381L12 6.37305V7.14897Z" fill="#5C6869"/>
<path fill-rule="evenodd" clip-rule="evenodd" d="M12 7.14897L12.5432 7.45936V10.4855L13.0863 10.7959V6.99381L12 6.37305V7.14897Z" fill="url(#paint16_linear_51_14511)"/>
<defs>
<linearGradient id="paint0_linear_51_14511" x1="5.55713" y1="17.9242" x2="24.0951" y2="17.9242" gradientUnits="userSpaceOnUse">
<stop stop-color="#4AFFC7"/>
<stop offset="1" stop-color="#3BADEA"/>
</linearGradient>
<linearGradient id="paint1_linear_51_14511" x1="6.87773" y1="18.3174" x2="24.4074" y2="18.3174" gradientUnits="userSpaceOnUse">
<stop stop-color="#4AFFC7"/>
<stop offset="1" stop-color="#3BADEA"/>
</linearGradient>
<linearGradient id="paint2_linear_51_14511" x1="8.79664" y1="22.2434" x2="8.97705" y2="22.2434" gradientUnits="userSpaceOnUse">
<stop stop-color="#E6F0FF"/>
<stop offset="0.24" stop-color="#E2ECFD"/>
<stop offset="0.47" stop-color="#D6E3F8"/>
<stop offset="0.69" stop-color="#C3D3F0"/>
<stop offset="0.91" stop-color="#A9BDE4"/>
<stop offset="1" stop-color="#9CB2DF"/>
</linearGradient>
<linearGradient id="paint3_linear_51_14511" x1="12.046" y1="7.23595" x2="22.9882" y2="7.42169" gradientUnits="userSpaceOnUse">
<stop stop-color="#E6F0FF"/>
<stop offset="0.24" stop-color="#E2ECFD"/>
<stop offset="0.47" stop-color="#D6E3F8"/>
<stop offset="0.69" stop-color="#C3D3F0"/>
<stop offset="0.91" stop-color="#A9BDE4"/>
<stop offset="1" stop-color="#9CB2DF"/>
</linearGradient>
<linearGradient id="paint4_linear_51_14511" x1="12.2181" y1="18.2974" x2="22.9828" y2="18.3462" gradientUnits="userSpaceOnUse">
<stop stop-color="#E6F0FF"/>
<stop offset="0.24" stop-color="#E2ECFD"/>
<stop offset="0.47" stop-color="#D6E3F8"/>
<stop offset="0.69" stop-color="#C3D3F0"/>
<stop offset="0.91" stop-color="#A9BDE4"/>
<stop offset="1" stop-color="#9CB2DF"/>
</linearGradient>
<linearGradient id="paint5_linear_51_14511" x1="18.4904" y1="5.3338" x2="18.9113" y2="5.33465" gradientUnits="userSpaceOnUse">
<stop stop-color="#E6F0FF"/>
<stop offset="0.24" stop-color="#E2ECFD"/>
<stop offset="0.47" stop-color="#D6E3F8"/>
<stop offset="0.69" stop-color="#C3D3F0"/>
<stop offset="0.91" stop-color="#A9BDE4"/>
<stop offset="1" stop-color="#9CB2DF"/>
</linearGradient>
<linearGradient id="paint6_linear_51_14511" x1="14.6273" y1="7.97481" x2="18.9561" y2="8.04818" gradientUnits="userSpaceOnUse">
<stop stop-color="#E6F0FF"/>
<stop offset="0.24" stop-color="#E2ECFD"/>
<stop offset="0.47" stop-color="#D6E3F8"/>
<stop offset="0.69" stop-color="#C3D3F0"/>
<stop offset="0.91" stop-color="#A9BDE4"/>
<stop offset="1" stop-color="#9CB2DF"/>
</linearGradient>
<linearGradient id="paint7_linear_51_14511" x1="14.6367" y1="7.02068" x2="19.7482" y2="7.06451" gradientUnits="userSpaceOnUse">
<stop stop-color="#9CB2DF"/>
<stop offset="0.09" stop-color="#A9BDE4"/>
<stop offset="0.31" stop-color="#C3D3F0"/>
<stop offset="0.53" stop-color="#D6E3F8"/>
<stop offset="0.76" stop-color="#E2ECFD"/>
<stop offset="1" stop-color="#E6F0FF"/>
</linearGradient>
<linearGradient id="paint8_linear_51_14511" x1="13.0915" y1="19.3463" x2="20.7704" y2="19.3463" gradientUnits="userSpaceOnUse">
<stop stop-color="#4AFFC7"/>
<stop offset="1" stop-color="#3BADEA"/>
</linearGradient>
<linearGradient id="paint9_linear_51_14511" x1="13.0913" y1="16.1184" x2="21.3908" y2="16.1184" gradientUnits="userSpaceOnUse">
<stop stop-color="#4AFFC7"/>
<stop offset="1" stop-color="#3BADEA"/>
</linearGradient>
<linearGradient id="paint10_linear_51_14511" x1="13.0919" y1="13.3601" x2="19.6073" y2="13.3601" gradientUnits="userSpaceOnUse">
<stop stop-color="#4AFFC7"/>
<stop offset="1" stop-color="#3BADEA"/>
</linearGradient>
<linearGradient id="paint11_linear_51_14511" x1="13.7971" y1="6.62264" x2="19.7504" y2="6.67761" gradientUnits="userSpaceOnUse">
<stop stop-color="#E6F0FF"/>
<stop offset="0.24" stop-color="#E2ECFD"/>
<stop offset="0.47" stop-color="#D6E3F8"/>
<stop offset="0.69" stop-color="#C3D3F0"/>
<stop offset="0.91" stop-color="#A9BDE4"/>
<stop offset="1" stop-color="#9CB2DF"/>
</linearGradient>
<linearGradient id="paint12_linear_51_14511" x1="10.6794" y1="16.2015" x2="11.6102" y2="16.2015" gradientUnits="userSpaceOnUse">
<stop stop-color="#4AFFC7"/>
<stop offset="1" stop-color="#3BADEA"/>
</linearGradient>
<linearGradient id="paint13_linear_51_14511" x1="10.6794" y1="19.2894" x2="11.6102" y2="19.2894" gradientUnits="userSpaceOnUse">
<stop stop-color="#4AFFC7"/>
<stop offset="1" stop-color="#3BADEA"/>
</linearGradient>
<linearGradient id="paint14_linear_51_14511" x1="10.6794" y1="22.5726" x2="11.6102" y2="22.5726" gradientUnits="userSpaceOnUse">
<stop stop-color="#4AFFC7"/>
<stop offset="1" stop-color="#3BADEA"/>
</linearGradient>
<linearGradient id="paint15_linear_51_14511" x1="5.56203" y1="22.8326" x2="7.19088" y2="22.8326" gradientUnits="userSpaceOnUse">
<stop stop-color="#4AFFC7"/>
<stop offset="1" stop-color="#3BADEA"/>
</linearGradient>
<linearGradient id="paint16_linear_51_14511" x1="12.2541" y1="8.54688" x2="13.0961" y2="8.54892" gradientUnits="userSpaceOnUse">
<stop stop-color="#E6F0FF"/>
<stop offset="0.24" stop-color="#E2ECFD"/>
<stop offset="0.47" stop-color="#D6E3F8"/>
<stop offset="0.69" stop-color="#C3D3F0"/>
<stop offset="0.91" stop-color="#A9BDE4"/>
<stop offset="1" stop-color="#9CB2DF"/>
</linearGradient>
</defs>
</svg>
