<svg width="32" height="48" viewBox="0 0 32 48" fill="none" xmlns="http://www.w3.org/2000/svg">
<path opacity="0.5" fill-rule="evenodd" clip-rule="evenodd" d="M26.6883 32.6579C32.663 36.072 32.663 41.7363 26.6883 45.1504C20.7136 48.5646 11.0144 48.5646 5.03964 45.1504C-0.935089 41.6587 -0.935089 36.072 5.03964 32.6579C11.0144 29.1661 20.7136 29.1661 26.6883 32.6579Z" fill="#E9E9EB"/>
<path opacity="0.5" fill-rule="evenodd" clip-rule="evenodd" d="M24.441 33.9939C29.1742 36.7097 29.1742 41.1325 24.441 43.8483C19.7078 46.5641 12.1035 46.5641 7.37023 43.8483C2.63701 41.1325 2.63701 36.7097 7.37023 33.9939C12.1035 31.2781 19.7078 31.2781 24.441 33.9939Z" fill="#DDDEE1"/>
<path opacity="0.5" fill-rule="evenodd" clip-rule="evenodd" d="M22.1153 35.3197C25.6071 37.3372 25.6071 40.5185 22.1153 42.536C18.7012 44.5534 13.0368 44.5534 9.6227 42.536C6.13097 40.5185 6.13097 37.3372 9.6227 35.3197C13.1144 33.3023 18.7012 33.3023 22.1153 35.3197Z" fill="#D1D2D6"/>
<path fill-rule="evenodd" clip-rule="evenodd" d="M27.69 35.089L27.1468 35.0114L26.9141 34.2355L27.0693 34.0802L27.2245 33.8475L27.3796 33.6147L27.5348 33.3819L27.69 33.0715L27.8452 32.8388L27.9228 32.606L28.078 32.2956L28.1556 32.0628L28.3108 31.7525L28.3884 31.4421L28.4659 31.2093L28.5436 30.8989L28.6211 30.5885L28.6987 30.2782L28.7764 30.0454L28.8539 29.6574L28.9316 29.3471V29.0367L29.0091 28.7263V28.4159V28.0279V27.7175V27.4072V27.0968L28.9316 26.7865V26.4761L28.8539 26.1657V25.8553L28.7764 25.5449L28.6987 25.3122L28.6211 25.0018L28.078 23.6051L28.6211 22.9844L29.0867 23.1395L28.6211 23.6827L29.0867 25.0794L29.1644 25.3898L29.2419 25.7002L29.3195 26.0105L29.3971 26.2433V26.5537L29.4747 26.8641V27.1744V27.4848V27.8728V28.1832V28.4935V28.8039L29.3971 29.1142V29.5022L29.3195 29.8126L29.2419 30.123V30.4334L29.1644 30.7438L29.0867 30.9765L29.0091 31.2869L28.8539 31.5972L28.7764 31.8301L28.6987 32.1404L28.5436 32.3732L28.4659 32.6836L28.3108 32.9164L28.1556 33.2268L28.078 33.4595L27.9228 33.6923L27.7676 33.9251L27.6124 34.1579L27.4573 34.3906L27.69 35.089Z" fill="#30383B"/>
<path fill-rule="evenodd" clip-rule="evenodd" d="M27.69 35.089L27.1468 35.0114L26.9141 34.2355L27.0693 34.0802L27.2245 33.8475L27.3796 33.6147L27.5348 33.3819L27.69 33.0715L27.8452 32.8388L27.9228 32.606L28.078 32.2956L28.1556 32.0628L28.3108 31.7525L28.3884 31.4421L28.4659 31.2093L28.5436 30.8989L28.6211 30.5885L28.6987 30.2782L28.7764 30.0454L28.8539 29.6574L28.9316 29.3471V29.0367L29.0091 28.7263V28.4159V28.0279V27.7175V27.4072V27.0968L28.9316 26.7865V26.4761L28.8539 26.1657V25.8553L28.7764 25.5449L28.6987 25.3122L28.6211 25.0018L28.078 23.6051L28.6211 22.9844L29.0867 23.1395L28.6211 23.6827L29.0867 25.0794L29.1644 25.3898L29.2419 25.7002L29.3195 26.0105L29.3971 26.2433V26.5537L29.4747 26.8641V27.1744V27.4848V27.8728V28.1832V28.4935V28.8039L29.3971 29.1142V29.5022L29.3195 29.8126L29.2419 30.123V30.4334L29.1644 30.7438L29.0867 30.9765L29.0091 31.2869L28.8539 31.5972L28.7764 31.8301L28.6987 32.1404L28.5436 32.3732L28.4659 32.6836L28.3108 32.9164L28.1556 33.2268L28.078 33.4595L27.9228 33.6923L27.7676 33.9251L27.6124 34.1579L27.4573 34.3906L27.69 35.089Z" fill="url(#paint0_linear_51_14378)"/>
<path fill-rule="evenodd" clip-rule="evenodd" d="M29.5559 24.5276C30.099 26.157 30.1766 28.252 29.7887 30.1919C29.4007 31.9765 28.7024 33.7612 27.6937 35.0803L27.4609 34.382C28.3921 33.218 29.0127 31.7438 29.3231 30.1143C29.6335 28.4073 29.6336 26.6226 29.168 25.1483L28.7024 23.674L29.168 23.1309L29.6336 24.6052L29.5559 24.5276Z" fill="#2C3E50"/>
<path fill-rule="evenodd" clip-rule="evenodd" d="M29.5559 24.5276C30.099 26.157 30.1766 28.252 29.7887 30.1919C29.4007 31.9765 28.7024 33.7612 27.6937 35.0803L27.4609 34.382C28.3921 33.218 29.0127 31.7438 29.3231 30.1143C29.6335 28.4073 29.6336 26.6226 29.168 25.1483L28.7024 23.674L29.168 23.1309L29.6336 24.6052L29.5559 24.5276Z" fill="url(#paint1_linear_51_14378)"/>
<path fill-rule="evenodd" clip-rule="evenodd" d="M26.6836 37.8831C28.1579 37.6503 29.0891 36.3312 28.9339 34.8569C28.7011 33.3826 27.3819 32.4515 25.9076 32.6067C24.4333 32.8395 23.5023 34.1585 23.6575 35.6328C23.8902 37.1071 25.2093 38.0382 26.6836 37.8831Z" fill="#222F3B"/>
<path fill-rule="evenodd" clip-rule="evenodd" d="M26.6836 37.8831C28.1579 37.6503 29.0891 36.3312 28.9339 34.8569C28.7011 33.3826 27.3819 32.4515 25.9076 32.6067C24.4333 32.8395 23.5023 34.1585 23.6575 35.6328C23.8902 37.1071 25.2093 38.0382 26.6836 37.8831Z" fill="url(#paint2_linear_51_14378)"/>
<path fill-rule="evenodd" clip-rule="evenodd" d="M26.8405 37.2608C28.082 37.1057 28.9356 35.9417 28.7804 34.7002C28.6252 33.4587 27.4613 32.6052 26.2198 32.7604C24.9783 32.9156 24.1247 34.0795 24.2799 35.321C24.4351 36.5625 25.599 37.416 26.8405 37.2608Z" fill="#293845"/>
<path fill-rule="evenodd" clip-rule="evenodd" d="M26.8405 37.2608C28.082 37.1057 28.9356 35.9417 28.7804 34.7002C28.6252 33.4587 27.4613 32.6052 26.2198 32.7604C24.9783 32.9156 24.1247 34.0795 24.2799 35.321C24.4351 36.5625 25.599 37.416 26.8405 37.2608Z" fill="url(#paint3_linear_51_14378)"/>
<path fill-rule="evenodd" clip-rule="evenodd" d="M28.0964 33.6093C27.3981 32.911 26.5445 33.2989 26.6221 34.2301C26.6997 34.7732 27.2428 35.1612 27.786 35.0836C28.7171 34.9284 28.5619 34.0748 28.0188 33.5317L28.0964 33.6093Z" fill="#40576E"/>
<path fill-rule="evenodd" clip-rule="evenodd" d="M28.0964 33.6093C27.3981 32.911 26.5445 33.2989 26.6221 34.2301C26.6997 34.7732 27.2428 35.1612 27.786 35.0836C28.7171 34.9284 28.5619 34.0748 28.0188 33.5317L28.0964 33.6093Z" fill="url(#paint4_linear_51_14378)"/>
<path fill-rule="evenodd" clip-rule="evenodd" d="M3.33203 22.4322L5.81497 20.958L6.04775 20.8803L6.20297 20.8027H6.43574H6.59096H6.82373H7.05651H7.21173L7.4445 20.8803L7.67727 20.958H7.91004L8.14282 21.1131L8.37559 21.1907L8.68603 21.2683L8.9188 21.4235L9.15157 21.5787L9.38435 21.7339L9.61712 21.9667L9.84989 22.1219L10.0827 22.277L10.3154 22.5098L10.5482 22.7426L10.781 22.9754L11.0138 23.2082L11.169 23.441L11.4017 23.6737L11.6345 23.9841L11.7897 24.2169L11.945 24.4497L12.1777 24.76L12.3328 25.0704L12.4881 25.3032L12.6433 25.6136L12.7985 25.924L12.876 26.2343L13.0313 26.4671L13.1088 26.7775L13.264 27.0879L13.3416 27.3983L13.4193 27.7086L13.4968 28.019L13.5744 28.3294L13.652 28.6397V28.9501L13.7296 29.1829V29.4933V29.8037V30.114V30.3468L13.652 30.5796V30.89L13.5744 31.1227L13.4968 31.3555L13.4193 31.5107L13.3416 31.7435L13.264 31.9763L13.1088 32.1314L13.0313 32.2867L12.876 32.4418L12.7985 32.597L12.6433 32.6747L10.0827 34.1489L10.2379 34.0713L10.393 33.9161L10.4707 33.761L10.6259 33.6057L10.7034 33.373L10.8586 33.2178L10.9362 32.985L11.0138 32.7522V32.597L11.0914 32.2867L11.169 32.0539V31.8211V31.5107V31.278V30.9676V30.6572V30.3468L11.0914 30.114L11.0138 29.8037V29.4933L10.9362 29.1829L10.8586 28.8725L10.7034 28.5621L10.6259 28.2517L10.4707 27.9414L10.393 27.631L10.2379 27.3983L10.0827 27.0879L9.92744 26.7775L9.77234 26.4671L9.61712 26.2343L9.4619 25.924L9.22913 25.6912L9.0739 25.3808L8.9188 25.148L8.68603 24.9153L8.45314 24.6824L8.22037 24.4497L8.06526 24.2169L7.83249 23.9841L7.59972 23.7513L7.36683 23.5961L7.13406 23.3633L6.90128 23.2082L6.59096 23.053L6.35819 22.8978L6.12542 22.7426L5.89264 22.665L5.65987 22.5098L5.42698 22.4322L5.19421 22.3546H4.96144L4.72866 22.277H4.49589H4.26312H4.1079H3.87513H3.72002L3.48713 22.3546L3.33203 22.4322Z" fill="#40576E"/>
<path fill-rule="evenodd" clip-rule="evenodd" d="M3.33203 22.4322L5.81497 20.958L6.04775 20.8803L6.20297 20.8027H6.43574H6.59096H6.82373H7.05651H7.21173L7.4445 20.8803L7.67727 20.958H7.91004L8.14282 21.1131L8.37559 21.1907L8.68603 21.2683L8.9188 21.4235L9.15157 21.5787L9.38435 21.7339L9.61712 21.9667L9.84989 22.1219L10.0827 22.277L10.3154 22.5098L10.5482 22.7426L10.781 22.9754L11.0138 23.2082L11.169 23.441L11.4017 23.6737L11.6345 23.9841L11.7897 24.2169L11.945 24.4497L12.1777 24.76L12.3328 25.0704L12.4881 25.3032L12.6433 25.6136L12.7985 25.924L12.876 26.2343L13.0313 26.4671L13.1088 26.7775L13.264 27.0879L13.3416 27.3983L13.4193 27.7086L13.4968 28.019L13.5744 28.3294L13.652 28.6397V28.9501L13.7296 29.1829V29.4933V29.8037V30.114V30.3468L13.652 30.5796V30.89L13.5744 31.1227L13.4968 31.3555L13.4193 31.5107L13.3416 31.7435L13.264 31.9763L13.1088 32.1314L13.0313 32.2867L12.876 32.4418L12.7985 32.597L12.6433 32.6747L10.0827 34.1489L10.2379 34.0713L10.393 33.9161L10.4707 33.761L10.6259 33.6057L10.7034 33.373L10.8586 33.2178L10.9362 32.985L11.0138 32.7522V32.597L11.0914 32.2867L11.169 32.0539V31.8211V31.5107V31.278V30.9676V30.6572V30.3468L11.0914 30.114L11.0138 29.8037V29.4933L10.9362 29.1829L10.8586 28.8725L10.7034 28.5621L10.6259 28.2517L10.4707 27.9414L10.393 27.631L10.2379 27.3983L10.0827 27.0879L9.92744 26.7775L9.77234 26.4671L9.61712 26.2343L9.4619 25.924L9.22913 25.6912L9.0739 25.3808L8.9188 25.148L8.68603 24.9153L8.45314 24.6824L8.22037 24.4497L8.06526 24.2169L7.83249 23.9841L7.59972 23.7513L7.36683 23.5961L7.13406 23.3633L6.90128 23.2082L6.59096 23.053L6.35819 22.8978L6.12542 22.7426L5.89264 22.665L5.65987 22.5098L5.42698 22.4322L5.19421 22.3546H4.96144L4.72866 22.277H4.49589H4.26312H4.1079H3.87513H3.72002L3.48713 22.3546L3.33203 22.4322Z" fill="url(#paint5_linear_51_14378)"/>
<path fill-rule="evenodd" clip-rule="evenodd" d="M20.5508 11.8921L23.2665 10.2626H23.4217L23.6545 10.185L23.8873 10.1074H24.0425H24.2753H24.508L24.7408 10.185H24.9736L25.284 10.2626L25.5168 10.3402L25.7496 10.4178L26.0599 10.573L26.2927 10.6506L26.5254 10.8057L26.8359 10.961L27.0686 11.1937L27.379 11.349L27.6117 11.5817L27.8445 11.7369L28.0774 11.9697L28.3102 12.2024L28.5429 12.4353L28.7757 12.7456L29.0085 12.9784L29.2413 13.2888L29.474 13.5216L29.6293 13.832L29.862 14.1423L30.0172 14.3751L30.25 14.6854L30.4051 14.9958L30.5603 15.3062L30.7156 15.6166L30.8708 15.927L31.0259 16.315L31.1036 16.6253L31.2587 16.9357L31.3363 17.246L31.4139 17.5564L31.4914 17.9444L31.5691 18.2548L31.6467 18.5651L31.7242 18.8755V19.1859V19.4963V19.8067V20.117V20.4274V20.7378L31.6467 20.9706L31.5691 21.2034L31.4914 21.5137L31.4139 21.7465L31.3363 21.9017L31.2587 22.1345L31.1036 22.2897L31.0259 22.5224L30.8708 22.6777L30.7156 22.8328L30.5603 22.988L27.8445 24.5399L27.9997 24.3847L28.155 24.2295L28.3102 24.0743L28.3877 23.9191L28.5429 23.6864L28.6205 23.5312L28.698 23.2984L28.7757 23.0656L28.8533 22.8328L28.9309 22.5224L29.0085 22.2897V21.9793V21.6689V21.4361V21.1257V20.7378V20.4274L28.9309 20.117L28.8533 19.8067L28.7757 19.4963L28.698 19.1859L28.6205 18.798L28.5429 18.4876L28.3877 18.1772L28.3102 17.8668L28.155 17.5564L27.9997 17.246L27.8445 16.8581L27.6894 16.5477L27.5342 16.315L27.3014 16.0046L27.1462 15.6942L26.9134 15.3838L26.7582 15.0734L26.5254 14.8407L26.2927 14.5303L26.0599 14.2975L25.8271 14.0647L25.5943 13.832L25.3616 13.5216L25.1288 13.3664L24.896 13.1336L24.6632 12.9008L24.3528 12.7456L24.12 12.5904L23.8097 12.4353L23.5769 12.28L23.2665 12.1249L23.0337 12.0473L22.801 11.8921L22.5682 11.8145H22.2579L22.025 11.7369H21.7922L21.5594 11.6593H21.3266L21.1715 11.7369H20.9387L20.7059 11.8145L20.5508 11.8921Z" fill="#E6EAEB"/>
<path fill-rule="evenodd" clip-rule="evenodd" d="M20.5508 11.8921L23.2665 10.2626H23.4217L23.6545 10.185L23.8873 10.1074H24.0425H24.2753H24.508L24.7408 10.185H24.9736L25.284 10.2626L25.5168 10.3402L25.7496 10.4178L26.0599 10.573L26.2927 10.6506L26.5254 10.8057L26.8359 10.961L27.0686 11.1937L27.379 11.349L27.6117 11.5817L27.8445 11.7369L28.0774 11.9697L28.3102 12.2024L28.5429 12.4353L28.7757 12.7456L29.0085 12.9784L29.2413 13.2888L29.474 13.5216L29.6293 13.832L29.862 14.1423L30.0172 14.3751L30.25 14.6854L30.4051 14.9958L30.5603 15.3062L30.7156 15.6166L30.8708 15.927L31.0259 16.315L31.1036 16.6253L31.2587 16.9357L31.3363 17.246L31.4139 17.5564L31.4914 17.9444L31.5691 18.2548L31.6467 18.5651L31.7242 18.8755V19.1859V19.4963V19.8067V20.117V20.4274V20.7378L31.6467 20.9706L31.5691 21.2034L31.4914 21.5137L31.4139 21.7465L31.3363 21.9017L31.2587 22.1345L31.1036 22.2897L31.0259 22.5224L30.8708 22.6777L30.7156 22.8328L30.5603 22.988L27.8445 24.5399L27.9997 24.3847L28.155 24.2295L28.3102 24.0743L28.3877 23.9191L28.5429 23.6864L28.6205 23.5312L28.698 23.2984L28.7757 23.0656L28.8533 22.8328L28.9309 22.5224L29.0085 22.2897V21.9793V21.6689V21.4361V21.1257V20.7378V20.4274L28.9309 20.117L28.8533 19.8067L28.7757 19.4963L28.698 19.1859L28.6205 18.798L28.5429 18.4876L28.3877 18.1772L28.3102 17.8668L28.155 17.5564L27.9997 17.246L27.8445 16.8581L27.6894 16.5477L27.5342 16.315L27.3014 16.0046L27.1462 15.6942L26.9134 15.3838L26.7582 15.0734L26.5254 14.8407L26.2927 14.5303L26.0599 14.2975L25.8271 14.0647L25.5943 13.832L25.3616 13.5216L25.1288 13.3664L24.896 13.1336L24.6632 12.9008L24.3528 12.7456L24.12 12.5904L23.8097 12.4353L23.5769 12.28L23.2665 12.1249L23.0337 12.0473L22.801 11.8921L22.5682 11.8145H22.2579L22.025 11.7369H21.7922L21.5594 11.6593H21.3266L21.1715 11.7369H20.9387L20.7059 11.8145L20.5508 11.8921Z" fill="url(#paint6_linear_51_14378)"/>
<path fill-rule="evenodd" clip-rule="evenodd" d="M23.8121 24.3699C20.9411 22.7405 18.6133 18.7056 18.6133 15.3691C18.6133 12.0325 20.9411 10.7134 23.8121 12.3429C26.683 13.9724 29.0108 18.0072 29.0108 21.3438C29.0108 24.6803 26.683 25.9994 23.8121 24.3699Z" fill="#9EB4BA"/>
<path fill-rule="evenodd" clip-rule="evenodd" d="M23.8121 24.3699C20.9411 22.7405 18.6133 18.7056 18.6133 15.3691C18.6133 12.0325 20.9411 10.7134 23.8121 12.3429C26.683 13.9724 29.0108 18.0072 29.0108 21.3438C29.0108 24.6803 26.683 25.9994 23.8121 24.3699Z" fill="url(#paint7_linear_51_14378)"/>
<path fill-rule="evenodd" clip-rule="evenodd" d="M1.86328 22.5977L4.579 21.0458L4.81189 20.9682H4.96699L5.19976 20.8906H5.43253H5.66543H5.8982L6.13097 20.9682H6.36374L6.59651 21.0458L6.82929 21.1234L7.13961 21.201L7.37238 21.3562L7.60527 21.4338L7.9156 21.589L8.14837 21.7442L8.45869 21.8993L8.69158 22.1322L8.92436 22.2873L9.23468 22.5201L9.46745 22.7529L9.70022 22.9857L9.933 23.2185L10.1658 23.5288L10.3985 23.7616L10.6314 23.9944L10.7865 24.3048L11.0193 24.6152L11.2521 24.8479L11.4073 25.1583L11.5625 25.4687L11.7177 25.779L11.9505 26.0894L12.1056 26.3998L12.1833 26.7102L12.3384 27.0206L12.4936 27.4085L12.5713 27.7189L12.7264 28.0293L12.8041 28.3396L12.8816 28.65L12.9592 29.038L13.0368 29.3484V29.6587L13.1144 29.9691V30.2795V30.5899V30.9002V31.2106L13.0368 31.4434V31.7538L12.9592 31.9866L12.8816 32.2193L12.8041 32.4521L12.7264 32.6849L12.5713 32.9177L12.4936 33.0729L12.3384 33.3056L12.1833 33.4609L12.1056 33.616L11.9505 33.6936L9.23468 35.3231L9.3899 35.1679L9.46745 35.0127L9.62267 34.8576L9.77789 34.7023L9.85544 34.4696L10.0107 34.2368L10.0882 34.0816L10.1658 33.8488L10.2434 33.5384L10.321 33.3056V33.0729L10.3985 32.7625V32.4521V32.1417V31.8314V31.521L10.321 31.2106V30.9002L10.2434 30.5899L10.1658 30.2795L10.0882 29.8915L10.0107 29.5812L9.85544 29.2708L9.77789 28.9604L9.62267 28.65L9.46745 28.3396L9.3899 27.9517L9.23468 27.6413L9.00191 27.3309L8.84669 27.0206L8.69158 26.7102L8.45869 26.4774L8.30359 26.167L8.07082 25.8566L7.9156 25.6239L7.68282 25.3135L7.45005 25.0807L7.21728 24.7703L6.98451 24.5375L6.75174 24.3048L6.51884 24.072L6.20852 23.9168L5.97575 23.684L5.74298 23.5288L5.43253 23.296L5.19976 23.1409L4.88944 22.9857L4.65667 22.9081L4.42389 22.7529L4.11345 22.6753L3.88068 22.5977L3.64791 22.5201H3.41514L3.18236 22.4425H2.94959H2.71682H2.48405L2.25127 22.5201L2.09605 22.5977H1.86328Z" fill="#E6EAEB"/>
<path fill-rule="evenodd" clip-rule="evenodd" d="M1.86328 22.5977L4.579 21.0458L4.81189 20.9682H4.96699L5.19976 20.8906H5.43253H5.66543H5.8982L6.13097 20.9682H6.36374L6.59651 21.0458L6.82929 21.1234L7.13961 21.201L7.37238 21.3562L7.60527 21.4338L7.9156 21.589L8.14837 21.7442L8.45869 21.8993L8.69158 22.1322L8.92436 22.2873L9.23468 22.5201L9.46745 22.7529L9.70022 22.9857L9.933 23.2185L10.1658 23.5288L10.3985 23.7616L10.6314 23.9944L10.7865 24.3048L11.0193 24.6152L11.2521 24.8479L11.4073 25.1583L11.5625 25.4687L11.7177 25.779L11.9505 26.0894L12.1056 26.3998L12.1833 26.7102L12.3384 27.0206L12.4936 27.4085L12.5713 27.7189L12.7264 28.0293L12.8041 28.3396L12.8816 28.65L12.9592 29.038L13.0368 29.3484V29.6587L13.1144 29.9691V30.2795V30.5899V30.9002V31.2106L13.0368 31.4434V31.7538L12.9592 31.9866L12.8816 32.2193L12.8041 32.4521L12.7264 32.6849L12.5713 32.9177L12.4936 33.0729L12.3384 33.3056L12.1833 33.4609L12.1056 33.616L11.9505 33.6936L9.23468 35.3231L9.3899 35.1679L9.46745 35.0127L9.62267 34.8576L9.77789 34.7023L9.85544 34.4696L10.0107 34.2368L10.0882 34.0816L10.1658 33.8488L10.2434 33.5384L10.321 33.3056V33.0729L10.3985 32.7625V32.4521V32.1417V31.8314V31.521L10.321 31.2106V30.9002L10.2434 30.5899L10.1658 30.2795L10.0882 29.8915L10.0107 29.5812L9.85544 29.2708L9.77789 28.9604L9.62267 28.65L9.46745 28.3396L9.3899 27.9517L9.23468 27.6413L9.00191 27.3309L8.84669 27.0206L8.69158 26.7102L8.45869 26.4774L8.30359 26.167L8.07082 25.8566L7.9156 25.6239L7.68282 25.3135L7.45005 25.0807L7.21728 24.7703L6.98451 24.5375L6.75174 24.3048L6.51884 24.072L6.20852 23.9168L5.97575 23.684L5.74298 23.5288L5.43253 23.296L5.19976 23.1409L4.88944 22.9857L4.65667 22.9081L4.42389 22.7529L4.11345 22.6753L3.88068 22.5977L3.64791 22.5201H3.41514L3.18236 22.4425H2.94959H2.71682H2.48405L2.25127 22.5201L2.09605 22.5977H1.86328Z" fill="url(#paint8_linear_51_14378)"/>
<path fill-rule="evenodd" clip-rule="evenodd" d="M5.19878 35.1532C2.3278 33.5237 0 29.4888 0 26.1523C0 22.8157 2.3278 21.4966 5.19878 23.1261C8.06975 24.7556 10.3976 28.7904 10.3976 32.127C10.3976 35.4635 8.06975 36.7827 5.19878 35.1532Z" fill="#9EB4BA"/>
<path fill-rule="evenodd" clip-rule="evenodd" d="M5.19878 35.1532C2.3278 33.5237 0 29.4888 0 26.1523C0 22.8157 2.3278 21.4966 5.19878 23.1261C8.06975 24.7556 10.3976 28.7904 10.3976 32.127C10.3976 35.4635 8.06975 36.7827 5.19878 35.1532Z" fill="url(#paint9_linear_51_14378)"/>
<path fill-rule="evenodd" clip-rule="evenodd" d="M21.7269 5.98656V5.59857L21.4942 5.21063L21.3389 4.90025L21.1838 4.58987L21.0286 4.27948L20.8734 3.9691L20.6406 3.73633C22.5805 4.1243 23.8996 5.83138 24.0548 8.54717C24.0548 8.77995 24.0548 11.0302 24.0548 11.3406C24.0548 11.7285 24.0548 12.0389 24.0548 12.4269H23.9771C23.2788 11.9613 22.5805 11.7285 21.9597 11.6509C22.2701 10.3318 22.1925 7.30565 21.8822 5.98656H21.7269Z" fill="#222F3B"/>
<path fill-rule="evenodd" clip-rule="evenodd" d="M21.7269 5.98656V5.59857L21.4942 5.21063L21.3389 4.90025L21.1838 4.58987L21.0286 4.27948L20.8734 3.9691L20.6406 3.73633C22.5805 4.1243 23.8996 5.83138 24.0548 8.54717C24.0548 8.77995 24.0548 11.0302 24.0548 11.3406C24.0548 11.7285 24.0548 12.0389 24.0548 12.4269H23.9771C23.2788 11.9613 22.5805 11.7285 21.9597 11.6509C22.2701 10.3318 22.1925 7.30565 21.8822 5.98656H21.7269Z" fill="url(#paint10_linear_51_14378)"/>
<path fill-rule="evenodd" clip-rule="evenodd" d="M13.8857 1.39669L14.4288 1.08631L14.8944 0.853538L15.36 0.620765L15.8256 0.465604L16.2911 0.310383L16.7566 0.155221H17.2222L17.6877 0H18.1533H18.6189H19.0068L19.3948 0.0776105H19.7828L20.1708 0.310383L20.5588 0.465604L20.8691 0.620765L22.8865 1.78469L22.5762 1.62952L22.1882 1.4743L21.8002 1.31914H21.4123L21.0243 1.16392H20.6363H20.2483H19.7828L19.3173 1.24153H18.8517L18.3862 1.4743L17.9205 1.62952L17.455 1.78469L16.9894 2.01746L16.5239 2.25023L15.9807 2.56061L15.4376 2.871L14.972 3.18138L14.5065 3.56937L14.0408 3.95731L13.5753 4.3453L13.1097 4.73323L12.6442 5.19884L12.1786 5.66438L11.7131 6.12993L11.2474 6.59553L10.8596 7.13868L10.4716 7.68184L10.0836 8.22499L9.69557 8.76815L9.30758 9.3113L8.99726 9.85446L8.68693 10.4752L8.37649 11.0959L8.06617 11.7167L7.75572 12.3375L7.52295 12.9582L7.29018 13.5789L7.05741 14.1997L6.82464 14.8205L6.66941 15.4412L6.51419 16.0619L6.35909 16.6827V17.3035L6.12632 17.9242V18.5449L6.04865 21.1832V21.8039V21.9591V22.1143V22.2695V22.4246V22.5799V22.735C5.3503 22.347 4.652 22.1143 4.03125 22.0367V21.4159V21.2608V21.1056V20.9504V20.7952V20.64V18.0794V17.4586V16.8379L4.18647 16.2172V15.5964L4.41924 14.9756L4.57435 14.3549L4.72957 13.7342L4.96234 13.1134L5.19511 12.4926L5.42788 11.8719L5.66077 11.2512L5.9711 10.6304L6.28142 10.0096L6.59186 9.38892L6.90219 8.76815L7.21263 8.22499L7.60062 7.68184L7.9885 7.13868L8.37649 6.59553L8.76448 6.05237L9.15248 5.50922L9.61802 5.04362L10.0836 4.57807L10.5491 4.11253L11.0147 3.64692L11.4803 3.25899L11.9459 2.871L12.4114 2.483L12.877 2.09507L13.3425 1.78469L13.8857 1.4743V1.39669Z" fill="#222F3B"/>
<path fill-rule="evenodd" clip-rule="evenodd" d="M13.8857 1.39669L14.4288 1.08631L14.8944 0.853538L15.36 0.620765L15.8256 0.465604L16.2911 0.310383L16.7566 0.155221H17.2222L17.6877 0H18.1533H18.6189H19.0068L19.3948 0.0776105H19.7828L20.1708 0.310383L20.5588 0.465604L20.8691 0.620765L22.8865 1.78469L22.5762 1.62952L22.1882 1.4743L21.8002 1.31914H21.4123L21.0243 1.16392H20.6363H20.2483H19.7828L19.3173 1.24153H18.8517L18.3862 1.4743L17.9205 1.62952L17.455 1.78469L16.9894 2.01746L16.5239 2.25023L15.9807 2.56061L15.4376 2.871L14.972 3.18138L14.5065 3.56937L14.0408 3.95731L13.5753 4.3453L13.1097 4.73323L12.6442 5.19884L12.1786 5.66438L11.7131 6.12993L11.2474 6.59553L10.8596 7.13868L10.4716 7.68184L10.0836 8.22499L9.69557 8.76815L9.30758 9.3113L8.99726 9.85446L8.68693 10.4752L8.37649 11.0959L8.06617 11.7167L7.75572 12.3375L7.52295 12.9582L7.29018 13.5789L7.05741 14.1997L6.82464 14.8205L6.66941 15.4412L6.51419 16.0619L6.35909 16.6827V17.3035L6.12632 17.9242V18.5449L6.04865 21.1832V21.8039V21.9591V22.1143V22.2695V22.4246V22.5799V22.735C5.3503 22.347 4.652 22.1143 4.03125 22.0367V21.4159V21.2608V21.1056V20.9504V20.7952V20.64V18.0794V17.4586V16.8379L4.18647 16.2172V15.5964L4.41924 14.9756L4.57435 14.3549L4.72957 13.7342L4.96234 13.1134L5.19511 12.4926L5.42788 11.8719L5.66077 11.2512L5.9711 10.6304L6.28142 10.0096L6.59186 9.38892L6.90219 8.76815L7.21263 8.22499L7.60062 7.68184L7.9885 7.13868L8.37649 6.59553L8.76448 6.05237L9.15248 5.50922L9.61802 5.04362L10.0836 4.57807L10.5491 4.11253L11.0147 3.64692L11.4803 3.25899L11.9459 2.871L12.4114 2.483L12.877 2.09507L13.3425 1.78469L13.8857 1.4743V1.39669Z" fill="url(#paint11_linear_51_14378)"/>
<path fill-rule="evenodd" clip-rule="evenodd" d="M20.1719 12.885L20.7926 12.497L20.9477 12.4194H21.103L21.3357 12.3418H21.491H21.7237H21.9565L22.1117 12.4194H22.3445L22.5773 12.497L22.81 12.5746L23.0428 12.6522L23.2756 12.7297L23.5084 12.885L23.7411 12.9626L23.9739 13.1177L24.2068 13.2729L24.4396 13.5057L24.6723 13.6609L24.9051 13.8161L25.1379 14.0489L25.3707 14.2816L25.6034 14.5144L25.7586 14.7472L25.9914 14.98L26.2242 15.2128L26.3794 15.4456L26.5345 15.6783L26.7673 15.9887L26.9225 16.2215L27.0777 16.5319L27.2329 16.7646L27.3881 17.075L27.5433 17.3854L27.6208 17.6182L27.776 17.9286L27.9313 18.239L28.0088 18.5493L28.0865 18.8597L28.164 19.0925L28.2416 19.4028L28.3193 19.7132L28.3968 20.0236V20.334L28.4744 20.5667V20.8771V21.1875V21.4203V21.7307L28.3968 21.9634V22.1962L28.3193 22.429L28.2416 22.6618L28.164 22.8946L28.0865 23.0497L28.0088 23.2825L27.9313 23.4377L27.776 23.5929L27.6208 23.7481L27.5433 23.9033L27.3881 23.9809L26.7673 24.3688L26.9225 24.2137L27.0777 24.0585L27.2329 23.9033L27.3105 23.7481L27.3881 23.5929L27.5433 23.3601L27.6208 23.205L27.6985 22.9722V22.7394L27.776 22.5066L27.8536 22.2738V22.041V21.8083V21.4979V21.1875V20.9547V20.6443L27.776 20.334L27.6985 20.0236V19.7908L27.6208 19.4804L27.5433 19.17L27.3881 18.8597L27.3105 18.5493L27.2329 18.3165L27.0777 18.0061L26.9225 17.6958L26.7673 17.3854L26.6897 17.1526L26.457 16.8423L26.3017 16.6094L26.1466 16.2991L25.9914 16.0663L25.8362 15.7559L25.6034 15.5231L25.4482 15.2903L25.2154 15.0576L24.9827 14.8248L24.7499 14.592L24.5947 14.3593L24.3619 14.204L24.1291 13.9713L23.8963 13.8161L23.6636 13.6609L23.4308 13.5057L23.198 13.3505L22.8876 13.1953L22.6548 13.1177L22.422 12.9626L22.1893 12.885L21.9565 12.8073H21.8013L21.5685 12.7297H21.3357H21.103H20.9477H20.715H20.5599L20.3271 12.8073L20.1719 12.885Z" fill="#40576E"/>
<path fill-rule="evenodd" clip-rule="evenodd" d="M20.1719 12.885L20.7926 12.497L20.9477 12.4194H21.103L21.3357 12.3418H21.491H21.7237H21.9565L22.1117 12.4194H22.3445L22.5773 12.497L22.81 12.5746L23.0428 12.6522L23.2756 12.7297L23.5084 12.885L23.7411 12.9626L23.9739 13.1177L24.2068 13.2729L24.4396 13.5057L24.6723 13.6609L24.9051 13.8161L25.1379 14.0489L25.3707 14.2816L25.6034 14.5144L25.7586 14.7472L25.9914 14.98L26.2242 15.2128L26.3794 15.4456L26.5345 15.6783L26.7673 15.9887L26.9225 16.2215L27.0777 16.5319L27.2329 16.7646L27.3881 17.075L27.5433 17.3854L27.6208 17.6182L27.776 17.9286L27.9313 18.239L28.0088 18.5493L28.0865 18.8597L28.164 19.0925L28.2416 19.4028L28.3193 19.7132L28.3968 20.0236V20.334L28.4744 20.5667V20.8771V21.1875V21.4203V21.7307L28.3968 21.9634V22.1962L28.3193 22.429L28.2416 22.6618L28.164 22.8946L28.0865 23.0497L28.0088 23.2825L27.9313 23.4377L27.776 23.5929L27.6208 23.7481L27.5433 23.9033L27.3881 23.9809L26.7673 24.3688L26.9225 24.2137L27.0777 24.0585L27.2329 23.9033L27.3105 23.7481L27.3881 23.5929L27.5433 23.3601L27.6208 23.205L27.6985 22.9722V22.7394L27.776 22.5066L27.8536 22.2738V22.041V21.8083V21.4979V21.1875V20.9547V20.6443L27.776 20.334L27.6985 20.0236V19.7908L27.6208 19.4804L27.5433 19.17L27.3881 18.8597L27.3105 18.5493L27.2329 18.3165L27.0777 18.0061L26.9225 17.6958L26.7673 17.3854L26.6897 17.1526L26.457 16.8423L26.3017 16.6094L26.1466 16.2991L25.9914 16.0663L25.8362 15.7559L25.6034 15.5231L25.4482 15.2903L25.2154 15.0576L24.9827 14.8248L24.7499 14.592L24.5947 14.3593L24.3619 14.204L24.1291 13.9713L23.8963 13.8161L23.6636 13.6609L23.4308 13.5057L23.198 13.3505L22.8876 13.1953L22.6548 13.1177L22.422 12.9626L22.1893 12.885L21.9565 12.8073H21.8013L21.5685 12.7297H21.3357H21.103H20.9477H20.715H20.5599L20.3271 12.8073L20.1719 12.885Z" fill="url(#paint12_linear_51_14378)"/>
<path fill-rule="evenodd" clip-rule="evenodd" d="M23.1903 24.2062C20.5521 22.7319 18.457 19.0849 18.457 16.0588C18.457 13.0326 20.5521 11.8687 23.1903 13.343C25.8285 14.8173 27.9235 18.4642 27.9235 21.4904C27.9235 24.5165 25.8285 25.6804 23.1903 24.2062Z" fill="#222F3B"/>
<path fill-rule="evenodd" clip-rule="evenodd" d="M23.1903 24.2062C20.5521 22.7319 18.457 19.0849 18.457 16.0588C18.457 13.0326 20.5521 11.8687 23.1903 13.343C25.8285 14.8173 27.9235 18.4642 27.9235 21.4904C27.9235 24.5165 25.8285 25.6804 23.1903 24.2062Z" fill="url(#paint13_linear_51_14378)"/>
<path fill-rule="evenodd" clip-rule="evenodd" d="M23.1948 22.8262C21.255 21.7399 19.7031 19.0242 19.7031 16.8515C19.7031 14.6789 21.255 13.7477 23.1948 14.8341C25.1347 15.9204 26.6865 18.6362 26.6865 20.8864C26.6865 23.1366 25.1347 23.9902 23.1948 22.9038V22.8262Z" fill="#293845"/>
<path fill-rule="evenodd" clip-rule="evenodd" d="M23.1948 22.8262C21.255 21.7399 19.7031 19.0242 19.7031 16.8515C19.7031 14.6789 21.255 13.7477 23.1948 14.8341C25.1347 15.9204 26.6865 18.6362 26.6865 20.8864C26.6865 23.1366 25.1347 23.9902 23.1948 22.9038V22.8262Z" fill="url(#paint14_linear_51_14378)"/>
<path fill-rule="evenodd" clip-rule="evenodd" d="M20.4014 14.7553L20.479 14.6777L20.3239 14.9106L20.1687 15.1433L20.091 15.4537L20.0134 15.7641L19.9359 16.152V16.54V16.7728V17.0056V17.1608L20.0134 17.3936V17.6263L20.091 17.8591V18.0919L20.1687 18.2471L20.2462 18.4799L20.3239 18.7127L20.4014 18.9454L20.479 19.1782L20.6342 19.3334L20.7118 19.5662L20.7894 19.799L20.9445 19.9541L21.0222 20.187L21.1774 20.4197L21.3325 20.5749L21.4102 20.8077L21.5653 20.9629L21.7205 21.118L21.8757 21.3508L22.0308 21.506L22.1861 21.6612L22.3413 21.8164L22.4965 21.9716L22.6516 22.1268L22.8844 22.2044L23.0396 22.3596L23.1948 22.4371L23.35 22.5923L23.7379 22.7475L24.0484 22.9027L24.4364 22.9803L24.7467 23.0579H25.0571L25.2899 22.9803L25.6002 22.9027L25.833 22.8251L26.0658 22.67L25.833 22.9027L25.6002 23.0579L25.3674 23.1355L25.1347 23.2131L24.8242 23.2907H24.5139L24.2036 23.2131L23.8931 23.1355L23.5052 22.9803L23.1948 22.8251L22.9621 22.67L22.8068 22.5923L22.6516 22.4371L22.4965 22.282L22.2637 22.2044L22.1085 22.0492L21.9533 21.894L21.7981 21.6612L21.643 21.506L21.4878 21.3508L21.3325 21.1957L21.255 20.9629L21.0998 20.8077L20.9445 20.5749L20.867 20.4197L20.7118 20.187L20.5567 20.0317L20.479 19.799L20.4014 19.5662L20.3239 19.3334L20.1687 19.1782L20.091 18.9454L20.0134 18.7127L19.9359 18.4799V18.2471L19.8582 18.0919L19.7807 17.8591V17.6263L19.7031 17.3936V17.1608V17.0056V16.7728V16.3848L19.7807 15.9969L19.8582 15.6865L19.9359 15.3761L20.091 15.1433L20.3239 14.9106L20.4014 14.7553Z" fill="#40576E"/>
<path fill-rule="evenodd" clip-rule="evenodd" d="M15.9008 2.58713C21.4099 -0.594223 25.8328 1.96636 25.8328 8.32906V10.7345C25.8328 10.7345 25.8328 11.1225 25.8328 11.3553L23.9705 12.4416C23.9705 12.4416 23.9705 11.7432 23.9705 11.3553C23.9705 11.1225 23.9705 8.79467 23.9705 8.56189C23.5825 3.98385 20.1684 2.27678 15.9008 4.6822C11.6331 7.1652 8.14142 13.0623 7.83105 18.0283C7.83105 18.2611 7.83105 20.4337 7.83105 20.5889C7.83105 20.8993 7.83105 21.2097 7.83105 21.5201H7.67583L5.96875 22.5288C5.96875 22.2184 5.96875 21.9856 5.96875 21.6752C5.96875 21.3648 5.96875 19.0371 5.96875 18.7267C6.35672 12.5968 10.6244 5.45809 15.9008 2.50952V2.58713Z" fill="#2C3E50"/>
<path fill-rule="evenodd" clip-rule="evenodd" d="M15.9008 2.58713C21.4099 -0.594223 25.8328 1.96636 25.8328 8.32906V10.7345C25.8328 10.7345 25.8328 11.1225 25.8328 11.3553L23.9705 12.4416C23.9705 12.4416 23.9705 11.7432 23.9705 11.3553C23.9705 11.1225 23.9705 8.79467 23.9705 8.56189C23.5825 3.98385 20.1684 2.27678 15.9008 4.6822C11.6331 7.1652 8.14142 13.0623 7.83105 18.0283C7.83105 18.2611 7.83105 20.4337 7.83105 20.5889C7.83105 20.8993 7.83105 21.2097 7.83105 21.5201H7.67583L5.96875 22.5288C5.96875 22.2184 5.96875 21.9856 5.96875 21.6752C5.96875 21.3648 5.96875 19.0371 5.96875 18.7267C6.35672 12.5968 10.6244 5.45809 15.9008 2.50952V2.58713Z" fill="url(#paint15_linear_51_14378)"/>
<path fill-rule="evenodd" clip-rule="evenodd" d="M2.32031 24.8626L2.63064 24.7074L2.70831 24.6298H2.86353L3.01863 24.5522H3.17385L3.32907 24.4746H3.48417H3.63939H3.79462H3.94984L4.10494 24.5522H4.26016L4.41538 24.6298L4.64815 24.7074L4.80337 24.785L4.95848 24.8626L5.19125 24.9402L5.34647 25.0954L5.57924 25.2505L5.73446 25.3281L5.88968 25.4834L6.12246 25.6385L6.27756 25.7937L6.43278 25.9489L6.588 26.1041L6.74322 26.3368L6.89832 26.4921L7.05354 26.6472L7.20877 26.8801L7.36387 27.0352L7.51909 27.268L7.59676 27.5008L7.75186 27.656L7.90708 27.8888L7.98463 28.1215L8.0623 28.3543L8.21741 28.5871L8.29508 28.8199L8.37263 29.0527L8.45018 29.2855L8.52785 29.4406L8.6054 29.6734L8.68307 29.9062V30.139L8.76062 30.3718V30.6045L8.83817 30.8373V31.0701V31.3029V31.4581V31.6908L8.76062 31.9236V32.0788L8.68307 32.234V32.4668L8.6054 32.622L8.52785 32.7772L8.45018 32.8548L8.37263 33.0099L8.29508 33.1651L8.21741 33.2428L8.0623 33.3979L7.98463 33.4755L7.90708 33.5531L7.75186 33.6307L7.51909 33.7859L7.59676 33.7083L7.75186 33.6307L7.82953 33.5531L7.90708 33.3979L8.0623 33.3203L8.13985 33.1651L8.21741 33.0099L8.29508 32.9324L8.37263 32.7772V32.5444L8.45018 32.3892L8.52785 32.234V32.0788V31.8461V31.6132V31.4581V31.2253V30.9925V30.7598V30.5269L8.45018 30.2942L8.37263 30.0614V29.8286L8.29508 29.5958L8.21741 29.3631L8.13985 29.2078L8.0623 28.9751L7.90708 28.7423L7.82953 28.5095L7.75186 28.2767L7.59676 28.0439L7.51909 27.8111L7.36387 27.656L7.20877 27.4232L7.1311 27.1904L6.97599 27.0352L6.82077 26.8025L6.66555 26.6472L6.51033 26.4145L6.35523 26.2593L6.20001 26.1041L6.04479 25.9489L5.81201 25.7937L5.65691 25.6385L5.50169 25.4834L5.26892 25.3281L5.1137 25.2505L4.95848 25.0954L4.7257 25.0178L4.57048 24.9402L4.33771 24.8626L4.18261 24.785L4.02739 24.7074H3.87217L3.63939 24.6298H3.48417H3.32907H3.17385H3.01863L2.86353 24.7074H2.78586L2.63064 24.785H2.47553L2.32031 24.8626Z" fill="#E6EAEB"/>
<path fill-rule="evenodd" clip-rule="evenodd" d="M4.96333 33.5277C2.94589 32.3638 1.31641 29.5704 1.31641 27.2426C1.31641 24.9148 2.94589 23.9837 4.96333 25.1476C6.98077 26.3115 8.61025 29.1048 8.61025 31.4327C8.61025 33.7605 6.98077 34.6916 4.96333 33.5277Z" fill="#C5CCD1"/>
<path fill-rule="evenodd" clip-rule="evenodd" d="M4.96333 33.5277C2.94589 32.3638 1.31641 29.5704 1.31641 27.2426C1.31641 24.9148 2.94589 23.9837 4.96333 25.1476C6.98077 26.3115 8.61025 29.1048 8.61025 31.4327C8.61025 33.7605 6.98077 34.6916 4.96333 33.5277Z" fill="url(#paint16_linear_51_14378)"/>
<defs>
<linearGradient id="paint0_linear_51_14378" x1="26.9133" y1="29.0367" x2="29.473" y2="29.0367" gradientUnits="userSpaceOnUse">
<stop stop-color="#4AFFC7"/>
<stop offset="1" stop-color="#3BADEA"/>
</linearGradient>
<linearGradient id="paint1_linear_51_14378" x1="27.4602" y1="29.1056" x2="30.0294" y2="29.1056" gradientUnits="userSpaceOnUse">
<stop stop-color="#4AFFC7"/>
<stop offset="1" stop-color="#3BADEA"/>
</linearGradient>
<linearGradient id="paint2_linear_51_14378" x1="23.6391" y1="35.2449" x2="28.9472" y2="35.2449" gradientUnits="userSpaceOnUse">
<stop stop-color="#4AFFC7"/>
<stop offset="1" stop-color="#3BADEA"/>
</linearGradient>
<linearGradient id="paint3_linear_51_14378" x1="24.2604" y1="35.0106" x2="28.7956" y2="35.0106" gradientUnits="userSpaceOnUse">
<stop stop-color="#4AFFC7"/>
<stop offset="1" stop-color="#3BADEA"/>
</linearGradient>
<linearGradient id="paint4_linear_51_14378" x1="26.6167" y1="34.1727" x2="28.4544" y2="34.1727" gradientUnits="userSpaceOnUse">
<stop stop-color="#4AFFC7"/>
<stop offset="1" stop-color="#3BADEA"/>
</linearGradient>
<linearGradient id="paint5_linear_51_14378" x1="3.32902" y1="27.4758" x2="13.7226" y2="27.4758" gradientUnits="userSpaceOnUse">
<stop stop-color="#4AFFC7"/>
<stop offset="1" stop-color="#3BADEA"/>
</linearGradient>
<linearGradient id="paint6_linear_51_14378" x1="23.1648" y1="17.201" x2="31.8242" y2="17.2673" gradientUnits="userSpaceOnUse">
<stop stop-color="#E6F0FF"/>
<stop offset="0.24" stop-color="#E2ECFD"/>
<stop offset="0.47" stop-color="#D6E3F8"/>
<stop offset="0.69" stop-color="#C3D3F0"/>
<stop offset="0.91" stop-color="#A9BDE4"/>
<stop offset="1" stop-color="#9CB2DF"/>
</linearGradient>
<linearGradient id="paint7_linear_51_14378" x1="21.0458" y1="18.2424" x2="29.1039" y2="18.3041" gradientUnits="userSpaceOnUse">
<stop stop-color="#E6F0FF"/>
<stop offset="0.24" stop-color="#E2ECFD"/>
<stop offset="0.47" stop-color="#D6E3F8"/>
<stop offset="0.69" stop-color="#C3D3F0"/>
<stop offset="0.91" stop-color="#A9BDE4"/>
<stop offset="1" stop-color="#9CB2DF"/>
</linearGradient>
<linearGradient id="paint8_linear_51_14378" x1="4.49545" y1="27.9842" x2="13.2151" y2="28.0514" gradientUnits="userSpaceOnUse">
<stop stop-color="#E6F0FF"/>
<stop offset="0.24" stop-color="#E2ECFD"/>
<stop offset="0.47" stop-color="#D6E3F8"/>
<stop offset="0.69" stop-color="#C3D3F0"/>
<stop offset="0.91" stop-color="#A9BDE4"/>
<stop offset="1" stop-color="#9CB2DF"/>
</linearGradient>
<linearGradient id="paint9_linear_51_14378" x1="2.43249" y1="29.0256" x2="10.4906" y2="29.0873" gradientUnits="userSpaceOnUse">
<stop stop-color="#E6F0FF"/>
<stop offset="0.24" stop-color="#E2ECFD"/>
<stop offset="0.47" stop-color="#D6E3F8"/>
<stop offset="0.69" stop-color="#C3D3F0"/>
<stop offset="0.91" stop-color="#A9BDE4"/>
<stop offset="1" stop-color="#9CB2DF"/>
</linearGradient>
<linearGradient id="paint10_linear_51_14378" x1="20.6396" y1="8.0816" x2="24.0525" y2="8.0816" gradientUnits="userSpaceOnUse">
<stop stop-color="#4AFFC7"/>
<stop offset="1" stop-color="#3BADEA"/>
</linearGradient>
<linearGradient id="paint11_linear_51_14378" x1="4.02579" y1="11.3675" x2="22.8739" y2="11.3675" gradientUnits="userSpaceOnUse">
<stop stop-color="#4AFFC7"/>
<stop offset="1" stop-color="#3BADEA"/>
</linearGradient>
<linearGradient id="paint12_linear_51_14378" x1="22.1142" y1="18.2531" x2="28.5487" y2="18.297" gradientUnits="userSpaceOnUse">
<stop stop-color="#E6F0FF"/>
<stop offset="0.24" stop-color="#E2ECFD"/>
<stop offset="0.47" stop-color="#D6E3F8"/>
<stop offset="0.69" stop-color="#C3D3F0"/>
<stop offset="0.91" stop-color="#A9BDE4"/>
<stop offset="1" stop-color="#9CB2DF"/>
</linearGradient>
<linearGradient id="paint13_linear_51_14378" x1="18.4543" y1="18.7746" x2="27.9172" y2="18.7746" gradientUnits="userSpaceOnUse">
<stop stop-color="#4AFFC7"/>
<stop offset="1" stop-color="#3BADEA"/>
</linearGradient>
<linearGradient id="paint14_linear_51_14378" x1="21.3369" y1="18.7994" x2="26.749" y2="18.8409" gradientUnits="userSpaceOnUse">
<stop stop-color="#E6F0FF"/>
<stop offset="0.24" stop-color="#E2ECFD"/>
<stop offset="0.47" stop-color="#D6E3F8"/>
<stop offset="0.69" stop-color="#C3D3F0"/>
<stop offset="0.91" stop-color="#A9BDE4"/>
<stop offset="1" stop-color="#9CB2DF"/>
</linearGradient>
<linearGradient id="paint15_linear_51_14378" x1="5.963" y1="11.8747" x2="25.8195" y2="11.8747" gradientUnits="userSpaceOnUse">
<stop stop-color="#4AFFC7"/>
<stop offset="1" stop-color="#3BADEA"/>
</linearGradient>
<linearGradient id="paint16_linear_51_14378" x1="3.02279" y1="29.2579" x2="8.67553" y2="29.3013" gradientUnits="userSpaceOnUse">
<stop stop-color="#E6F0FF"/>
<stop offset="0.24" stop-color="#E2ECFD"/>
<stop offset="0.47" stop-color="#D6E3F8"/>
<stop offset="0.69" stop-color="#C3D3F0"/>
<stop offset="0.91" stop-color="#A9BDE4"/>
<stop offset="1" stop-color="#9CB2DF"/>
</linearGradient>
</defs>
</svg>
