<svg width="32" height="48" viewBox="0 0 32 48" fill="none" xmlns="http://www.w3.org/2000/svg">
<path opacity="0.5" fill-rule="evenodd" clip-rule="evenodd" d="M27.0125 32.3166C33.189 35.8461 33.189 41.7017 27.0125 45.2312C20.8359 48.7607 10.809 48.7607 4.63242 45.2312C-1.54414 41.6215 -1.54414 35.8461 4.63242 32.3166C10.809 28.707 20.8359 28.707 27.0125 32.3166Z" fill="#E9E9EB"/>
<path opacity="0.5" fill-rule="evenodd" clip-rule="evenodd" d="M24.6882 33.6935C29.5813 36.5011 29.5813 41.0733 24.6882 43.8808C19.7951 46.6883 11.934 46.6883 7.04093 43.8808C2.14781 41.0733 2.14781 36.5011 7.04093 33.6935C11.934 30.886 19.7951 30.886 24.6882 33.6935Z" fill="#DDDEE1"/>
<path opacity="0.5" fill-rule="evenodd" clip-rule="evenodd" d="M22.282 35.0681C25.8917 37.1537 25.8917 40.4425 22.282 42.5281C18.6724 44.6137 12.8969 44.6137 9.36741 42.5281C5.75774 40.4425 5.75774 37.1537 9.36741 35.0681C12.9771 32.9825 18.7526 32.9825 22.282 35.0681Z" fill="#D1D2D6"/>
<path fill-rule="evenodd" clip-rule="evenodd" d="M7.20872 26.2295L6.96809 26.3899L6.72745 26.5503L6.56699 26.7107L6.32635 26.8712L6.08572 27.0316L5.92526 27.2722L5.68462 27.4327L5.52416 27.6733L5.28352 27.8337L5.12306 28.0744L4.88242 28.3151L4.72208 28.5557L4.56161 28.7963L4.40115 29.037L4.24069 29.2776L4.08034 29.5183L3.91988 29.7589L3.83971 29.9996L3.67924 30.2402L3.59895 30.4809L3.51878 30.8017L3.35832 31.0424L3.27815 31.283L3.19797 31.5236L3.11768 31.7643L3.03751 32.005L2.95734 32.2456V32.5665L2.87705 32.8071V33.0477L2.79688 33.2884V33.529L4.72208 34.652V34.4114V34.0905L4.80225 33.8499V33.6092L4.88242 33.3686L4.96271 33.128L5.04289 32.8873V32.6466L5.20335 32.3258L5.28352 32.0851L5.36369 31.8445L5.44398 31.6039L5.60433 31.3632L5.68462 31.1226L5.84508 30.882L6.00543 30.6413L6.08572 30.4006L6.24606 30.16L6.4867 29.8391L6.64716 29.5985L6.80762 29.4381L6.96809 29.1974L7.20872 28.9568L7.36907 28.7161L7.52953 28.5557L7.77017 28.3151L8.0108 28.1546L8.17127 27.9942L8.4119 27.7535L8.65254 27.5931L8.89317 27.5129L9.05364 27.3525L9.29427 27.192L9.53491 27.1118L9.77554 27.0316L9.936 26.9514L10.1766 26.8712L10.4173 26.791H10.5777L10.8184 26.7107H10.9788H11.2195L11.3798 26.791H11.5403H11.7007L11.8612 26.8712L12.0216 26.9514L12.182 27.0316L10.3371 25.9086L10.1766 25.8284H10.0162L9.85583 25.7481L9.69537 25.668H9.45473H9.29427H9.13381H8.89317H8.73283L8.49207 25.7481H8.33173L8.09109 25.8284L7.85046 25.9086L7.68999 25.9888L7.44936 26.1492L7.20872 26.2295Z" fill="#29648C"/>
<path fill-rule="evenodd" clip-rule="evenodd" d="M7.20872 26.2295L6.96809 26.3899L6.72745 26.5503L6.56699 26.7107L6.32635 26.8712L6.08572 27.0316L5.92526 27.2722L5.68462 27.4327L5.52416 27.6733L5.28352 27.8337L5.12306 28.0744L4.88242 28.3151L4.72208 28.5557L4.56161 28.7963L4.40115 29.037L4.24069 29.2776L4.08034 29.5183L3.91988 29.7589L3.83971 29.9996L3.67924 30.2402L3.59895 30.4809L3.51878 30.8017L3.35832 31.0424L3.27815 31.283L3.19797 31.5236L3.11768 31.7643L3.03751 32.005L2.95734 32.2456V32.5665L2.87705 32.8071V33.0477L2.79688 33.2884V33.529L4.72208 34.652V34.4114V34.0905L4.80225 33.8499V33.6092L4.88242 33.3686L4.96271 33.128L5.04289 32.8873V32.6466L5.20335 32.3258L5.28352 32.0851L5.36369 31.8445L5.44398 31.6039L5.60433 31.3632L5.68462 31.1226L5.84508 30.882L6.00543 30.6413L6.08572 30.4006L6.24606 30.16L6.4867 29.8391L6.64716 29.5985L6.80762 29.4381L6.96809 29.1974L7.20872 28.9568L7.36907 28.7161L7.52953 28.5557L7.77017 28.3151L8.0108 28.1546L8.17127 27.9942L8.4119 27.7535L8.65254 27.5931L8.89317 27.5129L9.05364 27.3525L9.29427 27.192L9.53491 27.1118L9.77554 27.0316L9.936 26.9514L10.1766 26.8712L10.4173 26.791H10.5777L10.8184 26.7107H10.9788H11.2195L11.3798 26.791H11.5403H11.7007L11.8612 26.8712L12.0216 26.9514L12.182 27.0316L10.3371 25.9086L10.1766 25.8284H10.0162L9.85583 25.7481L9.69537 25.668H9.45473H9.29427H9.13381H8.89317H8.73283L8.49207 25.7481H8.33173L8.09109 25.8284L7.85046 25.9086L7.68999 25.9888L7.44936 26.1492L7.20872 26.2295Z" fill="url(#paint0_linear_51_14413)"/>
<path fill-rule="evenodd" clip-rule="evenodd" d="M7.20872 26.2295L6.96809 26.3899L6.72745 26.5503L6.56699 26.7107L6.32635 26.8712L6.08572 27.0316L5.92526 27.2722L5.68462 27.4327L5.52416 27.6733L5.28352 27.8337L5.12306 28.0744L4.88242 28.3151L4.72208 28.5557L4.56161 28.7963L4.40115 29.037L4.24069 29.2776L4.08034 29.5183L3.91988 29.7589L3.83971 29.9996L3.67924 30.2402L3.59895 30.4809L3.51878 30.8017L3.35832 31.0424L3.27815 31.283L3.19797 31.5236L3.11768 31.7643L3.03751 32.005L2.95734 32.2456V32.5665L2.87705 32.8071V33.0477L2.79688 33.2884V33.529L4.72208 34.652V34.4114V34.0905L4.80225 33.8499V33.6092L4.88242 33.3686L4.96271 33.128L5.04289 32.8873V32.6466L5.20335 32.3258L5.28352 32.0851L5.36369 31.8445L5.44398 31.6039L5.60433 31.3632L5.68462 31.1226L5.84508 30.882L6.00543 30.6413L6.08572 30.4006L6.24606 30.16L6.4867 29.8391L6.64716 29.5985L6.80762 29.4381L6.96809 29.1974L7.20872 28.9568L7.36907 28.7161L7.52953 28.5557L7.77017 28.3151L8.0108 28.1546L8.17127 27.9942L8.4119 27.7535L8.65254 27.5931L8.89317 27.5129L9.05364 27.3525L9.29427 27.192L9.53491 27.1118L9.77554 27.0316L9.936 26.9514L10.1766 26.8712L10.4173 26.791H10.5777L10.8184 26.7107H10.9788H11.2195L11.3798 26.791H11.5403H11.7007L11.8612 26.8712L12.0216 26.9514L12.182 27.0316L10.3371 25.9086L10.1766 25.8284H10.0162L9.85583 25.7481L9.69537 25.668H9.45473H9.29427H9.13381H8.89317H8.73283L8.49207 25.7481H8.33173L8.09109 25.8284L7.85046 25.9086L7.68999 25.9888L7.44936 26.1492L7.20872 26.2295Z" fill="url(#paint1_linear_51_14413)"/>
<path fill-rule="evenodd" clip-rule="evenodd" d="M22.7478 17.4189L22.5072 17.5793L22.2665 17.7398L22.1061 17.9002L21.8654 18.0607L21.6248 18.2211L21.4643 18.4617L21.2237 18.6222L21.0632 18.8628L20.8226 19.0232L20.6621 19.2638L20.4215 19.5045L20.2611 19.7452L20.1007 19.9858L19.9402 20.2264L19.7797 20.4671L19.6194 20.7077L19.4589 20.9483L19.3788 21.189L19.2183 21.4297L19.138 21.6703L19.0578 21.9912L18.8974 22.2318L18.8172 22.4724L18.737 22.7131L18.6567 22.9537L18.5766 23.1944L18.4964 23.4351V23.7559L18.4161 23.9966V24.2372L18.3359 24.4778V24.7185L20.2611 25.8415V25.6008V25.28L20.3413 25.0393V24.7987L20.4215 24.5581L20.5018 24.3174L20.5819 24.0768V23.8361L20.7424 23.5153L20.8226 23.2746L20.9028 23.034L20.983 22.7933L21.1434 22.5527L21.2237 22.312L21.3841 22.0714L21.5445 21.8307L21.6248 21.5901L21.7851 21.3494L22.0258 21.0286L22.1862 20.7879L22.3467 20.6275L22.5072 20.3868L22.7478 20.1462L22.9081 19.9056L23.0686 19.7452L23.3092 19.5045L23.5499 19.3441L23.7103 19.1837L23.951 18.943L24.1916 18.7826L24.4322 18.7023L24.5927 18.5419L24.8333 18.3815L25.074 18.3013L25.3146 18.2211L25.4751 18.1408L25.7157 18.0607L25.9563 17.9804H26.1168L26.3574 17.9002H26.5179H26.7585L26.9189 17.9804H27.0793H27.2398L27.4003 18.0607L27.5606 18.1408L27.7211 18.2211L25.8762 17.0981L25.7157 17.0178H25.5552L25.3949 16.9376L25.2344 16.8574H24.9938H24.8333H24.6729H24.4322H24.2719L24.0311 16.9376H23.8708L23.6302 17.0178L23.3895 17.0981L23.2291 17.1783L22.9884 17.3387L22.7478 17.4189Z" fill="#29648C"/>
<path fill-rule="evenodd" clip-rule="evenodd" d="M22.7478 17.4189L22.5072 17.5793L22.2665 17.7398L22.1061 17.9002L21.8654 18.0607L21.6248 18.2211L21.4643 18.4617L21.2237 18.6222L21.0632 18.8628L20.8226 19.0232L20.6621 19.2638L20.4215 19.5045L20.2611 19.7452L20.1007 19.9858L19.9402 20.2264L19.7797 20.4671L19.6194 20.7077L19.4589 20.9483L19.3788 21.189L19.2183 21.4297L19.138 21.6703L19.0578 21.9912L18.8974 22.2318L18.8172 22.4724L18.737 22.7131L18.6567 22.9537L18.5766 23.1944L18.4964 23.4351V23.7559L18.4161 23.9966V24.2372L18.3359 24.4778V24.7185L20.2611 25.8415V25.6008V25.28L20.3413 25.0393V24.7987L20.4215 24.5581L20.5018 24.3174L20.5819 24.0768V23.8361L20.7424 23.5153L20.8226 23.2746L20.9028 23.034L20.983 22.7933L21.1434 22.5527L21.2237 22.312L21.3841 22.0714L21.5445 21.8307L21.6248 21.5901L21.7851 21.3494L22.0258 21.0286L22.1862 20.7879L22.3467 20.6275L22.5072 20.3868L22.7478 20.1462L22.9081 19.9056L23.0686 19.7452L23.3092 19.5045L23.5499 19.3441L23.7103 19.1837L23.951 18.943L24.1916 18.7826L24.4322 18.7023L24.5927 18.5419L24.8333 18.3815L25.074 18.3013L25.3146 18.2211L25.4751 18.1408L25.7157 18.0607L25.9563 17.9804H26.1168L26.3574 17.9002H26.5179H26.7585L26.9189 17.9804H27.0793H27.2398L27.4003 18.0607L27.5606 18.1408L27.7211 18.2211L25.8762 17.0981L25.7157 17.0178H25.5552L25.3949 16.9376L25.2344 16.8574H24.9938H24.8333H24.6729H24.4322H24.2719L24.0311 16.9376H23.8708L23.6302 17.0178L23.3895 17.0981L23.2291 17.1783L22.9884 17.3387L22.7478 17.4189Z" fill="url(#paint2_linear_51_14413)"/>
<path fill-rule="evenodd" clip-rule="evenodd" d="M15.0603 6.77049L14.8197 6.93089L14.579 7.09135L14.4186 7.25176L14.1779 7.41222L13.9373 7.57262L13.7768 7.81326L13.5362 7.97372L13.3757 8.21436L13.1351 8.37476L12.9746 8.6154L12.734 8.85609L12.5736 9.09673L12.4132 9.33737L12.2527 9.578L12.0922 9.81864L11.9319 10.0593L11.7714 10.2999L11.6913 10.5406L11.5308 10.7812L11.4505 11.0219L11.3703 11.3427L11.2099 11.5834L11.1297 11.824L11.0495 12.0646L10.9692 12.3053L10.8891 12.546L10.8089 12.7866V13.1075L10.7286 13.3481V13.5888L10.6484 13.8294V14.07L12.5736 15.193V14.9524V14.6315L12.6538 14.3909V14.1503L12.734 13.9096L12.8143 13.669L12.8944 13.4283V13.1877L13.0549 12.8668L13.1351 12.6261L13.2153 12.3855L13.2955 12.1449L13.4559 11.9042L13.5362 11.6636L13.6966 11.423L13.857 11.1823L13.9373 10.9416L14.0976 10.701L14.3383 10.3801L14.4987 10.1395L14.6592 9.9791L14.8197 9.7384L15.0603 9.49777L15.2206 9.25713L15.3811 9.09673L15.6217 8.85609L15.8624 8.69563L16.0228 8.53523L16.2635 8.29453L16.5041 8.13413L16.7447 8.0539L16.9052 7.89349L17.1458 7.73303L17.3865 7.65286L17.6271 7.57262L17.7876 7.49239L18.0282 7.41222L18.2688 7.33199H18.4293L18.6699 7.25176H18.8304H19.071L19.2314 7.33199H19.3918H19.5523L19.7128 7.41222L19.8731 7.49239L20.0336 7.57262L18.1887 6.44962L18.0282 6.36939H17.8677L17.7074 6.28916L17.5469 6.20898H17.3063H17.1458H16.9854H16.7447H16.5844L16.3436 6.28916H16.1833L15.9427 6.36939L15.702 6.44962L15.5416 6.52985L15.3009 6.69025L15.0603 6.77049Z" fill="#29648C"/>
<path fill-rule="evenodd" clip-rule="evenodd" d="M15.0603 6.77049L14.8197 6.93089L14.579 7.09135L14.4186 7.25176L14.1779 7.41222L13.9373 7.57262L13.7768 7.81326L13.5362 7.97372L13.3757 8.21436L13.1351 8.37476L12.9746 8.6154L12.734 8.85609L12.5736 9.09673L12.4132 9.33737L12.2527 9.578L12.0922 9.81864L11.9319 10.0593L11.7714 10.2999L11.6913 10.5406L11.5308 10.7812L11.4505 11.0219L11.3703 11.3427L11.2099 11.5834L11.1297 11.824L11.0495 12.0646L10.9692 12.3053L10.8891 12.546L10.8089 12.7866V13.1075L10.7286 13.3481V13.5888L10.6484 13.8294V14.07L12.5736 15.193V14.9524V14.6315L12.6538 14.3909V14.1503L12.734 13.9096L12.8143 13.669L12.8944 13.4283V13.1877L13.0549 12.8668L13.1351 12.6261L13.2153 12.3855L13.2955 12.1449L13.4559 11.9042L13.5362 11.6636L13.6966 11.423L13.857 11.1823L13.9373 10.9416L14.0976 10.701L14.3383 10.3801L14.4987 10.1395L14.6592 9.9791L14.8197 9.7384L15.0603 9.49777L15.2206 9.25713L15.3811 9.09673L15.6217 8.85609L15.8624 8.69563L16.0228 8.53523L16.2635 8.29453L16.5041 8.13413L16.7447 8.0539L16.9052 7.89349L17.1458 7.73303L17.3865 7.65286L17.6271 7.57262L17.7876 7.49239L18.0282 7.41222L18.2688 7.33199H18.4293L18.6699 7.25176H18.8304H19.071L19.2314 7.33199H19.3918H19.5523L19.7128 7.41222L19.8731 7.49239L20.0336 7.57262L18.1887 6.44962L18.0282 6.36939H17.8677L17.7074 6.28916L17.5469 6.20898H17.3063H17.1458H16.9854H16.7447H16.5844L16.3436 6.28916H16.1833L15.9427 6.36939L15.702 6.44962L15.5416 6.52985L15.3009 6.69025L15.0603 6.77049Z" fill="url(#paint3_linear_51_14413)"/>
<path fill-rule="evenodd" clip-rule="evenodd" d="M16.0265 13.7393C16.0265 13.7393 16.1067 13.3382 16.2672 13.258C16.4276 13.1778 16.5078 13.2581 16.5078 13.4185V15.504C17.0693 15.2634 17.5507 15.2634 17.8716 15.504C18.2726 15.7447 18.5132 16.226 18.5132 17.0281C18.5132 17.5896 18.3528 18.2314 18.1122 18.7929L19.556 19.6752C19.556 19.6752 19.6362 19.9159 19.556 20.0763C19.4758 20.2367 19.3153 20.317 19.1549 20.317L17.7111 19.5148C17.31 20.1565 16.7485 20.718 16.187 21.1191C15.6255 21.44 15.064 21.5202 14.6629 21.3598L13.2191 23.7662C13.2191 23.7662 12.9784 24.0871 12.818 24.0069C12.7378 24.0069 12.7378 23.7662 12.818 23.5255L14.2618 21.0389C14.2618 21.0389 13.8608 20.3169 13.8608 19.7554C13.8608 19.0335 14.1013 18.2313 14.5024 17.5094C14.8233 16.8677 15.3047 16.3062 15.8662 15.9854V13.8998L16.0265 13.7393ZM14.9838 20.3972C14.9838 20.3972 15.7057 20.5576 16.2672 20.2368C16.7484 19.9159 17.2298 19.4346 17.5506 18.9533C17.8715 18.3918 18.0319 17.75 18.0319 17.1885C18.0319 16.627 17.8715 16.226 17.5506 16.0655C17.2298 15.9051 16.7484 15.9051 16.2672 16.226C15.7859 16.5469 15.3047 17.0281 14.9838 17.5896C14.663 18.1511 14.5024 18.7929 14.5024 19.3544C14.5024 19.9159 14.663 20.2367 14.9838 20.4774V20.3972Z" fill="#899EA3"/>
<path fill-rule="evenodd" clip-rule="evenodd" d="M16.0265 13.7393C16.0265 13.7393 16.1067 13.3382 16.2672 13.258C16.4276 13.1778 16.5078 13.2581 16.5078 13.4185V15.504C17.0693 15.2634 17.5507 15.2634 17.8716 15.504C18.2726 15.7447 18.5132 16.226 18.5132 17.0281C18.5132 17.5896 18.3528 18.2314 18.1122 18.7929L19.556 19.6752C19.556 19.6752 19.6362 19.9159 19.556 20.0763C19.4758 20.2367 19.3153 20.317 19.1549 20.317L17.7111 19.5148C17.31 20.1565 16.7485 20.718 16.187 21.1191C15.6255 21.44 15.064 21.5202 14.6629 21.3598L13.2191 23.7662C13.2191 23.7662 12.9784 24.0871 12.818 24.0069C12.7378 24.0069 12.7378 23.7662 12.818 23.5255L14.2618 21.0389C14.2618 21.0389 13.8608 20.3169 13.8608 19.7554C13.8608 19.0335 14.1013 18.2313 14.5024 17.5094C14.8233 16.8677 15.3047 16.3062 15.8662 15.9854V13.8998L16.0265 13.7393ZM14.9838 20.3972C14.9838 20.3972 15.7057 20.5576 16.2672 20.2368C16.7484 19.9159 17.2298 19.4346 17.5506 18.9533C17.8715 18.3918 18.0319 17.75 18.0319 17.1885C18.0319 16.627 17.8715 16.226 17.5506 16.0655C17.2298 15.9051 16.7484 15.9051 16.2672 16.226C15.7859 16.5469 15.3047 17.0281 14.9838 17.5896C14.663 18.1511 14.5024 18.7929 14.5024 19.3544C14.5024 19.9159 14.663 20.2367 14.9838 20.4774V20.3972Z" fill="url(#paint4_linear_51_14413)"/>
<path fill-rule="evenodd" clip-rule="evenodd" d="M26.2802 11.969L24.4353 10.846L24.3551 10.7658H24.2748H24.1145L24.0342 10.6855H23.954H23.7936H23.7134H23.6331H23.4727H23.3925L23.2321 10.7658H23.0716L22.9915 10.846L22.831 10.9262H22.7508L22.5904 11.0064L22.4299 11.0866L22.3497 11.1668L22.1893 11.3273L22.0288 11.4075L21.9486 11.4877L21.7882 11.6481L21.708 11.7283L21.5475 11.8888L21.4674 11.969L21.3871 12.1294L21.2267 12.2097L21.1464 12.3701L21.0663 12.5305L20.9058 12.6909L20.8256 12.8514L20.7455 12.9316L20.6652 13.092L20.585 13.2524L20.5047 13.4129L20.4245 13.5733L20.3444 13.7337L20.2641 13.8942V14.0546L20.1839 14.215V14.3754L20.1037 14.5359V14.6963L20.0234 14.8568V15.0172V15.1776V15.338V15.4984V15.6589V15.8193V15.9798V16.0599L20.1037 16.2204V16.3808L20.1839 16.461V16.5413L20.2641 16.7017V16.7819L20.3444 16.8621L20.4245 16.9423L20.5047 17.0225L20.585 17.1028L20.6652 17.1829H20.7455L22.6705 18.306L22.5101 18.2258L22.4299 18.1455L22.3497 18.0653L22.2694 17.9851L22.1893 17.8247L22.1091 17.7444V17.6643L22.0288 17.584V17.4236L21.9486 17.3434V17.1829L21.8685 17.0225V16.9423V16.7819V16.6214V16.461V16.3006V16.1402L21.9486 15.9798V15.8193L22.0288 15.6589V15.4984L22.1091 15.338V15.1776L22.1893 15.0172L22.2694 14.8568L22.3497 14.6963V14.5359L22.4299 14.3754L22.5101 14.215L22.6705 14.0546L22.7508 13.8942L22.831 13.7337L22.9112 13.5733L22.9915 13.4931L23.1518 13.3327L23.2321 13.1722L23.3123 13.092L23.4727 12.9316L23.5529 12.8514L23.7134 12.6909L23.7936 12.6107L23.954 12.4503L24.0342 12.3701L24.1947 12.2899L24.3551 12.2097L24.4353 12.1294L24.5958 12.0492L24.7562 11.969L24.8364 11.8888H24.9969L25.077 11.8086H25.2375H25.3978H25.4781L25.5583 11.7283H25.7188L25.7989 11.8086H25.8792H26.0396L26.1199 11.8888H26.2L26.2802 11.969Z" fill="#C2AC78"/>
<path fill-rule="evenodd" clip-rule="evenodd" d="M18.6786 1.28347L16.8337 0.160464L16.7536 0.0802321H16.6733H16.5129L16.4326 0H16.3525H16.192H16.1118H16.0315H15.8712H15.7909L15.6305 0.0802321H15.4701L15.3899 0.160464L15.2294 0.240635H15.1493L14.9888 0.320867L14.8283 0.4011L14.7482 0.48127L14.5877 0.641735L14.4272 0.721967L14.3471 0.802138L14.1866 0.962602L14.1064 1.04277L13.946 1.20324L13.8658 1.28347L13.7855 1.44387L13.6252 1.5241L13.5449 1.68451L13.4647 1.84497L13.3042 2.00538L13.2241 2.16584L13.1439 2.24601L13.0636 2.40647L12.9834 2.56688L12.9031 2.72734L12.823 2.88775L12.7428 3.04815L12.6625 3.20861V3.36902L12.5823 3.52948V3.68988L12.5022 3.85035V4.01075L12.4219 4.17121V4.33162V4.49202V4.65248V4.81289V4.97335V5.13376V5.29422V5.37439L12.5022 5.53485V5.69526L12.5823 5.77549V5.85572L12.6625 6.01613V6.09636L12.7428 6.17659L12.823 6.25676L12.9031 6.33699L12.9834 6.41722L13.0636 6.4974H13.1439L15.069 7.62046L14.9085 7.54023L14.8283 7.46L14.7482 7.37977L14.6679 7.29959L14.5877 7.13913L14.5075 7.0589V6.97873L14.4272 6.8985V6.73809L14.3471 6.65786V6.4974L14.2669 6.33699V6.25676V6.09636V5.93589V5.77549V5.61509V5.45462L14.3471 5.29422V5.13376L14.4272 4.97335V4.81289L14.5075 4.65248V4.49202L14.5877 4.33162L14.6679 4.17121L14.7482 4.01075V3.85035L14.8283 3.68988L14.9085 3.52948L15.069 3.36902L15.1493 3.20861L15.2294 3.04815L15.3096 2.88775L15.3899 2.80751L15.5503 2.64711L15.6305 2.48665L15.7107 2.40647L15.8712 2.24601L15.9514 2.16584L16.1118 2.00538L16.192 1.92514L16.3525 1.76474L16.4326 1.68451L16.5931 1.60434L16.7536 1.5241L16.8337 1.44387L16.9942 1.36364L17.1547 1.28347L17.2348 1.20324H17.3953L17.4755 1.12301H17.6359H17.7963H17.8766L17.9567 1.04277H18.1172L18.1974 1.12301H18.2777H18.438L18.5183 1.20324H18.5985L18.6786 1.28347Z" fill="#F3E1CB"/>
<path fill-rule="evenodd" clip-rule="evenodd" d="M10.9911 20.803L9.14622 19.68L9.06605 19.5998H8.98576H8.82542L8.74512 19.5195H8.66495H8.50449H8.42432H8.34403H8.18368H8.10339L7.94305 19.5998H7.78258L7.70241 19.68L7.54195 19.7602H7.46178L7.30131 19.8404L7.14085 19.9206L7.06068 20.0008L6.90021 20.1613L6.73975 20.2415L6.65958 20.3217L6.49911 20.4821L6.41894 20.5623L6.25848 20.7228L6.17831 20.803L6.09802 20.9634L5.93767 21.0436L5.85738 21.204L5.77721 21.3645L5.61674 21.5249L5.53657 21.6854L5.4564 21.7655L5.37611 21.926L5.29594 22.0864L5.21565 22.2469L5.13547 22.4073L5.0553 22.5677L4.97501 22.7281V22.8885L4.89484 23.049V23.2094L4.81467 23.3699V23.5303L4.73438 23.6907V23.8511V24.0116V24.172V24.3324V24.4929V24.6533V24.8138V24.8939L4.81467 25.0544V25.2148L4.89484 25.295V25.3753L4.97501 25.5357V25.6159L5.0553 25.6961L5.13547 25.7763L5.21565 25.8565L5.29594 25.9368L5.37611 26.0169H5.4564L7.38148 27.14L7.22102 27.0598L7.14085 26.9795L7.06068 26.8993L6.98039 26.8191L6.90021 26.6587L6.82004 26.5784V26.4983L6.73975 26.418V26.2576L6.65958 26.1774V26.0169L6.57941 25.8565V25.7763V25.6159V25.4554V25.295V25.1346V24.9742L6.65958 24.8138V24.6533L6.73975 24.4929V24.3324L6.82004 24.172V24.0116L6.90021 23.8511L6.98039 23.6907L7.06068 23.5303V23.3699L7.14085 23.2094L7.22102 23.049L7.38148 22.8885L7.46178 22.7281L7.54195 22.5677L7.62212 22.4073L7.70241 22.327L7.86276 22.1666L7.94305 22.0062L8.02322 21.926L8.18368 21.7655L8.26385 21.6854L8.42432 21.5249L8.50449 21.4447L8.66495 21.2843L8.74512 21.204L8.90559 21.1239L9.06605 21.0436L9.14622 20.9634L9.30669 20.8832L9.46715 20.803L9.54732 20.7228H9.70779L9.78796 20.6425H9.94842H10.1088H10.1891L10.2692 20.5623H10.4297L10.5099 20.6425H10.5902H10.7505L10.8308 20.7228H10.911L10.9911 20.803Z" fill="#4D4D4C"/>
<path fill-rule="evenodd" clip-rule="evenodd" d="M19.8723 7.39127C19.0701 6.90998 17.9471 6.99014 16.7439 7.71208C15.5407 8.43401 14.4175 9.63727 13.6154 11.0009C12.8934 12.2844 12.4122 13.648 12.332 15.0117L21.1556 9.95815C21.1556 8.75492 20.5942 7.87252 19.8723 7.47144V7.39127Z" fill="#2192FC"/>
<path fill-rule="evenodd" clip-rule="evenodd" d="M19.8723 7.39127C19.0701 6.90998 17.9471 6.99014 16.7439 7.71208C15.5407 8.43401 14.4175 9.63727 13.6154 11.0009C12.8934 12.2844 12.4122 13.648 12.332 15.0117L21.1556 9.95815C21.1556 8.75492 20.5942 7.87252 19.8723 7.47144V7.39127Z" fill="url(#paint5_linear_51_14413)"/>
<path fill-rule="evenodd" clip-rule="evenodd" d="M27.5637 18.1295C26.7615 17.6482 25.6385 17.7285 24.4353 18.4504C23.2321 19.1723 22.1091 20.3755 21.3069 21.7392C20.585 23.0226 20.1037 24.3863 20.0234 25.7499L28.8471 20.6964C28.8471 19.4932 28.2856 18.6108 27.5637 18.2098V18.1295Z" fill="#2192FC"/>
<path fill-rule="evenodd" clip-rule="evenodd" d="M27.5637 18.1295C26.7615 17.6482 25.6385 17.7285 24.4353 18.4504C23.2321 19.1723 22.1091 20.3755 21.3069 21.7392C20.585 23.0226 20.1037 24.3863 20.0234 25.7499L28.8471 20.6964C28.8471 19.4932 28.2856 18.6108 27.5637 18.2098V18.1295Z" fill="url(#paint6_linear_51_14413)"/>
<path fill-rule="evenodd" clip-rule="evenodd" d="M12.1691 27.0416C11.367 26.5603 10.244 26.6406 9.04076 27.3625C7.83753 28.0844 6.71453 29.2876 5.91238 30.6513C5.19044 31.9347 4.70912 33.2984 4.62891 34.662L13.4526 29.6085C13.4526 28.4053 12.8911 27.5229 12.1691 27.1219V27.0416Z" fill="#2192FC"/>
<path fill-rule="evenodd" clip-rule="evenodd" d="M12.1691 27.0416C11.367 26.5603 10.244 26.6406 9.04076 27.3625C7.83753 28.0844 6.71453 29.2876 5.91238 30.6513C5.19044 31.9347 4.70912 33.2984 4.62891 34.662L13.4526 29.6085C13.4526 28.4053 12.8911 27.5229 12.1691 27.1219V27.0416Z" fill="url(#paint7_linear_51_14413)"/>
<path fill-rule="evenodd" clip-rule="evenodd" d="M16.7466 7.38377C17.4686 6.9827 18.1102 6.26072 18.5915 5.45857C19.0728 4.65642 19.3134 3.69384 19.3134 2.89169C19.3134 2.08954 18.9926 1.44783 18.5915 1.20719C18.1102 0.96654 17.4686 0.966574 16.7466 1.36765C16.0247 1.76872 15.3829 2.49064 14.9016 3.29279C14.4203 4.09494 14.1797 5.05752 14.1797 5.85967C14.1797 6.66182 14.5005 7.30353 14.9016 7.54418C15.3829 7.78482 16.0247 7.78485 16.7466 7.38377Z" fill="#FFF0DE"/>
<path fill-rule="evenodd" clip-rule="evenodd" d="M26.2906 11.9435C25.8093 11.7029 25.1677 11.7029 24.4457 12.1039C23.7238 12.505 23.0821 13.2269 22.6008 14.0291C22.1195 14.8312 21.8789 15.7938 21.8789 16.596C21.8789 17.3981 22.1997 18.0399 22.6008 18.2805C23.0821 18.5212 23.7238 18.5211 24.4457 18.1201C25.1677 17.719 25.8093 16.9971 26.2906 16.1949C26.7719 15.3928 27.0127 14.4302 27.0127 13.628C27.0127 12.8259 26.6917 12.1842 26.2906 11.9435Z" fill="#FFE0A6"/>
<path fill-rule="evenodd" clip-rule="evenodd" d="M10.8884 20.7834C10.4071 20.5427 9.76544 20.5427 9.0435 20.9438C8.32157 21.3449 7.67988 22.0668 7.19859 22.869C6.7173 23.6711 6.47656 24.6337 6.47656 25.4359C6.47656 26.238 6.79752 26.8797 7.19859 27.1204C7.67988 27.361 8.32157 27.361 9.0435 26.9599C9.76544 26.5588 10.4071 25.8369 10.8884 25.0348C11.3697 24.2326 11.6103 23.27 11.6103 22.4679C11.6103 21.6657 11.2895 21.024 10.8884 20.7834Z" fill="#B8AFAF"/>
<defs>
<linearGradient id="paint0_linear_51_14413" x1="4.99251" y1="30.0836" x2="12.2657" y2="30.1587" gradientUnits="userSpaceOnUse">
<stop stop-color="#E6F0FF"/>
<stop offset="0.24" stop-color="#E2ECFD"/>
<stop offset="0.47" stop-color="#D6E3F8"/>
<stop offset="0.69" stop-color="#C3D3F0"/>
<stop offset="0.91" stop-color="#A9BDE4"/>
<stop offset="1" stop-color="#9CB2DF"/>
</linearGradient>
<linearGradient id="paint1_linear_51_14413" x1="2.79416" y1="30.16" x2="12.1758" y2="30.16" gradientUnits="userSpaceOnUse">
<stop stop-color="#4AFFC7"/>
<stop offset="1" stop-color="#3BADEA"/>
</linearGradient>
<linearGradient id="paint2_linear_51_14413" x1="18.3332" y1="21.3494" x2="27.7148" y2="21.3494" gradientUnits="userSpaceOnUse">
<stop stop-color="#4AFFC7"/>
<stop offset="1" stop-color="#3BADEA"/>
</linearGradient>
<linearGradient id="paint3_linear_51_14413" x1="10.6457" y1="10.701" x2="20.0273" y2="10.701" gradientUnits="userSpaceOnUse">
<stop stop-color="#4AFFC7"/>
<stop offset="1" stop-color="#3BADEA"/>
</linearGradient>
<linearGradient id="paint4_linear_51_14413" x1="12.7558" y1="18.6231" x2="19.5871" y2="18.6231" gradientUnits="userSpaceOnUse">
<stop stop-color="#4AFFC7"/>
<stop offset="1" stop-color="#3BADEA"/>
</linearGradient>
<linearGradient id="paint5_linear_51_14413" x1="14.3963" y1="10.9824" x2="21.2341" y2="11.0577" gradientUnits="userSpaceOnUse">
<stop stop-color="#E6F0FF"/>
<stop offset="0.24" stop-color="#E2ECFD"/>
<stop offset="0.47" stop-color="#D6E3F8"/>
<stop offset="0.69" stop-color="#C3D3F0"/>
<stop offset="0.91" stop-color="#A9BDE4"/>
<stop offset="1" stop-color="#9CB2DF"/>
</linearGradient>
<linearGradient id="paint6_linear_51_14413" x1="22.0877" y1="21.7207" x2="28.9257" y2="21.796" gradientUnits="userSpaceOnUse">
<stop stop-color="#E6F0FF"/>
<stop offset="0.24" stop-color="#E2ECFD"/>
<stop offset="0.47" stop-color="#D6E3F8"/>
<stop offset="0.69" stop-color="#C3D3F0"/>
<stop offset="0.91" stop-color="#A9BDE4"/>
<stop offset="1" stop-color="#9CB2DF"/>
</linearGradient>
<linearGradient id="paint7_linear_51_14413" x1="6.6932" y1="30.6328" x2="13.5311" y2="30.7081" gradientUnits="userSpaceOnUse">
<stop stop-color="#E6F0FF"/>
<stop offset="0.24" stop-color="#E2ECFD"/>
<stop offset="0.47" stop-color="#D6E3F8"/>
<stop offset="0.69" stop-color="#C3D3F0"/>
<stop offset="0.91" stop-color="#A9BDE4"/>
<stop offset="1" stop-color="#9CB2DF"/>
</linearGradient>
</defs>
</svg>
