<svg width="32" height="51" viewBox="0 0 32 51" fill="none" xmlns="http://www.w3.org/2000/svg">
<path opacity="0.5" fill-rule="evenodd" clip-rule="evenodd" d="M26.6309 34.9632C32.7202 38.4428 32.7202 44.2157 26.6309 47.6954C20.5416 51.2541 10.6563 51.2541 4.567 47.6954C-1.52233 44.2157 -1.52233 38.4428 4.567 34.9632C10.6563 31.4836 20.5416 31.4836 26.6309 34.9632Z" fill="#E9E9EB"/>
<path opacity="0.5" fill-rule="evenodd" clip-rule="evenodd" d="M24.3365 36.3161C29.1605 39.084 29.1605 43.5916 24.3365 46.3595C19.5125 49.1274 11.7623 49.1274 6.93833 46.3595C2.11431 43.5916 2.11431 39.084 6.93833 36.3161C11.7623 33.5483 19.5125 33.5483 24.3365 36.3161Z" fill="#DDDEE1"/>
<path opacity="0.5" fill-rule="evenodd" clip-rule="evenodd" d="M21.9638 37.6573C25.5225 39.7135 25.5225 42.9558 21.9638 45.0119C18.4051 47.0681 12.7111 47.0681 9.23153 45.0119C5.67282 42.9558 5.67282 39.7135 9.23153 37.6573C12.7902 35.6012 18.4842 35.6012 21.9638 37.6573Z" fill="#D1D2D6"/>
<path fill-rule="evenodd" clip-rule="evenodd" d="M24.8064 3.23045L23.6992 2.59766V2.91405L23.541 3.23045V3.62576L23.3828 4.02132V4.41664C23.7782 4.73296 24.0946 5.04925 24.4109 5.36558V4.97027L24.5691 4.57471V4.1794L24.7272 3.78408V3.46769L24.8854 3.15129L24.8064 3.23045Z" fill="#C4A00F"/>
<path fill-rule="evenodd" clip-rule="evenodd" d="M24.8064 3.23045L23.6992 2.59766V2.91405L23.541 3.23045V3.62576L23.3828 4.02132V4.41664C23.7782 4.73296 24.0946 5.04925 24.4109 5.36558V4.97027L24.5691 4.57471V4.1794L24.7272 3.78408V3.46769L24.8854 3.15129L24.8064 3.23045Z" fill="url(#paint0_linear_51_14573)"/>
<path fill-rule="evenodd" clip-rule="evenodd" d="M24.8064 3.23045L23.6992 2.59766V2.91405L23.541 3.23045V3.62576L23.3828 4.02132V4.41664C23.7782 4.73296 24.0946 5.04925 24.4109 5.36558V4.97027L24.5691 4.57471V4.1794L24.7272 3.78408V3.46769L24.8854 3.15129L24.8064 3.23045Z" fill="url(#paint1_linear_51_14573)"/>
<path fill-rule="evenodd" clip-rule="evenodd" d="M25.203 29.1866V32.6662V32.9035V33.1407L25.1239 33.3779L25.0448 33.6152L24.9658 33.8524L24.8076 34.0896L24.6494 34.3269L24.4912 34.5641L24.3331 34.8014L24.0959 35.0386L23.8585 35.1969L23.6213 35.4341L23.384 35.5922L23.1468 35.8295L22.8305 35.9875L22.5141 36.1459L22.1979 36.3039L21.8815 36.462L21.5652 36.6203L21.2489 36.6995L20.8535 36.8576L20.5371 36.9367L20.1418 37.0156L19.7463 37.0948L19.3509 37.174L19.0346 37.2529L18.6392 37.332H18.2437L17.7693 37.4112H17.3738H16.9784H16.583H16.1876H15.7922L15.3968 37.332H15.0013L14.5269 37.2529L14.1314 37.174L13.736 37.0948L13.3407 37.0156L13.0243 36.9367L12.6288 36.7784L12.2335 36.6203L11.9171 36.5412L11.5217 36.3831L11.2054 36.2248L10.889 36.0667L10.6518 35.8295L10.3355 35.6714L10.0983 35.5131L9.86104 35.2758L9.62381 35.1178L9.46561 34.8805L9.22837 34.7224L9.07017 34.485L8.91197 34.2477L8.83294 34.0896L8.67474 33.8524L8.5957 33.6152L8.51666 33.3779L8.4375 33.1407V32.9035V32.6662V29.1074V29.3447V29.5819L8.51666 29.8191L8.5957 30.0564L8.67474 30.2936L8.83294 30.5308L8.91197 30.7683L9.07017 30.9264L9.22837 31.1636L9.46561 31.4009L9.62381 31.559L9.86104 31.7962L10.0983 31.9545L10.3355 32.1917L10.6518 32.3498L10.889 32.5079L11.2054 32.6662L11.5217 32.8243L11.9171 32.9826L12.2335 33.1407L12.6288 33.2199L13.0243 33.3779L13.3407 33.4571L13.736 33.536L14.1314 33.6943H14.5269L15.0013 33.7732L15.3968 33.8524H15.7922L16.1876 33.9316H16.583H16.9784H17.3738L17.7693 33.8524H18.2437L18.6392 33.7732H19.0346L19.3509 33.6943L19.7463 33.6152L20.1418 33.536L20.5371 33.3779L20.8535 33.2988L21.2489 33.2199L21.5652 33.0615L21.8815 32.9035L22.1979 32.7454L22.5141 32.5871L22.8305 32.429L23.1468 32.2707L23.384 32.1126L23.6213 31.8753L23.8585 31.7173L24.0959 31.48L24.3331 31.2428L24.4912 31.0056L24.6494 30.7683L24.8076 30.61L24.9658 30.3728L25.0448 30.1355L25.1239 29.8983L25.203 29.6611V29.4238V29.1866Z" fill="#2C3E50"/>
<path fill-rule="evenodd" clip-rule="evenodd" d="M25.203 29.1866V32.6662V32.9035V33.1407L25.1239 33.3779L25.0448 33.6152L24.9658 33.8524L24.8076 34.0896L24.6494 34.3269L24.4912 34.5641L24.3331 34.8014L24.0959 35.0386L23.8585 35.1969L23.6213 35.4341L23.384 35.5922L23.1468 35.8295L22.8305 35.9875L22.5141 36.1459L22.1979 36.3039L21.8815 36.462L21.5652 36.6203L21.2489 36.6995L20.8535 36.8576L20.5371 36.9367L20.1418 37.0156L19.7463 37.0948L19.3509 37.174L19.0346 37.2529L18.6392 37.332H18.2437L17.7693 37.4112H17.3738H16.9784H16.583H16.1876H15.7922L15.3968 37.332H15.0013L14.5269 37.2529L14.1314 37.174L13.736 37.0948L13.3407 37.0156L13.0243 36.9367L12.6288 36.7784L12.2335 36.6203L11.9171 36.5412L11.5217 36.3831L11.2054 36.2248L10.889 36.0667L10.6518 35.8295L10.3355 35.6714L10.0983 35.5131L9.86104 35.2758L9.62381 35.1178L9.46561 34.8805L9.22837 34.7224L9.07017 34.485L8.91197 34.2477L8.83294 34.0896L8.67474 33.8524L8.5957 33.6152L8.51666 33.3779L8.4375 33.1407V32.9035V32.6662V29.1074V29.3447V29.5819L8.51666 29.8191L8.5957 30.0564L8.67474 30.2936L8.83294 30.5308L8.91197 30.7683L9.07017 30.9264L9.22837 31.1636L9.46561 31.4009L9.62381 31.559L9.86104 31.7962L10.0983 31.9545L10.3355 32.1917L10.6518 32.3498L10.889 32.5079L11.2054 32.6662L11.5217 32.8243L11.9171 32.9826L12.2335 33.1407L12.6288 33.2199L13.0243 33.3779L13.3407 33.4571L13.736 33.536L14.1314 33.6943H14.5269L15.0013 33.7732L15.3968 33.8524H15.7922L16.1876 33.9316H16.583H16.9784H17.3738L17.7693 33.8524H18.2437L18.6392 33.7732H19.0346L19.3509 33.6943L19.7463 33.6152L20.1418 33.536L20.5371 33.3779L20.8535 33.2988L21.2489 33.2199L21.5652 33.0615L21.8815 32.9035L22.1979 32.7454L22.5141 32.5871L22.8305 32.429L23.1468 32.2707L23.384 32.1126L23.6213 31.8753L23.8585 31.7173L24.0959 31.48L24.3331 31.2428L24.4912 31.0056L24.6494 30.7683L24.8076 30.61L24.9658 30.3728L25.0448 30.1355L25.1239 29.8983L25.203 29.6611V29.4238V29.1866Z" fill="url(#paint2_linear_51_14573)"/>
<path fill-rule="evenodd" clip-rule="evenodd" d="M12.6378 33.2322C8.6046 31.8878 7.26021 28.8825 9.5536 26.5891C11.847 24.2957 17.0665 23.5051 21.0206 24.8495C25.0538 26.1939 26.3982 29.199 24.1048 31.4924C21.8114 33.7858 16.5919 34.5766 12.6378 33.2322Z" fill="#415A73"/>
<path fill-rule="evenodd" clip-rule="evenodd" d="M12.6378 33.2322C8.6046 31.8878 7.26021 28.8825 9.5536 26.5891C11.847 24.2957 17.0665 23.5051 21.0206 24.8495C25.0538 26.1939 26.3982 29.199 24.1048 31.4924C21.8114 33.7858 16.5919 34.5766 12.6378 33.2322Z" fill="url(#paint3_linear_51_14573)"/>
<path fill-rule="evenodd" clip-rule="evenodd" d="M12.6378 33.2322C8.6046 31.8878 7.26021 28.8825 9.5536 26.5891C11.847 24.2957 17.0665 23.5051 21.0206 24.8495C25.0538 26.1939 26.3982 29.199 24.1048 31.4924C21.8114 33.7858 16.5919 34.5766 12.6378 33.2322Z" fill="url(#paint4_linear_51_14573)"/>
<path fill-rule="evenodd" clip-rule="evenodd" d="M16.8901 2.70117C14.7549 2.70117 12.6197 3.17561 10.959 4.12459C9.69364 4.83633 8.42835 6.10175 8.50743 7.68339C8.66559 10.214 10.6426 17.015 13.1733 18.4385C18.1554 21.2854 11.1962 22.3926 14.5176 24.3696C14.6758 24.4487 14.7549 24.607 14.7549 24.7652C14.7549 24.7652 14.5968 25.2397 14.4386 25.3188C13.2524 25.6352 12.2243 26.1097 11.5916 26.8214C9.93091 28.4821 10.8799 30.6963 13.8059 31.6453C15.7039 32.278 17.9972 32.278 19.8952 31.6453C22.8212 30.6963 23.8494 28.4821 22.1096 26.8214C21.3978 26.1097 20.3698 25.6352 19.2626 25.3188C19.0254 25.3188 18.9462 25.0816 18.9462 24.8443C18.9462 24.8443 19.0253 24.4487 19.1835 24.3696C22.584 22.3926 15.6247 21.2854 20.5278 18.4385C22.9794 17.015 25.0356 10.214 25.1938 7.68339C25.2729 6.10175 24.0075 4.83633 22.7421 4.12459C21.0814 3.17561 18.9462 2.70117 16.811 2.70117H16.8901Z" fill="#FAC13C"/>
<path fill-rule="evenodd" clip-rule="evenodd" d="M16.8901 2.70117C14.7549 2.70117 12.6197 3.17561 10.959 4.12459C9.69364 4.83633 8.42835 6.10175 8.50743 7.68339C8.66559 10.214 10.6426 17.015 13.1733 18.4385C18.1554 21.2854 11.1962 22.3926 14.5176 24.3696C14.6758 24.4487 14.7549 24.607 14.7549 24.7652C14.7549 24.7652 14.5968 25.2397 14.4386 25.3188C13.2524 25.6352 12.2243 26.1097 11.5916 26.8214C9.93091 28.4821 10.8799 30.6963 13.8059 31.6453C15.7039 32.278 17.9972 32.278 19.8952 31.6453C22.8212 30.6963 23.8494 28.4821 22.1096 26.8214C21.3978 26.1097 20.3698 25.6352 19.2626 25.3188C19.0254 25.3188 18.9462 25.0816 18.9462 24.8443C18.9462 24.8443 19.0253 24.4487 19.1835 24.3696C22.584 22.3926 15.6247 21.2854 20.5278 18.4385C22.9794 17.015 25.0356 10.214 25.1938 7.68339C25.2729 6.10175 24.0075 4.83633 22.7421 4.12459C21.0814 3.17561 18.9462 2.70117 16.811 2.70117H16.8901Z" fill="url(#paint5_linear_51_14573)"/>
<path fill-rule="evenodd" clip-rule="evenodd" d="M5.43137 12.9062L4.32422 12.2734L4.4823 12.669V13.0643L4.71953 13.5388V14.0133L4.95677 14.4877V14.9624L5.74764 17.5721C5.90581 18.2047 6.38034 18.9956 6.77575 19.6283L7.01299 19.9444L7.25022 20.2608L7.5665 20.4981L7.8829 20.7353L8.99004 21.3681L8.67365 21.1309L8.35737 20.8936L8.12013 20.5772L7.8829 20.2608L7.64566 19.9444L7.40842 19.5491L7.25022 19.1538L7.09203 18.7582L6.93383 18.3629L6.77575 17.9674L6.06392 15.1997V14.725L5.82668 14.2505V13.776L5.58944 13.3807V12.9854L5.43137 12.9062Z" fill="#D19917"/>
<path fill-rule="evenodd" clip-rule="evenodd" d="M5.43137 12.9062L4.32422 12.2734L4.4823 12.669V13.0643L4.71953 13.5388V14.0133L4.95677 14.4877V14.9624L5.74764 17.5721C5.90581 18.2047 6.38034 18.9956 6.77575 19.6283L7.01299 19.9444L7.25022 20.2608L7.5665 20.4981L7.8829 20.7353L8.99004 21.3681L8.67365 21.1309L8.35737 20.8936L8.12013 20.5772L7.8829 20.2608L7.64566 19.9444L7.40842 19.5491L7.25022 19.1538L7.09203 18.7582L6.93383 18.3629L6.77575 17.9674L6.06392 15.1997V14.725L5.82668 14.2505V13.776L5.58944 13.3807V12.9854L5.43137 12.9062Z" fill="url(#paint6_linear_51_14573)"/>
<path fill-rule="evenodd" clip-rule="evenodd" d="M25.203 30.2996V31.8814V32.1186L25.1239 32.3558V32.5931L24.9658 32.8303L24.8866 33.0675L24.8076 33.2259L24.6494 33.4631L24.4912 33.7003L24.254 33.9376L24.0959 34.1748L23.8585 34.3329L23.6213 34.5701L23.384 34.8074L23.0678 34.9657L22.8305 35.1238L22.5141 35.2818L22.1979 35.4402L21.8815 35.5982L21.5652 35.7563L21.1697 35.8355L20.8535 35.9936L20.458 36.0727L20.1418 36.1519L19.7463 36.3099L19.3509 36.3891H18.9555L18.56 36.468L18.1647 36.5472H17.7693H17.3738H16.9784H16.583H16.1876H15.7922H15.3968L15.0013 36.468L14.6059 36.3891L14.2106 36.3099L13.8152 36.2308L13.4197 36.1519L13.0243 36.0727L12.6288 35.9146L12.2335 35.8355L11.9171 35.6774L11.6009 35.5191L11.2845 35.361L10.9682 35.2029L10.6518 35.0446L10.4146 34.8074L10.0983 34.6493L9.86104 34.491L9.70285 34.2537L9.46561 34.0957L9.30741 33.8584L9.07017 33.6212L8.99113 33.4631L8.83294 33.2259L8.67474 32.9886L8.5957 32.7514L8.51666 32.5139V32.2767L8.4375 32.0394V31.8022V30.2207V30.4579L8.51666 30.6952V30.9324L8.5957 31.1697L8.67474 31.4069L8.83294 31.6441L8.99113 31.8022L9.07017 32.0394L9.30741 32.2767L9.46561 32.5139L9.70285 32.6722L9.86104 32.9095L10.0983 33.0675L10.4146 33.2259L10.6518 33.4631L10.9682 33.6212L11.2845 33.7793L11.6009 33.9376L11.9171 34.0957L12.2335 34.1748L12.6288 34.3329L13.0243 34.491L13.4197 34.5701L13.8152 34.6493L14.2106 34.7284L14.6059 34.8074L15.0013 34.8865H15.3968L15.7922 34.9657H16.1876H16.583H16.9784H17.3738H17.7693L18.1647 34.8865H18.56L18.9555 34.8074L19.3509 34.7284L19.7463 34.6493L20.1418 34.5701L20.458 34.491L20.8535 34.4121L21.1697 34.2537L21.5652 34.1748L21.8815 34.0165L22.1979 33.8584L22.5141 33.7003L22.8305 33.542L23.0678 33.3839L23.384 33.1467L23.6213 32.9886L23.8585 32.7514L24.0959 32.5931L24.254 32.3558L24.4912 32.1186L24.6494 31.8814L24.8076 31.6441L24.8866 31.4069L24.9658 31.2488L25.1239 31.0116V30.7743L25.203 30.5369V30.2996Z" fill="#2C3E50"/>
<path fill-rule="evenodd" clip-rule="evenodd" d="M25.203 30.2996V31.8814V32.1186L25.1239 32.3558V32.5931L24.9658 32.8303L24.8866 33.0675L24.8076 33.2259L24.6494 33.4631L24.4912 33.7003L24.254 33.9376L24.0959 34.1748L23.8585 34.3329L23.6213 34.5701L23.384 34.8074L23.0678 34.9657L22.8305 35.1238L22.5141 35.2818L22.1979 35.4402L21.8815 35.5982L21.5652 35.7563L21.1697 35.8355L20.8535 35.9936L20.458 36.0727L20.1418 36.1519L19.7463 36.3099L19.3509 36.3891H18.9555L18.56 36.468L18.1647 36.5472H17.7693H17.3738H16.9784H16.583H16.1876H15.7922H15.3968L15.0013 36.468L14.6059 36.3891L14.2106 36.3099L13.8152 36.2308L13.4197 36.1519L13.0243 36.0727L12.6288 35.9146L12.2335 35.8355L11.9171 35.6774L11.6009 35.5191L11.2845 35.361L10.9682 35.2029L10.6518 35.0446L10.4146 34.8074L10.0983 34.6493L9.86104 34.491L9.70285 34.2537L9.46561 34.0957L9.30741 33.8584L9.07017 33.6212L8.99113 33.4631L8.83294 33.2259L8.67474 32.9886L8.5957 32.7514L8.51666 32.5139V32.2767L8.4375 32.0394V31.8022V30.2207V30.4579L8.51666 30.6952V30.9324L8.5957 31.1697L8.67474 31.4069L8.83294 31.6441L8.99113 31.8022L9.07017 32.0394L9.30741 32.2767L9.46561 32.5139L9.70285 32.6722L9.86104 32.9095L10.0983 33.0675L10.4146 33.2259L10.6518 33.4631L10.9682 33.6212L11.2845 33.7793L11.6009 33.9376L11.9171 34.0957L12.2335 34.1748L12.6288 34.3329L13.0243 34.491L13.4197 34.5701L13.8152 34.6493L14.2106 34.7284L14.6059 34.8074L15.0013 34.8865H15.3968L15.7922 34.9657H16.1876H16.583H16.9784H17.3738H17.7693L18.1647 34.8865H18.56L18.9555 34.8074L19.3509 34.7284L19.7463 34.6493L20.1418 34.5701L20.458 34.491L20.8535 34.4121L21.1697 34.2537L21.5652 34.1748L21.8815 34.0165L22.1979 33.8584L22.5141 33.7003L22.8305 33.542L23.0678 33.3839L23.384 33.1467L23.6213 32.9886L23.8585 32.7514L24.0959 32.5931L24.254 32.3558L24.4912 32.1186L24.6494 31.8814L24.8076 31.6441L24.8866 31.4069L24.9658 31.2488L25.1239 31.0116V30.7743L25.203 30.5369V30.2996Z" fill="url(#paint7_linear_51_14573)"/>
<path fill-rule="evenodd" clip-rule="evenodd" d="M19.9062 36.2242V34.6427L20.1436 34.5635L20.4599 34.4843L20.8553 34.4054L21.1716 34.2471L21.567 34.1682L21.8833 34.0099L22.1997 33.8518L22.516 33.6937L22.8324 33.5354L23.0696 33.3773L23.3859 33.1401L23.6231 32.982L23.8604 32.7448L24.0977 32.5865L24.2558 32.3492L24.493 32.112L24.6512 31.8747L24.8094 31.6375L24.8885 31.4003L24.9676 31.2422V31.3211V32.8237L24.8885 33.0609L24.8094 33.2192L24.6512 33.4565L24.493 33.6937L24.2558 33.931L24.0977 34.1682L23.8604 34.3263L23.6231 34.5635L23.3859 34.8007L23.0696 34.9591L22.8324 35.1171L22.516 35.2752L22.1997 35.4335L21.8833 35.5916L21.567 35.7497L21.1716 35.8289L20.8553 35.9869L20.4599 36.0661L20.1436 36.1452L19.9062 36.2242Z" fill="#E6EAEB"/>
<path fill-rule="evenodd" clip-rule="evenodd" d="M19.9062 36.2242V34.6427L20.1436 34.5635L20.4599 34.4843L20.8553 34.4054L21.1716 34.2471L21.567 34.1682L21.8833 34.0099L22.1997 33.8518L22.516 33.6937L22.8324 33.5354L23.0696 33.3773L23.3859 33.1401L23.6231 32.982L23.8604 32.7448L24.0977 32.5865L24.2558 32.3492L24.493 32.112L24.6512 31.8747L24.8094 31.6375L24.8885 31.4003L24.9676 31.2422V31.3211V32.8237L24.8885 33.0609L24.8094 33.2192L24.6512 33.4565L24.493 33.6937L24.2558 33.931L24.0977 34.1682L23.8604 34.3263L23.6231 34.5635L23.3859 34.8007L23.0696 34.9591L22.8324 35.1171L22.516 35.2752L22.1997 35.4335L21.8833 35.5916L21.567 35.7497L21.1716 35.8289L20.8553 35.9869L20.4599 36.0661L20.1436 36.1452L19.9062 36.2242Z" fill="url(#paint8_linear_51_14573)"/>
<path fill-rule="evenodd" clip-rule="evenodd" d="M19.9062 36.2242V34.6427L20.1436 34.5635L20.4599 34.4843L20.8553 34.4054L21.1716 34.2471L21.567 34.1682L21.8833 34.0099L22.1997 33.8518L22.516 33.6937L22.8324 33.5354L23.0696 33.3773L23.3859 33.1401L23.6231 32.982L23.8604 32.7448L24.0977 32.5865L24.2558 32.3492L24.493 32.112L24.6512 31.8747L24.8094 31.6375L24.8885 31.4003L24.9676 31.2422V31.3211V32.8237L24.8885 33.0609L24.8094 33.2192L24.6512 33.4565L24.493 33.6937L24.2558 33.931L24.0977 34.1682L23.8604 34.3263L23.6231 34.5635L23.3859 34.8007L23.0696 34.9591L22.8324 35.1171L22.516 35.2752L22.1997 35.4335L21.8833 35.5916L21.567 35.7497L21.1716 35.8289L20.8553 35.9869L20.4599 36.0661L20.1436 36.1452L19.9062 36.2242Z" fill="#E6EAEB"/>
<path fill-rule="evenodd" clip-rule="evenodd" d="M19.9062 36.2242V34.6427L20.1436 34.5635L20.4599 34.4843L20.8553 34.4054L21.1716 34.2471L21.567 34.1682L21.8833 34.0099L22.1997 33.8518L22.516 33.6937L22.8324 33.5354L23.0696 33.3773L23.3859 33.1401L23.6231 32.982L23.8604 32.7448L24.0977 32.5865L24.2558 32.3492L24.493 32.112L24.6512 31.8747L24.8094 31.6375L24.8885 31.4003L24.9676 31.2422V31.3211V32.8237L24.8885 33.0609L24.8094 33.2192L24.6512 33.4565L24.493 33.6937L24.2558 33.931L24.0977 34.1682L23.8604 34.3263L23.6231 34.5635L23.3859 34.8007L23.0696 34.9591L22.8324 35.1171L22.516 35.2752L22.1997 35.4335L21.8833 35.5916L21.567 35.7497L21.1716 35.8289L20.8553 35.9869L20.4599 36.0661L20.1436 36.1452L19.9062 36.2242Z" fill="url(#paint9_linear_51_14573)"/>
<path fill-rule="evenodd" clip-rule="evenodd" d="M24.9685 31.3211C24.8104 31.7956 24.494 32.191 24.0986 32.5865C23.0706 33.6145 21.5679 34.3264 19.8281 34.7218V34.5635C21.4889 34.1681 22.9914 33.4563 23.9404 32.5073C24.3358 32.1119 24.6522 31.6376 24.8103 31.2422H24.9685V31.3211Z" fill="#BDC3C7"/>
<path fill-rule="evenodd" clip-rule="evenodd" d="M13.9744 18.6055C13.1045 19.159 12.6301 19.3963 11.2066 19.6336H10.9694H10.7321H10.4157H10.0995H9.78307L9.54583 19.4753L9.30859 19.3172C10.5739 20.5034 12.4719 20.8197 14.5281 19.4753L14.8443 19.3172C14.8443 19.3172 14.2907 18.8426 13.9744 18.6844V18.6055Z" fill="#D1AF27"/>
<path fill-rule="evenodd" clip-rule="evenodd" d="M13.9744 18.6055C13.1045 19.159 12.6301 19.3963 11.2066 19.6336H10.9694H10.7321H10.4157H10.0995H9.78307L9.54583 19.4753L9.30859 19.3172C10.5739 20.5034 12.4719 20.8197 14.5281 19.4753L14.8443 19.3172C14.8443 19.3172 14.2907 18.8426 13.9744 18.6844V18.6055Z" fill="url(#paint10_linear_51_14573)"/>
<path fill-rule="evenodd" clip-rule="evenodd" d="M5.43137 12.9062L4.32422 12.2734L4.4823 12.669V13.0643L4.71953 13.5388V14.0133L4.95677 14.4877V14.9624L5.74764 17.5721C5.90581 18.2047 6.38034 18.9956 6.77575 19.6283L7.01299 19.9444L7.25022 20.2608L7.5665 20.4981L7.8829 20.7353L8.99004 21.3681L8.67365 21.1309L8.35737 20.8936L8.12013 20.5772L7.8829 20.2608L7.64566 19.9444L7.40842 19.5491L7.25022 19.1538L7.09203 18.7582L6.93383 18.3629L6.77575 17.9674L6.06392 15.1997V14.725L5.82668 14.2505V13.776L5.58944 13.3807V12.9854L5.43137 12.9062Z" fill="#D19917"/>
<path fill-rule="evenodd" clip-rule="evenodd" d="M5.43137 12.9062L4.32422 12.2734L4.4823 12.669V13.0643L4.71953 13.5388V14.0133L4.95677 14.4877V14.9624L5.74764 17.5721C5.90581 18.2047 6.38034 18.9956 6.77575 19.6283L7.01299 19.9444L7.25022 20.2608L7.5665 20.4981L7.8829 20.7353L8.99004 21.3681L8.67365 21.1309L8.35737 20.8936L8.12013 20.5772L7.8829 20.2608L7.64566 19.9444L7.40842 19.5491L7.25022 19.1538L7.09203 18.7582L6.93383 18.3629L6.77575 17.9674L6.06392 15.1997V14.725L5.82668 14.2505V13.776L5.58944 13.3807V12.9854L5.43137 12.9062Z" fill="url(#paint11_linear_51_14573)"/>
<path fill-rule="evenodd" clip-rule="evenodd" d="M24.7962 9.79857C25.6661 6.63528 26.0614 3.47196 26.6941 0.625L21.6328 3.55125C21.6328 3.55125 22.3446 3.86739 22.6609 4.10464C22.74 4.10464 22.8191 4.18388 22.8982 4.26296L24.638 3.23485C24.4798 3.86751 24.4007 4.65832 24.2425 5.44914C24.717 6.00272 24.9543 6.5563 25.0334 7.18896C25.0334 7.34713 25.0334 7.50527 25.0334 7.66344C25.0334 8.21701 24.8752 9.00783 24.717 9.87773L24.7962 9.79857Z" fill="#FAC13C"/>
<path fill-rule="evenodd" clip-rule="evenodd" d="M24.7962 9.79857C25.6661 6.63528 26.0614 3.47196 26.6941 0.625L21.6328 3.55125C21.6328 3.55125 22.3446 3.86739 22.6609 4.10464C22.74 4.10464 22.8191 4.18388 22.8982 4.26296L24.638 3.23485C24.4798 3.86751 24.4007 4.65832 24.2425 5.44914C24.717 6.00272 24.9543 6.5563 25.0334 7.18896C25.0334 7.34713 25.0334 7.50527 25.0334 7.66344C25.0334 8.21701 24.8752 9.00783 24.717 9.87773L24.7962 9.79857Z" fill="url(#paint12_linear_51_14573)"/>
<path fill-rule="evenodd" clip-rule="evenodd" d="M22.7551 4.02114C19.5127 2.12316 14.2142 2.12316 10.8927 4.02114C7.65034 5.91911 7.65034 9.0032 10.8927 10.8221C14.1351 12.7201 19.4336 12.7201 22.7551 10.8221C25.9974 8.92412 25.9974 5.84003 22.7551 4.02114Z" fill="#FFD94F"/>
<path fill-rule="evenodd" clip-rule="evenodd" d="M22.7551 4.02114C19.5127 2.12316 14.2142 2.12316 10.8927 4.02114C7.65034 5.91911 7.65034 9.0032 10.8927 10.8221C14.1351 12.7201 19.4336 12.7201 22.7551 10.8221C25.9974 8.92412 25.9974 5.84003 22.7551 4.02114Z" fill="url(#paint13_linear_51_14573)"/>
<path fill-rule="evenodd" clip-rule="evenodd" d="M21.2428 4.90745C18.7913 3.48397 14.8371 3.48397 12.3855 4.90745C9.93399 6.33094 9.93399 8.62444 12.3855 9.96883C14.8371 11.3923 18.7913 11.3923 21.2428 9.96883C23.6944 8.54535 23.6944 6.25185 21.2428 4.90745Z" fill="#C4A00F"/>
<path fill-rule="evenodd" clip-rule="evenodd" d="M21.2428 4.90745C18.7913 3.48397 14.8371 3.48397 12.3855 4.90745C9.93399 6.33094 9.93399 8.62444 12.3855 9.96883C14.8371 11.3923 18.7913 11.3923 21.2428 9.96883C23.6944 8.54535 23.6944 6.25185 21.2428 4.90745Z" fill="url(#paint14_linear_51_14573)"/>
<path fill-rule="evenodd" clip-rule="evenodd" d="M19.9062 36.2242V34.6427L20.1436 34.5635L20.4599 34.4843L20.8553 34.4054L21.1716 34.2471L21.567 34.1682L21.8833 34.0099L22.1997 33.8518L22.516 33.6937L22.8324 33.5354L23.0696 33.3773L23.3859 33.1401L23.6231 32.982L23.8604 32.7448L24.0977 32.5865L24.2558 32.3492L24.493 32.112L24.6512 31.8747L24.8094 31.6375L24.8885 31.4003L24.9676 31.2422V31.3211V32.8237L24.8885 33.0609L24.8094 33.2192L24.6512 33.4565L24.493 33.6937L24.2558 33.931L24.0977 34.1682L23.8604 34.3263L23.6231 34.5635L23.3859 34.8007L23.0696 34.9591L22.8324 35.1171L22.516 35.2752L22.1997 35.4335L21.8833 35.5916L21.567 35.7497L21.1716 35.8289L20.8553 35.9869L20.4599 36.0661L20.1436 36.1452L19.9062 36.2242Z" fill="#E6EAEB"/>
<path fill-rule="evenodd" clip-rule="evenodd" d="M19.9062 36.2242V34.6427L20.1436 34.5635L20.4599 34.4843L20.8553 34.4054L21.1716 34.2471L21.567 34.1682L21.8833 34.0099L22.1997 33.8518L22.516 33.6937L22.8324 33.5354L23.0696 33.3773L23.3859 33.1401L23.6231 32.982L23.8604 32.7448L24.0977 32.5865L24.2558 32.3492L24.493 32.112L24.6512 31.8747L24.8094 31.6375L24.8885 31.4003L24.9676 31.2422V31.3211V32.8237L24.8885 33.0609L24.8094 33.2192L24.6512 33.4565L24.493 33.6937L24.2558 33.931L24.0977 34.1682L23.8604 34.3263L23.6231 34.5635L23.3859 34.8007L23.0696 34.9591L22.8324 35.1171L22.516 35.2752L22.1997 35.4335L21.8833 35.5916L21.567 35.7497L21.1716 35.8289L20.8553 35.9869L20.4599 36.0661L20.1436 36.1452L19.9062 36.2242Z" fill="url(#paint15_linear_51_14573)"/>
<path fill-rule="evenodd" clip-rule="evenodd" d="M26.7044 0.632552L25.5972 0L24.8065 0.474474L24.0156 0.948948L23.2249 1.42342L22.434 1.8979L21.6431 2.37237C20.2987 3.16319 22.1968 2.05602 20.8524 2.84685L20.0615 3.32156C20.536 3.47973 21.0896 3.55871 21.5641 3.71688C22.7503 3.00514 20.7733 4.19138 21.9595 3.47964L22.7503 3.00516L23.5412 2.53069L24.332 2.05622L25.1228 1.58174L25.9136 1.10727L26.7044 0.632552ZM9.46452 9.33165L9.06908 9.56888L7.5665 10.4389L6.77575 10.9134L5.98488 11.3879L4.32422 12.3368H4.40326L5.5104 12.8904L6.30128 12.416L7.09203 11.9415L7.8829 11.467L9.38548 10.597L10.1762 10.1225C10.1762 10.1225 9.70176 9.56906 9.46452 9.25273V9.33165Z" fill="#FFD94F"/>
<path fill-rule="evenodd" clip-rule="evenodd" d="M26.7044 0.632552L25.5972 0L24.8065 0.474474L24.0156 0.948948L23.2249 1.42342L22.434 1.8979L21.6431 2.37237C20.2987 3.16319 22.1968 2.05602 20.8524 2.84685L20.0615 3.32156C20.536 3.47973 21.0896 3.55871 21.5641 3.71688C22.7503 3.00514 20.7733 4.19138 21.9595 3.47964L22.7503 3.00516L23.5412 2.53069L24.332 2.05622L25.1228 1.58174L25.9136 1.10727L26.7044 0.632552ZM9.46452 9.33165L9.06908 9.56888L7.5665 10.4389L6.77575 10.9134L5.98488 11.3879L4.32422 12.3368H4.40326L5.5104 12.8904L6.30128 12.416L7.09203 11.9415L7.8829 11.467L9.38548 10.597L10.1762 10.1225C10.1762 10.1225 9.70176 9.56906 9.46452 9.25273V9.33165Z" fill="url(#paint16_linear_51_14573)"/>
<path fill-rule="evenodd" clip-rule="evenodd" d="M26.7044 0.632552L25.5972 0L24.8065 0.474474L24.0156 0.948948L23.2249 1.42342L22.434 1.8979L21.6431 2.37237C20.2987 3.16319 22.1968 2.05602 20.8524 2.84685L20.0615 3.32156C20.536 3.47973 21.0896 3.55871 21.5641 3.71688C22.7503 3.00514 20.7733 4.19138 21.9595 3.47964L22.7503 3.00516L23.5412 2.53069L24.332 2.05622L25.1228 1.58174L25.9136 1.10727L26.7044 0.632552ZM9.46452 9.33165L9.06908 9.56888L7.5665 10.4389L6.77575 10.9134L5.98488 11.3879L4.32422 12.3368H4.40326L5.5104 12.8904L6.30128 12.416L7.09203 11.9415L7.8829 11.467L9.38548 10.597L10.1762 10.1225C10.1762 10.1225 9.70176 9.56906 9.46452 9.25273V9.33165Z" fill="url(#paint17_linear_51_14573)"/>
<path fill-rule="evenodd" clip-rule="evenodd" d="M5.43359 12.9048L5.98711 15.1191L6.69882 17.887C7.48964 20.813 9.07128 22.7899 12.8672 21.4455C13.8162 21.0501 14.2116 20.8921 15.2397 20.3385C15.3188 20.1804 15.3188 20.022 15.2397 19.943C15.1606 19.7057 15.0025 19.5477 14.7652 19.3104C13.0254 20.1803 12.4719 20.3385 11.681 20.3385C9.94123 20.3385 8.75505 18.9151 8.28056 17.1753L7.64789 14.7235C7.48972 14.249 7.41057 13.7746 7.33149 13.3001L9.70398 11.9558L10.2576 11.6394C10.0995 11.244 10.0203 10.8485 9.94122 10.2949L5.43359 12.9048Z" fill="#FAC13C"/>
<path fill-rule="evenodd" clip-rule="evenodd" d="M5.43359 12.9048L5.98711 15.1191L6.69882 17.887C7.48964 20.813 9.07128 22.7899 12.8672 21.4455C13.8162 21.0501 14.2116 20.8921 15.2397 20.3385C15.3188 20.1804 15.3188 20.022 15.2397 19.943C15.1606 19.7057 15.0025 19.5477 14.7652 19.3104C13.0254 20.1803 12.4719 20.3385 11.681 20.3385C9.94123 20.3385 8.75505 18.9151 8.28056 17.1753L7.64789 14.7235C7.48972 14.249 7.41057 13.7746 7.33149 13.3001L9.70398 11.9558L10.2576 11.6394C10.0995 11.244 10.0203 10.8485 9.94122 10.2949L5.43359 12.9048Z" fill="url(#paint18_linear_51_14573)"/>
<defs>
<linearGradient id="paint0_linear_51_14573" x1="23.7343" y1="3.95809" x2="24.8989" y2="3.96434" gradientUnits="userSpaceOnUse">
<stop stop-color="#E6F0FF"/>
<stop offset="0.24" stop-color="#E2ECFD"/>
<stop offset="0.47" stop-color="#D6E3F8"/>
<stop offset="0.69" stop-color="#C3D3F0"/>
<stop offset="0.91" stop-color="#A9BDE4"/>
<stop offset="1" stop-color="#9CB2DF"/>
</linearGradient>
<linearGradient id="paint1_linear_51_14573" x1="23.3824" y1="3.98162" x2="24.8844" y2="3.98162" gradientUnits="userSpaceOnUse">
<stop stop-color="#4AFFC7"/>
<stop offset="1" stop-color="#3BADEA"/>
</linearGradient>
<linearGradient id="paint2_linear_51_14573" x1="12.3598" y1="33.1887" x2="25.3487" y2="33.448" gradientUnits="userSpaceOnUse">
<stop stop-color="#E6F0FF"/>
<stop offset="0.24" stop-color="#E2ECFD"/>
<stop offset="0.47" stop-color="#D6E3F8"/>
<stop offset="0.69" stop-color="#C3D3F0"/>
<stop offset="0.91" stop-color="#A9BDE4"/>
<stop offset="1" stop-color="#9CB2DF"/>
</linearGradient>
<linearGradient id="paint3_linear_51_14573" x1="12.364" y1="28.9585" x2="25.3681" y2="29.181" gradientUnits="userSpaceOnUse">
<stop stop-color="#E6F0FF"/>
<stop offset="0.24" stop-color="#E2ECFD"/>
<stop offset="0.47" stop-color="#D6E3F8"/>
<stop offset="0.69" stop-color="#C3D3F0"/>
<stop offset="0.91" stop-color="#A9BDE4"/>
<stop offset="1" stop-color="#9CB2DF"/>
</linearGradient>
<linearGradient id="paint4_linear_51_14573" x1="8.43264" y1="29.0409" x2="25.2097" y2="29.0409" gradientUnits="userSpaceOnUse">
<stop stop-color="#4AFFC7"/>
<stop offset="1" stop-color="#3BADEA"/>
</linearGradient>
<linearGradient id="paint5_linear_51_14573" x1="12.4093" y1="17.1604" x2="25.3471" y2="17.233" gradientUnits="userSpaceOnUse">
<stop stop-color="#9CB2DF"/>
<stop offset="0.09" stop-color="#A9BDE4"/>
<stop offset="0.31" stop-color="#C3D3F0"/>
<stop offset="0.53" stop-color="#D6E3F8"/>
<stop offset="0.76" stop-color="#E2ECFD"/>
<stop offset="1" stop-color="#E6F0FF"/>
</linearGradient>
<linearGradient id="paint6_linear_51_14573" x1="4.32287" y1="16.8208" x2="8.98693" y2="16.8208" gradientUnits="userSpaceOnUse">
<stop stop-color="#4AFFC7"/>
<stop offset="1" stop-color="#3BADEA"/>
</linearGradient>
<linearGradient id="paint7_linear_51_14573" x1="12.3598" y1="33.3302" x2="25.3449" y2="33.6704" gradientUnits="userSpaceOnUse">
<stop stop-color="#E6F0FF"/>
<stop offset="0.24" stop-color="#E2ECFD"/>
<stop offset="0.47" stop-color="#D6E3F8"/>
<stop offset="0.69" stop-color="#C3D3F0"/>
<stop offset="0.91" stop-color="#A9BDE4"/>
<stop offset="1" stop-color="#9CB2DF"/>
</linearGradient>
<linearGradient id="paint8_linear_51_14573" x1="19.9048" y1="33.7332" x2="24.9643" y2="33.7332" gradientUnits="userSpaceOnUse">
<stop stop-color="#4AFFC7"/>
<stop offset="1" stop-color="#3BADEA"/>
</linearGradient>
<linearGradient id="paint9_linear_51_14573" x1="19.9048" y1="33.7332" x2="24.9643" y2="33.7332" gradientUnits="userSpaceOnUse">
<stop stop-color="#4AFFC7"/>
<stop offset="1" stop-color="#3BADEA"/>
</linearGradient>
<linearGradient id="paint10_linear_51_14573" x1="9.30699" y1="19.4795" x2="14.8406" y2="19.4795" gradientUnits="userSpaceOnUse">
<stop stop-color="#4AFFC7"/>
<stop offset="1" stop-color="#3BADEA"/>
</linearGradient>
<linearGradient id="paint11_linear_51_14573" x1="4.32287" y1="16.8208" x2="8.98693" y2="16.8208" gradientUnits="userSpaceOnUse">
<stop stop-color="#4AFFC7"/>
<stop offset="1" stop-color="#3BADEA"/>
</linearGradient>
<linearGradient id="paint12_linear_51_14573" x1="22.8169" y1="5.17272" x2="26.7395" y2="5.19393" gradientUnits="userSpaceOnUse">
<stop stop-color="#E6F0FF"/>
<stop offset="0.24" stop-color="#E2ECFD"/>
<stop offset="0.47" stop-color="#D6E3F8"/>
<stop offset="0.69" stop-color="#C3D3F0"/>
<stop offset="0.91" stop-color="#A9BDE4"/>
<stop offset="1" stop-color="#9CB2DF"/>
</linearGradient>
<linearGradient id="paint13_linear_51_14573" x1="12.3739" y1="7.33961" x2="25.3335" y2="7.56173" gradientUnits="userSpaceOnUse">
<stop stop-color="#E6F0FF"/>
<stop offset="0.24" stop-color="#E2ECFD"/>
<stop offset="0.47" stop-color="#D6E3F8"/>
<stop offset="0.69" stop-color="#C3D3F0"/>
<stop offset="0.91" stop-color="#A9BDE4"/>
<stop offset="1" stop-color="#9CB2DF"/>
</linearGradient>
<linearGradient id="paint14_linear_51_14573" x1="10.5432" y1="7.43814" x2="23.0731" y2="7.43814" gradientUnits="userSpaceOnUse">
<stop stop-color="#4AFFC7"/>
<stop offset="1" stop-color="#3BADEA"/>
</linearGradient>
<linearGradient id="paint15_linear_51_14573" x1="19.9048" y1="33.7332" x2="24.9643" y2="33.7332" gradientUnits="userSpaceOnUse">
<stop stop-color="#4AFFC7"/>
<stop offset="1" stop-color="#3BADEA"/>
</linearGradient>
<linearGradient id="paint16_linear_51_14573" x1="9.56002" y1="6.33566" x2="26.9006" y2="6.6333" gradientUnits="userSpaceOnUse">
<stop stop-color="#E6F0FF"/>
<stop offset="0.24" stop-color="#E2ECFD"/>
<stop offset="0.47" stop-color="#D6E3F8"/>
<stop offset="0.69" stop-color="#C3D3F0"/>
<stop offset="0.91" stop-color="#A9BDE4"/>
<stop offset="1" stop-color="#9CB2DF"/>
</linearGradient>
<linearGradient id="paint17_linear_51_14573" x1="4.31774" y1="6.44522" x2="26.6895" y2="6.44522" gradientUnits="userSpaceOnUse">
<stop stop-color="#4AFFC7"/>
<stop offset="1" stop-color="#3BADEA"/>
</linearGradient>
<linearGradient id="paint18_linear_51_14573" x1="7.7416" y1="15.987" x2="15.3872" y2="16.0513" gradientUnits="userSpaceOnUse">
<stop stop-color="#E6F0FF"/>
<stop offset="0.24" stop-color="#E2ECFD"/>
<stop offset="0.47" stop-color="#D6E3F8"/>
<stop offset="0.69" stop-color="#C3D3F0"/>
<stop offset="0.91" stop-color="#A9BDE4"/>
<stop offset="1" stop-color="#9CB2DF"/>
</linearGradient>
</defs>
</svg>
