<svg width="37" height="46" viewBox="0 0 37 46" fill="none" xmlns="http://www.w3.org/2000/svg">
<path opacity="0.5" fill-rule="evenodd" clip-rule="evenodd" d="M29.3329 30.8707C35.3076 34.2849 35.3076 39.9492 29.3329 43.3634C23.3581 46.7775 13.6589 46.7775 7.68417 43.3634C1.70944 39.8716 1.70944 34.2849 7.68417 30.8707C13.6589 27.379 23.3581 27.379 29.3329 30.8707Z" fill="#E9E9EB"/>
<path opacity="0.5" fill-rule="evenodd" clip-rule="evenodd" d="M27.0815 32.1911C31.8147 34.9069 31.8147 39.3298 27.0815 42.0455C22.3483 44.7613 14.7441 44.7613 10.0109 42.0455C5.27763 39.3298 5.27763 34.9069 10.0109 32.1911C14.7441 29.4754 22.3483 29.4754 27.0815 32.1911Z" fill="#DDDEE1"/>
<path opacity="0.5" fill-rule="evenodd" clip-rule="evenodd" d="M24.756 33.5189C28.2477 35.5364 28.2477 38.7177 24.756 40.7352C21.2642 42.7526 15.6775 42.7526 12.2633 40.7352C8.7716 38.7177 8.7716 35.5364 12.2633 33.5189C15.7551 31.5015 21.3418 31.5015 24.756 33.5189Z" fill="#D1D2D6"/>
<path fill-rule="evenodd" clip-rule="evenodd" d="M12.5702 1.55191L10.2424 0.232772H10.0096L9.77683 0.0776105H9.54405L9.31127 0H9.07849H8.8457H8.61293H8.30255H7.99218L7.6818 0.155221H7.37143L7.06104 0.387993L6.75068 0.543155L6.44029 0.698376L6.12993 0.853538L5.81954 1.0087L5.50918 1.24153L5.19879 1.4743L4.88841 1.70708L4.57804 1.93985L4.26766 2.17262L3.95729 2.483L3.64691 2.79339L3.41414 3.10377L3.18135 3.41415L2.94857 3.72453L2.71579 4.03492L2.483 4.34524L2.25022 4.65562L2.01744 5.04362L1.78466 5.43161L1.55188 5.81954L1.39669 6.20754L1.2415 6.59547L1.08632 6.98346L0.931126 7.37146L0.775942 7.75939L0.620751 8.14738L0.465567 8.53532V8.92331L0.23278 9.3113V9.69924L0.0775957 10.0872V10.4752L0 10.8632V11.2512V11.6391V12.0271V12.3375V12.6478L0.0775957 12.9582V13.2686L0.23278 13.5789V13.8893L0.465567 14.1221L0.620751 14.3549L0.775942 14.5876L0.931126 14.8205L1.08632 14.9756L1.2415 15.1308L1.39669 15.286L1.55188 15.4412L2.40541 15.9068L3.8797 16.7603L12.4926 1.78469L12.5702 1.55191Z" fill="#415A73"/>
<path fill-rule="evenodd" clip-rule="evenodd" d="M12.5702 1.55191L10.2424 0.232772H10.0096L9.77683 0.0776105H9.54405L9.31127 0H9.07849H8.8457H8.61293H8.30255H7.99218L7.6818 0.155221H7.37143L7.06104 0.387993L6.75068 0.543155L6.44029 0.698376L6.12993 0.853538L5.81954 1.0087L5.50918 1.24153L5.19879 1.4743L4.88841 1.70708L4.57804 1.93985L4.26766 2.17262L3.95729 2.483L3.64691 2.79339L3.41414 3.10377L3.18135 3.41415L2.94857 3.72453L2.71579 4.03492L2.483 4.34524L2.25022 4.65562L2.01744 5.04362L1.78466 5.43161L1.55188 5.81954L1.39669 6.20754L1.2415 6.59547L1.08632 6.98346L0.931126 7.37146L0.775942 7.75939L0.620751 8.14738L0.465567 8.53532V8.92331L0.23278 9.3113V9.69924L0.0775957 10.0872V10.4752L0 10.8632V11.2512V11.6391V12.0271V12.3375V12.6478L0.0775957 12.9582V13.2686L0.23278 13.5789V13.8893L0.465567 14.1221L0.620751 14.3549L0.775942 14.5876L0.931126 14.8205L1.08632 14.9756L1.2415 15.1308L1.39669 15.286L1.55188 15.4412L2.40541 15.9068L3.8797 16.7603L12.4926 1.78469L12.5702 1.55191Z" fill="url(#paint0_linear_51_14486)"/>
<path fill-rule="evenodd" clip-rule="evenodd" d="M12.5702 1.55191L10.2424 0.232772H10.0096L9.77683 0.0776105H9.54405L9.31127 0H9.07849H8.8457H8.61293H8.30255H7.99218L7.6818 0.155221H7.37143L7.06104 0.387993L6.75068 0.543155L6.44029 0.698376L6.12993 0.853538L5.81954 1.0087L5.50918 1.24153L5.19879 1.4743L4.88841 1.70708L4.57804 1.93985L4.26766 2.17262L3.95729 2.483L3.64691 2.79339L3.41414 3.10377L3.18135 3.41415L2.94857 3.72453L2.71579 4.03492L2.483 4.34524L2.25022 4.65562L2.01744 5.04362L1.78466 5.43161L1.55188 5.81954L1.39669 6.20754L1.2415 6.59547L1.08632 6.98346L0.931126 7.37146L0.775942 7.75939L0.620751 8.14738L0.465567 8.53532V8.92331L0.23278 9.3113V9.69924L0.0775957 10.0872V10.4752L0 10.8632V11.2512V11.6391V12.0271V12.3375V12.6478L0.0775957 12.9582V13.2686L0.23278 13.5789V13.8893L0.465567 14.1221L0.620751 14.3549L0.775942 14.5876L0.931126 14.8205L1.08632 14.9756L1.2415 15.1308L1.39669 15.286L1.55188 15.4412L2.40541 15.9068L3.8797 16.7603L12.4926 1.78469L12.5702 1.55191Z" fill="url(#paint1_linear_51_14486)"/>
<path fill-rule="evenodd" clip-rule="evenodd" d="M8.45023 16.213C11.8644 14.2731 14.5801 9.53988 14.5801 5.66019C14.5801 1.78049 11.8644 0.151026 8.45023 2.09087C5.11369 4.03072 2.32031 8.7639 2.32031 12.6436C2.32031 16.5233 5.0361 18.1528 8.45023 16.1354V16.213Z" fill="#2C3E50"/>
<path fill-rule="evenodd" clip-rule="evenodd" d="M8.45023 16.213C11.8644 14.2731 14.5801 9.53988 14.5801 5.66019C14.5801 1.78049 11.8644 0.151026 8.45023 2.09087C5.11369 4.03072 2.32031 8.7639 2.32031 12.6436C2.32031 16.5233 5.0361 18.1528 8.45023 16.1354V16.213Z" fill="url(#paint2_linear_51_14486)"/>
<path fill-rule="evenodd" clip-rule="evenodd" d="M8.45023 16.213C11.8644 14.2731 14.5801 9.53988 14.5801 5.66019C14.5801 1.78049 11.8644 0.151026 8.45023 2.09087C5.11369 4.03072 2.32031 8.7639 2.32031 12.6436C2.32031 16.5233 5.0361 18.1528 8.45023 16.1354V16.213Z" fill="url(#paint3_linear_51_14486)"/>
<path fill-rule="evenodd" clip-rule="evenodd" d="M12.0174 4.01725L11.1639 3.55165H11.0087L10.8535 3.39648H10.6983H10.5431H10.3879H10.2327H9.99996H9.76717H9.53439L9.30161 3.47409H9.06883L8.83604 3.62926H8.60327L8.37048 3.86203L8.13769 4.01725L7.90492 4.17241L7.67213 4.32757L7.43936 4.48279L7.20658 4.63796L6.97379 4.79318L6.74102 4.94834L6.50823 5.18111L6.27544 5.41394L6.04267 5.64671L5.88748 5.87949L5.73229 6.11226L5.5771 6.34503L5.42192 6.5778L5.26673 6.81058L5.11154 7.04341L4.95635 7.27618L4.80117 7.50895L4.64598 7.74172L4.49079 7.9745L4.33559 8.20727V8.51765L4.10282 8.82803V9.13842L3.94763 9.4488V9.75918L3.79244 10.0696V10.3799L3.71484 10.6903V11.0007V11.311V11.5438V11.7766V12.0094V12.2422V12.475V12.7077V12.9405L3.79244 13.1733V13.4061L3.94763 13.5613V13.7165L4.10282 13.8716V14.0268L4.33559 14.182L4.49079 14.3372H4.64598L4.80117 14.57L5.42192 14.958L5.65469 15.1132C6.43063 15.6563 7.05138 15.9667 8.91364 14.8803C10.7759 13.794 13.3365 9.44881 13.3365 7.27618C13.3365 5.10355 12.7933 4.71554 11.8622 4.32757L12.0174 4.01725Z" fill="#E6EAEB"/>
<path fill-rule="evenodd" clip-rule="evenodd" d="M12.0174 4.01725L11.1639 3.55165H11.0087L10.8535 3.39648H10.6983H10.5431H10.3879H10.2327H9.99996H9.76717H9.53439L9.30161 3.47409H9.06883L8.83604 3.62926H8.60327L8.37048 3.86203L8.13769 4.01725L7.90492 4.17241L7.67213 4.32757L7.43936 4.48279L7.20658 4.63796L6.97379 4.79318L6.74102 4.94834L6.50823 5.18111L6.27544 5.41394L6.04267 5.64671L5.88748 5.87949L5.73229 6.11226L5.5771 6.34503L5.42192 6.5778L5.26673 6.81058L5.11154 7.04341L4.95635 7.27618L4.80117 7.50895L4.64598 7.74172L4.49079 7.9745L4.33559 8.20727V8.51765L4.10282 8.82803V9.13842L3.94763 9.4488V9.75918L3.79244 10.0696V10.3799L3.71484 10.6903V11.0007V11.311V11.5438V11.7766V12.0094V12.2422V12.475V12.7077V12.9405L3.79244 13.1733V13.4061L3.94763 13.5613V13.7165L4.10282 13.8716V14.0268L4.33559 14.182L4.49079 14.3372H4.64598L4.80117 14.57L5.42192 14.958L5.65469 15.1132C6.43063 15.6563 7.05138 15.9667 8.91364 14.8803C10.7759 13.794 13.3365 9.44881 13.3365 7.27618C13.3365 5.10355 12.7933 4.71554 11.8622 4.32757L12.0174 4.01725Z" fill="url(#paint4_linear_51_14486)"/>
<path fill-rule="evenodd" clip-rule="evenodd" d="M9.0791 14.575C11.4845 13.1783 13.502 9.76417 13.502 6.97079C13.502 4.17741 11.5621 3.01349 9.0791 4.41018C6.67369 5.80687 4.65625 9.22103 4.65625 12.0144C4.65625 14.8078 6.5961 15.9717 9.0791 14.575Z" fill="#BDBDBD"/>
<path fill-rule="evenodd" clip-rule="evenodd" d="M9.0791 14.575C11.4845 13.1783 13.502 9.76417 13.502 6.97079C13.502 4.17741 11.5621 3.01349 9.0791 4.41018C6.67369 5.80687 4.65625 9.22103 4.65625 12.0144C4.65625 14.8078 6.5961 15.9717 9.0791 14.575Z" fill="url(#paint5_linear_51_14486)"/>
<path fill-rule="evenodd" clip-rule="evenodd" d="M15.0508 26.7613L11.2487 23.7351L6.43787 14.579H6.28268L6.1275 14.3462V14.1911L5.89472 14.0359V13.8807L5.73953 13.7255V13.5703L5.58433 13.4151V13.2599L5.42916 13.0272V12.7944L5.35156 12.5616V12.3288V12.096V11.8632V11.6305V11.3977V11.1649V10.9321L5.42916 10.6993V10.4665L5.58433 10.2338V10.001L5.73953 9.76822V9.53545L5.89472 9.30268V9.06984L6.1275 8.83707L6.28268 8.6043L6.43787 8.37153L6.59306 8.13876L6.74826 7.90598L6.90343 7.67315L7.05862 7.44038L7.21381 7.20761L7.36901 6.97484L7.52418 6.74206C10.5503 3.25034 17.2234 4.41425 21.0255 5.65575C21.6463 5.88853 22.1118 6.27647 22.4222 6.89722L23.2757 8.83707C23.5085 9.30264 23.5861 9.76822 23.4309 10.3114L22.655 13.6479L26.6899 22.8816L22.4222 25.287C22.4222 25.287 21.4911 26.7613 20.3272 26.4509C20.172 26.6837 20.3272 27.2268 19.0081 27.2268C19.0081 27.4596 18.7753 27.6924 18.1546 27.6924L15.4388 27.3045C15.4388 27.3045 15.1284 27.2268 14.9732 27.0716L15.0508 26.7613Z" fill="#F9E3CF"/>
<path fill-rule="evenodd" clip-rule="evenodd" d="M15.0508 26.7613L11.2487 23.7351L6.43787 14.579H6.28268L6.1275 14.3462V14.1911L5.89472 14.0359V13.8807L5.73953 13.7255V13.5703L5.58433 13.4151V13.2599L5.42916 13.0272V12.7944L5.35156 12.5616V12.3288V12.096V11.8632V11.6305V11.3977V11.1649V10.9321L5.42916 10.6993V10.4665L5.58433 10.2338V10.001L5.73953 9.76822V9.53545L5.89472 9.30268V9.06984L6.1275 8.83707L6.28268 8.6043L6.43787 8.37153L6.59306 8.13876L6.74826 7.90598L6.90343 7.67315L7.05862 7.44038L7.21381 7.20761L7.36901 6.97484L7.52418 6.74206C10.5503 3.25034 17.2234 4.41425 21.0255 5.65575C21.6463 5.88853 22.1118 6.27647 22.4222 6.89722L23.2757 8.83707C23.5085 9.30264 23.5861 9.76822 23.4309 10.3114L22.655 13.6479L26.6899 22.8816L22.4222 25.287C22.4222 25.287 21.4911 26.7613 20.3272 26.4509C20.172 26.6837 20.3272 27.2268 19.0081 27.2268C19.0081 27.4596 18.7753 27.6924 18.1546 27.6924L15.4388 27.3045C15.4388 27.3045 15.1284 27.2268 14.9732 27.0716L15.0508 26.7613Z" fill="url(#paint6_linear_51_14486)"/>
<g filter="url(#filter0_d_51_14486)">
<path fill-rule="evenodd" clip-rule="evenodd" d="M26.0566 22.87L23.6512 21.0077L21.7889 18.1368L20.1595 16.5073C19.3835 15.7313 18.9956 14.8002 18.918 13.7139V11.6965L15.3486 11.3861L13.9519 13.0156C13.564 13.4811 13.0208 13.7139 12.4777 13.5587L11.1586 13.1708C11.1586 13.1708 10.9258 13.0155 10.9258 12.9379C10.9258 12.7828 10.9258 12.7052 10.9258 12.55L13.6416 8.28232C13.6416 8.28232 14.1071 7.73915 14.4951 7.66156L20.3147 6.73047C20.3147 6.73047 20.5474 6.73044 20.625 6.88563L24.1168 9.9894C27.1429 12.7052 25.7462 12.6276 28.7724 13.3259C29.7035 13.5587 30.1691 13.7915 31.5658 14.3346C33.6608 18.5247 30.4795 21.6285 27.3757 22.6372C27.3757 22.6372 26.2894 23.1028 25.979 22.9476L26.0566 22.87Z" fill="#C2AC78"/>
<path fill-rule="evenodd" clip-rule="evenodd" d="M26.0566 22.87L23.6512 21.0077L21.7889 18.1368L20.1595 16.5073C19.3835 15.7313 18.9956 14.8002 18.918 13.7139V11.6965L15.3486 11.3861L13.9519 13.0156C13.564 13.4811 13.0208 13.7139 12.4777 13.5587L11.1586 13.1708C11.1586 13.1708 10.9258 13.0155 10.9258 12.9379C10.9258 12.7828 10.9258 12.7052 10.9258 12.55L13.6416 8.28232C13.6416 8.28232 14.1071 7.73915 14.4951 7.66156L20.3147 6.73047C20.3147 6.73047 20.5474 6.73044 20.625 6.88563L24.1168 9.9894C27.1429 12.7052 25.7462 12.6276 28.7724 13.3259C29.7035 13.5587 30.1691 13.7915 31.5658 14.3346C33.6608 18.5247 30.4795 21.6285 27.3757 22.6372C27.3757 22.6372 26.2894 23.1028 25.979 22.9476L26.0566 22.87Z" fill="url(#paint7_linear_51_14486)"/>
</g>
<path fill-rule="evenodd" clip-rule="evenodd" d="M20.3984 26.0711C19.2345 26.0711 18.0706 25.7607 17.0619 24.9072C16.0532 24.1312 14.0358 22.1138 14.2685 21.881C14.3461 21.8034 16.286 23.8985 17.2947 24.6744C18.2258 25.4503 19.4673 25.7607 20.3984 26.0711Z" fill="#C2AC78"/>
<path fill-rule="evenodd" clip-rule="evenodd" d="M20.3984 26.0711C19.2345 26.0711 18.0706 25.7607 17.0619 24.9072C16.0532 24.1312 14.0358 22.1138 14.2685 21.881C14.3461 21.8034 16.286 23.8985 17.2947 24.6744C18.2258 25.4503 19.4673 25.7607 20.3984 26.0711Z" fill="url(#paint8_linear_51_14486)"/>
<path fill-rule="evenodd" clip-rule="evenodd" d="M22.4939 24.9612C21.4076 24.9612 20.3213 24.9612 19.3126 24.1076C18.3039 23.2541 15.4329 20.7711 15.5881 20.6159C15.7433 20.4608 18.6918 23.099 19.5454 23.9525C20.3989 24.7284 21.6404 24.806 22.4939 25.0388V24.9612Z" fill="#C2AC78"/>
<path fill-rule="evenodd" clip-rule="evenodd" d="M22.4939 24.9612C21.4076 24.9612 20.3213 24.9612 19.3126 24.1076C18.3039 23.2541 15.4329 20.7711 15.5881 20.6159C15.7433 20.4608 18.6918 23.099 19.5454 23.9525C20.3989 24.7284 21.6404 24.806 22.4939 25.0388V24.9612Z" fill="url(#paint9_linear_51_14486)"/>
<path fill-rule="evenodd" clip-rule="evenodd" d="M25.1283 23.6683C23.7316 23.5131 22.1797 23.2802 21.0158 22.3491C19.8519 21.3404 17.5241 19.323 17.6793 19.1678C17.8345 19.0126 20.395 21.2628 21.4038 22.194C22.4125 23.1251 24.042 23.3578 25.2059 23.7458L25.1283 23.6683Z" fill="#C2AC78"/>
<path fill-rule="evenodd" clip-rule="evenodd" d="M25.1283 23.6683C23.7316 23.5131 22.1797 23.2802 21.0158 22.3491C19.8519 21.3404 17.5241 19.323 17.6793 19.1678C17.8345 19.0126 20.395 21.2628 21.4038 22.194C22.4125 23.1251 24.042 23.3578 25.2059 23.7458L25.1283 23.6683Z" fill="url(#paint10_linear_51_14486)"/>
<path fill-rule="evenodd" clip-rule="evenodd" d="M19.0755 26.8372C17.9892 26.7596 16.5149 26.5268 15.6614 25.7508C14.8079 24.9749 13.1008 23.5006 13.256 23.3455C13.4112 23.1903 15.1182 24.9749 15.8942 25.5957C16.6701 26.1388 18.222 26.682 18.9979 26.8372H19.0755Z" fill="#C2AC78"/>
<path fill-rule="evenodd" clip-rule="evenodd" d="M19.0755 26.8372C17.9892 26.7596 16.5149 26.5268 15.6614 25.7508C14.8079 24.9749 13.1008 23.5006 13.256 23.3455C13.4112 23.1903 15.1182 24.9749 15.8942 25.5957C16.6701 26.1388 18.222 26.682 18.9979 26.8372H19.0755Z" fill="url(#paint11_linear_51_14486)"/>
<path fill-rule="evenodd" clip-rule="evenodd" d="M34.8358 13.4913L32.508 12.1722H32.2752L32.0424 12.0171H31.8097L31.5769 11.9395H31.3441H31.1113H30.8785H30.5682H30.2578L29.9474 12.0946H29.637L29.3267 12.3274L29.0163 12.4826L28.7059 12.6378L28.3955 12.793L28.0852 12.9482L27.7748 13.181L27.4644 13.4138L27.154 13.6465L26.8437 13.8793L26.5333 14.1121L26.2229 14.4225L25.9125 14.7328L25.6797 15.0432L25.447 15.3536L25.2142 15.664L24.9814 15.9743L24.7486 16.2847L24.5158 16.5951L24.2831 16.9831L24.0503 17.371L23.8175 17.759L23.6623 18.147L23.5071 18.5349L23.3519 18.9229L23.1967 19.3109L23.0416 19.6988L22.8864 20.0868L22.7312 20.4748V20.8628L22.4984 21.2507V21.6387L22.3432 22.0267V22.4146L22.2656 22.8026V23.1905V23.5785V23.9665V24.2769V24.5872L22.3432 24.8976V25.208L22.4984 25.5184V25.8288L22.7312 26.0615L22.8864 26.2943L23.0416 26.5271L23.1967 26.7599L23.3519 26.9151L23.5071 27.0702L23.6623 27.2255L23.8175 27.3806L24.671 27.8462L26.1453 28.6998L34.7582 13.7241L34.8358 13.4913Z" fill="#415A73"/>
<path fill-rule="evenodd" clip-rule="evenodd" d="M34.8358 13.4913L32.508 12.1722H32.2752L32.0424 12.0171H31.8097L31.5769 11.9395H31.3441H31.1113H30.8785H30.5682H30.2578L29.9474 12.0946H29.637L29.3267 12.3274L29.0163 12.4826L28.7059 12.6378L28.3955 12.793L28.0852 12.9482L27.7748 13.181L27.4644 13.4138L27.154 13.6465L26.8437 13.8793L26.5333 14.1121L26.2229 14.4225L25.9125 14.7328L25.6797 15.0432L25.447 15.3536L25.2142 15.664L24.9814 15.9743L24.7486 16.2847L24.5158 16.5951L24.2831 16.9831L24.0503 17.371L23.8175 17.759L23.6623 18.147L23.5071 18.5349L23.3519 18.9229L23.1967 19.3109L23.0416 19.6988L22.8864 20.0868L22.7312 20.4748V20.8628L22.4984 21.2507V21.6387L22.3432 22.0267V22.4146L22.2656 22.8026V23.1905V23.5785V23.9665V24.2769V24.5872L22.3432 24.8976V25.208L22.4984 25.5184V25.8288L22.7312 26.0615L22.8864 26.2943L23.0416 26.5271L23.1967 26.7599L23.3519 26.9151L23.5071 27.0702L23.6623 27.2255L23.8175 27.3806L24.671 27.8462L26.1453 28.6998L34.7582 13.7241L34.8358 13.4913Z" fill="url(#paint12_linear_51_14486)"/>
<path fill-rule="evenodd" clip-rule="evenodd" d="M34.8358 13.4913L32.508 12.1722H32.2752L32.0424 12.0171H31.8097L31.5769 11.9395H31.3441H31.1113H30.8785H30.5682H30.2578L29.9474 12.0946H29.637L29.3267 12.3274L29.0163 12.4826L28.7059 12.6378L28.3955 12.793L28.0852 12.9482L27.7748 13.181L27.4644 13.4138L27.154 13.6465L26.8437 13.8793L26.5333 14.1121L26.2229 14.4225L25.9125 14.7328L25.6797 15.0432L25.447 15.3536L25.2142 15.664L24.9814 15.9743L24.7486 16.2847L24.5158 16.5951L24.2831 16.9831L24.0503 17.371L23.8175 17.759L23.6623 18.147L23.5071 18.5349L23.3519 18.9229L23.1967 19.3109L23.0416 19.6988L22.8864 20.0868L22.7312 20.4748V20.8628L22.4984 21.2507V21.6387L22.3432 22.0267V22.4146L22.2656 22.8026V23.1905V23.5785V23.9665V24.2769V24.5872L22.3432 24.8976V25.208L22.4984 25.5184V25.8288L22.7312 26.0615L22.8864 26.2943L23.0416 26.5271L23.1967 26.7599L23.3519 26.9151L23.5071 27.0702L23.6623 27.2255L23.8175 27.3806L24.671 27.8462L26.1453 28.6998L34.7582 13.7241L34.8358 13.4913Z" fill="url(#paint13_linear_51_14486)"/>
<path fill-rule="evenodd" clip-rule="evenodd" d="M30.7315 28.1559C34.1456 26.216 36.8614 21.4828 36.8614 17.6032C36.8614 13.7235 34.1456 12.094 30.7315 14.1114C27.3174 16.0512 24.6016 20.7845 24.6016 24.6642C24.6016 28.5439 27.3174 30.1733 30.7315 28.1559Z" fill="#2C3E50"/>
<path fill-rule="evenodd" clip-rule="evenodd" d="M30.7315 28.1559C34.1456 26.216 36.8614 21.4828 36.8614 17.6032C36.8614 13.7235 34.1456 12.094 30.7315 14.1114C27.3174 16.0512 24.6016 20.7845 24.6016 24.6642C24.6016 28.5439 27.3174 30.1733 30.7315 28.1559Z" fill="url(#paint14_linear_51_14486)"/>
<path fill-rule="evenodd" clip-rule="evenodd" d="M30.7315 28.1559C34.1456 26.216 36.8614 21.4828 36.8614 17.6032C36.8614 13.7235 34.1456 12.094 30.7315 14.1114C27.3174 16.0512 24.6016 20.7845 24.6016 24.6642C24.6016 28.5439 27.3174 30.1733 30.7315 28.1559Z" fill="url(#paint15_linear_51_14486)"/>
<path fill-rule="evenodd" clip-rule="evenodd" d="M12.7944 24.8841H11.0097C11.0097 24.8841 10.4665 24.7289 10.3114 24.5737L10.001 24.3409C10.001 24.3409 9.61301 23.8753 9.61301 23.4874V22.7891H9.45782C9.45782 22.7891 9.06985 22.5563 8.91467 22.4011L8.44911 21.7803C8.44911 21.7803 8.21632 21.3924 8.21632 21.1596V20.694H7.98355C7.67317 20.6164 7.51798 20.4612 7.3628 20.1508L7.05241 19.6077C7.05241 19.6077 6.74205 18.9093 6.74205 18.5214V18.2886C6.0437 17.9782 5.57812 17.2799 5.57812 16.4264V15.8832L5.65572 14.7193C5.65572 14.0985 5.9661 13.9434 6.43166 13.9434C6.66444 13.9434 6.89723 13.9433 7.13001 14.0209L7.44039 14.1761C7.44039 14.1761 7.82836 14.4089 7.98355 14.6417C8.13873 14.8745 8.21632 15.0297 8.21632 15.3401V15.4952V16.0384L8.5267 16.1936L8.91467 16.5039C8.91467 16.5039 9.38024 17.1247 9.38024 17.5127V18.5214C9.38024 18.5214 9.61302 18.6766 9.7682 18.8318L10.1562 19.1421C10.1562 19.1421 10.6217 19.9181 10.6217 20.3061V21.5475C10.6217 21.5475 11.1649 21.7028 11.6305 22.0131C11.8632 22.2459 12.0184 22.4787 12.096 22.8667L12.2512 23.953L12.6392 24.9617L12.7944 24.8841Z" fill="#C2AC78"/>
<path fill-rule="evenodd" clip-rule="evenodd" d="M12.7944 24.8841H11.0097C11.0097 24.8841 10.4665 24.7289 10.3114 24.5737L10.001 24.3409C10.001 24.3409 9.61301 23.8753 9.61301 23.4874V22.7891H9.45782C9.45782 22.7891 9.06985 22.5563 8.91467 22.4011L8.44911 21.7803C8.44911 21.7803 8.21632 21.3924 8.21632 21.1596V20.694H7.98355C7.67317 20.6164 7.51798 20.4612 7.3628 20.1508L7.05241 19.6077C7.05241 19.6077 6.74205 18.9093 6.74205 18.5214V18.2886C6.0437 17.9782 5.57812 17.2799 5.57812 16.4264V15.8832L5.65572 14.7193C5.65572 14.0985 5.9661 13.9434 6.43166 13.9434C6.66444 13.9434 6.89723 13.9433 7.13001 14.0209L7.44039 14.1761C7.44039 14.1761 7.82836 14.4089 7.98355 14.6417C8.13873 14.8745 8.21632 15.0297 8.21632 15.3401V15.4952V16.0384L8.5267 16.1936L8.91467 16.5039C8.91467 16.5039 9.38024 17.1247 9.38024 17.5127V18.5214C9.38024 18.5214 9.61302 18.6766 9.7682 18.8318L10.1562 19.1421C10.1562 19.1421 10.6217 19.9181 10.6217 20.3061V21.5475C10.6217 21.5475 11.1649 21.7028 11.6305 22.0131C11.8632 22.2459 12.0184 22.4787 12.096 22.8667L12.2512 23.953L12.6392 24.9617L12.7944 24.8841Z" fill="url(#paint16_linear_51_14486)"/>
<g filter="url(#filter1_d_51_14486)">
<path fill-rule="evenodd" clip-rule="evenodd" d="M5.89791 14.5658L6.67385 15.1866V16.5057H6.51866C6.51866 16.5057 6.44106 16.5057 6.36347 16.4281L6.0531 16.1177C6.0531 16.1177 5.82031 15.8849 5.82031 15.7298V14.4883L5.89791 14.5658Z" fill="#D4BE8C"/>
<path fill-rule="evenodd" clip-rule="evenodd" d="M5.89791 14.5658L6.67385 15.1866V16.5057H6.51866C6.51866 16.5057 6.44106 16.5057 6.36347 16.4281L6.0531 16.1177C6.0531 16.1177 5.82031 15.8849 5.82031 15.7298V14.4883L5.89791 14.5658Z" fill="url(#paint17_linear_51_14486)"/>
<path fill-rule="evenodd" clip-rule="evenodd" d="M5.89791 14.5658L6.67385 15.1866V16.5057H6.51866C6.51866 16.5057 6.44106 16.5057 6.36347 16.4281L6.0531 16.1177C6.0531 16.1177 5.82031 15.8849 5.82031 15.7298V14.4883L5.89791 14.5658Z" fill="url(#paint18_linear_51_14486)"/>
</g>
<g filter="url(#filter2_d_51_14486)">
<path fill-rule="evenodd" clip-rule="evenodd" d="M6.97266 16.601L7.90379 17.2218V18.3857H7.82619C7.82619 18.3857 7.51582 18.3857 7.36063 18.153H7.28304C7.28304 18.153 7.12785 17.8425 7.12785 17.6874V16.5234L6.97266 16.601Z" fill="#D4BE8C"/>
<path fill-rule="evenodd" clip-rule="evenodd" d="M6.97266 16.601L7.90379 17.2218V18.3857H7.82619C7.82619 18.3857 7.51582 18.3857 7.36063 18.153H7.28304C7.28304 18.153 7.12785 17.8425 7.12785 17.6874V16.5234L6.97266 16.601Z" fill="url(#paint19_linear_51_14486)"/>
<path fill-rule="evenodd" clip-rule="evenodd" d="M6.97266 16.601L7.90379 17.2218V18.3857H7.82619C7.82619 18.3857 7.51582 18.3857 7.36063 18.153H7.28304C7.28304 18.153 7.12785 17.8425 7.12785 17.6874V16.5234L6.97266 16.601Z" fill="url(#paint20_linear_51_14486)"/>
</g>
<g filter="url(#filter3_d_51_14486)">
<path fill-rule="evenodd" clip-rule="evenodd" d="M8.53516 19.1479L9.46627 19.8462V20.9326H9.38869C9.38869 20.9326 9.07831 20.9326 8.92312 20.6998H8.84552C8.84552 20.6998 8.69035 20.3894 8.69035 20.2342V19.0703L8.53516 19.1479Z" fill="#D4BE8C"/>
<path fill-rule="evenodd" clip-rule="evenodd" d="M8.53516 19.1479L9.46627 19.8462V20.9326H9.38869C9.38869 20.9326 9.07831 20.9326 8.92312 20.6998H8.84552C8.84552 20.6998 8.69035 20.3894 8.69035 20.2342V19.0703L8.53516 19.1479Z" fill="url(#paint21_linear_51_14486)"/>
<path fill-rule="evenodd" clip-rule="evenodd" d="M8.53516 19.1479L9.46627 19.8462V20.9326H9.38869C9.38869 20.9326 9.07831 20.9326 8.92312 20.6998H8.84552C8.84552 20.6998 8.69035 20.3894 8.69035 20.2342V19.0703L8.53516 19.1479Z" fill="url(#paint22_linear_51_14486)"/>
</g>
<g filter="url(#filter4_d_51_14486)">
<path fill-rule="evenodd" clip-rule="evenodd" d="M10.0039 22.0151L10.935 22.6358V23.567L10.7798 23.6446H10.6247C10.6247 23.6446 10.3143 23.6446 10.1591 23.4118C10.1591 23.4118 10.0039 22.9462 10.0039 22.791V21.9375V22.0151Z" fill="#D4BE8C"/>
<path fill-rule="evenodd" clip-rule="evenodd" d="M10.0039 22.0151L10.935 22.6358V23.567L10.7798 23.6446H10.6247C10.6247 23.6446 10.3143 23.6446 10.1591 23.4118C10.1591 23.4118 10.0039 22.9462 10.0039 22.791V21.9375V22.0151Z" fill="url(#paint23_linear_51_14486)"/>
<path fill-rule="evenodd" clip-rule="evenodd" d="M10.0039 22.0151L10.935 22.6358V23.567L10.7798 23.6446H10.6247C10.6247 23.6446 10.3143 23.6446 10.1591 23.4118C10.1591 23.4118 10.0039 22.9462 10.0039 22.791V21.9375V22.0151Z" fill="url(#paint24_linear_51_14486)"/>
</g>
<path fill-rule="evenodd" clip-rule="evenodd" d="M8.30174 15.9882C8.30174 15.9882 7.99137 15.9882 7.83618 15.9882C7.5258 15.9882 7.13783 16.1434 6.98264 16.3762C6.82745 16.6089 6.74987 17.7729 6.74987 18.0832C6.74987 16.6089 6.43948 15.7554 8.30174 15.833V15.9882Z" fill="#AB9667"/>
<path fill-rule="evenodd" clip-rule="evenodd" d="M8.30174 15.9882C8.30174 15.9882 7.99137 15.9882 7.83618 15.9882C7.5258 15.9882 7.13783 16.1434 6.98264 16.3762C6.82745 16.6089 6.74987 17.7729 6.74987 18.0832C6.74987 16.6089 6.43948 15.7554 8.30174 15.833V15.9882Z" fill="url(#paint25_linear_51_14486)"/>
<g filter="url(#filter5_d_51_14486)">
<path fill-rule="evenodd" clip-rule="evenodd" d="M12.0183 10.6953H12.7167C12.7167 10.6953 12.7943 10.8505 12.8719 10.8505C13.1046 11.1609 11.7855 12.48 11.5528 12.7904L10.6992 12.6352C11.0096 11.9368 11.32 11.3161 11.8631 10.7729C11.8631 10.7729 11.9407 10.6953 12.0183 10.6953Z" fill="#D4BE8C"/>
<path fill-rule="evenodd" clip-rule="evenodd" d="M12.0183 10.6953H12.7167C12.7167 10.6953 12.7943 10.8505 12.8719 10.8505C13.1046 11.1609 11.7855 12.48 11.5528 12.7904L10.6992 12.6352C11.0096 11.9368 11.32 11.3161 11.8631 10.7729C11.8631 10.7729 11.9407 10.6953 12.0183 10.6953Z" fill="url(#paint26_linear_51_14486)"/>
<path fill-rule="evenodd" clip-rule="evenodd" d="M12.0183 10.6953H12.7167C12.7167 10.6953 12.7943 10.8505 12.8719 10.8505C13.1046 11.1609 11.7855 12.48 11.5528 12.7904L10.6992 12.6352C11.0096 11.9368 11.32 11.3161 11.8631 10.7729C11.8631 10.7729 11.9407 10.6953 12.0183 10.6953Z" fill="url(#paint27_linear_51_14486)"/>
</g>
<path fill-rule="evenodd" clip-rule="evenodd" d="M9.46434 18.4629C9.07637 18.4629 8.53322 18.6182 8.37803 19.0061C8.22284 19.2389 8.22284 20.2476 8.22284 20.558C8.22284 19.4717 7.91246 18.3853 9.54194 18.4629H9.46434Z" fill="#AB9667"/>
<path fill-rule="evenodd" clip-rule="evenodd" d="M9.46434 18.4629C9.07637 18.4629 8.53322 18.6182 8.37803 19.0061C8.22284 19.2389 8.22284 20.2476 8.22284 20.558C8.22284 19.4717 7.91246 18.3853 9.54194 18.4629H9.46434Z" fill="url(#paint28_linear_51_14486)"/>
<path fill-rule="evenodd" clip-rule="evenodd" d="M10.6968 21.4745C9.68804 21.4745 9.68804 21.94 9.61045 22.7935C9.61045 21.7848 9.53285 21.3969 10.6968 21.4745Z" fill="#AB9667"/>
<path fill-rule="evenodd" clip-rule="evenodd" d="M10.6968 21.4745C9.68804 21.4745 9.68804 21.94 9.61045 22.7935C9.61045 21.7848 9.53285 21.3969 10.6968 21.4745Z" fill="url(#paint29_linear_51_14486)"/>
<defs>
<filter id="filter0_d_51_14486" x="10.4801" y="6.73047" width="22.2049" height="17.1402" filterUnits="userSpaceOnUse" color-interpolation-filters="linearRGB">
<feFlood flood-opacity="0" result="BackgroundImageFix"/>
<feColorMatrix in="SourceAlpha" type="matrix" values="0 0 0 0 0 0 0 0 0 0 0 0 0 0 0 0 0 0 127 0" result="hardAlpha"/>
<feOffset dy="0.445703"/>
<feGaussianBlur stdDeviation="0.222851"/>
<feComposite in2="hardAlpha" operator="out"/>
<feColorMatrix type="matrix" values="0 0 0 0 0 0 0 0 0 0 0 0 0 0 0 0 0 0 0.1 0"/>
<feBlend mode="normal" in2="BackgroundImageFix" result="effect1_dropShadow_51_14486"/>
<feBlend mode="normal" in="SourceGraphic" in2="effect1_dropShadow_51_14486" result="shape"/>
</filter>
<filter id="filter1_d_51_14486" x="5.37461" y="14.4883" width="1.74492" height="2.90886" filterUnits="userSpaceOnUse" color-interpolation-filters="linearRGB">
<feFlood flood-opacity="0" result="BackgroundImageFix"/>
<feColorMatrix in="SourceAlpha" type="matrix" values="0 0 0 0 0 0 0 0 0 0 0 0 0 0 0 0 0 0 127 0" result="hardAlpha"/>
<feOffset dy="0.445703"/>
<feGaussianBlur stdDeviation="0.222851"/>
<feComposite in2="hardAlpha" operator="out"/>
<feColorMatrix type="matrix" values="0 0 0 0 0 0 0 0 0 0 0 0 0 0 0 0 0 0 0.1 0"/>
<feBlend mode="normal" in2="BackgroundImageFix" result="effect1_dropShadow_51_14486"/>
<feBlend mode="normal" in="SourceGraphic" in2="effect1_dropShadow_51_14486" result="shape"/>
</filter>
<filter id="filter2_d_51_14486" x="6.52695" y="16.5234" width="1.82207" height="2.75371" filterUnits="userSpaceOnUse" color-interpolation-filters="linearRGB">
<feFlood flood-opacity="0" result="BackgroundImageFix"/>
<feColorMatrix in="SourceAlpha" type="matrix" values="0 0 0 0 0 0 0 0 0 0 0 0 0 0 0 0 0 0 127 0" result="hardAlpha"/>
<feOffset dy="0.445703"/>
<feGaussianBlur stdDeviation="0.222851"/>
<feComposite in2="hardAlpha" operator="out"/>
<feColorMatrix type="matrix" values="0 0 0 0 0 0 0 0 0 0 0 0 0 0 0 0 0 0 0.1 0"/>
<feBlend mode="normal" in2="BackgroundImageFix" result="effect1_dropShadow_51_14486"/>
<feBlend mode="normal" in="SourceGraphic" in2="effect1_dropShadow_51_14486" result="shape"/>
</filter>
<filter id="filter3_d_51_14486" x="8.08945" y="19.0703" width="1.82207" height="2.75371" filterUnits="userSpaceOnUse" color-interpolation-filters="linearRGB">
<feFlood flood-opacity="0" result="BackgroundImageFix"/>
<feColorMatrix in="SourceAlpha" type="matrix" values="0 0 0 0 0 0 0 0 0 0 0 0 0 0 0 0 0 0 127 0" result="hardAlpha"/>
<feOffset dy="0.445703"/>
<feGaussianBlur stdDeviation="0.222851"/>
<feComposite in2="hardAlpha" operator="out"/>
<feColorMatrix type="matrix" values="0 0 0 0 0 0 0 0 0 0 0 0 0 0 0 0 0 0 0.1 0"/>
<feBlend mode="normal" in2="BackgroundImageFix" result="effect1_dropShadow_51_14486"/>
<feBlend mode="normal" in="SourceGraphic" in2="effect1_dropShadow_51_14486" result="shape"/>
</filter>
<filter id="filter4_d_51_14486" x="9.5582" y="21.9375" width="1.82207" height="2.59844" filterUnits="userSpaceOnUse" color-interpolation-filters="linearRGB">
<feFlood flood-opacity="0" result="BackgroundImageFix"/>
<feColorMatrix in="SourceAlpha" type="matrix" values="0 0 0 0 0 0 0 0 0 0 0 0 0 0 0 0 0 0 127 0" result="hardAlpha"/>
<feOffset dy="0.445703"/>
<feGaussianBlur stdDeviation="0.222851"/>
<feComposite in2="hardAlpha" operator="out"/>
<feColorMatrix type="matrix" values="0 0 0 0 0 0 0 0 0 0 0 0 0 0 0 0 0 0 0.1 0"/>
<feBlend mode="normal" in2="BackgroundImageFix" result="effect1_dropShadow_51_14486"/>
<feBlend mode="normal" in="SourceGraphic" in2="effect1_dropShadow_51_14486" result="shape"/>
</filter>
<filter id="filter5_d_51_14486" x="10.2535" y="10.6953" width="3.0916" height="2.9865" filterUnits="userSpaceOnUse" color-interpolation-filters="linearRGB">
<feFlood flood-opacity="0" result="BackgroundImageFix"/>
<feColorMatrix in="SourceAlpha" type="matrix" values="0 0 0 0 0 0 0 0 0 0 0 0 0 0 0 0 0 0 127 0" result="hardAlpha"/>
<feOffset dy="0.445703"/>
<feGaussianBlur stdDeviation="0.222851"/>
<feComposite in2="hardAlpha" operator="out"/>
<feColorMatrix type="matrix" values="0 0 0 0 0 0 0 0 0 0 0 0 0 0 0 0 0 0 0.1 0"/>
<feBlend mode="normal" in2="BackgroundImageFix" result="effect1_dropShadow_51_14486"/>
<feBlend mode="normal" in="SourceGraphic" in2="effect1_dropShadow_51_14486" result="shape"/>
</filter>
<linearGradient id="paint0_linear_51_14486" x1="2.94078" y1="8.2377" x2="12.6828" y2="8.30993" gradientUnits="userSpaceOnUse">
<stop stop-color="#E6F0FF"/>
<stop offset="0.24" stop-color="#E2ECFD"/>
<stop offset="0.47" stop-color="#D6E3F8"/>
<stop offset="0.69" stop-color="#C3D3F0"/>
<stop offset="0.91" stop-color="#A9BDE4"/>
<stop offset="1" stop-color="#9CB2DF"/>
</linearGradient>
<linearGradient id="paint1_linear_51_14486" x1="-0.00364069" y1="8.38015" x2="12.5618" y2="8.38015" gradientUnits="userSpaceOnUse">
<stop stop-color="#4AFFC7"/>
<stop offset="1" stop-color="#3BADEA"/>
</linearGradient>
<linearGradient id="paint2_linear_51_14486" x1="5.18848" y1="9.00429" x2="14.6899" y2="9.07749" gradientUnits="userSpaceOnUse">
<stop stop-color="#E6F0FF"/>
<stop offset="0.24" stop-color="#E2ECFD"/>
<stop offset="0.47" stop-color="#D6E3F8"/>
<stop offset="0.69" stop-color="#C3D3F0"/>
<stop offset="0.91" stop-color="#A9BDE4"/>
<stop offset="1" stop-color="#9CB2DF"/>
</linearGradient>
<linearGradient id="paint3_linear_51_14486" x1="2.31676" y1="9.13802" x2="14.572" y2="9.13802" gradientUnits="userSpaceOnUse">
<stop stop-color="#4AFFC7"/>
<stop offset="1" stop-color="#3BADEA"/>
</linearGradient>
<linearGradient id="paint4_linear_51_14486" x1="3.71206" y1="9.50232" x2="13.3301" y2="9.50232" gradientUnits="userSpaceOnUse">
<stop stop-color="#4AFFC7"/>
<stop offset="1" stop-color="#3BADEA"/>
</linearGradient>
<linearGradient id="paint5_linear_51_14486" x1="4.65369" y1="9.49258" x2="13.496" y2="9.49258" gradientUnits="userSpaceOnUse">
<stop stop-color="#4AFFC7"/>
<stop offset="1" stop-color="#3BADEA"/>
</linearGradient>
<linearGradient id="paint6_linear_51_14486" x1="10.3436" y1="15.8603" x2="26.8805" y2="16.0103" gradientUnits="userSpaceOnUse">
<stop stop-color="#E6F0FF"/>
<stop offset="0.24" stop-color="#E2ECFD"/>
<stop offset="0.47" stop-color="#D6E3F8"/>
<stop offset="0.69" stop-color="#C3D3F0"/>
<stop offset="0.91" stop-color="#A9BDE4"/>
<stop offset="1" stop-color="#9CB2DF"/>
</linearGradient>
<linearGradient id="paint7_linear_51_14486" x1="15.9121" y1="14.7167" x2="32.4285" y2="14.9309" gradientUnits="userSpaceOnUse">
<stop stop-color="#E6F0FF"/>
<stop offset="0.24" stop-color="#E2ECFD"/>
<stop offset="0.47" stop-color="#D6E3F8"/>
<stop offset="0.69" stop-color="#C3D3F0"/>
<stop offset="0.91" stop-color="#A9BDE4"/>
<stop offset="1" stop-color="#9CB2DF"/>
</linearGradient>
<linearGradient id="paint8_linear_51_14486" x1="14.2482" y1="23.975" x2="20.3943" y2="23.975" gradientUnits="userSpaceOnUse">
<stop stop-color="#4AFFC7"/>
<stop offset="1" stop-color="#3BADEA"/>
</linearGradient>
<linearGradient id="paint9_linear_51_14486" x1="15.58" y1="22.8241" x2="22.4893" y2="22.8241" gradientUnits="userSpaceOnUse">
<stop stop-color="#4AFFC7"/>
<stop offset="1" stop-color="#3BADEA"/>
</linearGradient>
<linearGradient id="paint10_linear_51_14486" x1="17.6697" y1="21.453" x2="25.2008" y2="21.453" gradientUnits="userSpaceOnUse">
<stop stop-color="#4AFFC7"/>
<stop offset="1" stop-color="#3BADEA"/>
</linearGradient>
<linearGradient id="paint11_linear_51_14486" x1="13.2444" y1="25.0865" x2="19.0717" y2="25.0865" gradientUnits="userSpaceOnUse">
<stop stop-color="#4AFFC7"/>
<stop offset="1" stop-color="#3BADEA"/>
</linearGradient>
<linearGradient id="paint12_linear_51_14486" x1="25.2064" y1="20.1772" x2="34.9484" y2="20.2494" gradientUnits="userSpaceOnUse">
<stop stop-color="#E6F0FF"/>
<stop offset="0.24" stop-color="#E2ECFD"/>
<stop offset="0.47" stop-color="#D6E3F8"/>
<stop offset="0.69" stop-color="#C3D3F0"/>
<stop offset="0.91" stop-color="#A9BDE4"/>
<stop offset="1" stop-color="#9CB2DF"/>
</linearGradient>
<linearGradient id="paint13_linear_51_14486" x1="22.262" y1="20.3196" x2="34.8274" y2="20.3196" gradientUnits="userSpaceOnUse">
<stop stop-color="#4AFFC7"/>
<stop offset="1" stop-color="#3BADEA"/>
</linearGradient>
<linearGradient id="paint14_linear_51_14486" x1="27.4697" y1="20.9995" x2="36.9711" y2="21.0725" gradientUnits="userSpaceOnUse">
<stop stop-color="#E6F0FF"/>
<stop offset="0.24" stop-color="#E2ECFD"/>
<stop offset="0.47" stop-color="#D6E3F8"/>
<stop offset="0.69" stop-color="#C3D3F0"/>
<stop offset="0.91" stop-color="#A9BDE4"/>
<stop offset="1" stop-color="#9CB2DF"/>
</linearGradient>
<linearGradient id="paint15_linear_51_14486" x1="24.598" y1="21.1336" x2="36.8532" y2="21.1336" gradientUnits="userSpaceOnUse">
<stop stop-color="#4AFFC7"/>
<stop offset="1" stop-color="#3BADEA"/>
</linearGradient>
<linearGradient id="paint16_linear_51_14486" x1="7.26635" y1="19.3589" x2="12.859" y2="19.3951" gradientUnits="userSpaceOnUse">
<stop stop-color="#E6F0FF"/>
<stop offset="0.24" stop-color="#E2ECFD"/>
<stop offset="0.47" stop-color="#D6E3F8"/>
<stop offset="0.69" stop-color="#C3D3F0"/>
<stop offset="0.91" stop-color="#A9BDE4"/>
<stop offset="1" stop-color="#9CB2DF"/>
</linearGradient>
<linearGradient id="paint17_linear_51_14486" x1="5.82007" y1="15.497" x2="6.67328" y2="15.497" gradientUnits="userSpaceOnUse">
<stop stop-color="#4AFFC7"/>
<stop offset="1" stop-color="#3BADEA"/>
</linearGradient>
<linearGradient id="paint18_linear_51_14486" x1="6.02" y1="15.4798" x2="6.68152" y2="15.4826" gradientUnits="userSpaceOnUse">
<stop stop-color="#E6F0FF"/>
<stop offset="0.24" stop-color="#E2ECFD"/>
<stop offset="0.47" stop-color="#D6E3F8"/>
<stop offset="0.69" stop-color="#C3D3F0"/>
<stop offset="0.91" stop-color="#A9BDE4"/>
<stop offset="1" stop-color="#9CB2DF"/>
</linearGradient>
<linearGradient id="paint19_linear_51_14486" x1="6.97239" y1="17.4546" x2="7.90317" y2="17.4546" gradientUnits="userSpaceOnUse">
<stop stop-color="#4AFFC7"/>
<stop offset="1" stop-color="#3BADEA"/>
</linearGradient>
<linearGradient id="paint20_linear_51_14486" x1="7.19049" y1="17.4388" x2="7.91215" y2="17.4423" gradientUnits="userSpaceOnUse">
<stop stop-color="#E6F0FF"/>
<stop offset="0.24" stop-color="#E2ECFD"/>
<stop offset="0.47" stop-color="#D6E3F8"/>
<stop offset="0.69" stop-color="#C3D3F0"/>
<stop offset="0.91" stop-color="#A9BDE4"/>
<stop offset="1" stop-color="#9CB2DF"/>
</linearGradient>
<linearGradient id="paint21_linear_51_14486" x1="8.53489" y1="20.0015" x2="9.46565" y2="20.0015" gradientUnits="userSpaceOnUse">
<stop stop-color="#4AFFC7"/>
<stop offset="1" stop-color="#3BADEA"/>
</linearGradient>
<linearGradient id="paint22_linear_51_14486" x1="8.75299" y1="19.9856" x2="9.47463" y2="19.9892" gradientUnits="userSpaceOnUse">
<stop stop-color="#E6F0FF"/>
<stop offset="0.24" stop-color="#E2ECFD"/>
<stop offset="0.47" stop-color="#D6E3F8"/>
<stop offset="0.69" stop-color="#C3D3F0"/>
<stop offset="0.91" stop-color="#A9BDE4"/>
<stop offset="1" stop-color="#9CB2DF"/>
</linearGradient>
<linearGradient id="paint23_linear_51_14486" x1="10.0036" y1="22.791" x2="10.9344" y2="22.791" gradientUnits="userSpaceOnUse">
<stop stop-color="#4AFFC7"/>
<stop offset="1" stop-color="#3BADEA"/>
</linearGradient>
<linearGradient id="paint24_linear_51_14486" x1="10.2217" y1="22.7765" x2="10.9434" y2="22.7804" gradientUnits="userSpaceOnUse">
<stop stop-color="#E6F0FF"/>
<stop offset="0.24" stop-color="#E2ECFD"/>
<stop offset="0.47" stop-color="#D6E3F8"/>
<stop offset="0.69" stop-color="#C3D3F0"/>
<stop offset="0.91" stop-color="#A9BDE4"/>
<stop offset="1" stop-color="#9CB2DF"/>
</linearGradient>
<linearGradient id="paint25_linear_51_14486" x1="6.73001" y1="16.9557" x2="8.30069" y2="16.9557" gradientUnits="userSpaceOnUse">
<stop stop-color="#4AFFC7"/>
<stop offset="1" stop-color="#3BADEA"/>
</linearGradient>
<linearGradient id="paint26_linear_51_14486" x1="10.6986" y1="11.7428" x2="12.8978" y2="11.7428" gradientUnits="userSpaceOnUse">
<stop stop-color="#4AFFC7"/>
<stop offset="1" stop-color="#3BADEA"/>
</linearGradient>
<linearGradient id="paint27_linear_51_14486" x1="11.2139" y1="11.725" x2="12.9189" y2="11.7427" gradientUnits="userSpaceOnUse">
<stop stop-color="#E6F0FF"/>
<stop offset="0.24" stop-color="#E2ECFD"/>
<stop offset="0.47" stop-color="#D6E3F8"/>
<stop offset="0.69" stop-color="#C3D3F0"/>
<stop offset="0.91" stop-color="#A9BDE4"/>
<stop offset="1" stop-color="#9CB2DF"/>
</linearGradient>
<linearGradient id="paint28_linear_51_14486" x1="8.19883" y1="19.5085" x2="9.54104" y2="19.5085" gradientUnits="userSpaceOnUse">
<stop stop-color="#4AFFC7"/>
<stop offset="1" stop-color="#3BADEA"/>
</linearGradient>
<linearGradient id="paint29_linear_51_14486" x1="9.60906" y1="22.1292" x2="10.696" y2="22.1292" gradientUnits="userSpaceOnUse">
<stop stop-color="#4AFFC7"/>
<stop offset="1" stop-color="#3BADEA"/>
</linearGradient>
</defs>
</svg>
