<svg width="35" height="43" viewBox="0 0 35 43" fill="none" xmlns="http://www.w3.org/2000/svg">
<path opacity="0.5" fill-rule="evenodd" clip-rule="evenodd" d="M28.2509 27.3907C34.2256 30.8048 34.2256 36.4692 28.2509 39.8833C22.2762 43.375 12.5769 43.375 6.60214 39.8833C0.627411 36.4692 0.627411 30.8048 6.60214 27.3907C12.5769 23.9765 22.2762 23.9765 28.2509 27.3907Z" fill="#E9E9EB"/>
<path opacity="0.5" fill-rule="evenodd" clip-rule="evenodd" d="M25.9251 28.7165C30.6584 31.4323 30.6584 35.8551 25.9251 38.5709C21.1919 41.2867 13.5878 41.2867 8.85461 38.5709C4.12138 35.8551 4.12138 31.4323 8.85461 28.7165C13.5878 26.0007 21.1919 26.0007 25.9251 28.7165Z" fill="#DDDEE1"/>
<path opacity="0.5" fill-rule="evenodd" clip-rule="evenodd" d="M23.6738 30.0072C27.1655 32.0247 27.1655 35.206 23.6738 37.2234C20.1821 39.2408 14.5954 39.2408 11.1813 37.2234C7.68957 35.206 7.68957 32.0247 11.1813 30.0072C14.673 27.9898 20.2597 27.9898 23.6738 30.0072Z" fill="#D1D2D6"/>
<path fill-rule="evenodd" clip-rule="evenodd" d="M29.0169 10.0051L17.4555 3.33203L5.81641 10.0827L17.3778 16.7557L29.0169 10.0051Z" fill="#CFA87F"/>
<path fill-rule="evenodd" clip-rule="evenodd" d="M29.0169 10.0051L17.4555 3.33203L5.81641 10.0827L17.3778 16.7557L29.0169 10.0051Z" fill="url(#paint0_linear_51_14614)"/>
<path fill-rule="evenodd" clip-rule="evenodd" d="M29.0169 10.0051L17.4555 3.33203L5.81641 10.0827L17.3778 16.7557L29.0169 10.0051Z" fill="url(#paint1_linear_51_14614)"/>
<path fill-rule="evenodd" clip-rule="evenodd" d="M17.3778 16.7336L5.81641 10.0605V22.6308L17.3778 29.3039V16.7336Z" fill="#A67C52"/>
<path fill-rule="evenodd" clip-rule="evenodd" d="M17.3778 16.7336L5.81641 10.0605V22.6308L17.3778 29.3039V16.7336Z" fill="url(#paint2_linear_51_14614)"/>
<path fill-rule="evenodd" clip-rule="evenodd" d="M29.0258 22.5799V10.0098L17.3867 16.7604V29.3307L29.0258 22.5799Z" fill="#E3BA8D"/>
<path fill-rule="evenodd" clip-rule="evenodd" d="M29.0258 22.5799V10.0098L17.3867 16.7604V29.3307L29.0258 22.5799Z" fill="url(#paint3_linear_51_14614)"/>
<path fill-rule="evenodd" clip-rule="evenodd" d="M29.0258 10.0051L17.4644 3.33203L17.3867 16.7557L29.0258 10.0051Z" fill="#BA8C5F"/>
<path fill-rule="evenodd" clip-rule="evenodd" d="M29.0258 10.0051L17.4644 3.33203L17.3867 16.7557L29.0258 10.0051Z" fill="url(#paint4_linear_51_14614)"/>
<path fill-rule="evenodd" clip-rule="evenodd" d="M29.0258 10.0051L17.4644 3.33203L17.3867 16.7557L29.0258 10.0051Z" fill="url(#paint5_linear_51_14614)"/>
<path fill-rule="evenodd" clip-rule="evenodd" d="M17.4586 3.33648L11.6391 0L0 6.75063L5.81954 10.0871L17.4586 3.33648Z" fill="#C69C6D"/>
<path fill-rule="evenodd" clip-rule="evenodd" d="M17.4586 3.33648L11.6391 0L0 6.75063L5.81954 10.0871L17.4586 3.33648Z" fill="url(#paint6_linear_51_14614)"/>
<path fill-rule="evenodd" clip-rule="evenodd" d="M34.7679 13.3462L29.0258 10.0098L17.3867 16.7604L23.1288 20.097L34.7679 13.3462Z" fill="#C69C6D"/>
<path fill-rule="evenodd" clip-rule="evenodd" d="M34.7679 13.3462L29.0258 10.0098L17.3867 16.7604L23.1288 20.097L34.7679 13.3462Z" fill="url(#paint7_linear_51_14614)"/>
<path fill-rule="evenodd" clip-rule="evenodd" d="M17.3867 3.33648L23.1288 0L34.7679 6.75063L29.0258 10.0871L17.3867 3.33648Z" fill="#C69C6D"/>
<path fill-rule="evenodd" clip-rule="evenodd" d="M17.3867 3.33648L23.1288 0L34.7679 6.75063L29.0258 10.0871L17.3867 3.33648Z" fill="url(#paint8_linear_51_14614)"/>
<path fill-rule="evenodd" clip-rule="evenodd" d="M0.078125 13.3462L5.82 10.0098L17.4591 16.7604L11.6395 20.097L0.078125 13.3462Z" fill="#C69C6D"/>
<path fill-rule="evenodd" clip-rule="evenodd" d="M0.078125 13.3462L5.82 10.0098L17.4591 16.7604L11.6395 20.097L0.078125 13.3462Z" fill="url(#paint9_linear_51_14614)"/>
<defs>
<linearGradient id="paint0_linear_51_14614" x1="11.2441" y1="9.92979" x2="29.2204" y2="10.2369" gradientUnits="userSpaceOnUse">
<stop stop-color="#E6F0FF"/>
<stop offset="0.24" stop-color="#E2ECFD"/>
<stop offset="0.47" stop-color="#D6E3F8"/>
<stop offset="0.69" stop-color="#C3D3F0"/>
<stop offset="0.91" stop-color="#A9BDE4"/>
<stop offset="1" stop-color="#9CB2DF"/>
</linearGradient>
<linearGradient id="paint1_linear_51_14614" x1="5.82313" y1="10.0439" x2="29.0102" y2="10.0439" gradientUnits="userSpaceOnUse">
<stop stop-color="#4AFFC7"/>
<stop offset="1" stop-color="#3BADEA"/>
</linearGradient>
<linearGradient id="paint2_linear_51_14614" x1="8.52118" y1="19.5187" x2="17.4815" y2="19.5719" gradientUnits="userSpaceOnUse">
<stop stop-color="#E6F0FF"/>
<stop offset="0.24" stop-color="#E2ECFD"/>
<stop offset="0.47" stop-color="#D6E3F8"/>
<stop offset="0.69" stop-color="#C3D3F0"/>
<stop offset="0.91" stop-color="#A9BDE4"/>
<stop offset="1" stop-color="#9CB2DF"/>
</linearGradient>
<linearGradient id="paint3_linear_51_14614" x1="20.1097" y1="19.506" x2="29.1302" y2="19.5597" gradientUnits="userSpaceOnUse">
<stop stop-color="#E6F0FF"/>
<stop offset="0.24" stop-color="#E2ECFD"/>
<stop offset="0.47" stop-color="#D6E3F8"/>
<stop offset="0.69" stop-color="#C3D3F0"/>
<stop offset="0.91" stop-color="#A9BDE4"/>
<stop offset="1" stop-color="#9CB2DF"/>
</linearGradient>
<linearGradient id="paint4_linear_51_14614" x1="20.1097" y1="9.92979" x2="29.1298" y2="10.0071" gradientUnits="userSpaceOnUse">
<stop stop-color="#E6F0FF"/>
<stop offset="0.24" stop-color="#E2ECFD"/>
<stop offset="0.47" stop-color="#D6E3F8"/>
<stop offset="0.69" stop-color="#C3D3F0"/>
<stop offset="0.91" stop-color="#A9BDE4"/>
<stop offset="1" stop-color="#9CB2DF"/>
</linearGradient>
<linearGradient id="paint5_linear_51_14614" x1="23.2063" y1="3.3354" x2="23.2063" y2="16.7524" gradientUnits="userSpaceOnUse">
<stop stop-color="#4AFFC7"/>
<stop offset="1" stop-color="#3BADEA"/>
</linearGradient>
<linearGradient id="paint6_linear_51_14614" x1="4.08442" y1="4.95782" x2="17.6117" y2="5.18929" gradientUnits="userSpaceOnUse">
<stop stop-color="#E6F0FF"/>
<stop offset="0.24" stop-color="#E2ECFD"/>
<stop offset="0.47" stop-color="#D6E3F8"/>
<stop offset="0.69" stop-color="#C3D3F0"/>
<stop offset="0.91" stop-color="#A9BDE4"/>
<stop offset="1" stop-color="#9CB2DF"/>
</linearGradient>
<linearGradient id="paint7_linear_51_14614" x1="21.453" y1="14.9676" x2="34.9204" y2="15.1971" gradientUnits="userSpaceOnUse">
<stop stop-color="#E6F0FF"/>
<stop offset="0.24" stop-color="#E2ECFD"/>
<stop offset="0.47" stop-color="#D6E3F8"/>
<stop offset="0.69" stop-color="#C3D3F0"/>
<stop offset="0.91" stop-color="#A9BDE4"/>
<stop offset="1" stop-color="#9CB2DF"/>
</linearGradient>
<linearGradient id="paint8_linear_51_14614" x1="21.453" y1="4.95782" x2="34.9204" y2="5.18724" gradientUnits="userSpaceOnUse">
<stop stop-color="#E6F0FF"/>
<stop offset="0.24" stop-color="#E2ECFD"/>
<stop offset="0.47" stop-color="#D6E3F8"/>
<stop offset="0.69" stop-color="#C3D3F0"/>
<stop offset="0.91" stop-color="#A9BDE4"/>
<stop offset="1" stop-color="#9CB2DF"/>
</linearGradient>
<linearGradient id="paint9_linear_51_14614" x1="4.14437" y1="14.9676" x2="17.6115" y2="15.1971" gradientUnits="userSpaceOnUse">
<stop stop-color="#E6F0FF"/>
<stop offset="0.24" stop-color="#E2ECFD"/>
<stop offset="0.47" stop-color="#D6E3F8"/>
<stop offset="0.69" stop-color="#C3D3F0"/>
<stop offset="0.91" stop-color="#A9BDE4"/>
<stop offset="1" stop-color="#9CB2DF"/>
</linearGradient>
</defs>
</svg>
