<svg width="31" height="46" viewBox="0 0 31 46" fill="none" xmlns="http://www.w3.org/2000/svg">
<path opacity="0.5" fill-rule="evenodd" clip-rule="evenodd" d="M26.2197 30.404C32.1944 33.8181 32.1944 39.4824 26.2197 42.8966C20.2449 46.3107 10.5456 46.3107 4.57089 42.8966C-1.40384 39.4048 -1.40384 33.8181 4.57089 30.404C10.5456 26.9122 20.2449 26.9122 26.2197 30.404Z" fill="#E9E9EB"/>
<path opacity="0.5" fill-rule="evenodd" clip-rule="evenodd" d="M23.8939 31.7302C28.6271 34.446 28.6271 38.8689 23.8939 41.5847C19.1606 44.3004 11.5566 44.3004 6.82336 41.5847C2.09013 38.8689 2.09013 34.446 6.82336 31.7302C11.5566 29.0144 19.1606 29.0144 23.8939 31.7302Z" fill="#DDDEE1"/>
<path opacity="0.5" fill-rule="evenodd" clip-rule="evenodd" d="M21.6425 33.06C25.1343 35.0774 25.1343 38.2588 21.6425 40.2763C18.2284 42.2937 12.5642 42.2937 9.15004 40.2763C5.65832 38.2588 5.65832 35.0774 9.15004 33.06C12.6418 31.0425 18.2284 31.0425 21.6425 33.06Z" fill="#D1D2D6"/>
<path fill-rule="evenodd" clip-rule="evenodd" d="M30.5647 6.42282L28.935 5.49173L28.8576 5.41406H28.7023H28.4695H28.3144L28.0816 5.49173H27.8488L27.5384 5.56928L27.3056 5.64683L26.9952 5.7245L26.685 5.87961L26.2969 6.03483L25.9867 6.11238L25.5986 6.2676L25.2107 6.50037L24.8226 6.65559L24.4347 6.81081L23.9691 7.04359L23.581 7.27636L23.1155 7.50913L22.6499 7.7419L22.2621 7.97468L21.7965 8.20745L21.331 8.44022L20.7878 8.75066L20.3222 8.98343L19.8567 9.29376L19.3911 9.52653L18.9256 9.83697L18.3824 10.1473L17.9168 10.3801L17.4513 10.6905L16.9857 10.9233L16.5202 11.2336L16.0544 11.544L15.5889 11.7768L15.1233 12.0871L14.6578 12.3976L14.1922 12.6304L13.8044 12.9407L13.4163 13.2511L12.9507 13.4839L12.5628 13.7942L12.1747 14.027L11.7868 14.3374L11.4764 14.5702L11.1662 14.8805L10.7781 15.1133L10.4679 15.3461L10.2349 15.5788L9.92467 15.8116L9.6919 16.0444L9.45912 16.2773L9.30379 16.5101L9.14868 16.7428L8.99358 16.8979L8.83824 17.1308L8.76081 17.2859L8.68314 17.4411L8.60547 17.6739V17.8291V21.2433L10.2349 22.1744V18.7602V18.605V18.3722L10.3125 18.2171L10.4679 18.0619L10.5453 17.8291L10.7007 17.6739L10.8558 17.4411L11.0885 17.2084L11.3213 16.9756L11.5541 16.7428L11.7868 16.5101L12.0973 16.2773L12.4077 16.0444L12.7179 15.7341L13.106 15.5013L13.4163 15.2685L13.8044 14.9581L14.1922 14.7253L14.5804 14.415L14.9682 14.1822L15.4338 13.8718L15.8216 13.5614L16.2874 13.3287L16.753 13.0182L17.1408 12.7079L17.6064 12.4751L18.0719 12.1647L18.6151 11.8544L19.0807 11.6216L19.5462 11.3113L20.0118 11.0008L20.4773 10.7681L21.0205 10.4577L21.4861 10.2248L21.9516 9.91452L22.4172 9.68175L22.8827 9.37143L23.3483 9.13854L23.8138 8.90576L24.2796 8.67299L24.7451 8.44022L25.133 8.20745L25.5986 7.97468L25.9867 7.7419L26.4522 7.58668L26.8401 7.43158L27.228 7.19869L27.6161 7.04359L27.9265 6.88837L28.2367 6.81081L28.6248 6.65559L28.935 6.57804L29.1678 6.50037L29.4783 6.42282H29.711L29.9438 6.34515H30.0991H30.2542H30.4093L30.5647 6.42282Z" fill="#34485C"/>
<path fill-rule="evenodd" clip-rule="evenodd" d="M30.5647 6.42282L28.935 5.49173L28.8576 5.41406H28.7023H28.4695H28.3144L28.0816 5.49173H27.8488L27.5384 5.56928L27.3056 5.64683L26.9952 5.7245L26.685 5.87961L26.2969 6.03483L25.9867 6.11238L25.5986 6.2676L25.2107 6.50037L24.8226 6.65559L24.4347 6.81081L23.9691 7.04359L23.581 7.27636L23.1155 7.50913L22.6499 7.7419L22.2621 7.97468L21.7965 8.20745L21.331 8.44022L20.7878 8.75066L20.3222 8.98343L19.8567 9.29376L19.3911 9.52653L18.9256 9.83697L18.3824 10.1473L17.9168 10.3801L17.4513 10.6905L16.9857 10.9233L16.5202 11.2336L16.0544 11.544L15.5889 11.7768L15.1233 12.0871L14.6578 12.3976L14.1922 12.6304L13.8044 12.9407L13.4163 13.2511L12.9507 13.4839L12.5628 13.7942L12.1747 14.027L11.7868 14.3374L11.4764 14.5702L11.1662 14.8805L10.7781 15.1133L10.4679 15.3461L10.2349 15.5788L9.92467 15.8116L9.6919 16.0444L9.45912 16.2773L9.30379 16.5101L9.14868 16.7428L8.99358 16.8979L8.83824 17.1308L8.76081 17.2859L8.68314 17.4411L8.60547 17.6739V17.8291V21.2433L10.2349 22.1744V18.7602V18.605V18.3722L10.3125 18.2171L10.4679 18.0619L10.5453 17.8291L10.7007 17.6739L10.8558 17.4411L11.0885 17.2084L11.3213 16.9756L11.5541 16.7428L11.7868 16.5101L12.0973 16.2773L12.4077 16.0444L12.7179 15.7341L13.106 15.5013L13.4163 15.2685L13.8044 14.9581L14.1922 14.7253L14.5804 14.415L14.9682 14.1822L15.4338 13.8718L15.8216 13.5614L16.2874 13.3287L16.753 13.0182L17.1408 12.7079L17.6064 12.4751L18.0719 12.1647L18.6151 11.8544L19.0807 11.6216L19.5462 11.3113L20.0118 11.0008L20.4773 10.7681L21.0205 10.4577L21.4861 10.2248L21.9516 9.91452L22.4172 9.68175L22.8827 9.37143L23.3483 9.13854L23.8138 8.90576L24.2796 8.67299L24.7451 8.44022L25.133 8.20745L25.5986 7.97468L25.9867 7.7419L26.4522 7.58668L26.8401 7.43158L27.228 7.19869L27.6161 7.04359L27.9265 6.88837L28.2367 6.81081L28.6248 6.65559L28.935 6.57804L29.1678 6.50037L29.4783 6.42282H29.711L29.9438 6.34515H30.0991H30.2542H30.4093L30.5647 6.42282Z" fill="url(#paint0_linear_51_14346)"/>
<path fill-rule="evenodd" clip-rule="evenodd" d="M30.5647 6.42282L28.935 5.49173L28.8576 5.41406H28.7023H28.4695H28.3144L28.0816 5.49173H27.8488L27.5384 5.56928L27.3056 5.64683L26.9952 5.7245L26.685 5.87961L26.2969 6.03483L25.9867 6.11238L25.5986 6.2676L25.2107 6.50037L24.8226 6.65559L24.4347 6.81081L23.9691 7.04359L23.581 7.27636L23.1155 7.50913L22.6499 7.7419L22.2621 7.97468L21.7965 8.20745L21.331 8.44022L20.7878 8.75066L20.3222 8.98343L19.8567 9.29376L19.3911 9.52653L18.9256 9.83697L18.3824 10.1473L17.9168 10.3801L17.4513 10.6905L16.9857 10.9233L16.5202 11.2336L16.0544 11.544L15.5889 11.7768L15.1233 12.0871L14.6578 12.3976L14.1922 12.6304L13.8044 12.9407L13.4163 13.2511L12.9507 13.4839L12.5628 13.7942L12.1747 14.027L11.7868 14.3374L11.4764 14.5702L11.1662 14.8805L10.7781 15.1133L10.4679 15.3461L10.2349 15.5788L9.92467 15.8116L9.6919 16.0444L9.45912 16.2773L9.30379 16.5101L9.14868 16.7428L8.99358 16.8979L8.83824 17.1308L8.76081 17.2859L8.68314 17.4411L8.60547 17.6739V17.8291V21.2433L10.2349 22.1744V18.7602V18.605V18.3722L10.3125 18.2171L10.4679 18.0619L10.5453 17.8291L10.7007 17.6739L10.8558 17.4411L11.0885 17.2084L11.3213 16.9756L11.5541 16.7428L11.7868 16.5101L12.0973 16.2773L12.4077 16.0444L12.7179 15.7341L13.106 15.5013L13.4163 15.2685L13.8044 14.9581L14.1922 14.7253L14.5804 14.415L14.9682 14.1822L15.4338 13.8718L15.8216 13.5614L16.2874 13.3287L16.753 13.0182L17.1408 12.7079L17.6064 12.4751L18.0719 12.1647L18.6151 11.8544L19.0807 11.6216L19.5462 11.3113L20.0118 11.0008L20.4773 10.7681L21.0205 10.4577L21.4861 10.2248L21.9516 9.91452L22.4172 9.68175L22.8827 9.37143L23.3483 9.13854L23.8138 8.90576L24.2796 8.67299L24.7451 8.44022L25.133 8.20745L25.5986 7.97468L25.9867 7.7419L26.4522 7.58668L26.8401 7.43158L27.228 7.19869L27.6161 7.04359L27.9265 6.88837L28.2367 6.81081L28.6248 6.65559L28.935 6.57804L29.1678 6.50037L29.4783 6.42282H29.711L29.9438 6.34515H30.0991H30.2542H30.4093L30.5647 6.42282Z" fill="url(#paint1_linear_51_14346)"/>
<path fill-rule="evenodd" clip-rule="evenodd" d="M10.2349 22.2026L8.60547 21.2715V21.5043V21.737L8.68314 22.0474V22.5129L8.76081 22.9009L8.83824 23.4441L8.91591 23.9096L8.99358 24.5304L9.14868 25.0735L9.22635 25.6943L9.38146 26.3926L9.61423 27.0134L9.76933 27.6341L10.0021 28.3324L10.2349 29.0309L10.5453 29.6515L10.8558 30.2723L11.1662 30.8931L11.4764 31.5138L11.8645 32.1346L12.2524 32.6778L12.7179 33.1433L13.1835 33.6089L13.649 33.9969L14.1922 34.3848L15.8216 35.316L15.2787 34.928L14.7355 34.54L14.3476 34.0744L13.8818 33.5312L13.4939 32.9881L13.106 32.4449L12.7179 31.8243L12.4077 31.2035L12.0973 30.5827L11.8645 29.8844L11.6317 29.2636L11.399 28.5652L11.1662 27.9446L11.0109 27.2461L10.8558 26.6254L10.7007 26.0047L10.623 25.4615L10.5453 24.8407L10.3902 24.2976V23.832L10.3125 23.3664L10.2349 22.9786V22.6681V22.4353V22.2026Z" fill="#2C3E50"/>
<path fill-rule="evenodd" clip-rule="evenodd" d="M10.2349 22.2026L8.60547 21.2715V21.5043V21.737L8.68314 22.0474V22.5129L8.76081 22.9009L8.83824 23.4441L8.91591 23.9096L8.99358 24.5304L9.14868 25.0735L9.22635 25.6943L9.38146 26.3926L9.61423 27.0134L9.76933 27.6341L10.0021 28.3324L10.2349 29.0309L10.5453 29.6515L10.8558 30.2723L11.1662 30.8931L11.4764 31.5138L11.8645 32.1346L12.2524 32.6778L12.7179 33.1433L13.1835 33.6089L13.649 33.9969L14.1922 34.3848L15.8216 35.316L15.2787 34.928L14.7355 34.54L14.3476 34.0744L13.8818 33.5312L13.4939 32.9881L13.106 32.4449L12.7179 31.8243L12.4077 31.2035L12.0973 30.5827L11.8645 29.8844L11.6317 29.2636L11.399 28.5652L11.1662 27.9446L11.0109 27.2461L10.8558 26.6254L10.7007 26.0047L10.623 25.4615L10.5453 24.8407L10.3902 24.2976V23.832L10.3125 23.3664L10.2349 22.9786V22.6681V22.4353V22.2026Z" fill="url(#paint2_linear_51_14346)"/>
<path fill-rule="evenodd" clip-rule="evenodd" d="M16.3794 33.1848L14.75 32.2537L14.9828 31.8657L15.2155 31.4002L15.4483 30.9347L15.6811 30.5467L15.9915 30.1587L16.302 29.6931L16.6122 29.3051L16.9226 28.9171L17.2331 28.6068L17.5433 28.2188L17.8537 27.9085L18.2418 27.5981L18.6297 27.2877L18.9401 27.055L19.328 26.7445L19.7159 26.5117L20.104 26.3565L20.4919 26.1237L20.8023 26.0462L21.1902 25.891L21.5006 25.8134L21.8885 25.7358H22.1989L22.5094 25.6582L22.8198 25.7358H23.13L23.4405 25.8134L23.6733 25.891L23.9837 26.0462L25.6131 26.9773L25.3027 26.8222L25.0699 26.7445L24.7597 26.667H24.4492L24.1388 26.5893H23.8284L23.5181 26.667L23.13 26.7445L22.8198 26.8222L22.4317 26.8997L22.0438 27.055L21.6557 27.2877L21.3455 27.4428L20.9574 27.6756L20.5695 27.986L20.1817 28.2188L19.8712 28.5291L19.4831 28.8396L19.1729 29.1499L18.7848 29.5379L18.4746 29.8483L18.1642 30.2362L17.8537 30.6242L17.6209 31.0898L17.3105 31.4777L17.0777 31.8657L16.7675 32.3313L16.5347 32.7968L16.3794 33.1848Z" fill="#34485C"/>
<path fill-rule="evenodd" clip-rule="evenodd" d="M16.3794 33.1848L14.75 32.2537L14.9828 31.8657L15.2155 31.4002L15.4483 30.9347L15.6811 30.5467L15.9915 30.1587L16.302 29.6931L16.6122 29.3051L16.9226 28.9171L17.2331 28.6068L17.5433 28.2188L17.8537 27.9085L18.2418 27.5981L18.6297 27.2877L18.9401 27.055L19.328 26.7445L19.7159 26.5117L20.104 26.3565L20.4919 26.1237L20.8023 26.0462L21.1902 25.891L21.5006 25.8134L21.8885 25.7358H22.1989L22.5094 25.6582L22.8198 25.7358H23.13L23.4405 25.8134L23.6733 25.891L23.9837 26.0462L25.6131 26.9773L25.3027 26.8222L25.0699 26.7445L24.7597 26.667H24.4492L24.1388 26.5893H23.8284L23.5181 26.667L23.13 26.7445L22.8198 26.8222L22.4317 26.8997L22.0438 27.055L21.6557 27.2877L21.3455 27.4428L20.9574 27.6756L20.5695 27.986L20.1817 28.2188L19.8712 28.5291L19.4831 28.8396L19.1729 29.1499L18.7848 29.5379L18.4746 29.8483L18.1642 30.2362L17.8537 30.6242L17.6209 31.0898L17.3105 31.4777L17.0777 31.8657L16.7675 32.3313L16.5347 32.7968L16.3794 33.1848Z" fill="url(#paint3_linear_51_14346)"/>
<path fill-rule="evenodd" clip-rule="evenodd" d="M16.3794 33.1848L14.75 32.2537L14.9828 31.8657L15.2155 31.4002L15.4483 30.9347L15.6811 30.5467L15.9915 30.1587L16.302 29.6931L16.6122 29.3051L16.9226 28.9171L17.2331 28.6068L17.5433 28.2188L17.8537 27.9085L18.2418 27.5981L18.6297 27.2877L18.9401 27.055L19.328 26.7445L19.7159 26.5117L20.104 26.3565L20.4919 26.1237L20.8023 26.0462L21.1902 25.891L21.5006 25.8134L21.8885 25.7358H22.1989L22.5094 25.6582L22.8198 25.7358H23.13L23.4405 25.8134L23.6733 25.891L23.9837 26.0462L25.6131 26.9773L25.3027 26.8222L25.0699 26.7445L24.7597 26.667H24.4492L24.1388 26.5893H23.8284L23.5181 26.667L23.13 26.7445L22.8198 26.8222L22.4317 26.8997L22.0438 27.055L21.6557 27.2877L21.3455 27.4428L20.9574 27.6756L20.5695 27.986L20.1817 28.2188L19.8712 28.5291L19.4831 28.8396L19.1729 29.1499L18.7848 29.5379L18.4746 29.8483L18.1642 30.2362L17.8537 30.6242L17.6209 31.0898L17.3105 31.4777L17.0777 31.8657L16.7675 32.3313L16.5347 32.7968L16.3794 33.1848Z" fill="url(#paint4_linear_51_14346)"/>
<path fill-rule="evenodd" clip-rule="evenodd" d="M22.3484 18.0701L20.7188 17.139H20.7964H21.4171L21.9603 17.0614L22.5035 16.9838L22.969 16.9061L23.3569 16.8286L23.8225 16.6734L24.2106 16.5183L24.521 16.2855L24.9089 16.0526L25.2193 15.7423L25.5295 15.3543L25.84 14.9663L26.1504 14.5784L26.5383 14.0352L26.8487 13.4921L27.2366 12.9489V12.8713V12.7937V12.7161V12.6386V12.5609L26.8487 12.3281L28.4781 13.2593L28.7886 13.4921H28.8663V13.5697V13.6472V13.7249V13.8024H28.7886V13.88L28.4781 14.4232L28.0903 14.9663L27.7798 15.5095L27.4694 15.8975L27.1592 16.2855L26.8487 16.6734L26.4609 16.9061L26.1504 17.2166L25.7623 17.4494L25.3744 17.6046L24.9866 17.7597L24.521 17.8373L24.0555 17.9149L23.5897 17.9924L22.969 18.0701H22.3484Z" fill="#34485C"/>
<path fill-rule="evenodd" clip-rule="evenodd" d="M22.3484 18.0701L20.7188 17.139H20.7964H21.4171L21.9603 17.0614L22.5035 16.9838L22.969 16.9061L23.3569 16.8286L23.8225 16.6734L24.2106 16.5183L24.521 16.2855L24.9089 16.0526L25.2193 15.7423L25.5295 15.3543L25.84 14.9663L26.1504 14.5784L26.5383 14.0352L26.8487 13.4921L27.2366 12.9489V12.8713V12.7937V12.7161V12.6386V12.5609L26.8487 12.3281L28.4781 13.2593L28.7886 13.4921H28.8663V13.5697V13.6472V13.7249V13.8024H28.7886V13.88L28.4781 14.4232L28.0903 14.9663L27.7798 15.5095L27.4694 15.8975L27.1592 16.2855L26.8487 16.6734L26.4609 16.9061L26.1504 17.2166L25.7623 17.4494L25.3744 17.6046L24.9866 17.7597L24.521 17.8373L24.0555 17.9149L23.5897 17.9924L22.969 18.0701H22.3484Z" fill="url(#paint5_linear_51_14346)"/>
<path fill-rule="evenodd" clip-rule="evenodd" d="M22.3484 18.0701L20.7188 17.139H20.7964H21.4171L21.9603 17.0614L22.5035 16.9838L22.969 16.9061L23.3569 16.8286L23.8225 16.6734L24.2106 16.5183L24.521 16.2855L24.9089 16.0526L25.2193 15.7423L25.5295 15.3543L25.84 14.9663L26.1504 14.5784L26.5383 14.0352L26.8487 13.4921L27.2366 12.9489V12.8713V12.7937V12.7161V12.6386V12.5609L26.8487 12.3281L28.4781 13.2593L28.7886 13.4921H28.8663V13.5697V13.6472V13.7249V13.8024H28.7886V13.88L28.4781 14.4232L28.0903 14.9663L27.7798 15.5095L27.4694 15.8975L27.1592 16.2855L26.8487 16.6734L26.4609 16.9061L26.1504 17.2166L25.7623 17.4494L25.3744 17.6046L24.9866 17.7597L24.521 17.8373L24.0555 17.9149L23.5897 17.9924L22.969 18.0701H22.3484Z" fill="url(#paint6_linear_51_14346)"/>
<path fill-rule="evenodd" clip-rule="evenodd" d="M20.4879 35.8406C29.1008 33.5128 30.808 12.1745 30.808 10.3123V6.89811C30.808 5.34624 25.6866 7.8292 20.4879 10.8554C15.3667 13.8039 10.168 17.2181 10.168 18.8475V22.2617C10.168 24.1239 11.8749 38.2461 20.4879 35.9183V35.8406ZM26.3074 27.4605C25.1435 26.3741 23.359 26.2965 21.3415 27.4605C19.3241 28.6244 17.5393 30.797 16.3754 33.2024C16.7634 30.1763 18.8585 26.8398 21.3415 25.3655C23.8245 23.8912 25.9194 24.8223 26.3074 27.4605ZM28.7905 13.4936C28.7905 13.4936 28.7905 13.5712 28.7905 13.6487C28.7905 13.6487 28.7905 13.8039 28.7905 13.8815C26.8506 17.2181 25.842 18.0717 22.3503 18.0717C22.3503 18.0717 22.2725 18.0716 22.1949 17.9164C22.1949 17.8388 22.1949 17.7613 22.1949 17.6061C24.0572 14.6575 26.9281 12.0969 28.7128 13.416L28.7905 13.4936ZM12.1852 23.0377C13.9699 19.7011 16.8411 18.8475 18.7033 19.7011C18.7033 19.7011 18.7809 19.7786 18.7033 19.9338C18.7033 20.0114 18.7032 20.1667 18.548 20.2443C15.0563 24.2016 14.0477 24.5896 12.1078 23.4257C12.1078 23.4257 12.1078 23.4256 12.1078 23.2704C12.1078 23.2704 12.1078 23.1153 12.1078 23.0377H12.1852Z" fill="#3D566E"/>
<path fill-rule="evenodd" clip-rule="evenodd" d="M20.4879 35.8406C29.1008 33.5128 30.808 12.1745 30.808 10.3123V6.89811C30.808 5.34624 25.6866 7.8292 20.4879 10.8554C15.3667 13.8039 10.168 17.2181 10.168 18.8475V22.2617C10.168 24.1239 11.8749 38.2461 20.4879 35.9183V35.8406ZM26.3074 27.4605C25.1435 26.3741 23.359 26.2965 21.3415 27.4605C19.3241 28.6244 17.5393 30.797 16.3754 33.2024C16.7634 30.1763 18.8585 26.8398 21.3415 25.3655C23.8245 23.8912 25.9194 24.8223 26.3074 27.4605ZM28.7905 13.4936C28.7905 13.4936 28.7905 13.5712 28.7905 13.6487C28.7905 13.6487 28.7905 13.8039 28.7905 13.8815C26.8506 17.2181 25.842 18.0717 22.3503 18.0717C22.3503 18.0717 22.2725 18.0716 22.1949 17.9164C22.1949 17.8388 22.1949 17.7613 22.1949 17.6061C24.0572 14.6575 26.9281 12.0969 28.7128 13.416L28.7905 13.4936ZM12.1852 23.0377C13.9699 19.7011 16.8411 18.8475 18.7033 19.7011C18.7033 19.7011 18.7809 19.7786 18.7033 19.9338C18.7033 20.0114 18.7032 20.1667 18.548 20.2443C15.0563 24.2016 14.0477 24.5896 12.1078 23.4257C12.1078 23.4257 12.1078 23.4256 12.1078 23.2704C12.1078 23.2704 12.1078 23.1153 12.1078 23.0377H12.1852Z" fill="url(#paint7_linear_51_14346)"/>
<path fill-rule="evenodd" clip-rule="evenodd" d="M21.959 1.00876L20.3296 0.0775513H20.1745L20.0968 0H19.864H19.7087L19.4759 0.0775513H19.2431L18.9329 0.155221L18.7002 0.232772L18.3897 0.387993L18.0793 0.465544L17.6914 0.620765L17.381 0.775986L16.9931 0.931089L16.605 1.08631L16.2171 1.24153L15.829 1.4743L15.3634 1.62952L14.9756 1.8623L14.51 2.09507L14.0445 2.32784L13.5789 2.56061L13.1134 2.79339L12.6478 3.10371L12.1821 3.33648L11.7165 3.56937L11.251 3.8797L10.7854 4.19002L10.2422 4.42279L9.77667 4.73323L9.31113 4.96601L8.84558 5.27633L8.38004 5.58677L7.91449 5.81954L7.44895 6.12987L6.9834 6.44031L6.51786 6.67308L6.05232 6.9834L5.58677 7.29385L5.19866 7.52662L4.73312 7.83694L4.34524 8.06971L3.95713 8.38016L3.56925 8.61293L3.18138 8.92325L2.87094 9.15602L2.48283 9.46647L2.17262 9.69924L1.86218 9.93201L1.62941 10.1648L1.31896 10.4752L1.08619 10.708L0.853419 10.8631L0.698317 11.0959L0.465545 11.3288L0.310205 11.5615L0.232772 11.7166L0.0774329 11.8719V12.1046L0 12.2599V12.4151V15.8291L1.55174 16.7603V13.3462L1.62941 13.1909V13.0357L1.70708 12.8029L1.78451 12.6478L1.93985 12.4151L2.09495 12.2599L2.25005 12.0271L2.48283 11.7943L2.71583 11.5615L2.94861 11.3288L3.18138 11.0959L3.49158 10.8631L3.80203 10.6303L4.11247 10.3976L4.42267 10.0872L4.81078 9.85446L5.19866 9.54402L5.58677 9.31124L5.97465 9.00092L6.36252 8.76815L6.75063 8.45771L7.21618 8.14738L7.68172 7.91461L8.0696 7.60417L8.53538 7.29385L9.00092 7.06107L9.46647 6.75063L9.93201 6.44031L10.4752 6.20754L10.9408 5.89709L11.4063 5.66432L11.8719 5.354L12.3374 5.04356L12.8806 4.81078L13.3462 4.50046L13.8117 4.26769L14.2773 4.03492L14.7428 3.72447L15.2083 3.4917L15.6739 3.25893L16.1394 3.02616L16.5275 2.79339L16.9931 2.56061L17.381 2.40539L17.7688 2.17262L18.2346 2.0174L18.6225 1.8623L18.9329 1.70708L19.3208 1.55185L19.6313 1.39663L19.9415 1.31908L20.2519 1.16386L20.5623 1.08631L20.7951 1.00876H21.1056L21.2607 0.931089H21.4934H21.6485L21.8039 1.00876H21.959Z" fill="#BDBDBD"/>
<path fill-rule="evenodd" clip-rule="evenodd" d="M21.959 1.00876L20.3296 0.0775513H20.1745L20.0968 0H19.864H19.7087L19.4759 0.0775513H19.2431L18.9329 0.155221L18.7002 0.232772L18.3897 0.387993L18.0793 0.465544L17.6914 0.620765L17.381 0.775986L16.9931 0.931089L16.605 1.08631L16.2171 1.24153L15.829 1.4743L15.3634 1.62952L14.9756 1.8623L14.51 2.09507L14.0445 2.32784L13.5789 2.56061L13.1134 2.79339L12.6478 3.10371L12.1821 3.33648L11.7165 3.56937L11.251 3.8797L10.7854 4.19002L10.2422 4.42279L9.77667 4.73323L9.31113 4.96601L8.84558 5.27633L8.38004 5.58677L7.91449 5.81954L7.44895 6.12987L6.9834 6.44031L6.51786 6.67308L6.05232 6.9834L5.58677 7.29385L5.19866 7.52662L4.73312 7.83694L4.34524 8.06971L3.95713 8.38016L3.56925 8.61293L3.18138 8.92325L2.87094 9.15602L2.48283 9.46647L2.17262 9.69924L1.86218 9.93201L1.62941 10.1648L1.31896 10.4752L1.08619 10.708L0.853419 10.8631L0.698317 11.0959L0.465545 11.3288L0.310205 11.5615L0.232772 11.7166L0.0774329 11.8719V12.1046L0 12.2599V12.4151V15.8291L1.55174 16.7603V13.3462L1.62941 13.1909V13.0357L1.70708 12.8029L1.78451 12.6478L1.93985 12.4151L2.09495 12.2599L2.25005 12.0271L2.48283 11.7943L2.71583 11.5615L2.94861 11.3288L3.18138 11.0959L3.49158 10.8631L3.80203 10.6303L4.11247 10.3976L4.42267 10.0872L4.81078 9.85446L5.19866 9.54402L5.58677 9.31124L5.97465 9.00092L6.36252 8.76815L6.75063 8.45771L7.21618 8.14738L7.68172 7.91461L8.0696 7.60417L8.53538 7.29385L9.00092 7.06107L9.46647 6.75063L9.93201 6.44031L10.4752 6.20754L10.9408 5.89709L11.4063 5.66432L11.8719 5.354L12.3374 5.04356L12.8806 4.81078L13.3462 4.50046L13.8117 4.26769L14.2773 4.03492L14.7428 3.72447L15.2083 3.4917L15.6739 3.25893L16.1394 3.02616L16.5275 2.79339L16.9931 2.56061L17.381 2.40539L17.7688 2.17262L18.2346 2.0174L18.6225 1.8623L18.9329 1.70708L19.3208 1.55185L19.6313 1.39663L19.9415 1.31908L20.2519 1.16386L20.5623 1.08631L20.7951 1.00876H21.1056L21.2607 0.931089H21.4934H21.6485L21.8039 1.00876H21.959Z" fill="url(#paint8_linear_51_14346)"/>
<path fill-rule="evenodd" clip-rule="evenodd" d="M1.55174 16.7457L0 15.8145V16.0472V16.2801V16.668L0.0774329 17.056L0.155103 17.444L0.232772 17.9871L0.310205 18.5303L0.387875 19.0735L0.465545 19.6941L0.620647 20.2374L0.775986 20.9357L1.00876 21.5564L1.16386 22.2548L1.39663 22.8755L1.62941 23.5738L1.93985 24.1946L2.17262 24.8154L2.56049 25.5137L2.87094 26.0569L3.25881 26.6777L3.64692 27.2208L4.11247 27.6863L4.57801 28.152L5.04356 28.5398L5.58677 28.9278L7.13851 29.859L6.67296 29.4711L6.12975 29.0831L5.6642 28.6175L5.27633 28.152L4.81078 27.6088L4.50034 26.988L4.11247 26.3672L3.80203 25.7465L3.49158 25.1258L3.25881 24.5051L3.02604 23.8066L2.79327 23.186L2.56049 22.4875L2.40539 21.8668L2.25005 21.1685L2.09495 20.5477L2.01728 20.0046L1.86218 19.4614L1.78451 18.9183L1.70708 18.3751V17.9871L1.62941 17.5992V17.2112V16.9784L1.55174 16.7457Z" fill="#9C9C9C"/>
<path fill-rule="evenodd" clip-rule="evenodd" d="M1.55174 16.7457L0 15.8145V16.0472V16.2801V16.668L0.0774329 17.056L0.155103 17.444L0.232772 17.9871L0.310205 18.5303L0.387875 19.0735L0.465545 19.6941L0.620647 20.2374L0.775986 20.9357L1.00876 21.5564L1.16386 22.2548L1.39663 22.8755L1.62941 23.5738L1.93985 24.1946L2.17262 24.8154L2.56049 25.5137L2.87094 26.0569L3.25881 26.6777L3.64692 27.2208L4.11247 27.6863L4.57801 28.152L5.04356 28.5398L5.58677 28.9278L7.13851 29.859L6.67296 29.4711L6.12975 29.0831L5.6642 28.6175L5.27633 28.152L4.81078 27.6088L4.50034 26.988L4.11247 26.3672L3.80203 25.7465L3.49158 25.1258L3.25881 24.5051L3.02604 23.8066L2.79327 23.186L2.56049 22.4875L2.40539 21.8668L2.25005 21.1685L2.09495 20.5477L2.01728 20.0046L1.86218 19.4614L1.78451 18.9183L1.70708 18.3751V17.9871L1.62941 17.5992V17.2112V16.9784L1.55174 16.7457Z" fill="url(#paint9_linear_51_14346)"/>
<path fill-rule="evenodd" clip-rule="evenodd" d="M17.1453 18.6284L15.5933 17.6973L15.5158 18.0076V18.2405L15.4382 18.5508L15.3605 18.8611L15.2831 19.094L15.2054 19.4043L15.1277 19.7147L14.9726 19.9474L14.895 20.2579L14.7399 20.5682L14.6622 20.801L14.5071 21.1114L14.352 21.3442L14.1966 21.6545L14.0415 21.8873L13.8862 22.1977L13.7311 22.4305L13.576 22.6633L13.3432 22.9737L13.1879 23.2065L13.0328 23.4393L12.8 23.672L12.5672 23.9048L12.4121 24.06L12.1791 24.2928L11.9464 24.5256L11.7136 24.6807L11.5585 24.8359L11.3257 25.0687L11.0929 25.2239L10.8602 25.3791L10.6274 25.5342L10.1618 25.767L9.6963 25.9222L9.23076 26.0774L8.84265 26.155H8.3771H7.98923L7.67879 26.0774L7.29091 25.9999L6.98047 25.8446L8.60987 26.7757L8.92032 26.931L9.23076 27.0085L9.61863 27.0862H10.0065H10.3946L10.8602 27.0085L11.248 26.8534L11.7136 26.6982L12.1791 26.4654L12.4121 26.3102L12.6449 26.155L12.8777 25.9999L13.1105 25.767L13.3432 25.6119L13.576 25.4567L13.8088 25.2239L13.9639 24.9911L14.1966 24.8359L14.4294 24.6031L14.5848 24.3703L14.8175 24.1376L14.9726 23.9048L15.1277 23.5944L15.3605 23.3616L15.5158 23.1288L15.6709 22.8185L15.8261 22.5857L15.9814 22.2753L16.1365 22.0425L16.2142 21.7322L16.3693 21.4994L16.5246 21.189L16.602 20.8786L16.6797 20.6459L16.7574 20.3354L16.9125 20.0251L16.9901 19.7923V19.4819L17.0676 19.1716L17.1453 18.9388V18.6284Z" fill="#BDBDBD"/>
<path fill-rule="evenodd" clip-rule="evenodd" d="M17.1453 18.6284L15.5933 17.6973L15.5158 18.0076V18.2405L15.4382 18.5508L15.3605 18.8611L15.2831 19.094L15.2054 19.4043L15.1277 19.7147L14.9726 19.9474L14.895 20.2579L14.7399 20.5682L14.6622 20.801L14.5071 21.1114L14.352 21.3442L14.1966 21.6545L14.0415 21.8873L13.8862 22.1977L13.7311 22.4305L13.576 22.6633L13.3432 22.9737L13.1879 23.2065L13.0328 23.4393L12.8 23.672L12.5672 23.9048L12.4121 24.06L12.1791 24.2928L11.9464 24.5256L11.7136 24.6807L11.5585 24.8359L11.3257 25.0687L11.0929 25.2239L10.8602 25.3791L10.6274 25.5342L10.1618 25.767L9.6963 25.9222L9.23076 26.0774L8.84265 26.155H8.3771H7.98923L7.67879 26.0774L7.29091 25.9999L6.98047 25.8446L8.60987 26.7757L8.92032 26.931L9.23076 27.0085L9.61863 27.0862H10.0065H10.3946L10.8602 27.0085L11.248 26.8534L11.7136 26.6982L12.1791 26.4654L12.4121 26.3102L12.6449 26.155L12.8777 25.9999L13.1105 25.767L13.3432 25.6119L13.576 25.4567L13.8088 25.2239L13.9639 24.9911L14.1966 24.8359L14.4294 24.6031L14.5848 24.3703L14.8175 24.1376L14.9726 23.9048L15.1277 23.5944L15.3605 23.3616L15.5158 23.1288L15.6709 22.8185L15.8261 22.5857L15.9814 22.2753L16.1365 22.0425L16.2142 21.7322L16.3693 21.4994L16.5246 21.189L16.602 20.8786L16.6797 20.6459L16.7574 20.3354L16.9125 20.0251L16.9901 19.7923V19.4819L17.0676 19.1716L17.1453 18.9388V18.6284Z" fill="url(#paint10_linear_51_14346)"/>
<path fill-rule="evenodd" clip-rule="evenodd" d="M13.6572 12.6424L12.1055 11.7112H12.7261L13.347 11.6336H13.8125L14.3558 11.4784L14.7436 11.4009L15.2092 11.2456L15.5196 11.0904L15.9075 10.8576L16.2179 10.6249L16.6058 10.3145L16.9163 10.0041L17.2267 9.61622L17.5369 9.15056L17.8473 8.68502L18.2355 8.14192L18.5457 7.52116H18.6233V7.4436V7.36594V7.28838V7.21071V7.13316H18.5457L18.2355 6.90039L19.8649 7.83148L20.1753 8.06425H20.2527V8.14192V8.21947V8.29702L20.1753 8.37469V8.45225L19.7872 9.07301L19.4767 9.61622L19.1665 10.0818L18.8561 10.5473L18.4682 10.8576L18.1578 11.2456L17.8473 11.5561L17.5369 11.7888L17.149 12.0216L16.7612 12.1767L16.373 12.3319L15.9075 12.4096L15.442 12.5647H14.8987L14.3558 12.6424H13.7349H13.6572Z" fill="#BDBDBD"/>
<path fill-rule="evenodd" clip-rule="evenodd" d="M13.6572 12.6424L12.1055 11.7112H12.7261L13.347 11.6336H13.8125L14.3558 11.4784L14.7436 11.4009L15.2092 11.2456L15.5196 11.0904L15.9075 10.8576L16.2179 10.6249L16.6058 10.3145L16.9163 10.0041L17.2267 9.61622L17.5369 9.15056L17.8473 8.68502L18.2355 8.14192L18.5457 7.52116H18.6233V7.4436V7.36594V7.28838V7.21071V7.13316H18.5457L18.2355 6.90039L19.8649 7.83148L20.1753 8.06425H20.2527V8.14192V8.21947V8.29702L20.1753 8.37469V8.45225L19.7872 9.07301L19.4767 9.61622L19.1665 10.0818L18.8561 10.5473L18.4682 10.8576L18.1578 11.2456L17.8473 11.5561L17.5369 11.7888L17.149 12.0216L16.7612 12.1767L16.373 12.3319L15.9075 12.4096L15.442 12.5647H14.8987L14.3558 12.6424H13.7349H13.6572Z" fill="url(#paint11_linear_51_14346)"/>
<path fill-rule="evenodd" clip-rule="evenodd" d="M10.0855 14.3492L8.45605 13.418H8.53372V13.4956V13.5732V13.6507V13.7284L8.45605 13.806L8.37838 13.8835L7.75773 14.5819L7.21452 15.2027L6.67131 15.7458L6.20576 16.2114L5.81789 16.5993L5.35234 16.9097L4.96423 17.1426L4.65403 17.3753L4.26591 17.5304L3.95547 17.6081H3.64527H3.33483L3.02438 17.5304L2.71418 17.4529L2.32607 17.2977L2.01562 17.0649L3.5676 17.996L3.95547 18.2289L4.26591 18.384L4.57636 18.4616L4.96423 18.5392H5.27467H5.58511L5.89532 18.4616L6.20576 18.3064L6.59387 18.0737L6.98175 17.8409L7.36962 17.5304L7.83517 17.1426L8.30071 16.6769L8.84393 16.1338L9.38714 15.513L10.0078 14.8147V14.7371H10.0855V14.6595L10.1631 14.5819V14.5043V14.4267L10.0855 14.3492Z" fill="#BDBDBD"/>
<path fill-rule="evenodd" clip-rule="evenodd" d="M10.0855 14.3492L8.45605 13.418H8.53372V13.4956V13.5732V13.6507V13.7284L8.45605 13.806L8.37838 13.8835L7.75773 14.5819L7.21452 15.2027L6.67131 15.7458L6.20576 16.2114L5.81789 16.5993L5.35234 16.9097L4.96423 17.1426L4.65403 17.3753L4.26591 17.5304L3.95547 17.6081H3.64527H3.33483L3.02438 17.5304L2.71418 17.4529L2.32607 17.2977L2.01562 17.0649L3.5676 17.996L3.95547 18.2289L4.26591 18.384L4.57636 18.4616L4.96423 18.5392H5.27467H5.58511L5.89532 18.4616L6.20576 18.3064L6.59387 18.0737L6.98175 17.8409L7.36962 17.5304L7.83517 17.1426L8.30071 16.6769L8.84393 16.1338L9.38714 15.513L10.0078 14.8147V14.7371H10.0855V14.6595L10.1631 14.5819V14.5043V14.4267L10.0855 14.3492Z" fill="url(#paint12_linear_51_14346)"/>
<path fill-rule="evenodd" clip-rule="evenodd" d="M11.867 30.4129C20.4799 28.0851 22.1869 6.74678 22.1869 4.88453V1.47038C22.1869 -0.0814991 17.0658 2.40146 11.867 5.42763C6.7458 8.37619 1.54688 11.7903 1.54688 13.4198V16.8339C1.54688 18.6962 3.25407 32.8182 11.867 30.4904V30.4129ZM17.1433 18.6186C16.7554 21.6447 14.6602 24.9813 12.1772 26.4556C9.6942 27.9299 7.59928 26.9988 7.21132 24.3606C8.37522 25.4469 10.1598 25.5245 12.1772 24.3606C14.1946 23.1967 15.9794 21.024 17.1433 18.6186ZM20.1696 8.06579C20.1696 8.06579 20.1696 8.14342 20.1696 8.22101C20.1696 8.22101 20.1696 8.37619 20.1696 8.45378C18.2298 11.7903 17.2209 12.6439 13.7292 12.6439C13.7292 12.6439 13.6517 12.6439 13.5741 12.4887C13.5741 12.4111 13.5741 12.3334 13.5741 12.1783C15.4363 9.22969 18.3073 6.66914 20.0919 7.98824L20.1696 8.06579ZM3.56439 17.6099C5.34905 14.2734 8.22 13.4198 10.0823 14.2733C10.0823 14.2733 10.1598 14.3509 10.0823 14.5061C10.0823 14.5837 10.0823 14.7389 9.92715 14.8165C6.43542 18.7738 5.42657 19.1617 3.48672 17.9978C3.48672 17.9978 3.48672 17.9979 3.48672 17.8427C3.48672 17.8427 3.48672 17.6875 3.48672 17.6099H3.56439Z" fill="#E6EAEB"/>
<path fill-rule="evenodd" clip-rule="evenodd" d="M11.867 30.4129C20.4799 28.0851 22.1869 6.74678 22.1869 4.88453V1.47038C22.1869 -0.0814991 17.0658 2.40146 11.867 5.42763C6.7458 8.37619 1.54688 11.7903 1.54688 13.4198V16.8339C1.54688 18.6962 3.25407 32.8182 11.867 30.4904V30.4129ZM17.1433 18.6186C16.7554 21.6447 14.6602 24.9813 12.1772 26.4556C9.6942 27.9299 7.59928 26.9988 7.21132 24.3606C8.37522 25.4469 10.1598 25.5245 12.1772 24.3606C14.1946 23.1967 15.9794 21.024 17.1433 18.6186ZM20.1696 8.06579C20.1696 8.06579 20.1696 8.14342 20.1696 8.22101C20.1696 8.22101 20.1696 8.37619 20.1696 8.45378C18.2298 11.7903 17.2209 12.6439 13.7292 12.6439C13.7292 12.6439 13.6517 12.6439 13.5741 12.4887C13.5741 12.4111 13.5741 12.3334 13.5741 12.1783C15.4363 9.22969 18.3073 6.66914 20.0919 7.98824L20.1696 8.06579ZM3.56439 17.6099C5.34905 14.2734 8.22 13.4198 10.0823 14.2733C10.0823 14.2733 10.1598 14.3509 10.0823 14.5061C10.0823 14.5837 10.0823 14.7389 9.92715 14.8165C6.43542 18.7738 5.42657 19.1617 3.48672 17.9978C3.48672 17.9978 3.48672 17.9979 3.48672 17.8427C3.48672 17.8427 3.48672 17.6875 3.48672 17.6099H3.56439Z" fill="url(#paint13_linear_51_14346)"/>
<defs>
<linearGradient id="paint0_linear_51_14346" x1="13.7428" y1="13.6518" x2="30.7593" y2="13.8722" gradientUnits="userSpaceOnUse">
<stop stop-color="#E6F0FF"/>
<stop offset="0.24" stop-color="#E2ECFD"/>
<stop offset="0.47" stop-color="#D6E3F8"/>
<stop offset="0.69" stop-color="#C3D3F0"/>
<stop offset="0.91" stop-color="#A9BDE4"/>
<stop offset="1" stop-color="#9CB2DF"/>
</linearGradient>
<linearGradient id="paint1_linear_51_14346" x1="8.59911" y1="13.7942" x2="30.55" y2="13.7942" gradientUnits="userSpaceOnUse">
<stop stop-color="#4AFFC7"/>
<stop offset="1" stop-color="#3BADEA"/>
</linearGradient>
<linearGradient id="paint2_linear_51_14346" x1="10.2937" y1="28.1744" x2="15.8864" y2="28.2028" gradientUnits="userSpaceOnUse">
<stop stop-color="#E6F0FF"/>
<stop offset="0.24" stop-color="#E2ECFD"/>
<stop offset="0.47" stop-color="#D6E3F8"/>
<stop offset="0.69" stop-color="#C3D3F0"/>
<stop offset="0.91" stop-color="#A9BDE4"/>
<stop offset="1" stop-color="#9CB2DF"/>
</linearGradient>
<linearGradient id="paint3_linear_51_14346" x1="17.2914" y1="29.3575" x2="25.7091" y2="29.4777" gradientUnits="userSpaceOnUse">
<stop stop-color="#E6F0FF"/>
<stop offset="0.24" stop-color="#E2ECFD"/>
<stop offset="0.47" stop-color="#D6E3F8"/>
<stop offset="0.69" stop-color="#C3D3F0"/>
<stop offset="0.91" stop-color="#A9BDE4"/>
<stop offset="1" stop-color="#9CB2DF"/>
</linearGradient>
<linearGradient id="paint4_linear_51_14346" x1="14.7469" y1="29.4215" x2="25.6059" y2="29.4215" gradientUnits="userSpaceOnUse">
<stop stop-color="#4AFFC7"/>
<stop offset="1" stop-color="#3BADEA"/>
</linearGradient>
<linearGradient id="paint5_linear_51_14346" x1="22.6248" y1="15.1503" x2="28.9383" y2="15.2389" gradientUnits="userSpaceOnUse">
<stop stop-color="#E6F0FF"/>
<stop offset="0.24" stop-color="#E2ECFD"/>
<stop offset="0.47" stop-color="#D6E3F8"/>
<stop offset="0.69" stop-color="#C3D3F0"/>
<stop offset="0.91" stop-color="#A9BDE4"/>
<stop offset="1" stop-color="#9CB2DF"/>
</linearGradient>
<linearGradient id="paint6_linear_51_14346" x1="20.7164" y1="15.1991" x2="28.8608" y2="15.1991" gradientUnits="userSpaceOnUse">
<stop stop-color="#4AFFC7"/>
<stop offset="1" stop-color="#3BADEA"/>
</linearGradient>
<linearGradient id="paint7_linear_51_14346" x1="14.9967" y1="21.0463" x2="30.9929" y2="21.156" gradientUnits="userSpaceOnUse">
<stop stop-color="#E6F0FF"/>
<stop offset="0.24" stop-color="#E2ECFD"/>
<stop offset="0.47" stop-color="#D6E3F8"/>
<stop offset="0.69" stop-color="#C3D3F0"/>
<stop offset="0.91" stop-color="#A9BDE4"/>
<stop offset="1" stop-color="#9CB2DF"/>
</linearGradient>
<linearGradient id="paint8_linear_51_14346" x1="-0.00635994" y1="8.38015" x2="21.9443" y2="8.38015" gradientUnits="userSpaceOnUse">
<stop stop-color="#4AFFC7"/>
<stop offset="1" stop-color="#3BADEA"/>
</linearGradient>
<linearGradient id="paint9_linear_51_14346" x1="-0.00206751" y1="22.8367" x2="7.13374" y2="22.8367" gradientUnits="userSpaceOnUse">
<stop stop-color="#4AFFC7"/>
<stop offset="1" stop-color="#3BADEA"/>
</linearGradient>
<linearGradient id="paint10_linear_51_14346" x1="6.97752" y1="22.3917" x2="17.1385" y2="22.3917" gradientUnits="userSpaceOnUse">
<stop stop-color="#4AFFC7"/>
<stop offset="1" stop-color="#3BADEA"/>
</linearGradient>
<linearGradient id="paint11_linear_51_14346" x1="12.1031" y1="9.77139" x2="20.2473" y2="9.77139" gradientUnits="userSpaceOnUse">
<stop stop-color="#4AFFC7"/>
<stop offset="1" stop-color="#3BADEA"/>
</linearGradient>
<linearGradient id="paint12_linear_51_14346" x1="2.01327" y1="15.9786" x2="10.1577" y2="15.9786" gradientUnits="userSpaceOnUse">
<stop stop-color="#4AFFC7"/>
<stop offset="1" stop-color="#3BADEA"/>
</linearGradient>
<linearGradient id="paint13_linear_51_14346" x1="6.37557" y1="15.6185" x2="22.3718" y2="15.7282" gradientUnits="userSpaceOnUse">
<stop stop-color="#E6F0FF"/>
<stop offset="0.24" stop-color="#E2ECFD"/>
<stop offset="0.47" stop-color="#D6E3F8"/>
<stop offset="0.69" stop-color="#C3D3F0"/>
<stop offset="0.91" stop-color="#A9BDE4"/>
<stop offset="1" stop-color="#9CB2DF"/>
</linearGradient>
</defs>
</svg>
