<svg width="30" height="46" viewBox="0 0 30 46" fill="none" xmlns="http://www.w3.org/2000/svg">
<path opacity="0.5" fill-rule="evenodd" clip-rule="evenodd" d="M25.5016 30.5637C31.3327 33.8957 31.3327 39.4239 25.5016 42.7559C19.6705 46.088 10.2044 46.088 4.37333 42.7559C-1.45778 39.3481 -1.45778 33.8957 4.37333 30.5637C10.2044 27.1559 19.6705 27.1559 25.5016 30.5637Z" fill="#E9E9EB"/>
<path opacity="0.5" fill-rule="evenodd" clip-rule="evenodd" d="M23.3085 31.8648C27.9279 34.5153 27.9279 38.8318 23.3085 41.4823C18.689 44.1328 11.2676 44.1328 6.64818 41.4823C2.02873 38.8318 2.02873 34.5153 6.64818 31.8648C11.2676 29.2143 18.689 29.2143 23.3085 31.8648Z" fill="#DDDEE1"/>
<path opacity="0.5" fill-rule="evenodd" clip-rule="evenodd" d="M21.0333 33.1603C24.4411 35.1292 24.4411 38.2341 21.0333 40.2031C17.7013 42.172 12.1731 42.172 8.841 40.2031C5.43321 38.2341 5.43321 35.1292 8.841 33.1603C12.2488 31.1914 17.7013 31.1914 21.0333 33.1603Z" fill="#D1D2D6"/>
<path fill-rule="evenodd" clip-rule="evenodd" d="M26.4251 1.81747L23.396 0.151432L23.0173 0H22.563L22.0329 0.075687L21.3513 0.227177L20.6698 0.454353L19.9125 0.68153L19.0795 0.984451L18.2464 1.36312L17.2619 1.74173L16.3532 2.27182L15.3687 2.72624L14.3843 3.25633L13.3998 3.78643L12.4153 4.39222L11.4308 4.99806L10.4464 5.6039L9.53763 6.28543L8.62887 6.89128L7.72016 7.49712L6.96283 8.17865L6.12981 8.78449L5.44828 9.39034L4.84243 9.99618L4.23659 10.602L3.78224 11.1321L3.40363 11.6622L3.10071 12.1923L2.94922 12.6467V13.0253V14.237V15.3729V16.5088V17.6447V18.7049L3.02496 19.7652V20.7496V21.6584V22.6428L3.10071 23.4759V24.3089L3.1764 25.1419L3.32789 25.8992L3.40363 26.5807L3.55506 27.2623L3.78224 27.8681L3.93373 28.3982L4.23659 28.9283L4.53951 29.3827L4.84243 29.7614L5.2211 30.14L5.67545 30.4429L8.62887 32.1847L8.17451 31.8817L7.79585 31.5031L7.49293 31.1245L7.19006 30.6701L6.96283 30.14L6.73565 29.5341L6.58422 28.9283L6.43273 28.3225L6.2813 27.5652L6.20555 26.8079L6.12981 26.0506L6.05412 25.2176V24.3089L5.97838 23.4001V22.4914V21.4312V20.4467V19.3865V18.2506V17.1146L5.90263 15.9787V14.7671L5.97838 14.3127L6.12981 13.8583L6.35704 13.4039L6.73565 12.8738L7.26575 12.3437L7.79585 11.7379L8.40169 11.1321L9.15897 10.5263L9.91624 9.92043L10.7493 9.23884L11.5823 8.63306L12.491 7.95147L13.4755 7.34563L14.46 6.73984L15.4445 6.134L16.4289 5.52816L17.4134 4.99806L18.3979 4.46796L19.3066 3.93786L20.2911 3.48351L21.1998 3.10484L22.0329 2.72624L22.8659 2.42331L23.6232 2.12039L24.3804 1.9689L24.9863 1.81747L25.5921 1.74173H26.0465L26.4251 1.81747Z" fill="#BDBDBD"/>
<path fill-rule="evenodd" clip-rule="evenodd" d="M26.4251 1.81747L23.396 0.151432L23.0173 0H22.563L22.0329 0.075687L21.3513 0.227177L20.6698 0.454353L19.9125 0.68153L19.0795 0.984451L18.2464 1.36312L17.2619 1.74173L16.3532 2.27182L15.3687 2.72624L14.3843 3.25633L13.3998 3.78643L12.4153 4.39222L11.4308 4.99806L10.4464 5.6039L9.53763 6.28543L8.62887 6.89128L7.72016 7.49712L6.96283 8.17865L6.12981 8.78449L5.44828 9.39034L4.84243 9.99618L4.23659 10.602L3.78224 11.1321L3.40363 11.6622L3.10071 12.1923L2.94922 12.6467V13.0253V14.237V15.3729V16.5088V17.6447V18.7049L3.02496 19.7652V20.7496V21.6584V22.6428L3.10071 23.4759V24.3089L3.1764 25.1419L3.32789 25.8992L3.40363 26.5807L3.55506 27.2623L3.78224 27.8681L3.93373 28.3982L4.23659 28.9283L4.53951 29.3827L4.84243 29.7614L5.2211 30.14L5.67545 30.4429L8.62887 32.1847L8.17451 31.8817L7.79585 31.5031L7.49293 31.1245L7.19006 30.6701L6.96283 30.14L6.73565 29.5341L6.58422 28.9283L6.43273 28.3225L6.2813 27.5652L6.20555 26.8079L6.12981 26.0506L6.05412 25.2176V24.3089L5.97838 23.4001V22.4914V21.4312V20.4467V19.3865V18.2506V17.1146L5.90263 15.9787V14.7671L5.97838 14.3127L6.12981 13.8583L6.35704 13.4039L6.73565 12.8738L7.26575 12.3437L7.79585 11.7379L8.40169 11.1321L9.15897 10.5263L9.91624 9.92043L10.7493 9.23884L11.5823 8.63306L12.491 7.95147L13.4755 7.34563L14.46 6.73984L15.4445 6.134L16.4289 5.52816L17.4134 4.99806L18.3979 4.46796L19.3066 3.93786L20.2911 3.48351L21.1998 3.10484L22.0329 2.72624L22.8659 2.42331L23.6232 2.12039L24.3804 1.9689L24.9863 1.81747L25.5921 1.74173H26.0465L26.4251 1.81747Z" fill="url(#paint0_linear_51_14361)"/>
<path fill-rule="evenodd" clip-rule="evenodd" d="M5.88672 14.7676C6.26536 27.7172 4.22068 35.593 16.413 31.958C28.6053 21.5832 26.4849 16.055 26.9393 2.65106C27.0907 -1.66547 5.81101 10.6026 5.96246 14.7676H5.88672Z" fill="#E6EAEB"/>
<path fill-rule="evenodd" clip-rule="evenodd" d="M5.88672 14.7676C6.26536 27.7172 4.22068 35.593 16.413 31.958C28.6053 21.5832 26.4849 16.055 26.9393 2.65106C27.0907 -1.66547 5.81101 10.6026 5.96246 14.7676H5.88672Z" fill="url(#paint1_linear_51_14361)"/>
<path fill-rule="evenodd" clip-rule="evenodd" d="M2.94922 12.6289V13.0075V14.2192V15.3551V16.4911V17.627V18.6872L3.02496 19.7474V20.7319V21.6406V22.6251L3.10071 23.4581V24.2911L3.1764 25.1241L3.32789 25.8814L3.40363 26.5629L3.55506 27.2445L3.78224 27.8504L3.93373 28.3805L4.23659 28.9106L4.53951 29.3649L4.84243 29.7436L5.2211 30.1222L5.67545 30.4251L8.62887 32.1669L8.17451 31.864L7.79585 31.4853L7.49293 31.1067L7.19006 30.6523L6.96283 30.1222L6.73565 29.5164L6.58422 28.9106L6.43273 28.3047L6.2813 27.5475L6.20555 26.7902L6.12981 26.0329L6.05412 25.1998V24.2911L5.97838 23.3824V22.4736V21.4134V20.4289V19.3688V18.2328V17.0969L5.90263 15.961V14.7493L5.97838 14.2949L2.94922 12.6289Z" fill="#9C9C9C"/>
<path fill-rule="evenodd" clip-rule="evenodd" d="M2.94922 12.6289V13.0075V14.2192V15.3551V16.4911V17.627V18.6872L3.02496 19.7474V20.7319V21.6406V22.6251L3.10071 23.4581V24.2911L3.1764 25.1241L3.32789 25.8814L3.40363 26.5629L3.55506 27.2445L3.78224 27.8504L3.93373 28.3805L4.23659 28.9106L4.53951 29.3649L4.84243 29.7436L5.2211 30.1222L5.67545 30.4251L8.62887 32.1669L8.17451 31.864L7.79585 31.4853L7.49293 31.1067L7.19006 30.6523L6.96283 30.1222L6.73565 29.5164L6.58422 28.9106L6.43273 28.3047L6.2813 27.5475L6.20555 26.7902L6.12981 26.0329L6.05412 25.1998V24.2911L5.97838 23.3824V22.4736V21.4134V20.4289V19.3688V18.2328V17.0969L5.90263 15.961V14.7493L5.97838 14.2949L2.94922 12.6289Z" fill="url(#paint2_linear_51_14361)"/>
<path fill-rule="evenodd" clip-rule="evenodd" d="M16.0817 24.9058L14.4229 23.9356H14.3916V23.873V23.8104V23.7478V20.3989L16.0504 21.3692V24.7806V24.8432L16.0817 24.9058ZM19.3054 15.6729L17.6466 14.7027L20.526 13.0439H20.5886L20.6512 13.0126H20.7138H20.7451L22.4039 13.9828H22.3726H22.31H22.2474L22.1848 14.0141L19.3054 15.6729ZM14.3603 16.6118L11.4809 18.2707H11.4183L11.3557 18.3646L11.2931 18.4271V18.4897L11.2305 18.5523V18.615L11.1992 18.6775V18.7401V21.9012V21.9638V22.0264L11.2305 22.089L12.8893 23.0593H12.858V22.9967V22.9341V22.8714V19.6477V19.5852V19.5226L12.9206 19.46V19.3974L13.0145 19.3348L13.0771 19.2722H13.1397L16.0191 17.5508V14.1393V14.0767V14.0141L16.0817 13.9515V13.8889L16.1756 13.8263L16.2382 13.7638H16.3008L19.0237 12.1362H19.0863L19.1489 12.105H19.2115H19.2428L17.584 11.166H17.5527H17.4901H17.4275L17.3649 11.1973L14.642 12.7622H14.5794L14.5168 12.8561L14.4542 12.9187V12.9813L14.3916 13.0439V13.1065L14.3603 13.1691V13.2317V16.5806V16.6118Z" fill="#89B04D"/>
<path fill-rule="evenodd" clip-rule="evenodd" d="M16.0817 24.9058L14.4229 23.9356H14.3916V23.873V23.8104V23.7478V20.3989L16.0504 21.3692V24.7806V24.8432L16.0817 24.9058ZM19.3054 15.6729L17.6466 14.7027L20.526 13.0439H20.5886L20.6512 13.0126H20.7138H20.7451L22.4039 13.9828H22.3726H22.31H22.2474L22.1848 14.0141L19.3054 15.6729ZM14.3603 16.6118L11.4809 18.2707H11.4183L11.3557 18.3646L11.2931 18.4271V18.4897L11.2305 18.5523V18.615L11.1992 18.6775V18.7401V21.9012V21.9638V22.0264L11.2305 22.089L12.8893 23.0593H12.858V22.9967V22.9341V22.8714V19.6477V19.5852V19.5226L12.9206 19.46V19.3974L13.0145 19.3348L13.0771 19.2722H13.1397L16.0191 17.5508V14.1393V14.0767V14.0141L16.0817 13.9515V13.8889L16.1756 13.8263L16.2382 13.7638H16.3008L19.0237 12.1362H19.0863L19.1489 12.105H19.2115H19.2428L17.584 11.166H17.5527H17.4901H17.4275L17.3649 11.1973L14.642 12.7622H14.5794L14.5168 12.8561L14.4542 12.9187V12.9813L14.3916 13.0439V13.1065L14.3603 13.1691V13.2317V16.5806V16.6118Z" fill="url(#paint3_linear_51_14361)"/>
<path fill-rule="evenodd" clip-rule="evenodd" d="M12.8268 19.6694L11.168 18.7305V18.7931V21.9229V21.9854L11.1993 22.0481L11.2306 22.0793L11.2619 22.1107L12.9207 23.0809L12.8894 23.0496L12.8581 23.0183L12.8268 22.9557V22.8931V19.732V19.6694Z" fill="#70913F"/>
<path fill-rule="evenodd" clip-rule="evenodd" d="M12.8268 19.6694L11.168 18.7305V18.7931V21.9229V21.9854L11.1993 22.0481L11.2306 22.0793L11.2619 22.1107L12.9207 23.0809L12.8894 23.0496L12.8581 23.0183L12.8268 22.9557V22.8931V19.732V19.6694Z" fill="url(#paint4_linear_51_14361)"/>
<path fill-rule="evenodd" clip-rule="evenodd" d="M12.922 23.0892V19.7403L12.8281 19.6777C12.8281 19.6777 12.8281 19.709 12.8281 19.7403V22.9014C12.8281 22.9014 12.8594 23.0892 12.922 23.0892Z" fill="#1F7D46"/>
<path fill-rule="evenodd" clip-rule="evenodd" d="M12.922 23.0892V19.7403L12.8281 19.6777C12.8281 19.6777 12.8281 19.709 12.8281 19.7403V22.9014C12.8281 22.9014 12.8594 23.0892 12.922 23.0892Z" fill="#1F7D46"/>
<path fill-rule="evenodd" clip-rule="evenodd" d="M14.3633 16.6089L15.9908 17.5792V14.2303L16.0221 14.1677V14.1051L16.0534 14.0112L14.3946 13.0723L14.3633 13.1349V13.1974V13.2913V16.6089Z" fill="#70913F"/>
<path fill-rule="evenodd" clip-rule="evenodd" d="M14.3633 16.6089L15.9908 17.5792V14.2303L16.0221 14.1677V14.1051L16.0534 14.0112L14.3946 13.0723L14.3633 13.1349V13.1974V13.2913V16.6089Z" fill="url(#paint5_linear_51_14361)"/>
<path fill-rule="evenodd" clip-rule="evenodd" d="M16.0847 24.9014L14.4259 23.9625L14.3946 23.9312L14.3633 23.8999V23.8373V23.7747V20.4258L15.9908 21.3961V24.7136L16.0221 24.7762V24.8388L16.0534 24.8701L16.0847 24.9014Z" fill="#70913F"/>
<path fill-rule="evenodd" clip-rule="evenodd" d="M16.0847 24.9014L14.4259 23.9625L14.3946 23.9312L14.3633 23.8999V23.8373V23.7747V20.4258L15.9908 21.3961V24.7136L16.0221 24.7762V24.8388L16.0534 24.8701L16.0847 24.9014Z" fill="url(#paint6_linear_51_14361)"/>
<path fill-rule="evenodd" clip-rule="evenodd" d="M18.9624 23.2082C18.9624 23.2082 19.2128 22.9578 19.2128 22.8013V19.3899L22.1548 17.6998C22.1548 17.6998 22.4052 17.4494 22.4052 17.2929V14.1318C22.4052 14.1318 22.3739 14.0066 22.28 14.0692L19.2128 15.8219V12.2852C19.2128 12.2852 19.1815 12.16 19.0876 12.2226L16.3647 13.7875C16.3647 13.7875 16.1143 14.0379 16.1143 14.1944V17.6059L13.1723 19.2959C13.1723 19.2959 12.9219 19.5463 12.9219 19.7028V22.8639C12.9219 22.8639 12.9532 22.9891 13.0471 22.9265L16.083 21.1738V24.7105C16.083 24.7105 16.1143 24.8357 16.2082 24.7731L18.9311 23.2082H18.9624Z" fill="#9BC957"/>
<path fill-rule="evenodd" clip-rule="evenodd" d="M18.9624 23.2082C18.9624 23.2082 19.2128 22.9578 19.2128 22.8013V19.3899L22.1548 17.6998C22.1548 17.6998 22.4052 17.4494 22.4052 17.2929V14.1318C22.4052 14.1318 22.3739 14.0066 22.28 14.0692L19.2128 15.8219V12.2852C19.2128 12.2852 19.1815 12.16 19.0876 12.2226L16.3647 13.7875C16.3647 13.7875 16.1143 14.0379 16.1143 14.1944V17.6059L13.1723 19.2959C13.1723 19.2959 12.9219 19.5463 12.9219 19.7028V22.8639C12.9219 22.8639 12.9532 22.9891 13.0471 22.9265L16.083 21.1738V24.7105C16.083 24.7105 16.1143 24.8357 16.2082 24.7731L18.9311 23.2082H18.9624Z" fill="url(#paint7_linear_51_14361)"/>
<defs>
<linearGradient id="paint0_linear_51_14361" x1="8.44136" y1="15.8188" x2="26.6353" y2="15.95" gradientUnits="userSpaceOnUse">
<stop stop-color="#E6F0FF"/>
<stop offset="0.24" stop-color="#E2ECFD"/>
<stop offset="0.47" stop-color="#D6E3F8"/>
<stop offset="0.69" stop-color="#C3D3F0"/>
<stop offset="0.91" stop-color="#A9BDE4"/>
<stop offset="1" stop-color="#9CB2DF"/>
</linearGradient>
<linearGradient id="paint1_linear_51_14361" x1="10.8121" y1="17.0308" x2="27.1287" y2="17.14" gradientUnits="userSpaceOnUse">
<stop stop-color="#E6F0FF"/>
<stop offset="0.24" stop-color="#E2ECFD"/>
<stop offset="0.47" stop-color="#D6E3F8"/>
<stop offset="0.69" stop-color="#C3D3F0"/>
<stop offset="0.91" stop-color="#A9BDE4"/>
<stop offset="1" stop-color="#9CB2DF"/>
</linearGradient>
<linearGradient id="paint2_linear_51_14361" x1="4.27796" y1="22.2318" x2="8.67992" y2="22.2445" gradientUnits="userSpaceOnUse">
<stop stop-color="#E6F0FF"/>
<stop offset="0.24" stop-color="#E2ECFD"/>
<stop offset="0.47" stop-color="#D6E3F8"/>
<stop offset="0.69" stop-color="#C3D3F0"/>
<stop offset="0.91" stop-color="#A9BDE4"/>
<stop offset="1" stop-color="#9CB2DF"/>
</linearGradient>
<linearGradient id="paint3_linear_51_14361" x1="11.196" y1="18.0359" x2="22.3964" y2="18.0359" gradientUnits="userSpaceOnUse">
<stop stop-color="#4AFFC7"/>
<stop offset="1" stop-color="#3BADEA"/>
</linearGradient>
<linearGradient id="paint4_linear_51_14361" x1="11.1675" y1="20.9057" x2="12.9195" y2="20.9057" gradientUnits="userSpaceOnUse">
<stop stop-color="#4AFFC7"/>
<stop offset="1" stop-color="#3BADEA"/>
</linearGradient>
<linearGradient id="paint5_linear_51_14361" x1="14.3628" y1="15.3257" x2="16.0522" y2="15.3257" gradientUnits="userSpaceOnUse">
<stop stop-color="#4AFFC7"/>
<stop offset="1" stop-color="#3BADEA"/>
</linearGradient>
<linearGradient id="paint6_linear_51_14361" x1="14.3628" y1="22.6636" x2="16.0835" y2="22.6636" gradientUnits="userSpaceOnUse">
<stop stop-color="#4AFFC7"/>
<stop offset="1" stop-color="#3BADEA"/>
</linearGradient>
<linearGradient id="paint7_linear_51_14361" x1="12.9191" y1="18.4978" x2="22.3988" y2="18.4978" gradientUnits="userSpaceOnUse">
<stop stop-color="#4AFFC7"/>
<stop offset="1" stop-color="#3BADEA"/>
</linearGradient>
</defs>
</svg>
