<svg width="31" height="47" viewBox="0 0 31 47" fill="none" xmlns="http://www.w3.org/2000/svg">
<path opacity="0.5" fill-rule="evenodd" clip-rule="evenodd" d="M26.1298 31.5016C32.1045 34.9157 32.1045 40.5801 26.1298 43.9942C20.1551 47.486 10.4558 47.486 4.48105 43.9942C-1.49368 40.5025 -1.49368 34.9157 4.48105 31.5016C10.4558 28.0099 20.1551 28.0099 26.1298 31.5016Z" fill="#E9E9EB"/>
<path opacity="0.5" fill-rule="evenodd" clip-rule="evenodd" d="M23.8862 32.8044C28.6194 35.5202 28.6194 39.9431 23.8862 42.6589C19.153 45.3747 11.5488 45.3747 6.81555 42.6589C2.08232 39.9431 2.08232 35.5202 6.81555 32.8044C11.5488 30.0886 19.153 30.0886 23.8862 32.8044Z" fill="#DDDEE1"/>
<path opacity="0.5" fill-rule="evenodd" clip-rule="evenodd" d="M21.5528 34.1303C25.0446 36.1477 25.0446 39.3291 21.5528 41.3465C18.1387 43.3639 12.4743 43.3639 9.0602 41.3465C5.56847 39.3291 5.56847 36.1477 9.0602 34.1303C12.5519 32.1128 18.1387 32.1128 21.5528 34.1303Z" fill="#D1D2D6"/>
<path fill-rule="evenodd" clip-rule="evenodd" d="M23.8902 25.5354L18.6914 22.5092V3.0332L23.8902 5.98175V25.5354Z" fill="#9C9C9C"/>
<path fill-rule="evenodd" clip-rule="evenodd" d="M23.8902 25.5354L18.6914 22.5092V3.0332L23.8902 5.98175V25.5354Z" fill="url(#paint0_linear_51_14594)"/>
<path fill-rule="evenodd" clip-rule="evenodd" d="M23.8902 5.9747L18.6914 3.02616L23.8902 0L29.0114 3.02616L23.8902 5.9747Z" fill="#C5CCD1"/>
<path fill-rule="evenodd" clip-rule="evenodd" d="M23.8902 5.9747L18.6914 3.02616L23.8902 0L29.0114 3.02616L23.8902 5.9747Z" fill="url(#paint1_linear_51_14594)"/>
<path fill-rule="evenodd" clip-rule="evenodd" d="M18.0626 28.7827L12.9414 25.8341V11.0137L18.0626 13.9622V28.7827Z" fill="#9C9C9C"/>
<path fill-rule="evenodd" clip-rule="evenodd" d="M18.0626 28.7827L12.9414 25.8341V11.0137L18.0626 13.9622V28.7827Z" fill="url(#paint2_linear_51_14594)"/>
<path fill-rule="evenodd" clip-rule="evenodd" d="M18.0626 28.7827L12.9414 25.8341V11.0137L18.0626 13.9622V28.7827Z" fill="url(#paint3_linear_51_14594)"/>
<path fill-rule="evenodd" clip-rule="evenodd" d="M18.0626 13.9474L12.9414 10.9988L18.1403 7.97266L23.2614 10.9212L18.0626 13.9474Z" fill="#C5CCD1"/>
<path fill-rule="evenodd" clip-rule="evenodd" d="M18.0626 13.9474L12.9414 10.9988L18.1403 7.97266L23.2614 10.9212L18.0626 13.9474Z" fill="url(#paint4_linear_51_14594)"/>
<path fill-rule="evenodd" clip-rule="evenodd" d="M18.0626 13.9474L12.9414 10.9988L18.1403 7.97266L23.2614 10.9212L18.0626 13.9474Z" fill="url(#paint5_linear_51_14594)"/>
<path fill-rule="evenodd" clip-rule="evenodd" d="M18.0664 28.79V13.9695L23.2652 10.9434V25.8414L18.0664 28.79Z" fill="#E6EAEB"/>
<path fill-rule="evenodd" clip-rule="evenodd" d="M18.0664 28.79V13.9695L23.2652 10.9434V25.8414L18.0664 28.79Z" fill="url(#paint6_linear_51_14594)"/>
<path fill-rule="evenodd" clip-rule="evenodd" d="M23.8867 25.5354V5.98175L29.0079 3.0332V22.5092L23.8867 25.5354Z" fill="#E6EAEB"/>
<path fill-rule="evenodd" clip-rule="evenodd" d="M23.8867 25.5354V5.98175L29.0079 3.0332V22.5092L23.8867 25.5354Z" fill="url(#paint7_linear_51_14594)"/>
<path fill-rule="evenodd" clip-rule="evenodd" d="M17.5231 18.9422L12.3244 15.916L7.20312 18.9422L12.3244 21.8908L17.5231 18.9422Z" fill="#C5CCD1"/>
<path fill-rule="evenodd" clip-rule="evenodd" d="M17.5231 18.9422L12.3244 15.916L7.20312 18.9422L12.3244 21.8908L17.5231 18.9422Z" fill="url(#paint8_linear_51_14594)"/>
<path fill-rule="evenodd" clip-rule="evenodd" d="M12.3244 21.8666L7.20312 18.918V29.1604L12.3244 32.109V21.8666Z" fill="#9C9C9C"/>
<path fill-rule="evenodd" clip-rule="evenodd" d="M12.3244 21.8666L7.20312 18.918V29.1604L12.3244 32.109V21.8666Z" fill="url(#paint9_linear_51_14594)"/>
<path fill-rule="evenodd" clip-rule="evenodd" d="M17.523 29.1604V18.918L12.3242 21.8666V32.109L17.523 29.1604Z" fill="#E6EAEB"/>
<path fill-rule="evenodd" clip-rule="evenodd" d="M17.523 29.1604V18.918L12.3242 21.8666V32.109L17.523 29.1604Z" fill="url(#paint10_linear_51_14594)"/>
<path fill-rule="evenodd" clip-rule="evenodd" d="M11.7765 26.8392L6.57768 23.8906L1.37891 26.9168L6.57768 29.8654L11.7765 26.8392Z" fill="#C5CCD1"/>
<path fill-rule="evenodd" clip-rule="evenodd" d="M11.7765 26.8392L6.57768 23.8906L1.37891 26.9168L6.57768 29.8654L11.7765 26.8392Z" fill="url(#paint11_linear_51_14594)"/>
<path fill-rule="evenodd" clip-rule="evenodd" d="M11.7765 26.8392L6.57768 23.8906L1.37891 26.9168L6.57768 29.8654L11.7765 26.8392Z" fill="url(#paint12_linear_51_14594)"/>
<path fill-rule="evenodd" clip-rule="evenodd" d="M6.57768 29.8646L1.37891 26.916V32.5028L6.57768 35.4514V29.8646Z" fill="#9C9C9C"/>
<path fill-rule="evenodd" clip-rule="evenodd" d="M6.57768 29.8646L1.37891 26.916V32.5028L6.57768 35.4514V29.8646Z" fill="url(#paint13_linear_51_14594)"/>
<path fill-rule="evenodd" clip-rule="evenodd" d="M6.57768 29.8646L1.37891 26.916V32.5028L6.57768 35.4514V29.8646Z" fill="url(#paint14_linear_51_14594)"/>
<path fill-rule="evenodd" clip-rule="evenodd" d="M6.57768 29.8646L1.37891 26.916V32.5028L6.57768 35.4514V29.8646Z" fill="url(#paint15_linear_51_14594)"/>
<path fill-rule="evenodd" clip-rule="evenodd" d="M11.7808 32.5237V26.8594L6.58203 29.8855V35.4723L11.7808 32.5237Z" fill="#E6EAEB"/>
<path fill-rule="evenodd" clip-rule="evenodd" d="M11.7808 32.5237V26.8594L6.58203 29.8855V35.4723L11.7808 32.5237Z" fill="url(#paint16_linear_51_14594)"/>
<path fill-rule="evenodd" clip-rule="evenodd" d="M15.8333 32.4066L15.2409 32.0681H15.2197L15.1986 32.0258H15.1774V31.9623V31.92L15.1562 31.8777V31.8353V31.793V31.7507V31.7084V31.6661V31.6237V31.5603L15.1986 31.4968V31.4333L17.4837 26.7572V26.7149L17.5261 26.6726V26.6302L17.5684 26.5879V26.5456L17.6318 26.5033V26.461L17.6953 26.4186L17.7376 26.3763L17.78 26.334L17.8223 26.2917H17.8646L17.9069 26.2282H17.9492L17.9915 26.1859H18.0339L20.4248 24.7683L21.4828 21.9753L22.0752 22.3138L21.0173 25.1068L18.6263 26.5033H18.584L18.5417 26.5456H18.4994L18.457 26.6091H18.4147L18.3724 26.6726L18.3301 26.7149L18.2878 26.7572V26.7995L18.2243 26.8418V26.8841L18.1608 26.9265V26.9688L18.1185 27.0111V27.0534L18.0762 27.0957L15.8122 31.7719V31.8353L15.7699 31.8988V31.9623L15.7487 32.0046V32.0469V32.0892V32.1316V32.1739V32.2162V32.2585V32.3008L15.791 32.322H15.8122L15.8333 32.3643H15.8545L15.8333 32.4066ZM23.2178 23.5833L22.6254 23.2448L22.5619 23.2025L22.5196 23.139V23.0755L22.4772 22.9909V22.1657L23.0485 22.5042V23.3294L23.0908 23.4141V23.4776L23.1543 23.541L23.2178 23.5833ZM20.8057 23.3083L20.7845 23.266V23.2237L20.5941 22.9063V22.8639L20.5729 22.8216V22.7793V22.737V22.6947V22.6524V22.61V22.5677V22.5254L20.6153 22.4831V22.4408L20.6576 22.3985V22.3561L20.721 22.3138L20.7634 22.2715L20.8057 22.2292L20.9115 22.1022L21.0173 21.9753L21.1231 21.8483L21.2289 21.7214L21.3347 21.5944L21.4405 21.4675L21.5462 21.3405L21.652 21.2136L21.7578 21.0866L21.8636 20.9596L21.9694 20.8327L22.0752 20.7057L22.181 20.5788L22.2868 20.4518L22.3926 20.3249L22.4984 20.1979L22.6042 20.071L22.71 19.944L22.8158 19.8171L22.9216 19.6901L23.0274 19.5632L23.1332 19.4362L23.239 19.3092L23.3448 19.1823L23.4506 19.0553L23.5563 18.9284L23.6621 18.8014L23.7679 18.6745L23.8737 18.5475L23.9795 18.4206L24.0853 18.2936L24.1911 18.1667L23.5987 17.8281L23.4929 17.9551L23.3871 18.082L23.2813 18.209L23.1755 18.3359L23.0697 18.4629L22.9639 18.5898L22.8581 18.7168L22.7523 18.8438L22.6465 18.9707L22.5407 19.0977L22.4349 19.2246L22.3291 19.3516L22.2233 19.4785L22.1175 19.6055L22.0117 19.7324L21.906 19.8594L21.8002 19.9863L21.6944 20.1133L21.5886 20.2402L21.4828 20.3672L21.377 20.4941L21.2712 20.6211L21.1654 20.7481L21.0596 20.875L20.9538 21.002L20.848 21.1289L20.7422 21.2559L20.6364 21.3828L20.5306 21.5098L20.4248 21.6367L20.319 21.7637L20.2132 21.8906L20.1709 21.933L20.1286 21.9753V22.0176L20.0651 22.0599V22.1022L20.0228 22.1445V22.1869L19.9805 22.2292V22.2715V22.3138V22.3561V22.3985V22.4408V22.4831V22.5254L20.0016 22.5677L20.1709 22.8851L20.1921 22.9486H20.2132L20.8057 23.3083Z" fill="#C43E3F"/>
<path fill-rule="evenodd" clip-rule="evenodd" d="M15.8333 32.4066L15.2409 32.0681H15.2197L15.1986 32.0258H15.1774V31.9623V31.92L15.1562 31.8777V31.8353V31.793V31.7507V31.7084V31.6661V31.6237V31.5603L15.1986 31.4968V31.4333L17.4837 26.7572V26.7149L17.5261 26.6726V26.6302L17.5684 26.5879V26.5456L17.6318 26.5033V26.461L17.6953 26.4186L17.7376 26.3763L17.78 26.334L17.8223 26.2917H17.8646L17.9069 26.2282H17.9492L17.9915 26.1859H18.0339L20.4248 24.7683L21.4828 21.9753L22.0752 22.3138L21.0173 25.1068L18.6263 26.5033H18.584L18.5417 26.5456H18.4994L18.457 26.6091H18.4147L18.3724 26.6726L18.3301 26.7149L18.2878 26.7572V26.7995L18.2243 26.8418V26.8841L18.1608 26.9265V26.9688L18.1185 27.0111V27.0534L18.0762 27.0957L15.8122 31.7719V31.8353L15.7699 31.8988V31.9623L15.7487 32.0046V32.0469V32.0892V32.1316V32.1739V32.2162V32.2585V32.3008L15.791 32.322H15.8122L15.8333 32.3643H15.8545L15.8333 32.4066ZM23.2178 23.5833L22.6254 23.2448L22.5619 23.2025L22.5196 23.139V23.0755L22.4772 22.9909V22.1657L23.0485 22.5042V23.3294L23.0908 23.4141V23.4776L23.1543 23.541L23.2178 23.5833ZM20.8057 23.3083L20.7845 23.266V23.2237L20.5941 22.9063V22.8639L20.5729 22.8216V22.7793V22.737V22.6947V22.6524V22.61V22.5677V22.5254L20.6153 22.4831V22.4408L20.6576 22.3985V22.3561L20.721 22.3138L20.7634 22.2715L20.8057 22.2292L20.9115 22.1022L21.0173 21.9753L21.1231 21.8483L21.2289 21.7214L21.3347 21.5944L21.4405 21.4675L21.5462 21.3405L21.652 21.2136L21.7578 21.0866L21.8636 20.9596L21.9694 20.8327L22.0752 20.7057L22.181 20.5788L22.2868 20.4518L22.3926 20.3249L22.4984 20.1979L22.6042 20.071L22.71 19.944L22.8158 19.8171L22.9216 19.6901L23.0274 19.5632L23.1332 19.4362L23.239 19.3092L23.3448 19.1823L23.4506 19.0553L23.5563 18.9284L23.6621 18.8014L23.7679 18.6745L23.8737 18.5475L23.9795 18.4206L24.0853 18.2936L24.1911 18.1667L23.5987 17.8281L23.4929 17.9551L23.3871 18.082L23.2813 18.209L23.1755 18.3359L23.0697 18.4629L22.9639 18.5898L22.8581 18.7168L22.7523 18.8438L22.6465 18.9707L22.5407 19.0977L22.4349 19.2246L22.3291 19.3516L22.2233 19.4785L22.1175 19.6055L22.0117 19.7324L21.906 19.8594L21.8002 19.9863L21.6944 20.1133L21.5886 20.2402L21.4828 20.3672L21.377 20.4941L21.2712 20.6211L21.1654 20.7481L21.0596 20.875L20.9538 21.002L20.848 21.1289L20.7422 21.2559L20.6364 21.3828L20.5306 21.5098L20.4248 21.6367L20.319 21.7637L20.2132 21.8906L20.1709 21.933L20.1286 21.9753V22.0176L20.0651 22.0599V22.1022L20.0228 22.1445V22.1869L19.9805 22.2292V22.2715V22.3138V22.3561V22.3985V22.4408V22.4831V22.5254L20.0016 22.5677L20.1709 22.8851L20.1921 22.9486H20.2132L20.8057 23.3083Z" fill="url(#paint17_linear_51_14594)"/>
<path fill-rule="evenodd" clip-rule="evenodd" d="M15.7903 31.7706L18.0543 27.0944C18.1178 26.9675 18.1813 26.8617 18.2659 26.7559C18.3505 26.6501 18.4352 26.5866 18.541 26.5231L20.9319 25.1267L21.9899 22.3337L21.3128 23.1166C21.1012 23.3493 20.8473 23.3916 20.7415 23.2224L20.5722 22.905C20.4664 22.7145 20.5722 22.376 20.7627 22.1432C21.9052 20.8525 23.0267 19.5407 24.1692 18.25C24.2116 19.6888 24.2539 21.1276 24.2962 22.5453C24.2962 22.7992 24.1269 23.1377 23.8942 23.2858L23.4922 23.5397C23.2594 23.6878 23.069 23.5821 23.0478 23.3281V22.503L21.7783 25.7403C21.7148 25.8672 21.6513 25.9942 21.5667 26.1C21.4821 26.2058 21.3763 26.3116 21.2705 26.375L18.816 27.7927L16.7425 32.0879C16.5943 32.3842 16.3404 32.5746 16.15 32.5111L15.8326 32.4053C15.6422 32.3419 15.621 32.0668 15.748 31.7706H15.7903Z" fill="#E74C3C"/>
<path fill-rule="evenodd" clip-rule="evenodd" d="M15.7903 31.7706L18.0543 27.0944C18.1178 26.9675 18.1813 26.8617 18.2659 26.7559C18.3505 26.6501 18.4352 26.5866 18.541 26.5231L20.9319 25.1267L21.9899 22.3337L21.3128 23.1166C21.1012 23.3493 20.8473 23.3916 20.7415 23.2224L20.5722 22.905C20.4664 22.7145 20.5722 22.376 20.7627 22.1432C21.9052 20.8525 23.0267 19.5407 24.1692 18.25C24.2116 19.6888 24.2539 21.1276 24.2962 22.5453C24.2962 22.7992 24.1269 23.1377 23.8942 23.2858L23.4922 23.5397C23.2594 23.6878 23.069 23.5821 23.0478 23.3281V22.503L21.7783 25.7403C21.7148 25.8672 21.6513 25.9942 21.5667 26.1C21.4821 26.2058 21.3763 26.3116 21.2705 26.375L18.816 27.7927L16.7425 32.0879C16.5943 32.3842 16.3404 32.5746 16.15 32.5111L15.8326 32.4053C15.6422 32.3419 15.621 32.0668 15.748 31.7706H15.7903Z" fill="url(#paint18_linear_51_14594)"/>
<defs>
<linearGradient id="paint0_linear_51_14594" x1="19.9077" y1="14.093" x2="23.9369" y2="14.1022" gradientUnits="userSpaceOnUse">
<stop stop-color="#E6F0FF"/>
<stop offset="0.24" stop-color="#E2ECFD"/>
<stop offset="0.47" stop-color="#D6E3F8"/>
<stop offset="0.69" stop-color="#C3D3F0"/>
<stop offset="0.91" stop-color="#A9BDE4"/>
<stop offset="1" stop-color="#9CB2DF"/>
</linearGradient>
<linearGradient id="paint1_linear_51_14594" x1="21.1058" y1="2.93657" x2="29.1019" y2="3.07312" gradientUnits="userSpaceOnUse">
<stop stop-color="#E6F0FF"/>
<stop offset="0.24" stop-color="#E2ECFD"/>
<stop offset="0.47" stop-color="#D6E3F8"/>
<stop offset="0.69" stop-color="#C3D3F0"/>
<stop offset="0.91" stop-color="#A9BDE4"/>
<stop offset="1" stop-color="#9CB2DF"/>
</linearGradient>
<linearGradient id="paint2_linear_51_14594" x1="14.1395" y1="19.7471" x2="18.1087" y2="19.7585" gradientUnits="userSpaceOnUse">
<stop stop-color="#E6F0FF"/>
<stop offset="0.24" stop-color="#E2ECFD"/>
<stop offset="0.47" stop-color="#D6E3F8"/>
<stop offset="0.69" stop-color="#C3D3F0"/>
<stop offset="0.91" stop-color="#A9BDE4"/>
<stop offset="1" stop-color="#9CB2DF"/>
</linearGradient>
<linearGradient id="paint3_linear_51_14594" x1="12.9399" y1="19.8982" x2="18.0592" y2="19.8982" gradientUnits="userSpaceOnUse">
<stop stop-color="#4AFFC7"/>
<stop offset="1" stop-color="#3BADEA"/>
</linearGradient>
<linearGradient id="paint4_linear_51_14594" x1="15.3558" y1="10.9092" x2="23.3519" y2="11.0458" gradientUnits="userSpaceOnUse">
<stop stop-color="#E6F0FF"/>
<stop offset="0.24" stop-color="#E2ECFD"/>
<stop offset="0.47" stop-color="#D6E3F8"/>
<stop offset="0.69" stop-color="#C3D3F0"/>
<stop offset="0.91" stop-color="#A9BDE4"/>
<stop offset="1" stop-color="#9CB2DF"/>
</linearGradient>
<linearGradient id="paint5_linear_51_14594" x1="12.9384" y1="10.96" x2="23.2545" y2="10.96" gradientUnits="userSpaceOnUse">
<stop stop-color="#4AFFC7"/>
<stop offset="1" stop-color="#3BADEA"/>
</linearGradient>
<linearGradient id="paint6_linear_51_14594" x1="19.2827" y1="19.715" x2="23.3119" y2="19.7266" gradientUnits="userSpaceOnUse">
<stop stop-color="#E6F0FF"/>
<stop offset="0.24" stop-color="#E2ECFD"/>
<stop offset="0.47" stop-color="#D6E3F8"/>
<stop offset="0.69" stop-color="#C3D3F0"/>
<stop offset="0.91" stop-color="#A9BDE4"/>
<stop offset="1" stop-color="#9CB2DF"/>
</linearGradient>
<linearGradient id="paint7_linear_51_14594" x1="25.0848" y1="14.093" x2="29.054" y2="14.102" gradientUnits="userSpaceOnUse">
<stop stop-color="#E6F0FF"/>
<stop offset="0.24" stop-color="#E2ECFD"/>
<stop offset="0.47" stop-color="#D6E3F8"/>
<stop offset="0.69" stop-color="#C3D3F0"/>
<stop offset="0.91" stop-color="#A9BDE4"/>
<stop offset="1" stop-color="#9CB2DF"/>
</linearGradient>
<linearGradient id="paint8_linear_51_14594" x1="9.61747" y1="18.8526" x2="17.6136" y2="18.9892" gradientUnits="userSpaceOnUse">
<stop stop-color="#E6F0FF"/>
<stop offset="0.24" stop-color="#E2ECFD"/>
<stop offset="0.47" stop-color="#D6E3F8"/>
<stop offset="0.69" stop-color="#C3D3F0"/>
<stop offset="0.91" stop-color="#A9BDE4"/>
<stop offset="1" stop-color="#9CB2DF"/>
</linearGradient>
<linearGradient id="paint9_linear_51_14594" x1="8.40123" y1="25.4013" x2="12.3704" y2="25.4166" gradientUnits="userSpaceOnUse">
<stop stop-color="#E6F0FF"/>
<stop offset="0.24" stop-color="#E2ECFD"/>
<stop offset="0.47" stop-color="#D6E3F8"/>
<stop offset="0.69" stop-color="#C3D3F0"/>
<stop offset="0.91" stop-color="#A9BDE4"/>
<stop offset="1" stop-color="#9CB2DF"/>
</linearGradient>
<linearGradient id="paint10_linear_51_14594" x1="13.5405" y1="25.4013" x2="17.5697" y2="25.417" gradientUnits="userSpaceOnUse">
<stop stop-color="#E6F0FF"/>
<stop offset="0.24" stop-color="#E2ECFD"/>
<stop offset="0.47" stop-color="#D6E3F8"/>
<stop offset="0.69" stop-color="#C3D3F0"/>
<stop offset="0.91" stop-color="#A9BDE4"/>
<stop offset="1" stop-color="#9CB2DF"/>
</linearGradient>
<linearGradient id="paint11_linear_51_14594" x1="3.8114" y1="26.8272" x2="11.8676" y2="26.9658" gradientUnits="userSpaceOnUse">
<stop stop-color="#E6F0FF"/>
<stop offset="0.24" stop-color="#E2ECFD"/>
<stop offset="0.47" stop-color="#D6E3F8"/>
<stop offset="0.69" stop-color="#C3D3F0"/>
<stop offset="0.91" stop-color="#A9BDE4"/>
<stop offset="1" stop-color="#9CB2DF"/>
</linearGradient>
<linearGradient id="paint12_linear_51_14594" x1="1.37589" y1="26.878" x2="11.7695" y2="26.878" gradientUnits="userSpaceOnUse">
<stop stop-color="#4AFFC7"/>
<stop offset="1" stop-color="#3BADEA"/>
</linearGradient>
<linearGradient id="paint13_linear_51_14594" x1="2.59515" y1="31.1112" x2="6.6243" y2="31.1354" gradientUnits="userSpaceOnUse">
<stop stop-color="#E6F0FF"/>
<stop offset="0.24" stop-color="#E2ECFD"/>
<stop offset="0.47" stop-color="#D6E3F8"/>
<stop offset="0.69" stop-color="#C3D3F0"/>
<stop offset="0.91" stop-color="#A9BDE4"/>
<stop offset="1" stop-color="#9CB2DF"/>
</linearGradient>
<linearGradient id="paint14_linear_51_14594" x1="2.59515" y1="31.1112" x2="6.6243" y2="31.1354" gradientUnits="userSpaceOnUse">
<stop stop-color="#E6F0FF"/>
<stop offset="0.24" stop-color="#E2ECFD"/>
<stop offset="0.47" stop-color="#D6E3F8"/>
<stop offset="0.69" stop-color="#C3D3F0"/>
<stop offset="0.91" stop-color="#A9BDE4"/>
<stop offset="1" stop-color="#9CB2DF"/>
</linearGradient>
<linearGradient id="paint15_linear_51_14594" x1="1.3774" y1="31.1837" x2="6.57422" y2="31.1837" gradientUnits="userSpaceOnUse">
<stop stop-color="#4AFFC7"/>
<stop offset="1" stop-color="#3BADEA"/>
</linearGradient>
<linearGradient id="paint16_linear_51_14594" x1="7.79828" y1="31.0926" x2="11.8274" y2="31.1167" gradientUnits="userSpaceOnUse">
<stop stop-color="#E6F0FF"/>
<stop offset="0.24" stop-color="#E2ECFD"/>
<stop offset="0.47" stop-color="#D6E3F8"/>
<stop offset="0.69" stop-color="#C3D3F0"/>
<stop offset="0.91" stop-color="#A9BDE4"/>
<stop offset="1" stop-color="#9CB2DF"/>
</linearGradient>
<linearGradient id="paint17_linear_51_14594" x1="15.1536" y1="25.1174" x2="24.1851" y2="25.1174" gradientUnits="userSpaceOnUse">
<stop stop-color="#3BADEA"/>
<stop offset="1" stop-color="#4AFFC7"/>
</linearGradient>
<linearGradient id="paint18_linear_51_14594" x1="15.6655" y1="25.3867" x2="24.2904" y2="25.3867" gradientUnits="userSpaceOnUse">
<stop stop-color="#4AFFC7"/>
<stop offset="1" stop-color="#3BADEA"/>
</linearGradient>
</defs>
</svg>
