<svg width="30" height="44" viewBox="0 0 30 44" fill="none" xmlns="http://www.w3.org/2000/svg">
<path opacity="0.5" fill-rule="evenodd" clip-rule="evenodd" d="M24.8295 29.063C30.4543 32.2772 30.4543 37.6097 24.8295 40.8239C19.2048 44.038 10.0738 44.038 4.44902 40.8239C-1.17572 37.5367 -1.17572 32.2772 4.44902 29.063C10.0738 25.7759 19.2048 25.7759 24.8295 29.063Z" fill="#E9E9EB"/>
<path opacity="0.5" fill-rule="evenodd" clip-rule="evenodd" d="M22.7096 30.3081C27.1656 32.8648 27.1656 37.0286 22.7096 39.5853C18.2537 42.142 11.0948 42.142 6.63885 39.5853C2.18288 37.0286 2.18288 32.8648 6.63885 30.3081C11.0948 27.7515 18.2537 27.7515 22.7096 30.3081Z" fill="#DDDEE1"/>
<path opacity="0.5" fill-rule="evenodd" clip-rule="evenodd" d="M20.5192 31.5573C23.8064 33.4565 23.8064 36.4515 20.5192 38.3508C17.305 40.25 11.9725 40.25 8.75836 38.3508C5.47117 36.4515 5.47117 33.4565 8.75836 31.5573C12.0455 29.658 17.305 29.658 20.5192 31.5573Z" fill="#D1D2D6"/>
<path fill-rule="evenodd" clip-rule="evenodd" d="M27.0286 22.3465L21.9883 19.3516L22.1344 19.4976L22.2804 19.5707L22.4266 19.6438L22.5727 19.7898L22.7188 19.8629L22.9379 19.936L27.9782 22.9309L27.8322 22.7849L27.6861 22.7118L27.5399 22.5657L27.3939 22.4927L27.1748 22.4196L27.0286 22.3465Z" fill="#B8B4B4"/>
<path fill-rule="evenodd" clip-rule="evenodd" d="M28.8563 3.63599L26.4457 2.24805C26.4457 2.24805 25.9343 2.24808 25.7152 2.39418C21.0401 5.09697 16.365 7.79977 11.6899 10.5026L11.2516 10.7948L10.8133 11.087C10.4481 11.3061 10.1559 11.5983 9.93679 11.9635C9.71764 12.4018 9.64453 12.7671 9.64453 13.1323V25.5506L12.0551 26.9385V14.8124V14.5202C12.0551 14.5202 12.0551 14.228 12.0551 14.155C12.2012 13.4976 12.5665 12.9862 13.0048 12.5479V12.4749L13.4431 12.1827L13.8814 11.8905L14.3196 11.5983C18.0451 9.40685 21.7706 7.28845 25.4961 5.09699L25.9343 4.80479L26.3727 4.51259L26.811 4.22039L27.2493 3.92819L27.6875 3.63599C27.6875 3.63599 28.1259 3.41687 28.4181 3.48991L28.8563 3.63599Z" fill="#BAB8B8"/>
<path fill-rule="evenodd" clip-rule="evenodd" d="M28.8563 3.63599L26.4457 2.24805C26.4457 2.24805 25.9343 2.24808 25.7152 2.39418C21.0401 5.09697 16.365 7.79977 11.6899 10.5026L11.2516 10.7948L10.8133 11.087C10.4481 11.3061 10.1559 11.5983 9.93679 11.9635C9.71764 12.4018 9.64453 12.7671 9.64453 13.1323V25.5506L12.0551 26.9385V14.8124V14.5202C12.0551 14.5202 12.0551 14.228 12.0551 14.155C12.2012 13.4976 12.5665 12.9862 13.0048 12.5479V12.4749L13.4431 12.1827L13.8814 11.8905L14.3196 11.5983C18.0451 9.40685 21.7706 7.28845 25.4961 5.09699L25.9343 4.80479L26.3727 4.51259L26.811 4.22039L27.2493 3.92819L27.6875 3.63599C27.6875 3.63599 28.1259 3.41687 28.4181 3.48991L28.8563 3.63599Z" fill="url(#paint0_linear_51_14327)"/>
<path fill-rule="evenodd" clip-rule="evenodd" d="M22.5061 22.2663C25.428 20.8054 26.5238 22.0472 28.35 23.0699C28.35 21.5359 28.35 20.1479 28.0578 18.8331C28.7153 18.3948 29.2266 17.5182 29.2266 16.7146C29.2266 13.7197 29.2266 7.43747 29.2266 4.44248C29.2266 3.712 28.7153 3.34678 28.0578 3.78507C23.0905 6.63397 18.1232 9.55591 13.0829 12.4048C12.4254 12.77 11.9141 13.7196 11.9141 14.5232V26.9415C11.9141 26.9415 12.0601 27.5258 12.3523 27.6719C12.6445 27.818 12.9367 27.818 13.1559 27.6719L22.4331 22.3394L22.5061 22.2663Z" fill="#CCCCCC"/>
<path fill-rule="evenodd" clip-rule="evenodd" d="M22.5061 22.2663C25.428 20.8054 26.5238 22.0472 28.35 23.0699C28.35 21.5359 28.35 20.1479 28.0578 18.8331C28.7153 18.3948 29.2266 17.5182 29.2266 16.7146C29.2266 13.7197 29.2266 7.43747 29.2266 4.44248C29.2266 3.712 28.7153 3.34678 28.0578 3.78507C23.0905 6.63397 18.1232 9.55591 13.0829 12.4048C12.4254 12.77 11.9141 13.7196 11.9141 14.5232V26.9415C11.9141 26.9415 12.0601 27.5258 12.3523 27.6719C12.6445 27.818 12.9367 27.818 13.1559 27.6719L22.4331 22.3394L22.5061 22.2663Z" fill="url(#paint1_linear_51_14327)"/>
<path fill-rule="evenodd" clip-rule="evenodd" d="M26.4362 14.6055L14.8945 21.2529V22.4217L26.4362 15.7012V14.6055Z" fill="#3D566E"/>
<path fill-rule="evenodd" clip-rule="evenodd" d="M26.4362 14.6055L14.8945 21.2529V22.4217L26.4362 15.7012V14.6055Z" fill="url(#paint2_linear_51_14327)"/>
<path fill-rule="evenodd" clip-rule="evenodd" d="M25.5597 11.8438L14.8945 17.9798V19.1486L25.5597 13.0125V11.8438Z" fill="#3D566E"/>
<path fill-rule="evenodd" clip-rule="evenodd" d="M25.5597 11.8438L14.8945 17.9798V19.1486L25.5597 13.0125V11.8438Z" fill="url(#paint3_linear_51_14327)"/>
<path fill-rule="evenodd" clip-rule="evenodd" d="M26.4362 8.24805L14.8945 14.9686V16.0643L26.4362 9.41685V8.24805Z" fill="#3D566E"/>
<path fill-rule="evenodd" clip-rule="evenodd" d="M26.4362 8.24805L14.8945 14.9686V16.0643L26.4362 9.41685V8.24805Z" fill="url(#paint4_linear_51_14327)"/>
<path fill-rule="evenodd" clip-rule="evenodd" d="M4.60471 28.1799C4.67776 27.0842 4.89691 26.1346 5.18911 24.9658L4.45869 25.4041C3.94735 25.6963 3.58203 25.4041 3.58203 24.8928V12.9858C3.58203 12.4014 4.02036 11.6709 4.5317 11.3787C9.42595 8.52985 14.3202 5.75403 19.2144 2.90514C19.7258 2.61295 20.0911 2.90514 20.0911 3.41648C20.0911 6.19232 20.0911 12.4745 20.0911 15.2504C20.0911 15.5426 20.018 15.8347 19.7988 16.1269C19.6527 16.4191 19.4336 16.6383 19.1414 16.7844C14.6124 19.268 7.01531 23.1396 4.60471 28.0339V28.1799Z" fill="#E6EAEB"/>
<path fill-rule="evenodd" clip-rule="evenodd" d="M3.94457 26.5897L2.62975 25.7861V12.8566C2.62975 12.4183 2.77576 11.98 2.99491 11.6147C3.21405 11.1765 3.4332 10.9573 3.79844 10.7381L4.30984 10.4459L4.82112 10.1537L5.33251 9.86154C9.93457 7.2318 14.5366 4.52903 19.1387 1.89928L19.65 1.60708C19.65 1.60708 20.1613 1.38792 20.4535 1.53401L17.8238 0C17.8238 0 17.3124 1.56065e-05 17.0202 0.0730642C11.9068 3.06805 6.79348 5.98999 1.68009 8.91193C1.02265 9.27717 0.730396 9.42324 0.365154 10.0807C0.146008 10.519 0 10.9573 0 11.3956V24.3982V24.5443V24.6904V24.8365V24.9096V24.9826V25.0557L0.876547 25.567V25.7861V25.9323V26.0783V26.2245V26.3705V26.5166V26.6627V26.8088V26.9549V27.101V27.2471V27.3932V27.5393V27.6854V27.8315V27.9776V28.1237V28.2698V28.4159V29.0003V29.1464V29.4386V29.5847V29.7308L3.5063 31.2648V31.1187V30.9726V30.8265V30.6804V30.5343V30.3882V30.096V29.9499V29.8038V29.6577V29.5116V29.3655V29.2194V29.0733V28.9272V28.7811V28.635V28.4889V28.3428V28.1967V28.0507V27.9045V27.7585V27.6123V27.4663V27.3201V27.1741V27.028V26.8819V26.7358V26.5897H3.94457Z" fill="#BDBDBD"/>
<path fill-rule="evenodd" clip-rule="evenodd" d="M3.94457 26.5897L2.62975 25.7861V12.8566C2.62975 12.4183 2.77576 11.98 2.99491 11.6147C3.21405 11.1765 3.4332 10.9573 3.79844 10.7381L4.30984 10.4459L4.82112 10.1537L5.33251 9.86154C9.93457 7.2318 14.5366 4.52903 19.1387 1.89928L19.65 1.60708C19.65 1.60708 20.1613 1.38792 20.4535 1.53401L17.8238 0C17.8238 0 17.3124 1.56065e-05 17.0202 0.0730642C11.9068 3.06805 6.79348 5.98999 1.68009 8.91193C1.02265 9.27717 0.730396 9.42324 0.365154 10.0807C0.146008 10.519 0 10.9573 0 11.3956V24.3982V24.5443V24.6904V24.8365V24.9096V24.9826V25.0557L0.876547 25.567V25.7861V25.9323V26.0783V26.2245V26.3705V26.5166V26.6627V26.8088V26.9549V27.101V27.2471V27.3932V27.5393V27.6854V27.8315V27.9776V28.1237V28.2698V28.4159V29.0003V29.1464V29.4386V29.5847V29.7308L3.5063 31.2648V31.1187V30.9726V30.8265V30.6804V30.5343V30.3882V30.096V29.9499V29.8038V29.6577V29.5116V29.3655V29.2194V29.0733V28.9272V28.7811V28.635V28.4889V28.3428V28.1967V28.0507V27.9045V27.7585V27.6123V27.4663V27.3201V27.1741V27.028V26.8819V26.7358V26.5897H3.94457Z" fill="url(#paint5_linear_51_14327)"/>
<path fill-rule="evenodd" clip-rule="evenodd" d="M3.94182 26.5887L3.06527 26.7348L0.800781 25.4199L1.23905 25.6391V25.7121L1.16593 25.8582V26.0043V26.1504L1.09293 26.3695V26.5156V26.6617V26.8078V26.9539V27.1L1.01992 27.2461V27.3922V27.5383V27.6844V27.8305V27.9766V28.1227V28.2688V28.4149V28.561V28.7071V28.8532V28.9993V29.1454V29.2915V29.4376V29.5837V29.7298V29.8759L3.64967 31.4099V31.2638V31.1177V30.9716V30.8255V30.6794V30.5333V30.3872V30.2411V30.095V29.9489V29.8028V29.6567V29.5106V29.3646V29.2184V29.0723V28.9262V28.7801L3.72268 28.634V28.4879V28.3418V28.1957V27.9766V27.8305L3.79569 27.6844V27.5383V27.3922L3.86881 27.2461V27.1V26.8809L3.94182 26.7348V26.5887Z" fill="#BCCBCF"/>
<path fill-rule="evenodd" clip-rule="evenodd" d="M20.9641 15.4195C20.9641 12.2053 20.9641 5.55789 20.9641 2.34376C20.9641 1.54022 20.3797 1.17499 19.7222 1.61328C14.4627 4.68132 9.20326 7.67631 3.87072 10.7444C3.14023 11.1826 2.62891 12.1323 2.62891 12.9358V25.9385C2.62891 26.742 3.21328 27.1072 3.87072 26.6689C3.50548 28.4221 3.57846 29.8831 3.57846 31.4171C4.0898 30.5405 4.60119 29.6639 5.11253 28.7874C8.32667 23.1626 14.6088 20.3867 19.5761 17.6839C19.9414 17.4648 20.2336 17.1726 20.5258 16.7343C20.7449 16.296 20.891 15.8578 20.891 15.4925L20.9641 15.4195Z" fill="#E6EAEB"/>
<path fill-rule="evenodd" clip-rule="evenodd" d="M20.9641 15.4195C20.9641 12.2053 20.9641 5.55789 20.9641 2.34376C20.9641 1.54022 20.3797 1.17499 19.7222 1.61328C14.4627 4.68132 9.20326 7.67631 3.87072 10.7444C3.14023 11.1826 2.62891 12.1323 2.62891 12.9358V25.9385C2.62891 26.742 3.21328 27.1072 3.87072 26.6689C3.50548 28.4221 3.57846 29.8831 3.57846 31.4171C4.0898 30.5405 4.60119 29.6639 5.11253 28.7874C8.32667 23.1626 14.6088 20.3867 19.5761 17.6839C19.9414 17.4648 20.2336 17.1726 20.5258 16.7343C20.7449 16.296 20.891 15.8578 20.891 15.4925L20.9641 15.4195Z" fill="url(#paint6_linear_51_14327)"/>
<path fill-rule="evenodd" clip-rule="evenodd" d="M5.69141 20.0857L13.5807 15.5566V16.7254L5.69141 21.2545V20.0857Z" fill="#2C3E50"/>
<path fill-rule="evenodd" clip-rule="evenodd" d="M5.69141 20.0857L13.5807 15.5566V16.7254L5.69141 21.2545V20.0857Z" fill="url(#paint7_linear_51_14327)"/>
<path fill-rule="evenodd" clip-rule="evenodd" d="M5.69141 16.5713L17.8905 9.55859V10.8005L5.69141 17.8131V16.5713Z" fill="#2C3E50"/>
<path fill-rule="evenodd" clip-rule="evenodd" d="M5.69141 16.5713L17.8905 9.55859V10.8005L5.69141 17.8131V16.5713Z" fill="url(#paint8_linear_51_14327)"/>
<path fill-rule="evenodd" clip-rule="evenodd" d="M5.69141 13.3693L16.5026 7.16016V8.3289L5.69141 14.6111V13.3693Z" fill="#2C3E50"/>
<path fill-rule="evenodd" clip-rule="evenodd" d="M5.69141 13.3693L16.5026 7.16016V8.3289L5.69141 14.6111V13.3693Z" fill="url(#paint9_linear_51_14327)"/>
<path fill-rule="evenodd" clip-rule="evenodd" d="M3.06803 11.6044L0.438274 10.0703L0.365154 10.1434L0.292145 10.2164V10.2895L0.219137 10.3625V10.4356L0.146017 10.5086V10.5817V10.6547L0.0730084 10.7278V10.8008V10.9469L0 11.02V11.093V11.1661V11.2391V11.3122V11.3852V24.3148V24.4609V24.534V24.607V24.68L0.0730084 24.7531V24.8262V24.8992H0.146017V24.9722L0.219137 25.0453V25.1184H0.292145L1.24181 25.6297V25.7028L1.16869 25.8488V25.9949V26.141L1.09568 26.3602V26.5062V26.6524V26.7984V26.9446V27.0906L1.02268 27.2368V27.3828V27.529V27.675V27.8211V27.9672V28.1133V28.2594V28.4055V28.5516V28.6977V28.8438V28.9899V29.136V29.2821V29.4282V29.5743V29.7204V29.8665L3.65243 31.4005V31.2544V31.1083V30.9622V30.8161V30.6701V30.5239V30.3779V30.2317V30.0857V29.9395V29.7935V29.6473V29.5013V29.3552V29.2091V29.063V28.9169V28.7708L3.72544 28.6247V28.4786V28.3325V28.1864V27.9672V27.8211L3.79844 27.675V27.529V27.3828L3.87156 27.2368V27.0906V26.8715L3.94457 26.7254V26.5793L2.62975 25.7758V12.9193V12.8462V12.7731V12.7001V12.6271L2.70276 12.4809V12.4079V12.3349V12.2618L2.77577 12.1887V12.1157L2.84889 12.0427V11.9696V11.8965L2.9219 11.8235L2.99491 11.7505V11.6774L3.06803 11.6044Z" fill="#9C9C9C"/>
<path fill-rule="evenodd" clip-rule="evenodd" d="M3.06803 11.6044L0.438274 10.0703L0.365154 10.1434L0.292145 10.2164V10.2895L0.219137 10.3625V10.4356L0.146017 10.5086V10.5817V10.6547L0.0730084 10.7278V10.8008V10.9469L0 11.02V11.093V11.1661V11.2391V11.3122V11.3852V24.3148V24.4609V24.534V24.607V24.68L0.0730084 24.7531V24.8262V24.8992H0.146017V24.9722L0.219137 25.0453V25.1184H0.292145L1.24181 25.6297V25.7028L1.16869 25.8488V25.9949V26.141L1.09568 26.3602V26.5062V26.6524V26.7984V26.9446V27.0906L1.02268 27.2368V27.3828V27.529V27.675V27.8211V27.9672V28.1133V28.2594V28.4055V28.5516V28.6977V28.8438V28.9899V29.136V29.2821V29.4282V29.5743V29.7204V29.8665L3.65243 31.4005V31.2544V31.1083V30.9622V30.8161V30.6701V30.5239V30.3779V30.2317V30.0857V29.9395V29.7935V29.6473V29.5013V29.3552V29.2091V29.063V28.9169V28.7708L3.72544 28.6247V28.4786V28.3325V28.1864V27.9672V27.8211L3.79844 27.675V27.529V27.3828L3.87156 27.2368V27.0906V26.8715L3.94457 26.7254V26.5793L2.62975 25.7758V12.9193V12.8462V12.7731V12.7001V12.6271L2.70276 12.4809V12.4079V12.3349V12.2618L2.77577 12.1887V12.1157L2.84889 12.0427V11.9696V11.8965L2.9219 11.8235L2.99491 11.7505V11.6774L3.06803 11.6044Z" fill="url(#paint10_linear_51_14327)"/>
<defs>
<linearGradient id="paint0_linear_51_14327" x1="14.1391" y1="14.3834" x2="29.0283" y2="14.4979" gradientUnits="userSpaceOnUse">
<stop stop-color="#E6F0FF"/>
<stop offset="0.24" stop-color="#E2ECFD"/>
<stop offset="0.47" stop-color="#D6E3F8"/>
<stop offset="0.69" stop-color="#C3D3F0"/>
<stop offset="0.91" stop-color="#A9BDE4"/>
<stop offset="1" stop-color="#9CB2DF"/>
</linearGradient>
<linearGradient id="paint1_linear_51_14327" x1="15.9643" y1="15.483" x2="29.3817" y2="15.578" gradientUnits="userSpaceOnUse">
<stop stop-color="#E6F0FF"/>
<stop offset="0.24" stop-color="#E2ECFD"/>
<stop offset="0.47" stop-color="#D6E3F8"/>
<stop offset="0.69" stop-color="#C3D3F0"/>
<stop offset="0.91" stop-color="#A9BDE4"/>
<stop offset="1" stop-color="#9CB2DF"/>
</linearGradient>
<linearGradient id="paint2_linear_51_14327" x1="14.8912" y1="18.5136" x2="26.4285" y2="18.5136" gradientUnits="userSpaceOnUse">
<stop stop-color="#4AFFC7"/>
<stop offset="1" stop-color="#3BADEA"/>
</linearGradient>
<linearGradient id="paint3_linear_51_14327" x1="14.8914" y1="15.4962" x2="25.5526" y2="15.4962" gradientUnits="userSpaceOnUse">
<stop stop-color="#4AFFC7"/>
<stop offset="1" stop-color="#3BADEA"/>
</linearGradient>
<linearGradient id="paint4_linear_51_14327" x1="14.8912" y1="12.1562" x2="26.4285" y2="12.1562" gradientUnits="userSpaceOnUse">
<stop stop-color="#4AFFC7"/>
<stop offset="1" stop-color="#3BADEA"/>
</linearGradient>
<linearGradient id="paint5_linear_51_14327" x1="4.78506" y1="15.3666" x2="20.6368" y2="15.4692" gradientUnits="userSpaceOnUse">
<stop stop-color="#E6F0FF"/>
<stop offset="0.24" stop-color="#E2ECFD"/>
<stop offset="0.47" stop-color="#D6E3F8"/>
<stop offset="0.69" stop-color="#C3D3F0"/>
<stop offset="0.91" stop-color="#A9BDE4"/>
<stop offset="1" stop-color="#9CB2DF"/>
</linearGradient>
<linearGradient id="paint6_linear_51_14327" x1="6.91838" y1="16.1665" x2="21.1285" y2="16.2524" gradientUnits="userSpaceOnUse">
<stop stop-color="#E6F0FF"/>
<stop offset="0.24" stop-color="#E2ECFD"/>
<stop offset="0.47" stop-color="#D6E3F8"/>
<stop offset="0.69" stop-color="#C3D3F0"/>
<stop offset="0.91" stop-color="#A9BDE4"/>
<stop offset="1" stop-color="#9CB2DF"/>
</linearGradient>
<linearGradient id="paint7_linear_51_14327" x1="5.68912" y1="18.4056" x2="13.5754" y2="18.4056" gradientUnits="userSpaceOnUse">
<stop stop-color="#4AFFC7"/>
<stop offset="1" stop-color="#3BADEA"/>
</linearGradient>
<linearGradient id="paint8_linear_51_14327" x1="5.68787" y1="13.6859" x2="17.8824" y2="13.6859" gradientUnits="userSpaceOnUse">
<stop stop-color="#4AFFC7"/>
<stop offset="1" stop-color="#3BADEA"/>
</linearGradient>
<linearGradient id="paint9_linear_51_14327" x1="5.68828" y1="10.8856" x2="16.4953" y2="10.8856" gradientUnits="userSpaceOnUse">
<stop stop-color="#4AFFC7"/>
<stop offset="1" stop-color="#3BADEA"/>
</linearGradient>
<linearGradient id="paint10_linear_51_14327" x1="0.922826" y1="20.5541" x2="3.98005" y2="20.5597" gradientUnits="userSpaceOnUse">
<stop stop-color="#E6F0FF"/>
<stop offset="0.24" stop-color="#E2ECFD"/>
<stop offset="0.47" stop-color="#D6E3F8"/>
<stop offset="0.69" stop-color="#C3D3F0"/>
<stop offset="0.91" stop-color="#A9BDE4"/>
<stop offset="1" stop-color="#9CB2DF"/>
</linearGradient>
</defs>
</svg>
