<svg width="31" height="47" viewBox="0 0 31 47" fill="none" xmlns="http://www.w3.org/2000/svg">
<path opacity="0.5" fill-rule="evenodd" clip-rule="evenodd" d="M26.1298 31.6563C32.1045 35.0704 32.1045 40.7348 26.1298 44.1489C20.155 47.6407 10.4558 47.6407 4.48105 44.1489C-1.49368 40.7348 -1.49368 35.0704 4.48105 31.6563C10.4558 28.2422 20.155 28.2422 26.1298 31.6563Z" fill="#E9E9EB"/>
<path opacity="0.5" fill-rule="evenodd" clip-rule="evenodd" d="M23.8784 32.9841C28.6116 35.6999 28.6116 40.1227 23.8784 42.8384C19.1451 45.5542 11.541 45.5542 6.80773 42.8384C2.07451 40.1227 2.07451 35.6999 6.80773 32.9841C11.541 30.2683 19.1451 30.2683 23.8784 32.9841Z" fill="#DDDEE1"/>
<path opacity="0.5" fill-rule="evenodd" clip-rule="evenodd" d="M21.6231 34.3119C25.1149 36.3294 25.1149 39.5106 21.6231 41.5281C18.209 43.5455 12.5446 43.5455 9.13051 41.5281C5.63879 39.5106 5.63879 36.3294 9.13051 34.3119C12.6222 32.2945 18.209 32.2945 21.6231 34.3119Z" fill="#D1D2D6"/>
<path fill-rule="evenodd" clip-rule="evenodd" d="M20.8441 28.6196L19.9906 28.1539L19.8354 27.9988L19.7578 27.6108V25.8262L20.6114 26.3693V28.1539L20.6889 28.4643L20.8441 28.6196Z" fill="#F0B11D"/>
<path fill-rule="evenodd" clip-rule="evenodd" d="M20.8441 28.6196L19.9906 28.1539L19.8354 27.9988L19.7578 27.6108V25.8262L20.6114 26.3693V28.1539L20.6889 28.4643L20.8441 28.6196Z" fill="url(#paint0_linear_51_14430)"/>
<path fill-rule="evenodd" clip-rule="evenodd" d="M20.6114 26.3732L19.7578 25.8301L21.3097 24.9766L22.1632 25.4421L20.6114 26.3732Z" fill="#F0B11D"/>
<path fill-rule="evenodd" clip-rule="evenodd" d="M15.1215 31.9907L14.2679 31.5251L14.1127 31.3699L14.0352 30.9819V29.1973L14.8887 29.6628V31.4474L14.9663 31.8354L15.1215 31.9907Z" fill="#F0B11D"/>
<path fill-rule="evenodd" clip-rule="evenodd" d="M15.1215 31.9907L14.2679 31.5251L14.1127 31.3699L14.0352 30.9819V29.1973L14.8887 29.6628V31.4474L14.9663 31.8354L15.1215 31.9907Z" fill="url(#paint1_linear_51_14430)"/>
<path fill-rule="evenodd" clip-rule="evenodd" d="M14.8887 29.6296L14.0352 29.1641L15.587 28.3105L16.4405 28.7761L14.8887 29.6296Z" fill="#F0B11D"/>
<path fill-rule="evenodd" clip-rule="evenodd" d="M9.37537 35.3245L8.52183 34.859L8.36664 34.6262L8.28906 34.3159V32.5312L9.1426 32.9968V34.7814L9.22018 35.1694L9.37537 35.3245Z" fill="#F0B11D"/>
<path fill-rule="evenodd" clip-rule="evenodd" d="M9.37537 35.3245L8.52183 34.859L8.36664 34.6262L8.28906 34.3159V32.5312L9.1426 32.9968V34.7814L9.22018 35.1694L9.37537 35.3245Z" fill="url(#paint2_linear_51_14430)"/>
<path fill-rule="evenodd" clip-rule="evenodd" d="M9.1426 32.9617L8.28906 32.4961L9.84095 31.6426L10.6945 32.1081L9.1426 32.9617Z" fill="#F0B11D"/>
<path fill-rule="evenodd" clip-rule="evenodd" d="M10.6925 32.127V33.9116C10.6925 35.0755 9.14062 35.929 9.14062 34.7651V32.9805L10.6925 32.127Z" fill="#FFCB05"/>
<path fill-rule="evenodd" clip-rule="evenodd" d="M10.6925 32.127V33.9116C10.6925 35.0755 9.14062 35.929 9.14062 34.7651V32.9805L10.6925 32.127Z" fill="url(#paint3_linear_51_14430)"/>
<path fill-rule="evenodd" clip-rule="evenodd" d="M16.4347 28.7969V30.5816C16.4347 31.7455 14.8828 32.5989 14.8828 31.435V29.6504L16.4347 28.7969Z" fill="#FFCB05"/>
<path fill-rule="evenodd" clip-rule="evenodd" d="M16.4347 28.7969V30.5816C16.4347 31.7455 14.8828 32.5989 14.8828 31.435V29.6504L16.4347 28.7969Z" fill="url(#paint4_linear_51_14430)"/>
<path fill-rule="evenodd" clip-rule="evenodd" d="M22.1769 25.4609V27.2456C22.1769 28.4095 20.625 29.263 20.625 28.0991V26.3145L22.1769 25.4609Z" fill="#FFCB05"/>
<path fill-rule="evenodd" clip-rule="evenodd" d="M22.1769 25.4609V27.2456C22.1769 28.4095 20.625 29.263 20.625 28.0991V26.3145L22.1769 25.4609Z" fill="url(#paint5_linear_51_14430)"/>
<path fill-rule="evenodd" clip-rule="evenodd" d="M25.4356 4.74969L24.582 4.28403L26.1339 3.35294L26.5219 3.27539L26.7547 3.35294L27.6082 3.81849L27.3754 3.74094L26.9875 3.89616L25.4356 4.74969Z" fill="#F0B11D"/>
<path fill-rule="evenodd" clip-rule="evenodd" d="M25.4356 4.74969L24.582 4.28403L26.1339 3.35294L26.5219 3.27539L26.7547 3.35294L27.6082 3.81849L27.3754 3.74094L26.9875 3.89616L25.4356 4.74969Z" fill="url(#paint6_linear_51_14430)"/>
<path fill-rule="evenodd" clip-rule="evenodd" d="M25.4356 6.52177L24.582 6.05623V4.27148L25.4356 4.73715V6.52177Z" fill="#F0B11D"/>
<path fill-rule="evenodd" clip-rule="evenodd" d="M25.4356 11.4216L24.582 10.8784L26.1339 10.0248L26.5219 9.94727H26.7547L27.6082 10.4904L27.2978 10.4128L26.9875 10.4904L25.4356 11.4216Z" fill="#F0B11D"/>
<path fill-rule="evenodd" clip-rule="evenodd" d="M25.4356 11.4216L24.582 10.8784L26.1339 10.0248L26.5219 9.94727H26.7547L27.6082 10.4904L27.2978 10.4128L26.9875 10.4904L25.4356 11.4216Z" fill="url(#paint7_linear_51_14430)"/>
<path fill-rule="evenodd" clip-rule="evenodd" d="M25.4356 13.1058L24.582 12.6401V10.8555L25.4356 11.3987V13.1058Z" fill="#F0B11D"/>
<path fill-rule="evenodd" clip-rule="evenodd" d="M25.4356 17.9977L24.582 17.5322L26.1339 16.6787L26.5219 16.5234L26.7547 16.6011L27.5306 17.0667L27.2978 16.9891L26.9875 17.1442L25.4356 17.9977Z" fill="#F0B11D"/>
<path fill-rule="evenodd" clip-rule="evenodd" d="M25.4356 17.9977L24.582 17.5322L26.1339 16.6787L26.5219 16.5234L26.7547 16.6011L27.5306 17.0667L27.2978 16.9891L26.9875 17.1442L25.4356 17.9977Z" fill="url(#paint8_linear_51_14430)"/>
<path fill-rule="evenodd" clip-rule="evenodd" d="M25.4356 19.8029L24.582 19.3374V17.5527L25.4356 18.0183V19.8029Z" fill="#F0B11D"/>
<path fill-rule="evenodd" clip-rule="evenodd" d="M25.4336 17.9939L26.9855 17.1403C27.9942 16.5972 27.9942 18.3043 26.9855 18.9251L25.4336 19.7785V17.9939Z" fill="#FFCB05"/>
<path fill-rule="evenodd" clip-rule="evenodd" d="M25.4336 17.9939L26.9855 17.1403C27.9942 16.5972 27.9942 18.3043 26.9855 18.9251L25.4336 19.7785V17.9939Z" fill="url(#paint9_linear_51_14430)"/>
<path fill-rule="evenodd" clip-rule="evenodd" d="M25.4336 11.4163L26.9855 10.5628C27.9942 9.94203 27.9942 11.7267 26.9855 12.3474L25.4336 13.2009V11.4163Z" fill="#FFCB05"/>
<path fill-rule="evenodd" clip-rule="evenodd" d="M25.4336 11.4163L26.9855 10.5628C27.9942 9.94203 27.9942 11.7267 26.9855 12.3474L25.4336 13.2009V11.4163Z" fill="url(#paint10_linear_51_14430)"/>
<path fill-rule="evenodd" clip-rule="evenodd" d="M25.4336 4.74386L26.9855 3.89032C27.9942 3.34716 27.9942 5.0542 26.9855 5.67495L25.4336 6.52848V4.74386Z" fill="#FFCB05"/>
<path fill-rule="evenodd" clip-rule="evenodd" d="M25.4336 4.74386L26.9855 3.89032C27.9942 3.34716 27.9942 5.0542 26.9855 5.67495L25.4336 6.52848V4.74386Z" fill="url(#paint11_linear_51_14430)"/>
<path fill-rule="evenodd" clip-rule="evenodd" d="M26.2881 1.61606L24.5034 0.607422H24.4258H24.3482L5.3377 11.5481L5.26012 11.6257L5.18251 11.7033L5.10492 11.7808V11.8585L5.02734 11.9361V12.0136V12.0913V34.0504V34.1279V34.2055H5.10492L6.812 35.2142L6.73439 35.1367V35.059V13.1V13.0224V12.9448L6.812 12.8672V12.7896L6.88958 12.7121L6.96719 12.6344L7.04477 12.5568L26.0553 1.61606H26.1329H26.2105H26.2881Z" fill="#34485C"/>
<path fill-rule="evenodd" clip-rule="evenodd" d="M26.2881 1.61606L24.5034 0.607422H24.4258H24.3482L5.3377 11.5481L5.26012 11.6257L5.18251 11.7033L5.10492 11.7808V11.8585L5.02734 11.9361V12.0136V12.0913V34.0504V34.1279V34.2055H5.10492L6.812 35.2142L6.73439 35.1367V35.059V13.1V13.0224V12.9448L6.812 12.8672V12.7896L6.88958 12.7121L6.96719 12.6344L7.04477 12.5568L26.0553 1.61606H26.1329H26.2105H26.2881Z" fill="url(#paint12_linear_51_14430)"/>
<path fill-rule="evenodd" clip-rule="evenodd" d="M26.3617 23.752V1.87044C26.3617 1.87044 26.2066 1.56015 26.0514 1.71534L7.04085 12.656C7.04085 12.656 6.73047 12.9664 6.73047 13.1992V35.0806C6.73047 35.0806 6.88566 35.391 7.04085 35.2358L26.0514 24.2951C26.0514 24.2951 26.3617 23.9848 26.3617 23.752Z" fill="#3D566E"/>
<path fill-rule="evenodd" clip-rule="evenodd" d="M26.3617 23.752V1.87044C26.3617 1.87044 26.2066 1.56015 26.0514 1.71534L7.04085 12.656C7.04085 12.656 6.73047 12.9664 6.73047 13.1992V35.0806C6.73047 35.0806 6.88566 35.391 7.04085 35.2358L26.0514 24.2951C26.0514 24.2951 26.3617 23.9848 26.3617 23.752Z" fill="url(#paint13_linear_51_14430)"/>
<path fill-rule="evenodd" clip-rule="evenodd" d="M9.1426 10.3129L8.28906 9.84728V8.06265L8.36664 7.67466L8.52183 7.28678L8.75464 6.97634L9.06499 6.74357L9.37537 6.66602H9.60817L10.4617 7.20911L10.2289 7.13156L9.91853 7.28678L9.60817 7.44188L9.37537 7.75233L9.22018 8.1402L9.1426 8.60586V10.3129Z" fill="#F0B11D"/>
<path fill-rule="evenodd" clip-rule="evenodd" d="M9.1426 10.3129L8.28906 9.84728V8.06265L8.36664 7.67466L8.52183 7.28678L8.75464 6.97634L9.06499 6.74357L9.37537 6.66602H9.60817L10.4617 7.20911L10.2289 7.13156L9.91853 7.28678L9.60817 7.44188L9.37537 7.75233L9.22018 8.1402L9.1426 8.60586V10.3129Z" fill="url(#paint14_linear_51_14430)"/>
<path fill-rule="evenodd" clip-rule="evenodd" d="M14.8887 7.05846L14.0352 6.51536V4.73074L14.1127 4.34274L14.2679 3.95475L14.5783 3.64443L14.8111 3.48921L15.1215 3.33398L15.3542 3.41165L16.2078 3.8772H15.975L15.6646 3.95475L15.4318 4.18752L15.1215 4.49796L14.9663 4.80829L14.8887 5.27383V7.05846Z" fill="#F0B11D"/>
<path fill-rule="evenodd" clip-rule="evenodd" d="M14.8887 7.05846L14.0352 6.51536V4.73074L14.1127 4.34274L14.2679 3.95475L14.5783 3.64443L14.8111 3.48921L15.1215 3.33398L15.3542 3.41165L16.2078 3.8772H15.975L15.6646 3.95475L15.4318 4.18752L15.1215 4.49796L14.9663 4.80829L14.8887 5.27383V7.05846Z" fill="url(#paint15_linear_51_14430)"/>
<path fill-rule="evenodd" clip-rule="evenodd" d="M20.6114 3.72447L19.7578 3.25893L19.8354 1.4743V1.00864L20.0682 0.698317L20.301 0.387875L20.5338 0.155103L20.8441 0L21.0769 0.0775513L21.9304 0.543096H21.6977L21.3873 0.620765L21.1545 0.853538L20.8441 1.16386L20.6889 1.55185L20.6114 1.93985V3.72447Z" fill="#F0B11D"/>
<path fill-rule="evenodd" clip-rule="evenodd" d="M20.6114 3.72447L19.7578 3.25893L19.8354 1.4743V1.00864L20.0682 0.698317L20.301 0.387875L20.5338 0.155103L20.8441 0L21.0769 0.0775513L21.9304 0.543096H21.6977L21.3873 0.620765L21.1545 0.853538L20.8441 1.16386L20.6889 1.55185L20.6114 1.93985V3.72447Z" fill="url(#paint16_linear_51_14430)"/>
<path fill-rule="evenodd" clip-rule="evenodd" d="M20.625 3.74754V1.96292C20.625 0.799007 22.1769 -0.0545311 22.1769 1.10938V2.894L20.625 3.74754Z" fill="#FFCB05"/>
<path fill-rule="evenodd" clip-rule="evenodd" d="M20.625 3.74754V1.96292C20.625 0.799007 22.1769 -0.0545311 22.1769 1.10938V2.894L20.625 3.74754Z" fill="url(#paint17_linear_51_14430)"/>
<path fill-rule="evenodd" clip-rule="evenodd" d="M14.8828 7.08153V5.2969C14.8828 4.13299 16.4347 3.27945 16.4347 4.44336V6.22799L14.8828 7.08153Z" fill="#FFCB05"/>
<path fill-rule="evenodd" clip-rule="evenodd" d="M14.8828 7.08153V5.2969C14.8828 4.13299 16.4347 3.27945 16.4347 4.44336V6.22799L14.8828 7.08153Z" fill="url(#paint18_linear_51_14430)"/>
<path fill-rule="evenodd" clip-rule="evenodd" d="M9.14062 10.3141V8.52932C9.14062 7.36541 10.6925 6.51188 10.6925 7.67578V9.46053L9.14062 10.3141Z" fill="#FFCB05"/>
<path fill-rule="evenodd" clip-rule="evenodd" d="M9.14062 10.3141V8.52932C9.14062 7.36541 10.6925 6.51188 10.6925 7.67578V9.46053L9.14062 10.3141Z" fill="url(#paint19_linear_51_14430)"/>
<path fill-rule="evenodd" clip-rule="evenodd" d="M24.7294 4.96967L24.419 4.81445H24.3414H24.2638H24.1862L8.82262 13.7377H8.74504V13.8154H8.66742V13.8929L8.58984 13.9705V14.0481V14.1257V14.2034V31.9723V32.0499V32.1275H8.66742L8.97781 32.2826H8.90023V32.2051V32.1275V14.3585V14.2809V14.2034H8.97781V14.1257V14.0481L9.05539 13.9705H9.133V13.8929L24.5742 5.04723V4.96967H24.6518H24.7294Z" fill="#BDBDBD"/>
<path fill-rule="evenodd" clip-rule="evenodd" d="M24.7294 4.96967L24.419 4.81445H24.3414H24.2638H24.1862L8.82262 13.7377H8.74504V13.8154H8.66742V13.8929L8.58984 13.9705V14.0481V14.1257V14.2034V31.9723V32.0499V32.1275H8.66742L8.97781 32.2826H8.90023V32.2051V32.1275V14.3585V14.2809V14.2034H8.97781V14.1257V14.0481L9.05539 13.9705H9.133V13.8929L24.5742 5.04723V4.96967H24.6518H24.7294Z" fill="url(#paint20_linear_51_14430)"/>
<path fill-rule="evenodd" clip-rule="evenodd" d="M24.588 5.05294L9.22442 13.8986C9.22442 13.8986 8.91406 14.209 8.91406 14.3642V32.1333C8.91406 32.1333 8.99165 32.366 9.14683 32.2884L24.5104 23.4427C24.5104 23.4427 24.8208 23.1323 24.8208 22.9771V5.20816C24.8208 5.20816 24.7432 4.97535 24.588 5.05294Z" fill="#E6EAEB"/>
<path fill-rule="evenodd" clip-rule="evenodd" d="M24.588 5.05294L9.22442 13.8986C9.22442 13.8986 8.91406 14.209 8.91406 14.3642V32.1333C8.91406 32.1333 8.99165 32.366 9.14683 32.2884L24.5104 23.4427C24.5104 23.4427 24.8208 23.1323 24.8208 22.9771V5.20816C24.8208 5.20816 24.7432 4.97535 24.588 5.05294Z" fill="url(#paint21_linear_51_14430)"/>
<path fill-rule="evenodd" clip-rule="evenodd" d="M22.0897 9.55952L21.7793 9.4043H21.7017H21.6241L11.3818 15.3015L11.3041 15.3791V15.4566H11.2266V15.5343V15.6118V27.4061V27.4837V27.5612H11.3041L11.6145 27.7941V27.7165H11.5369V27.6389V15.8446V15.7671L11.6145 15.6894V15.6118L11.6921 15.5343H11.7697L21.9345 9.63707L22.0121 9.55952H22.0897Z" fill="#121220"/>
<path fill-rule="evenodd" clip-rule="evenodd" d="M22.0897 9.55952L21.7793 9.4043H21.7017H21.6241L11.3818 15.3015L11.3041 15.3791V15.4566H11.2266V15.5343V15.6118V27.4061V27.4837V27.5612H11.3041L11.6145 27.7941V27.7165H11.5369V27.6389V15.8446V15.7671L11.6145 15.6894V15.6118L11.6921 15.5343H11.7697L21.9345 9.63707L22.0121 9.55952H22.0897Z" fill="url(#paint22_linear_51_14430)"/>
<path fill-rule="evenodd" clip-rule="evenodd" d="M21.9444 9.63695L11.702 15.5342C11.702 15.5342 11.5469 15.7669 11.5469 15.8445V27.6388C11.5469 27.6388 11.5468 27.7939 11.702 27.7163L21.9444 21.8193C21.9444 21.8193 22.0996 21.5864 22.0996 21.5088V9.71462C22.0996 9.71462 22.0996 9.55936 21.9444 9.63695Z" fill="#2C3E50"/>
<path fill-rule="evenodd" clip-rule="evenodd" d="M21.9444 9.63695L11.702 15.5342C11.702 15.5342 11.5469 15.7669 11.5469 15.8445V27.6388C11.5469 27.6388 11.5468 27.7939 11.702 27.7163L21.9444 21.8193C21.9444 21.8193 22.0996 21.5864 22.0996 21.5088V9.71462C22.0996 9.71462 22.0996 9.55936 21.9444 9.63695Z" fill="url(#paint23_linear_51_14430)"/>
<path fill-rule="evenodd" clip-rule="evenodd" d="M5.18251 11.7285L5.10492 11.8061V11.8837L5.02734 11.9613V12.0388V12.1165V34.0756V34.1531V34.2307H5.10492L6.812 35.2395L6.73439 35.1619V35.0842V13.1253V13.0476V12.97L6.812 12.8924V12.8148L5.18251 11.7285Z" fill="#2C3E50"/>
<path fill-rule="evenodd" clip-rule="evenodd" d="M5.18251 11.7285L5.10492 11.8061V11.8837L5.02734 11.9613V12.0388V12.1165V34.0756V34.1531V34.2307H5.10492L6.812 35.2395L6.73439 35.1619V35.0842V13.1253V13.0476V12.97L6.812 12.8924V12.8148L5.18251 11.7285Z" fill="url(#paint24_linear_51_14430)"/>
<path fill-rule="evenodd" clip-rule="evenodd" d="M3.78556 32.0348L2.93202 31.5692L2.77683 31.3365L2.69922 31.0261L2.77683 30.7157L2.93202 30.3277L3.16479 30.0174L3.47518 29.7071L5.02706 28.8535L5.88057 29.3191L4.32871 30.2501L4.01833 30.4829L3.78556 30.7934L3.63037 31.1812L3.55276 31.4917L3.63037 31.802L3.78556 32.0348Z" fill="#F0B11D"/>
<path fill-rule="evenodd" clip-rule="evenodd" d="M3.78556 32.0348L2.93202 31.5692L2.77683 31.3365L2.69922 31.0261L2.77683 30.7157L2.93202 30.3277L3.16479 30.0174L3.47518 29.7071L5.02706 28.8535L5.88057 29.3191L4.32871 30.2501L4.01833 30.4829L3.78556 30.7934L3.63037 31.1812L3.55276 31.4917L3.63037 31.802L3.78556 32.0348Z" fill="url(#paint25_linear_51_14430)"/>
<path fill-rule="evenodd" clip-rule="evenodd" d="M3.78556 25.3688L2.93202 24.9032L2.77683 24.6704L2.69922 24.4377L2.77683 24.0497L2.93202 23.6617L3.16479 23.3514L3.47518 23.1186L5.02706 22.1875L5.88057 22.653L4.32871 23.5841L4.01833 23.8169L3.78556 24.2049L3.63037 24.5152L3.55276 24.9032L3.63037 25.2137L3.78556 25.3688Z" fill="#F0B11D"/>
<path fill-rule="evenodd" clip-rule="evenodd" d="M3.78556 25.3688L2.93202 24.9032L2.77683 24.6704L2.69922 24.4377L2.77683 24.0497L2.93202 23.6617L3.16479 23.3514L3.47518 23.1186L5.02706 22.1875L5.88057 22.653L4.32871 23.5841L4.01833 23.8169L3.78556 24.2049L3.63037 24.5152L3.55276 24.9032L3.63037 25.2137L3.78556 25.3688Z" fill="url(#paint26_linear_51_14430)"/>
<path fill-rule="evenodd" clip-rule="evenodd" d="M3.78556 18.7986L2.93202 18.2554L2.77683 18.1002L2.69922 17.7898L2.77683 17.4795L2.93202 17.0915L3.16479 16.7035L3.47518 16.4707L5.02706 15.6172L5.88057 16.0827L4.32871 16.9363L4.01833 17.2467L3.78556 17.557L3.63037 17.945L3.55276 18.2554L3.63037 18.5658L3.78556 18.7986Z" fill="#F0B11D"/>
<path fill-rule="evenodd" clip-rule="evenodd" d="M3.78556 18.7986L2.93202 18.2554L2.77683 18.1002L2.69922 17.7898L2.77683 17.4795L2.93202 17.0915L3.16479 16.7035L3.47518 16.4707L5.02706 15.6172L5.88057 16.0827L4.32871 16.9363L4.01833 17.2467L3.78556 17.557L3.63037 17.945L3.55276 18.2554L3.63037 18.5658L3.78556 18.7986Z" fill="url(#paint27_linear_51_14430)"/>
<path fill-rule="evenodd" clip-rule="evenodd" d="M5.88261 17.8549L4.33076 18.7085C3.32204 19.2516 3.32204 17.5446 4.33076 16.9239L5.88261 16.0703V17.8549Z" fill="#FFCB05"/>
<path fill-rule="evenodd" clip-rule="evenodd" d="M5.88261 17.8549L4.33076 18.7085C3.32204 19.2516 3.32204 17.5446 4.33076 16.9239L5.88261 16.0703V17.8549Z" fill="url(#paint28_linear_51_14430)"/>
<path fill-rule="evenodd" clip-rule="evenodd" d="M5.88261 24.4565L4.33076 25.31C3.32204 25.8532 3.32204 24.1462 4.33076 23.5254L5.88261 22.6719V24.4565Z" fill="#FFCB05"/>
<path fill-rule="evenodd" clip-rule="evenodd" d="M5.88261 24.4565L4.33076 25.31C3.32204 25.8532 3.32204 24.1462 4.33076 23.5254L5.88261 22.6719V24.4565Z" fill="url(#paint29_linear_51_14430)"/>
<path fill-rule="evenodd" clip-rule="evenodd" d="M5.88261 31.1225L4.33076 31.9761C3.32204 32.5192 3.32204 30.8122 4.33076 30.1914L5.88261 29.3379V31.1225Z" fill="#FFCB05"/>
<path fill-rule="evenodd" clip-rule="evenodd" d="M5.88261 31.1225L4.33076 31.9761C3.32204 32.5192 3.32204 30.8122 4.33076 30.1914L5.88261 29.3379V31.1225Z" fill="url(#paint30_linear_51_14430)"/>
<defs>
<linearGradient id="paint0_linear_51_14430" x1="19.7575" y1="27.2229" x2="20.8434" y2="27.2229" gradientUnits="userSpaceOnUse">
<stop stop-color="#4AFFC7"/>
<stop offset="1" stop-color="#3BADEA"/>
</linearGradient>
<linearGradient id="paint1_linear_51_14430" x1="14.0348" y1="30.594" x2="15.1207" y2="30.594" gradientUnits="userSpaceOnUse">
<stop stop-color="#4AFFC7"/>
<stop offset="1" stop-color="#3BADEA"/>
</linearGradient>
<linearGradient id="paint2_linear_51_14430" x1="8.28875" y1="33.9279" x2="9.37465" y2="33.9279" gradientUnits="userSpaceOnUse">
<stop stop-color="#4AFFC7"/>
<stop offset="1" stop-color="#3BADEA"/>
</linearGradient>
<linearGradient id="paint3_linear_51_14430" x1="9.50369" y1="33.6962" x2="10.7064" y2="33.702" gradientUnits="userSpaceOnUse">
<stop stop-color="#E6F0FF"/>
<stop offset="0.24" stop-color="#E2ECFD"/>
<stop offset="0.47" stop-color="#D6E3F8"/>
<stop offset="0.69" stop-color="#C3D3F0"/>
<stop offset="0.91" stop-color="#A9BDE4"/>
<stop offset="1" stop-color="#9CB2DF"/>
</linearGradient>
<linearGradient id="paint4_linear_51_14430" x1="15.2459" y1="30.3662" x2="16.4486" y2="30.372" gradientUnits="userSpaceOnUse">
<stop stop-color="#E6F0FF"/>
<stop offset="0.24" stop-color="#E2ECFD"/>
<stop offset="0.47" stop-color="#D6E3F8"/>
<stop offset="0.69" stop-color="#C3D3F0"/>
<stop offset="0.91" stop-color="#A9BDE4"/>
<stop offset="1" stop-color="#9CB2DF"/>
</linearGradient>
<linearGradient id="paint5_linear_51_14430" x1="20.9881" y1="27.0302" x2="22.1908" y2="27.036" gradientUnits="userSpaceOnUse">
<stop stop-color="#E6F0FF"/>
<stop offset="0.24" stop-color="#E2ECFD"/>
<stop offset="0.47" stop-color="#D6E3F8"/>
<stop offset="0.69" stop-color="#C3D3F0"/>
<stop offset="0.91" stop-color="#A9BDE4"/>
<stop offset="1" stop-color="#9CB2DF"/>
</linearGradient>
<linearGradient id="paint6_linear_51_14430" x1="24.5812" y1="4.01254" x2="27.6062" y2="4.01254" gradientUnits="userSpaceOnUse">
<stop stop-color="#4AFFC7"/>
<stop offset="1" stop-color="#3BADEA"/>
</linearGradient>
<linearGradient id="paint7_linear_51_14430" x1="24.5812" y1="10.6844" x2="27.6062" y2="10.6844" gradientUnits="userSpaceOnUse">
<stop stop-color="#4AFFC7"/>
<stop offset="1" stop-color="#3BADEA"/>
</linearGradient>
<linearGradient id="paint8_linear_51_14430" x1="24.5812" y1="17.2606" x2="27.5286" y2="17.2606" gradientUnits="userSpaceOnUse">
<stop stop-color="#4AFFC7"/>
<stop offset="1" stop-color="#3BADEA"/>
</linearGradient>
<linearGradient id="paint9_linear_51_14430" x1="25.9736" y1="18.3835" x2="27.7627" y2="18.3984" gradientUnits="userSpaceOnUse">
<stop stop-color="#E6F0FF"/>
<stop offset="0.24" stop-color="#E2ECFD"/>
<stop offset="0.47" stop-color="#D6E3F8"/>
<stop offset="0.69" stop-color="#C3D3F0"/>
<stop offset="0.91" stop-color="#A9BDE4"/>
<stop offset="1" stop-color="#9CB2DF"/>
</linearGradient>
<linearGradient id="paint10_linear_51_14430" x1="25.9736" y1="11.7937" x2="27.7627" y2="11.8085" gradientUnits="userSpaceOnUse">
<stop stop-color="#E6F0FF"/>
<stop offset="0.24" stop-color="#E2ECFD"/>
<stop offset="0.47" stop-color="#D6E3F8"/>
<stop offset="0.69" stop-color="#C3D3F0"/>
<stop offset="0.91" stop-color="#A9BDE4"/>
<stop offset="1" stop-color="#9CB2DF"/>
</linearGradient>
<linearGradient id="paint11_linear_51_14430" x1="25.9736" y1="5.1335" x2="27.7627" y2="5.14839" gradientUnits="userSpaceOnUse">
<stop stop-color="#E6F0FF"/>
<stop offset="0.24" stop-color="#E2ECFD"/>
<stop offset="0.47" stop-color="#D6E3F8"/>
<stop offset="0.69" stop-color="#C3D3F0"/>
<stop offset="0.91" stop-color="#A9BDE4"/>
<stop offset="1" stop-color="#9CB2DF"/>
</linearGradient>
<linearGradient id="paint12_linear_51_14430" x1="10.0013" y1="17.6167" x2="26.4787" y2="17.7168" gradientUnits="userSpaceOnUse">
<stop stop-color="#E6F0FF"/>
<stop offset="0.24" stop-color="#E2ECFD"/>
<stop offset="0.47" stop-color="#D6E3F8"/>
<stop offset="0.69" stop-color="#C3D3F0"/>
<stop offset="0.91" stop-color="#A9BDE4"/>
<stop offset="1" stop-color="#9CB2DF"/>
</linearGradient>
<linearGradient id="paint13_linear_51_14430" x1="11.3232" y1="18.1899" x2="26.5378" y2="18.2778" gradientUnits="userSpaceOnUse">
<stop stop-color="#E6F0FF"/>
<stop offset="0.24" stop-color="#E2ECFD"/>
<stop offset="0.47" stop-color="#D6E3F8"/>
<stop offset="0.69" stop-color="#C3D3F0"/>
<stop offset="0.91" stop-color="#A9BDE4"/>
<stop offset="1" stop-color="#9CB2DF"/>
</linearGradient>
<linearGradient id="paint14_linear_51_14430" x1="8.28843" y1="8.48948" x2="10.4602" y2="8.48948" gradientUnits="userSpaceOnUse">
<stop stop-color="#4AFFC7"/>
<stop offset="1" stop-color="#3BADEA"/>
</linearGradient>
<linearGradient id="paint15_linear_51_14430" x1="14.0345" y1="5.19622" x2="16.2063" y2="5.19622" gradientUnits="userSpaceOnUse">
<stop stop-color="#4AFFC7"/>
<stop offset="1" stop-color="#3BADEA"/>
</linearGradient>
<linearGradient id="paint16_linear_51_14430" x1="19.7572" y1="1.86224" x2="21.929" y2="1.86224" gradientUnits="userSpaceOnUse">
<stop stop-color="#4AFFC7"/>
<stop offset="1" stop-color="#3BADEA"/>
</linearGradient>
<linearGradient id="paint17_linear_51_14430" x1="20.9881" y1="2.12398" x2="22.1908" y2="2.12976" gradientUnits="userSpaceOnUse">
<stop stop-color="#E6F0FF"/>
<stop offset="0.24" stop-color="#E2ECFD"/>
<stop offset="0.47" stop-color="#D6E3F8"/>
<stop offset="0.69" stop-color="#C3D3F0"/>
<stop offset="0.91" stop-color="#A9BDE4"/>
<stop offset="1" stop-color="#9CB2DF"/>
</linearGradient>
<linearGradient id="paint18_linear_51_14430" x1="15.2459" y1="5.45796" x2="16.4486" y2="5.46374" gradientUnits="userSpaceOnUse">
<stop stop-color="#E6F0FF"/>
<stop offset="0.24" stop-color="#E2ECFD"/>
<stop offset="0.47" stop-color="#D6E3F8"/>
<stop offset="0.69" stop-color="#C3D3F0"/>
<stop offset="0.91" stop-color="#A9BDE4"/>
<stop offset="1" stop-color="#9CB2DF"/>
</linearGradient>
<linearGradient id="paint19_linear_51_14430" x1="9.50369" y1="8.69044" x2="10.7064" y2="8.69622" gradientUnits="userSpaceOnUse">
<stop stop-color="#E6F0FF"/>
<stop offset="0.24" stop-color="#E2ECFD"/>
<stop offset="0.47" stop-color="#D6E3F8"/>
<stop offset="0.69" stop-color="#C3D3F0"/>
<stop offset="0.91" stop-color="#A9BDE4"/>
<stop offset="1" stop-color="#9CB2DF"/>
</linearGradient>
<linearGradient id="paint20_linear_51_14430" x1="8.58517" y1="18.5485" x2="24.7186" y2="18.5485" gradientUnits="userSpaceOnUse">
<stop stop-color="#4AFFC7"/>
<stop offset="1" stop-color="#3BADEA"/>
</linearGradient>
<linearGradient id="paint21_linear_51_14430" x1="12.6354" y1="18.4389" x2="24.9635" y2="18.51" gradientUnits="userSpaceOnUse">
<stop stop-color="#E6F0FF"/>
<stop offset="0.24" stop-color="#E2ECFD"/>
<stop offset="0.47" stop-color="#D6E3F8"/>
<stop offset="0.69" stop-color="#C3D3F0"/>
<stop offset="0.91" stop-color="#A9BDE4"/>
<stop offset="1" stop-color="#9CB2DF"/>
</linearGradient>
<linearGradient id="paint22_linear_51_14430" x1="11.2234" y1="18.5992" x2="22.0824" y2="18.5992" gradientUnits="userSpaceOnUse">
<stop stop-color="#4AFFC7"/>
<stop offset="1" stop-color="#3BADEA"/>
</linearGradient>
<linearGradient id="paint23_linear_51_14430" x1="11.5438" y1="18.6767" x2="22.0926" y2="18.6767" gradientUnits="userSpaceOnUse">
<stop stop-color="#4AFFC7"/>
<stop offset="1" stop-color="#3BADEA"/>
</linearGradient>
<linearGradient id="paint24_linear_51_14430" x1="5.44486" y1="23.2842" x2="6.82805" y2="23.2852" gradientUnits="userSpaceOnUse">
<stop stop-color="#E6F0FF"/>
<stop offset="0.24" stop-color="#E2ECFD"/>
<stop offset="0.47" stop-color="#D6E3F8"/>
<stop offset="0.69" stop-color="#C3D3F0"/>
<stop offset="0.91" stop-color="#A9BDE4"/>
<stop offset="1" stop-color="#9CB2DF"/>
</linearGradient>
<linearGradient id="paint25_linear_51_14430" x1="2.6983" y1="30.4441" x2="5.87845" y2="30.4441" gradientUnits="userSpaceOnUse">
<stop stop-color="#4AFFC7"/>
<stop offset="1" stop-color="#3BADEA"/>
</linearGradient>
<linearGradient id="paint26_linear_51_14430" x1="2.6983" y1="23.7781" x2="5.87845" y2="23.7781" gradientUnits="userSpaceOnUse">
<stop stop-color="#4AFFC7"/>
<stop offset="1" stop-color="#3BADEA"/>
</linearGradient>
<linearGradient id="paint27_linear_51_14430" x1="2.6983" y1="17.2079" x2="5.87845" y2="17.2079" gradientUnits="userSpaceOnUse">
<stop stop-color="#4AFFC7"/>
<stop offset="1" stop-color="#3BADEA"/>
</linearGradient>
<linearGradient id="paint28_linear_51_14430" x1="4.11426" y1="17.4187" x2="5.90325" y2="17.4335" gradientUnits="userSpaceOnUse">
<stop stop-color="#E6F0FF"/>
<stop offset="0.24" stop-color="#E2ECFD"/>
<stop offset="0.47" stop-color="#D6E3F8"/>
<stop offset="0.69" stop-color="#C3D3F0"/>
<stop offset="0.91" stop-color="#A9BDE4"/>
<stop offset="1" stop-color="#9CB2DF"/>
</linearGradient>
<linearGradient id="paint29_linear_51_14430" x1="4.11426" y1="24.0202" x2="5.90325" y2="24.0351" gradientUnits="userSpaceOnUse">
<stop stop-color="#E6F0FF"/>
<stop offset="0.24" stop-color="#E2ECFD"/>
<stop offset="0.47" stop-color="#D6E3F8"/>
<stop offset="0.69" stop-color="#C3D3F0"/>
<stop offset="0.91" stop-color="#A9BDE4"/>
<stop offset="1" stop-color="#9CB2DF"/>
</linearGradient>
<linearGradient id="paint30_linear_51_14430" x1="4.11426" y1="30.6862" x2="5.90325" y2="30.7011" gradientUnits="userSpaceOnUse">
<stop stop-color="#E6F0FF"/>
<stop offset="0.24" stop-color="#E2ECFD"/>
<stop offset="0.47" stop-color="#D6E3F8"/>
<stop offset="0.69" stop-color="#C3D3F0"/>
<stop offset="0.91" stop-color="#A9BDE4"/>
<stop offset="1" stop-color="#9CB2DF"/>
</linearGradient>
</defs>
</svg>
