<svg width="30" height="46" viewBox="0 0 30 46" fill="none" xmlns="http://www.w3.org/2000/svg">
<path opacity="0.5" fill-rule="evenodd" clip-rule="evenodd" d="M25.1102 30.7647C30.8518 34.0456 30.8518 39.4888 25.1102 42.7697C19.3686 46.0506 10.0478 46.0506 4.30619 42.7697C-1.4354 39.4143 -1.4354 34.0456 4.30619 30.7647C10.0478 27.4092 19.3686 27.4092 25.1102 30.7647Z" fill="#E9E9EB"/>
<path opacity="0.5" fill-rule="evenodd" clip-rule="evenodd" d="M22.9449 32.0433C27.4935 34.6531 27.4935 38.9033 22.9449 41.5132C18.3964 44.123 11.0888 44.123 6.5403 41.5132C1.99177 38.9033 1.99177 34.6531 6.5403 32.0433C11.0888 29.4335 18.3964 29.4335 22.9449 32.0433Z" fill="#DDDEE1"/>
<path opacity="0.5" fill-rule="evenodd" clip-rule="evenodd" d="M20.7169 33.3212C24.0724 35.2599 24.0724 38.3172 20.7169 40.2559C17.436 42.1946 11.9928 42.1946 8.71192 40.2559C5.35644 38.3172 5.35644 35.2599 8.71192 33.3212C12.0674 31.3825 17.436 31.3825 20.7169 33.3212Z" fill="#D1D2D6"/>
<path fill-rule="evenodd" clip-rule="evenodd" d="M28.0227 20.8083L14.4516 12.9788H14.3772H14.3025V12.9043H14.2279L14.1535 12.9788H14.0789H14.0042L13.9298 13.0534L1.7755 20.0626L1.70086 20.1372H1.62623L1.55181 20.2117L1.47718 20.2863V20.3609L1.40254 20.4354L1.32812 20.51V20.5846L14.899 28.414L14.9736 28.3395V28.2649L15.0483 28.1903L15.1227 28.1158L15.1973 28.0412L15.2719 27.9666L15.3464 27.892L27.5753 20.8829L27.6499 20.8083H27.7243H27.799H27.8736H27.948H28.0227Z" fill="#7B8C91"/>
<path fill-rule="evenodd" clip-rule="evenodd" d="M28.0227 20.8083L14.4516 12.9788H14.3772H14.3025V12.9043H14.2279L14.1535 12.9788H14.0789H14.0042L13.9298 13.0534L1.7755 20.0626L1.70086 20.1372H1.62623L1.55181 20.2117L1.47718 20.2863V20.3609L1.40254 20.4354L1.32812 20.51V20.5846L14.899 28.414L14.9736 28.3395V28.2649L15.0483 28.1903L15.1227 28.1158L15.1973 28.0412L15.2719 27.9666L15.3464 27.892L27.5753 20.8829L27.6499 20.8083H27.7243H27.799H27.8736H27.948H28.0227Z" fill="url(#paint0_linear_51_14532)"/>
<path fill-rule="evenodd" clip-rule="evenodd" d="M28.2543 21.2462C28.2543 21.2462 28.2543 20.8734 28.0306 20.7988C27.8814 20.7988 27.7323 20.7988 27.5832 20.7988L15.4289 27.8081C15.4289 27.8081 15.0561 28.1063 14.9815 28.33C14.9815 28.33 14.7578 28.7774 14.7578 29.0011V33.1768C14.7578 33.1768 14.7578 33.5496 14.9815 33.6242C15.1306 33.6242 15.2797 33.6242 15.4289 33.6242L27.5832 26.615C27.5832 26.615 27.956 26.3167 28.0306 26.093C28.0306 26.093 28.2543 25.6456 28.2543 25.4219V21.2462Z" fill="#E6EAEB"/>
<path fill-rule="evenodd" clip-rule="evenodd" d="M27.6627 23.2035L27.5134 23.1289L26.3203 23.8L26.4696 23.8746L27.6627 23.2035Z" fill="#E8B02C"/>
<path fill-rule="evenodd" clip-rule="evenodd" d="M26.4696 23.8734L26.3203 23.7988V25.141L26.4696 25.2901V23.8734Z" fill="#D49D1E"/>
<path fill-rule="evenodd" clip-rule="evenodd" d="M26.4648 25.3046L27.6579 24.559V23.2168L26.4648 23.8879V25.3046Z" fill="#FAC13C"/>
<path fill-rule="evenodd" clip-rule="evenodd" d="M16.0983 30.5849C16.0983 30.5849 15.9492 30.585 15.9492 30.5104C15.9492 30.4358 15.9491 30.2867 16.0983 30.2121L23.1075 26.1855C23.1075 26.1855 23.2568 26.1856 23.2568 26.2601C23.2568 26.3347 23.2566 26.4838 23.1075 26.5583L16.0983 30.5849Z" fill="#475357"/>
<path fill-rule="evenodd" clip-rule="evenodd" d="M14.9039 28.4251L1.33306 20.5957L1.25843 20.6703V20.7448L1.18379 20.8194V20.894L1.10938 20.9685V21.0431V21.1177V21.1922V25.3679V25.4425V25.517V25.5916L1.18379 25.6662L1.25843 25.7408L1.33306 25.8153L14.9039 33.6448L14.8295 33.5702L14.7549 33.4956V33.4211V33.3465V33.2719L14.6802 33.1974V29.0962L14.7549 28.9471V28.8725V28.798V28.7234L14.8295 28.6489V28.5743L14.9039 28.4997V28.4251Z" fill="#A0ADB0"/>
<path fill-rule="evenodd" clip-rule="evenodd" d="M14.9039 28.4251L1.33306 20.5957L1.25843 20.6703V20.7448L1.18379 20.8194V20.894L1.10938 20.9685V21.0431V21.1177V21.1922V25.3679V25.4425V25.517V25.5916L1.18379 25.6662L1.25843 25.7408L1.33306 25.8153L14.9039 33.6448L14.8295 33.5702L14.7549 33.4956V33.4211V33.3465V33.2719L14.6802 33.1974V29.0962L14.7549 28.9471V28.8725V28.798V28.7234L14.8295 28.6489V28.5743L14.9039 28.4997V28.4251Z" fill="url(#paint1_linear_51_14532)"/>
<path fill-rule="evenodd" clip-rule="evenodd" d="M22.7344 26.3233L23.0325 26.0996C23.0325 26.0996 23.1818 26.0996 23.1818 26.1742C23.1818 26.2488 23.1816 26.3979 23.0325 26.4725L22.7344 26.2488V26.3233Z" fill="#30383B"/>
<path fill-rule="evenodd" clip-rule="evenodd" d="M25.9437 24.1624L25.7946 24.0879L24.6016 24.759L24.8253 24.8335L25.9437 24.1624Z" fill="#0D8FB3"/>
<path fill-rule="evenodd" clip-rule="evenodd" d="M24.8253 24.8304L24.6016 24.7559V26.0981L24.8253 26.2472V24.8304Z" fill="#067796"/>
<path fill-rule="evenodd" clip-rule="evenodd" d="M24.8203 26.2305L25.9388 25.5594V24.1426L24.8203 24.8137V26.2305Z" fill="#0D99BF"/>
<path fill-rule="evenodd" clip-rule="evenodd" d="M28.0227 14.4626L14.4516 6.55859H14.3772H14.3025H14.2279H14.1535H14.0789H14.0042L13.9298 6.63312L1.7755 13.6423L1.70086 13.7169H1.62623L1.55181 13.7915L1.47718 13.866V13.9406L1.40254 14.0152L1.32812 14.0897V14.1643L14.899 21.9938L14.9736 21.9192V21.8446L15.0483 21.77L15.1227 21.6955L15.1973 21.6209H15.2719V21.5463H15.3464L27.5753 14.4626H27.6499V14.388H27.7243H27.799H27.8736H27.948L28.0227 14.4626Z" fill="#7B8C91"/>
<path fill-rule="evenodd" clip-rule="evenodd" d="M28.0227 14.4626L14.4516 6.55859H14.3772H14.3025H14.2279H14.1535H14.0789H14.0042L13.9298 6.63312L1.7755 13.6423L1.70086 13.7169H1.62623L1.55181 13.7915L1.47718 13.866V13.9406L1.40254 14.0152L1.32812 14.0897V14.1643L14.899 21.9938L14.9736 21.9192V21.8446L15.0483 21.77L15.1227 21.6955L15.1973 21.6209H15.2719V21.5463H15.3464L27.5753 14.4626H27.6499V14.388H27.7243H27.799H27.8736H27.948L28.0227 14.4626Z" fill="url(#paint2_linear_51_14532)"/>
<path fill-rule="evenodd" clip-rule="evenodd" d="M28.2543 14.84C28.2543 14.84 28.2543 14.4671 28.0306 14.3926C27.8814 14.3926 27.7323 14.3926 27.5832 14.3926L15.4289 21.4018C15.4289 21.4018 15.0561 21.7001 14.9815 21.9238C14.9815 21.9238 14.7578 22.3711 14.7578 22.5948V26.7706C14.7578 26.7706 14.7578 27.1434 14.9815 27.218C15.1306 27.218 15.2797 27.218 15.4289 27.218L27.5832 20.2087C27.5832 20.2087 27.956 19.9105 28.0306 19.6868C28.0306 19.6868 28.2543 19.2394 28.2543 19.0157V14.84Z" fill="#E6EAEB"/>
<path fill-rule="evenodd" clip-rule="evenodd" d="M27.6627 16.7621L27.5134 16.6875L26.3203 17.3586L26.4696 17.5077L27.6627 16.7621Z" fill="#E8B02C"/>
<path fill-rule="evenodd" clip-rule="evenodd" d="M26.4696 17.5124L26.3203 17.3633V18.7055L26.4696 18.8546V17.5124Z" fill="#D49D1E"/>
<path fill-rule="evenodd" clip-rule="evenodd" d="M26.4648 18.8632L27.6579 18.1922V16.7754L26.4648 17.521V18.8632Z" fill="#FAC13C"/>
<path fill-rule="evenodd" clip-rule="evenodd" d="M16.0983 24.1455C16.0983 24.1455 15.9492 24.1455 15.9492 24.0709C15.9492 23.9964 15.9491 23.8472 16.0983 23.7727L23.1075 19.7461C23.1075 19.7461 23.2568 19.7461 23.2568 19.8207C23.2568 19.8952 23.2566 20.0444 23.1075 20.1189L16.0983 24.1455Z" fill="#475357"/>
<path fill-rule="evenodd" clip-rule="evenodd" d="M14.9039 21.9838L1.33306 14.1543L1.25843 14.2289V14.3034L1.18379 14.378V14.4526L1.10938 14.5271V14.6017V14.6763V14.7508V18.9265V19.0011V19.0756V19.1502L1.18379 19.2248V19.2994H1.25843V19.3739H1.33306L14.9039 27.2034L14.8295 27.1288L14.7549 27.0543V26.9797V26.9051L14.6802 26.8305V22.6548L14.7549 22.5802V22.5057V22.4311V22.282L14.8295 22.2074V22.1329L14.9039 22.0583V21.9838Z" fill="#A0ADB0"/>
<path fill-rule="evenodd" clip-rule="evenodd" d="M14.9039 21.9838L1.33306 14.1543L1.25843 14.2289V14.3034L1.18379 14.378V14.4526L1.10938 14.5271V14.6017V14.6763V14.7508V18.9265V19.0011V19.0756V19.1502L1.18379 19.2248V19.2994H1.25843V19.3739H1.33306L14.9039 27.2034L14.8295 27.1288L14.7549 27.0543V26.9797V26.9051L14.6802 26.8305V22.6548L14.7549 22.5802V22.5057V22.4311V22.282L14.8295 22.2074V22.1329L14.9039 22.0583V21.9838Z" fill="url(#paint3_linear_51_14532)"/>
<path fill-rule="evenodd" clip-rule="evenodd" d="M22.7344 19.9109L23.0325 19.6873C23.0325 19.6873 23.1818 19.6873 23.1818 19.7618C23.1818 19.8364 23.1816 19.9855 23.0325 20.0601L22.7344 19.8364V19.9109Z" fill="#30383B"/>
<path fill-rule="evenodd" clip-rule="evenodd" d="M25.9437 17.8307L25.7946 17.6816L24.6016 18.3527L24.8253 18.5019L25.9437 17.8307Z" fill="#0D8FB3"/>
<path fill-rule="evenodd" clip-rule="evenodd" d="M24.8253 18.4988L24.6016 18.3496V19.6918L24.8253 19.841V18.4988Z" fill="#067796"/>
<path fill-rule="evenodd" clip-rule="evenodd" d="M24.8203 19.8434L25.9388 19.1723V17.8301L24.8203 18.5012V19.8434Z" fill="#0D99BF"/>
<path fill-rule="evenodd" clip-rule="evenodd" d="M28.0227 7.90398L14.4516 0.074582H14.3772L14.3025 0H14.2279H14.1535L14.0789 0.074582H14.0042H13.9298L1.7755 7.15833H1.70086L1.62623 7.23292L1.55181 7.3075L1.47718 7.38202L1.40254 7.45661L1.32812 7.53119V7.60577L14.899 15.5098L14.9736 15.4352V15.3606L15.0483 15.2861L15.1227 15.2115L15.1973 15.1369L15.2719 15.0624L15.3464 14.9878L27.5753 7.97857L27.6499 7.90398H27.7243H27.799H27.8736H27.948H28.0227Z" fill="url(#paint4_linear_51_14532)"/>
<path fill-rule="evenodd" clip-rule="evenodd" d="M28.2543 8.34392C28.2543 8.34392 28.2543 7.97105 28.0306 7.89648C27.8814 7.89648 27.7323 7.89648 27.5832 7.89648L15.4289 14.9057C15.4289 14.9057 15.0561 15.204 14.9815 15.4277C14.9815 15.4277 14.7578 15.8751 14.7578 16.0988V20.2745C14.7578 20.2745 14.7578 20.6473 14.9815 20.7219C15.1306 20.7219 15.2797 20.7219 15.4289 20.7219L27.5832 13.7127C27.5832 13.7127 27.956 13.4144 28.0306 13.1907C28.0306 13.1907 28.2543 12.7433 28.2543 12.5196V8.34392Z" fill="#E6EAEB"/>
<path fill-rule="evenodd" clip-rule="evenodd" d="M27.6627 10.2914L27.5134 10.2168L26.3203 10.8879L26.4696 10.9624L27.6627 10.2914Z" fill="#E8B02C"/>
<path fill-rule="evenodd" clip-rule="evenodd" d="M26.4696 10.9652L26.3203 10.8906V12.2328L26.4696 12.3074V10.9652Z" fill="#D49D1E"/>
<path fill-rule="evenodd" clip-rule="evenodd" d="M26.4648 12.3277L27.6579 11.6566V10.3145L26.4648 10.9855V12.3277Z" fill="#FAC13C"/>
<path fill-rule="evenodd" clip-rule="evenodd" d="M16.0983 17.5966C16.0983 17.5966 15.9492 17.5966 15.9492 17.5221C15.9492 17.4475 15.9491 17.2983 16.0983 17.2238L23.1075 13.1973C23.1075 13.1973 23.2568 13.1972 23.2568 13.2718C23.2568 13.3464 23.2566 13.4955 23.1075 13.5701L16.0983 17.5966Z" fill="#475357"/>
<path fill-rule="evenodd" clip-rule="evenodd" d="M14.9039 15.5075L1.33306 7.60352L1.25843 7.67804V7.8272L1.18379 7.90173V7.97631L1.10938 8.05089V8.12548V8.2V8.27458V12.4503V12.5248V12.5994V12.674H1.18379V12.7485L1.25843 12.8231L1.33306 12.8977L14.9039 20.7271L14.8295 20.6526V20.578H14.7549V20.5034V20.4288V20.3543L14.6802 20.2797V16.104L14.7549 16.0295V15.9549V15.8804V15.8058L14.8295 15.7312V15.6566L14.9039 15.5821V15.5075Z" fill="#A0ADB0"/>
<path fill-rule="evenodd" clip-rule="evenodd" d="M14.9039 15.5075L1.33306 7.60352L1.25843 7.67804V7.8272L1.18379 7.90173V7.97631L1.10938 8.05089V8.12548V8.2V8.27458V12.4503V12.5248V12.5994V12.674H1.18379V12.7485L1.25843 12.8231L1.33306 12.8977L14.9039 20.7271L14.8295 20.6526V20.578H14.7549V20.5034V20.4288V20.3543L14.6802 20.2797V16.104L14.7549 16.0295V15.9549V15.8804V15.8058L14.8295 15.7312V15.6566L14.9039 15.5821V15.5075Z" fill="url(#paint5_linear_51_14532)"/>
<path fill-rule="evenodd" clip-rule="evenodd" d="M22.7344 13.4208L23.0325 13.1971C23.0325 13.1971 23.1818 13.1971 23.1818 13.2717C23.1818 13.3462 23.1816 13.4954 23.0325 13.5699L22.7344 13.3463V13.4208Z" fill="#30383B"/>
<path fill-rule="evenodd" clip-rule="evenodd" d="M25.9437 11.2601L25.7946 11.1855L24.6016 11.8567L24.8253 11.9312L25.9437 11.2601Z" fill="#0D8FB3"/>
<path fill-rule="evenodd" clip-rule="evenodd" d="M24.8253 11.9339L24.6016 11.8594V13.2016L24.8253 13.2761V11.9339Z" fill="#067796"/>
<path fill-rule="evenodd" clip-rule="evenodd" d="M24.8203 13.2847L25.9388 12.6137V11.2715L24.8203 11.9426V13.2847Z" fill="#0D99BF"/>
<defs>
<linearGradient id="paint0_linear_51_14532" x1="1.32039" y1="20.6591" x2="28.0049" y2="20.6591" gradientUnits="userSpaceOnUse">
<stop stop-color="#4AFFC7"/>
<stop offset="1" stop-color="#3BADEA"/>
</linearGradient>
<linearGradient id="paint1_linear_51_14532" x1="4.33658" y1="27.0093" x2="15.0268" y2="27.121" gradientUnits="userSpaceOnUse">
<stop stop-color="#E6F0FF"/>
<stop offset="0.24" stop-color="#E2ECFD"/>
<stop offset="0.47" stop-color="#D6E3F8"/>
<stop offset="0.69" stop-color="#C3D3F0"/>
<stop offset="0.91" stop-color="#A9BDE4"/>
<stop offset="1" stop-color="#9CB2DF"/>
</linearGradient>
<linearGradient id="paint2_linear_51_14532" x1="1.32039" y1="14.2762" x2="28.0049" y2="14.2762" gradientUnits="userSpaceOnUse">
<stop stop-color="#4AFFC7"/>
<stop offset="1" stop-color="#3BADEA"/>
</linearGradient>
<linearGradient id="paint3_linear_51_14532" x1="4.33658" y1="20.5679" x2="15.0268" y2="20.6796" gradientUnits="userSpaceOnUse">
<stop stop-color="#E6F0FF"/>
<stop offset="0.24" stop-color="#E2ECFD"/>
<stop offset="0.47" stop-color="#D6E3F8"/>
<stop offset="0.69" stop-color="#C3D3F0"/>
<stop offset="0.91" stop-color="#A9BDE4"/>
<stop offset="1" stop-color="#9CB2DF"/>
</linearGradient>
<linearGradient id="paint4_linear_51_14532" x1="7.57327" y1="7.62305" x2="28.2568" y2="7.975" gradientUnits="userSpaceOnUse">
<stop stop-color="#E6F0FF"/>
<stop offset="0.24" stop-color="#E2ECFD"/>
<stop offset="0.47" stop-color="#D6E3F8"/>
<stop offset="0.69" stop-color="#C3D3F0"/>
<stop offset="0.91" stop-color="#A9BDE4"/>
<stop offset="1" stop-color="#9CB2DF"/>
</linearGradient>
<linearGradient id="paint5_linear_51_14532" x1="4.33658" y1="14.0538" x2="15.0268" y2="14.1649" gradientUnits="userSpaceOnUse">
<stop stop-color="#E6F0FF"/>
<stop offset="0.24" stop-color="#E2ECFD"/>
<stop offset="0.47" stop-color="#D6E3F8"/>
<stop offset="0.69" stop-color="#C3D3F0"/>
<stop offset="0.91" stop-color="#A9BDE4"/>
<stop offset="1" stop-color="#9CB2DF"/>
</linearGradient>
</defs>
</svg>
