<svg width="164" height="104" viewBox="0 0 164 104" fill="none" xmlns="http://www.w3.org/2000/svg">
<g opacity="0.46" filter="url(#filter0_dddddddd_1_23356)">
<path d="M148.835 48.7101L87.7809 15.5049C84.0447 13.4759 79.5167 13.5007 75.8052 15.5667L16.3475 48.7349C13.2175 50.4792 13.2175 54.9949 16.3475 56.7516L75.8052 89.9198C79.5291 91.9982 84.0447 92.0106 87.7809 89.9817L148.835 56.7764C152.026 55.032 152.026 50.4545 148.835 48.7225V48.7101Z" fill="#95B1E9"/>
</g>
<path d="M139.988 48.3019L87.0873 19.5256C83.8459 17.7688 79.9241 17.7812 76.7075 19.5751L25.18 48.3142C22.4582 49.8235 22.4582 53.7453 25.18 55.2547L76.7075 83.9938C79.9241 85.7877 83.8459 85.8124 87.0873 84.0433L139.988 55.267C142.759 53.7577 142.759 49.7864 139.988 48.2895V48.3019Z" fill="url(#paint0_linear_1_23356)"/>
<path d="M142.066 44.3281H23.1504V51.9614H142.066V44.3281Z" fill="url(#paint1_linear_1_23356)"/>
<path d="M139.988 40.5089L87.0873 11.7326C83.8459 9.97586 79.9241 9.98824 76.7075 11.7821L25.18 40.5212C22.4582 42.0306 22.4582 45.94 25.18 47.4617L76.7075 76.2008C79.9241 77.9947 83.8459 78.0195 87.0873 76.2503L139.988 47.4741C142.759 45.9647 142.759 41.9935 139.988 40.4965V40.5089Z" fill="white"/>
<path d="M139.987 46.5411L128.408 52.8382L87.0866 75.3174C83.8453 77.0741 79.9235 77.0617 76.7069 75.2679L25.1917 46.5287C22.47 45.007 22.47 41.0976 25.1917 39.5883L76.7069 10.8492C79.9235 9.05527 83.8453 9.03052 87.0866 10.7997L108.23 22.3052L139.987 39.5759C142.759 41.0729 142.759 45.0441 139.987 46.5535V46.5411Z" fill="url(#paint2_linear_1_23356)"/>
<defs>
<filter id="filter0_dddddddd_1_23356" x="0" y="0" width="163.228" height="103.491" filterUnits="userSpaceOnUse" color-interpolation-filters="sRGB">
<feFlood flood-opacity="0" result="BackgroundImageFix"/>
<feColorMatrix in="SourceAlpha" type="matrix" values="0 0 0 0 0 0 0 0 0 0 0 0 0 0 0 0 0 0 127 0" result="hardAlpha"/>
<feOffset dx="5" dy="5"/>
<feGaussianBlur stdDeviation="3.5"/>
<feComposite in2="hardAlpha" operator="out"/>
<feColorMatrix type="matrix" values="0 0 0 0 0 0 0 0 0 0 0 0 0 0 0 0 0 0 0.1 0"/>
<feBlend mode="normal" in2="BackgroundImageFix" result="effect1_dropShadow_1_23356"/>
<feColorMatrix in="SourceAlpha" type="matrix" values="0 0 0 0 0 0 0 0 0 0 0 0 0 0 0 0 0 0 127 0" result="hardAlpha"/>
<feOffset dx="1" dy="1"/>
<feGaussianBlur stdDeviation="1"/>
<feComposite in2="hardAlpha" operator="out"/>
<feColorMatrix type="matrix" values="0 0 0 0 0 0 0 0 0 0 0 0 0 0 0 0 0 0 0.1 0"/>
<feBlend mode="normal" in2="effect1_dropShadow_1_23356" result="effect2_dropShadow_1_23356"/>
<feColorMatrix in="SourceAlpha" type="matrix" values="0 0 0 0 0 0 0 0 0 0 0 0 0 0 0 0 0 0 127 0" result="hardAlpha"/>
<feOffset dx="-2" dy="-2"/>
<feGaussianBlur stdDeviation="1"/>
<feComposite in2="hardAlpha" operator="out"/>
<feColorMatrix type="matrix" values="0 0 0 0 1 0 0 0 0 1 0 0 0 0 1 0 0 0 0.8 0"/>
<feBlend mode="normal" in2="effect2_dropShadow_1_23356" result="effect3_dropShadow_1_23356"/>
<feColorMatrix in="SourceAlpha" type="matrix" values="0 0 0 0 0 0 0 0 0 0 0 0 0 0 0 0 0 0 127 0" result="hardAlpha"/>
<feOffset dx="-6" dy="-6"/>
<feGaussianBlur stdDeviation="4"/>
<feComposite in2="hardAlpha" operator="out"/>
<feColorMatrix type="matrix" values="0 0 0 0 1 0 0 0 0 1 0 0 0 0 1 0 0 0 0.5 0"/>
<feBlend mode="normal" in2="effect3_dropShadow_1_23356" result="effect4_dropShadow_1_23356"/>
<feColorMatrix in="SourceAlpha" type="matrix" values="0 0 0 0 0 0 0 0 0 0 0 0 0 0 0 0 0 0 127 0" result="hardAlpha"/>
<feOffset dx="5" dy="5"/>
<feGaussianBlur stdDeviation="3.5"/>
<feComposite in2="hardAlpha" operator="out"/>
<feColorMatrix type="matrix" values="0 0 0 0 0 0 0 0 0 0 0 0 0 0 0 0 0 0 0.1 0"/>
<feBlend mode="normal" in2="effect4_dropShadow_1_23356" result="effect5_dropShadow_1_23356"/>
<feColorMatrix in="SourceAlpha" type="matrix" values="0 0 0 0 0 0 0 0 0 0 0 0 0 0 0 0 0 0 127 0" result="hardAlpha"/>
<feOffset dx="1" dy="1"/>
<feGaussianBlur stdDeviation="1"/>
<feComposite in2="hardAlpha" operator="out"/>
<feColorMatrix type="matrix" values="0 0 0 0 0 0 0 0 0 0 0 0 0 0 0 0 0 0 0.1 0"/>
<feBlend mode="normal" in2="effect5_dropShadow_1_23356" result="effect6_dropShadow_1_23356"/>
<feColorMatrix in="SourceAlpha" type="matrix" values="0 0 0 0 0 0 0 0 0 0 0 0 0 0 0 0 0 0 127 0" result="hardAlpha"/>
<feOffset dx="-2" dy="-2"/>
<feGaussianBlur stdDeviation="1"/>
<feComposite in2="hardAlpha" operator="out"/>
<feColorMatrix type="matrix" values="0 0 0 0 1 0 0 0 0 1 0 0 0 0 1 0 0 0 0.8 0"/>
<feBlend mode="normal" in2="effect6_dropShadow_1_23356" result="effect7_dropShadow_1_23356"/>
<feColorMatrix in="SourceAlpha" type="matrix" values="0 0 0 0 0 0 0 0 0 0 0 0 0 0 0 0 0 0 127 0" result="hardAlpha"/>
<feOffset dx="-6" dy="-6"/>
<feGaussianBlur stdDeviation="4"/>
<feComposite in2="hardAlpha" operator="out"/>
<feColorMatrix type="matrix" values="0 0 0 0 1 0 0 0 0 1 0 0 0 0 1 0 0 0 0.5 0"/>
<feBlend mode="normal" in2="effect7_dropShadow_1_23356" result="effect8_dropShadow_1_23356"/>
<feBlend mode="normal" in="SourceGraphic" in2="effect8_dropShadow_1_23356" result="shape"/>
</filter>
<clipPath id="bgblur_0_1_23356_clip_path" transform="translate(0 0)"><path d="M148.835 48.7101L87.7809 15.5049C84.0447 13.4759 79.5167 13.5007 75.8052 15.5667L16.3475 48.7349C13.2175 50.4792 13.2175 54.9949 16.3475 56.7516L75.8052 89.9198C79.5291 91.9982 84.0447 92.0106 87.7809 89.9817L148.835 56.7764C152.026 55.032 152.026 50.4545 148.835 48.7225V48.7101Z"/>
</clipPath><linearGradient id="paint0_linear_1_23356" x1="23.151" y1="51.803" x2="142.066" y2="51.803" gradientUnits="userSpaceOnUse">
<stop stop-color="#F5F9FD"/>
<stop offset="1" stop-color="#DBF1FF"/>
</linearGradient>
<linearGradient id="paint1_linear_1_23356" x1="23.1504" y1="48.1509" x2="142.066" y2="48.1509" gradientUnits="userSpaceOnUse">
<stop stop-color="#F5F9FD"/>
<stop offset="1" stop-color="#DBF1FF"/>
</linearGradient>
<linearGradient id="paint2_linear_1_23356" x1="50.974" y1="42.508" x2="143.117" y2="44.1163" gradientUnits="userSpaceOnUse">
<stop stop-color="#E6F0FF"/>
<stop offset="0.24" stop-color="#E2ECFD"/>
<stop offset="0.47" stop-color="#D6E3F8"/>
<stop offset="0.69" stop-color="#C3D3F0"/>
<stop offset="0.91" stop-color="#A9BDE4"/>
<stop offset="1" stop-color="#9CB2DF"/>
</linearGradient>
</defs>
</svg>
