<svg width="97" height="57" viewBox="0 0 97 57" fill="none" xmlns="http://www.w3.org/2000/svg">
<path d="M58.9876 56.8721L58.0721 55.14L92.8609 36.7807C93.7888 36.2858 94.3455 35.3703 94.3331 34.3311C94.3331 33.2795 93.7764 32.364 92.8485 31.8815L61.0042 15.0191C60.2 14.5984 59.235 14.5984 58.4309 15.0191L42.818 23.0977C41.4076 23.84 39.7251 23.8153 38.3395 23.0482L0 1.70728L0.940251 0L39.2797 21.3409C40.0962 21.7987 41.0736 21.7987 41.9025 21.3657L57.5154 13.287C58.8886 12.5695 60.5341 12.5695 61.9073 13.287L93.7517 30.1495C95.3105 30.966 96.2755 32.5743 96.2878 34.3311C96.2878 36.0878 95.3229 37.6961 93.7641 38.5127L58.9752 56.8721H58.9876Z" fill="#F5F5F5"/>
</svg>
