<svg width="53" height="125" viewBox="0 0 53 125" fill="none" xmlns="http://www.w3.org/2000/svg">
<path d="M28.7057 15.4598C27.9263 17.8722 24.6973 22.227 20.8993 26.755C19.1672 28.8087 21.7652 32.3222 24.487 30.8252C27.2087 29.3283 31.9594 16.5361 31.9594 16.5361C30.6852 14.3958 28.7057 15.4598 28.7057 15.4598Z" fill="#B6DBF7"/>
<path d="M35.3267 10.3885C34.7452 10.3143 33.6565 11.205 33.0751 11.7246C32.4936 12.2443 32.2338 10.9947 32.6173 9.53486C33.0132 8.07501 35.3391 5.79866 34.77 5.41515C34.3988 5.16771 33.1122 6.85023 32.2338 7.87707C31.1204 9.16372 30.8606 8.02553 30.3162 8.14925C29.7719 8.27297 28.0894 10.0792 27.9285 10.5617C27.743 11.1432 29.2028 13.3082 28.609 15.8815C28.4976 16.3516 31.8256 16.8712 31.8256 16.8712C31.8256 16.8712 33.9658 13.4195 34.238 12.4051C34.4978 11.3906 35.9206 10.4627 35.3391 10.3885H35.3267Z" fill="#B6DBF7"/>
<path d="M35.3272 10.3885C34.7457 10.3143 33.657 11.205 33.0755 11.7246C32.4941 12.2443 32.2343 10.9947 32.6178 9.53486C33.0137 8.07501 35.3395 5.79866 34.7704 5.41515C34.3993 5.16771 33.1126 6.85023 32.2343 7.87707C31.1208 9.16372 30.861 8.02553 30.3167 8.14925C29.9084 8.23585 28.8692 9.27505 28.3125 9.9926C28.8197 9.88126 29.1909 9.47301 29.463 9.85653C29.7228 10.2277 30.3291 9.76991 30.5889 10.2648C30.6755 10.4256 31.591 10.104 31.8879 10.9452C32.1972 11.7989 30.9724 13.0855 31.0961 13.7412C31.3064 14.8917 31.3683 15.2258 31.1579 15.7577C31.6775 15.8567 31.8261 16.8836 31.8261 16.8836C31.8261 16.8836 33.9663 13.4319 34.2384 12.4175C34.4983 11.403 35.921 10.4751 35.3395 10.4009L35.3272 10.3885Z" fill="#ACCBE3"/>
<path d="M31.1837 15.6328C31.0723 16.1029 30.8991 16.5483 30.6888 16.9813C30.3795 17.6123 30.0702 18.1814 29.6248 18.6886C28.932 20.1113 27.9299 21.6083 27.1134 22.8331C25.8267 24.763 25.1587 27.324 23.1298 28.6477C22.6102 28.9941 22.0782 29.2044 21.5215 29.3281C22.1277 30.6024 23.1421 31.5674 24.4906 30.8127C27.2124 29.3158 31.9631 16.5236 31.9631 16.5236C31.7033 16.0906 31.4435 15.806 31.1837 15.6328Z" fill="#ACCBE3"/>
<path d="M11.0294 68.5195C11.0294 68.5195 14.0109 75.3115 11.6232 80.1488C7.75093 87.9924 9.07468 104.88 8.75302 106.859C8.43136 108.838 12.3655 110.966 13.3305 107.007C14.2955 103.049 18.8977 85.617 20.9266 81.4354C22.9679 77.2539 22.1761 69.4474 22.1761 69.4474L11.0294 68.5319V68.5195Z" fill="#B6DBF7"/>
<path d="M19.2555 73.8316C21.1112 77.2957 23.0659 87.5393 22.0885 93.9354C21.1235 100.332 23.3381 112.864 23.3876 114.868C23.4371 116.872 27.3465 118.629 27.5568 114.559C27.7671 110.489 29.895 94.3066 31.1198 89.8157C32.3446 85.3372 30.2538 71.7037 30.2538 71.7037C30.2538 71.7037 17.3997 70.3552 19.2555 73.8193V73.8316Z" fill="#B6DBF7"/>
<path d="M30.4004 120.222C27.7405 118.613 28.0622 113.875 28.0622 113.875C24.6353 114.011 23.0517 113.355 23.0517 113.355C23.0517 114.803 21.4063 117.265 21.2084 119.43C21.0352 121.36 22.6434 122.51 22.6434 124.205H24.0538L23.3486 120.259C25.6497 120.259 28.5942 124.255 31.4644 124.23C34.483 124.193 35.3367 123.277 35.5593 122.325C35.7944 121.372 33.0727 121.83 30.4128 120.222H30.4004Z" fill="url(#paint0_linear_1_25005)"/>
<path d="M16.0255 112.503C13.3656 110.895 13.6872 106.156 13.6872 106.156C10.2603 106.292 8.67675 105.637 8.67675 105.637C8.67675 107.084 7.03131 109.546 6.83336 111.711C6.66016 113.641 8.26847 114.792 8.26847 116.487H9.67884L8.97365 112.54C11.2748 112.54 14.2192 116.536 17.0894 116.511C20.1081 116.474 20.9617 115.559 21.1844 114.606C21.4194 113.653 18.6977 114.111 16.0378 112.503H16.0255Z" fill="url(#paint1_linear_1_25005)"/>
<path d="M22.6967 16.3247C22.5977 15.5082 23.1668 14.6916 23.1668 14.6916C23.1668 14.6916 17.6614 7.85017 18.0944 11.4874C18.5274 15.1246 18.0078 18.5392 18.0078 18.5392C20.2966 18.1185 24.1812 19.1454 24.1812 19.1454C23.4389 18.9846 22.808 17.1412 22.709 16.3247H22.6967Z" fill="#ACCBE3"/>
<path d="M13.293 38.8555C13.293 38.8555 12.427 42.0102 10.1506 45.8701C7.86188 49.7301 5.73397 55.4333 6.51337 59.8252C7.28041 64.1677 5.62262 81.3765 4.03906 90.1727C4.03906 90.1727 11.8703 91.6944 14.8271 93.7728C25.1944 101.072 36.4154 94.2429 36.4154 94.2429C36.4154 75.5124 28.5966 51.227 27.0007 40.4885L13.3053 38.8555H13.293Z" fill="url(#paint2_linear_1_25005)"/>
<path d="M29.351 28.5499C28.683 26.8179 28.2994 25.0735 27.5695 22.3147C26.8396 19.5558 22.2868 17.8238 18.0063 18.5413C13.3051 19.3331 12.5133 26.0509 12.5009 30.2943C12.5009 34.2285 12.8968 38.6822 10.6328 45.0165C15.6062 49.4702 23.7714 51.5981 28.8932 48.8517C28.2746 44.5711 26.1592 37.3709 27.0994 34.1295C27.2602 33.5852 30.6624 31.9026 29.351 28.5376V28.5499Z" fill="url(#paint3_linear_1_25005)"/>
<path d="M26.0845 6.7626C26.1959 6.21826 26.0969 5.22851 26.035 4.73365C25.5278 0.477835 19.4781 4.412 17.3997 7.87604C15.3213 11.3277 23.87 17.464 25.6268 14.4453C27.6928 10.8823 26.7155 8.1977 26.6165 8.03687C26.1959 7.45541 25.9856 7.25747 26.0845 6.7626Z" fill="#B6DBF7"/>
<path d="M26.0824 6.76266C26.1938 6.21831 26.0947 5.22857 26.0329 4.73371C25.637 1.36864 21.7771 3.12541 19.1543 5.71107C19.3028 5.71107 19.4636 5.73582 19.612 5.76057C19.8966 5.81005 20.1812 5.88428 20.4534 5.94613C20.6884 5.81005 20.9235 5.67396 21.208 5.59973C21.7771 5.45127 23.67 5.10486 24.2391 5.27806C25.5257 5.69869 25.1546 7.34412 25.6989 8.72973C26.2556 10.1277 25.6123 11.7731 25.204 12.7752C24.7215 13.9381 23.8307 14.7052 22.7915 15.0392C24.0287 15.4228 25.1174 15.3238 25.6247 14.433C27.6907 10.87 26.7134 8.18538 26.6144 8.02455C26.1938 7.44308 25.9834 7.24514 26.0824 6.75028V6.76266Z" fill="#ACCBE3"/>
<path d="M20.0093 0.278678C15.4071 1.47872 13.9101 -1.24306 11.4606 4.15094C9.444 8.60471 5.93048 4.38601 3.85206 9.53258C1.77364 14.6915 4.09949 13.1822 1.06846 18.0195C-1.5172 22.1392 1.2664 25.9991 2.34273 28.6714C3.41905 31.3436 5.36139 32.6922 2.99842 36.5644C2.99842 36.5644 12.6235 36.4407 11.8565 30.057C11.0894 23.6733 17.1762 26.7291 16.6319 22.2258C16.1989 18.6133 20.8382 20.1103 20.7021 17.8215C20.5784 15.5328 24.8961 14.5307 21.9888 10.4233C20.2691 7.98614 26.8755 6.45206 26.5539 3.80454C26.3436 2.03541 24.5868 -0.921364 19.9846 0.278678H20.0093Z" fill="#0089FF"/>
<path d="M22.7438 8.45754C22.6695 8.1235 21.6798 7.48019 21.3458 8.23486C21.0117 8.98952 21.3086 10.1153 21.7788 10.7958C22.2489 11.4762 22.6695 11.2535 22.5953 10.8947C22.4963 10.4494 22.9912 9.63283 22.7438 8.45754Z" fill="#B6DBF7"/>
<path d="M28.101 28.314C27.8659 22.7344 26.0473 20.5942 24.7607 20.5323C21.4575 20.3839 19.5894 23.5633 20.2822 28.1656C20.9379 32.5698 22.3482 38.8793 25.9112 43.6053C27.3216 45.461 30.0433 40.3268 29.7959 38.9412C29.5485 37.568 28.3113 33.0523 28.1134 28.3017L28.101 28.314Z" fill="#B6DBF7"/>
<path d="M52.5466 43.7394C51.8166 43.1703 50.1465 41.5744 48.6495 41.3517C47.1525 41.1414 44.8143 41.5249 45.3586 40.9682C45.903 40.3991 46.5587 39.632 46.5092 39.0506C46.4597 38.4691 45.9153 39.8176 44.9009 40.0403C43.874 40.263 41.3008 42.1187 41.3008 42.1187C41.3008 42.1187 41.3008 45.0755 41.7833 45.0631C42.2534 45.0631 43.6142 45.4096 44.6782 45.5828C45.7298 45.756 47.8577 47.3395 48.167 46.9313C48.4763 46.523 50.1712 45.0013 50.3196 44.4693C50.4681 43.9374 48.7484 42.0445 50.0969 43.0837C51.4702 44.1476 53.0414 44.1105 52.5713 43.7394H52.5466Z" fill="#B6DBF7"/>
<path d="M44.6402 44.4344C43.8113 43.7663 44.5907 43.3828 43.3165 43.2344C42.6731 43.1602 42.1288 43.4571 41.5597 43.5931C41.4979 43.6055 41.535 45.0777 41.77 45.0777C42.2401 45.0777 43.601 45.4241 44.6649 45.5973C45.7165 45.7705 47.8444 47.3541 48.1537 46.9459C48.463 46.5376 50.1579 45.0159 50.3064 44.4839C50.3558 44.3107 50.2074 43.989 50.0342 43.6797C49.5765 45.486 44.8629 44.62 44.6526 44.4468L44.6402 44.4344Z" fill="#ACCBE3"/>
<path d="M42.0792 41.6887C39.5554 41.9238 32.219 39.2639 29.4478 38.8433C28.1983 38.6577 23.8064 42.0475 26.256 43.9527C28.7056 45.8579 42.339 45.128 42.339 45.128C43.7865 43.1115 42.0668 41.6763 42.0668 41.6763L42.0792 41.6887Z" fill="#B6DBF7"/>
<path d="M25.5161 38.6694C24.9594 36.8136 24.2542 35.7373 23.0912 34.1537C21.1984 31.5557 20.852 29.1927 20.6046 26.038C20.5675 25.506 20.4685 24.9122 20.3572 24.2812C20.0974 25.3947 20.0603 26.7061 20.2829 28.1659C20.9386 32.5702 22.349 38.8797 25.912 43.6056C26.6543 44.583 27.7553 43.6304 28.5966 42.2942C28.2997 42.1705 28.0028 42.0221 27.7183 41.8365C26.543 41.0695 25.912 39.9684 25.5161 38.657V38.6694Z" fill="#ACCBE3"/>
<path d="M34.644 43.1976C32.3677 42.777 29.7449 43.1852 27.716 41.8491C27.1964 41.5027 26.7881 41.0945 26.4541 40.6367C25.5138 41.7007 25.0437 43.012 26.2685 43.9523C28.718 45.8575 42.3515 45.1276 42.3515 45.1276C42.9206 44.3358 42.9577 43.7915 42.834 43.2348C41.2133 44.3853 37.341 43.6801 34.6316 43.1853L34.644 43.1976Z" fill="#ACCBE3"/>
<defs>
<linearGradient id="paint0_linear_1_25005" x1="21.1836" y1="118.787" x2="35.5593" y2="118.787" gradientUnits="userSpaceOnUse">
<stop stop-color="#3BA2A9"/>
<stop offset="1" stop-color="#00E7D5"/>
</linearGradient>
<linearGradient id="paint1_linear_1_25005" x1="6.82099" y1="111.068" x2="21.1844" y2="111.068" gradientUnits="userSpaceOnUse">
<stop stop-color="#3BA2A9"/>
<stop offset="1" stop-color="#00E7D5"/>
</linearGradient>
<linearGradient id="paint2_linear_1_25005" x1="4.02669" y1="67.9905" x2="36.4154" y2="67.9905" gradientUnits="userSpaceOnUse">
<stop stop-color="#AECDFA"/>
<stop offset="1" stop-color="#A0C2EA"/>
</linearGradient>
<linearGradient id="paint3_linear_1_25005" x1="32.6295" y1="34.2285" x2="10.7689" y2="34.2285" gradientUnits="userSpaceOnUse">
<stop stop-color="#3BA2A9"/>
<stop offset="1" stop-color="#00E7D5"/>
</linearGradient>
</defs>
</svg>
