<svg width="136" height="172" viewBox="0 0 136 172" fill="none" xmlns="http://www.w3.org/2000/svg">
<path d="M90.3545 96.1885C77.4881 90.2254 56.8275 90.5223 44.2209 96.8442C35.202 101.36 32.7649 107.744 36.8104 113.187C38.196 110.589 40.9301 108.115 45.0746 106.036C57.6935 99.7144 78.3417 99.4175 91.2081 105.381C94.8701 107.075 97.4681 109.104 99.0764 111.269C101.897 105.974 98.9898 100.185 90.3545 96.1885Z" fill="#CE7436"/>
<g opacity="0.46" filter="url(#filter0_dddd_1_25072)">
<path d="M107.255 112.394C85.6294 102.051 50.9024 102.558 29.6851 113.532C8.48029 124.505 8.81434 141.776 30.4522 152.131C52.0777 162.474 86.8047 161.967 108.022 150.993C129.227 140.019 128.893 122.736 107.255 112.406V112.394Z" fill="#95B1E9"/>
</g>
<g filter="url(#filter1_dddd_1_25072)">
<path d="M109.408 123.48L108.951 107.224L26.123 106.977L26.5808 124.21H26.6055C26.3581 130.594 30.4655 136.965 38.9771 141.679C55.3199 150.747 81.5476 150.302 97.5688 140.677C105.462 135.939 109.384 129.852 109.396 123.827H109.408V123.641C109.408 123.641 109.408 123.53 109.408 123.48Z" fill="url(#paint0_linear_1_25072)"/>
</g>
<g filter="url(#filter2_dddd_1_25072)">
<path d="M96.5274 90.6838C80.1846 81.6154 53.9569 82.0608 37.9357 91.6859C21.9145 101.299 22.1743 116.454 38.5172 125.51C54.86 134.578 81.0877 134.133 97.1089 124.508C113.13 114.895 112.87 99.7398 96.5274 90.6838Z" fill="#EFF3F9"/>
</g>
<path d="M90.3554 96.1759C77.489 90.2252 56.8409 90.5097 44.2219 96.8316C33.6937 102.09 32.0854 109.896 39.3228 115.822C40.7579 116.985 42.5394 118.086 44.6673 119.076C57.5461 125.026 78.1942 124.742 90.8132 118.42C92.6813 117.48 94.2648 116.465 95.5515 115.389C103.086 109.228 101.317 101.248 90.3431 96.1759H90.3554Z" fill="url(#paint1_linear_1_25072)"/>
<path d="M84.3665 91.8438C71.3764 87.6004 54.8479 88.9488 44.3321 94.5779C44.2455 94.6274 44.1589 94.6645 44.0723 94.714C42.3156 95.679 40.732 96.7553 39.3588 97.9677C29.845 106.343 34.5586 117.206 49.8498 122.204C62.7163 126.398 79.0343 125.136 89.5625 119.643C89.6615 119.593 89.7605 119.544 89.8718 119.482C91.7399 118.48 93.4225 117.342 94.8576 116.08C104.371 107.704 99.6701 96.8295 84.3665 91.8438Z" fill="url(#paint2_linear_1_25072)"/>
<path d="M51.9406 119.434C38.4804 115.252 34.3359 106.135 42.7115 99.1198C51.0746 92.1052 68.8402 89.804 82.3004 93.998C95.7607 98.1796 99.8928 107.297 91.5296 114.312C83.1665 121.327 65.4009 123.628 51.9406 119.434ZM82.2015 94.0722C68.8278 89.9154 51.1736 92.1917 42.8599 99.1693C34.5462 106.134 38.6536 115.19 52.0396 119.36C65.4133 123.517 83.0675 121.228 91.3812 114.263C99.6949 107.297 95.5875 98.2414 82.2015 94.0722Z" fill="url(#paint3_linear_1_25072)"/>
<path d="M56.7404 115.411C47.5359 112.553 44.7028 106.318 50.4309 101.53C56.1465 96.73 68.2954 95.1588 77.4998 98.029C86.7043 100.887 89.5374 107.122 83.8093 111.91C78.0937 116.71 65.9448 118.281 56.7527 115.411H56.7404ZM77.4256 98.0661C68.283 95.2207 56.2084 96.7795 50.5298 101.555C44.8389 106.318 47.6596 112.516 56.8022 115.362C65.9448 118.207 78.0194 116.648 83.698 111.873C89.3889 107.11 86.5682 100.912 77.4256 98.0661Z" fill="url(#paint4_linear_1_25072)"/>
<path d="M61.5284 111.394C56.5797 109.86 55.058 106.508 58.1385 103.922C61.2191 101.349 67.7512 100.495 72.6999 102.042C77.6485 103.576 79.1702 106.928 76.0897 109.514C73.0092 112.1 66.477 112.941 61.5284 111.394ZM72.6628 102.066C67.7389 100.532 61.2562 101.373 58.188 103.934C55.1323 106.495 56.6416 109.823 61.5655 111.357C66.4893 112.891 72.972 112.05 76.0402 109.477C79.096 106.916 77.5866 103.588 72.6628 102.054V102.066Z" fill="url(#paint5_linear_1_25072)"/>
<path d="M46.3744 118.657C46.3744 118.657 46.2878 118.657 46.2507 118.62C46.2012 118.583 46.1641 118.545 46.1641 118.484V118.422L46.2259 118.36L88.2892 93.357C88.2892 93.357 88.3511 93.3323 88.3882 93.3323C88.4253 93.3323 88.4748 93.3323 88.5119 93.3694C88.5614 93.4065 88.5985 93.4436 88.5985 93.5055V93.5673L88.5367 93.6292L46.4734 118.632C46.4734 118.632 46.4115 118.657 46.3744 118.657Z" fill="url(#paint6_linear_1_25072)"/>
<path d="M89.8718 119.483C89.7728 119.545 89.6738 119.594 89.5625 119.644L44.0723 94.7151C44.1465 94.6656 44.2578 94.6037 44.3321 94.579C44.3444 94.579 44.3692 94.579 44.3816 94.5667L89.8718 119.495V119.483Z" fill="url(#paint7_linear_1_25072)"/>
<path opacity="0.63" d="M99.7579 17.9748C99.3125 11.8756 93.8937 6.06093 84.3676 2.69587C71.3775 -1.89398 54.8491 -0.434132 44.3333 5.6403C44.2467 5.68979 44.1601 5.73927 44.0735 5.78876C42.3167 6.82797 40.7332 8.00326 39.3599 9.30227C36.2918 12.2096 34.7206 15.4138 34.4855 18.5809C34.436 17.8387 34.4484 105.986 34.4484 105.986H34.5474C33.669 112.345 39.1867 118.692 49.8634 122.18C62.7298 126.374 79.0479 125.112 89.5761 119.619C89.675 119.57 89.774 119.521 89.8854 119.459C91.7535 118.457 93.436 117.318 94.8711 116.056C98.4588 112.902 100.018 109.388 99.7579 105.974H100.005C100.005 105.974 99.7826 17.4056 99.7579 17.95V17.9748Z" fill="url(#paint8_linear_1_25072)"/>
<g opacity="0.63" filter="url(#filter3_dddd_1_25072)">
<path d="M100.007 16.3642H99.7223C100.093 19.8777 98.5593 23.4902 94.8602 26.7439C93.4251 28.0058 91.7426 29.144 89.8745 30.1461C89.7755 30.2079 89.6765 30.2574 89.5652 30.3069C79.037 35.7999 62.7189 37.0618 49.8525 32.8555C39.015 29.3172 33.4973 22.8221 34.586 16.3642H34.4375V105.996H34.5365C33.6581 112.355 39.1758 118.702 49.8525 122.19C62.7189 126.384 79.037 125.123 89.5652 119.63C89.6641 119.58 89.7631 119.531 89.8745 119.469C91.7426 118.467 93.4251 117.328 94.8602 116.067C98.448 112.912 100.007 109.398 99.747 105.984H99.9944V16.3518L100.007 16.3642Z" fill="url(#paint9_linear_1_25072)"/>
</g>
<defs>
<filter id="filter0_dddd_1_25072" x="0" y="90.9573" width="135.707" height="80.6102" filterUnits="userSpaceOnUse" color-interpolation-filters="sRGB">
<feFlood flood-opacity="0" result="BackgroundImageFix"/>
<feColorMatrix in="SourceAlpha" type="matrix" values="0 0 0 0 0 0 0 0 0 0 0 0 0 0 0 0 0 0 127 0" result="hardAlpha"/>
<feOffset dx="5" dy="5"/>
<feGaussianBlur stdDeviation="3.5"/>
<feComposite in2="hardAlpha" operator="out"/>
<feColorMatrix type="matrix" values="0 0 0 0 0 0 0 0 0 0 0 0 0 0 0 0 0 0 0.1 0"/>
<feBlend mode="normal" in2="BackgroundImageFix" result="effect1_dropShadow_1_25072"/>
<feColorMatrix in="SourceAlpha" type="matrix" values="0 0 0 0 0 0 0 0 0 0 0 0 0 0 0 0 0 0 127 0" result="hardAlpha"/>
<feOffset dx="1" dy="1"/>
<feGaussianBlur stdDeviation="1"/>
<feComposite in2="hardAlpha" operator="out"/>
<feColorMatrix type="matrix" values="0 0 0 0 0 0 0 0 0 0 0 0 0 0 0 0 0 0 0.1 0"/>
<feBlend mode="normal" in2="effect1_dropShadow_1_25072" result="effect2_dropShadow_1_25072"/>
<feColorMatrix in="SourceAlpha" type="matrix" values="0 0 0 0 0 0 0 0 0 0 0 0 0 0 0 0 0 0 127 0" result="hardAlpha"/>
<feOffset dx="-2" dy="-2"/>
<feGaussianBlur stdDeviation="1"/>
<feComposite in2="hardAlpha" operator="out"/>
<feColorMatrix type="matrix" values="0 0 0 0 1 0 0 0 0 1 0 0 0 0 1 0 0 0 0.8 0"/>
<feBlend mode="normal" in2="effect2_dropShadow_1_25072" result="effect3_dropShadow_1_25072"/>
<feColorMatrix in="SourceAlpha" type="matrix" values="0 0 0 0 0 0 0 0 0 0 0 0 0 0 0 0 0 0 127 0" result="hardAlpha"/>
<feOffset dx="-6" dy="-6"/>
<feGaussianBlur stdDeviation="4"/>
<feComposite in2="hardAlpha" operator="out"/>
<feColorMatrix type="matrix" values="0 0 0 0 1 0 0 0 0 1 0 0 0 0 1 0 0 0 0.5 0"/>
<feBlend mode="normal" in2="effect3_dropShadow_1_25072" result="effect4_dropShadow_1_25072"/>
<feBlend mode="normal" in="SourceGraphic" in2="effect4_dropShadow_1_25072" result="shape"/>
</filter>
<clipPath id="bgblur_0_1_25072_clip_path" transform="translate(0 -90.9573)"><path d="M107.255 112.394C85.6294 102.051 50.9024 102.558 29.6851 113.532C8.48029 124.505 8.81434 141.776 30.4522 152.131C52.0777 162.474 86.8047 161.967 108.022 150.993C129.227 140.019 128.893 122.736 107.255 112.406V112.394Z"/>
</clipPath><filter id="filter1_dddd_1_25072" x="12.123" y="92.9768" width="109.285" height="67.2217" filterUnits="userSpaceOnUse" color-interpolation-filters="sRGB">
<feFlood flood-opacity="0" result="BackgroundImageFix"/>
<feColorMatrix in="SourceAlpha" type="matrix" values="0 0 0 0 0 0 0 0 0 0 0 0 0 0 0 0 0 0 127 0" result="hardAlpha"/>
<feOffset dx="5" dy="5"/>
<feGaussianBlur stdDeviation="3.5"/>
<feComposite in2="hardAlpha" operator="out"/>
<feColorMatrix type="matrix" values="0 0 0 0 0 0 0 0 0 0 0 0 0 0 0 0 0 0 0.1 0"/>
<feBlend mode="normal" in2="BackgroundImageFix" result="effect1_dropShadow_1_25072"/>
<feColorMatrix in="SourceAlpha" type="matrix" values="0 0 0 0 0 0 0 0 0 0 0 0 0 0 0 0 0 0 127 0" result="hardAlpha"/>
<feOffset dx="1" dy="1"/>
<feGaussianBlur stdDeviation="1"/>
<feComposite in2="hardAlpha" operator="out"/>
<feColorMatrix type="matrix" values="0 0 0 0 0 0 0 0 0 0 0 0 0 0 0 0 0 0 0.1 0"/>
<feBlend mode="normal" in2="effect1_dropShadow_1_25072" result="effect2_dropShadow_1_25072"/>
<feColorMatrix in="SourceAlpha" type="matrix" values="0 0 0 0 0 0 0 0 0 0 0 0 0 0 0 0 0 0 127 0" result="hardAlpha"/>
<feOffset dx="-2" dy="-2"/>
<feGaussianBlur stdDeviation="1"/>
<feComposite in2="hardAlpha" operator="out"/>
<feColorMatrix type="matrix" values="0 0 0 0 1 0 0 0 0 1 0 0 0 0 1 0 0 0 0.8 0"/>
<feBlend mode="normal" in2="effect2_dropShadow_1_25072" result="effect3_dropShadow_1_25072"/>
<feColorMatrix in="SourceAlpha" type="matrix" values="0 0 0 0 0 0 0 0 0 0 0 0 0 0 0 0 0 0 127 0" result="hardAlpha"/>
<feOffset dx="-6" dy="-6"/>
<feGaussianBlur stdDeviation="4"/>
<feComposite in2="hardAlpha" operator="out"/>
<feColorMatrix type="matrix" values="0 0 0 0 1 0 0 0 0 1 0 0 0 0 1 0 0 0 0.5 0"/>
<feBlend mode="normal" in2="effect3_dropShadow_1_25072" result="effect4_dropShadow_1_25072"/>
<feBlend mode="normal" in="SourceGraphic" in2="effect4_dropShadow_1_25072" result="shape"/>
</filter>
<clipPath id="bgblur_1_1_25072_clip_path" transform="translate(-12.123 -92.9768)"><path d="M109.408 123.48L108.951 107.224L26.123 106.977L26.5808 124.21H26.6055C26.3581 130.594 30.4655 136.965 38.9771 141.679C55.3199 150.747 81.5476 150.302 97.5688 140.677C105.462 135.939 109.384 129.852 109.396 123.827H109.408V123.641C109.408 123.641 109.408 123.53 109.408 123.48Z"/>
</clipPath><filter id="filter2_dddd_1_25072" x="12.0879" y="70.1643" width="108.869" height="73.8649" filterUnits="userSpaceOnUse" color-interpolation-filters="sRGB">
<feFlood flood-opacity="0" result="BackgroundImageFix"/>
<feColorMatrix in="SourceAlpha" type="matrix" values="0 0 0 0 0 0 0 0 0 0 0 0 0 0 0 0 0 0 127 0" result="hardAlpha"/>
<feOffset dx="5" dy="5"/>
<feGaussianBlur stdDeviation="3.5"/>
<feComposite in2="hardAlpha" operator="out"/>
<feColorMatrix type="matrix" values="0 0 0 0 0 0 0 0 0 0 0 0 0 0 0 0 0 0 0.1 0"/>
<feBlend mode="normal" in2="BackgroundImageFix" result="effect1_dropShadow_1_25072"/>
<feColorMatrix in="SourceAlpha" type="matrix" values="0 0 0 0 0 0 0 0 0 0 0 0 0 0 0 0 0 0 127 0" result="hardAlpha"/>
<feOffset dx="1" dy="1"/>
<feGaussianBlur stdDeviation="1"/>
<feComposite in2="hardAlpha" operator="out"/>
<feColorMatrix type="matrix" values="0 0 0 0 0 0 0 0 0 0 0 0 0 0 0 0 0 0 0.1 0"/>
<feBlend mode="normal" in2="effect1_dropShadow_1_25072" result="effect2_dropShadow_1_25072"/>
<feColorMatrix in="SourceAlpha" type="matrix" values="0 0 0 0 0 0 0 0 0 0 0 0 0 0 0 0 0 0 127 0" result="hardAlpha"/>
<feOffset dx="-2" dy="-2"/>
<feGaussianBlur stdDeviation="1"/>
<feComposite in2="hardAlpha" operator="out"/>
<feColorMatrix type="matrix" values="0 0 0 0 1 0 0 0 0 1 0 0 0 0 1 0 0 0 0.8 0"/>
<feBlend mode="normal" in2="effect2_dropShadow_1_25072" result="effect3_dropShadow_1_25072"/>
<feColorMatrix in="SourceAlpha" type="matrix" values="0 0 0 0 0 0 0 0 0 0 0 0 0 0 0 0 0 0 127 0" result="hardAlpha"/>
<feOffset dx="-6" dy="-6"/>
<feGaussianBlur stdDeviation="4"/>
<feComposite in2="hardAlpha" operator="out"/>
<feColorMatrix type="matrix" values="0 0 0 0 1 0 0 0 0 1 0 0 0 0 1 0 0 0 0.5 0"/>
<feBlend mode="normal" in2="effect3_dropShadow_1_25072" result="effect4_dropShadow_1_25072"/>
<feBlend mode="normal" in="SourceGraphic" in2="effect4_dropShadow_1_25072" result="shape"/>
</filter>
<clipPath id="bgblur_2_1_25072_clip_path" transform="translate(-12.0879 -70.1643)"><path d="M96.5274 90.6838C80.1846 81.6154 53.9569 82.0608 37.9357 91.6859C21.9145 101.299 22.1743 116.454 38.5172 125.51C54.86 134.578 81.0877 134.133 97.1089 124.508C113.13 114.895 112.87 99.7398 96.5274 90.6838Z"/>
</clipPath><filter id="filter3_dddd_1_25072" x="20.4375" y="2.35181" width="91.5693" height="134.331" filterUnits="userSpaceOnUse" color-interpolation-filters="sRGB">
<feFlood flood-opacity="0" result="BackgroundImageFix"/>
<feColorMatrix in="SourceAlpha" type="matrix" values="0 0 0 0 0 0 0 0 0 0 0 0 0 0 0 0 0 0 127 0" result="hardAlpha"/>
<feOffset dx="5" dy="5"/>
<feGaussianBlur stdDeviation="3.5"/>
<feComposite in2="hardAlpha" operator="out"/>
<feColorMatrix type="matrix" values="0 0 0 0 0 0 0 0 0 0 0 0 0 0 0 0 0 0 0.1 0"/>
<feBlend mode="normal" in2="BackgroundImageFix" result="effect1_dropShadow_1_25072"/>
<feColorMatrix in="SourceAlpha" type="matrix" values="0 0 0 0 0 0 0 0 0 0 0 0 0 0 0 0 0 0 127 0" result="hardAlpha"/>
<feOffset dx="1" dy="1"/>
<feGaussianBlur stdDeviation="1"/>
<feComposite in2="hardAlpha" operator="out"/>
<feColorMatrix type="matrix" values="0 0 0 0 0 0 0 0 0 0 0 0 0 0 0 0 0 0 0.1 0"/>
<feBlend mode="normal" in2="effect1_dropShadow_1_25072" result="effect2_dropShadow_1_25072"/>
<feColorMatrix in="SourceAlpha" type="matrix" values="0 0 0 0 0 0 0 0 0 0 0 0 0 0 0 0 0 0 127 0" result="hardAlpha"/>
<feOffset dx="-2" dy="-2"/>
<feGaussianBlur stdDeviation="1"/>
<feComposite in2="hardAlpha" operator="out"/>
<feColorMatrix type="matrix" values="0 0 0 0 1 0 0 0 0 1 0 0 0 0 1 0 0 0 0.8 0"/>
<feBlend mode="normal" in2="effect2_dropShadow_1_25072" result="effect3_dropShadow_1_25072"/>
<feColorMatrix in="SourceAlpha" type="matrix" values="0 0 0 0 0 0 0 0 0 0 0 0 0 0 0 0 0 0 127 0" result="hardAlpha"/>
<feOffset dx="-6" dy="-6"/>
<feGaussianBlur stdDeviation="4"/>
<feComposite in2="hardAlpha" operator="out"/>
<feColorMatrix type="matrix" values="0 0 0 0 1 0 0 0 0 1 0 0 0 0 1 0 0 0 0.5 0"/>
<feBlend mode="normal" in2="effect3_dropShadow_1_25072" result="effect4_dropShadow_1_25072"/>
<feBlend mode="normal" in="SourceGraphic" in2="effect4_dropShadow_1_25072" result="shape"/>
</filter>
<clipPath id="bgblur_3_1_25072_clip_path" transform="translate(-20.4375 -2.35181)"><path d="M100.007 16.3642H99.7223C100.093 19.8777 98.5593 23.4902 94.8602 26.7439C93.4251 28.0058 91.7426 29.144 89.8745 30.1461C89.7755 30.2079 89.6765 30.2574 89.5652 30.3069C79.037 35.7999 62.7189 37.0618 49.8525 32.8555C39.015 29.3172 33.4973 22.8221 34.586 16.3642H34.4375V105.996H34.5365C33.6581 112.355 39.1758 118.702 49.8525 122.19C62.7189 126.384 79.037 125.123 89.5652 119.63C89.6641 119.58 89.7631 119.531 89.8745 119.469C91.7426 118.467 93.4251 117.328 94.8602 116.067C98.448 112.912 100.007 109.398 99.747 105.984H99.9944V16.3518L100.007 16.3642Z"/>
</clipPath><linearGradient id="paint0_linear_1_25072" x1="26.123" y1="127.588" x2="109.421" y2="127.588" gradientUnits="userSpaceOnUse">
<stop stop-color="#E6F0FF"/>
<stop offset="1" stop-color="#9CB2DF"/>
</linearGradient>
<linearGradient id="paint1_linear_1_25072" x1="67.5175" y1="90.9922" x2="67.5175" y2="116.082" gradientUnits="userSpaceOnUse">
<stop stop-color="#3BA2A9"/>
<stop offset="1" stop-color="#00E7D5"/>
</linearGradient>
<linearGradient id="paint2_linear_1_25072" x1="366.111" y1="216.501" x2="420.172" y2="236.757" gradientUnits="userSpaceOnUse">
<stop stop-color="#3BA2A9"/>
<stop offset="1" stop-color="#00E7D5"/>
</linearGradient>
<linearGradient id="paint3_linear_1_25072" x1="67.1082" y1="91.0164" x2="67.1082" y2="118.815" gradientUnits="userSpaceOnUse">
<stop stop-color="#00D0FF"/>
<stop offset="1" stop-color="#007FD9"/>
</linearGradient>
<linearGradient id="paint4_linear_1_25072" x1="67.1077" y1="91.0143" x2="67.1077" y2="118.813" gradientUnits="userSpaceOnUse">
<stop stop-color="#00D0FF"/>
<stop offset="1" stop-color="#007FD9"/>
</linearGradient>
<linearGradient id="paint5_linear_1_25072" x1="67.1079" y1="91.0185" x2="67.1079" y2="118.817" gradientUnits="userSpaceOnUse">
<stop stop-color="#00D0FF"/>
<stop offset="1" stop-color="#007FD9"/>
</linearGradient>
<linearGradient id="paint6_linear_1_25072" x1="67.3813" y1="91.0188" x2="67.3813" y2="118.818" gradientUnits="userSpaceOnUse">
<stop stop-color="#00D0FF"/>
<stop offset="1" stop-color="#007FD9"/>
</linearGradient>
<linearGradient id="paint7_linear_1_25072" x1="66.972" y1="91.1768" x2="66.972" y2="117.281" gradientUnits="userSpaceOnUse">
<stop stop-color="#00D0FF"/>
<stop offset="1" stop-color="#007FD9"/>
</linearGradient>
<linearGradient id="paint8_linear_1_25072" x1="67.2207" y1="0.0112403" x2="67.2207" y2="125.484" gradientUnits="userSpaceOnUse">
<stop stop-color="#00E7D5"/>
<stop offset="1" stop-color="#00E7D5"/>
</linearGradient>
<linearGradient id="paint9_linear_1_25072" x1="67.2221" y1="25.5934" x2="67.2221" y2="124.393" gradientUnits="userSpaceOnUse">
<stop offset="1" stop-color="#D7FFEE"/>
</linearGradient>
</defs>
</svg>
