<svg width="53" height="133" viewBox="0 0 53 133" fill="none" xmlns="http://www.w3.org/2000/svg">
<path d="M20.5786 57.7184C21.4446 58.4359 25.119 61.5041 24.1911 63.0505C23.919 63.5083 25.9479 67.4177 23.2509 66.0445C22.7313 65.7847 22.7684 67.1579 22.2364 66.8115C21.4199 66.2671 19.2673 64.5351 18.4013 63.199C18.092 62.7165 17.9064 62.1969 17.6837 62.2588C17.6837 62.2588 19.1559 64.3867 18.9085 64.5475C18.3765 64.8815 14.9991 62.1845 15.7661 60.9474C16.1249 60.3783 16.1001 59.1906 15.9146 58.7824C14.4424 55.6895 7.79883 45.4334 7.79883 45.4334L11.8938 41.8828C11.8938 41.8828 18.327 55.8503 20.5786 57.7184Z" fill="#B6DBF7"/>
<path d="M20.5782 57.7178C21.4442 58.4353 25.1186 61.5035 24.1907 63.0499C23.9185 63.5077 25.9474 67.4171 23.2504 66.0438C22.7308 65.784 22.7679 67.1573 22.236 66.8109C22.1494 66.7614 22.0628 66.6871 21.9514 66.6129C22.7185 66.0315 23.0278 64.9675 22.7061 64.0644C22.7185 63.9407 22.7432 63.8046 22.7556 63.6809C22.8051 63.2107 22.8051 62.8025 22.6814 62.3324C22.4834 61.5406 22.0628 60.7735 21.4689 60.1921C20.9246 59.6477 20.1452 59.1405 19.3658 58.8065C19.4895 58.4106 19.4647 57.9652 19.2297 57.458C18.3884 55.627 17.4111 54.2909 16.1986 52.7073C15.1471 51.3217 11.9923 44.1091 11.1016 42.5874L11.8934 41.8945C11.8934 41.8945 18.3266 55.862 20.5782 57.7301V57.7178Z" fill="#ACCBE3"/>
<path d="M17.3494 52.5701C17.6834 52.3845 18.0917 52.4835 18.2649 52.7928C18.5123 53.2382 18.8834 53.9062 19.3412 54.6856C19.4773 54.9083 19.4525 55.2052 19.267 55.4279C18.1659 56.7517 16.0627 57.8775 14.8256 58.1497C14.6029 58.1991 14.3802 58.1373 14.2194 57.9764C13.5142 57.2713 12.8709 56.6775 12.4379 56.2692C12.1286 55.9723 12.2152 55.4527 12.6234 55.2176L17.3617 52.5577L17.3494 52.5701Z" fill="#445DCF"/>
<path d="M8.04559 21.2441C11.3117 22.2339 12.4127 22.704 11.2127 29.0877C10.8787 30.8692 10.7673 34.1848 10.7673 37.921C14.0211 44.3294 17.8686 51.1957 18.2645 52.1112C18.9202 53.6081 14.0335 57.7773 11.9427 56.0577C9.43124 53.9916 5.68263 46.6058 2.63923 40.4201C2.21859 39.5541 1.99593 38.6138 2.0083 37.6488C2.08253 31.2403 2.45365 25.2401 2.63923 22.8772C3.05986 17.4708 5.28676 20.4276 8.03325 21.2565L8.04559 21.2441Z" fill="#F5F9FE"/>
<path d="M9.10957 120.574C9.10957 120.574 14.1572 121.96 17.3862 121.564C20.6151 121.168 19.4398 123.617 18.5614 124.545C17.683 125.461 14.0953 126.871 11.3488 126.685C9.25803 126.549 7.2786 128.838 5.41049 127.96C2.72586 126.71 3.60421 125.3 3.95062 123.11C4.28465 120.933 3.25781 120.03 3.25781 120.03L8.29305 118.211L9.10957 120.574Z" fill="url(#paint0_linear_1_26588)"/>
<path d="M13.2681 92.8165C12.5629 97.9136 10.002 120.801 10.002 120.801C9.40817 122.57 7.72563 124.067 3.3461 124.067C3.3461 124.067 0.599609 107.477 0.599609 102.924C0.599609 94.7836 1.81202 90.6639 3.3461 88.0411C4.74408 85.641 14.2083 85.9751 13.2681 92.8165Z" fill="url(#paint1_linear_1_26588)"/>
<path d="M8.05907 53.5117C12.7479 53.5117 15.9769 59.2892 15.6552 63.6069C15.3336 67.9864 14.1706 91.2079 12.7108 94.9564C11.2509 98.705 2.76404 99.0019 1.67534 93.6451C1.09388 90.7749 0.203125 66.7493 0.203125 64.4729C0.203125 59.0418 2.44239 53.5117 8.05907 53.5117Z" fill="url(#paint2_linear_1_26588)"/>
<path d="M15.5475 123.766L20.7065 122.344L21.3251 124.769C21.3251 124.769 26.2489 126.55 29.5027 126.414C32.7564 126.278 31.3831 128.628 30.4429 129.47C29.4903 130.311 25.8036 131.424 23.0819 131.029C21.0158 130.732 18.8631 132.847 17.0693 131.833C14.4836 130.373 15.4857 129.037 15.9929 126.884C16.5002 124.744 15.5475 123.754 15.5475 123.754V123.766Z" fill="url(#paint3_linear_1_26588)"/>
<path d="M25.0975 95.9806C24.3923 101.078 22.1407 124.658 22.1407 124.658C21.5469 126.427 19.555 127.231 15.1755 127.231C15.1755 127.231 12.4414 110.641 12.4414 106.088C12.4414 97.9477 13.6538 93.828 15.1879 91.2052C16.5859 88.8051 26.0501 89.1391 25.1099 95.9806H25.0975Z" fill="url(#paint4_linear_1_26588)"/>
<path d="M19.8867 56.6914C24.5879 56.6914 25.924 57.6564 25.924 64.3618C25.924 68.7537 25.9983 94.3875 24.5384 98.1361C23.0786 101.885 14.5917 102.182 13.503 96.8247C12.9215 93.9545 9.2348 67.7887 9.35851 65.5123C9.59357 61.1699 14.27 56.7038 19.8867 56.7038V56.6914Z" fill="url(#paint5_linear_1_26588)"/>
<path d="M4.95488 18.7233C8.50552 18.3522 12.0067 19.4903 13.417 20.8883C15.6686 23.14 19.6028 23.2513 22.9679 29.2391C26.3329 35.227 25.9247 57.8917 26.469 67.6899C17.5863 71.6612 0.00625718 63.4589 0.00625718 63.4589C0.0928581 54.3782 2.41873 49.8873 1.07023 43.5778C-0.414356 36.6002 -1.28038 19.379 4.95488 18.7357V18.7233Z" fill="#F5F9FE"/>
<path d="M14.7419 34.6722C10.548 31.2206 15.076 26.9029 18.7008 27.2988C19.6534 27.4101 21.1133 28.0535 22.8329 29.0061C22.8824 29.0803 22.9319 29.1669 22.969 29.2411C24.1814 31.3938 24.899 35.7115 25.3567 40.7962C20.5442 38.1239 16.2884 35.9218 14.7419 34.6599V34.6722Z" fill="#DFE6F8"/>
<path d="M16.6494 22.5987C16.6494 22.5987 16.6113 22.5606 16.5859 22.5352C16.624 22.5733 16.6494 22.5987 16.6494 22.5987Z" fill="#ACCBE3"/>
<path d="M6.89742 18.7363C8.74079 17.1156 8.98822 14.6289 8.98822 14.6289L14.3822 15.5444C13.0709 20.3817 14.7534 20.8147 16.5967 22.5467C16.2998 22.2993 14.9266 21.3467 11.5863 22.1756C7.77582 23.1282 5.05406 20.3569 6.89742 18.7486V18.7363Z" fill="#ACCBE3"/>
<path d="M6.89809 18.7363C8.74145 17.1156 8.98889 14.6289 8.98889 14.6289C8.98889 14.6289 10.8322 15.2227 12.4158 16.0145C11.6488 16.4351 11.055 17.1651 10.9807 18.0929C10.8818 19.3425 11.191 20.5301 12.1807 21.3838C12.4653 21.6312 12.7622 21.7797 13.0591 21.9034C12.6138 21.9529 12.1189 22.0395 11.5745 22.1756C7.7641 23.1282 5.04234 20.3569 6.8857 18.7486L6.89809 18.7363Z" fill="#B6DBF7"/>
<path d="M11.5491 2.74837C12.3285 3.09477 13.7636 4.49275 14.0358 5.13607C14.2461 5.61856 14.3698 6.01446 14.5678 6.38561C14.7657 6.75676 15.508 6.9918 15.8792 7.41243C16.2627 7.84544 16.7328 9.20633 16.9802 9.94862C17.2276 10.6909 18.1184 11.9776 18.106 12.5714C18.0689 13.4374 14.7657 16.8024 9.52015 17.0375C9.52015 17.0375 7.75102 15.5034 5.11588 14.291C-1.58951 11.2105 3.32199 -0.950742 11.5615 2.73598L11.5491 2.74837Z" fill="#B6DBF7"/>
<path d="M16.6223 13.135C16.647 12.5412 15.7439 11.2546 15.4964 10.5123C15.249 9.76999 14.7789 8.39676 14.3953 7.97613C14.0118 7.54313 13.2819 7.32042 13.084 6.94927C12.886 6.57812 12.7499 6.18226 12.552 5.69977C12.2798 5.05645 10.0653 3.31207 10.0653 3.31207C9.55807 3.21309 9.07559 3.22547 8.60547 3.31207C9.48385 2.80483 10.4736 2.56974 11.5499 2.78006C11.5499 2.78006 13.7644 4.52448 14.0366 5.1678C14.2469 5.65029 14.3706 6.04616 14.5686 6.4173C14.7665 6.78845 15.5088 7.02353 15.88 7.44416C16.2635 7.87717 16.7336 9.23802 16.981 9.98032C17.2284 10.7226 18.1192 12.0092 18.1068 12.6031C18.0821 13.2835 16.0284 15.498 12.6015 16.5372C15.1377 15.4114 16.6099 13.7289 16.6346 13.1474L16.6223 13.135Z" fill="#ACCBE3"/>
<path d="M10.6954 2.34172C10.9058 3.08401 11.2521 4.34589 10.7944 5.40984C10.3367 6.4738 12.9718 7.46353 12.4275 7.97076C11.3759 8.96049 9.91604 6.58515 9.58201 8.478C9.42118 9.43061 11.2274 10.643 11.9944 11.1132C12.7615 11.5833 12.1553 12.7214 11.0913 13.674C10.2996 14.3916 8.10977 15.4803 7.46645 15.6164C7.46645 15.6164 5.8829 14.7751 5.2767 14.4411C4.67049 14.1071 2.12195 13.1297 1.29305 9.0347C0.439413 4.80363 8.8521 -4.27707 10.6707 2.34172H10.6954Z" fill="#00DEC7"/>
<path d="M37.6309 22.668C37.6309 22.668 43.6682 14.008 44.7693 10.7666C44.9177 10.346 44.794 9.1583 44.3734 8.63869C43.4703 7.50051 46.5013 4.41999 47.0704 4.69216C47.3425 4.82825 46.1301 7.11698 46.1301 7.11698C46.3528 7.15409 46.4765 6.62211 46.724 6.1025C47.4168 4.6674 49.3591 2.68796 50.1138 2.05702C50.5963 1.64875 50.72 3.02198 51.2148 2.70032C53.7386 1.01779 52.1798 5.13752 52.5015 5.55815C53.6026 6.98088 50.0766 10.8779 49.2972 11.6945C47.2807 13.81 42.1094 25.7114 42.1094 25.7114L37.6309 22.668Z" fill="#B6DBF7"/>
<path d="M41.2422 25.1176C41.9474 23.5093 42.3432 21.7401 43.234 20.2432C44.2485 18.5235 47.6012 13.6244 48.2321 11.7068C48.4053 11.1748 48.3682 10.7171 48.2074 10.3459C48.9497 9.9253 49.6549 9.3191 50.1373 8.72527C50.6446 8.08194 50.9786 7.27781 51.0899 6.46129C51.1518 5.9788 51.1023 5.57054 51.0033 5.11279C50.9786 4.98908 50.9415 4.85299 50.9168 4.72928C51.1394 3.80141 50.7064 2.77457 49.8775 2.29208C49.9765 2.20548 50.0631 2.11887 50.1373 2.05702C50.6198 1.64875 50.7435 3.02198 51.2384 2.70032C53.7622 1.01779 52.2034 5.13752 52.525 5.55815C53.6261 6.98088 50.1002 10.8779 49.3208 11.6945C47.3043 13.81 42.1329 25.7114 42.1329 25.7114L41.2669 25.1176H41.2422Z" fill="#ACCBE3"/>
<path d="M46.3025 17.9501L41.7621 14.9809C41.4404 14.7706 41.3415 14.3623 41.5394 14.0654C41.824 13.6448 42.2446 13.0015 42.7147 12.2344C42.8508 12.0117 43.1354 11.9004 43.4075 11.9623C45.0901 12.321 47.0571 13.6819 47.8736 14.6469C48.0221 14.8201 48.0716 15.0551 47.9974 15.2531C47.7005 16.2057 47.4654 17.0469 47.3046 17.6284C47.1932 18.049 46.686 18.1975 46.2901 17.9501H46.3025Z" fill="#445DCF"/>
<path d="M16.7965 24.2877C19.4069 23.2609 27.8691 24.3496 34.4631 24.9805C37.8282 19.5247 39.9685 15.5781 40.9335 14.3781C41.9603 13.1038 47.911 15.5163 47.3419 18.1638C46.7976 20.7494 43.3212 26.8239 39.0035 32.3787C38.4344 33.1086 37.5313 33.5169 36.6034 33.455C28.3145 32.9107 19.543 33.2324 16.7223 32.6509C11.4149 31.5498 13.4067 25.6115 16.7965 24.2877Z" fill="#F5F9FE"/>
<defs>
<linearGradient id="paint0_linear_1_26588" x1="19.514" y1="123.172" x2="3.27018" y2="123.172" gradientUnits="userSpaceOnUse">
<stop stop-color="#445DCF"/>
<stop offset="1" stop-color="#6A7FFF"/>
</linearGradient>
<linearGradient id="paint1_linear_1_26588" x1="8.09677" y1="122.051" x2="5.39977" y2="63.5702" gradientUnits="userSpaceOnUse">
<stop stop-color="#AECDFA"/>
<stop offset="1" stop-color="#A0C2EA"/>
</linearGradient>
<linearGradient id="paint2_linear_1_26588" x1="10.6819" y1="124.76" x2="7.67557" y2="59.4995" gradientUnits="userSpaceOnUse">
<stop stop-color="#AECDFA"/>
<stop offset="1" stop-color="#A0C2EA"/>
</linearGradient>
<linearGradient id="paint3_linear_1_26588" x1="31.5563" y1="127.231" x2="15.362" y2="127.231" gradientUnits="userSpaceOnUse">
<stop stop-color="#445DCF"/>
<stop offset="1" stop-color="#6A7FFF"/>
</linearGradient>
<linearGradient id="paint4_linear_1_26588" x1="25.1594" y1="108.55" x2="12.429" y2="108.55" gradientUnits="userSpaceOnUse">
<stop stop-color="#AECDFA"/>
<stop offset="1" stop-color="#A0C2EA"/>
</linearGradient>
<linearGradient id="paint5_linear_1_26588" x1="25.924" y1="78.7994" x2="9.35851" y2="78.7994" gradientUnits="userSpaceOnUse">
<stop stop-color="#AECDFA"/>
<stop offset="1" stop-color="#A0C2EA"/>
</linearGradient>
</defs>
</svg>
