<svg width="91" height="91" viewBox="0 0 91 91" fill="none" xmlns="http://www.w3.org/2000/svg">
<path d="M13.5468 90.0278L12.6314 88.2958C13.3984 87.8876 13.8561 87.1329 13.8561 86.2669C13.8561 85.4008 13.4108 84.6338 12.6437 84.2256L2.41243 78.6831C0.89073 77.8666 0 76.3449 0 74.6129C0 72.8932 0.927843 71.3715 2.44954 70.5673L62.7114 37.4487C63.4537 37.0528 63.8991 36.3352 63.9115 35.5064C63.9115 34.6775 63.5032 33.9475 62.7733 33.5393L50.9708 26.8958C49.6347 26.1411 48.8182 24.7184 48.8553 23.1843C48.8924 21.6502 49.7708 20.2646 51.144 19.5718L90.0526 0L90.931 1.74439L52.0224 21.3162C51.2801 21.6873 50.8347 22.4049 50.81 23.2214C50.7852 24.0503 51.2059 24.7802 51.9234 25.1885L63.7259 31.832C65.0744 32.599 65.8785 33.9723 65.8538 35.5311C65.829 37.0899 65.0002 38.4508 63.6269 39.1684L3.36507 72.287C2.47431 72.7571 1.94231 73.6231 1.94231 74.6129C1.94231 75.6026 2.44957 76.481 3.32795 76.9511L13.5592 82.4935C14.9696 83.2482 15.7985 84.6586 15.7985 86.2545C15.7985 87.8504 14.9448 89.2608 13.5345 90.0031L13.5468 90.0278Z" fill="#F5F5F5"/>
</svg>
