<svg width="121" height="64" viewBox="0 0 121 64" fill="none" xmlns="http://www.w3.org/2000/svg">
<g filter="url(#filter0_dddd_1_25048)">
<path opacity="0.46" d="M71.0355 51.6095H108.299L61.6826 26.7427C61.6826 26.7427 66.1116 14 41.0716 14L31.5703 14.5815C31.5703 14.5815 44.115 16.0289 47.9255 19.9136C52.2802 24.3674 50.6224 28.4253 47.5172 33.2254L71.0355 51.5972V51.6095Z" fill="url(#paint0_linear_1_25048)"/>
<path d="M20.757 17.9201C27.4872 14.3694 38.4236 14.3818 45.1166 17.9201C49.0755 20.0232 50.6715 22.8934 49.9292 25.6152C49.4343 23.7471 47.826 21.9285 45.1166 20.4934C38.4236 16.9427 27.4872 16.9427 20.757 20.4934C17.9982 21.9532 16.3651 23.7718 15.8703 25.6647C15.1156 22.9182 16.7486 20.0232 20.757 17.9201Z" fill="url(#paint1_linear_1_25048)"/>
<path d="M51.7467 25.3555V28.0401C51.7467 29.5742 51.2518 31.3309 50.7446 32.1474C50.1755 33.0753 49.4579 33.8918 47.6888 35.2156L47.2929 32.3578C47.2929 32.3578 51.2889 27.6813 51.7467 25.3555Z" fill="url(#paint2_linear_1_25048)"/>
<path d="M44.8956 32.8611C42.6688 33.7395 41.8646 33.9992 41.0481 34.2343C39.4522 34.692 37.8315 35.0137 36.186 35.1869C33.3035 35.4839 30.3838 35.422 27.526 34.9148C24.7424 34.4199 21.9464 33.5291 19.4844 32.0446C15.8348 29.83 14.0038 25.6484 14.0038 25.6484V27.6774C14.0162 30.5723 15.8472 33.4797 19.4968 35.6818C20.8701 36.5107 22.3794 37.1664 23.9011 37.6489C25.2743 38.0942 26.6847 38.4159 28.1074 38.6386C29.5549 38.8736 31.0147 38.9974 32.4746 38.9974C35.4809 38.9974 41.0481 38.6138 44.8956 36.5973V32.8487V32.8611Z" fill="url(#paint3_linear_1_25048)"/>
<path d="M44.8925 36.6124L58.0559 43.8869L58.0435 41.3135L44.8925 34.0391V36.6124Z" fill="url(#paint4_linear_1_25048)"/>
<path d="M47.5667 32.5059C51.006 30.5265 51.6988 27.4955 51.7359 25.3799V25.2438C51.7359 25.2438 51.7359 25.2067 51.7359 25.182C51.7359 24.9469 51.7235 24.6995 51.6864 24.4644C51.6864 24.3778 51.674 24.2912 51.6493 24.2046C51.6245 24.0438 51.5874 23.8706 51.5503 23.6974C51.5379 23.6479 51.4266 23.2644 51.3895 23.1283C51.3647 23.0665 51.34 23.0046 51.3152 22.9304C51.2658 22.8067 51.2163 22.6829 51.1668 22.5716C51.1297 22.4974 51.1049 22.4231 51.0678 22.3489C51.0307 22.2623 50.9812 22.1633 50.9317 22.0767C50.8575 21.9406 50.6348 21.5447 50.5853 21.4829C50.5235 21.3839 50.4616 21.285 50.3874 21.186C50.3874 21.186 49.6327 20.221 49.5585 20.1468C49.4224 19.9983 49.2863 19.8622 49.1378 19.7138C48.9894 19.5653 48.8286 19.4045 48.6554 19.256C48.21 18.8601 47.7151 18.489 47.1708 18.1178C46.9852 17.9941 46.7873 17.8704 46.6017 17.7467C46.4903 17.6848 46.379 17.6106 46.2677 17.5487C38.9313 13.2805 26.9556 13.2805 19.5698 17.5487C19.4461 17.623 19.3348 17.6848 19.2234 17.7591C19.0007 17.8952 18.7904 18.0312 18.5801 18.1673C18.4811 18.2415 18.3698 18.3158 18.2708 18.3776C18.0729 18.5261 17.8749 18.6745 17.677 18.8106C17.2934 19.1075 16.947 19.4169 16.6378 19.7261C16.4769 19.887 16.3285 20.0478 16.18 20.1963C16.0316 20.3571 15.8954 20.5179 15.7717 20.6664C15.5119 20.988 15.2769 21.3221 15.0789 21.6561C14.3243 22.8933 13.9655 24.1923 14.0026 25.4913C14.0892 28.213 15.9078 30.9224 19.4832 33.0008C25.9535 36.7618 35.0838 37.7638 44.8944 34.0029L56.8577 40.597L59.5176 39.0505L47.5543 32.4564L47.5667 32.5059ZM42.7294 32.6544C39.7726 33.6812 36.3704 34.4112 32.795 34.4112C28.0691 34.4112 23.6772 33.372 20.3987 31.4667C17.5161 29.7966 15.8955 27.6687 15.8336 25.4913C15.8089 24.5511 16.081 23.5984 16.6501 22.6458C16.7986 22.3984 16.9718 22.1386 17.1821 21.8912C17.2935 21.7551 17.4172 21.619 17.5285 21.4829C17.6522 21.3468 17.7883 21.2107 17.912 21.087C18.1842 20.8148 18.4811 20.555 18.7904 20.3076C18.9512 20.1839 19.1244 20.0478 19.31 19.9241C19.31 19.9241 19.508 19.7756 19.5698 19.7385C19.7678 19.6148 19.9657 19.4787 20.1513 19.3674C20.2626 19.3055 20.374 19.2436 20.4729 19.1818C23.7762 17.2766 28.1928 16.225 32.9311 16.225C37.6694 16.225 42.0737 17.2765 45.315 19.157L45.4635 19.2436C45.4635 19.2436 45.5749 19.3055 45.6491 19.355C45.8223 19.4539 45.9831 19.5653 46.1563 19.6766C46.6141 19.9859 47.0471 20.3076 47.4553 20.6664C47.5914 20.7777 47.7151 20.9014 47.8512 21.0499C47.9626 21.1612 48.0615 21.2726 48.1729 21.3839C48.2966 21.5324 48.7667 22.1262 48.9028 22.287C48.9399 22.3489 48.9894 22.4108 49.0142 22.4602C49.0636 22.5345 49.2368 22.819 49.2863 22.9304C49.3234 23.0046 49.3605 23.0665 49.3853 23.1283C49.41 23.1902 49.4472 23.252 49.4719 23.3015C49.509 23.3881 49.5461 23.4871 49.5832 23.5861C49.5956 23.6355 49.6204 23.685 49.6327 23.7221C49.6698 23.8335 49.744 24.0933 49.7564 24.1428C49.7812 24.2665 49.8183 24.3902 49.8306 24.5139C49.8306 24.5387 49.843 24.6005 49.8554 24.6253C49.8554 24.65 49.8554 24.6871 49.8554 24.7119C49.8802 24.8603 49.8801 25.0212 49.8801 25.182V25.3428C49.8554 26.9758 48.9399 28.5965 47.2574 30.0316C46.8739 30.3533 44.3501 32.073 42.7046 32.6421L42.7294 32.6544Z" fill="white"/>
<path d="M55.7443 38.2826C54.9773 39.1239 54.4453 40.2249 54.2721 41.3384C54.2473 41.5363 54.2226 41.7342 54.2226 41.9322C54.2226 42.7734 54.5195 43.3797 55.002 43.6518L69.118 51.78C68.6355 51.4954 68.3386 50.9016 68.3386 50.0603C68.3386 48.8603 68.8705 47.6479 69.6004 46.7076C69.9592 46.2375 70.3922 45.8169 70.8995 45.4952C71.3696 45.1983 71.9758 44.9632 72.5325 45.087C72.6686 45.1117 72.8047 45.1612 72.9284 45.2354C72.9284 45.2354 58.7753 37.0826 58.7629 37.0826C57.6866 36.5011 56.4247 37.5155 55.7443 38.2702V38.2826Z" fill="url(#paint5_linear_1_25048)"/>
<path d="M71.0218 45.4322C69.5372 46.2858 68.3495 48.3642 68.3495 50.0591C68.3495 51.7664 69.5496 52.4468 71.0466 51.5932C72.5312 50.7396 73.7188 48.6611 73.7188 46.9662C73.7188 45.2713 72.5064 44.5785 71.0218 45.4322Z" fill="url(#paint6_linear_1_25048)"/>
</g>
<defs>
<filter id="filter0_dddd_1_25048" x="0" y="0" width="120.299" height="63.9612" filterUnits="userSpaceOnUse" color-interpolation-filters="linearRGB">
<feFlood flood-opacity="0" result="BackgroundImageFix"/>
<feColorMatrix in="SourceAlpha" type="matrix" values="0 0 0 0 0 0 0 0 0 0 0 0 0 0 0 0 0 0 127 0" result="hardAlpha"/>
<feOffset dx="5" dy="5"/>
<feGaussianBlur stdDeviation="3.5"/>
<feComposite in2="hardAlpha" operator="out"/>
<feColorMatrix type="matrix" values="0 0 0 0 0 0 0 0 0 0 0 0 0 0 0 0 0 0 0.1 0"/>
<feBlend mode="normal" in2="BackgroundImageFix" result="effect1_dropShadow_1_25048"/>
<feColorMatrix in="SourceAlpha" type="matrix" values="0 0 0 0 0 0 0 0 0 0 0 0 0 0 0 0 0 0 127 0" result="hardAlpha"/>
<feOffset dx="1" dy="1"/>
<feGaussianBlur stdDeviation="1"/>
<feComposite in2="hardAlpha" operator="out"/>
<feColorMatrix type="matrix" values="0 0 0 0 0 0 0 0 0 0 0 0 0 0 0 0 0 0 0.1 0"/>
<feBlend mode="normal" in2="effect1_dropShadow_1_25048" result="effect2_dropShadow_1_25048"/>
<feOffset dx="-2" dy="-2"/>
<feGaussianBlur stdDeviation="1"/>
<feComposite in2="hardAlpha" operator="out"/>
<feColorMatrix type="matrix" values="0 0 0 0 1 0 0 0 0 1 0 0 0 0 1 0 0 0 0.8 0"/>
<feBlend mode="normal" in2="effect2_dropShadow_1_25048" result="effect3_dropShadow_1_25048"/>
<feColorMatrix in="SourceAlpha" type="matrix" values="0 0 0 0 0 0 0 0 0 0 0 0 0 0 0 0 0 0 127 0" result="hardAlpha"/>
<feOffset dx="-6" dy="-6"/>
<feGaussianBlur stdDeviation="4"/>
<feComposite in2="hardAlpha" operator="out"/>
<feColorMatrix type="matrix" values="0 0 0 0 1 0 0 0 0 1 0 0 0 0 1 0 0 0 0.5 0"/>
<feBlend mode="normal" in2="effect3_dropShadow_1_25048" result="effect4_dropShadow_1_25048"/>
<feBlend mode="normal" in="SourceGraphic" in2="effect4_dropShadow_1_25048" result="shape"/>
</filter>
<linearGradient id="paint0_linear_1_25048" x1="41.7768" y1="52.0054" x2="76.9615" y2="28.3758" gradientUnits="userSpaceOnUse">
<stop stop-color="#8390AC"/>
<stop offset="0.94" stop-color="#8390AC"/>
</linearGradient>
<linearGradient id="paint1_linear_1_25048" x1="15.6971" y1="20.4562" x2="50.1148" y2="20.4562" gradientUnits="userSpaceOnUse">
<stop stop-color="white"/>
<stop offset="1" stop-color="#CACCED"/>
</linearGradient>
<linearGradient id="paint2_linear_1_25048" x1="47.2929" y1="30.2917" x2="51.7467" y2="30.2917" gradientUnits="userSpaceOnUse">
<stop stop-color="white"/>
<stop offset="1" stop-color="#CACCED"/>
</linearGradient>
<linearGradient id="paint3_linear_1_25048" x1="14.0038" y1="32.3291" x2="44.8956" y2="32.3291" gradientUnits="userSpaceOnUse">
<stop stop-color="white"/>
<stop offset="1" stop-color="#CACCED"/>
</linearGradient>
<linearGradient id="paint4_linear_1_25048" x1="44.8925" y1="38.963" x2="58.0559" y2="38.963" gradientUnits="userSpaceOnUse">
<stop stop-color="white"/>
<stop offset="1" stop-color="#CACCED"/>
</linearGradient>
<linearGradient id="paint5_linear_1_25048" x1="61.46" y1="46.7324" x2="65.0601" y2="40.3239" gradientUnits="userSpaceOnUse">
<stop stop-color="#445DCF"/>
<stop offset="1" stop-color="#6A7FFF"/>
</linearGradient>
<linearGradient id="paint6_linear_1_25048" x1="68.3372" y1="48.5251" x2="73.7065" y2="48.5251" gradientUnits="userSpaceOnUse">
<stop stop-color="#445DCF"/>
<stop offset="1" stop-color="#6A7FFF"/>
</linearGradient>
</defs>
</svg>