<svg width="76" height="108" viewBox="0 0 76 108" fill="none" xmlns="http://www.w3.org/2000/svg">
<path opacity="0.5" fill-rule="evenodd" clip-rule="evenodd" d="M64.5683 70.3367C79.3323 78.7732 79.3323 92.7699 64.5683 101.206C49.8044 109.835 25.8369 109.835 11.073 101.206C-3.69099 92.7699 -3.69099 78.7732 11.073 70.3367C25.8369 61.9001 49.8044 61.9001 64.5683 70.3367Z" fill="#E9E9EB"/>
<path opacity="0.5" fill-rule="evenodd" clip-rule="evenodd" d="M58.9977 73.6145C70.6938 80.3253 70.6938 91.2543 58.9977 97.9652C47.3016 104.676 28.5112 104.676 16.8151 97.9652C5.11894 91.2543 5.11894 80.3253 16.8151 73.6145C28.5112 66.9036 47.3016 66.9036 58.9977 73.6145Z" fill="#DDDEE1"/>
<path opacity="0.5" fill-rule="evenodd" clip-rule="evenodd" d="M53.4287 76.8617C62.057 81.847 62.057 89.7081 53.4287 94.6934C44.9922 99.6786 30.9952 99.6786 22.5586 94.6934C13.9303 89.7081 13.9303 81.847 22.5586 76.8617C31.1869 71.8765 44.9922 71.8765 53.4287 76.8617Z" fill="#D1D2D6"/>
<path fill-rule="evenodd" clip-rule="evenodd" d="M40.795 71.1991V71.1079L40.7037 71.0168V70.9255V70.8344L40.6127 70.7433V70.652V70.5609L40.5215 70.4698V70.3785L40.4302 70.2874L40.3392 70.1963L40.2479 70.105V70.0139L40.1567 69.9226L40.0657 69.8315L39.9744 69.7404L39.8832 69.6491L39.7922 69.558L39.7009 69.4668V69.3756L39.5184 69.2845L39.4274 69.1933L39.3361 69.1021L39.2449 69.0109L39.1539 68.9197L39.0626 68.8286H38.8804L38.7891 68.7374L38.6978 68.6462L38.5156 68.555L38.4243 68.4639V4.64111L38.5156 4.73224L38.6978 4.82336L38.7891 4.91463L38.8804 5.00575L39.0626 5.09688L39.1539 5.18814L39.2449 5.27927L39.3361 5.37053H39.4274L39.5184 5.46166L39.7009 5.55278V5.64405L39.7922 5.73517L39.8832 5.8263L39.9744 5.91756L40.0657 6.00869L40.1567 6.09981L40.2479 6.19108V6.2822L40.3392 6.37347L40.4302 6.46459V6.55572L40.5215 6.64698V6.73811L40.6127 6.82923V6.9205V7.01162L40.7037 7.10275V7.19401V7.28514L40.795 7.37626V7.46753V7.55865V7.74104V71.5638V71.3814V71.1991Z" fill="#A8A6A6"/>
<path fill-rule="evenodd" clip-rule="evenodd" d="M40.795 71.1991V71.1079L40.7037 71.0168V70.9255V70.8344L40.6127 70.7433V70.652V70.5609L40.5215 70.4698V70.3785L40.4302 70.2874L40.3392 70.1963L40.2479 70.105V70.0139L40.1567 69.9226L40.0657 69.8315L39.9744 69.7404L39.8832 69.6491L39.7922 69.558L39.7009 69.4668V69.3756L39.5184 69.2845L39.4274 69.1933L39.3361 69.1021L39.2449 69.0109L39.1539 68.9197L39.0626 68.8286H38.8804L38.7891 68.7374L38.6978 68.6462L38.5156 68.555L38.4243 68.4639V4.64111L38.5156 4.73224L38.6978 4.82336L38.7891 4.91463L38.8804 5.00575L39.0626 5.09688L39.1539 5.18814L39.2449 5.27927L39.3361 5.37053H39.4274L39.5184 5.46166L39.7009 5.55278V5.64405L39.7922 5.73517L39.8832 5.8263L39.9744 5.91756L40.0657 6.00869L40.1567 6.09981L40.2479 6.19108V6.2822L40.3392 6.37347L40.4302 6.46459V6.55572L40.5215 6.64698V6.73811L40.6127 6.82923V6.9205V7.01162L40.7037 7.10275V7.19401V7.28514L40.795 7.37626V7.46753V7.55865V7.74104V71.5638V71.3814V71.1991Z" fill="url(#paint0_linear_1_20495)"/>
<path fill-rule="evenodd" clip-rule="evenodd" d="M38.4269 4.6657V68.4885L38.2446 68.3972L38.0624 68.3061L37.8798 68.215L37.6976 68.1237L37.5153 68.0326L37.3328 67.9415L37.1506 67.8502L36.968 67.7591L36.7858 67.6678H36.6035L36.421 67.5767L36.2387 67.4856L35.9652 67.3943H35.783L35.6005 67.3032L35.4182 67.2121H35.236L34.9622 67.1208H34.7799L34.5977 67.0297H34.4151L34.1416 66.9385H33.9594L33.7771 66.8473H33.5946H33.3211L33.1388 66.7561H32.9566H32.774H32.5005L32.3183 66.6649H32.1357V2.93335H32.3183H32.5005H32.774H32.9566L33.1388 3.02447H33.3211H33.5946L33.7771 3.11574H33.9594L34.1416 3.20686H34.4151L34.5977 3.29799H34.7799L34.9622 3.38925H35.236L35.4182 3.48038H35.6005L35.783 3.57151L35.9652 3.66277H36.2387L36.421 3.7539L36.6035 3.84502L36.7858 3.93628L36.968 4.02741L37.1506 4.11867H37.3328L37.5153 4.2098L37.6976 4.30093L37.8798 4.39219L38.0624 4.48332L38.2446 4.57444L38.4269 4.6657Z" fill="#9C9C9C"/>
<path fill-rule="evenodd" clip-rule="evenodd" d="M38.4269 4.6657V68.4885L38.2446 68.3972L38.0624 68.3061L37.8798 68.215L37.6976 68.1237L37.5153 68.0326L37.3328 67.9415L37.1506 67.8502L36.968 67.7591L36.7858 67.6678H36.6035L36.421 67.5767L36.2387 67.4856L35.9652 67.3943H35.783L35.6005 67.3032L35.4182 67.2121H35.236L34.9622 67.1208H34.7799L34.5977 67.0297H34.4151L34.1416 66.9385H33.9594L33.7771 66.8473H33.5946H33.3211L33.1388 66.7561H32.9566H32.774H32.5005L32.3183 66.6649H32.1357V2.93335H32.3183H32.5005H32.774H32.9566L33.1388 3.02447H33.3211H33.5946L33.7771 3.11574H33.9594L34.1416 3.20686H34.4151L34.5977 3.29799H34.7799L34.9622 3.38925H35.236L35.4182 3.48038H35.6005L35.783 3.57151L35.9652 3.66277H36.2387L36.421 3.7539L36.6035 3.84502L36.7858 3.93628L36.968 4.02741L37.1506 4.11867H37.3328L37.5153 4.2098L37.6976 4.30093L37.8798 4.39219L38.0624 4.48332L38.2446 4.57444L38.4269 4.6657Z" fill="url(#paint1_linear_1_20495)"/>
<path fill-rule="evenodd" clip-rule="evenodd" d="M32.1298 2.92232V66.6539H31.9476H31.7653H31.5828H31.4005H31.127H30.9448H30.7622H30.58H30.3974H30.2152L30.0329 66.7451H29.8504H29.6682H29.5769L29.3947 66.8363H29.2124H29.0299L28.8476 66.9275H28.6654L28.4828 67.0186H28.3919L28.2093 67.1098H28.0271L27.8445 67.201H27.7536L27.571 67.2922L27.3888 67.3833H27.2975L27.1153 67.4745L27.024 67.5657L26.8418 67.6568H26.7505V3.92525L26.8418 3.83399L27.024 3.74286L27.1153 3.65174H27.2975L27.3888 3.56047L27.571 3.46935H27.7536L27.8445 3.37822H28.0271L28.2093 3.28696H28.3919L28.4828 3.19583H28.6654L28.8476 3.10471H29.0299L29.2124 3.01344H29.3947H29.5769H29.6682L29.8504 2.92232H30.0329H30.2152H30.3974H30.58H30.7622L30.9448 2.83105H31.127H31.4005H31.5828H31.7653L31.9476 2.92232H32.1298Z" fill="#C2C2C2"/>
<path fill-rule="evenodd" clip-rule="evenodd" d="M32.1298 2.92232V66.6539H31.9476H31.7653H31.5828H31.4005H31.127H30.9448H30.7622H30.58H30.3974H30.2152L30.0329 66.7451H29.8504H29.6682H29.5769L29.3947 66.8363H29.2124H29.0299L28.8476 66.9275H28.6654L28.4828 67.0186H28.3919L28.2093 67.1098H28.0271L27.8445 67.201H27.7536L27.571 67.2922L27.3888 67.3833H27.2975L27.1153 67.4745L27.024 67.5657L26.8418 67.6568H26.7505V3.92525L26.8418 3.83399L27.024 3.74286L27.1153 3.65174H27.2975L27.3888 3.56047L27.571 3.46935H27.7536L27.8445 3.37822H28.0271L28.2093 3.28696H28.3919L28.4828 3.19583H28.6654L28.8476 3.10471H29.0299L29.2124 3.01344H29.3947H29.5769H29.6682L29.8504 2.92232H30.0329H30.2152H30.3974H30.58H30.7622L30.9448 2.83105H31.127H31.4005H31.5828H31.7653L31.9476 2.92232H32.1298Z" fill="url(#paint2_linear_1_20495)"/>
<path fill-rule="evenodd" clip-rule="evenodd" d="M26.7566 3.92139V67.6529L26.5744 67.8353L26.3921 67.9266L26.2096 68.0177L26.1186 68.1088L25.9361 68.2001L25.8448 68.2912L25.6625 68.3823L25.5713 68.5647L25.4803 68.6559L25.389 68.7471L25.2978 68.9294L25.1155 69.0206V69.1118L25.0242 69.2942L24.9333 69.3853L24.842 69.4765L24.7507 69.6588V69.7501L24.6597 69.9323L24.5685 70.0236V70.206V70.2971L24.4772 70.4795V70.5706V70.753V70.8441L24.3862 71.0265V71.1176V7.38596V7.20371L24.4772 7.11244V6.93019V6.83893V6.65668L24.5685 6.56541V6.38316V6.2919L24.6597 6.10951L24.7507 6.01838V5.83599L24.842 5.74487L24.9333 5.56248L25.0242 5.47135L25.1155 5.38023V5.19784L25.2978 5.10657L25.389 5.01545L25.4803 4.83306L25.5713 4.74193L25.6625 4.65081L25.8448 4.55954L25.9361 4.37729L26.1186 4.28603L26.2096 4.1949L26.3921 4.10378L26.5744 4.01251L26.7566 3.92139Z" fill="#A8A6A6"/>
<path fill-rule="evenodd" clip-rule="evenodd" d="M26.7566 3.92139V67.6529L26.5744 67.8353L26.3921 67.9266L26.2096 68.0177L26.1186 68.1088L25.9361 68.2001L25.8448 68.2912L25.6625 68.3823L25.5713 68.5647L25.4803 68.6559L25.389 68.7471L25.2978 68.9294L25.1155 69.0206V69.1118L25.0242 69.2942L24.9333 69.3853L24.842 69.4765L24.7507 69.6588V69.7501L24.6597 69.9323L24.5685 70.0236V70.206V70.2971L24.4772 70.4795V70.5706V70.753V70.8441L24.3862 71.0265V71.1176V7.38596V7.20371L24.4772 7.11244V6.93019V6.83893V6.65668L24.5685 6.56541V6.38316V6.2919L24.6597 6.10951L24.7507 6.01838V5.83599L24.842 5.74487L24.9333 5.56248L25.0242 5.47135L25.1155 5.38023V5.19784L25.2978 5.10657L25.389 5.01545L25.4803 4.83306L25.5713 4.74193L25.6625 4.65081L25.8448 4.55954L25.9361 4.37729L26.1186 4.28603L26.2096 4.1949L26.3921 4.10378L26.5744 4.01251L26.7566 3.92139Z" fill="url(#paint3_linear_1_20495)"/>
<path fill-rule="evenodd" clip-rule="evenodd" d="M50.825 7.84402V71.5757V71.3933V71.2109L50.7337 70.9374V70.7551L50.6424 70.5728L50.5514 70.2992L50.4602 70.1168V69.9345L50.3689 69.6609L50.2779 69.4787L50.0954 69.2052L50.0044 69.0228L49.9132 68.8404L49.7309 68.5669L49.6396 68.3845L49.4574 68.2022L49.2749 67.9287L49.1839 67.7463L49.0013 67.4728L48.8191 67.2904L48.6366 67.108L48.363 66.9258L48.1808 66.6521L47.9985 66.4699L47.725 66.2875L47.5425 66.014L47.269 65.8316L47.0867 65.6493L46.8132 65.4669L46.5397 65.1934L46.2662 65.011L45.9927 64.8287V1.00586L46.2662 1.27937L46.5397 1.46176L46.8132 1.64415L47.0867 1.82654L47.269 2.00879L47.5425 2.28231L47.725 2.4647L47.9985 2.64709L48.1808 2.9206L48.363 3.10299L48.6366 3.28524L48.8191 3.55876L49.0013 3.74115L49.1839 3.92354L49.2749 4.19705L49.4574 4.37944L49.6396 4.5617L49.7309 4.83521L49.9132 5.0176L50.0044 5.19999L50.0954 5.47351L50.2779 5.65589L50.3689 5.92941L50.4602 6.11166V6.29405L50.5514 6.56757L50.6424 6.74996L50.7337 6.93235V7.20586L50.825 7.38811V7.5705V7.84402Z" fill="#A8A6A6"/>
<path fill-rule="evenodd" clip-rule="evenodd" d="M50.825 7.84402V71.5757V71.3933V71.2109L50.7337 70.9374V70.7551L50.6424 70.5728L50.5514 70.2992L50.4602 70.1168V69.9345L50.3689 69.6609L50.2779 69.4787L50.0954 69.2052L50.0044 69.0228L49.9132 68.8404L49.7309 68.5669L49.6396 68.3845L49.4574 68.2022L49.2749 67.9287L49.1839 67.7463L49.0013 67.4728L48.8191 67.2904L48.6366 67.108L48.363 66.9258L48.1808 66.6521L47.9985 66.4699L47.725 66.2875L47.5425 66.014L47.269 65.8316L47.0867 65.6493L46.8132 65.4669L46.5397 65.1934L46.2662 65.011L45.9927 64.8287V1.00586L46.2662 1.27937L46.5397 1.46176L46.8132 1.64415L47.0867 1.82654L47.269 2.00879L47.5425 2.28231L47.725 2.4647L47.9985 2.64709L48.1808 2.9206L48.363 3.10299L48.6366 3.28524L48.8191 3.55876L49.0013 3.74115L49.1839 3.92354L49.2749 4.19705L49.4574 4.37944L49.6396 4.5617L49.7309 4.83521L49.9132 5.0176L50.0044 5.19999L50.0954 5.47351L50.2779 5.65589L50.3689 5.92941L50.4602 6.11166V6.29405L50.5514 6.56757L50.6424 6.74996L50.7337 6.93235V7.20586L50.825 7.38811V7.5705V7.84402Z" fill="url(#paint4_linear_1_20495)"/>
<path fill-rule="evenodd" clip-rule="evenodd" d="M53.4767 8.49316V72.316V72.4984V72.7719V73.0454L53.3854 73.2276V73.5011L53.2941 73.7748L53.2029 73.9571L53.1119 74.2306L53.0206 74.413L52.9294 74.6865L52.8384 74.8689L52.7471 75.1424L52.5649 75.3248L52.4736 75.5983L52.2913 75.7805L52.1088 75.9629L51.9266 76.2364L51.8353 76.4188L51.5618 76.6012L51.3795 76.8747L51.1973 77.0571L51.0147 77.2394L50.7412 77.4218L50.4677 77.6041L50.2855 77.7864L50.012 77.9688L49.7384 78.1512L49.4649 78.3336L49.1914 78.5158V14.693L49.4649 14.5108L49.7384 14.4195L50.012 14.2371L50.2855 14.0549L50.4677 13.8725L50.7412 13.599L51.0147 13.4166L51.1973 13.2343L51.3795 13.0519L51.5618 12.8695L51.8353 12.596L51.9266 12.4136L52.1088 12.2314L52.2913 11.9577L52.4736 11.7755L52.5649 11.5931L52.7471 11.3196L52.8384 11.1372L52.9294 10.8637L53.0206 10.6813L53.1119 10.4078L53.2029 10.2255L53.2941 9.952L53.3854 9.67835V9.4961L53.4767 9.22258V8.94907V8.76668V8.49316Z" fill="#EBEBEB"/>
<path fill-rule="evenodd" clip-rule="evenodd" d="M53.4767 8.49316V72.316V72.4984V72.7719V73.0454L53.3854 73.2276V73.5011L53.2941 73.7748L53.2029 73.9571L53.1119 74.2306L53.0206 74.413L52.9294 74.6865L52.8384 74.8689L52.7471 75.1424L52.5649 75.3248L52.4736 75.5983L52.2913 75.7805L52.1088 75.9629L51.9266 76.2364L51.8353 76.4188L51.5618 76.6012L51.3795 76.8747L51.1973 77.0571L51.0147 77.2394L50.7412 77.4218L50.4677 77.6041L50.2855 77.7864L50.012 77.9688L49.7384 78.1512L49.4649 78.3336L49.1914 78.5158V14.693L49.4649 14.5108L49.7384 14.4195L50.012 14.2371L50.2855 14.0549L50.4677 13.8725L50.7412 13.599L51.0147 13.4166L51.1973 13.2343L51.3795 13.0519L51.5618 12.8695L51.8353 12.596L51.9266 12.4136L52.1088 12.2314L52.2913 11.9577L52.4736 11.7755L52.5649 11.5931L52.7471 11.3196L52.8384 11.1372L52.9294 10.8637L53.0206 10.6813L53.1119 10.4078L53.2029 10.2255L53.2941 9.952L53.3854 9.67835V9.4961L53.4767 9.22258V8.94907V8.76668V8.49316Z" fill="url(#paint5_linear_1_20495)"/>
<path fill-rule="evenodd" clip-rule="evenodd" d="M43.4394 7.8396V71.5713V71.7537V71.8448V71.9359V72.1183L43.3481 72.2094V72.3918L43.2568 72.4831V72.5742L43.1659 72.7566V72.8477L43.0746 72.9388L42.9833 73.0301V73.2124L42.8923 73.3036L42.8011 73.3948L42.7098 73.4859L42.6188 73.6683L42.5276 73.7595L42.4363 73.8507L42.3453 73.9418L42.2541 74.033L42.0718 74.1242L41.9805 74.2153L41.8893 74.3066L41.707 74.3977L41.6158 74.4888L41.4335 74.5801L41.251 74.6712V10.9397L41.4335 10.8484L41.6158 10.7573L41.707 10.666L41.8893 10.5749L41.9805 10.4838L42.0718 10.3925L42.2541 10.3014L42.3453 10.119L42.4363 10.0279L42.5276 9.93673L42.6188 9.84547L42.7098 9.75434L42.8011 9.66308L42.8923 9.48083L42.9833 9.38957V9.29844L43.0746 9.20731L43.1659 9.02492V8.9338L43.2568 8.84253V8.66028L43.3481 8.56902V8.47789L43.4394 8.2955V8.20438V8.02199V7.93086V7.8396Z" fill="#C2C2C2"/>
<path fill-rule="evenodd" clip-rule="evenodd" d="M43.4394 7.8396V71.5713V71.7537V71.8448V71.9359V72.1183L43.3481 72.2094V72.3918L43.2568 72.4831V72.5742L43.1659 72.7566V72.8477L43.0746 72.9388L42.9833 73.0301V73.2124L42.8923 73.3036L42.8011 73.3948L42.7098 73.4859L42.6188 73.6683L42.5276 73.7595L42.4363 73.8507L42.3453 73.9418L42.2541 74.033L42.0718 74.1242L41.9805 74.2153L41.8893 74.3066L41.707 74.3977L41.6158 74.4888L41.4335 74.5801L41.251 74.6712V10.9397L41.4335 10.8484L41.6158 10.7573L41.707 10.666L41.8893 10.5749L41.9805 10.4838L42.0718 10.3925L42.2541 10.3014L42.3453 10.119L42.4363 10.0279L42.5276 9.93673L42.6188 9.84547L42.7098 9.75434L42.8011 9.66308L42.8923 9.48083L42.9833 9.38957V9.29844L43.0746 9.20731L43.1659 9.02492V8.9338L43.2568 8.84253V8.66028L43.3481 8.56902V8.47789L43.4394 8.2955V8.20438V8.02199V7.93086V7.8396Z" fill="url(#paint6_linear_1_20495)"/>
<path fill-rule="evenodd" clip-rule="evenodd" d="M38.1568 16.8595V80.6823L37.7923 80.5911H37.4275H37.0628L36.607 80.4999H36.2422L35.8774 80.4088H35.5129L35.1481 80.3175L34.6921 80.2264H34.3276L33.9628 80.1352L33.598 80.044L33.2335 79.9528L32.8688 79.8617L32.504 79.7705L32.1392 79.6793L31.7747 79.5882L31.4099 79.4058L31.0451 79.3147L30.6806 79.2234L30.3159 79.1323L29.9511 78.9499L29.5863 78.8588L29.2218 78.6764L28.857 78.5853L28.5835 78.4029L28.2187 78.2205L27.8539 78.0381L27.5804 77.947L27.2159 77.7646L26.9424 77.5823L26.5776 77.3999V13.5771L26.9424 13.7595L27.2159 13.9418L27.5804 14.1242L27.8539 14.3066L28.2187 14.489L28.5835 14.5801L28.857 14.7625L29.2218 14.8536L29.5863 15.036L29.9511 15.1271L30.3159 15.3095L30.6806 15.4006L31.0451 15.583L31.4099 15.6741L31.7747 15.7654L32.1392 15.8565L32.504 15.9477L32.8688 16.0389L33.2335 16.13L33.598 16.2212L33.9628 16.3124L34.3276 16.4036L34.6921 16.4947H35.1481L35.5129 16.586L35.8774 16.6771H36.2422L36.607 16.7683H37.0628H37.4275L37.7923 16.8595H38.1568Z" fill="#EBEBEB"/>
<path fill-rule="evenodd" clip-rule="evenodd" d="M38.1568 16.8595V80.6823L37.7923 80.5911H37.4275H37.0628L36.607 80.4999H36.2422L35.8774 80.4088H35.5129L35.1481 80.3175L34.6921 80.2264H34.3276L33.9628 80.1352L33.598 80.044L33.2335 79.9528L32.8688 79.8617L32.504 79.7705L32.1392 79.6793L31.7747 79.5882L31.4099 79.4058L31.0451 79.3147L30.6806 79.2234L30.3159 79.1323L29.9511 78.9499L29.5863 78.8588L29.2218 78.6764L28.857 78.5853L28.5835 78.4029L28.2187 78.2205L27.8539 78.0381L27.5804 77.947L27.2159 77.7646L26.9424 77.5823L26.5776 77.3999V13.5771L26.9424 13.7595L27.2159 13.9418L27.5804 14.1242L27.8539 14.3066L28.2187 14.489L28.5835 14.5801L28.857 14.7625L29.2218 14.8536L29.5863 15.036L29.9511 15.1271L30.3159 15.3095L30.6806 15.4006L31.0451 15.583L31.4099 15.6741L31.7747 15.7654L32.1392 15.8565L32.504 15.9477L32.8688 16.0389L33.2335 16.13L33.598 16.2212L33.9628 16.3124L34.3276 16.4036L34.6921 16.4947H35.1481L35.5129 16.586L35.8774 16.6771H36.2422L36.607 16.7683H37.0628H37.4275L37.7923 16.8595H38.1568Z" fill="url(#paint7_linear_1_20495)"/>
<path fill-rule="evenodd" clip-rule="evenodd" d="M26.5847 13.5862V77.409L26.3112 77.2266L26.129 77.1355L25.8552 76.9531L25.5817 76.7707L25.3994 76.5885L25.1259 76.4972L24.9436 76.315L24.7611 76.1326L24.4876 75.9502L24.3053 75.7678L24.1231 75.5855L23.9406 75.4943L23.7583 75.312L23.5758 75.1296L23.4848 74.9472L23.3023 74.765L23.12 74.5826L23.0288 74.4002L22.9378 74.2178L22.7552 74.0356L22.6643 73.8532L22.573 73.6708L22.4817 73.4884L22.3907 73.3062L22.2995 73.1238L22.2082 72.9414L22.1172 72.7591L22.026 72.5767V72.3943L21.9347 72.212V72.0297L21.8437 71.9384V71.6649V71.4827L21.7524 71.3003V7.5686L21.8437 7.75099V7.93338V8.11563L21.9347 8.29802V8.48041L22.026 8.6628V8.84505L22.1172 9.02744L22.2082 9.20983L22.2995 9.39208L22.3907 9.57447L22.4817 9.75686L22.573 9.93925L22.6643 10.1215L22.7552 10.3039L22.9378 10.395L23.0288 10.5774L23.12 10.7598L23.3023 10.9422L23.4848 11.1244L23.5758 11.3068L23.7583 11.4892L23.9406 11.6715L24.1231 11.8539L24.3053 12.0362L24.4876 12.2186L24.7611 12.3098L24.9436 12.4922L25.1259 12.6744L25.3994 12.8568L25.5817 13.0392L25.8552 13.1303L26.129 13.3127L26.3112 13.4951L26.5847 13.5862Z" fill="#DBDBDB"/>
<path fill-rule="evenodd" clip-rule="evenodd" d="M26.5847 13.5862V77.409L26.3112 77.2266L26.129 77.1355L25.8552 76.9531L25.5817 76.7707L25.3994 76.5885L25.1259 76.4972L24.9436 76.315L24.7611 76.1326L24.4876 75.9502L24.3053 75.7678L24.1231 75.5855L23.9406 75.4943L23.7583 75.312L23.5758 75.1296L23.4848 74.9472L23.3023 74.765L23.12 74.5826L23.0288 74.4002L22.9378 74.2178L22.7552 74.0356L22.6643 73.8532L22.573 73.6708L22.4817 73.4884L22.3907 73.3062L22.2995 73.1238L22.2082 72.9414L22.1172 72.7591L22.026 72.5767V72.3943L21.9347 72.212V72.0297L21.8437 71.9384V71.6649V71.4827L21.7524 71.3003V7.5686L21.8437 7.75099V7.93338V8.11563L21.9347 8.29802V8.48041L22.026 8.6628V8.84505L22.1172 9.02744L22.2082 9.20983L22.2995 9.39208L22.3907 9.57447L22.4817 9.75686L22.573 9.93925L22.6643 10.1215L22.7552 10.3039L22.9378 10.395L23.0288 10.5774L23.12 10.7598L23.3023 10.9422L23.4848 11.1244L23.5758 11.3068L23.7583 11.4892L23.9406 11.6715L24.1231 11.8539L24.3053 12.0362L24.4876 12.2186L24.7611 12.3098L24.9436 12.4922L25.1259 12.6744L25.3994 12.8568L25.5817 13.0392L25.8552 13.1303L26.129 13.3127L26.3112 13.4951L26.5847 13.5862Z" fill="url(#paint8_linear_1_20495)"/>
<path fill-rule="evenodd" clip-rule="evenodd" d="M41.2613 10.9397V74.6712L39.438 73.6683V9.84546L41.2613 10.9397Z" fill="#9C9C9C"/>
<path fill-rule="evenodd" clip-rule="evenodd" d="M41.2613 10.9397V74.6712L39.438 73.6683V9.84546L41.2613 10.9397Z" fill="url(#paint9_linear_1_20495)"/>
<path fill-rule="evenodd" clip-rule="evenodd" d="M49.1843 14.6794V78.5023L48.9108 78.6846L48.637 78.7758L48.2725 78.9582L47.999 79.0493L47.7254 79.2317L47.4519 79.3229L47.0871 79.5052L46.8136 79.5965L46.4489 79.6876L46.1753 79.7787L45.8106 79.87L45.4461 79.9611L45.1725 80.0522L44.8078 80.1435L44.443 80.2346L44.0782 80.3257H43.7137L43.4402 80.417H43.0754L42.7106 80.5081H42.3461L41.9813 80.5994H41.6166H41.1608L40.796 80.6905H40.4312H40.0667H39.702H39.3372H38.9724H38.5166H38.1519V16.8677H38.5166H38.9724H39.3372H39.702H40.0667H40.4312H40.796H41.1608H41.6166L41.9813 16.7766H42.3461L42.7106 16.6853H43.0754L43.4402 16.5942H43.7137L44.0782 16.5029L44.443 16.4118L44.8078 16.3207L45.1725 16.2294H45.4461L45.8106 16.1383L46.1753 15.9559L46.4489 15.8648L46.8136 15.7736L47.0871 15.6824L47.4519 15.5913L47.7254 15.4089L47.999 15.3177L48.2725 15.1353L48.637 15.0442L48.9108 14.8618L49.1843 14.6794Z" fill="#F5F5F5"/>
<path fill-rule="evenodd" clip-rule="evenodd" d="M49.1843 14.6794V78.5023L48.9108 78.6846L48.637 78.7758L48.2725 78.9582L47.999 79.0493L47.7254 79.2317L47.4519 79.3229L47.0871 79.5052L46.8136 79.5965L46.4489 79.6876L46.1753 79.7787L45.8106 79.87L45.4461 79.9611L45.1725 80.0522L44.8078 80.1435L44.443 80.2346L44.0782 80.3257H43.7137L43.4402 80.417H43.0754L42.7106 80.5081H42.3461L41.9813 80.5994H41.6166H41.1608L40.796 80.6905H40.4312H40.0667H39.702H39.3372H38.9724H38.5166H38.1519V16.8677H38.5166H38.9724H39.3372H39.702H40.0667H40.4312H40.796H41.1608H41.6166L41.9813 16.7766H42.3461L42.7106 16.6853H43.0754L43.4402 16.5942H43.7137L44.0782 16.5029L44.443 16.4118L44.8078 16.3207L45.1725 16.2294H45.4461L45.8106 16.1383L46.1753 15.9559L46.4489 15.8648L46.8136 15.7736L47.0871 15.6824L47.4519 15.5913L47.7254 15.4089L47.999 15.3177L48.2725 15.1353L48.637 15.0442L48.9108 14.8618L49.1843 14.6794Z" fill="url(#paint10_linear_1_20495)"/>
<path fill-rule="evenodd" clip-rule="evenodd" d="M39.4388 9.84696C40.4417 9.20873 40.9887 8.38821 40.8064 7.47645C40.624 6.5647 39.8945 5.56174 38.4357 4.74116C36.6122 3.73823 34.3328 3.10003 32.1446 2.91768C30.1387 2.8265 28.1329 3.10004 26.7653 3.92062C25.0329 4.92355 24.2123 6.38237 24.4859 7.93236C24.7594 9.48234 26.1271 11.1235 28.4976 12.4911C31.4152 14.1323 34.971 15.1352 38.4357 15.3175C41.8092 15.4999 45.0003 14.9528 47.2797 13.5852C49.8326 12.1264 51.0181 10.0294 50.8357 7.74997C50.6534 5.47058 49.0122 3.09997 46.0034 1.00294L48.0093 0C51.3828 2.37056 53.2975 5.10593 53.4799 7.65884C53.7534 10.3029 52.2946 12.8558 49.1946 14.5881C46.277 16.2293 42.2651 16.9587 38.1622 16.7764C34.0593 16.594 29.9565 15.4087 26.583 13.4941C23.7566 11.8529 22.2067 9.84704 21.842 7.93236C21.4773 5.9265 22.4801 4.0118 24.8507 2.64417C26.8565 1.45888 29.5917 1.00297 32.4181 1.18533C35.2445 1.36768 38.0712 2.09708 40.3506 3.46471C42.2653 4.55882 43.2682 5.92639 43.4505 7.11167C43.6329 8.4793 42.9034 9.84702 41.3534 10.7588L39.4388 9.66457V9.84696Z" fill="#EDEDED"/>
<path fill-rule="evenodd" clip-rule="evenodd" d="M39.4388 9.84696C40.4417 9.20873 40.9887 8.38821 40.8064 7.47645C40.624 6.5647 39.8945 5.56174 38.4357 4.74116C36.6122 3.73823 34.3328 3.10003 32.1446 2.91768C30.1387 2.8265 28.1329 3.10004 26.7653 3.92062C25.0329 4.92355 24.2123 6.38237 24.4859 7.93236C24.7594 9.48234 26.1271 11.1235 28.4976 12.4911C31.4152 14.1323 34.971 15.1352 38.4357 15.3175C41.8092 15.4999 45.0003 14.9528 47.2797 13.5852C49.8326 12.1264 51.0181 10.0294 50.8357 7.74997C50.6534 5.47058 49.0122 3.09997 46.0034 1.00294L48.0093 0C51.3828 2.37056 53.2975 5.10593 53.4799 7.65884C53.7534 10.3029 52.2946 12.8558 49.1946 14.5881C46.277 16.2293 42.2651 16.9587 38.1622 16.7764C34.0593 16.594 29.9565 15.4087 26.583 13.4941C23.7566 11.8529 22.2067 9.84704 21.842 7.93236C21.4773 5.9265 22.4801 4.0118 24.8507 2.64417C26.8565 1.45888 29.5917 1.00297 32.4181 1.18533C35.2445 1.36768 38.0712 2.09708 40.3506 3.46471C42.2653 4.55882 43.2682 5.92639 43.4505 7.11167C43.6329 8.4793 42.9034 9.84702 41.3534 10.7588L39.4388 9.66457V9.84696Z" fill="url(#paint11_linear_1_20495)"/>
<path fill-rule="evenodd" clip-rule="evenodd" d="M53.841 36.084V45.2927V45.5662V45.7486L53.7501 46.0221V46.2956L53.6588 46.478V46.7515L53.5675 47.025L53.4765 47.2074L53.3853 47.4809L53.294 47.7544L53.2027 47.9368L53.0205 48.2103L52.9292 48.3926L52.747 48.6662L52.5647 48.8485L52.4735 49.0309L52.2912 49.3044L52.1087 49.4868L51.9264 49.6692L51.6529 49.9427L51.4707 50.1249L51.2881 50.3073L51.0146 50.4897L50.7411 50.7632L50.5589 50.9456L50.2853 51.1279L50.0118 51.3103L49.7383 51.4927L49.3735 51.6749V42.3751L49.7383 42.1927L50.0118 42.0103L50.2853 41.8281L50.5589 41.6457L50.7411 41.4633L51.0146 41.2809L51.2881 41.0987L51.4707 40.9163L51.6529 40.6428L51.9264 40.4604L52.1087 40.278L52.2912 40.0957L52.4735 39.8222L52.5647 39.6398L52.747 39.3663L52.9292 39.1839L53.0205 38.9104L53.2027 38.728L53.294 38.4545L53.3853 38.2722L53.4765 37.9986L53.5675 37.7251L53.6588 37.5428V37.2693L53.7501 36.9957V36.8134L53.841 36.5399V36.2664V36.084Z" fill="#D44F3E"/>
<path fill-rule="evenodd" clip-rule="evenodd" d="M53.841 36.084V45.2927V45.5662V45.7486L53.7501 46.0221V46.2956L53.6588 46.478V46.7515L53.5675 47.025L53.4765 47.2074L53.3853 47.4809L53.294 47.7544L53.2027 47.9368L53.0205 48.2103L52.9292 48.3926L52.747 48.6662L52.5647 48.8485L52.4735 49.0309L52.2912 49.3044L52.1087 49.4868L51.9264 49.6692L51.6529 49.9427L51.4707 50.1249L51.2881 50.3073L51.0146 50.4897L50.7411 50.7632L50.5589 50.9456L50.2853 51.1279L50.0118 51.3103L49.7383 51.4927L49.3735 51.6749V42.3751L49.7383 42.1927L50.0118 42.0103L50.2853 41.8281L50.5589 41.6457L50.7411 41.4633L51.0146 41.2809L51.2881 41.0987L51.4707 40.9163L51.6529 40.6428L51.9264 40.4604L52.1087 40.278L52.2912 40.0957L52.4735 39.8222L52.5647 39.6398L52.747 39.3663L52.9292 39.1839L53.0205 38.9104L53.2027 38.728L53.294 38.4545L53.3853 38.2722L53.4765 37.9986L53.5675 37.7251L53.6588 37.5428V37.2693L53.7501 36.9957V36.8134L53.841 36.5399V36.2664V36.084Z" fill="url(#paint12_linear_1_20495)"/>
<path fill-rule="evenodd" clip-rule="evenodd" d="M38.1687 44.5677V53.8677L37.8042 53.7765H37.4394H36.9833L36.6188 53.6853H36.2541L35.8893 53.5941H35.4335L35.0687 53.503L34.7039 53.4117L34.2482 53.3206H33.8834L33.5189 53.2295L33.1541 53.1382L32.7893 53.0471L32.3336 52.9558L31.9688 52.8647L31.604 52.6823L31.2395 52.5912L30.8747 52.5001L30.51 52.4088L30.1452 52.2266L29.7807 52.1353L29.4159 51.953L29.0511 51.8618L28.6866 51.6794L28.4131 51.4971L28.0483 51.4059L27.6835 51.2236L27.3188 51.0412L27.0452 50.8588L26.6807 50.6765L26.4072 50.4942V41.2854L26.6807 41.4678L27.0452 41.6502L27.3188 41.8326L27.6835 42.0148L28.0483 42.1061L28.4131 42.2883L28.6866 42.4707L29.0511 42.5619L29.4159 42.7442L29.7807 42.8355L30.1452 43.0178L30.51 43.109L30.8747 43.2913L31.2395 43.3825L31.604 43.4737L31.9688 43.5648L32.3336 43.6561L32.7893 43.7472L33.1541 43.9296H33.5189L33.8834 44.0207L34.2482 44.112L34.7039 44.2031L35.0687 44.2942H35.4335L35.8893 44.3855H36.2541L36.6188 44.4766H36.9833L37.4394 44.5677H37.8042H38.1687Z" fill="#D44F3E"/>
<path fill-rule="evenodd" clip-rule="evenodd" d="M38.1687 44.5677V53.8677L37.8042 53.7765H37.4394H36.9833L36.6188 53.6853H36.2541L35.8893 53.5941H35.4335L35.0687 53.503L34.7039 53.4117L34.2482 53.3206H33.8834L33.5189 53.2295L33.1541 53.1382L32.7893 53.0471L32.3336 52.9558L31.9688 52.8647L31.604 52.6823L31.2395 52.5912L30.8747 52.5001L30.51 52.4088L30.1452 52.2266L29.7807 52.1353L29.4159 51.953L29.0511 51.8618L28.6866 51.6794L28.4131 51.4971L28.0483 51.4059L27.6835 51.2236L27.3188 51.0412L27.0452 50.8588L26.6807 50.6765L26.4072 50.4942V41.2854L26.6807 41.4678L27.0452 41.6502L27.3188 41.8326L27.6835 42.0148L28.0483 42.1061L28.4131 42.2883L28.6866 42.4707L29.0511 42.5619L29.4159 42.7442L29.7807 42.8355L30.1452 43.0178L30.51 43.109L30.8747 43.2913L31.2395 43.3825L31.604 43.4737L31.9688 43.5648L32.3336 43.6561L32.7893 43.7472L33.1541 43.9296H33.5189L33.8834 44.0207L34.2482 44.112L34.7039 44.2031L35.0687 44.2942H35.4335L35.8893 44.3855H36.2541L36.6188 44.4766H36.9833L37.4394 44.5677H37.8042H38.1687Z" fill="url(#paint13_linear_1_20495)"/>
<path fill-rule="evenodd" clip-rule="evenodd" d="M26.3899 41.2931V50.5019L26.1163 50.4107L25.8426 50.2284L25.569 50.046L25.2955 49.8636L25.1133 49.7725L24.8398 49.5901L24.6575 49.4077L24.475 49.2255L24.2015 49.0431L24.0192 48.8607L23.837 48.6785L23.6544 48.4961L23.4722 48.3137L23.2897 48.2225L23.1074 48.0402L23.0161 47.8578L22.8339 47.6755L22.7426 47.4931L22.5604 47.3107L22.4691 47.1283L22.2869 46.9461L22.1956 46.7637L22.1046 46.5813L22.0133 46.3991L21.9221 46.2167L21.8311 46.0343L21.7398 45.8519V45.6696L21.6486 45.4873L21.5576 45.3049V45.1226V44.9402L21.4663 44.6667V44.4843V44.3019V35.0933V35.2757V35.4579L21.5576 35.6403V35.8227V36.0051L21.6486 36.1873L21.7398 36.3697V36.5521L21.8311 36.7344L21.9221 36.9167L22.0133 37.0991L22.1046 37.2815L22.1956 37.4638L22.2869 37.6462L22.4691 37.8286L22.5604 38.0108L22.7426 38.1932L22.8339 38.3756L23.0161 38.558L23.1074 38.7402L23.2897 38.9226L23.4722 39.105L23.6544 39.2873L23.837 39.4696L24.0192 39.652L24.2015 39.8344L24.475 40.0167L24.6575 40.1991L24.8398 40.2902L25.1133 40.4726L25.2955 40.655L25.569 40.8374L25.8426 41.0196L26.1163 41.1109L26.3899 41.2931Z" fill="#C24534"/>
<path fill-rule="evenodd" clip-rule="evenodd" d="M26.3899 41.2931V50.5019L26.1163 50.4107L25.8426 50.2284L25.569 50.046L25.2955 49.8636L25.1133 49.7725L24.8398 49.5901L24.6575 49.4077L24.475 49.2255L24.2015 49.0431L24.0192 48.8607L23.837 48.6785L23.6544 48.4961L23.4722 48.3137L23.2897 48.2225L23.1074 48.0402L23.0161 47.8578L22.8339 47.6755L22.7426 47.4931L22.5604 47.3107L22.4691 47.1283L22.2869 46.9461L22.1956 46.7637L22.1046 46.5813L22.0133 46.3991L21.9221 46.2167L21.8311 46.0343L21.7398 45.8519V45.6696L21.6486 45.4873L21.5576 45.3049V45.1226V44.9402L21.4663 44.6667V44.4843V44.3019V35.0933V35.2757V35.4579L21.5576 35.6403V35.8227V36.0051L21.6486 36.1873L21.7398 36.3697V36.5521L21.8311 36.7344L21.9221 36.9167L22.0133 37.0991L22.1046 37.2815L22.1956 37.4638L22.2869 37.6462L22.4691 37.8286L22.5604 38.0108L22.7426 38.1932L22.8339 38.3756L23.0161 38.558L23.1074 38.7402L23.2897 38.9226L23.4722 39.105L23.6544 39.2873L23.837 39.4696L24.0192 39.652L24.2015 39.8344L24.475 40.0167L24.6575 40.1991L24.8398 40.2902L25.1133 40.4726L25.2955 40.655L25.569 40.8374L25.8426 41.0196L26.1163 41.1109L26.3899 41.2931Z" fill="url(#paint14_linear_1_20495)"/>
<path fill-rule="evenodd" clip-rule="evenodd" d="M49.3665 42.3938V51.6936L49.093 51.7849L48.8195 51.9672L48.546 52.1495L48.2725 52.2408L47.9077 52.423L47.6342 52.5143L47.2694 52.6054L46.9959 52.7878L46.6314 52.8789L46.3576 52.97L45.9931 53.0613L45.6283 53.1524L45.2635 53.2437L44.99 53.3348L44.6255 53.4259L44.2607 53.5172H43.896L43.5312 53.6083L43.1667 53.6995H42.8019H42.4371L42.0726 53.7907H41.6166L41.2518 53.8819H40.8873H40.5225H40.1577H39.702H39.3372H38.9724H38.5166H38.1519V44.5819L38.5166 44.6732H38.9724H39.3372H39.702H40.1577H40.5225L40.8873 44.5819H41.2518H41.6166H42.0726L42.4371 44.4908H42.8019L43.1667 44.3997H43.5312L43.896 44.3084L44.2607 44.2173L44.6255 44.1262H44.99L45.2635 44.0349L45.6283 43.9438L45.9931 43.8525L46.3576 43.7614L46.6314 43.579L46.9959 43.4879L47.2694 43.3967L47.6342 43.3055L47.9077 43.1232L48.2725 43.032L48.546 42.8497L48.8195 42.7584L49.093 42.576L49.3665 42.3938Z" fill="#E65A47"/>
<path fill-rule="evenodd" clip-rule="evenodd" d="M49.3665 42.3938V51.6936L49.093 51.7849L48.8195 51.9672L48.546 52.1495L48.2725 52.2408L47.9077 52.423L47.6342 52.5143L47.2694 52.6054L46.9959 52.7878L46.6314 52.8789L46.3576 52.97L45.9931 53.0613L45.6283 53.1524L45.2635 53.2437L44.99 53.3348L44.6255 53.4259L44.2607 53.5172H43.896L43.5312 53.6083L43.1667 53.6995H42.8019H42.4371L42.0726 53.7907H41.6166L41.2518 53.8819H40.8873H40.5225H40.1577H39.702H39.3372H38.9724H38.5166H38.1519V44.5819L38.5166 44.6732H38.9724H39.3372H39.702H40.1577H40.5225L40.8873 44.5819H41.2518H41.6166H42.0726L42.4371 44.4908H42.8019L43.1667 44.3997H43.5312L43.896 44.3084L44.2607 44.2173L44.6255 44.1262H44.99L45.2635 44.0349L45.6283 43.9438L45.9931 43.8525L46.3576 43.7614L46.6314 43.579L46.9959 43.4879L47.2694 43.3967L47.6342 43.3055L47.9077 43.1232L48.2725 43.032L48.546 42.8497L48.8195 42.7584L49.093 42.576L49.3665 42.3938Z" fill="url(#paint15_linear_1_20495)"/>
<path fill-rule="evenodd" clip-rule="evenodd" d="M53.4779 33.8212C53.6603 34.3683 53.7514 34.8241 53.7514 35.3712C54.025 38.1064 52.5661 40.6593 49.3749 42.4828C46.3661 44.2152 42.3543 44.8534 38.1602 44.6711C34.0573 44.4887 29.7722 43.3035 26.3075 41.3888C23.3899 39.7476 21.84 37.7417 21.4753 35.7358C21.2929 34.9152 21.4752 34.0036 21.7488 33.2742V34.4594C21.7488 34.4594 21.7488 35.0976 21.7488 35.4623C22.1135 37.377 23.6634 39.3829 26.4898 40.9329C29.7721 42.8476 33.9664 43.9417 38.0693 44.2152C42.1721 44.3975 46.1838 43.7593 49.1014 42.0269C52.1102 40.2946 53.5691 37.924 53.4779 35.4623V33.8212Z" fill="#F25E4B"/>
<path fill-rule="evenodd" clip-rule="evenodd" d="M53.4779 33.8212C53.6603 34.3683 53.7514 34.8241 53.7514 35.3712C54.025 38.1064 52.5661 40.6593 49.3749 42.4828C46.3661 44.2152 42.3543 44.8534 38.1602 44.6711C34.0573 44.4887 29.7722 43.3035 26.3075 41.3888C23.3899 39.7476 21.84 37.7417 21.4753 35.7358C21.2929 34.9152 21.4752 34.0036 21.7488 33.2742V34.4594C21.7488 34.4594 21.7488 35.0976 21.7488 35.4623C22.1135 37.377 23.6634 39.3829 26.4898 40.9329C29.7721 42.8476 33.9664 43.9417 38.0693 44.2152C42.1721 44.3975 46.1838 43.7593 49.1014 42.0269C52.1102 40.2946 53.5691 37.924 53.4779 35.4623V33.8212Z" fill="url(#paint16_linear_1_20495)"/>
<path fill-rule="evenodd" clip-rule="evenodd" d="M38.4357 60.7921L37.98 60.5186V60.6098L38.4357 60.8833V60.7921Z" fill="#D44F3E"/>
<path fill-rule="evenodd" clip-rule="evenodd" d="M38.4357 60.7921L37.98 60.5186V60.6098L38.4357 60.8833V60.7921Z" fill="url(#paint17_linear_1_20495)"/>
<path fill-rule="evenodd" clip-rule="evenodd" d="M38.4194 60.8975L37.9636 60.624L36.7783 63.5416L37.2341 63.8151L38.4194 60.8975Z" fill="#D44F3E"/>
<path fill-rule="evenodd" clip-rule="evenodd" d="M38.4194 60.8975L37.9636 60.624L36.7783 63.5416L37.2341 63.8151L38.4194 60.8975Z" fill="url(#paint18_linear_1_20495)"/>
<path fill-rule="evenodd" clip-rule="evenodd" d="M41.1587 60.9903L40.7026 60.8079L40.7939 60.8991L41.2497 61.1726L41.1587 61.0815V60.9903Z" fill="#D44F3E"/>
<path fill-rule="evenodd" clip-rule="evenodd" d="M41.2443 61.1475L40.7886 60.874L41.7914 63.974L42.2474 64.2475L41.2443 61.1475Z" fill="#D44F3E"/>
<path fill-rule="evenodd" clip-rule="evenodd" d="M41.2443 61.1475L40.7886 60.874L41.7914 63.974L42.2474 64.2475L41.2443 61.1475Z" fill="url(#paint19_linear_1_20495)"/>
<path fill-rule="evenodd" clip-rule="evenodd" d="M46.4488 52.4344L45.9931 52.1609L45.8105 52.2522L46.2666 52.5257L46.4488 52.4344Z" fill="#D44F3E"/>
<path fill-rule="evenodd" clip-rule="evenodd" d="M43.9933 52.2025L43.5373 52.0201L43.4463 51.929L43.9021 52.2025H43.9933Z" fill="#D44F3E"/>
<path fill-rule="evenodd" clip-rule="evenodd" d="M42.4475 50.504L41.9917 50.2305L37.98 60.5332L38.4357 60.8067L42.4475 50.504Z" fill="#D44F3E"/>
<path fill-rule="evenodd" clip-rule="evenodd" d="M42.4475 50.504L41.9917 50.2305L37.98 60.5332L38.4357 60.8067L42.4475 50.504Z" fill="url(#paint20_linear_1_20495)"/>
<path fill-rule="evenodd" clip-rule="evenodd" d="M49.1836 50.9558L48.7275 50.6821L53.3776 57.2468L53.8333 57.5203L49.1836 50.9558Z" fill="#D44F3E"/>
<path fill-rule="evenodd" clip-rule="evenodd" d="M49.1836 50.9558L48.7275 50.6821L53.3776 57.2468L53.8333 57.5203L49.1836 50.9558Z" fill="url(#paint21_linear_1_20495)"/>
<path fill-rule="evenodd" clip-rule="evenodd" d="M53.7377 44.0196L53.2816 43.7461L53.1904 44.1109L53.0081 44.5666L52.8259 44.9314L52.7346 45.3873L52.5524 45.752L52.2788 46.2079L52.0963 46.5725L51.9141 46.9373L52.3698 47.2108L52.5524 46.846L52.7346 46.4814L53.0081 46.0255L53.1904 45.6608L53.2816 45.2049L53.4642 44.8402L53.6464 44.3844L53.7377 44.0196Z" fill="#D44F3E"/>
<path fill-rule="evenodd" clip-rule="evenodd" d="M52.3745 47.2242L51.9187 46.9507L51.554 47.4977L51.1895 48.0447L50.8247 48.5918L50.4599 49.0477L50.0951 49.5036L49.6393 49.9595L49.1836 50.3241L48.7275 50.6888L49.1836 50.9624L49.6393 50.5976L50.0951 50.233L50.5512 49.7771L50.9157 49.3212L51.2804 48.7742L51.6452 48.3183L52.01 47.7712L52.3745 47.2242Z" fill="#D44F3E"/>
<path fill-rule="evenodd" clip-rule="evenodd" d="M49.1899 50.9727L53.8396 57.5372L54.9337 53.2521C54.9337 53.2521 55.2985 52.5226 55.572 52.4314L58.8545 51.3373L57.7601 49.6962L53.8396 44.1345C53.5661 45.2286 53.0191 46.3227 52.4721 47.4168C51.6515 48.8756 50.5574 50.152 49.3721 51.1549L49.1899 50.9727ZM38.431 60.8195C38.431 60.8195 38.431 60.9107 38.431 61.0019L37.3369 63.9196L40.6194 61.1843C40.6194 61.1843 41.1662 60.9108 41.2574 61.1843L42.3517 64.2842L47.0015 52.2491H46.8192H46.637H46.5457C46.0898 51.9756 42.7165 51.1285 42.443 50.6726C42.443 50.6726 42.4429 50.4903 42.3517 50.4903V50.3991L38.6873 59.5891L38.431 60.8195Z" fill="#F25E4B"/>
<path fill-rule="evenodd" clip-rule="evenodd" d="M49.1899 50.9727L53.8396 57.5372L54.9337 53.2521C54.9337 53.2521 55.2985 52.5226 55.572 52.4314L58.8545 51.3373L57.7601 49.6962L53.8396 44.1345C53.5661 45.2286 53.0191 46.3227 52.4721 47.4168C51.6515 48.8756 50.5574 50.152 49.3721 51.1549L49.1899 50.9727ZM38.431 60.8195C38.431 60.8195 38.431 60.9107 38.431 61.0019L37.3369 63.9196L40.6194 61.1843C40.6194 61.1843 41.1662 60.9108 41.2574 61.1843L42.3517 64.2842L47.0015 52.2491H46.8192H46.637H46.5457C46.0898 51.9756 42.7165 51.1285 42.443 50.6726C42.443 50.6726 42.4429 50.4903 42.3517 50.4903V50.3991L38.6873 59.5891L38.431 60.8195Z" fill="url(#paint22_linear_1_20495)"/>
<path fill-rule="evenodd" clip-rule="evenodd" d="M42.1611 46.5793C41.7052 48.2204 41.614 49.7704 42.1611 51.3204C42.6169 52.5057 43.2553 52.7792 44.2582 53.4174C44.2582 53.4174 43.4375 52.6881 43.2551 52.5057C41.3404 49.8617 43.2552 44.9382 44.8052 42.6588C46.3552 40.3794 49.6374 37.1883 52.6462 38.5559C52.9197 38.6471 51.7346 38.0999 51.6434 38.0087C48.4522 36.8235 44.8964 40.8352 43.4376 43.2969C42.8906 44.2999 42.4346 45.394 42.1611 46.4881V46.5793ZM52.8287 48.494C52.8287 48.494 51.6434 47.7646 52.5552 48.3116C52.5552 48.3116 52.7375 48.4028 52.8287 48.494ZM44.714 53.5087C45.6257 54.0557 45.1699 53.7822 44.5317 53.5087H44.714ZM44.1669 53.3263C44.1669 53.3263 44.0758 53.3263 43.9847 53.3263C44.7141 53.7822 44.9875 53.8733 44.1669 53.3263ZM42.6171 50.9558L42.3436 50.7734C41.523 50.3175 42.3436 50.7734 42.6171 50.9558Z" fill="#F0B11D"/>
<path fill-rule="evenodd" clip-rule="evenodd" d="M42.1611 46.5793C41.7052 48.2204 41.614 49.7704 42.1611 51.3204C42.6169 52.5057 43.2553 52.7792 44.2582 53.4174C44.2582 53.4174 43.4375 52.6881 43.2551 52.5057C41.3404 49.8617 43.2552 44.9382 44.8052 42.6588C46.3552 40.3794 49.6374 37.1883 52.6462 38.5559C52.9197 38.6471 51.7346 38.0999 51.6434 38.0087C48.4522 36.8235 44.8964 40.8352 43.4376 43.2969C42.8906 44.2999 42.4346 45.394 42.1611 46.4881V46.5793ZM52.8287 48.494C52.8287 48.494 51.6434 47.7646 52.5552 48.3116C52.5552 48.3116 52.7375 48.4028 52.8287 48.494ZM44.714 53.5087C45.6257 54.0557 45.1699 53.7822 44.5317 53.5087H44.714ZM44.1669 53.3263C44.1669 53.3263 44.0758 53.3263 43.9847 53.3263C44.7141 53.7822 44.9875 53.8733 44.1669 53.3263ZM42.6171 50.9558L42.3436 50.7734C41.523 50.3175 42.3436 50.7734 42.6171 50.9558Z" fill="url(#paint23_linear_1_20495)"/>
<path fill-rule="evenodd" clip-rule="evenodd" d="M42.6232 50.6068C42.8055 51.7009 43.2614 52.8861 44.2643 53.4332C47.1819 55.0744 50.7376 51.701 52.1052 49.6951C53.7464 47.3246 55.7523 42.4922 53.8376 39.5746C51.9229 36.8394 48.276 38.9364 46.5437 40.6687C44.1731 43.0393 42.1673 47.1422 42.6232 50.5157V50.6068Z" fill="#FAC13C"/>
<path fill-rule="evenodd" clip-rule="evenodd" d="M42.6232 50.6068C42.8055 51.7009 43.2614 52.8861 44.2643 53.4332C47.1819 55.0744 50.7376 51.701 52.1052 49.6951C53.7464 47.3246 55.7523 42.4922 53.8376 39.5746C51.9229 36.8394 48.276 38.9364 46.5437 40.6687C44.1731 43.0393 42.1673 47.1422 42.6232 50.5157V50.6068Z" fill="url(#paint24_linear_1_20495)"/>
<defs>
<linearGradient id="paint0_linear_1_20495" x1="38.9789" y1="37.5337" x2="40.8163" y2="37.5343" gradientUnits="userSpaceOnUse">
<stop stop-color="#E6F0FF"/>
<stop offset="0.24" stop-color="#E2ECFD"/>
<stop offset="0.47" stop-color="#D6E3F8"/>
<stop offset="0.69" stop-color="#C3D3F0"/>
<stop offset="0.91" stop-color="#A9BDE4"/>
<stop offset="1" stop-color="#9CB2DF"/>
</linearGradient>
<linearGradient id="paint1_linear_1_20495" x1="33.6075" y1="35.1537" x2="38.4835" y2="35.1584" gradientUnits="userSpaceOnUse">
<stop stop-color="#9CB2DF"/>
<stop offset="0.09" stop-color="#A9BDE4"/>
<stop offset="0.31" stop-color="#C3D3F0"/>
<stop offset="0.53" stop-color="#D6E3F8"/>
<stop offset="0.76" stop-color="#E2ECFD"/>
<stop offset="1" stop-color="#E6F0FF"/>
</linearGradient>
<linearGradient id="paint2_linear_1_20495" x1="28.009" y1="34.6929" x2="32.1782" y2="34.6963" gradientUnits="userSpaceOnUse">
<stop stop-color="#E6F0FF"/>
<stop offset="0.24" stop-color="#E2ECFD"/>
<stop offset="0.47" stop-color="#D6E3F8"/>
<stop offset="0.69" stop-color="#C3D3F0"/>
<stop offset="0.91" stop-color="#A9BDE4"/>
<stop offset="1" stop-color="#9CB2DF"/>
</linearGradient>
<linearGradient id="paint3_linear_1_20495" x1="24.9408" y1="36.9484" x2="26.7779" y2="36.949" gradientUnits="userSpaceOnUse">
<stop stop-color="#9CB2DF"/>
<stop offset="0.09" stop-color="#A9BDE4"/>
<stop offset="0.31" stop-color="#C3D3F0"/>
<stop offset="0.53" stop-color="#D6E3F8"/>
<stop offset="0.76" stop-color="#E2ECFD"/>
<stop offset="1" stop-color="#E6F0FF"/>
</linearGradient>
<linearGradient id="paint4_linear_1_20495" x1="47.1232" y1="35.691" x2="50.8684" y2="35.6935" gradientUnits="userSpaceOnUse">
<stop stop-color="#9CB2DF"/>
<stop offset="0.09" stop-color="#A9BDE4"/>
<stop offset="0.31" stop-color="#C3D3F0"/>
<stop offset="0.53" stop-color="#D6E3F8"/>
<stop offset="0.76" stop-color="#E2ECFD"/>
<stop offset="1" stop-color="#E6F0FF"/>
</linearGradient>
<linearGradient id="paint5_linear_1_20495" x1="50.1939" y1="42.9093" x2="53.5152" y2="42.9113" gradientUnits="userSpaceOnUse">
<stop stop-color="#9CB2DF"/>
<stop offset="0.09" stop-color="#A9BDE4"/>
<stop offset="0.31" stop-color="#C3D3F0"/>
<stop offset="0.53" stop-color="#D6E3F8"/>
<stop offset="0.76" stop-color="#E2ECFD"/>
<stop offset="1" stop-color="#E6F0FF"/>
</linearGradient>
<linearGradient id="paint6_linear_1_20495" x1="41.7629" y1="40.6874" x2="43.4591" y2="40.6879" gradientUnits="userSpaceOnUse">
<stop stop-color="#9CB2DF"/>
<stop offset="0.09" stop-color="#A9BDE4"/>
<stop offset="0.31" stop-color="#C3D3F0"/>
<stop offset="0.53" stop-color="#D6E3F8"/>
<stop offset="0.76" stop-color="#E2ECFD"/>
<stop offset="1" stop-color="#E6F0FF"/>
</linearGradient>
<linearGradient id="paint7_linear_1_20495" x1="29.2866" y1="46.5593" x2="38.2609" y2="46.5746" gradientUnits="userSpaceOnUse">
<stop stop-color="#9CB2DF"/>
<stop offset="0.09" stop-color="#A9BDE4"/>
<stop offset="0.31" stop-color="#C3D3F0"/>
<stop offset="0.53" stop-color="#D6E3F8"/>
<stop offset="0.76" stop-color="#E2ECFD"/>
<stop offset="1" stop-color="#E6F0FF"/>
</linearGradient>
<linearGradient id="paint8_linear_1_20495" x1="22.8829" y1="41.8952" x2="26.6282" y2="41.8978" gradientUnits="userSpaceOnUse">
<stop stop-color="#E6F0FF"/>
<stop offset="0.24" stop-color="#E2ECFD"/>
<stop offset="0.47" stop-color="#D6E3F8"/>
<stop offset="0.69" stop-color="#C3D3F0"/>
<stop offset="0.91" stop-color="#A9BDE4"/>
<stop offset="1" stop-color="#9CB2DF"/>
</linearGradient>
<linearGradient id="paint9_linear_1_20495" x1="39.8646" y1="41.7073" x2="41.2777" y2="41.7077" gradientUnits="userSpaceOnUse">
<stop stop-color="#9CB2DF"/>
<stop offset="0.09" stop-color="#A9BDE4"/>
<stop offset="0.31" stop-color="#C3D3F0"/>
<stop offset="0.53" stop-color="#D6E3F8"/>
<stop offset="0.76" stop-color="#E2ECFD"/>
<stop offset="1" stop-color="#E6F0FF"/>
</linearGradient>
<linearGradient id="paint10_linear_1_20495" x1="40.7329" y1="47.1239" x2="49.2835" y2="47.138" gradientUnits="userSpaceOnUse">
<stop stop-color="#E6F0FF"/>
<stop offset="0.24" stop-color="#E2ECFD"/>
<stop offset="0.47" stop-color="#D6E3F8"/>
<stop offset="0.69" stop-color="#C3D3F0"/>
<stop offset="0.91" stop-color="#A9BDE4"/>
<stop offset="1" stop-color="#9CB2DF"/>
</linearGradient>
<linearGradient id="paint11_linear_1_20495" x1="29.1953" y1="8.25904" x2="53.7893" y2="8.71836" gradientUnits="userSpaceOnUse">
<stop stop-color="#9CB2DF"/>
<stop offset="0.09" stop-color="#A9BDE4"/>
<stop offset="0.31" stop-color="#C3D3F0"/>
<stop offset="0.53" stop-color="#D6E3F8"/>
<stop offset="0.76" stop-color="#E2ECFD"/>
<stop offset="1" stop-color="#E6F0FF"/>
</linearGradient>
<linearGradient id="paint12_linear_1_20495" x1="49.3722" y1="43.8794" x2="53.8381" y2="43.8794" gradientUnits="userSpaceOnUse">
<stop stop-color="#3BADEA"/>
<stop offset="1" stop-color="#4AFFC7"/>
</linearGradient>
<linearGradient id="paint13_linear_1_20495" x1="26.4038" y1="47.5765" x2="38.1608" y2="47.5765" gradientUnits="userSpaceOnUse">
<stop stop-color="#3BADEA"/>
<stop offset="1" stop-color="#4AFFC7"/>
</linearGradient>
<linearGradient id="paint14_linear_1_20495" x1="21.4649" y1="42.7976" x2="26.3866" y2="42.7976" gradientUnits="userSpaceOnUse">
<stop stop-color="#4AFFC7"/>
<stop offset="1" stop-color="#3BADEA"/>
</linearGradient>
<linearGradient id="paint15_linear_1_20495" x1="38.1486" y1="48.1378" x2="49.3591" y2="48.1378" gradientUnits="userSpaceOnUse">
<stop stop-color="#3BADEA"/>
<stop offset="1" stop-color="#4AFFC7"/>
</linearGradient>
<linearGradient id="paint16_linear_1_20495" x1="21.3925" y1="38.9876" x2="53.7622" y2="38.9876" gradientUnits="userSpaceOnUse">
<stop stop-color="#3BADEA"/>
<stop offset="1" stop-color="#4AFFC7"/>
</linearGradient>
<linearGradient id="paint17_linear_1_20495" x1="37.9798" y1="60.7009" x2="38.4354" y2="60.7009" gradientUnits="userSpaceOnUse">
<stop stop-color="#3BADEA"/>
<stop offset="1" stop-color="#4AFFC7"/>
</linearGradient>
<linearGradient id="paint18_linear_1_20495" x1="36.7778" y1="62.2196" x2="38.4183" y2="62.2196" gradientUnits="userSpaceOnUse">
<stop stop-color="#3BADEA"/>
<stop offset="1" stop-color="#4AFFC7"/>
</linearGradient>
<linearGradient id="paint19_linear_1_20495" x1="40.7882" y1="62.5607" x2="42.2464" y2="62.5607" gradientUnits="userSpaceOnUse">
<stop stop-color="#3BADEA"/>
<stop offset="1" stop-color="#4AFFC7"/>
</linearGradient>
<linearGradient id="paint20_linear_1_20495" x1="37.9787" y1="55.5186" x2="42.4445" y2="55.5186" gradientUnits="userSpaceOnUse">
<stop stop-color="#3BADEA"/>
<stop offset="1" stop-color="#4AFFC7"/>
</linearGradient>
<linearGradient id="paint21_linear_1_20495" x1="48.7261" y1="54.1012" x2="53.8299" y2="54.1012" gradientUnits="userSpaceOnUse">
<stop stop-color="#3BADEA"/>
<stop offset="1" stop-color="#4AFFC7"/>
</linearGradient>
<linearGradient id="paint22_linear_1_20495" x1="37.3307" y1="54.2094" x2="58.8401" y2="54.2094" gradientUnits="userSpaceOnUse">
<stop stop-color="#3BADEA"/>
<stop offset="1" stop-color="#4AFFC7"/>
</linearGradient>
<linearGradient id="paint23_linear_1_20495" x1="44.368" y1="45.6733" x2="52.9276" y2="45.7317" gradientUnits="userSpaceOnUse">
<stop stop-color="#E6F0FF"/>
<stop offset="0.24" stop-color="#E2ECFD"/>
<stop offset="0.47" stop-color="#D6E3F8"/>
<stop offset="0.69" stop-color="#C3D3F0"/>
<stop offset="0.91" stop-color="#A9BDE4"/>
<stop offset="1" stop-color="#9CB2DF"/>
</linearGradient>
<linearGradient id="paint24_linear_1_20495" x1="45.3797" y1="45.9299" x2="54.7267" y2="46.0013" gradientUnits="userSpaceOnUse">
<stop stop-color="#9CB2DF"/>
<stop offset="0.09" stop-color="#A9BDE4"/>
<stop offset="0.31" stop-color="#C3D3F0"/>
<stop offset="0.53" stop-color="#D6E3F8"/>
<stop offset="0.76" stop-color="#E2ECFD"/>
<stop offset="1" stop-color="#E6F0FF"/>
</linearGradient>
</defs>
</svg>
