<svg width="94" height="122" viewBox="0 0 94 122" fill="none" xmlns="http://www.w3.org/2000/svg">
<path opacity="0.5" fill-rule="evenodd" clip-rule="evenodd" d="M65.77 84.6035C80.5339 93.0401 80.5339 107.037 65.77 115.473C51.006 124.102 27.0386 124.102 12.2746 115.473C-2.48933 107.037 -2.48933 93.0401 12.2746 84.6035C27.0386 76.167 51.006 76.167 65.77 84.6035Z" fill="#E9E9EB"/>
<path opacity="0.5" fill-rule="evenodd" clip-rule="evenodd" d="M60.1994 87.8813C71.8955 94.5922 71.8955 105.521 60.1994 112.232C48.5033 118.943 29.7128 118.943 18.0167 112.232C6.3206 105.521 6.3206 94.5922 18.0167 87.8813C29.7128 81.1704 48.5033 81.1704 60.1994 87.8813Z" fill="#DDDEE1"/>
<path opacity="0.5" fill-rule="evenodd" clip-rule="evenodd" d="M54.6333 91.1288C63.2616 96.114 63.2616 103.975 54.6333 108.96C46.1968 113.946 32.1997 113.946 23.7632 108.96C15.1349 103.975 15.1349 96.114 23.7632 91.1288C32.3915 86.1436 46.1968 86.1436 54.6333 91.1288Z" fill="#D1D2D6"/>
<path fill-rule="evenodd" clip-rule="evenodd" d="M10.1479 48.9143V76.9081L10.3397 77.6752L10.5315 78.4424L10.7231 79.0176L11.1067 79.7847L11.4901 80.3599L11.8737 81.1264L12.4489 81.7016L13.0241 82.4687L13.5993 83.0439L14.1745 83.6191L14.9414 84.1943L15.7084 84.9614L16.6672 85.5366L17.4341 85.9199L18.3928 86.4951L19.5431 87.0703L20.5019 87.4541L21.4607 87.8374L22.6111 88.2207L23.7614 88.6045L24.912 88.9878L26.0624 89.1797L27.2128 89.563L28.3633 89.7549L29.5137 89.9469H30.6641L32.0063 90.1382L33.1568 90.3301H34.3072H35.6494H36.7997H37.9503L39.2924 90.1382L40.4428 89.9469H41.5932L42.9354 89.7549L44.0859 89.563L45.2363 89.1797L46.3867 88.9878L47.5373 88.6045L48.4959 88.2207L49.6463 87.8374L50.605 87.4541L51.7554 87.0703L52.7142 86.4951L53.6729 85.9199L54.6315 85.5366L55.3985 84.9614L56.1655 84.1943L56.9325 83.6191L57.5077 83.0439L58.2746 82.4687L58.8498 81.7016L59.2332 81.1264L59.6168 80.3599L60.0002 79.7847L60.3838 79.0176L60.5756 78.4424L60.7672 77.6752L60.959 76.9081V48.9143L60.7672 49.6814L60.5756 50.2566L60.3838 51.0237L60.0002 51.7903L59.6168 52.3655L59.2332 53.1326L58.8498 53.7078L58.2746 54.283L57.5077 55.0501L56.9325 55.6253L56.1655 56.2005L55.3985 56.7757L54.6315 57.3509L53.6729 57.9261L52.7142 58.5013L51.7554 58.8846L50.605 59.4597L49.6463 59.8436L48.4959 60.2269L47.5373 60.6107L46.3867 60.8021L45.2363 61.1859L44.0859 61.3773L42.9354 61.5692L41.5932 61.7611L40.4428 61.9525L39.2924 62.1444H37.9503H36.7997L35.6494 62.3363L34.3072 62.1444H33.1568H32.0063L30.6641 61.9525L29.5137 61.7611L28.3633 61.5692L27.2128 61.3773L26.0624 61.1859L24.912 60.8021L23.7614 60.6107L22.6111 60.2269L21.4607 59.8436L20.5019 59.4597L19.5431 58.8846L18.3928 58.5013L17.4341 57.9261L16.6672 57.3509L15.7084 56.7757L14.9414 56.2005L14.1745 55.6253L13.5993 55.0501L13.0241 54.283L12.4489 53.7078L11.8737 53.1326L11.4901 52.3655L11.1067 51.7903L10.7231 51.0237L10.5315 50.2566L10.3397 49.6814L10.1479 48.9143Z" fill="#3D566E"/>
<path fill-rule="evenodd" clip-rule="evenodd" d="M10.1479 48.9143V76.9081L10.3397 77.6752L10.5315 78.4424L10.7231 79.0176L11.1067 79.7847L11.4901 80.3599L11.8737 81.1264L12.4489 81.7016L13.0241 82.4687L13.5993 83.0439L14.1745 83.6191L14.9414 84.1943L15.7084 84.9614L16.6672 85.5366L17.4341 85.9199L18.3928 86.4951L19.5431 87.0703L20.5019 87.4541L21.4607 87.8374L22.6111 88.2207L23.7614 88.6045L24.912 88.9878L26.0624 89.1797L27.2128 89.563L28.3633 89.7549L29.5137 89.9469H30.6641L32.0063 90.1382L33.1568 90.3301H34.3072H35.6494H36.7997H37.9503L39.2924 90.1382L40.4428 89.9469H41.5932L42.9354 89.7549L44.0859 89.563L45.2363 89.1797L46.3867 88.9878L47.5373 88.6045L48.4959 88.2207L49.6463 87.8374L50.605 87.4541L51.7554 87.0703L52.7142 86.4951L53.6729 85.9199L54.6315 85.5366L55.3985 84.9614L56.1655 84.1943L56.9325 83.6191L57.5077 83.0439L58.2746 82.4687L58.8498 81.7016L59.2332 81.1264L59.6168 80.3599L60.0002 79.7847L60.3838 79.0176L60.5756 78.4424L60.7672 77.6752L60.959 76.9081V48.9143L60.7672 49.6814L60.5756 50.2566L60.3838 51.0237L60.0002 51.7903L59.6168 52.3655L59.2332 53.1326L58.8498 53.7078L58.2746 54.283L57.5077 55.0501L56.9325 55.6253L56.1655 56.2005L55.3985 56.7757L54.6315 57.3509L53.6729 57.9261L52.7142 58.5013L51.7554 58.8846L50.605 59.4597L49.6463 59.8436L48.4959 60.2269L47.5373 60.6107L46.3867 60.8021L45.2363 61.1859L44.0859 61.3773L42.9354 61.5692L41.5932 61.7611L40.4428 61.9525L39.2924 62.1444H37.9503H36.7997L35.6494 62.3363L34.3072 62.1444H33.1568H32.0063L30.6641 61.9525L29.5137 61.7611L28.3633 61.5692L27.2128 61.3773L26.0624 61.1859L24.912 60.8021L23.7614 60.6107L22.6111 60.2269L21.4607 59.8436L20.5019 59.4597L19.5431 58.8846L18.3928 58.5013L17.4341 57.9261L16.6672 57.3509L15.7084 56.7757L14.9414 56.2005L14.1745 55.6253L13.5993 55.0501L13.0241 54.283L12.4489 53.7078L11.8737 53.1326L11.4901 52.3655L11.1067 51.7903L10.7231 51.0237L10.5315 50.2566L10.3397 49.6814L10.1479 48.9143Z" fill="url(#paint0_linear_1_20423)"/>
<path fill-rule="evenodd" clip-rule="evenodd" d="M0.362793 41.8757V45.9021L0.554574 46.8611L0.746354 47.8196L1.12977 48.7781L1.70496 49.7371L2.08853 50.6956L2.8555 51.6546L3.4307 52.6131L4.19767 53.3802L5.15628 54.3387L5.92326 55.1058L7.0738 56.0643L8.03241 56.8314L9.37458 57.5985L10.5251 58.3651L11.8673 59.1322L13.2095 59.8993L14.7433 60.4745L16.0854 61.0497L17.6194 61.6249L19.1533 62.0082L20.6873 62.5833L22.2212 62.9672L23.9468 63.3505L25.4808 63.5424L27.2064 63.7337L28.9321 64.1176H30.4659L32.1916 64.3089H33.9172L35.643 64.5009L37.3685 64.3089H39.0943L40.8199 64.1176H42.3538L44.0795 63.7337L45.8051 63.5424L47.3391 63.3505L49.0647 62.9672L50.5986 62.5833L52.1326 62.0082L53.6665 61.6249L55.2003 61.0497L56.5425 60.4745L58.0765 59.8993L59.4186 59.1322L60.7608 58.3651L61.9113 57.5985L63.0617 56.8314L64.2121 56.0643L65.1709 55.1058L66.1295 54.3387L67.0882 53.3802L67.8552 52.6131L68.4304 51.6546L69.1974 50.6956L69.5808 49.7371L70.1561 48.7781L70.5396 47.8196L70.7313 46.8611L70.923 45.9021V41.8757L70.7313 42.8342L70.5396 43.7932L70.1561 44.7517L69.5808 45.7108L69.1974 46.6692L68.4304 47.6277L67.8552 48.5867L67.0882 49.5452L66.1295 50.3123L65.1709 51.2708L64.2121 52.0379L63.0617 52.805L61.9113 53.5716L60.7608 54.3387L59.4186 55.1058L58.0765 55.8729L56.5425 56.4481L55.2003 57.0233L53.6665 57.5985L52.1326 58.1737L50.5986 58.557L49.0647 58.9403L47.3391 59.3241L45.8051 59.5154L44.0795 59.8993L42.3538 60.0912L40.8199 60.2826H39.0943L37.3685 60.4745H35.643H33.9172L32.1916 60.2826H30.4659L28.9321 60.0912L27.2064 59.8993L25.4808 59.5154L23.9468 59.3241L22.2212 58.9403L20.6873 58.557L19.1533 58.1737L17.6194 57.5985L16.0854 57.0233L14.7433 56.4481L13.2095 55.8729L11.8673 55.1058L10.5251 54.3387L9.37458 53.5716L8.03241 52.805L7.0738 52.0379L5.92326 51.2708L5.15628 50.3123L4.19767 49.5452L3.4307 48.5867L2.8555 47.6277L2.08853 46.6692L1.70496 45.7108L1.12977 44.7517L0.746354 43.7932L0.554574 42.8342L0.362793 41.8757Z" fill="#34485C"/>
<path fill-rule="evenodd" clip-rule="evenodd" d="M0.362793 41.8757V45.9021L0.554574 46.8611L0.746354 47.8196L1.12977 48.7781L1.70496 49.7371L2.08853 50.6956L2.8555 51.6546L3.4307 52.6131L4.19767 53.3802L5.15628 54.3387L5.92326 55.1058L7.0738 56.0643L8.03241 56.8314L9.37458 57.5985L10.5251 58.3651L11.8673 59.1322L13.2095 59.8993L14.7433 60.4745L16.0854 61.0497L17.6194 61.6249L19.1533 62.0082L20.6873 62.5833L22.2212 62.9672L23.9468 63.3505L25.4808 63.5424L27.2064 63.7337L28.9321 64.1176H30.4659L32.1916 64.3089H33.9172L35.643 64.5009L37.3685 64.3089H39.0943L40.8199 64.1176H42.3538L44.0795 63.7337L45.8051 63.5424L47.3391 63.3505L49.0647 62.9672L50.5986 62.5833L52.1326 62.0082L53.6665 61.6249L55.2003 61.0497L56.5425 60.4745L58.0765 59.8993L59.4186 59.1322L60.7608 58.3651L61.9113 57.5985L63.0617 56.8314L64.2121 56.0643L65.1709 55.1058L66.1295 54.3387L67.0882 53.3802L67.8552 52.6131L68.4304 51.6546L69.1974 50.6956L69.5808 49.7371L70.1561 48.7781L70.5396 47.8196L70.7313 46.8611L70.923 45.9021V41.8757L70.7313 42.8342L70.5396 43.7932L70.1561 44.7517L69.5808 45.7108L69.1974 46.6692L68.4304 47.6277L67.8552 48.5867L67.0882 49.5452L66.1295 50.3123L65.1709 51.2708L64.2121 52.0379L63.0617 52.805L61.9113 53.5716L60.7608 54.3387L59.4186 55.1058L58.0765 55.8729L56.5425 56.4481L55.2003 57.0233L53.6665 57.5985L52.1326 58.1737L50.5986 58.557L49.0647 58.9403L47.3391 59.3241L45.8051 59.5154L44.0795 59.8993L42.3538 60.0912L40.8199 60.2826H39.0943L37.3685 60.4745H35.643H33.9172L32.1916 60.2826H30.4659L28.9321 60.0912L27.2064 59.8993L25.4808 59.5154L23.9468 59.3241L22.2212 58.9403L20.6873 58.557L19.1533 58.1737L17.6194 57.5985L16.0854 57.0233L14.7433 56.4481L13.2095 55.8729L11.8673 55.1058L10.5251 54.3387L9.37458 53.5716L8.03241 52.805L7.0738 52.0379L5.92326 51.2708L5.15628 50.3123L4.19767 49.5452L3.4307 48.5867L2.8555 47.6277L2.08853 46.6692L1.70496 45.7108L1.12977 44.7517L0.746354 43.7932L0.554574 42.8342L0.362793 41.8757Z" fill="url(#paint1_linear_1_20423)"/>
<path fill-rule="evenodd" clip-rule="evenodd" d="M60.5898 26.8694C46.7845 18.8163 24.3509 18.8163 10.3539 26.8694C-3.45131 34.9224 -3.45131 47.7692 10.3539 55.8223C24.1592 63.8753 46.5928 63.8753 60.5898 55.8223C74.395 47.7692 74.395 34.9224 60.5898 26.8694Z" fill="#496682"/>
<path fill-rule="evenodd" clip-rule="evenodd" d="M60.5898 26.8694C46.7845 18.8163 24.3509 18.8163 10.3539 26.8694C-3.45131 34.9224 -3.45131 47.7692 10.3539 55.8223C24.1592 63.8753 46.5928 63.8753 60.5898 55.8223C74.395 47.7692 74.395 34.9224 60.5898 26.8694Z" fill="url(#paint2_linear_1_20423)"/>
<path fill-rule="evenodd" clip-rule="evenodd" d="M51.1676 32.4201C42.5393 27.4348 28.5424 27.4348 19.9141 32.4201C11.2858 37.4053 11.2858 45.4584 19.9141 50.4436C28.5424 55.4289 42.5393 55.4289 51.1676 50.4436C59.7959 45.4584 59.7959 37.4053 51.1676 32.4201Z" fill="#364859"/>
<path fill-rule="evenodd" clip-rule="evenodd" d="M51.1676 32.4201C42.5393 27.4348 28.5424 27.4348 19.9141 32.4201C11.2858 37.4053 11.2858 45.4584 19.9141 50.4436C28.5424 55.4289 42.5393 55.4289 51.1676 50.4436C59.7959 45.4584 59.7959 37.4053 51.1676 32.4201Z" fill="url(#paint3_linear_1_20423)"/>
<path fill-rule="evenodd" clip-rule="evenodd" d="M32.5712 21.123L30.6538 19.9726H30.8456L31.0374 20.1645H31.229L31.4208 19.9726L38.1316 18.6309H38.3234H38.5152V18.8222L40.4326 19.7813H40.2408H40.049L33.3382 21.123H33.1465H32.9547H32.763H32.5712Z" fill="#D19917"/>
<path fill-rule="evenodd" clip-rule="evenodd" d="M32.5712 21.123L30.6538 19.9726H30.8456L31.0374 20.1645H31.229L31.4208 19.9726L38.1316 18.6309H38.3234H38.5152V18.8222L40.4326 19.7813H40.2408H40.049L33.3382 21.123H33.1465H32.9547H32.763H32.5712Z" fill="url(#paint4_linear_1_20423)"/>
<path fill-rule="evenodd" clip-rule="evenodd" d="M27.7796 42.0181L25.8622 40.8677H25.6704L25.4788 40.6758V40.4839L23.3696 34.1567L25.287 35.1152L27.3961 41.6343V41.8262L27.5879 42.0181H27.7796Z" fill="#B88612"/>
<path fill-rule="evenodd" clip-rule="evenodd" d="M27.7796 42.0181L25.8622 40.8677H25.6704L25.4788 40.6758V40.4839L23.3696 34.1567L25.287 35.1152L27.3961 41.6343V41.8262L27.5879 42.0181H27.7796Z" fill="url(#paint5_linear_1_20423)"/>
<path fill-rule="evenodd" clip-rule="evenodd" d="M16.8613 35.6871L14.944 34.7286L14.7522 34.5367L14.5605 34.3448V34.1534V33.9615V33.7696V33.5782V33.1944V33.003L14.7522 32.8111L14.944 32.4278V32.2359L15.1357 32.044L15.3275 31.8526L22.0384 25.5249L23.9557 26.484L17.2449 32.8111L17.0531 33.003L16.8613 33.3863V33.5782L16.6697 33.7696L16.4779 34.1534V34.3448V34.5367V34.92V35.1119V35.3038V35.4951L16.6697 35.6871H16.8613Z" fill="#D19917"/>
<path fill-rule="evenodd" clip-rule="evenodd" d="M16.8613 35.6871L14.944 34.7286L14.7522 34.5367L14.5605 34.3448V34.1534V33.9615V33.7696V33.5782V33.1944V33.003L14.7522 32.8111L14.944 32.4278V32.2359L15.1357 32.044L15.3275 31.8526L22.0384 25.5249L23.9557 26.484L17.2449 32.8111L17.0531 33.003L16.8613 33.3863V33.5782L16.6697 33.7696L16.4779 34.1534V34.3448V34.5367V34.92V35.1119V35.3038V35.4951L16.6697 35.6871H16.8613Z" fill="url(#paint6_linear_1_20423)"/>
<path fill-rule="evenodd" clip-rule="evenodd" d="M23.9291 26.4656L22.0117 25.5066L22.2035 25.3147L22.3951 24.9314L22.5869 24.7395L22.7787 24.3562L22.9703 24.1643L23.1621 23.781V23.5891L23.3539 23.2058L25.2713 24.3562L25.0795 24.5481V24.9314L24.8878 25.3147L24.6961 25.5066L24.5043 25.8899L24.3125 26.0818L24.1209 26.2737L23.9291 26.4656Z" fill="#B88612"/>
<path fill-rule="evenodd" clip-rule="evenodd" d="M23.9291 26.4656L22.0117 25.5066L22.2035 25.3147L22.3951 24.9314L22.5869 24.7395L22.7787 24.3562L22.9703 24.1643L23.1621 23.781V23.5891L23.3539 23.2058L25.2713 24.3562L25.0795 24.5481V24.9314L24.8878 25.3147L24.6961 25.5066L24.5043 25.8899L24.3125 26.0818L24.1209 26.2737L23.9291 26.4656Z" fill="url(#paint7_linear_1_20423)"/>
<path fill-rule="evenodd" clip-rule="evenodd" d="M25.287 24.3987L23.3696 23.2484L25.4788 14.4285V14.0446L25.6704 13.8533L25.8622 13.6614V13.2781L26.054 13.0862L26.2458 12.8943L26.4374 12.7029L26.8209 12.511L28.5465 13.6614L28.3549 13.8533L28.1631 14.0446L27.9713 14.2366L27.7796 14.4285V14.6198L27.5879 15.0037L27.3961 15.195V15.387L25.287 24.3987Z" fill="#B88612"/>
<path fill-rule="evenodd" clip-rule="evenodd" d="M25.287 24.3987L23.3696 23.2484L25.4788 14.4285V14.0446L25.6704 13.8533L25.8622 13.6614V13.2781L26.054 13.0862L26.2458 12.8943L26.4374 12.7029L26.8209 12.511L28.5465 13.6614L28.3549 13.8533L28.1631 14.0446L27.9713 14.2366L27.7796 14.4285V14.6198L27.5879 15.0037L27.3961 15.195V15.387L25.287 24.3987Z" fill="url(#paint8_linear_1_20423)"/>
<path fill-rule="evenodd" clip-rule="evenodd" d="M28.5303 13.6304L26.8047 12.48H26.9965L27.1881 12.2881H27.3799H27.5717L27.7633 12.48L29.489 13.6304V13.4385H29.2972H29.1055H28.9138L28.5303 13.6304Z" fill="#D19917"/>
<path fill-rule="evenodd" clip-rule="evenodd" d="M28.5303 13.6304L26.8047 12.48H26.9965L27.1881 12.2881H27.3799H27.5717L27.7633 12.48L29.489 13.6304V13.4385H29.2972H29.1055H28.9138L28.5303 13.6304Z" fill="url(#paint9_linear_1_20423)"/>
<path fill-rule="evenodd" clip-rule="evenodd" d="M44.641 39.3157L42.7236 38.3572L45.7914 37.5901L47.7088 38.7405L44.641 39.3157Z" fill="#D19917"/>
<path fill-rule="evenodd" clip-rule="evenodd" d="M44.641 39.3157L42.7236 38.3572L45.7914 37.5901L47.7088 38.7405L44.641 39.3157Z" fill="url(#paint10_linear_1_20423)"/>
<path fill-rule="evenodd" clip-rule="evenodd" d="M41.976 49.2686L40.0585 48.1182V47.9269L38.9081 44.859V44.667L38.7163 44.4751L40.6338 45.6261L40.8255 45.8174V46.0093L41.7842 48.8853L41.976 49.0772V49.2686Z" fill="#B88612"/>
<path fill-rule="evenodd" clip-rule="evenodd" d="M41.976 49.2686L40.0585 48.1182V47.9269L38.9081 44.859V44.667L38.7163 44.4751L40.6338 45.6261L40.8255 45.8174V46.0093L41.7842 48.8853L41.976 49.0772V49.2686Z" fill="url(#paint11_linear_1_20423)"/>
<path fill-rule="evenodd" clip-rule="evenodd" d="M37.1958 44.8826L35.2783 43.7322L38.3462 40.8563L38.538 40.6643L38.7296 40.4724V40.2805H38.9214V40.0891V39.8972L40.8388 40.8563V41.0476V41.2395H40.6472V41.4315V41.6228L40.4554 41.8147L40.2636 42.0067L37.1958 44.8826Z" fill="#D19917"/>
<path fill-rule="evenodd" clip-rule="evenodd" d="M37.1958 44.8826L35.2783 43.7322L38.3462 40.8563L38.538 40.6643L38.7296 40.4724V40.2805H38.9214V40.0891V39.8972L40.8388 40.8563V41.0476V41.2395H40.6472V41.4315V41.6228L40.4554 41.8147L40.2636 42.0067L37.1958 44.8826Z" fill="url(#paint12_linear_1_20423)"/>
<path fill-rule="evenodd" clip-rule="evenodd" d="M40.8222 40.8919L38.9048 39.9329L40.0552 35.7146V35.5226V35.3313L40.247 35.1394L40.4387 34.9474L40.6305 34.7561H40.8222H41.0139L42.9313 35.9065H42.7397H42.5479H42.3561V36.0984H42.1643V36.2898L41.9727 36.4817V36.6736H41.7809L40.8222 40.8919Z" fill="#B88612"/>
<path fill-rule="evenodd" clip-rule="evenodd" d="M40.8222 40.8919L38.9048 39.9329L40.0552 35.7146V35.5226V35.3313L40.247 35.1394L40.4387 34.9474L40.6305 34.7561H40.8222H41.0139L42.9313 35.9065H42.7397H42.5479H42.3561V36.0984H42.1643V36.2898L41.9727 36.4817V36.6736H41.7809L40.8222 40.8919Z" fill="url(#paint13_linear_1_20423)"/>
<path fill-rule="evenodd" clip-rule="evenodd" d="M43.1322 36.0933L44.091 39.1606C44.091 39.1606 44.4745 39.5444 44.6662 39.5444L47.734 38.9692C47.734 38.9692 48.1175 38.969 48.1175 39.3525C48.1175 39.736 48.1174 40.1192 47.734 40.311L44.6662 43.1875C44.6662 43.1875 44.091 43.7625 44.091 44.146L43.1322 48.3643C43.1322 48.3643 42.7488 49.1314 42.557 49.1314C42.3653 49.1314 41.9819 49.1314 41.9819 49.1314L41.0231 46.0635C41.0231 46.0635 40.6396 45.6802 40.4479 45.6802L37.38 46.2554C37.38 46.2554 36.9966 46.2551 36.9966 45.8716C36.9966 45.4881 36.9965 45.1049 37.38 44.9131L40.4479 42.0371C40.4479 42.0371 41.0231 41.4616 41.0231 41.0781L41.9819 36.8598C41.9819 36.8598 42.3653 36.0933 42.557 36.0933C42.7488 36.0933 43.1322 36.0933 43.1322 36.0933Z" fill="#FACC4D"/>
<path fill-rule="evenodd" clip-rule="evenodd" d="M43.1322 36.0933L44.091 39.1606C44.091 39.1606 44.4745 39.5444 44.6662 39.5444L47.734 38.9692C47.734 38.9692 48.1175 38.969 48.1175 39.3525C48.1175 39.736 48.1174 40.1192 47.734 40.311L44.6662 43.1875C44.6662 43.1875 44.091 43.7625 44.091 44.146L43.1322 48.3643C43.1322 48.3643 42.7488 49.1314 42.557 49.1314C42.3653 49.1314 41.9819 49.1314 41.9819 49.1314L41.0231 46.0635C41.0231 46.0635 40.6396 45.6802 40.4479 45.6802L37.38 46.2554C37.38 46.2554 36.9966 46.2551 36.9966 45.8716C36.9966 45.4881 36.9965 45.1049 37.38 44.9131L40.4479 42.0371C40.4479 42.0371 41.0231 41.4616 41.0231 41.0781L41.9819 36.8598C41.9819 36.8598 42.3653 36.0933 42.557 36.0933C42.7488 36.0933 43.1322 36.0933 43.1322 36.0933Z" fill="url(#paint14_linear_1_20423)"/>
<path fill-rule="evenodd" clip-rule="evenodd" d="M29.9122 14.0335L32.0214 20.3613C32.0214 20.3613 32.5966 21.3195 33.3635 21.1278L40.0744 19.7861C40.0744 19.7861 41.0331 19.9776 41.0331 20.7445C41.0331 21.5115 40.6496 22.2786 40.0744 22.662L33.3635 28.9892C33.3635 28.9892 32.2131 30.3319 32.0214 31.2906L29.9122 40.1104C29.9122 40.1104 29.1453 41.6443 28.57 41.836C27.9948 42.2195 27.4196 42.0279 27.2279 41.4527L25.1187 35.125C25.1187 35.125 24.5435 34.1661 23.7765 34.3579L17.0657 35.7002C17.0657 35.7002 16.1069 35.5087 16.1069 34.7417C16.1069 33.9748 16.4905 33.2077 17.0657 32.8242L23.7765 26.4971C23.7765 26.4971 24.927 25.1544 25.1187 24.1957L27.2279 15.3758C27.2279 15.3758 27.9948 13.842 28.57 13.6503C29.1453 13.2668 29.7205 13.4583 29.9122 14.0335Z" fill="#FACC4D"/>
<path fill-rule="evenodd" clip-rule="evenodd" d="M29.9122 14.0335L32.0214 20.3613C32.0214 20.3613 32.5966 21.3195 33.3635 21.1278L40.0744 19.7861C40.0744 19.7861 41.0331 19.9776 41.0331 20.7445C41.0331 21.5115 40.6496 22.2786 40.0744 22.662L33.3635 28.9892C33.3635 28.9892 32.2131 30.3319 32.0214 31.2906L29.9122 40.1104C29.9122 40.1104 29.1453 41.6443 28.57 41.836C27.9948 42.2195 27.4196 42.0279 27.2279 41.4527L25.1187 35.125C25.1187 35.125 24.5435 34.1661 23.7765 34.3579L17.0657 35.7002C17.0657 35.7002 16.1069 35.5087 16.1069 34.7417C16.1069 33.9748 16.4905 33.2077 17.0657 32.8242L23.7765 26.4971C23.7765 26.4971 24.927 25.1544 25.1187 24.1957L27.2279 15.3758C27.2279 15.3758 27.9948 13.842 28.57 13.6503C29.1453 13.2668 29.7205 13.4583 29.9122 14.0335Z" fill="url(#paint15_linear_1_20423)"/>
<path fill-rule="evenodd" clip-rule="evenodd" d="M48.8792 5.52215L46.77 4.18042L46.9617 4.37176L47.1534 4.18042L49.2626 5.52215H49.0708H48.8792Z" fill="#D19917"/>
<path fill-rule="evenodd" clip-rule="evenodd" d="M49.2527 5.57318L47.1436 4.23145L50.7867 3.65625L52.8958 4.80664L49.2527 5.57318Z" fill="#D19917"/>
<path fill-rule="evenodd" clip-rule="evenodd" d="M49.2527 5.57318L47.1436 4.23145L50.7867 3.65625L52.8958 4.80664L49.2527 5.57318Z" fill="url(#paint16_linear_1_20423)"/>
<path fill-rule="evenodd" clip-rule="evenodd" d="M52.8875 4.80664L50.7783 3.65625H50.9701L53.2709 4.80664H53.0791H52.8875Z" fill="#D19917"/>
<path fill-rule="evenodd" clip-rule="evenodd" d="M52.8875 4.80664L50.7783 3.65625H50.9701L53.2709 4.80664H53.0791H52.8875Z" fill="url(#paint17_linear_1_20423)"/>
<path fill-rule="evenodd" clip-rule="evenodd" d="M46.182 17.0425L44.0729 15.7002H43.8811V15.5089L42.7307 12.0577L42.5389 11.8658V11.6738H42.3472L44.6481 13.0161H44.8397V13.2081L45.9903 16.8512H46.182V17.0425Z" fill="#B88612"/>
<path fill-rule="evenodd" clip-rule="evenodd" d="M46.182 17.0425L44.0729 15.7002H43.8811V15.5089L42.7307 12.0577L42.5389 11.8658V11.6738H42.3472L44.6481 13.0161H44.8397V13.2081L45.9903 16.8512H46.182V17.0425Z" fill="url(#paint18_linear_1_20423)"/>
<path fill-rule="evenodd" clip-rule="evenodd" d="M40.2479 13.5769L37.9472 12.2346L37.7554 12.0432V11.8513V11.6594V11.4675H37.9472V11.2761V11.0842L38.1388 10.8923L38.3306 10.7009L40.4397 12.0432L40.2479 12.2346V12.4265L40.0562 12.6184V12.8098V13.0017V13.1936V13.385L40.2479 13.5769Z" fill="#D19917"/>
<path fill-rule="evenodd" clip-rule="evenodd" d="M40.2479 13.5769L37.9472 12.2346L37.7554 12.0432V11.8513V11.6594V11.4675H37.9472V11.2761V11.0842L38.1388 10.8923L38.3306 10.7009L40.4397 12.0432L40.2479 12.2346V12.4265L40.0562 12.6184V12.8098V13.0017V13.1936V13.385L40.2479 13.5769Z" fill="url(#paint19_linear_1_20423)"/>
<path fill-rule="evenodd" clip-rule="evenodd" d="M40.4251 12.0675L38.3159 10.7252L41.959 7.27402L42.1507 7.0821L42.3424 6.89017V6.69824L42.5342 6.5069V6.31497L42.726 6.12305L44.835 7.27402V7.46536V7.65729L44.6434 7.84922V8.04056L44.4516 8.23249L44.2598 8.42441L44.0682 8.61576L40.4251 12.0675Z" fill="#D19917"/>
<path fill-rule="evenodd" clip-rule="evenodd" d="M40.4251 12.0675L38.3159 10.7252L41.959 7.27402L42.1507 7.0821L42.3424 6.89017V6.69824L42.5342 6.5069V6.31497L42.726 6.12305L44.835 7.27402V7.46536V7.65729L44.6434 7.84922V8.04056L44.4516 8.23249L44.2598 8.42441L44.0682 8.61576L40.4251 12.0675Z" fill="url(#paint20_linear_1_20423)"/>
<path fill-rule="evenodd" clip-rule="evenodd" d="M44.84 7.2862L42.731 6.13522L43.8813 1.15039V0.958464L44.0731 0.766537V0.575195L44.2648 0.383269L44.4565 0.191342H44.6483L44.84 0L45.0317 0.191342L47.3327 1.34173H47.1409H46.9491L46.7575 1.53366H46.5657V1.72559H46.3739V1.91693L46.1823 2.10885V2.30078L45.9905 2.49271L44.84 7.2862Z" fill="#B88612"/>
<path fill-rule="evenodd" clip-rule="evenodd" d="M44.84 7.2862L42.731 6.13522L43.8813 1.15039V0.958464L44.0731 0.766537V0.575195L44.2648 0.383269L44.4565 0.191342H44.6483L44.84 0L45.0317 0.191342L47.3327 1.34173H47.1409H46.9491L46.7575 1.53366H46.5657V1.72559H46.3739V1.91693L46.1823 2.10885V2.30078L45.9905 2.49271L44.84 7.2862Z" fill="url(#paint21_linear_1_20423)"/>
<path fill-rule="evenodd" clip-rule="evenodd" d="M47.5153 1.7229L48.6657 5.17407C48.6657 5.17407 49.0492 5.74908 49.4327 5.55734L53.0756 4.7908C53.0756 4.7908 53.651 4.79078 53.651 5.366C53.651 5.94122 53.4591 6.13291 53.0756 6.51639L49.4327 9.96756C49.4327 9.96756 48.8574 10.7345 48.6657 11.118L47.5153 15.9114C47.5153 15.9114 47.1318 16.6788 46.7483 16.8705C46.3649 16.8705 46.1731 16.8705 45.9814 16.8705L44.8308 13.4187C44.8308 13.4187 44.4475 12.8437 44.064 13.0355L40.4209 13.8026C40.4209 13.8026 39.8457 13.8026 39.8457 13.2274C39.8457 12.6522 40.0374 12.4605 40.4209 12.077L44.064 8.62524C44.064 8.62524 44.6391 7.85833 44.8308 7.47485L45.9814 2.68136C45.9814 2.68136 46.3649 1.91464 46.7483 1.7229C47.1318 1.7229 47.3236 1.7229 47.5153 1.7229Z" fill="#FACC4D"/>
<path fill-rule="evenodd" clip-rule="evenodd" d="M47.5153 1.7229L48.6657 5.17407C48.6657 5.17407 49.0492 5.74908 49.4327 5.55734L53.0756 4.7908C53.0756 4.7908 53.651 4.79078 53.651 5.366C53.651 5.94122 53.4591 6.13291 53.0756 6.51639L49.4327 9.96756C49.4327 9.96756 48.8574 10.7345 48.6657 11.118L47.5153 15.9114C47.5153 15.9114 47.1318 16.6788 46.7483 16.8705C46.3649 16.8705 46.1731 16.8705 45.9814 16.8705L44.8308 13.4187C44.8308 13.4187 44.4475 12.8437 44.064 13.0355L40.4209 13.8026C40.4209 13.8026 39.8457 13.8026 39.8457 13.2274C39.8457 12.6522 40.0374 12.4605 40.4209 12.077L44.064 8.62524C44.064 8.62524 44.6391 7.85833 44.8308 7.47485L45.9814 2.68136C45.9814 2.68136 46.3649 1.91464 46.7483 1.7229C47.1318 1.7229 47.3236 1.7229 47.5153 1.7229Z" fill="url(#paint22_linear_1_20423)"/>
<path fill-rule="evenodd" clip-rule="evenodd" d="M92.2231 48.504C92.2231 48.504 53.8752 26.2622 50.8074 24.5366C49.0817 23.5779 46.2056 28.371 48.123 29.5214C55.0257 33.7397 62.3117 37.5746 69.2144 41.6011C72.4739 43.5185 75.5418 45.2443 78.8013 47.1617C82.2527 49.0791 89.3471 53.2975 89.3471 53.2975C87.8132 52.3388 90.3058 47.7369 92.0314 48.3121L92.2231 48.504Z" fill="#FAC13C"/>
<path fill-rule="evenodd" clip-rule="evenodd" d="M92.2231 48.504C92.2231 48.504 53.8752 26.2622 50.8074 24.5366C49.0817 23.5779 46.2056 28.371 48.123 29.5214C55.0257 33.7397 62.3117 37.5746 69.2144 41.6011C72.4739 43.5185 75.5418 45.2443 78.8013 47.1617C82.2527 49.0791 89.3471 53.2975 89.3471 53.2975C87.8132 52.3388 90.3058 47.7369 92.0314 48.3121L92.2231 48.504Z" fill="url(#paint23_linear_1_20423)"/>
<path fill-rule="evenodd" clip-rule="evenodd" d="M89.5098 50.3079C89.5098 50.3079 88.9346 51.6502 88.9346 52.2255C88.9346 52.8007 89.1263 53.3754 89.5098 53.5672C89.8932 53.7589 90.4685 53.5672 90.8519 53.5672C91.4272 53.1837 91.8106 52.6087 92.1941 52.0335C92.5776 51.4583 92.7693 50.6912 92.7693 50.116C92.7693 49.5408 92.5776 48.9654 92.1941 48.7737C91.8106 48.582 91.2354 48.7737 90.8519 48.7737C90.2767 49.1572 89.8932 49.7327 89.5098 50.3079Z" fill="#F5BE3D"/>
<path fill-rule="evenodd" clip-rule="evenodd" d="M89.5098 50.3079C89.5098 50.3079 88.9346 51.6502 88.9346 52.2255C88.9346 52.8007 89.1263 53.3754 89.5098 53.5672C89.8932 53.7589 90.4685 53.5672 90.8519 53.5672C91.4272 53.1837 91.8106 52.6087 92.1941 52.0335C92.5776 51.4583 92.7693 50.6912 92.7693 50.116C92.7693 49.5408 92.5776 48.9654 92.1941 48.7737C91.8106 48.582 91.2354 48.7737 90.8519 48.7737C90.2767 49.1572 89.8932 49.7327 89.5098 50.3079Z" fill="url(#paint24_linear_1_20423)"/>
<path fill-rule="evenodd" clip-rule="evenodd" d="M47.5181 28.4102V28.6021L88.9337 52.3776V52.1863V51.9943V51.8024V51.6111V51.4191H89.1255V51.2272V51.0359L47.7097 27.2598V27.4517V27.6436V27.835H47.5181V28.0269V28.2188V28.4102Z" fill="#FFDC6A"/>
<path fill-rule="evenodd" clip-rule="evenodd" d="M47.5181 28.4102V28.6021L88.9337 52.3776V52.1863V51.9943V51.8024V51.6111V51.4191H89.1255V51.2272V51.0359L47.7097 27.2598V27.4517V27.6436V27.835H47.5181V28.0269V28.2188V28.4102Z" fill="url(#paint25_linear_1_20423)"/>
<path fill-rule="evenodd" clip-rule="evenodd" d="M89.914 49.5246H90.1056V49.3327H90.2974V49.1413H90.4892V48.9494H90.681L90.8726 48.7575H91.0644V48.5661L49.8403 24.79H49.6486L49.4569 24.982H49.2651V25.1739H49.0734V25.3652H48.8817V25.5572H48.6899V25.7491L89.914 49.5246Z" fill="#E6B543"/>
<path fill-rule="evenodd" clip-rule="evenodd" d="M89.914 49.5246H90.1056V49.3327H90.2974V49.1413H90.4892V48.9494H90.681L90.8726 48.7575H91.0644V48.5661L49.8403 24.79H49.6486L49.4569 24.982H49.2651V25.1739H49.0734V25.3652H48.8817V25.5572H48.6899V25.7491L89.914 49.5246Z" fill="url(#paint26_linear_1_20423)"/>
<path fill-rule="evenodd" clip-rule="evenodd" d="M89.939 50.4766C89.939 50.4766 89.3638 51.627 89.3638 52.2022C89.3638 52.7774 89.5555 53.1608 89.939 53.3526C90.3224 53.3526 90.7059 53.3526 91.2811 53.3526C91.8564 53.1608 92.2398 52.5855 92.6233 52.0103C93.0068 51.435 93.1985 50.8599 93.1985 50.2847C93.1985 49.7094 93.0068 49.326 92.6233 49.1343C92.2398 49.1343 91.8564 49.1343 91.2811 49.1343C90.7059 49.326 90.3224 49.9014 89.939 50.4766Z" fill="#D19917"/>
<path fill-rule="evenodd" clip-rule="evenodd" d="M89.939 50.4766C89.939 50.4766 89.3638 51.627 89.3638 52.2022C89.3638 52.7774 89.5555 53.1608 89.939 53.3526C90.3224 53.3526 90.7059 53.3526 91.2811 53.3526C91.8564 53.1608 92.2398 52.5855 92.6233 52.0103C93.0068 51.435 93.1985 50.8599 93.1985 50.2847C93.1985 49.7094 93.0068 49.326 92.6233 49.1343C92.2398 49.1343 91.8564 49.1343 91.2811 49.1343C90.7059 49.326 90.3224 49.9014 89.939 50.4766Z" fill="url(#paint27_linear_1_20423)"/>
<defs>
<linearGradient id="paint0_linear_1_20423" x1="22.0351" y1="69.2702" x2="61.4102" y2="69.7478" gradientUnits="userSpaceOnUse">
<stop stop-color="#9CB2DF"/>
<stop offset="0.09" stop-color="#A9BDE4"/>
<stop offset="0.31" stop-color="#C3D3F0"/>
<stop offset="0.53" stop-color="#D6E3F8"/>
<stop offset="0.76" stop-color="#E2ECFD"/>
<stop offset="1" stop-color="#E6F0FF"/>
</linearGradient>
<linearGradient id="paint1_linear_1_20423" x1="16.8702" y1="52.996" x2="71.5057" y2="54.6805" gradientUnits="userSpaceOnUse">
<stop stop-color="#E6F0FF"/>
<stop offset="0.24" stop-color="#E2ECFD"/>
<stop offset="0.47" stop-color="#D6E3F8"/>
<stop offset="0.69" stop-color="#C3D3F0"/>
<stop offset="0.91" stop-color="#A9BDE4"/>
<stop offset="1" stop-color="#9CB2DF"/>
</linearGradient>
<linearGradient id="paint2_linear_1_20423" x1="16.5972" y1="40.9971" x2="71.5658" y2="41.9367" gradientUnits="userSpaceOnUse">
<stop stop-color="#9CB2DF"/>
<stop offset="0.09" stop-color="#A9BDE4"/>
<stop offset="0.31" stop-color="#C3D3F0"/>
<stop offset="0.53" stop-color="#D6E3F8"/>
<stop offset="0.76" stop-color="#E2ECFD"/>
<stop offset="1" stop-color="#E6F0FF"/>
</linearGradient>
<linearGradient id="paint3_linear_1_20423" x1="23.7824" y1="41.2151" x2="58.0263" y2="41.8018" gradientUnits="userSpaceOnUse">
<stop stop-color="#E6F0FF"/>
<stop offset="0.24" stop-color="#E2ECFD"/>
<stop offset="0.47" stop-color="#D6E3F8"/>
<stop offset="0.69" stop-color="#C3D3F0"/>
<stop offset="0.91" stop-color="#A9BDE4"/>
<stop offset="1" stop-color="#9CB2DF"/>
</linearGradient>
<linearGradient id="paint4_linear_1_20423" x1="30.651" y1="19.8769" x2="40.426" y2="19.8769" gradientUnits="userSpaceOnUse">
<stop stop-color="#4AFFC7"/>
<stop offset="1" stop-color="#3BADEA"/>
</linearGradient>
<linearGradient id="paint5_linear_1_20423" x1="23.3684" y1="38.0874" x2="27.7766" y2="38.0874" gradientUnits="userSpaceOnUse">
<stop stop-color="#4AFFC7"/>
<stop offset="1" stop-color="#3BADEA"/>
</linearGradient>
<linearGradient id="paint6_linear_1_20423" x1="14.5578" y1="30.606" x2="23.9495" y2="30.606" gradientUnits="userSpaceOnUse">
<stop stop-color="#4AFFC7"/>
<stop offset="1" stop-color="#3BADEA"/>
</linearGradient>
<linearGradient id="paint7_linear_1_20423" x1="22.0108" y1="24.8357" x2="25.2691" y2="24.8357" gradientUnits="userSpaceOnUse">
<stop stop-color="#4AFFC7"/>
<stop offset="1" stop-color="#3BADEA"/>
</linearGradient>
<linearGradient id="paint8_linear_1_20423" x1="23.3681" y1="18.4549" x2="28.5431" y2="18.4549" gradientUnits="userSpaceOnUse">
<stop stop-color="#4AFFC7"/>
<stop offset="1" stop-color="#3BADEA"/>
</linearGradient>
<linearGradient id="paint9_linear_1_20423" x1="26.8039" y1="12.9592" x2="29.4872" y2="12.9592" gradientUnits="userSpaceOnUse">
<stop stop-color="#4AFFC7"/>
<stop offset="1" stop-color="#3BADEA"/>
</linearGradient>
<linearGradient id="paint10_linear_1_20423" x1="42.7222" y1="38.4529" x2="47.7054" y2="38.4529" gradientUnits="userSpaceOnUse">
<stop stop-color="#4AFFC7"/>
<stop offset="1" stop-color="#3BADEA"/>
</linearGradient>
<linearGradient id="paint11_linear_1_20423" x1="38.7154" y1="46.8718" x2="41.9738" y2="46.8718" gradientUnits="userSpaceOnUse">
<stop stop-color="#4AFFC7"/>
<stop offset="1" stop-color="#3BADEA"/>
</linearGradient>
<linearGradient id="paint12_linear_1_20423" x1="35.2767" y1="42.3899" x2="40.8351" y2="42.3899" gradientUnits="userSpaceOnUse">
<stop stop-color="#4AFFC7"/>
<stop offset="1" stop-color="#3BADEA"/>
</linearGradient>
<linearGradient id="paint13_linear_1_20423" x1="38.9036" y1="37.824" x2="42.9286" y2="37.824" gradientUnits="userSpaceOnUse">
<stop stop-color="#4AFFC7"/>
<stop offset="1" stop-color="#3BADEA"/>
</linearGradient>
<linearGradient id="paint14_linear_1_20423" x1="36.9934" y1="42.6123" x2="48.1101" y2="42.6123" gradientUnits="userSpaceOnUse">
<stop stop-color="#4AFFC7"/>
<stop offset="1" stop-color="#3BADEA"/>
</linearGradient>
<linearGradient id="paint15_linear_1_20423" x1="16.0997" y1="27.7431" x2="41.0165" y2="27.7431" gradientUnits="userSpaceOnUse">
<stop stop-color="#4AFFC7"/>
<stop offset="1" stop-color="#3BADEA"/>
</linearGradient>
<linearGradient id="paint16_linear_1_20423" x1="47.1419" y1="4.61471" x2="52.892" y2="4.61471" gradientUnits="userSpaceOnUse">
<stop stop-color="#4AFFC7"/>
<stop offset="1" stop-color="#3BADEA"/>
</linearGradient>
<linearGradient id="paint17_linear_1_20423" x1="50.7776" y1="4.23145" x2="53.2692" y2="4.23145" gradientUnits="userSpaceOnUse">
<stop stop-color="#4AFFC7"/>
<stop offset="1" stop-color="#3BADEA"/>
</linearGradient>
<linearGradient id="paint18_linear_1_20423" x1="42.3461" y1="14.3582" x2="46.1795" y2="14.3582" gradientUnits="userSpaceOnUse">
<stop stop-color="#4AFFC7"/>
<stop offset="1" stop-color="#3BADEA"/>
</linearGradient>
<linearGradient id="paint19_linear_1_20423" x1="37.7546" y1="12.1389" x2="40.4379" y2="12.1389" gradientUnits="userSpaceOnUse">
<stop stop-color="#4AFFC7"/>
<stop offset="1" stop-color="#3BADEA"/>
</linearGradient>
<linearGradient id="paint20_linear_1_20423" x1="38.314" y1="9.09528" x2="44.8306" y2="9.09528" gradientUnits="userSpaceOnUse">
<stop stop-color="#4AFFC7"/>
<stop offset="1" stop-color="#3BADEA"/>
</linearGradient>
<linearGradient id="paint21_linear_1_20423" x1="42.7296" y1="3.6431" x2="47.3296" y2="3.6431" gradientUnits="userSpaceOnUse">
<stop stop-color="#4AFFC7"/>
<stop offset="1" stop-color="#3BADEA"/>
</linearGradient>
<linearGradient id="paint22_linear_1_20423" x1="39.8417" y1="9.29669" x2="53.6418" y2="9.29669" gradientUnits="userSpaceOnUse">
<stop stop-color="#4AFFC7"/>
<stop offset="1" stop-color="#3BADEA"/>
</linearGradient>
<linearGradient id="paint23_linear_1_20423" x1="47.4753" y1="38.8541" x2="92.1932" y2="38.8541" gradientUnits="userSpaceOnUse">
<stop stop-color="#4AFFC7"/>
<stop offset="1" stop-color="#3BADEA"/>
</linearGradient>
<linearGradient id="paint24_linear_1_20423" x1="88.9335" y1="51.1704" x2="92.7667" y2="51.1704" gradientUnits="userSpaceOnUse">
<stop stop-color="#4AFFC7"/>
<stop offset="1" stop-color="#3BADEA"/>
</linearGradient>
<linearGradient id="paint25_linear_1_20423" x1="47.506" y1="39.8187" x2="89.0978" y2="39.8187" gradientUnits="userSpaceOnUse">
<stop stop-color="#3BADEA"/>
<stop offset="1" stop-color="#4AFFC7"/>
</linearGradient>
<linearGradient id="paint26_linear_1_20423" x1="48.6777" y1="37.1573" x2="91.0361" y2="37.1573" gradientUnits="userSpaceOnUse">
<stop stop-color="#3BADEA"/>
<stop offset="1" stop-color="#4AFFC7"/>
</linearGradient>
<linearGradient id="paint27_linear_1_20423" x1="89.3627" y1="51.2434" x2="93.1959" y2="51.2434" gradientUnits="userSpaceOnUse">
<stop stop-color="#4AFFC7"/>
<stop offset="1" stop-color="#3BADEA"/>
</linearGradient>
</defs>
</svg>
