<svg width="76" height="111" viewBox="0 0 76 111" fill="none" xmlns="http://www.w3.org/2000/svg">
<path opacity="0.5" fill-rule="evenodd" clip-rule="evenodd" d="M64.5683 73.8057C79.3323 82.2422 79.3323 96.2392 64.5683 104.676C49.8044 113.112 25.8369 113.112 11.073 104.676C-3.69099 96.2392 -3.69099 82.2422 11.073 73.8057C25.8369 65.1774 49.8044 65.1774 64.5683 73.8057Z" fill="#E9E9EB"/>
<path opacity="0.5" fill-rule="evenodd" clip-rule="evenodd" d="M59.0021 77.0749C70.6982 83.7858 70.6982 94.715 59.0021 101.426C47.306 108.137 28.5156 108.137 16.8195 101.426C5.12333 94.715 5.12333 83.7858 16.8195 77.0749C28.5156 70.364 47.306 70.364 59.0021 77.0749Z" fill="#DDDEE1"/>
<path opacity="0.5" fill-rule="evenodd" clip-rule="evenodd" d="M53.4316 80.3588C62.0599 85.344 62.0599 93.2052 53.4316 98.1904C44.9951 103.176 30.9981 103.176 22.5615 98.1904C13.9333 93.2052 13.9333 85.344 22.5615 80.3588C31.1898 75.3736 44.9951 75.3736 53.4316 80.3588Z" fill="#D1D2D6"/>
<path fill-rule="evenodd" clip-rule="evenodd" d="M26.7824 27.2598L16.6202 33.2036C15.0863 34.1623 13.7441 36.4633 13.7441 38.3807V78.4542C13.7441 80.5633 15.2781 81.5222 17.1955 80.3717L26.9741 74.8112V27.4515L26.7824 27.2598Z" fill="#3D566E"/>
<path fill-rule="evenodd" clip-rule="evenodd" d="M26.7824 27.2598L16.6202 33.2036C15.0863 34.1623 13.7441 36.4633 13.7441 38.3807V78.4542C13.7441 80.5633 15.2781 81.5222 17.1955 80.3717L26.9741 74.8112V27.4515L26.7824 27.2598Z" fill="url(#paint0_linear_1_20475)"/>
<path fill-rule="evenodd" clip-rule="evenodd" d="M64.1878 53.6987V51.7813C64.1878 41.6191 64.1878 3.46291 63.9961 3.07943C63.6126 2.12073 62.4622 1.92901 61.3117 2.50423L24.1142 23.9791C22.5803 24.9378 21.2382 27.2386 21.2382 29.156V78.6249L19.896 83.2266L60.9283 59.6427C60.9283 59.6427 62.6539 58.3004 63.4209 57.15C63.9961 55.9995 64.3796 54.8491 64.3796 53.8904L64.1878 53.6987Z" fill="#EBEBEB"/>
<path fill-rule="evenodd" clip-rule="evenodd" d="M64.1878 53.6987V51.7813C64.1878 41.6191 64.1878 3.46291 63.9961 3.07943C63.6126 2.12073 62.4622 1.92901 61.3117 2.50423L24.1142 23.9791C22.5803 24.9378 21.2382 27.2386 21.2382 29.156V78.6249L19.896 83.2266L60.9283 59.6427C60.9283 59.6427 62.6539 58.3004 63.4209 57.15C63.9961 55.9995 64.3796 54.8491 64.3796 53.8904L64.1878 53.6987Z" fill="url(#paint1_linear_1_20475)"/>
<path fill-rule="evenodd" clip-rule="evenodd" d="M17.2059 28.5692L12.7958 31.0617H12.4124L12.2206 31.4453H12.0289L11.8371 32.0205V32.404L11.2619 32.7874V33.1709L10.8784 33.5544V33.9378L10.4949 34.3214V34.7048L10.3032 35.0884V35.4718V35.8552V36.2388V36.6222V73.4363V74.0115V75.1619C10.8784 78.4215 12.9876 81.8728 15.6719 83.4067C18.548 85.1323 21.0406 83.982 21.2324 80.9141V80.5306C21.2324 80.5306 21.2324 80.3389 21.2324 80.1471V29.3361V28.9527V28.5692V28.1857V27.8022V27.4188L21.4241 27.0352V26.6518L21.8076 26.2682V25.8848L22.1911 25.5014V25.1178L22.7663 24.9261H22.958L23.1497 24.3509H23.5332L23.9167 23.9674L61.1142 2.49256H61.4977L61.8811 2.10915H62.2646H62.6481H63.0316L59.1968 0H58.8133H58.4298H58.0463H57.6629H57.2794L20.0819 21.6665H19.6984L19.3149 22.0501H19.1232L18.9315 22.6253H18.7397L18.548 23.2005V23.5839L18.1645 23.9674V24.3509L17.7811 24.7344V25.1178L17.5893 25.5014V25.8848V26.2682V26.6518V27.0352V28.7609L17.2059 28.5692ZM17.2059 32.7874V77.4628C17.2059 77.4628 17.2059 77.4627 17.2059 77.6544C17.2059 78.8049 16.4389 79.1884 15.4802 78.6132C14.5215 78.038 13.7545 76.3123 13.7545 75.7371V73.6279V38.3479C13.7545 38.3479 13.7545 38.1561 13.7545 37.9644C13.7545 37.9644 13.7545 37.7727 13.7545 37.5809C13.7545 37.5809 13.7545 37.3893 13.7545 37.1975C13.7545 37.1975 13.7545 37.0057 13.7545 36.814C13.7545 36.6222 13.7545 36.6223 13.7545 36.4305C13.7545 36.4305 13.7545 36.2387 13.7545 36.047C13.7545 36.047 13.7545 35.8553 13.7545 35.6636C13.7545 35.6636 13.7545 35.4718 13.7545 35.28C13.7545 35.28 13.7545 35.0883 13.9462 34.8966C13.9462 34.8966 13.9463 34.7048 14.138 34.513C14.138 34.513 14.138 34.3214 14.3297 34.1296C14.3297 34.1296 14.3297 33.9378 14.5214 33.9378C14.7132 33.9378 14.5215 33.9379 14.7132 33.7462C14.7132 33.7462 14.7132 33.7462 14.9049 33.5544C14.9049 33.5544 15.0967 33.5544 15.2884 33.3626C15.2884 33.3626 15.4802 33.3626 15.6719 33.3626L16.2471 32.9792L17.2059 32.7874Z" fill="#9C9C9C"/>
<path fill-rule="evenodd" clip-rule="evenodd" d="M17.2059 28.5692L12.7958 31.0617H12.4124L12.2206 31.4453H12.0289L11.8371 32.0205V32.404L11.2619 32.7874V33.1709L10.8784 33.5544V33.9378L10.4949 34.3214V34.7048L10.3032 35.0884V35.4718V35.8552V36.2388V36.6222V73.4363V74.0115V75.1619C10.8784 78.4215 12.9876 81.8728 15.6719 83.4067C18.548 85.1323 21.0406 83.982 21.2324 80.9141V80.5306C21.2324 80.5306 21.2324 80.3389 21.2324 80.1471V29.3361V28.9527V28.5692V28.1857V27.8022V27.4188L21.4241 27.0352V26.6518L21.8076 26.2682V25.8848L22.1911 25.5014V25.1178L22.7663 24.9261H22.958L23.1497 24.3509H23.5332L23.9167 23.9674L61.1142 2.49256H61.4977L61.8811 2.10915H62.2646H62.6481H63.0316L59.1968 0H58.8133H58.4298H58.0463H57.6629H57.2794L20.0819 21.6665H19.6984L19.3149 22.0501H19.1232L18.9315 22.6253H18.7397L18.548 23.2005V23.5839L18.1645 23.9674V24.3509L17.7811 24.7344V25.1178L17.5893 25.5014V25.8848V26.2682V26.6518V27.0352V28.7609L17.2059 28.5692ZM17.2059 32.7874V77.4628C17.2059 77.4628 17.2059 77.4627 17.2059 77.6544C17.2059 78.8049 16.4389 79.1884 15.4802 78.6132C14.5215 78.038 13.7545 76.3123 13.7545 75.7371V73.6279V38.3479C13.7545 38.3479 13.7545 38.1561 13.7545 37.9644C13.7545 37.9644 13.7545 37.7727 13.7545 37.5809C13.7545 37.5809 13.7545 37.3893 13.7545 37.1975C13.7545 37.1975 13.7545 37.0057 13.7545 36.814C13.7545 36.6222 13.7545 36.6223 13.7545 36.4305C13.7545 36.4305 13.7545 36.2387 13.7545 36.047C13.7545 36.047 13.7545 35.8553 13.7545 35.6636C13.7545 35.6636 13.7545 35.4718 13.7545 35.28C13.7545 35.28 13.7545 35.0883 13.9462 34.8966C13.9462 34.8966 13.9463 34.7048 14.138 34.513C14.138 34.513 14.138 34.3214 14.3297 34.1296C14.3297 34.1296 14.3297 33.9378 14.5214 33.9378C14.7132 33.9378 14.5215 33.9379 14.7132 33.7462C14.7132 33.7462 14.7132 33.7462 14.9049 33.5544C14.9049 33.5544 15.0967 33.5544 15.2884 33.3626C15.2884 33.3626 15.4802 33.3626 15.6719 33.3626L16.2471 32.9792L17.2059 32.7874Z" fill="url(#paint2_linear_1_20475)"/>
<path fill-rule="evenodd" clip-rule="evenodd" d="M59.4142 25.9075C59.4142 25.9075 60.1811 25.9074 60.1811 26.2909C60.1811 26.6744 59.7976 27.2497 59.4142 27.4414L45.2255 35.6862C45.2255 35.6862 44.4585 35.6861 44.4585 35.3027C44.4585 34.9192 44.842 34.344 45.2255 34.1523L59.4142 25.9075Z" fill="#3D566E"/>
<path fill-rule="evenodd" clip-rule="evenodd" d="M59.4142 25.9075C59.4142 25.9075 60.1811 25.9074 60.1811 26.2909C60.1811 26.6744 59.7976 27.2497 59.4142 27.4414L45.2255 35.6862C45.2255 35.6862 44.4585 35.6861 44.4585 35.3027C44.4585 34.9192 44.842 34.344 45.2255 34.1523L59.4142 25.9075Z" fill="url(#paint3_linear_1_20475)"/>
<path fill-rule="evenodd" clip-rule="evenodd" d="M59.4142 33.9219C59.4142 33.9219 60.1811 33.922 60.1811 34.3054C60.1811 34.6889 59.7976 35.2641 59.4142 35.4558L45.2255 43.7006C45.2255 43.7006 44.4585 43.7007 44.4585 43.3172C44.4585 42.9337 44.842 42.3584 45.2255 42.1667L59.4142 33.9219Z" fill="#3D566E"/>
<path fill-rule="evenodd" clip-rule="evenodd" d="M59.4142 33.9219C59.4142 33.9219 60.1811 33.922 60.1811 34.3054C60.1811 34.6889 59.7976 35.2641 59.4142 35.4558L45.2255 43.7006C45.2255 43.7006 44.4585 43.7007 44.4585 43.3172C44.4585 42.9337 44.842 42.3584 45.2255 42.1667L59.4142 33.9219Z" fill="url(#paint4_linear_1_20475)"/>
<path fill-rule="evenodd" clip-rule="evenodd" d="M59.399 42.6289C59.399 42.6289 60.1659 42.6288 60.1659 43.0123C60.1659 43.3958 59.7824 43.971 59.399 44.1627L26.4198 63.145C26.4198 63.145 25.6528 63.145 25.6528 62.7615C25.6528 62.378 26.0363 61.8028 26.4198 61.6111L59.399 42.6289Z" fill="#3D566E"/>
<path fill-rule="evenodd" clip-rule="evenodd" d="M59.399 42.6289C59.399 42.6289 60.1659 42.6288 60.1659 43.0123C60.1659 43.3958 59.7824 43.971 59.399 44.1627L26.4198 63.145C26.4198 63.145 25.6528 63.145 25.6528 62.7615C25.6528 62.378 26.0363 61.8028 26.4198 61.6111L59.399 42.6289Z" fill="url(#paint5_linear_1_20475)"/>
<path fill-rule="evenodd" clip-rule="evenodd" d="M26.8007 43.8964L41.5646 35.2681C41.5646 35.2681 42.3315 35.2681 42.3315 35.6516V45.2386C42.3315 45.2386 41.948 46.1973 41.5646 46.389L26.8007 55.0172C26.8007 55.0172 26.0337 55.0173 26.0337 54.6338V45.0468C26.0337 45.0468 26.4172 44.0882 26.8007 43.8964Z" fill="#9DD6F5"/>
<path fill-rule="evenodd" clip-rule="evenodd" d="M26.8007 43.8964L41.5646 35.2681C41.5646 35.2681 42.3315 35.2681 42.3315 35.6516V45.2386C42.3315 45.2386 41.948 46.1973 41.5646 46.389L26.8007 55.0172C26.8007 55.0172 26.0337 55.0173 26.0337 54.6338V45.0468C26.0337 45.0468 26.4172 44.0882 26.8007 43.8964Z" fill="url(#paint6_linear_1_20475)"/>
<path d="M33.1255 26.6602C33.5089 26.4685 33.7007 26.6605 33.7007 27.0439V35.2881C33.7007 35.2881 33.7004 35.8639 33.3169 36.0557C32.9338 36.4387 32.5507 36.6305 32.3589 36.4395L27.7563 32.6045V38.7402C27.7463 38.7651 27.3681 39.7014 26.9897 39.8906C26.6063 40.0822 26.2229 39.8902 26.4146 39.5068V31.2617C26.4211 31.2454 26.801 30.3016 27.1812 30.1113H27.7563L32.3589 33.9463V27.8105C32.3659 27.7931 32.7456 26.8501 33.1255 26.6602ZM40.6157 22.4834C40.6287 22.4834 41.3818 22.4864 41.3823 22.8662C41.3823 23.2496 40.9991 23.8247 40.6157 24.0166L36.5894 26.3174V28.6191L40.2319 26.5098C40.2319 26.5098 40.9995 26.5101 40.9995 26.8936C40.9992 27.277 40.6153 27.8523 40.2319 28.0439L36.5894 30.1523V32.6455L40.6157 30.3447C40.6287 30.3448 41.382 30.3476 41.3823 30.7275C41.3823 31.1109 40.9991 31.6861 40.6157 31.8779L36.0142 34.5625C36.0142 34.5625 35.2466 34.5622 35.2466 34.1787V26.3174C35.2531 26.3012 35.634 25.3571 36.0142 25.167L40.6157 22.4834ZM51.3462 16.1133C51.7296 16.1133 51.9213 16.3048 51.9214 16.8799L50.0044 25.8916C50.0044 25.8916 49.8123 26.4674 49.6206 26.6592C49.2373 27.0423 48.8542 27.0422 48.854 26.6592L47.5112 22.0566L46.1694 28.3848C46.1643 28.3999 45.9725 28.9622 45.5942 29.1514C45.2108 29.5348 44.8276 29.3431 44.8276 29.1514L43.1021 22.249V21.8652C43.1021 21.8537 43.1055 20.9054 43.6772 20.7148C44.0606 20.3318 44.4437 20.5232 44.4438 20.7148L45.5942 25.3164L46.936 19.1807C46.9422 19.1704 47.5129 18.2227 47.7036 18.2227C47.8952 18.2227 48.0863 18.2225 48.0864 18.6055L49.4292 23.0156L50.5796 17.0723C50.5796 17.0723 50.9628 16.1136 51.3462 16.1133ZM58.8032 11.8682C58.8032 11.8682 59.5708 11.8685 59.5708 12.252C59.5708 12.6354 59.1874 13.2105 58.9956 13.4023L54.9692 15.7031V18.0039L59.187 15.5117C59.187 15.5117 59.9546 15.512 59.9546 15.8955V19.7295C59.9546 19.7295 59.5705 20.6881 59.187 20.8799L54.2017 23.7559C54.1857 23.7558 53.4353 23.7523 53.4351 23.373C53.4351 22.9897 53.8183 22.4146 54.2017 22.2227L58.4204 19.7295V17.4287L54.2017 19.9219C54.1858 19.9218 53.4352 19.9174 53.4351 19.5381V15.7031C53.4401 15.6905 53.8198 14.7432 54.0103 14.5527L58.8032 11.6768V11.8682Z" fill="#3D566E"/>
<path d="M33.1255 26.6602C33.5089 26.4685 33.7007 26.6605 33.7007 27.0439V35.2881C33.7007 35.2881 33.7004 35.8639 33.3169 36.0557C32.9338 36.4387 32.5507 36.6305 32.3589 36.4395L27.7563 32.6045V38.7402C27.7463 38.7651 27.3681 39.7014 26.9897 39.8906C26.6063 40.0822 26.2229 39.8902 26.4146 39.5068V31.2617C26.4211 31.2454 26.801 30.3016 27.1812 30.1113H27.7563L32.3589 33.9463V27.8105C32.3659 27.7931 32.7456 26.8501 33.1255 26.6602ZM40.6157 22.4834C40.6287 22.4834 41.3818 22.4864 41.3823 22.8662C41.3823 23.2496 40.9991 23.8247 40.6157 24.0166L36.5894 26.3174V28.6191L40.2319 26.5098C40.2319 26.5098 40.9995 26.5101 40.9995 26.8936C40.9992 27.277 40.6153 27.8523 40.2319 28.0439L36.5894 30.1523V32.6455L40.6157 30.3447C40.6287 30.3448 41.382 30.3476 41.3823 30.7275C41.3823 31.1109 40.9991 31.6861 40.6157 31.8779L36.0142 34.5625C36.0142 34.5625 35.2466 34.5622 35.2466 34.1787V26.3174C35.2531 26.3012 35.634 25.3571 36.0142 25.167L40.6157 22.4834ZM51.3462 16.1133C51.7296 16.1133 51.9213 16.3048 51.9214 16.8799L50.0044 25.8916C50.0044 25.8916 49.8123 26.4674 49.6206 26.6592C49.2373 27.0423 48.8542 27.0422 48.854 26.6592L47.5112 22.0566L46.1694 28.3848C46.1643 28.3999 45.9725 28.9622 45.5942 29.1514C45.2108 29.5348 44.8276 29.3431 44.8276 29.1514L43.1021 22.249V21.8652C43.1021 21.8537 43.1055 20.9054 43.6772 20.7148C44.0606 20.3318 44.4437 20.5232 44.4438 20.7148L45.5942 25.3164L46.936 19.1807C46.9422 19.1704 47.5129 18.2227 47.7036 18.2227C47.8952 18.2227 48.0863 18.2225 48.0864 18.6055L49.4292 23.0156L50.5796 17.0723C50.5796 17.0723 50.9628 16.1136 51.3462 16.1133ZM58.8032 11.8682C58.8032 11.8682 59.5708 11.8685 59.5708 12.252C59.5708 12.6354 59.1874 13.2105 58.9956 13.4023L54.9692 15.7031V18.0039L59.187 15.5117C59.187 15.5117 59.9546 15.512 59.9546 15.8955V19.7295C59.9546 19.7295 59.5705 20.6881 59.187 20.8799L54.2017 23.7559C54.1857 23.7558 53.4353 23.7523 53.4351 23.373C53.4351 22.9897 53.8183 22.4146 54.2017 22.2227L58.4204 19.7295V17.4287L54.2017 19.9219C54.1858 19.9218 53.4352 19.9174 53.4351 19.5381V15.7031C53.4401 15.6905 53.8198 14.7432 54.0103 14.5527L58.8032 11.6768V11.8682Z" fill="url(#paint7_linear_1_20475)"/>
<path fill-rule="evenodd" clip-rule="evenodd" d="M42.1215 40.6772V45.2791C42.1215 45.2791 41.7379 46.2378 41.5462 46.4295L26.7823 55.0577C26.7823 55.0577 26.207 55.0578 26.207 54.6743V52.9487L28.6997 49.4974H34.2601C34.2601 49.4974 34.8353 49.3055 35.027 48.9221L40.5875 40.869H42.3132L42.1215 40.6772Z" fill="#FAC13C"/>
<path fill-rule="evenodd" clip-rule="evenodd" d="M42.1215 40.6772V45.2791C42.1215 45.2791 41.7379 46.2378 41.5462 46.4295L26.7823 55.0577C26.7823 55.0577 26.207 55.0578 26.207 54.6743V52.9487L28.6997 49.4974H34.2601C34.2601 49.4974 34.8353 49.3055 35.027 48.9221L40.5875 40.869H42.3132L42.1215 40.6772Z" fill="url(#paint8_linear_1_20475)"/>
<path fill-rule="evenodd" clip-rule="evenodd" d="M59.399 50.9924C59.399 50.9924 60.1659 50.9925 60.1659 51.376C60.1659 51.7595 59.7824 52.3346 59.399 52.5264L26.4198 71.5086C26.4198 71.5086 25.6528 71.5086 25.6528 71.1251C25.6528 70.7417 26.0363 70.1665 26.4198 69.9748L59.399 50.9924Z" fill="#3D566E"/>
<path fill-rule="evenodd" clip-rule="evenodd" d="M59.399 50.9924C59.399 50.9924 60.1659 50.9925 60.1659 51.376C60.1659 51.7595 59.7824 52.3346 59.399 52.5264L26.4198 71.5086C26.4198 71.5086 25.6528 71.5086 25.6528 71.1251C25.6528 70.7417 26.0363 70.1665 26.4198 69.9748L59.399 50.9924Z" fill="url(#paint9_linear_1_20475)"/>
<path fill-rule="evenodd" clip-rule="evenodd" d="M22.3767 25.693V25.5014L22.5685 25.3096L22.952 24.9261L23.1437 24.7344L23.3355 24.3509L23.719 24.1592L24.1024 23.9674L61.2999 2.49256L61.6834 2.30078H62.0669L62.4503 2.10915H62.8338L63.2173 2.30078L59.3825 0H58.999H58.6156H58.2321L57.8486 0.191781L57.4651 0.383415L20.0759 21.8583L19.8842 22.0501L19.5007 22.2417L19.3089 22.4335L18.9255 22.8171L18.7337 23.0087L18.542 23.3923L22.3767 25.693Z" fill="#BDBDBD"/>
<path fill-rule="evenodd" clip-rule="evenodd" d="M22.3767 25.693V25.5014L22.5685 25.3096L22.952 24.9261L23.1437 24.7344L23.3355 24.3509L23.719 24.1592L24.1024 23.9674L61.2999 2.49256L61.6834 2.30078H62.0669L62.4503 2.10915H62.8338L63.2173 2.30078L59.3825 0H58.999H58.6156H58.2321L57.8486 0.191781L57.4651 0.383415L20.0759 21.8583L19.8842 22.0501L19.5007 22.2417L19.3089 22.4335L18.9255 22.8171L18.7337 23.0087L18.542 23.3923L22.3767 25.693Z" fill="url(#paint10_linear_1_20475)"/>
<path fill-rule="evenodd" clip-rule="evenodd" d="M17.2303 28.606L12.8202 31.0985H12.4368L12.245 31.4821H12.0533L11.8615 32.0573V32.4408L11.2863 32.8243V33.2077L10.9028 33.5912L14.5459 35.892C14.5459 35.892 14.5459 35.5086 14.7376 35.3168C14.7376 35.3168 14.7376 35.1251 14.9293 34.9334C14.9293 34.9334 14.9294 34.7416 15.1211 34.5498C15.1211 34.5498 15.1211 34.3582 15.3128 34.3582C15.3128 34.3582 15.3129 34.3582 15.5046 34.1664C15.5046 34.1664 15.5046 34.1664 15.6963 33.9746C15.6963 33.9746 15.8881 33.9747 16.0798 33.783C16.0798 33.783 16.2716 33.783 16.4633 33.783L17.0385 33.3994V29.1812L17.2303 28.606Z" fill="#BDBDBD"/>
<path fill-rule="evenodd" clip-rule="evenodd" d="M17.2303 28.606L12.8202 31.0985H12.4368L12.245 31.4821H12.0533L11.8615 32.0573V32.4408L11.2863 32.8243V33.2077L10.9028 33.5912L14.5459 35.892C14.5459 35.892 14.5459 35.5086 14.7376 35.3168C14.7376 35.3168 14.7376 35.1251 14.9293 34.9334C14.9293 34.9334 14.9294 34.7416 15.1211 34.5498C15.1211 34.5498 15.1211 34.3582 15.3128 34.3582C15.3128 34.3582 15.3129 34.3582 15.5046 34.1664C15.5046 34.1664 15.5046 34.1664 15.6963 33.9746C15.6963 33.9746 15.8881 33.9747 16.0798 33.783C16.0798 33.783 16.2716 33.783 16.4633 33.783L17.0385 33.3994V29.1812L17.2303 28.606Z" fill="url(#paint11_linear_1_20475)"/>
<defs>
<linearGradient id="paint0_linear_1_20475" x1="13.7403" y1="54.0618" x2="26.9653" y2="54.0618" gradientUnits="userSpaceOnUse">
<stop stop-color="#4AFFC7"/>
<stop offset="1" stop-color="#3BADEA"/>
</linearGradient>
<linearGradient id="paint1_linear_1_20475" x1="30.3029" y1="42.0148" x2="64.7787" y2="42.2018" gradientUnits="userSpaceOnUse">
<stop stop-color="#9CB2DF"/>
<stop offset="0.09" stop-color="#A9BDE4"/>
<stop offset="0.31" stop-color="#C3D3F0"/>
<stop offset="0.53" stop-color="#D6E3F8"/>
<stop offset="0.76" stop-color="#E2ECFD"/>
<stop offset="1" stop-color="#E6F0FF"/>
</linearGradient>
<linearGradient id="paint2_linear_1_20475" x1="22.6389" y1="41.3899" x2="63.5043" y2="41.6429" gradientUnits="userSpaceOnUse">
<stop stop-color="#9CB2DF"/>
<stop offset="0.09" stop-color="#A9BDE4"/>
<stop offset="0.31" stop-color="#C3D3F0"/>
<stop offset="0.53" stop-color="#D6E3F8"/>
<stop offset="0.76" stop-color="#E2ECFD"/>
<stop offset="1" stop-color="#E6F0FF"/>
</linearGradient>
<linearGradient id="paint3_linear_1_20475" x1="44.4539" y1="30.7968" x2="60.1706" y2="30.7968" gradientUnits="userSpaceOnUse">
<stop stop-color="#4AFFC7"/>
<stop offset="1" stop-color="#3BADEA"/>
</linearGradient>
<linearGradient id="paint4_linear_1_20475" x1="44.4539" y1="38.8113" x2="60.1706" y2="38.8113" gradientUnits="userSpaceOnUse">
<stop stop-color="#4AFFC7"/>
<stop offset="1" stop-color="#3BADEA"/>
</linearGradient>
<linearGradient id="paint5_linear_1_20475" x1="25.6428" y1="52.887" x2="60.1429" y2="52.887" gradientUnits="userSpaceOnUse">
<stop stop-color="#4AFFC7"/>
<stop offset="1" stop-color="#3BADEA"/>
</linearGradient>
<linearGradient id="paint6_linear_1_20475" x1="29.8465" y1="44.9748" x2="42.4773" y2="45.0778" gradientUnits="userSpaceOnUse">
<stop stop-color="#E6F0FF"/>
<stop offset="0.24" stop-color="#E2ECFD"/>
<stop offset="0.47" stop-color="#D6E3F8"/>
<stop offset="0.69" stop-color="#C3D3F0"/>
<stop offset="0.91" stop-color="#A9BDE4"/>
<stop offset="1" stop-color="#9CB2DF"/>
</linearGradient>
<linearGradient id="paint7_linear_1_20475" x1="27.3712" y1="34.6959" x2="59.9505" y2="17.716" gradientUnits="userSpaceOnUse">
<stop stop-color="#4AFFC7"/>
<stop offset="1" stop-color="#3BADEA"/>
</linearGradient>
<linearGradient id="paint8_linear_1_20475" x1="26.2024" y1="47.8675" x2="42.3024" y2="47.8675" gradientUnits="userSpaceOnUse">
<stop stop-color="#4AFFC7"/>
<stop offset="1" stop-color="#3BADEA"/>
</linearGradient>
<linearGradient id="paint9_linear_1_20475" x1="25.6428" y1="61.2505" x2="60.1429" y2="61.2505" gradientUnits="userSpaceOnUse">
<stop stop-color="#4AFFC7"/>
<stop offset="1" stop-color="#3BADEA"/>
</linearGradient>
<linearGradient id="paint10_linear_1_20475" x1="28.9937" y1="12.6281" x2="63.6089" y2="13.2232" gradientUnits="userSpaceOnUse">
<stop stop-color="#E6F0FF"/>
<stop offset="0.24" stop-color="#E2ECFD"/>
<stop offset="0.47" stop-color="#D6E3F8"/>
<stop offset="0.69" stop-color="#C3D3F0"/>
<stop offset="0.91" stop-color="#A9BDE4"/>
<stop offset="1" stop-color="#9CB2DF"/>
</linearGradient>
<linearGradient id="paint11_linear_1_20475" x1="12.3831" y1="32.1871" x2="17.2868" y2="32.2292" gradientUnits="userSpaceOnUse">
<stop stop-color="#9CB2DF"/>
<stop offset="0.09" stop-color="#A9BDE4"/>
<stop offset="0.31" stop-color="#C3D3F0"/>
<stop offset="0.53" stop-color="#D6E3F8"/>
<stop offset="0.76" stop-color="#E2ECFD"/>
<stop offset="1" stop-color="#E6F0FF"/>
</linearGradient>
</defs>
</svg>
