<svg width="76" height="122" viewBox="0 0 76 122" fill="none" xmlns="http://www.w3.org/2000/svg">
<path opacity="0.5" fill-rule="evenodd" clip-rule="evenodd" d="M64.5683 84.1458C79.3323 92.5823 79.3323 106.579 64.5683 115.016C49.8044 123.644 25.8369 123.644 11.073 115.016C-3.69099 106.579 -3.69099 92.5823 11.073 84.1458C25.8369 75.7092 49.8044 75.7092 64.5683 84.1458Z" fill="#E9E9EB"/>
<path opacity="0.5" fill-rule="evenodd" clip-rule="evenodd" d="M59.0006 87.4294C70.6968 94.1403 70.6968 105.07 59.0006 111.78C47.3045 118.491 28.5141 118.491 16.818 111.78C5.12187 105.07 5.12187 94.1403 16.818 87.4294C28.5141 80.7185 47.3045 80.7185 59.0006 87.4294Z" fill="#DDDEE1"/>
<path opacity="0.5" fill-rule="evenodd" clip-rule="evenodd" d="M53.2602 90.6889C61.8885 95.6741 61.8885 103.536 53.2602 108.521C44.8237 113.506 30.8267 113.506 22.3902 108.521C13.7619 103.536 13.7619 95.6741 22.3902 90.6889C31.0184 85.7036 44.8237 85.7036 53.2602 90.6889Z" fill="#D1D2D6"/>
<path fill-rule="evenodd" clip-rule="evenodd" d="M22.9745 83.1893L2.8418 71.4931L52.3106 42.9238L72.4432 54.62L22.9745 83.1893Z" fill="#34485C"/>
<path fill-rule="evenodd" clip-rule="evenodd" d="M22.9745 83.1893L2.8418 71.4931L52.3106 42.9238L72.4432 54.62L22.9745 83.1893Z" fill="url(#paint0_linear_1_20457)"/>
<path fill-rule="evenodd" clip-rule="evenodd" d="M22.9745 83.1893L2.8418 71.4931L52.3106 42.9238L72.4432 54.62L22.9745 83.1893Z" fill="url(#paint1_linear_1_20457)"/>
<path fill-rule="evenodd" clip-rule="evenodd" d="M22.9745 89.6937L2.8418 77.9976V71.4785L22.9745 83.1746V89.6937Z" fill="#2C3E50"/>
<path fill-rule="evenodd" clip-rule="evenodd" d="M22.9745 89.6937L2.8418 77.9976V71.4785L22.9745 83.1746V89.6937Z" fill="url(#paint2_linear_1_20457)"/>
<path fill-rule="evenodd" clip-rule="evenodd" d="M22.98 83.257L72.4487 54.6877V61.2071L22.98 89.7761V83.257Z" fill="#3D566E"/>
<path fill-rule="evenodd" clip-rule="evenodd" d="M22.98 83.257L72.4487 54.6877V61.2071L22.98 89.7761V83.257Z" fill="url(#paint3_linear_1_20457)"/>
<path fill-rule="evenodd" clip-rule="evenodd" d="M22.98 83.257L72.4487 54.6877V61.2071L22.98 89.7761V83.257Z" fill="url(#paint4_linear_1_20457)"/>
<path fill-rule="evenodd" clip-rule="evenodd" d="M49.2352 63.0536L38.1143 56.7262V7.64087L49.2352 13.9683V63.0536Z" fill="#943B3B"/>
<path fill-rule="evenodd" clip-rule="evenodd" d="M49.2352 63.0536L38.1143 56.7262V7.64087L49.2352 13.9683V63.0536Z" fill="url(#paint5_linear_1_20457)"/>
<path fill-rule="evenodd" clip-rule="evenodd" d="M49.2352 13.9969L38.1143 7.66947L51.3443 0L62.2735 6.51908L49.2352 13.9969Z" fill="#BF4A3D"/>
<path fill-rule="evenodd" clip-rule="evenodd" d="M49.2352 13.9969L38.1143 7.66947L51.3443 0L62.2735 6.51908L49.2352 13.9969Z" fill="url(#paint6_linear_1_20457)"/>
<path fill-rule="evenodd" clip-rule="evenodd" d="M36.7707 70.1882L25.6499 63.8608V31.8403L36.7707 38.3594V70.1882Z" fill="#22303D"/>
<path fill-rule="evenodd" clip-rule="evenodd" d="M36.7707 70.1882L25.6499 63.8608V31.8403L36.7707 38.3594V70.1882Z" fill="url(#paint7_linear_1_20457)"/>
<path fill-rule="evenodd" clip-rule="evenodd" d="M36.7707 38.326L25.6499 31.8069L38.8798 24.3291L50.0008 30.6563L36.7707 38.326Z" fill="#34485C"/>
<path fill-rule="evenodd" clip-rule="evenodd" d="M36.7707 38.326L25.6499 31.8069L38.8798 24.3291L50.0008 30.6563L36.7707 38.326Z" fill="url(#paint8_linear_1_20457)"/>
<path fill-rule="evenodd" clip-rule="evenodd" d="M36.7588 70.2066V38.3778L49.9889 30.708V62.7288L36.7588 70.2066Z" fill="#3D566E"/>
<path fill-rule="evenodd" clip-rule="evenodd" d="M36.7588 70.2066V38.3778L49.9889 30.708V62.7288L36.7588 70.2066Z" fill="url(#paint9_linear_1_20457)"/>
<path fill-rule="evenodd" clip-rule="evenodd" d="M49.2397 63.0836V13.9983L62.278 6.52051V55.4142L49.2397 63.0836Z" fill="#E74C3C"/>
<path fill-rule="evenodd" clip-rule="evenodd" d="M49.2397 63.0836V13.9983L62.278 6.52051V55.4142L49.2397 63.0836Z" fill="url(#paint10_linear_1_20457)"/>
<path fill-rule="evenodd" clip-rule="evenodd" d="M36.765 48.1187L25.6443 41.7913L12.606 49.461L23.7267 55.7885L36.765 48.1187Z" fill="#BDBDBD"/>
<path fill-rule="evenodd" clip-rule="evenodd" d="M36.765 48.1187L25.6443 41.7913L12.606 49.461L23.7267 55.7885L36.765 48.1187Z" fill="url(#paint11_linear_1_20457)"/>
<path fill-rule="evenodd" clip-rule="evenodd" d="M23.7267 55.7657L12.606 49.4382V71.2965L23.7267 77.8156V55.7657Z" fill="#9C9C9C"/>
<path fill-rule="evenodd" clip-rule="evenodd" d="M23.7267 55.7657L12.606 49.4382V71.2965L23.7267 77.8156V55.7657Z" fill="url(#paint12_linear_1_20457)"/>
<path fill-rule="evenodd" clip-rule="evenodd" d="M36.7771 70.2265V48.1763L23.7388 55.846V77.896L36.7771 70.2265Z" fill="#E6EAEB"/>
<path fill-rule="evenodd" clip-rule="evenodd" d="M36.7771 70.2265V48.1763L23.7388 55.846V77.896L36.7771 70.2265Z" fill="url(#paint13_linear_1_20457)"/>
<defs>
<linearGradient id="paint0_linear_1_20457" x1="2.82164" y1="63.0565" x2="72.3968" y2="63.0565" gradientUnits="userSpaceOnUse">
<stop stop-color="#3BADEA"/>
<stop offset="1" stop-color="#4AFFC7"/>
</linearGradient>
<linearGradient id="paint1_linear_1_20457" x1="19.1249" y1="62.7143" x2="73.0535" y2="63.6359" gradientUnits="userSpaceOnUse">
<stop stop-color="#9CB2DF"/>
<stop offset="0.09" stop-color="#A9BDE4"/>
<stop offset="0.31" stop-color="#C3D3F0"/>
<stop offset="0.53" stop-color="#D6E3F8"/>
<stop offset="0.76" stop-color="#E2ECFD"/>
<stop offset="1" stop-color="#E6F0FF"/>
</linearGradient>
<linearGradient id="paint2_linear_1_20457" x1="7.55181" y1="80.4313" x2="23.1537" y2="80.6018" gradientUnits="userSpaceOnUse">
<stop stop-color="#9CB2DF"/>
<stop offset="0.09" stop-color="#A9BDE4"/>
<stop offset="0.31" stop-color="#C3D3F0"/>
<stop offset="0.53" stop-color="#D6E3F8"/>
<stop offset="0.76" stop-color="#E2ECFD"/>
<stop offset="1" stop-color="#E6F0FF"/>
</linearGradient>
<linearGradient id="paint3_linear_1_20457" x1="22.9657" y1="72.2319" x2="72.4157" y2="72.2319" gradientUnits="userSpaceOnUse">
<stop stop-color="#3BADEA"/>
<stop offset="1" stop-color="#4AFFC7"/>
</linearGradient>
<linearGradient id="paint4_linear_1_20457" x1="34.5531" y1="71.9337" x2="72.8862" y2="72.468" gradientUnits="userSpaceOnUse">
<stop stop-color="#9CB2DF"/>
<stop offset="0.09" stop-color="#A9BDE4"/>
<stop offset="0.31" stop-color="#C3D3F0"/>
<stop offset="0.53" stop-color="#D6E3F8"/>
<stop offset="0.76" stop-color="#E2ECFD"/>
<stop offset="1" stop-color="#E6F0FF"/>
</linearGradient>
<linearGradient id="paint5_linear_1_20457" x1="38.111" y1="35.3472" x2="49.2278" y2="35.3472" gradientUnits="userSpaceOnUse">
<stop stop-color="#4AFFC7"/>
<stop offset="1" stop-color="#3BADEA"/>
</linearGradient>
<linearGradient id="paint6_linear_1_20457" x1="38.1073" y1="6.99845" x2="62.2574" y2="6.99845" gradientUnits="userSpaceOnUse">
<stop stop-color="#4AFFC7"/>
<stop offset="1" stop-color="#3BADEA"/>
</linearGradient>
<linearGradient id="paint7_linear_1_20457" x1="25.6467" y1="51.0143" x2="36.7633" y2="51.0143" gradientUnits="userSpaceOnUse">
<stop stop-color="#4AFFC7"/>
<stop offset="1" stop-color="#3BADEA"/>
</linearGradient>
<linearGradient id="paint8_linear_1_20457" x1="25.6428" y1="31.3276" x2="49.9845" y2="31.3276" gradientUnits="userSpaceOnUse">
<stop stop-color="#4AFFC7"/>
<stop offset="1" stop-color="#3BADEA"/>
</linearGradient>
<linearGradient id="paint9_linear_1_20457" x1="39.8539" y1="50.1216" x2="50.1078" y2="50.1555" gradientUnits="userSpaceOnUse">
<stop stop-color="#9CB2DF"/>
<stop offset="0.09" stop-color="#A9BDE4"/>
<stop offset="0.31" stop-color="#C3D3F0"/>
<stop offset="0.53" stop-color="#D6E3F8"/>
<stop offset="0.76" stop-color="#E2ECFD"/>
<stop offset="1" stop-color="#E6F0FF"/>
</linearGradient>
<linearGradient id="paint10_linear_1_20457" x1="52.29" y1="34.3213" x2="62.3953" y2="34.3443" gradientUnits="userSpaceOnUse">
<stop stop-color="#9CB2DF"/>
<stop offset="0.09" stop-color="#A9BDE4"/>
<stop offset="0.31" stop-color="#C3D3F0"/>
<stop offset="0.53" stop-color="#D6E3F8"/>
<stop offset="0.76" stop-color="#E2ECFD"/>
<stop offset="1" stop-color="#E6F0FF"/>
</linearGradient>
<linearGradient id="paint11_linear_1_20457" x1="12.599" y1="48.7899" x2="36.7489" y2="48.7899" gradientUnits="userSpaceOnUse">
<stop stop-color="#4AFFC7"/>
<stop offset="1" stop-color="#3BADEA"/>
</linearGradient>
<linearGradient id="paint12_linear_1_20457" x1="12.6027" y1="63.6269" x2="23.7193" y2="63.6269" gradientUnits="userSpaceOnUse">
<stop stop-color="#4AFFC7"/>
<stop offset="1" stop-color="#3BADEA"/>
</linearGradient>
<linearGradient id="paint13_linear_1_20457" x1="26.7891" y1="62.7835" x2="36.8942" y2="62.8273" gradientUnits="userSpaceOnUse">
<stop stop-color="#9CB2DF"/>
<stop offset="0.09" stop-color="#A9BDE4"/>
<stop offset="0.31" stop-color="#C3D3F0"/>
<stop offset="0.53" stop-color="#D6E3F8"/>
<stop offset="0.76" stop-color="#E2ECFD"/>
<stop offset="1" stop-color="#E6F0FF"/>
</linearGradient>
</defs>
</svg>
