<svg width="64" height="70" viewBox="0 0 64 70" fill="none" xmlns="http://www.w3.org/2000/svg">
<path d="M35.0426 45.515L48.4534 38.4261C49.3194 37.9931 49.839 37.1394 49.8266 36.1621C49.8266 35.2342 49.2575 34.4053 48.441 33.9476L2.41879 7.95494C1.13215 7.24976 0.204294 5.98784 0.0310918 4.528C-0.191596 2.62278 0.798104 0.828895 2.48064 0L3.34666 1.74439C2.49302 2.16503 1.97342 2.98157 1.96105 3.93418C1.93631 4.8868 2.41885 5.72803 3.24774 6.18578L49.3565 32.2279C50.6308 32.9331 51.5586 34.1826 51.7442 35.6301C51.9792 37.5353 51.002 39.3292 49.3318 40.1705L35.921 47.2594C35.0797 47.68 34.5725 48.4965 34.5478 49.4368C34.523 50.377 35.0055 51.2059 35.822 51.676L63.7818 67.5858L62.8167 69.2931L34.8571 53.3833C33.3972 52.5544 32.5559 51.0698 32.593 49.3997C32.6302 47.7295 33.5456 46.282 35.0302 45.5274L35.0426 45.515Z" fill="#F5F5F5"/>
</svg>
