<svg width="102" height="93" viewBox="0 0 102 93" fill="none" xmlns="http://www.w3.org/2000/svg">
<path fill-rule="evenodd" clip-rule="evenodd" d="M96.6073 77.1884C96.6073 74.4338 94.443 72.2695 91.6884 72.2695C88.9338 72.2695 86.7695 74.4338 86.7695 77.1884V89.5839C86.7695 89.5839 86.7691 90.5677 88.1464 91.5514C89.5236 92.3384 93.6558 92.3384 95.2298 91.5514C96.6071 90.7644 96.6073 90.3709 96.6073 89.5839V77.1884Z" fill="#F0B11D"/>
<path fill-rule="evenodd" clip-rule="evenodd" d="M96.6073 77.1884C96.6073 74.4338 94.443 72.2695 91.6884 72.2695C88.9338 72.2695 86.7695 74.4338 86.7695 77.1884V89.5839C86.7695 89.5839 86.7691 90.5677 88.1464 91.5514C89.5236 92.3384 93.6558 92.3384 95.2298 91.5514C96.6071 90.7644 96.6073 90.3709 96.6073 89.5839V77.1884Z" fill="url(#paint0_linear_1_27238)"/>
<path fill-rule="evenodd" clip-rule="evenodd" d="M96.6073 77.1333C96.6073 75.756 95.0332 72.8047 92.2786 72.8047C89.3273 72.8047 87.95 74.7723 87.95 77.1333C87.95 80.6749 87.95 87.758 87.95 91.2995C88.9338 91.8898 93.4589 92.0866 95.0329 91.2995C96.4102 90.5125 96.4103 90.119 96.4103 89.332V76.9365L96.6073 77.1333Z" fill="#FAC13C"/>
<path fill-rule="evenodd" clip-rule="evenodd" d="M96.6073 77.1333C96.6073 75.756 95.0332 72.8047 92.2786 72.8047C89.3273 72.8047 87.95 74.7723 87.95 77.1333C87.95 80.6749 87.95 87.758 87.95 91.2995C88.9338 91.8898 93.4589 92.0866 95.0329 91.2995C96.4102 90.5125 96.4103 90.119 96.4103 89.332V76.9365L96.6073 77.1333Z" fill="url(#paint1_linear_1_27238)"/>
<path fill-rule="evenodd" clip-rule="evenodd" d="M95.8363 91.1489C95.8363 91.1489 95.6396 91.1488 95.246 91.5423C94.8525 91.5423 94.2621 91.9358 93.8686 92.1326C93.8686 88.7877 93.8686 81.7046 93.8686 78.3598C93.6719 76.7857 93.8687 76.9825 92.6881 75.4084C92.2946 75.0149 92.4914 74.6215 92.6881 74.4247C93.2784 74.0312 94.2623 74.4247 94.6558 74.8182C95.4428 75.6052 95.6393 76.9825 95.6393 77.5727C95.6393 80.9176 95.6393 88.0007 95.6393 91.3455L95.8363 91.1489Z" fill="#FCDE97"/>
<path fill-rule="evenodd" clip-rule="evenodd" d="M95.8363 91.1489C95.8363 91.1489 95.6396 91.1488 95.246 91.5423C94.8525 91.5423 94.2621 91.9358 93.8686 92.1326C93.8686 88.7877 93.8686 81.7046 93.8686 78.3598C93.6719 76.7857 93.8687 76.9825 92.6881 75.4084C92.2946 75.0149 92.4914 74.6215 92.6881 74.4247C93.2784 74.0312 94.2623 74.4247 94.6558 74.8182C95.4428 75.6052 95.6393 76.9825 95.6393 77.5727C95.6393 80.9176 95.6393 88.0007 95.6393 91.3455L95.8363 91.1489Z" fill="url(#paint2_linear_1_27238)"/>
<path fill-rule="evenodd" clip-rule="evenodd" d="M91.6932 73.7957C94.251 73.7957 96.4152 71.6315 96.4152 69.0736C96.4152 66.5158 94.251 64.3516 91.6932 64.3516C89.1354 64.3516 86.9707 66.5158 86.9707 69.0736C86.9707 71.6315 89.1354 73.7957 91.6932 73.7957Z" fill="#F0B11D"/>
<path fill-rule="evenodd" clip-rule="evenodd" d="M91.6932 73.7957C94.251 73.7957 96.4152 71.6315 96.4152 69.0736C96.4152 66.5158 94.251 64.3516 91.6932 64.3516C89.1354 64.3516 86.9707 66.5158 86.9707 69.0736C86.9707 71.6315 89.1354 73.7957 91.6932 73.7957Z" fill="url(#paint3_linear_1_27238)"/>
<path fill-rule="evenodd" clip-rule="evenodd" d="M92.2768 73.006C94.6379 73.006 96.4085 71.2351 96.4085 68.874C96.4085 66.513 94.6379 64.7422 92.2768 64.7422C89.9158 64.7422 88.1445 66.513 88.1445 68.874C88.1445 71.2351 89.9158 73.006 92.2768 73.006Z" fill="#FAC13C"/>
<path fill-rule="evenodd" clip-rule="evenodd" d="M92.2768 73.006C94.6379 73.006 96.4085 71.2351 96.4085 68.874C96.4085 66.513 94.6379 64.7422 92.2768 64.7422C89.9158 64.7422 88.1445 66.513 88.1445 68.874C88.1445 71.2351 89.9158 73.006 92.2768 73.006Z" fill="url(#paint4_linear_1_27238)"/>
<path fill-rule="evenodd" clip-rule="evenodd" d="M92.6855 66.6911C93.0791 65.5105 94.4566 65.3138 95.4404 66.6911C95.6372 67.0846 95.8337 67.4781 95.8337 67.6749C95.8337 68.0684 95.8335 68.4619 95.6368 68.8554C95.6368 68.8554 95.2431 69.249 94.8496 69.249C94.8496 69.249 94.653 69.249 94.4563 69.249C93.6692 69.249 93.0792 68.8554 92.8825 68.2651C92.8825 68.0684 92.6855 67.6749 92.6855 67.4781V66.6911Z" fill="#FCDE97"/>
<path fill-rule="evenodd" clip-rule="evenodd" d="M92.6855 66.6911C93.0791 65.5105 94.4566 65.3138 95.4404 66.6911C95.6372 67.0846 95.8337 67.4781 95.8337 67.6749C95.8337 68.0684 95.8335 68.4619 95.6368 68.8554C95.6368 68.8554 95.2431 69.249 94.8496 69.249C94.8496 69.249 94.653 69.249 94.4563 69.249C93.6692 69.249 93.0792 68.8554 92.8825 68.2651C92.8825 68.0684 92.6855 67.6749 92.6855 67.4781V66.6911Z" fill="url(#paint5_linear_1_27238)"/>
<path fill-rule="evenodd" clip-rule="evenodd" d="M22.0605 30.9219V55.713L22.2575 56.5001L22.4538 57.2871L22.8477 58.0742L23.0441 58.8612L23.6343 59.6482L24.0282 60.4351L24.6185 61.2222L25.2087 62.0092L25.9953 62.5994L26.7825 63.3865L27.5697 63.9767L28.3568 64.7637L29.3404 65.354L30.5209 65.9444L31.505 66.5346L32.6855 67.1249L33.866 67.7151L35.0464 68.1087L36.2269 68.6989L37.4074 69.0924L38.7848 69.2892L40.1617 69.6826L41.3427 70.0762L42.7196 70.2729L44.097 70.4697L45.4744 70.6665H46.8519L48.2287 70.8633H49.6061H50.9835H52.361H53.7378L55.1152 70.6665H56.4927L57.8701 70.4697L59.2469 70.2729L60.6243 70.0762L62.0018 69.6826L63.1823 69.2892L64.5597 69.0924L65.7402 68.6989L66.9206 68.1087L68.1011 67.7151L69.2816 67.1249L70.4621 66.5346L71.6426 65.9444L72.6267 65.354L73.6102 64.7637L74.3974 63.9767L75.381 63.3865L75.9712 62.5994L76.7584 62.0092L77.3486 61.2222L77.9389 60.4351L78.5291 59.6482L78.9224 58.8612L79.3163 58.0742L79.5126 57.2871L79.7096 56.5001L79.9065 55.713V30.9219L79.7096 31.7089L79.5126 32.496L79.3163 33.283L78.9224 34.07L78.5291 34.8571L77.9389 35.4473L77.3486 36.2343L76.7584 37.0214L75.9712 37.8084L75.381 38.3987L74.3974 39.1857L73.6102 39.7759L72.6267 40.563L71.6426 41.1532L70.4621 41.7435L69.2816 42.3337L68.1011 42.7273L66.9206 43.3175L65.7402 43.711L64.5597 44.1046L63.1823 44.498L62.0018 44.6948L60.6243 45.0883L59.2469 45.2851L57.8701 45.4818L56.4927 45.6785L55.1152 45.8753H53.7378L52.361 46.0721H50.9835H49.6061L48.2287 45.8753H46.8519L45.4744 45.6785L44.097 45.4818L42.7196 45.2851L41.3427 45.0883L40.1617 44.6948L38.7848 44.498L37.4074 44.1046L36.2269 43.711L35.0464 43.3175L33.866 42.7273L32.6855 42.3337L31.505 41.7435L30.5209 41.1532L29.3404 40.563L28.3568 39.7759L27.5697 39.1857L26.7825 38.3987L25.9953 37.8084L25.2087 37.0214L24.6185 36.2343L24.0282 35.4473L23.6343 34.8571L23.0441 34.07L22.8477 33.283L22.4538 32.496L22.2575 31.7089L22.0605 30.9219Z" fill="#3D566E"/>
<path fill-rule="evenodd" clip-rule="evenodd" d="M22.0605 30.9219V55.713L22.2575 56.5001L22.4538 57.2871L22.8477 58.0742L23.0441 58.8612L23.6343 59.6482L24.0282 60.4351L24.6185 61.2222L25.2087 62.0092L25.9953 62.5994L26.7825 63.3865L27.5697 63.9767L28.3568 64.7637L29.3404 65.354L30.5209 65.9444L31.505 66.5346L32.6855 67.1249L33.866 67.7151L35.0464 68.1087L36.2269 68.6989L37.4074 69.0924L38.7848 69.2892L40.1617 69.6826L41.3427 70.0762L42.7196 70.2729L44.097 70.4697L45.4744 70.6665H46.8519L48.2287 70.8633H49.6061H50.9835H52.361H53.7378L55.1152 70.6665H56.4927L57.8701 70.4697L59.2469 70.2729L60.6243 70.0762L62.0018 69.6826L63.1823 69.2892L64.5597 69.0924L65.7402 68.6989L66.9206 68.1087L68.1011 67.7151L69.2816 67.1249L70.4621 66.5346L71.6426 65.9444L72.6267 65.354L73.6102 64.7637L74.3974 63.9767L75.381 63.3865L75.9712 62.5994L76.7584 62.0092L77.3486 61.2222L77.9389 60.4351L78.5291 59.6482L78.9224 58.8612L79.3163 58.0742L79.5126 57.2871L79.7096 56.5001L79.9065 55.713V30.9219L79.7096 31.7089L79.5126 32.496L79.3163 33.283L78.9224 34.07L78.5291 34.8571L77.9389 35.4473L77.3486 36.2343L76.7584 37.0214L75.9712 37.8084L75.381 38.3987L74.3974 39.1857L73.6102 39.7759L72.6267 40.563L71.6426 41.1532L70.4621 41.7435L69.2816 42.3337L68.1011 42.7273L66.9206 43.3175L65.7402 43.711L64.5597 44.1046L63.1823 44.498L62.0018 44.6948L60.6243 45.0883L59.2469 45.2851L57.8701 45.4818L56.4927 45.6785L55.1152 45.8753H53.7378L52.361 46.0721H50.9835H49.6061L48.2287 45.8753H46.8519L45.4744 45.6785L44.097 45.4818L42.7196 45.2851L41.3427 45.0883L40.1617 44.6948L38.7848 44.498L37.4074 44.1046L36.2269 43.711L35.0464 43.3175L33.866 42.7273L32.6855 42.3337L31.505 41.7435L30.5209 41.1532L29.3404 40.563L28.3568 39.7759L27.5697 39.1857L26.7825 38.3987L25.9953 37.8084L25.2087 37.0214L24.6185 36.2343L24.0282 35.4473L23.6343 34.8571L23.0441 34.07L22.8477 33.283L22.4538 32.496L22.2575 31.7089L22.0605 30.9219Z" fill="url(#paint6_linear_1_27238)"/>
<path fill-rule="evenodd" clip-rule="evenodd" d="M25.5879 62.2028L25.9812 62.5963L26.7684 63.3833L27.5556 63.9735L28.3427 64.7606L29.3263 65.3508L30.5068 65.9412L31.4909 66.5314L32.6714 67.1217L33.8519 67.7119L35.0323 68.1055L36.2128 68.6958L37.3933 69.0892H37.5903V44.1014H37.3933L36.2128 43.7078L35.0323 43.3143L33.8519 42.7241L32.6714 42.3305L31.4909 41.7403L30.5068 41.15L29.3263 40.5598L28.3427 39.7728L27.5556 39.1825L26.7684 38.3955L25.9812 37.8052L25.5879 37.2148V62.2028Z" fill="#2C3E50"/>
<path fill-rule="evenodd" clip-rule="evenodd" d="M25.5879 62.2028L25.9812 62.5963L26.7684 63.3833L27.5556 63.9735L28.3427 64.7606L29.3263 65.3508L30.5068 65.9412L31.4909 66.5314L32.6714 67.1217L33.8519 67.7119L35.0323 68.1055L36.2128 68.6958L37.3933 69.0892H37.5903V44.1014H37.3933L36.2128 43.7078L35.0323 43.3143L33.8519 42.7241L32.6714 42.3305L31.4909 41.7403L30.5068 41.15L29.3263 40.5598L28.3427 39.7728L27.5556 39.1825L26.7684 38.3955L25.9812 37.8052L25.5879 37.2148V62.2028Z" fill="url(#paint7_linear_1_27238)"/>
<path fill-rule="evenodd" clip-rule="evenodd" d="M64.5234 69.0892L65.7039 68.6958L66.8844 68.1055L68.0649 67.7119L69.2454 67.1217L70.4258 66.5314L71.6063 65.9412L72.5905 65.3508L73.574 64.7606L74.3612 63.9735L75.3447 63.3833L75.935 62.5963L76.5252 62.2028V37.2148L75.935 37.8052L75.3447 38.3955L74.3612 39.1825L73.574 39.7728L72.5905 40.5598L71.6063 41.15L70.4258 41.7403L69.2454 42.3305L68.0649 42.7241L66.8844 43.3143L65.7039 43.7078L64.5234 44.1014V69.0892Z" fill="#496682"/>
<path fill-rule="evenodd" clip-rule="evenodd" d="M64.5234 69.0892L65.7039 68.6958L66.8844 68.1055L68.0649 67.7119L69.2454 67.1217L70.4258 66.5314L71.6063 65.9412L72.5905 65.3508L73.574 64.7606L74.3612 63.9735L75.3447 63.3833L75.935 62.5963L76.5252 62.2028V37.2148L75.935 37.8052L75.3447 38.3955L74.3612 39.1825L73.574 39.7728L72.5905 40.5598L71.6063 41.15L70.4258 41.7403L69.2454 42.3305L68.0649 42.7241L66.8844 43.3143L65.7039 43.7078L64.5234 44.1014V69.0892Z" fill="url(#paint8_linear_1_27238)"/>
<path fill-rule="evenodd" clip-rule="evenodd" d="M101.926 29.3828V31.5471L50.9668 61.0604V58.8961L101.926 29.3828Z" fill="#496682"/>
<path fill-rule="evenodd" clip-rule="evenodd" d="M101.926 29.3828V31.5471L50.9668 61.0604V58.8961L101.926 29.3828Z" fill="url(#paint9_linear_1_27238)"/>
<path fill-rule="evenodd" clip-rule="evenodd" d="M50.9594 58.8961V61.0604L0 31.5471V29.3828L50.9594 58.8961Z" fill="#3D566E"/>
<path fill-rule="evenodd" clip-rule="evenodd" d="M50.9594 58.8961V61.0604L0 31.5471V29.3828L50.9594 58.8961Z" fill="url(#paint10_linear_1_27238)"/>
<path fill-rule="evenodd" clip-rule="evenodd" d="M50.9594 0L101.919 29.3166L50.9594 58.8298L0 29.3166L50.9594 0Z" fill="#2C3E50"/>
<path fill-rule="evenodd" clip-rule="evenodd" d="M50.9594 0L101.919 29.3166L50.9594 58.8298L0 29.3166L50.9594 0Z" fill="url(#paint11_linear_1_27238)"/>
<path fill-rule="evenodd" clip-rule="evenodd" d="M50.7511 28.3789L79.4772 32.7075C86.9538 33.8881 92.2667 39.9875 92.2667 47.4642V64.9753C92.2667 64.9753 90.8893 65.3688 90.8893 64.9753V48.6446C90.8893 41.168 85.577 34.8718 78.1003 33.888L49.7676 29.5594L50.7511 28.3789Z" fill="#F0B11D"/>
<path fill-rule="evenodd" clip-rule="evenodd" d="M50.7511 28.3789L79.4772 32.7075C86.9538 33.8881 92.2667 39.9875 92.2667 47.4642V64.9753C92.2667 64.9753 90.8893 65.3688 90.8893 64.9753V48.6446C90.8893 41.168 85.577 34.8718 78.1003 33.888L49.7676 29.5594L50.7511 28.3789Z" fill="url(#paint12_linear_1_27238)"/>
<path fill-rule="evenodd" clip-rule="evenodd" d="M44.6602 28.3789V29.1659L44.8571 29.953L45.2504 30.5432L45.8406 31.1335L46.6278 31.7237L47.0211 32.1173L47.6114 32.3139L48.0053 32.5107H48.5955L49.1857 32.7075H49.776L50.3662 32.9043H50.9565H51.5467L52.1369 32.7075H52.7272L53.3174 32.5107H53.9077L54.4979 32.3139L54.8912 32.1173L55.4814 31.7237L56.2686 31.1335L56.8589 30.5432L57.0558 29.953L57.2528 29.1659V28.3789L57.0558 28.9691L56.8589 29.5594L56.2686 30.3464L55.4814 30.74L54.8912 31.1335L54.4979 31.3303L53.9077 31.5271H53.3174L52.7272 31.7237L52.1369 31.9205H51.5467H50.9565H50.3662H49.776L49.1857 31.7237L48.5955 31.5271H48.0053L47.6114 31.3303L47.0211 31.1335L46.6278 30.74L45.8406 30.3464L45.2504 29.5594L44.8571 28.9691L44.6602 28.3789Z" fill="#3D566E"/>
<path fill-rule="evenodd" clip-rule="evenodd" d="M44.6602 28.3789V29.1659L44.8571 29.953L45.2504 30.5432L45.8406 31.1335L46.6278 31.7237L47.0211 32.1173L47.6114 32.3139L48.0053 32.5107H48.5955L49.1857 32.7075H49.776L50.3662 32.9043H50.9565H51.5467L52.1369 32.7075H52.7272L53.3174 32.5107H53.9077L54.4979 32.3139L54.8912 32.1173L55.4814 31.7237L56.2686 31.1335L56.8589 30.5432L57.0558 29.953L57.2528 29.1659V28.3789L57.0558 28.9691L56.8589 29.5594L56.2686 30.3464L55.4814 30.74L54.8912 31.1335L54.4979 31.3303L53.9077 31.5271H53.3174L52.7272 31.7237L52.1369 31.9205H51.5467H50.9565H50.3662H49.776L49.1857 31.7237L48.5955 31.5271H48.0053L47.6114 31.3303L47.0211 31.1335L46.6278 30.74L45.8406 30.3464L45.2504 29.5594L44.8571 28.9691L44.6602 28.3789Z" fill="url(#paint13_linear_1_27238)"/>
<path fill-rule="evenodd" clip-rule="evenodd" d="M55.4642 25.822C53.1032 24.4447 49.1685 24.4447 46.6106 25.822C44.2496 27.1993 44.2496 29.5603 46.6106 30.9375C48.9717 32.3148 52.9064 32.3148 55.4642 30.9375C57.8253 29.5603 57.8253 27.1993 55.4642 25.822Z" fill="#496682"/>
<path fill-rule="evenodd" clip-rule="evenodd" d="M55.4642 25.822C53.1032 24.4447 49.1685 24.4447 46.6106 25.822C44.2496 27.1993 44.2496 29.5603 46.6106 30.9375C48.9717 32.3148 52.9064 32.3148 55.4642 30.9375C57.8253 29.5603 57.8253 27.1993 55.4642 25.822Z" fill="url(#paint14_linear_1_27238)"/>
<defs>
<linearGradient id="paint0_linear_1_27238" x1="86.7667" y1="82.2056" x2="96.6007" y2="82.2056" gradientUnits="userSpaceOnUse">
<stop stop-color="#4AFFC7"/>
<stop offset="1" stop-color="#3BADEA"/>
</linearGradient>
<linearGradient id="paint1_linear_1_27238" x1="86.7667" y1="82.3117" x2="96.6007" y2="82.3117" gradientUnits="userSpaceOnUse">
<stop stop-color="#4AFFC7"/>
<stop offset="1" stop-color="#3BADEA"/>
</linearGradient>
<linearGradient id="paint2_linear_1_27238" x1="92.46" y1="83.1971" x2="95.834" y2="83.1971" gradientUnits="userSpaceOnUse">
<stop stop-color="#4AFFC7"/>
<stop offset="1" stop-color="#3BADEA"/>
</linearGradient>
<linearGradient id="paint3_linear_1_27238" x1="86.968" y1="69.0736" x2="96.4089" y2="69.0736" gradientUnits="userSpaceOnUse">
<stop stop-color="#4AFFC7"/>
<stop offset="1" stop-color="#3BADEA"/>
</linearGradient>
<linearGradient id="paint4_linear_1_27238" x1="88.1421" y1="68.8741" x2="96.403" y2="68.8741" gradientUnits="userSpaceOnUse">
<stop stop-color="#4AFFC7"/>
<stop offset="1" stop-color="#3BADEA"/>
</linearGradient>
<linearGradient id="paint5_linear_1_27238" x1="92.6846" y1="67.4897" x2="95.8316" y2="67.4897" gradientUnits="userSpaceOnUse">
<stop stop-color="#4AFFC7"/>
<stop offset="1" stop-color="#3BADEA"/>
</linearGradient>
<linearGradient id="paint6_linear_1_27238" x1="35.5935" y1="50.5531" x2="80.4177" y2="51.1949" gradientUnits="userSpaceOnUse">
<stop stop-color="#E6F0FF"/>
<stop offset="0.24" stop-color="#E2ECFD"/>
<stop offset="0.47" stop-color="#D6E3F8"/>
<stop offset="0.69" stop-color="#C3D3F0"/>
<stop offset="0.91" stop-color="#A9BDE4"/>
<stop offset="1" stop-color="#9CB2DF"/>
</linearGradient>
<linearGradient id="paint7_linear_1_27238" x1="28.3958" y1="52.8811" x2="37.6981" y2="52.9157" gradientUnits="userSpaceOnUse">
<stop stop-color="#E6F0FF"/>
<stop offset="0.24" stop-color="#E2ECFD"/>
<stop offset="0.47" stop-color="#D6E3F8"/>
<stop offset="0.69" stop-color="#C3D3F0"/>
<stop offset="0.91" stop-color="#A9BDE4"/>
<stop offset="1" stop-color="#9CB2DF"/>
</linearGradient>
<linearGradient id="paint8_linear_1_27238" x1="67.3312" y1="52.8811" x2="76.633" y2="52.9157" gradientUnits="userSpaceOnUse">
<stop stop-color="#E6F0FF"/>
<stop offset="0.24" stop-color="#E2ECFD"/>
<stop offset="0.47" stop-color="#D6E3F8"/>
<stop offset="0.69" stop-color="#C3D3F0"/>
<stop offset="0.91" stop-color="#A9BDE4"/>
<stop offset="1" stop-color="#9CB2DF"/>
</linearGradient>
<linearGradient id="paint9_linear_1_27238" x1="62.8887" y1="44.9523" x2="102.375" y2="45.5803" gradientUnits="userSpaceOnUse">
<stop stop-color="#E6F0FF"/>
<stop offset="0.24" stop-color="#E2ECFD"/>
<stop offset="0.47" stop-color="#D6E3F8"/>
<stop offset="0.69" stop-color="#C3D3F0"/>
<stop offset="0.91" stop-color="#A9BDE4"/>
<stop offset="1" stop-color="#9CB2DF"/>
</linearGradient>
<linearGradient id="paint10_linear_1_27238" x1="11.9219" y1="44.9523" x2="51.4078" y2="45.5803" gradientUnits="userSpaceOnUse">
<stop stop-color="#E6F0FF"/>
<stop offset="0.24" stop-color="#E2ECFD"/>
<stop offset="0.47" stop-color="#D6E3F8"/>
<stop offset="0.69" stop-color="#C3D3F0"/>
<stop offset="0.91" stop-color="#A9BDE4"/>
<stop offset="1" stop-color="#9CB2DF"/>
</linearGradient>
<linearGradient id="paint11_linear_1_27238" x1="23.8437" y1="28.9149" x2="102.813" y2="30.2674" gradientUnits="userSpaceOnUse">
<stop stop-color="#E6F0FF"/>
<stop offset="0.24" stop-color="#E2ECFD"/>
<stop offset="0.47" stop-color="#D6E3F8"/>
<stop offset="0.69" stop-color="#C3D3F0"/>
<stop offset="0.91" stop-color="#A9BDE4"/>
<stop offset="1" stop-color="#9CB2DF"/>
</linearGradient>
<linearGradient id="paint12_linear_1_27238" x1="49.7553" y1="46.7646" x2="92.2384" y2="46.7646" gradientUnits="userSpaceOnUse">
<stop stop-color="#4AFFC7"/>
<stop offset="1" stop-color="#3BADEA"/>
</linearGradient>
<linearGradient id="paint13_linear_1_27238" x1="44.6565" y1="30.6416" x2="57.2444" y2="30.6416" gradientUnits="userSpaceOnUse">
<stop stop-color="#4AFFC7"/>
<stop offset="1" stop-color="#3BADEA"/>
</linearGradient>
<linearGradient id="paint14_linear_1_27238" x1="44.8363" y1="28.3798" x2="57.2268" y2="28.3798" gradientUnits="userSpaceOnUse">
<stop stop-color="#4AFFC7"/>
<stop offset="1" stop-color="#3BADEA"/>
</linearGradient>
</defs>
</svg>
