<svg width="62" height="98" viewBox="0 0 62 98" fill="none" xmlns="http://www.w3.org/2000/svg">
<path fill-rule="evenodd" clip-rule="evenodd" d="M32.2008 97.6251L0 79.0248V77.8242L32.2008 96.4251V97.6251Z" fill="#2C3E50"/>
<path fill-rule="evenodd" clip-rule="evenodd" d="M32.2008 97.6251L0 79.0248V77.8242L32.2008 96.4251V97.6251Z" fill="url(#paint0_linear_1_27435)"/>
<path fill-rule="evenodd" clip-rule="evenodd" d="M32.2007 96.3938L0 77.7929L28.6005 60.793L61.2014 79.5934L32.2007 96.3938Z" fill="#34485C"/>
<path fill-rule="evenodd" clip-rule="evenodd" d="M32.2007 96.3938L0 77.7929L28.6005 60.793L61.2014 79.5934L32.2007 96.3938Z" fill="url(#paint1_linear_1_27435)"/>
<path fill-rule="evenodd" clip-rule="evenodd" d="M32.1914 96.437L61.192 79.6367V80.8367L32.1914 97.637V96.437Z" fill="#3D566E"/>
<path fill-rule="evenodd" clip-rule="evenodd" d="M32.1914 96.437L61.192 79.6367V80.8367L32.1914 97.637V96.437Z" fill="url(#paint2_linear_1_27435)"/>
<path fill-rule="evenodd" clip-rule="evenodd" d="M29.5932 40.7855L10.3926 29.5853V25.7852L29.5932 36.9854V40.7855Z" fill="#9C9C9C"/>
<path fill-rule="evenodd" clip-rule="evenodd" d="M29.5932 40.7855L10.3926 29.5853V25.7852L29.5932 36.9854V40.7855Z" fill="url(#paint3_linear_1_27435)"/>
<path fill-rule="evenodd" clip-rule="evenodd" d="M29.6074 40.8662V37.066L48.2077 26.2656V30.0658L29.6074 40.8662Z" fill="#E6EAEB"/>
<path fill-rule="evenodd" clip-rule="evenodd" d="M29.6074 40.8662V37.066L48.2077 26.2656V30.0658L29.6074 40.8662Z" fill="url(#paint4_linear_1_27435)"/>
<path fill-rule="evenodd" clip-rule="evenodd" d="M29.0137 16.0273L47.014 26.2278L45.214 27.2276L29.0137 17.8273V16.0273Z" fill="#9C9C9C"/>
<path fill-rule="evenodd" clip-rule="evenodd" d="M29.0137 16.0273L47.014 26.2278L45.214 27.2276L29.0137 17.8273V16.0273Z" fill="url(#paint5_linear_1_27435)"/>
<path fill-rule="evenodd" clip-rule="evenodd" d="M13.393 26.8278L11.793 25.828L28.9934 16.0273V17.8273L13.393 26.8278Z" fill="#EBEBEB"/>
<path fill-rule="evenodd" clip-rule="evenodd" d="M13.393 26.8278L11.793 25.828L28.9934 16.0273V17.8273L13.393 26.8278Z" fill="url(#paint6_linear_1_27435)"/>
<path fill-rule="evenodd" clip-rule="evenodd" d="M29.6128 36.6758L12.8125 26.8758L29.0128 17.6758L45.8131 27.2756L29.6128 36.6758Z" fill="#B8BFC4"/>
<path fill-rule="evenodd" clip-rule="evenodd" d="M29.6128 36.6758L12.8125 26.8758L29.0128 17.6758L45.8131 27.2756L29.6128 36.6758Z" fill="url(#paint7_linear_1_27435)"/>
<path fill-rule="evenodd" clip-rule="evenodd" d="M29.5932 37.0241L10.3926 25.8239L28.9932 15.0234L48.1934 26.2236L29.5932 37.0241ZM29.5932 36.2239L46.7936 26.2236L28.9932 15.8236L11.7928 25.8239L29.5932 36.2239Z" fill="#C5CCD1"/>
<path fill-rule="evenodd" clip-rule="evenodd" d="M29.5932 37.0241L10.3926 25.8239L28.9932 15.0234L48.1934 26.2236L29.5932 37.0241ZM29.5932 36.2239L46.7936 26.2236L28.9932 15.8236L11.7928 25.8239L29.5932 36.2239Z" fill="url(#paint8_linear_1_27435)"/>
<path fill-rule="evenodd" clip-rule="evenodd" d="M29.6098 35.0011L17.6094 28.0008V15.8008L29.6098 22.6009V35.0011Z" fill="#9C9C9C"/>
<path fill-rule="evenodd" clip-rule="evenodd" d="M29.6098 35.0011L17.6094 28.0008V15.8008L29.6098 22.6009V35.0011Z" fill="url(#paint9_linear_1_27435)"/>
<path fill-rule="evenodd" clip-rule="evenodd" d="M29.6098 22.6002L17.6094 15.8001L29.0098 9L41.2101 15.9997L29.6098 22.6002Z" fill="#BDBDBD"/>
<path fill-rule="evenodd" clip-rule="evenodd" d="M29.6098 22.6002L17.6094 15.8001L29.0098 9L41.2101 15.9997L29.6098 22.6002Z" fill="url(#paint10_linear_1_27435)"/>
<path fill-rule="evenodd" clip-rule="evenodd" d="M29.6074 22.6278L41.2077 16.0273V28.2279L29.6074 35.028V22.6278Z" fill="#E6EAEB"/>
<path fill-rule="evenodd" clip-rule="evenodd" d="M29.6074 22.6278L41.2077 16.0273V28.2279L29.6074 35.028V22.6278Z" fill="url(#paint11_linear_1_27435)"/>
<path fill-rule="evenodd" clip-rule="evenodd" d="M29.4085 19.6326L22.8083 15.8324V3.83203L29.4085 7.63217V19.6326Z" fill="#9C9C9C"/>
<path fill-rule="evenodd" clip-rule="evenodd" d="M29.4085 19.6326L22.8083 15.8324V3.83203L29.4085 7.63217V19.6326Z" fill="url(#paint12_linear_1_27435)"/>
<path fill-rule="evenodd" clip-rule="evenodd" d="M29.4085 7.60027L22.8083 3.80014L29.2083 0L36.0084 4.00034L29.4085 7.60027Z" fill="#BDBDBD"/>
<path fill-rule="evenodd" clip-rule="evenodd" d="M29.4085 7.60027L22.8083 3.80014L29.2083 0L36.0084 4.00034L29.4085 7.60027Z" fill="url(#paint13_linear_1_27435)"/>
<path fill-rule="evenodd" clip-rule="evenodd" d="M29.416 7.59994L36.0159 4V15.8002L29.416 19.6003V7.59994Z" fill="#E6EAEB"/>
<path fill-rule="evenodd" clip-rule="evenodd" d="M29.416 7.59994L36.0159 4V15.8002L29.416 19.6003V7.59994Z" fill="url(#paint14_linear_1_27435)"/>
<path fill-rule="evenodd" clip-rule="evenodd" d="M29.5932 45.4154L10.3926 34.4154L11.1928 34.0156L29.5932 44.6158L47.5935 34.4154L48.1935 34.8152L29.5932 45.4154Z" fill="#C5CCD1"/>
<path fill-rule="evenodd" clip-rule="evenodd" d="M29.5932 45.4154L10.3926 34.4154L11.1928 34.0156L29.5932 44.6158L47.5935 34.4154L48.1935 34.8152L29.5932 45.4154Z" fill="url(#paint15_linear_1_27435)"/>
<path fill-rule="evenodd" clip-rule="evenodd" d="M29.5743 44.6201L11.1739 34.0199V30.0195L29.5743 40.8199V44.6201Z" fill="#29648C"/>
<path fill-rule="evenodd" clip-rule="evenodd" d="M29.5743 44.6201L11.1739 34.0199V30.0195L29.5743 40.8199V44.6201Z" fill="url(#paint16_linear_1_27435)"/>
<path fill-rule="evenodd" clip-rule="evenodd" d="M29.6075 44.6109V40.8108L47.6078 30.4102V34.4105L29.6075 44.6109Z" fill="#2192FC"/>
<path fill-rule="evenodd" clip-rule="evenodd" d="M29.6075 44.6109V40.8108L47.6078 30.4102V34.4105L29.6075 44.6109Z" fill="url(#paint17_linear_1_27435)"/>
<path fill-rule="evenodd" clip-rule="evenodd" d="M29.5932 46.783L10.3926 35.783V34.3828L29.5932 45.3828V46.783Z" fill="#9C9C9C"/>
<path fill-rule="evenodd" clip-rule="evenodd" d="M29.5932 46.783L10.3926 35.783V34.3828L29.5932 45.3828V46.783Z" fill="url(#paint18_linear_1_27435)"/>
<path fill-rule="evenodd" clip-rule="evenodd" d="M29.6075 46.7699V45.3697L48.2078 34.7695V36.1697L29.6075 46.7699Z" fill="#E6EAEB"/>
<path fill-rule="evenodd" clip-rule="evenodd" d="M29.6075 46.7699V45.3697L48.2078 34.7695V36.1697L29.6075 46.7699Z" fill="url(#paint19_linear_1_27435)"/>
<path fill-rule="evenodd" clip-rule="evenodd" d="M29.5932 51.4903L10.3926 40.4896L11.1928 40.0898L29.5932 50.6901L47.5934 40.4896L48.1934 40.89L29.5932 51.4903Z" fill="#C5CCD1"/>
<path fill-rule="evenodd" clip-rule="evenodd" d="M29.5932 51.4903L10.3926 40.4896L11.1928 40.0898L29.5932 50.6901L47.5934 40.4896L48.1934 40.89L29.5932 51.4903Z" fill="url(#paint20_linear_1_27435)"/>
<path fill-rule="evenodd" clip-rule="evenodd" d="M29.5742 50.6699L11.1738 40.0697V36.2695L29.5742 46.8697V50.6699Z" fill="#29648C"/>
<path fill-rule="evenodd" clip-rule="evenodd" d="M29.5742 50.6699L11.1738 40.0697V36.2695L29.5742 46.8697V50.6699Z" fill="url(#paint21_linear_1_27435)"/>
<path fill-rule="evenodd" clip-rule="evenodd" d="M29.6074 50.6685V46.8684L47.6077 36.668V40.4681L29.6074 50.6685Z" fill="#2192FC"/>
<path fill-rule="evenodd" clip-rule="evenodd" d="M29.6074 50.6685V46.8684L47.6077 36.668V40.4681L29.6074 50.6685Z" fill="url(#paint22_linear_1_27435)"/>
<path fill-rule="evenodd" clip-rule="evenodd" d="M29.5932 52.8846L10.3926 41.8846V40.4844L29.5932 51.485V52.8846Z" fill="#9C9C9C"/>
<path fill-rule="evenodd" clip-rule="evenodd" d="M29.5932 52.8846L10.3926 41.8846V40.4844L29.5932 51.485V52.8846Z" fill="url(#paint23_linear_1_27435)"/>
<path fill-rule="evenodd" clip-rule="evenodd" d="M29.6074 52.8631V51.4635L48.2077 40.8633V42.2628L29.6074 52.8631Z" fill="#E6EAEB"/>
<path fill-rule="evenodd" clip-rule="evenodd" d="M29.6074 52.8631V51.4635L48.2077 40.8633V42.2628L29.6074 52.8631Z" fill="url(#paint24_linear_1_27435)"/>
<path fill-rule="evenodd" clip-rule="evenodd" d="M29.5932 57.4317L10.3926 46.4316L11.1928 46.0312L29.5932 56.8317L47.5935 46.4316L48.1935 46.8314L29.5932 57.4317Z" fill="#C5CCD1"/>
<path fill-rule="evenodd" clip-rule="evenodd" d="M29.5932 57.4317L10.3926 46.4316L11.1928 46.0312L29.5932 56.8317L47.5935 46.4316L48.1935 46.8314L29.5932 57.4317Z" fill="url(#paint25_linear_1_27435)"/>
<path fill-rule="evenodd" clip-rule="evenodd" d="M29.5742 56.7959L11.1738 45.9954V42.1953L29.5742 52.7955V56.7959Z" fill="#29648C"/>
<path fill-rule="evenodd" clip-rule="evenodd" d="M29.5742 56.7959L11.1738 45.9954V42.1953L29.5742 52.7955V56.7959Z" fill="url(#paint26_linear_1_27435)"/>
<path fill-rule="evenodd" clip-rule="evenodd" d="M29.6074 56.8056V52.8053L47.6077 42.6055V46.4056L29.6074 56.8056Z" fill="#2192FC"/>
<path fill-rule="evenodd" clip-rule="evenodd" d="M29.6074 56.8056V52.8053L47.6077 42.6055V46.4056L29.6074 56.8056Z" fill="url(#paint27_linear_1_27435)"/>
<path fill-rule="evenodd" clip-rule="evenodd" d="M29.5932 59.0262L10.3926 47.8253V46.4258L29.5932 57.4258V59.0262Z" fill="#9C9C9C"/>
<path fill-rule="evenodd" clip-rule="evenodd" d="M29.5932 59.0262L10.3926 47.8253V46.4258L29.5932 57.4258V59.0262Z" fill="url(#paint28_linear_1_27435)"/>
<path fill-rule="evenodd" clip-rule="evenodd" d="M29.6074 59.0014V57.401L48.2077 46.8008V48.201L29.6074 59.0014Z" fill="#E6EAEB"/>
<path fill-rule="evenodd" clip-rule="evenodd" d="M29.6074 59.0014V57.401L48.2077 46.8008V48.201L29.6074 59.0014Z" fill="url(#paint29_linear_1_27435)"/>
<path fill-rule="evenodd" clip-rule="evenodd" d="M29.5932 63.6508L10.3926 52.4506L11.1928 52.0508L29.5932 62.8506L47.5934 52.4506L48.1934 52.8504L29.5932 63.6508Z" fill="#C5CCD1"/>
<path fill-rule="evenodd" clip-rule="evenodd" d="M29.5932 63.6508L10.3926 52.4506L11.1928 52.0508L29.5932 62.8506L47.5934 52.4506L48.1934 52.8504L29.5932 63.6508Z" fill="url(#paint30_linear_1_27435)"/>
<path fill-rule="evenodd" clip-rule="evenodd" d="M29.5742 62.8187L11.1738 52.0189V48.2188L29.5742 59.0192V62.8187Z" fill="#29648C"/>
<path fill-rule="evenodd" clip-rule="evenodd" d="M29.5742 62.8187L11.1738 52.0189V48.2188L29.5742 59.0192V62.8187Z" fill="url(#paint31_linear_1_27435)"/>
<path fill-rule="evenodd" clip-rule="evenodd" d="M29.6074 62.8017V59.0022L47.6077 48.6016V52.4017L29.6074 62.8017Z" fill="#2192FC"/>
<path fill-rule="evenodd" clip-rule="evenodd" d="M29.6074 62.8017V59.0022L47.6077 48.6016V52.4017L29.6074 62.8017Z" fill="url(#paint32_linear_1_27435)"/>
<path fill-rule="evenodd" clip-rule="evenodd" d="M29.5932 65.0184L10.3926 53.8181V52.418L29.5932 63.6182V65.0184Z" fill="#9C9C9C"/>
<path fill-rule="evenodd" clip-rule="evenodd" d="M29.5932 65.0184L10.3926 53.8181V52.418L29.5932 63.6182V65.0184Z" fill="url(#paint33_linear_1_27435)"/>
<path fill-rule="evenodd" clip-rule="evenodd" d="M29.6074 65.0287V63.6285L48.2077 52.8281V54.2283L29.6074 65.0287Z" fill="#E6EAEB"/>
<path fill-rule="evenodd" clip-rule="evenodd" d="M29.6074 65.0287V63.6285L48.2077 52.8281V54.2283L29.6074 65.0287Z" fill="url(#paint34_linear_1_27435)"/>
<path fill-rule="evenodd" clip-rule="evenodd" d="M29.5932 69.6475L10.3926 58.4473L11.1928 58.0469L29.5932 68.8473L47.5934 58.4473L48.1934 58.8471L29.5932 69.6475Z" fill="#C5CCD1"/>
<path fill-rule="evenodd" clip-rule="evenodd" d="M29.5932 69.6475L10.3926 58.4473L11.1928 58.0469L29.5932 68.8473L47.5934 58.4473L48.1934 58.8471L29.5932 69.6475Z" fill="url(#paint35_linear_1_27435)"/>
<path fill-rule="evenodd" clip-rule="evenodd" d="M29.5742 68.8232L11.1738 58.0228V54.2227L29.5742 65.0231V68.8232Z" fill="#29648C"/>
<path fill-rule="evenodd" clip-rule="evenodd" d="M29.5742 68.8232L11.1738 58.0228V54.2227L29.5742 65.0231V68.8232Z" fill="url(#paint36_linear_1_27435)"/>
<path fill-rule="evenodd" clip-rule="evenodd" d="M29.6074 68.8212V65.0211L47.6077 54.6211V58.4212L29.6074 68.8212Z" fill="#2192FC"/>
<path fill-rule="evenodd" clip-rule="evenodd" d="M29.6074 68.8212V65.0211L47.6077 54.6211V58.4212L29.6074 68.8212Z" fill="url(#paint37_linear_1_27435)"/>
<path fill-rule="evenodd" clip-rule="evenodd" d="M29.5932 71.0373L10.3926 60.0373V58.4375L29.5932 69.6377V71.0373Z" fill="#9C9C9C"/>
<path fill-rule="evenodd" clip-rule="evenodd" d="M29.5932 71.0373L10.3926 60.0373V58.4375L29.5932 69.6377V71.0373Z" fill="url(#paint38_linear_1_27435)"/>
<path fill-rule="evenodd" clip-rule="evenodd" d="M29.6074 71.0515V69.652L48.2077 58.8516V60.4513L29.6074 71.0515Z" fill="#EBEBEB"/>
<path fill-rule="evenodd" clip-rule="evenodd" d="M29.6074 71.0515V69.652L48.2077 58.8516V60.4513L29.6074 71.0515Z" fill="url(#paint39_linear_1_27435)"/>
<path fill-rule="evenodd" clip-rule="evenodd" d="M29.5932 75.6465L10.3926 64.6465L11.1928 64.2461L29.5932 74.8463L47.5934 64.6465L48.1934 65.0463L29.5932 75.6465Z" fill="#C5CCD1"/>
<path fill-rule="evenodd" clip-rule="evenodd" d="M29.5932 75.6465L10.3926 64.6465L11.1928 64.2461L29.5932 74.8463L47.5934 64.6465L48.1934 65.0463L29.5932 75.6465Z" fill="url(#paint40_linear_1_27435)"/>
<path fill-rule="evenodd" clip-rule="evenodd" d="M29.5932 77.0096L10.3926 66.0089V64.6094L29.5932 75.6094V77.0096Z" fill="#9C9C9C"/>
<path fill-rule="evenodd" clip-rule="evenodd" d="M29.5932 77.0096L10.3926 66.0089V64.6094L29.5932 75.6094V77.0096Z" fill="url(#paint41_linear_1_27435)"/>
<path fill-rule="evenodd" clip-rule="evenodd" d="M29.5996 84.6028L11.1992 73.8024V66.4023L29.5996 77.0026V84.6028Z" fill="#29648C"/>
<path fill-rule="evenodd" clip-rule="evenodd" d="M29.5996 84.6028L11.1992 73.8024V66.4023L29.5996 77.0026V84.6028Z" fill="url(#paint42_linear_1_27435)"/>
<path fill-rule="evenodd" clip-rule="evenodd" d="M29.6074 84.6171V77.0168L47.6077 66.8164V74.2165L29.6074 84.6171Z" fill="#2192FC"/>
<path fill-rule="evenodd" clip-rule="evenodd" d="M29.6074 84.6171V77.0168L47.6077 66.8164V74.2165L29.6074 84.6171Z" fill="url(#paint43_linear_1_27435)"/>
<path fill-rule="evenodd" clip-rule="evenodd" d="M29.5932 87.4672L10.3926 76.267L11.1928 75.8672L29.5932 86.667L47.5934 76.267L48.1934 76.6668L29.5932 87.4672Z" fill="#C5CCD1"/>
<path fill-rule="evenodd" clip-rule="evenodd" d="M29.5932 87.4672L10.3926 76.267L11.1928 75.8672L29.5932 86.667L47.5934 76.267L48.1934 76.6668L29.5932 87.4672Z" fill="url(#paint44_linear_1_27435)"/>
<path fill-rule="evenodd" clip-rule="evenodd" d="M29.5742 86.6351L11.1738 75.8353V72.0352L29.5742 82.835V86.6351Z" fill="#29648C"/>
<path fill-rule="evenodd" clip-rule="evenodd" d="M29.5742 86.6351L11.1738 75.8353V72.0352L29.5742 82.835V86.6351Z" fill="url(#paint45_linear_1_27435)"/>
<path fill-rule="evenodd" clip-rule="evenodd" d="M29.6074 86.6455V82.8453L47.6077 72.4453V76.2454L29.6074 86.6455Z" fill="#2192FC"/>
<path fill-rule="evenodd" clip-rule="evenodd" d="M29.6074 86.6455V82.8453L47.6077 72.4453V76.2454L29.6074 86.6455Z" fill="url(#paint46_linear_1_27435)"/>
<path fill-rule="evenodd" clip-rule="evenodd" d="M29.5932 88.8621L10.3926 77.6619V76.2617L29.5932 87.4619V88.8621Z" fill="#9C9C9C"/>
<path fill-rule="evenodd" clip-rule="evenodd" d="M29.5932 88.8621L10.3926 77.6619V76.2617L29.5932 87.4619V88.8621Z" fill="url(#paint47_linear_1_27435)"/>
<path fill-rule="evenodd" clip-rule="evenodd" d="M29.6074 88.8568V87.4567L48.2077 76.6562V78.0564L29.6074 88.8568Z" fill="#E6EAEB"/>
<path fill-rule="evenodd" clip-rule="evenodd" d="M29.6074 88.8568V87.4567L48.2077 76.6562V78.0564L29.6074 88.8568Z" fill="url(#paint48_linear_1_27435)"/>
<path fill-rule="evenodd" clip-rule="evenodd" d="M58.0195 66.611V65.2114L47.6191 59.2109V60.6111L58.0195 66.611Z" fill="#9C9C9C"/>
<path fill-rule="evenodd" clip-rule="evenodd" d="M58.0195 66.611V65.2114L47.6191 59.2109V60.6111L58.0195 66.611Z" fill="url(#paint49_linear_1_27435)"/>
<path fill-rule="evenodd" clip-rule="evenodd" d="M39.4122 74.456L56.0123 64.8556L47.6121 59.8555L31.0117 69.6561L39.4122 74.456Z" fill="#B8BFC4"/>
<path fill-rule="evenodd" clip-rule="evenodd" d="M39.4122 74.456L56.0123 64.8556L47.6121 59.8555L31.0117 69.6561L39.4122 74.456Z" fill="url(#paint50_linear_1_27435)"/>
<path fill-rule="evenodd" clip-rule="evenodd" d="M40.0077 75.6768L58.608 64.8764L58.008 64.4766L40.0077 74.8766L29.6074 68.8767V69.6769L40.0077 75.6768Z" fill="#C5CCD1"/>
<path fill-rule="evenodd" clip-rule="evenodd" d="M40.0077 75.6768L58.608 64.8764L58.008 64.4766L40.0077 74.8766L29.6074 68.8767V69.6769L40.0077 75.6768Z" fill="url(#paint51_linear_1_27435)"/>
<path fill-rule="evenodd" clip-rule="evenodd" d="M39.987 77.0401V75.6399L28.3867 68.8398V70.4396L39.987 77.0401Z" fill="#9C9C9C"/>
<path fill-rule="evenodd" clip-rule="evenodd" d="M39.987 77.0401V75.6399L28.3867 68.8398V70.4396L39.987 77.0401Z" fill="url(#paint52_linear_1_27435)"/>
<path fill-rule="evenodd" clip-rule="evenodd" d="M57.9896 65.2216V64.4214L47.7894 58.6211L47.1895 59.0215L57.9896 65.2216Z" fill="#C5CCD1"/>
<path fill-rule="evenodd" clip-rule="evenodd" d="M57.9896 65.2216V64.4214L47.7894 58.6211L47.1895 59.0215L57.9896 65.2216Z" fill="url(#paint53_linear_1_27435)"/>
<path fill-rule="evenodd" clip-rule="evenodd" d="M52.1831 82.8682L50.3828 81.8684V71.668L52.1831 72.8679V82.8682Z" fill="#9C9C9C"/>
<path fill-rule="evenodd" clip-rule="evenodd" d="M52.1831 82.8682L50.3828 81.8684V71.668L52.1831 72.8679V82.8682Z" fill="url(#paint54_linear_1_27435)"/>
<path fill-rule="evenodd" clip-rule="evenodd" d="M52.1855 72.8045L53.9855 71.8047V81.8049L52.1855 82.8047V72.8045Z" fill="#EBEBEB"/>
<path fill-rule="evenodd" clip-rule="evenodd" d="M52.1855 72.8045L53.9855 71.8047V81.8049L52.1855 82.8047V72.8045Z" fill="url(#paint55_linear_1_27435)"/>
<path fill-rule="evenodd" clip-rule="evenodd" d="M39.0273 80.4568L40.8273 79.457V89.4573L39.0273 90.457V80.4568Z" fill="#EBEBEB"/>
<path fill-rule="evenodd" clip-rule="evenodd" d="M39.0273 80.4568L40.8273 79.457V89.4573L39.0273 90.457V80.4568Z" fill="url(#paint56_linear_1_27435)"/>
<path fill-rule="evenodd" clip-rule="evenodd" d="M39.9956 73.792L58.5959 63.1918L56.7959 62.1914L38.1953 72.7916L39.9956 73.792Z" fill="#C5CCD1"/>
<path fill-rule="evenodd" clip-rule="evenodd" d="M39.9956 73.792L58.5959 63.1918L56.7959 62.1914L38.1953 72.7916L39.9956 73.792Z" fill="url(#paint57_linear_1_27435)"/>
<path fill-rule="evenodd" clip-rule="evenodd" d="M39.998 82.9812L58.5983 72.381V70.7812L39.998 81.5811V82.9812Z" fill="#EBEBEB"/>
<path fill-rule="evenodd" clip-rule="evenodd" d="M39.998 82.9812L58.5983 72.381V70.7812L39.998 81.5811V82.9812Z" fill="url(#paint58_linear_1_27435)"/>
<path fill-rule="evenodd" clip-rule="evenodd" d="M39.998 82.4073L58.5983 71.6069V63.207L39.998 73.8073V82.4073Z" fill="#EBEBEB"/>
<path fill-rule="evenodd" clip-rule="evenodd" d="M39.998 82.4073L58.5983 71.6069V63.207L39.998 73.8073V82.4073Z" fill="url(#paint59_linear_1_27435)"/>
<path fill-rule="evenodd" clip-rule="evenodd" d="M38.9836 90.4615L37.1836 89.4618V80.2617L38.9836 81.2615V90.4615Z" fill="#9C9C9C"/>
<path fill-rule="evenodd" clip-rule="evenodd" d="M38.9836 90.4615L37.1836 89.4618V80.2617L38.9836 81.2615V90.4615Z" fill="url(#paint60_linear_1_27435)"/>
<path fill-rule="evenodd" clip-rule="evenodd" d="M40 80.8174L28.207 74.1328V76.2654L38.0074 81.8655L39.8073 82.8653C39.8073 82.8653 39.8073 81.2174 39.8073 80.8174H40Z" fill="#9C9C9C"/>
<path fill-rule="evenodd" clip-rule="evenodd" d="M40 80.8174L28.207 74.1328V76.2654L38.0074 81.8655L39.8073 82.8653C39.8073 82.8653 39.8073 81.2174 39.8073 80.8174H40Z" fill="url(#paint61_linear_1_27435)"/>
<path fill-rule="evenodd" clip-rule="evenodd" d="M40.0185 80.7798V76.9796L11.0176 60.3789V64.179C20.6178 69.7792 30.2183 75.3796 40.0185 80.7798Z" fill="#29648C"/>
<path fill-rule="evenodd" clip-rule="evenodd" d="M40.0185 80.7798V76.9796L11.0176 60.3789V64.179C20.6178 69.7792 30.2183 75.3796 40.0185 80.7798Z" fill="url(#paint62_linear_1_27435)"/>
<path fill-rule="evenodd" clip-rule="evenodd" d="M39.9956 83.0403V73.8402L38.1953 72.8398V82.0405L39.9956 83.0403Z" fill="#9C9C9C"/>
<path fill-rule="evenodd" clip-rule="evenodd" d="M39.9956 83.0403V73.8402L38.1953 72.8398V82.0405L39.9956 83.0403Z" fill="url(#paint63_linear_1_27435)"/>
<defs>
<linearGradient id="paint0_linear_1_27435" x1="7.53331" y1="87.5564" x2="32.484" y2="87.9575" gradientUnits="userSpaceOnUse">
<stop stop-color="#E6F0FF"/>
<stop offset="0.24" stop-color="#E2ECFD"/>
<stop offset="0.47" stop-color="#D6E3F8"/>
<stop offset="0.69" stop-color="#C3D3F0"/>
<stop offset="0.91" stop-color="#A9BDE4"/>
<stop offset="1" stop-color="#9CB2DF"/>
</linearGradient>
<linearGradient id="paint1_linear_1_27435" x1="14.3179" y1="78.2908" x2="61.7382" y2="79.0967" gradientUnits="userSpaceOnUse">
<stop stop-color="#E6F0FF"/>
<stop offset="0.24" stop-color="#E2ECFD"/>
<stop offset="0.47" stop-color="#D6E3F8"/>
<stop offset="0.69" stop-color="#C3D3F0"/>
<stop offset="0.91" stop-color="#A9BDE4"/>
<stop offset="1" stop-color="#9CB2DF"/>
</linearGradient>
<linearGradient id="paint2_linear_1_27435" x1="38.976" y1="88.4839" x2="61.4472" y2="88.8418" gradientUnits="userSpaceOnUse">
<stop stop-color="#E6F0FF"/>
<stop offset="0.24" stop-color="#E2ECFD"/>
<stop offset="0.47" stop-color="#D6E3F8"/>
<stop offset="0.69" stop-color="#C3D3F0"/>
<stop offset="0.91" stop-color="#A9BDE4"/>
<stop offset="1" stop-color="#9CB2DF"/>
</linearGradient>
<linearGradient id="paint3_linear_1_27435" x1="10.387" y1="33.2853" x2="29.5803" y2="33.2853" gradientUnits="userSpaceOnUse">
<stop stop-color="#4AFFC7"/>
<stop offset="1" stop-color="#3BADEA"/>
</linearGradient>
<linearGradient id="paint4_linear_1_27435" x1="29.602" y1="33.5659" x2="48.1953" y2="33.5659" gradientUnits="userSpaceOnUse">
<stop stop-color="#4AFFC7"/>
<stop offset="1" stop-color="#3BADEA"/>
</linearGradient>
<linearGradient id="paint5_linear_1_27435" x1="29.0085" y1="21.6274" x2="47.002" y2="21.6274" gradientUnits="userSpaceOnUse">
<stop stop-color="#4AFFC7"/>
<stop offset="1" stop-color="#3BADEA"/>
</linearGradient>
<linearGradient id="paint6_linear_1_27435" x1="11.788" y1="21.4276" x2="28.9819" y2="21.4276" gradientUnits="userSpaceOnUse">
<stop stop-color="#4AFFC7"/>
<stop offset="1" stop-color="#3BADEA"/>
</linearGradient>
<linearGradient id="paint7_linear_1_27435" x1="20.5329" y1="27.0143" x2="46.1024" y2="27.4534" gradientUnits="userSpaceOnUse">
<stop stop-color="#E6F0FF"/>
<stop offset="0.24" stop-color="#E2ECFD"/>
<stop offset="0.47" stop-color="#D6E3F8"/>
<stop offset="0.69" stop-color="#C3D3F0"/>
<stop offset="0.91" stop-color="#A9BDE4"/>
<stop offset="1" stop-color="#9CB2DF"/>
</linearGradient>
<linearGradient id="paint8_linear_1_27435" x1="10.3816" y1="26.0237" x2="48.1682" y2="26.0237" gradientUnits="userSpaceOnUse">
<stop stop-color="#4AFFC7"/>
<stop offset="1" stop-color="#3BADEA"/>
</linearGradient>
<linearGradient id="paint9_linear_1_27435" x1="20.4168" y1="25.2377" x2="29.7174" y2="25.2952" gradientUnits="userSpaceOnUse">
<stop stop-color="#E6F0FF"/>
<stop offset="0.24" stop-color="#E2ECFD"/>
<stop offset="0.47" stop-color="#D6E3F8"/>
<stop offset="0.69" stop-color="#C3D3F0"/>
<stop offset="0.91" stop-color="#A9BDE4"/>
<stop offset="1" stop-color="#9CB2DF"/>
</linearGradient>
<linearGradient id="paint10_linear_1_27435" x1="17.6025" y1="15.8001" x2="41.1943" y2="15.8001" gradientUnits="userSpaceOnUse">
<stop stop-color="#4AFFC7"/>
<stop offset="1" stop-color="#3BADEA"/>
</linearGradient>
<linearGradient id="paint11_linear_1_27435" x1="32.3213" y1="25.3662" x2="41.3117" y2="25.4205" gradientUnits="userSpaceOnUse">
<stop stop-color="#E6F0FF"/>
<stop offset="0.24" stop-color="#E2ECFD"/>
<stop offset="0.47" stop-color="#D6E3F8"/>
<stop offset="0.69" stop-color="#C3D3F0"/>
<stop offset="0.91" stop-color="#A9BDE4"/>
<stop offset="1" stop-color="#9CB2DF"/>
</linearGradient>
<linearGradient id="paint12_linear_1_27435" x1="24.3525" y1="11.598" x2="29.4678" y2="11.6191" gradientUnits="userSpaceOnUse">
<stop stop-color="#E6F0FF"/>
<stop offset="0.24" stop-color="#E2ECFD"/>
<stop offset="0.47" stop-color="#D6E3F8"/>
<stop offset="0.69" stop-color="#C3D3F0"/>
<stop offset="0.91" stop-color="#A9BDE4"/>
<stop offset="1" stop-color="#9CB2DF"/>
</linearGradient>
<linearGradient id="paint13_linear_1_27435" x1="25.8965" y1="3.73554" x2="36.1241" y2="3.91115" gradientUnits="userSpaceOnUse">
<stop stop-color="#E6F0FF"/>
<stop offset="0.24" stop-color="#E2ECFD"/>
<stop offset="0.47" stop-color="#D6E3F8"/>
<stop offset="0.69" stop-color="#C3D3F0"/>
<stop offset="0.91" stop-color="#A9BDE4"/>
<stop offset="1" stop-color="#9CB2DF"/>
</linearGradient>
<linearGradient id="paint14_linear_1_27435" x1="30.96" y1="11.6676" x2="36.0752" y2="11.689" gradientUnits="userSpaceOnUse">
<stop stop-color="#E6F0FF"/>
<stop offset="0.24" stop-color="#E2ECFD"/>
<stop offset="0.47" stop-color="#D6E3F8"/>
<stop offset="0.69" stop-color="#C3D3F0"/>
<stop offset="0.91" stop-color="#A9BDE4"/>
<stop offset="1" stop-color="#9CB2DF"/>
</linearGradient>
<linearGradient id="paint15_linear_1_27435" x1="10.3817" y1="39.7155" x2="48.1683" y2="39.7155" gradientUnits="userSpaceOnUse">
<stop stop-color="#4AFFC7"/>
<stop offset="1" stop-color="#3BADEA"/>
</linearGradient>
<linearGradient id="paint16_linear_1_27435" x1="15.4786" y1="37.1957" x2="29.7376" y2="37.3734" gradientUnits="userSpaceOnUse">
<stop stop-color="#E6F0FF"/>
<stop offset="0.24" stop-color="#E2ECFD"/>
<stop offset="0.47" stop-color="#D6E3F8"/>
<stop offset="0.69" stop-color="#C3D3F0"/>
<stop offset="0.91" stop-color="#A9BDE4"/>
<stop offset="1" stop-color="#9CB2DF"/>
</linearGradient>
<linearGradient id="paint17_linear_1_27435" x1="33.8186" y1="37.3898" x2="47.7675" y2="37.5646" gradientUnits="userSpaceOnUse">
<stop stop-color="#E6F0FF"/>
<stop offset="0.24" stop-color="#E2ECFD"/>
<stop offset="0.47" stop-color="#D6E3F8"/>
<stop offset="0.69" stop-color="#C3D3F0"/>
<stop offset="0.91" stop-color="#A9BDE4"/>
<stop offset="1" stop-color="#9CB2DF"/>
</linearGradient>
<linearGradient id="paint18_linear_1_27435" x1="10.3871" y1="40.5829" x2="29.5804" y2="40.5829" gradientUnits="userSpaceOnUse">
<stop stop-color="#4AFFC7"/>
<stop offset="1" stop-color="#3BADEA"/>
</linearGradient>
<linearGradient id="paint19_linear_1_27435" x1="29.6021" y1="40.7697" x2="48.1954" y2="40.7697" gradientUnits="userSpaceOnUse">
<stop stop-color="#4AFFC7"/>
<stop offset="1" stop-color="#3BADEA"/>
</linearGradient>
<linearGradient id="paint20_linear_1_27435" x1="10.3816" y1="45.79" x2="48.1682" y2="45.79" gradientUnits="userSpaceOnUse">
<stop stop-color="#4AFFC7"/>
<stop offset="1" stop-color="#3BADEA"/>
</linearGradient>
<linearGradient id="paint21_linear_1_27435" x1="15.4786" y1="43.3473" x2="29.7375" y2="43.5274" gradientUnits="userSpaceOnUse">
<stop stop-color="#E6F0FF"/>
<stop offset="0.24" stop-color="#E2ECFD"/>
<stop offset="0.47" stop-color="#D6E3F8"/>
<stop offset="0.69" stop-color="#C3D3F0"/>
<stop offset="0.91" stop-color="#A9BDE4"/>
<stop offset="1" stop-color="#9CB2DF"/>
</linearGradient>
<linearGradient id="paint22_linear_1_27435" x1="33.8186" y1="43.5493" x2="47.7674" y2="43.7266" gradientUnits="userSpaceOnUse">
<stop stop-color="#E6F0FF"/>
<stop offset="0.24" stop-color="#E2ECFD"/>
<stop offset="0.47" stop-color="#D6E3F8"/>
<stop offset="0.69" stop-color="#C3D3F0"/>
<stop offset="0.91" stop-color="#A9BDE4"/>
<stop offset="1" stop-color="#9CB2DF"/>
</linearGradient>
<linearGradient id="paint23_linear_1_27435" x1="10.387" y1="46.6845" x2="29.5803" y2="46.6845" gradientUnits="userSpaceOnUse">
<stop stop-color="#4AFFC7"/>
<stop offset="1" stop-color="#3BADEA"/>
</linearGradient>
<linearGradient id="paint24_linear_1_27435" x1="29.602" y1="46.8632" x2="48.1953" y2="46.8632" gradientUnits="userSpaceOnUse">
<stop stop-color="#4AFFC7"/>
<stop offset="1" stop-color="#3BADEA"/>
</linearGradient>
<linearGradient id="paint25_linear_1_27435" x1="10.3817" y1="51.7315" x2="48.1683" y2="51.7315" gradientUnits="userSpaceOnUse">
<stop stop-color="#4AFFC7"/>
<stop offset="1" stop-color="#3BADEA"/>
</linearGradient>
<linearGradient id="paint26_linear_1_27435" x1="15.4786" y1="49.3715" x2="29.7375" y2="49.5491" gradientUnits="userSpaceOnUse">
<stop stop-color="#E6F0FF"/>
<stop offset="0.24" stop-color="#E2ECFD"/>
<stop offset="0.47" stop-color="#D6E3F8"/>
<stop offset="0.69" stop-color="#C3D3F0"/>
<stop offset="0.91" stop-color="#A9BDE4"/>
<stop offset="1" stop-color="#9CB2DF"/>
</linearGradient>
<linearGradient id="paint27_linear_1_27435" x1="33.8186" y1="49.5848" x2="47.7674" y2="49.7597" gradientUnits="userSpaceOnUse">
<stop stop-color="#E6F0FF"/>
<stop offset="0.24" stop-color="#E2ECFD"/>
<stop offset="0.47" stop-color="#D6E3F8"/>
<stop offset="0.69" stop-color="#C3D3F0"/>
<stop offset="0.91" stop-color="#A9BDE4"/>
<stop offset="1" stop-color="#9CB2DF"/>
</linearGradient>
<linearGradient id="paint28_linear_1_27435" x1="10.387" y1="52.726" x2="29.5803" y2="52.726" gradientUnits="userSpaceOnUse">
<stop stop-color="#4AFFC7"/>
<stop offset="1" stop-color="#3BADEA"/>
</linearGradient>
<linearGradient id="paint29_linear_1_27435" x1="29.602" y1="52.9011" x2="48.1953" y2="52.9011" gradientUnits="userSpaceOnUse">
<stop stop-color="#4AFFC7"/>
<stop offset="1" stop-color="#3BADEA"/>
</linearGradient>
<linearGradient id="paint30_linear_1_27435" x1="10.3816" y1="57.8508" x2="48.1682" y2="57.8508" gradientUnits="userSpaceOnUse">
<stop stop-color="#4AFFC7"/>
<stop offset="1" stop-color="#3BADEA"/>
</linearGradient>
<linearGradient id="paint31_linear_1_27435" x1="15.4786" y1="55.3946" x2="29.7375" y2="55.5723" gradientUnits="userSpaceOnUse">
<stop stop-color="#E6F0FF"/>
<stop offset="0.24" stop-color="#E2ECFD"/>
<stop offset="0.47" stop-color="#D6E3F8"/>
<stop offset="0.69" stop-color="#C3D3F0"/>
<stop offset="0.91" stop-color="#A9BDE4"/>
<stop offset="1" stop-color="#9CB2DF"/>
</linearGradient>
<linearGradient id="paint32_linear_1_27435" x1="33.8186" y1="55.5809" x2="47.7674" y2="55.7558" gradientUnits="userSpaceOnUse">
<stop stop-color="#E6F0FF"/>
<stop offset="0.24" stop-color="#E2ECFD"/>
<stop offset="0.47" stop-color="#D6E3F8"/>
<stop offset="0.69" stop-color="#C3D3F0"/>
<stop offset="0.91" stop-color="#A9BDE4"/>
<stop offset="1" stop-color="#9CB2DF"/>
</linearGradient>
<linearGradient id="paint33_linear_1_27435" x1="10.387" y1="58.7182" x2="29.5803" y2="58.7182" gradientUnits="userSpaceOnUse">
<stop stop-color="#4AFFC7"/>
<stop offset="1" stop-color="#3BADEA"/>
</linearGradient>
<linearGradient id="paint34_linear_1_27435" x1="29.602" y1="58.9284" x2="48.1953" y2="58.9284" gradientUnits="userSpaceOnUse">
<stop stop-color="#4AFFC7"/>
<stop offset="1" stop-color="#3BADEA"/>
</linearGradient>
<linearGradient id="paint35_linear_1_27435" x1="10.3816" y1="63.8472" x2="48.1682" y2="63.8472" gradientUnits="userSpaceOnUse">
<stop stop-color="#4AFFC7"/>
<stop offset="1" stop-color="#3BADEA"/>
</linearGradient>
<linearGradient id="paint36_linear_1_27435" x1="15.4786" y1="61.3988" x2="29.7375" y2="61.5765" gradientUnits="userSpaceOnUse">
<stop stop-color="#E6F0FF"/>
<stop offset="0.24" stop-color="#E2ECFD"/>
<stop offset="0.47" stop-color="#D6E3F8"/>
<stop offset="0.69" stop-color="#C3D3F0"/>
<stop offset="0.91" stop-color="#A9BDE4"/>
<stop offset="1" stop-color="#9CB2DF"/>
</linearGradient>
<linearGradient id="paint37_linear_1_27435" x1="33.8186" y1="61.6005" x2="47.7674" y2="61.7753" gradientUnits="userSpaceOnUse">
<stop stop-color="#E6F0FF"/>
<stop offset="0.24" stop-color="#E2ECFD"/>
<stop offset="0.47" stop-color="#D6E3F8"/>
<stop offset="0.69" stop-color="#C3D3F0"/>
<stop offset="0.91" stop-color="#A9BDE4"/>
<stop offset="1" stop-color="#9CB2DF"/>
</linearGradient>
<linearGradient id="paint38_linear_1_27435" x1="10.387" y1="64.7374" x2="29.5803" y2="64.7374" gradientUnits="userSpaceOnUse">
<stop stop-color="#4AFFC7"/>
<stop offset="1" stop-color="#3BADEA"/>
</linearGradient>
<linearGradient id="paint39_linear_1_27435" x1="29.602" y1="64.9516" x2="48.1953" y2="64.9516" gradientUnits="userSpaceOnUse">
<stop stop-color="#4AFFC7"/>
<stop offset="1" stop-color="#3BADEA"/>
</linearGradient>
<linearGradient id="paint40_linear_1_27435" x1="10.3816" y1="69.9463" x2="48.1682" y2="69.9463" gradientUnits="userSpaceOnUse">
<stop stop-color="#4AFFC7"/>
<stop offset="1" stop-color="#3BADEA"/>
</linearGradient>
<linearGradient id="paint41_linear_1_27435" x1="10.387" y1="70.8095" x2="29.5803" y2="70.8095" gradientUnits="userSpaceOnUse">
<stop stop-color="#4AFFC7"/>
<stop offset="1" stop-color="#3BADEA"/>
</linearGradient>
<linearGradient id="paint42_linear_1_27435" x1="15.504" y1="75.3479" x2="29.7637" y2="75.4904" gradientUnits="userSpaceOnUse">
<stop stop-color="#E6F0FF"/>
<stop offset="0.24" stop-color="#E2ECFD"/>
<stop offset="0.47" stop-color="#D6E3F8"/>
<stop offset="0.69" stop-color="#C3D3F0"/>
<stop offset="0.91" stop-color="#A9BDE4"/>
<stop offset="1" stop-color="#9CB2DF"/>
</linearGradient>
<linearGradient id="paint43_linear_1_27435" x1="33.8186" y1="75.5655" x2="47.7682" y2="75.7049" gradientUnits="userSpaceOnUse">
<stop stop-color="#E6F0FF"/>
<stop offset="0.24" stop-color="#E2ECFD"/>
<stop offset="0.47" stop-color="#D6E3F8"/>
<stop offset="0.69" stop-color="#C3D3F0"/>
<stop offset="0.91" stop-color="#A9BDE4"/>
<stop offset="1" stop-color="#9CB2DF"/>
</linearGradient>
<linearGradient id="paint44_linear_1_27435" x1="10.3816" y1="81.6672" x2="48.1682" y2="81.6672" gradientUnits="userSpaceOnUse">
<stop stop-color="#4AFFC7"/>
<stop offset="1" stop-color="#3BADEA"/>
</linearGradient>
<linearGradient id="paint45_linear_1_27435" x1="15.4786" y1="79.211" x2="29.7375" y2="79.3887" gradientUnits="userSpaceOnUse">
<stop stop-color="#E6F0FF"/>
<stop offset="0.24" stop-color="#E2ECFD"/>
<stop offset="0.47" stop-color="#D6E3F8"/>
<stop offset="0.69" stop-color="#C3D3F0"/>
<stop offset="0.91" stop-color="#A9BDE4"/>
<stop offset="1" stop-color="#9CB2DF"/>
</linearGradient>
<linearGradient id="paint46_linear_1_27435" x1="33.8186" y1="79.4247" x2="47.7674" y2="79.5995" gradientUnits="userSpaceOnUse">
<stop stop-color="#E6F0FF"/>
<stop offset="0.24" stop-color="#E2ECFD"/>
<stop offset="0.47" stop-color="#D6E3F8"/>
<stop offset="0.69" stop-color="#C3D3F0"/>
<stop offset="0.91" stop-color="#A9BDE4"/>
<stop offset="1" stop-color="#9CB2DF"/>
</linearGradient>
<linearGradient id="paint47_linear_1_27435" x1="10.3871" y1="82.5619" x2="29.5804" y2="82.5619" gradientUnits="userSpaceOnUse">
<stop stop-color="#4AFFC7"/>
<stop offset="1" stop-color="#3BADEA"/>
</linearGradient>
<linearGradient id="paint48_linear_1_27435" x1="29.602" y1="82.7565" x2="48.1953" y2="82.7565" gradientUnits="userSpaceOnUse">
<stop stop-color="#4AFFC7"/>
<stop offset="1" stop-color="#3BADEA"/>
</linearGradient>
<linearGradient id="paint49_linear_1_27435" x1="47.6161" y1="62.911" x2="58.0125" y2="62.911" gradientUnits="userSpaceOnUse">
<stop stop-color="#4AFFC7"/>
<stop offset="1" stop-color="#3BADEA"/>
</linearGradient>
<linearGradient id="paint50_linear_1_27435" x1="36.8606" y1="67.0316" x2="56.2316" y2="67.3596" gradientUnits="userSpaceOnUse">
<stop stop-color="#E6F0FF"/>
<stop offset="0.24" stop-color="#E2ECFD"/>
<stop offset="0.47" stop-color="#D6E3F8"/>
<stop offset="0.69" stop-color="#C3D3F0"/>
<stop offset="0.91" stop-color="#A9BDE4"/>
<stop offset="1" stop-color="#9CB2DF"/>
</linearGradient>
<linearGradient id="paint51_linear_1_27435" x1="29.599" y1="70.0767" x2="58.5887" y2="70.0767" gradientUnits="userSpaceOnUse">
<stop stop-color="#4AFFC7"/>
<stop offset="1" stop-color="#3BADEA"/>
</linearGradient>
<linearGradient id="paint52_linear_1_27435" x1="28.3834" y1="72.94" x2="39.9793" y2="72.94" gradientUnits="userSpaceOnUse">
<stop stop-color="#4AFFC7"/>
<stop offset="1" stop-color="#3BADEA"/>
</linearGradient>
<linearGradient id="paint53_linear_1_27435" x1="47.1863" y1="61.9213" x2="57.9824" y2="61.9213" gradientUnits="userSpaceOnUse">
<stop stop-color="#4AFFC7"/>
<stop offset="1" stop-color="#3BADEA"/>
</linearGradient>
<linearGradient id="paint54_linear_1_27435" x1="50.3823" y1="77.2681" x2="52.1819" y2="77.2681" gradientUnits="userSpaceOnUse">
<stop stop-color="#4AFFC7"/>
<stop offset="1" stop-color="#3BADEA"/>
</linearGradient>
<linearGradient id="paint55_linear_1_27435" x1="52.6066" y1="77.2112" x2="54.0017" y2="77.2135" gradientUnits="userSpaceOnUse">
<stop stop-color="#E6F0FF"/>
<stop offset="0.24" stop-color="#E2ECFD"/>
<stop offset="0.47" stop-color="#D6E3F8"/>
<stop offset="0.69" stop-color="#C3D3F0"/>
<stop offset="0.91" stop-color="#A9BDE4"/>
<stop offset="1" stop-color="#9CB2DF"/>
</linearGradient>
<linearGradient id="paint56_linear_1_27435" x1="39.4484" y1="84.8635" x2="40.8435" y2="84.8658" gradientUnits="userSpaceOnUse">
<stop stop-color="#E6F0FF"/>
<stop offset="0.24" stop-color="#E2ECFD"/>
<stop offset="0.47" stop-color="#D6E3F8"/>
<stop offset="0.69" stop-color="#C3D3F0"/>
<stop offset="0.91" stop-color="#A9BDE4"/>
<stop offset="1" stop-color="#9CB2DF"/>
</linearGradient>
<linearGradient id="paint57_linear_1_27435" x1="38.1894" y1="67.9917" x2="58.5823" y2="67.9917" gradientUnits="userSpaceOnUse">
<stop stop-color="#4AFFC7"/>
<stop offset="1" stop-color="#3BADEA"/>
</linearGradient>
<linearGradient id="paint58_linear_1_27435" x1="44.3495" y1="76.7775" x2="58.7624" y2="76.9948" gradientUnits="userSpaceOnUse">
<stop stop-color="#E6F0FF"/>
<stop offset="0.24" stop-color="#E2ECFD"/>
<stop offset="0.47" stop-color="#D6E3F8"/>
<stop offset="0.69" stop-color="#C3D3F0"/>
<stop offset="0.91" stop-color="#A9BDE4"/>
<stop offset="1" stop-color="#9CB2DF"/>
</linearGradient>
<linearGradient id="paint59_linear_1_27435" x1="44.3495" y1="72.644" x2="58.7643" y2="72.782" gradientUnits="userSpaceOnUse">
<stop stop-color="#E6F0FF"/>
<stop offset="0.24" stop-color="#E2ECFD"/>
<stop offset="0.47" stop-color="#D6E3F8"/>
<stop offset="0.69" stop-color="#C3D3F0"/>
<stop offset="0.91" stop-color="#A9BDE4"/>
<stop offset="1" stop-color="#9CB2DF"/>
</linearGradient>
<linearGradient id="paint60_linear_1_27435" x1="37.1831" y1="85.3616" x2="38.9824" y2="85.3616" gradientUnits="userSpaceOnUse">
<stop stop-color="#4AFFC7"/>
<stop offset="1" stop-color="#3BADEA"/>
</linearGradient>
<linearGradient id="paint61_linear_1_27435" x1="28.2036" y1="78.8633" x2="39.9997" y2="78.8633" gradientUnits="userSpaceOnUse">
<stop stop-color="#4AFFC7"/>
<stop offset="1" stop-color="#3BADEA"/>
</linearGradient>
<linearGradient id="paint62_linear_1_27435" x1="17.8023" y1="70.4059" x2="40.2749" y2="70.7218" gradientUnits="userSpaceOnUse">
<stop stop-color="#E6F0FF"/>
<stop offset="0.24" stop-color="#E2ECFD"/>
<stop offset="0.47" stop-color="#D6E3F8"/>
<stop offset="0.69" stop-color="#C3D3F0"/>
<stop offset="0.91" stop-color="#A9BDE4"/>
<stop offset="1" stop-color="#9CB2DF"/>
</linearGradient>
<linearGradient id="paint63_linear_1_27435" x1="38.1948" y1="77.9401" x2="39.9944" y2="77.9401" gradientUnits="userSpaceOnUse">
<stop stop-color="#4AFFC7"/>
<stop offset="1" stop-color="#3BADEA"/>
</linearGradient>
</defs>
</svg>
