<svg width="79" height="88" viewBox="0 0 79 88" fill="none" xmlns="http://www.w3.org/2000/svg">
<path fill-rule="evenodd" clip-rule="evenodd" d="M24.1447 43.3595L0 29.4222V24.7109L24.1447 38.6482V43.3595Z" fill="#9C9C9C"/>
<path fill-rule="evenodd" clip-rule="evenodd" d="M24.1447 43.3595L0 29.4222V24.7109L24.1447 38.6482V43.3595Z" fill="url(#paint0_linear_1_27379)"/>
<path fill-rule="evenodd" clip-rule="evenodd" d="M24.1582 43.4017V38.6905L67.1474 13.957L66.9512 18.668L24.1582 43.4017Z" fill="#E6EAEB"/>
<path fill-rule="evenodd" clip-rule="evenodd" d="M24.1582 43.4017V38.6905L67.1474 13.957L66.9512 18.668L24.1582 43.4017Z" fill="url(#paint1_linear_1_27379)"/>
<path fill-rule="evenodd" clip-rule="evenodd" d="M42.9824 1.01562L65.3604 13.7749L63.2011 15.1491L42.9824 3.3711V1.01562Z" fill="#9C9C9C"/>
<path fill-rule="evenodd" clip-rule="evenodd" d="M42.9824 1.01562L65.3604 13.7749L63.2011 15.1491L42.9824 3.3711V1.01562Z" fill="url(#paint2_linear_1_27379)"/>
<path fill-rule="evenodd" clip-rule="evenodd" d="M3.73252 25.9455L1.76953 24.7675L42.9921 1.01562V3.3711L3.73252 25.9455Z" fill="#E6EAEB"/>
<path fill-rule="evenodd" clip-rule="evenodd" d="M3.73252 25.9455L1.76953 24.7675L42.9921 1.01562V3.3711L3.73252 25.9455Z" fill="url(#paint3_linear_1_27379)"/>
<path fill-rule="evenodd" clip-rule="evenodd" d="M23.9433 37.6607L3.72461 25.883L42.9842 3.30859L63.2029 15.0866L23.9433 37.6607Z" fill="#B9C1C7"/>
<path fill-rule="evenodd" clip-rule="evenodd" d="M23.9433 37.6607L3.72461 25.883L42.9842 3.30859L63.2029 15.0866L23.9433 37.6607Z" fill="url(#paint4_linear_1_27379)"/>
<path fill-rule="evenodd" clip-rule="evenodd" d="M24.1447 38.6707L0 24.7334L42.9892 0L67.1339 13.9373L24.1447 38.6707ZM23.9484 37.6892L65.3672 13.9373L42.9892 0.98155L1.5704 24.7334L23.9484 37.6892Z" fill="#C5CCD1"/>
<path fill-rule="evenodd" clip-rule="evenodd" d="M24.1447 38.6707L0 24.7334L42.9892 0L67.1339 13.9373L24.1447 38.6707ZM23.9484 37.6892L65.3672 13.9373L42.9892 0.98155L1.5704 24.7334L23.9484 37.6892Z" fill="url(#paint5_linear_1_27379)"/>
<path fill-rule="evenodd" clip-rule="evenodd" d="M24.1447 49.2598L0 35.3228L0.785191 34.7339L23.9484 48.2786L66.1524 23.9375L67.1339 24.3302L24.1447 49.2598Z" fill="#C5CCD1"/>
<path fill-rule="evenodd" clip-rule="evenodd" d="M24.1447 49.2598L0 35.3228L0.785191 34.7339L23.9484 48.2786L66.1524 23.9375L67.1339 24.3302L24.1447 49.2598Z" fill="url(#paint6_linear_1_27379)"/>
<path fill-rule="evenodd" clip-rule="evenodd" d="M24.1759 48.3145L0.816406 34.7699V30.0586L24.1759 43.407V48.3145Z" fill="#29648C"/>
<path fill-rule="evenodd" clip-rule="evenodd" d="M24.1759 48.3145L0.816406 34.7699V30.0586L24.1759 43.407V48.3145Z" fill="url(#paint7_linear_1_27379)"/>
<path fill-rule="evenodd" clip-rule="evenodd" d="M24.1582 48.2758V43.3684L66.166 19.0273V23.9348L24.1582 48.2758Z" fill="#2192FC"/>
<path fill-rule="evenodd" clip-rule="evenodd" d="M24.1582 48.2758V43.3684L66.166 19.0273V23.9348L24.1582 48.2758Z" fill="url(#paint8_linear_1_27379)"/>
<path fill-rule="evenodd" clip-rule="evenodd" d="M24.1447 51.0594L0 37.1221V35.3555L24.1447 49.2925V51.0594Z" fill="#9C9C9C"/>
<path fill-rule="evenodd" clip-rule="evenodd" d="M24.1447 51.0594L0 37.1221V35.3555L24.1447 49.2925V51.0594Z" fill="url(#paint9_linear_1_27379)"/>
<path fill-rule="evenodd" clip-rule="evenodd" d="M24.1582 51.0208V49.2538L67.1474 24.3242L66.9512 26.287L24.1582 51.0208Z" fill="#E6EAEB"/>
<path fill-rule="evenodd" clip-rule="evenodd" d="M24.1582 51.0208V49.2538L67.1474 24.3242L66.9512 26.287L24.1582 51.0208Z" fill="url(#paint10_linear_1_27379)"/>
<path fill-rule="evenodd" clip-rule="evenodd" d="M24.1447 56.7481L0 42.8108L0.785191 42.4184L23.9484 55.7665L66.1524 31.4258L67.1339 32.0147L24.1447 56.7481Z" fill="#C5CCD1"/>
<path fill-rule="evenodd" clip-rule="evenodd" d="M24.1447 56.7481L0 42.8108L0.785191 42.4184L23.9484 55.7665L66.1524 31.4258L67.1339 32.0147L24.1447 56.7481Z" fill="url(#paint11_linear_1_27379)"/>
<path fill-rule="evenodd" clip-rule="evenodd" d="M24.1759 55.7438L0.816406 42.3957V37.4883L24.1759 51.0329V55.7438Z" fill="#29648C"/>
<path fill-rule="evenodd" clip-rule="evenodd" d="M24.1759 55.7438L0.816406 42.3957V37.4883L24.1759 51.0329V55.7438Z" fill="url(#paint12_linear_1_27379)"/>
<path fill-rule="evenodd" clip-rule="evenodd" d="M24.1582 55.7473V51.0364L66.166 26.6953V31.4066L24.1582 55.7473Z" fill="#2192FC"/>
<path fill-rule="evenodd" clip-rule="evenodd" d="M24.1582 55.7473V51.0364L66.166 26.6953V31.4066L24.1582 55.7473Z" fill="url(#paint13_linear_1_27379)"/>
<path fill-rule="evenodd" clip-rule="evenodd" d="M24.1447 58.4891L0 44.5521V42.7852L24.1447 56.7224V58.4891Z" fill="#9C9C9C"/>
<path fill-rule="evenodd" clip-rule="evenodd" d="M24.1447 58.4891L0 44.5521V42.7852L24.1447 56.7224V58.4891Z" fill="url(#paint14_linear_1_27379)"/>
<path fill-rule="evenodd" clip-rule="evenodd" d="M24.1582 58.4649V56.6983L67.1474 31.9648L66.9512 33.7315L24.1582 58.4649Z" fill="#E6EAEB"/>
<path fill-rule="evenodd" clip-rule="evenodd" d="M24.1582 58.4649V56.6983L67.1474 31.9648L66.9512 33.7315L24.1582 58.4649Z" fill="url(#paint15_linear_1_27379)"/>
<path fill-rule="evenodd" clip-rule="evenodd" d="M24.1447 64.3614L0 50.4244L0.785191 49.8352L23.9484 63.3798L66.1524 39.0391L67.1339 39.4314L24.1447 64.3614Z" fill="#C5CCD1"/>
<path fill-rule="evenodd" clip-rule="evenodd" d="M24.1447 64.3614L0 50.4244L0.785191 49.8352L23.9484 63.3798L66.1524 39.0391L67.1339 39.4314L24.1447 64.3614Z" fill="url(#paint16_linear_1_27379)"/>
<path fill-rule="evenodd" clip-rule="evenodd" d="M24.1759 63.4274L0.816406 49.8828V45.1719L24.1759 58.52V63.4274Z" fill="#29648C"/>
<path fill-rule="evenodd" clip-rule="evenodd" d="M24.1759 63.4274L0.816406 49.8828V45.1719L24.1759 58.52V63.4274Z" fill="url(#paint17_linear_1_27379)"/>
<path fill-rule="evenodd" clip-rule="evenodd" d="M24.1582 63.3771V58.4697L66.166 34.1289V39.0364L24.1582 63.3771Z" fill="#2192FC"/>
<path fill-rule="evenodd" clip-rule="evenodd" d="M24.1582 63.3771V58.4697L66.166 34.1289V39.0364L24.1582 63.3771Z" fill="url(#paint18_linear_1_27379)"/>
<path fill-rule="evenodd" clip-rule="evenodd" d="M24.1447 66.1606L0 52.2236V50.457L24.1447 64.394V66.1606Z" fill="#9C9C9C"/>
<path fill-rule="evenodd" clip-rule="evenodd" d="M24.1447 66.1606L0 52.2236V50.457L24.1447 64.394V66.1606Z" fill="url(#paint19_linear_1_27379)"/>
<path fill-rule="evenodd" clip-rule="evenodd" d="M24.1582 66.1262V64.3596L67.1474 39.4297L66.9512 41.3928L24.1582 66.1262Z" fill="#E6EAEB"/>
<path fill-rule="evenodd" clip-rule="evenodd" d="M24.1582 66.1262V64.3596L67.1474 39.4297L66.9512 41.3928L24.1582 66.1262Z" fill="url(#paint20_linear_1_27379)"/>
<path fill-rule="evenodd" clip-rule="evenodd" d="M24.1759 75.5882L0.816406 62.0436V52.6211L24.1759 66.1657V75.5882Z" fill="#29648C"/>
<path fill-rule="evenodd" clip-rule="evenodd" d="M24.1759 75.5882L0.816406 62.0436V52.6211L24.1759 66.1657V75.5882Z" fill="url(#paint21_linear_1_27379)"/>
<path fill-rule="evenodd" clip-rule="evenodd" d="M24.1582 75.568V66.1454L66.166 41.8047V51.2269L24.1582 75.568Z" fill="#2192FC"/>
<path fill-rule="evenodd" clip-rule="evenodd" d="M24.1582 75.568V66.1454L66.166 41.8047V51.2269L24.1582 75.568Z" fill="url(#paint22_linear_1_27379)"/>
<path fill-rule="evenodd" clip-rule="evenodd" d="M24.1447 78.932L0 64.9947L0.785191 64.602L23.9484 77.9504L66.1524 53.6094L67.1339 54.1982L24.1447 78.932Z" fill="#34485C"/>
<path fill-rule="evenodd" clip-rule="evenodd" d="M24.1447 78.932L0 64.9947L0.785191 64.602L23.9484 77.9504L66.1524 53.6094L67.1339 54.1982L24.1447 78.932Z" fill="url(#paint23_linear_1_27379)"/>
<path fill-rule="evenodd" clip-rule="evenodd" d="M24.1759 77.9043L0.816406 64.5559V59.6484L24.1759 73.193V77.9043Z" fill="#29648C"/>
<path fill-rule="evenodd" clip-rule="evenodd" d="M24.1759 77.9043L0.816406 64.5559V59.6484L24.1759 73.193V77.9043Z" fill="url(#paint24_linear_1_27379)"/>
<path fill-rule="evenodd" clip-rule="evenodd" d="M24.1582 77.927V73.2158L66.166 48.875V53.586L24.1582 77.927Z" fill="#2192FC"/>
<path fill-rule="evenodd" clip-rule="evenodd" d="M24.1582 77.927V73.2158L66.166 48.875V53.586L24.1582 77.927Z" fill="url(#paint25_linear_1_27379)"/>
<path fill-rule="evenodd" clip-rule="evenodd" d="M71.8679 48.7054V46.9388L56.5566 38.1055V39.8721L71.8679 48.7054Z" fill="#E6EAEB"/>
<path fill-rule="evenodd" clip-rule="evenodd" d="M71.8679 48.7054V46.9388L56.5566 38.1055V39.8721L71.8679 48.7054Z" fill="url(#paint26_linear_1_27379)"/>
<path fill-rule="evenodd" clip-rule="evenodd" d="M24.1447 81.0458L0 67.1085V64.9492L24.1447 78.8865V81.0458Z" fill="#2C3E50"/>
<path fill-rule="evenodd" clip-rule="evenodd" d="M24.1447 81.0458L0 67.1085V64.9492L24.1447 78.8865V81.0458Z" fill="url(#paint27_linear_1_27379)"/>
<path fill-rule="evenodd" clip-rule="evenodd" d="M24.1582 81.0336V78.8744L67.1474 54.1406L66.9512 56.2999L32.2064 76.3224L24.1582 81.0336Z" fill="#415A73"/>
<path fill-rule="evenodd" clip-rule="evenodd" d="M24.1582 81.0336V78.8744L67.1474 54.1406L66.9512 56.2999L32.2064 76.3224L24.1582 81.0336Z" fill="url(#paint28_linear_1_27379)"/>
<path fill-rule="evenodd" clip-rule="evenodd" d="M34.1625 15.4883L35.9292 16.6663L32.7884 18.4329L35.9292 20.1995L39.0699 18.4329L41.0329 19.6107L32.7884 24.1254L31.0217 23.1439L34.1625 21.3773L31.0217 19.4145L27.8809 21.3773L25.918 20.1995L34.1625 15.4883Z" fill="#27AE60"/>
<path fill-rule="evenodd" clip-rule="evenodd" d="M34.1625 15.4883L35.9292 16.6663L32.7884 18.4329L35.9292 20.1995L39.0699 18.4329L41.0329 19.6107L32.7884 24.1254L31.0217 23.1439L34.1625 21.3773L31.0217 19.4145L27.8809 21.3773L25.918 20.1995L34.1625 15.4883Z" fill="url(#paint29_linear_1_27379)"/>
<path fill-rule="evenodd" clip-rule="evenodd" d="M26.9203 23.7439C28.687 24.7254 31.0426 25.314 33.3981 25.314C35.7537 25.314 38.1093 24.7254 39.876 23.7439C41.6427 22.7624 42.6241 21.3883 42.6241 20.0142C42.6241 18.6401 41.6427 17.266 39.876 16.2845C38.1093 15.303 35.7537 14.7141 33.3981 14.7141C31.0426 14.7141 28.687 15.303 26.9203 16.2845C25.1536 17.266 24.1722 18.6401 24.1722 20.0142C24.1722 21.3883 25.1536 22.7624 26.9203 23.7439ZM33.3981 26.2956C30.65 26.2956 27.7055 25.7069 25.5462 24.3328C23.387 23.155 22.2092 21.3881 22.2092 19.8177C22.2092 18.2473 23.1907 16.4807 25.5462 15.3029C27.7055 14.1252 30.4537 13.3398 33.3981 13.3398C36.3426 13.3398 39.0908 13.9289 41.2501 15.3029C43.4093 16.4807 44.5871 18.2473 44.5871 19.8177C44.5871 21.3881 43.4093 23.155 41.2501 24.3328C39.0908 25.5106 36.1463 26.2956 33.3981 26.2956Z" fill="#27AE60"/>
<path fill-rule="evenodd" clip-rule="evenodd" d="M26.9203 23.7439C28.687 24.7254 31.0426 25.314 33.3981 25.314C35.7537 25.314 38.1093 24.7254 39.876 23.7439C41.6427 22.7624 42.6241 21.3883 42.6241 20.0142C42.6241 18.6401 41.6427 17.266 39.876 16.2845C38.1093 15.303 35.7537 14.7141 33.3981 14.7141C31.0426 14.7141 28.687 15.303 26.9203 16.2845C25.1536 17.266 24.1722 18.6401 24.1722 20.0142C24.1722 21.3883 25.1536 22.7624 26.9203 23.7439ZM33.3981 26.2956C30.65 26.2956 27.7055 25.7069 25.5462 24.3328C23.387 23.155 22.2092 21.3881 22.2092 19.8177C22.2092 18.2473 23.1907 16.4807 25.5462 15.3029C27.7055 14.1252 30.4537 13.3398 33.3981 13.3398C36.3426 13.3398 39.0908 13.9289 41.2501 15.3029C43.4093 16.4807 44.5871 18.2473 44.5871 19.8177C44.5871 21.3881 43.4093 23.155 41.2501 24.3328C39.0908 25.5106 36.1463 26.2956 33.3981 26.2956Z" fill="url(#paint30_linear_1_27379)"/>
<path fill-rule="evenodd" clip-rule="evenodd" d="M47.8854 58.9131L69.4781 46.35L56.5225 38.8906L34.9297 51.4537L47.8854 58.9131Z" fill="#B9C1C7"/>
<path fill-rule="evenodd" clip-rule="evenodd" d="M47.8854 58.9131L69.4781 46.35L56.5225 38.8906L34.9297 51.4537L47.8854 58.9131Z" fill="url(#paint31_linear_1_27379)"/>
<path fill-rule="evenodd" clip-rule="evenodd" d="M48.7155 60.2831L72.6639 46.3458L71.8787 45.9531L48.7155 59.3015L33.4043 50.4682V51.4494L48.7155 60.2831Z" fill="#C5CCD1"/>
<path fill-rule="evenodd" clip-rule="evenodd" d="M48.7155 60.2831L72.6639 46.3458L71.8787 45.9531L48.7155 59.3015L33.4043 50.4682V51.4494L48.7155 60.2831Z" fill="url(#paint32_linear_1_27379)"/>
<path fill-rule="evenodd" clip-rule="evenodd" d="M48.7156 62.0768V60.3102L33.4043 51.4766V53.2435L48.7156 62.0768Z" fill="#9C9C9C"/>
<path fill-rule="evenodd" clip-rule="evenodd" d="M48.7156 62.0768V60.3102L33.4043 51.4766V53.2435L48.7156 62.0768Z" fill="url(#paint33_linear_1_27379)"/>
<path fill-rule="evenodd" clip-rule="evenodd" d="M71.8455 46.8804V45.8989L56.7305 37.2617L55.9453 37.6544L71.8455 46.8804Z" fill="#C5CCD1"/>
<path fill-rule="evenodd" clip-rule="evenodd" d="M71.8455 46.8804V45.8989L56.7305 37.2617L55.9453 37.6544L71.8455 46.8804Z" fill="url(#paint34_linear_1_27379)"/>
<path fill-rule="evenodd" clip-rule="evenodd" d="M29.8242 77.7292L46.7059 87.3476L47.0985 87.5441H47.491L47.8836 87.7402H48.4725H48.8651L49.454 87.5441H49.8466L50.2392 87.3476L78.1135 71.6437L78.5061 71.4475L78.7024 71.2513L78.8987 70.8586V70.6624V69.4844V69.8771L78.7024 70.0735L78.5061 70.2697L78.1135 70.6624L50.2392 86.1698L49.8466 86.366L49.454 86.5625H48.8651H48.4725H47.8836H47.491L47.0985 86.366L46.7059 86.1698L29.8242 76.5511V77.7292Z" fill="#2C3E50"/>
<path fill-rule="evenodd" clip-rule="evenodd" d="M29.8242 77.7292L46.7059 87.3476L47.0985 87.5441H47.491L47.8836 87.7402H48.4725H48.8651L49.454 87.5441H49.8466L50.2392 87.3476L78.1135 71.6437L78.5061 71.4475L78.7024 71.2513L78.8987 70.8586V70.6624V69.4844V69.8771L78.7024 70.0735L78.5061 70.2697L78.1135 70.6624L50.2392 86.1698L49.8466 86.366L49.454 86.5625H48.8651H48.4725H47.8836H47.491L47.0985 86.366L46.7059 86.1698L29.8242 76.5511V77.7292Z" fill="url(#paint35_linear_1_27379)"/>
<path fill-rule="evenodd" clip-rule="evenodd" d="M29.8242 77.7292L46.7059 87.3476L47.0985 87.5441H47.491L47.8836 87.7402H48.4725H48.8651L49.454 87.5441H49.8466L50.2392 87.3476L78.1135 71.6437L78.5061 71.4475L78.7024 71.2513L78.8987 70.8586V70.6624V69.4844V69.8771L78.7024 70.0735L78.5061 70.2697L78.1135 70.6624L50.2392 86.1698L49.8466 86.366L49.454 86.5625H48.8651H48.4725H47.8836H47.491L47.0985 86.366L46.7059 86.1698L29.8242 76.5511V77.7292Z" fill="url(#paint36_linear_1_27379)"/>
<path fill-rule="evenodd" clip-rule="evenodd" d="M50.246 86.1574L78.1204 70.4535C78.1204 70.4535 79.1019 68.8833 78.1204 68.4907L61.0424 58.6758L30.0273 76.5387L46.7127 86.1574C46.7127 86.1574 49.2646 86.7463 50.246 86.1574Z" fill="#34485C"/>
<path fill-rule="evenodd" clip-rule="evenodd" d="M50.246 86.1574L78.1204 70.4535C78.1204 70.4535 79.1019 68.8833 78.1204 68.4907L61.0424 58.6758L30.0273 76.5387L46.7127 86.1574C46.7127 86.1574 49.2646 86.7463 50.246 86.1574Z" fill="url(#paint37_linear_1_27379)"/>
<path fill-rule="evenodd" clip-rule="evenodd" d="M50.246 86.1574L78.1204 70.4535C78.1204 70.4535 79.1019 68.8833 78.1204 68.4907L61.0424 58.6758L30.0273 76.5387L46.7127 86.1574C46.7127 86.1574 49.2646 86.7463 50.246 86.1574Z" fill="url(#paint38_linear_1_27379)"/>
<path fill-rule="evenodd" clip-rule="evenodd" d="M32.2109 75.1605L46.3444 83.405L46.737 83.6012H47.1296L47.5222 83.7976H48.1111H48.5037L49.0925 83.6012H49.4851L49.8777 83.405L73.4335 70.253L73.6298 70.0568L73.8261 69.8604L74.0224 69.4677V69.2715V68.0938V68.4864L73.8261 68.6826L73.6298 68.8788L73.4335 69.2715L49.8777 82.2272L49.4851 82.4234L49.0925 82.6199H48.5037L48.1111 82.8161L47.5222 82.6199H47.1296L46.737 82.4234L46.3444 82.2272L32.2109 74.1789V75.1605Z" fill="#2C3E50"/>
<path fill-rule="evenodd" clip-rule="evenodd" d="M32.2109 75.1605L46.3444 83.405L46.737 83.6012H47.1296L47.5222 83.7976H48.1111H48.5037L49.0925 83.6012H49.4851L49.8777 83.405L73.4335 70.253L73.6298 70.0568L73.8261 69.8604L74.0224 69.4677V69.2715V68.0938V68.4864L73.8261 68.6826L73.6298 68.8788L73.4335 69.2715L49.8777 82.2272L49.4851 82.4234L49.0925 82.6199H48.5037L48.1111 82.8161L47.5222 82.6199H47.1296L46.737 82.4234L46.3444 82.2272L32.2109 74.1789V75.1605Z" fill="url(#paint39_linear_1_27379)"/>
<path fill-rule="evenodd" clip-rule="evenodd" d="M32.2109 75.1605L46.3444 83.405L46.737 83.6012H47.1296L47.5222 83.7976H48.1111H48.5037L49.0925 83.6012H49.4851L49.8777 83.405L73.4335 70.253L73.6298 70.0568L73.8261 69.8604L74.0224 69.4677V69.2715V68.0938V68.4864L73.8261 68.6826L73.6298 68.8788L73.4335 69.2715L49.8777 82.2272L49.4851 82.4234L49.0925 82.6199H48.5037L48.1111 82.8161L47.5222 82.6199H47.1296L46.737 82.4234L46.3444 82.2272L32.2109 74.1789V75.1605Z" fill="url(#paint40_linear_1_27379)"/>
<path fill-rule="evenodd" clip-rule="evenodd" d="M49.8544 82.2257L73.4101 69.0738C74.3916 68.4849 74.3916 67.5033 73.4101 67.1107L58.0989 58.2773L31.4023 73.5886L46.321 82.2257C46.321 82.2257 48.8729 82.8146 49.8544 82.2257Z" fill="url(#paint41_linear_1_27379)"/>
<path fill-rule="evenodd" clip-rule="evenodd" d="M49.8544 82.2257L73.4101 69.0738C74.3916 68.4849 74.3916 67.5033 73.4101 67.1107L58.0989 58.2773L31.4023 73.5886L46.321 82.2257C46.321 82.2257 48.8729 82.8146 49.8544 82.2257Z" fill="url(#paint42_linear_1_27379)"/>
<path fill-rule="evenodd" clip-rule="evenodd" d="M55.962 74.0397L53.8027 72.6655V59.9062L55.962 61.2802V74.0397Z" fill="#9C9C9C"/>
<path fill-rule="evenodd" clip-rule="evenodd" d="M55.962 74.0397L53.8027 72.6655V59.9062L55.962 61.2802V74.0397Z" fill="url(#paint43_linear_1_27379)"/>
<path fill-rule="evenodd" clip-rule="evenodd" d="M55.9453 61.2324L58.3009 60.0547V72.6177L55.9453 73.992V61.2324Z" fill="#EBEBEB"/>
<path fill-rule="evenodd" clip-rule="evenodd" d="M55.9453 61.2324L58.3009 60.0547V72.6177L55.9453 73.992V61.2324Z" fill="url(#paint44_linear_1_27379)"/>
<path fill-rule="evenodd" clip-rule="evenodd" d="M55.9453 61.2324L58.3009 60.0547V72.6177L55.9453 73.992V61.2324Z" fill="url(#paint45_linear_1_27379)"/>
<path fill-rule="evenodd" clip-rule="evenodd" d="M55.9453 61.2324L58.3009 60.0547V72.6177L55.9453 73.992V61.2324Z" fill="url(#paint46_linear_1_27379)"/>
<path fill-rule="evenodd" clip-rule="evenodd" d="M66.9572 67.7429L64.6016 66.3689V53.6094L66.9572 54.9836V67.7429Z" fill="#9C9C9C"/>
<path fill-rule="evenodd" clip-rule="evenodd" d="M66.9572 67.7429L64.6016 66.3689V53.6094L66.9572 54.9836V67.7429Z" fill="url(#paint47_linear_1_27379)"/>
<path fill-rule="evenodd" clip-rule="evenodd" d="M66.9434 54.9836L69.1026 53.6094V66.3689L66.9434 67.7429V54.9836Z" fill="#EBEBEB"/>
<path fill-rule="evenodd" clip-rule="evenodd" d="M66.9434 54.9836L69.1026 53.6094V66.3689L66.9434 67.7429V54.9836Z" fill="url(#paint48_linear_1_27379)"/>
<path fill-rule="evenodd" clip-rule="evenodd" d="M45.168 67.4981L47.3273 66.3203V78.8834L45.168 80.2573V67.4981Z" fill="#EBEBEB"/>
<path fill-rule="evenodd" clip-rule="evenodd" d="M45.168 67.4981L47.3273 66.3203V78.8834L45.168 80.2573V67.4981Z" fill="url(#paint49_linear_1_27379)"/>
<path fill-rule="evenodd" clip-rule="evenodd" d="M48.672 56.1424L72.6203 42.4016L70.461 41.0273L46.3164 54.9646L48.672 56.1424Z" fill="#C5CCD1"/>
<path fill-rule="evenodd" clip-rule="evenodd" d="M48.672 56.1424L72.6203 42.4016L70.461 41.0273L46.3164 54.9646L48.672 56.1424Z" fill="url(#paint50_linear_1_27379)"/>
<path fill-rule="evenodd" clip-rule="evenodd" d="M48.6992 68.7374L72.6476 54.8002V42.4336L48.6992 56.1744V68.7374Z" fill="#EBEBEB"/>
<path fill-rule="evenodd" clip-rule="evenodd" d="M48.6992 68.7374L72.6476 54.8002V42.4336L48.6992 56.1744V68.7374Z" fill="url(#paint51_linear_1_27379)"/>
<path fill-rule="evenodd" clip-rule="evenodd" d="M61.4503 56.7767L61.6466 56.5805V55.0101L63.0207 54.0285L63.217 53.8323V52.4581L63.0207 52.2619L61.6466 53.2435V51.4766H61.4503L60.2725 52.2619L60.0762 52.4581V54.0285L58.7022 54.8136L58.5059 55.0101V56.5805H58.7022L60.0762 55.7951V57.5618L61.4503 56.7767Z" fill="#1D9C52"/>
<path fill-rule="evenodd" clip-rule="evenodd" d="M61.4503 56.7767L61.6466 56.5805V55.0101L63.0207 54.0285L63.217 53.8323V52.4581L63.0207 52.2619L61.6466 53.2435V51.4766H61.4503L60.2725 52.2619L60.0762 52.4581V54.0285L58.7022 54.8136L58.5059 55.0101V56.5805H58.7022L60.0762 55.7951V57.5618L61.4503 56.7767Z" fill="url(#paint52_linear_1_27379)"/>
<path fill-rule="evenodd" clip-rule="evenodd" d="M45.1427 80.3141L42.7871 78.9402V64.4141L45.1427 65.7883V80.3141Z" fill="#9C9C9C"/>
<path fill-rule="evenodd" clip-rule="evenodd" d="M45.1427 80.3141L42.7871 78.9402V64.4141L45.1427 65.7883V80.3141Z" fill="#9C9C9C"/>
<path fill-rule="evenodd" clip-rule="evenodd" d="M48.3125 83.7976H48.5088L49.0977 83.6012H49.4903L49.8829 83.405L73.4386 70.253L73.6349 70.0568L73.8312 69.8604L74.0275 69.4677V69.2715V68.0938V68.4864L73.8312 68.6826L73.6349 68.8788L73.4386 69.2715L49.8829 82.2272L49.4903 82.4234L49.0977 82.6199H48.5088H48.3125V83.7976Z" fill="#415A73"/>
<path fill-rule="evenodd" clip-rule="evenodd" d="M48.3125 83.7976H48.5088L49.0977 83.6012H49.4903L49.8829 83.405L73.4386 70.253L73.6349 70.0568L73.8312 69.8604L74.0275 69.4677V69.2715V68.0938V68.4864L73.8312 68.6826L73.6349 68.8788L73.4386 69.2715L49.8829 82.2272L49.4903 82.4234L49.0977 82.6199H48.5088H48.3125V83.7976Z" fill="url(#paint53_linear_1_27379)"/>
<path fill-rule="evenodd" clip-rule="evenodd" d="M48.3125 83.7976H48.5088L49.0977 83.6012H49.4903L49.8829 83.405L73.4386 70.253L73.6349 70.0568L73.8312 69.8604L74.0275 69.4677V69.2715V68.0938V68.4864L73.8312 68.6826L73.6349 68.8788L73.4386 69.2715L49.8829 82.2272L49.4903 82.4234L49.0977 82.6199H48.5088H48.3125V83.7976Z" fill="url(#paint54_linear_1_27379)"/>
<path fill-rule="evenodd" clip-rule="evenodd" d="M47.6914 87.7402H47.8877H48.4766H48.8692L49.4581 87.5441H49.8507L50.2433 87.3476L78.1176 71.6437L78.5102 71.4475L78.7065 71.2513L78.9028 70.8586V70.6624V69.4844V69.8771L78.7065 70.0735L78.5102 70.2697L78.1176 70.6624L50.2433 86.1698L49.8507 86.366L49.4581 86.5625H48.8692H48.4766H47.8877H47.6914V87.7402Z" fill="#415A73"/>
<path fill-rule="evenodd" clip-rule="evenodd" d="M47.6914 87.7402H47.8877H48.4766H48.8692L49.4581 87.5441H49.8507L50.2433 87.3476L78.1176 71.6437L78.5102 71.4475L78.7065 71.2513L78.9028 70.8586V70.6624V69.4844V69.8771L78.7065 70.0735L78.5102 70.2697L78.1176 70.6624L50.2433 86.1698L49.8507 86.366L49.4581 86.5625H48.8692H48.4766H47.8877H47.6914V87.7402Z" fill="url(#paint55_linear_1_27379)"/>
<path fill-rule="evenodd" clip-rule="evenodd" d="M47.6914 87.7402H47.8877H48.4766H48.8692L49.4581 87.5441H49.8507L50.2433 87.3476L78.1176 71.6437L78.5102 71.4475L78.7065 71.2513L78.9028 70.8586V70.6624V69.4844V69.8771L78.7065 70.0735L78.5102 70.2697L78.1176 70.6624L50.2433 86.1698L49.8507 86.366L49.4581 86.5625H48.8692H48.4766H47.8877H47.6914V87.7402Z" fill="url(#paint56_linear_1_27379)"/>
<path fill-rule="evenodd" clip-rule="evenodd" d="M48.7156 66.9791V62.0716L33.4043 53.2383V57.5566V58.1457L48.7156 66.9791Z" fill="#29648C"/>
<path fill-rule="evenodd" clip-rule="evenodd" d="M48.7156 66.9791V62.0716L33.4043 53.2383V57.5566V58.1457L48.7156 66.9791Z" fill="url(#paint57_linear_1_27379)"/>
<path fill-rule="evenodd" clip-rule="evenodd" d="M48.672 69.5063V56.1582L46.3164 54.9805V68.3286L48.672 69.5063Z" fill="#9C9C9C"/>
<path fill-rule="evenodd" clip-rule="evenodd" d="M48.672 69.5063V56.1582L46.3164 54.9805V68.3286L48.672 69.5063Z" fill="url(#paint58_linear_1_27379)"/>
<defs>
<linearGradient id="paint0_linear_1_27379" x1="-0.00699297" y1="34.0352" x2="24.1286" y2="34.0352" gradientUnits="userSpaceOnUse">
<stop stop-color="#4AFFC7"/>
<stop offset="1" stop-color="#3BADEA"/>
</linearGradient>
<linearGradient id="paint1_linear_1_27379" x1="24.1458" y1="28.6794" x2="67.1187" y2="28.6794" gradientUnits="userSpaceOnUse">
<stop stop-color="#4AFFC7"/>
<stop offset="1" stop-color="#3BADEA"/>
</linearGradient>
<linearGradient id="paint2_linear_1_27379" x1="42.9759" y1="8.08236" x2="65.3455" y2="8.08236" gradientUnits="userSpaceOnUse">
<stop stop-color="#4AFFC7"/>
<stop offset="1" stop-color="#3BADEA"/>
</linearGradient>
<linearGradient id="paint3_linear_1_27379" x1="1.75759" y1="13.4806" x2="42.9646" y2="13.4806" gradientUnits="userSpaceOnUse">
<stop stop-color="#4AFFC7"/>
<stop offset="1" stop-color="#3BADEA"/>
</linearGradient>
<linearGradient id="paint4_linear_1_27379" x1="17.6395" y1="20.1927" x2="63.7244" y2="20.9815" gradientUnits="userSpaceOnUse">
<stop stop-color="#E6F0FF"/>
<stop offset="0.24" stop-color="#E2ECFD"/>
<stop offset="0.47" stop-color="#D6E3F8"/>
<stop offset="0.69" stop-color="#C3D3F0"/>
<stop offset="0.91" stop-color="#A9BDE4"/>
<stop offset="1" stop-color="#9CB2DF"/>
</linearGradient>
<linearGradient id="paint5_linear_1_27379" x1="-0.0194439" y1="19.3354" x2="67.0891" y2="19.3354" gradientUnits="userSpaceOnUse">
<stop stop-color="#4AFFC7"/>
<stop offset="1" stop-color="#3BADEA"/>
</linearGradient>
<linearGradient id="paint6_linear_1_27379" x1="-0.0194439" y1="36.5986" x2="67.0891" y2="36.5986" gradientUnits="userSpaceOnUse">
<stop stop-color="#4AFFC7"/>
<stop offset="1" stop-color="#3BADEA"/>
</linearGradient>
<linearGradient id="paint7_linear_1_27379" x1="6.28131" y1="39.0314" x2="24.3831" y2="39.2604" gradientUnits="userSpaceOnUse">
<stop stop-color="#E6F0FF"/>
<stop offset="0.24" stop-color="#E2ECFD"/>
<stop offset="0.47" stop-color="#D6E3F8"/>
<stop offset="0.69" stop-color="#C3D3F0"/>
<stop offset="0.91" stop-color="#A9BDE4"/>
<stop offset="1" stop-color="#9CB2DF"/>
</linearGradient>
<linearGradient id="paint8_linear_1_27379" x1="33.9858" y1="33.403" x2="66.5373" y2="33.8652" gradientUnits="userSpaceOnUse">
<stop stop-color="#E6F0FF"/>
<stop offset="0.24" stop-color="#E2ECFD"/>
<stop offset="0.47" stop-color="#D6E3F8"/>
<stop offset="0.69" stop-color="#C3D3F0"/>
<stop offset="0.91" stop-color="#A9BDE4"/>
<stop offset="1" stop-color="#9CB2DF"/>
</linearGradient>
<linearGradient id="paint9_linear_1_27379" x1="-0.00699297" y1="43.2074" x2="24.1286" y2="43.2074" gradientUnits="userSpaceOnUse">
<stop stop-color="#4AFFC7"/>
<stop offset="1" stop-color="#3BADEA"/>
</linearGradient>
<linearGradient id="paint10_linear_1_27379" x1="24.1458" y1="37.6725" x2="67.1187" y2="37.6725" gradientUnits="userSpaceOnUse">
<stop stop-color="#4AFFC7"/>
<stop offset="1" stop-color="#3BADEA"/>
</linearGradient>
<linearGradient id="paint11_linear_1_27379" x1="-0.0194439" y1="44.0869" x2="67.0891" y2="44.0869" gradientUnits="userSpaceOnUse">
<stop stop-color="#4AFFC7"/>
<stop offset="1" stop-color="#3BADEA"/>
</linearGradient>
<linearGradient id="paint12_linear_1_27379" x1="6.28131" y1="46.4609" x2="24.3831" y2="46.6899" gradientUnits="userSpaceOnUse">
<stop stop-color="#E6F0FF"/>
<stop offset="0.24" stop-color="#E2ECFD"/>
<stop offset="0.47" stop-color="#D6E3F8"/>
<stop offset="0.69" stop-color="#C3D3F0"/>
<stop offset="0.91" stop-color="#A9BDE4"/>
<stop offset="1" stop-color="#9CB2DF"/>
</linearGradient>
<linearGradient id="paint13_linear_1_27379" x1="33.9858" y1="40.9744" x2="66.5372" y2="41.4397" gradientUnits="userSpaceOnUse">
<stop stop-color="#E6F0FF"/>
<stop offset="0.24" stop-color="#E2ECFD"/>
<stop offset="0.47" stop-color="#D6E3F8"/>
<stop offset="0.69" stop-color="#C3D3F0"/>
<stop offset="0.91" stop-color="#A9BDE4"/>
<stop offset="1" stop-color="#9CB2DF"/>
</linearGradient>
<linearGradient id="paint14_linear_1_27379" x1="-0.00699297" y1="50.6371" x2="24.1286" y2="50.6371" gradientUnits="userSpaceOnUse">
<stop stop-color="#4AFFC7"/>
<stop offset="1" stop-color="#3BADEA"/>
</linearGradient>
<linearGradient id="paint15_linear_1_27379" x1="24.1458" y1="45.2149" x2="67.1187" y2="45.2149" gradientUnits="userSpaceOnUse">
<stop stop-color="#4AFFC7"/>
<stop offset="1" stop-color="#3BADEA"/>
</linearGradient>
<linearGradient id="paint16_linear_1_27379" x1="-0.0194439" y1="51.7002" x2="67.0891" y2="51.7002" gradientUnits="userSpaceOnUse">
<stop stop-color="#4AFFC7"/>
<stop offset="1" stop-color="#3BADEA"/>
</linearGradient>
<linearGradient id="paint17_linear_1_27379" x1="6.28131" y1="54.1445" x2="24.3831" y2="54.3735" gradientUnits="userSpaceOnUse">
<stop stop-color="#E6F0FF"/>
<stop offset="0.24" stop-color="#E2ECFD"/>
<stop offset="0.47" stop-color="#D6E3F8"/>
<stop offset="0.69" stop-color="#C3D3F0"/>
<stop offset="0.91" stop-color="#A9BDE4"/>
<stop offset="1" stop-color="#9CB2DF"/>
</linearGradient>
<linearGradient id="paint18_linear_1_27379" x1="33.9858" y1="48.5044" x2="66.5373" y2="48.9666" gradientUnits="userSpaceOnUse">
<stop stop-color="#E6F0FF"/>
<stop offset="0.24" stop-color="#E2ECFD"/>
<stop offset="0.47" stop-color="#D6E3F8"/>
<stop offset="0.69" stop-color="#C3D3F0"/>
<stop offset="0.91" stop-color="#A9BDE4"/>
<stop offset="1" stop-color="#9CB2DF"/>
</linearGradient>
<linearGradient id="paint19_linear_1_27379" x1="-0.00699297" y1="58.3088" x2="24.1286" y2="58.3088" gradientUnits="userSpaceOnUse">
<stop stop-color="#4AFFC7"/>
<stop offset="1" stop-color="#3BADEA"/>
</linearGradient>
<linearGradient id="paint20_linear_1_27379" x1="24.1458" y1="52.778" x2="67.1187" y2="52.778" gradientUnits="userSpaceOnUse">
<stop stop-color="#4AFFC7"/>
<stop offset="1" stop-color="#3BADEA"/>
</linearGradient>
<linearGradient id="paint21_linear_1_27379" x1="6.28131" y1="63.9094" x2="24.3842" y2="64.0915" gradientUnits="userSpaceOnUse">
<stop stop-color="#E6F0FF"/>
<stop offset="0.24" stop-color="#E2ECFD"/>
<stop offset="0.47" stop-color="#D6E3F8"/>
<stop offset="0.69" stop-color="#C3D3F0"/>
<stop offset="0.91" stop-color="#A9BDE4"/>
<stop offset="1" stop-color="#9CB2DF"/>
</linearGradient>
<linearGradient id="paint22_linear_1_27379" x1="33.9858" y1="58.3993" x2="66.5389" y2="58.7998" gradientUnits="userSpaceOnUse">
<stop stop-color="#E6F0FF"/>
<stop offset="0.24" stop-color="#E2ECFD"/>
<stop offset="0.47" stop-color="#D6E3F8"/>
<stop offset="0.69" stop-color="#C3D3F0"/>
<stop offset="0.91" stop-color="#A9BDE4"/>
<stop offset="1" stop-color="#9CB2DF"/>
</linearGradient>
<linearGradient id="paint23_linear_1_27379" x1="-0.0194439" y1="66.2707" x2="67.0891" y2="66.2707" gradientUnits="userSpaceOnUse">
<stop stop-color="#4AFFC7"/>
<stop offset="1" stop-color="#3BADEA"/>
</linearGradient>
<linearGradient id="paint24_linear_1_27379" x1="6.28131" y1="68.6212" x2="24.3831" y2="68.8502" gradientUnits="userSpaceOnUse">
<stop stop-color="#E6F0FF"/>
<stop offset="0.24" stop-color="#E2ECFD"/>
<stop offset="0.47" stop-color="#D6E3F8"/>
<stop offset="0.69" stop-color="#C3D3F0"/>
<stop offset="0.91" stop-color="#A9BDE4"/>
<stop offset="1" stop-color="#9CB2DF"/>
</linearGradient>
<linearGradient id="paint25_linear_1_27379" x1="33.9858" y1="63.1541" x2="66.5372" y2="63.6194" gradientUnits="userSpaceOnUse">
<stop stop-color="#E6F0FF"/>
<stop offset="0.24" stop-color="#E2ECFD"/>
<stop offset="0.47" stop-color="#D6E3F8"/>
<stop offset="0.69" stop-color="#C3D3F0"/>
<stop offset="0.91" stop-color="#A9BDE4"/>
<stop offset="1" stop-color="#9CB2DF"/>
</linearGradient>
<linearGradient id="paint26_linear_1_27379" x1="56.5522" y1="43.4054" x2="71.8577" y2="43.4054" gradientUnits="userSpaceOnUse">
<stop stop-color="#4AFFC7"/>
<stop offset="1" stop-color="#3BADEA"/>
</linearGradient>
<linearGradient id="paint27_linear_1_27379" x1="-0.00699297" y1="72.9975" x2="24.1286" y2="72.9975" gradientUnits="userSpaceOnUse">
<stop stop-color="#4AFFC7"/>
<stop offset="1" stop-color="#3BADEA"/>
</linearGradient>
<linearGradient id="paint28_linear_1_27379" x1="24.1458" y1="67.5871" x2="67.1187" y2="67.5871" gradientUnits="userSpaceOnUse">
<stop stop-color="#4AFFC7"/>
<stop offset="1" stop-color="#3BADEA"/>
</linearGradient>
<linearGradient id="paint29_linear_1_27379" x1="25.9136" y1="19.8069" x2="41.0228" y2="19.8069" gradientUnits="userSpaceOnUse">
<stop stop-color="#4AFFC7"/>
<stop offset="1" stop-color="#3BADEA"/>
</linearGradient>
<linearGradient id="paint30_linear_1_27379" x1="22.2027" y1="19.8177" x2="44.5722" y2="19.8177" gradientUnits="userSpaceOnUse">
<stop stop-color="#4AFFC7"/>
<stop offset="1" stop-color="#3BADEA"/>
</linearGradient>
<linearGradient id="paint31_linear_1_27379" x1="43.0122" y1="48.7317" x2="69.7811" y2="49.1883" gradientUnits="userSpaceOnUse">
<stop stop-color="#E6F0FF"/>
<stop offset="0.24" stop-color="#E2ECFD"/>
<stop offset="0.47" stop-color="#D6E3F8"/>
<stop offset="0.69" stop-color="#C3D3F0"/>
<stop offset="0.91" stop-color="#A9BDE4"/>
<stop offset="1" stop-color="#9CB2DF"/>
</linearGradient>
<linearGradient id="paint32_linear_1_27379" x1="33.3929" y1="53.1181" x2="72.6377" y2="53.1181" gradientUnits="userSpaceOnUse">
<stop stop-color="#4AFFC7"/>
<stop offset="1" stop-color="#3BADEA"/>
</linearGradient>
<linearGradient id="paint33_linear_1_27379" x1="33.3999" y1="56.7767" x2="48.7053" y2="56.7767" gradientUnits="userSpaceOnUse">
<stop stop-color="#4AFFC7"/>
<stop offset="1" stop-color="#3BADEA"/>
</linearGradient>
<linearGradient id="paint34_linear_1_27379" x1="55.9407" y1="42.0711" x2="71.8349" y2="42.0711" gradientUnits="userSpaceOnUse">
<stop stop-color="#4AFFC7"/>
<stop offset="1" stop-color="#3BADEA"/>
</linearGradient>
<linearGradient id="paint35_linear_1_27379" x1="29.81" y1="78.6123" x2="78.866" y2="78.6123" gradientUnits="userSpaceOnUse">
<stop stop-color="#4AFFC7"/>
<stop offset="1" stop-color="#3BADEA"/>
</linearGradient>
<linearGradient id="paint36_linear_1_27379" x1="41.3051" y1="78.4571" x2="79.3133" y2="79.4673" gradientUnits="userSpaceOnUse">
<stop stop-color="#E6F0FF"/>
<stop offset="0.24" stop-color="#E2ECFD"/>
<stop offset="0.47" stop-color="#D6E3F8"/>
<stop offset="0.69" stop-color="#C3D3F0"/>
<stop offset="0.91" stop-color="#A9BDE4"/>
<stop offset="1" stop-color="#9CB2DF"/>
</linearGradient>
<linearGradient id="paint37_linear_1_27379" x1="30.0133" y1="72.5474" x2="78.5242" y2="72.5474" gradientUnits="userSpaceOnUse">
<stop stop-color="#4AFFC7"/>
<stop offset="1" stop-color="#3BADEA"/>
</linearGradient>
<linearGradient id="paint38_linear_1_27379" x1="41.3807" y1="72.3116" x2="78.9819" y2="72.9619" gradientUnits="userSpaceOnUse">
<stop stop-color="#E6F0FF"/>
<stop offset="0.24" stop-color="#E2ECFD"/>
<stop offset="0.47" stop-color="#D6E3F8"/>
<stop offset="0.69" stop-color="#C3D3F0"/>
<stop offset="0.91" stop-color="#A9BDE4"/>
<stop offset="1" stop-color="#9CB2DF"/>
</linearGradient>
<linearGradient id="paint39_linear_1_27379" x1="32.1988" y1="75.9457" x2="73.9945" y2="75.9457" gradientUnits="userSpaceOnUse">
<stop stop-color="#4AFFC7"/>
<stop offset="1" stop-color="#3BADEA"/>
</linearGradient>
<linearGradient id="paint40_linear_1_27379" x1="41.9927" y1="75.8122" x2="74.376" y2="76.6646" gradientUnits="userSpaceOnUse">
<stop stop-color="#E6F0FF"/>
<stop offset="0.24" stop-color="#E2ECFD"/>
<stop offset="0.47" stop-color="#D6E3F8"/>
<stop offset="0.69" stop-color="#C3D3F0"/>
<stop offset="0.91" stop-color="#A9BDE4"/>
<stop offset="1" stop-color="#9CB2DF"/>
</linearGradient>
<linearGradient id="paint41_linear_1_27379" x1="31.39" y1="70.3824" x2="74.1177" y2="70.3824" gradientUnits="userSpaceOnUse">
<stop stop-color="#4AFFC7"/>
<stop offset="1" stop-color="#3BADEA"/>
</linearGradient>
<linearGradient id="paint42_linear_1_27379" x1="41.4022" y1="70.1766" x2="74.5206" y2="70.7547" gradientUnits="userSpaceOnUse">
<stop stop-color="#E6F0FF"/>
<stop offset="0.24" stop-color="#E2ECFD"/>
<stop offset="0.47" stop-color="#D6E3F8"/>
<stop offset="0.69" stop-color="#C3D3F0"/>
<stop offset="0.91" stop-color="#A9BDE4"/>
<stop offset="1" stop-color="#9CB2DF"/>
</linearGradient>
<linearGradient id="paint43_linear_1_27379" x1="53.8021" y1="66.973" x2="55.9605" y2="66.973" gradientUnits="userSpaceOnUse">
<stop stop-color="#4AFFC7"/>
<stop offset="1" stop-color="#3BADEA"/>
</linearGradient>
<linearGradient id="paint44_linear_1_27379" x1="56.4964" y1="66.9049" x2="58.3221" y2="66.9079" gradientUnits="userSpaceOnUse">
<stop stop-color="#E6F0FF"/>
<stop offset="0.24" stop-color="#E2ECFD"/>
<stop offset="0.47" stop-color="#D6E3F8"/>
<stop offset="0.69" stop-color="#C3D3F0"/>
<stop offset="0.91" stop-color="#A9BDE4"/>
<stop offset="1" stop-color="#9CB2DF"/>
</linearGradient>
<linearGradient id="paint45_linear_1_27379" x1="55.9446" y1="67.0233" x2="58.2993" y2="67.0233" gradientUnits="userSpaceOnUse">
<stop stop-color="#4AFFC7"/>
<stop offset="1" stop-color="#3BADEA"/>
</linearGradient>
<linearGradient id="paint46_linear_1_27379" x1="56.4964" y1="66.9049" x2="58.3221" y2="66.9079" gradientUnits="userSpaceOnUse">
<stop stop-color="#E6F0FF"/>
<stop offset="0.24" stop-color="#E2ECFD"/>
<stop offset="0.47" stop-color="#D6E3F8"/>
<stop offset="0.69" stop-color="#C3D3F0"/>
<stop offset="0.91" stop-color="#A9BDE4"/>
<stop offset="1" stop-color="#9CB2DF"/>
</linearGradient>
<linearGradient id="paint47_linear_1_27379" x1="64.6009" y1="60.6761" x2="66.9556" y2="60.6761" gradientUnits="userSpaceOnUse">
<stop stop-color="#4AFFC7"/>
<stop offset="1" stop-color="#3BADEA"/>
</linearGradient>
<linearGradient id="paint48_linear_1_27379" x1="67.4485" y1="60.556" x2="69.122" y2="60.5585" gradientUnits="userSpaceOnUse">
<stop stop-color="#E6F0FF"/>
<stop offset="0.24" stop-color="#E2ECFD"/>
<stop offset="0.47" stop-color="#D6E3F8"/>
<stop offset="0.69" stop-color="#C3D3F0"/>
<stop offset="0.91" stop-color="#A9BDE4"/>
<stop offset="1" stop-color="#9CB2DF"/>
</linearGradient>
<linearGradient id="paint49_linear_1_27379" x1="45.6731" y1="73.1703" x2="47.3467" y2="73.1729" gradientUnits="userSpaceOnUse">
<stop stop-color="#E6F0FF"/>
<stop offset="0.24" stop-color="#E2ECFD"/>
<stop offset="0.47" stop-color="#D6E3F8"/>
<stop offset="0.69" stop-color="#C3D3F0"/>
<stop offset="0.91" stop-color="#A9BDE4"/>
<stop offset="1" stop-color="#9CB2DF"/>
</linearGradient>
<linearGradient id="paint50_linear_1_27379" x1="52.4701" y1="48.4564" x2="72.8509" y2="48.807" gradientUnits="userSpaceOnUse">
<stop stop-color="#E6F0FF"/>
<stop offset="0.24" stop-color="#E2ECFD"/>
<stop offset="0.47" stop-color="#D6E3F8"/>
<stop offset="0.69" stop-color="#C3D3F0"/>
<stop offset="0.91" stop-color="#A9BDE4"/>
<stop offset="1" stop-color="#9CB2DF"/>
</linearGradient>
<linearGradient id="paint51_linear_1_27379" x1="54.3019" y1="55.3619" x2="72.8615" y2="55.529" gradientUnits="userSpaceOnUse">
<stop stop-color="#E6F0FF"/>
<stop offset="0.24" stop-color="#E2ECFD"/>
<stop offset="0.47" stop-color="#D6E3F8"/>
<stop offset="0.69" stop-color="#C3D3F0"/>
<stop offset="0.91" stop-color="#A9BDE4"/>
<stop offset="1" stop-color="#9CB2DF"/>
</linearGradient>
<linearGradient id="paint52_linear_1_27379" x1="58.5045" y1="54.5192" x2="63.2139" y2="54.5192" gradientUnits="userSpaceOnUse">
<stop stop-color="#4AFFC7"/>
<stop offset="1" stop-color="#3BADEA"/>
</linearGradient>
<linearGradient id="paint53_linear_1_27379" x1="48.3051" y1="75.9457" x2="74.0104" y2="75.9457" gradientUnits="userSpaceOnUse">
<stop stop-color="#4AFFC7"/>
<stop offset="1" stop-color="#3BADEA"/>
</linearGradient>
<linearGradient id="paint54_linear_1_27379" x1="54.3285" y1="75.8122" x2="74.2536" y2="76.1348" gradientUnits="userSpaceOnUse">
<stop stop-color="#E6F0FF"/>
<stop offset="0.24" stop-color="#E2ECFD"/>
<stop offset="0.47" stop-color="#D6E3F8"/>
<stop offset="0.69" stop-color="#C3D3F0"/>
<stop offset="0.91" stop-color="#A9BDE4"/>
<stop offset="1" stop-color="#9CB2DF"/>
</linearGradient>
<linearGradient id="paint55_linear_1_27379" x1="47.6824" y1="78.6123" x2="78.882" y2="78.6123" gradientUnits="userSpaceOnUse">
<stop stop-color="#4AFFC7"/>
<stop offset="1" stop-color="#3BADEA"/>
</linearGradient>
<linearGradient id="paint56_linear_1_27379" x1="54.9933" y1="78.4571" x2="79.1766" y2="78.8659" gradientUnits="userSpaceOnUse">
<stop stop-color="#E6F0FF"/>
<stop offset="0.24" stop-color="#E2ECFD"/>
<stop offset="0.47" stop-color="#D6E3F8"/>
<stop offset="0.69" stop-color="#C3D3F0"/>
<stop offset="0.91" stop-color="#A9BDE4"/>
<stop offset="1" stop-color="#9CB2DF"/>
</linearGradient>
<linearGradient id="paint57_linear_1_27379" x1="36.9863" y1="59.9919" x2="48.8518" y2="60.1226" gradientUnits="userSpaceOnUse">
<stop stop-color="#E6F0FF"/>
<stop offset="0.24" stop-color="#E2ECFD"/>
<stop offset="0.47" stop-color="#D6E3F8"/>
<stop offset="0.69" stop-color="#C3D3F0"/>
<stop offset="0.91" stop-color="#A9BDE4"/>
<stop offset="1" stop-color="#9CB2DF"/>
</linearGradient>
<linearGradient id="paint58_linear_1_27379" x1="46.8675" y1="62.1199" x2="48.6932" y2="62.1229" gradientUnits="userSpaceOnUse">
<stop stop-color="#E6F0FF"/>
<stop offset="0.24" stop-color="#E2ECFD"/>
<stop offset="0.47" stop-color="#D6E3F8"/>
<stop offset="0.69" stop-color="#C3D3F0"/>
<stop offset="0.91" stop-color="#A9BDE4"/>
<stop offset="1" stop-color="#9CB2DF"/>
</linearGradient>
</defs>
</svg>
