<svg width="61" height="83" viewBox="0 0 61 83" fill="none" xmlns="http://www.w3.org/2000/svg">
<path fill-rule="evenodd" clip-rule="evenodd" d="M60.9836 14.1995V43.2414C60.9836 44.7699 59.9137 46.757 58.538 47.5212C51.6597 51.4954 31.1775 63.4179 24.2992 67.2392C22.9235 68.0034 21.8535 67.2392 21.8535 65.7107V36.516C22.0064 34.8346 23.0763 33.0004 24.452 32.0833C31.3303 28.1091 51.8125 16.3395 58.538 12.3653C59.9137 11.6011 60.9836 12.3653 60.9836 13.741V14.1995Z" fill="#3D566E"/>
<path fill-rule="evenodd" clip-rule="evenodd" d="M60.9836 14.1995V43.2414C60.9836 44.7699 59.9137 46.757 58.538 47.5212C51.6597 51.4954 31.1775 63.4179 24.2992 67.2392C22.9235 68.0034 21.8535 67.2392 21.8535 65.7107V36.516C22.0064 34.8346 23.0763 33.0004 24.452 32.0833C31.3303 28.1091 51.8125 16.3395 58.538 12.3653C59.9137 11.6011 60.9836 12.3653 60.9836 13.741V14.1995Z" fill="url(#paint0_linear_1_27506)"/>
<path fill-rule="evenodd" clip-rule="evenodd" d="M60.9836 14.1995V43.2414C60.9836 44.7699 59.9137 46.757 58.538 47.5212C51.6597 51.4954 31.1775 63.4179 24.2992 67.2392C22.9235 68.0034 21.8535 67.2392 21.8535 65.7107V36.516C22.0064 34.8346 23.0763 33.0004 24.452 32.0833C31.3303 28.1091 51.8125 16.3395 58.538 12.3653C59.9137 11.6011 60.9836 12.3653 60.9836 13.741V14.1995Z" fill="url(#paint1_linear_1_27506)"/>
<path fill-rule="evenodd" clip-rule="evenodd" d="M33.7949 30.5341L57.487 16.7773C57.487 16.7773 57.9456 16.7773 57.9456 17.083V44.1379C57.9456 44.1379 57.9456 44.2907 57.9456 44.4435L33.9478 30.5341H33.7949Z" fill="#2C3E50"/>
<path fill-rule="evenodd" clip-rule="evenodd" d="M33.7949 30.5341L57.487 16.7773C57.487 16.7773 57.9456 16.7773 57.9456 17.083V44.1379C57.9456 44.1379 57.9456 44.2907 57.9456 44.4435L33.9478 30.5341H33.7949Z" fill="url(#paint2_linear_1_27506)"/>
<path fill-rule="evenodd" clip-rule="evenodd" d="M45.0892 33.793V38.6842V38.837L44.9363 38.9899L44.7835 39.1428L44.6306 39.2957H44.4778L30.4153 47.5496H30.2626H30.1097V47.7024H29.9568H29.804H29.6511H29.4983V47.8553H29.3454H29.1926H29.0397H28.8868V47.7024H28.734H28.5812H28.4283H28.2754V47.5496H28.1226H27.9698L21.0913 43.5755L20.9386 43.4226L20.7857 43.2697L20.6328 43.117V42.9641V42.8112V38.0728V38.2257V38.3785L20.7857 38.5313L20.9386 38.6842H21.0913V38.837L27.9698 42.6583V42.8112H28.1226H28.2754V42.9641H28.4283H28.5812H28.734H28.8868H29.0397H29.1926H29.3454H29.4983H29.6511H29.804H29.9568L30.1097 42.8112H30.2626H30.4153V42.6583L44.4778 34.5572H44.6306L44.7835 34.4044V34.2515H44.9363V34.0986H45.0892V33.9457V33.793Z" fill="#C8CFD4"/>
<path fill-rule="evenodd" clip-rule="evenodd" d="M45.0892 33.793V38.6842V38.837L44.9363 38.9899L44.7835 39.1428L44.6306 39.2957H44.4778L30.4153 47.5496H30.2626H30.1097V47.7024H29.9568H29.804H29.6511H29.4983V47.8553H29.3454H29.1926H29.0397H28.8868V47.7024H28.734H28.5812H28.4283H28.2754V47.5496H28.1226H27.9698L21.0913 43.5755L20.9386 43.4226L20.7857 43.2697L20.6328 43.117V42.9641V42.8112V38.0728V38.2257V38.3785L20.7857 38.5313L20.9386 38.6842H21.0913V38.837L27.9698 42.6583V42.8112H28.1226H28.2754V42.9641H28.4283H28.5812H28.734H28.8868H29.0397H29.1926H29.3454H29.4983H29.6511H29.804H29.9568L30.1097 42.8112H30.2626H30.4153V42.6583L44.4778 34.5572H44.6306L44.7835 34.4044V34.2515H44.9363V34.0986H45.0892V33.9457V33.793Z" fill="url(#paint3_linear_1_27506)"/>
<path fill-rule="evenodd" clip-rule="evenodd" d="M21.0916 37.2815L35.1541 29.1804C35.1541 29.1804 36.9883 28.7218 37.5997 29.1804L44.3252 33.1546C44.3252 33.1546 45.0895 34.2245 44.3252 34.5302L30.2628 42.6313C30.2628 42.6313 28.4286 43.0899 27.8172 42.6313L21.0916 38.6572C21.0916 38.6572 20.3274 37.5872 21.0916 37.2815Z" fill="#E6EAEB"/>
<path fill-rule="evenodd" clip-rule="evenodd" d="M21.0916 37.2815L35.1541 29.1804C35.1541 29.1804 36.9883 28.7218 37.5997 29.1804L44.3252 33.1546C44.3252 33.1546 45.0895 34.2245 44.3252 34.5302L30.2628 42.6313C30.2628 42.6313 28.4286 43.0899 27.8172 42.6313L21.0916 38.6572C21.0916 38.6572 20.3274 37.5872 21.0916 37.2815Z" fill="url(#paint4_linear_1_27506)"/>
<path fill-rule="evenodd" clip-rule="evenodd" d="M29.3496 35.418C29.3496 35.418 29.6553 36.6407 30.5725 37.2521C31.4896 37.7107 32.7124 38.0164 33.7823 38.0164L29.3496 35.418Z" fill="#27AE60"/>
<path fill-rule="evenodd" clip-rule="evenodd" d="M37.7549 37.1225C38.0606 36.2054 37.4492 34.9827 35.9207 34.2184C34.3921 33.3013 32.4051 32.9956 30.7237 33.1485H30.418C32.405 31.9256 34.2393 30.8556 36.2264 29.6328C36.5321 29.6328 36.8378 29.6328 37.1435 29.6328C39.2834 30.8556 41.5762 32.2313 43.7161 33.4541C44.0218 33.4541 44.0218 33.7598 43.7161 33.9127C41.7291 34.9826 39.8949 36.2055 37.9078 37.2754H37.602L37.7549 37.1225Z" fill="#27AE60"/>
<path fill-rule="evenodd" clip-rule="evenodd" d="M37.7549 37.1225C38.0606 36.2054 37.4492 34.9827 35.9207 34.2184C34.3921 33.3013 32.4051 32.9956 30.7237 33.1485H30.418C32.405 31.9256 34.2393 30.8556 36.2264 29.6328C36.5321 29.6328 36.8378 29.6328 37.1435 29.6328C39.2834 30.8556 41.5762 32.2313 43.7161 33.4541C44.0218 33.4541 44.0218 33.7598 43.7161 33.9127C41.7291 34.9826 39.8949 36.2055 37.9078 37.2754H37.602L37.7549 37.1225Z" fill="url(#paint5_linear_1_27506)"/>
<path fill-rule="evenodd" clip-rule="evenodd" d="M31.9453 33.9336C33.0153 33.9336 34.2381 34.0865 35.1552 34.6979C36.0723 35.1565 36.5308 35.9208 36.3779 36.5322L31.9453 33.9336Z" fill="#27AE60"/>
<path fill-rule="evenodd" clip-rule="evenodd" d="M31.9453 33.9336C33.0153 33.9336 34.2381 34.0865 35.1552 34.6979C36.0723 35.1565 36.5308 35.9208 36.3779 36.5322L31.9453 33.9336Z" fill="url(#paint6_linear_1_27506)"/>
<path fill-rule="evenodd" clip-rule="evenodd" d="M34.9976 38.6617C33.3162 38.8145 31.3292 38.5088 29.8007 37.5917C28.2721 36.6746 27.6607 35.6046 27.9664 34.6875H27.6606C25.6735 35.6046 23.8394 36.8274 21.8523 37.8974C21.5466 37.8974 21.6994 38.2031 21.8523 38.3559C23.9922 39.5787 26.285 40.9544 28.4249 42.1772C28.7306 42.1772 29.0363 42.3301 29.342 42.1772C31.3291 41.1073 33.1634 39.8844 35.1505 38.8145H34.8447L34.9976 38.6617Z" fill="#27AE60"/>
<path fill-rule="evenodd" clip-rule="evenodd" d="M41.1206 34.8455L42.9548 33.7755C42.9548 33.7755 42.9548 33.7755 42.9548 33.6226H42.802C42.802 33.6226 42.4963 33.4698 42.4963 33.6226L40.6621 34.6926C40.6621 34.6926 40.6621 34.6926 40.6621 34.8455H40.8149C40.8149 34.8455 41.1206 34.9983 41.1206 34.8455Z" fill="#E6EAEB"/>
<path fill-rule="evenodd" clip-rule="evenodd" d="M41.1206 34.8455L42.9548 33.7755C42.9548 33.7755 42.9548 33.7755 42.9548 33.6226H42.802C42.802 33.6226 42.4963 33.4698 42.4963 33.6226L40.6621 34.6926C40.6621 34.6926 40.6621 34.6926 40.6621 34.8455H40.8149C40.8149 34.8455 41.1206 34.9983 41.1206 34.8455Z" fill="url(#paint7_linear_1_27506)"/>
<path fill-rule="evenodd" clip-rule="evenodd" d="M35.2906 31.4509L37.1248 30.381C37.1248 30.381 37.1248 30.3809 37.1248 30.2281H36.972C36.972 30.2281 36.6663 30.0752 36.6663 30.2281L34.832 31.2981C34.832 31.2981 34.832 31.2981 34.832 31.4509H34.9849C34.9849 31.4509 35.2906 31.6038 35.2906 31.4509Z" fill="#E6EAEB"/>
<path fill-rule="evenodd" clip-rule="evenodd" d="M35.2906 31.4509L37.1248 30.381C37.1248 30.381 37.1248 30.3809 37.1248 30.2281H36.972C36.972 30.2281 36.6663 30.0752 36.6663 30.2281L34.832 31.2981C34.832 31.2981 34.832 31.2981 34.832 31.4509H34.9849C34.9849 31.4509 35.2906 31.6038 35.2906 31.4509Z" fill="url(#paint8_linear_1_27506)"/>
<path fill-rule="evenodd" clip-rule="evenodd" d="M39.5771 32.8241C39.5771 32.8241 40.0356 32.2128 39.5771 32.06C39.2714 31.9071 38.507 31.9071 38.2013 32.06C37.7428 32.2128 37.7428 32.6713 38.2013 32.8241C38.507 32.977 39.2714 32.977 39.5771 32.8241Z" fill="#E6EAEB"/>
<path fill-rule="evenodd" clip-rule="evenodd" d="M39.5771 32.8241C39.5771 32.8241 40.0356 32.2128 39.5771 32.06C39.2714 31.9071 38.507 31.9071 38.2013 32.06C37.7428 32.2128 37.7428 32.6713 38.2013 32.8241C38.507 32.977 39.2714 32.977 39.5771 32.8241Z" fill="url(#paint9_linear_1_27506)"/>
<path fill-rule="evenodd" clip-rule="evenodd" d="M30.869 40.6299L29.0347 41.6998H28.7289H28.5762V41.3942L30.4103 40.3242H30.7161H30.869V40.6299Z" fill="#E6EAEB"/>
<path fill-rule="evenodd" clip-rule="evenodd" d="M25.2264 37.4581L23.3921 38.5281H23.0865H22.9336V38.2224L24.7679 37.1523H25.0735H25.2264V37.4581Z" fill="#E6EAEB"/>
<path fill-rule="evenodd" clip-rule="evenodd" d="M27.5132 39.8671C27.5132 39.8671 26.4432 40.02 26.1375 39.8671C25.8318 39.7143 25.8318 39.2558 26.1375 39.1029C26.596 38.9501 27.2075 38.9501 27.5132 39.1029C27.8189 39.2558 27.8189 39.7143 27.5132 39.8671Z" fill="#E6EAEB"/>
<path fill-rule="evenodd" clip-rule="evenodd" d="M39.1354 37.596L35.7728 39.583L26.6016 34.2332L29.8116 32.2461L39.1354 37.596Z" fill="#E6EAEB"/>
<path fill-rule="evenodd" clip-rule="evenodd" d="M36.826 38.967L36.0617 39.4255L26.8906 34.0757L27.502 33.6172L36.826 38.967Z" fill="#F0B11D"/>
<path fill-rule="evenodd" clip-rule="evenodd" d="M37.1443 38.7732L37.4501 38.6204L37.7557 38.3146L28.5846 32.9648L28.1261 33.2705L27.8203 33.4234L37.1443 38.7732Z" fill="#F0B11D"/>
<path fill-rule="evenodd" clip-rule="evenodd" d="M37.1443 38.7732L37.4501 38.6204L37.7557 38.3146L28.5846 32.9648L28.1261 33.2705L27.8203 33.4234L37.1443 38.7732Z" fill="url(#paint10_linear_1_27506)"/>
<path fill-rule="evenodd" clip-rule="evenodd" d="M38.495 38.0535L38.1892 38.2063L28.8652 32.8564L29.171 32.7037L29.4767 32.5508L38.8006 37.9006L38.495 38.0535Z" fill="#F0B11D"/>
<path fill-rule="evenodd" clip-rule="evenodd" d="M38.495 38.0535L38.1892 38.2063L28.8652 32.8564L29.171 32.7037L29.4767 32.5508L38.8006 37.9006L38.495 38.0535Z" fill="url(#paint11_linear_1_27506)"/>
<path fill-rule="evenodd" clip-rule="evenodd" d="M45.0892 34.2109V34.3638V34.5166L44.9363 34.6695V34.8224H44.7835V34.9751H44.6306L44.4778 35.128L30.4153 43.2292L30.2626 43.382H30.1097H29.9568L29.804 43.5349H29.6511H29.4983H29.3454H29.1926H29.0397H28.8868H28.734H28.5812L28.4283 43.382H28.2754H28.1226L27.9698 43.2292L21.0913 39.4079V39.2551L20.9386 39.1022H20.7857V38.9493H20.6328V38.7964V38.6437V38.3379V38.4908V38.6437L20.7857 38.7964L20.9386 38.9493H21.0913V39.1022L27.9698 43.0764H28.1226L28.2754 43.2292H28.4283H28.5812H28.734H28.8868V43.382H29.0397H29.1926H29.3454H29.4983V43.2292H29.6511H29.804H29.9568H30.1097V43.0764H30.2626H30.4153L44.4778 34.8224H44.6306L44.7835 34.6695L44.9363 34.5166L45.0892 34.3638V34.2109Z" fill="#9EA4A8"/>
<path fill-rule="evenodd" clip-rule="evenodd" d="M45.0892 34.2109V34.3638V34.5166L44.9363 34.6695V34.8224H44.7835V34.9751H44.6306L44.4778 35.128L30.4153 43.2292L30.2626 43.382H30.1097H29.9568L29.804 43.5349H29.6511H29.4983H29.3454H29.1926H29.0397H28.8868H28.734H28.5812L28.4283 43.382H28.2754H28.1226L27.9698 43.2292L21.0913 39.4079V39.2551L20.9386 39.1022H20.7857V38.9493H20.6328V38.7964V38.6437V38.3379V38.4908V38.6437L20.7857 38.7964L20.9386 38.9493H21.0913V39.1022L27.9698 43.0764H28.1226L28.2754 43.2292H28.4283H28.5812H28.734H28.8868V43.382H29.0397H29.1926H29.3454H29.4983V43.2292H29.6511H29.804H29.9568H30.1097V43.0764H30.2626H30.4153L44.4778 34.8224H44.6306L44.7835 34.6695L44.9363 34.5166L45.0892 34.3638V34.2109Z" fill="url(#paint12_linear_1_27506)"/>
<path fill-rule="evenodd" clip-rule="evenodd" d="M45.0892 34.6875V34.9932V35.146L44.9363 35.2989L44.7835 35.4518L44.6306 35.6046L44.4778 35.7575L30.4153 43.8586H30.2626L30.1097 44.0115H29.9568H29.804H29.6511V44.1644H29.4983H29.3454H29.1926H29.0397H28.8868H28.734V44.0115H28.5812H28.4283H28.2754H28.1226V43.8586H27.9698L21.0913 39.8844L20.9386 39.7316H20.7857V39.5788L20.6328 39.4259V39.2731V39.1202V38.9673V39.1202V39.2731H20.7857V39.4259L20.9386 39.5788H21.0913V39.7316L27.9698 43.5529L28.1226 43.7057H28.2754L28.4283 43.8586H28.5812H28.734H28.8868H29.0397H29.1926H29.3454H29.4983H29.6511H29.804H29.9568V43.7057H30.1097H30.2626L30.4153 43.5529L44.4778 35.4518L44.6306 35.2989H44.7835V35.146H44.9363V34.9932H45.0892V34.8404V34.6875Z" fill="#9EA4A8"/>
<path fill-rule="evenodd" clip-rule="evenodd" d="M45.0892 34.6875V34.9932V35.146L44.9363 35.2989L44.7835 35.4518L44.6306 35.6046L44.4778 35.7575L30.4153 43.8586H30.2626L30.1097 44.0115H29.9568H29.804H29.6511V44.1644H29.4983H29.3454H29.1926H29.0397H28.8868H28.734V44.0115H28.5812H28.4283H28.2754H28.1226V43.8586H27.9698L21.0913 39.8844L20.9386 39.7316H20.7857V39.5788L20.6328 39.4259V39.2731V39.1202V38.9673V39.1202V39.2731H20.7857V39.4259L20.9386 39.5788H21.0913V39.7316L27.9698 43.5529L28.1226 43.7057H28.2754L28.4283 43.8586H28.5812H28.734H28.8868H29.0397H29.1926H29.3454H29.4983H29.6511H29.804H29.9568V43.7057H30.1097H30.2626L30.4153 43.5529L44.4778 35.4518L44.6306 35.2989H44.7835V35.146H44.9363V34.9932H45.0892V34.8404V34.6875Z" fill="url(#paint13_linear_1_27506)"/>
<path fill-rule="evenodd" clip-rule="evenodd" d="M55.4719 39.8828V44.6213V44.7741V44.927L55.3192 45.0798L55.1663 45.2327L55.0134 45.3855L40.7981 53.4868V53.6395H40.6454H40.4925H40.3396V53.7924H40.1867H40.034H39.8811H39.7282H39.5754H39.4225H39.2697H39.1168H38.964L38.8111 53.6395H38.6582H38.5055L38.3526 53.4868L31.627 49.5126H31.4742L31.3214 49.3597L31.1685 49.2068L31.0156 49.054V48.9011V44.0099V44.1628V44.3155H31.1685V44.4684L31.3214 44.6213L31.4742 44.7741H31.627L38.3526 48.7483H38.5055L38.6582 48.9011H38.8111H38.964H39.1168V49.054H39.2697H39.4225H39.5754H39.7282H39.8811H40.034L40.1867 48.9011H40.3396H40.4925H40.6454V48.7483H40.7981L55.0134 40.6471V40.4942L55.1663 40.3415H55.3192V40.1886H55.4719V40.0357V39.8828Z" fill="#C8CFD4"/>
<path fill-rule="evenodd" clip-rule="evenodd" d="M55.4719 39.8828V44.6213V44.7741V44.927L55.3192 45.0798L55.1663 45.2327L55.0134 45.3855L40.7981 53.4868V53.6395H40.6454H40.4925H40.3396V53.7924H40.1867H40.034H39.8811H39.7282H39.5754H39.4225H39.2697H39.1168H38.964L38.8111 53.6395H38.6582H38.5055L38.3526 53.4868L31.627 49.5126H31.4742L31.3214 49.3597L31.1685 49.2068L31.0156 49.054V48.9011V44.0099V44.1628V44.3155H31.1685V44.4684L31.3214 44.6213L31.4742 44.7741H31.627L38.3526 48.7483H38.5055L38.6582 48.9011H38.8111H38.964H39.1168V49.054H39.2697H39.4225H39.5754H39.7282H39.8811H40.034L40.1867 48.9011H40.3396H40.4925H40.6454V48.7483H40.7981L55.0134 40.6471V40.4942L55.1663 40.3415H55.3192V40.1886H55.4719V40.0357V39.8828Z" fill="url(#paint14_linear_1_27506)"/>
<path fill-rule="evenodd" clip-rule="evenodd" d="M31.6502 43.4065L45.7126 35.3054C45.7126 35.3054 47.5469 34.8468 48.1583 35.3054L54.8838 39.2796C54.8838 39.2796 55.6481 40.3495 54.8838 40.6552L40.8213 48.7563C40.8213 48.7563 38.9872 49.2149 38.3757 48.7563L31.6502 44.7821C31.6502 44.7821 30.886 43.7122 31.6502 43.4065Z" fill="#E6EAEB"/>
<path fill-rule="evenodd" clip-rule="evenodd" d="M31.6502 43.4065L45.7126 35.3054C45.7126 35.3054 47.5469 34.8468 48.1583 35.3054L54.8838 39.2796C54.8838 39.2796 55.6481 40.3495 54.8838 40.6552L40.8213 48.7563C40.8213 48.7563 38.9872 49.2149 38.3757 48.7563L31.6502 44.7821C31.6502 44.7821 30.886 43.7122 31.6502 43.4065Z" fill="url(#paint15_linear_1_27506)"/>
<path fill-rule="evenodd" clip-rule="evenodd" d="M39.7637 41.4531C39.7637 41.4531 40.0694 42.6759 40.9865 43.2873C41.9036 43.7458 43.1264 44.0516 44.1964 44.0516L39.7637 41.4531Z" fill="#27AE60"/>
<path fill-rule="evenodd" clip-rule="evenodd" d="M48.169 43.271C48.4747 42.3539 47.8632 41.1311 46.3347 40.3669C44.8062 39.4497 42.8192 39.144 41.1378 39.2969H40.832C42.8191 38.0741 44.6534 37.0041 46.6405 35.7812C46.9462 35.7812 47.2519 35.7812 47.5576 35.7812C49.6975 37.0041 51.9903 38.3797 54.1302 39.6026C54.4359 39.6026 54.4359 39.9082 54.1302 40.0611C52.1431 41.1311 50.3089 42.3539 48.3219 43.4239H48.0161L48.169 43.271Z" fill="#27AE60"/>
<path fill-rule="evenodd" clip-rule="evenodd" d="M48.169 43.271C48.4747 42.3539 47.8632 41.1311 46.3347 40.3669C44.8062 39.4497 42.8192 39.144 41.1378 39.2969H40.832C42.8191 38.0741 44.6534 37.0041 46.6405 35.7812C46.9462 35.7812 47.2519 35.7812 47.5576 35.7812C49.6975 37.0041 51.9903 38.3797 54.1302 39.6026C54.4359 39.6026 54.4359 39.9082 54.1302 40.0611C52.1431 41.1311 50.3089 42.3539 48.3219 43.4239H48.0161L48.169 43.271Z" fill="url(#paint16_linear_1_27506)"/>
<path fill-rule="evenodd" clip-rule="evenodd" d="M42.5176 39.8828C43.5875 39.8828 44.8103 40.0357 45.7275 40.6471C46.6446 41.1057 47.1032 41.87 46.9503 42.4814L42.5176 39.8828Z" fill="#27AE60"/>
<path fill-rule="evenodd" clip-rule="evenodd" d="M42.5176 39.8828C43.5875 39.8828 44.8103 40.0357 45.7275 40.6471C46.6446 41.1057 47.1032 41.87 46.9503 42.4814L42.5176 39.8828Z" fill="url(#paint17_linear_1_27506)"/>
<path fill-rule="evenodd" clip-rule="evenodd" d="M45.4194 44.8256C43.7381 44.9785 41.7509 44.6728 40.2224 43.7557C38.6939 42.8386 38.0826 41.7687 38.3883 40.8516H38.0825C36.0954 41.7687 34.2612 42.9915 32.2742 44.0614C31.9685 44.0614 32.1213 44.3671 32.2742 44.52C34.4141 45.7428 36.7069 47.1185 38.8468 48.3413C39.1525 48.3413 39.4582 48.4941 39.7639 48.3413C41.7509 47.2713 43.5852 46.0485 45.5723 44.9785H45.2666L45.4194 44.8256Z" fill="#27AE60"/>
<path fill-rule="evenodd" clip-rule="evenodd" d="M51.5347 40.822L53.3689 39.7521C53.3689 39.7521 53.3689 39.752 53.3689 39.5992H53.2161C53.2161 39.5992 52.9103 39.4463 52.9103 39.5992L51.0762 40.6691C51.0762 40.6691 51.0762 40.6692 51.0762 40.822H51.2289C51.2289 40.822 51.5347 40.9749 51.5347 40.822Z" fill="#E6EAEB"/>
<path fill-rule="evenodd" clip-rule="evenodd" d="M51.5347 40.822L53.3689 39.7521C53.3689 39.7521 53.3689 39.752 53.3689 39.5992H53.2161C53.2161 39.5992 52.9103 39.4463 52.9103 39.5992L51.0762 40.6691C51.0762 40.6691 51.0762 40.6692 51.0762 40.822H51.2289C51.2289 40.822 51.5347 40.9749 51.5347 40.822Z" fill="url(#paint18_linear_1_27506)"/>
<path fill-rule="evenodd" clip-rule="evenodd" d="M45.7105 37.5994L47.5448 36.5294C47.5448 36.5294 47.5448 36.5294 47.5448 36.3765H47.3919C47.3919 36.3765 47.0862 36.2237 47.0862 36.3765L45.252 37.4465C45.252 37.4465 45.252 37.4465 45.252 37.5994H45.4048C45.4048 37.5994 45.7105 37.7522 45.7105 37.5994Z" fill="#E6EAEB"/>
<path fill-rule="evenodd" clip-rule="evenodd" d="M45.7105 37.5994L47.5448 36.5294C47.5448 36.5294 47.5448 36.5294 47.5448 36.3765H47.3919C47.3919 36.3765 47.0862 36.2237 47.0862 36.3765L45.252 37.4465C45.252 37.4465 45.252 37.4465 45.252 37.5994H45.4048C45.4048 37.5994 45.7105 37.7522 45.7105 37.5994Z" fill="url(#paint19_linear_1_27506)"/>
<path fill-rule="evenodd" clip-rule="evenodd" d="M49.9933 38.8632C49.9933 38.8632 50.4518 38.2519 49.9933 38.099C49.6876 37.9462 48.9232 37.9462 48.6175 38.099C48.3118 38.2519 48.159 38.7104 48.6175 38.8632C48.9232 39.0161 49.6876 39.0161 49.9933 38.8632Z" fill="#E6EAEB"/>
<path fill-rule="evenodd" clip-rule="evenodd" d="M49.9933 38.8632C49.9933 38.8632 50.4518 38.2519 49.9933 38.099C49.6876 37.9462 48.9232 37.9462 48.6175 38.099C48.3118 38.2519 48.159 38.7104 48.6175 38.8632C48.9232 39.0161 49.6876 39.0161 49.9933 38.8632Z" fill="url(#paint20_linear_1_27506)"/>
<path fill-rule="evenodd" clip-rule="evenodd" d="M41.4276 46.755L39.5934 47.8249H39.2877H39.1348V47.5192L40.969 46.4492H41.2748H41.4276V46.755Z" fill="#E6EAEB"/>
<path fill-rule="evenodd" clip-rule="evenodd" d="M35.6405 43.4189L33.8062 44.4889H33.5005H33.3477V44.1832L35.1819 43.1133H35.4876H35.6405V43.4189Z" fill="#E6EAEB"/>
<path fill-rule="evenodd" clip-rule="evenodd" d="M37.9351 45.8431C37.9351 45.8431 36.8651 45.996 36.5594 45.8431C36.2537 45.6903 36.2537 45.2317 36.5594 45.0788C37.0179 44.926 37.6294 44.7731 37.9351 45.0788C38.2408 45.2317 38.2408 45.6903 37.9351 45.8431Z" fill="#E6EAEB"/>
<path fill-rule="evenodd" clip-rule="evenodd" d="M49.5475 43.7482L46.3377 45.5825L37.0137 40.2327L40.3764 38.3984L49.5475 43.7482Z" fill="#E6EAEB"/>
<path fill-rule="evenodd" clip-rule="evenodd" d="M47.2577 45.131L46.6462 45.4367L37.3223 40.0869L37.9337 39.7812L47.2577 45.131Z" fill="#F0B11D"/>
<path fill-rule="evenodd" clip-rule="evenodd" d="M47.5637 44.7844L48.0222 44.6316L48.328 44.4787L39.004 39.1289L38.6982 39.2818L38.3926 39.4346L47.5637 44.7844Z" fill="#F0B11D"/>
<path fill-rule="evenodd" clip-rule="evenodd" d="M47.5637 44.7844L48.0222 44.6316L48.328 44.4787L39.004 39.1289L38.6982 39.2818L38.3926 39.4346L47.5637 44.7844Z" fill="url(#paint21_linear_1_27506)"/>
<path fill-rule="evenodd" clip-rule="evenodd" d="M48.9149 44.0144L48.6091 44.3201L39.2852 38.9703L39.5909 38.6646L40.0495 38.5117L49.2206 43.8615L48.9149 44.0144Z" fill="#F0B11D"/>
<path fill-rule="evenodd" clip-rule="evenodd" d="M48.9149 44.0144L48.6091 44.3201L39.2852 38.9703L39.5909 38.6646L40.0495 38.5117L49.2206 43.8615L48.9149 44.0144Z" fill="url(#paint22_linear_1_27506)"/>
<path fill-rule="evenodd" clip-rule="evenodd" d="M55.4719 40.1953V40.501V40.6538V40.8067H55.3192V40.9595H55.1663V41.1124H55.0134L40.7981 49.3664H40.6454L40.4925 49.5193H40.3396H40.1867H40.034H39.8811V49.6722H39.7282H39.5754H39.4225L39.2697 49.5193H39.1168H38.964H38.8111H38.6582V49.3664H38.5055H38.3526L31.627 45.3922H31.4742L31.3214 45.2395V45.0866H31.1685V44.9337H31.0156V44.7808V44.628V44.4752V44.628L31.1685 44.7808L31.3214 44.9337L31.4742 45.0866H31.627L38.3526 49.0608L38.5055 49.2135H38.6582H38.8111L38.964 49.3664H39.1168H39.2697H39.4225H39.5754H39.7282H39.8811H40.034H40.1867H40.3396V49.2135H40.4925H40.6454H40.7981V49.0608L55.0134 40.9595V40.8067H55.1663L55.3192 40.6538L55.4719 40.501V40.3482V40.1953Z" fill="#9EA4A8"/>
<path fill-rule="evenodd" clip-rule="evenodd" d="M55.4719 40.1953V40.501V40.6538V40.8067H55.3192V40.9595H55.1663V41.1124H55.0134L40.7981 49.3664H40.6454L40.4925 49.5193H40.3396H40.1867H40.034H39.8811V49.6722H39.7282H39.5754H39.4225L39.2697 49.5193H39.1168H38.964H38.8111H38.6582V49.3664H38.5055H38.3526L31.627 45.3922H31.4742L31.3214 45.2395V45.0866H31.1685V44.9337H31.0156V44.7808V44.628V44.4752V44.628L31.1685 44.7808L31.3214 44.9337L31.4742 45.0866H31.627L38.3526 49.0608L38.5055 49.2135H38.6582H38.8111L38.964 49.3664H39.1168H39.2697H39.4225H39.5754H39.7282H39.8811H40.034H40.1867H40.3396V49.2135H40.4925H40.6454H40.7981V49.0608L55.0134 40.9595V40.8067H55.1663L55.3192 40.6538L55.4719 40.501V40.3482V40.1953Z" fill="url(#paint23_linear_1_27506)"/>
<path fill-rule="evenodd" clip-rule="evenodd" d="M55.4719 40.7734V40.9262V41.0791V41.232L55.3192 41.3849L55.1663 41.5376L55.0134 41.6905L40.7981 49.7917V49.9445H40.6454H40.4925L40.3396 50.0974H40.1867H40.034H39.8811H39.7282H39.5754H39.4225H39.2697H39.1168H38.964H38.8111V49.9445H38.6582H38.5055L38.3526 49.7917L31.627 45.9704L31.4742 45.8176H31.3214V45.6647L31.1685 45.5118L31.0156 45.3589V45.2062V44.9004V45.0533V45.2062H31.1685V45.3589H31.3214V45.5118L31.4742 45.6647H31.627L38.3526 49.6389H38.5055L38.6582 49.7917H38.8111H38.964H39.1168L39.2697 49.9445H39.4225H39.5754H39.7282H39.8811L40.034 49.7917H40.1867H40.3396H40.4925H40.6454V49.6389H40.7981L55.0134 41.3849H55.1663V41.232H55.3192V41.0791H55.4719V40.9262V40.7734Z" fill="#9EA4A8"/>
<path fill-rule="evenodd" clip-rule="evenodd" d="M55.4719 40.7734V40.9262V41.0791V41.232L55.3192 41.3849L55.1663 41.5376L55.0134 41.6905L40.7981 49.7917V49.9445H40.6454H40.4925L40.3396 50.0974H40.1867H40.034H39.8811H39.7282H39.5754H39.4225H39.2697H39.1168H38.964H38.8111V49.9445H38.6582H38.5055L38.3526 49.7917L31.627 45.9704L31.4742 45.8176H31.3214V45.6647L31.1685 45.5118L31.0156 45.3589V45.2062V44.9004V45.0533V45.2062H31.1685V45.3589H31.3214V45.5118L31.4742 45.6647H31.627L38.3526 49.6389H38.5055L38.6582 49.7917H38.8111H38.964H39.1168L39.2697 49.9445H39.4225H39.5754H39.7282H39.8811L40.034 49.7917H40.1867H40.3396H40.4925H40.6454V49.6389H40.7981L55.0134 41.3849H55.1663V41.232H55.3192V41.0791H55.4719V40.9262V40.7734Z" fill="url(#paint24_linear_1_27506)"/>
<path fill-rule="evenodd" clip-rule="evenodd" d="M55.4719 41.2656V41.5713V41.7242V41.877H55.3192V42.0299L55.1663 42.1827L55.0134 42.3356L40.7981 50.4367L40.6454 50.5896H40.4925H40.3396H40.1867V50.7425H40.034H39.8811H39.7282H39.5754H39.4225H39.2697H39.1168L38.964 50.5896H38.8111H38.6582H38.5055V50.4367H38.3526L31.627 46.4625H31.4742L31.3214 46.3098L31.1685 46.1569V46.004H31.0156V45.8512V45.6983V45.5455V45.6983L31.1685 45.8512L31.3214 46.004V46.1569H31.4742L31.627 46.3098L38.3526 50.1311V50.2838H38.5055H38.6582H38.8111V50.4367H38.964H39.1168H39.2697H39.4225H39.5754H39.7282H39.8811H40.034H40.1867H40.3396L40.4925 50.2838H40.6454H40.7981V50.1311L55.0134 42.0299H55.1663V41.877L55.3192 41.7242L55.4719 41.5713V41.4185V41.2656Z" fill="#9EA4A8"/>
<path fill-rule="evenodd" clip-rule="evenodd" d="M55.4719 41.2656V41.5713V41.7242V41.877H55.3192V42.0299L55.1663 42.1827L55.0134 42.3356L40.7981 50.4367L40.6454 50.5896H40.4925H40.3396H40.1867V50.7425H40.034H39.8811H39.7282H39.5754H39.4225H39.2697H39.1168L38.964 50.5896H38.8111H38.6582H38.5055V50.4367H38.3526L31.627 46.4625H31.4742L31.3214 46.3098L31.1685 46.1569V46.004H31.0156V45.8512V45.6983V45.5455V45.6983L31.1685 45.8512L31.3214 46.004V46.1569H31.4742L31.627 46.3098L38.3526 50.1311V50.2838H38.5055H38.6582H38.8111V50.4367H38.964H39.1168H39.2697H39.4225H39.5754H39.7282H39.8811H40.034H40.1867H40.3396L40.4925 50.2838H40.6454H40.7981V50.1311L55.0134 42.0299H55.1663V41.877L55.3192 41.7242L55.4719 41.5713V41.4185V41.2656Z" fill="url(#paint25_linear_1_27506)"/>
<path fill-rule="evenodd" clip-rule="evenodd" d="M55.4719 41.8711V42.024V42.1767V42.3296L55.3192 42.4825V42.6353H55.1663V42.7882H55.0134L40.7981 50.8893V51.0422H40.6454L40.4925 51.1951H40.3396H40.1867H40.034H39.8811H39.7282H39.5754H39.4225H39.2697H39.1168H38.964H38.8111H38.6582V51.0422H38.5055H38.3526V50.8893L31.627 47.068L31.4742 46.9152H31.3214V46.7624H31.1685V46.6095L31.0156 46.4566V46.3038V46.1509V46.3038H31.1685V46.4566L31.3214 46.6095L31.4742 46.7624H31.627L38.3526 50.7365H38.5055V50.8893H38.6582H38.8111H38.964V51.0422H39.1168H39.2697H39.4225H39.5754H39.7282H39.8811H40.034H40.1867L40.3396 50.8893H40.4925H40.6454L40.7981 50.7365L55.0134 42.6353L55.1663 42.4825L55.3192 42.3296V42.1767H55.4719V42.024V41.8711Z" fill="#9EA4A8"/>
<path fill-rule="evenodd" clip-rule="evenodd" d="M55.4719 41.8711V42.024V42.1767V42.3296L55.3192 42.4825V42.6353H55.1663V42.7882H55.0134L40.7981 50.8893V51.0422H40.6454L40.4925 51.1951H40.3396H40.1867H40.034H39.8811H39.7282H39.5754H39.4225H39.2697H39.1168H38.964H38.8111H38.6582V51.0422H38.5055H38.3526V50.8893L31.627 47.068L31.4742 46.9152H31.3214V46.7624H31.1685V46.6095L31.0156 46.4566V46.3038V46.1509V46.3038H31.1685V46.4566L31.3214 46.6095L31.4742 46.7624H31.627L38.3526 50.7365H38.5055V50.8893H38.6582H38.8111H38.964V51.0422H39.1168H39.2697H39.4225H39.5754H39.7282H39.8811H40.034H40.1867L40.3396 50.8893H40.4925H40.6454L40.7981 50.7365L55.0134 42.6353L55.1663 42.4825L55.3192 42.3296V42.1767H55.4719V42.024V41.8711Z" fill="url(#paint26_linear_1_27506)"/>
<path fill-rule="evenodd" clip-rule="evenodd" d="M55.4719 42.5234V42.6762V42.8291V42.982L55.3192 43.1349L55.1663 43.2876L55.0134 43.4405L40.7981 51.5417V51.6945H40.6454H40.4925H40.3396V51.8474H40.1867H40.034H39.8811H39.7282H39.5754H39.4225H39.2697H39.1168H38.964L38.8111 51.6945H38.6582H38.5055L38.3526 51.5417L31.627 47.5675H31.4742L31.3214 47.4147L31.1685 47.2618L31.0156 47.1089V46.9562V46.6504V46.8033L31.1685 46.9562V47.1089H31.3214V47.2618H31.4742L31.627 47.4147L38.3526 51.3888H38.5055H38.6582V51.5417H38.8111H38.964H39.1168H39.2697H39.4225H39.5754H39.7282H39.8811H40.034H40.1867H40.3396H40.4925L40.6454 51.3888H40.7981L55.0134 43.1349H55.1663V42.982H55.3192V42.8291L55.4719 42.6762V42.5234Z" fill="#9EA4A8"/>
<path fill-rule="evenodd" clip-rule="evenodd" d="M55.4719 42.5234V42.6762V42.8291V42.982L55.3192 43.1349L55.1663 43.2876L55.0134 43.4405L40.7981 51.5417V51.6945H40.6454H40.4925H40.3396V51.8474H40.1867H40.034H39.8811H39.7282H39.5754H39.4225H39.2697H39.1168H38.964L38.8111 51.6945H38.6582H38.5055L38.3526 51.5417L31.627 47.5675H31.4742L31.3214 47.4147L31.1685 47.2618L31.0156 47.1089V46.9562V46.6504V46.8033L31.1685 46.9562V47.1089H31.3214V47.2618H31.4742L31.627 47.4147L38.3526 51.3888H38.5055H38.6582V51.5417H38.8111H38.964H39.1168H39.2697H39.4225H39.5754H39.7282H39.8811H40.034H40.1867H40.3396H40.4925L40.6454 51.3888H40.7981L55.0134 43.1349H55.1663V42.982H55.3192V42.8291L55.4719 42.6762V42.5234Z" fill="url(#paint27_linear_1_27506)"/>
<path fill-rule="evenodd" clip-rule="evenodd" d="M55.4719 42.9375V43.2432V43.396V43.5489H55.3192V43.7017H55.1663V43.8546H55.0134L40.7981 52.1086H40.6454V52.2615H40.4925H40.3396H40.1867H40.034L39.8811 52.4143H39.7282H39.5754H39.4225H39.2697L39.1168 52.2615H38.964H38.8111H38.6582L38.5055 52.1086H38.3526L31.627 48.1344H31.4742L31.3214 47.9816V47.8288H31.1685V47.6759H31.0156V47.523V47.3702V47.2173V47.3702L31.1685 47.523L31.3214 47.6759L31.4742 47.8288L31.627 47.9816L38.3526 51.8029L38.5055 51.9557H38.6582H38.8111L38.964 52.1086H39.1168H39.2697H39.4225H39.5754H39.7282H39.8811H40.034H40.1867H40.3396V51.9557H40.4925H40.6454H40.7981V51.8029L55.0134 43.7017L55.1663 43.5489L55.3192 43.396L55.4719 43.2432V43.0904V42.9375Z" fill="#9EA4A8"/>
<path fill-rule="evenodd" clip-rule="evenodd" d="M55.4719 42.9375V43.2432V43.396V43.5489H55.3192V43.7017H55.1663V43.8546H55.0134L40.7981 52.1086H40.6454V52.2615H40.4925H40.3396H40.1867H40.034L39.8811 52.4143H39.7282H39.5754H39.4225H39.2697L39.1168 52.2615H38.964H38.8111H38.6582L38.5055 52.1086H38.3526L31.627 48.1344H31.4742L31.3214 47.9816V47.8288H31.1685V47.6759H31.0156V47.523V47.3702V47.2173V47.3702L31.1685 47.523L31.3214 47.6759L31.4742 47.8288L31.627 47.9816L38.3526 51.8029L38.5055 51.9557H38.6582H38.8111L38.964 52.1086H39.1168H39.2697H39.4225H39.5754H39.7282H39.8811H40.034H40.1867H40.3396V51.9557H40.4925H40.6454H40.7981V51.8029L55.0134 43.7017L55.1663 43.5489L55.3192 43.396L55.4719 43.2432V43.0904V42.9375Z" fill="url(#paint28_linear_1_27506)"/>
<path fill-rule="evenodd" clip-rule="evenodd" d="M55.4719 43.5312V43.684V43.8369V43.9898L55.3192 44.1427L55.1663 44.2954V44.4483H55.0134L40.7981 52.5495V52.7023H40.6454H40.4925L40.3396 52.8552H40.1867H40.034H39.8811H39.7282H39.5754H39.4225H39.2697H39.1168H38.964H38.8111V52.7023H38.6582H38.5055H38.3526V52.5495L31.627 48.7282L31.4742 48.5753H31.3214V48.4225H31.1685V48.2696L31.0156 48.1167V47.964V47.6582V47.8111V47.964H31.1685V48.1167L31.3214 48.2696L31.4742 48.4225H31.627L38.3526 52.3966H38.5055L38.6582 52.5495H38.8111H38.964H39.1168V52.7023H39.2697H39.4225H39.5754H39.7282H39.8811H40.034L40.1867 52.5495H40.3396H40.4925H40.6454V52.3966H40.7981L55.0134 44.2954L55.1663 44.1427V43.9898H55.3192V43.8369H55.4719V43.684V43.5312Z" fill="#9EA4A8"/>
<path fill-rule="evenodd" clip-rule="evenodd" d="M55.4719 43.5312V43.684V43.8369V43.9898L55.3192 44.1427L55.1663 44.2954V44.4483H55.0134L40.7981 52.5495V52.7023H40.6454H40.4925L40.3396 52.8552H40.1867H40.034H39.8811H39.7282H39.5754H39.4225H39.2697H39.1168H38.964H38.8111V52.7023H38.6582H38.5055H38.3526V52.5495L31.627 48.7282L31.4742 48.5753H31.3214V48.4225H31.1685V48.2696L31.0156 48.1167V47.964V47.6582V47.8111V47.964H31.1685V48.1167L31.3214 48.2696L31.4742 48.4225H31.627L38.3526 52.3966H38.5055L38.6582 52.5495H38.8111H38.964H39.1168V52.7023H39.2697H39.4225H39.5754H39.7282H39.8811H40.034L40.1867 52.5495H40.3396H40.4925H40.6454V52.3966H40.7981L55.0134 44.2954L55.1663 44.1427V43.9898H55.3192V43.8369H55.4719V43.684V43.5312Z" fill="url(#paint29_linear_1_27506)"/>
<path fill-rule="evenodd" clip-rule="evenodd" d="M55.4719 44.0078V44.3135V44.4663V44.6192H55.3192V44.772L55.1663 44.9249L55.0134 45.0778L40.7981 53.1789L40.6454 53.3318H40.4925H40.3396L40.1867 53.4847H40.034H39.8811H39.7282H39.5754H39.4225H39.2697H39.1168H38.964V53.3318H38.8111H38.6582H38.5055V53.1789H38.3526L31.627 49.2047H31.4742L31.3214 49.052L31.1685 48.8991V48.7462H31.0156V48.5933V48.2877V48.4405L31.1685 48.5933V48.7462H31.3214V48.8991H31.4742L31.627 49.052L38.3526 52.8733V53.026H38.5055H38.6582L38.8111 53.1789H38.964H39.1168H39.2697H39.4225H39.5754H39.7282H39.8811H40.034H40.1867H40.3396H40.4925V53.026H40.6454H40.7981V52.8733L55.0134 44.772H55.1663V44.6192L55.3192 44.4663L55.4719 44.3135V44.1607V44.0078Z" fill="#9EA4A8"/>
<path fill-rule="evenodd" clip-rule="evenodd" d="M55.4719 44.0078V44.3135V44.4663V44.6192H55.3192V44.772L55.1663 44.9249L55.0134 45.0778L40.7981 53.1789L40.6454 53.3318H40.4925H40.3396L40.1867 53.4847H40.034H39.8811H39.7282H39.5754H39.4225H39.2697H39.1168H38.964V53.3318H38.8111H38.6582H38.5055V53.1789H38.3526L31.627 49.2047H31.4742L31.3214 49.052L31.1685 48.8991V48.7462H31.0156V48.5933V48.2877V48.4405L31.1685 48.5933V48.7462H31.3214V48.8991H31.4742L31.627 49.052L38.3526 52.8733V53.026H38.5055H38.6582L38.8111 53.1789H38.964H39.1168H39.2697H39.4225H39.5754H39.7282H39.8811H40.034H40.1867H40.3396H40.4925V53.026H40.6454H40.7981V52.8733L55.0134 44.772H55.1663V44.6192L55.3192 44.4663L55.4719 44.3135V44.1607V44.0078Z" fill="url(#paint30_linear_1_27506)"/>
<path fill-rule="evenodd" clip-rule="evenodd" d="M57.9292 55.3328L60.9862 53.4987V53.3458L60.8335 53.1929V53.04H60.6806V52.8873L60.5277 52.7344L57.4707 54.5686L57.6236 54.7214L57.7764 54.8743V55.0272L57.9292 55.1799V55.3328Z" fill="#3D566E"/>
<path fill-rule="evenodd" clip-rule="evenodd" d="M57.9292 55.3328L60.9862 53.4987V53.3458L60.8335 53.1929V53.04H60.6806V52.8873L60.5277 52.7344L57.4707 54.5686L57.6236 54.7214L57.7764 54.8743V55.0272L57.9292 55.1799V55.3328Z" fill="url(#paint31_linear_1_27506)"/>
<path fill-rule="evenodd" clip-rule="evenodd" d="M57.4853 54.5687L60.5423 52.7344L27.9848 33.9336L24.9277 35.7679L57.4853 54.5687Z" fill="#34485C"/>
<path fill-rule="evenodd" clip-rule="evenodd" d="M57.4853 54.5687L60.5423 52.7344L27.9848 33.9336L24.9277 35.7679L57.4853 54.5687Z" fill="url(#paint32_linear_1_27506)"/>
<path fill-rule="evenodd" clip-rule="evenodd" d="M57.9434 82.2401L61.0004 80.5587V79.6416V78.8773V78.113V77.1959V76.4317V75.6674V74.7503V73.986V73.2217V72.3046V71.5403V70.7761V69.8591V69.0948V68.1777V67.4134V66.6491V65.732V64.9678V64.0506V63.1335V62.3692V61.4522V60.6879V59.7708V58.8537V57.9365V57.1723V56.2551V55.3381V54.421V53.5039L57.9434 55.3381V56.2551V57.0194V57.9365V58.8537V59.7708V60.6879V61.605V62.3692V63.2864V64.0506V64.9678V65.8849V66.6491V67.5663V68.3305V69.2476V70.0118V70.7761V71.6932V72.4575V73.3746V74.1389V74.9031V75.8203V76.5845V77.3488V78.2659V79.0302V79.7944V80.7116V81.4757V82.2401Z" fill="#3D566E"/>
<path fill-rule="evenodd" clip-rule="evenodd" d="M57.9434 82.2401L61.0004 80.5587V79.6416V78.8773V78.113V77.1959V76.4317V75.6674V74.7503V73.986V73.2217V72.3046V71.5403V70.7761V69.8591V69.0948V68.1777V67.4134V66.6491V65.732V64.9678V64.0506V63.1335V62.3692V61.4522V60.6879V59.7708V58.8537V57.9365V57.1723V56.2551V55.3381V54.421V53.5039L57.9434 55.3381V56.2551V57.0194V57.9365V58.8537V59.7708V60.6879V61.605V62.3692V63.2864V64.0506V64.9678V65.8849V66.6491V67.5663V68.3305V69.2476V70.0118V70.7761V71.6932V72.4575V73.3746V74.1389V74.9031V75.8203V76.5845V77.3488V78.2659V79.0302V79.7944V80.7116V81.4757V82.2401Z" fill="url(#paint33_linear_1_27506)"/>
<path fill-rule="evenodd" clip-rule="evenodd" d="M57.9239 55.3463C57.9239 55.3463 57.771 54.735 57.4653 54.5821L24.9078 35.7813C24.9078 35.7813 24.4492 35.7812 24.4492 36.0869V63.1418C24.4492 63.1418 24.6021 63.7531 24.9078 63.906L57.4653 82.7068C57.4653 82.7068 57.9239 82.7069 57.9239 82.4012V55.3463Z" fill="#2C3E50"/>
<path fill-rule="evenodd" clip-rule="evenodd" d="M57.9239 55.3463C57.9239 55.3463 57.771 54.735 57.4653 54.5821L24.9078 35.7813C24.9078 35.7813 24.4492 35.7812 24.4492 36.0869V63.1418C24.4492 63.1418 24.6021 63.7531 24.9078 63.906L57.4653 82.7068C57.4653 82.7068 57.9239 82.7069 57.9239 82.4012V55.3463Z" fill="url(#paint34_linear_1_27506)"/>
<path fill-rule="evenodd" clip-rule="evenodd" d="M38.6621 54.7218L40.1906 53.8047H40.3435L40.4964 53.9576H40.6493H40.802L40.9549 54.1103L41.1078 54.2632H41.2607L41.7192 54.569L42.1778 54.8746L42.4834 55.1803L42.9419 55.639L43.2477 56.0975L43.7063 56.4031L44.0119 56.8617L44.3177 57.4731L44.4706 57.9316L44.7762 58.3903L44.9291 59.0016L45.2348 59.4603V60.0716L45.3876 60.5302L45.5405 60.9888V61.6002L45.3876 62.5173L45.2348 63.2816L44.7762 63.8929L44.3177 64.1986L42.7892 65.1157L43.2477 64.6572L43.7063 64.1986L43.8591 63.2816L44.0119 62.3644V61.9058L43.8591 61.4473V60.8359L43.7063 60.3773L43.4006 59.7659L43.2477 59.3074L43.0948 58.8488L42.7892 58.2374L42.4834 57.7789L42.1778 57.3203L41.7192 56.8617L41.4135 56.4031L40.9549 56.0975L40.6493 55.7917L40.1906 55.4861L39.7321 55.1803L39.5793 55.0275L39.4264 54.8746H39.2735H39.1206L38.9679 54.7218H38.815H38.6621Z" fill="#DE8E0D"/>
<path fill-rule="evenodd" clip-rule="evenodd" d="M38.6621 54.7218L40.1906 53.8047H40.3435L40.4964 53.9576H40.6493H40.802L40.9549 54.1103L41.1078 54.2632H41.2607L41.7192 54.569L42.1778 54.8746L42.4834 55.1803L42.9419 55.639L43.2477 56.0975L43.7063 56.4031L44.0119 56.8617L44.3177 57.4731L44.4706 57.9316L44.7762 58.3903L44.9291 59.0016L45.2348 59.4603V60.0716L45.3876 60.5302L45.5405 60.9888V61.6002L45.3876 62.5173L45.2348 63.2816L44.7762 63.8929L44.3177 64.1986L42.7892 65.1157L43.2477 64.6572L43.7063 64.1986L43.8591 63.2816L44.0119 62.3644V61.9058L43.8591 61.4473V60.8359L43.7063 60.3773L43.4006 59.7659L43.2477 59.3074L43.0948 58.8488L42.7892 58.2374L42.4834 57.7789L42.1778 57.3203L41.7192 56.8617L41.4135 56.4031L40.9549 56.0975L40.6493 55.7917L40.1906 55.4861L39.7321 55.1803L39.5793 55.0275L39.4264 54.8746H39.2735H39.1206L38.9679 54.7218H38.815H38.6621Z" fill="url(#paint35_linear_1_27506)"/>
<path fill-rule="evenodd" clip-rule="evenodd" d="M38.672 51.3633H38.8249H38.9778L39.1306 51.5162L39.2835 51.6691L39.4363 51.8219V51.9747L39.5892 52.1276L39.742 52.2805L40.2005 53.809L38.672 54.726L38.2135 53.1975L38.0606 53.0447V52.739L37.9079 52.5861L37.755 52.4332H37.6021L37.4493 52.2805H37.2964L37.1435 52.1276L36.9907 52.2805H36.8379L38.3664 51.3633H38.5193H38.672Z" fill="#9C9C9C"/>
<path fill-rule="evenodd" clip-rule="evenodd" d="M38.672 51.3633H38.8249H38.9778L39.1306 51.5162L39.2835 51.6691L39.4363 51.8219V51.9747L39.5892 52.1276L39.742 52.2805L40.2005 53.809L38.672 54.726L38.2135 53.1975L38.0606 53.0447V52.739L37.9079 52.5861L37.755 52.4332H37.6021L37.4493 52.2805H37.2964L37.1435 52.1276L36.9907 52.2805H36.8379L38.3664 51.3633H38.5193H38.672Z" fill="url(#paint36_linear_1_27506)"/>
<path fill-rule="evenodd" clip-rule="evenodd" d="M37.3005 54.7034L36.842 53.3278C36.842 53.3278 36.8419 52.2578 37.1476 52.2578C37.1476 52.2578 38.0647 52.7164 38.2176 53.3278L38.6761 54.8563C38.6761 54.8563 39.4404 55.162 39.7461 55.3148C42.0389 56.6905 43.8732 59.9004 43.8732 62.6518C43.8732 65.4031 42.0389 66.473 39.7461 65.0973C37.4533 63.7217 35.6191 60.5118 35.6191 57.7605C35.6191 56.232 36.2306 55.162 37.3005 54.8563V54.7034Z" fill="#F0B11D"/>
<path fill-rule="evenodd" clip-rule="evenodd" d="M37.3005 54.7034L36.842 53.3278C36.842 53.3278 36.8419 52.2578 37.1476 52.2578C37.1476 52.2578 38.0647 52.7164 38.2176 53.3278L38.6761 54.8563C38.6761 54.8563 39.4404 55.162 39.7461 55.3148C42.0389 56.6905 43.8732 59.9004 43.8732 62.6518C43.8732 65.4031 42.0389 66.473 39.7461 65.0973C37.4533 63.7217 35.6191 60.5118 35.6191 57.7605C35.6191 56.232 36.2306 55.162 37.3005 54.8563V54.7034Z" fill="url(#paint37_linear_1_27506)"/>
<path fill-rule="evenodd" clip-rule="evenodd" d="M37.2964 54.7034L36.8379 53.3278C36.8379 53.3278 36.8378 52.2578 37.1435 52.2578C37.1435 52.2578 38.0607 52.7164 38.2135 53.3278L38.672 54.8563C38.672 54.8563 37.755 54.8563 37.2964 54.8563V54.7034Z" fill="#ACBEBF"/>
<path fill-rule="evenodd" clip-rule="evenodd" d="M37.2964 54.7034L36.8379 53.3278C36.8379 53.3278 36.8378 52.2578 37.1435 52.2578C37.1435 52.2578 38.0607 52.7164 38.2135 53.3278L38.672 54.8563C38.672 54.8563 37.755 54.8563 37.2964 54.8563V54.7034Z" fill="url(#paint38_linear_1_27506)"/>
<path fill-rule="evenodd" clip-rule="evenodd" d="M37.2964 54.7034L36.8379 53.3278C36.8379 53.3278 36.8378 52.2578 37.1435 52.2578C37.1435 52.2578 38.0607 52.7164 38.2135 53.3278L38.672 54.8563C38.672 54.8563 37.755 54.8563 37.2964 54.8563V54.7034Z" fill="url(#paint39_linear_1_27506)"/>
<path fill-rule="evenodd" clip-rule="evenodd" d="M39.7329 64.1746C38.8158 63.5632 37.8987 62.646 37.1344 61.4232C36.3702 60.2004 36.0645 58.9775 36.0645 57.9076C36.0645 56.8376 36.523 55.9206 37.1344 55.6149C37.7458 55.3092 38.6629 55.3091 39.7329 55.9205C40.65 56.5319 41.5672 57.4491 42.3314 58.6719C43.0957 59.8947 43.4014 61.1176 43.4014 62.1875C43.4014 63.2575 42.9429 64.1745 42.3314 64.4802C41.72 64.7859 40.8028 64.786 39.7329 64.1746Z" fill="#FACC4D"/>
<path fill-rule="evenodd" clip-rule="evenodd" d="M39.7329 64.1746C38.8158 63.5632 37.8987 62.646 37.1344 61.4232C36.3702 60.2004 36.0645 58.9775 36.0645 57.9076C36.0645 56.8376 36.523 55.9206 37.1344 55.6149C37.7458 55.3092 38.6629 55.3091 39.7329 55.9205C40.65 56.5319 41.5672 57.4491 42.3314 58.6719C43.0957 59.8947 43.4014 61.1176 43.4014 62.1875C43.4014 63.2575 42.9429 64.1745 42.3314 64.4802C41.72 64.7859 40.8028 64.786 39.7329 64.1746Z" fill="url(#paint40_linear_1_27506)"/>
<path fill-rule="evenodd" clip-rule="evenodd" d="M40.6534 51.379C40.6534 51.379 40.8062 51.9904 41.1119 52.1433C41.4176 52.1433 41.5704 52.1433 41.5704 51.8376V50.9204C41.5704 50.9204 41.4176 50.3091 41.1119 50.1563C40.8062 50.1563 40.6534 50.1562 40.6534 50.4619V51.379ZM47.6845 62.3843C47.6845 62.3843 47.226 62.3844 47.226 62.6901C47.226 62.9958 47.3788 63.3015 47.6845 63.4543L48.4487 63.9128C48.4487 63.9128 48.9074 63.9129 48.9074 63.6072C48.9074 63.3015 48.7544 62.9957 48.4487 62.8429L47.6845 62.3843ZM41.5704 66.97C41.5704 66.97 41.4176 66.3585 41.1119 66.2056C40.8062 66.2056 40.6534 66.2057 40.6534 66.5114V67.4285C40.6534 67.4285 40.8062 68.0399 41.1119 68.1928C41.4176 68.1928 41.5704 68.1927 41.5704 67.887V66.97ZM34.5393 55.8117C34.5393 55.8117 34.9978 55.8118 34.9978 55.506C34.9978 55.2003 34.845 54.8946 34.5393 54.7417L33.7749 54.2832C33.7749 54.2832 33.3164 54.2833 33.3164 54.589C33.3164 54.8947 33.4692 55.2003 33.7749 55.3532L34.5393 55.8117Z" fill="#CCCCCC"/>
<path fill-rule="evenodd" clip-rule="evenodd" d="M40.6534 51.379C40.6534 51.379 40.8062 51.9904 41.1119 52.1433C41.4176 52.1433 41.5704 52.1433 41.5704 51.8376V50.9204C41.5704 50.9204 41.4176 50.3091 41.1119 50.1563C40.8062 50.1563 40.6534 50.1562 40.6534 50.4619V51.379ZM47.6845 62.3843C47.6845 62.3843 47.226 62.3844 47.226 62.6901C47.226 62.9958 47.3788 63.3015 47.6845 63.4543L48.4487 63.9128C48.4487 63.9128 48.9074 63.9129 48.9074 63.6072C48.9074 63.3015 48.7544 62.9957 48.4487 62.8429L47.6845 62.3843ZM41.5704 66.97C41.5704 66.97 41.4176 66.3585 41.1119 66.2056C40.8062 66.2056 40.6534 66.2057 40.6534 66.5114V67.4285C40.6534 67.4285 40.8062 68.0399 41.1119 68.1928C41.4176 68.1928 41.5704 68.1927 41.5704 67.887V66.97ZM34.5393 55.8117C34.5393 55.8117 34.9978 55.8118 34.9978 55.506C34.9978 55.2003 34.845 54.8946 34.5393 54.7417L33.7749 54.2832C33.7749 54.2832 33.3164 54.2833 33.3164 54.589C33.3164 54.8947 33.4692 55.2003 33.7749 55.3532L34.5393 55.8117Z" fill="url(#paint41_linear_1_27506)"/>
<path fill-rule="evenodd" clip-rule="evenodd" d="M53.0508 61.1867L54.5793 60.4224L54.7322 60.2695H54.885H55.0378L55.1907 60.4224L55.3436 60.5753H55.4964L55.6492 60.7281L55.955 60.881L56.1078 61.0338H56.2607L56.4135 61.1867L56.5664 61.3395L56.7192 61.4924L56.8721 61.6453L57.025 61.9509V62.2567L57.1777 62.4095V62.7152V74.3319V74.4848L57.025 74.6377V74.7905L56.8721 74.9433L55.3436 75.8605L55.4964 75.7076V75.5547L55.6492 75.4019V75.2491V63.4794V63.3266L55.4964 63.0209V62.868L55.3436 62.5623L55.1907 62.4095L55.0378 62.1038L54.885 61.9509L54.7322 61.798H54.5793L54.4264 61.6453H54.1207L53.9679 61.4924L53.8151 61.3395H53.6622L53.5093 61.1867H53.3564H53.2037H53.0508Z" fill="#9C9C9C"/>
<path fill-rule="evenodd" clip-rule="evenodd" d="M53.0508 61.1867L54.5793 60.4224L54.7322 60.2695H54.885H55.0378L55.1907 60.4224L55.3436 60.5753H55.4964L55.6492 60.7281L55.955 60.881L56.1078 61.0338H56.2607L56.4135 61.1867L56.5664 61.3395L56.7192 61.4924L56.8721 61.6453L57.025 61.9509V62.2567L57.1777 62.4095V62.7152V74.3319V74.4848L57.025 74.6377V74.7905L56.8721 74.9433L55.3436 75.8605L55.4964 75.7076V75.5547L55.6492 75.4019V75.2491V63.4794V63.3266L55.4964 63.0209V62.868L55.3436 62.5623L55.1907 62.4095L55.0378 62.1038L54.885 61.9509L54.7322 61.798H54.5793L54.4264 61.6453H54.1207L53.9679 61.4924L53.8151 61.3395H53.6622L53.5093 61.1867H53.3564H53.2037H53.0508Z" fill="url(#paint42_linear_1_27506)"/>
<path fill-rule="evenodd" clip-rule="evenodd" d="M52.748 73.3764V61.7596C52.748 61.7596 53.2066 60.8426 53.6651 61.1483L54.5822 61.7596C55.0408 62.0653 55.4993 62.8296 55.4993 63.441V75.0578C55.4993 75.0578 55.0408 75.9749 54.5822 75.6692L53.6651 75.0578C53.2066 74.7521 52.748 73.9878 52.748 73.3764Z" fill="#ACBEBF"/>
<path fill-rule="evenodd" clip-rule="evenodd" d="M52.748 73.3764V61.7596C52.748 61.7596 53.2066 60.8426 53.6651 61.1483L54.5822 61.7596C55.0408 62.0653 55.4993 62.8296 55.4993 63.441V75.0578C55.4993 75.0578 55.0408 75.9749 54.5822 75.6692L53.6651 75.0578C53.2066 74.7521 52.748 73.9878 52.748 73.3764Z" fill="url(#paint43_linear_1_27506)"/>
<path fill-rule="evenodd" clip-rule="evenodd" d="M45.7072 23.6801L24.7665 35.7555C24.7665 35.7555 24.308 36.2141 24.308 36.5198V63.5745V67.3958H24.0022C22.6265 68.3129 21.5566 67.7016 21.5566 66.0202V36.8254C21.7095 35.144 22.7794 33.3098 24.1551 32.3927L45.5544 20.0117V23.5273L45.7072 23.6801Z" fill="#3D566E"/>
<path fill-rule="evenodd" clip-rule="evenodd" d="M45.7072 23.6801L24.7665 35.7555C24.7665 35.7555 24.308 36.2141 24.308 36.5198V63.5745V67.3958H24.0022C22.6265 68.3129 21.5566 67.7016 21.5566 66.0202V36.8254C21.7095 35.144 22.7794 33.3098 24.1551 32.3927L45.5544 20.0117V23.5273L45.7072 23.6801Z" fill="url(#paint44_linear_1_27506)"/>
<path fill-rule="evenodd" clip-rule="evenodd" d="M45.7072 23.6801L24.7665 35.7555C24.7665 35.7555 24.308 36.2141 24.308 36.5198V63.5745V67.3958H24.0022C22.6265 68.3129 21.5566 67.7016 21.5566 66.0202V36.8254C21.7095 35.144 22.7794 33.3098 24.1551 32.3927L45.5544 20.0117V23.5273L45.7072 23.6801Z" fill="url(#paint45_linear_1_27506)"/>
<path fill-rule="evenodd" clip-rule="evenodd" d="M0 53.4982L0.152885 24.4563V23.8449L0.305769 23.0806L0.611422 22.4692L0.917075 21.8577L1.22284 21.3992L1.68138 20.7878L2.13992 20.3292L2.59846 20.0236L3.36276 19.7178L4.12707 19.2593L4.89126 18.8007L5.80834 18.1893L6.72553 17.7308L7.79549 17.1194L8.86545 16.5079L9.93541 15.8965L11.0054 15.1323L12.2282 14.5209L13.4509 13.7566L14.6738 13.1452L15.8966 12.381L17.1195 11.6167L18.4951 11.0052L19.7179 10.2411L20.9408 9.47675L22.3164 8.71256L23.5392 7.94826L24.7621 7.33683L25.9849 6.57253L27.2076 5.80834L28.4305 5.19691L29.5005 4.58549L30.5704 3.8213L31.6404 3.20988L32.7103 2.75122L33.6275 2.13992L34.5446 1.68127L35.3088 1.22273L36.0731 0.76419L36.8374 0.305653L37.2959 0.152768L37.7545 0H38.213L38.5188 0.152768L60.2237 12.6866L59.7652 12.5339H59.4594H58.848L58.3895 12.8395L57.7781 13.2981L57.0139 13.6038L56.0967 14.2151L55.3325 14.6738L54.2625 15.1323L53.3453 15.7437L52.2754 16.3552L51.2054 16.9665L49.9827 17.7308L48.9127 18.3422L47.6899 19.1065L46.467 19.7178L45.2442 20.4821L43.8686 21.2464L42.6457 22.0106L41.4229 22.622L40.0473 23.3863L38.8244 24.1505L37.6016 24.9148L36.226 25.679L35.0031 26.2905L33.9332 27.0548L32.7103 27.6662L31.4875 28.2776L30.4175 29.0418L29.3476 29.6532L28.4305 30.1118L27.5134 30.7232L26.5962 31.1817L25.6791 31.6404L24.9148 32.0989L24.3035 32.5574L23.8449 32.8631L23.3863 33.3216L22.9278 33.7803L22.4693 34.3917L22.1636 35.003L22.0107 35.6144L21.8578 36.2259V36.8373L21.705 66.0321V66.6434L21.8578 67.102L22.0107 67.4077L22.3164 67.7133L0.764307 55.1795L0.458538 54.8738L0.152885 54.5682L0 54.1095V53.4982Z" fill="#2C3E50"/>
<path fill-rule="evenodd" clip-rule="evenodd" d="M0 53.4982L0.152885 24.4563V23.8449L0.305769 23.0806L0.611422 22.4692L0.917075 21.8577L1.22284 21.3992L1.68138 20.7878L2.13992 20.3292L2.59846 20.0236L3.36276 19.7178L4.12707 19.2593L4.89126 18.8007L5.80834 18.1893L6.72553 17.7308L7.79549 17.1194L8.86545 16.5079L9.93541 15.8965L11.0054 15.1323L12.2282 14.5209L13.4509 13.7566L14.6738 13.1452L15.8966 12.381L17.1195 11.6167L18.4951 11.0052L19.7179 10.2411L20.9408 9.47675L22.3164 8.71256L23.5392 7.94826L24.7621 7.33683L25.9849 6.57253L27.2076 5.80834L28.4305 5.19691L29.5005 4.58549L30.5704 3.8213L31.6404 3.20988L32.7103 2.75122L33.6275 2.13992L34.5446 1.68127L35.3088 1.22273L36.0731 0.76419L36.8374 0.305653L37.2959 0.152768L37.7545 0H38.213L38.5188 0.152768L60.2237 12.6866L59.7652 12.5339H59.4594H58.848L58.3895 12.8395L57.7781 13.2981L57.0139 13.6038L56.0967 14.2151L55.3325 14.6738L54.2625 15.1323L53.3453 15.7437L52.2754 16.3552L51.2054 16.9665L49.9827 17.7308L48.9127 18.3422L47.6899 19.1065L46.467 19.7178L45.2442 20.4821L43.8686 21.2464L42.6457 22.0106L41.4229 22.622L40.0473 23.3863L38.8244 24.1505L37.6016 24.9148L36.226 25.679L35.0031 26.2905L33.9332 27.0548L32.7103 27.6662L31.4875 28.2776L30.4175 29.0418L29.3476 29.6532L28.4305 30.1118L27.5134 30.7232L26.5962 31.1817L25.6791 31.6404L24.9148 32.0989L24.3035 32.5574L23.8449 32.8631L23.3863 33.3216L22.9278 33.7803L22.4693 34.3917L22.1636 35.003L22.0107 35.6144L21.8578 36.2259V36.8373L21.705 66.0321V66.6434L21.8578 67.102L22.0107 67.4077L22.3164 67.7133L0.764307 55.1795L0.458538 54.8738L0.152885 54.5682L0 54.1095V53.4982Z" fill="url(#paint46_linear_1_27506)"/>
<path fill-rule="evenodd" clip-rule="evenodd" d="M0.931641 21.8577L1.23741 21.3992L1.69595 20.7878L2.15449 20.3292L2.61302 20.0236L3.37733 19.7178L4.14164 19.2593L4.90583 18.8007L5.8229 18.1893L6.74009 17.7308L7.81005 17.1194L8.88001 16.5079L9.94997 15.8965L11.0199 15.1323L12.2428 14.5209L13.4655 13.7566L14.6883 13.1452L15.9112 12.381L17.134 11.6167L18.5097 11.0052L19.7325 10.2411L20.9553 9.47675L22.331 8.71256L23.5538 7.94826L24.7766 7.33683L25.9995 6.57253L27.2222 5.80834L28.4451 5.19691L29.515 4.58549L30.585 3.8213L31.6549 3.20988L32.7249 2.75122L33.6421 2.13992L34.5592 1.68127L35.3234 1.22273L36.0877 0.76419L36.852 0.305653L37.3105 0.152768L37.769 0H38.2276L38.5333 0.152768L60.2383 12.6866L59.7798 12.5339H59.474H58.8626L58.404 12.8395L57.7926 13.2981L57.0284 13.6038L56.1112 14.2151L55.3471 14.6738L54.2771 15.1323L53.3599 15.7437L52.2899 16.3552L51.22 16.9665L49.9973 17.7308L48.9273 18.3422L47.7044 19.1065L46.4816 19.7178L45.2588 20.4821L43.8831 21.2464L42.6603 22.0106L41.4375 22.622L40.0618 23.3863L38.839 24.1505L37.6162 24.9148L36.2405 25.679L35.0177 26.2905L33.9477 27.0548L32.7249 27.6662L31.5021 28.2776L30.4321 29.0418L29.3621 29.6532L28.4451 30.1118L27.528 30.7232L26.6108 31.1817L25.6937 31.6404L24.9294 32.0989L24.3181 32.5574L23.8594 32.8631L23.4009 33.3216L22.9424 33.7803L22.4838 34.3917L0.931641 21.8577Z" fill="#34485C"/>
<path fill-rule="evenodd" clip-rule="evenodd" d="M0.931641 21.8577L1.23741 21.3992L1.69595 20.7878L2.15449 20.3292L2.61302 20.0236L3.37733 19.7178L4.14164 19.2593L4.90583 18.8007L5.8229 18.1893L6.74009 17.7308L7.81005 17.1194L8.88001 16.5079L9.94997 15.8965L11.0199 15.1323L12.2428 14.5209L13.4655 13.7566L14.6883 13.1452L15.9112 12.381L17.134 11.6167L18.5097 11.0052L19.7325 10.2411L20.9553 9.47675L22.331 8.71256L23.5538 7.94826L24.7766 7.33683L25.9995 6.57253L27.2222 5.80834L28.4451 5.19691L29.515 4.58549L30.585 3.8213L31.6549 3.20988L32.7249 2.75122L33.6421 2.13992L34.5592 1.68127L35.3234 1.22273L36.0877 0.76419L36.852 0.305653L37.3105 0.152768L37.769 0H38.2276L38.5333 0.152768L60.2383 12.6866L59.7798 12.5339H59.474H58.8626L58.404 12.8395L57.7926 13.2981L57.0284 13.6038L56.1112 14.2151L55.3471 14.6738L54.2771 15.1323L53.3599 15.7437L52.2899 16.3552L51.22 16.9665L49.9973 17.7308L48.9273 18.3422L47.7044 19.1065L46.4816 19.7178L45.2588 20.4821L43.8831 21.2464L42.6603 22.0106L41.4375 22.622L40.0618 23.3863L38.839 24.1505L37.6162 24.9148L36.2405 25.679L35.0177 26.2905L33.9477 27.0548L32.7249 27.6662L31.5021 28.2776L30.4321 29.0418L29.3621 29.6532L28.4451 30.1118L27.528 30.7232L26.6108 31.1817L25.6937 31.6404L24.9294 32.0989L24.3181 32.5574L23.8594 32.8631L23.4009 33.3216L22.9424 33.7803L22.4838 34.3917L0.931641 21.8577Z" fill="url(#paint47_linear_1_27506)"/>
<defs>
<linearGradient id="paint0_linear_1_27506" x1="21.8422" y1="39.8007" x2="60.9575" y2="39.8007" gradientUnits="userSpaceOnUse">
<stop stop-color="#4AFFC7"/>
<stop offset="1" stop-color="#3BADEA"/>
</linearGradient>
<linearGradient id="paint1_linear_1_27506" x1="31.0079" y1="39.3292" x2="61.3341" y2="39.5407" gradientUnits="userSpaceOnUse">
<stop stop-color="#E6F0FF"/>
<stop offset="0.24" stop-color="#E2ECFD"/>
<stop offset="0.47" stop-color="#D6E3F8"/>
<stop offset="0.69" stop-color="#C3D3F0"/>
<stop offset="0.91" stop-color="#A9BDE4"/>
<stop offset="1" stop-color="#9CB2DF"/>
</linearGradient>
<linearGradient id="paint2_linear_1_27506" x1="39.4449" y1="30.3753" x2="58.1614" y2="30.5368" gradientUnits="userSpaceOnUse">
<stop stop-color="#9CB2DF"/>
<stop offset="0.09" stop-color="#A9BDE4"/>
<stop offset="0.31" stop-color="#C3D3F0"/>
<stop offset="0.53" stop-color="#D6E3F8"/>
<stop offset="0.76" stop-color="#E2ECFD"/>
<stop offset="1" stop-color="#E6F0FF"/>
</linearGradient>
<linearGradient id="paint3_linear_1_27506" x1="26.3543" y1="40.7046" x2="45.3036" y2="41.0304" gradientUnits="userSpaceOnUse">
<stop stop-color="#E6F0FF"/>
<stop offset="0.24" stop-color="#E2ECFD"/>
<stop offset="0.47" stop-color="#D6E3F8"/>
<stop offset="0.69" stop-color="#C3D3F0"/>
<stop offset="0.91" stop-color="#A9BDE4"/>
<stop offset="1" stop-color="#9CB2DF"/>
</linearGradient>
<linearGradient id="paint4_linear_1_27506" x1="26.3463" y1="35.788" x2="44.8746" y2="36.1041" gradientUnits="userSpaceOnUse">
<stop stop-color="#E6F0FF"/>
<stop offset="0.24" stop-color="#E2ECFD"/>
<stop offset="0.47" stop-color="#D6E3F8"/>
<stop offset="0.69" stop-color="#C3D3F0"/>
<stop offset="0.91" stop-color="#A9BDE4"/>
<stop offset="1" stop-color="#9CB2DF"/>
</linearGradient>
<linearGradient id="paint5_linear_1_27506" x1="30.4141" y1="33.4541" x2="43.9364" y2="33.4541" gradientUnits="userSpaceOnUse">
<stop stop-color="#4AFFC7"/>
<stop offset="1" stop-color="#3BADEA"/>
</linearGradient>
<linearGradient id="paint6_linear_1_27506" x1="31.944" y1="35.2329" x2="36.4039" y2="35.2329" gradientUnits="userSpaceOnUse">
<stop stop-color="#4AFFC7"/>
<stop offset="1" stop-color="#3BADEA"/>
</linearGradient>
<linearGradient id="paint7_linear_1_27506" x1="41.1985" y1="34.2225" x2="42.9749" y2="34.2521" gradientUnits="userSpaceOnUse">
<stop stop-color="#E6F0FF"/>
<stop offset="0.24" stop-color="#E2ECFD"/>
<stop offset="0.47" stop-color="#D6E3F8"/>
<stop offset="0.69" stop-color="#C3D3F0"/>
<stop offset="0.91" stop-color="#A9BDE4"/>
<stop offset="1" stop-color="#9CB2DF"/>
</linearGradient>
<linearGradient id="paint8_linear_1_27506" x1="35.3684" y1="30.828" x2="37.145" y2="30.8576" gradientUnits="userSpaceOnUse">
<stop stop-color="#E6F0FF"/>
<stop offset="0.24" stop-color="#E2ECFD"/>
<stop offset="0.47" stop-color="#D6E3F8"/>
<stop offset="0.69" stop-color="#C3D3F0"/>
<stop offset="0.91" stop-color="#A9BDE4"/>
<stop offset="1" stop-color="#9CB2DF"/>
</linearGradient>
<linearGradient id="paint9_linear_1_27506" x1="38.3074" y1="32.4336" x2="39.7976" y2="32.4621" gradientUnits="userSpaceOnUse">
<stop stop-color="#E6F0FF"/>
<stop offset="0.24" stop-color="#E2ECFD"/>
<stop offset="0.47" stop-color="#D6E3F8"/>
<stop offset="0.69" stop-color="#C3D3F0"/>
<stop offset="0.91" stop-color="#A9BDE4"/>
<stop offset="1" stop-color="#9CB2DF"/>
</linearGradient>
<linearGradient id="paint10_linear_1_27506" x1="30.1447" y1="35.8196" x2="37.8429" y2="35.9498" gradientUnits="userSpaceOnUse">
<stop stop-color="#E6F0FF"/>
<stop offset="0.24" stop-color="#E2ECFD"/>
<stop offset="0.47" stop-color="#D6E3F8"/>
<stop offset="0.69" stop-color="#C3D3F0"/>
<stop offset="0.91" stop-color="#A9BDE4"/>
<stop offset="1" stop-color="#9CB2DF"/>
</linearGradient>
<linearGradient id="paint11_linear_1_27506" x1="31.1896" y1="35.3305" x2="38.8877" y2="35.4642" gradientUnits="userSpaceOnUse">
<stop stop-color="#E6F0FF"/>
<stop offset="0.24" stop-color="#E2ECFD"/>
<stop offset="0.47" stop-color="#D6E3F8"/>
<stop offset="0.69" stop-color="#C3D3F0"/>
<stop offset="0.91" stop-color="#A9BDE4"/>
<stop offset="1" stop-color="#9CB2DF"/>
</linearGradient>
<linearGradient id="paint12_linear_1_27506" x1="20.6257" y1="38.8729" x2="45.0729" y2="38.8729" gradientUnits="userSpaceOnUse">
<stop stop-color="#4AFFC7"/>
<stop offset="1" stop-color="#3BADEA"/>
</linearGradient>
<linearGradient id="paint13_linear_1_27506" x1="20.6257" y1="39.4259" x2="45.0729" y2="39.4259" gradientUnits="userSpaceOnUse">
<stop stop-color="#4AFFC7"/>
<stop offset="1" stop-color="#3BADEA"/>
</linearGradient>
<linearGradient id="paint14_linear_1_27506" x1="36.7371" y1="46.7194" x2="55.6862" y2="47.0488" gradientUnits="userSpaceOnUse">
<stop stop-color="#E6F0FF"/>
<stop offset="0.24" stop-color="#E2ECFD"/>
<stop offset="0.47" stop-color="#D6E3F8"/>
<stop offset="0.69" stop-color="#C3D3F0"/>
<stop offset="0.91" stop-color="#A9BDE4"/>
<stop offset="1" stop-color="#9CB2DF"/>
</linearGradient>
<linearGradient id="paint15_linear_1_27506" x1="36.9049" y1="41.913" x2="55.4332" y2="42.2291" gradientUnits="userSpaceOnUse">
<stop stop-color="#E6F0FF"/>
<stop offset="0.24" stop-color="#E2ECFD"/>
<stop offset="0.47" stop-color="#D6E3F8"/>
<stop offset="0.69" stop-color="#C3D3F0"/>
<stop offset="0.91" stop-color="#A9BDE4"/>
<stop offset="1" stop-color="#9CB2DF"/>
</linearGradient>
<linearGradient id="paint16_linear_1_27506" x1="40.8281" y1="39.6026" x2="54.3505" y2="39.6026" gradientUnits="userSpaceOnUse">
<stop stop-color="#4AFFC7"/>
<stop offset="1" stop-color="#3BADEA"/>
</linearGradient>
<linearGradient id="paint17_linear_1_27506" x1="42.5163" y1="41.1821" x2="46.9763" y2="41.1821" gradientUnits="userSpaceOnUse">
<stop stop-color="#4AFFC7"/>
<stop offset="1" stop-color="#3BADEA"/>
</linearGradient>
<linearGradient id="paint18_linear_1_27506" x1="51.6125" y1="40.1991" x2="53.389" y2="40.2287" gradientUnits="userSpaceOnUse">
<stop stop-color="#E6F0FF"/>
<stop offset="0.24" stop-color="#E2ECFD"/>
<stop offset="0.47" stop-color="#D6E3F8"/>
<stop offset="0.69" stop-color="#C3D3F0"/>
<stop offset="0.91" stop-color="#A9BDE4"/>
<stop offset="1" stop-color="#9CB2DF"/>
</linearGradient>
<linearGradient id="paint19_linear_1_27506" x1="45.7884" y1="36.9764" x2="47.5649" y2="37.006" gradientUnits="userSpaceOnUse">
<stop stop-color="#E6F0FF"/>
<stop offset="0.24" stop-color="#E2ECFD"/>
<stop offset="0.47" stop-color="#D6E3F8"/>
<stop offset="0.69" stop-color="#C3D3F0"/>
<stop offset="0.91" stop-color="#A9BDE4"/>
<stop offset="1" stop-color="#9CB2DF"/>
</linearGradient>
<linearGradient id="paint20_linear_1_27506" x1="48.7654" y1="38.4727" x2="50.2134" y2="38.4996" gradientUnits="userSpaceOnUse">
<stop stop-color="#E6F0FF"/>
<stop offset="0.24" stop-color="#E2ECFD"/>
<stop offset="0.47" stop-color="#D6E3F8"/>
<stop offset="0.69" stop-color="#C3D3F0"/>
<stop offset="0.91" stop-color="#A9BDE4"/>
<stop offset="1" stop-color="#9CB2DF"/>
</linearGradient>
<linearGradient id="paint21_linear_1_27506" x1="40.7169" y1="41.9086" x2="48.415" y2="42.0423" gradientUnits="userSpaceOnUse">
<stop stop-color="#E6F0FF"/>
<stop offset="0.24" stop-color="#E2ECFD"/>
<stop offset="0.47" stop-color="#D6E3F8"/>
<stop offset="0.69" stop-color="#C3D3F0"/>
<stop offset="0.91" stop-color="#A9BDE4"/>
<stop offset="1" stop-color="#9CB2DF"/>
</linearGradient>
<linearGradient id="paint22_linear_1_27506" x1="41.6095" y1="41.3665" x2="49.3077" y2="41.4967" gradientUnits="userSpaceOnUse">
<stop stop-color="#E6F0FF"/>
<stop offset="0.24" stop-color="#E2ECFD"/>
<stop offset="0.47" stop-color="#D6E3F8"/>
<stop offset="0.69" stop-color="#C3D3F0"/>
<stop offset="0.91" stop-color="#A9BDE4"/>
<stop offset="1" stop-color="#9CB2DF"/>
</linearGradient>
<linearGradient id="paint23_linear_1_27506" x1="31.0085" y1="44.9337" x2="55.4556" y2="44.9337" gradientUnits="userSpaceOnUse">
<stop stop-color="#4AFFC7"/>
<stop offset="1" stop-color="#3BADEA"/>
</linearGradient>
<linearGradient id="paint24_linear_1_27506" x1="31.0085" y1="45.4354" x2="55.4556" y2="45.4354" gradientUnits="userSpaceOnUse">
<stop stop-color="#4AFFC7"/>
<stop offset="1" stop-color="#3BADEA"/>
</linearGradient>
<linearGradient id="paint25_linear_1_27506" x1="31.0085" y1="46.0041" x2="55.4556" y2="46.0041" gradientUnits="userSpaceOnUse">
<stop stop-color="#4AFFC7"/>
<stop offset="1" stop-color="#3BADEA"/>
</linearGradient>
<linearGradient id="paint26_linear_1_27506" x1="31.0085" y1="46.5331" x2="55.4556" y2="46.5331" gradientUnits="userSpaceOnUse">
<stop stop-color="#4AFFC7"/>
<stop offset="1" stop-color="#3BADEA"/>
</linearGradient>
<linearGradient id="paint27_linear_1_27506" x1="31.0085" y1="47.1854" x2="55.4556" y2="47.1854" gradientUnits="userSpaceOnUse">
<stop stop-color="#4AFFC7"/>
<stop offset="1" stop-color="#3BADEA"/>
</linearGradient>
<linearGradient id="paint28_linear_1_27506" x1="31.0085" y1="47.6759" x2="55.4556" y2="47.6759" gradientUnits="userSpaceOnUse">
<stop stop-color="#4AFFC7"/>
<stop offset="1" stop-color="#3BADEA"/>
</linearGradient>
<linearGradient id="paint29_linear_1_27506" x1="31.0085" y1="48.1932" x2="55.4556" y2="48.1932" gradientUnits="userSpaceOnUse">
<stop stop-color="#4AFFC7"/>
<stop offset="1" stop-color="#3BADEA"/>
</linearGradient>
<linearGradient id="paint30_linear_1_27506" x1="31.0085" y1="48.7462" x2="55.4556" y2="48.7462" gradientUnits="userSpaceOnUse">
<stop stop-color="#4AFFC7"/>
<stop offset="1" stop-color="#3BADEA"/>
</linearGradient>
<linearGradient id="paint31_linear_1_27506" x1="57.4697" y1="54.0336" x2="60.9839" y2="54.0336" gradientUnits="userSpaceOnUse">
<stop stop-color="#4AFFC7"/>
<stop offset="1" stop-color="#3BADEA"/>
</linearGradient>
<linearGradient id="paint32_linear_1_27506" x1="24.9174" y1="44.2512" x2="60.5185" y2="44.2512" gradientUnits="userSpaceOnUse">
<stop stop-color="#4AFFC7"/>
<stop offset="1" stop-color="#3BADEA"/>
</linearGradient>
<linearGradient id="paint33_linear_1_27506" x1="57.9425" y1="67.872" x2="60.9983" y2="67.872" gradientUnits="userSpaceOnUse">
<stop stop-color="#4AFFC7"/>
<stop offset="1" stop-color="#3BADEA"/>
</linearGradient>
<linearGradient id="paint34_linear_1_27506" x1="32.2806" y1="58.8452" x2="58.2237" y2="59.0282" gradientUnits="userSpaceOnUse">
<stop stop-color="#E6F0FF"/>
<stop offset="0.24" stop-color="#E2ECFD"/>
<stop offset="0.47" stop-color="#D6E3F8"/>
<stop offset="0.69" stop-color="#C3D3F0"/>
<stop offset="0.91" stop-color="#A9BDE4"/>
<stop offset="1" stop-color="#9CB2DF"/>
</linearGradient>
<linearGradient id="paint35_linear_1_27506" x1="38.6601" y1="59.4602" x2="45.5359" y2="59.4602" gradientUnits="userSpaceOnUse">
<stop stop-color="#4AFFC7"/>
<stop offset="1" stop-color="#3BADEA"/>
</linearGradient>
<linearGradient id="paint36_linear_1_27506" x1="36.8369" y1="53.0447" x2="40.1983" y2="53.0447" gradientUnits="userSpaceOnUse">
<stop stop-color="#4AFFC7"/>
<stop offset="1" stop-color="#3BADEA"/>
</linearGradient>
<linearGradient id="paint37_linear_1_27506" x1="35.6168" y1="58.9769" x2="43.8677" y2="58.9769" gradientUnits="userSpaceOnUse">
<stop stop-color="#4AFFC7"/>
<stop offset="1" stop-color="#3BADEA"/>
</linearGradient>
<linearGradient id="paint38_linear_1_27506" x1="37.267" y1="53.535" x2="38.6885" y2="53.5449" gradientUnits="userSpaceOnUse">
<stop stop-color="#E6F0FF"/>
<stop offset="0.24" stop-color="#E2ECFD"/>
<stop offset="0.47" stop-color="#D6E3F8"/>
<stop offset="0.69" stop-color="#C3D3F0"/>
<stop offset="0.91" stop-color="#A9BDE4"/>
<stop offset="1" stop-color="#9CB2DF"/>
</linearGradient>
<linearGradient id="paint39_linear_1_27506" x1="36.8374" y1="53.557" x2="38.6708" y2="53.557" gradientUnits="userSpaceOnUse">
<stop stop-color="#4AFFC7"/>
<stop offset="1" stop-color="#3BADEA"/>
</linearGradient>
<linearGradient id="paint40_linear_1_27506" x1="37.7809" y1="59.9688" x2="43.4671" y2="60.0133" gradientUnits="userSpaceOnUse">
<stop stop-color="#E6F0FF"/>
<stop offset="0.24" stop-color="#E2ECFD"/>
<stop offset="0.47" stop-color="#D6E3F8"/>
<stop offset="0.69" stop-color="#C3D3F0"/>
<stop offset="0.91" stop-color="#A9BDE4"/>
<stop offset="1" stop-color="#9CB2DF"/>
</linearGradient>
<linearGradient id="paint41_linear_1_27506" x1="33.3119" y1="59.1745" x2="48.897" y2="59.1745" gradientUnits="userSpaceOnUse">
<stop stop-color="#4AFFC7"/>
<stop offset="1" stop-color="#3BADEA"/>
</linearGradient>
<linearGradient id="paint42_linear_1_27506" x1="53.0496" y1="68.065" x2="57.175" y2="68.065" gradientUnits="userSpaceOnUse">
<stop stop-color="#4AFFC7"/>
<stop offset="1" stop-color="#3BADEA"/>
</linearGradient>
<linearGradient id="paint43_linear_1_27506" x1="53.3917" y1="68.2843" x2="55.524" y2="68.2883" gradientUnits="userSpaceOnUse">
<stop stop-color="#E6F0FF"/>
<stop offset="0.24" stop-color="#E2ECFD"/>
<stop offset="0.47" stop-color="#D6E3F8"/>
<stop offset="0.69" stop-color="#C3D3F0"/>
<stop offset="0.91" stop-color="#A9BDE4"/>
<stop offset="1" stop-color="#9CB2DF"/>
</linearGradient>
<linearGradient id="paint44_linear_1_27506" x1="21.5636" y1="43.9168" x2="45.7002" y2="43.9168" gradientUnits="userSpaceOnUse">
<stop stop-color="#4AFFC7"/>
<stop offset="1" stop-color="#3BADEA"/>
</linearGradient>
<linearGradient id="paint45_linear_1_27506" x1="27.2066" y1="43.5104" x2="45.9239" y2="43.6039" gradientUnits="userSpaceOnUse">
<stop stop-color="#9CB2DF"/>
<stop offset="0.09" stop-color="#A9BDE4"/>
<stop offset="0.31" stop-color="#C3D3F0"/>
<stop offset="0.53" stop-color="#D6E3F8"/>
<stop offset="0.76" stop-color="#E2ECFD"/>
<stop offset="1" stop-color="#E6F0FF"/>
</linearGradient>
<linearGradient id="paint46_linear_1_27506" x1="14.0892" y1="33.2811" x2="60.7619" y2="33.6915" gradientUnits="userSpaceOnUse">
<stop stop-color="#E6F0FF"/>
<stop offset="0.24" stop-color="#E2ECFD"/>
<stop offset="0.47" stop-color="#D6E3F8"/>
<stop offset="0.69" stop-color="#C3D3F0"/>
<stop offset="0.91" stop-color="#A9BDE4"/>
<stop offset="1" stop-color="#9CB2DF"/>
</linearGradient>
<linearGradient id="paint47_linear_1_27506" x1="14.8063" y1="16.9035" x2="60.7584" y2="17.687" gradientUnits="userSpaceOnUse">
<stop stop-color="#9CB2DF"/>
<stop offset="0.09" stop-color="#A9BDE4"/>
<stop offset="0.31" stop-color="#C3D3F0"/>
<stop offset="0.53" stop-color="#D6E3F8"/>
<stop offset="0.76" stop-color="#E2ECFD"/>
<stop offset="1" stop-color="#E6F0FF"/>
</linearGradient>
</defs>
</svg>
