<svg width="94" height="70" viewBox="0 0 94 70" fill="none" xmlns="http://www.w3.org/2000/svg">
<path fill-rule="evenodd" clip-rule="evenodd" d="M73.4377 46.7561H73.2376L67.6353 49.9575V50.1578V50.3577V50.5577L64.2339 56.5602L52.229 63.5632L44.4258 58.9611L56.4307 51.9584L59.8321 45.9559V45.7559V45.5557V45.3557V45.1557L65.4344 41.7541L69.0359 43.755H69.236L79.4402 37.7525L81.441 36.552V36.3521V36.1518V35.9518V35.7518V35.5516V12.9425V12.7422L89.2442 17.144V17.3443V39.9534V40.1537V40.3536V40.5536V40.7539V40.9539L86.4431 42.5546L77.0392 47.9569C77.0392 47.9569 76.639 47.9569 76.4389 47.9569L73.0376 45.9559L73.4377 46.7561Z" fill="#BFC7C9"/>
<path fill-rule="evenodd" clip-rule="evenodd" d="M73.4377 46.7561H73.2376L67.6353 49.9575V50.1578V50.3577V50.5577L64.2339 56.5602L52.229 63.5632L44.4258 58.9611L56.4307 51.9584L59.8321 45.9559V45.7559V45.5557V45.3557V45.1557L65.4344 41.7541L69.0359 43.755H69.236L79.4402 37.7525L81.441 36.552V36.3521V36.1518V35.9518V35.7518V35.5516V12.9425V12.7422L89.2442 17.144V17.3443V39.9534V40.1537V40.3536V40.5536V40.7539V40.9539L86.4431 42.5546L77.0392 47.9569C77.0392 47.9569 76.639 47.9569 76.4389 47.9569L73.0376 45.9559L73.4377 46.7561Z" fill="url(#paint0_linear_1_27301)"/>
<path fill-rule="evenodd" clip-rule="evenodd" d="M28.0215 58.1874V58.7877V59.1879V59.5879V59.7881L45.2285 69.7922V69.592V69.192V68.7918V68.1916V42.3811V41.9808V41.5806V41.1803V40.7804L45.4286 40.3801V39.9799L45.8288 39.7799L28.6217 29.7758V30.376V30.7763L28.4216 31.1762V31.5765V31.9767V32.377V32.7769V58.1874H28.0215ZM93.2483 12.969H93.0482H92.8481H92.648H92.448H92.2479L92.0478 13.1689L48.4298 38.3792H48.2298L48.0297 38.7794H47.8296L47.6295 39.1797H47.4295L47.2294 39.7799V40.3801L30.0223 30.376V29.7758H30.2224L30.4225 29.1756H30.6225L30.8226 28.7753H31.0227L31.2228 28.3751L74.8407 3.16482H75.0408L75.2409 2.96484H75.441H75.641H75.8411H76.0412L93.2483 12.969Z" fill="#BFC7C9"/>
<path fill-rule="evenodd" clip-rule="evenodd" d="M28.0215 58.1874V58.7877V59.1879V59.5879V59.7881L45.2285 69.7922V69.592V69.192V68.7918V68.1916V42.3811V41.9808V41.5806V41.1803V40.7804L45.4286 40.3801V39.9799L45.8288 39.7799L28.6217 29.7758V30.376V30.7763L28.4216 31.1762V31.5765V31.9767V32.377V32.7769V58.1874H28.0215ZM93.2483 12.969H93.0482H92.8481H92.648H92.448H92.2479L92.0478 13.1689L48.4298 38.3792H48.2298L48.0297 38.7794H47.8296L47.6295 39.1797H47.4295L47.2294 39.7799V40.3801L30.0223 30.376V29.7758H30.2224L30.4225 29.1756H30.6225L30.8226 28.7753H31.0227L31.2228 28.3751L74.8407 3.16482H75.0408L75.2409 2.96484H75.441H75.641H75.8411H76.0412L93.2483 12.969Z" fill="url(#paint1_linear_1_27301)"/>
<path fill-rule="evenodd" clip-rule="evenodd" d="M88.848 17.5398V38.9485C88.848 38.9485 88.848 39.5488 88.6479 39.9489C88.6479 39.9489 88.2478 40.5493 88.0477 40.7494L76.0428 47.7521C76.0428 47.7521 75.8427 47.7521 75.6426 47.7521C75.6426 47.7521 75.4425 47.7521 75.2424 47.7521L73.8418 46.9519L72.0411 45.7515C72.0411 45.7515 71.641 45.7515 71.2408 45.7515C71.2408 45.7515 70.6405 45.7514 70.4404 45.9515L64.8382 49.1528C64.8382 49.1528 64.2379 49.553 64.0378 49.7531C64.0378 49.7531 63.4376 50.3534 63.2375 50.7535L59.8361 56.7558C59.8361 56.7558 59.8361 57.156 59.4359 57.156C59.4359 57.156 59.2358 57.3563 59.0358 57.3563L48.0312 63.7588V42.3501C48.0312 42.3501 48.0313 41.7498 48.2313 41.3497C48.2313 41.1496 48.6315 40.7492 48.8316 40.5492L88.848 17.3398V17.5398Z" fill="#143D59"/>
<path fill-rule="evenodd" clip-rule="evenodd" d="M88.848 17.5398V38.9485C88.848 38.9485 88.848 39.5488 88.6479 39.9489C88.6479 39.9489 88.2478 40.5493 88.0477 40.7494L76.0428 47.7521C76.0428 47.7521 75.8427 47.7521 75.6426 47.7521C75.6426 47.7521 75.4425 47.7521 75.2424 47.7521L73.8418 46.9519L72.0411 45.7515C72.0411 45.7515 71.641 45.7515 71.2408 45.7515C71.2408 45.7515 70.6405 45.7514 70.4404 45.9515L64.8382 49.1528C64.8382 49.1528 64.2379 49.553 64.0378 49.7531C64.0378 49.7531 63.4376 50.3534 63.2375 50.7535L59.8361 56.7558C59.8361 56.7558 59.8361 57.156 59.4359 57.156C59.4359 57.156 59.2358 57.3563 59.0358 57.3563L48.0312 63.7588V42.3501C48.0312 42.3501 48.0313 41.7498 48.2313 41.3497C48.2313 41.1496 48.6315 40.7492 48.8316 40.5492L88.848 17.3398V17.5398Z" fill="url(#paint2_linear_1_27301)"/>
<path fill-rule="evenodd" clip-rule="evenodd" d="M73.2364 26.538L64.2327 43.3449C64.2327 43.3449 63.6325 43.9451 63.4324 43.9451C63.2323 43.9451 63.2323 43.3451 63.4324 42.9449L71.6357 27.5385L48.6263 40.744C48.6263 40.744 48.2262 41.144 48.0261 41.5442C48.0261 41.7443 47.826 42.1445 47.826 42.5447V63.9533L58.8305 57.5509C58.8305 57.5509 59.0306 57.551 59.2307 57.3509C59.2307 57.3509 59.4308 57.1507 59.6308 56.9506L63.0322 50.9481C63.0322 50.9481 63.4324 50.3478 63.8326 49.9476C63.8326 49.9476 64.4328 49.3474 64.6329 49.3474L70.2352 46.146C70.2352 46.146 70.8354 45.946 71.0355 45.946C71.0355 45.946 71.4357 45.946 71.8358 45.946L75.2372 47.947C75.2372 47.947 75.2372 47.947 75.6374 47.947C75.6374 47.947 75.8375 47.947 76.0376 47.947L88.0425 40.944C88.0425 40.944 88.4427 40.544 88.6427 40.1438C88.6427 39.9437 88.8428 39.5435 88.8428 39.1433V17.7344L88.0425 18.1346L83.0405 27.3385C83.0405 27.3385 82.4402 27.9388 82.2401 27.9388C82.04 27.9388 82.04 27.3385 82.2401 26.9383L86.4419 19.1351L80.6395 22.5365L73.2364 36.1419C73.2364 36.1419 72.6362 36.7421 72.4361 36.7421C72.236 36.7421 72.236 36.1421 72.4361 35.742L79.0388 23.5369L73.6366 26.738L73.2364 26.538Z" fill="#133E66"/>
<path fill-rule="evenodd" clip-rule="evenodd" d="M73.2364 26.538L64.2327 43.3449C64.2327 43.3449 63.6325 43.9451 63.4324 43.9451C63.2323 43.9451 63.2323 43.3451 63.4324 42.9449L71.6357 27.5385L48.6263 40.744C48.6263 40.744 48.2262 41.144 48.0261 41.5442C48.0261 41.7443 47.826 42.1445 47.826 42.5447V63.9533L58.8305 57.5509C58.8305 57.5509 59.0306 57.551 59.2307 57.3509C59.2307 57.3509 59.4308 57.1507 59.6308 56.9506L63.0322 50.9481C63.0322 50.9481 63.4324 50.3478 63.8326 49.9476C63.8326 49.9476 64.4328 49.3474 64.6329 49.3474L70.2352 46.146C70.2352 46.146 70.8354 45.946 71.0355 45.946C71.0355 45.946 71.4357 45.946 71.8358 45.946L75.2372 47.947C75.2372 47.947 75.2372 47.947 75.6374 47.947C75.6374 47.947 75.8375 47.947 76.0376 47.947L88.0425 40.944C88.0425 40.944 88.4427 40.544 88.6427 40.1438C88.6427 39.9437 88.8428 39.5435 88.8428 39.1433V17.7344L88.0425 18.1346L83.0405 27.3385C83.0405 27.3385 82.4402 27.9388 82.2401 27.9388C82.04 27.9388 82.04 27.3385 82.2401 26.9383L86.4419 19.1351L80.6395 22.5365L73.2364 36.1419C73.2364 36.1419 72.6362 36.7421 72.4361 36.7421C72.236 36.7421 72.236 36.1421 72.4361 35.742L79.0388 23.5369L73.6366 26.738L73.2364 26.538Z" fill="url(#paint3_linear_1_27301)"/>
<path fill-rule="evenodd" clip-rule="evenodd" d="M45.6287 40.7416L28.4216 30.9375L28.2216 31.1375V31.5377V31.7377L28.0215 32.1379V32.3382V32.7382V36.3398V49.345V58.1487V58.5489V58.7489L28.2216 58.9489V59.1492V59.3491L28.4216 59.5491L28.6217 59.7494H28.8218L46.0289 69.7535H45.8288L45.6287 69.5532V69.3533L45.4286 69.1533V68.953L45.2285 68.753V68.3528V68.1528V59.3491V46.3439V42.7423V42.3423V42.1421L45.4286 41.7418V41.3419L45.6287 41.1416V40.7416Z" fill="#9C9C9C"/>
<path fill-rule="evenodd" clip-rule="evenodd" d="M45.6287 40.7416L28.4216 30.9375L28.2216 31.1375V31.5377V31.7377L28.0215 32.1379V32.3382V32.7382V36.3398V49.345V58.1487V58.5489V58.7489L28.2216 58.9489V59.1492V59.3491L28.4216 59.5491L28.6217 59.7494H28.8218L46.0289 69.7535H45.8288L45.6287 69.5532V69.3533L45.4286 69.1533V68.953L45.2285 68.753V68.3528V68.1528V59.3491V46.3439V42.7423V42.3423V42.1421L45.4286 41.7418V41.3419L45.6287 41.1416V40.7416Z" fill="url(#paint4_linear_1_27301)"/>
<path fill-rule="evenodd" clip-rule="evenodd" d="M32.0131 53.1916L30.8127 52.3914L29.4121 51.3909L28.0115 50.3904L26.811 49.39L25.4104 48.3895L24.0099 47.3893L22.6093 46.3888L21.2087 45.3884L20.0082 44.3879L18.6076 43.3874L17.2071 42.3873L16.0066 41.3868L14.606 40.3863L13.4055 39.1859L12.205 38.3854L11.0045 37.3852L10.0041 36.5847L9.20378 35.7845L8.40344 35.1843L7.60313 34.3838L6.8028 33.7836L6.00247 32.9834L5.40221 32.3832L4.60188 31.7826L4.00164 31.1824L3.4014 30.5822L3.00123 29.982L2.60107 29.3817L2.00081 28.9815L1.80074 28.5815L1.40057 27.9813L1.20048 27.5811L0.800328 26.9808L0.600241 26.1803L0.400155 25.5801L0.200087 24.7799L0 24.1797V23.5795V14.9758V15.576L0.200087 16.3765L0.400155 16.9767L0.600241 17.577L0.800328 18.3771L1.20048 18.9774L1.40057 19.3776L1.80074 19.9778V14.9758V14.3756L2.00081 13.9753L2.2009 13.1751L2.60107 12.1746L3.00123 11.3745L3.60149 10.574L4.20173 9.77376L5.00206 9.17354L5.80238 8.37304L6.8028 7.57284L7.40304 7.37287L8.0033 6.97262L8.40344 6.57237L9.0037 6.3724L9.60396 5.97215L10.4043 5.77217L11.0045 5.37192L11.6048 5.17195L12.205 4.7717L13.0054 4.57142L13.6056 4.37145L14.4059 3.9712L15.0062 3.77123L15.8065 3.57126L16.6068 3.37098L17.2071 3.17101L18.8077 2.77076L20.2083 2.37081L21.809 2.17053L23.4096 1.97056L25.0103 1.77028H26.6109L28.0115 1.57031H29.6122L31.2128 1.77028H32.6134L34.2141 1.97056L35.6146 2.37081L37.0152 2.57078L38.4158 2.97103L39.6163 3.57126L41.0169 3.9712L42.2174 4.57142L43.4178 5.17195L44.6184 5.5719L45.8188 5.97215L47.0193 6.3724L48.2198 6.57237L49.4203 6.77234L50.4207 6.97262L51.6212 7.17259L52.6216 7.37287H53.8221L54.8226 7.57284H55.823H57.0234H58.0239H59.0243H60.2247L61.4253 7.77281H62.6258H63.8262L65.0267 7.97309H65.8271L59.0243 11.9747L52.2215 15.7763H51.6212L50.4207 15.576L49.4203 15.376L48.2198 15.1761L47.0193 14.9758L45.8188 14.5755L44.6184 14.1756L43.4178 13.7753L42.2174 13.1751L41.0169 12.5749L39.6163 12.1746L38.4158 11.5744L37.0152 11.1742L35.6146 10.9742L34.2141 10.574L32.6134 10.374H31.2128L29.6122 10.174H28.0115L26.6109 10.374H25.0103L23.4096 10.574L21.809 10.7742L20.2083 10.9742L18.8077 11.3745L17.2071 11.7744L16.6068 11.9747L15.8065 12.1746L15.0062 12.3749L14.4059 12.5749L13.6056 12.7749L13.0054 13.1751L12.205 13.3751L11.6048 13.5754L11.0045 13.9753L10.4043 14.1756L9.60396 14.5755L9.0037 14.9758L8.40344 15.1761L8.0033 15.576L7.40304 15.9763L6.8028 16.1762L5.80238 16.9767L5.00206 17.7769L4.20173 18.3771L3.60149 19.1776L3.00123 19.9778L2.60107 20.7783H2.40098L2.60107 20.9783L3.00123 21.3786L3.4014 21.9788L4.00164 22.579L4.60188 23.1792L5.40221 23.7795L6.00247 24.3797L6.8028 25.1802L7.60313 25.7804L8.40344 26.5806L9.20378 27.1808L10.0041 27.9813L11.0045 28.7815L12.205 29.782L13.4055 30.7825L14.606 31.7826L16.0066 32.7831L17.2071 33.7836L18.6076 34.784L20.0082 35.7845L21.2087 36.7847L22.6093 37.7851L24.0099 38.7856L25.4104 39.7861L26.811 40.7866L28.0115 41.7867L29.4121 42.7872L30.8127 43.7877L32.0131 44.5879L33.0136 43.1875V51.7908L32.0131 53.1916Z" fill="#515F63"/>
<path fill-rule="evenodd" clip-rule="evenodd" d="M32.0131 53.1916L30.8127 52.3914L29.4121 51.3909L28.0115 50.3904L26.811 49.39L25.4104 48.3895L24.0099 47.3893L22.6093 46.3888L21.2087 45.3884L20.0082 44.3879L18.6076 43.3874L17.2071 42.3873L16.0066 41.3868L14.606 40.3863L13.4055 39.1859L12.205 38.3854L11.0045 37.3852L10.0041 36.5847L9.20378 35.7845L8.40344 35.1843L7.60313 34.3838L6.8028 33.7836L6.00247 32.9834L5.40221 32.3832L4.60188 31.7826L4.00164 31.1824L3.4014 30.5822L3.00123 29.982L2.60107 29.3817L2.00081 28.9815L1.80074 28.5815L1.40057 27.9813L1.20048 27.5811L0.800328 26.9808L0.600241 26.1803L0.400155 25.5801L0.200087 24.7799L0 24.1797V23.5795V14.9758V15.576L0.200087 16.3765L0.400155 16.9767L0.600241 17.577L0.800328 18.3771L1.20048 18.9774L1.40057 19.3776L1.80074 19.9778V14.9758V14.3756L2.00081 13.9753L2.2009 13.1751L2.60107 12.1746L3.00123 11.3745L3.60149 10.574L4.20173 9.77376L5.00206 9.17354L5.80238 8.37304L6.8028 7.57284L7.40304 7.37287L8.0033 6.97262L8.40344 6.57237L9.0037 6.3724L9.60396 5.97215L10.4043 5.77217L11.0045 5.37192L11.6048 5.17195L12.205 4.7717L13.0054 4.57142L13.6056 4.37145L14.4059 3.9712L15.0062 3.77123L15.8065 3.57126L16.6068 3.37098L17.2071 3.17101L18.8077 2.77076L20.2083 2.37081L21.809 2.17053L23.4096 1.97056L25.0103 1.77028H26.6109L28.0115 1.57031H29.6122L31.2128 1.77028H32.6134L34.2141 1.97056L35.6146 2.37081L37.0152 2.57078L38.4158 2.97103L39.6163 3.57126L41.0169 3.9712L42.2174 4.57142L43.4178 5.17195L44.6184 5.5719L45.8188 5.97215L47.0193 6.3724L48.2198 6.57237L49.4203 6.77234L50.4207 6.97262L51.6212 7.17259L52.6216 7.37287H53.8221L54.8226 7.57284H55.823H57.0234H58.0239H59.0243H60.2247L61.4253 7.77281H62.6258H63.8262L65.0267 7.97309H65.8271L59.0243 11.9747L52.2215 15.7763H51.6212L50.4207 15.576L49.4203 15.376L48.2198 15.1761L47.0193 14.9758L45.8188 14.5755L44.6184 14.1756L43.4178 13.7753L42.2174 13.1751L41.0169 12.5749L39.6163 12.1746L38.4158 11.5744L37.0152 11.1742L35.6146 10.9742L34.2141 10.574L32.6134 10.374H31.2128L29.6122 10.174H28.0115L26.6109 10.374H25.0103L23.4096 10.574L21.809 10.7742L20.2083 10.9742L18.8077 11.3745L17.2071 11.7744L16.6068 11.9747L15.8065 12.1746L15.0062 12.3749L14.4059 12.5749L13.6056 12.7749L13.0054 13.1751L12.205 13.3751L11.6048 13.5754L11.0045 13.9753L10.4043 14.1756L9.60396 14.5755L9.0037 14.9758L8.40344 15.1761L8.0033 15.576L7.40304 15.9763L6.8028 16.1762L5.80238 16.9767L5.00206 17.7769L4.20173 18.3771L3.60149 19.1776L3.00123 19.9778L2.60107 20.7783H2.40098L2.60107 20.9783L3.00123 21.3786L3.4014 21.9788L4.00164 22.579L4.60188 23.1792L5.40221 23.7795L6.00247 24.3797L6.8028 25.1802L7.60313 25.7804L8.40344 26.5806L9.20378 27.1808L10.0041 27.9813L11.0045 28.7815L12.205 29.782L13.4055 30.7825L14.606 31.7826L16.0066 32.7831L17.2071 33.7836L18.6076 34.784L20.0082 35.7845L21.2087 36.7847L22.6093 37.7851L24.0099 38.7856L25.4104 39.7861L26.811 40.7866L28.0115 41.7867L29.4121 42.7872L30.8127 43.7877L32.0131 44.5879L33.0136 43.1875V51.7908L32.0131 53.1916Z" fill="url(#paint5_linear_1_27301)"/>
<path fill-rule="evenodd" clip-rule="evenodd" d="M32.0469 44.5606C25.4441 39.7587 17.2408 33.7563 11.0382 28.7543C6.23625 24.7526 2.43468 21.1512 1.23418 19.1504C0.233772 17.3497 0.0337047 15.5488 0.233787 13.7481C0.834034 10.9469 2.83485 8.54606 5.83608 6.34515C8.83732 4.34433 12.6389 2.74356 16.8406 1.54307C25.044 -0.657835 34.848 -0.657774 41.6508 2.54354C48.2535 5.74486 53.6557 5.74482 59.058 5.9449C62.0592 5.9449 65.0604 5.94477 68.2618 6.7451L65.8608 8.14582C63.6599 7.94574 61.2589 7.74557 59.058 7.74557C53.6557 7.74557 47.8534 7.54563 41.0506 4.14424C34.6479 1.143 25.2441 1.14294 17.4409 3.14376C13.4392 4.14418 9.83772 5.74475 7.03657 7.74557C4.4355 9.54631 2.63476 11.7472 2.03451 13.9481C1.83443 15.3486 2.03453 16.7494 2.83486 18.1499C3.83527 20.1508 7.43674 23.3522 12.2387 27.3538C18.4413 32.556 26.4446 38.5583 33.2474 43.1602L32.2469 44.5606H32.0469Z" fill="#6A8085"/>
<path fill-rule="evenodd" clip-rule="evenodd" d="M32.0469 44.5606C25.4441 39.7587 17.2408 33.7563 11.0382 28.7543C6.23625 24.7526 2.43468 21.1512 1.23418 19.1504C0.233772 17.3497 0.0337047 15.5488 0.233787 13.7481C0.834034 10.9469 2.83485 8.54606 5.83608 6.34515C8.83732 4.34433 12.6389 2.74356 16.8406 1.54307C25.044 -0.657835 34.848 -0.657774 41.6508 2.54354C48.2535 5.74486 53.6557 5.74482 59.058 5.9449C62.0592 5.9449 65.0604 5.94477 68.2618 6.7451L65.8608 8.14582C63.6599 7.94574 61.2589 7.74557 59.058 7.74557C53.6557 7.74557 47.8534 7.54563 41.0506 4.14424C34.6479 1.143 25.2441 1.14294 17.4409 3.14376C13.4392 4.14418 9.83772 5.74475 7.03657 7.74557C4.4355 9.54631 2.63476 11.7472 2.03451 13.9481C1.83443 15.3486 2.03453 16.7494 2.83486 18.1499C3.83527 20.1508 7.43674 23.3522 12.2387 27.3538C18.4413 32.556 26.4446 38.5583 33.2474 43.1602L32.2469 44.5606H32.0469Z" fill="url(#paint6_linear_1_27301)"/>
<path fill-rule="evenodd" clip-rule="evenodd" d="M32.0469 44.5606C25.4441 39.7587 17.2408 33.7563 11.0382 28.7543C6.23625 24.7526 2.43468 21.1512 1.23418 19.1504C0.233772 17.3497 0.0337047 15.5488 0.233787 13.7481C0.834034 10.9469 2.83485 8.54606 5.83608 6.34515C8.83732 4.34433 12.6389 2.74356 16.8406 1.54307C25.044 -0.657835 34.848 -0.657774 41.6508 2.54354C48.2535 5.74486 53.6557 5.74482 59.058 5.9449C62.0592 5.9449 65.0604 5.94477 68.2618 6.7451L65.8608 8.14582C63.6599 7.94574 61.2589 7.74557 59.058 7.74557C53.6557 7.74557 47.8534 7.54563 41.0506 4.14424C34.6479 1.143 25.2441 1.14294 17.4409 3.14376C13.4392 4.14418 9.83772 5.74475 7.03657 7.74557C4.4355 9.54631 2.63476 11.7472 2.03451 13.9481C1.83443 15.3486 2.03453 16.7494 2.83486 18.1499C3.83527 20.1508 7.43674 23.3522 12.2387 27.3538C18.4413 32.556 26.4446 38.5583 33.2474 43.1602L32.2469 44.5606H32.0469Z" fill="url(#paint7_linear_1_27301)"/>
<path fill-rule="evenodd" clip-rule="evenodd" d="M34.6194 40.8976L31.8182 39.2969L28.2168 41.2978L31.0179 42.8985L34.6194 40.8976Z" fill="#899EA3"/>
<path fill-rule="evenodd" clip-rule="evenodd" d="M34.6194 40.8976L31.8182 39.2969L28.2168 41.2978L31.0179 42.8985L34.6194 40.8976Z" fill="url(#paint8_linear_1_27301)"/>
<path fill-rule="evenodd" clip-rule="evenodd" d="M31.0179 42.9249L28.2168 41.3242V52.929L31.0179 54.3294V42.9249Z" fill="#697B80"/>
<path fill-rule="evenodd" clip-rule="evenodd" d="M31.0179 42.9249L28.2168 41.3242V52.929L31.0179 54.3294V42.9249Z" fill="url(#paint9_linear_1_27301)"/>
<path fill-rule="evenodd" clip-rule="evenodd" d="M34.6347 52.3697V40.9648L31.0332 42.9658V54.3703L34.6347 52.3697Z" fill="#EBEBEB"/>
<path fill-rule="evenodd" clip-rule="evenodd" d="M34.6347 52.3697V40.9648L31.0332 42.9658V54.3703L34.6347 52.3697Z" fill="url(#paint10_linear_1_27301)"/>
<path fill-rule="evenodd" clip-rule="evenodd" d="M93.4509 39.9891V14.5786C93.4509 14.5786 93.2508 13.1783 92.6506 12.9782C92.2504 12.7781 91.6502 12.7781 90.8498 12.9782L47.2319 38.1884C47.2319 38.1884 45.8313 39.1888 45.4312 39.9891C45.4312 39.9891 44.6309 41.59 44.6309 42.3903V67.8005C44.6309 67.8005 44.8309 69.2011 45.4312 69.4012C45.8313 69.6013 46.4316 69.6013 47.2319 69.4012C64.6391 59.3971 74.243 53.7949 90.8498 44.191C91.4501 43.7908 92.2504 43.1906 92.6506 42.3903C92.6506 42.3903 93.4509 40.7894 93.4509 39.9891ZM48.6325 40.7896L89.8494 16.9798C89.8494 16.9798 90.2496 16.9798 90.4497 16.9798C90.4497 16.9798 90.6498 17.3799 90.6498 17.58V40.1894C90.6498 40.1894 90.6497 40.7894 90.4497 41.1896C90.4497 41.1896 90.0495 41.79 89.8494 41.9901L77.8445 48.9927C77.8445 48.9927 77.6444 48.9927 77.4443 48.9927C77.4443 48.9927 77.2442 48.9927 77.0442 48.9927L73.6428 46.9921C73.6428 46.9921 73.2426 46.9921 72.8425 46.9921C72.8425 46.9921 72.2422 46.992 72.0421 47.1921L66.4398 50.3935C66.4398 50.3935 65.8396 50.7936 65.6395 50.9937C65.6395 50.9937 65.0393 51.594 64.8392 51.9942L61.4378 57.9967C61.4378 57.9967 61.4378 58.3966 61.2377 58.3966C61.2377 58.3966 61.0376 58.5969 60.8375 58.5969L48.8326 65.5996C48.8326 65.5996 48.4324 65.5996 48.2323 65.5996C48.2323 65.5996 48.0323 65.1995 48.0323 64.9994V42.3903C48.0323 42.3903 48.0323 41.79 48.2323 41.3898C48.2323 41.1897 48.6325 40.7894 48.8326 40.5893L48.6325 40.7896Z" fill="#EBEBEB"/>
<path fill-rule="evenodd" clip-rule="evenodd" d="M93.4509 39.9891V14.5786C93.4509 14.5786 93.2508 13.1783 92.6506 12.9782C92.2504 12.7781 91.6502 12.7781 90.8498 12.9782L47.2319 38.1884C47.2319 38.1884 45.8313 39.1888 45.4312 39.9891C45.4312 39.9891 44.6309 41.59 44.6309 42.3903V67.8005C44.6309 67.8005 44.8309 69.2011 45.4312 69.4012C45.8313 69.6013 46.4316 69.6013 47.2319 69.4012C64.6391 59.3971 74.243 53.7949 90.8498 44.191C91.4501 43.7908 92.2504 43.1906 92.6506 42.3903C92.6506 42.3903 93.4509 40.7894 93.4509 39.9891ZM48.6325 40.7896L89.8494 16.9798C89.8494 16.9798 90.2496 16.9798 90.4497 16.9798C90.4497 16.9798 90.6498 17.3799 90.6498 17.58V40.1894C90.6498 40.1894 90.6497 40.7894 90.4497 41.1896C90.4497 41.1896 90.0495 41.79 89.8494 41.9901L77.8445 48.9927C77.8445 48.9927 77.6444 48.9927 77.4443 48.9927C77.4443 48.9927 77.2442 48.9927 77.0442 48.9927L73.6428 46.9921C73.6428 46.9921 73.2426 46.9921 72.8425 46.9921C72.8425 46.9921 72.2422 46.992 72.0421 47.1921L66.4398 50.3935C66.4398 50.3935 65.8396 50.7936 65.6395 50.9937C65.6395 50.9937 65.0393 51.594 64.8392 51.9942L61.4378 57.9967C61.4378 57.9967 61.4378 58.3966 61.2377 58.3966C61.2377 58.3966 61.0376 58.5969 60.8375 58.5969L48.8326 65.5996C48.8326 65.5996 48.4324 65.5996 48.2323 65.5996C48.2323 65.5996 48.0323 65.1995 48.0323 64.9994V42.3903C48.0323 42.3903 48.0323 41.79 48.2323 41.3898C48.2323 41.1897 48.6325 40.7894 48.8326 40.5893L48.6325 40.7896Z" fill="url(#paint11_linear_1_27301)"/>
<path fill-rule="evenodd" clip-rule="evenodd" d="M64.8061 45.4123L64.2059 46.6127C64.2059 46.6127 63.6056 47.213 63.4055 47.213C63.2054 47.213 63.2054 46.613 63.4055 46.2128L58.6035 48.8137V49.0139V49.2139V49.4139L55.2021 55.4164L48 58.5V66L61.0045 58.8178C61.0045 58.8178 61.2046 58.8179 61.4047 58.6178C61.4047 58.6178 61.6048 58.4176 61.8049 58.2176L65.2063 52.215C65.2063 52.215 65.6064 51.615 66.0066 51.2149C66.0066 51.2149 66.6068 50.6146 66.8069 50.6146L72.4092 47.4132C72.4092 47.4132 73.0095 47.213 73.2096 47.213C73.2096 47.213 73.6097 47.213 74.0099 47.213L77.4113 49.2139C77.4113 49.2139 77.4113 49.2139 77.8115 49.2139C77.8115 49.2139 78.0115 49.2139 78.2116 49.2139L90.2165 42.2109C90.2165 42.2109 90.6167 41.8109 90.8168 41.4107C90.8168 41.2106 91.0169 40.8104 91.0169 40.4102V16.5L88.5 17.5L85.2145 28.6055C85.2145 28.6055 85.2145 28.6054 85.2145 28.8054V36.8089V37.0089V37.2089V37.4091V37.6091V37.8091L83.2137 39.0098L73.0095 45.012H72.8094L69.2079 43.0114L64.8061 45.4123ZM82.8135 28.6055V24.2036L86.2149 22.2027L82.8135 28.6055Z" fill="#143D59"/>
<path fill-rule="evenodd" clip-rule="evenodd" d="M64.8061 45.4123L64.2059 46.6127C64.2059 46.6127 63.6056 47.213 63.4055 47.213C63.2054 47.213 63.2054 46.613 63.4055 46.2128L58.6035 48.8137V49.0139V49.2139V49.4139L55.2021 55.4164L48 58.5V66L61.0045 58.8178C61.0045 58.8178 61.2046 58.8179 61.4047 58.6178C61.4047 58.6178 61.6048 58.4176 61.8049 58.2176L65.2063 52.215C65.2063 52.215 65.6064 51.615 66.0066 51.2149C66.0066 51.2149 66.6068 50.6146 66.8069 50.6146L72.4092 47.4132C72.4092 47.4132 73.0095 47.213 73.2096 47.213C73.2096 47.213 73.6097 47.213 74.0099 47.213L77.4113 49.2139C77.4113 49.2139 77.4113 49.2139 77.8115 49.2139C77.8115 49.2139 78.0115 49.2139 78.2116 49.2139L90.2165 42.2109C90.2165 42.2109 90.6167 41.8109 90.8168 41.4107C90.8168 41.2106 91.0169 40.8104 91.0169 40.4102V16.5L88.5 17.5L85.2145 28.6055C85.2145 28.6055 85.2145 28.6054 85.2145 28.8054V36.8089V37.0089V37.2089V37.4091V37.6091V37.8091L83.2137 39.0098L73.0095 45.012H72.8094L69.2079 43.0114L64.8061 45.4123ZM82.8135 28.6055V24.2036L86.2149 22.2027L82.8135 28.6055Z" fill="url(#paint12_linear_1_27301)"/>
<path fill-rule="evenodd" clip-rule="evenodd" d="M39.8307 47.7755C38.4301 46.9752 37.4297 45.1746 37.4297 43.574C37.4297 41.9733 38.4301 41.3729 39.8307 42.1732C41.2313 42.9736 42.2317 44.7744 42.2317 46.3751C42.2317 47.9758 41.2313 48.5758 39.8307 47.7755Z" fill="#A6392D"/>
<path fill-rule="evenodd" clip-rule="evenodd" d="M39.8307 47.7755C38.4301 46.9752 37.4297 45.1746 37.4297 43.574C37.4297 41.9733 38.4301 41.3729 39.8307 42.1732C41.2313 42.9736 42.2317 44.7744 42.2317 46.3751C42.2317 47.9758 41.2313 48.5758 39.8307 47.7755Z" fill="url(#paint13_linear_1_27301)"/>
<path fill-rule="evenodd" clip-rule="evenodd" d="M39.8307 56.5177C38.4301 55.7174 37.4297 53.9168 37.4297 52.3161C37.4297 50.7155 38.4301 50.1151 39.8307 50.9154C41.2313 51.7158 42.2317 53.5166 42.2317 55.1173C42.2317 56.7179 41.2313 57.318 39.8307 56.5177Z" fill="#D9B629"/>
<path fill-rule="evenodd" clip-rule="evenodd" d="M39.8307 56.5177C38.4301 55.7174 37.4297 53.9168 37.4297 52.3161C37.4297 50.7155 38.4301 50.1151 39.8307 50.9154C41.2313 51.7158 42.2317 53.5166 42.2317 55.1173C42.2317 56.7179 41.2313 57.318 39.8307 56.5177Z" fill="url(#paint14_linear_1_27301)"/>
<defs>
<linearGradient id="paint0_linear_1_27301" x1="54.911" y1="37.7208" x2="89.6447" y2="38.0236" gradientUnits="userSpaceOnUse">
<stop stop-color="#E6F0FF"/>
<stop offset="0.24" stop-color="#E2ECFD"/>
<stop offset="0.47" stop-color="#D6E3F8"/>
<stop offset="0.69" stop-color="#C3D3F0"/>
<stop offset="0.91" stop-color="#A9BDE4"/>
<stop offset="1" stop-color="#9CB2DF"/>
</linearGradient>
<linearGradient id="paint1_linear_1_27301" x1="43.2812" y1="35.8105" x2="93.8303" y2="36.2983" gradientUnits="userSpaceOnUse">
<stop stop-color="#E6F0FF"/>
<stop offset="0.24" stop-color="#E2ECFD"/>
<stop offset="0.47" stop-color="#D6E3F8"/>
<stop offset="0.69" stop-color="#C3D3F0"/>
<stop offset="0.91" stop-color="#A9BDE4"/>
<stop offset="1" stop-color="#9CB2DF"/>
</linearGradient>
<linearGradient id="paint2_linear_1_27301" x1="48.0194" y1="40.5493" x2="88.8208" y2="40.5493" gradientUnits="userSpaceOnUse">
<stop stop-color="#4AFFC7"/>
<stop offset="1" stop-color="#3BADEA"/>
</linearGradient>
<linearGradient id="paint3_linear_1_27301" x1="47.8141" y1="40.8438" x2="88.8155" y2="40.8438" gradientUnits="userSpaceOnUse">
<stop stop-color="#4AFFC7"/>
<stop offset="1" stop-color="#3BADEA"/>
</linearGradient>
<linearGradient id="paint4_linear_1_27301" x1="32.2343" y1="50.0156" x2="46.1906" y2="50.0796" gradientUnits="userSpaceOnUse">
<stop stop-color="#E6F0FF"/>
<stop offset="0.24" stop-color="#E2ECFD"/>
<stop offset="0.47" stop-color="#D6E3F8"/>
<stop offset="0.69" stop-color="#C3D3F0"/>
<stop offset="0.91" stop-color="#A9BDE4"/>
<stop offset="1" stop-color="#9CB2DF"/>
</linearGradient>
<linearGradient id="paint5_linear_1_27301" x1="15.4001" y1="26.9422" x2="66.4111" y2="27.5853" gradientUnits="userSpaceOnUse">
<stop stop-color="#E6F0FF"/>
<stop offset="0.24" stop-color="#E2ECFD"/>
<stop offset="0.47" stop-color="#D6E3F8"/>
<stop offset="0.69" stop-color="#C3D3F0"/>
<stop offset="0.91" stop-color="#A9BDE4"/>
<stop offset="1" stop-color="#9CB2DF"/>
</linearGradient>
<linearGradient id="paint6_linear_1_27301" x1="16.0954" y1="21.9016" x2="68.8623" y2="22.6988" gradientUnits="userSpaceOnUse">
<stop stop-color="#E6F0FF"/>
<stop offset="0.24" stop-color="#E2ECFD"/>
<stop offset="0.47" stop-color="#D6E3F8"/>
<stop offset="0.69" stop-color="#C3D3F0"/>
<stop offset="0.91" stop-color="#A9BDE4"/>
<stop offset="1" stop-color="#9CB2DF"/>
</linearGradient>
<linearGradient id="paint7_linear_1_27301" x1="0.144339" y1="22.2803" x2="68.2163" y2="22.2803" gradientUnits="userSpaceOnUse">
<stop stop-color="#4AFFC7"/>
<stop offset="1" stop-color="#3BADEA"/>
</linearGradient>
<linearGradient id="paint8_linear_1_27301" x1="29.7147" y1="41.0671" x2="34.6755" y2="41.1543" gradientUnits="userSpaceOnUse">
<stop stop-color="#E6F0FF"/>
<stop offset="0.24" stop-color="#E2ECFD"/>
<stop offset="0.47" stop-color="#D6E3F8"/>
<stop offset="0.69" stop-color="#C3D3F0"/>
<stop offset="0.91" stop-color="#A9BDE4"/>
<stop offset="1" stop-color="#9CB2DF"/>
</linearGradient>
<linearGradient id="paint9_linear_1_27301" x1="28.8721" y1="47.7163" x2="31.0431" y2="47.7209" gradientUnits="userSpaceOnUse">
<stop stop-color="#E6F0FF"/>
<stop offset="0.24" stop-color="#E2ECFD"/>
<stop offset="0.47" stop-color="#D6E3F8"/>
<stop offset="0.69" stop-color="#C3D3F0"/>
<stop offset="0.91" stop-color="#A9BDE4"/>
<stop offset="1" stop-color="#9CB2DF"/>
</linearGradient>
<linearGradient id="paint10_linear_1_27301" x1="31.8758" y1="47.5536" x2="34.6671" y2="47.5611" gradientUnits="userSpaceOnUse">
<stop stop-color="#E6F0FF"/>
<stop offset="0.24" stop-color="#E2ECFD"/>
<stop offset="0.47" stop-color="#D6E3F8"/>
<stop offset="0.69" stop-color="#C3D3F0"/>
<stop offset="0.91" stop-color="#A9BDE4"/>
<stop offset="1" stop-color="#9CB2DF"/>
</linearGradient>
<linearGradient id="paint11_linear_1_27301" x1="56.0522" y1="40.7076" x2="93.8873" y2="41.0295" gradientUnits="userSpaceOnUse">
<stop stop-color="#E6F0FF"/>
<stop offset="0.24" stop-color="#E2ECFD"/>
<stop offset="0.47" stop-color="#D6E3F8"/>
<stop offset="0.69" stop-color="#C3D3F0"/>
<stop offset="0.91" stop-color="#A9BDE4"/>
<stop offset="1" stop-color="#9CB2DF"/>
</linearGradient>
<linearGradient id="paint12_linear_1_27301" x1="49.9881" y1="42.1095" x2="90.9895" y2="42.1095" gradientUnits="userSpaceOnUse">
<stop stop-color="#4AFFC7"/>
<stop offset="1" stop-color="#3BADEA"/>
</linearGradient>
<linearGradient id="paint13_linear_1_27301" x1="37.4283" y1="44.9744" x2="42.2285" y2="44.9744" gradientUnits="userSpaceOnUse">
<stop stop-color="#4AFFC7"/>
<stop offset="1" stop-color="#3BADEA"/>
</linearGradient>
<linearGradient id="paint14_linear_1_27301" x1="37.4283" y1="53.7166" x2="42.2285" y2="53.7166" gradientUnits="userSpaceOnUse">
<stop stop-color="#4AFFC7"/>
<stop offset="1" stop-color="#3BADEA"/>
</linearGradient>
</defs>
</svg>
