<svg width="103" height="111" viewBox="0 0 103 111" fill="none" xmlns="http://www.w3.org/2000/svg">
<path d="M87.8642 4.60547H87.0957V30.7371H87.8642V4.60547Z" fill="#2C3E50"/>
<path d="M87.8642 4.60547H87.0957V30.7371H87.8642V4.60547Z" fill="url(#paint0_linear_1_27269)"/>
<path fill-rule="evenodd" clip-rule="evenodd" d="M87.2348 31.8783C87.2348 31.8783 88.5156 31.6221 88.6437 31.1097C88.7717 30.4692 88.3875 29.8287 87.8751 29.7006C87.2346 29.5725 86.5943 29.9568 86.4662 30.4692C86.3381 31.1097 86.7224 31.7502 87.2348 31.8783Z" fill="#FAC13C"/>
<path fill-rule="evenodd" clip-rule="evenodd" d="M87.2348 31.8783C87.2348 31.8783 88.5156 31.6221 88.6437 31.1097C88.7717 30.4692 88.3875 29.8287 87.8751 29.7006C87.2346 29.5725 86.5943 29.9568 86.4662 30.4692C86.3381 31.1097 86.7224 31.7502 87.2348 31.8783Z" fill="url(#paint1_linear_1_27269)"/>
<path fill-rule="evenodd" clip-rule="evenodd" d="M102.616 39.668C103.641 59.1386 73.6665 60.9319 72.5137 39.668V40.0522V40.4365V40.8208L72.7697 41.2051V41.5894L73.154 41.9737L73.4104 42.358L73.6665 42.7423L73.9225 43.1266L74.3068 43.5108L74.6911 43.8951L75.0754 44.2794L75.4596 44.6637L75.9721 45.048L76.4846 45.4323L76.9971 45.6885L77.5092 45.9447L78.1499 46.2009L78.7903 46.4571L79.431 46.7133L80.0713 46.9694L80.7116 47.2256H81.3523L81.9927 47.6099H82.7612L83.5298 47.8661H84.2983L85.0668 47.9942H85.8358H86.6043H87.3729H88.1414H88.91H89.6785H90.4471L91.2156 47.8661H91.8559L92.4966 47.6099H93.137L93.7777 47.3537H94.418L95.0583 46.9694L95.6991 46.7133L96.3394 46.4571L96.9801 46.2009L97.6204 45.9447L98.1329 45.6885L98.6454 45.4323L99.1575 45.1761L99.67 44.7918L100.182 44.4075L100.567 44.0232L100.951 43.6389L101.335 43.2546L101.72 42.8704L101.976 42.4861L102.232 42.1018L102.488 41.7175V41.3332L102.872 40.9489V40.5646L103.001 40.1803V39.796L102.616 39.668Z" fill="#FAC13C"/>
<path fill-rule="evenodd" clip-rule="evenodd" d="M102.616 39.668C103.641 59.1386 73.6665 60.9319 72.5137 39.668V40.0522V40.4365V40.8208L72.7697 41.2051V41.5894L73.154 41.9737L73.4104 42.358L73.6665 42.7423L73.9225 43.1266L74.3068 43.5108L74.6911 43.8951L75.0754 44.2794L75.4596 44.6637L75.9721 45.048L76.4846 45.4323L76.9971 45.6885L77.5092 45.9447L78.1499 46.2009L78.7903 46.4571L79.431 46.7133L80.0713 46.9694L80.7116 47.2256H81.3523L81.9927 47.6099H82.7612L83.5298 47.8661H84.2983L85.0668 47.9942H85.8358H86.6043H87.3729H88.1414H88.91H89.6785H90.4471L91.2156 47.8661H91.8559L92.4966 47.6099H93.137L93.7777 47.3537H94.418L95.0583 46.9694L95.6991 46.7133L96.3394 46.4571L96.9801 46.2009L97.6204 45.9447L98.1329 45.6885L98.6454 45.4323L99.1575 45.1761L99.67 44.7918L100.182 44.4075L100.567 44.0232L100.951 43.6389L101.335 43.2546L101.72 42.8704L101.976 42.4861L102.232 42.1018L102.488 41.7175V41.3332L102.872 40.9489V40.5646L103.001 40.1803V39.796L102.616 39.668Z" fill="url(#paint2_linear_1_27269)"/>
<path fill-rule="evenodd" clip-rule="evenodd" d="M79.9322 46.9932C72.7588 44.5594 70.197 39.3075 74.4241 35.0803C78.5232 30.9812 87.7459 29.4441 95.0474 31.8779C102.221 34.3117 104.783 39.5637 100.556 43.7908C96.4568 47.8899 87.2337 49.4271 79.9322 46.9932Z" fill="#F5BE3D"/>
<path fill-rule="evenodd" clip-rule="evenodd" d="M79.9322 46.9932C72.7588 44.5594 70.197 39.3075 74.4241 35.0803C78.5232 30.9812 87.7459 29.4441 95.0474 31.8779C102.221 34.3117 104.783 39.5637 100.556 43.7908C96.4568 47.8899 87.2337 49.4271 79.9322 46.9932Z" fill="url(#paint3_linear_1_27269)"/>
<path fill-rule="evenodd" clip-rule="evenodd" d="M80.6924 45.6824C74.1595 43.5048 71.854 38.6371 75.6968 34.9223C79.5397 31.0795 87.8659 29.7985 94.3988 31.9761C100.932 34.1538 103.238 39.0214 99.3947 42.7362C95.5518 46.5791 87.2253 47.8601 80.6924 45.6824Z" fill="#D19917"/>
<path fill-rule="evenodd" clip-rule="evenodd" d="M80.6924 45.6824C74.1595 43.5048 71.854 38.6371 75.6968 34.9223C79.5397 31.0795 87.8659 29.7985 94.3988 31.9761C100.932 34.1538 103.238 39.0214 99.3947 42.7362C95.5518 46.5791 87.2253 47.8601 80.6924 45.6824Z" fill="url(#paint4_linear_1_27269)"/>
<path fill-rule="evenodd" clip-rule="evenodd" d="M80.6887 45.7159C79.4078 45.3316 78.383 44.8192 77.4863 44.1787C81.7135 41.4887 88.7589 40.7201 94.3951 42.6416C95.6761 43.0259 96.7009 43.5382 97.5975 44.1787C93.3704 46.8687 86.325 47.6373 80.6887 45.7159Z" fill="#DEAA31"/>
<path fill-rule="evenodd" clip-rule="evenodd" d="M80.6887 45.7159C79.4078 45.3316 78.383 44.8192 77.4863 44.1787C81.7135 41.4887 88.7589 40.7201 94.3951 42.6416C95.6761 43.0259 96.7009 43.5382 97.5975 44.1787C93.3704 46.8687 86.325 47.6373 80.6887 45.7159Z" fill="url(#paint5_linear_1_27269)"/>
<path fill-rule="evenodd" clip-rule="evenodd" d="M87.8642 4.45312L99.7775 42.6258L99.0089 42.882L87.0957 4.70932L87.8642 4.45312Z" fill="#2C3E50"/>
<path fill-rule="evenodd" clip-rule="evenodd" d="M87.8642 4.45312L99.7775 42.6258L99.0089 42.882L87.0957 4.70932L87.8642 4.45312Z" fill="url(#paint6_linear_1_27269)"/>
<path fill-rule="evenodd" clip-rule="evenodd" d="M87.8614 4.70932L75.0517 41.7291L74.2832 41.4729L87.0928 4.45312L87.8614 4.70932Z" fill="#2C3E50"/>
<path fill-rule="evenodd" clip-rule="evenodd" d="M87.8614 4.70932L75.0517 41.7291L74.2832 41.4729L87.0928 4.45312L87.8614 4.70932Z" fill="url(#paint7_linear_1_27269)"/>
<path fill-rule="evenodd" clip-rule="evenodd" d="M86.2103 7.80644C88.2598 8.31882 90.4371 7.16594 91.0776 4.98831C91.59 2.93877 90.4371 0.761168 88.2595 0.120687C86.21 -0.391698 84.0326 0.761135 83.3922 2.93877C82.8798 4.98831 84.0327 7.16596 86.2103 7.80644Z" fill="#DEB24C"/>
<path fill-rule="evenodd" clip-rule="evenodd" d="M86.2103 7.80644C88.2598 8.31882 90.4371 7.16594 91.0776 4.98831C91.59 2.93877 90.4371 0.761168 88.2595 0.120687C86.21 -0.391698 84.0326 0.761135 83.3922 2.93877C82.8798 4.98831 84.0327 7.16596 86.2103 7.80644Z" fill="url(#paint8_linear_1_27269)"/>
<path fill-rule="evenodd" clip-rule="evenodd" d="M86.855 7.14734C88.6483 7.65973 90.5698 6.50688 90.9541 4.71353C91.4665 2.92018 90.3136 0.998745 88.5203 0.614456C86.7269 0.102071 84.8054 1.25492 84.4211 3.04827C83.9087 4.84161 85.0616 6.76305 86.855 7.14734Z" fill="#FAC13C"/>
<path fill-rule="evenodd" clip-rule="evenodd" d="M86.855 7.14734C88.6483 7.65973 90.5698 6.50688 90.9541 4.71353C91.4665 2.92018 90.3136 0.998745 88.5203 0.614456C86.7269 0.102071 84.8054 1.25492 84.4211 3.04827C83.9087 4.84161 85.0616 6.76305 86.855 7.14734Z" fill="url(#paint9_linear_1_27269)"/>
<path fill-rule="evenodd" clip-rule="evenodd" d="M99.3969 44.4368C99.3969 44.4368 100.678 44.1806 100.806 43.6682C100.934 43.0277 100.55 42.3873 100.037 42.2592C99.3967 42.1311 98.7564 42.5154 98.6283 43.0277C98.5002 43.6682 98.8845 44.3087 99.3969 44.4368Z" fill="#FAC13C"/>
<path fill-rule="evenodd" clip-rule="evenodd" d="M99.3969 44.4368C99.3969 44.4368 100.678 44.1806 100.806 43.6682C100.934 43.0277 100.55 42.3873 100.037 42.2592C99.3967 42.1311 98.7564 42.5154 98.6283 43.0277C98.5002 43.6682 98.8845 44.3087 99.3969 44.4368Z" fill="url(#paint10_linear_1_27269)"/>
<path fill-rule="evenodd" clip-rule="evenodd" d="M73.9027 42.6322C73.9027 42.6322 75.1839 42.376 75.312 41.8636C75.4401 41.2231 75.0558 40.5826 74.5435 40.4545C73.903 40.3264 73.2623 40.7107 73.1342 41.2231C73.0061 41.8636 73.3904 42.5041 73.9027 42.6322Z" fill="#FAC13C"/>
<path fill-rule="evenodd" clip-rule="evenodd" d="M73.9027 42.6322C73.9027 42.6322 75.1839 42.376 75.312 41.8636C75.4401 41.2231 75.0558 40.5826 74.5435 40.4545C73.903 40.3264 73.2623 40.7107 73.1342 41.2231C73.0061 41.8636 73.3904 42.5041 73.9027 42.6322Z" fill="url(#paint11_linear_1_27269)"/>
<path d="M15.5088 46.4766H14.7402V72.6082H15.5088V46.4766Z" fill="#2C3E50"/>
<path d="M15.5088 46.4766H14.7402V72.6082H15.5088V46.4766Z" fill="url(#paint12_linear_1_27269)"/>
<path fill-rule="evenodd" clip-rule="evenodd" d="M14.8539 73.7533C14.8539 73.7533 16.1347 73.4971 16.2628 72.9847C16.3909 72.3442 16.0066 71.7037 15.4942 71.5756C14.8538 71.4475 14.2135 71.8318 14.0854 72.3442C13.9573 72.9847 14.3415 73.6252 14.8539 73.7533Z" fill="#FAC13C"/>
<path fill-rule="evenodd" clip-rule="evenodd" d="M14.8539 73.7533C14.8539 73.7533 16.1347 73.4971 16.2628 72.9847C16.3909 72.3442 16.0066 71.7037 15.4942 71.5756C14.8538 71.4475 14.2135 71.8318 14.0854 72.3442C13.9573 72.9847 14.3415 73.6252 14.8539 73.7533Z" fill="url(#paint13_linear_1_27269)"/>
<path fill-rule="evenodd" clip-rule="evenodd" d="M30.2292 81.5703C31.254 101.041 1.27982 102.834 0.126953 81.5703V81.9546V82.3389V82.7232L0.383005 83.1075V83.4917L0.767278 83.876L1.02333 84.2603L1.27977 84.6446L1.53582 85.0289L1.9201 85.4132L2.30437 85.7975L2.68864 86.1817L3.07292 86.5661L3.58541 86.9503L4.0979 87.2065L4.61001 87.4627L5.1225 87.7189L5.76322 87.9751L6.40354 88.2313L7.04387 88.4875L7.68458 88.7437L8.32491 88.9999L8.96562 89.2561H9.60595L10.3745 89.5123H11.143L11.9116 89.7685H12.6801L13.4487 89.8965H14.2172H14.9858H16.395H17.1636H17.9321L18.7007 89.7685H19.3414L19.9817 89.5123H20.622L21.2627 89.2561H21.9031L22.5438 88.8718L23.1841 88.6156L23.8244 88.3594L24.4652 88.1032L25.1055 87.847L25.618 87.5908L26.1305 87.3346L26.6426 87.0785L27.1551 86.6941L27.6676 86.3099L28.0518 85.9256L28.4361 85.5413L28.8204 85.157L29.2046 84.7727L29.4607 84.3884L29.7171 84.0041L29.9732 83.6198V83.2355L30.3575 82.8513V82.467L30.4857 82.0827V81.6984L30.2292 81.5703Z" fill="#FAC13C"/>
<path fill-rule="evenodd" clip-rule="evenodd" d="M30.2292 81.5703C31.254 101.041 1.27982 102.834 0.126953 81.5703V81.9546V82.3389V82.7232L0.383005 83.1075V83.4917L0.767278 83.876L1.02333 84.2603L1.27977 84.6446L1.53582 85.0289L1.9201 85.4132L2.30437 85.7975L2.68864 86.1817L3.07292 86.5661L3.58541 86.9503L4.0979 87.2065L4.61001 87.4627L5.1225 87.7189L5.76322 87.9751L6.40354 88.2313L7.04387 88.4875L7.68458 88.7437L8.32491 88.9999L8.96562 89.2561H9.60595L10.3745 89.5123H11.143L11.9116 89.7685H12.6801L13.4487 89.8965H14.2172H14.9858H16.395H17.1636H17.9321L18.7007 89.7685H19.3414L19.9817 89.5123H20.622L21.2627 89.2561H21.9031L22.5438 88.8718L23.1841 88.6156L23.8244 88.3594L24.4652 88.1032L25.1055 87.847L25.618 87.5908L26.1305 87.3346L26.6426 87.0785L27.1551 86.6941L27.6676 86.3099L28.0518 85.9256L28.4361 85.5413L28.8204 85.157L29.2046 84.7727L29.4607 84.3884L29.7171 84.0041L29.9732 83.6198V83.2355L30.3575 82.8513V82.467L30.4857 82.0827V81.6984L30.2292 81.5703Z" fill="url(#paint14_linear_1_27269)"/>
<path fill-rule="evenodd" clip-rule="evenodd" d="M7.55326 88.8648C0.379875 86.431 -2.18196 81.179 2.04522 76.9519C6.1443 72.7247 15.367 71.3156 22.6685 73.7495C29.8419 76.1833 32.4041 81.4352 28.177 85.6624C24.0779 89.7615 14.8547 91.2986 7.55326 88.8648Z" fill="#F5BE3D"/>
<path fill-rule="evenodd" clip-rule="evenodd" d="M7.55326 88.8648C0.379875 86.431 -2.18196 81.179 2.04522 76.9519C6.1443 72.7247 15.367 71.3156 22.6685 73.7495C29.8419 76.1833 32.4041 81.4352 28.177 85.6624C24.0779 89.7615 14.8547 91.2986 7.55326 88.8648Z" fill="url(#paint15_linear_1_27269)"/>
<path fill-rule="evenodd" clip-rule="evenodd" d="M8.33326 87.6026C7.0523 87.2183 6.02753 86.7059 5.13086 86.0654C9.35803 83.3754 16.4034 82.6068 22.0397 84.5283C23.3206 84.9126 24.3454 85.4249 25.2421 86.0654C21.0149 88.7554 13.9695 89.524 8.33326 87.6026Z" fill="#DEAA31"/>
<path fill-rule="evenodd" clip-rule="evenodd" d="M8.33326 87.6026C7.0523 87.2183 6.02753 86.7059 5.13086 86.0654C9.35803 83.3754 16.4034 82.6068 22.0397 84.5283C23.3206 84.9126 24.3454 85.4249 25.2421 86.0654C21.0149 88.7554 13.9695 89.524 8.33326 87.6026Z" fill="url(#paint16_linear_1_27269)"/>
<path d="M15.603 46.6547L14.8691 46.8828L26.734 85.047L27.4679 84.8188L15.603 46.6547Z" fill="#2C3E50"/>
<path d="M15.603 46.6547L14.8691 46.8828L26.734 85.047L27.4679 84.8188L15.603 46.6547Z" fill="url(#paint17_linear_1_27269)"/>
<path d="M15.1532 46.537L2.27539 83.5586L3.00128 83.8111L15.8791 46.7895L15.1532 46.537Z" fill="#2C3E50"/>
<path d="M15.1532 46.537L2.27539 83.5586L3.00128 83.8111L15.8791 46.7895L15.1532 46.537Z" fill="url(#paint18_linear_1_27269)"/>
<path fill-rule="evenodd" clip-rule="evenodd" d="M74.6803 8.5546C67.7631 12.5256 60.9742 16.4966 54.057 20.4676C53.6727 20.7237 49.4453 23.1576 49.4453 23.1576C49.4453 23.1576 49.5734 23.1576 49.8296 23.1576C51.1105 23.1576 52.2637 25.079 52.1356 26.36C52.1356 27.0004 51.7513 27.1286 51.7513 27.1286C52.0075 27.0005 52.5199 26.6161 52.9042 26.488C62.6395 20.8518 72.5026 15.2156 82.2379 9.57935C83.9032 8.55458 85.6968 7.65791 87.3621 6.63314C88.1306 6.12075 87.7464 4.71169 87.3621 4.0712C86.9778 3.30263 85.9527 2.27788 85.056 2.79026C81.5974 4.71171 78.2671 6.76123 74.8085 8.68268L74.6803 8.5546Z" fill="#415A73"/>
<path fill-rule="evenodd" clip-rule="evenodd" d="M74.6803 8.5546C67.7631 12.5256 60.9742 16.4966 54.057 20.4676C53.6727 20.7237 49.4453 23.1576 49.4453 23.1576C49.4453 23.1576 49.5734 23.1576 49.8296 23.1576C51.1105 23.1576 52.2637 25.079 52.1356 26.36C52.1356 27.0004 51.7513 27.1286 51.7513 27.1286C52.0075 27.0005 52.5199 26.6161 52.9042 26.488C62.6395 20.8518 72.5026 15.2156 82.2379 9.57935C83.9032 8.55458 85.6968 7.65791 87.3621 6.63314C88.1306 6.12075 87.7464 4.71169 87.3621 4.0712C86.9778 3.30263 85.9527 2.27788 85.056 2.79026C81.5974 4.71171 78.2671 6.76123 74.8085 8.68268L74.6803 8.5546Z" fill="url(#paint19_linear_1_27269)"/>
<path fill-rule="evenodd" clip-rule="evenodd" d="M74.6803 8.5546C67.7631 12.5256 60.9742 16.4966 54.057 20.4676C53.6727 20.7237 49.4453 23.1576 49.4453 23.1576C49.4453 23.1576 49.5734 23.1576 49.8296 23.1576C51.1105 23.1576 52.2637 25.079 52.1356 26.36C52.1356 27.0004 51.7513 27.1286 51.7513 27.1286C52.0075 27.0005 52.5199 26.6161 52.9042 26.488C62.6395 20.8518 72.5026 15.2156 82.2379 9.57935C83.9032 8.55458 85.6968 7.65791 87.3621 6.63314C88.1306 6.12075 87.7464 4.71169 87.3621 4.0712C86.9778 3.30263 85.9527 2.27788 85.056 2.79026C81.5974 4.71171 78.2671 6.76123 74.8085 8.68268L74.6803 8.5546Z" fill="url(#paint20_linear_1_27269)"/>
<path fill-rule="evenodd" clip-rule="evenodd" d="M42.4019 104.373C32.4104 101.043 28.9517 93.6129 34.7161 87.8486C40.4804 82.0843 53.2903 80.0347 63.4099 83.3652C73.4014 86.6957 76.8597 94.1253 71.0953 99.8897C65.331 105.654 52.5215 107.704 42.4019 104.373Z" fill="#34485C"/>
<path fill-rule="evenodd" clip-rule="evenodd" d="M42.4019 104.373C32.4104 101.043 28.9517 93.6129 34.7161 87.8486C40.4804 82.0843 53.2903 80.0347 63.4099 83.3652C73.4014 86.6957 76.8597 94.1253 71.0953 99.8897C65.331 105.654 52.5215 107.704 42.4019 104.373Z" fill="url(#paint21_linear_1_27269)"/>
<path fill-rule="evenodd" clip-rule="evenodd" d="M73.7849 94.2773V98.2483V98.8888L73.6567 99.4012L73.5284 100.042L73.2724 100.554L73.0163 101.195L72.7599 101.707L72.3756 102.347L71.9913 102.86L71.4788 103.372L70.9667 104.013L70.4542 104.525L69.8139 105.037L69.1732 105.55L68.5329 105.934L67.8922 106.446L67.1236 106.831L66.3551 107.215L65.5865 107.599L64.6898 107.856L63.9212 108.24L63.0244 108.496L62.1281 108.752L61.2313 109.008L60.2067 109.265L59.3099 109.393L58.285 109.649L57.3886 109.777L56.3636 109.905H55.339L54.314 110.033H53.4172H52.3926H51.368L50.3431 109.905L49.3185 109.777H48.2935L47.2689 109.521L46.3721 109.393L45.3475 109.137L44.3225 109.008L43.4257 108.752L42.5294 108.368L41.5044 108.112L40.6076 107.727L39.8391 107.343L39.0705 106.959L38.302 106.575L37.5334 106.19L36.8931 105.678L36.2524 105.166L35.6121 104.781L35.0996 104.269L34.5875 103.756L34.075 103.244L33.6907 102.732L33.3064 102.219L33.05 101.579L32.6657 101.066L32.5379 100.554L32.2814 99.9136L32.1536 99.4012L32.0254 98.7607V98.2483V94.2773V94.7897L32.1536 95.4302L32.2814 95.9426L32.5379 96.5831L32.6657 97.0955L33.05 97.6079L33.3064 98.2483L33.6907 98.7607L34.075 99.2731L34.5875 99.7855L35.0996 100.298L35.6121 100.81L36.2524 101.195L36.8931 101.707L37.5334 102.219L38.302 102.604L39.0705 102.988L39.8391 103.372L40.6076 103.756L41.5044 104.141L42.5294 104.397L43.4257 104.781L44.3225 105.037L45.3475 105.166L46.3721 105.422L47.2689 105.55L48.2935 105.806H49.3185L50.3431 105.934L51.368 106.062H52.3926H53.4172H54.314L55.339 105.934H56.3636L57.3886 105.806L58.285 105.678L59.3099 105.422L60.2067 105.294L61.2313 105.037L62.1281 104.781L63.0244 104.525L63.9212 104.269L64.6898 103.885L65.5865 103.628L66.3551 103.244L67.1236 102.86L67.8922 102.475L68.5329 101.963L69.1732 101.579L69.8139 101.066L70.4542 100.554L70.9667 100.042L71.4788 99.4012L71.9913 98.8888L72.3756 98.3764L72.7599 97.7359L73.0163 97.2236L73.2724 96.5831L73.5284 96.0707L73.6567 95.4302L73.7849 94.9178V94.2773Z" fill="#415A73"/>
<path fill-rule="evenodd" clip-rule="evenodd" d="M73.7849 94.2773V98.2483V98.8888L73.6567 99.4012L73.5284 100.042L73.2724 100.554L73.0163 101.195L72.7599 101.707L72.3756 102.347L71.9913 102.86L71.4788 103.372L70.9667 104.013L70.4542 104.525L69.8139 105.037L69.1732 105.55L68.5329 105.934L67.8922 106.446L67.1236 106.831L66.3551 107.215L65.5865 107.599L64.6898 107.856L63.9212 108.24L63.0244 108.496L62.1281 108.752L61.2313 109.008L60.2067 109.265L59.3099 109.393L58.285 109.649L57.3886 109.777L56.3636 109.905H55.339L54.314 110.033H53.4172H52.3926H51.368L50.3431 109.905L49.3185 109.777H48.2935L47.2689 109.521L46.3721 109.393L45.3475 109.137L44.3225 109.008L43.4257 108.752L42.5294 108.368L41.5044 108.112L40.6076 107.727L39.8391 107.343L39.0705 106.959L38.302 106.575L37.5334 106.19L36.8931 105.678L36.2524 105.166L35.6121 104.781L35.0996 104.269L34.5875 103.756L34.075 103.244L33.6907 102.732L33.3064 102.219L33.05 101.579L32.6657 101.066L32.5379 100.554L32.2814 99.9136L32.1536 99.4012L32.0254 98.7607V98.2483V94.2773V94.7897L32.1536 95.4302L32.2814 95.9426L32.5379 96.5831L32.6657 97.0955L33.05 97.6079L33.3064 98.2483L33.6907 98.7607L34.075 99.2731L34.5875 99.7855L35.0996 100.298L35.6121 100.81L36.2524 101.195L36.8931 101.707L37.5334 102.219L38.302 102.604L39.0705 102.988L39.8391 103.372L40.6076 103.756L41.5044 104.141L42.5294 104.397L43.4257 104.781L44.3225 105.037L45.3475 105.166L46.3721 105.422L47.2689 105.55L48.2935 105.806H49.3185L50.3431 105.934L51.368 106.062H52.3926H53.4172H54.314L55.339 105.934H56.3636L57.3886 105.806L58.285 105.678L59.3099 105.422L60.2067 105.294L61.2313 105.037L62.1281 104.781L63.0244 104.525L63.9212 104.269L64.6898 103.885L65.5865 103.628L66.3551 103.244L67.1236 102.86L67.8922 102.475L68.5329 101.963L69.1732 101.579L69.8139 101.066L70.4542 100.554L70.9667 100.042L71.4788 99.4012L71.9913 98.8888L72.3756 98.3764L72.7599 97.7359L73.0163 97.2236L73.2724 96.5831L73.5284 96.0707L73.6567 95.4302L73.7849 94.9178V94.2773Z" fill="url(#paint22_linear_1_27269)"/>
<path fill-rule="evenodd" clip-rule="evenodd" d="M45.9996 97.6113C39.3386 95.4337 37.033 90.4379 40.8758 86.7231C44.7187 82.8802 53.1728 81.5993 59.8338 83.7769C66.4948 85.9546 68.8009 90.9503 64.958 94.6651C61.1151 98.508 52.6606 99.789 45.9996 97.6113Z" fill="#47627D"/>
<path fill-rule="evenodd" clip-rule="evenodd" d="M45.9996 97.6113C39.3386 95.4337 37.033 90.4379 40.8758 86.7231C44.7187 82.8802 53.1728 81.5993 59.8338 83.7769C66.4948 85.9546 68.8009 90.9503 64.958 94.6651C61.1151 98.508 52.6606 99.789 45.9996 97.6113Z" fill="url(#paint23_linear_1_27269)"/>
<path fill-rule="evenodd" clip-rule="evenodd" d="M66.7255 90.8242V93.5143V93.8985L66.5976 94.2828V94.6671L66.3412 95.0514L66.213 95.4357L66.0851 95.82L65.8287 96.2043L65.5726 96.5886L65.1884 96.9728L64.9323 97.229L64.548 97.6134L64.1638 97.9976L63.6513 98.2538L63.267 98.6381L62.7545 98.8943L62.242 99.1505L61.7299 99.4067L61.2174 99.6629L60.7049 99.9191L60.1928 100.047L59.5521 100.303L58.9118 100.431L58.3993 100.688L57.759 100.816L57.1183 100.944H56.4779L55.8372 101.072L55.1969 101.2H54.5566H53.9158L53.1473 101.328H52.507L51.8663 101.2H51.2259H50.5856L49.8167 101.072L49.1763 100.944L48.536 100.816L47.8953 100.688L47.255 100.56L46.6143 100.431L45.9739 100.175L45.3336 100.047L44.8211 99.791L44.3086 99.5348L43.6683 99.2786L43.1558 99.0224L42.7715 98.7662L42.259 98.3819L41.8748 98.1257L41.4905 97.7414L41.1062 97.4852L40.722 97.101L40.4659 96.8448L40.2095 96.4605L39.9534 96.0762L39.6974 95.6919L39.5691 95.3076L39.4409 94.9233L39.3131 94.6671L39.1849 94.2828L39.0566 93.8985V93.5143V90.8242V91.2085L39.1849 91.5928L39.3131 91.9771L39.4409 92.3614L39.5691 92.7457L39.6974 93.13L39.9534 93.5143L40.2095 93.7704L40.4659 94.1547L40.722 94.539L41.1062 94.7952L41.4905 95.1795L41.8748 95.4357L42.259 95.82L42.7715 96.0762L43.1558 96.3324L43.6683 96.5886L44.3086 96.8448L44.8211 97.101L45.3336 97.3572L45.9739 97.6134L46.6143 97.7414L47.255 97.9976L47.8953 98.1257L48.536 98.2538L49.1763 98.3819L49.8167 98.51H50.5856L51.2259 98.6381H51.8663H52.507H53.1473H53.9158H54.5566L55.1969 98.51H55.8372L56.4779 98.3819L57.1183 98.2538L57.759 98.1257L58.3993 97.9976L58.9118 97.8695L59.5521 97.6134L60.1928 97.4852L60.7049 97.229L61.2174 96.9728L61.7299 96.8448L62.242 96.5886L62.7545 96.2043L63.267 95.9481L63.6513 95.6919L64.1638 95.3076L64.548 95.0514L64.9323 94.6671L65.1884 94.2828L65.5726 93.8985L65.8287 93.5143L66.0851 93.13L66.213 92.7457L66.3412 92.3614L66.5976 91.9771V91.5928L66.7255 91.2085V90.8242Z" fill="#415A73"/>
<path fill-rule="evenodd" clip-rule="evenodd" d="M66.7255 90.8242V93.5143V93.8985L66.5976 94.2828V94.6671L66.3412 95.0514L66.213 95.4357L66.0851 95.82L65.8287 96.2043L65.5726 96.5886L65.1884 96.9728L64.9323 97.229L64.548 97.6134L64.1638 97.9976L63.6513 98.2538L63.267 98.6381L62.7545 98.8943L62.242 99.1505L61.7299 99.4067L61.2174 99.6629L60.7049 99.9191L60.1928 100.047L59.5521 100.303L58.9118 100.431L58.3993 100.688L57.759 100.816L57.1183 100.944H56.4779L55.8372 101.072L55.1969 101.2H54.5566H53.9158L53.1473 101.328H52.507L51.8663 101.2H51.2259H50.5856L49.8167 101.072L49.1763 100.944L48.536 100.816L47.8953 100.688L47.255 100.56L46.6143 100.431L45.9739 100.175L45.3336 100.047L44.8211 99.791L44.3086 99.5348L43.6683 99.2786L43.1558 99.0224L42.7715 98.7662L42.259 98.3819L41.8748 98.1257L41.4905 97.7414L41.1062 97.4852L40.722 97.101L40.4659 96.8448L40.2095 96.4605L39.9534 96.0762L39.6974 95.6919L39.5691 95.3076L39.4409 94.9233L39.3131 94.6671L39.1849 94.2828L39.0566 93.8985V93.5143V90.8242V91.2085L39.1849 91.5928L39.3131 91.9771L39.4409 92.3614L39.5691 92.7457L39.6974 93.13L39.9534 93.5143L40.2095 93.7704L40.4659 94.1547L40.722 94.539L41.1062 94.7952L41.4905 95.1795L41.8748 95.4357L42.259 95.82L42.7715 96.0762L43.1558 96.3324L43.6683 96.5886L44.3086 96.8448L44.8211 97.101L45.3336 97.3572L45.9739 97.6134L46.6143 97.7414L47.255 97.9976L47.8953 98.1257L48.536 98.2538L49.1763 98.3819L49.8167 98.51H50.5856L51.2259 98.6381H51.8663H52.507H53.1473H53.9158H54.5566L55.1969 98.51H55.8372L56.4779 98.3819L57.1183 98.2538L57.759 98.1257L58.3993 97.9976L58.9118 97.8695L59.5521 97.6134L60.1928 97.4852L60.7049 97.229L61.2174 96.9728L61.7299 96.8448L62.242 96.5886L62.7545 96.2043L63.267 95.9481L63.6513 95.6919L64.1638 95.3076L64.548 95.0514L64.9323 94.6671L65.1884 94.2828L65.5726 93.8985L65.8287 93.5143L66.0851 93.13L66.213 92.7457L66.3412 92.3614L66.5976 91.9771V91.5928L66.7255 91.2085V90.8242Z" fill="url(#paint24_linear_1_27269)"/>
<path fill-rule="evenodd" clip-rule="evenodd" d="M55.4591 27.0195C55.4591 27.0195 55.4591 27.1476 55.4591 27.4038C54.9467 28.4286 53.1537 28.5567 52.1289 28.3005C50.5917 27.9162 50.5918 27.0195 50.5918 27.0195C50.5918 27.1476 50.5918 28.1724 50.5918 28.4286C50.5918 49.1802 50.5918 69.9317 50.5918 90.5552C50.5918 91.0676 50.7196 91.3238 51.1039 91.7081C52.2568 92.4767 54.6905 92.4767 55.4591 91.3238C55.7153 90.9395 55.5873 90.5552 55.5873 90.171C55.5873 70.8284 55.5873 51.3578 55.5873 32.0153C55.5873 30.4781 55.5873 28.8129 55.5873 27.2757V27.1477L55.4591 27.0195Z" fill="#FAC13C"/>
<path fill-rule="evenodd" clip-rule="evenodd" d="M55.4591 27.0195C55.4591 27.0195 55.4591 27.1476 55.4591 27.4038C54.9467 28.4286 53.1537 28.5567 52.1289 28.3005C50.5917 27.9162 50.5918 27.0195 50.5918 27.0195C50.5918 27.1476 50.5918 28.1724 50.5918 28.4286C50.5918 49.1802 50.5918 69.9317 50.5918 90.5552C50.5918 91.0676 50.7196 91.3238 51.1039 91.7081C52.2568 92.4767 54.6905 92.4767 55.4591 91.3238C55.7153 90.9395 55.5873 90.5552 55.5873 90.171C55.5873 70.8284 55.5873 51.3578 55.5873 32.0153C55.5873 30.4781 55.5873 28.8129 55.5873 27.2757V27.1477L55.4591 27.0195Z" fill="url(#paint25_linear_1_27269)"/>
<path fill-rule="evenodd" clip-rule="evenodd" d="M51.125 32.1542C55.3522 33.307 59.5793 30.7451 60.7322 26.646C61.8851 22.4188 59.3232 18.1917 55.2242 17.0388C50.997 15.8859 46.7698 18.4479 45.6169 22.5469C44.4641 26.7741 47.0259 31.0013 51.125 32.1542Z" fill="#DEB24C"/>
<path fill-rule="evenodd" clip-rule="evenodd" d="M51.125 32.1542C55.3522 33.307 59.5793 30.7451 60.7322 26.646C61.8851 22.4188 59.3232 18.1917 55.2242 17.0388C50.997 15.8859 46.7698 18.4479 45.6169 22.5469C44.4641 26.7741 47.0259 31.0013 51.125 32.1542Z" fill="url(#paint26_linear_1_27269)"/>
<path fill-rule="evenodd" clip-rule="evenodd" d="M52.259 30.8353C55.8457 31.86 59.5608 29.6824 60.5855 26.0957C61.6103 22.509 59.4323 18.7942 55.8456 17.7695C52.2589 16.7447 48.5442 18.9224 47.5195 22.509C46.4947 26.0957 48.6723 29.8105 52.259 30.8353Z" fill="#FAC13C"/>
<path fill-rule="evenodd" clip-rule="evenodd" d="M52.259 30.8353C55.8457 31.86 59.5608 29.6824 60.5855 26.0957C61.6103 22.509 59.4323 18.7942 55.8456 17.7695C52.2589 16.7447 48.5442 18.9224 47.5195 22.509C46.4947 26.0957 48.6723 29.8105 52.259 30.8353Z" fill="url(#paint27_linear_1_27269)"/>
<path fill-rule="evenodd" clip-rule="evenodd" d="M50.3526 27.7668C50.9931 27.3825 50.9932 26.6139 50.8651 25.9734C50.6089 25.0767 49.5842 23.5396 48.5595 23.6677C48.3033 23.6677 47.9189 23.9239 47.6627 24.052C41.8984 27.3825 36.134 30.7129 30.3696 34.0434C24.4772 37.502 18.585 40.9607 12.5645 44.2912C12.5645 44.2912 12.8206 44.2912 12.9487 44.2912C14.2297 44.2912 15.2544 46.0845 15.2544 47.2374C15.2544 48.006 14.8701 48.2621 14.8701 48.2621C15.1263 48.2621 15.6385 47.8779 15.8947 47.6217C27.4233 40.9607 38.9522 34.2996 50.4808 27.6386L50.3526 27.7668Z" fill="#415A73"/>
<path fill-rule="evenodd" clip-rule="evenodd" d="M50.3526 27.7668C50.9931 27.3825 50.9932 26.6139 50.8651 25.9734C50.6089 25.0767 49.5842 23.5396 48.5595 23.6677C48.3033 23.6677 47.9189 23.9239 47.6627 24.052C41.8984 27.3825 36.134 30.7129 30.3696 34.0434C24.4772 37.502 18.585 40.9607 12.5645 44.2912C12.5645 44.2912 12.8206 44.2912 12.9487 44.2912C14.2297 44.2912 15.2544 46.0845 15.2544 47.2374C15.2544 48.006 14.8701 48.2621 14.8701 48.2621C15.1263 48.2621 15.6385 47.8779 15.8947 47.6217C27.4233 40.9607 38.9522 34.2996 50.4808 27.6386L50.3526 27.7668Z" fill="url(#paint28_linear_1_27269)"/>
<path fill-rule="evenodd" clip-rule="evenodd" d="M50.3526 27.7668C50.9931 27.3825 50.9932 26.6139 50.8651 25.9734C50.6089 25.0767 49.5842 23.5396 48.5595 23.6677C48.3033 23.6677 47.9189 23.9239 47.6627 24.052C41.8984 27.3825 36.134 30.7129 30.3696 34.0434C24.4772 37.502 18.585 40.9607 12.5645 44.2912C12.5645 44.2912 12.8206 44.2912 12.9487 44.2912C14.2297 44.2912 15.2544 46.0845 15.2544 47.2374C15.2544 48.006 14.8701 48.2621 14.8701 48.2621C15.1263 48.2621 15.6385 47.8779 15.8947 47.6217C27.4233 40.9607 38.9522 34.2996 50.4808 27.6386L50.3526 27.7668Z" fill="url(#paint29_linear_1_27269)"/>
<path fill-rule="evenodd" clip-rule="evenodd" d="M13.8294 49.6932C15.879 50.2055 18.0567 49.0527 18.6972 46.875C19.2095 44.8255 18.0567 42.6479 15.879 42.0074C13.8295 41.495 11.6518 42.6479 11.0113 44.8255C10.4989 46.875 11.6518 49.0527 13.8294 49.6932Z" fill="#DEB24C"/>
<path fill-rule="evenodd" clip-rule="evenodd" d="M13.8294 49.6932C15.879 50.2055 18.0567 49.0527 18.6972 46.875C19.2095 44.8255 18.0567 42.6479 15.879 42.0074C13.8295 41.495 11.6518 42.6479 11.0113 44.8255C10.4989 46.875 11.6518 49.0527 13.8294 49.6932Z" fill="url(#paint30_linear_1_27269)"/>
<path fill-rule="evenodd" clip-rule="evenodd" d="M27.0199 86.3119C27.0199 86.3119 28.3011 86.0557 28.4292 85.5433C28.5573 84.9028 28.173 84.2623 27.6607 84.1342C27.0202 84.0061 26.3795 84.3904 26.2514 84.9028C26.1233 85.5433 26.5076 86.1838 27.0199 86.3119Z" fill="#FAC13C"/>
<path fill-rule="evenodd" clip-rule="evenodd" d="M27.0199 86.3119C27.0199 86.3119 28.3011 86.0557 28.4292 85.5433C28.5573 84.9028 28.173 84.2623 27.6607 84.1342C27.0202 84.0061 26.3795 84.3904 26.2514 84.9028C26.1233 85.5433 26.5076 86.1838 27.0199 86.3119Z" fill="url(#paint31_linear_1_27269)"/>
<path fill-rule="evenodd" clip-rule="evenodd" d="M1.54533 84.6634C1.54533 84.6634 2.82649 84.5353 2.95459 83.8948C3.08269 83.2544 2.69804 82.6139 2.18565 82.4858C1.54517 82.3577 0.904878 82.7419 0.776782 83.2543C0.648685 83.8948 1.03294 84.5353 1.54533 84.6634Z" fill="#FAC13C"/>
<path fill-rule="evenodd" clip-rule="evenodd" d="M1.54533 84.6634C1.54533 84.6634 2.82649 84.5353 2.95459 83.8948C3.08269 83.2544 2.69804 82.6139 2.18565 82.4858C1.54517 82.3577 0.904878 82.7419 0.776782 83.2543C0.648685 83.8948 1.03294 84.5353 1.54533 84.6634Z" fill="url(#paint32_linear_1_27269)"/>
<defs>
<linearGradient id="paint0_linear_1_27269" x1="87.0955" y1="17.6713" x2="87.8637" y2="17.6713" gradientUnits="userSpaceOnUse">
<stop stop-color="#4AFFC7"/>
<stop offset="1" stop-color="#3BADEA"/>
</linearGradient>
<linearGradient id="paint1_linear_1_27269" x1="86.4408" y1="30.777" x2="88.667" y2="30.777" gradientUnits="userSpaceOnUse">
<stop stop-color="#4AFFC7"/>
<stop offset="1" stop-color="#3BADEA"/>
</linearGradient>
<linearGradient id="paint2_linear_1_27269" x1="79.646" y1="47.1795" x2="103.266" y2="47.6453" gradientUnits="userSpaceOnUse">
<stop stop-color="#E6F0FF"/>
<stop offset="0.24" stop-color="#E2ECFD"/>
<stop offset="0.47" stop-color="#D6E3F8"/>
<stop offset="0.69" stop-color="#C3D3F0"/>
<stop offset="0.91" stop-color="#A9BDE4"/>
<stop offset="1" stop-color="#9CB2DF"/>
</linearGradient>
<linearGradient id="paint3_linear_1_27269" x1="79.4493" y1="39.2873" x2="102.866" y2="39.6885" gradientUnits="userSpaceOnUse">
<stop stop-color="#E6F0FF"/>
<stop offset="0.24" stop-color="#E2ECFD"/>
<stop offset="0.47" stop-color="#D6E3F8"/>
<stop offset="0.69" stop-color="#C3D3F0"/>
<stop offset="0.91" stop-color="#A9BDE4"/>
<stop offset="1" stop-color="#9CB2DF"/>
</linearGradient>
<linearGradient id="paint4_linear_1_27269" x1="80.2486" y1="38.6948" x2="101.5" y2="39.059" gradientUnits="userSpaceOnUse">
<stop stop-color="#E6F0FF"/>
<stop offset="0.24" stop-color="#E2ECFD"/>
<stop offset="0.47" stop-color="#D6E3F8"/>
<stop offset="0.69" stop-color="#C3D3F0"/>
<stop offset="0.91" stop-color="#A9BDE4"/>
<stop offset="1" stop-color="#9CB2DF"/>
</linearGradient>
<linearGradient id="paint5_linear_1_27269" x1="77.4805" y1="44.1787" x2="97.5841" y2="44.1787" gradientUnits="userSpaceOnUse">
<stop stop-color="#4AFFC7"/>
<stop offset="1" stop-color="#3BADEA"/>
</linearGradient>
<linearGradient id="paint6_linear_1_27269" x1="87.092" y1="23.6676" x2="99.769" y2="23.6676" gradientUnits="userSpaceOnUse">
<stop stop-color="#4AFFC7"/>
<stop offset="1" stop-color="#3BADEA"/>
</linearGradient>
<linearGradient id="paint7_linear_1_27269" x1="74.2793" y1="23.0911" x2="87.8523" y2="23.0911" gradientUnits="userSpaceOnUse">
<stop stop-color="#4AFFC7"/>
<stop offset="1" stop-color="#3BADEA"/>
</linearGradient>
<linearGradient id="paint8_linear_1_27269" x1="85.126" y1="3.89618" x2="91.269" y2="3.95691" gradientUnits="userSpaceOnUse">
<stop stop-color="#E6F0FF"/>
<stop offset="0.24" stop-color="#E2ECFD"/>
<stop offset="0.47" stop-color="#D6E3F8"/>
<stop offset="0.69" stop-color="#C3D3F0"/>
<stop offset="0.91" stop-color="#A9BDE4"/>
<stop offset="1" stop-color="#9CB2DF"/>
</linearGradient>
<linearGradient id="paint9_linear_1_27269" x1="85.8844" y1="3.82329" x2="91.1368" y2="3.87522" gradientUnits="userSpaceOnUse">
<stop stop-color="#E6F0FF"/>
<stop offset="0.24" stop-color="#E2ECFD"/>
<stop offset="0.47" stop-color="#D6E3F8"/>
<stop offset="0.69" stop-color="#C3D3F0"/>
<stop offset="0.91" stop-color="#A9BDE4"/>
<stop offset="1" stop-color="#9CB2DF"/>
</linearGradient>
<linearGradient id="paint10_linear_1_27269" x1="98.6029" y1="43.3356" x2="100.829" y2="43.3356" gradientUnits="userSpaceOnUse">
<stop stop-color="#4AFFC7"/>
<stop offset="1" stop-color="#3BADEA"/>
</linearGradient>
<linearGradient id="paint11_linear_1_27269" x1="73.1087" y1="41.5309" x2="75.3354" y2="41.5309" gradientUnits="userSpaceOnUse">
<stop stop-color="#4AFFC7"/>
<stop offset="1" stop-color="#3BADEA"/>
</linearGradient>
<linearGradient id="paint12_linear_1_27269" x1="14.74" y1="59.5424" x2="15.5083" y2="59.5424" gradientUnits="userSpaceOnUse">
<stop stop-color="#4AFFC7"/>
<stop offset="1" stop-color="#3BADEA"/>
</linearGradient>
<linearGradient id="paint13_linear_1_27269" x1="14.0599" y1="72.652" x2="16.2861" y2="72.652" gradientUnits="userSpaceOnUse">
<stop stop-color="#4AFFC7"/>
<stop offset="1" stop-color="#3BADEA"/>
</linearGradient>
<linearGradient id="paint14_linear_1_27269" x1="7.22933" y1="89.0818" x2="30.7497" y2="89.5438" gradientUnits="userSpaceOnUse">
<stop stop-color="#E6F0FF"/>
<stop offset="0.24" stop-color="#E2ECFD"/>
<stop offset="0.47" stop-color="#D6E3F8"/>
<stop offset="0.69" stop-color="#C3D3F0"/>
<stop offset="0.91" stop-color="#A9BDE4"/>
<stop offset="1" stop-color="#9CB2DF"/>
</linearGradient>
<linearGradient id="paint15_linear_1_27269" x1="7.0704" y1="81.1447" x2="30.4871" y2="81.5453" gradientUnits="userSpaceOnUse">
<stop stop-color="#E6F0FF"/>
<stop offset="0.24" stop-color="#E2ECFD"/>
<stop offset="0.47" stop-color="#D6E3F8"/>
<stop offset="0.69" stop-color="#C3D3F0"/>
<stop offset="0.91" stop-color="#A9BDE4"/>
<stop offset="1" stop-color="#9CB2DF"/>
</linearGradient>
<linearGradient id="paint16_linear_1_27269" x1="5.12503" y1="86.0654" x2="25.2286" y2="86.0654" gradientUnits="userSpaceOnUse">
<stop stop-color="#4AFFC7"/>
<stop offset="1" stop-color="#3BADEA"/>
</linearGradient>
<linearGradient id="paint17_linear_1_27269" x1="20.8014" y1="65.965" x2="21.535" y2="65.7369" gradientUnits="userSpaceOnUse">
<stop stop-color="#4AFFC7"/>
<stop offset="1" stop-color="#3BADEA"/>
</linearGradient>
<linearGradient id="paint18_linear_1_27269" x1="2.6346" y1="83.6956" x2="15.5075" y2="46.6879" gradientUnits="userSpaceOnUse">
<stop stop-color="#4AFFC7"/>
<stop offset="1" stop-color="#3BADEA"/>
</linearGradient>
<linearGradient id="paint19_linear_1_27269" x1="49.4342" y1="14.8904" x2="87.7802" y2="14.8904" gradientUnits="userSpaceOnUse">
<stop stop-color="#4AFFC7"/>
<stop offset="1" stop-color="#3BADEA"/>
</linearGradient>
<linearGradient id="paint20_linear_1_27269" x1="58.4197" y1="14.6824" x2="88.1437" y2="15.143" gradientUnits="userSpaceOnUse">
<stop stop-color="#E6F0FF"/>
<stop offset="0.24" stop-color="#E2ECFD"/>
<stop offset="0.47" stop-color="#D6E3F8"/>
<stop offset="0.69" stop-color="#C3D3F0"/>
<stop offset="0.91" stop-color="#A9BDE4"/>
<stop offset="1" stop-color="#9CB2DF"/>
</linearGradient>
<linearGradient id="paint21_linear_1_27269" x1="41.7422" y1="93.6634" x2="74.2536" y2="94.2205" gradientUnits="userSpaceOnUse">
<stop stop-color="#E6F0FF"/>
<stop offset="0.24" stop-color="#E2ECFD"/>
<stop offset="0.47" stop-color="#D6E3F8"/>
<stop offset="0.69" stop-color="#C3D3F0"/>
<stop offset="0.91" stop-color="#A9BDE4"/>
<stop offset="1" stop-color="#9CB2DF"/>
</linearGradient>
<linearGradient id="paint22_linear_1_27269" x1="41.7949" y1="102.021" x2="74.1383" y2="102.869" gradientUnits="userSpaceOnUse">
<stop stop-color="#E6F0FF"/>
<stop offset="0.24" stop-color="#E2ECFD"/>
<stop offset="0.47" stop-color="#D6E3F8"/>
<stop offset="0.69" stop-color="#C3D3F0"/>
<stop offset="0.91" stop-color="#A9BDE4"/>
<stop offset="1" stop-color="#9CB2DF"/>
</linearGradient>
<linearGradient id="paint23_linear_1_27269" x1="39.0076" y1="90.6941" x2="66.7996" y2="90.6941" gradientUnits="userSpaceOnUse">
<stop stop-color="#4AFFC7"/>
<stop offset="1" stop-color="#3BADEA"/>
</linearGradient>
<linearGradient id="paint24_linear_1_27269" x1="39.0486" y1="96.0762" x2="66.707" y2="96.0762" gradientUnits="userSpaceOnUse">
<stop stop-color="#4AFFC7"/>
<stop offset="1" stop-color="#3BADEA"/>
</linearGradient>
<linearGradient id="paint25_linear_1_27269" x1="51.768" y1="59.0773" x2="55.6645" y2="59.0802" gradientUnits="userSpaceOnUse">
<stop stop-color="#E6F0FF"/>
<stop offset="0.24" stop-color="#E2ECFD"/>
<stop offset="0.47" stop-color="#D6E3F8"/>
<stop offset="0.69" stop-color="#C3D3F0"/>
<stop offset="0.91" stop-color="#A9BDE4"/>
<stop offset="1" stop-color="#9CB2DF"/>
</linearGradient>
<linearGradient id="paint26_linear_1_27269" x1="49.0057" y1="24.4633" x2="61.1491" y2="24.5834" gradientUnits="userSpaceOnUse">
<stop stop-color="#E6F0FF"/>
<stop offset="0.24" stop-color="#E2ECFD"/>
<stop offset="0.47" stop-color="#D6E3F8"/>
<stop offset="0.69" stop-color="#C3D3F0"/>
<stop offset="0.91" stop-color="#A9BDE4"/>
<stop offset="1" stop-color="#9CB2DF"/>
</linearGradient>
<linearGradient id="paint27_linear_1_27269" x1="50.4412" y1="24.187" x2="60.9604" y2="24.291" gradientUnits="userSpaceOnUse">
<stop stop-color="#E6F0FF"/>
<stop offset="0.24" stop-color="#E2ECFD"/>
<stop offset="0.47" stop-color="#D6E3F8"/>
<stop offset="0.69" stop-color="#C3D3F0"/>
<stop offset="0.91" stop-color="#A9BDE4"/>
<stop offset="1" stop-color="#9CB2DF"/>
</linearGradient>
<linearGradient id="paint28_linear_1_27269" x1="12.5533" y1="35.9611" x2="50.9064" y2="35.9611" gradientUnits="userSpaceOnUse">
<stop stop-color="#4AFFC7"/>
<stop offset="1" stop-color="#3BADEA"/>
</linearGradient>
<linearGradient id="paint29_linear_1_27269" x1="21.5405" y1="35.752" x2="51.2701" y2="36.2104" gradientUnits="userSpaceOnUse">
<stop stop-color="#E6F0FF"/>
<stop offset="0.24" stop-color="#E2ECFD"/>
<stop offset="0.47" stop-color="#D6E3F8"/>
<stop offset="0.69" stop-color="#C3D3F0"/>
<stop offset="0.91" stop-color="#A9BDE4"/>
<stop offset="1" stop-color="#9CB2DF"/>
</linearGradient>
<linearGradient id="paint30_linear_1_27269" x1="12.7452" y1="45.7829" x2="18.8885" y2="45.8436" gradientUnits="userSpaceOnUse">
<stop stop-color="#E6F0FF"/>
<stop offset="0.24" stop-color="#E2ECFD"/>
<stop offset="0.47" stop-color="#D6E3F8"/>
<stop offset="0.69" stop-color="#C3D3F0"/>
<stop offset="0.91" stop-color="#A9BDE4"/>
<stop offset="1" stop-color="#9CB2DF"/>
</linearGradient>
<linearGradient id="paint31_linear_1_27269" x1="26.2259" y1="85.2106" x2="28.4525" y2="85.2106" gradientUnits="userSpaceOnUse">
<stop stop-color="#4AFFC7"/>
<stop offset="1" stop-color="#3BADEA"/>
</linearGradient>
<linearGradient id="paint32_linear_1_27269" x1="0.751308" y1="83.5622" x2="2.97791" y2="83.5622" gradientUnits="userSpaceOnUse">
<stop stop-color="#4AFFC7"/>
<stop offset="1" stop-color="#3BADEA"/>
</linearGradient>
</defs>
</svg>
