<svg width="64" height="90" viewBox="0 0 64 90" fill="none" xmlns="http://www.w3.org/2000/svg">
<path fill-rule="evenodd" clip-rule="evenodd" d="M38.8946 52.2109C38.2773 56.9429 26.7562 57.1487 25.9332 52.2109C25.9332 52.2109 25.9332 71.756 25.9332 81.0142C25.9332 82.0429 25.7275 85.5406 25.9332 86.5693C27.5791 90.8898 38.6888 90.2726 38.8946 85.9521C38.8946 81.4258 38.8946 76.0764 38.8946 71.5501C38.8946 65.1722 38.8946 58.7945 38.8946 52.4166V52.2109Z" fill="#FAC13C"/>
<path fill-rule="evenodd" clip-rule="evenodd" d="M38.8946 52.2109C38.2773 56.9429 26.7562 57.1487 25.9332 52.2109C25.9332 52.2109 25.9332 71.756 25.9332 81.0142C25.9332 82.0429 25.7275 85.5406 25.9332 86.5693C27.5791 90.8898 38.6888 90.2726 38.8946 85.9521C38.8946 81.4258 38.8946 76.0764 38.8946 71.5501C38.8946 65.1722 38.8946 58.7945 38.8946 52.4166V52.2109Z" fill="url(#paint0_linear_1_27255)"/>
<path fill-rule="evenodd" clip-rule="evenodd" d="M37.0371 88.4236H37.2427V88.218H37.4487V54.4766L37.2427 54.6825H37.0371V54.8881H36.8315H36.6256V55.0941H36.4199H36.2143V55.2997H36.0084H35.8027H35.5971L35.3912 55.5053H35.1856H34.9796L34.774 55.7113H34.5684V89.4524L34.774 89.2465H34.9796H35.1856H35.3912V89.0408H35.5971H35.8027H36.0084L36.2143 88.8352H36.4199L36.6256 88.6293H36.8315H37.0371V88.4236Z" fill="#FFDC6A"/>
<path fill-rule="evenodd" clip-rule="evenodd" d="M37.0371 88.4236H37.2427V88.218H37.4487V54.4766L37.2427 54.6825H37.0371V54.8881H36.8315H36.6256V55.0941H36.4199H36.2143V55.2997H36.0084H35.8027H35.5971L35.3912 55.5053H35.1856H34.9796L34.774 55.7113H34.5684V89.4524L34.774 89.2465H34.9796H35.1856H35.3912V89.0408H35.5971H35.8027H36.0084L36.2143 88.8352H36.4199L36.6256 88.6293H36.8315H37.0371V88.4236Z" fill="url(#paint1_linear_1_27255)"/>
<path fill-rule="evenodd" clip-rule="evenodd" d="M30.6669 55.7113H30.4613H30.2553L30.0497 55.5053H29.8438H29.6381H29.4325L29.2266 55.2997H29.0209H28.8153L28.6094 55.0941H28.4038L28.1981 54.8881H27.9922L27.7866 54.6825H27.5806V54.4766H27.375V88.218H27.5806L27.7866 88.4236L27.9922 88.6293H28.1981H28.4038V88.8352H28.6094H28.8153V89.0408H29.0209H29.2266H29.4325L29.6381 89.2465H29.8438H30.0497H30.2553V89.4524H30.4613H30.6669V55.7113Z" fill="#E6B543"/>
<path fill-rule="evenodd" clip-rule="evenodd" d="M30.6669 55.7113H30.4613H30.2553L30.0497 55.5053H29.8438H29.6381H29.4325L29.2266 55.2997H29.0209H28.8153L28.6094 55.0941H28.4038L28.1981 54.8881H27.9922L27.7866 54.6825H27.5806V54.4766H27.375V88.218H27.5806L27.7866 88.4236L27.9922 88.6293H28.1981H28.4038V88.8352H28.6094H28.8153V89.0408H29.0209H29.2266H29.4325L29.6381 89.2465H29.8438H30.0497H30.2553V89.4524H30.4613H30.6669V55.7113Z" fill="url(#paint2_linear_1_27255)"/>
<path fill-rule="evenodd" clip-rule="evenodd" d="M59.8688 37.8217L57.1941 36.3817L40.1177 34.9414V35.353V35.7645V36.1758V36.7933V37.2045V37.8217L39.9121 38.2333V38.8505L42.3809 40.2908L42.5868 39.6736V39.2621V38.6449L42.7924 38.2333V37.8217V37.2045V36.7933V36.3817L59.8688 37.8217Z" fill="#D1CACA"/>
<path fill-rule="evenodd" clip-rule="evenodd" d="M59.8688 37.8217L57.1941 36.3817L40.1177 34.9414V35.353V35.7645V36.1758V36.7933V37.2045V37.8217L39.9121 38.2333V38.8505L42.3809 40.2908L42.5868 39.6736V39.2621V38.6449L42.7924 38.2333V37.8217V37.2045V36.7933V36.3817L59.8688 37.8217Z" fill="url(#paint3_linear_1_27255)"/>
<path fill-rule="evenodd" clip-rule="evenodd" d="M59.8688 37.8217L57.1941 36.3817L40.1177 34.9414V35.353V35.7645V36.1758V36.7933V37.2045V37.8217L39.9121 38.2333V38.8505L42.3809 40.2908L42.5868 39.6736V39.2621V38.6449L42.7924 38.2333V37.8217V37.2045V36.7933V36.3817L59.8688 37.8217Z" fill="url(#paint4_linear_1_27255)"/>
<path fill-rule="evenodd" clip-rule="evenodd" d="M37.209 50.1349L42.5584 50.5465L54.2853 51.5749L62.7207 46.6374C62.7207 46.6374 63.1322 46.226 63.3379 46.0202C63.3379 46.0202 63.7495 45.4028 63.7495 45.1971C63.7495 44.9913 63.7495 44.58 63.7495 44.3743C63.7495 44.1685 63.7495 43.9628 63.7495 43.7571L59.4288 37.5849L42.3525 36.1445C42.3525 37.379 42.3526 38.6134 42.1468 40.0536C41.5296 43.1397 40.0893 46.4315 37.8262 49.3118C37.8262 49.3118 37.4147 49.9292 37.209 50.1349Z" fill="#EBEBEB"/>
<path fill-rule="evenodd" clip-rule="evenodd" d="M37.209 50.1349L42.5584 50.5465L54.2853 51.5749L62.7207 46.6374C62.7207 46.6374 63.1322 46.226 63.3379 46.0202C63.3379 46.0202 63.7495 45.4028 63.7495 45.1971C63.7495 44.9913 63.7495 44.58 63.7495 44.3743C63.7495 44.1685 63.7495 43.9628 63.7495 43.7571L59.4288 37.5849L42.3525 36.1445C42.3525 37.379 42.3526 38.6134 42.1468 40.0536C41.5296 43.1397 40.0893 46.4315 37.8262 49.3118C37.8262 49.3118 37.4147 49.9292 37.209 50.1349Z" fill="url(#paint5_linear_1_27255)"/>
<path fill-rule="evenodd" clip-rule="evenodd" d="M27.7747 48.7287L33.5353 52.0206L33.9469 52.2266H34.3581H34.7697H35.1813H35.7985L36.21 52.0206L36.8272 51.815L37.2385 51.4034L37.8557 51.1978L38.2672 50.7862L38.8844 50.169L39.296 49.7575L39.9132 49.1403L40.3247 48.5231L40.7363 47.9059L41.1476 47.0831L41.5591 46.4656L41.7647 45.8484L42.1763 45.0256L42.3819 44.4084L42.5879 43.7912V43.174V42.5568V41.9396V41.3221V40.7049L42.3819 40.0877L42.1763 39.6765L41.9707 39.2649L41.5591 38.8533L41.3535 38.6477L40.9419 38.4418L35.5928 35.3558L36.0041 34.9443L37.0328 34.3271L37.8557 33.9155L38.6788 33.5043L39.7075 33.2983L40.5304 33.0927L41.3535 32.8871L42.1763 33.0927H42.7935L43.6166 33.5043L34.9753 28.3608L34.1525 28.1548L33.3297 27.9492H32.7122H31.6837L30.8606 28.1548L30.0378 28.3608L29.2147 28.772L28.1862 29.3895L27.3631 30.0067L26.3343 30.6239L25.5115 31.4467L24.6884 32.2699L23.8656 33.2983L23.66 33.5043L23.454 33.7099V33.9155L23.2484 34.1214H23.0428V34.3271L22.8368 34.533V34.7386H22.6312V34.9443L22.014 35.7674L21.6024 36.7961L20.9852 37.619L20.5737 38.6477L20.1624 39.6765L19.7509 40.7049L19.5449 41.528L19.3393 42.5568V42.7624V42.9681L19.1337 43.174V43.3796V43.5852V43.7912V43.9968V44.2024L18.9277 45.0256V46.0543L19.1337 46.8771V47.4943L19.3393 48.3175L19.5449 49.1403L19.9565 49.7575L20.1624 50.3747H20.3681L20.7796 50.9919L21.3968 51.4034L22.014 51.815L30.655 56.9585L30.0378 56.5469L29.4206 55.9297L29.009 55.3125L28.5975 54.6953L28.3919 54.0781L27.9803 53.4609V52.6378L27.7747 51.815V50.9919V50.169V49.3459V49.1403V48.9347V48.7287Z" fill="#82888A"/>
<path fill-rule="evenodd" clip-rule="evenodd" d="M27.7747 48.7287L33.5353 52.0206L33.9469 52.2266H34.3581H34.7697H35.1813H35.7985L36.21 52.0206L36.8272 51.815L37.2385 51.4034L37.8557 51.1978L38.2672 50.7862L38.8844 50.169L39.296 49.7575L39.9132 49.1403L40.3247 48.5231L40.7363 47.9059L41.1476 47.0831L41.5591 46.4656L41.7647 45.8484L42.1763 45.0256L42.3819 44.4084L42.5879 43.7912V43.174V42.5568V41.9396V41.3221V40.7049L42.3819 40.0877L42.1763 39.6765L41.9707 39.2649L41.5591 38.8533L41.3535 38.6477L40.9419 38.4418L35.5928 35.3558L36.0041 34.9443L37.0328 34.3271L37.8557 33.9155L38.6788 33.5043L39.7075 33.2983L40.5304 33.0927L41.3535 32.8871L42.1763 33.0927H42.7935L43.6166 33.5043L34.9753 28.3608L34.1525 28.1548L33.3297 27.9492H32.7122H31.6837L30.8606 28.1548L30.0378 28.3608L29.2147 28.772L28.1862 29.3895L27.3631 30.0067L26.3343 30.6239L25.5115 31.4467L24.6884 32.2699L23.8656 33.2983L23.66 33.5043L23.454 33.7099V33.9155L23.2484 34.1214H23.0428V34.3271L22.8368 34.533V34.7386H22.6312V34.9443L22.014 35.7674L21.6024 36.7961L20.9852 37.619L20.5737 38.6477L20.1624 39.6765L19.7509 40.7049L19.5449 41.528L19.3393 42.5568V42.7624V42.9681L19.1337 43.174V43.3796V43.5852V43.7912V43.9968V44.2024L18.9277 45.0256V46.0543L19.1337 46.8771V47.4943L19.3393 48.3175L19.5449 49.1403L19.9565 49.7575L20.1624 50.3747H20.3681L20.7796 50.9919L21.3968 51.4034L22.014 51.815L30.655 56.9585L30.0378 56.5469L29.4206 55.9297L29.009 55.3125L28.5975 54.6953L28.3919 54.0781L27.9803 53.4609V52.6378L27.7747 51.815V50.9919V50.169V49.3459V49.1403V48.9347V48.7287Z" fill="url(#paint6_linear_1_27255)"/>
<path fill-rule="evenodd" clip-rule="evenodd" d="M27.7747 48.7287L33.5353 52.0206L33.9469 52.2266H34.3581H34.7697H35.1813H35.7985L36.21 52.0206L36.8272 51.815L37.2385 51.4034L37.8557 51.1978L38.2672 50.7862L38.8844 50.169L39.296 49.7575L39.9132 49.1403L40.3247 48.5231L40.7363 47.9059L41.1476 47.0831L41.5591 46.4656L41.7647 45.8484L42.1763 45.0256L42.3819 44.4084L42.5879 43.7912V43.174V42.5568V41.9396V41.3221V40.7049L42.3819 40.0877L42.1763 39.6765L41.9707 39.2649L41.5591 38.8533L41.3535 38.6477L40.9419 38.4418L35.5928 35.3558L36.0041 34.9443L37.0328 34.3271L37.8557 33.9155L38.6788 33.5043L39.7075 33.2983L40.5304 33.0927L41.3535 32.8871L42.1763 33.0927H42.7935L43.6166 33.5043L34.9753 28.3608L34.1525 28.1548L33.3297 27.9492H32.7122H31.6837L30.8606 28.1548L30.0378 28.3608L29.2147 28.772L28.1862 29.3895L27.3631 30.0067L26.3343 30.6239L25.5115 31.4467L24.6884 32.2699L23.8656 33.2983L23.66 33.5043L23.454 33.7099V33.9155L23.2484 34.1214H23.0428V34.3271L22.8368 34.533V34.7386H22.6312V34.9443L22.014 35.7674L21.6024 36.7961L20.9852 37.619L20.5737 38.6477L20.1624 39.6765L19.7509 40.7049L19.5449 41.528L19.3393 42.5568V42.7624V42.9681L19.1337 43.174V43.3796V43.5852V43.7912V43.9968V44.2024L18.9277 45.0256V46.0543L19.1337 46.8771V47.4943L19.3393 48.3175L19.5449 49.1403L19.9565 49.7575L20.1624 50.3747H20.3681L20.7796 50.9919L21.3968 51.4034L22.014 51.815L30.655 56.9585L30.0378 56.5469L29.4206 55.9297L29.009 55.3125L28.5975 54.6953L28.3919 54.0781L27.9803 53.4609V52.6378L27.7747 51.815V50.9919V50.169V49.3459V49.1403V48.9347V48.7287Z" fill="url(#paint7_linear_1_27255)"/>
<path fill-rule="evenodd" clip-rule="evenodd" d="M27.9705 47.6984C27.9705 47.6984 27.9706 48.727 27.7648 49.1384C27.5591 51.6073 27.7648 53.6648 28.9992 55.3107C30.2336 57.1623 32.291 57.7795 34.7599 57.1622C36.4058 56.7508 38.0518 55.7221 39.6977 54.2819C40.1092 53.8704 40.315 53.6646 40.7265 53.2531C40.7265 53.2531 41.3434 52.4302 41.7549 52.0188C44.018 49.1384 45.4583 45.8467 46.0756 42.7606C46.6928 39.6745 46.487 36.7941 45.0468 34.9424C43.8124 33.0908 41.5493 32.4736 39.2861 33.0908C37.023 33.7081 34.3483 35.5597 32.0852 38.2343C32.0852 38.2343 31.4682 39.0574 31.0567 39.6746C29.4108 42.1435 28.1763 44.8179 27.7648 47.4925L27.9705 47.6984ZM32.2911 50.99C31.4681 49.9613 31.4682 48.3154 31.6739 46.4637C32.0854 44.6121 32.9082 42.7606 34.1427 41.1146C35.3771 39.4687 37.023 38.4402 38.2574 38.0287C39.6976 37.6172 40.7263 38.0284 41.5493 39.0571C42.3722 40.0858 42.3722 41.7318 42.1665 43.5834C41.755 45.4351 40.9321 47.2869 39.6977 48.9328C38.4633 50.5787 36.8174 51.6073 35.583 52.0188C34.1428 52.4302 32.9083 52.0187 32.2911 50.99Z" fill="#BFC7C9"/>
<path fill-rule="evenodd" clip-rule="evenodd" d="M27.9705 47.6984C27.9705 47.6984 27.9706 48.727 27.7648 49.1384C27.5591 51.6073 27.7648 53.6648 28.9992 55.3107C30.2336 57.1623 32.291 57.7795 34.7599 57.1622C36.4058 56.7508 38.0518 55.7221 39.6977 54.2819C40.1092 53.8704 40.315 53.6646 40.7265 53.2531C40.7265 53.2531 41.3434 52.4302 41.7549 52.0188C44.018 49.1384 45.4583 45.8467 46.0756 42.7606C46.6928 39.6745 46.487 36.7941 45.0468 34.9424C43.8124 33.0908 41.5493 32.4736 39.2861 33.0908C37.023 33.7081 34.3483 35.5597 32.0852 38.2343C32.0852 38.2343 31.4682 39.0574 31.0567 39.6746C29.4108 42.1435 28.1763 44.8179 27.7648 47.4925L27.9705 47.6984ZM32.2911 50.99C31.4681 49.9613 31.4682 48.3154 31.6739 46.4637C32.0854 44.6121 32.9082 42.7606 34.1427 41.1146C35.3771 39.4687 37.023 38.4402 38.2574 38.0287C39.6976 37.6172 40.7263 38.0284 41.5493 39.0571C42.3722 40.0858 42.3722 41.7318 42.1665 43.5834C41.755 45.4351 40.9321 47.2869 39.6977 48.9328C38.4633 50.5787 36.8174 51.6073 35.583 52.0188C34.1428 52.4302 32.9083 52.0187 32.2911 50.99Z" fill="url(#paint8_linear_1_27255)"/>
<path fill-rule="evenodd" clip-rule="evenodd" d="M34.1298 1.64595L31.6611 0H31.4551H31.2495H31.0439L30.8379 0.205626H30.6323L30.4267 0.411565L30.2207 0.617191H30.0151V0.823131L29.8092 1.02876V1.23438H29.6035V1.44032V1.64595L25.2832 12.5501V35.3871L27.9576 36.8274V13.9904L32.0723 3.08596L32.2782 2.88033V2.6747H32.4839V2.46876V2.26314H32.6895V2.05751H32.8954V1.85157H33.1011V1.64595H33.307H33.5126L33.7183 1.44032H33.9242H34.1298V1.64595Z" fill="#9C9C9C"/>
<path fill-rule="evenodd" clip-rule="evenodd" d="M34.1298 1.64595L31.6611 0H31.4551H31.2495H31.0439L30.8379 0.205626H30.6323L30.4267 0.411565L30.2207 0.617191H30.0151V0.823131L29.8092 1.02876V1.23438H29.6035V1.44032V1.64595L25.2832 12.5501V35.3871L27.9576 36.8274V13.9904L32.0723 3.08596L32.2782 2.88033V2.6747H32.4839V2.46876V2.26314H32.6895V2.05751H32.8954V1.85157H33.1011V1.64595H33.307H33.5126L33.7183 1.44032H33.9242H34.1298V1.64595Z" fill="url(#paint9_linear_1_27255)"/>
<path fill-rule="evenodd" clip-rule="evenodd" d="M34.1298 1.64595L31.6611 0H31.4551H31.2495H31.0439L30.8379 0.205626H30.6323L30.4267 0.411565L30.2207 0.617191H30.0151V0.823131L29.8092 1.02876V1.23438H29.6035V1.44032V1.64595L25.2832 12.5501V35.3871L27.9576 36.8274V13.9904L32.0723 3.08596L32.2782 2.88033V2.6747H32.4839V2.46876V2.26314H32.6895V2.05751H32.8954V1.85157H33.1011V1.64595H33.307H33.5126L33.7183 1.44032H33.9242H34.1298V1.64595Z" fill="url(#paint10_linear_1_27255)"/>
<path fill-rule="evenodd" clip-rule="evenodd" d="M38.6751 30.6524V22.0114V7.81535L34.3544 1.64313C34.3544 1.64313 34.1489 1.4375 33.9432 1.4375C33.9432 1.4375 33.5317 1.4375 33.326 1.4375C33.1202 1.4375 32.9142 1.84895 32.7085 2.05469C32.7085 2.05469 32.2972 2.67177 32.2972 2.87751L27.9766 13.7816V36.6186C27.9766 36.6186 28.388 36.0016 28.5938 35.7958C30.8569 32.9155 33.3259 31.2696 35.7947 30.6524C36.8234 30.4466 37.8521 30.2409 38.6751 30.6524Z" fill="#EBEBEB"/>
<path fill-rule="evenodd" clip-rule="evenodd" d="M38.6751 30.6524V22.0114V7.81535L34.3544 1.64313C34.3544 1.64313 34.1489 1.4375 33.9432 1.4375C33.9432 1.4375 33.5317 1.4375 33.326 1.4375C33.1202 1.4375 32.9142 1.84895 32.7085 2.05469C32.7085 2.05469 32.2972 2.67177 32.2972 2.87751L27.9766 13.7816V36.6186C27.9766 36.6186 28.388 36.0016 28.5938 35.7958C30.8569 32.9155 33.3259 31.2696 35.7947 30.6524C36.8234 30.4466 37.8521 30.2409 38.6751 30.6524Z" fill="url(#paint11_linear_1_27255)"/>
<path fill-rule="evenodd" clip-rule="evenodd" d="M23.8658 47.2489L21.397 45.8086L4.32065 66.9997L0 77.9041L2.46908 79.3441L6.78942 68.44L23.8658 47.2489ZM0 77.9041L2.46908 79.3441V79.5497V79.7557V79.9613L0 78.5213V78.3153V78.1097V77.9041Z" fill="#D1CACA"/>
<path fill-rule="evenodd" clip-rule="evenodd" d="M23.8658 47.2489L21.397 45.8086L4.32065 66.9997L0 77.9041L2.46908 79.3441L6.78942 68.44L23.8658 47.2489ZM0 77.9041L2.46908 79.3441V79.5497V79.7557V79.9613L0 78.5213V78.3153V78.1097V77.9041Z" fill="url(#paint12_linear_1_27255)"/>
<path fill-rule="evenodd" clip-rule="evenodd" d="M23.8658 47.2489L21.397 45.8086L4.32065 66.9997L0 77.9041L2.46908 79.3441L6.78942 68.44L23.8658 47.2489ZM0 77.9041L2.46908 79.3441V79.5497V79.7557V79.9613L0 78.5213V78.3153V78.1097V77.9041Z" fill="url(#paint13_linear_1_27255)"/>
<path fill-rule="evenodd" clip-rule="evenodd" d="M23.8518 47.25L6.77542 68.4411L2.45508 79.3452C2.45508 79.3452 2.45508 79.9623 2.45508 80.168C2.45508 80.3737 2.45508 80.5798 2.45508 80.7855C2.45508 80.7855 2.66059 80.9911 2.86633 80.9911C2.86633 80.9911 3.27778 80.9911 3.48352 80.9911L11.9189 76.0533L23.4402 61.8573L28.378 55.6854L26.5265 54.6566L25.9093 54.245L25.2921 53.8335L24.6746 53.2163L24.2633 52.5991V51.9819L23.6461 51.3647V50.5419L23.4402 49.7188V48.8959V48.0728V47.4556L23.8518 47.25Z" fill="#EBEBEB"/>
<path fill-rule="evenodd" clip-rule="evenodd" d="M23.8518 47.25L6.77542 68.4411L2.45508 79.3452C2.45508 79.3452 2.45508 79.9623 2.45508 80.168C2.45508 80.3737 2.45508 80.5798 2.45508 80.7855C2.45508 80.7855 2.66059 80.9911 2.86633 80.9911C2.86633 80.9911 3.27778 80.9911 3.48352 80.9911L11.9189 76.0533L23.4402 61.8573L28.378 55.6854L26.5265 54.6566L25.9093 54.245L25.2921 53.8335L24.6746 53.2163L24.2633 52.5991V51.9819L23.6461 51.3647V50.5419L23.4402 49.7188V48.8959V48.0728V47.4556L23.8518 47.25Z" fill="url(#paint14_linear_1_27255)"/>
<path fill-rule="evenodd" clip-rule="evenodd" d="M32.9082 48.7298L39.4917 52.6335H39.2861L39.0804 52.2223H38.8745V52.0163V51.3991V50.9876V50.5763V50.1648V49.7532V49.3416V48.9304V48.5188L39.0804 48.1072V47.696L39.4917 47.2844V46.8729L39.9032 46.4613V46.05L40.5204 45.6385L40.932 45.2269L41.3436 44.8157L41.7548 44.4041H42.1664L42.5779 43.7869H42.9892L43.4008 43.3753H43.8123H44.2239H44.6351H45.0467H45.2523H45.4583L37.8457 39.0547C37.8457 39.0547 35.9942 40.2891 35.377 41.3178C34.1425 42.9637 33.1139 44.8156 32.9082 46.6672C32.9082 47.2844 32.9082 47.6958 32.9082 48.1072L32.9082 48.7298Z" fill="#707E82"/>
<path fill-rule="evenodd" clip-rule="evenodd" d="M32.9082 48.7298L39.4917 52.6335H39.2861L39.0804 52.2223H38.8745V52.0163V51.3991V50.9876V50.5763V50.1648V49.7532V49.3416V48.9304V48.5188L39.0804 48.1072V47.696L39.4917 47.2844V46.8729L39.9032 46.4613V46.05L40.5204 45.6385L40.932 45.2269L41.3436 44.8157L41.7548 44.4041H42.1664L42.5779 43.7869H42.9892L43.4008 43.3753H43.8123H44.2239H44.6351H45.0467H45.2523H45.4583L37.8457 39.0547C37.8457 39.0547 35.9942 40.2891 35.377 41.3178C34.1425 42.9637 33.1139 44.8156 32.9082 46.6672C32.9082 47.2844 32.9082 47.6958 32.9082 48.1072L32.9082 48.7298Z" fill="url(#paint15_linear_1_27255)"/>
<path fill-rule="evenodd" clip-rule="evenodd" d="M38.4655 48.8936C38.2598 50.128 38.4653 51.1566 38.8768 51.9795C38.8768 51.9795 40.317 53.0084 41.1399 52.8027C41.9629 52.5969 42.9915 51.7739 44.0202 50.7452C44.8432 49.5107 45.4604 48.2765 45.6662 47.042C45.8719 45.8076 45.6661 44.7787 45.2546 43.9557C44.8431 43.1328 43.8144 42.9271 42.9915 43.3386C42.1685 43.5443 41.1398 44.3674 40.1112 45.3961C39.2882 46.4248 38.6713 47.8648 38.4655 49.0992V48.8936Z" fill="#899EA3"/>
<path fill-rule="evenodd" clip-rule="evenodd" d="M38.4655 48.8936C38.2598 50.128 38.4653 51.1566 38.8768 51.9795C38.8768 51.9795 40.317 53.0084 41.1399 52.8027C41.9629 52.5969 42.9915 51.7739 44.0202 50.7452C44.8432 49.5107 45.4604 48.2765 45.6662 47.042C45.8719 45.8076 45.6661 44.7787 45.2546 43.9557C44.8431 43.1328 43.8144 42.9271 42.9915 43.3386C42.1685 43.5443 41.1398 44.3674 40.1112 45.3961C39.2882 46.4248 38.6713 47.8648 38.4655 49.0992V48.8936Z" fill="url(#paint16_linear_1_27255)"/>
<defs>
<linearGradient id="paint0_linear_1_27255" x1="28.8955" y1="70.5471" x2="39.0119" y2="70.5821" gradientUnits="userSpaceOnUse">
<stop stop-color="#E6F0FF"/>
<stop offset="0.24" stop-color="#E2ECFD"/>
<stop offset="0.47" stop-color="#D6E3F8"/>
<stop offset="0.69" stop-color="#C3D3F0"/>
<stop offset="0.91" stop-color="#A9BDE4"/>
<stop offset="1" stop-color="#9CB2DF"/>
</linearGradient>
<linearGradient id="paint1_linear_1_27255" x1="35.2422" y1="71.6672" x2="37.4746" y2="71.669" gradientUnits="userSpaceOnUse">
<stop stop-color="#E6F0FF"/>
<stop offset="0.24" stop-color="#E2ECFD"/>
<stop offset="0.47" stop-color="#D6E3F8"/>
<stop offset="0.69" stop-color="#C3D3F0"/>
<stop offset="0.91" stop-color="#A9BDE4"/>
<stop offset="1" stop-color="#9CB2DF"/>
</linearGradient>
<linearGradient id="paint2_linear_1_27255" x1="28.1451" y1="71.6672" x2="30.6965" y2="71.6696" gradientUnits="userSpaceOnUse">
<stop stop-color="#E6F0FF"/>
<stop offset="0.24" stop-color="#E2ECFD"/>
<stop offset="0.47" stop-color="#D6E3F8"/>
<stop offset="0.69" stop-color="#C3D3F0"/>
<stop offset="0.91" stop-color="#A9BDE4"/>
<stop offset="1" stop-color="#9CB2DF"/>
</linearGradient>
<linearGradient id="paint3_linear_1_27255" x1="44.5809" y1="37.5706" x2="60.0273" y2="38.1403" gradientUnits="userSpaceOnUse">
<stop stop-color="#E6F0FF"/>
<stop offset="0.24" stop-color="#E2ECFD"/>
<stop offset="0.47" stop-color="#D6E3F8"/>
<stop offset="0.69" stop-color="#C3D3F0"/>
<stop offset="0.91" stop-color="#A9BDE4"/>
<stop offset="1" stop-color="#9CB2DF"/>
</linearGradient>
<linearGradient id="paint4_linear_1_27255" x1="39.9063" y1="37.6161" x2="59.8555" y2="37.6161" gradientUnits="userSpaceOnUse">
<stop stop-color="#4AFFC7"/>
<stop offset="1" stop-color="#3BADEA"/>
</linearGradient>
<linearGradient id="paint5_linear_1_27255" x1="43.4181" y1="43.7286" x2="63.9822" y2="44.0783" gradientUnits="userSpaceOnUse">
<stop stop-color="#E6F0FF"/>
<stop offset="0.24" stop-color="#E2ECFD"/>
<stop offset="0.47" stop-color="#D6E3F8"/>
<stop offset="0.69" stop-color="#C3D3F0"/>
<stop offset="0.91" stop-color="#A9BDE4"/>
<stop offset="1" stop-color="#9CB2DF"/>
</linearGradient>
<linearGradient id="paint6_linear_1_27255" x1="18.9206" y1="42.4538" x2="43.6002" y2="42.4538" gradientUnits="userSpaceOnUse">
<stop stop-color="#4AFFC7"/>
<stop offset="1" stop-color="#3BADEA"/>
</linearGradient>
<linearGradient id="paint7_linear_1_27255" x1="24.7037" y1="42.2073" x2="43.8374" y2="42.3683" gradientUnits="userSpaceOnUse">
<stop stop-color="#E6F0FF"/>
<stop offset="0.24" stop-color="#E2ECFD"/>
<stop offset="0.47" stop-color="#D6E3F8"/>
<stop offset="0.69" stop-color="#C3D3F0"/>
<stop offset="0.91" stop-color="#A9BDE4"/>
<stop offset="1" stop-color="#9CB2DF"/>
</linearGradient>
<linearGradient id="paint8_linear_1_27255" x1="27.6899" y1="45.1265" x2="46.3911" y2="45.1265" gradientUnits="userSpaceOnUse">
<stop stop-color="#4AFFC7"/>
<stop offset="1" stop-color="#3BADEA"/>
</linearGradient>
<linearGradient id="paint9_linear_1_27255" x1="27.3529" y1="18.1007" x2="34.2094" y2="18.117" gradientUnits="userSpaceOnUse">
<stop stop-color="#E6F0FF"/>
<stop offset="0.24" stop-color="#E2ECFD"/>
<stop offset="0.47" stop-color="#D6E3F8"/>
<stop offset="0.69" stop-color="#C3D3F0"/>
<stop offset="0.91" stop-color="#A9BDE4"/>
<stop offset="1" stop-color="#9CB2DF"/>
</linearGradient>
<linearGradient id="paint10_linear_1_27255" x1="25.2806" y1="18.4137" x2="34.1239" y2="18.4137" gradientUnits="userSpaceOnUse">
<stop stop-color="#4AFFC7"/>
<stop offset="1" stop-color="#3BADEA"/>
</linearGradient>
<linearGradient id="paint11_linear_1_27255" x1="30.4795" y1="18.729" x2="38.7712" y2="18.754" gradientUnits="userSpaceOnUse">
<stop stop-color="#E6F0FF"/>
<stop offset="0.24" stop-color="#E2ECFD"/>
<stop offset="0.47" stop-color="#D6E3F8"/>
<stop offset="0.69" stop-color="#C3D3F0"/>
<stop offset="0.91" stop-color="#A9BDE4"/>
<stop offset="1" stop-color="#9CB2DF"/>
</linearGradient>
<linearGradient id="paint12_linear_1_27255" x1="5.58335" y1="62.9992" x2="24.0796" y2="63.124" gradientUnits="userSpaceOnUse">
<stop stop-color="#E6F0FF"/>
<stop offset="0.24" stop-color="#E2ECFD"/>
<stop offset="0.47" stop-color="#D6E3F8"/>
<stop offset="0.69" stop-color="#C3D3F0"/>
<stop offset="0.91" stop-color="#A9BDE4"/>
<stop offset="1" stop-color="#9CB2DF"/>
</linearGradient>
<linearGradient id="paint13_linear_1_27255" x1="-0.0069122" y1="63.2965" x2="23.8498" y2="63.2965" gradientUnits="userSpaceOnUse">
<stop stop-color="#4AFFC7"/>
<stop offset="1" stop-color="#3BADEA"/>
</linearGradient>
<linearGradient id="paint14_linear_1_27255" x1="8.51971" y1="63.8338" x2="28.6101" y2="63.9864" gradientUnits="userSpaceOnUse">
<stop stop-color="#E6F0FF"/>
<stop offset="0.24" stop-color="#E2ECFD"/>
<stop offset="0.47" stop-color="#D6E3F8"/>
<stop offset="0.69" stop-color="#C3D3F0"/>
<stop offset="0.91" stop-color="#A9BDE4"/>
<stop offset="1" stop-color="#9CB2DF"/>
</linearGradient>
<linearGradient id="paint15_linear_1_27255" x1="31.6698" y1="45.8441" x2="45.4491" y2="45.8441" gradientUnits="userSpaceOnUse">
<stop stop-color="#4AFFC7"/>
<stop offset="1" stop-color="#3BADEA"/>
</linearGradient>
<linearGradient id="paint16_linear_1_27255" x1="38.3826" y1="47.9813" x2="45.742" y2="47.9813" gradientUnits="userSpaceOnUse">
<stop stop-color="#4AFFC7"/>
<stop offset="1" stop-color="#3BADEA"/>
</linearGradient>
</defs>
</svg>
