<svg width="71" height="102" viewBox="0 0 71 102" fill="none" xmlns="http://www.w3.org/2000/svg">
<path d="M68.8849 3.87066L62.8847 0.320032C62.1671 -0.137716 61.2145 -0.125345 60.1629 0.493233L4.03314 33.0799C1.80626 34.3789 0 37.8306 0 40.7998L0.08661 91.4861C0.08661 92.983 0.556743 94.0717 1.29904 94.6161L1.33615 94.6408C1.42275 94.7027 1.50935 94.7522 1.60833 94.8017L7.58377 98.3399L9.13022 91.6098L17.6914 86.6364C18.7801 86.0055 19.8069 86.0673 20.4873 86.8096L30.4217 97.5853C30.4959 97.6595 30.5702 97.7213 30.6444 97.7708L36.6074 101.297L35.2342 95.4697L34.1331 95.247L43.9067 73.1885C44.5871 71.6668 45.614 70.4049 46.6903 69.774L60.2495 61.9057C62.4764 60.6066 64.2827 57.155 64.2827 54.1858L64.1961 8.22546L68.8725 3.84593L68.8849 3.87066Z" fill="url(#paint0_linear_1_24729)"/>
<path d="M66.163 4.05893L10.0332 36.6456C7.80632 37.9446 6.00006 41.3963 6.00006 44.3655L6.08667 95.0518C6.08667 98.0209 7.90528 99.3818 10.1322 98.0828L23.6914 90.2145C24.7801 89.5835 25.8069 89.6454 26.4874 90.3877L36.4217 101.163C37.3496 102.178 39.1187 101.151 40.0466 99.0601L49.9191 76.779C50.5995 75.2573 51.6264 73.9954 52.7027 73.3644L66.2619 65.4961C68.4888 64.1971 70.2951 60.7454 70.2951 57.7762L70.2084 7.08996C70.2084 4.12079 68.3898 2.75992 66.163 4.05893Z" fill="url(#paint1_linear_1_24729)"/>
<path d="M56.7223 60.762C56.7223 62.1971 54.3099 64.8323 51.7984 65.921C45.2291 68.7664 34.5772 68.7664 28.0079 65.921C27.7853 65.822 27.5749 65.7354 27.377 65.6364C24.5191 64.2508 23.084 62.5064 23.084 60.7744V46.3863L56.7223 46.176V60.762Z" fill="url(#paint2_linear_1_24729)"/>
<path d="M28.5782 42.1343C34.8382 39.2888 44.9705 39.2888 51.2305 42.1343C51.8862 42.4312 52.4677 42.7529 52.9873 43.0869C53.0492 43.124 53.111 43.1611 53.1605 43.1982C54.9915 44.423 55.907 45.8581 55.907 47.2932C55.907 48.7283 54.9915 50.1511 53.1605 51.3758C53.111 51.413 53.0491 51.4501 52.9996 51.4872C52.6409 51.7222 52.2326 51.9449 51.7996 52.1676C51.614 52.2666 51.4161 52.3532 51.2182 52.4398C44.9582 55.2852 34.8258 55.2852 28.5658 52.4398C28.3555 52.3408 28.1576 52.2542 27.9596 52.1553C25.2379 50.7696 23.877 49.0376 23.877 47.2932C23.877 45.4251 25.4358 43.557 28.5658 42.1343H28.5782Z" fill="url(#paint3_linear_1_24729)"/>
<path d="M67.0899 45.2505L39.8972 60.95L12.7169 45.2505L39.8972 29.551L67.0899 45.2505Z" fill="url(#paint4_linear_1_24729)"/>
<path d="M67.0892 46.4997L39.8965 62.1992V60.9497L67.0892 45.2502V46.4997Z" fill="url(#paint5_linear_1_24729)"/>
<path d="M39.9089 62.1869L12.8028 46.4997V45.2502L39.9089 60.9373V62.1869Z" fill="url(#paint6_linear_1_24729)"/>
<path d="M26.2145 52.9669L41.4191 43.7872C41.6418 43.6511 41.9263 43.7254 42.0624 43.9481C42.1985 44.1708 42.1243 44.4553 41.9016 44.5914L27.1918 53.4989C26.2763 54.0433 25.7196 55.0206 25.7196 56.0846V73.1944C25.7196 73.4542 25.5093 73.6646 25.2495 73.6646H25.2124C24.9526 73.6646 24.7422 73.4542 24.7422 73.1944V55.5526C24.7422 54.4886 25.299 53.5113 26.2145 52.9669Z" fill="url(#paint7_linear_1_24729)"/>
<path d="M25.1751 69.0041C25.6575 69.0041 26.0658 69.3752 26.1029 69.8701L26.5731 76.2291C26.6102 76.7734 26.1895 77.2312 25.6452 77.2312H24.7173C24.173 77.2312 23.7523 76.7734 23.7895 76.2291L24.2596 69.8701C24.2967 69.3876 24.705 69.0041 25.1874 69.0041H25.1751Z" fill="url(#paint8_linear_1_24729)"/>
<path d="M25.1767 68.4198C25.7574 68.4198 26.2282 67.9489 26.2282 67.3682C26.2282 66.7874 25.7574 66.3166 25.1767 66.3166C24.5959 66.3166 24.1251 66.7874 24.1251 67.3682C24.1251 67.9489 24.5959 68.4198 25.1767 68.4198Z" fill="url(#paint9_linear_1_24729)"/>
<defs>
<linearGradient id="paint0_linear_1_24729" x1="-9.32816" y1="95.0862" x2="81.0956" y2="9.68526" gradientUnits="userSpaceOnUse">
<stop stop-color="#E6F0FF"/>
<stop offset="0.24" stop-color="#E2ECFD"/>
<stop offset="0.47" stop-color="#D6E3F8"/>
<stop offset="0.69" stop-color="#C3D3F0"/>
<stop offset="0.91" stop-color="#A9BDE4"/>
<stop offset="1" stop-color="#9CB2DF"/>
</linearGradient>
<linearGradient id="paint1_linear_1_24729" x1="78.7325" y1="27.8" x2="-9.53863" y2="94.3095" gradientUnits="userSpaceOnUse">
<stop stop-color="#E6F0FF"/>
<stop offset="0.24" stop-color="#E2ECFD"/>
<stop offset="0.47" stop-color="#D6E3F8"/>
<stop offset="0.69" stop-color="#C3D3F0"/>
<stop offset="0.91" stop-color="#A9BDE4"/>
<stop offset="1" stop-color="#9CB2DF"/>
</linearGradient>
<linearGradient id="paint2_linear_1_24729" x1="20.1767" y1="61.727" x2="55.5965" y2="50.3823" gradientUnits="userSpaceOnUse">
<stop stop-color="#E6F0FF"/>
<stop offset="0.24" stop-color="#E2ECFD"/>
<stop offset="0.47" stop-color="#D6E3F8"/>
<stop offset="0.69" stop-color="#C3D3F0"/>
<stop offset="0.91" stop-color="#A9BDE4"/>
<stop offset="1" stop-color="#9CB2DF"/>
</linearGradient>
<linearGradient id="paint3_linear_1_24729" x1="47.6675" y1="55.0502" x2="33.3907" y2="40.7734" gradientUnits="userSpaceOnUse">
<stop stop-color="#E6F0FF"/>
<stop offset="0.24" stop-color="#E2ECFD"/>
<stop offset="0.47" stop-color="#D6E3F8"/>
<stop offset="0.69" stop-color="#C3D3F0"/>
<stop offset="0.91" stop-color="#A9BDE4"/>
<stop offset="1" stop-color="#9CB2DF"/>
</linearGradient>
<linearGradient id="paint4_linear_1_24729" x1="30.3216" y1="57.9066" x2="52.6151" y2="28.4623" gradientUnits="userSpaceOnUse">
<stop stop-color="#E6F0FF"/>
<stop offset="0.24" stop-color="#E2ECFD"/>
<stop offset="0.47" stop-color="#D6E3F8"/>
<stop offset="0.69" stop-color="#C3D3F0"/>
<stop offset="0.91" stop-color="#A9BDE4"/>
<stop offset="1" stop-color="#9CB2DF"/>
</linearGradient>
<linearGradient id="paint5_linear_1_24729" x1="67.1016" y1="53.7247" x2="39.8965" y2="53.7247" gradientUnits="userSpaceOnUse">
<stop stop-color="#E6F0FF"/>
<stop offset="0.24" stop-color="#E2ECFD"/>
<stop offset="0.47" stop-color="#D6E3F8"/>
<stop offset="0.69" stop-color="#C3D3F0"/>
<stop offset="0.91" stop-color="#A9BDE4"/>
<stop offset="1" stop-color="#9CB2DF"/>
</linearGradient>
<linearGradient id="paint6_linear_1_24729" x1="39.9089" y1="53.7123" x2="12.8152" y2="53.7123" gradientUnits="userSpaceOnUse">
<stop stop-color="#E6F0FF"/>
<stop offset="0.24" stop-color="#E2ECFD"/>
<stop offset="0.47" stop-color="#D6E3F8"/>
<stop offset="0.69" stop-color="#C3D3F0"/>
<stop offset="0.91" stop-color="#A9BDE4"/>
<stop offset="1" stop-color="#9CB2DF"/>
</linearGradient>
<linearGradient id="paint7_linear_1_24729" x1="42.1367" y1="58.7073" x2="24.7422" y2="58.7073" gradientUnits="userSpaceOnUse">
<stop stop-color="#E6F0FF"/>
<stop offset="0.24" stop-color="#E2ECFD"/>
<stop offset="0.47" stop-color="#D6E3F8"/>
<stop offset="0.69" stop-color="#C3D3F0"/>
<stop offset="0.91" stop-color="#A9BDE4"/>
<stop offset="1" stop-color="#9CB2DF"/>
</linearGradient>
<linearGradient id="paint8_linear_1_24729" x1="26.5731" y1="73.1114" x2="23.7771" y2="73.1114" gradientUnits="userSpaceOnUse">
<stop stop-color="#E6F0FF"/>
<stop offset="0.24" stop-color="#E2ECFD"/>
<stop offset="0.47" stop-color="#D6E3F8"/>
<stop offset="0.69" stop-color="#C3D3F0"/>
<stop offset="0.91" stop-color="#A9BDE4"/>
<stop offset="1" stop-color="#9CB2DF"/>
</linearGradient>
<linearGradient id="paint9_linear_1_24729" x1="26.2282" y1="67.3682" x2="24.1374" y2="67.3682" gradientUnits="userSpaceOnUse">
<stop stop-color="#E6F0FF"/>
<stop offset="0.24" stop-color="#E2ECFD"/>
<stop offset="0.47" stop-color="#D6E3F8"/>
<stop offset="0.69" stop-color="#C3D3F0"/>
<stop offset="0.91" stop-color="#A9BDE4"/>
<stop offset="1" stop-color="#9CB2DF"/>
</linearGradient>
</defs>
</svg>
