<svg width="108" height="108" viewBox="0 0 108 108" fill="none" xmlns="http://www.w3.org/2000/svg">
<mask id="path-1-inside-1_1_27234" fill="white">
<path d="M40.5 67.5L-3.54062e-06 67.5L-5.90104e-06 40.5L40.5 40.5L40.5 5.90104e-06L67.5 3.54062e-06L67.5 40.5L108 40.5L108 67.5L67.5 67.5L67.5 108L40.5 108L40.5 67.5Z"/>
</mask>
<path d="M40.5 67.5L-3.54062e-06 67.5L-5.90104e-06 40.5L40.5 40.5L40.5 5.90104e-06L67.5 3.54062e-06L67.5 40.5L108 40.5L108 67.5L67.5 67.5L67.5 108L40.5 108L40.5 67.5Z" fill="url(#paint0_linear_1_27234)"/>
<path d="M40.5 67.5L42.5 67.5L42.5 65.5L40.5 65.5L40.5 67.5ZM-3.54062e-06 67.5L-2 67.5L-2 69.5L-3.36578e-06 69.5L-3.54062e-06 67.5ZM-5.90104e-06 40.5L-6.07588e-06 38.5L-2.00001 38.5L-2.00001 40.5L-5.90104e-06 40.5ZM40.5 40.5L40.5 42.5L42.5 42.5L42.5 40.5L40.5 40.5ZM40.5 5.90104e-06L40.5 -1.99999L38.5 -1.99999L38.5 6.07588e-06L40.5 5.90104e-06ZM67.5 3.54062e-06L69.5 3.36578e-06L69.5 -2L67.5 -2L67.5 3.54062e-06ZM67.5 40.5L65.5 40.5L65.5 42.5L67.5 42.5L67.5 40.5ZM108 40.5L110 40.5L110 38.5L108 38.5L108 40.5ZM108 67.5L108 69.5L110 69.5L110 67.5L108 67.5ZM67.5 67.5L67.5 65.5L65.5 65.5L65.5 67.5L67.5 67.5ZM67.5 108L67.5 110L69.5 110L69.5 108L67.5 108ZM40.5 108L38.5 108L38.5 110L40.5 110L40.5 108ZM40.5 67.5L40.5 65.5L-3.71547e-06 65.5L-3.54062e-06 67.5L-3.36578e-06 69.5L40.5 69.5L40.5 67.5ZM-3.54062e-06 67.5L2 67.5L1.99999 40.5L-5.90104e-06 40.5L-2.00001 40.5L-2 67.5L-3.54062e-06 67.5ZM-5.90104e-06 40.5L-5.72619e-06 42.5L40.5 42.5L40.5 40.5L40.5 38.5L-6.07588e-06 38.5L-5.90104e-06 40.5ZM40.5 40.5L42.5 40.5L42.5 5.72619e-06L40.5 5.90104e-06L38.5 6.07588e-06L38.5 40.5L40.5 40.5ZM40.5 5.90104e-06L40.5 2.00001L67.5 2L67.5 3.54062e-06L67.5 -2L40.5 -1.99999L40.5 5.90104e-06ZM67.5 3.54062e-06L65.5 3.71547e-06L65.5 40.5L67.5 40.5L69.5 40.5L69.5 3.36578e-06L67.5 3.54062e-06ZM67.5 40.5L67.5 42.5L108 42.5L108 40.5L108 38.5L67.5 38.5L67.5 40.5ZM108 40.5L106 40.5L106 67.5L108 67.5L110 67.5L110 40.5L108 40.5ZM108 67.5L108 65.5L67.5 65.5L67.5 67.5L67.5 69.5L108 69.5L108 67.5ZM67.5 67.5L65.5 67.5L65.5 108L67.5 108L69.5 108L69.5 67.5L67.5 67.5ZM67.5 108L67.5 106L40.5 106L40.5 108L40.5 110L67.5 110L67.5 108ZM40.5 108L42.5 108L42.5 67.5L40.5 67.5L38.5 67.5L38.5 108L40.5 108Z" fill="url(#paint1_linear_1_27234)" mask="url(#path-1-inside-1_1_27234)"/>
<defs>
<linearGradient id="paint0_linear_1_27234" x1="108" y1="71.122" x2="-0.550941" y2="11.6073" gradientUnits="userSpaceOnUse">
<stop stop-color="#3EF4A7"/>
<stop offset="1" stop-color="#096EE0"/>
</linearGradient>
<linearGradient id="paint1_linear_1_27234" x1="108" y1="71.122" x2="-0.550941" y2="11.6073" gradientUnits="userSpaceOnUse">
<stop stop-color="#3EF4A7"/>
<stop offset="1" stop-color="#096EE0"/>
</linearGradient>
</defs>
</svg>
