<svg width="25" height="19" viewBox="0 0 25 19" fill="none" xmlns="http://www.w3.org/2000/svg">
<path d="M2.21945 17.3621C0.775335 15.8424 0 14.1378 0 11.3747C0 6.51254 3.44484 2.15464 8.45438 0L9.70641 1.91431C5.03057 4.42041 4.11643 7.67252 3.75189 9.72297C4.5048 9.33677 5.49044 9.20202 6.45645 9.29093C8.98575 9.52292 10.9795 11.5803 10.9795 14.1378C10.9795 15.4274 10.4625 16.6641 9.54219 17.5759C8.62192 18.4877 7.37376 19 6.07229 19C4.56789 19 3.12938 18.3193 2.21945 17.3621ZM16.24 17.3621C14.7959 15.8424 14.0205 14.1378 14.0205 11.3747C14.0205 6.51254 17.4654 2.15464 22.4749 0L23.7269 1.91431C19.0511 4.42041 18.137 7.67252 17.7724 9.72297C18.5253 9.33677 19.511 9.20202 20.477 9.29093C23.0063 9.52292 25 11.5803 25 14.1378C25 15.4274 24.483 16.6641 23.5627 17.5759C22.6424 18.4877 21.3943 19 20.0928 19C18.5884 19 17.1499 18.3193 16.24 17.3621Z" fill="url(#paint0_linear_216_5211)"/>
<defs>
<linearGradient id="paint0_linear_216_5211" x1="12.4908" y1="0.183158" x2="12.4908" y2="19.0876" gradientUnits="userSpaceOnUse">
<stop stop-color="#94A3B8"/>
<stop offset="1" stop-color="#475569"/>
</linearGradient>
</defs>
</svg>
