<svg width="299" height="327" viewBox="0 0 299 327" fill="none" xmlns="http://www.w3.org/2000/svg">
<path opacity="0.1" fill-rule="evenodd" clip-rule="evenodd" d="M214.224 36.0615L244.58 66.5323C245.86 67.8173 247.924 67.8061 249.193 66.5323L279.548 36.0615C280.817 34.7877 280.829 32.7157 279.548 31.4307L249.193 0.959363C247.924 -0.313925 245.86 -0.325637 244.58 0.959363L214.224 31.4307C212.955 32.704 212.943 34.7765 214.224 36.0615ZM0 166.794C0 199.686 9.91673 230.287 26.9127 255.746C54.9669 297.774 102.251 325.804 156.043 327C158.033 327.032 159.648 325.411 159.648 323.414V271.63H210.988C212.962 271.63 214.56 270.025 214.56 268.044V239.13C214.56 233.056 217.121 227.26 221.59 223.167L243.707 202.947C249.709 197.446 257.555 194.4 265.678 194.4H295.428C297.402 194.4 299 192.796 299 190.815V142.761C299 140.78 297.402 139.176 295.428 139.176H265.759C257.62 139.176 249.775 136.13 243.756 130.613L221.574 110.278C217.104 106.185 214.56 100.405 214.56 94.3311V65.3518C214.56 63.3707 212.962 61.7662 210.988 61.7662H159.648V10.1572C159.648 8.15968 158.017 6.50599 156.043 6.57158C102.251 7.76663 54.9506 35.7968 26.9127 77.8252L26.88 77.8579C9.9004 103.334 0 133.918 0 166.794ZM159.545 219.991V271.529C119.35 271.49 84.376 248.53 66.9712 214.962C59.5009 200.554 55.2768 184.149 55.2768 166.777C55.2768 149.423 59.5009 133.033 66.9712 118.593C84.376 85.025 119.334 62.0486 159.545 62.0093V113.389C159.545 115.37 161.143 116.974 163.117 116.974H197.108C202.474 116.974 207.661 118.988 211.624 122.623L233.366 142.565C240.135 148.77 244.001 157.546 243.985 166.747C243.985 175.965 240.119 184.757 233.334 190.962L211.673 210.773C207.71 214.391 202.54 216.405 197.173 216.405H163.117C161.143 216.405 159.545 218.01 159.545 219.991Z" fill="white"/>
</svg>
