<svg width="25" height="23" viewBox="0 0 25 23" fill="none" xmlns="http://www.w3.org/2000/svg">
<g filter="url(#filter0_d_51_14699)">
<path d="M22 16.0156C22.5523 16.0156 23 16.4633 23 17.0156C23 17.5679 22.5523 18.0156 22 18.0156H3C2.44772 18.0156 2 17.5679 2 17.0156C2 16.4633 2.44772 16.0156 3 16.0156H22ZM22 8.01562C22.5523 8.01562 23 8.46334 23 9.01562C23 9.56791 22.5523 10.0156 22 10.0156H3C2.44772 10.0156 2 9.56791 2 9.01562C2 8.46334 2.44772 8.01562 3 8.01562H22ZM22 0C22.5523 0 23 0.447715 23 1C23 1.55228 22.5523 2 22 2H3C2.44772 2 2 1.55228 2 1C2 0.447715 2.44772 1.00665e-08 3 0H22Z" fill="url(#paint0_linear_51_14699)"/>
</g>
<defs>
<filter id="filter0_d_51_14699" x="0" y="0" width="25" height="22.0156" filterUnits="userSpaceOnUse" color-interpolation-filters="sRGB">
<feFlood flood-opacity="0" result="BackgroundImageFix"/>
<feColorMatrix in="SourceAlpha" type="matrix" values="0 0 0 0 0 0 0 0 0 0 0 0 0 0 0 0 0 0 127 0" result="hardAlpha"/>
<feOffset dy="2"/>
<feGaussianBlur stdDeviation="1"/>
<feComposite in2="hardAlpha" operator="out"/>
<feColorMatrix type="matrix" values="0 0 0 0 0 0 0 0 0 0 0 0 0 0 0 0 0 0 0.25 0"/>
<feBlend mode="normal" in2="BackgroundImageFix" result="effect1_dropShadow_51_14699"/>
<feBlend mode="normal" in="SourceGraphic" in2="effect1_dropShadow_51_14699" result="shape"/>
</filter>
<linearGradient id="paint0_linear_51_14699" x1="12.4923" y1="0.173669" x2="12.4923" y2="18.0987" gradientUnits="userSpaceOnUse">
<stop stop-color="#94A3B8"/>
<stop offset="1" stop-color="#475569"/>
</linearGradient>
</defs>
</svg>
