<svg width="16" height="16" viewBox="0 0 16 16" fill="none" xmlns="http://www.w3.org/2000/svg">
<path d="M13.7285 0.292877C14.119 -0.0975903 14.7521 -0.0976282 15.1426 0.292877C15.533 0.683387 15.533 1.31643 15.1426 1.70694L9.13184 7.71768L15.1416 13.7274C15.5321 14.118 15.5321 14.752 15.1416 15.1425C14.7511 15.5326 14.1179 15.5328 13.7275 15.1425L7.7168 9.13174L1.70703 15.1425C1.31649 15.5325 0.683344 15.5328 0.292969 15.1425C-0.0975555 14.752 -0.0975555 14.118 0.292969 13.7274L6.30273 7.71671L0.292969 1.70694C-0.0975555 1.31642 -0.0975555 0.683401 0.292969 0.292877C0.683498 -0.0975904 1.31653 -0.0976282 1.70703 0.292877L7.7168 6.30264L13.7285 0.292877Z" fill="url(#paint0_linear_51_17885)"/>
<defs>
<linearGradient id="paint0_linear_51_17885" x1="7.71198" y1="0.148703" x2="7.71198" y2="15.5064" gradientUnits="userSpaceOnUse">
<stop stop-color="#94A3B8"/>
<stop offset="1" stop-color="#475569"/>
</linearGradient>
</defs>
</svg>
