<svg width="262" height="285" viewBox="0 0 262 285" fill="none" xmlns="http://www.w3.org/2000/svg">
<path opacity="0.7" d="M136.427 5.7341C138.152 5.67732 139.578 7.11792 139.578 8.85715V53.8093H184.467C186.192 53.8093 187.59 55.2071 187.59 56.9323V82.1726C187.59 87.4627 189.815 92.4963 193.722 96.0612L213.115 113.772C218.377 118.578 225.237 121.23 232.353 121.23H258.291C260.016 121.23 261.414 122.628 261.414 124.353V166.207C261.414 167.932 260.016 169.33 258.291 169.33H232.281C225.18 169.33 218.321 171.982 213.073 176.773L193.736 194.384C189.829 197.949 187.59 202.998 187.59 208.289V233.471C187.59 235.197 186.192 236.594 184.467 236.594H139.578V281.695C139.578 283.435 138.166 284.846 136.427 284.818C89.397 283.777 48.0566 259.364 23.5293 222.759C8.67051 200.584 6.3469e-05 173.932 0 145.284C9.16793e-05 116.65 8.65633 90.0115 23.501 67.823L23.5293 67.7946C48.0424 31.1892 89.3972 6.77508 136.427 5.7341ZM139.491 54.0193C104.334 54.0521 73.7691 74.0641 58.5518 103.301C52.0207 115.879 48.3282 130.154 48.3281 145.269C48.3281 160.399 52.0208 174.688 58.5518 187.237C73.769 216.475 104.348 236.472 139.491 236.505V191.618C139.492 189.893 140.889 188.496 142.614 188.496H172.389C177.08 188.496 181.601 186.741 185.066 183.59L204.003 166.336C209.935 160.931 213.315 153.273 213.315 145.245C213.33 137.231 209.95 129.587 204.032 124.182L185.023 106.813C181.558 103.648 177.023 101.894 172.332 101.894H142.614C140.889 101.894 139.491 100.497 139.491 98.7712V54.0193ZM213.827 0.835663C214.936 -0.27351 216.741 -0.283593 217.86 0.835663L244.4 27.3747C245.519 28.4938 245.509 30.2987 244.4 31.4079L217.86 57.948C216.741 59.0671 214.936 59.057 213.827 57.948L187.287 31.4079C186.168 30.2887 186.178 28.4838 187.287 27.3747L213.827 0.835663Z" fill="currentColor"/>
</svg>
