<svg width="54" height="57" viewBox="0 0 54 57" fill="none" xmlns="http://www.w3.org/2000/svg">
<path d="M27.668 0.000328064C28.0179 -0.0112396 28.3076 0.281309 28.3076 0.634117V9.75033H37.4102C37.7601 9.75033 38.0439 10.0342 38.0439 10.3841V15.5023C38.0439 16.5752 38.4948 17.5967 39.2871 18.3197L43.2207 21.9115C44.2879 22.8861 45.679 23.4241 47.1221 23.4242H52.3828C52.7326 23.4242 53.0164 23.7072 53.0166 24.057V32.5452C53.0166 32.8952 52.7327 33.179 52.3828 33.179H47.1074C45.6673 33.1791 44.2761 33.7171 43.2119 34.6888L39.29 38.2601C38.4977 38.9831 38.0439 40.0075 38.0439 41.0804V46.1878C38.0437 46.5376 37.76 46.8206 37.4102 46.8206H28.3076V55.9681C28.3075 56.3209 28.0207 56.6067 27.668 56.6009C18.1301 56.3897 9.74576 51.4388 4.77148 44.015C1.75806 39.5179 0 34.1121 0 28.3021C8.26839e-05 22.4952 1.75523 17.093 4.76562 12.5931L4.77148 12.5872C9.74287 5.16342 18.1301 0.211561 27.668 0.000328064ZM28.2891 9.7933C21.1592 9.80027 14.9611 13.859 11.875 19.7884C10.5505 22.3391 9.80085 25.2337 9.80078 28.2992C9.80078 31.3676 10.5504 34.2659 11.875 36.8109C14.9611 42.7403 21.1621 46.7951 28.2891 46.8021V37.6995C28.2891 37.3496 28.5729 37.0658 28.9229 37.0658H34.9609C35.9124 37.0658 36.8295 36.7098 37.5322 36.0706L41.373 32.5716C42.576 31.4755 43.2617 29.9224 43.2617 28.2943C43.2646 26.6691 42.5789 25.1189 41.3789 24.0228L37.5234 20.5003C36.8207 19.8583 35.9007 19.5023 34.9492 19.5023H28.9229C28.5731 19.5023 28.2893 19.2192 28.2891 18.8695V9.7933Z" fill="url(#paint0_linear_1_26845)"/>
<defs>
<linearGradient id="paint0_linear_1_26845" x1="1.00978e-06" y1="19.3275" x2="54.8416" y2="47.4911" gradientUnits="userSpaceOnUse">
<stop stop-color="#3EF4A7"/>
<stop offset="1" stop-color="#096EE0"/>
</linearGradient>
</defs>
</svg>
