<svg width="36" height="39" viewBox="0 0 36 39" fill="none" xmlns="http://www.w3.org/2000/svg">
<g>
<path d="M18.7002 0.84375C18.9114 0.836768 19.0859 1.0136 19.0859 1.22656V6.72852H24.5801C24.791 6.72863 24.9617 6.89941 24.9619 7.11035V10.2002C24.9619 10.8478 25.2347 11.464 25.7129 11.9004L28.0869 14.0684C28.731 14.6566 29.5704 14.9814 30.4414 14.9814H33.6172C33.8283 14.9816 33.999 15.1531 33.999 15.3643V20.4873C33.999 20.6984 33.8283 20.87 33.6172 20.8701H30.4326C29.5634 20.8702 28.7243 21.1948 28.082 21.7812L25.7148 23.9365C25.2366 24.3729 24.9619 24.9911 24.9619 25.6387V28.7217C24.9618 28.9327 24.7911 29.1034 24.5801 29.1035H19.0859V34.625C19.0859 34.838 18.9132 35.0103 18.7002 35.0068C12.9432 34.8794 7.88232 31.8911 4.87988 27.4102C3.06114 24.6959 2.00006 21.4334 2 17.9268C2 14.4216 3.05977 11.1605 4.87695 8.44434L4.87988 8.44043C7.88059 3.95952 12.9432 0.971191 18.7002 0.84375ZM19.0742 6.75488C14.771 6.75935 11.0296 9.20841 9.16699 12.7871C8.3675 14.3267 7.91602 16.0745 7.91602 17.9248C7.91603 19.7769 8.36751 21.5264 9.16699 23.0625C11.0296 26.6411 14.7728 29.0873 19.0742 29.0918V23.5977C19.0744 23.3868 19.2452 23.2161 19.4561 23.2158H23.1016C23.6758 23.2158 24.2292 23.001 24.6533 22.6152L26.9717 20.5029C27.6977 19.8414 28.1113 18.9036 28.1113 17.9209C28.1129 16.94 27.6989 16.0043 26.9746 15.3428L24.6475 13.2168C24.2234 12.8295 23.6687 12.6144 23.0947 12.6143H19.4561C19.245 12.614 19.0742 12.4435 19.0742 12.2324V6.75488Z" fill="url(#paint0_linear_51_15015)"/>
<path d="M28.6687 0.246866L31.9175 3.49563C32.0545 3.63264 32.0533 3.85358 31.9175 3.98936L28.6687 7.23812C28.5317 7.37513 28.3108 7.3739 28.175 7.23812L24.9262 3.98936C24.7892 3.85235 24.7905 3.6314 24.9262 3.49563L28.175 0.246866C28.3108 0.11109 28.5317 0.109855 28.6687 0.246866Z" fill="url(#paint1_linear_51_15015)"/>
</g>
<defs>
<linearGradient id="paint0_linear_51_15015" x1="2" y1="12.5093" x2="35.1009" y2="29.5076" gradientUnits="userSpaceOnUse">
<stop stop-color="#3EF4A7"/>
<stop offset="1" stop-color="#096EE0"/>
</linearGradient>
<linearGradient id="paint1_linear_51_15015" x1="26.568" y1="1.87336" x2="30.3355" y2="5.57168" gradientUnits="userSpaceOnUse">
<stop offset="1" stop-color="#FF9E58"/>
</linearGradient>
</defs>
</svg>
