<svg width="187" height="42" viewBox="0 0 187 42" fill="none" xmlns="http://www.w3.org/2000/svg">
<path d="M87.0713 17.9648L93.8701 0.300781H98.9346L86.8857 28.4639L74.8379 0.300781H79.9736L87.0713 17.9648ZM13.2324 0C14.8084 2.06426e-05 16.2686 0.208659 17.6104 0.62793C18.9522 1.04726 20.1414 1.57577 21.1768 2.21777L19.4766 6.24707C17.4811 4.84158 15.4476 4.14165 13.3799 4.1416C11.8038 4.1416 10.3318 4.5668 8.96387 5.41699C7.59592 6.26726 6.50505 7.42435 5.69238 8.89062C4.87991 10.3567 4.47172 11.9644 4.47168 13.7139C4.47168 15.5618 4.84775 17.2193 5.59961 18.6855C6.35154 20.1518 7.42243 21.2969 8.81641 22.1211C10.2074 22.9452 11.815 23.3593 13.6396 23.3594C14.9438 23.3594 16.1211 23.1628 17.168 22.7695C18.2148 22.3762 19.0972 21.8699 19.8115 21.2539L21.6221 25.0977C20.8326 25.6644 19.7424 26.208 18.3516 26.7256C16.9605 27.2433 15.4356 27.501 13.7871 27.501C11.0023 27.5009 8.57041 26.8902 6.48828 25.6699C4.406 24.4495 2.8038 22.8121 1.68457 20.7529C0.562551 18.6968 0.00392789 16.4356 0.00390625 13.9717C0.00390625 11.2878 0.565343 8.88453 1.68457 6.76465C2.80669 4.6448 4.36797 2.99027 6.37793 1.79297C8.38502 0.598548 10.6701 0 13.2324 0ZM32.4111 23.0674H45.6807V27.2061H28.0879V0.300781H32.4111V23.0674ZM137.37 0.300781C140.375 0.300781 142.784 1.06388 144.595 2.59082C146.405 4.11783 147.311 6.23838 147.311 8.94824C147.311 10.5993 146.96 12.1319 146.258 13.5488C145.555 14.9659 144.453 16.0568 142.949 16.8203L149.491 27.2061H144.502L138.44 17.8555H134.116V27.2061H129.793V0.300781H137.37ZM159.614 23.0674H172.884V27.2061H155.291V0.300781H159.614V23.0674ZM183.64 27.2061H179.316V0.300781H183.64V27.2061ZM122.586 4.43945H109.06V11.6084H121.108V15.7471H109.06V23.0645H123.104V27.2031H104.736V0.300781H122.586V4.43945ZM69.959 4.43945H56.4326V11.6084H68.4814V15.7471H56.4326V23.0635H70.4766V27.2021H52.1094V0.300781H69.959V4.43945ZM134.119 13.7139H137.96C139.684 13.7139 140.936 13.2396 141.711 12.291C142.486 11.3425 142.877 10.2785 142.877 9.0957C142.877 8.40754 142.729 7.71043 142.435 7.00781C142.14 6.30513 141.633 5.70334 140.919 5.19727C140.205 4.69116 139.267 4.43945 138.11 4.43945H134.119V13.7139Z" fill="url(#paint0_linear_1_26806)"/>
<path d="M88.9766 40.2549C89.1038 40.252 89.2141 40.2951 89.3037 40.3848C89.3932 40.4744 89.4365 40.5819 89.4365 40.7119C89.4365 40.8418 89.3931 40.9515 89.3037 41.0439C89.2141 41.1365 89.1067 41.1826 88.9766 41.1826C88.8464 41.1826 88.7391 41.1395 88.6553 41.0498C88.5716 40.9603 88.5284 40.8505 88.5283 40.7148C88.5283 40.5847 88.5714 40.4773 88.6553 40.3877C88.7391 40.298 88.8464 40.2549 88.9766 40.2549ZM135.239 33.9062C135.722 33.9062 136.188 33.9955 136.64 34.1748C137.088 34.3541 137.484 34.6058 137.822 34.9268L137.403 35.416C137.114 35.1355 136.784 34.9188 136.411 34.7598C136.035 34.6036 135.647 34.5254 135.248 34.5254C134.696 34.5254 134.193 34.658 133.733 34.9238C133.274 35.1899 132.909 35.5519 132.64 36.0117C132.371 36.4715 132.237 36.972 132.237 37.5186C132.237 38.0622 132.371 38.5626 132.64 39.0195C132.909 39.4765 133.274 39.8375 133.733 40.1064C134.193 40.3753 134.699 40.5117 135.248 40.5117C135.641 40.5117 136.026 40.4365 136.402 40.2832C136.775 40.1299 137.111 39.9193 137.403 39.6445L137.831 40.1035C137.478 40.4303 137.07 40.688 136.616 40.8789C136.159 41.0697 135.694 41.165 135.217 41.165C134.543 41.165 133.924 41.0034 133.36 40.6768C132.796 40.35 132.347 39.9068 132.018 39.3486C131.688 38.7907 131.523 38.1806 131.523 37.5215C131.523 36.8621 131.691 36.2545 132.023 35.7051C132.356 35.1528 132.807 34.7165 133.377 34.3926C133.944 34.0687 134.566 33.9063 135.239 33.9062ZM3.74512 33.9023C4.22809 33.9023 4.69728 33.9856 5.14844 34.1562C5.60239 34.3269 6.00165 34.5646 6.34863 34.8711L5.94043 35.3711C5.64836 35.0993 5.30943 34.8916 4.92773 34.7441C4.54607 34.5996 4.1528 34.5244 3.74512 34.5244C3.19282 34.5245 2.6863 34.6598 2.22363 34.9287C1.76104 35.1977 1.39387 35.5598 1.12207 36.0166C0.850339 36.4735 0.714844 36.974 0.714844 37.5176C0.714895 38.0697 0.850437 38.5726 1.12207 39.0322C1.39387 39.492 1.764 39.857 2.22949 40.126C2.69509 40.3949 3.20448 40.5283 3.75684 40.5283C4.0981 40.5283 4.43698 40.4731 4.77246 40.3604C5.10781 40.2476 5.41984 40.091 5.70605 39.8857V37.6064H6.32812V40.2217C5.98115 40.5137 5.57886 40.7443 5.11914 40.9092C4.65943 41.0769 4.19097 41.1611 3.7168 41.1611C3.04295 41.1611 2.42036 40.9997 1.85352 40.6729C1.28675 40.3461 0.832555 39.9028 0.5 39.3447C0.167638 38.7868 5.35032e-05 38.1767 0 37.5176C0 36.8583 0.167529 36.2506 0.5 35.7012C0.832572 35.1488 1.28682 34.7116 1.8623 34.3877C2.43776 34.0638 3.06557 33.9024 3.74512 33.9023ZM12.251 33.9023C12.9335 33.9023 13.5553 34.0648 14.125 34.3887C14.6918 34.7125 15.143 35.1489 15.4785 35.7012C15.8111 36.2536 15.9795 36.8582 15.9795 37.5176C15.9795 38.1768 15.811 38.7867 15.4785 39.3447C15.1459 39.9029 14.6947 40.346 14.125 40.6729C13.5554 40.9995 12.9305 41.1611 12.251 41.1611C11.5715 41.1611 10.9466 40.9996 10.377 40.6729C9.80728 40.3461 9.356 39.9029 9.02344 39.3447C8.69107 38.7867 8.52347 38.1767 8.52344 37.5176C8.52344 36.8582 8.6909 36.2506 9.02344 35.7012C9.35594 35.1489 9.80742 34.7126 10.377 34.3887C10.9437 34.0648 11.5686 33.9024 12.251 33.9023ZM34.1084 33.9023C34.5912 33.9023 35.0597 33.9857 35.5107 34.1562C35.9618 34.3269 36.3639 34.5646 36.7109 34.8711L36.3037 35.3711C36.0116 35.0992 35.6728 34.8916 35.2939 34.7441C34.9122 34.5996 34.5191 34.5244 34.1113 34.5244C33.5589 34.5244 33.0526 34.6597 32.5898 34.9287C32.1271 35.1977 31.7601 35.5597 31.4883 36.0166C31.2165 36.4735 31.0801 36.9739 31.0801 37.5176C31.0801 38.0697 31.2166 38.5726 31.4883 39.0322C31.7601 39.492 32.1301 39.857 32.5957 40.126C33.0613 40.3949 33.5707 40.5283 34.123 40.5283C34.4641 40.5283 34.8024 40.4731 35.1377 40.3604C35.4732 40.2476 35.786 40.0911 36.0723 39.8857V37.6064H36.6914V40.2217C36.3445 40.5137 35.9421 40.7443 35.4824 40.9092C35.0226 41.0769 34.5534 41.1611 34.0791 41.1611C33.4054 41.1611 32.7835 40.9996 32.2168 40.6729C31.6471 40.346 31.1959 39.9029 30.8633 39.3447C30.5309 38.7867 30.3633 38.1767 30.3633 37.5176C30.3633 36.8583 30.5308 36.2506 30.8633 35.7012C31.1959 35.1488 31.6501 34.7116 32.2256 34.3877C32.8011 34.0638 33.4288 33.9023 34.1084 33.9023ZM58.9404 33.9023C59.4233 33.9023 59.8917 33.9867 60.3428 34.1572C60.7938 34.3278 61.196 34.5647 61.543 34.8711L61.1357 35.3711C60.8437 35.0993 60.5048 34.8916 60.126 34.7441C59.7443 34.5996 59.3511 34.5244 58.9434 34.5244C58.391 34.5244 57.8846 34.6598 57.4219 34.9287C56.9592 35.1977 56.5921 35.5597 56.3203 36.0166C56.0485 36.4735 55.9121 36.9739 55.9121 37.5176C55.9121 38.0699 56.0485 38.5734 56.3203 39.0332C56.5921 39.4928 56.9623 39.8571 57.4277 40.126C57.8934 40.3949 58.4027 40.5283 58.9551 40.5283C59.2962 40.5283 59.6344 40.4731 59.9697 40.3604C60.3052 40.2476 60.618 40.0911 60.9043 39.8857V37.6074H61.5234V40.2217C61.1764 40.5138 60.7743 40.7453 60.3145 40.9102C59.8546 41.0779 59.3854 41.1611 58.9111 41.1611C58.2375 41.1611 57.6155 40.9996 57.0488 40.6729C56.4792 40.3461 56.0279 39.9029 55.6953 39.3447C55.3629 38.7867 55.1953 38.1767 55.1953 37.5176C55.1953 36.8582 55.3628 36.2506 55.6953 35.7012C56.0278 35.1489 56.4823 34.7126 57.0576 34.3887C57.6331 34.0648 58.2608 33.9024 58.9404 33.9023ZM108.642 33.9023C109.324 33.9023 109.946 34.0648 110.516 34.3887C111.082 34.7125 111.534 35.1489 111.869 35.7012C112.202 36.2536 112.37 36.8582 112.37 37.5176C112.37 38.1768 112.202 38.7867 111.869 39.3447C111.537 39.9029 111.085 40.346 110.516 40.6729C109.949 40.9995 109.324 41.1611 108.642 41.1611C107.959 41.1611 107.337 40.9996 106.768 40.6729C106.201 40.3461 105.747 39.9028 105.414 39.3447C105.082 38.7867 104.914 38.1767 104.914 37.5176C104.914 36.8582 105.082 36.2506 105.414 35.7012C105.747 35.1489 106.198 34.7126 106.768 34.3887C107.334 34.0648 107.959 33.9024 108.642 33.9023ZM46.0762 33.9648C46.7557 33.962 47.3775 34.1184 47.9385 34.4336C48.4995 34.7459 48.9417 35.1771 49.2656 35.7266C49.5894 36.2759 49.7519 36.877 49.752 37.5391C49.752 38.1984 49.5895 38.803 49.2656 39.3467C48.9417 39.8904 48.4994 40.3214 47.9326 40.6338C47.3687 40.9461 46.741 41.1025 46.0527 41.1025H43.207V33.9648H46.0762ZM99.7031 33.9648C100.386 33.962 101.007 34.1184 101.568 34.4336C102.129 34.7459 102.572 35.1771 102.896 35.7266C103.219 36.2759 103.382 36.877 103.382 37.5391C103.382 38.1984 103.219 38.803 102.896 39.3467C102.572 39.8904 102.129 40.3214 101.562 40.6338C100.999 40.9461 100.371 41.1025 99.6826 41.1025H96.834V33.9648H99.7031ZM72.5918 34.5947H70.2314V41.0996H69.5264V34.5947H67.166V33.9531H72.5918V34.5947ZM126.539 34.5947H124.179V41.0996H123.474V34.5947H121.113V33.9531H126.539V34.5947ZM19.0537 41.0986H18.3477V33.9609H19.0537V41.0986ZM27.2861 40.0049V33.9609H27.9834V41.0986H27.2373L22.8154 35.0537V41.0986H22.1094V33.9609H22.8555L27.2861 40.0049ZM52.8271 41.0986H52.1211V33.9609H52.8271V41.0986ZM65.1182 41.0986H64.4121V33.9609H65.1182V41.0986ZM80.0732 41.0986H79.3096L78.4619 39.1982H74.5L73.6611 41.0986H72.9062L76.1221 33.9609H76.8564L80.0732 41.0986ZM82.7705 40.4648H85.9141V41.0986H82.0645V33.9609H82.7705V40.4648ZM119.062 41.0986H118.359V33.9609H119.062V41.0986ZM140.894 40.4648H144.037V41.0986H140.188V33.9609H140.894V40.4648ZM151.018 34.5947H146.946V37.1484H150.59V37.7812H146.946V40.4648H151.154V41.0986H146.243V33.9609H151.018V34.5947ZM155.939 40.3203L158.473 33.9609H159.219L156.286 41.0986H155.552L152.643 33.9609H153.397L155.939 40.3203ZM166.007 34.5947H161.933V37.1484H165.576V37.7812H161.933V40.4648H166.138V41.0986H161.227V33.9609H166.007V34.5947ZM171.344 33.9609C172.234 33.961 172.925 34.1666 173.411 34.5801C173.897 34.9907 174.14 35.5746 174.14 36.3291C174.14 36.922 173.998 37.4143 173.712 37.8105C173.426 38.2067 173.017 38.4815 172.485 38.6377L174.2 41.0986H173.388L171.847 38.7705C171.63 38.785 171.461 38.791 171.346 38.791H169.386V41.0986H168.68V33.9609H171.344ZM177.589 40.4648H180.732V41.0986H176.883V33.9609H177.589V40.4648ZM183.64 41.0986H182.934V33.9609H183.64V41.0986ZM12.2627 34.5332C11.7162 34.5361 11.2127 34.6685 10.75 34.9316C10.2873 35.1977 9.92027 35.5597 9.64844 36.0137C9.37662 36.4706 9.24023 36.971 9.24023 37.5146C9.24025 38.0583 9.3766 38.5618 9.64844 39.0273C9.92023 39.4928 10.2875 39.8542 10.75 40.126C11.2127 40.3949 11.7162 40.5283 12.2627 40.5283C12.8006 40.5283 13.298 40.3949 13.7578 40.126C14.2176 39.857 14.5827 39.4901 14.8574 39.0273C15.1293 38.5646 15.2646 38.0612 15.2646 37.5146C15.2646 36.971 15.1292 36.4705 14.8574 36.0137C14.5856 35.5567 14.2177 35.1977 13.7578 34.9316C13.2981 34.6657 12.8005 34.5332 12.2627 34.5332ZM108.653 34.5332C108.107 34.5361 107.603 34.6685 107.141 34.9316C106.678 35.1977 106.311 35.5597 106.039 36.0137C105.767 36.4706 105.631 36.971 105.631 37.5146C105.631 38.0583 105.767 38.5618 106.039 39.0273C106.311 39.4928 106.678 39.8542 107.141 40.126C107.603 40.3949 108.107 40.5283 108.653 40.5283C109.191 40.5283 109.689 40.3949 110.148 40.126C110.608 39.857 110.973 39.49 111.245 39.0273C111.517 38.5646 111.652 38.0612 111.652 37.5146C111.652 36.971 111.517 36.4706 111.245 36.0137C110.973 35.5567 110.605 35.1977 110.148 34.9316C109.689 34.6657 109.191 34.5332 108.653 34.5332ZM43.9131 40.4688H46.0967C46.6344 40.4658 47.1261 40.3364 47.5771 40.0791C48.0254 39.8217 48.3814 39.4688 48.6445 39.0234C48.9077 38.5781 49.0371 38.0827 49.0371 37.5361C49.037 36.9926 48.9047 36.495 48.6387 36.0469C48.3726 35.5986 48.0136 35.2427 47.5625 34.9854C47.1085 34.728 46.611 34.5986 46.0674 34.5986H43.9131V40.4688ZM97.543 40.4688H99.7256C100.264 40.4659 100.756 40.3365 101.207 40.0791C101.655 39.8217 102.011 39.4688 102.274 39.0234C102.538 38.5781 102.667 38.0827 102.667 37.5361C102.667 36.9926 102.535 36.495 102.269 36.0469C102.002 35.5986 101.644 35.2427 101.192 34.9854C100.738 34.728 100.241 34.5987 99.6973 34.5986H97.543V40.4688ZM89.1816 34.0859C89.7542 34.0859 90.2145 34.2244 90.5645 34.5049C90.9143 34.7854 91.0907 35.1848 91.0908 35.7109C91.0908 35.977 91.0468 36.2116 90.9629 36.4111C90.8791 36.6105 90.7726 36.7811 90.6484 36.917C90.5212 37.0529 90.3558 37.2093 90.1533 37.3857C89.8613 37.6315 89.6387 37.8602 89.4912 38.0742C89.3409 38.2882 89.2656 38.563 89.2656 38.8955H88.7129C88.7129 38.6151 88.757 38.3752 88.8408 38.1699C88.9247 37.9646 89.029 37.796 89.1533 37.6572C89.2747 37.5215 89.4365 37.3686 89.6328 37.1982C89.8237 37.0276 89.971 36.8853 90.0723 36.7754C90.1734 36.6626 90.2607 36.5242 90.333 36.3623C90.4053 36.1975 90.4395 36.0089 90.4395 35.7891C90.4394 35.4219 90.3211 35.144 90.0869 34.9561C89.8527 34.7682 89.5346 34.6758 89.1328 34.6758C88.7308 34.6758 88.415 34.774 88.1836 34.9707C87.9523 35.1674 87.8259 35.4572 87.8057 35.8389L87.2441 35.8184C87.2673 35.2689 87.4557 34.8408 87.8027 34.54C88.1497 34.2365 88.6092 34.086 89.1816 34.0859ZM74.7744 38.5654H78.1846L76.4697 34.707L74.7744 38.5654ZM169.386 38.1572H171.346C172.025 38.1572 172.553 38.0009 172.92 37.6914C173.287 37.382 173.472 36.9336 173.472 36.3496C173.472 35.7773 173.287 35.3437 172.92 35.043C172.553 34.7422 172.028 34.5947 171.346 34.5947H169.386V38.1572Z" fill="url(#paint1_linear_1_26806)"/>
<path d="M185.521 40.3633H186.227V41.069H185.521V40.3633Z" fill="#475569"/>
<defs>
<linearGradient id="paint0_linear_1_26806" x1="91.7542" y1="0.274389" x2="91.7542" y2="28.5951" gradientUnits="userSpaceOnUse">
<stop stop-color="#94A3B8"/>
<stop offset="1" stop-color="#475569"/>
</linearGradient>
<linearGradient id="paint1_linear_1_26806" x1="91.7522" y1="33.9725" x2="91.7522" y2="41.2162" gradientUnits="userSpaceOnUse">
<stop offset="1" stop-color="#475569"/>
</linearGradient>
</defs>
</svg>
