<svg width="26" height="26" viewBox="0 0 26 26" fill="none" xmlns="http://www.w3.org/2000/svg">
<g filter="url(#filter0_d_51_14698)">
<path d="M23.453 18.8226L19.0112 14.0185L18.301 14.7296L17.4965 13.9249C17.5582 13.845 17.6198 13.7652 17.6783 13.6837C18.938 11.9234 19.492 9.75469 19.2309 7.60577C18.9698 5.45685 17.9126 3.48398 16.2681 2.07679C14.6235 0.669597 12.5112 -0.0696061 10.3484 0.00516564C8.18547 0.0799374 6.12924 0.963248 4.58576 2.48065C3.04228 3.99805 2.12377 6.03922 2.01163 8.20105C1.89948 10.3629 2.60185 12.4882 3.98003 14.1572C5.35821 15.8263 7.312 16.9177 9.45553 17.216C11.5991 17.5143 13.7765 16.9977 15.5578 15.7683C15.6804 15.6837 15.8009 15.5956 15.9192 15.5039L16.7224 16.3073L15.9249 17.105L20.8254 21.4549C20.9981 21.6277 21.2032 21.7649 21.429 21.8584C21.6547 21.9519 21.8967 22.0001 22.141 22C22.3854 21.9999 22.6273 21.9517 22.853 21.8581C23.0787 21.7644 23.2837 21.6272 23.4564 21.4543C23.629 21.2813 23.7659 21.076 23.8592 20.8501C23.9525 20.6242 24.0003 20.3821 24 20.1377C23.9997 19.8933 23.9512 19.6514 23.8574 19.4257C23.7635 19.2001 23.6261 18.9951 23.453 18.8226ZM14.8813 12.8787C13.8999 13.8624 12.6078 14.4752 11.2253 14.6127C9.84277 14.7502 8.45536 14.4039 7.29955 13.6327C6.14374 12.8616 5.29107 11.7134 4.88689 10.3838C4.4827 9.05417 4.55201 7.62552 5.08301 6.34132C5.61401 5.05713 6.57382 3.99688 7.79885 3.34129C9.02389 2.6857 10.4383 2.47536 11.801 2.74612C13.1637 3.01687 14.3904 3.75197 15.2719 4.8261C16.1535 5.90024 16.6353 7.24693 16.6353 8.63663C16.6352 10.2272 16.0044 11.7528 14.8813 12.8787Z" fill="url(#paint0_linear_51_14698)"/>
</g>
<defs>
<filter id="filter0_d_51_14698" x="0" y="0" width="26" height="26" filterUnits="userSpaceOnUse" color-interpolation-filters="linearRGB">
<feFlood flood-opacity="0" result="BackgroundImageFix"/>
<feColorMatrix in="SourceAlpha" type="matrix" values="0 0 0 0 0 0 0 0 0 0 0 0 0 0 0 0 0 0 127 0" result="hardAlpha"/>
<feOffset dy="2"/>
<feGaussianBlur stdDeviation="1"/>
<feComposite in2="hardAlpha" operator="out"/>
<feColorMatrix type="matrix" values="0 0 0 0 0 0 0 0 0 0 0 0 0 0 0 0 0 0 0.25 0"/>
<feBlend mode="normal" in2="BackgroundImageFix" result="effect1_dropShadow_51_14698"/>
<feBlend mode="normal" in="SourceGraphic" in2="effect1_dropShadow_51_14698" result="shape"/>
</filter>
<linearGradient id="paint0_linear_51_14698" x1="12.9919" y1="0.212078" x2="12.9919" y2="22.1015" gradientUnits="userSpaceOnUse">
<stop stop-color="#94A3B8"/>
<stop offset="1" stop-color="#475569"/>
</linearGradient>
</defs>
</svg>
