<svg width="38" height="34" viewBox="0 0 57 53" fill="none" xmlns="http://www.w3.org/2000/svg">
<g filter="url(#filter0_dd_1029_25641)">
<path d="M40.5674 32.1968C40.5664 33.2722 40.1393 34.3035 39.3789 35.064C38.6183 35.8246 37.5864 36.2526 36.5107 36.2534H6.76172C5.68617 36.2525 4.6551 35.8245 3.89453 35.064C3.13402 34.3035 2.70603 33.2723 2.70508 32.1968V14.5835H40.5674V32.1968ZM10.8184 29.478C10.2844 29.4841 9.7739 29.7009 9.39844 30.0806C9.02321 30.4602 8.81261 30.9726 8.8125 31.5063C8.81249 32.0403 9.02306 32.5534 9.39844 32.9331C9.7739 33.3128 10.2844 33.5286 10.8184 33.5347C11.3524 33.5287 11.8628 33.3128 12.2383 32.9331C12.6137 32.5534 12.8242 32.0403 12.8242 31.5063C12.8241 30.9725 12.6136 30.4602 12.2383 30.0806C11.8628 29.7008 11.3524 29.484 10.8184 29.478ZM21.6367 29.478C21.1027 29.484 20.5923 29.7008 20.2168 30.0806C19.8414 30.4602 19.631 30.9725 19.6309 31.5063C19.6309 32.0404 19.8413 32.5534 20.2168 32.9331C20.5923 33.3128 21.1027 33.5287 21.6367 33.5347C22.1705 33.5286 22.6803 33.3126 23.0557 32.9331C23.4312 32.5534 23.6416 32.0404 23.6416 31.5063C23.6415 30.9725 23.431 30.4602 23.0557 30.0806C22.6803 29.701 22.1705 29.4841 21.6367 29.478ZM32.4541 29.478C31.9203 29.4841 31.4106 29.701 31.0352 30.0806C30.6598 30.4602 30.4484 30.9725 30.4482 31.5063C30.4482 32.0404 30.6597 32.5534 31.0352 32.9331C31.4106 33.3126 31.9203 33.5286 32.4541 33.5347C32.9881 33.5287 33.4985 33.3128 33.874 32.9331C34.2495 32.5534 34.46 32.0404 34.46 31.5063C34.4599 30.9725 34.2493 30.4602 33.874 30.0806C33.4985 29.7008 32.9881 29.484 32.4541 29.478ZM10.8174 30.8296C10.9949 30.8322 11.1644 30.9044 11.2891 31.0308C11.4137 31.1572 11.4833 31.3278 11.4834 31.5054C11.4834 31.6829 11.4136 31.8535 11.2891 31.98C11.1644 32.1064 10.9949 32.1795 10.8174 32.1821C10.6397 32.1796 10.4695 32.1065 10.3447 31.98C10.2202 31.8535 10.1504 31.6829 10.1504 31.5054C10.1505 31.3278 10.2201 31.1572 10.3447 31.0308C10.4695 30.9042 10.6397 30.8321 10.8174 30.8296ZM21.6357 30.8296C21.8132 30.8322 21.9828 30.9044 22.1074 31.0308C22.2321 31.1572 22.3017 31.3278 22.3018 31.5054C22.3018 31.6829 22.232 31.8535 22.1074 31.98C21.9828 32.1064 21.8133 32.1795 21.6357 32.1821C21.4581 32.1796 21.2878 32.1065 21.1631 31.98C21.0386 31.8535 20.9688 31.6829 20.9688 31.5054C20.9688 31.3278 21.0385 31.1572 21.1631 31.0308C21.2878 30.9042 21.4581 30.8321 21.6357 30.8296ZM32.4561 30.8296C32.6336 30.8322 32.8031 30.9044 32.9277 31.0308C33.0524 31.1572 33.122 31.3278 33.1221 31.5054C33.1221 31.6829 33.0523 31.8535 32.9277 31.98C32.8031 32.1064 32.6336 32.1795 32.4561 32.1821C32.2784 32.1796 32.1081 32.1065 31.9834 31.98C31.8589 31.8535 31.7891 31.6829 31.7891 31.5054C31.7892 31.3278 31.8588 31.1572 31.9834 31.0308C32.1081 30.9042 32.2784 30.8321 32.4561 30.8296ZM10.8184 23.3931C10.2844 23.3991 9.7739 23.6159 9.39844 23.9956C9.02322 24.3752 8.81258 24.8876 8.8125 25.4214C8.81249 25.9554 9.02303 26.4684 9.39844 26.8481C9.7739 27.2279 10.2844 27.4437 10.8184 27.4497C11.3524 27.4437 11.8628 27.2279 12.2383 26.8481C12.6138 26.4684 12.8242 25.9554 12.8242 25.4214C12.8241 24.8876 12.6136 24.3753 12.2383 23.9956C11.8628 23.6159 11.3524 23.3991 10.8184 23.3931ZM21.6367 23.3931C21.1027 23.3991 20.5923 23.6159 20.2168 23.9956C19.8414 24.3753 19.6309 24.8875 19.6309 25.4214C19.6309 25.9554 19.8413 26.4684 20.2168 26.8481C20.5923 27.2278 21.1028 27.4437 21.6367 27.4497C22.1705 27.4436 22.6803 27.2276 23.0557 26.8481C23.4312 26.4684 23.6416 25.9554 23.6416 25.4214C23.6415 24.8875 23.4311 24.3753 23.0557 23.9956C22.6803 23.616 22.1706 23.3992 21.6367 23.3931ZM32.4541 23.3931C31.9202 23.3991 31.4106 23.616 31.0352 23.9956C30.6597 24.3753 30.4483 24.8875 30.4482 25.4214C30.4482 25.9554 30.6597 26.4684 31.0352 26.8481C31.4106 27.2276 31.9203 27.4436 32.4541 27.4497C32.9881 27.4437 33.4985 27.2279 33.874 26.8481C34.2495 26.4684 34.46 25.9554 34.46 25.4214C34.4599 24.8875 34.2493 24.3753 33.874 23.9956C33.4985 23.6159 32.9881 23.3991 32.4541 23.3931ZM10.8174 24.7476C10.9949 24.7502 11.1644 24.8223 11.2891 24.9487C11.4137 25.0752 11.4833 25.2458 11.4834 25.4233C11.4834 25.6009 11.4136 25.7715 11.2891 25.8979C11.1644 26.0244 10.9949 26.0975 10.8174 26.1001C10.6397 26.0976 10.4695 26.0245 10.3447 25.8979C10.2202 25.7715 10.1504 25.6008 10.1504 25.4233C10.1505 25.2458 10.2201 25.0752 10.3447 24.9487C10.4695 24.8222 10.6397 24.7501 10.8174 24.7476ZM21.6357 24.7476C21.8132 24.7502 21.9828 24.8223 22.1074 24.9487C22.2321 25.0752 22.3017 25.2458 22.3018 25.4233C22.3018 25.6009 22.232 25.7715 22.1074 25.8979C21.9828 26.0244 21.8133 26.0975 21.6357 26.1001C21.4581 26.0976 21.2878 26.0245 21.1631 25.8979C21.0386 25.7715 20.9688 25.6008 20.9688 25.4233C20.9688 25.2458 21.0385 25.0752 21.1631 24.9487C21.2878 24.8222 21.4581 24.7501 21.6357 24.7476ZM32.4561 24.7476C32.6336 24.7502 32.8031 24.8223 32.9277 24.9487C33.0524 25.0752 33.122 25.2458 33.1221 25.4233C33.1221 25.6009 33.0523 25.7715 32.9277 25.8979C32.8031 26.0244 32.6336 26.0975 32.4561 26.1001C32.2784 26.0976 32.1081 26.0245 31.9834 25.8979C31.8589 25.7715 31.7891 25.6008 31.7891 25.4233C31.7892 25.2458 31.8588 25.0752 31.9834 24.9487C32.1081 24.8222 32.2784 24.7501 32.4561 24.7476ZM10.8184 17.3081C10.2844 17.3141 9.7739 17.5309 9.39844 17.9106C9.02323 18.2903 8.81255 18.8026 8.8125 19.3364C8.81249 19.8704 9.02299 20.3834 9.39844 20.7632C9.7739 21.1429 10.2844 21.3587 10.8184 21.3647C11.3523 21.3587 11.8628 21.1429 12.2383 20.7632C12.6138 20.3835 12.8242 19.8705 12.8242 19.3364C12.8242 18.8026 12.6136 18.2903 12.2383 17.9106C11.8628 17.5309 11.3524 17.3141 10.8184 17.3081ZM21.6367 17.3081C21.1027 17.3141 20.5923 17.5309 20.2168 17.9106C19.8414 18.2903 19.6309 18.8025 19.6309 19.3364C19.6309 19.8705 19.8413 20.3834 20.2168 20.7632C20.5923 21.1428 21.1028 21.3587 21.6367 21.3647C22.1705 21.3587 22.6803 21.1427 23.0557 20.7632C23.4312 20.3835 23.6416 19.8705 23.6416 19.3364C23.6416 18.8025 23.4311 18.2903 23.0557 17.9106C22.6803 17.531 22.1706 17.3142 21.6367 17.3081ZM32.4541 17.3081C31.9202 17.3142 31.4106 17.531 31.0352 17.9106C30.6597 18.2903 30.4483 18.8025 30.4482 19.3364C30.4482 19.8705 30.6597 20.3834 31.0352 20.7632C31.4106 21.1426 31.9203 21.3587 32.4541 21.3647C32.9881 21.3587 33.4985 21.1429 33.874 20.7632C34.2495 20.3835 34.46 19.8705 34.46 19.3364C34.4599 18.8026 34.2493 18.2903 33.874 17.9106C33.4985 17.5309 32.9881 17.3141 32.4541 17.3081ZM10.8174 18.6616C10.9949 18.6642 11.1644 18.7364 11.2891 18.8628C11.4137 18.9892 11.4833 19.1598 11.4834 19.3374C11.4834 19.5149 11.4136 19.6855 11.2891 19.812C11.1644 19.9384 10.9949 20.0116 10.8174 20.0142C10.6397 20.0116 10.4695 19.9385 10.3447 19.812C10.2202 19.6855 10.1504 19.5149 10.1504 19.3374C10.1505 19.1599 10.2201 18.9892 10.3447 18.8628C10.4695 18.7363 10.6397 18.6641 10.8174 18.6616ZM21.6357 18.6616C21.8132 18.6642 21.9828 18.7364 22.1074 18.8628C22.2321 18.9892 22.3017 19.1598 22.3018 19.3374C22.3018 19.5149 22.232 19.6855 22.1074 19.812C21.9828 19.9384 21.8133 20.0116 21.6357 20.0142C21.4581 20.0116 21.2878 19.9385 21.1631 19.812C21.0386 19.6855 20.9688 19.5149 20.9688 19.3374C20.9688 19.1599 21.0385 18.9892 21.1631 18.8628C21.2878 18.7363 21.4581 18.6641 21.6357 18.6616ZM32.4561 18.6616C32.6336 18.6642 32.8031 18.7364 32.9277 18.8628C33.0524 18.9892 33.122 19.1598 33.1221 19.3374C33.1221 19.5149 33.0523 19.6855 32.9277 19.812C32.8031 19.9384 32.6336 20.0116 32.4561 20.0142C32.2784 20.0116 32.1081 19.9385 31.9834 19.812C31.8589 19.6855 31.7891 19.5149 31.7891 19.3374C31.7892 19.1599 31.8588 18.9892 31.9834 18.8628C32.1081 18.7363 32.2784 18.6641 32.4561 18.6616ZM29.1943 2.71729C29.5699 2.68035 29.9493 2.7229 30.3076 2.84131C30.666 2.95978 30.9957 3.15221 31.2754 3.40576C31.5549 3.65921 31.7787 3.96803 31.9316 4.31299C32.0846 4.65813 32.1641 5.03216 32.1641 5.40967H36.5107C37.586 5.41167 38.6166 5.8398 39.377 6.6001C40.1373 7.36045 40.5654 8.39102 40.5674 9.46631V13.2319H2.70508V9.46631C2.70708 8.39106 3.13522 7.36044 3.89551 6.6001C4.65584 5.83977 5.68645 5.41169 6.76172 5.40967H11.1094V6.76123C11.1102 7.70175 11.4374 8.61321 12.0352 9.33936C12.6329 10.0654 13.464 10.562 14.3867 10.7437C14.5614 10.7676 14.739 10.7224 14.8809 10.6177C15.0228 10.5128 15.118 10.3563 15.1465 10.1821C15.1749 10.0079 15.1344 9.82965 15.0332 9.68506C14.932 9.54053 14.7788 9.44066 14.6055 9.40771C13.999 9.27913 13.4547 8.94611 13.0645 8.46436C12.6743 7.98264 12.4618 7.38113 12.4619 6.76123V5.5249C12.4501 5.16728 12.5088 4.81063 12.6357 4.47607C12.7627 4.14154 12.9552 3.83549 13.2012 3.57568C13.4472 3.31597 13.7423 3.10733 14.0693 2.9624C14.3965 2.8175 14.7497 2.73861 15.1074 2.73096C15.4652 2.72333 15.8212 2.78665 16.1543 2.91748C16.4874 3.04835 16.7919 3.24451 17.0488 3.49365C17.3055 3.74263 17.5103 4.04003 17.6514 4.36865C17.7925 4.69758 17.8667 5.05177 17.8701 5.40967H25.4023V6.76123C25.4032 7.70171 25.7304 8.61322 26.3281 9.33936C26.9259 10.0655 27.7578 10.5621 28.6807 10.7437C28.8554 10.7675 29.033 10.7225 29.1748 10.6177C29.3167 10.5128 29.412 10.3563 29.4404 10.1821C29.4689 10.0079 29.4274 9.82966 29.3262 9.68506C29.225 9.54052 29.0718 9.44061 28.8984 9.40771C28.2919 9.27913 27.7477 8.94611 27.3574 8.46436C26.9673 7.98265 26.7548 7.38109 26.7549 6.76123V5.5249C26.7435 4.8385 26.9862 4.17198 27.4365 3.65381C27.8869 3.13565 28.513 2.80166 29.1943 2.71729ZM15.166 4.07666C14.8107 4.07665 14.4698 4.21692 14.2168 4.46631C13.9638 4.71568 13.8186 5.05449 13.8135 5.40967H16.5186C16.5134 5.0545 16.3682 4.71569 16.1152 4.46631C15.8622 4.21692 15.5213 4.07668 15.166 4.07666ZM29.459 4.07666C29.1038 4.0767 28.7628 4.21696 28.5098 4.46631C28.2569 4.71567 28.1116 5.05454 28.1064 5.40967H30.8115C30.8064 5.05445 30.6612 4.7157 30.4082 4.46631C30.1552 4.21691 29.8143 4.07667 29.459 4.07666Z" fill="white"/>
</g>
<defs>
<filter id="filter0_dd_1029_25641" x="0.000600338" y="0.000112057" width="56.7946" height="52.4802" filterUnits="userSpaceOnUse" color-interpolation-filters="sRGB">
<feFlood flood-opacity="0" result="BackgroundImageFix"/>
<feColorMatrix in="SourceAlpha" type="matrix" values="0 0 0 0 0 0 0 0 0 0 0 0 0 0 0 0 0 0 127 0" result="hardAlpha"/>
<feOffset dx="6.76119" dy="6.76119"/>
<feGaussianBlur stdDeviation="4.73284"/>
<feComposite in2="hardAlpha" operator="out"/>
<feColorMatrix type="matrix" values="0 0 0 0 0 0 0 0 0 0 0 0 0 0 0 0 0 0 0.1 0"/>
<feBlend mode="normal" in2="BackgroundImageFix" result="effect1_dropShadow_1029_25641"/>
<feColorMatrix in="SourceAlpha" type="matrix" values="0 0 0 0 0 0 0 0 0 0 0 0 0 0 0 0 0 0 127 0" result="hardAlpha"/>
<feOffset dx="1.35224" dy="1.35224"/>
<feGaussianBlur stdDeviation="1.35224"/>
<feComposite in2="hardAlpha" operator="out"/>
<feColorMatrix type="matrix" values="0 0 0 0 0 0 0 0 0 0 0 0 0 0 0 0 0 0 0.1 0"/>
<feBlend mode="normal" in2="effect1_dropShadow_1029_25641" result="effect2_dropShadow_1029_25641"/>
<feBlend mode="normal" in="SourceGraphic" in2="effect2_dropShadow_1029_25641" result="shape"/>
</filter>
</defs>
</svg>
