<svg width="37" height="41" viewBox="0 0 57 60" fill="none" xmlns="http://www.w3.org/2000/svg">
<g filter="url(#filter0_dd_1029_25653)">
<path d="M32.5586 8.21436C33.0711 7.70186 33.8391 7.70186 34.3516 8.21436L36.9023 10.7651C36.9061 10.7688 36.9103 10.7721 36.9141 10.7759C36.9174 10.7792 36.9206 10.7833 36.9238 10.7866L39.4766 13.3394C39.9891 13.8519 39.9891 14.6198 39.4766 15.1323C39.2203 15.3886 38.9645 15.5171 38.5801 15.5171C38.1957 15.5171 37.9398 15.3886 37.6836 15.1323L36.0166 13.4653L34.7549 14.728C37.1485 17.7774 38.5801 21.613 38.5801 25.7671C38.5801 35.6328 30.5082 43.7046 20.6426 43.7046C10.7769 43.7046 2.70508 35.6327 2.70508 25.7671C2.70511 15.9015 10.777 7.82963 20.6426 7.82959C25.4455 7.82959 29.8235 9.74248 33.0518 12.8442L34.2236 11.6724L32.5586 10.0073C32.0461 9.49482 32.0461 8.72686 32.5586 8.21436ZM20.6426 12.9546C19.8739 12.9546 19.3613 13.4671 19.3613 14.2358V22.1792C17.8238 22.6917 16.7989 24.1015 16.7988 25.7671C16.7988 27.9452 18.4645 29.6108 20.6426 29.6108C22.3082 29.6108 23.718 28.5858 24.2305 27.0483H29.6113C30.3801 27.0483 30.8926 26.5358 30.8926 25.7671C30.8925 24.9984 30.3801 24.4858 29.6113 24.4858H24.2305C23.8461 23.4608 22.9488 22.5636 21.9238 22.1792V14.2358C21.9238 13.4671 21.4113 12.9546 20.6426 12.9546ZM21.9238 2.70459C23.3332 2.70459 24.4863 3.85771 24.4863 5.26709V5.65186C23.2051 5.3956 21.9238 5.26709 20.6426 5.26709C19.3613 5.26709 18.0801 5.39561 16.7988 5.65186V5.26709C16.7988 3.85772 17.952 2.70459 19.3613 2.70459H21.9238Z" fill="white"/>
</g>
<defs>
<filter id="filter0_dd_1029_25653" x="0.000600338" y="0.000112057" width="56.0876" height="59.9313" filterUnits="userSpaceOnUse" color-interpolation-filters="sRGB">
<feFlood flood-opacity="0" result="BackgroundImageFix"/>
<feColorMatrix in="SourceAlpha" type="matrix" values="0 0 0 0 0 0 0 0 0 0 0 0 0 0 0 0 0 0 127 0" result="hardAlpha"/>
<feOffset dx="6.76119" dy="6.76119"/>
<feGaussianBlur stdDeviation="4.73284"/>
<feComposite in2="hardAlpha" operator="out"/>
<feColorMatrix type="matrix" values="0 0 0 0 0 0 0 0 0 0 0 0 0 0 0 0 0 0 0.1 0"/>
<feBlend mode="normal" in2="BackgroundImageFix" result="effect1_dropShadow_1029_25653"/>
<feColorMatrix in="SourceAlpha" type="matrix" values="0 0 0 0 0 0 0 0 0 0 0 0 0 0 0 0 0 0 127 0" result="hardAlpha"/>
<feOffset dx="1.35224" dy="1.35224"/>
<feGaussianBlur stdDeviation="1.35224"/>
<feComposite in2="hardAlpha" operator="out"/>
<feColorMatrix type="matrix" values="0 0 0 0 0 0 0 0 0 0 0 0 0 0 0 0 0 0 0.1 0"/>
<feBlend mode="normal" in2="effect1_dropShadow_1029_25653" result="effect2_dropShadow_1029_25653"/>
<feBlend mode="normal" in="SourceGraphic" in2="effect2_dropShadow_1029_25653" result="shape"/>
</filter>
</defs>
</svg>
