<svg width="47" height="67" viewBox="0 0 47 67" fill="none" xmlns="http://www.w3.org/2000/svg">
<path opacity="0.5" fill-rule="evenodd" clip-rule="evenodd" d="M39.7162 43.7813C48.7976 48.9706 48.7976 57.5803 39.7162 62.7696C30.6349 68.0769 15.8924 68.0769 6.81104 62.7696C-2.27035 57.4623 -2.27035 48.9706 6.81104 43.7813C15.8924 38.474 30.6349 38.474 39.7162 43.7813Z" fill="white" fill-opacity="0.05"/>
<path opacity="0.5" fill-rule="evenodd" clip-rule="evenodd" d="M36.2937 45.7639C43.4881 49.8918 43.4881 56.6144 36.2937 60.7423C29.0994 64.8702 17.5413 64.8702 10.3469 60.7423C3.15259 56.6144 3.15259 49.8918 10.3469 45.7639C17.5413 41.636 29.0994 41.636 36.2937 45.7639Z" fill="white" fill-opacity="0.1"/>
<path opacity="0.5" fill-rule="evenodd" clip-rule="evenodd" d="M32.7618 47.7803C38.0691 50.8467 38.0691 55.6823 32.7618 58.7487C27.4545 61.8152 18.9628 61.8152 13.7734 58.7487C8.46614 55.6823 8.46614 50.8467 13.7734 47.7803C19.0808 44.7139 27.5724 44.7139 32.7618 47.7803Z" fill="white" fill-opacity="0.1"/>
<path fill-rule="evenodd" clip-rule="evenodd" d="M7.74318 27.7216L0.548828 23.5938V26.4243L7.74318 30.5522V27.7216Z" fill="#C0392B"/>
<path fill-rule="evenodd" clip-rule="evenodd" d="M7.74318 27.7216L0.548828 23.5938V26.4243L7.74318 30.5522V27.7216Z" fill="url(#paint0_linear_1_27661)"/>
<path fill-rule="evenodd" clip-rule="evenodd" d="M45.248 4.24585L38.1717 0.117875H38.0537H37.9358H37.8179V0H37.6999H37.582H37.4641L37.3461 0.117875H37.2282H37.1103L36.9923 0.235841H36.8744H36.7563L36.6385 0.353806L2.78972 19.8139L2.67166 19.9318L2.55379 20.0498H2.43591L2.31786 20.1677V20.2857L2.19998 20.4036H2.08211L1.96405 20.5215L1.84618 20.6395L1.7283 20.7574L1.61025 20.8754V20.9933L1.49237 21.1113L1.37432 21.2292L1.25644 21.3471V21.5831L1.13856 21.7009V21.8189L1.02051 21.9369V22.0547L0.902634 22.1727V22.2907L0.784759 22.4086V22.5265V22.6445L0.666703 22.8803V22.9983V23.1162V23.2342L0.548828 23.3521V23.4701V23.588L7.74318 27.7159V27.5979V27.4801V27.3621V27.2441V27.1262L7.86106 26.8903V26.7724V26.6544L7.97911 26.5365V26.4186L8.09699 26.3006V26.1827L8.21486 26.0647V25.9468L8.33292 25.8288V25.593L8.45079 25.475L8.56867 25.3571V25.2392L8.68672 25.1212L8.8046 25.0032L8.92247 24.8854L9.04053 24.7674V24.6494L9.15841 24.5316H9.27646L9.39434 24.4136L9.51221 24.2956L9.63027 24.1777L9.74814 24.0598H9.86602L9.98407 23.9418L43.7149 4.48169L43.8328 4.36373H43.9507L44.0688 4.24585H44.1866H44.3045H44.4226L44.5404 4.12788H44.6585H44.7764H44.8942L45.0123 4.24585H45.1302H45.248Z" fill="#BDBDBD"/>
<path fill-rule="evenodd" clip-rule="evenodd" d="M45.248 4.24585L38.1717 0.117875H38.0537H37.9358H37.8179V0H37.6999H37.582H37.4641L37.3461 0.117875H37.2282H37.1103L36.9923 0.235841H36.8744H36.7563L36.6385 0.353806L2.78972 19.8139L2.67166 19.9318L2.55379 20.0498H2.43591L2.31786 20.1677V20.2857L2.19998 20.4036H2.08211L1.96405 20.5215L1.84618 20.6395L1.7283 20.7574L1.61025 20.8754V20.9933L1.49237 21.1113L1.37432 21.2292L1.25644 21.3471V21.5831L1.13856 21.7009V21.8189L1.02051 21.9369V22.0547L0.902634 22.1727V22.2907L0.784759 22.4086V22.5265V22.6445L0.666703 22.8803V22.9983V23.1162V23.2342L0.548828 23.3521V23.4701V23.588L7.74318 27.7159V27.5979V27.4801V27.3621V27.2441V27.1262L7.86106 26.8903V26.7724V26.6544L7.97911 26.5365V26.4186L8.09699 26.3006V26.1827L8.21486 26.0647V25.9468L8.33292 25.8288V25.593L8.45079 25.475L8.56867 25.3571V25.2392L8.68672 25.1212L8.8046 25.0032L8.92247 24.8854L9.04053 24.7674V24.6494L9.15841 24.5316H9.27646L9.39434 24.4136L9.51221 24.2956L9.63027 24.1777L9.74814 24.0598H9.86602L9.98407 23.9418L43.7149 4.48169L43.8328 4.36373H43.9507L44.0688 4.24585H44.1866H44.3045H44.4226L44.5404 4.12788H44.6585H44.7764H44.8942L45.0123 4.24585H45.1302H45.248Z" fill="url(#paint1_linear_1_27661)"/>
<path fill-rule="evenodd" clip-rule="evenodd" d="M7.74318 30.5849L0.548828 26.457V44.3839V47.2145V47.3324V47.4504L0.666703 47.5683V47.6863V47.8042L0.784759 47.9221V48.0401L0.902634 48.1581V48.2759H1.02051V48.3939H1.13856V48.5119L8.33292 52.6397L8.21486 52.5218L8.09699 52.4038L7.97911 52.2859V52.168H7.86106V52.05V51.9321L7.74318 51.8142V51.6962V51.5782V51.4604V51.3424V48.5119V30.5849Z" fill="#9C9C9C"/>
<path fill-rule="evenodd" clip-rule="evenodd" d="M7.74318 30.5849L0.548828 26.457V44.3839V47.2145V47.3324V47.4504L0.666703 47.5683V47.6863V47.8042L0.784759 47.9221V48.0401L0.902634 48.1581V48.2759H1.02051V48.3939H1.13856V48.5119L8.33292 52.6397L8.21486 52.5218L8.09699 52.4038L7.97911 52.2859V52.168H7.86106V52.05V51.9321L7.74318 51.8142V51.6962V51.5782V51.4604V51.3424V48.5119V30.5849Z" fill="url(#paint2_linear_1_27661)"/>
<path fill-rule="evenodd" clip-rule="evenodd" d="M45.3839 31.2744C45.7378 30.5668 45.9736 29.8592 46.0916 29.1515L34.2976 25.6133L28.7544 33.6332C28.2826 34.3409 27.575 34.9305 26.9853 35.2844C26.3956 35.6382 25.8058 35.7561 25.2161 35.6382L19.6729 33.987L7.87891 51.2063C7.87891 51.796 8.11476 52.2677 8.58652 52.5036C8.94034 52.7395 9.5301 52.7395 10.1198 52.3856L43.8507 32.9256C44.4404 32.5718 45.0301 31.9821 45.3839 31.2744Z" fill="#E6EAEB"/>
<path fill-rule="evenodd" clip-rule="evenodd" d="M45.3839 31.2744C45.7378 30.5668 45.9736 29.8592 46.0916 29.1515L34.2976 25.6133L28.7544 33.6332C28.2826 34.3409 27.575 34.9305 26.9853 35.2844C26.3956 35.6382 25.8058 35.7561 25.2161 35.6382L19.6729 33.987L7.87891 51.2063C7.87891 51.796 8.11476 52.2677 8.58652 52.5036C8.94034 52.7395 9.5301 52.7395 10.1198 52.3856L43.8507 32.9256C44.4404 32.5718 45.0301 31.9821 45.3839 31.2744Z" fill="url(#paint3_linear_1_27661)"/>
<path fill-rule="evenodd" clip-rule="evenodd" d="M7.76562 30.543V48.4699V51.3004L19.5596 34.0812L17.9085 33.6094L7.76562 30.543Z" fill="#E6EAEB"/>
<path fill-rule="evenodd" clip-rule="evenodd" d="M7.76562 30.543V48.4699V51.3004L19.5596 34.0812L17.9085 33.6094L7.76562 30.543Z" fill="url(#paint4_linear_1_27661)"/>
<path fill-rule="evenodd" clip-rule="evenodd" d="M45.9561 29.163V26.3323V8.52344L35.8133 23.3838L34.1621 25.7427L45.9561 29.163Z" fill="#E6EAEB"/>
<path fill-rule="evenodd" clip-rule="evenodd" d="M45.9561 29.163V26.3323V8.52344L35.8133 23.3838L34.1621 25.7427L45.9561 29.163Z" fill="url(#paint5_linear_1_27661)"/>
<path fill-rule="evenodd" clip-rule="evenodd" d="M43.7374 4.53235L10.0065 23.9925C9.41682 24.3463 8.82706 24.936 8.47324 25.6436C8.11942 26.3513 7.88357 27.0589 7.76562 27.7666V30.5971C25.1028 35.6685 8.23733 30.7151 25.2207 35.7865C25.6925 35.9044 26.4002 35.7865 26.9899 35.4327C27.5796 35.0789 28.1692 34.4892 28.7589 33.7815C46.5679 7.95265 29.1127 33.3098 46.214 8.54236V5.71173C46.214 5.12203 45.9782 4.65026 45.5064 4.41438C45.1526 4.1785 44.5628 4.17853 43.9731 4.53235H43.7374Z" fill="#E6EAEB"/>
<path fill-rule="evenodd" clip-rule="evenodd" d="M43.7374 4.53235L10.0065 23.9925C9.41682 24.3463 8.82706 24.936 8.47324 25.6436C8.11942 26.3513 7.88357 27.0589 7.76562 27.7666V30.5971C25.1028 35.6685 8.23733 30.7151 25.2207 35.7865C25.6925 35.9044 26.4002 35.7865 26.9899 35.4327C27.5796 35.0789 28.1692 34.4892 28.7589 33.7815C46.5679 7.95265 29.1127 33.3098 46.214 8.54236V5.71173C46.214 5.12203 45.9782 4.65026 45.5064 4.41438C45.1526 4.1785 44.5628 4.17853 43.9731 4.53235H43.7374Z" fill="url(#paint6_linear_1_27661)"/>
<path fill-rule="evenodd" clip-rule="evenodd" d="M45.9623 8.49078V5.66016L27.9173 31.7249C27.9173 31.7249 27.2097 32.5505 26.738 32.7864C26.3841 33.0223 25.9123 33.1402 25.5585 33.0223L7.51367 27.715V30.5455C23.0818 35.1452 11.2877 31.607 24.9688 35.7349C25.4405 35.8529 26.1483 35.7349 26.738 35.3811C27.3277 35.0273 27.9173 34.4376 28.507 33.73C46.3159 7.90107 28.8609 33.2582 45.9623 8.49078Z" fill="#E74C3C"/>
<path fill-rule="evenodd" clip-rule="evenodd" d="M45.9623 8.49078V5.66016L27.9173 31.7249C27.9173 31.7249 27.2097 32.5505 26.738 32.7864C26.3841 33.0223 25.9123 33.1402 25.5585 33.0223L7.51367 27.715V30.5455C23.0818 35.1452 11.2877 31.607 24.9688 35.7349C25.4405 35.8529 26.1483 35.7349 26.738 35.3811C27.3277 35.0273 27.9173 34.4376 28.507 33.73C46.3159 7.90107 28.8609 33.2582 45.9623 8.49078Z" fill="url(#paint7_linear_1_27661)"/>
<path fill-rule="evenodd" clip-rule="evenodd" d="M8.21486 25.9677L1.02051 21.8398V21.9578V22.0757L0.902634 22.1936V22.3116L0.784759 22.4296V22.5475V22.6654L0.666703 22.9013V23.0192V23.1372V23.2552L0.548828 23.373V23.491V23.609L7.74318 27.7368V27.6189V27.501V27.383V27.2651V27.1471L7.86106 26.9113V26.7933V26.6753L7.97911 26.5575V26.4395L8.09699 26.3215V26.2037L8.21486 26.0857V25.9677Z" fill="#9C9C9C"/>
<path fill-rule="evenodd" clip-rule="evenodd" d="M8.21486 25.9677L1.02051 21.8398V21.9578V22.0757L0.902634 22.1936V22.3116L0.784759 22.4296V22.5475V22.6654L0.666703 22.9013V23.0192V23.1372V23.2552L0.548828 23.373V23.491V23.609L7.74318 27.7368V27.6189V27.501V27.383V27.2651V27.1471L7.86106 26.9113V26.7933V26.6753L7.97911 26.5575V26.4395L8.09699 26.3215V26.2037L8.21486 26.0857V25.9677Z" fill="url(#paint8_linear_1_27661)"/>
<defs>
<linearGradient id="paint0_linear_1_27661" x1="0.546744" y1="27.073" x2="7.73838" y2="27.073" gradientUnits="userSpaceOnUse">
<stop stop-color="#4AFFC7"/>
<stop offset="1" stop-color="#3BADEA"/>
</linearGradient>
<linearGradient id="paint1_linear_1_27661" x1="11.0061" y1="13.6224" x2="45.6413" y2="14.1746" gradientUnits="userSpaceOnUse">
<stop stop-color="#E6F0FF"/>
<stop offset="0.24" stop-color="#E2ECFD"/>
<stop offset="0.47" stop-color="#D6E3F8"/>
<stop offset="0.69" stop-color="#C3D3F0"/>
<stop offset="0.91" stop-color="#A9BDE4"/>
<stop offset="1" stop-color="#9CB2DF"/>
</linearGradient>
<linearGradient id="paint2_linear_1_27661" x1="2.3699" y1="39.3258" x2="8.40288" y2="39.3436" gradientUnits="userSpaceOnUse">
<stop stop-color="#E6F0FF"/>
<stop offset="0.24" stop-color="#E2ECFD"/>
<stop offset="0.47" stop-color="#D6E3F8"/>
<stop offset="0.69" stop-color="#C3D3F0"/>
<stop offset="0.91" stop-color="#A9BDE4"/>
<stop offset="1" stop-color="#9CB2DF"/>
</linearGradient>
<linearGradient id="paint3_linear_1_27661" x1="16.8187" y1="38.9107" x2="46.4295" y2="39.3242" gradientUnits="userSpaceOnUse">
<stop stop-color="#E6F0FF"/>
<stop offset="0.24" stop-color="#E2ECFD"/>
<stop offset="0.47" stop-color="#D6E3F8"/>
<stop offset="0.69" stop-color="#C3D3F0"/>
<stop offset="0.91" stop-color="#A9BDE4"/>
<stop offset="1" stop-color="#9CB2DF"/>
</linearGradient>
<linearGradient id="paint4_linear_1_27661" x1="10.5248" y1="40.7453" x2="19.6654" y2="40.7966" gradientUnits="userSpaceOnUse">
<stop stop-color="#E6F0FF"/>
<stop offset="0.24" stop-color="#E2ECFD"/>
<stop offset="0.47" stop-color="#D6E3F8"/>
<stop offset="0.69" stop-color="#C3D3F0"/>
<stop offset="0.91" stop-color="#A9BDE4"/>
<stop offset="1" stop-color="#9CB2DF"/>
</linearGradient>
<linearGradient id="paint5_linear_1_27661" x1="36.9213" y1="18.6678" x2="46.0619" y2="18.7194" gradientUnits="userSpaceOnUse">
<stop stop-color="#E6F0FF"/>
<stop offset="0.24" stop-color="#E2ECFD"/>
<stop offset="0.47" stop-color="#D6E3F8"/>
<stop offset="0.69" stop-color="#C3D3F0"/>
<stop offset="0.91" stop-color="#A9BDE4"/>
<stop offset="1" stop-color="#9CB2DF"/>
</linearGradient>
<linearGradient id="paint6_linear_1_27661" x1="16.7606" y1="19.7719" x2="46.5556" y2="20.1306" gradientUnits="userSpaceOnUse">
<stop stop-color="#E6F0FF"/>
<stop offset="0.24" stop-color="#E2ECFD"/>
<stop offset="0.47" stop-color="#D6E3F8"/>
<stop offset="0.69" stop-color="#C3D3F0"/>
<stop offset="0.91" stop-color="#A9BDE4"/>
<stop offset="1" stop-color="#9CB2DF"/>
</linearGradient>
<linearGradient id="paint7_linear_1_27661" x1="7.50254" y1="20.7196" x2="45.9366" y2="20.7196" gradientUnits="userSpaceOnUse">
<stop stop-color="#4AFFC7"/>
<stop offset="1" stop-color="#3BADEA"/>
</linearGradient>
<linearGradient id="paint8_linear_1_27661" x1="2.34228" y1="24.7382" x2="8.28284" y2="24.8146" gradientUnits="userSpaceOnUse">
<stop stop-color="#E6F0FF"/>
<stop offset="0.24" stop-color="#E2ECFD"/>
<stop offset="0.47" stop-color="#D6E3F8"/>
<stop offset="0.69" stop-color="#C3D3F0"/>
<stop offset="0.91" stop-color="#A9BDE4"/>
<stop offset="1" stop-color="#9CB2DF"/>
</linearGradient>
</defs>
</svg>
