<svg width="142" height="48" viewBox="0 0 142 48" fill="none" xmlns="http://www.w3.org/2000/svg">
<g filter="url(#filter0_ddd_43_3785)">
<path d="M3 7.75781H7.96393V25.8396H17.1559V30.42H3V7.75781Z" fill="#FF9E58"/>
<path d="M21.7333 7.42578C23.2612 7.42578 24.5013 8.66587 24.5013 10.1925C24.5013 11.7215 23.2612 12.9587 21.7333 12.9587C20.2069 12.9587 18.9668 11.7215 18.9668 10.1925C18.9668 8.66587 20.2069 7.42578 21.7333 7.42578ZM19.3474 15.0603H24.1191V30.4181H19.3474V15.0603Z" fill="#FF9E58"/>
<path d="M26.7578 15.0605H31.338V17.1596H31.4017C32.0373 15.9513 33.5963 14.6797 35.9183 14.6797C40.7535 14.6797 41.644 17.8596 41.644 21.9937V30.4165H36.8725V22.9493C36.8725 21.1671 36.8397 18.8775 34.3903 18.8775C31.9099 18.8775 31.5291 20.8187 31.5291 22.8215V30.4165H26.7578V15.0605Z" fill="#FF9E58"/>
<path d="M44.0645 7.75781H48.8342V21.302L54.2379 15.0509H60.0859L53.8278 22.1613L59.955 30.4214H53.9588L48.8965 22.8297H48.8342V30.4214H44.0645V7.75781Z" fill="#FF9E58"/>
<path d="M74.1689 27.7568C72.6407 29.698 70.1302 30.8123 67.648 30.8123C62.8778 30.8123 59.0605 27.6297 59.0605 22.6997C59.0605 17.7697 62.8778 14.5898 67.648 14.5898C72.1037 14.5898 74.901 17.7697 74.901 22.6997V24.1948H63.8321C64.2111 26.0081 65.5806 27.1852 67.4258 27.1852C68.9851 27.1852 70.0339 26.3896 70.8294 25.3077L74.1689 27.7568ZM70.1302 20.9514C70.1615 19.3607 68.9212 18.025 67.2019 18.025C65.1034 18.025 63.9579 19.4563 63.8321 20.9514H70.1302Z" fill="#FF9E58"/>
<path d="M93.0485 30.4129H88.6575V28.3765H88.5956C87.8617 29.4894 86.0187 30.7943 83.855 30.7943C79.2732 30.7943 76.252 27.4875 76.252 22.811C76.252 18.5161 78.9237 14.5722 83.3128 14.5722C85.2866 14.5722 87.1312 15.1128 88.213 16.6074H88.2756V7.75781H93.0485V30.4129ZM84.8385 18.7711C82.4546 18.7711 81.0237 20.363 81.0237 22.6829C81.0237 25.0073 82.4546 26.5956 84.8385 26.5956C87.2264 26.5956 88.6575 25.0073 88.6575 22.6829C88.6575 20.363 87.2264 18.7711 84.8385 18.7711Z" fill="#FF9E58"/>
<path d="M127.618 3H100.194C98.8831 3 97.8185 4.03873 97.8185 5.3195V32.8589C97.8185 34.1408 98.8831 35.1811 100.194 35.1811H127.618C128.93 35.1811 130 34.1408 130 32.8589V5.3195C130 4.03873 128.93 3 127.618 3Z" fill="#FF9E58"/>
<path d="M104.977 7.42969C106.503 7.42969 107.743 8.66978 107.743 10.1964C107.743 11.7241 106.503 12.9646 104.977 12.9646C103.447 12.9646 102.209 11.7241 102.209 10.1964C102.209 8.66978 103.447 7.42969 104.977 7.42969ZM102.589 15.064H107.362V30.4217H102.589V15.064Z" fill="#2F3743"/>
<path d="M110.355 15.0657H114.934V17.164H114.998C115.635 15.9568 117.192 14.6836 119.514 14.6836C124.347 14.6836 125.24 17.8644 125.24 21.9994V30.4235H120.47V22.955C120.47 21.1732 120.437 18.8826 117.99 18.8826C115.506 18.8826 115.125 20.8228 115.125 22.8261V30.4235H110.355V15.0657Z" fill="#2F3743"/>
</g>
<defs>
<filter id="filter0_ddd_43_3785" x="0" y="0" width="142" height="47.1812" filterUnits="userSpaceOnUse" color-interpolation-filters="linearRGB">
<feFlood flood-opacity="0" result="BackgroundImageFix"/>
<feColorMatrix in="SourceAlpha" type="matrix" values="0 0 0 0 0 0 0 0 0 0 0 0 0 0 0 0 0 0 127 0" result="hardAlpha"/>
<feOffset dx="5" dy="5"/>
<feGaussianBlur stdDeviation="3.5"/>
<feComposite in2="hardAlpha" operator="out"/>
<feColorMatrix type="matrix" values="0 0 0 0 0 0 0 0 0 0 0 0 0 0 0 0 0 0 0.1 0"/>
<feBlend mode="normal" in2="BackgroundImageFix" result="effect1_dropShadow_43_3785"/>
<feColorMatrix in="SourceAlpha" type="matrix" values="0 0 0 0 0 0 0 0 0 0 0 0 0 0 0 0 0 0 127 0" result="hardAlpha"/>
<feOffset dx="1" dy="1"/>
<feGaussianBlur stdDeviation="1"/>
<feComposite in2="hardAlpha" operator="out"/>
<feColorMatrix type="matrix" values="0 0 0 0 0 0 0 0 0 0 0 0 0 0 0 0 0 0 0.1 0"/>
<feBlend mode="normal" in2="effect1_dropShadow_43_3785" result="effect2_dropShadow_43_3785"/>
<feColorMatrix in="SourceAlpha" type="matrix" values="0 0 0 0 0 0 0 0 0 0 0 0 0 0 0 0 0 0 127 0" result="hardAlpha"/>
<feOffset dx="-1" dy="-1"/>
<feGaussianBlur stdDeviation="1"/>
<feComposite in2="hardAlpha" operator="out"/>
<feColorMatrix type="matrix" values="0 0 0 0 1 0 0 0 0 1 0 0 0 0 1 0 0 0 0.8 0"/>
<feBlend mode="normal" in2="effect2_dropShadow_43_3785" result="effect3_dropShadow_43_3785"/>
<feBlend mode="normal" in="SourceGraphic" in2="effect3_dropShadow_43_3785" result="shape"/>
</filter>
</defs>
</svg>
