<svg width="50" height="73" viewBox="0 0 50 73" fill="none" xmlns="http://www.w3.org/2000/svg">
<path opacity="0.5" fill-rule="evenodd" clip-rule="evenodd" d="M42.0447 48.3388C51.6585 53.8324 51.6585 62.9468 42.0447 68.4404C32.4309 74.0589 16.8242 74.0589 7.21035 68.4404C-2.40345 62.822 -2.40345 53.8324 7.21035 48.3388C16.8242 42.7204 32.4309 42.7204 42.0447 48.3388Z" fill="white" fill-opacity="0.05"/>
<path opacity="0.5" fill-rule="evenodd" clip-rule="evenodd" d="M38.4186 50.4337C46.0347 54.8036 46.0347 61.9204 38.4186 66.2903C30.8024 70.6602 18.5665 70.6602 10.9504 66.2903C3.33425 61.9204 3.33425 54.8036 10.9504 50.4337C18.5665 46.0638 30.8024 46.0638 38.4186 50.4337Z" fill="white" fill-opacity="0.1"/>
<path opacity="0.5" fill-rule="evenodd" clip-rule="evenodd" d="M34.6748 52.5714C40.2933 55.8176 40.2933 60.9366 34.6748 64.1829C29.1812 67.4291 20.0668 67.4291 14.5732 64.1829C8.95476 60.9366 8.95476 55.8176 14.5732 52.5714C20.1917 49.3252 29.1812 49.3252 34.6748 52.5714Z" fill="white" fill-opacity="0.1"/>
<path fill-rule="evenodd" clip-rule="evenodd" d="M24.6975 52.8517C20.5773 49.6055 14.5843 46.1095 11.0884 42.3639C9.0907 40.2414 8.0918 37.12 8.0918 32.9998C8.0918 22.3872 15.5831 9.52716 24.6975 4.15841C33.9367 -1.21034 41.3032 3.15953 41.3032 13.7722C41.3032 17.7675 40.3043 22.1375 38.3066 26.6323C34.8107 34.4981 28.8177 44.861 24.6975 52.8517ZM24.6975 9.15262C17.9553 13.0231 12.4618 22.6369 12.4618 30.3779C12.4618 38.1189 17.9553 41.3651 24.6975 37.4946C31.4396 33.6241 36.9332 24.0103 36.9332 16.2693C36.9332 8.52834 31.4396 5.28212 24.6975 9.15262Z" fill="#E74C3C"/>
<path fill-rule="evenodd" clip-rule="evenodd" d="M24.6975 52.8517C20.5773 49.6055 14.5843 46.1095 11.0884 42.3639C9.0907 40.2414 8.0918 37.12 8.0918 32.9998C8.0918 22.3872 15.5831 9.52716 24.6975 4.15841C33.9367 -1.21034 41.3032 3.15953 41.3032 13.7722C41.3032 17.7675 40.3043 22.1375 38.3066 26.6323C34.8107 34.4981 28.8177 44.861 24.6975 52.8517ZM24.6975 9.15262C17.9553 13.0231 12.4618 22.6369 12.4618 30.3779C12.4618 38.1189 17.9553 41.3651 24.6975 37.4946C31.4396 33.6241 36.9332 24.0103 36.9332 16.2693C36.9332 8.52834 31.4396 5.28212 24.6975 9.15262Z" fill="url(#paint0_linear_1_27677)"/>
<path fill-rule="evenodd" clip-rule="evenodd" d="M24.6947 14.8908C20.6994 17.263 17.4531 22.8815 17.4531 27.5011C17.4531 32.1207 20.6994 33.9935 24.6947 31.7461C28.6901 29.3739 31.9363 23.7554 31.9363 19.1358C31.9363 14.5161 28.6901 12.6434 24.6947 14.8908Z" fill="#E74C3C"/>
<path fill-rule="evenodd" clip-rule="evenodd" d="M24.6947 14.8908C20.6994 17.263 17.4531 22.8815 17.4531 27.5011C17.4531 32.1207 20.6994 33.9935 24.6947 31.7461C28.6901 29.3739 31.9363 23.7554 31.9363 19.1358C31.9363 14.5161 28.6901 12.6434 24.6947 14.8908Z" fill="url(#paint1_linear_1_27677)"/>
<path fill-rule="evenodd" clip-rule="evenodd" d="M29.8195 14.388L26.6981 12.6401L26.0738 12.3904L25.5743 12.1406H24.9502H24.3259L23.7015 12.2655L22.9524 12.3904L22.2034 12.7649L21.4543 13.1395L20.705 13.6389L19.9559 14.1383L19.3316 14.7626L18.5825 15.3869L17.9583 16.136L17.4588 16.8851L16.8345 17.759L16.3352 18.5082L15.8356 19.3822L15.4611 20.2562L15.0865 21.2551L14.712 22.129L14.4622 23.003L14.3374 24.0018L14.2127 24.8759V25.7498V26.6238L14.3374 27.3729L14.4622 28.122L14.712 28.7463L15.0865 29.2457L15.4611 29.7452L15.8356 30.1197L16.3352 30.4943L19.4565 32.3671L19.082 31.9926L18.5825 31.6179L18.2079 31.1186L17.9583 30.4943L17.7086 29.87L17.4588 29.2457L17.334 28.3718V27.6226V26.7486L17.4588 25.7498L17.7086 24.8759L17.9583 24.0018L18.2079 23.003L18.5825 22.129L19.082 21.2551L19.4565 20.3811L19.9559 19.5071L20.5802 18.7579L21.2045 18.0088L21.8288 17.2597L22.4529 16.5105L23.2022 16.0111L23.9513 15.3869L24.7004 14.8874L25.4495 14.5129L26.0738 14.2631L26.8229 14.0135H27.4472L28.1963 13.8886L28.6957 14.0135L29.32 14.1383L29.8195 14.388Z" fill="#BF4A3D"/>
<path fill-rule="evenodd" clip-rule="evenodd" d="M29.8195 14.388L26.6981 12.6401L26.0738 12.3904L25.5743 12.1406H24.9502H24.3259L23.7015 12.2655L22.9524 12.3904L22.2034 12.7649L21.4543 13.1395L20.705 13.6389L19.9559 14.1383L19.3316 14.7626L18.5825 15.3869L17.9583 16.136L17.4588 16.8851L16.8345 17.759L16.3352 18.5082L15.8356 19.3822L15.4611 20.2562L15.0865 21.2551L14.712 22.129L14.4622 23.003L14.3374 24.0018L14.2127 24.8759V25.7498V26.6238L14.3374 27.3729L14.4622 28.122L14.712 28.7463L15.0865 29.2457L15.4611 29.7452L15.8356 30.1197L16.3352 30.4943L19.4565 32.3671L19.082 31.9926L18.5825 31.6179L18.2079 31.1186L17.9583 30.4943L17.7086 29.87L17.4588 29.2457L17.334 28.3718V27.6226V26.7486L17.4588 25.7498L17.7086 24.8759L17.9583 24.0018L18.2079 23.003L18.5825 22.129L19.082 21.2551L19.4565 20.3811L19.9559 19.5071L20.5802 18.7579L21.2045 18.0088L21.8288 17.2597L22.4529 16.5105L23.2022 16.0111L23.9513 15.3869L24.7004 14.8874L25.4495 14.5129L26.0738 14.2631L26.8229 14.0135H27.4472L28.1963 13.8886L28.6957 14.0135L29.32 14.1383L29.8195 14.388Z" fill="url(#paint2_linear_1_27677)"/>
<path fill-rule="evenodd" clip-rule="evenodd" d="M11.0865 42.3257L7.84014 40.453L7.46559 40.0783L7.21602 39.5789L6.84128 39.0796L6.59171 38.5801L6.34194 38.0807L6.09218 37.5813L5.84261 37.0818L5.59285 36.4575L5.46806 35.8333L5.2183 35.209L5.09332 34.5848L4.96854 33.9605V33.3362L4.84375 32.5871V31.838V31.0889V30.09L4.96854 29.0912V28.0923L5.2183 27.0934L5.34308 25.9698L5.59285 24.9709L5.84261 23.9721L6.09218 22.8484L6.46673 21.8496L6.84128 20.8507L7.21602 19.7271L7.71535 18.7282L8.0899 17.7293L8.58943 16.7306L9.21355 15.7317L9.71307 14.7329L10.3374 13.734L10.8367 12.7352L11.461 11.8612L12.2101 10.9873L12.8344 9.98841L13.5835 9.23931L14.2078 8.36524L14.9569 7.49126L15.706 6.74216L16.5801 5.99307L17.3292 5.24387L18.0783 4.61966L18.9522 3.99535L19.8263 3.37113L20.5754 2.74682L21.4494 2.24739L22.3233 1.87284L23.1974 1.37341L24.0713 0.99886L24.8204 0.749193L25.6945 0.49943L26.4436 0.249763L27.1926 0.124881L27.9417 0H28.6908H29.4401L30.0643 0.124881L30.8135 0.249763L31.4377 0.374549L32.062 0.49943L32.6863 0.873979L33.3106 1.12374L36.432 2.99658L35.8076 2.62194L35.1833 2.37227L34.559 2.12251L33.9349 1.99772L33.3106 1.87284H32.5615H31.8122H31.1881L30.314 1.99772L29.5649 2.12251L28.8158 2.37227L28.0667 2.62194L27.1926 2.8717L26.3188 3.24625L25.5695 3.6208L24.6956 4.12023L23.8215 4.61966L22.9476 5.24387L22.0736 5.7433L21.3245 6.4925L20.4506 7.11671L19.7015 7.8659L18.9522 8.615L18.2031 9.3641L17.454 10.2381L16.7049 10.9873L15.9558 11.8612L15.3315 12.7352L14.7072 13.734L14.0829 14.608L13.4588 15.6068L12.8344 16.4808L12.3349 17.4797L11.8356 18.4785L11.3361 19.6022L10.8367 20.601L10.4622 21.5999L9.96265 22.5988L9.5881 23.7224L9.33852 24.7213L8.96398 25.7201L8.71421 26.8438L8.58943 27.8426L8.33966 28.8415L8.21469 29.9651L8.0899 30.964L7.96512 31.9629V32.9616V33.7108L8.0899 34.4599V35.0842L8.21469 35.8333L8.33966 36.4575L8.46445 37.0818L8.58943 37.7062L8.71421 38.3304L8.96398 38.8298L9.21355 39.4541L9.46331 39.9535L9.71307 40.453L9.96265 40.9523L10.3374 41.4517L10.7119 41.8263L11.0865 42.3257Z" fill="#BF4A3D"/>
<path fill-rule="evenodd" clip-rule="evenodd" d="M11.0865 42.3257L7.84014 40.453L7.46559 40.0783L7.21602 39.5789L6.84128 39.0796L6.59171 38.5801L6.34194 38.0807L6.09218 37.5813L5.84261 37.0818L5.59285 36.4575L5.46806 35.8333L5.2183 35.209L5.09332 34.5848L4.96854 33.9605V33.3362L4.84375 32.5871V31.838V31.0889V30.09L4.96854 29.0912V28.0923L5.2183 27.0934L5.34308 25.9698L5.59285 24.9709L5.84261 23.9721L6.09218 22.8484L6.46673 21.8496L6.84128 20.8507L7.21602 19.7271L7.71535 18.7282L8.0899 17.7293L8.58943 16.7306L9.21355 15.7317L9.71307 14.7329L10.3374 13.734L10.8367 12.7352L11.461 11.8612L12.2101 10.9873L12.8344 9.98841L13.5835 9.23931L14.2078 8.36524L14.9569 7.49126L15.706 6.74216L16.5801 5.99307L17.3292 5.24387L18.0783 4.61966L18.9522 3.99535L19.8263 3.37113L20.5754 2.74682L21.4494 2.24739L22.3233 1.87284L23.1974 1.37341L24.0713 0.99886L24.8204 0.749193L25.6945 0.49943L26.4436 0.249763L27.1926 0.124881L27.9417 0H28.6908H29.4401L30.0643 0.124881L30.8135 0.249763L31.4377 0.374549L32.062 0.49943L32.6863 0.873979L33.3106 1.12374L36.432 2.99658L35.8076 2.62194L35.1833 2.37227L34.559 2.12251L33.9349 1.99772L33.3106 1.87284H32.5615H31.8122H31.1881L30.314 1.99772L29.5649 2.12251L28.8158 2.37227L28.0667 2.62194L27.1926 2.8717L26.3188 3.24625L25.5695 3.6208L24.6956 4.12023L23.8215 4.61966L22.9476 5.24387L22.0736 5.7433L21.3245 6.4925L20.4506 7.11671L19.7015 7.8659L18.9522 8.615L18.2031 9.3641L17.454 10.2381L16.7049 10.9873L15.9558 11.8612L15.3315 12.7352L14.7072 13.734L14.0829 14.608L13.4588 15.6068L12.8344 16.4808L12.3349 17.4797L11.8356 18.4785L11.3361 19.6022L10.8367 20.601L10.4622 21.5999L9.96265 22.5988L9.5881 23.7224L9.33852 24.7213L8.96398 25.7201L8.71421 26.8438L8.58943 27.8426L8.33966 28.8415L8.21469 29.9651L8.0899 30.964L7.96512 31.9629V32.9616V33.7108L8.0899 34.4599V35.0842L8.21469 35.8333L8.33966 36.4575L8.46445 37.0818L8.58943 37.7062L8.71421 38.3304L8.96398 38.8298L9.21355 39.4541L9.46331 39.9535L9.71307 40.453L9.96265 40.9523L10.3374 41.4517L10.7119 41.8263L11.0865 42.3257Z" fill="url(#paint3_linear_1_27677)"/>
<path fill-rule="evenodd" clip-rule="evenodd" d="M14.5781 37.2235C14.5781 37.2235 15.452 38.0975 16.0763 38.3472L16.9504 38.7217L17.9493 38.9715H18.9479H20.0718H21.1954L22.3191 38.472L23.5677 37.9726L24.8161 37.3484L25.4404 36.9738L26.0647 36.5992L26.689 36.0998L27.3134 35.6003L27.9375 35.101L28.5618 34.6016L29.1861 34.1021L29.6854 33.4778L30.185 32.8536L30.6843 32.2293L31.1838 31.605L31.6831 30.9808L32.1827 30.3565L32.682 29.7323L33.1813 28.9831L33.5561 28.234L33.9306 27.4849L34.3052 26.7357L34.6797 25.9866L35.0543 25.2375L35.4288 24.4883L35.6786 23.7392L35.9282 22.9901L36.1779 22.2409L36.4277 21.4918L36.6775 20.7427V19.9935L36.927 19.2444V18.4953L37.052 17.7461V16.997V16.2479V14.8745L36.8022 13.626L36.5525 12.5023L36.1779 11.3786L35.6786 10.3797L35.0543 9.50577L34.3052 8.88146L33.5561 8.38203C33.5561 8.38203 32.4322 7.88267 31.8079 7.75781L32.4322 8.63179L32.9318 9.63065L33.3063 10.7543L33.5561 11.878V13.1266L33.8057 14.5V15.2491V15.9982V16.7474L33.5561 17.4965V18.2456L33.3063 18.9947L33.0566 19.7438L32.8068 20.4929L32.5572 21.2421L32.3075 21.9912L32.0577 22.7403L31.6831 23.4895L31.3086 24.2386L30.9341 24.9877L30.5595 25.7369L30.185 26.486L29.8104 27.2351L29.3109 27.9843L28.8115 28.6085L28.312 29.2328L27.8127 29.857L27.3134 30.4814L26.8138 31.1057L26.3145 31.7299L25.815 32.3542L25.1907 32.8536L24.5665 33.353L23.9422 33.8524L23.3179 34.3518L22.6936 34.8512L22.0693 35.2258L21.4452 35.6003L20.1965 36.2247L18.9479 36.7241L17.8243 37.0986H16.7006L15.577 37.3484H14.5781V37.2235Z" fill="#C23A2B"/>
<path fill-rule="evenodd" clip-rule="evenodd" d="M14.5781 37.2235C14.5781 37.2235 15.452 38.0975 16.0763 38.3472L16.9504 38.7217L17.9493 38.9715H18.9479H20.0718H21.1954L22.3191 38.472L23.5677 37.9726L24.8161 37.3484L25.4404 36.9738L26.0647 36.5992L26.689 36.0998L27.3134 35.6003L27.9375 35.101L28.5618 34.6016L29.1861 34.1021L29.6854 33.4778L30.185 32.8536L30.6843 32.2293L31.1838 31.605L31.6831 30.9808L32.1827 30.3565L32.682 29.7323L33.1813 28.9831L33.5561 28.234L33.9306 27.4849L34.3052 26.7357L34.6797 25.9866L35.0543 25.2375L35.4288 24.4883L35.6786 23.7392L35.9282 22.9901L36.1779 22.2409L36.4277 21.4918L36.6775 20.7427V19.9935L36.927 19.2444V18.4953L37.052 17.7461V16.997V16.2479V14.8745L36.8022 13.626L36.5525 12.5023L36.1779 11.3786L35.6786 10.3797L35.0543 9.50577L34.3052 8.88146L33.5561 8.38203C33.5561 8.38203 32.4322 7.88267 31.8079 7.75781L32.4322 8.63179L32.9318 9.63065L33.3063 10.7543L33.5561 11.878V13.1266L33.8057 14.5V15.2491V15.9982V16.7474L33.5561 17.4965V18.2456L33.3063 18.9947L33.0566 19.7438L32.8068 20.4929L32.5572 21.2421L32.3075 21.9912L32.0577 22.7403L31.6831 23.4895L31.3086 24.2386L30.9341 24.9877L30.5595 25.7369L30.185 26.486L29.8104 27.2351L29.3109 27.9843L28.8115 28.6085L28.312 29.2328L27.8127 29.857L27.3134 30.4814L26.8138 31.1057L26.3145 31.7299L25.815 32.3542L25.1907 32.8536L24.5665 33.353L23.9422 33.8524L23.3179 34.3518L22.6936 34.8512L22.0693 35.2258L21.4452 35.6003L20.1965 36.2247L18.9479 36.7241L17.8243 37.0986H16.7006L15.577 37.3484H14.5781V37.2235Z" fill="url(#paint4_linear_1_27677)"/>
<path fill-rule="evenodd" clip-rule="evenodd" d="M30.825 32.0955L27.5786 30.2227L27.329 30.5973L26.8295 31.2215L26.2052 31.8458L25.7059 32.3453L25.0816 32.9695L24.5822 33.4689L23.9579 33.9683L23.3336 34.4678L22.7093 34.8423L22.085 35.3417L21.4609 35.7163L20.2122 36.3406L18.9636 36.84L17.84 37.0897L16.7163 37.3395H16.2168L19.4631 39.2122H19.8377L20.9613 38.9625L22.21 38.7128L23.4584 38.2134L24.707 37.4642L25.3313 37.0897L25.9556 36.7152L26.5798 36.2157L27.0793 35.8412L27.7036 35.3417L28.3277 34.7174L28.8272 34.2181L29.4515 33.5938L29.9509 33.0944L30.4504 32.47L30.825 32.0955Z" fill="#943B3B"/>
<path fill-rule="evenodd" clip-rule="evenodd" d="M30.825 32.0955L27.5786 30.2227L27.329 30.5973L26.8295 31.2215L26.2052 31.8458L25.7059 32.3453L25.0816 32.9695L24.5822 33.4689L23.9579 33.9683L23.3336 34.4678L22.7093 34.8423L22.085 35.3417L21.4609 35.7163L20.2122 36.3406L18.9636 36.84L17.84 37.0897L16.7163 37.3395H16.2168L19.4631 39.2122H19.8377L20.9613 38.9625L22.21 38.7128L23.4584 38.2134L24.707 37.4642L25.3313 37.0897L25.9556 36.7152L26.5798 36.2157L27.0793 35.8412L27.7036 35.3417L28.3277 34.7174L28.8272 34.2181L29.4515 33.5938L29.9509 33.0944L30.4504 32.47L30.825 32.0955Z" fill="url(#paint5_linear_1_27677)"/>
<path fill-rule="evenodd" clip-rule="evenodd" d="M8.71421 27.1151L5.46806 25.3672L5.34308 25.9915L5.2183 27.1151L4.96854 28.114V29.1129L4.84375 30.1117V31.1106V31.8597V32.6088L4.96854 33.3579V33.9822L5.09332 34.6065L5.2183 35.2307L5.46806 35.855L5.59285 36.4792L5.84261 37.1036L6.09218 37.603L6.34194 38.1024L6.59171 38.6018L6.84128 39.1013L7.21602 39.6006L7.46559 40.1L7.84014 40.4747L11.0865 42.3474L10.7119 41.848L10.3374 41.4734L9.96265 40.974L9.71307 40.4747L9.46331 39.9753L9.21355 39.4758L8.96398 38.8515L8.71421 38.3521L8.58943 37.7279L8.46445 37.1036L8.33966 36.4792L8.21469 35.855L8.0899 35.1059V34.4816L7.96512 33.7325V32.9833V31.9846L8.0899 30.9857L8.21469 29.9868L8.33966 28.8632L8.58943 27.8643L8.71421 27.1151Z" fill="#943B3B"/>
<path fill-rule="evenodd" clip-rule="evenodd" d="M8.71421 27.1151L5.46806 25.3672L5.34308 25.9915L5.2183 27.1151L4.96854 28.114V29.1129L4.84375 30.1117V31.1106V31.8597V32.6088L4.96854 33.3579V33.9822L5.09332 34.6065L5.2183 35.2307L5.46806 35.855L5.59285 36.4792L5.84261 37.1036L6.09218 37.603L6.34194 38.1024L6.59171 38.6018L6.84128 39.1013L7.21602 39.6006L7.46559 40.1L7.84014 40.4747L11.0865 42.3474L10.7119 41.848L10.3374 41.4734L9.96265 40.974L9.71307 40.4747L9.46331 39.9753L9.21355 39.4758L8.96398 38.8515L8.71421 38.3521L8.58943 37.7279L8.46445 37.1036L8.33966 36.4792L8.21469 35.855L8.0899 35.1059V34.4816L7.96512 33.7325V32.9833V31.9846L8.0899 30.9857L8.21469 29.9868L8.33966 28.8632L8.58943 27.8643L8.71421 27.1151Z" fill="url(#paint6_linear_1_27677)"/>
<path fill-rule="evenodd" clip-rule="evenodd" d="M19.4568 32.2287L19.0822 31.979L18.5827 31.6044L18.2081 31.105L17.9586 30.4807L17.7088 29.8564L17.459 29.2322L17.3343 28.3582V27.609V26.735L17.459 25.7363L17.7088 24.8623L17.9586 23.9882L18.2081 22.9895L18.4579 22.3651L15.3365 20.6172L15.0868 21.2415L14.7122 22.1155L14.4625 22.9895L14.3377 23.9882L14.2129 24.8623V25.7363V26.6103L14.3377 27.3593L14.4625 28.1084L14.7122 28.7328L15.0868 29.2322L15.4613 29.7316L15.8359 30.1062L16.3354 30.4807L19.4568 32.2287Z" fill="#943B3B"/>
<path fill-rule="evenodd" clip-rule="evenodd" d="M19.4568 32.2287L19.0822 31.979L18.5827 31.6044L18.2081 31.105L17.9586 30.4807L17.7088 29.8564L17.459 29.2322L17.3343 28.3582V27.609V26.735L17.459 25.7363L17.7088 24.8623L17.9586 23.9882L18.2081 22.9895L18.4579 22.3651L15.3365 20.6172L15.0868 21.2415L14.7122 22.1155L14.4625 22.9895L14.3377 23.9882L14.2129 24.8623V25.7363V26.6103L14.3377 27.3593L14.4625 28.1084L14.7122 28.7328L15.0868 29.2322L15.4613 29.7316L15.8359 30.1062L16.3354 30.4807L19.4568 32.2287Z" fill="url(#paint7_linear_1_27677)"/>
<defs>
<linearGradient id="paint0_linear_1_27677" x1="15.8615" y1="26.9221" x2="41.6009" y2="27.0879" gradientUnits="userSpaceOnUse">
<stop stop-color="#E6F0FF"/>
<stop offset="0.24" stop-color="#E2ECFD"/>
<stop offset="0.47" stop-color="#D6E3F8"/>
<stop offset="0.69" stop-color="#C3D3F0"/>
<stop offset="0.91" stop-color="#A9BDE4"/>
<stop offset="1" stop-color="#9CB2DF"/>
</linearGradient>
<linearGradient id="paint1_linear_1_27677" x1="20.8414" y1="23.159" x2="32.0659" y2="23.2447" gradientUnits="userSpaceOnUse">
<stop stop-color="#E6F0FF"/>
<stop offset="0.24" stop-color="#E2ECFD"/>
<stop offset="0.47" stop-color="#D6E3F8"/>
<stop offset="0.69" stop-color="#C3D3F0"/>
<stop offset="0.91" stop-color="#A9BDE4"/>
<stop offset="1" stop-color="#9CB2DF"/>
</linearGradient>
<linearGradient id="paint2_linear_1_27677" x1="14.2081" y1="22.2539" x2="29.8091" y2="22.2539" gradientUnits="userSpaceOnUse">
<stop stop-color="#4AFFC7"/>
<stop offset="1" stop-color="#3BADEA"/>
</linearGradient>
<linearGradient id="paint3_linear_1_27677" x1="4.8346" y1="21.1629" x2="36.4109" y2="21.1629" gradientUnits="userSpaceOnUse">
<stop stop-color="#4AFFC7"/>
<stop offset="1" stop-color="#3BADEA"/>
</linearGradient>
<linearGradient id="paint4_linear_1_27677" x1="14.5716" y1="23.3646" x2="37.037" y2="23.3646" gradientUnits="userSpaceOnUse">
<stop stop-color="#4AFFC7"/>
<stop offset="1" stop-color="#3BADEA"/>
</linearGradient>
<linearGradient id="paint5_linear_1_27677" x1="16.2126" y1="34.7174" x2="30.8152" y2="34.7174" gradientUnits="userSpaceOnUse">
<stop stop-color="#4AFFC7"/>
<stop offset="1" stop-color="#3BADEA"/>
</linearGradient>
<linearGradient id="paint6_linear_1_27677" x1="4.84194" y1="33.8573" x2="11.0823" y2="33.8573" gradientUnits="userSpaceOnUse">
<stop stop-color="#4AFFC7"/>
<stop offset="1" stop-color="#3BADEA"/>
</linearGradient>
<linearGradient id="paint7_linear_1_27677" x1="14.2114" y1="26.4229" x2="19.4533" y2="26.4229" gradientUnits="userSpaceOnUse">
<stop stop-color="#4AFFC7"/>
<stop offset="1" stop-color="#3BADEA"/>
</linearGradient>
</defs>
</svg>
