<svg width="49" height="75" viewBox="0 0 49 75" fill="none" xmlns="http://www.w3.org/2000/svg">
<path opacity="0.5" fill-rule="evenodd" clip-rule="evenodd" d="M41.8231 50.0861C51.3862 55.5508 51.3862 64.6171 41.8231 70.0817C32.26 75.6706 16.7354 75.6706 7.17232 70.0817C-2.39077 64.4929 -2.39077 55.5508 7.17232 50.0861C16.7354 44.4973 32.26 44.4973 41.8231 50.0861Z" fill="white" fill-opacity="0.05"/>
<path opacity="0.5" fill-rule="evenodd" clip-rule="evenodd" d="M38.2199 52.1703C45.7959 56.5172 45.7959 63.5964 38.2199 67.9433C30.644 72.2901 18.4728 72.2901 10.8968 67.9433C3.32085 63.5964 3.32085 56.5172 10.8968 52.1703C18.4728 47.8234 30.644 47.8234 38.2199 52.1703Z" fill="white" fill-opacity="0.1"/>
<path opacity="0.5" fill-rule="evenodd" clip-rule="evenodd" d="M34.4977 54.2929C40.0866 57.522 40.0866 62.6141 34.4977 65.8432C29.0331 69.0723 19.9668 69.0723 14.5022 65.8432C8.91334 62.6141 8.91334 57.522 14.5022 54.2929C20.091 51.0638 29.0331 51.0638 34.4977 54.2929Z" fill="white" fill-opacity="0.1"/>
<path fill-rule="evenodd" clip-rule="evenodd" d="M35.7363 1.73874L32.7557 0H32.6314H32.5072H32.3829H32.2588H32.1346H32.0103H31.8862H31.7621L31.6378 0.124128H31.5136H31.3895L31.2652 0.24835L14.3745 9.93563L14.2504 10.0599L14.1263 10.1841H14.0019L13.8778 10.3082L13.7535 10.4324L13.6294 10.5566L13.5052 10.6809L13.3809 10.805V10.9292L13.2568 11.0534L13.1327 11.1777L13.0083 11.3018L12.8842 11.426L12.7601 11.5502V11.7986L12.6358 11.9228L12.5116 12.047V12.1712L12.3875 12.4196V12.5437L12.2632 12.668V12.9164L12.1391 13.0405V13.1648L12.0148 13.4131V13.5373V13.6616V13.9099L11.8906 14.0341V14.1583V14.4067V14.5309V53.2801V53.4043V53.5285L12.0148 53.6527V53.9011V54.0253V54.1495L12.1391 54.2736V54.3979L12.2632 54.5221V54.6463L12.3875 54.7704L12.5116 54.8946L12.6358 55.0189L15.6165 56.7576V56.6334H15.4924L15.3681 56.5092V56.385H15.244V56.2608V56.1366L15.1197 56.0124V55.8882V55.764L14.9955 55.6398V55.5157V55.3914V55.143V55.0189V16.2697V16.1454V16.0213V15.7729V15.6486L15.1197 15.5245V15.2761V15.1519V15.0277L15.244 14.7793V14.6551L15.3681 14.5309V14.2826L15.4924 14.1583V14.0341L15.6165 13.7858L15.7407 13.6616V13.5373L15.865 13.4131L15.9891 13.1648L16.1132 13.0405L16.2376 12.9164V12.7922L16.3617 12.668L16.4858 12.5437L16.6101 12.4196L16.7343 12.2954L16.8584 12.1712L16.9827 12.047H17.1068L17.2312 11.9228L17.3553 11.7986H17.4794L34.246 1.98709H34.3701L34.4944 1.86296H34.6185H34.7427L34.867 1.73874H34.9911H35.1152H35.2396H35.3637H35.4878H35.6121H35.7363Z" fill="#34485C"/>
<path fill-rule="evenodd" clip-rule="evenodd" d="M35.7363 1.73874L32.7557 0H32.6314H32.5072H32.3829H32.2588H32.1346H32.0103H31.8862H31.7621L31.6378 0.124128H31.5136H31.3895L31.2652 0.24835L14.3745 9.93563L14.2504 10.0599L14.1263 10.1841H14.0019L13.8778 10.3082L13.7535 10.4324L13.6294 10.5566L13.5052 10.6809L13.3809 10.805V10.9292L13.2568 11.0534L13.1327 11.1777L13.0083 11.3018L12.8842 11.426L12.7601 11.5502V11.7986L12.6358 11.9228L12.5116 12.047V12.1712L12.3875 12.4196V12.5437L12.2632 12.668V12.9164L12.1391 13.0405V13.1648L12.0148 13.4131V13.5373V13.6616V13.9099L11.8906 14.0341V14.1583V14.4067V14.5309V53.2801V53.4043V53.5285L12.0148 53.6527V53.9011V54.0253V54.1495L12.1391 54.2736V54.3979L12.2632 54.5221V54.6463L12.3875 54.7704L12.5116 54.8946L12.6358 55.0189L15.6165 56.7576V56.6334H15.4924L15.3681 56.5092V56.385H15.244V56.2608V56.1366L15.1197 56.0124V55.8882V55.764L14.9955 55.6398V55.5157V55.3914V55.143V55.0189V16.2697V16.1454V16.0213V15.7729V15.6486L15.1197 15.5245V15.2761V15.1519V15.0277L15.244 14.7793V14.6551L15.3681 14.5309V14.2826L15.4924 14.1583V14.0341L15.6165 13.7858L15.7407 13.6616V13.5373L15.865 13.4131L15.9891 13.1648L16.1132 13.0405L16.2376 12.9164V12.7922L16.3617 12.668L16.4858 12.5437L16.6101 12.4196L16.7343 12.2954L16.8584 12.1712L16.9827 12.047H17.1068L17.2312 11.9228L17.3553 11.7986H17.4794L34.246 1.98709H34.3701L34.4944 1.86296H34.6185H34.7427L34.867 1.73874H34.9911H35.1152H35.2396H35.3637H35.4878H35.6121H35.7363Z" fill="url(#paint0_linear_1_27692)"/>
<path fill-rule="evenodd" clip-rule="evenodd" d="M17.4741 56.7684L34.2407 47.0811C35.6068 46.3359 36.7246 44.2246 36.7246 42.4858V3.7366C36.7246 1.99785 35.6068 1.25271 34.2407 2.12208L17.4741 11.8094C16.108 12.5545 14.9902 14.6659 14.9902 16.4047V55.1538C14.9902 56.8925 16.108 57.6378 17.4741 56.7684Z" fill="#3D566E"/>
<path fill-rule="evenodd" clip-rule="evenodd" d="M17.4741 56.7684L34.2407 47.0811C35.6068 46.3359 36.7246 44.2246 36.7246 42.4858V3.7366C36.7246 1.99785 35.6068 1.25271 34.2407 2.12208L17.4741 11.8094C16.108 12.5545 14.9902 14.6659 14.9902 16.4047V55.1538C14.9902 56.8925 16.108 57.6378 17.4741 56.7684Z" fill="url(#paint1_linear_1_27692)"/>
<path fill-rule="evenodd" clip-rule="evenodd" d="M24.1822 13.3201L34.7388 7.23438C34.7388 7.23438 35.6082 7.23445 35.7324 7.60704C35.7324 7.60704 35.7324 7.60697 35.7324 7.73117V7.85539V38.035V38.2834C35.7324 38.9044 35.2356 39.5254 34.7388 39.898L20.4563 48.0949L17.103 50.0821C17.103 50.0821 16.2336 50.0821 16.1094 49.7095C16.1094 49.7095 16.1094 49.7095 16.1094 49.5853V19.2814C16.1094 19.2814 16.1094 19.033 16.1094 18.9088C16.1094 18.2879 16.6062 17.6669 17.103 17.2943L24.1822 13.1958V13.3201Z" fill="#9DD6F5"/>
<path fill-rule="evenodd" clip-rule="evenodd" d="M24.1822 13.3201L34.7388 7.23438C34.7388 7.23438 35.6082 7.23445 35.7324 7.60704C35.7324 7.60704 35.7324 7.60697 35.7324 7.73117V7.85539V38.035V38.2834C35.7324 38.9044 35.2356 39.5254 34.7388 39.898L20.4563 48.0949L17.103 50.0821C17.103 50.0821 16.2336 50.0821 16.1094 49.7095C16.1094 49.7095 16.1094 49.7095 16.1094 49.5853V19.2814C16.1094 19.2814 16.1094 19.033 16.1094 18.9088C16.1094 18.2879 16.6062 17.6669 17.103 17.2943L24.1822 13.1958V13.3201Z" fill="url(#paint2_linear_1_27692)"/>
<path fill-rule="evenodd" clip-rule="evenodd" d="M27.5345 9.12153C28.4039 8.62475 28.4039 7.13445 27.5345 7.63124L24.1813 9.4941C23.312 9.99089 23.312 11.4813 24.1813 10.9845L27.5345 8.9974V9.12153Z" fill="#2C3E50"/>
<path fill-rule="evenodd" clip-rule="evenodd" d="M27.5345 9.12153C28.4039 8.62475 28.4039 7.13445 27.5345 7.63124L24.1813 9.4941C23.312 9.99089 23.312 11.4813 24.1813 10.9845L27.5345 8.9974V9.12153Z" fill="url(#paint3_linear_1_27692)"/>
<path fill-rule="evenodd" clip-rule="evenodd" d="M27.5241 9.20826C27.5241 9.20826 28.1452 8.58726 28.2694 8.21467C28.2694 8.09048 28.2694 7.9663 28.2694 7.8421C28.2694 7.7179 28.2694 7.59372 28.2694 7.46953C28.2694 7.22113 27.8967 7.09694 27.5241 7.46953L24.1709 9.45662C24.1709 9.45662 23.55 10.0776 23.4258 10.4502C23.4258 10.5744 23.4258 10.6986 23.4258 10.8228C23.4258 10.947 23.4258 11.0713 23.4258 11.1954C23.4258 11.4438 23.7983 11.568 24.1709 11.1954L27.5241 9.33249V9.20826ZM28.021 8.3389C28.021 8.3389 27.7725 8.83572 27.5241 8.95991L24.1709 10.8228C24.1709 10.8228 23.7982 10.8228 23.674 10.8228C23.674 10.8228 23.674 10.6986 23.674 10.5744C23.674 10.4502 23.674 10.4502 23.674 10.326C23.674 10.0776 23.9225 9.82926 24.1709 9.70506L27.5241 7.71788C27.5241 7.71788 27.8968 7.71788 28.021 7.71788C28.021 7.71788 28.021 7.84213 28.021 7.96632C28.021 8.09052 28.021 8.09048 28.021 8.21467V8.3389Z" fill="#2C3E50"/>
<path fill-rule="evenodd" clip-rule="evenodd" d="M27.5241 9.20826C27.5241 9.20826 28.1452 8.58726 28.2694 8.21467C28.2694 8.09048 28.2694 7.9663 28.2694 7.8421C28.2694 7.7179 28.2694 7.59372 28.2694 7.46953C28.2694 7.22113 27.8967 7.09694 27.5241 7.46953L24.1709 9.45662C24.1709 9.45662 23.55 10.0776 23.4258 10.4502C23.4258 10.5744 23.4258 10.6986 23.4258 10.8228C23.4258 10.947 23.4258 11.0713 23.4258 11.1954C23.4258 11.4438 23.7983 11.568 24.1709 11.1954L27.5241 9.33249V9.20826ZM28.021 8.3389C28.021 8.3389 27.7725 8.83572 27.5241 8.95991L24.1709 10.8228C24.1709 10.8228 23.7982 10.8228 23.674 10.8228C23.674 10.8228 23.674 10.6986 23.674 10.5744C23.674 10.4502 23.674 10.4502 23.674 10.326C23.674 10.0776 23.9225 9.82926 24.1709 9.70506L27.5241 7.71788C27.5241 7.71788 27.8968 7.71788 28.021 7.71788C28.021 7.71788 28.021 7.84213 28.021 7.96632C28.021 8.09052 28.021 8.09048 28.021 8.21467V8.3389Z" fill="url(#paint4_linear_1_27692)"/>
<path fill-rule="evenodd" clip-rule="evenodd" d="M27.1563 46.4927C27.1563 46.4927 27.6532 46.3685 27.9016 46.4927C28.15 46.6169 28.1499 46.8653 28.1499 47.2378C28.1499 47.6104 28.15 47.9831 27.9016 48.3557C27.6532 48.7282 27.4047 48.9766 27.1563 49.1008L24.5483 50.5912C24.5483 50.5912 24.0515 50.7154 23.8031 50.5912C23.5547 50.467 23.5547 50.2185 23.5547 49.846C23.5547 49.4734 23.5547 49.1008 23.8031 48.7282C23.9273 48.3556 24.2999 48.1073 24.5483 47.9831L27.1563 46.4927Z" fill="#2C3E50"/>
<path fill-rule="evenodd" clip-rule="evenodd" d="M27.1563 46.4927C27.1563 46.4927 27.6532 46.3685 27.9016 46.4927C28.15 46.6169 28.1499 46.8653 28.1499 47.2378C28.1499 47.6104 28.15 47.9831 27.9016 48.3557C27.6532 48.7282 27.4047 48.9766 27.1563 49.1008L24.5483 50.5912C24.5483 50.5912 24.0515 50.7154 23.8031 50.5912C23.5547 50.467 23.5547 50.2185 23.5547 49.846C23.5547 49.4734 23.5547 49.1008 23.8031 48.7282C23.9273 48.3556 24.2999 48.1073 24.5483 47.9831L27.1563 46.4927Z" fill="url(#paint5_linear_1_27692)"/>
<path fill-rule="evenodd" clip-rule="evenodd" d="M27.1515 46.603C27.1515 46.603 27.3999 46.603 27.5241 46.603H27.7725C27.7725 46.603 27.8968 46.7272 28.021 46.8514C28.021 46.8514 28.021 47.0998 28.021 47.224C28.021 47.3482 28.021 47.5966 28.021 47.7208C28.021 47.845 28.0209 48.0934 27.7725 48.2176C27.5241 48.3418 27.6483 48.4659 27.5241 48.5901C27.5241 48.5901 27.2757 48.8386 27.1515 48.8386L24.5435 50.3289C24.5435 50.3289 24.2951 50.3289 24.1709 50.3289H23.9225C23.9225 50.3289 23.7982 50.2047 23.674 50.0805C23.674 50.0805 23.674 49.8321 23.674 49.7079C23.674 49.5837 23.674 49.3353 23.674 49.2111C23.674 49.087 23.6741 48.8385 23.9225 48.7144C23.9225 48.5902 24.0467 48.466 24.1709 48.3418C24.1709 48.3418 24.4193 48.0933 24.5435 48.0933L27.1515 46.603ZM27.6484 46.2305C27.6484 46.2305 27.3999 46.2304 27.1515 46.3546L24.5435 47.845C24.5435 47.845 24.295 48.0934 24.0466 48.2176C23.9224 48.3418 23.7982 48.5902 23.674 48.7144C23.674 48.9627 23.4258 49.087 23.4258 49.3354C23.4258 49.5838 23.4258 49.7079 23.4258 49.9563C23.4258 50.2047 23.4258 50.3289 23.4258 50.4531C23.4258 50.5773 23.5498 50.7015 23.674 50.8257C23.674 50.8257 23.9224 50.8257 24.0466 50.8257C24.1708 50.8257 24.2951 50.8256 24.5435 50.7014L27.1515 49.2111C27.1515 49.2111 27.5242 48.9628 27.6484 48.8386C27.7726 48.7144 27.8968 48.466 28.021 48.3418C28.021 48.0934 28.2694 47.9692 28.2694 47.7208C28.2694 47.4724 28.2694 47.3482 28.2694 47.0998C28.2694 46.8514 28.2694 46.7272 28.2694 46.603C28.2694 46.4788 28.1452 46.3547 28.021 46.2305C28.021 46.2305 27.7726 46.2305 27.6484 46.2305Z" fill="#2C3E50"/>
<path fill-rule="evenodd" clip-rule="evenodd" d="M27.1515 46.603C27.1515 46.603 27.3999 46.603 27.5241 46.603H27.7725C27.7725 46.603 27.8968 46.7272 28.021 46.8514C28.021 46.8514 28.021 47.0998 28.021 47.224C28.021 47.3482 28.021 47.5966 28.021 47.7208C28.021 47.845 28.0209 48.0934 27.7725 48.2176C27.5241 48.3418 27.6483 48.4659 27.5241 48.5901C27.5241 48.5901 27.2757 48.8386 27.1515 48.8386L24.5435 50.3289C24.5435 50.3289 24.2951 50.3289 24.1709 50.3289H23.9225C23.9225 50.3289 23.7982 50.2047 23.674 50.0805C23.674 50.0805 23.674 49.8321 23.674 49.7079C23.674 49.5837 23.674 49.3353 23.674 49.2111C23.674 49.087 23.6741 48.8385 23.9225 48.7144C23.9225 48.5902 24.0467 48.466 24.1709 48.3418C24.1709 48.3418 24.4193 48.0933 24.5435 48.0933L27.1515 46.603ZM27.6484 46.2305C27.6484 46.2305 27.3999 46.2304 27.1515 46.3546L24.5435 47.845C24.5435 47.845 24.295 48.0934 24.0466 48.2176C23.9224 48.3418 23.7982 48.5902 23.674 48.7144C23.674 48.9627 23.4258 49.087 23.4258 49.3354C23.4258 49.5838 23.4258 49.7079 23.4258 49.9563C23.4258 50.2047 23.4258 50.3289 23.4258 50.4531C23.4258 50.5773 23.5498 50.7015 23.674 50.8257C23.674 50.8257 23.9224 50.8257 24.0466 50.8257C24.1708 50.8257 24.2951 50.8256 24.5435 50.7014L27.1515 49.2111C27.1515 49.2111 27.5242 48.9628 27.6484 48.8386C27.7726 48.7144 27.8968 48.466 28.021 48.3418C28.021 48.0934 28.2694 47.9692 28.2694 47.7208C28.2694 47.4724 28.2694 47.3482 28.2694 47.0998C28.2694 46.8514 28.2694 46.7272 28.2694 46.603C28.2694 46.4788 28.1452 46.3547 28.021 46.2305C28.021 46.2305 27.7726 46.2305 27.6484 46.2305Z" fill="url(#paint6_linear_1_27692)"/>
<path fill-rule="evenodd" clip-rule="evenodd" d="M12.5116 12.1836L12.3875 12.432V12.5562L12.2632 12.6804V12.9288L12.1391 13.053V13.1772L12.0148 13.4255V13.5498V13.674V13.9223L11.8906 14.0466V14.1708V14.4191V14.5433V53.2926V53.4167V53.5409L12.0148 53.6651V53.9135V54.0377V54.1619L12.1391 54.2861V54.4103L12.2632 54.5345V54.6587L12.3875 54.7829L12.5116 54.9071L12.6358 55.0313L15.6165 56.77V56.6458H15.4924L15.3681 56.5216V56.3975H15.244V56.2732V56.149L15.1197 56.0248V55.9007V55.7765L14.9955 55.6522V55.5281V55.4039V55.1554V55.0313V16.2821V16.1579V16.0337V15.7853V15.6611L15.1197 15.5369V15.2885V15.1644V15.0401L15.244 14.7917V14.6676L15.3681 14.5433V14.295L15.4924 14.1708V14.0466L15.6165 13.9223L12.5116 12.1836Z" fill="#2C3E50"/>
<path fill-rule="evenodd" clip-rule="evenodd" d="M12.5116 12.1836L12.3875 12.432V12.5562L12.2632 12.6804V12.9288L12.1391 13.053V13.1772L12.0148 13.4255V13.5498V13.674V13.9223L11.8906 14.0466V14.1708V14.4191V14.5433V53.2926V53.4167V53.5409L12.0148 53.6651V53.9135V54.0377V54.1619L12.1391 54.2861V54.4103L12.2632 54.5345V54.6587L12.3875 54.7829L12.5116 54.9071L12.6358 55.0313L15.6165 56.77V56.6458H15.4924L15.3681 56.5216V56.3975H15.244V56.2732V56.149L15.1197 56.0248V55.9007V55.7765L14.9955 55.6522V55.5281V55.4039V55.1554V55.0313V16.2821V16.1579V16.0337V15.7853V15.6611L15.1197 15.5369V15.2885V15.1644V15.0401L15.244 14.7917V14.6676L15.3681 14.5433V14.295L15.4924 14.1708V14.0466L15.6165 13.9223L12.5116 12.1836Z" fill="url(#paint7_linear_1_27692)"/>
<defs>
<linearGradient id="paint0_linear_1_27692" x1="11.8837" y1="28.3788" x2="35.7203" y2="28.3788" gradientUnits="userSpaceOnUse">
<stop stop-color="#4AFFC7"/>
<stop offset="1" stop-color="#3BADEA"/>
</linearGradient>
<linearGradient id="paint1_linear_1_27692" x1="14.9839" y1="29.4452" x2="36.7101" y2="29.4452" gradientUnits="userSpaceOnUse">
<stop stop-color="#4AFFC7"/>
<stop offset="1" stop-color="#3BADEA"/>
</linearGradient>
<linearGradient id="paint2_linear_1_27692" x1="20.7001" y1="28.294" x2="35.9086" y2="28.3629" gradientUnits="userSpaceOnUse">
<stop stop-color="#E6F0FF"/>
<stop offset="0.24" stop-color="#E2ECFD"/>
<stop offset="0.47" stop-color="#D6E3F8"/>
<stop offset="0.69" stop-color="#C3D3F0"/>
<stop offset="0.91" stop-color="#A9BDE4"/>
<stop offset="1" stop-color="#9CB2DF"/>
</linearGradient>
<linearGradient id="paint3_linear_1_27692" x1="24.6188" y1="9.27766" x2="28.2278" y2="9.32443" gradientUnits="userSpaceOnUse">
<stop stop-color="#E6F0FF"/>
<stop offset="0.24" stop-color="#E2ECFD"/>
<stop offset="0.47" stop-color="#D6E3F8"/>
<stop offset="0.69" stop-color="#C3D3F0"/>
<stop offset="0.91" stop-color="#A9BDE4"/>
<stop offset="1" stop-color="#9CB2DF"/>
</linearGradient>
<linearGradient id="paint4_linear_1_27692" x1="24.5589" y1="9.29682" x2="28.3125" y2="9.33966" gradientUnits="userSpaceOnUse">
<stop stop-color="#E6F0FF"/>
<stop offset="0.24" stop-color="#E2ECFD"/>
<stop offset="0.47" stop-color="#D6E3F8"/>
<stop offset="0.69" stop-color="#C3D3F0"/>
<stop offset="0.91" stop-color="#A9BDE4"/>
<stop offset="1" stop-color="#9CB2DF"/>
</linearGradient>
<linearGradient id="paint5_linear_1_27692" x1="24.6297" y1="48.5062" x2="28.1908" y2="48.5446" gradientUnits="userSpaceOnUse">
<stop stop-color="#E6F0FF"/>
<stop offset="0.24" stop-color="#E2ECFD"/>
<stop offset="0.47" stop-color="#D6E3F8"/>
<stop offset="0.69" stop-color="#C3D3F0"/>
<stop offset="0.91" stop-color="#A9BDE4"/>
<stop offset="1" stop-color="#9CB2DF"/>
</linearGradient>
<linearGradient id="paint6_linear_1_27692" x1="24.5589" y1="48.489" x2="28.3126" y2="48.5281" gradientUnits="userSpaceOnUse">
<stop stop-color="#E6F0FF"/>
<stop offset="0.24" stop-color="#E2ECFD"/>
<stop offset="0.47" stop-color="#D6E3F8"/>
<stop offset="0.69" stop-color="#C3D3F0"/>
<stop offset="0.91" stop-color="#A9BDE4"/>
<stop offset="1" stop-color="#9CB2DF"/>
</linearGradient>
<linearGradient id="paint7_linear_1_27692" x1="11.8895" y1="34.4768" x2="15.6141" y2="34.4768" gradientUnits="userSpaceOnUse">
<stop stop-color="#4AFFC7"/>
<stop offset="1" stop-color="#3BADEA"/>
</linearGradient>
</defs>
</svg>
