<svg width="145" height="173" viewBox="0 0 145 173" fill="none" xmlns="http://www.w3.org/2000/svg">
<path opacity="0.46" d="M139.684 129.464L78.63 96.2588C74.8938 94.2298 70.3658 94.2546 66.6543 96.3206L7.19663 129.489C4.05425 131.233 4.05425 135.749 7.19663 137.506L66.6543 170.674C70.3658 172.752 74.8938 172.765 78.63 170.736L139.684 137.53C142.876 135.786 142.876 131.208 139.684 129.476V129.464Z" fill="#95B1E9"/>
<path d="M130.838 129.9L77.9368 24.049C74.6955 22.2923 70.7738 22.3046 67.5572 24.0985L16.0296 129.912C13.3078 131.434 13.3078 135.344 16.0296 136.853L67.5572 165.592C70.7738 167.386 74.6955 167.411 77.9368 165.642L130.838 136.865C133.609 135.356 133.609 131.385 130.838 129.888V129.9Z" fill="url(#paint0_linear_1_22848)"/>
<path d="M132.915 48.8516H14V133.56H132.915V48.8516Z" fill="url(#paint1_linear_1_22848)"/>
<path d="M130.838 45.0167L77.9368 16.2404C74.6955 14.4837 70.7738 14.4961 67.5572 16.2899L16.0296 45.0291C13.3078 46.5384 13.3078 50.4602 16.0296 51.9695L67.5572 80.7087C70.7738 82.5025 74.6955 82.5273 77.9368 80.7581L130.838 51.9819C133.609 50.4726 133.609 46.5013 130.838 45.0043V45.0167Z" fill="white"/>
<g filter="url(#filter0_dddd_1_22848)">
<path d="M130.837 51.053L119.257 57.3501L77.9362 79.8292C74.6948 81.586 70.7731 81.5736 67.5565 79.7797L16.0413 51.0406C13.3196 49.5189 13.3196 45.6095 16.0413 44.1002L67.5565 15.361C70.7731 13.5671 74.6948 13.5424 77.9362 15.3115L99.0792 26.8047L130.837 44.0754C133.608 45.5724 133.608 49.5437 130.837 51.053Z" fill="url(#paint2_linear_1_22848)"/>
</g>
<defs>
<filter id="filter0_dddd_1_22848" x="0" y="0" width="144.915" height="93.1361" filterUnits="userSpaceOnUse" color-interpolation-filters="sRGB">
<feFlood flood-opacity="0" result="BackgroundImageFix"/>
<feColorMatrix in="SourceAlpha" type="matrix" values="0 0 0 0 0 0 0 0 0 0 0 0 0 0 0 0 0 0 127 0" result="hardAlpha"/>
<feOffset dx="5" dy="5"/>
<feGaussianBlur stdDeviation="3.5"/>
<feComposite in2="hardAlpha" operator="out"/>
<feColorMatrix type="matrix" values="0 0 0 0 0 0 0 0 0 0 0 0 0 0 0 0 0 0 0.1 0"/>
<feBlend mode="normal" in2="BackgroundImageFix" result="effect1_dropShadow_1_22848"/>
<feColorMatrix in="SourceAlpha" type="matrix" values="0 0 0 0 0 0 0 0 0 0 0 0 0 0 0 0 0 0 127 0" result="hardAlpha"/>
<feOffset dx="1" dy="1"/>
<feGaussianBlur stdDeviation="1"/>
<feComposite in2="hardAlpha" operator="out"/>
<feColorMatrix type="matrix" values="0 0 0 0 0 0 0 0 0 0 0 0 0 0 0 0 0 0 0.1 0"/>
<feBlend mode="normal" in2="effect1_dropShadow_1_22848" result="effect2_dropShadow_1_22848"/>
<feColorMatrix in="SourceAlpha" type="matrix" values="0 0 0 0 0 0 0 0 0 0 0 0 0 0 0 0 0 0 127 0" result="hardAlpha"/>
<feOffset dx="-2" dy="-2"/>
<feGaussianBlur stdDeviation="1"/>
<feComposite in2="hardAlpha" operator="out"/>
<feColorMatrix type="matrix" values="0 0 0 0 1 0 0 0 0 1 0 0 0 0 1 0 0 0 0.8 0"/>
<feBlend mode="normal" in2="effect2_dropShadow_1_22848" result="effect3_dropShadow_1_22848"/>
<feColorMatrix in="SourceAlpha" type="matrix" values="0 0 0 0 0 0 0 0 0 0 0 0 0 0 0 0 0 0 127 0" result="hardAlpha"/>
<feOffset dx="-6" dy="-6"/>
<feGaussianBlur stdDeviation="4"/>
<feComposite in2="hardAlpha" operator="out"/>
<feColorMatrix type="matrix" values="0 0 0 0 1 0 0 0 0 1 0 0 0 0 1 0 0 0 0.5 0"/>
<feBlend mode="normal" in2="effect3_dropShadow_1_22848" result="effect4_dropShadow_1_22848"/>
<feBlend mode="normal" in="SourceGraphic" in2="effect4_dropShadow_1_22848" result="shape"/>
</filter>
<clipPath id="bgblur_0_1_22848_clip_path" transform="translate(0 0)"><path d="M130.837 51.053L119.257 57.3501L77.9362 79.8292C74.6948 81.586 70.7731 81.5736 67.5565 79.7797L16.0413 51.0406C13.3196 49.5189 13.3196 45.6095 16.0413 44.1002L67.5565 15.361C70.7731 13.5671 74.6948 13.5424 77.9362 15.3115L99.0792 26.8047L130.837 44.0754C133.608 45.5724 133.608 49.5437 130.837 51.053Z"/>
</clipPath><linearGradient id="paint0_linear_1_22848" x1="135.316" y1="94.8515" x2="12.4295" y2="94.8515" gradientUnits="userSpaceOnUse">
<stop stop-color="#F5F9FD"/>
<stop offset="1" stop-color="#DBF1FF"/>
</linearGradient>
<linearGradient id="paint1_linear_1_22848" x1="135.316" y1="91.1994" x2="12.4288" y2="91.1994" gradientUnits="userSpaceOnUse">
<stop stop-color="#F5F9FD"/>
<stop offset="1" stop-color="#DBF1FF"/>
</linearGradient>
<linearGradient id="paint2_linear_1_22848" x1="41.8236" y1="47.0198" x2="133.967" y2="48.6281" gradientUnits="userSpaceOnUse">
<stop stop-color="#E6F0FF"/>
<stop offset="0.24" stop-color="#E2ECFD"/>
<stop offset="0.47" stop-color="#D6E3F8"/>
<stop offset="0.69" stop-color="#C3D3F0"/>
<stop offset="0.91" stop-color="#A9BDE4"/>
<stop offset="1" stop-color="#9CB2DF"/>
</linearGradient>
</defs>
</svg>
