<svg width="50" height="62" viewBox="0 0 50 62" fill="none" xmlns="http://www.w3.org/2000/svg">
<path d="M28.7391 37.5477L15.3284 30.4588C14.4624 30.0258 13.9428 29.1721 13.9552 28.1948C13.9552 27.2669 14.5242 26.438 15.3408 25.9803L46.9501 7.95494C48.2367 7.24976 49.1646 5.98784 49.3378 4.52799C49.5605 2.62277 48.5708 0.828894 46.8882 0L46.0222 1.75678C46.8759 2.17741 47.3955 2.99392 47.4078 3.94653C47.4326 4.89914 46.9501 5.74042 46.1212 6.19816L14.4252 24.273C13.1509 24.9782 12.2231 26.2277 12.0375 27.6752C11.8024 29.5804 12.7798 31.3743 14.45 32.2155L27.8608 39.3045C28.702 39.7251 29.2093 40.5416 29.234 41.4818C29.2587 42.4221 28.7762 43.251 27.9597 43.7211L0 59.6309L0.96498 61.3382L28.9247 45.4284C30.3846 44.5995 31.2258 43.1149 31.1887 41.4447C31.1516 39.7746 30.2361 38.3271 28.7515 37.5725L28.7391 37.5477Z" fill="#F5F5F5"/>
</svg>
