<svg width="140" height="140" viewBox="0 0 140 140" fill="none" xmlns="http://www.w3.org/2000/svg">
<g filter="url(#filter0_d_1_30311)">
<path d="M66.0381 81.7003V87.8085V100.025V106.133L69.0922 112.242V106.133V87.8085V81.7003H66.0381Z" fill="#BDC3C7"/>
<path d="M69.0928 81.7003V87.8085V100.025V106.133V112.242L72.1469 106.133V100.025V87.8085V81.7003H69.0928Z" fill="#7F8C8D"/>
<path d="M93.5305 27.4386C91.8171 30.8653 89.6114 34.2924 86.9729 36.8624V71.1292C91.2134 74.1275 94.7299 78.4117 97.2786 83.1234H42.4014C44.9496 78.4116 48.4688 74.1276 52.7081 71.1292V36.8624C50.0686 34.2923 47.8654 30.8653 46.1494 27.4386H93.5305Z" fill="url(#paint0_linear_1_30311)"/>
</g>
<defs>
<filter id="filter0_d_1_30311" x="38.4014" y="27.4386" width="62.8774" height="92.8032" filterUnits="userSpaceOnUse" color-interpolation-filters="sRGB">
<feFlood flood-opacity="0" result="BackgroundImageFix"/>
<feColorMatrix in="SourceAlpha" type="matrix" values="0 0 0 0 0 0 0 0 0 0 0 0 0 0 0 0 0 0 127 0" result="hardAlpha"/>
<feOffset dy="4"/>
<feGaussianBlur stdDeviation="2"/>
<feComposite in2="hardAlpha" operator="out"/>
<feColorMatrix type="matrix" values="0 0 0 0 0 0 0 0 0 0 0 0 0 0 0 0 0 0 0.25 0"/>
<feBlend mode="normal" in2="BackgroundImageFix" result="effect1_dropShadow_1_30311"/>
<feBlend mode="normal" in="SourceGraphic" in2="effect1_dropShadow_1_30311" result="shape"/>
</filter>
<linearGradient id="paint0_linear_1_30311" x1="42.4014" y1="46.4529" x2="97.9281" y2="76.4547" gradientUnits="userSpaceOnUse">
<stop stop-color="#3EF4A7"/>
<stop offset="1" stop-color="#096EE0"/>
</linearGradient>
</defs>
</svg>
