<svg width="77" height="116" viewBox="0 0 77 116" fill="none" xmlns="http://www.w3.org/2000/svg">
<path opacity="0.5" fill-rule="evenodd" clip-rule="evenodd" d="M65.2083 77.8527C80.1185 86.3729 80.1185 100.509 65.2083 109.029C50.298 117.549 26.093 117.549 11.1827 109.029C-3.72757 100.315 -3.72757 86.3729 11.1827 77.8527C26.093 69.1389 50.298 69.1389 65.2083 77.8527Z" fill="#E9E9EB"/>
<path opacity="0.5" fill-rule="evenodd" clip-rule="evenodd" d="M59.5847 81.1026C71.3968 87.88 71.3968 98.9175 59.5847 105.695C47.7727 112.472 28.7961 112.472 16.984 105.695C5.17199 98.9175 5.17199 87.88 16.984 81.1026C28.7961 74.3252 47.7727 74.3252 59.5847 81.1026Z" fill="#DDDEE1"/>
<path opacity="0.5" fill-rule="evenodd" clip-rule="evenodd" d="M53.7872 84.398C62.501 89.4327 62.501 97.3721 53.7872 102.407C45.267 107.441 31.1313 107.441 22.6112 102.407C13.8974 97.3721 13.8974 89.4327 22.6112 84.398C31.3249 79.3634 45.267 79.3634 53.7872 84.398Z" fill="#D1D2D6"/>
<path fill-rule="evenodd" clip-rule="evenodd" d="M24.739 76.115L16.219 70.1122H16.4125C39.4557 82.5051 75.4728 24.2193 52.0423 9.11541H51.8487L51.655 8.92188L60.9498 13.569C85.542 30.0284 47.0076 90.4443 24.739 76.115Z" fill="#2C3E50"/>
<path fill-rule="evenodd" clip-rule="evenodd" d="M24.739 76.115L16.219 70.1122H16.4125C39.4557 82.5051 75.4728 24.2193 52.0423 9.11541H51.8487L51.655 8.92188L60.9498 13.569C85.542 30.0284 47.0076 90.4443 24.739 76.115Z" fill="url(#paint0_linear_51_18456)"/>
<path fill-rule="evenodd" clip-rule="evenodd" d="M39.8422 14.0927C26.2874 22.0319 15.0563 41.2021 15.0563 56.887C15.0563 72.5718 26.0937 78.962 39.8422 71.2164C53.397 63.2772 64.6282 44.1067 64.6282 28.4219C64.6282 12.737 53.5906 6.34711 39.8422 14.0927Z" fill="#E6EAEB"/>
<path fill-rule="evenodd" clip-rule="evenodd" d="M39.8422 14.0927C26.2874 22.0319 15.0563 41.2021 15.0563 56.887C15.0563 72.5718 26.0937 78.962 39.8422 71.2164C53.397 63.2772 64.6282 44.1067 64.6282 28.4219C64.6282 12.737 53.5906 6.34711 39.8422 14.0927Z" fill="url(#paint1_linear_51_18456)"/>
<path fill-rule="evenodd" clip-rule="evenodd" d="M54.5661 1.36759H55.147L63.6672 6.59595H63.0863C51.6616 1.17404 39.2687 11.2433 31.5231 18.9889C19.711 31.3818 10.8036 50.7456 13.5146 68.3668C14.4828 73.7887 15.2573 78.0489 19.711 81.1471L20.2919 81.5345L11.7717 76.6935L11.1908 76.3061L10.6099 75.9188L10.2226 75.5317L9.83535 75.1443L9.44799 74.757C7.51159 72.8206 6.34988 70.8843 5.18804 68.1733V67.5924C-0.621161 51.3266 8.6735 30.4135 18.7428 17.6333C26.4884 8.14492 41.3986 -4.44171 54.5661 1.56113V1.36759Z" fill="#2C3E50"/>
<path fill-rule="evenodd" clip-rule="evenodd" d="M54.5661 1.36759H55.147L63.6672 6.59595H63.0863C51.6616 1.17404 39.2687 11.2433 31.5231 18.9889C19.711 31.3818 10.8036 50.7456 13.5146 68.3668C14.4828 73.7887 15.2573 78.0489 19.711 81.1471L20.2919 81.5345L11.7717 76.6935L11.1908 76.3061L10.6099 75.9188L10.2226 75.5317L9.83535 75.1443L9.44799 74.757C7.51159 72.8206 6.34988 70.8843 5.18804 68.1733V67.5924C-0.621161 51.3266 8.6735 30.4135 18.7428 17.6333C26.4884 8.14492 41.3986 -4.44171 54.5661 1.56113V1.36759Z" fill="url(#paint2_linear_51_18456)"/>
<path fill-rule="evenodd" clip-rule="evenodd" d="M20.8569 31.7171C26.4724 22.2288 34.0244 13.7088 42.5446 8.86777C51.0648 4.02677 58.6166 3.44584 64.2322 6.73772C69.8477 9.83595 73.1396 16.8071 73.1396 26.4891C73.1396 36.1711 69.6541 47.0149 64.2322 56.6968C58.6166 66.1852 51.0648 74.7052 42.5446 79.5462C34.0244 84.3872 26.4724 84.9681 20.8569 81.6763C15.2413 78.578 11.9495 71.6069 11.9495 61.9249C11.9495 52.2429 15.435 41.3991 20.8569 31.7171ZM60.1658 13.5149C57.8421 12.1595 55.1312 11.5788 52.0329 11.9661C49.1283 12.3534 45.8365 13.3215 42.5446 15.2579C39.2527 17.1943 35.9607 19.9052 33.0561 23.0034C29.9579 26.2953 27.247 29.9746 24.9233 34.041C22.5996 38.1075 20.6632 42.3674 19.5014 46.6275C18.3396 50.6939 17.565 54.9541 17.565 58.8269C17.565 62.6997 18.1459 66.1851 19.5014 68.7024C20.8569 71.4134 22.5996 73.5436 24.9233 74.899C27.247 76.2545 29.9579 76.8352 33.0561 76.4479C35.9607 76.2543 39.2527 75.0925 42.5446 73.1561C45.8365 71.2197 49.1283 68.5088 52.0329 65.4106C55.1312 62.1187 57.8421 58.4394 60.1658 54.373C62.4894 50.3065 64.4258 46.0466 65.5876 41.7865C66.7495 37.7201 67.524 33.4599 67.524 29.5871C67.524 25.7143 66.9431 22.2289 65.5876 19.7116C64.2322 17.0006 62.4894 14.8704 60.1658 13.5149Z" fill="#415A73"/>
<path fill-rule="evenodd" clip-rule="evenodd" d="M20.8569 31.7171C26.4724 22.2288 34.0244 13.7088 42.5446 8.86777C51.0648 4.02677 58.6166 3.44584 64.2322 6.73772C69.8477 9.83595 73.1396 16.8071 73.1396 26.4891C73.1396 36.1711 69.6541 47.0149 64.2322 56.6968C58.6166 66.1852 51.0648 74.7052 42.5446 79.5462C34.0244 84.3872 26.4724 84.9681 20.8569 81.6763C15.2413 78.578 11.9495 71.6069 11.9495 61.9249C11.9495 52.2429 15.435 41.3991 20.8569 31.7171ZM60.1658 13.5149C57.8421 12.1595 55.1312 11.5788 52.0329 11.9661C49.1283 12.3534 45.8365 13.3215 42.5446 15.2579C39.2527 17.1943 35.9607 19.9052 33.0561 23.0034C29.9579 26.2953 27.247 29.9746 24.9233 34.041C22.5996 38.1075 20.6632 42.3674 19.5014 46.6275C18.3396 50.6939 17.565 54.9541 17.565 58.8269C17.565 62.6997 18.1459 66.1851 19.5014 68.7024C20.8569 71.4134 22.5996 73.5436 24.9233 74.899C27.247 76.2545 29.9579 76.8352 33.0561 76.4479C35.9607 76.2543 39.2527 75.0925 42.5446 73.1561C45.8365 71.2197 49.1283 68.5088 52.0329 65.4106C55.1312 62.1187 57.8421 58.4394 60.1658 54.373C62.4894 50.3065 64.4258 46.0466 65.5876 41.7865C66.7495 37.7201 67.524 33.4599 67.524 29.5871C67.524 25.7143 66.9431 22.2289 65.5876 19.7116C64.2322 17.0006 62.4894 14.8704 60.1658 13.5149Z" fill="#415A73"/>
<path fill-rule="evenodd" clip-rule="evenodd" d="M20.8569 31.7171C26.4724 22.2288 34.0244 13.7088 42.5446 8.86777C51.0648 4.02677 58.6166 3.44584 64.2322 6.73772C69.8477 9.83595 73.1396 16.8071 73.1396 26.4891C73.1396 36.1711 69.6541 47.0149 64.2322 56.6968C58.6166 66.1852 51.0648 74.7052 42.5446 79.5462C34.0244 84.3872 26.4724 84.9681 20.8569 81.6763C15.2413 78.578 11.9495 71.6069 11.9495 61.9249C11.9495 52.2429 15.435 41.3991 20.8569 31.7171ZM60.1658 13.5149C57.8421 12.1595 55.1312 11.5788 52.0329 11.9661C49.1283 12.3534 45.8365 13.3215 42.5446 15.2579C39.2527 17.1943 35.9607 19.9052 33.0561 23.0034C29.9579 26.2953 27.247 29.9746 24.9233 34.041C22.5996 38.1075 20.6632 42.3674 19.5014 46.6275C18.3396 50.6939 17.565 54.9541 17.565 58.8269C17.565 62.6997 18.1459 66.1851 19.5014 68.7024C20.8569 71.4134 22.5996 73.5436 24.9233 74.899C27.247 76.2545 29.9579 76.8352 33.0561 76.4479C35.9607 76.2543 39.2527 75.0925 42.5446 73.1561C45.8365 71.2197 49.1283 68.5088 52.0329 65.4106C55.1312 62.1187 57.8421 58.4394 60.1658 54.373C62.4894 50.3065 64.4258 46.0466 65.5876 41.7865C66.7495 37.7201 67.524 33.4599 67.524 29.5871C67.524 25.7143 66.9431 22.2289 65.5876 19.7116C64.2322 17.0006 62.4894 14.8704 60.1658 13.5149Z" fill="url(#paint3_linear_51_18456)"/>
<path fill-rule="evenodd" clip-rule="evenodd" d="M39.2589 68.728C39.2589 68.728 39.8398 66.7917 40.6144 66.4044C41.3889 66.0171 41.9699 66.4043 41.9699 67.1788C41.9699 67.1788 41.3889 69.1154 40.6144 69.5027C39.8398 69.89 39.2589 69.5025 39.2589 68.728Z" fill="#9C9C9C"/>
<path fill-rule="evenodd" clip-rule="evenodd" d="M39.2589 68.728C39.2589 68.728 39.8398 66.7917 40.6144 66.4044C41.3889 66.0171 41.9699 66.4043 41.9699 67.1788C41.9699 67.1788 41.3889 69.1154 40.6144 69.5027C39.8398 69.89 39.2589 69.5025 39.2589 68.728Z" fill="url(#paint4_linear_51_18456)"/>
<path fill-rule="evenodd" clip-rule="evenodd" d="M61.7102 32.8929C61.7102 32.8929 60.3547 32.8931 60.3547 32.1185C60.3547 31.3439 60.9357 30.1822 61.7102 29.7949C61.7102 29.7949 63.0657 29.7948 63.0657 30.5694C63.0657 31.3439 62.4848 32.5057 61.7102 32.8929Z" fill="#9C9C9C"/>
<path fill-rule="evenodd" clip-rule="evenodd" d="M61.7102 32.8929C61.7102 32.8929 60.3547 32.8931 60.3547 32.1185C60.3547 31.3439 60.9357 30.1822 61.7102 29.7949C61.7102 29.7949 63.0657 29.7948 63.0657 30.5694C63.0657 31.3439 62.4848 32.5057 61.7102 32.8929Z" fill="url(#paint5_linear_51_18456)"/>
<path fill-rule="evenodd" clip-rule="evenodd" d="M19.5187 54.0146C19.5187 54.0146 20.8742 54.0145 20.8742 54.7891C20.8742 55.5636 20.2932 56.7254 19.5187 57.1127C19.5187 57.1127 18.1632 57.1128 18.1632 56.3382C18.1632 55.5637 18.7441 54.4019 19.5187 54.0146Z" fill="#9C9C9C"/>
<path fill-rule="evenodd" clip-rule="evenodd" d="M19.5187 54.0146C19.5187 54.0146 20.8742 54.0145 20.8742 54.7891C20.8742 55.5636 20.2932 56.7254 19.5187 57.1127C19.5187 57.1127 18.1632 57.1128 18.1632 56.3382C18.1632 55.5637 18.7441 54.4019 19.5187 54.0146Z" fill="url(#paint6_linear_51_18456)"/>
<path fill-rule="evenodd" clip-rule="evenodd" d="M41.9699 18.3907C41.9699 18.3907 41.3889 20.3273 40.6144 20.7146C39.8398 21.1019 39.2589 20.7145 39.2589 19.9399C39.2589 19.9399 39.8398 18.0036 40.6144 17.6163C41.3889 17.229 41.9699 17.6162 41.9699 18.3907Z" fill="#9C9C9C"/>
<path fill-rule="evenodd" clip-rule="evenodd" d="M41.9699 18.3907C41.9699 18.3907 41.3889 20.3273 40.6144 20.7146C39.8398 21.1019 39.2589 20.7145 39.2589 19.9399C39.2589 19.9399 39.8398 18.0036 40.6144 17.6163C41.3889 17.229 41.9699 17.6162 41.9699 18.3907Z" fill="url(#paint7_linear_51_18456)"/>
<path fill-rule="evenodd" clip-rule="evenodd" d="M55.5383 17.606L38.1107 42.0045L25.524 69.3078L44.1135 45.4902L55.5383 17.606Z" fill="#CCCCCC"/>
<path fill-rule="evenodd" clip-rule="evenodd" d="M55.5383 17.606L38.1107 42.0045L25.524 69.3078L44.1135 45.4902L55.5383 17.606Z" fill="url(#paint8_linear_51_18456)"/>
<path fill-rule="evenodd" clip-rule="evenodd" d="M55.5383 17.606L38.1107 42.0045L25.524 69.3078L43.1453 44.9093L55.5383 17.606Z" fill="#3D566E"/>
<path fill-rule="evenodd" clip-rule="evenodd" d="M55.5383 17.606L38.1107 42.0045L25.524 69.3078L43.1453 44.9093L55.5383 17.606Z" fill="url(#paint9_linear_51_18456)"/>
<path fill-rule="evenodd" clip-rule="evenodd" d="M55.5394 17.606L38.1118 42.0045L43.1465 44.9093L55.5394 17.606Z" fill="#C43E3F"/>
<path fill-rule="evenodd" clip-rule="evenodd" d="M55.5394 17.606L38.1118 42.0045L43.1465 44.9093L55.5394 17.606Z" fill="url(#paint10_linear_51_18456)"/>
<defs>
<linearGradient id="paint0_linear_51_18456" x1="16.2037" y1="43.6079" x2="68.8321" y2="43.6079" gradientUnits="userSpaceOnUse">
<stop stop-color="#4AFFC7"/>
<stop offset="1" stop-color="#3BADEA"/>
</linearGradient>
<linearGradient id="paint1_linear_51_18456" x1="26.6535" y1="42.1131" x2="65.0718" y2="42.4086" gradientUnits="userSpaceOnUse">
<stop stop-color="#9CB2DF"/>
<stop offset="0.09" stop-color="#A9BDE4"/>
<stop offset="0.31" stop-color="#C3D3F0"/>
<stop offset="0.53" stop-color="#D6E3F8"/>
<stop offset="0.76" stop-color="#E2ECFD"/>
<stop offset="1" stop-color="#E6F0FF"/>
</linearGradient>
<linearGradient id="paint2_linear_51_18456" x1="3.37573" y1="40.7672" x2="63.627" y2="40.7672" gradientUnits="userSpaceOnUse">
<stop stop-color="#4AFFC7"/>
<stop offset="1" stop-color="#3BADEA"/>
</linearGradient>
<linearGradient id="paint3_linear_51_18456" x1="26.2648" y1="43.5349" x2="73.6872" y2="43.8976" gradientUnits="userSpaceOnUse">
<stop stop-color="#E6F0FF"/>
<stop offset="0.24" stop-color="#E2ECFD"/>
<stop offset="0.47" stop-color="#D6E3F8"/>
<stop offset="0.69" stop-color="#C3D3F0"/>
<stop offset="0.91" stop-color="#A9BDE4"/>
<stop offset="1" stop-color="#9CB2DF"/>
</linearGradient>
<linearGradient id="paint4_linear_51_18456" x1="39.2581" y1="67.9535" x2="41.968" y2="67.9535" gradientUnits="userSpaceOnUse">
<stop stop-color="#4AFFC7"/>
<stop offset="1" stop-color="#3BADEA"/>
</linearGradient>
<linearGradient id="paint5_linear_51_18456" x1="60.354" y1="31.3439" x2="63.0639" y2="31.3439" gradientUnits="userSpaceOnUse">
<stop stop-color="#4AFFC7"/>
<stop offset="1" stop-color="#3BADEA"/>
</linearGradient>
<linearGradient id="paint6_linear_51_18456" x1="18.1624" y1="55.5637" x2="20.8723" y2="55.5637" gradientUnits="userSpaceOnUse">
<stop stop-color="#4AFFC7"/>
<stop offset="1" stop-color="#3BADEA"/>
</linearGradient>
<linearGradient id="paint7_linear_51_18456" x1="39.2581" y1="19.1654" x2="41.968" y2="19.1654" gradientUnits="userSpaceOnUse">
<stop stop-color="#4AFFC7"/>
<stop offset="1" stop-color="#3BADEA"/>
</linearGradient>
<linearGradient id="paint8_linear_51_18456" x1="32.5458" y1="43.0174" x2="55.8075" y2="43.1509" gradientUnits="userSpaceOnUse">
<stop stop-color="#9CB2DF"/>
<stop offset="0.09" stop-color="#A9BDE4"/>
<stop offset="0.31" stop-color="#C3D3F0"/>
<stop offset="0.53" stop-color="#D6E3F8"/>
<stop offset="0.76" stop-color="#E2ECFD"/>
<stop offset="1" stop-color="#E6F0FF"/>
</linearGradient>
<linearGradient id="paint9_linear_51_18456" x1="25.5154" y1="43.4569" x2="55.5183" y2="43.4569" gradientUnits="userSpaceOnUse">
<stop stop-color="#4AFFC7"/>
<stop offset="1" stop-color="#3BADEA"/>
</linearGradient>
<linearGradient id="paint10_linear_51_18456" x1="38.1068" y1="31.2576" x2="55.5278" y2="31.2576" gradientUnits="userSpaceOnUse">
<stop stop-color="#4AFFC7"/>
<stop offset="1" stop-color="#3BADEA"/>
</linearGradient>
</defs>
</svg>
