<svg width="85" height="100" viewBox="0 0 85 100" fill="none" xmlns="http://www.w3.org/2000/svg">
<path opacity="0.5" fill-rule="evenodd" clip-rule="evenodd" d="M69.9402 62.1442C84.8505 70.6644 84.8505 84.8001 69.9402 93.3203C55.0299 101.84 30.8249 101.84 15.9146 93.3203C1.00437 84.6065 1.00437 70.6644 15.9146 62.1442C30.8249 53.4304 55.0299 53.4304 69.9402 62.1442Z" fill="#E9E9EB"/>
<path opacity="0.5" fill-rule="evenodd" clip-rule="evenodd" d="M64.3184 65.4532C76.1304 72.2306 76.1304 83.268 64.3184 90.0454C52.5064 96.8228 33.5297 96.8228 21.7177 90.0454C9.90563 83.268 9.90563 72.2306 21.7177 65.4532C33.5297 58.6758 52.5064 58.6758 64.3184 65.4532Z" fill="#DDDEE1"/>
<path opacity="0.5" fill-rule="evenodd" clip-rule="evenodd" d="M58.695 68.7696C67.4088 73.8043 67.4088 81.7435 58.695 86.7781C50.1749 91.8128 36.0391 91.8128 27.519 86.7781C18.8052 81.7435 18.8052 73.8043 27.519 68.7696C36.2328 63.735 50.1749 63.735 58.695 68.7696Z" fill="#D1D2D6"/>
<path fill-rule="evenodd" clip-rule="evenodd" d="M9.48096 17.2328C9.48096 10.649 18.7757 5.22705 30.3941 5.22705C42.0125 5.22705 51.3072 10.649 51.3072 17.2328C51.3072 23.8165 42.0125 29.2384 30.3941 29.2384C18.7757 29.2384 9.48096 23.8165 9.48096 17.2328Z" fill="#73BCE3"/>
<path fill-rule="evenodd" clip-rule="evenodd" d="M30.8194 14.2932H31.4003H31.9812H32.5621H33.143C35.8539 14.4868 38.3713 14.8741 40.8886 15.8423H41.2758L41.6632 16.2295C45.1487 17.585 48.6342 19.5214 50.5706 23.0069V23.5878V23.9752L50.7643 24.3624V24.7497V25.1369V25.5243V25.9115V26.2989V26.6861V27.0733V18.1659V17.7787V17.3913V17.0041V16.6169V16.2295V15.8423V15.455V15.0677V14.4868C49.0215 10.8077 45.536 8.67759 41.8569 7.32211H41.4695L41.0823 6.9349C38.565 6.16034 36.0476 5.57938 33.3367 5.38574H32.7558H32.1749H31.5938H31.0129C25.9783 5.38574 20.9436 6.16023 16.4899 8.4839H16.1027L15.7154 8.87127H15.3281C13.1981 10.4204 11.4553 11.7758 10.2935 14.0995V14.6804V15.2613V15.6486V16.0358V16.4232V16.8104V17.1978V17.585V17.9724V26.8798V27.267V26.6861V26.2989V25.9115V25.5243V25.1369V24.7497V24.3624V23.9752L10.4871 23.5878V23.0069C11.649 20.8769 13.3918 19.3278 15.5218 17.9724H15.909L16.2964 17.585H16.6836C21.1373 15.0677 26.172 14.2932 31.2066 14.2932H30.8194Z" fill="#44ABC7"/>
<path fill-rule="evenodd" clip-rule="evenodd" d="M0.222656 17.7993V27.2876V27.675V28.0622V28.4494V28.8368C2.3527 36.0015 10.4855 39.8742 17.0692 41.8106H17.6503L18.2312 42.198C26.1704 44.1344 34.6905 43.9407 42.6297 42.0043H43.0171L43.4043 41.8106V32.9032H43.0171L42.6297 33.0969C32.3668 35.8078 4.09545 33.6777 0.222656 20.1229V19.7357V19.3485V18.9611V18.5739V18.1865V17.7993Z" fill="#2C3E50"/>
<path fill-rule="evenodd" clip-rule="evenodd" d="M0.222656 17.7993V27.2876V27.675V28.0622V28.4494V28.8368C2.3527 36.0015 10.4855 39.8742 17.0692 41.8106H17.6503L18.2312 42.198C26.1704 44.1344 34.6905 43.9407 42.6297 42.0043H43.0171L43.4043 41.8106V32.9032H43.0171L42.6297 33.0969C32.3668 35.8078 4.09545 33.6777 0.222656 20.1229V19.7357V19.3485V18.9611V18.5739V18.1865V17.7993Z" fill="url(#paint0_linear_51_18442)"/>
<path fill-rule="evenodd" clip-rule="evenodd" d="M57.3291 24.9955V34.0966L57.5228 33.7094L57.7165 33.5157L57.91 33.322V33.1285L58.1037 32.9348L58.2974 32.7411L58.4909 32.3539L58.6846 32.1602V31.9665L58.8783 31.773L59.0719 31.5793V31.3856L59.2655 30.9984L59.4592 30.8047V30.611L59.6528 30.4175V30.0302L59.8465 29.8365V29.6429L60.04 29.4493V29.062V28.8684L60.2337 28.6747V28.2875V28.0938V27.9001L60.4274 27.7066V27.3192V27.1255V26.932V26.5446V17.6372V17.8309V18.0246V18.4118V18.6055L60.2337 18.799V19.1864V19.38V19.5736L60.04 19.9609V20.1545V20.3482L59.8465 20.5418V20.9291L59.6528 21.1227V21.3164L59.4592 21.5101V21.8973L59.2655 22.091L59.0719 22.2845V22.4782L58.8783 22.6719L58.6846 23.0591V23.2528L58.4909 23.4465L58.2974 23.64L58.1037 23.8337L57.91 24.221V24.4146L57.7165 24.6083L57.5228 24.8019L57.3291 24.9955Z" fill="#2C3E50"/>
<path fill-rule="evenodd" clip-rule="evenodd" d="M57.3291 24.9955V34.0966L57.5228 33.7094L57.7165 33.5157L57.91 33.322V33.1285L58.1037 32.9348L58.2974 32.7411L58.4909 32.3539L58.6846 32.1602V31.9665L58.8783 31.773L59.0719 31.5793V31.3856L59.2655 30.9984L59.4592 30.8047V30.611L59.6528 30.4175V30.0302L59.8465 29.8365V29.6429L60.04 29.4493V29.062V28.8684L60.2337 28.6747V28.2875V28.0938V27.9001L60.4274 27.7066V27.3192V27.1255V26.932V26.5446V17.6372V17.8309V18.0246V18.4118V18.6055L60.2337 18.799V19.1864V19.38V19.5736L60.04 19.9609V20.1545V20.3482L59.8465 20.5418V20.9291L59.6528 21.1227V21.3164L59.4592 21.5101V21.8973L59.2655 22.091L59.0719 22.2845V22.4782L58.8783 22.6719L58.6846 23.0591V23.2528L58.4909 23.4465L58.2974 23.64L58.1037 23.8337L57.91 24.221V24.4146L57.7165 24.6083L57.5228 24.8019L57.3291 24.9955Z" fill="url(#paint1_linear_51_18442)"/>
<path fill-rule="evenodd" clip-rule="evenodd" d="M43.801 32.6968V41.7979L43.9946 41.9916L44.1882 42.1852H44.3819L44.5756 42.3788L44.7691 42.5725H44.9628L45.1565 42.7661L67.2314 55.3528L67.6187 55.5463L68.006 55.74L68.3932 55.9337L68.7806 56.1272L69.1678 56.3209H69.5552L70.1361 56.5146L70.5233 56.7082H70.9106L71.4915 56.9018H71.8788H72.2661H72.847L73.2342 57.0954H73.8151H74.2025H74.7834H75.1706L75.558 56.9018H76.1389H76.5261H77.1071L77.4943 56.7082H77.8815L78.4626 56.5146L78.8498 56.3209H79.2372L79.6244 56.1272L80.0116 55.9337L80.399 55.74L80.7862 55.5463L81.1735 55.3528L81.5607 55.1591L81.9481 54.9654L82.1416 54.7717L82.529 54.5782L82.7225 54.1908L82.9162 53.9971L83.1099 53.8036L83.3036 53.6099L83.4971 53.2227L83.6908 53.029L83.8845 52.8353V52.4481V52.2544L84.0782 51.8672V51.6736V42.7661V42.9597L83.8845 43.1533V43.5407V43.7342L83.6908 44.1216L83.4971 44.3151L83.3036 44.5088L83.1099 44.8962L82.9162 45.0897L82.7225 45.2834L82.529 45.4771L82.1416 45.6708L81.9481 46.058L81.5607 46.2517L81.1735 46.4452L80.7862 46.6389L80.399 46.8326L80.0116 47.0262L79.6244 47.2198H79.2372L78.8498 47.4135L78.4626 47.6071H77.8815L77.4943 47.8007H77.1071H76.5261L76.1389 47.9943H75.558H75.1706H74.7834H74.2025H73.8151H73.2342H72.847H72.2661L71.8788 47.8007H71.4915H70.9106L70.5233 47.6071H70.1361L69.5552 47.4135L69.1678 47.2198H68.7806L68.3932 47.0262L68.006 46.8326L67.6187 46.6389L67.2314 46.4452L45.1565 33.665H44.9628L44.7691 33.4714L44.5756 33.2777H44.3819L44.1882 33.0841H43.9946L43.801 32.8905V32.6968Z" fill="#3D566E"/>
<path fill-rule="evenodd" clip-rule="evenodd" d="M43.801 32.6968V41.7979L43.9946 41.9916L44.1882 42.1852H44.3819L44.5756 42.3788L44.7691 42.5725H44.9628L45.1565 42.7661L67.2314 55.3528L67.6187 55.5463L68.006 55.74L68.3932 55.9337L68.7806 56.1272L69.1678 56.3209H69.5552L70.1361 56.5146L70.5233 56.7082H70.9106L71.4915 56.9018H71.8788H72.2661H72.847L73.2342 57.0954H73.8151H74.2025H74.7834H75.1706L75.558 56.9018H76.1389H76.5261H77.1071L77.4943 56.7082H77.8815L78.4626 56.5146L78.8498 56.3209H79.2372L79.6244 56.1272L80.0116 55.9337L80.399 55.74L80.7862 55.5463L81.1735 55.3528L81.5607 55.1591L81.9481 54.9654L82.1416 54.7717L82.529 54.5782L82.7225 54.1908L82.9162 53.9971L83.1099 53.8036L83.3036 53.6099L83.4971 53.2227L83.6908 53.029L83.8845 52.8353V52.4481V52.2544L84.0782 51.8672V51.6736V42.7661V42.9597L83.8845 43.1533V43.5407V43.7342L83.6908 44.1216L83.4971 44.3151L83.3036 44.5088L83.1099 44.8962L82.9162 45.0897L82.7225 45.2834L82.529 45.4771L82.1416 45.6708L81.9481 46.058L81.5607 46.2517L81.1735 46.4452L80.7862 46.6389L80.399 46.8326L80.0116 47.0262L79.6244 47.2198H79.2372L78.8498 47.4135L78.4626 47.6071H77.8815L77.4943 47.8007H77.1071H76.5261L76.1389 47.9943H75.558H75.1706H74.7834H74.2025H73.8151H73.2342H72.847H72.2661L71.8788 47.8007H71.4915H70.9106L70.5233 47.6071H70.1361L69.5552 47.4135L69.1678 47.2198H68.7806L68.3932 47.0262L68.006 46.8326L67.6187 46.6389L67.2314 46.4452L45.1565 33.665H44.9628L44.7691 33.4714L44.5756 33.2777H44.3819L44.1882 33.0841H43.9946L43.801 32.8905V32.6968Z" fill="url(#paint2_linear_51_18442)"/>
<path fill-rule="evenodd" clip-rule="evenodd" d="M0.193681 17.2339C0.193681 22.0749 3.48554 26.335 9.1011 29.4332C14.523 32.5314 22.0749 34.4679 30.4015 34.4679C35.2425 34.4679 39.6962 33.8869 43.7627 32.725C44.1499 33.1123 44.5372 33.4997 45.1181 33.6933L67.3867 46.4735C71.2596 48.6035 77.4559 48.6035 81.3287 46.4735C85.2015 44.3434 85.2015 40.6643 81.3287 38.5343L59.0602 25.754C59.0602 25.754 57.8983 25.1731 57.3174 24.9794C59.2538 22.6557 60.4157 20.1385 60.4157 17.2339C60.4157 12.3929 57.1238 8.13277 51.5083 5.03453C46.0864 1.93629 38.5343 0 30.2078 0C21.8813 0 14.3293 1.93629 8.90742 5.03453C3.4855 8.13277 0 12.3929 0 17.2339H0.193681ZM15.4913 25.754C11.6185 23.624 9.29478 20.5258 9.29478 17.2339C9.29478 13.9421 11.6185 11.0374 15.4913 8.71374C19.1704 6.5837 24.3986 5.22821 30.2078 5.22821C36.017 5.22821 41.2453 6.5837 44.9245 8.71374C48.7973 10.8438 51.1209 13.9421 51.1209 17.2339C51.1209 20.5258 48.7973 23.4303 44.9245 25.754C41.0517 27.884 36.017 29.2395 30.2078 29.2395C24.3986 29.2395 19.1704 27.884 15.4913 25.754Z" fill="#34485C"/>
<path fill-rule="evenodd" clip-rule="evenodd" d="M0.193681 17.2339C0.193681 22.0749 3.48554 26.335 9.1011 29.4332C14.523 32.5314 22.0749 34.4679 30.4015 34.4679C35.2425 34.4679 39.6962 33.8869 43.7627 32.725C44.1499 33.1123 44.5372 33.4997 45.1181 33.6933L67.3867 46.4735C71.2596 48.6035 77.4559 48.6035 81.3287 46.4735C85.2015 44.3434 85.2015 40.6643 81.3287 38.5343L59.0602 25.754C59.0602 25.754 57.8983 25.1731 57.3174 24.9794C59.2538 22.6557 60.4157 20.1385 60.4157 17.2339C60.4157 12.3929 57.1238 8.13277 51.5083 5.03453C46.0864 1.93629 38.5343 0 30.2078 0C21.8813 0 14.3293 1.93629 8.90742 5.03453C3.4855 8.13277 0 12.3929 0 17.2339H0.193681ZM15.4913 25.754C11.6185 23.624 9.29478 20.5258 9.29478 17.2339C9.29478 13.9421 11.6185 11.0374 15.4913 8.71374C19.1704 6.5837 24.3986 5.22821 30.2078 5.22821C36.017 5.22821 41.2453 6.5837 44.9245 8.71374C48.7973 10.8438 51.1209 13.9421 51.1209 17.2339C51.1209 20.5258 48.7973 23.4303 44.9245 25.754C41.0517 27.884 36.017 29.2395 30.2078 29.2395C24.3986 29.2395 19.1704 27.884 15.4913 25.754Z" fill="#34485C"/>
<path fill-rule="evenodd" clip-rule="evenodd" d="M0.193681 17.2339C0.193681 22.0749 3.48554 26.335 9.1011 29.4332C14.523 32.5314 22.0749 34.4679 30.4015 34.4679C35.2425 34.4679 39.6962 33.8869 43.7627 32.725C44.1499 33.1123 44.5372 33.4997 45.1181 33.6933L67.3867 46.4735C71.2596 48.6035 77.4559 48.6035 81.3287 46.4735C85.2015 44.3434 85.2015 40.6643 81.3287 38.5343L59.0602 25.754C59.0602 25.754 57.8983 25.1731 57.3174 24.9794C59.2538 22.6557 60.4157 20.1385 60.4157 17.2339C60.4157 12.3929 57.1238 8.13277 51.5083 5.03453C46.0864 1.93629 38.5343 0 30.2078 0C21.8813 0 14.3293 1.93629 8.90742 5.03453C3.4855 8.13277 0 12.3929 0 17.2339H0.193681ZM15.4913 25.754C11.6185 23.624 9.29478 20.5258 9.29478 17.2339C9.29478 13.9421 11.6185 11.0374 15.4913 8.71374C19.1704 6.5837 24.3986 5.22821 30.2078 5.22821C36.017 5.22821 41.2453 6.5837 44.9245 8.71374C48.7973 10.8438 51.1209 13.9421 51.1209 17.2339C51.1209 20.5258 48.7973 23.4303 44.9245 25.754C41.0517 27.884 36.017 29.2395 30.2078 29.2395C24.3986 29.2395 19.1704 27.884 15.4913 25.754Z" fill="url(#paint3_linear_51_18442)"/>
<path fill-rule="evenodd" clip-rule="evenodd" d="M25.9645 17.1915C26.9327 13.1251 30.6118 9.83321 35.4528 8.28409C34.4846 7.89681 33.5163 7.70315 32.3545 7.50951C23.0598 6.15404 14.1524 10.6078 12.6033 17.1915H25.9645Z" fill="#9DD6F5"/>
<path fill-rule="evenodd" clip-rule="evenodd" d="M27.1263 14.5111C28.869 11.8002 31.7736 9.67005 35.4528 8.50821C34.4846 8.12093 33.5163 7.92728 32.3545 7.73364C23.0598 6.37816 14.1524 10.8319 12.6033 17.4156H16.476L16.8634 17.2221H17.2506L17.638 16.8347H18.0252L18.4124 16.4475H18.7997L19.187 16.0602H19.5743L19.9615 15.8666H20.3489L20.7361 15.6729H21.1235L21.5107 15.4793H21.8979L22.2853 15.2856H22.8662H23.4471H24.028H24.6089H25.1899H25.7708H26.3517H26.9326L27.1263 14.5111Z" fill="#73BCE3"/>
<path fill-rule="evenodd" clip-rule="evenodd" d="M71.8591 56.8998H72.2465H72.8274L73.2146 57.0935H73.7955H74.1829H74.7638H75.151L75.5383 56.8998H76.1192H76.5064H77.0875L77.4747 56.7063H77.8619L78.443 56.5126L78.8302 56.3189H79.2175L79.6048 56.1252L79.992 55.9317L80.3793 55.738L80.7665 55.5443L81.1539 55.3508L81.5411 55.1571L81.9285 54.9634L82.122 54.7697L82.5094 54.5762L82.7029 54.1888L82.8966 53.9952L83.0903 53.8016L83.284 53.6079L83.4775 53.2207L83.6712 53.0271L83.8649 52.8334V52.4462V52.2525L84.0585 51.8653V51.6716V42.7642V42.9577L83.8649 43.1514V43.5387V43.7323L83.6712 44.1196L83.4775 44.3132L83.284 44.5068L83.0903 44.8942L82.8966 45.0877L82.7029 45.2814L82.5094 45.4751L82.122 45.6688L81.9285 46.056L81.5411 46.2497L81.1539 46.4432L80.7665 46.6369L80.3793 46.8306L79.992 47.0243L79.6048 47.2178H79.2175L78.8302 47.4115L78.443 47.6052H77.8619L77.4747 47.7987H77.0875H76.5064L76.1192 47.9924H75.5383H75.151H74.7638H74.1829H73.7955H73.2146H72.8274H72.2465H71.8591V47.7987V56.8998Z" fill="#2C3E50"/>
<path fill-rule="evenodd" clip-rule="evenodd" d="M71.8591 56.8998H72.2465H72.8274L73.2146 57.0935H73.7955H74.1829H74.7638H75.151L75.5383 56.8998H76.1192H76.5064H77.0875L77.4747 56.7063H77.8619L78.443 56.5126L78.8302 56.3189H79.2175L79.6048 56.1252L79.992 55.9317L80.3793 55.738L80.7665 55.5443L81.1539 55.3508L81.5411 55.1571L81.9285 54.9634L82.122 54.7697L82.5094 54.5762L82.7029 54.1888L82.8966 53.9952L83.0903 53.8016L83.284 53.6079L83.4775 53.2207L83.6712 53.0271L83.8649 52.8334V52.4462V52.2525L84.0585 51.8653V51.6716V42.7642V42.9577L83.8649 43.1514V43.5387V43.7323L83.6712 44.1196L83.4775 44.3132L83.284 44.5068L83.0903 44.8942L82.8966 45.0877L82.7029 45.2814L82.5094 45.4751L82.122 45.6688L81.9285 46.056L81.5411 46.2497L81.1539 46.4432L80.7665 46.6369L80.3793 46.8306L79.992 47.0243L79.6048 47.2178H79.2175L78.8302 47.4115L78.443 47.6052H77.8619L77.4747 47.7987H77.0875H76.5064L76.1192 47.9924H75.5383H75.151H74.7638H74.1829H73.7955H73.2146H72.8274H72.2465H71.8591V47.7987V56.8998Z" fill="url(#paint4_linear_51_18442)"/>
<defs>
<linearGradient id="paint0_linear_51_18442" x1="0.21015" y1="30.6782" x2="43.3755" y2="30.6782" gradientUnits="userSpaceOnUse">
<stop stop-color="#3BADEA"/>
<stop offset="1" stop-color="#4AFFC7"/>
</linearGradient>
<linearGradient id="paint1_linear_51_18442" x1="57.3282" y1="25.8669" x2="60.4253" y2="25.8669" gradientUnits="userSpaceOnUse">
<stop stop-color="#3BADEA"/>
<stop offset="1" stop-color="#4AFFC7"/>
</linearGradient>
<linearGradient id="paint2_linear_51_18442" x1="43.7894" y1="44.8961" x2="84.0513" y2="44.8961" gradientUnits="userSpaceOnUse">
<stop stop-color="#3BADEA"/>
<stop offset="1" stop-color="#4AFFC7"/>
</linearGradient>
<linearGradient id="paint3_linear_51_18442" x1="19.7062" y1="23.6269" x2="84.9714" y2="24.7575" gradientUnits="userSpaceOnUse">
<stop stop-color="#E6F0FF"/>
<stop offset="0.24" stop-color="#E2ECFD"/>
<stop offset="0.47" stop-color="#D6E3F8"/>
<stop offset="0.69" stop-color="#C3D3F0"/>
<stop offset="0.91" stop-color="#A9BDE4"/>
<stop offset="1" stop-color="#9CB2DF"/>
</linearGradient>
<linearGradient id="paint4_linear_51_18442" x1="71.8556" y1="49.9288" x2="84.0504" y2="49.9288" gradientUnits="userSpaceOnUse">
<stop stop-color="#3BADEA"/>
<stop offset="1" stop-color="#4AFFC7"/>
</linearGradient>
</defs>
</svg>
