<svg width="77" height="121" viewBox="0 0 77 121" fill="none" xmlns="http://www.w3.org/2000/svg">
<path opacity="0.5" fill-rule="evenodd" clip-rule="evenodd" d="M65.2083 82.4934C80.1185 91.0135 80.1185 105.149 65.2083 113.669C50.298 122.19 26.093 122.19 11.1827 113.669C-3.72757 104.956 -3.72757 91.0135 11.1827 82.4934C26.093 73.7796 50.298 73.7796 65.2083 82.4934Z" fill="#E9E9EB"/>
<path opacity="0.5" fill-rule="evenodd" clip-rule="evenodd" d="M59.5865 85.8023C71.3985 92.5797 71.3985 103.617 59.5865 110.394C47.7744 117.172 28.7978 117.172 16.9857 110.394C5.1737 103.617 5.1737 92.5797 16.9857 85.8023C28.7978 79.0249 47.7744 79.0249 59.5865 85.8023Z" fill="#DDDEE1"/>
<path opacity="0.5" fill-rule="evenodd" clip-rule="evenodd" d="M53.9631 89.1183C62.6769 94.1529 62.6769 102.092 53.9631 107.127C45.4429 112.161 31.3072 112.161 22.7871 107.127C14.0733 102.092 14.0733 94.1529 22.7871 89.1183C31.5009 84.0836 45.4429 84.0836 53.9631 89.1183Z" fill="#D1D2D6"/>
<path fill-rule="evenodd" clip-rule="evenodd" d="M4.24041 61.2476C4.33536 73.7805 7.7534 78.243 16.8682 83.5599L16.2985 83.2751L15.8238 82.8952C9.55736 78.3378 7.75341 70.8372 7.65846 63.2415V48.9997V48.5249V48.0502V47.5754V47.1006V46.626V46.1513L7.75339 45.6765C9.27252 36.8466 15.6339 26.8773 23.7992 22.8896L24.179 22.6997C26.3628 21.8451 28.4516 21.3703 30.8252 22.035H31.1101C31.1101 22.035 31.8696 22.4149 32.2494 22.6048C32.2494 22.6048 31.5848 22.3198 31.3 22.2249H31.1101L34.5281 24.1238H34.718L34.8129 24.3137H34.9079L35.0028 24.4086H35.0978C36.9967 25.453 39.1804 24.5986 40.6996 23.6492L40.8895 23.5541L44.6873 21.3704L54.1819 15.8636L50.7638 13.8696L41.2692 19.3765C39.3703 20.4209 36.9017 22.13 34.718 22.6997C33.8635 22.8896 33.1039 22.8896 32.1545 22.6997L28.8314 20.8008L28.5465 20.6108L28.2617 20.4209H27.9768C26.0779 19.6613 24.5588 19.6614 22.6599 20.1361H22.2801C12.5007 23.1743 4.90502 35.6122 3.95557 45.4866V45.9613V46.4361V46.9109V47.3856V61.1527L4.24041 61.2476Z" fill="#31485E"/>
<path fill-rule="evenodd" clip-rule="evenodd" d="M4.24041 61.2476C4.33536 73.7805 7.7534 78.243 16.8682 83.5599L16.2985 83.2751L15.8238 82.8952C9.55736 78.3378 7.75341 70.8372 7.65846 63.2415V48.9997V48.5249V48.0502V47.5754V47.1006V46.626V46.1513L7.75339 45.6765C9.27252 36.8466 15.6339 26.8773 23.7992 22.8896L24.179 22.6997C26.3628 21.8451 28.4516 21.3703 30.8252 22.035H31.1101C31.1101 22.035 31.8696 22.4149 32.2494 22.6048C32.2494 22.6048 31.5848 22.3198 31.3 22.2249H31.1101L34.5281 24.1238H34.718L34.8129 24.3137H34.9079L35.0028 24.4086H35.0978C36.9967 25.453 39.1804 24.5986 40.6996 23.6492L40.8895 23.5541L44.6873 21.3704L54.1819 15.8636L50.7638 13.8696L41.2692 19.3765C39.3703 20.4209 36.9017 22.13 34.718 22.6997C33.8635 22.8896 33.1039 22.8896 32.1545 22.6997L28.8314 20.8008L28.5465 20.6108L28.2617 20.4209H27.9768C26.0779 19.6613 24.5588 19.6614 22.6599 20.1361H22.2801C12.5007 23.1743 4.90502 35.6122 3.95557 45.4866V45.9613V46.4361V46.9109V47.3856V61.1527L4.24041 61.2476Z" fill="url(#paint0_linear_51_18472)"/>
<path fill-rule="evenodd" clip-rule="evenodd" d="M7.65918 63.2333C7.65918 73.2026 11.1722 80.2286 16.8689 83.5517C22.5657 86.8748 30.4462 86.3999 39.0862 81.3678L54.5624 72.443V15.9502L45.0678 21.4571L41.27 23.6409H41.0801V23.7358L40.8902 23.8307C40.0357 24.3054 39.1812 24.5903 38.3267 24.7802C37.4721 24.9701 36.7126 24.8752 35.953 24.7802C35.6682 24.7802 35.2884 24.5903 34.9086 24.4004C34.5288 24.2105 34.0541 23.9257 33.7693 23.7358C32.44 22.5965 30.636 22.0267 28.6422 22.0267C26.7433 22.0267 24.5595 22.6914 22.3758 24.0206C18.2931 26.3943 14.5902 30.382 11.9317 35.0344C9.27325 39.6867 7.65918 44.8138 7.65918 49.5611V63.3282V63.2333Z" fill="#415A73"/>
<path fill-rule="evenodd" clip-rule="evenodd" d="M7.65918 63.2333C7.65918 73.2026 11.1722 80.2286 16.8689 83.5517C22.5657 86.8748 30.4462 86.3999 39.0862 81.3678L54.5624 72.443V15.9502L45.0678 21.4571L41.27 23.6409H41.0801V23.7358L40.8902 23.8307C40.0357 24.3054 39.1812 24.5903 38.3267 24.7802C37.4721 24.9701 36.7126 24.8752 35.953 24.7802C35.6682 24.7802 35.2884 24.5903 34.9086 24.4004C34.5288 24.2105 34.0541 23.9257 33.7693 23.7358C32.44 22.5965 30.636 22.0267 28.6422 22.0267C26.7433 22.0267 24.5595 22.6914 22.3758 24.0206C18.2931 26.3943 14.5902 30.382 11.9317 35.0344C9.27325 39.6867 7.65918 44.8138 7.65918 49.5611V63.3282V63.2333Z" fill="url(#paint1_linear_51_18472)"/>
<path fill-rule="evenodd" clip-rule="evenodd" d="M19.6152 57.1563L19.3303 57.4411L19.0455 57.726L18.7607 58.0108L18.4758 58.2956L18.191 58.5804L17.9062 58.9601L17.6214 59.34L17.3365 59.7197L17.1466 60.0996L16.9567 60.4793L16.7669 60.8591L16.577 61.2388L16.3871 61.6187L16.1972 61.9984L16.0073 62.3781L15.8174 62.758L15.6275 63.1377V63.5175L15.3427 63.8973V64.2771L15.1528 64.6568V65.0367L15.0579 65.4164V65.7961V66.176V66.5557V66.9355V67.3152V67.6951V68.0748L15.1528 68.3596V68.6444L15.3427 69.3091L15.6275 69.7839L15.9124 70.2585L16.2921 70.6383L16.6719 70.9232L17.3365 71.3029L16.9567 71.018L16.577 70.6383L16.2921 70.1636L16.0073 69.6888L15.8174 69.1192V68.8344L15.7225 68.5496V68.1697V67.79V67.4103V67.0304V66.6507V66.2709V65.8911L15.8174 65.5113V65.1316L16.0073 64.7517V64.372L16.1972 63.9923V63.6124L16.482 63.2327L16.6719 62.8529L16.8618 62.4732L17.0517 62.0933L17.2416 61.7136L17.4315 61.3337L17.6214 60.954L17.8112 60.5743L18.0011 60.1944L18.286 59.8147L18.5708 59.4349L18.8556 59.0552L19.1405 58.7703L19.4253 58.4855L19.7101 58.2007L19.9949 57.9159L20.2798 57.6309L20.9444 57.1563L21.609 56.6816L22.2736 56.3017L22.8433 56.0169L23.4129 55.8271L23.9826 55.6372H24.5523H25.1219H25.5966L26.0714 55.8271L26.5461 56.0169L25.8815 55.6372L25.4067 55.4473L24.932 55.2573H24.4573H23.8876H23.318L22.7483 55.4473L22.1787 55.6372L21.609 55.922L20.9444 56.3017L20.2798 56.7765L19.6152 57.3461V57.1563Z" fill="#C7A044"/>
<path fill-rule="evenodd" clip-rule="evenodd" d="M19.6152 57.1563L19.3303 57.4411L19.0455 57.726L18.7607 58.0108L18.4758 58.2956L18.191 58.5804L17.9062 58.9601L17.6214 59.34L17.3365 59.7197L17.1466 60.0996L16.9567 60.4793L16.7669 60.8591L16.577 61.2388L16.3871 61.6187L16.1972 61.9984L16.0073 62.3781L15.8174 62.758L15.6275 63.1377V63.5175L15.3427 63.8973V64.2771L15.1528 64.6568V65.0367L15.0579 65.4164V65.7961V66.176V66.5557V66.9355V67.3152V67.6951V68.0748L15.1528 68.3596V68.6444L15.3427 69.3091L15.6275 69.7839L15.9124 70.2585L16.2921 70.6383L16.6719 70.9232L17.3365 71.3029L16.9567 71.018L16.577 70.6383L16.2921 70.1636L16.0073 69.6888L15.8174 69.1192V68.8344L15.7225 68.5496V68.1697V67.79V67.4103V67.0304V66.6507V66.2709V65.8911L15.8174 65.5113V65.1316L16.0073 64.7517V64.372L16.1972 63.9923V63.6124L16.482 63.2327L16.6719 62.8529L16.8618 62.4732L17.0517 62.0933L17.2416 61.7136L17.4315 61.3337L17.6214 60.954L17.8112 60.5743L18.0011 60.1944L18.286 59.8147L18.5708 59.4349L18.8556 59.0552L19.1405 58.7703L19.4253 58.4855L19.7101 58.2007L19.9949 57.9159L20.2798 57.6309L20.9444 57.1563L21.609 56.6816L22.2736 56.3017L22.8433 56.0169L23.4129 55.8271L23.9826 55.6372H24.5523H25.1219H25.5966L26.0714 55.8271L26.5461 56.0169L25.8815 55.6372L25.4067 55.4473L24.932 55.2573H24.4573H23.8876H23.318L22.7483 55.4473L22.1787 55.6372L21.609 55.922L20.9444 56.3017L20.2798 56.7765L19.6152 57.3461V57.1563Z" fill="url(#paint2_linear_51_18472)"/>
<path fill-rule="evenodd" clip-rule="evenodd" d="M20.289 57.5568C18.58 59.0759 17.2507 61.0697 16.4912 63.1585C15.7316 65.2472 15.4468 67.3361 15.9215 69.0451C16.3963 70.7541 17.4406 71.6086 18.8648 71.7035C20.289 71.7985 21.9979 71.1338 23.612 69.7096C25.226 68.1905 26.5553 66.1967 27.4098 64.108C28.1693 62.0192 28.4541 59.9305 27.9794 58.2215C27.5047 56.5125 26.4603 55.658 25.0362 55.5631C23.612 55.4681 21.903 56.1326 20.289 57.6517V57.5568Z" fill="#FAC13C"/>
<path fill-rule="evenodd" clip-rule="evenodd" d="M20.289 57.5568C18.58 59.0759 17.2507 61.0697 16.4912 63.1585C15.7316 65.2472 15.4468 67.3361 15.9215 69.0451C16.3963 70.7541 17.4406 71.6086 18.8648 71.7035C20.289 71.7985 21.9979 71.1338 23.612 69.7096C25.226 68.1905 26.5553 66.1967 27.4098 64.108C28.1693 62.0192 28.4541 59.9305 27.9794 58.2215C27.5047 56.5125 26.4603 55.658 25.0362 55.5631C23.612 55.4681 21.903 56.1326 20.289 57.6517V57.5568Z" fill="url(#paint3_linear_51_18472)"/>
<path fill-rule="evenodd" clip-rule="evenodd" d="M32.066 67.8994L31.5912 68.2792L31.2115 68.754L30.8317 69.2286L30.4519 69.7033L30.0721 70.273L29.7873 70.8426L29.5025 71.4124L29.3126 71.982L29.1227 72.5517L28.9328 73.1213V73.6909L28.7429 74.2606V74.8304V75.305V75.7797L28.9328 76.2545L29.1227 76.7292L29.3126 77.1089L29.5025 77.3938L29.7873 77.6786L30.0721 77.8685L30.5469 78.1533L30.262 77.9634L29.9772 77.6786L29.7873 77.3938L29.5974 77.014L29.4075 76.6342V76.1596L29.2176 75.6848V75.2101V74.6404V74.0708L29.4075 73.5012L29.5974 72.9314L29.7873 72.3617L29.9772 71.7921L30.262 71.2225L30.5469 70.6528L30.9266 70.0832L31.3064 69.6084L31.6862 69.1337L32.066 68.6589L32.5407 68.2792L33.0154 67.8994L33.4901 67.6145L33.9648 67.3297L34.4396 67.1398L34.9143 66.95H35.2941L35.6738 66.7601H36.0536H36.4334H36.8132L37.098 67.0449L36.6233 66.7601L36.3384 66.5702H35.9587L35.5789 66.3804H35.1991H34.8193H34.4396L33.9648 66.6652L33.4901 66.855L33.0154 67.1398L32.5407 67.4248L32.066 67.8045V67.8994Z" fill="#5692A8"/>
<path fill-rule="evenodd" clip-rule="evenodd" d="M32.066 67.8994L31.5912 68.2792L31.2115 68.754L30.8317 69.2286L30.4519 69.7033L30.0721 70.273L29.7873 70.8426L29.5025 71.4124L29.3126 71.982L29.1227 72.5517L28.9328 73.1213V73.6909L28.7429 74.2606V74.8304V75.305V75.7797L28.9328 76.2545L29.1227 76.7292L29.3126 77.1089L29.5025 77.3938L29.7873 77.6786L30.0721 77.8685L30.5469 78.1533L30.262 77.9634L29.9772 77.6786L29.7873 77.3938L29.5974 77.014L29.4075 76.6342V76.1596L29.2176 75.6848V75.2101V74.6404V74.0708L29.4075 73.5012L29.5974 72.9314L29.7873 72.3617L29.9772 71.7921L30.262 71.2225L30.5469 70.6528L30.9266 70.0832L31.3064 69.6084L31.6862 69.1337L32.066 68.6589L32.5407 68.2792L33.0154 67.8994L33.4901 67.6145L33.9648 67.3297L34.4396 67.1398L34.9143 66.95H35.2941L35.6738 66.7601H36.0536H36.4334H36.8132L37.098 67.0449L36.6233 66.7601L36.3384 66.5702H35.9587L35.5789 66.3804H35.1991H34.8193H34.4396L33.9648 66.6652L33.4901 66.855L33.0154 67.1398L32.5407 67.4248L32.066 67.8045V67.8994Z" fill="url(#paint4_linear_51_18472)"/>
<path fill-rule="evenodd" clip-rule="evenodd" d="M32.5245 68.1617C31.2902 69.2061 30.3408 70.7253 29.7711 72.2444C29.2015 73.7635 29.0116 75.2826 29.2964 76.5168C29.6762 77.7511 30.4357 78.4158 31.4801 78.5107C32.5245 78.5107 33.7588 78.1309 34.993 76.9916C36.2273 75.9472 37.1767 74.4281 37.7464 73.004C38.3161 71.4849 38.5059 69.9658 38.2211 68.7315C37.8413 67.4972 37.0818 66.8325 36.1324 66.8325C35.088 66.8325 33.8537 67.2123 32.6194 68.3517L32.5245 68.1617Z" fill="#2192FC"/>
<path fill-rule="evenodd" clip-rule="evenodd" d="M32.5245 68.1617C31.2902 69.2061 30.3408 70.7253 29.7711 72.2444C29.2015 73.7635 29.0116 75.2826 29.2964 76.5168C29.6762 77.7511 30.4357 78.4158 31.4801 78.5107C32.5245 78.5107 33.7588 78.1309 34.993 76.9916C36.2273 75.9472 37.1767 74.4281 37.7464 73.004C38.3161 71.4849 38.5059 69.9658 38.2211 68.7315C37.8413 67.4972 37.0818 66.8325 36.1324 66.8325C35.088 66.8325 33.8537 67.2123 32.6194 68.3517L32.5245 68.1617Z" fill="url(#paint5_linear_51_18472)"/>
<path fill-rule="evenodd" clip-rule="evenodd" d="M20.3807 31.4344L19.906 31.8143L19.5263 32.194L19.1465 32.6688L18.7667 33.1435L18.3869 33.5232L18.0072 33.998L17.6274 34.4727L17.2476 35.0424L16.9628 35.5171L16.6779 35.9917L16.2982 36.5615L16.0133 37.0361L15.8234 37.6057L15.5386 38.1755L15.3487 38.6501L15.0639 39.2199L14.874 39.7896L14.6841 40.2643L14.4942 40.8339L14.3993 41.4036L14.3043 41.8783L14.1144 42.448V43.0176L14.0195 43.4924L13.9246 44.062V44.5368V45.0115V45.4861L14.0195 46.0559V46.4356L14.1144 46.9103L14.2094 47.3851L14.3043 47.48L14.4942 48.2396L14.874 48.9991L15.3487 49.5688L15.8234 50.0435L16.3931 50.5181L17.0577 50.898L16.488 50.4232L15.9184 49.9485L15.5386 49.3788L15.1588 48.6193L14.874 47.7648L14.7791 47.2901L14.6841 46.8153L14.5892 46.3407V45.866V45.3912V44.9165V44.3468L14.6841 43.8721V43.3973L14.7791 42.8277L14.874 42.258L15.0639 41.7833L15.1588 41.2137L15.3487 40.644L15.5386 40.1693L15.7285 39.5996L15.9184 39.03L16.2032 38.4603L16.3931 37.9856L16.6779 37.416L16.9628 36.9412L17.2476 36.3716L17.5324 35.8968L17.9122 35.4221L18.292 34.8524L18.5768 34.3777L18.9566 33.9029L19.3364 33.4283L19.7161 33.0485L20.1909 32.5737L20.5706 32.194L21.0454 31.8143L21.4251 31.4344L21.8998 31.0547L22.2796 30.7699L22.7543 30.3901L23.2291 30.2001L23.6088 29.9153L24.0836 29.7255L24.4633 29.5356L24.9381 29.3457L25.3178 29.1557L25.6976 29.0609L26.1723 28.966H26.5521L26.9319 28.8709H27.3116H27.6914L28.356 29.0609L29.0206 29.2508L29.6852 29.5356L29.0206 29.1557L28.451 28.8709L27.7864 28.6811L27.0268 28.5861L26.647 28.4912H26.2673L25.8875 28.5861H25.5077L25.1279 28.6811L24.6532 28.8709L24.2734 28.966L23.8937 29.1557L23.419 29.3457L23.0392 29.5356L22.5645 29.8204L22.0897 30.1052L21.71 30.3901L21.2352 30.6749L20.8555 31.0547L20.3807 31.4344Z" fill="#AB3728"/>
<path fill-rule="evenodd" clip-rule="evenodd" d="M20.3807 31.4344L19.906 31.8143L19.5263 32.194L19.1465 32.6688L18.7667 33.1435L18.3869 33.5232L18.0072 33.998L17.6274 34.4727L17.2476 35.0424L16.9628 35.5171L16.6779 35.9917L16.2982 36.5615L16.0133 37.0361L15.8234 37.6057L15.5386 38.1755L15.3487 38.6501L15.0639 39.2199L14.874 39.7896L14.6841 40.2643L14.4942 40.8339L14.3993 41.4036L14.3043 41.8783L14.1144 42.448V43.0176L14.0195 43.4924L13.9246 44.062V44.5368V45.0115V45.4861L14.0195 46.0559V46.4356L14.1144 46.9103L14.2094 47.3851L14.3043 47.48L14.4942 48.2396L14.874 48.9991L15.3487 49.5688L15.8234 50.0435L16.3931 50.5181L17.0577 50.898L16.488 50.4232L15.9184 49.9485L15.5386 49.3788L15.1588 48.6193L14.874 47.7648L14.7791 47.2901L14.6841 46.8153L14.5892 46.3407V45.866V45.3912V44.9165V44.3468L14.6841 43.8721V43.3973L14.7791 42.8277L14.874 42.258L15.0639 41.7833L15.1588 41.2137L15.3487 40.644L15.5386 40.1693L15.7285 39.5996L15.9184 39.03L16.2032 38.4603L16.3931 37.9856L16.6779 37.416L16.9628 36.9412L17.2476 36.3716L17.5324 35.8968L17.9122 35.4221L18.292 34.8524L18.5768 34.3777L18.9566 33.9029L19.3364 33.4283L19.7161 33.0485L20.1909 32.5737L20.5706 32.194L21.0454 31.8143L21.4251 31.4344L21.8998 31.0547L22.2796 30.7699L22.7543 30.3901L23.2291 30.2001L23.6088 29.9153L24.0836 29.7255L24.4633 29.5356L24.9381 29.3457L25.3178 29.1557L25.6976 29.0609L26.1723 28.966H26.5521L26.9319 28.8709H27.3116H27.6914L28.356 29.0609L29.0206 29.2508L29.6852 29.5356L29.0206 29.1557L28.451 28.8709L27.7864 28.6811L27.0268 28.5861L26.647 28.4912H26.2673L25.8875 28.5861H25.5077L25.1279 28.6811L24.6532 28.8709L24.2734 28.966L23.8937 29.1557L23.419 29.3457L23.0392 29.5356L22.5645 29.8204L22.0897 30.1052L21.71 30.3901L21.2352 30.6749L20.8555 31.0547L20.3807 31.4344Z" fill="url(#paint6_linear_51_18472)"/>
<path fill-rule="evenodd" clip-rule="evenodd" d="M21.0406 31.8241C18.667 33.9128 16.8631 36.7611 15.7238 39.6094C14.5844 42.4577 14.2047 45.401 14.8693 47.7746C15.5339 50.1482 17.053 51.3824 18.9519 51.5723C20.8507 51.7622 23.2243 50.8128 25.5979 48.7241C27.8766 46.6353 29.7755 43.7869 30.8198 40.9386C31.9592 38.0903 32.3389 35.0521 31.6743 32.7734C31.0097 30.4948 29.4906 29.1656 27.5917 29.0706C25.5979 28.8807 23.2243 29.8302 20.9457 31.919L21.0406 31.8241Z" fill="#F25E4B"/>
<path fill-rule="evenodd" clip-rule="evenodd" d="M21.0406 31.8241C18.667 33.9128 16.8631 36.7611 15.7238 39.6094C14.5844 42.4577 14.2047 45.401 14.8693 47.7746C15.5339 50.1482 17.053 51.3824 18.9519 51.5723C20.8507 51.7622 23.2243 50.8128 25.5979 48.7241C27.8766 46.6353 29.7755 43.7869 30.8198 40.9386C31.9592 38.0903 32.3389 35.0521 31.6743 32.7734C31.0097 30.4948 29.4906 29.1656 27.5917 29.0706C25.5979 28.8807 23.2243 29.8302 20.9457 31.919L21.0406 31.8241Z" fill="url(#paint7_linear_51_18472)"/>
<path fill-rule="evenodd" clip-rule="evenodd" d="M48.2904 81.9442C51.7084 77.1021 49.2399 73.0194 46.7713 68.9368C45.3472 66.5632 43.923 64.1897 43.3534 61.6263C42.9736 59.7274 42.7837 57.9234 43.0685 56.2144C43.5433 53.1762 45.4421 51.4671 47.2461 49.1885H63.3865L65.2854 50.9924C66.8995 52.5115 67.9438 54.3155 68.3236 56.2144C68.7034 58.1133 68.5135 60.2021 67.659 62.1959C62.8169 72.9246 56.3607 80.1402 52.8478 83.1784C51.9933 83.938 51.2337 84.4127 50.759 84.6976C47.9107 86.3116 47.1511 83.7481 48.3854 82.0391L48.2904 81.9442Z" fill="#BF944A"/>
<path fill-rule="evenodd" clip-rule="evenodd" d="M48.2904 81.9442C51.7084 77.1021 49.2399 73.0194 46.7713 68.9368C45.3472 66.5632 43.923 64.1897 43.3534 61.6263C42.9736 59.7274 42.7837 57.9234 43.0685 56.2144C43.5433 53.1762 45.4421 51.4671 47.2461 49.1885H63.3865L65.2854 50.9924C66.8995 52.5115 67.9438 54.3155 68.3236 56.2144C68.7034 58.1133 68.5135 60.2021 67.659 62.1959C62.8169 72.9246 56.3607 80.1402 52.8478 83.1784C51.9933 83.938 51.2337 84.4127 50.759 84.6976C47.9107 86.3116 47.1511 83.7481 48.3854 82.0391L48.2904 81.9442Z" fill="url(#paint8_linear_51_18472)"/>
<path fill-rule="evenodd" clip-rule="evenodd" d="M47.8144 49.1094H50.5678C43.2571 59.0785 49.7133 64.2054 51.6121 73.9846C52.5616 78.9217 50.093 82.6246 47.9093 84.6184C47.7194 84.3336 47.7194 84.0487 47.7194 83.6689C49.4284 81.6751 51.3273 78.542 49.8082 74.3645C47.8144 68.5729 43.2571 62.6864 44.0166 56.2302C44.3964 53.2869 46.1054 51.4829 47.7194 49.2043L47.8144 49.1094Z" fill="#CFA45B"/>
<path fill-rule="evenodd" clip-rule="evenodd" d="M47.8144 49.1094H50.5678C43.2571 59.0785 49.7133 64.2054 51.6121 73.9846C52.5616 78.9217 50.093 82.6246 47.9093 84.6184C47.7194 84.3336 47.7194 84.0487 47.7194 83.6689C49.4284 81.6751 51.3273 78.542 49.8082 74.3645C47.8144 68.5729 43.2571 62.6864 44.0166 56.2302C44.3964 53.2869 46.1054 51.4829 47.7194 49.2043L47.8144 49.1094Z" fill="url(#paint9_linear_51_18472)"/>
<path fill-rule="evenodd" clip-rule="evenodd" d="M49.3369 82.2506C62.8189 58.8944 53.9892 52.4382 55.2234 50.4443L65.0027 52.628L66.4268 55.0016C66.8066 56.6156 66.9015 58.5146 66.7116 60.4135C66.5217 62.3124 65.9521 64.3062 65.1925 66.2051C62.629 72.0916 59.401 75.7944 56.3628 78.8326C55.2235 79.9719 49.6218 85.9534 48.7673 84.909C48.4824 84.5292 48.5774 83.6747 49.5268 82.1556L49.3369 82.2506Z" fill="#99783F"/>
<path fill-rule="evenodd" clip-rule="evenodd" d="M49.3369 82.2506C62.8189 58.8944 53.9892 52.4382 55.2234 50.4443L65.0027 52.628L66.4268 55.0016C66.8066 56.6156 66.9015 58.5146 66.7116 60.4135C66.5217 62.3124 65.9521 64.3062 65.1925 66.2051C62.629 72.0916 59.401 75.7944 56.3628 78.8326C55.2235 79.9719 49.6218 85.9534 48.7673 84.909C48.4824 84.5292 48.5774 83.6747 49.5268 82.1556L49.3369 82.2506Z" fill="url(#paint10_linear_51_18472)"/>
<path fill-rule="evenodd" clip-rule="evenodd" d="M66.3349 49.2784V31.334V31.5238V31.7137V31.9985V32.1884V32.3784V32.6632V32.948V33.2328V33.5177L66.24 33.8025H66.145L66.0501 34.0873H65.9551L65.8602 34.3721H65.7652L65.6703 34.6569H65.5754L65.3855 34.9418H65.1956L65.0057 35.2266H64.8158L64.6259 35.4165H64.436L64.2461 35.6064H64.0563L63.8664 35.7964H63.6765L63.4866 35.9861H63.2967L63.1068 36.1761H62.9169L62.727 36.366H62.5372L62.3473 36.5559H62.1574L61.9675 36.7457H61.7776L61.5877 36.8407H61.3978L61.2079 36.9356H61.0181L60.8282 37.0305H60.6383H60.3534H60.1636H59.8787H59.5939H59.3091H59.0242H58.7394H58.4546H58.1697H57.8849H57.6001H57.3152H57.0304H56.7456H56.4607H56.1759H55.8911H55.6063H55.3214H55.0366H54.7518H54.4669H54.1821H53.8973H53.6124H53.3276H53.0428H52.8529H52.663H52.4731L52.2832 36.9356H52.0933L51.9034 36.8407H51.7136L51.5237 36.7457H51.3338L51.1439 36.5559H50.954L50.7641 36.366H50.5742L50.3843 36.1761H50.1945L50.0046 35.9861H49.8147L49.6248 35.7964H49.4349L49.245 35.6064H49.0551L48.8652 35.4165H48.6754L48.4855 35.2266H48.2956L48.1057 34.9418H47.9158L47.8209 34.6569H47.7259L47.631 34.3721H47.536L47.4411 34.0873H47.3461L47.2512 33.8025H47.1562V33.5177V33.2328V32.948V32.6632V32.3784V32.1884V31.9985V31.7137V31.5238V31.334V49.0884C47.9158 56.7789 65.4804 58.2918 66.3349 50.6962V49.2784Z" fill="#BFC7C9"/>
<path fill-rule="evenodd" clip-rule="evenodd" d="M66.3349 49.2784V31.334V31.5238V31.7137V31.9985V32.1884V32.3784V32.6632V32.948V33.2328V33.5177L66.24 33.8025H66.145L66.0501 34.0873H65.9551L65.8602 34.3721H65.7652L65.6703 34.6569H65.5754L65.3855 34.9418H65.1956L65.0057 35.2266H64.8158L64.6259 35.4165H64.436L64.2461 35.6064H64.0563L63.8664 35.7964H63.6765L63.4866 35.9861H63.2967L63.1068 36.1761H62.9169L62.727 36.366H62.5372L62.3473 36.5559H62.1574L61.9675 36.7457H61.7776L61.5877 36.8407H61.3978L61.2079 36.9356H61.0181L60.8282 37.0305H60.6383H60.3534H60.1636H59.8787H59.5939H59.3091H59.0242H58.7394H58.4546H58.1697H57.8849H57.6001H57.3152H57.0304H56.7456H56.4607H56.1759H55.8911H55.6063H55.3214H55.0366H54.7518H54.4669H54.1821H53.8973H53.6124H53.3276H53.0428H52.8529H52.663H52.4731L52.2832 36.9356H52.0933L51.9034 36.8407H51.7136L51.5237 36.7457H51.3338L51.1439 36.5559H50.954L50.7641 36.366H50.5742L50.3843 36.1761H50.1945L50.0046 35.9861H49.8147L49.6248 35.7964H49.4349L49.245 35.6064H49.0551L48.8652 35.4165H48.6754L48.4855 35.2266H48.2956L48.1057 34.9418H47.9158L47.8209 34.6569H47.7259L47.631 34.3721H47.536L47.4411 34.0873H47.3461L47.2512 33.8025H47.1562V33.5177V33.2328V32.948V32.6632V32.3784V32.1884V31.9985V31.7137V31.5238V31.334V49.0884C47.9158 56.7789 65.4804 58.2918 66.3349 50.6962V49.2784Z" fill="url(#paint11_linear_51_18472)"/>
<path fill-rule="evenodd" clip-rule="evenodd" d="M66.2376 33.8908V33.606V6.26221V6.73681C64.8134 14.1424 46.3943 13.7627 45.6348 6.45199V33.5111V33.701C46.3943 41.0117 64.9084 41.3914 66.2376 33.9858V33.8908Z" fill="#FAC13C"/>
<path fill-rule="evenodd" clip-rule="evenodd" d="M66.2376 33.8908V33.606V6.26221V6.73681C64.8134 14.1424 46.3943 13.7627 45.6348 6.45199V33.5111V33.701C46.3943 41.0117 64.9084 41.3914 66.2376 33.9858V33.8908Z" fill="url(#paint12_linear_51_18472)"/>
<path fill-rule="evenodd" clip-rule="evenodd" d="M55.9837 12.1562C58.6421 12.1562 61.3005 11.5866 63.2943 10.4473C65.2882 9.30799 66.3325 7.78877 66.3325 6.17473C66.3325 4.56068 65.2882 3.13655 63.2943 1.90228C61.3005 0.762953 58.6421 0.193359 55.9837 0.193359C53.3252 0.193359 50.6668 0.762953 48.673 1.90228C46.6791 3.04161 45.6348 4.56068 45.6348 6.17473C45.6348 7.78877 46.6791 9.21295 48.673 10.3523C50.6668 11.4916 53.3252 12.0613 55.9837 12.0613V12.1562Z" fill="#F5BE3D"/>
<path fill-rule="evenodd" clip-rule="evenodd" d="M55.9837 12.1562C58.6421 12.1562 61.3005 11.5866 63.2943 10.4473C65.2882 9.30799 66.3325 7.78877 66.3325 6.17473C66.3325 4.56068 65.2882 3.13655 63.2943 1.90228C61.3005 0.762953 58.6421 0.193359 55.9837 0.193359C53.3252 0.193359 50.6668 0.762953 48.673 1.90228C46.6791 3.04161 45.6348 4.56068 45.6348 6.17473C45.6348 7.78877 46.6791 9.21295 48.673 10.3523C50.6668 11.4916 53.3252 12.0613 55.9837 12.0613V12.1562Z" fill="url(#paint13_linear_51_18472)"/>
<path fill-rule="evenodd" clip-rule="evenodd" d="M63.2933 37.5913L63.4832 37.4964L63.6731 37.4015L63.768 37.2116L63.9579 37.1167H64.0529V9.86768H63.9579L63.768 10.0576L63.6731 10.1525L63.4832 10.2475L63.2933 10.3424L63.1034 10.4375L62.9135 10.5324L62.7236 10.7223L62.5338 10.8172L62.2489 10.9121L62.059 11.0071H61.8692L61.6793 11.102L61.3944 11.1969L61.2045 11.2919L61.0147 11.3868H60.7298L60.5399 11.4817L60.3501 11.5767H60.0652L59.8753 11.6716L59.5905 11.7667H59.4006H59.3057V39.0155H59.4006L59.5905 38.9206H59.8753L60.0652 38.8256L60.3501 38.7307H60.5399L60.7298 38.6357L61.0147 38.5408H61.2045L61.3944 38.4459L61.6793 38.3508L61.8692 38.256L62.059 38.1611L62.2489 38.066L62.5338 37.9711L62.7236 37.8762L62.9135 37.7812L63.1034 37.6863L63.2933 37.5913Z" fill="#FFDC6A"/>
<path fill-rule="evenodd" clip-rule="evenodd" d="M63.2933 37.5913L63.4832 37.4964L63.6731 37.4015L63.768 37.2116L63.9579 37.1167H64.0529V9.86768H63.9579L63.768 10.0576L63.6731 10.1525L63.4832 10.2475L63.2933 10.3424L63.1034 10.4375L62.9135 10.5324L62.7236 10.7223L62.5338 10.8172L62.2489 10.9121L62.059 11.0071H61.8692L61.6793 11.102L61.3944 11.1969L61.2045 11.2919L61.0147 11.3868H60.7298L60.5399 11.4817L60.3501 11.5767H60.0652L59.8753 11.6716L59.5905 11.7667H59.4006H59.3057V39.0155H59.4006L59.5905 38.9206H59.8753L60.0652 38.8256L60.3501 38.7307H60.5399L60.7298 38.6357L61.0147 38.5408H61.2045L61.3944 38.4459L61.6793 38.3508L61.8692 38.256L62.059 38.1611L62.2489 38.066L62.5338 37.9711L62.7236 37.8762L62.9135 37.7812L63.1034 37.6863L63.2933 37.5913Z" fill="url(#paint14_linear_51_18472)"/>
<path fill-rule="evenodd" clip-rule="evenodd" d="M53.044 11.8616H52.7591L52.5692 11.7667H52.2844L52.0945 11.6716L51.8097 11.5767H51.6198L51.335 11.4817L51.1451 11.3868H50.9552L50.6704 11.2919L50.4805 11.1969L50.2906 11.102L50.0058 11.0071H49.8159L49.626 10.9121L49.4361 10.8172L49.2462 10.7223L49.0563 10.5324L48.8664 10.4375L48.6765 10.3424L48.4867 10.2475L48.2968 10.1525L48.1069 10.0576L47.917 9.86768V37.1167L48.1069 37.2116L48.2968 37.4015L48.4867 37.4964L48.6765 37.5913L48.8664 37.6863L49.0563 37.7812L49.2462 37.8762L49.4361 37.9711L49.626 38.066L49.8159 38.1611L50.0058 38.256L50.2906 38.3508L50.4805 38.4459L50.6704 38.5408H50.9552L51.1451 38.6357L51.335 38.7307H51.6198L51.8097 38.8256L52.0945 38.9206H52.2844L52.5692 39.0155H52.7591L53.044 39.1104V11.8616Z" fill="#E6B543"/>
<path fill-rule="evenodd" clip-rule="evenodd" d="M53.044 11.8616H52.7591L52.5692 11.7667H52.2844L52.0945 11.6716L51.8097 11.5767H51.6198L51.335 11.4817L51.1451 11.3868H50.9552L50.6704 11.2919L50.4805 11.1969L50.2906 11.102L50.0058 11.0071H49.8159L49.626 10.9121L49.4361 10.8172L49.2462 10.7223L49.0563 10.5324L48.8664 10.4375L48.6765 10.3424L48.4867 10.2475L48.2968 10.1525L48.1069 10.0576L47.917 9.86768V37.1167L48.1069 37.2116L48.2968 37.4015L48.4867 37.4964L48.6765 37.5913L48.8664 37.6863L49.0563 37.7812L49.2462 37.8762L49.4361 37.9711L49.626 38.066L49.8159 38.1611L50.0058 38.256L50.2906 38.3508L50.4805 38.4459L50.6704 38.5408H50.9552L51.1451 38.6357L51.335 38.7307H51.6198L51.8097 38.8256L52.0945 38.9206H52.2844L52.5692 39.0155H52.7591L53.044 39.1104V11.8616Z" fill="url(#paint15_linear_51_18472)"/>
<path fill-rule="evenodd" clip-rule="evenodd" d="M55.9999 10.5388C58.3735 10.5388 60.7471 10.064 62.4561 9.01964C64.26 7.97526 65.1145 6.64605 65.1145 5.31683C65.1145 3.98762 64.26 2.56352 62.4561 1.51914C60.6521 0.474754 58.2785 0 55.9999 0C53.7212 0 51.2527 0.474754 49.5437 1.51914C47.7398 2.56352 46.8853 3.89268 46.8853 5.31683C46.8853 6.74099 47.7398 8.0702 49.5437 9.01964C51.3476 10.064 53.7212 10.5388 55.9999 10.5388Z" fill="#D19917"/>
<path fill-rule="evenodd" clip-rule="evenodd" d="M55.9999 10.5388C58.3735 10.5388 60.7471 10.064 62.4561 9.01964C64.26 7.97526 65.1145 6.64605 65.1145 5.31683C65.1145 3.98762 64.26 2.56352 62.4561 1.51914C60.6521 0.474754 58.2785 0 55.9999 0C53.7212 0 51.2527 0.474754 49.5437 1.51914C47.7398 2.56352 46.8853 3.89268 46.8853 5.31683C46.8853 6.74099 47.7398 8.0702 49.5437 9.01964C51.3476 10.064 53.7212 10.5388 55.9999 10.5388Z" fill="url(#paint16_linear_51_18472)"/>
<defs>
<linearGradient id="paint0_linear_51_18472" x1="3.94102" y1="48.7148" x2="54.1484" y2="48.7148" gradientUnits="userSpaceOnUse">
<stop stop-color="#4AFFC7"/>
<stop offset="1" stop-color="#3BADEA"/>
</linearGradient>
<linearGradient id="paint1_linear_51_18472" x1="18.6321" y1="50.2188" x2="54.9827" y2="50.4606" gradientUnits="userSpaceOnUse">
<stop stop-color="#9CB2DF"/>
<stop offset="0.09" stop-color="#A9BDE4"/>
<stop offset="0.31" stop-color="#C3D3F0"/>
<stop offset="0.53" stop-color="#D6E3F8"/>
<stop offset="0.76" stop-color="#E2ECFD"/>
<stop offset="1" stop-color="#E6F0FF"/>
</linearGradient>
<linearGradient id="paint2_linear_51_18472" x1="15.0545" y1="63.2801" x2="26.5384" y2="63.2801" gradientUnits="userSpaceOnUse">
<stop stop-color="#4AFFC7"/>
<stop offset="1" stop-color="#3BADEA"/>
</linearGradient>
<linearGradient id="paint3_linear_51_18472" x1="15.6858" y1="63.6333" x2="28.2032" y2="63.6333" gradientUnits="userSpaceOnUse">
<stop stop-color="#4AFFC7"/>
<stop offset="1" stop-color="#3BADEA"/>
</linearGradient>
<linearGradient id="paint4_linear_51_18472" x1="28.7402" y1="72.2668" x2="38.231" y2="72.2668" gradientUnits="userSpaceOnUse">
<stop stop-color="#4AFFC7"/>
<stop offset="1" stop-color="#3BADEA"/>
</linearGradient>
<linearGradient id="paint5_linear_51_18472" x1="29.1629" y1="72.6716" x2="38.3459" y2="72.6716" gradientUnits="userSpaceOnUse">
<stop stop-color="#4AFFC7"/>
<stop offset="1" stop-color="#3BADEA"/>
</linearGradient>
<linearGradient id="paint6_linear_51_18472" x1="13.92" y1="39.6946" x2="29.6747" y2="39.6946" gradientUnits="userSpaceOnUse">
<stop stop-color="#4AFFC7"/>
<stop offset="1" stop-color="#3BADEA"/>
</linearGradient>
<linearGradient id="paint7_linear_51_18472" x1="14.5372" y1="40.3214" x2="31.9897" y2="40.3214" gradientUnits="userSpaceOnUse">
<stop stop-color="#4AFFC7"/>
<stop offset="1" stop-color="#3BADEA"/>
</linearGradient>
<linearGradient id="paint8_linear_51_18472" x1="49.3895" y1="66.2999" x2="70.7832" y2="66.4676" gradientUnits="userSpaceOnUse">
<stop stop-color="#9CB2DF"/>
<stop offset="0.09" stop-color="#A9BDE4"/>
<stop offset="0.31" stop-color="#C3D3F0"/>
<stop offset="0.53" stop-color="#D6E3F8"/>
<stop offset="0.76" stop-color="#E2ECFD"/>
<stop offset="1" stop-color="#E6F0FF"/>
</linearGradient>
<linearGradient id="paint9_linear_51_18472" x1="43.9298" y1="66.8639" x2="51.8159" y2="66.8639" gradientUnits="userSpaceOnUse">
<stop stop-color="#4AFFC7"/>
<stop offset="1" stop-color="#3BADEA"/>
</linearGradient>
<linearGradient id="paint10_linear_51_18472" x1="53.2162" y1="66.8741" x2="68.4226" y2="66.9624" gradientUnits="userSpaceOnUse">
<stop stop-color="#E6F0FF"/>
<stop offset="0.24" stop-color="#E2ECFD"/>
<stop offset="0.47" stop-color="#D6E3F8"/>
<stop offset="0.69" stop-color="#C3D3F0"/>
<stop offset="0.91" stop-color="#A9BDE4"/>
<stop offset="1" stop-color="#9CB2DF"/>
</linearGradient>
<linearGradient id="paint11_linear_51_18472" x1="51.9985" y1="42.901" x2="68.039" y2="43.0405" gradientUnits="userSpaceOnUse">
<stop stop-color="#9CB2DF"/>
<stop offset="0.09" stop-color="#A9BDE4"/>
<stop offset="0.31" stop-color="#C3D3F0"/>
<stop offset="0.53" stop-color="#D6E3F8"/>
<stop offset="0.76" stop-color="#E2ECFD"/>
<stop offset="1" stop-color="#E6F0FF"/>
</linearGradient>
<linearGradient id="paint12_linear_51_18472" x1="50.4548" y1="22.5322" x2="66.4223" y2="22.6304" gradientUnits="userSpaceOnUse">
<stop stop-color="#9CB2DF"/>
<stop offset="0.09" stop-color="#A9BDE4"/>
<stop offset="0.31" stop-color="#C3D3F0"/>
<stop offset="0.53" stop-color="#D6E3F8"/>
<stop offset="0.76" stop-color="#E2ECFD"/>
<stop offset="1" stop-color="#E6F0FF"/>
</linearGradient>
<linearGradient id="paint13_linear_51_18472" x1="50.477" y1="6.07312" x2="66.514" y2="6.34744" gradientUnits="userSpaceOnUse">
<stop stop-color="#9CB2DF"/>
<stop offset="0.09" stop-color="#A9BDE4"/>
<stop offset="0.31" stop-color="#C3D3F0"/>
<stop offset="0.53" stop-color="#D6E3F8"/>
<stop offset="0.76" stop-color="#E2ECFD"/>
<stop offset="1" stop-color="#E6F0FF"/>
</linearGradient>
<linearGradient id="paint14_linear_51_18472" x1="60.4163" y1="24.1939" x2="64.0956" y2="24.1998" gradientUnits="userSpaceOnUse">
<stop stop-color="#9CB2DF"/>
<stop offset="0.09" stop-color="#A9BDE4"/>
<stop offset="0.31" stop-color="#C3D3F0"/>
<stop offset="0.53" stop-color="#D6E3F8"/>
<stop offset="0.76" stop-color="#E2ECFD"/>
<stop offset="1" stop-color="#E6F0FF"/>
</linearGradient>
<linearGradient id="paint15_linear_51_18472" x1="49.1164" y1="24.2405" x2="53.0901" y2="24.2474" gradientUnits="userSpaceOnUse">
<stop stop-color="#E6F0FF"/>
<stop offset="0.24" stop-color="#E2ECFD"/>
<stop offset="0.47" stop-color="#D6E3F8"/>
<stop offset="0.69" stop-color="#C3D3F0"/>
<stop offset="0.91" stop-color="#A9BDE4"/>
<stop offset="1" stop-color="#9CB2DF"/>
</linearGradient>
<linearGradient id="paint16_linear_51_18472" x1="51.15" y1="5.17981" x2="65.2743" y2="5.42135" gradientUnits="userSpaceOnUse">
<stop stop-color="#9CB2DF"/>
<stop offset="0.09" stop-color="#A9BDE4"/>
<stop offset="0.31" stop-color="#C3D3F0"/>
<stop offset="0.53" stop-color="#D6E3F8"/>
<stop offset="0.76" stop-color="#E2ECFD"/>
<stop offset="1" stop-color="#E6F0FF"/>
</linearGradient>
</defs>
</svg>
