<svg width="77" height="117" viewBox="0 0 77 117" fill="none" xmlns="http://www.w3.org/2000/svg">
<path fill-rule="evenodd" clip-rule="evenodd" d="M65.2084 78.998C80.1187 87.5182 80.1187 101.654 65.2084 110.174C50.2981 118.888 26.093 118.888 11.1827 110.174C-3.72757 101.654 -3.72757 87.5182 11.1827 78.998C26.093 70.4779 50.2981 70.4779 65.2084 78.998Z" fill="#E9E9EB"/>
<path fill-rule="evenodd" clip-rule="evenodd" d="M59.3637 82.3106C71.1758 89.088 71.1758 100.126 59.3637 106.903C47.5517 113.68 28.5754 113.68 16.7633 106.903C4.95129 100.126 4.95129 89.088 16.7633 82.3106C28.5754 75.5332 47.5517 75.5332 59.3637 82.3106Z" fill="#DDDEE1"/>
<path fill-rule="evenodd" clip-rule="evenodd" d="M53.7891 85.6095C62.5029 90.6441 62.5029 98.5835 53.7891 103.618C45.0753 108.653 31.1329 108.653 22.6127 103.618C13.8989 98.5835 13.8989 90.6441 22.6127 85.6095C31.3265 80.5748 45.2689 80.5748 53.7891 85.6095Z" fill="#D1D2D6"/>
<path fill-rule="evenodd" clip-rule="evenodd" d="M28.7888 53.8701V75.3642C28.7888 87.7571 3.80908 87.7571 3.80908 75.3642V53.8701V54.2575V54.6448V55.0319L4.00291 55.4193V55.8066L4.38998 56.1937V56.5811L4.97087 56.9684L5.35853 57.3558L5.7456 57.7429L6.13267 58.1302L6.52032 58.5176H6.90739L7.29446 59.0985H7.68212L8.06918 59.6794H8.65008L9.23098 60.0667H9.81187L10.3928 60.4538H10.9737L11.5546 60.8412H12.1355L12.7164 61.0347H13.2972H13.8781H14.4596H15.0405H15.6214H16.2023H16.7832H17.3641H17.945H18.5259H19.1068H19.6877H20.2686L20.8495 60.8412H21.4304L22.0113 60.4538H22.5922L23.1731 60.0667H23.754L24.3349 59.6794H24.7225L25.1096 59.0985H25.4967L25.8843 58.5176L26.2714 58.1302L26.6584 57.7429L27.0461 57.3558L27.4332 56.9684V56.5811L28.0141 56.1937V55.8066L28.4011 55.4193V55.0319L28.595 54.6448V54.2575V53.8701H28.7888Z" fill="#D14232"/>
<path fill-rule="evenodd" clip-rule="evenodd" d="M28.7888 53.8701V75.3642C28.7888 87.7571 3.80908 87.7571 3.80908 75.3642V53.8701V54.2575V54.6448V55.0319L4.00291 55.4193V55.8066L4.38998 56.1937V56.5811L4.97087 56.9684L5.35853 57.3558L5.7456 57.7429L6.13267 58.1302L6.52032 58.5176H6.90739L7.29446 59.0985H7.68212L8.06918 59.6794H8.65008L9.23098 60.0667H9.81187L10.3928 60.4538H10.9737L11.5546 60.8412H12.1355L12.7164 61.0347H13.2972H13.8781H14.4596H15.0405H15.6214H16.2023H16.7832H17.3641H17.945H18.5259H19.1068H19.6877H20.2686L20.8495 60.8412H21.4304L22.0113 60.4538H22.5922L23.1731 60.0667H23.754L24.3349 59.6794H24.7225L25.1096 59.0985H25.4967L25.8843 58.5176L26.2714 58.1302L26.6584 57.7429L27.0461 57.3558L27.4332 56.9684V56.5811L28.0141 56.1937V55.8066L28.4011 55.4193V55.0319L28.595 54.6448V54.2575V53.8701H28.7888Z" fill="url(#paint0_linear_51_18423)"/>
<path fill-rule="evenodd" clip-rule="evenodd" d="M6.50655 57.7104L6.89362 58.0978H7.28069L7.47452 58.4852V78.4301C7.47452 78.4301 7.47473 78.8173 7.08745 79.011C6.70017 79.011 6.1189 78.4301 6.1189 77.8492V57.9043L6.50655 57.7104Z" fill="#E74C3C"/>
<path fill-rule="evenodd" clip-rule="evenodd" d="M6.50655 57.7104L6.89362 58.0978H7.28069L7.47452 58.4852V78.4301C7.47452 78.4301 7.47473 78.8173 7.08745 79.011C6.70017 79.011 6.1189 78.4301 6.1189 77.8492V57.9043L6.50655 57.7104Z" fill="url(#paint1_linear_51_18423)"/>
<path fill-rule="evenodd" clip-rule="evenodd" d="M12.5085 59.8329H12.8956C12.8956 59.8329 13.2829 59.8329 13.4765 59.8329C13.4765 59.8329 13.8638 59.8329 14.0574 59.8329H14.2512V79.7778C14.2512 79.7778 13.8638 80.5525 13.4765 80.5525C12.8956 80.5525 12.5085 80.1652 12.5085 79.3907V59.4458V59.8329Z" fill="#E74C3C"/>
<path fill-rule="evenodd" clip-rule="evenodd" d="M12.5085 59.8329H12.8956C12.8956 59.8329 13.2829 59.8329 13.4765 59.8329C13.4765 59.8329 13.8638 59.8329 14.0574 59.8329H14.2512V79.7778C14.2512 79.7778 13.8638 80.5525 13.4765 80.5525C12.8956 80.5525 12.5085 80.1652 12.5085 79.3907V59.4458V59.8329Z" fill="url(#paint2_linear_51_18423)"/>
<path fill-rule="evenodd" clip-rule="evenodd" d="M24.3165 57.9043C24.3165 57.9043 24.5105 57.9043 24.7042 57.9043C24.7042 57.9043 24.8976 57.9041 25.0913 57.7104H25.2851V62.5514V77.8492C25.2851 77.8492 25.0915 78.4301 24.7042 78.4301C24.3169 78.4301 24.1233 78.0426 24.1233 77.6553V58.0978L24.3165 57.9043Z" fill="#E74C3C"/>
<path fill-rule="evenodd" clip-rule="evenodd" d="M24.3165 57.9043C24.3165 57.9043 24.5105 57.9043 24.7042 57.9043C24.7042 57.9043 24.8976 57.9041 25.0913 57.7104H25.2851V62.5514V77.8492C25.2851 77.8492 25.0915 78.4301 24.7042 78.4301C24.3169 78.4301 24.1233 78.0426 24.1233 77.6553V58.0978L24.3165 57.9043Z" fill="url(#paint3_linear_51_18423)"/>
<path fill-rule="evenodd" clip-rule="evenodd" d="M18.3432 60.2463H18.7303H19.3118H19.8927L20.4736 60.0527V80.1912C20.4736 80.7721 19.8927 81.1593 19.3118 81.3529C18.7309 81.3529 18.1494 80.9657 18.1494 80.1912V60.2463H18.3432Z" fill="#E74C3C"/>
<path fill-rule="evenodd" clip-rule="evenodd" d="M18.3432 60.2463H18.7303H19.3118H19.8927L20.4736 60.0527V80.1912C20.4736 80.7721 19.8927 81.1593 19.3118 81.3529C18.7309 81.3529 18.1494 80.9657 18.1494 80.1912V60.2463H18.3432Z" fill="url(#paint4_linear_51_18423)"/>
<path fill-rule="evenodd" clip-rule="evenodd" d="M6.52127 42.7797C11.9432 39.6815 21.0442 39.6815 26.4662 42.7797C31.8881 45.878 31.8881 51.1062 26.4662 54.2044C21.0442 57.3027 11.9432 57.3027 6.52127 54.2044C1.09935 51.1062 1.09935 45.878 6.52127 42.7797Z" fill="#D14232"/>
<path fill-rule="evenodd" clip-rule="evenodd" d="M6.52127 42.7797C11.9432 39.6815 21.0442 39.6815 26.4662 42.7797C31.8881 45.878 31.8881 51.1062 26.4662 54.2044C21.0442 57.3027 11.9432 57.3027 6.52127 54.2044C1.09935 51.1062 1.09935 45.878 6.52127 42.7797Z" fill="url(#paint5_linear_51_18423)"/>
<path fill-rule="evenodd" clip-rule="evenodd" d="M30.5329 49.3921V54.0393L30.339 54.4266V54.814L30.1458 55.2013L29.952 55.5884L29.7581 55.9758L29.5649 56.3631L29.1772 56.7502L28.984 56.944L28.5963 57.3314L28.2093 57.7185L27.8216 58.1058L27.4345 58.2994L26.8537 58.6867L26.4666 59.0741L25.8857 59.2676L25.3048 59.4614L24.7239 59.8485L24.143 60.0423L23.5615 60.2359L22.9806 60.4294L22.3997 60.6232L21.8188 60.8168H21.0447L20.4638 61.0103L19.6891 61.2041H19.1082H18.5273L17.7526 61.3977H17.1717H16.3969H15.816H15.0419L14.461 61.2041H13.6863H13.1054L12.3307 61.0103L11.7498 60.8168H11.1689L10.588 60.6232L9.81324 60.4294L9.23235 60.2359L8.65145 60.0423L8.07056 59.8485L7.48966 59.4614L6.90876 59.2676L6.5217 59.0741L5.9408 58.6867L5.55314 58.2994L4.97225 58.1058L4.58518 57.7185L4.19752 57.3314L4.00428 56.944L3.61663 56.7502L3.42339 56.3631L3.03573 55.9758L2.84249 55.5884L2.64866 55.2013V54.814L2.45483 54.4266V54.0393V49.3921V49.7795L2.64866 50.1665V50.5539L2.84249 50.9412L3.03573 51.3283L3.42339 51.7157L3.61663 52.103L4.00428 52.2966L4.19752 52.6839L4.58518 53.0713L4.97225 53.4584L5.55314 53.6522L5.9408 54.0393L6.5217 54.4266L6.90876 54.6205L7.48966 54.814L8.07056 55.2013L8.65145 55.3949L9.23235 55.5884L9.81324 55.7822L10.588 55.9758L11.1689 56.1693L11.7498 56.3631H12.3307L13.1054 56.5567H13.6863H14.461L15.0419 56.7502H15.816H16.3969H17.1717H17.7526L18.5273 56.5567H19.1082H19.6891L20.4638 56.3631H21.0447L21.8188 56.1693L22.3997 55.9758L22.9806 55.7822L23.5615 55.5884L24.143 55.3949L24.7239 55.2013L25.3048 54.814L25.8857 54.6205L26.4666 54.4266L26.8537 54.0393L27.4345 53.6522L27.8216 53.4584L28.2093 53.0713L28.5963 52.6839L28.984 52.2966L29.1772 52.103L29.5649 51.7157L29.7581 51.3283L29.952 50.9412L30.1458 50.5539L30.339 50.1665V49.7795L30.5329 49.3921Z" fill="#C0392B"/>
<path fill-rule="evenodd" clip-rule="evenodd" d="M30.5329 49.3921V54.0393L30.339 54.4266V54.814L30.1458 55.2013L29.952 55.5884L29.7581 55.9758L29.5649 56.3631L29.1772 56.7502L28.984 56.944L28.5963 57.3314L28.2093 57.7185L27.8216 58.1058L27.4345 58.2994L26.8537 58.6867L26.4666 59.0741L25.8857 59.2676L25.3048 59.4614L24.7239 59.8485L24.143 60.0423L23.5615 60.2359L22.9806 60.4294L22.3997 60.6232L21.8188 60.8168H21.0447L20.4638 61.0103L19.6891 61.2041H19.1082H18.5273L17.7526 61.3977H17.1717H16.3969H15.816H15.0419L14.461 61.2041H13.6863H13.1054L12.3307 61.0103L11.7498 60.8168H11.1689L10.588 60.6232L9.81324 60.4294L9.23235 60.2359L8.65145 60.0423L8.07056 59.8485L7.48966 59.4614L6.90876 59.2676L6.5217 59.0741L5.9408 58.6867L5.55314 58.2994L4.97225 58.1058L4.58518 57.7185L4.19752 57.3314L4.00428 56.944L3.61663 56.7502L3.42339 56.3631L3.03573 55.9758L2.84249 55.5884L2.64866 55.2013V54.814L2.45483 54.4266V54.0393V49.3921V49.7795L2.64866 50.1665V50.5539L2.84249 50.9412L3.03573 51.3283L3.42339 51.7157L3.61663 52.103L4.00428 52.2966L4.19752 52.6839L4.58518 53.0713L4.97225 53.4584L5.55314 53.6522L5.9408 54.0393L6.5217 54.4266L6.90876 54.6205L7.48966 54.814L8.07056 55.2013L8.65145 55.3949L9.23235 55.5884L9.81324 55.7822L10.588 55.9758L11.1689 56.1693L11.7498 56.3631H12.3307L13.1054 56.5567H13.6863H14.461L15.0419 56.7502H15.816H16.3969H17.1717H17.7526L18.5273 56.5567H19.1082H19.6891L20.4638 56.3631H21.0447L21.8188 56.1693L22.3997 55.9758L22.9806 55.7822L23.5615 55.5884L24.143 55.3949L24.7239 55.2013L25.3048 54.814L25.8857 54.6205L26.4666 54.4266L26.8537 54.0393L27.4345 53.6522L27.8216 53.4584L28.2093 53.0713L28.5963 52.6839L28.984 52.2966L29.1772 52.103L29.5649 51.7157L29.7581 51.3283L29.952 50.9412L30.1458 50.5539L30.339 50.1665V49.7795L30.5329 49.3921Z" fill="url(#paint6_linear_51_18423)"/>
<path fill-rule="evenodd" clip-rule="evenodd" d="M69.233 3.28729L64.9729 0.76988H64.5858L64.1981 0.576346H63.8111L63.424 0.382812H63.0363H62.6493H62.2616H61.8745V14.3249V14.5184V14.712V14.9058L55.8718 22.2639H49.869V22.0704L54.1291 24.5878L60.1319 24.7813L66.1346 17.6168V17.4229V17.2294V17.0359V16.842V2.89993H66.5217H66.9094H67.2964H67.6841H68.0712L68.4582 3.09376H68.8459L69.233 3.28729ZM59.938 70.8677V62.154V61.7666L64.1981 64.284V64.6711V73.3848V73.7722V74.1596V74.5469V74.7405L56.4527 79.1941L52.9673 77.2579C52.9673 79.1943 52.9673 81.1304 52.9673 83.0668V83.4542V83.648V84.2289V84.616L48.7072 82.2924H48.5133V81.905V81.518V80.9368V80.5497V80.1624V36.5934L46.5768 35.4316C45.8023 35.0443 45.4155 34.657 44.6409 33.8824C42.5109 31.3651 42.1231 28.2667 42.3167 24.9749V24.5878C42.5104 21.8768 43.2852 18.7785 44.4471 16.2611V15.8741C45.8026 12.9695 47.3519 10.2582 49.4819 7.74093L53.742 10.0648C52.5802 11.8076 51.4181 13.3566 50.4499 15.0993C49.288 17.423 48.1263 19.7466 47.5454 22.2639C47.1581 23.813 46.7707 25.3622 46.7707 27.1049C46.7707 28.654 46.7707 30.0095 46.7707 31.365C47.1579 32.9141 47.5451 34.2696 48.5133 35.6251L49.0942 36.3998L52.3864 38.3361V38.5299V75.9023L59.938 71.6422V71.4486V71.0613V70.6739V70.2868V70.8677Z" fill="#BFC7C9"/>
<path fill-rule="evenodd" clip-rule="evenodd" d="M69.233 3.28729L64.9729 0.76988H64.5858L64.1981 0.576346H63.8111L63.424 0.382812H63.0363H62.6493H62.2616H61.8745V14.3249V14.5184V14.712V14.9058L55.8718 22.2639H49.869V22.0704L54.1291 24.5878L60.1319 24.7813L66.1346 17.6168V17.4229V17.2294V17.0359V16.842V2.89993H66.5217H66.9094H67.2964H67.6841H68.0712L68.4582 3.09376H68.8459L69.233 3.28729ZM59.938 70.8677V62.154V61.7666L64.1981 64.284V64.6711V73.3848V73.7722V74.1596V74.5469V74.7405L56.4527 79.1941L52.9673 77.2579C52.9673 79.1943 52.9673 81.1304 52.9673 83.0668V83.4542V83.648V84.2289V84.616L48.7072 82.2924H48.5133V81.905V81.518V80.9368V80.5497V80.1624V36.5934L46.5768 35.4316C45.8023 35.0443 45.4155 34.657 44.6409 33.8824C42.5109 31.3651 42.1231 28.2667 42.3167 24.9749V24.5878C42.5104 21.8768 43.2852 18.7785 44.4471 16.2611V15.8741C45.8026 12.9695 47.3519 10.2582 49.4819 7.74093L53.742 10.0648C52.5802 11.8076 51.4181 13.3566 50.4499 15.0993C49.288 17.423 48.1263 19.7466 47.5454 22.2639C47.1581 23.813 46.7707 25.3622 46.7707 27.1049C46.7707 28.654 46.7707 30.0095 46.7707 31.365C47.1579 32.9141 47.5451 34.2696 48.5133 35.6251L49.0942 36.3998L52.3864 38.3361V38.5299V75.9023L59.938 71.6422V71.4486V71.0613V70.6739V70.2868V70.8677Z" fill="url(#paint7_linear_51_18423)"/>
<path fill-rule="evenodd" clip-rule="evenodd" d="M15.4358 50.1616L13.3054 48.8062V20.7285L15.4358 21.8903V50.1616Z" fill="#A0ADB0"/>
<path fill-rule="evenodd" clip-rule="evenodd" d="M15.4358 50.1616L13.3054 48.8062V20.7285L15.4358 21.8903V50.1616Z" fill="url(#paint8_linear_51_18423)"/>
<path fill-rule="evenodd" clip-rule="evenodd" d="M13.0932 20.9418L10.9629 19.78L12.3185 4.09521L14.4489 5.25701L13.0932 20.9418Z" fill="#A0ADB0"/>
<path fill-rule="evenodd" clip-rule="evenodd" d="M13.0932 20.9418L10.9629 19.78L12.3185 4.09521L14.4489 5.25701L13.0932 20.9418Z" fill="url(#paint9_linear_51_18423)"/>
<path fill-rule="evenodd" clip-rule="evenodd" d="M14.4629 5.25147L12.3325 4.08968L18.5291 0.604004L20.6589 1.7658L14.4629 5.25147Z" fill="#BFC7C9"/>
<path fill-rule="evenodd" clip-rule="evenodd" d="M14.4629 5.25147L12.3325 4.08968L18.5291 0.604004L20.6589 1.7658L14.4629 5.25147Z" fill="url(#paint10_linear_51_18423)"/>
<path fill-rule="evenodd" clip-rule="evenodd" d="M15.4046 50.1453V21.8741L13.0811 20.9058L14.4367 5.22102L20.6327 1.73535L21.7945 15.8713L19.6647 19.5502V30.2004V47.6282L15.4046 50.1453Z" fill="#E6EAEB"/>
<path fill-rule="evenodd" clip-rule="evenodd" d="M15.4046 50.1453V21.8741L13.0811 20.9058L14.4367 5.22102L20.6327 1.73535L21.7945 15.8713L19.6647 19.5502V30.2004V47.6282L15.4046 50.1453Z" fill="url(#paint11_linear_51_18423)"/>
<path fill-rule="evenodd" clip-rule="evenodd" d="M61.488 15.2974L65.7481 17.6213L65.9414 17.4275L66.1352 17.2339V17.0404L66.329 16.8466V16.653V16.4595V2.51741H66.7161L67.1032 2.71095H67.4908L67.8779 2.90448H68.0717L68.4588 3.09831H68.8464L69.2335 3.29184L64.7796 0.77443L64.5863 0.580896H64.1987L63.8116 0.387363H63.4246L63.2307 0.193534H62.8437H62.456L62.0689 0V13.9421V14.1356V14.3295H61.8751V14.523V14.7165L61.6813 14.9104V15.1039L61.488 15.2974Z" fill="#A0ADB0"/>
<path fill-rule="evenodd" clip-rule="evenodd" d="M61.488 15.2974L65.7481 17.6213L65.9414 17.4275L66.1352 17.2339V17.0404L66.329 16.8466V16.653V16.4595V2.51741H66.7161L67.1032 2.71095H67.4908L67.8779 2.90448H68.0717L68.4588 3.09831H68.8464L69.2335 3.29184L64.7796 0.77443L64.5863 0.580896H64.1987L63.8116 0.387363H63.4246L63.2307 0.193534H62.8437H62.456L62.0689 0V13.9421V14.1356V14.3295H61.8751V14.523V14.7165L61.6813 14.9104V15.1039L61.488 15.2974Z" fill="url(#paint12_linear_51_18423)"/>
<path fill-rule="evenodd" clip-rule="evenodd" d="M47.3701 36.6162V80.1852V80.5726V80.9596V81.5408V81.9279L47.5639 82.3152L51.824 84.8327V84.4453V84.0579V83.477V83.0897V82.7026V39.1336L50.0814 38.3589L47.7572 37.0036L47.3701 36.6162ZM64.0235 74.1824V73.9889V73.6015V64.6939V64.3069L59.7634 61.7895V62.1768V70.8906V71.2776V71.665L64.0235 74.1824Z" fill="#A0ADB0"/>
<path fill-rule="evenodd" clip-rule="evenodd" d="M47.3701 36.6162V80.1852V80.5726V80.9596V81.5408V81.9279L47.5639 82.3152L51.824 84.8327V84.4453V84.0579V83.477V83.0897V82.7026V39.1336L50.0814 38.3589L47.7572 37.0036L47.3701 36.6162ZM64.0235 74.1824V73.9889V73.6015V64.6939V64.3069L59.7634 61.7895V62.1768V70.8906V71.2776V71.665L64.0235 74.1824Z" fill="url(#paint13_linear_51_18423)"/>
<path fill-rule="evenodd" clip-rule="evenodd" d="M67.292 31.7852V30.4299C67.292 30.0426 67.4857 29.4615 67.8729 29.2678C69.6157 26.7505 70.9712 24.0396 72.133 21.135C73.1012 18.424 73.6825 15.5196 73.6825 12.8086C73.6825 9.51674 72.9074 6.99943 71.3583 5.25667C70.1965 3.70755 68.4541 2.9329 66.3241 2.73926V16.6814C66.3241 16.6814 66.3237 17.456 65.9364 17.6496L59.9336 24.8142C59.9336 24.8142 59.5468 25.2016 59.1595 25.2016H53.1567C53.1567 25.2016 52.7691 24.8141 52.7691 24.4268V10.4847C50.639 13.0021 49.0897 15.9068 47.7342 18.8114C46.3787 22.1033 45.4106 25.5889 45.4106 28.8808C45.4106 31.5917 45.9919 33.7217 46.9601 35.4644C47.9283 37.2072 49.4774 38.369 51.2202 38.7563C51.4138 38.7563 51.6073 38.9499 51.6073 39.3372V82.9062C51.6073 82.9062 51.9943 84.4554 52.5752 84.8427C53.1561 85.23 53.931 85.0361 54.7056 84.6488L64.5814 79.0334C64.5814 79.0334 65.3559 78.4524 65.7432 78.0652C66.1305 77.6779 66.3239 77.2908 66.7112 76.7098C66.9048 76.1289 67.292 75.7416 67.292 75.1607C67.292 74.5798 67.4859 74.1923 67.4859 73.8051C67.4859 59.863 67.4857 45.9208 67.292 31.9788V31.7852ZM63.4196 74.7733L55.6735 79.227C55.6735 79.227 54.8994 79.2272 54.8994 78.8399V70.1259C54.8994 70.1259 55.2863 69.1578 55.6735 68.7705L63.4196 64.3169C63.4196 64.3169 64.1937 64.3167 64.1937 64.704V73.4177C64.1937 73.4177 63.8069 74.386 63.4196 74.7733Z" fill="#E6EAEB"/>
<path fill-rule="evenodd" clip-rule="evenodd" d="M67.292 31.7852V30.4299C67.292 30.0426 67.4857 29.4615 67.8729 29.2678C69.6157 26.7505 70.9712 24.0396 72.133 21.135C73.1012 18.424 73.6825 15.5196 73.6825 12.8086C73.6825 9.51674 72.9074 6.99943 71.3583 5.25667C70.1965 3.70755 68.4541 2.9329 66.3241 2.73926V16.6814C66.3241 16.6814 66.3237 17.456 65.9364 17.6496L59.9336 24.8142C59.9336 24.8142 59.5468 25.2016 59.1595 25.2016H53.1567C53.1567 25.2016 52.7691 24.8141 52.7691 24.4268V10.4847C50.639 13.0021 49.0897 15.9068 47.7342 18.8114C46.3787 22.1033 45.4106 25.5889 45.4106 28.8808C45.4106 31.5917 45.9919 33.7217 46.9601 35.4644C47.9283 37.2072 49.4774 38.369 51.2202 38.7563C51.4138 38.7563 51.6073 38.9499 51.6073 39.3372V82.9062C51.6073 82.9062 51.9943 84.4554 52.5752 84.8427C53.1561 85.23 53.931 85.0361 54.7056 84.6488L64.5814 79.0334C64.5814 79.0334 65.3559 78.4524 65.7432 78.0652C66.1305 77.6779 66.3239 77.2908 66.7112 76.7098C66.9048 76.1289 67.292 75.7416 67.292 75.1607C67.292 74.5798 67.4859 74.1923 67.4859 73.8051C67.4859 59.863 67.4857 45.9208 67.292 31.9788V31.7852ZM63.4196 74.7733L55.6735 79.227C55.6735 79.227 54.8994 79.2272 54.8994 78.8399V70.1259C54.8994 70.1259 55.2863 69.1578 55.6735 68.7705L63.4196 64.3169C63.4196 64.3169 64.1937 64.3167 64.1937 64.704V73.4177C64.1937 73.4177 63.8069 74.386 63.4196 74.7733Z" fill="url(#paint14_linear_51_18423)"/>
<defs>
<linearGradient id="paint0_linear_51_18423" x1="3.80185" y1="69.2645" x2="28.7721" y2="69.2645" gradientUnits="userSpaceOnUse">
<stop stop-color="#4AFFC7"/>
<stop offset="1" stop-color="#3BADEA"/>
</linearGradient>
<linearGradient id="paint1_linear_51_18423" x1="6.43604" y1="68.1797" x2="7.48671" y2="68.1803" gradientUnits="userSpaceOnUse">
<stop stop-color="#E6F0FF"/>
<stop offset="0.24" stop-color="#E2ECFD"/>
<stop offset="0.47" stop-color="#D6E3F8"/>
<stop offset="0.69" stop-color="#C3D3F0"/>
<stop offset="0.91" stop-color="#A9BDE4"/>
<stop offset="1" stop-color="#9CB2DF"/>
</linearGradient>
<linearGradient id="paint2_linear_51_18423" x1="12.9162" y1="69.8197" x2="14.2669" y2="69.8208" gradientUnits="userSpaceOnUse">
<stop stop-color="#E6F0FF"/>
<stop offset="0.24" stop-color="#E2ECFD"/>
<stop offset="0.47" stop-color="#D6E3F8"/>
<stop offset="0.69" stop-color="#C3D3F0"/>
<stop offset="0.91" stop-color="#A9BDE4"/>
<stop offset="1" stop-color="#9CB2DF"/>
</linearGradient>
<linearGradient id="paint3_linear_51_18423" x1="24.3951" y1="67.8941" x2="25.2955" y2="67.8946" gradientUnits="userSpaceOnUse">
<stop stop-color="#E6F0FF"/>
<stop offset="0.24" stop-color="#E2ECFD"/>
<stop offset="0.47" stop-color="#D6E3F8"/>
<stop offset="0.69" stop-color="#C3D3F0"/>
<stop offset="0.91" stop-color="#A9BDE4"/>
<stop offset="1" stop-color="#9CB2DF"/>
</linearGradient>
<linearGradient id="paint4_linear_51_18423" x1="18.6932" y1="70.5218" x2="20.4945" y2="70.5237" gradientUnits="userSpaceOnUse">
<stop stop-color="#E6F0FF"/>
<stop offset="0.24" stop-color="#E2ECFD"/>
<stop offset="0.47" stop-color="#D6E3F8"/>
<stop offset="0.69" stop-color="#C3D3F0"/>
<stop offset="0.91" stop-color="#A9BDE4"/>
<stop offset="1" stop-color="#9CB2DF"/>
</linearGradient>
<linearGradient id="paint5_linear_51_18423" x1="2.4467" y1="48.4921" x2="30.5139" y2="48.4921" gradientUnits="userSpaceOnUse">
<stop stop-color="#3BADEA"/>
<stop offset="1" stop-color="#4AFFC7"/>
</linearGradient>
<linearGradient id="paint6_linear_51_18423" x1="2.4467" y1="55.3949" x2="30.5141" y2="55.3949" gradientUnits="userSpaceOnUse">
<stop stop-color="#4AFFC7"/>
<stop offset="1" stop-color="#3BADEA"/>
</linearGradient>
<linearGradient id="paint7_linear_51_18423" x1="48.58" y1="41.7835" x2="69.4753" y2="41.8496" gradientUnits="userSpaceOnUse">
<stop stop-color="#9CB2DF"/>
<stop offset="0.09" stop-color="#A9BDE4"/>
<stop offset="0.31" stop-color="#C3D3F0"/>
<stop offset="0.53" stop-color="#D6E3F8"/>
<stop offset="0.76" stop-color="#E2ECFD"/>
<stop offset="1" stop-color="#E6F0FF"/>
</linearGradient>
<linearGradient id="paint8_linear_51_18423" x1="13.8038" y1="35.1949" x2="15.4549" y2="35.1961" gradientUnits="userSpaceOnUse">
<stop stop-color="#E6F0FF"/>
<stop offset="0.24" stop-color="#E2ECFD"/>
<stop offset="0.47" stop-color="#D6E3F8"/>
<stop offset="0.69" stop-color="#C3D3F0"/>
<stop offset="0.91" stop-color="#A9BDE4"/>
<stop offset="1" stop-color="#9CB2DF"/>
</linearGradient>
<linearGradient id="paint9_linear_51_18423" x1="11.7784" y1="12.3753" x2="14.4802" y2="12.3808" gradientUnits="userSpaceOnUse">
<stop stop-color="#E6F0FF"/>
<stop offset="0.24" stop-color="#E2ECFD"/>
<stop offset="0.47" stop-color="#D6E3F8"/>
<stop offset="0.69" stop-color="#C3D3F0"/>
<stop offset="0.91" stop-color="#A9BDE4"/>
<stop offset="1" stop-color="#9CB2DF"/>
</linearGradient>
<linearGradient id="paint10_linear_51_18423" x1="14.2805" y1="2.88823" x2="20.7318" y2="3.0025" gradientUnits="userSpaceOnUse">
<stop stop-color="#E6F0FF"/>
<stop offset="0.24" stop-color="#E2ECFD"/>
<stop offset="0.47" stop-color="#D6E3F8"/>
<stop offset="0.69" stop-color="#C3D3F0"/>
<stop offset="0.91" stop-color="#A9BDE4"/>
<stop offset="1" stop-color="#9CB2DF"/>
</linearGradient>
<linearGradient id="paint11_linear_51_18423" x1="15.1195" y1="25.5289" x2="21.8729" y2="25.5409" gradientUnits="userSpaceOnUse">
<stop stop-color="#E6F0FF"/>
<stop offset="0.24" stop-color="#E2ECFD"/>
<stop offset="0.47" stop-color="#D6E3F8"/>
<stop offset="0.69" stop-color="#C3D3F0"/>
<stop offset="0.91" stop-color="#A9BDE4"/>
<stop offset="1" stop-color="#9CB2DF"/>
</linearGradient>
<linearGradient id="paint12_linear_51_18423" x1="63.3001" y1="8.66088" x2="69.3031" y2="8.68696" gradientUnits="userSpaceOnUse">
<stop stop-color="#E6F0FF"/>
<stop offset="0.24" stop-color="#E2ECFD"/>
<stop offset="0.47" stop-color="#D6E3F8"/>
<stop offset="0.69" stop-color="#C3D3F0"/>
<stop offset="0.91" stop-color="#A9BDE4"/>
<stop offset="1" stop-color="#9CB2DF"/>
</linearGradient>
<linearGradient id="paint13_linear_51_18423" x1="51.2661" y1="60.3146" x2="64.1731" y2="60.3587" gradientUnits="userSpaceOnUse">
<stop stop-color="#9CB2DF"/>
<stop offset="0.09" stop-color="#A9BDE4"/>
<stop offset="0.31" stop-color="#C3D3F0"/>
<stop offset="0.53" stop-color="#D6E3F8"/>
<stop offset="0.76" stop-color="#E2ECFD"/>
<stop offset="1" stop-color="#E6F0FF"/>
</linearGradient>
<linearGradient id="paint14_linear_51_18423" x1="52.0248" y1="43.1968" x2="73.9366" y2="43.2712" gradientUnits="userSpaceOnUse">
<stop stop-color="#E6F0FF"/>
<stop offset="0.24" stop-color="#E2ECFD"/>
<stop offset="0.47" stop-color="#D6E3F8"/>
<stop offset="0.69" stop-color="#C3D3F0"/>
<stop offset="0.91" stop-color="#A9BDE4"/>
<stop offset="1" stop-color="#9CB2DF"/>
</linearGradient>
</defs>
</svg>
